<svg id="Layer_1" data-name="Layer 1" xmlns="http://www.w3.org/2000/svg" viewBox="0 0 56.59 55.18"><defs><style>.cls-1{fill:#f0dbc2;}.cls-2{fill:#f2b9b8;}.cls-3{fill:#f29c9b;}.cls-4{fill:#f0614a;}.cls-5{fill:#ea5242;}.cls-6{fill:#965735;}.cls-7{fill:#f28685;}</style></defs><path class="cls-1" d="M1.39,23.92c21.69.83,54.65.56,54.65.56s.93,15-.11,24.52a5.67,5.67,0,0,1-5.7,5.63c-18.64.67-34.61,1.23-48.29-1.53-.64,0-.92,0-1.06-.67C-.47,46.26.28,31.84,1.39,23.92Z"/><path class="cls-2" d="M.79,29c7.5.22,13.83-.19,23.47.64a115.6,115.6,0,0,0,23.33-.53c2.58-.36,2.52,1.67,2.83,2.84s.28,8.35-.06,13.21A2.85,2.85,0,0,1,47.5,48c-16,1.57-26.93,1.44-47-.2A104.25,104.25,0,0,1,.79,29Z"/><path class="cls-3" d="M2.74,24.25c-.8,0-2-.2-.9-.77,6.41-4.73,11.26-8,18-10.92C24,10.25,24.8,8.91,30.42,6.32c.9-.41,3.83-2,4.73-1.77,6.55,0,9.68.71,15,5,3.93,3.16,5.46,8.15,5.89,12.82,0,0,1.22,1.49,0,2.11S24.37,26.19,2.74,24.25Z"/><path class="cls-4" d="M43.5,14.7c3.1.51,6.38-1.6,6.26-4.76-.15-3.71-1.35-5.9-4.45-6.4S39.93,4.66,39,7.74C37.74,11.13,40.41,14.2,43.5,14.7Z"/><path class="cls-5" d="M48.19,5.19C48,5.06,48,5.1,48,5.27c.72,5.45-4.18,8.25-8.53,6.11-.15-.07-.36-.21-.39-.06a5.64,5.64,0,0,0,7.27,3.15,5.26,5.26,0,0,0,3.08-7A4.26,4.26,0,0,0,48.19,5.19Z"/><path class="cls-6" d="M45.65,7.41c-.12.71-1.7.45-1.87-.3a8.35,8.35,0,0,1,3.47-5.56A9.51,9.51,0,0,1,53.54.09c1,.16.45,2-.3,1.87a6.28,6.28,0,0,0-5.06.9A7.56,7.56,0,0,0,45.65,7.41Z"/><path class="cls-6" d="M33.11,9.82a4.33,4.33,0,0,0,1.5,1.48c.43.28.91-.07,1.28-.41s.73-.84.45-1.24A5.08,5.08,0,0,0,35,8.25c-.46-.33-1,0-1.45.33S32.86,9.4,33.11,9.82Z"/><path class="cls-6" d="M23.42,17.06c.33.31,1.59-.66,2.44-1.61a1.1,1.1,0,0,0-.1-1.52,1.21,1.21,0,0,0-1.41-.26,3.85,3.85,0,0,0-1.43,1.14A1.75,1.75,0,0,0,23.42,17.06Z"/><path class="cls-6" d="M26.32,19.16A3.63,3.63,0,0,0,28,20.8a1.33,1.33,0,0,0,1.59-.23,1.16,1.16,0,0,0,.24-1.44,5.18,5.18,0,0,0-1.5-1.43,1.34,1.34,0,0,0-1.71.17A1.14,1.14,0,0,0,26.32,19.16Z"/><path class="cls-6" d="M32.77,16.33a3.75,3.75,0,0,1,1-1A1.06,1.06,0,0,0,34,13.71a.85.85,0,0,0-.86-.21A3.08,3.08,0,0,0,31,15.64a.88.88,0,0,0,.22.92A1,1,0,0,0,32.77,16.33Z"/><path class="cls-6" d="M49.24,20.47c.45-.39.79-.71,1.07-1a1.28,1.28,0,0,0-.1-1.8,1.45,1.45,0,0,0-1.85-.23,5,5,0,0,0-1.31,1.29,1.3,1.3,0,0,0,.21,1.65A1.45,1.45,0,0,0,49.24,20.47Z"/><path class="cls-6" d="M38.55,20.25a6.78,6.78,0,0,1,1.11-1.1,1,1,0,0,0,.15-1.52.94.94,0,0,0-1.1-.17,3.92,3.92,0,0,0-2.05,1.93.94.94,0,0,0,.23,1A1.12,1.12,0,0,0,38.55,20.25Z"/><path class="cls-6" d="M17.75,20.65a8.13,8.13,0,0,0,1.54-1.49,1.08,1.08,0,0,0-.12-1.43,1.1,1.1,0,0,0-1.44-.13,7.55,7.55,0,0,0-1.52,1.52,1.07,1.07,0,0,0,.1,1.42A1.09,1.09,0,0,0,17.75,20.65Z"/><path class="cls-7" d="M50.47,40.3a2.42,2.42,0,0,0,0-1.8c-.14-.14-12.48-.39-26.48-.43-8.3-.62-16.64,0-23.79.21a2.06,2.06,0,0,0,0,1.8c11.21,2.29,21.32-.58,30.07.55C41.94,41.38,50.35,40.54,50.47,40.3Z"/></svg>