<svg id="Layer_1" data-name="Layer 1" xmlns="http://www.w3.org/2000/svg" viewBox="0 0 59.94 61.78"><defs><style>.cls-1{fill:#d4d4d4;}.cls-2{fill:#5198c2;}.cls-3{fill:#71c5f4;}.cls-4{fill:#f8f8f8;}.cls-5{fill:#e5e5e5;}.cls-6{fill:#96d5f6;}.cls-7{fill:#fff;}.cls-8{fill:#6af6ff;}.cls-9{fill:#88ccf2;}.cls-10{fill:#f12186;}.cls-11{fill:#b60361;}.cls-12{fill:#19daf4;}.cls-13{fill:#29e5ff;}</style></defs><path class="cls-1" d="M10.17,59.58c11.42-2,17.75-2.37,28-3.59,2.81-.36,5.08-.74,4.72-3.57-2-14.44-3.07-22.53-4.67-36.82a5.16,5.16,0,0,0-.83-2.22,34.6,34.6,0,0,1-7-9c-.6-4.72-.21-4.56-3-4.2A167.88,167.88,0,0,0,8.11,2.63,5.14,5.14,0,0,0,3.68,8.4L.29,18.14A5.25,5.25,0,0,0,0,20.5L4.71,57.33C5.07,60.15,7.36,59.94,10.17,59.58Z"/><path class="cls-2" d="M29.45,15.34c3.72-.48,6.69-1.19,7.07,1.76L41.07,53c.37,3-2.7,2.9-6.41,3.37S28,57.68,27.6,54.73l-4.55-35.9C22.68,15.88,25.73,15.82,29.45,15.34Z"/><path class="cls-3" d="M27.11,57.4a89.23,89.23,0,0,0-16.94,2.18c-2.81.36-5.1.57-5.46-2.25C2.49,43,1.45,34.93,0,20.5a5.11,5.11,0,0,1,.25-2.36L3.67,8.4A5.16,5.16,0,0,1,8.11,2.63l15.25-2A5.14,5.14,0,0,1,29.1,5.13l-3.64,9.78a4.92,4.92,0,0,0,0,2.32c.61,13.35,1.76,21.52,4.68,36.83C30.49,56.89,29.92,57,27.11,57.4Z"/><path class="cls-4" d="M24.37,16.14l-23,3c-2,.26-.89-1.88-.26-3.68l2.3-6.35c.33-.95.94-.76,1.93-.89A120.31,120.31,0,0,1,27.15,5.38c1-.13,2.2-.68,1.56.86L27.29,9.76l-1.44,4.71C25.52,15.42,25.36,16,24.37,16.14Z"/><path class="cls-5" d="M4.27,3.12a185.3,185.3,0,0,1,23.25-3c1.41-.18,1.07,1,1.25,2.44s.81,2.5-.6,2.68A226.23,226.23,0,0,0,4.1,8.34c-.61.08-.57-1.09-.75-2.5S2.86,3.3,4.27,3.12Z"/><path class="cls-6" d="M7.21,19.94C10,19.58,13,18.49,12.56,21.4c-.83,6.22-3,2.33-3.62,35-2.39.73-2.3-.17-2.66-3A259.26,259.26,0,0,1,2.39,22.71C2,19.88,4.4,20.3,7.21,19.94Z"/><path class="cls-7" d="M10.5,41.69a1.1,1.1,0,0,1,.4-.19,2.37,2.37,0,0,1,.53-.09l8.44-1c.7-.08,1.13.07,1.3.45a2.45,2.45,0,0,1,.17.73,2.5,2.5,0,0,1,0,.72,1.21,1.21,0,0,1-.14.42.63.63,0,0,1-.28.25,3.07,3.07,0,0,1-.78.17l-5.09.59c.34.22.88.54,1.63,1l1.38.8.4.24a1.67,1.67,0,0,1,.32.35,1.34,1.34,0,0,1,.24.63,1.3,1.3,0,0,1-.08.65,1.53,1.53,0,0,1-.27.44l-.16.14q-.35.36-1.47,1.41c-.76.71-1.17,1.09-1.22,1.15l5.12-.6.54,0a.93.93,0,0,1,.39.1c.29.12.48.51.55,1.16s0,1-.28,1.22a1.36,1.36,0,0,1-.37.2l-.55.08-8.44,1-.52.05a1.7,1.7,0,0,1-.43-.11c-.28-.12-.46-.51-.53-1.16a2.08,2.08,0,0,1,0-.72.78.78,0,0,1,.15-.43l.08-.1,4.13-4q-3.72-2.23-4.92-3c-.29-.15-.47-.54-.55-1.19S10.25,41.86,10.5,41.69Z"/><path class="cls-7" d="M14.39,39.81a4.25,4.25,0,0,1-.52,0,1.27,1.27,0,0,1-.43-.09c-.28-.11-.45-.5-.53-1.16a1.64,1.64,0,0,1,.14-1.08.82.82,0,0,1,.62-.35,2.7,2.7,0,0,1,.44-.07l5.32-.61a4.38,4.38,0,0,1,.54,0,1.05,1.05,0,0,1,.41.1c.28.1.46.48.53,1.14s0,1.06-.27,1.24a2.22,2.22,0,0,1-.38.19l-.53.07Zm-3.1-2.21a.64.64,0,0,1,.35.37,2.82,2.82,0,0,1,.18.77,2.9,2.9,0,0,1,0,.79.62.62,0,0,1-.27.45,1.91,1.91,0,0,1-.38.19c-.12,0-.29,0-.53.07l-.52,0a1.43,1.43,0,0,1-.41-.1c-.29-.11-.47-.49-.55-1.15s0-1.06.28-1.23a1,1,0,0,1,.4-.18,2.15,2.15,0,0,1,.51-.09,2.78,2.78,0,0,1,.54,0A.87.87,0,0,1,11.29,37.6Z"/><path class="cls-7" d="M10.17,36.3a4.8,4.8,0,0,1-.52.05,2.07,2.07,0,0,1-.43-.09c-.29-.12-.47-.5-.55-1.16s0-1,.28-1.22a1,1,0,0,1,.4-.19,3.18,3.18,0,0,1,.52-.09l7.05-.82a1.62,1.62,0,0,0,.68-.17c.09-.07.12-.21.1-.42a1.34,1.34,0,0,1,0-.43.6.6,0,0,1,.09-.28c.11-.22.45-.37,1-.43s1,0,1.21.17a3.43,3.43,0,0,1,.31,1.91,1.94,1.94,0,0,1-.6,1.63,5,5,0,0,1-2.32.71Z"/><path class="cls-7" d="M15.48,25.71l1.44-2.25a1.9,1.9,0,0,1,.43-.53.53.53,0,0,1,.3-.15,1.88,1.88,0,0,1,1.05.37c.46.3.71.58.74.85a1.76,1.76,0,0,1-.33,1l-.09.17c-.17.26-.46.67-.88,1.21s-.73,1-.9,1.25l1.17-.13a2.72,2.72,0,0,1,.53,0,1,1,0,0,1,.41.09c.28.1.46.49.53,1.15s0,1.06-.27,1.23a1.91,1.91,0,0,1-.38.19c-.12,0-.3.05-.53.07L9.59,31.25l-.52,0a2,2,0,0,1-.42-.09c-.29-.11-.48-.5-.55-1.16A1.64,1.64,0,0,1,8.24,29a.87.87,0,0,1,.63-.36l.43-.06L14.12,28c-.17-.16-.46-.41-.87-.74s-.7-.59-.87-.76l-.15-.17a1.7,1.7,0,0,1-.51-.88c0-.26.14-.58.52-1a1.86,1.86,0,0,1,.9-.62c.23,0,.53.13.89.48Z"/><path class="cls-8" d="M37.75,21.67l4.49-5.13c.87-1.34,1-3.25,1.17-4.84L44,6.43,56.76,7.94l-.62,5.27a11.58,11.58,0,0,0,.19,5l3,6A10.48,10.48,0,0,1,59.87,29C58.22,39.84,57.11,46,56.13,57.23a5.12,5.12,0,0,1-5.69,4.51L37.71,60.23a5.14,5.14,0,0,1-4.48-5.73c1.58-11,2-17.26,2.91-28.37A10.48,10.48,0,0,1,37.75,21.67Z"/><path class="cls-9" d="M54.21,7.64l-7.64-.91A2.57,2.57,0,0,0,43.73,9c-.17,1.42-.41,2,1,2.22l1.24.65,2.13.59c1.8.21,2.41.82,3.68,2.12a2.56,2.56,0,0,0,4.37-1.5l.3-2.56A2.57,2.57,0,0,0,54.21,7.64Z"/><path class="cls-10" d="M44.33,3.87A72.18,72.18,0,0,1,57.06,5.38,2.58,2.58,0,0,1,59.3,8.25c-.21,1.75-1,2.23-2.85,2.26-4.58.06-6.63-.36-12.72-1.52C42,8.38,41.32,7.54,41.48,6.13A2.71,2.71,0,0,1,44.33,3.87Z"/><path class="cls-11" d="M54.15,5l2.91.34a2.58,2.58,0,0,1-.6,5.13l-2.55-.31a2.56,2.56,0,0,1-2.24-2.86C51.83,5.92,52.74,4.87,54.15,5Z"/><path class="cls-12" d="M54.71,60.2a2.52,2.52,0,0,0-1.42-.72c-6.86-.3-10.71-.5-17.82-2.11a2.43,2.43,0,0,0-1.55.36,5.11,5.11,0,0,0,3.79,2.5,76.32,76.32,0,0,0,12.73,1.51A5.06,5.06,0,0,0,54.71,60.2Z"/><path class="cls-13" d="M54.65,25.88a5.51,5.51,0,0,1,4.9,5.77c-1.46,8-2.36,12.39-2.82,20.45a5.13,5.13,0,1,1-10.18-1.21A121.65,121.65,0,0,1,49,30.4,5.13,5.13,0,0,1,54.65,25.88Z"/><path class="cls-7" d="M41.57,24.3a2.54,2.54,0,0,1,2.19,2.85c-1,11.19-1.77,17.27-3.38,28-.17,1.42-1.32,1.62-2.7,1.46S36,56,36.19,54.62c1.77-11,1.91-17.23,2.57-28A2.57,2.57,0,0,1,41.57,24.3Z"/></svg>