<svg id="Layer_1" data-name="Layer 1" xmlns="http://www.w3.org/2000/svg" viewBox="0 0 369 315"><defs><style>.cls-1{fill:#df6c7c;}.cls-2{fill:#e2bf29;}.cls-3{fill:#f2994a;}.cls-4{fill:#fabb83;}.cls-5{fill:#eed053;}.cls-6{fill:#ef9da9;}</style></defs><path class="cls-1" d="M194.24,261.9c1.39-4.64,7-12.11,15.61-11.39,5.44.39,4.63,1.39,11.74,3.32s14.67,6.57,16,15.58-6.74,27.15-24.3,23.48S189.75,276.82,194.24,261.9Z"/><path class="cls-1" d="M238,274.93c4.54-5.6,9.22-7,17.3-5.24s18.88,6.68,21.26,13.46a19.68,19.68,0,0,1-.09,12.59c-2.11,5.78-6.93,11.55-13.37,13.53-11.76,3.64-25.15-3.94-28-11.06S231.16,283.32,238,274.93Z"/><path class="cls-1" d="M206.27,247s17.77-1,24.44-4c7.33-3.32,16-10.48,17.17-13.16s3-7.12,3-7.12,1.82-.77,3.2-1.17a3.67,3.67,0,0,0,1.9-1.11s1.84,1.23-7.6,13.52a176.19,176.19,0,0,1-22.08,23,20.44,20.44,0,0,1-6.12,2.65,7.33,7.33,0,0,0,3.66,3.64c2.59,1,3.52,1.14,3.74.13s-2.49-.44-2.89-.76,5.35-5.53,6.6-6.91,11.34-11.27,15.48-16.13,9.51-11.56,11.36-12.44A100.64,100.64,0,0,1,261.72,256c-.43,15.7-4.15,18.65-4.15,18.65a7.36,7.36,0,0,0,3.2.95,12.63,12.63,0,0,0,2.9-.31s-1.84-.76-2-.92,2.5-14.42,2.23-23.79c-.07-9.21-2.45-26.6-2.45-26.6l.48-1.07-.4-1.39.64-1.27s.22-2.08-.62-3.09-4.64-2.92-4.64-2.92l-.8,4.66a2.73,2.73,0,0,1-2.6,2.13c-2.28.2-2.67,1.41-4.54.29s-9-5-18.4-.91-14.92,9.42-17,14.72C210,243.83,206.27,247,206.27,247Z"/><path class="cls-2" d="M362.44,87.46a8.66,8.66,0,0,0,1.76-1.86,1,1,0,0,0,.16-1c-.31-.57-.62-1.31-.94-1.88l-.08-.1a3.55,3.55,0,0,0-4.48-.52,57.72,57.72,0,0,1-5.26,4c-2.08,1.29-4.1,2.85-6.09,4.24A15.08,15.08,0,0,0,345.67,92a6.15,6.15,0,0,1-3.81,1.43c-1,0-2.16,0-3.16,0a6,6,0,0,1-2.5-.37,16.57,16.57,0,0,0-2.93-.67,70,70,0,0,1-7.21-2.54,24.07,24.07,0,0,1-3.34-1.16c-3.48-1.71-7.19-2.89-10.57-4.69-4.34-2.31-8.88-4.47-13.2-7a84.84,84.84,0,0,1-8.2-5.06l-8.59-7.07c-.73-1.05-6.12-8.69-7.81-11.44A84.62,84.62,0,0,1,268.9,43a21.24,21.24,0,0,0-1.34-2.55A65,65,0,0,1,264,32a14.84,14.84,0,0,0-3.39-5.32c-1.33-1.55-2.66-3.1-4-4.82-.67-.78-1-1.7-1.63-2.48A9.63,9.63,0,0,0,253.62,18a3.82,3.82,0,0,0-2.37-.81c-1.43-.29-2.22.74-2,2.2.19,1,.21,2,.31,3.1,0,.18,0,.46-.14.62-.85,1.75-1.35,3.52-2.28,5.17a21.72,21.72,0,0,0-2.12,5.35c-.13.63-.35,1.15-.49,1.78a2.28,2.28,0,0,0-.15.8,11.66,11.66,0,0,1-.77,1.49c0,.26-.14.31-.14.81-.46.4,0-.51,0,0a1.2,1.2,0,0,1-.5.5c-.2.09-.1.38,0,0v1s-.21.51-.21.51c.27.31.22-.06.15.33l-.07.23c0,.64.22,1.56.22,2,0,1,0,.34,0,1.21a13.08,13.08,0,0,0,0,2.89c-.05,1.09-.05,1,0,2.89,0,4.56.39,2.74.55,7.1a100.24,100.24,0,0,0,2.09,10.65c1,4.23,7.15,25.14,30.29,38,2.25,1.26,4.92,1.82,7.28,2.82a52.51,52.51,0,0,1,4.89,2.17,53.31,53.31,0,0,0,7.88,3.31,35.39,35.39,0,0,0,13.07,1.53l1.36-.16c7.32-.9.23,1.46,14.38-2.8,1.66-.42,3.33-1,5-1.44a6.38,6.38,0,0,0,1.49-.61c.94-.47,2-.84,2.9-1.31a20.1,20.1,0,0,0,2.44-1.27c1.24-.9,2.55-1.52,3.79-2.42a30.7,30.7,0,0,0,5-4.78A22.78,22.78,0,0,1,352,95.08C355.3,92.43,359,90.09,362.44,87.46Z"/><path class="cls-3" d="M73.48,116.12c-4.28-7.41-8.81-12.19-13.46-14.19a13,13,0,0,0-12,.83,18.89,18.89,0,0,0-7.18,7,14.67,14.67,0,0,1-3.89,4.39l-1-1.81a6.6,6.6,0,0,1,2.34-9A2.21,2.21,0,0,0,36,99.46a11,11,0,0,0-3.91,15l1,1.81a14.74,14.74,0,0,1-5.75,1.17,18.94,18.94,0,0,0-9.62,2.73,13,13,0,0,0-6.74,10c-.6,5,1.27,11.34,5.56,18.77,7,12.2,13.72,15.05,27.4,21,5.12,1.33,9.37,1.14,12.29-.55A7.74,7.74,0,0,0,60,164c.39-1.47.6-2.15,1.66-2.76s1.76-.46,3.22-.06a7.76,7.76,0,0,0,6.55-.47c3.11-1.8,5.57-5.89,6.91-11.51C79.94,132.41,80.56,128.38,73.48,116.12Z"/><path class="cls-4" d="M64,116c-2,12.5-15,8-26,18-11,11.5-21,8.28-21,0s9.4-15,21-15C50,101,64,107.72,64,116Z"/><path class="cls-5" d="M277.26,63.45c10.59,15.24,30.29,24.23,24,25.07s-20.68-3.82-33.81-19.23C256.15,52.63,256.82,42.45,260.39,39,267,35.55,266.66,48.21,277.26,63.45Z"/><path class="cls-6" d="M220,262c-1.5,6.5-4.48,8-10,8-4,0-9.5-2-10-8s4.47-10,10-10S221.54,255.5,220,262Z"/><path class="cls-6" d="M257.82,279.78c-1.19,5.05-3.54,6.22-7.9,6.22-3.16,0-7.5-1.56-7.89-6.22s3.53-7.78,7.89-7.78S259,274.72,257.82,279.78Z"/></svg>