<svg id="Layer_1" data-name="Layer 1" xmlns="http://www.w3.org/2000/svg" viewBox="0 0 336 291"><defs><style>.cls-1{fill:#a8805b;}.cls-2{fill:#a0734e;}.cls-3{fill:#704d30;}.cls-4{fill:#ebce62;}.cls-5{fill:#f5f3c1;}.cls-6{fill:#f1829c;}.cls-7{fill:#be926e;}.cls-8{fill:#f7da72;}.cls-9{fill:#e3be1d;}.cls-10{fill:#7ae8d4;}.cls-11{fill:#c1956c;}.cls-12{fill:#d8b73b;}.cls-13{fill:#e87a8d;}</style></defs><path class="cls-1" d="M283.9,114.15s-8.62-2.26-11.35-3.79L259.93,67.9,214.52,9.46s1.6-.23,7.15-4.63,6.43-3,10.93-4.2a34.18,34.18,0,0,1,16.82.84L267.5,4.83S278.55,8,282.22,12c17.74,11.53,22.57,12.6,33.21,24.81,9.72,11.14,17.37,21.68,18.92,32.79,1.71,5.19,1.68,7.67,0,11.35-1.63,9.24-8.83,21-8.83,21s-1.68,3.78-8,7.14c-8.79,3.36-10.41,4.74-21,5.05C291.58,116.07,283.9,114.15,283.9,114.15Z"/><path class="cls-2" d="M321.32,39.52C331,50.67,329.44,50.06,331,61.17c5,22.71-27.33,16-39.1,14.3l-26.07-4.84L220.41,12.19s1.6-.23,7.15-4.62S234,4.51,238.49,3.36a34.35,34.35,0,0,1,16.82.84l18.08,3.37s11,3.15,14.71,7.15C305.85,26.25,310.68,27.32,321.32,39.52Z"/><path class="cls-3" d="M204.13,20.82c4.63-2.95,5.61-6.76,8-9.25,2.59-3.2,5.47-3,9.25-3s9.67,3,13.46,3,7.15,1.26,11.77,3.78,16.82,18.08,26.07,24.81S281.07,53.61,287,59.5s7.57,10.09,3.78,21.44-.09,10.83-5.88,18.5c-2.73,3.61-4.63,7.14-8.83,9.67s-4.68,1-6.31-2.53A80.5,80.5,0,0,1,262.15,91c-3.36-9.25-7.24-9.69-11.77-16-4-5.54-5-9.69-10.09-14.29-6.14-5.59-11.07-7.94-18.92-9.67s-11.66-3.35-17.24-7.57c-5.45-2.59-5.73-5.2-6.3-9.67A13,13,0,0,1,204.13,20.82Z"/><path class="cls-4" d="M204.85,24.6s4.36-1.56,4.63-2.11l4.62-1.26L260.35,46l21.87,37.42A16.16,16.16,0,0,1,283.48,94c-1,4.42-2.34,8.54-6.73,9.67-2.07.53-3.57-2.35-4.62-4.21-3.37-5.88-4.2-8-8.41-14.71-2.67-4.27-7.08-8.17-10.09-12.19-3.61-4.82-3.49-7.78-7.57-12.2-6.4-6.92-10.72-7.53-18.92-12.19-8.89-5-18.4-2-24-10.51-1.65-2.53-1.75-4.13-1.68-7.15A7.51,7.51,0,0,1,204.85,24.6Z"/><path class="cls-5" d="M253.63,45.62c-15.06-10.88-44.15-22.26-43.31-23.55,2.86-4.38,5.06-7.38,10.09-8.83,5.48-1.57,14.3,3,14.3,3s13,3.78,16.81,9.25,5.9,9.24,11.36,12.61l.24.18c6,4.63,8.66,6.68,11.11,10.75,3.1,7.56,4.2,8.83,8.41,12.61s5.12,6,4.62,13.46c-.37,5.5-1.26,9.67-3.36,12.61S277,76.72,271.29,68.32C265,59.05,268.68,56.49,253.63,45.62Z"/><path class="cls-2" d="M25.63,76.94a38.59,38.59,0,0,0,5.75-.86l9.56-19.27L67.53,32.64s-.75-.24-3-2.81-2.82-2-4.87-2.92a16.76,16.76,0,0,0-8.12-1L42.57,26s-5.54.59-7.63,2.19c-9.45,4-11.85,4.15-17.95,9.1C11.41,41.84,6.87,46.24,5.21,51.43,4,53.77,3.76,55,4.26,56.86c0,4.55,2.48,10.79,2.48,10.79S7.23,69.6,10,71.73c3.93,2.34,4.59,3.13,9.64,4.16C21.79,77.22,25.63,76.94,25.63,76.94Z"/><path class="cls-1" d="M13.94,38.13c-5.57,4.52-4.76,4.37-6.42,9.55C3.21,58.12,19.26,57.6,25,57.78l12.87-.15L64.49,33.46s-.75-.25-3-2.81-2.82-2-4.88-2.92a16.57,16.57,0,0,0-8.11-1l-8.93.11S34,27.43,31.9,29C22.45,33.07,20.05,33.18,13.94,38.13Z"/><path class="cls-3" d="M71.55,38.94c-2-1.8-2.12-3.7-3-5.09-1-1.75-2.37-1.86-4.18-2.18s-4.87.6-6.68.29-6.7,1.76-9.13,2.59S42.94,39,38,41.42s-5.94,6.8-9.25,9.13-4.46,4.19-3.59,9.94-1.21,6.14.92,10.29a13.29,13.29,0,0,0,3.77,4.41c1.81,1.55,2.16.89,3.23-.69A38.61,38.61,0,0,0,38,67.69c2.37-4.14,3.74-5.29,6.43-7.92,2.37-2.32,3.74-3,6.54-4.74A17.79,17.79,0,0,1,60.79,52a18.2,18.2,0,0,0,8.87-2.18c2.83-.79,3.18-2,3.82-4.1A6.29,6.29,0,0,0,71.55,38.94Z"/><path class="cls-4" d="M70.89,40.69a10.47,10.47,0,0,1-2-1.4l-2.11-1-24.19,8L29,62.4a7.88,7.88,0,0,0-1.48,4.92c.09,2.2.41,4.28,2.41,5.19.95.43,1.91-.83,2.57-1.63,2.1-2.53,2.67-3.46,5.24-6.34,1.63-1.81,3.06-4.47,4.83-6.15,2.13-2,3.33-2.27,5.65-4a22.89,22.89,0,0,1,8.56-4.67c4.67-1.68,9.93.86,13.3-2.75a6.56,6.56,0,0,0,1.83-3.67A2.4,2.4,0,0,0,70.89,40.69Z"/><path class="cls-6" d="M53.56,44.18c8.11-4,15.22-4.47,14.93-5.16-1-2.33-1.8-4-4.09-5.06-2.49-1.21-7.09.22-7.09.22s-6.54.72-8.81,3S44.91,41.14,42,42.29l-.13.07c-3.26,1.71-4.7,2.47-6.21,4.22-2.11,3.35-1.35,3.47-3.68,4.93S27.66,54.37,27.28,58c-.28,2.66-.2,4.73.56,6.31s4.2-4.66,7.64-8.2C39.28,52.16,45.45,48.13,53.56,44.18Z"/><path class="cls-1" d="M76.23,269.21s6.27.66,8.46.33l18.92-25,44.61-27.37s-1-.55-3.58-4.85-3.49-3.62-6.18-5.5a24.19,24.19,0,0,0-11.35-3.63l-12.8-2.28s-8.1-.66-11.52,1.07c-14.62,3.21-18.08,2.72-28.17,8.14-9.2,5-16.89,10-20.69,17-2.42,3-3,4.65-2.82,7.51-1.23,6.52.6,16.12.6,16.12s.17,2.92,3.51,6.72c5,4.41,5.71,5.73,12.66,8.57C70.66,268.57,76.23,269.21,76.23,269.21Z"/><path class="cls-7" d="M70.05,210.5c-9.21,5-8,4.95-11.8,11.92-9,13.77,14.11,17.38,22.33,19.2L99,244.91l44.62-27.37s-1-.55-3.58-4.84-3.5-3.63-6.19-5.51a24.31,24.31,0,0,0-11.34-3.63l-12.81-2.28s-8.1-.66-11.52,1.07C83.59,205.56,80.13,205.07,70.05,210.5Z"/><path class="cls-3" d="M150.63,225.9c-2.33-3.1-.38-4.47-1.34-6.71-.92-2.76-2.89-3.31-5.39-4.25s-10.56-3.16-13.07-4.1-6.42.34-10.11.86-9.84,3.1-17.64,5.25S90.4,228.14,85,230.57s-4.75,6.5-5.07,15-2.64,7.19-.71,13.71c.91,3.07,1.28,5.88,3.43,8.6s2.84,1.86,4.81-.1c0,0,3.66-.92,8.19-6.2s7.9-6.82,12.46-9.86c4-2.67,5-5.16,9.49-7,7.85-3.11,15.37-2.12,24.1-4.7C149,239.42,156.56,233.8,150.63,225.9Z"/><path class="cls-8" d="M130.24,239.66c7.14-1.13,10.85-1.64,16-4.38,4.22-2.24,4.56-5.12,2.08-8.2l-2.75-2L105,222.22,86.68,247.88a11.42,11.42,0,0,0-3.46,6.64c-.46,3.17-.57,6.24,2,8.08,1.23.87,2.94-.67,4.11-1.63,3.69-3.06,3.07-2.79,7.54-6.21,2.82-2.16,6.72-3.64,9.71-5.56,3.59-2.29,4.25-4.28,8.05-6.18C120.64,240,123.65,240.7,130.24,239.66Z"/><path class="cls-9" d="M115.17,229.4c12.68-3.45,32.93-1.74,32.69-2.81-.79-3.61-1.5-6.15-4.48-8.35-3.23-2.41-10.71-4.07-10.71-4.07s-8.9-2.08-12.76.6-8.93,4.1-13.38,5c-5.28,1.61-7.43,4.16-10.1,6.27-6.59,7.1-10.8,3.2-11,15.29,0,3.9-1.57,6.71-.91,9.18s3.23-6.12,9.11-10.25C100.18,235.67,102.5,232.85,115.17,229.4Z"/><path class="cls-1" d="M255.19,245a47.14,47.14,0,0,1-7-2.33l-5.43-25.08-14-6.33s4.66-23,6.21-23,30,1.29,39.56,9.17a32.28,32.28,0,0,1,11.64,20.17c1,3.19,1,4.72,0,7-1,5.67-5.43,12.92-5.43,12.92s-1,2.33-4.92,4.4c-5.41,2.06-6.4,2.91-12.92,3.1C259.92,246.14,255.19,245,255.19,245Z"/><path class="cls-2" d="M260.88,189s6.79,1.94,9.05,4.4c7.5,4.87,12.73,8.29,14.22,19,3.1,14-16.81,9.83-24,8.79l-16-3-8.79-23.53s-3.93-3.76-.52-6.46,1.89-1.11,4.66-1.81a21.11,21.11,0,0,1,10.34.51Z"/><path class="cls-3" d="M234.58,220.92c-2.46-3.41-8.07-5-6.21-8.79,1-1.95,4.47-18,6.21-22.11s8,5.3,13.7,9.44,5.17,8.27,8.79,11.89,4.66,6.21,2.33,13.19,0,6.66-3.62,11.37c-1.68,2.23-2.84,4.4-5.43,6s-2.88.65-3.88-1.55a29.92,29.92,0,0,1-5.24-9.18C239.16,225.44,237.36,224.79,234.58,220.92Z"/><path class="cls-4" d="M236.57,219.36c-2.21-3-4.73-6.72-7.24-9.43-1-1,1.3-9.05,2.85-12.16l17.32,15,4.65,13.32a9.91,9.91,0,0,1,.78,6.46c-.59,2.72-1.44,5.25-4.14,5.95-1.27.33-2.19-1.45-2.84-2.59-2.07-3.62-2.58-4.9-5.17-9C241.14,224.24,238.43,221.84,236.57,219.36Z"/><path class="cls-10" d="M247.43,216.78c-3.89-5.71-14.16-15.77-15.77-16.94s1.55-9.44,3.62-9.44,3.62,5.69,7,7.76c3.8,2.93,5.46,4.19,7,6.72,1.91,4.65,2.59,5.43,5.17,7.76s3.16,3.71,2.85,8.27c-.23,3.39-.78,6-2.07,7.76S251,221.94,247.43,216.78Z"/><path class="cls-11" d="M108.68,34.79a19.07,19.07,0,0,0,.81,2.85l10,2.61,2.3,5.72s9.33-1.47,9.36-2.1,0-12.07-3-16a13,13,0,0,0-7.91-5,3.3,3.3,0,0,0-2.8-.12,19.09,19.09,0,0,0-5.29,2,4.44,4.44,0,0,0-1.85,1.9c-.92,2.14-1.28,2.53-1.47,5.14A6.43,6.43,0,0,0,108.68,34.79Z"/><path class="cls-2" d="M131.27,33.47s-.66-2.76-1.61-3.71c-1.83-3.1-3.11-5.26-7.39-6.05-5.56-1.48-4.24,6.59-4,9.52l.92,6.49,9.3,3.94s1.45,1.64,2.59.32.48-.74.81-1.84a8.48,8.48,0,0,0,0-4.17Z"/><path class="cls-3" d="M118,43.49c1.32,1,1.87,3.33,3.42,2.64.8-.35,7.3-1.48,9-2.11s-2-3.31-3.55-5.67-3.24-2.22-4.63-3.74-2.42-2-5.26-1.16-2.68-.09-4.64,1.26a8,8,0,0,0-2.48,2.08c-.67,1-.31,1.15.56,1.59a12.2,12.2,0,0,0,3.6,2.26C116.25,41.57,116.48,42.3,118,43.49Z"/><path class="cls-12" d="M118.64,42.71c1.15.94,2.62,2,3.67,3.07.4.41,3.66-.36,4.93-.93l-5.73-7.22-5.27-2.1a4,4,0,0,0-2.58-.42c-1.1.19-2.13.49-2.46,1.56-.16.5.54.91,1,1.19,1.42.89,1.92,1.12,3.55,2.23C116.76,40.79,117.68,41.93,118.64,42.71Z"/><path class="cls-13" d="M119.87,38.39A49.77,49.77,0,0,1,126.4,45c.44.67,3.82-.46,3.86-1.29s-2.22-1.55-3-2.94a9.64,9.64,0,0,0-2.58-2.92,6.32,6.32,0,0,1-3-2.21c-.89-1.08-1.43-1.33-3.27-1.29a6.12,6.12,0,0,0-3.16.7C114.47,35.56,117.86,36.89,119.87,38.39Z"/></svg>