<svg xmlns="http://www.w3.org/2000/svg" viewBox="0 0 275 9" preserveAspectRatio="none">
    <defs>
        <style>
            .cls-1 {
                fill: #f4decc;
            }
        </style>
    </defs>
    <path class="cls-1"
        d="M231.05,7.9c0-.47-.27-.57-2.27-.58-.32,0-.84,0-1.16,0-5.17,0-10.37,0-15.54,0H198.2c-2.84,0-5.71.07-8.55.07l-14-.23C173.88,7,172.07,7,170.36,7c-11.29.23-43.2.23-54.53.53-5.39.1-10.59.13-16.11.14-5.2,0-10.53,0-15.86-.08-3.68,0-7.39.09-11.1.17-1.68,0-3.42.18-5.13.27-3.74.16-7.54.46-11.35.38-5.33-.06-8.17-.52-13.47-.54-1.55.11-4.52.52-6.17.46-2.14.13-4,0-6.22,0-2.83,0-6.09-.26-9,0a28.76,28.76,0,0,0-2.93,0c-1.12.29-1.31-.36-1,.13.14.48,2-.14,3.23.12a27,27,0,0,0,4.22,0c3.2,0,5.86.14,9,.17,3.84,0,7.81.11,11.66.12,1.84,0,3.87-.07,5.68,0,5.24.28,10.33.08,15.56,0,3.87-.07,7.81-.28,11.65-.27,10.85,0,18.35.19,29.33.33,3.17,0,8.92.19,11.83,0,4.48-.33,10.18-.39,14.83-.31,6.33.06,33.24-.27,39.54-.13,3.16,0,6.33.06,9.33.07,2.49,0,5,0,7.49.08,2.17,0,4.33,0,6.36,0l10.49-.3q8.82-.08,17.44.29A6.42,6.42,0,0,0,227,8.48c1-.39,1.94.76,2.41.41.72-1,1.08.29,1.64-.68h-.16Z" />
    <path class="cls-1"
        d="M275,1.39c0-.63-.29-.77-2.34-.79-.33,0-.86,0-1.2,0-5.3-.07-10.63,0-15.93-.11l-14.24,0c-2.91,0-5.86.08-8.77.07L218.16.14A45.59,45.59,0,0,0,212.7.05C201.11.33,112.63,1.63,101,2c-5.53.12-10.86.15-16.52.14-5.33,0-10.8-.06-16.27-.15-3.77,0-7.58.09-11.38.19-1.72,0-3.51.24-5.26.36-3.84.2-7.73.6-11.64.48A150.11,150.11,0,0,0,24,3.54a37.6,37.6,0,0,1-5,0,34.63,34.63,0,0,0-5.6-.21c-3,.19-6.26.24-9.26.54a15.3,15.3,0,0,0-2.91.51C.11,4.74-.2,4.2.12,4.87c.15.65,1.47.8,2.74,1.15a20.78,20.78,0,0,0,4.35.39c3.28,0,6.52,0,9.77,0,3.94,0,8,.17,12,.19,1.89,0,4-.08,5.83,0,5.37.39,10.6.14,16,0,4-.08,8-.37,12-.34,11.13.09,22.39.31,33.66.53,3.25,0,6.63.22,9.6,0a123.3,123.3,0,0,1,14.17-.3c6.49.1,89.83-.62,96.29-.41,3.25,0,6.5.1,9.58.13,2.55.08,5.13,0,7.68.13,2.22,0,4.44.08,6.53,0l10.75-.37q9-.09,17.89.44a4.63,4.63,0,0,0,1.95-.2,12.39,12.39,0,0,0,2.52-1.51,27.52,27.52,0,0,0,1.7-3l-.17,0C274.89,1.6,274.92,1.5,275,1.39Z" />
</svg>