<svg xmlns="http://www.w3.org/2000/svg" viewBox="0 0 283 9" preserveAspectRatio="none">
    <defs>
        <style>
            .cls-1 {
                fill: #f4decc;
            }
        </style>
    </defs>
    <path class="cls-1"
        d="M279.52,7.22c.05-.79-.25-1-2.31-1-.33,0-.86,0-1.19,0C270.7,6,265.36,6,260,5.9l-14.28-.15c-2.93,0-5.89,0-8.81,0L222.6,5.21a36.14,36.14,0,0,0-5.48-.16c-11.63.25-91.42.33-103.09.71-5.55.1-10.9.1-16.58,0-5.35,0-10.83-.16-16.31-.31-3.79,0-7.61,0-11.44.15-1.72,0-3.52.26-5.29.4a110.87,110.87,0,0,1-11.7.5c-5.48-.15-10.54-.19-16-.28a21.3,21.3,0,0,1-4.21-.08,59.81,59.81,0,0,1-6.39-.11C23.2,6,19.87,5.55,16.84,5.9c-1.07.1-2.25-.34-3-.06-1.17.49-1.33-.62-1,.22.12.81,2.06-.22,3.31.23a16.59,16.59,0,0,0,4.35.08c3.29,0,6,.31,9.27.4,4,.06,8,.27,12,.33,1.9,0,4-.07,5.85.08a129.58,129.58,0,0,0,16,.14c4-.07,8-.39,12-.33,11.16.21,22.52-.73,33.81-.36,3.25.08,6.64.33,9.63.11,4.63-.5,9.38.85,14.16,1,6.52.18,81.18-.52,87.65-.22,3.26.09,6.51.18,9.6.25,2.56.11,5.15.1,7.71.22,2.22.07,4.45.13,6.54.05,3.66-.12,7.15-.26,10.81-.37q9.06,0,17.93.69a3.87,3.87,0,0,0,2-.24c1-.64,2,1.32,2.47.73.79-1.61,1.09.5,1.72-1.13l-.17,0C279.45,7.48,279.49,7.35,279.52,7.22Z" />
    <path class="cls-1"
        d="M283,1.67c0-.54-.26-.66-2.37-.69-.35,0-.89,0-1.23,0C273.92.84,268.43.82,263,.72L248.33.58c-3,0-6,0-9,0L224.59.15C222.68.05,220.78,0,219,0,207,.17,116,.56,104,.79c-5.69,0-11.18,0-17,0C81.52.76,75.9.64,70.28.52c-3.88,0-7.8,0-11.72.07-1.77,0-3.62.17-5.42.26-4,.13-8,.45-12,.31-5.62-.12-11,0-16.43.31A46.21,46.21,0,0,1,19.6,1.4a41.85,41.85,0,0,0-5.75-.22c-3.07.14-6.44.15-9.55.38A19.1,19.1,0,0,0,1.3,2C.1,2.3-.19,1.84.11,2.41c.13.55,1.49.69,2.78,1a25,25,0,0,0,4.46.36c3.37,0,6.71,0,10,.12,4.05,0,8.24.21,12.29.26,1.95,0,4.09,0,6,.07,5.51.38,10.9.21,16.42.14,4.09,0,8.25-.25,12.3-.2,11.45.18,23,.45,34.61.73,3.34.07,6.81.24,9.88.1,4.74-.33,9.68-.28,14.58-.14,6.68.14,92.43.2,99.08.42,3.33.07,6.67.14,9.84.19,2.62.09,5.28.09,7.9.17,2.29,0,4.57.11,6.71,0l11.08-.22q9.3,0,18.39.52a6.13,6.13,0,0,0,2-.16,13.53,13.53,0,0,0,2.65-1.26A23.37,23.37,0,0,0,283,2h-.17C282.9,1.84,282.93,1.76,283,1.67Z" />
</svg>