<svg xmlns="http://www.w3.org/2000/svg" viewBox="0 0 236 9" preserveAspectRatio="none">
    <defs>
        <style>
            .cls-1 {
                fill: #f4decc;
            }
        </style>
    </defs>
    <path class="cls-1"
        d="M15.15,7.12c.41,0,1,0,1.45,0C23,7,29.46,7,35.87,7l17.22,0c3.53,0,7.09.08,10.61.06L81,6.61a63.92,63.92,0,0,1,6.61-.1c14,.28,13.63-.38,27.68,0,6.69.11,13.14.14,20,.13,6.45,0,4.68-.07,11.29-.17,4.56,0,9.17.09,13.77.19,2.09,0,4.25.25,6.37.37,4.65.2,9.37-.46,14.1-.59,6.61-.1,12.7-.1,19.28-.15a37.44,37.44,0,0,0,5.07,0c2.66.18,4.9,0,7.71-.06,3.53,0,7.56-.38,11.2-.08,1.28.1,2.71-.27,3.63,0,1.4.42,1.63-.51,1.26.19-.17.67-2.48-.2-4,.17a28.47,28.47,0,0,1-5.23,0c-4,0-7.27.22-11.19.28-4.77,0-9.7.18-14.47.2-2.28,0-4.8-.08-7,0-6.49.42-12.82,1.24-19.31,1.11-4.8-.08-9.69-.37-14.45-.35-13.46.11-18.74-.73-32.36-.5-3.93.06-8,.24-11.62,0-5.57-.45-9.24.65-15,.78-7.85.11-3.35.28-11.16.49l-11.58.15c-3.08.08-6.21.06-9.29.14-2.68,0-5.37.09-7.89,0l-13-.37Q30.4,8.4,19.7,9C15.91,9.33,8.77,7.18,15.15,7.12Z" />
    <path class="cls-1"
        d="M236,1.67c0-.65-.34-.8-2.9-.83-.41,0-1.07,0-1.48,0C225,.71,218.34.72,211.75.63L194,.55c-3.63,0-7.29.06-10.92,0L165.32.16a67.69,67.69,0,0,0-6.8-.11c-14.41.24-18.36.59-32.81.93-6.88.1-13.51.11-20.56.08-6.63,0-13.43-.1-20.23-.21-4.69,0-9.43.06-14.17.15-2.14,0-4.36.23-6.54.35-4.77.19-9.63.6-14.49.45-6.8-.11-13.26,0-19.85.48a55.66,55.66,0,0,1-6.18,0,48.42,48.42,0,0,0-7-.24C13,2.17,9,2.21,5.2,2.51A23.1,23.1,0,0,0,1.59,3C.16,3.44-.25,2.87.14,3.57c.17.67,1.83.83,3.4,1.21a30.85,30.85,0,0,0,5.4.41c4.08,0,8.12,0,12.15.09,4.91,0,10,.21,14.88.25,2.35,0,4.94-.07,7.25,0,6.68.44,13.19.19,19.86.07,4.94-.06,10-.34,14.86-.3,13.84.14,27.85.41,41.87.68,4,.06,8.24.25,11.94.07,5.72-.43,11.69-.4,17.63-.26,8.07.13,5.61.36,13.65.6,4,.06,8.07.13,11.9.17,3.18.09,6.39.08,9.56.17,2.77.05,5.52.1,8.12,0L206,6.45q11.25-.06,22.25.52a7.14,7.14,0,0,0,2.43-.2,15.67,15.67,0,0,0,3.14-1.56A26.17,26.17,0,0,0,236,2.12l-.21,0Z" />
</svg>