<svg id="Layer_1" data-name="Layer 1" xmlns="http://www.w3.org/2000/svg" viewBox="0 0 55 73"><defs><style>.cls-1{fill:#df633c;}.cls-2{fill:#fff;}</style></defs><path class="cls-1" d="M27.28,52.94c-.22.11-.36.15-.36.25,0,.33,0,.65-.07.9s.5.4.25.9a3.28,3.28,0,0,1-.22.25c.11.29.55,0,.66.36l-.48.47a1.19,1.19,0,0,0-.32,0,.31.31,0,0,0-.18.4v.83c0,.1,0,.21,0,.32l-.25.25v.68c.07.08.18.22.29.33-.08.32-.55,0-.66.47v1.8c.11.1.22.25.33.36v.64a2.94,2.94,0,0,1-.33.36c.44.47.44.51,0,1v2.63a2.35,2.35,0,0,0-.33.36,1.19,1.19,0,0,1,0,.32c.21.21.43.47.65.68v2.34l-.26.25a2.28,2.28,0,0,0-.07,1v.79c-.11.11-.25.18-.25.29A1.25,1.25,0,0,1,25,73H23.69c-.18-.11-.29-.25-.43-.32s-.26,0-.29-.08c-.37-.32-.73-.68-1.13-1.07a5.25,5.25,0,0,0,0-.65c0-.22-.44-.32-.33-.68a2,2,0,0,1,.33-.36v-1.3a4.07,4.07,0,0,1,.36-.36V66.86a2.35,2.35,0,0,1,.33-.36V65.17l-.26-.26a3.16,3.16,0,0,1-.07-1,5.7,5.7,0,0,0,0-.82l-.25-.25s0-.11,0-.15V54c.08-.11.18-.22.29-.36-.07-.07-.11-.18-.18-.18a2.16,2.16,0,0,0-.51,0,.32.32,0,0,1-.29-.18v-.68c.11-.29.55,0,.66-.36,0,0-.08-.11-.11-.11-.33,0-.65,0-1-.07l-.4.32a.93.93,0,0,0-.33,0,2.33,2.33,0,0,1-.36.32c-.29-.11,0-.54-.36-.65l-.11.11a.57.57,0,0,1-.22.15A.25.25,0,0,1,18.8,52a.22.22,0,0,0-.11-.28c-.07,0-.15,0-.26.1s-.25.18-.54.15c-.14-.22-.33-.47-.47-.65H16.26c-.15.07-.18.18-.11.25l.4.4L17,52c.19,0,.33,0,.44.18-.11.11-.22.26-.33.36s0,.33-.18.47c-.22-.22-.43-.43-.69-.65l-.47.47v.68a3.92,3.92,0,0,1,.33.36v1.44a4.07,4.07,0,0,0,.36.36v.65l.25.25a.36.36,0,0,1,.08.29v1.47a.76.76,0,0,1,.36.72.81.81,0,0,1-.33.58v1.61c-.11.15-.21.25-.32.4a1.23,1.23,0,0,1,0,.36c-.25.25-.54.5-.87.79h-2c-.11-.07-.22-.22-.36-.33h-.33c-.18-.1-.14-.25-.18-.43s-.18-.25-.29-.43V60.06c-.11-.14-.22-.25-.32-.39.1-.11.21-.22.32-.36v-1a3,3,0,0,0-.32-.36.58.58,0,0,1,.14-.47,1,1,0,0,0,.18-.25v-.54c-.07-.11-.18-.22-.29-.4.07-.1.18-.21.29-.36v-.61a4.26,4.26,0,0,1,.36-.39v-.44c-.1-.1-.21-.25-.32-.36V52.51a4.26,4.26,0,0,0-.36-.39v-2.3c-.11-.22-.3-.15-.48-.18a4,4,0,0,1-.36.32s-.11,0-.18,0v-.5a3.92,3.92,0,0,0,.33-.36,2.14,2.14,0,0,1-.29-.33,2.83,2.83,0,0,1,.32-.36c0-.43,0-.46-.47-.46l-.69.64s-.11,0-.14,0v-.5a4.17,4.17,0,0,1-.47-.47,1.51,1.51,0,0,1-.51-.21l.22-.22c.07-.07,0-.14-.08-.25a1.3,1.3,0,0,1-.18-.25c0-.18,0-.4-.18-.4s-.14.26-.18.4-.15.22-.18.18a.24.24,0,0,1-.15-.25c0-.33-.07-.33-.4-.36l-.14,0-.47-.46s0-.11,0-.15a.24.24,0,0,0,.29-.11c.07-.1,0-.18-.37-.21h.08A.22.22,0,0,0,7.37,45c-.07-.08-.14-.08-.21.07s0,.07,0,.11a.47.47,0,0,0,.18.1.51.51,0,0,1,.08.33,2.46,2.46,0,0,1-.47,0c-.08,0-.19-.15-.19-.22a6.94,6.94,0,0,1,0-.79.24.24,0,0,0,.29-.11c.08-.1,0-.18-.29-.21v-.51c-.14-.14-.32-.28-.5-.46H5.38a1.26,1.26,0,0,1-.54-.58c.21-.25.54,0,.76-.14A3.33,3.33,0,0,0,6,43h.32c.26-.29.55-.54.8-.83C7.05,42.09,7,42,6.9,42c-.54,0-1.08,0-1.63,0,0,0-.07-.08-.11-.11a3.92,3.92,0,0,0,.33-.36s0-.11,0-.14a.25.25,0,0,0,.29-.11c.07-.11,0-.18-.29-.22v-.32H6s.07,0,.11-.07.07-.08,0-.11S6,40.4,6,40.4c-.37-.11-.47,0-.55.29a.24.24,0,0,1-.29-.11c-.11-.18,0-.43-.25-.54H4.62a2.29,2.29,0,0,1-.36.29c-.22-.11-.15-.29-.15-.5s.33-.29.55-.51.43.11.68-.07c0,0,.08-.07.08-.11s-.08-.1-.11-.1A1,1,0,0,0,5,39a5.19,5.19,0,0,0-.48-.43,5.34,5.34,0,0,1-.07-1,1.81,1.81,0,0,0-.47-.54l-.54-.18c.25-.25.47-.5.68-.72l-.58-.57a.17.17,0,0,1,.11-.22s.11,0,.18,0a.22.22,0,0,0,.29-.11c0-.11-.1-.21-.32-.21H3.24a.93.93,0,0,1-.33,0l-.47-.47c.18-.32.51-.1.76-.18.08-.07.19-.1.26-.18.29-.25.54-.53.83-.82.11-.11.15-.15.11-.25A.24.24,0,0,0,4.11,33H4a.91.91,0,0,1-.69.36L3,33.61a1.1,1.1,0,0,1-.76,0s-.14-.07-.14-.11v-.83h.32a.23.23,0,0,0,.29-.1c0-.07,0-.15-.14-.25l-.11-.11c.07-.36.51-.07.62-.36a3.92,3.92,0,0,1-.33-.36V30a.25.25,0,0,0,.29-.11.47.47,0,0,0,0-.43.23.23,0,0,0-.29-.11s0-.11,0-.14.33-.36.51-.51.11,0,.14,0v.47c.22.21.22.21.4.18s.25-.07.29-.29a.41.41,0,0,0-.18-.39H3.46c0-.08,0-.15,0-.18a3.92,3.92,0,0,1-.33-.36l.47-.47A2.37,2.37,0,0,0,4,28,.34.34,0,0,0,4,27.46a1,1,0,0,1-.29-.53.28.28,0,0,0-.36-.22.3.3,0,0,1-.29-.18V25.6a.16.16,0,0,1,.21-.15s.08.07.11.11v.65c.26.21.26.21.91.14.14-.07.14-.18,0-.22s-.22,0-.33-.07-.22-.14-.22-.18A.26.26,0,0,1,4,25.74c.4-.07.4-.07.4-.36v-.47l-.15-.14c-.25-.29-.25-.4,0-.68.07-.11.14-.15.11-.26a.34.34,0,0,0-.3-.1c-.21,0-.29-.08-.32-.29A.34.34,0,0,1,4,23c.1,0,.21,0,.32,0s.08-.07.15-.11v-.68a1.28,1.28,0,0,0-.33-.33c.11-.28.55-.07.65-.36v-.32c-.14-.29-.54,0-.65-.36L5,20h.5a.19.19,0,0,0,.11.25c0,.18.07.18.15.18A.24.24,0,0,0,6,20.31s-.11-.18-.18-.18a2.46,2.46,0,0,0-.47,0c0-.07,0-.14,0-.18A3.92,3.92,0,0,0,5,19.59v-1s.11-.15.11-.11.18.11.18.18a2.08,2.08,0,0,1,0,.5.23.23,0,0,0,.15.25c.25,0,.54.11.79-.1-.1-.33-.39-.47-.61-.72a2.83,2.83,0,0,0,.32-.36v-.5H6.4s.07,0,.1-.08.08-.07,0-.1-.07-.11-.11-.11c-.36-.11-.47,0-.54.29-.15,0-.26,0-.29-.11s-.11-.54-.4-.69v-.46c0-.11,0-.22.11-.29a.38.38,0,0,1,.43,0c.22.18.4.4.62.58.07-.07.18-.11.18-.18a3.1,3.1,0,0,0,0-.61c-.11-.15-.33-.22-.29-.4s.29-.1.44-.1.25.21.36.32l.47-.47a.76.76,0,0,0-.25-.18,2.89,2.89,0,0,0-.51,0c-.07,0-.15-.11-.26-.18L7,14.46a.91.91,0,0,0,.32,0,2.83,2.83,0,0,1,.36-.32.75.75,0,0,1,.33.1c.11,0,.07-.07,0-.1s-.22,0-.14.14a.29.29,0,0,0,.18.14s.11-.07,0-.18S7.88,14,7.85,14l-.33-.32c.11-.11.22-.25.29-.32A2.27,2.27,0,0,0,7.52,13c.25-.26.54-.08.83-.15s.29-.29.44-.46c-.07-.22-.44-.33-.29-.69l.33-.32A3.92,3.92,0,0,1,8.5,11c0-.14-.07-.36.14-.43s.22.14.37.25c.32-.07.07-.5.36-.65h.4c.18.22.36.47.54.65a1.14,1.14,0,0,0,.4,0,2.93,2.93,0,0,1,.36-.28l.47.46s0,.11,0,.15a.18.18,0,0,0-.25.11,1.42,1.42,0,0,0-.07.28c0,.11,0,.22.14.25s.18-.1.18-.18a1.77,1.77,0,0,0,0-.46.27.27,0,0,0,.33-.22,1.55,1.55,0,0,0,0-.43h.47s.08,0,.11-.07.07-.07,0-.11-.07-.11-.11-.11c-.36-.1-.47,0-.55.29-.07,0-.14,0-.18,0a5.21,5.21,0,0,1-.47-.47c.07-.07.11-.18.18-.18a2.89,2.89,0,0,1,.51,0,.25.25,0,0,0,.26-.14l-.33-.36c.22-.25.65-.11.8-.47l.36.33h.65c.11-.11.26-.22.36-.33H15.5c.11,0,.25,0,.25-.14s-.11-.18-.18-.18-.33,0-.44-.18c.15-.14.33-.29.51-.43.07.07.18-1,.33-1,.33-.11.07-.5.36-.64H17c.15-.18.15-.18-.14-.51l.43-.43c.4-.14.76,0,1.09-.07l.32.32c.4,0,.84,0,1.27,0,.19,0,.26-.18.22-.36a.2.2,0,0,1,0-.14l.25-.25a1,1,0,0,0,.07-.29c0-.22-.07-.43.19-.61h.32c.26.22.4.47.73.61.18-.11.11-.29.14-.47s.33-.28.51-.46h.62c.14-.11.25-.22.4-.33a2.35,2.35,0,0,0,.36.33h.51v.46a.15.15,0,0,0,.07.11s.07.07.11,0,.11-.07.11-.11c.1-.36,0-.47-.29-.54V3.27a.23.23,0,0,1,.1-.29c.08,0,.15,0,.26.14l.11.11a.94.94,0,0,0,.47-.43,2.27,2.27,0,0,0,.22-.58c.14.15.25,1.45.36,1.53a5.7,5.7,0,0,1,.69-.36c.21.21.07.46.29.68.18,0,.21-.18.21-.32a.33.33,0,0,1,.15-.29.93.93,0,0,0,.33,0c.21.22.47.43.69.65.18-.11.14-.29.18-.43s.14-.22.21-.22c.33,0,.66,0,.95,0,.43.43.43.43.83.18,0-.14-.07-.36.11-.43s.22.22.36.22a2.07,2.07,0,0,0,1.13,0c.14-.18.07-.43.07-.65a.26.26,0,0,1,.14-.25s.15.15.19.22,0,.21.07.32.07.07.11.11h.5a.27.27,0,0,0,.22.32,3.35,3.35,0,0,1,.62.11c.11,0,.07-.07,0-.11s-.22,0-.15.15a.42.42,0,0,0,.18.14s.11-.07,0-.18a3,3,0,0,1-.15-1.11h.55c.18.21.36.46.47.61a3.51,3.51,0,0,1,.58.14c.11,0,.14.15.11.32V3.42a.25.25,0,0,0-.26.07c-.07.08-.07.15.08.22s.07,0,.11,0a.35.35,0,0,0,.1-.18.39.39,0,0,0,.29-.17c.11-.18,0-.44.26-.54h.65c.11.1.25.21.36.32h.33c.22.14.14.39.14.61s0,.29.19.36.1-.07.1-.11a3.44,3.44,0,0,0,0-.64c0-.15.18-.22.36-.22a.34.34,0,0,1,.29.14c-.11.11-.18.22-.29.33a1.59,1.59,0,0,0,.22.18c.33,0,.65,0,.91,0l.51-.51v-.5c.25,0,.32-.11.32-.25a4.78,4.78,0,0,1,.07-.65c0-.11.15-.14.29-.11V2.88a.17.17,0,0,0,.22.15.15.15,0,0,0,.11-.11V2.6c.07-.08.18-.18.25-.18.26,0,.55-.11.77.14a3.92,3.92,0,0,0-.33.36v.32c-.11.25-.4.15-.54.25a.23.23,0,0,0-.11.29h-.47s-.08,0-.11.07-.08.08,0,.11.07.11.11.11c.36.11.47,0,.54-.29.08,0,.15,0,.18,0,.19.15.33.33.48.47s0,.22,0,.32a2.83,2.83,0,0,0-.32.36c.14.22.32.22.54.11s.14-.18.25-.22.37-.07.44,0a.28.28,0,0,1,.07.29.43.43,0,0,1,0,.11,2.59,2.59,0,0,0-.29.39c-.1.18.08.4.33.43a.24.24,0,0,0,.11.29c.11.07.18,0,.22-.29h.51a.76.76,0,0,1,.18.25c0,.22,0,.44,0,.58s.33.36.47.5h.51a.24.24,0,0,1-.11.29c-.18.11-.43,0-.54.29v.25a1.3,1.3,0,0,0,.25.18c.33,0,.66,0,1,.07,0,0,.07.07.11.11A2.94,2.94,0,0,0,45,9s0,.11,0,.14a.19.19,0,0,0-.25.11,1.54,1.54,0,0,0-.07.29.24.24,0,0,0,.14.25s.18-.11.18-.18a1.85,1.85,0,0,0,0-.47h.33a.25.25,0,0,1,.29.11c0,.07,0,.14-.11.21s-.14.15-.11.22a.24.24,0,0,0,.29.11H46c0,.25.11.32.25.32a4.93,4.93,0,0,1,.66.07c.11,0,.14.15.11.29H46.5c-.07.07-.18.22-.29.32s-.11,0-.22,0h.08A.22.22,0,0,0,46,10.5c-.07-.07-.14-.07-.21.07s0,.08,0,.11a.4.4,0,0,0,.18.11,1.1,1.1,0,0,1,.08.5,1.61,1.61,0,0,0,.65.54c.18,0,.4,0,.58-.07s.14-.14.11-.29h.51c.14.15.29.33.47.51a2.06,2.06,0,0,1,0,1c0,.11-.14.14-.29.11v-.51a5,5,0,0,1-.47-.46c-.25.1-.22.28-.15.53.26.08.29.47.62.44v.5s.07.11.11.11.22,0,.33.07.18.11.25.18a7.86,7.86,0,0,1,.58.57c0,.18-.15.22-.22.36,0,.29-.25.61.15.83.11-.11.21-.18.32-.29.08.07.15.11.15.15v1.32c.14.29.54.08.65.36a1.43,1.43,0,0,0-.29.36l.47.47h.33c.25.4.25.4-.15.83a1.28,1.28,0,0,1,.29.36c-.07.14-.21.18-.4.18s-.18.1-.25.18l.47.46a1.62,1.62,0,0,1,.4,0l.47.57s-.07,0-.18.08-.32-.08-.43.14a1.1,1.1,0,0,0,.4.43,2.27,2.27,0,0,0,.58.22c-.22.28-.51.43-.66.72.11.17.29.1.44.14s.11.07.11.11,0,.18-.15.21a3.53,3.53,0,0,1-.65,0c-.29.22-.15.51-.15.79,0,.07.11.15.19.18s.14-.18.25-.21a.77.77,0,0,1,.29-.07.22.22,0,0,1,.14,0c.15.25.48.22.69.36a.92.92,0,0,1,.4.43c-.11.18-.29.15-.43.15s-.26-.22-.37-.33c-.36.22,0,.65-.21.9s-.69-.11-.91.25c.22.22.44.47.65.68v.33c.11.29.55,0,.66.36l-.48.46s-.1,0-.25,0h.07a.22.22,0,0,0-.07-.25c-.07-.07-.14-.07-.22.08s0,.07,0,.1a.4.4,0,0,0,.18.11c.11.11.07.22,0,.25s-.36.11-.58.18c.15.15.22.25.37.4a3.62,3.62,0,0,1,0,.57.32.32,0,0,1-.4.25h.07a.22.22,0,0,0-.07-.25c-.07-.07-.15-.07-.22.07s0,.08,0,.11a.34.34,0,0,0,.18.11c.07.07,0,.14.07.18.22.25.47.47.65.68,0,.43,0,.43-.29.51h-.18a.39.39,0,0,0-.18.53c.07.11.15.15.25.29a7.84,7.84,0,0,1,0,1.37c-.1.18-.18.18-.25,0s0-.21-.07-.28a.81.81,0,0,0-.18-.26l-.84.83a.27.27,0,0,0,.36.14c.29.26.48.4.62.54-.22.29-.69.11-.83.51a1.71,1.71,0,0,0-.37,0,3.94,3.94,0,0,1-.47.43c0,.22,0,.22.29.22h.33v1.33H49.4s-.07.07-.11.11v.1a7.93,7.93,0,0,0,.58.58.67.67,0,0,1-.25.18.35.35,0,0,1-.29,0,7.86,7.86,0,0,1-.58-.57.84.84,0,0,0-.18.21.54.54,0,0,0,0,.33c0,.11.19.14.22.25a.38.38,0,0,1,0,.43l-.25.25a3.78,3.78,0,0,1,.29.36v.29c-.11.25-.36.14-.55.25a.23.23,0,0,0-.1.29h-.33c-.25,0-.36.11-.36.36v.32H47s-.07.07-.11.11v.11c.18.21.4.39.58.57-.07.18-.22.18-.4.18s-.18.11-.25.14a2.83,2.83,0,0,1,.32.36c-.21.26-.5.43-.65.72a1.3,1.3,0,0,0,.07.33c0,.1.15.14.29.1a1.85,1.85,0,0,1,0,.47c0,.11-.14.18-.21.14a2.08,2.08,0,0,0-.22-.21c-.26-.18-.51,0-.55.29a.23.23,0,0,0-.29.1.27.27,0,0,0,0,.15v.54c-.26.39-.69.68-1,1.08v.46h-.83l-.47.47c.07.36.54,0,.61.39-.14.11-.29.26-.5.44h-.87c-.29.14-.4.36-.62.5.29.29.58.11.87.18,0,.11.11.25.15.36a1.58,1.58,0,0,1-.59.61c-.18,0-.36,0-.43-.14s0-.22,0-.33-.14-.18-.21-.14l-.11.11a3.27,3.27,0,0,1-.33.32v.68l.62.61c0,.33.21.65-.15.9h-.29c-.14.11-.25.22-.36.32a.25.25,0,0,1-.15-.28c0-.33-.14-.4-.39-.36s-.19.11-.26.14v.33c.11.1.22.25.33.35v.69l-.47.46c-.11-.1-.26-.21-.37-.32h-.32c-.15.07-.18.18-.07.25l.58.58-.33.36c0,.18,0,.36.14.46.22-.21.48-.43.69-.64,0,0,.11.07.11.11,0,.43,0,.86,0,1.29,0,.11-.11.18-.36.21h-.11c-.33.29-.62.58-.87.8v.35a4.16,4.16,0,0,1,.29.36l-.26.26c0,.07,0,.14.11.25s.26.39,0,.68l-.15.14v.8c.07.1.22.21.33.36v.32a2.94,2.94,0,0,0-.33.36c.11.29.54,0,.62.36-.33.21-.4.5-.18,1.08,0-.08,0,.07.14.18-.11.28-.4.43-.62.68v.32a3.92,3.92,0,0,1,.33.36l-.33.36c0,.25,0,.47.26.54a1.71,1.71,0,0,1,.07.32,11,11,0,0,0,0,1.15l.25.25c-.07.11-.18.22-.29.36v.69c-.25.21-.58.46-.94.79h-.58c-.18-.07-.29-.43-.62-.33l-1.92-1.9a.83.83,0,0,0,0-.29l-.25-.25a1,1,0,0,1-.07-.29V59.13l.29-.29a4.53,4.53,0,0,0,.07-1,2.63,2.63,0,0,1,0-.79l.25-.25s0-.11,0-.15v-4a4.57,4.57,0,0,0-.33-.36v-1c-.15-.14-.29-.32-.47-.47-.29,0-.37.36-.58.44V52a2.54,2.54,0,0,0-.44.15,2.66,2.66,0,0,0-.4-.36h-.69c-.14.14-.29.32-.47.5a2.86,2.86,0,0,0,.29.33c-.32.28-.36.28-.76-.11-.25,0-.36.43-.69.28-.22.22-.47.44-.69.69h-.36c0-.15-.11-.29-.14-.43a2.21,2.21,0,0,1,.36-.4L30,52.37c-.11-.11-.14-.15-.25-.11s-.11.18-.11.29,0,.28-.29.28-.22,0-.29.11a.13.13,0,0,0,0,.11c.15.14.37.29.29.58a3.74,3.74,0,0,1-.87.86c-.11,0-.21,0-.32-.07s-.15-.15-.11-.29a.18.18,0,0,0,.25-.11,1.54,1.54,0,0,0,.07-.29.24.24,0,0,0-.14-.25s-.18.11-.18.18a1.85,1.85,0,0,0,0,.47.19.19,0,0,0-.26.11c-.07.18-.1.36-.18.57-.43-.21-.07-.61-.25-.86L27,53.63a1.75,1.75,0,0,0,.29-.69c0-.11-.07-.07-.11,0s0,.22.15.15a.36.36,0,0,0,.14-.18S27.39,52.8,27.28,52.94ZM9.88,11.47h1s.07-.07.1-.11,0-.14-.1-.21h-1s-.08.07-.11.11S9.77,11.4,9.88,11.47ZM8,44.28a.43.43,0,0,0-.69,0c0,.18-.11.43.22.47A5.21,5.21,0,0,1,8,44.28ZM5.16,20.82c-.25.21-.25.43,0,.68C5.42,21.25,5.42,21,5.16,20.82ZM4.87,23.4s.11-.07.11-.1V23s-.07-.07-.11-.11a.08.08,0,0,0-.11,0,.34.34,0,0,0,0,.54S4.84,23.4,4.87,23.4Zm45.47,7.91c.22.25.44.25.69,0C50.78,31.06,50.56,31.06,50.34,31.31ZM12.05,49.1V49l-.11-.1c-.07,0-.14,0-.21.1s0,.11,0,.15a.23.23,0,0,0,.1.28C11.94,49.42,12.05,49.31,12.05,49.1ZM25.61,3.59c.08,0-.07.47,0,.36s0-.32,0-.36,0-.22-.1-.11S25.54,3.55,25.61,3.59Zm15.71,2c0,.07,0,.14.1.21l.11-.11c0-.07,0-.14-.11-.21ZM21.44,4.81l-.1-.11c-.08,0-.15,0-.22.11l.11.11C21.3,5,21.37,4.92,21.44,4.81Zm-8.26,5.3c.07,0,.14,0,.21-.11l-.1-.11c-.08,0-.15,0-.22.11ZM4.47,26.78l-.1.11c0,.07,0,.14.1.21l.11-.1C4.66,27,4.62,26.89,4.47,26.78Zm46.31.29c.07,0,.15,0,.22-.11l-.11-.11c-.07,0-.15,0-.22.11S50.74,27,50.78,27.07ZM3.2,32.75l.11-.11c-.07-.11-.14-.14-.21-.11L3,32.64C3.06,32.75,3.13,32.78,3.2,32.75Zm1.35,4,.11-.11c-.08-.11-.15-.15-.22-.11l-.11.11C4.4,36.74,4.47,36.77,4.55,36.74Zm.9,3.09-.11.1c.08.11.15.15.22.11l.11-.11C5.6,39.83,5.53,39.79,5.45,39.83Zm39.24,3.05c0,.07,0,.14.11.22l.11-.11c0-.07,0-.15-.11-.22Zm-37.46.29c-.07,0-.15,0-.22.11l.11.1c.07,0,.15,0,.22-.1ZM39.65,53.55c0,.08,0,.15.11.22l.11-.11c0-.07,0-.14-.11-.21S39.68,53.52,39.65,53.55Z"/><path class="cls-1" d="M28.66,55.53c-.14-.14-.18-.22-.14-.25l.47-.47c.07,0,.18.11.18.15,0,.32,0,.64,0,1-.29.28-.58.14-.91.1s-.07-.39-.11-.61a1,1,0,0,1,.51.11c.11,0,.07-.07,0-.11s-.22,0-.14.15.1.1.18.14S28.81,55.64,28.66,55.53Z"/><path class="cls-1" d="M41.28,51.43h.51c.11-.1.25-.21.36-.32a.5.5,0,0,1,.18.29c.07.39.07.39.36.39h.48l.14.15s0,.1-.07.1a2.26,2.26,0,0,1-1.13,0c-.14-.25-.43-.29-.69-.36A.22.22,0,0,1,41.28,51.43Z"/><path class="cls-1" d="M12,5.58c.14-.29.54,0,.65-.36V4.9a.15.15,0,0,1,.11-.11c.07,0,.18,0,.22.14a5.29,5.29,0,0,1,0,.69c.1.07.21.18.36.28-.22.29-.51.15-.76.18S12.22,5.76,12,5.58Z"/><path class="cls-1" d="M15.47,4.5h.14c.44,0,.44,0,.51-.4a.33.33,0,0,1,.43-.29.92.92,0,0,1,.22.18v.47c-.25,0-.33.25-.62.32a1.79,1.79,0,0,1-.47,0C15.54,4.78,15.39,4.68,15.47,4.5Z"/><path class="cls-1" d="M39.94,54.88s0-.1.18-.1a.69.69,0,0,0,.58-.26.13.13,0,0,1,.07,0c.18.14.33.29.51.43l-.51.5a1.2,1.2,0,0,0-.36,0A3.06,3.06,0,0,0,39.94,54.88Z"/><path class="cls-1" d="M3.64,41.12c0-.18.07-.29.25-.32a2.8,2.8,0,0,1,.58,0,2.94,2.94,0,0,0,.37.32h.47v.32H4.47c-.11-.1-.25-.21-.36-.32Z"/><path class="cls-1" d="M48.31,42l-.47.46h-.32c-.11-.1-.22-.28-.37-.32s-.21,0-.14-.18.07-.11.11-.11a2.36,2.36,0,0,1,1.12,0A.34.34,0,0,0,48.31,42Z"/><path class="cls-1" d="M45.63,4A2.14,2.14,0,0,0,46,3.67c.11-.1.14-.14.21-.1a.21.21,0,0,1,.11.28V4a2.1,2.1,0,0,1-.32.29v.36s-.08.07-.11.11a.17.17,0,0,1-.22-.11Z"/><path class="cls-1" d="M44.62,45.11h.5c.11-.11.26-.22.37-.32s.36,0,.47.17l-.44.44a1.1,1.1,0,0,1-.8,0A.23.23,0,0,1,44.62,45.11Z"/><path class="cls-1" d="M6,46.11h.83c.25.36.25.36,0,.65-.11-.11-.22-.18-.33-.29-.07.08-.1.08-.14.15s-.15.18-.25.14A.22.22,0,0,1,6,46.47,1.44,1.44,0,0,0,6,46.11Z"/><path class="cls-1" d="M4.66,17.47h.47a.36.36,0,0,1,.18.4c0,.21-.07.29-.29.29s-.15,0-.4-.18A2.33,2.33,0,0,0,4.66,17.47Z"/><path class="cls-1" d="M53.72,18c.32-.25.32-.25.69,0v.32c-.33.25-.33.25-.69,0Z"/><path class="cls-1" d="M1.9,21.28l.43-.18c.33.11.44.36.69.54-.18.07-.32.15-.43.18C2.3,21.71,2.19,21.46,1.9,21.28Z"/><path class="cls-1" d="M3.46,25.13,3,24.66c.11-.11.29-.21.29-.36s0-.21.18-.14.11.07.11.11a1.51,1.51,0,0,1,0,.79A.3.3,0,0,0,3.46,25.13Z"/><path class="cls-1" d="M2.73,35.8c.26.11.37.36.58.47-.14.25-.32.18-.47.18a3.92,3.92,0,0,0-.36-.33c-.22-.18-.22-.21,0-.28A.66.66,0,0,1,2.73,35.8Z"/><path class="cls-1" d="M2.3,36.12v.47a.33.33,0,0,1-.4.18c-.22,0-.29-.07-.29-.29s0-.14.18-.39A3.09,3.09,0,0,0,2.3,36.12Z"/><path class="cls-1" d="M42.48,48.45h.32a3,3,0,0,1,.37-.32c.21.36.21.36,0,.64h-.65s-.08-.07-.11-.1S42.33,48.49,42.48,48.45Z"/><path class="cls-1" d="M33.56,52.62v1s-.08.07-.11.11-.15,0-.22-.15v-1s.07-.07.11-.1S33.48,52.51,33.56,52.62Z"/><path class="cls-1" d="M21.84,66.5a.39.39,0,0,1-.11-.58,2.79,2.79,0,0,1,.44-.47.4.4,0,0,1,.11.58A2.79,2.79,0,0,1,21.84,66.5Z"/><path class="cls-1" d="M38.23,1.48a1.85,1.85,0,0,1-.47,0c-.07,0-.11-.11-.18-.18L38,.87c.07.07.18.11.18.18A.91.91,0,0,1,38.23,1.48Z"/><path class="cls-1" d="M39.25,1.34c.22-.25.43-.25.69,0-.11.11-.26.21-.36.32s-.15.15-.22.11a.22.22,0,0,1-.11-.29Z"/><path class="cls-1" d="M33.88,2.49a2.46,2.46,0,0,1-.47,0c-.07,0-.11-.11-.18-.18l.43-.43c.08.07.19.11.19.18A.9.9,0,0,1,33.88,2.49Z"/><path class="cls-1" d="M26.67,3.17l-.48-.47c0-.32.29-.18.48-.21A.42.42,0,0,1,26.67,3.17Z"/><path class="cls-1" d="M12.05,8c.33-.22.33-.22.66,0,0,.18.1.43-.22.46A4.88,4.88,0,0,0,12.05,8Z"/><path class="cls-1" d="M47,10.5c.18,0,.33.07.33.22a4.69,4.69,0,0,1,0,.75.25.25,0,0,1-.33-.21Z"/><path class="cls-1" d="M5.67,15.5v-.79c0-.07.11-.11.18-.18s.11.07.11.11a1.28,1.28,0,0,1,0,.75C5.89,15.5,5.78,15.5,5.67,15.5Z"/><path class="cls-1" d="M54.55,22.79c.26.22.22.43,0,.69-.11-.11-.22-.26-.33-.36s-.14-.15-.1-.22a.23.23,0,0,1,.29-.11S54.48,22.79,54.55,22.79Z"/><path class="cls-1" d="M3.31,24.12a1.85,1.85,0,0,1-.47,0c-.07,0-.11-.11-.18-.18l.44-.43c.07.07.18.11.18.18A.9.9,0,0,1,3.31,24.12Z"/><path class="cls-1" d="M2.12,26.13c.14.15.32.33.47.47,0,.33-.29.18-.47.22A.47.47,0,0,1,2.12,26.13Z"/><path class="cls-1" d="M52,29c0-.18-.07-.36.11-.43s.22.15.33.22l.11.11.11.1A.41.41,0,0,1,52,29Z"/><path class="cls-1" d="M3.71,38.86c0-.47-.22-.79.11-1.08.22.14.15.36.18.57A.54.54,0,0,1,3.71,38.86Z"/><path class="cls-1" d="M1.46,40.11c-.21-.32-.21-.32,0-.64.19,0,.44-.11.48.21C1.79,39.83,1.61,40,1.46,40.11Z"/><path class="cls-1" d="M4.66,44.61c-.22.25-.44.21-.69,0,.1-.11.25-.22.36-.33s.14-.14.22-.11a.24.24,0,0,1,.11.29Z"/><path class="cls-1" d="M6.69,44.79s-.11,0-.15,0l-.33.32A1,1,0,0,1,6,44.93a2.45,2.45,0,0,1,0-.47h.69A1.09,1.09,0,0,0,6.69,44.79Z"/><path class="cls-1" d="M6.32,45.61c-.11.18-.36.22-.32.5,0,0-.11,0-.15,0a.38.38,0,0,1-.14-.53c0-.11.25-.18.4-.15A1.12,1.12,0,0,1,6.32,45.61Z"/><path class="cls-1" d="M7.66,48c.22-.25.44-.25.69,0-.1.11-.25.21-.36.32s-.14.14-.22.11a.23.23,0,0,1-.11-.29S7.66,48,7.66,48Z"/><path class="cls-1" d="M10,48.77a.24.24,0,0,1-.11.29,1.4,1.4,0,0,1-.76,0S9,49,9,49s.11-.18.18-.18A3.16,3.16,0,0,1,10,48.77Z"/><path class="cls-1" d="M9,50.93c-.21.25-.43.25-.69,0,.11-.11.26-.22.37-.32s.14-.15.21-.11a.22.22,0,0,1,.11.29S9,50.86,9,50.93Z"/><path class="cls-1" d="M41.61,50.75a.25.25,0,0,1-.11.29c-.11.11-.29.18-.22.39-.25,0-.33-.1-.33-.25s.08-.39.33-.39A.93.93,0,0,1,41.61,50.75Z"/><path class="cls-1" d="M18.58,53.41c.25.22.25.43,0,.68l-.33-.36c-.11-.1-.14-.14-.11-.21a.23.23,0,0,1,.29-.11S18.54,53.41,18.58,53.41Z"/><path class="cls-1" d="M32.21,54.09h-.47c-.29-.25-.25-.28-.07-.61C32.07,53.81,32.11,53.81,32.21,54.09Z"/><path class="cls-1" d="M32.87,54.42c0,.25-.11.32-.26.32s-.4-.07-.4-.32v-.33c.22,0,.29.11.4.22A.21.21,0,0,0,32.87,54.42Z"/><path class="cls-1" d="M41,58.76c-.29-.1-.29-.1-.61-.53.32-.18.36-.18.61.07Z"/><path class="cls-1" d="M40.63,59.23c.11-.18.36-.21.32-.5,0,0,.11,0,.15,0a.39.39,0,0,1,.14.54c0,.11-.25.18-.4.14S40.7,59.3,40.63,59.23Z"/><path class="cls-1" d="M42.77,61.42l.11.11c0,.07,0,.14-.15.22h-.65L42,61.64c0-.07,0-.14.14-.22Z"/><path class="cls-1" d="M42.77,64.55c.11.07.18.15.11.22l-.11.11h-.66c-.11-.08-.14-.15-.11-.22l.11-.11Z"/><path class="cls-1" d="M29.35,1.84c-.25-.21-.25-.43,0-.68A.4.4,0,0,1,29.35,1.84Z"/><path class="cls-1" d="M15.47,4.5h-.33a2.17,2.17,0,0,1,0-.51c0-.14.14-.18.22-.1s.11.07.11.1Z"/><path class="cls-1" d="M39.94,2.85a2.46,2.46,0,0,1-.47,0c-.08,0-.18-.15-.18-.18a.23.23,0,0,1,.25-.15.79.79,0,0,1,.29.08C39.94,2.6,40,2.7,39.94,2.85Z"/><path class="cls-1" d="M44.62,5.83a.25.25,0,0,1-.11.29c-.11.07-.22-.07-.22-.29V5.69l.11-.11c.07,0,.14,0,.22.11S44.62,5.79,44.62,5.83Z"/><path class="cls-1" d="M44.58,6.73c-.07.18-.44.18-.54,0a.07.07,0,0,1,0-.11c.07-.18.43-.18.54,0Z"/><path class="cls-1" d="M14.08,8.17c-.21,0-.36-.11-.29-.22a.24.24,0,0,1,.29-.11h.15c.11.08.18.15.11.22s-.08.11-.11.11Z"/><path class="cls-1" d="M48,10.32c.22-.25.43-.25.69,0C48.42,10.57,48.21,10.57,48,10.32Z"/><path class="cls-1" d="M7.34,11.47a.25.25,0,0,1,.29.11c.07.14-.07.25-.29.25H7.19l-.11-.11c0-.07,0-.14.11-.21A.21.21,0,0,1,7.34,11.47Z"/><path class="cls-1" d="M5.34,12.48a2.46,2.46,0,0,1,0-.47c0-.07.15-.18.19-.18a.26.26,0,0,1,.14.25,1,1,0,0,1-.07.29A.2.2,0,0,1,5.34,12.48Z"/><path class="cls-1" d="M3.2,12.87a.33.33,0,0,1,0,.54.06.06,0,0,1-.1,0c-.19-.07-.19-.43,0-.54Z"/><path class="cls-1" d="M6.69,13.81c0,.21-.11.36-.22.29a.23.23,0,0,1-.11-.29v-.15c.07-.1.14-.17.22-.1s.11.07.11.1Z"/><path class="cls-1" d="M4.33,14.49c-.22,0-.36-.11-.29-.21a.22.22,0,0,1,.29-.11h.14c.11.07.19.14.11.21s-.07.11-.11.11Z"/><path class="cls-1" d="M4.66,17.47a1.93,1.93,0,0,1-.48,0c-.07,0-.18-.14-.18-.18a.26.26,0,0,1,.26-.14,1.11,1.11,0,0,1,.29.07A.19.19,0,0,1,4.66,17.47Z"/><path class="cls-1" d="M1.17,20.1h-.1a.35.35,0,0,1,0-.54h.1s.11.07.11.11V20S1.21,20.06,1.17,20.1Z"/><path class="cls-1" d="M53.55,25.61c-.22.25-.44.25-.69,0C53.11,25.36,53.33,25.36,53.55,25.61Z"/><path class="cls-1" d="M2.66,30.12a.24.24,0,0,1-.29-.1.49.49,0,0,1,0-.44.23.23,0,0,1,.29-.1Z"/><path class="cls-1" d="M53.57,31.06h-.11a.36.36,0,0,1,0-.54h.11s.11.07.11.11V31S53.61,31,53.57,31.06Z"/><path class="cls-1" d="M1.65,38.6c.21-.25.43-.25.68,0C2.08,38.86,1.86,38.86,1.65,38.6Z"/><path class="cls-1" d="M47.66,39.43a1.85,1.85,0,0,1,.47,0c.08,0,.18.14.18.18s-.14.14-.25.14a.77.77,0,0,1-.29-.07C47.66,39.65,47.63,39.57,47.66,39.43Z"/><path class="cls-1" d="M3.64,41.12a1.85,1.85,0,0,1,0,.47c0,.07-.15.18-.18.18a.25.25,0,0,1-.15-.25.79.79,0,0,1,.08-.29A.18.18,0,0,1,3.64,41.12Z"/><path class="cls-1" d="M46.32,44.1c-.33-.07-.4-.18-.29-.54,0,0,.07-.07.11-.1s.07,0,.11,0,.07.07.07.11Z"/><path class="cls-1" d="M46.65,44.1a1.77,1.77,0,0,1,0-.46c0-.08.14-.18.18-.18s.14.14.14.25a.72.72,0,0,1-.07.28A.18.18,0,0,1,46.65,44.1Z"/><path class="cls-1" d="M6,44.43c-.33-.08-.4-.18-.29-.54,0,0,.07-.08.11-.11l.1,0s.08.08.08.11Z"/><path class="cls-1" d="M49.15,45.76c-.26-.22-.26-.44,0-.69C49.4,45.32,49.4,45.54,49.15,45.76Z"/><path class="cls-1" d="M5,46.44a2.46,2.46,0,0,1-.47,0c-.07,0-.18-.15-.18-.18a.24.24,0,0,1,.25-.15.79.79,0,0,1,.29.08C5,46.22,5,46.33,5,46.44Z"/><path class="cls-1" d="M46.14,47.77c.25.21.25.43,0,.68C45.88,48.2,45.88,48,46.14,47.77Z"/><path class="cls-1" d="M42.51,49.71H42.4a.36.36,0,0,1,0-.54h.11s.11.07.11.11v.32S42.55,49.67,42.51,49.71Z"/><path class="cls-1" d="M41.61,50.75c.07-.32.18-.39.54-.29,0,0,.07.07.11.11s0,.07,0,.11-.07.07-.11.07A2.08,2.08,0,0,1,41.61,50.75Z"/><path class="cls-1" d="M43.78,51.11c.26.22.26.43,0,.68A.43.43,0,0,1,43.78,51.11Z"/><path class="cls-1" d="M31.2,54.09a.24.24,0,0,1-.11.29c-.11.07-.22-.07-.22-.29V54l.11-.11c.07,0,.15,0,.22.11Z"/><path class="cls-1" d="M40.59,56.43a.24.24,0,0,1,.29.11c.07.1-.07.21-.29.21h-.14l-.11-.11c0-.07,0-.14.11-.21S40.55,56.43,40.59,56.43Z"/><path class="cls-1" d="M41.93,59.09a1.85,1.85,0,0,1,.47,0c.08,0,.18.14.18.18s-.14.14-.25.14a.77.77,0,0,1-.29-.07A.19.19,0,0,1,41.93,59.09Z"/><path class="cls-1" d="M41.5,61.82c.18.07.18.43,0,.54a.08.08,0,0,1-.11,0c-.18-.07-.18-.43,0-.54S41.46,61.82,41.5,61.82Z"/><path class="cls-1" d="M45.63,62.25c-.22.25-.43.25-.69,0C45.2,62,45.41,62,45.63,62.25Z"/><path class="cls-1" d="M40.18,65.38c-.22.25-.44.25-.69,0C39.74,65.13,40,65.13,40.18,65.38Z"/><path class="cls-1" d="M34.73,53.27c.22-.25.43-.25.69,0C35.2,53.53,35,53.53,34.73,53.27Z"/><path class="cls-1" d="M26.62,71.43c-.25-.21-.25-.43,0-.68A.43.43,0,0,1,26.62,71.43Z"/><path class="cls-1" d="M34.49,54.59c-.22,0-.36-.11-.29-.21a.22.22,0,0,1,.29-.11h.14c.11.07.19.14.11.21s-.07.11-.11.11S34.56,54.59,34.49,54.59Z"/><path class="cls-1" d="M19,2.51c-.07,0-.14,0-.21-.1l.11-.11c.07,0,.14,0,.21.11Z"/><path class="cls-1" d="M39.58.51c0-.25.07-.29.32-.32C39.9.44,39.87.44,39.58.51Z"/><path class="cls-1" d="M39.58.66s0,.07-.11.1a.14.14,0,0,1-.11,0c-.11-.07-.15-.14-.07-.22s.14-.14.25-.07S39.61.62,39.58.66Z"/><path class="cls-1" d="M33.19,1c-.07.1-.14.14-.21.1L32.87,1c.07-.11.14-.15.21-.11S33.16,1,33.19,1Z"/><path class="cls-1" d="M12.22,5c-.07,0-.14,0-.21-.11l.11-.1c.07,0,.14,0,.21.1Z"/><path class="cls-1" d="M38.56,1.7s-.07.11-.11.11a.44.44,0,0,1-.18-.15c-.07-.14,0-.21.14-.14A.71.71,0,0,1,38.56,1.7Z"/><path class="cls-1" d="M35.73,2.17s-.07,0-.11-.11a.15.15,0,0,1,0-.11c.07-.11.14-.14.21-.07s.15.14.08.25S35.8,2.17,35.73,2.17Z"/><path class="cls-1" d="M17.13,4.82c-.25,0-.29-.07-.32-.32C17.06,4.53,17.1,4.57,17.13,4.82Z"/><path class="cls-1" d="M17.68,4.53s.11.07.11.11-.08.18-.15.18-.22,0-.14-.14S17.6,4.57,17.68,4.53Z"/><path class="cls-1" d="M14.15,5.69,14,5.58c.07-.11.14-.14.21-.11l.11.11C14.29,5.73,14.22,5.73,14.15,5.69Z"/><path class="cls-1" d="M22.75,1.18l-.11.11c-.11-.07-.14-.14-.11-.22l.11-.1C22.75,1,22.79,1.11,22.75,1.18Z"/><path class="cls-1" d="M30.26,2.38c0-.07,0-.14.1-.21l.11.1c0,.07,0,.15-.11.22S30.29,2.42,30.26,2.38Z"/><path class="cls-1" d="M36.2,2.38s-.07.11-.11.11a.42.42,0,0,1-.18-.14c-.07-.15,0-.22.15-.15S36.17,2.31,36.2,2.38Z"/><path class="cls-1" d="M38,2.38c0-.07,0-.14.11-.21l.11.1c0,.07,0,.15-.11.22S38,2.42,38,2.38Z"/><path class="cls-1" d="M17.46,4.82c0,.25-.11.32-.22.29a.23.23,0,0,1-.11-.29Z"/><path class="cls-1" d="M43.67,2.38c0-.07,0-.14.11-.21l.11.1c0,.07,0,.15-.11.22Z"/><path class="cls-1" d="M37.47,2.78c-.07,0-.14,0-.22-.11l.11-.11c.08,0,.15,0,.22.11Z"/><path class="cls-1" d="M25.87,2.38c-.11-.8-.29-.48-.36-.59l.1-.1a.47.47,0,0,1,.42.1S26,1.58,25.87,2.38Z"/><path class="cls-1" d="M28.81,3.06l-.11.11c-.11-.07-.15-.14-.11-.21l.11-.11A.16.16,0,0,1,28.81,3.06Z"/><path class="cls-1" d="M31.49,3.06l-.11.11c-.11-.07-.14-.14-.11-.21l.11-.11A.15.15,0,0,1,31.49,3.06Z"/><path class="cls-1" d="M33.41,2.88s.11.08.11.11-.07.18-.15.18-.21,0-.14-.14A.44.44,0,0,1,33.41,2.88Z"/><path class="cls-1" d="M21.52,2.19c0-.07,0-.15.11-.22l.1.11c0,.07,0,.14-.1.22S21.55,2.22,21.52,2.19Z"/><path class="cls-1" d="M25.11,2.51,25,2.62c-.11-.07-.15-.14-.11-.22L25,2.3C25.11,2.37,25.14,2.44,25.11,2.51Z"/><path class="cls-1" d="M43.35,3.71c0-.07,0-.14.11-.22l.1.11c0,.07,0,.15-.1.22Z"/><path class="cls-1" d="M44.18,3.57l.11.1c-.07.11-.15.15-.22.11L44,3.67C44,3.57,44.11,3.53,44.18,3.57Z"/><path class="cls-1" d="M42.51,3.89l.11.11c-.07.11-.14.14-.22.11L42.29,4C42.37,3.89,42.44,3.85,42.51,3.89Z"/><path class="cls-1" d="M19.7,3.19l-.11.11c-.1-.07-.14-.14-.1-.21l.1-.11C19.7,3.05,19.74,3.12,19.7,3.19Z"/><path class="cls-1" d="M43.17,4.21l.1.11c-.07.11-.14.15-.21.11L43,4.32C43,4.21,43.09,4.18,43.17,4.21Z"/><path class="cls-1" d="M44.91,5l-.11.11c-.11-.07-.15-.15-.11-.22l.11-.11C44.91,4.9,44.94,5,44.91,5Z"/><path class="cls-1" d="M10.09,5.26l.11-.11c.11.07.15.14.11.21l-.11.11A.15.15,0,0,1,10.09,5.26Z"/><path class="cls-1" d="M43.85,5.44c-.07,0-.14,0-.21-.11l.11-.11c.07,0,.14,0,.21.11Z"/><path class="cls-1" d="M8.46,5.87c.08,0,.15,0,.22.1l-.11.11c-.07,0-.14,0-.22-.11Z"/><path class="cls-1" d="M42.62,6.15c0-.25.11-.32.22-.28a.22.22,0,0,1,.11.28Z"/><path class="cls-1" d="M19.34,5.24c-.07,0-.14,0-.22-.1L19.23,5c.07,0,.15,0,.22.11Z"/><path class="cls-1" d="M44.83,7.2s.11.07.11.1-.07.18-.14.18-.22,0-.15-.14S44.76,7.23,44.83,7.2Z"/><path class="cls-1" d="M15.38,3l-.11-.11c.07-.11.14-.14.22-.11l.11.11C15.52,3,15.45,3,15.38,3Z"/><path class="cls-1" d="M11.11,7.59l.11-.11c.11.08.14.15.11.22l-.11.11A.16.16,0,0,1,11.11,7.59Z"/><path class="cls-1" d="M15.13,7.59l.11-.11c.11.08.15.15.11.22l-.11.11A.17.17,0,0,1,15.13,7.59Z"/><path class="cls-1" d="M16.9,3.16c0,.07,0,.14-.11.21l-.11-.11c0-.07,0-.14.11-.21S16.87,3.12,16.9,3.16Z"/><path class="cls-1" d="M47.15,8.81c.11.08.15.15.11.22l-.11.11c-.1-.07-.14-.15-.1-.22Z"/><path class="cls-1" d="M6.83,9.17c.11.07.15.15.11.22l-.11.11c-.11-.08-.14-.15-.11-.22S6.79,9.21,6.83,9.17Z"/><path class="cls-1" d="M9.15,9.21c.07,0,.15,0,.22.11l-.11.1c-.07,0-.14,0-.22-.1Z"/><path class="cls-1" d="M14.65,4.92c0-.07,0-.15.11-.22l.11.11c0,.07,0,.14-.11.22Z"/><path class="cls-1" d="M6.07,9.6l.11-.1c.11.07.14.14.11.21l-.11.11C6.07,9.75,6,9.68,6.07,9.6Z"/><path class="cls-1" d="M11,9.64c-.08.11-.15.14-.22.11l-.11-.11c.07-.11.15-.14.22-.11Z"/><path class="cls-1" d="M46.17,9.53s.11.07.11.11-.07.18-.14.18-.22,0-.15-.14A.38.38,0,0,1,46.17,9.53Z"/><path class="cls-1" d="M6.47,11.11,6.36,11c.07-.11.14-.15.22-.11l.11.11C6.61,11.11,6.54,11.15,6.47,11.11Z"/><path class="cls-1" d="M6.61,11.72l-.11.11c-.1-.07-.14-.14-.1-.21l.1-.11A.14.14,0,0,1,6.61,11.72Z"/><path class="cls-1" d="M5.34,12.62s0,.07-.1.11a.14.14,0,0,1-.11,0c-.11-.08-.15-.15-.08-.22s.15-.14.26-.07S5.34,12.59,5.34,12.62Z"/><path class="cls-1" d="M50,12.77l-.11-.11c.07-.11.15-.15.22-.11l.11.11C50.18,12.77,50.11,12.8,50,12.77Z"/><path class="cls-1" d="M25.67.23,25.56.12c.07-.11.14-.14.22-.11l.1.11C25.81.23,25.74.27,25.67.23Z"/><path class="cls-1" d="M49.68,13.52c.07,0,.14,0,.21.11l-.1.11c-.08,0-.15,0-.22-.11A.33.33,0,0,0,49.68,13.52Z"/><path class="cls-1" d="M5.05,14c0-.07,0-.14.11-.21l.11.11c0,.07,0,.14-.11.21Z"/><path class="cls-1" d="M51.2,14.38l-.11.11c-.11-.07-.14-.14-.11-.21l.11-.11A.15.15,0,0,1,51.2,14.38Z"/><path class="cls-1" d="M50.27,14.71l-.11.1c-.11-.07-.14-.14-.11-.21l.11-.11C50.27,14.56,50.31,14.64,50.27,14.71Z"/><path class="cls-1" d="M5.67,15.64s0,.07-.11.11a.14.14,0,0,1-.11,0c-.11-.07-.14-.14-.07-.21s.15-.14.25-.07S5.67,15.57,5.67,15.64Z"/><path class="cls-1" d="M3.39,17.69c0-.07,0-.14.1-.22l.11.11c0,.07,0,.15-.11.22S3.42,17.73,3.39,17.69Z"/><path class="cls-1" d="M1.07,18.08,1,18c.07-.11.14-.15.21-.11l.11.11A.15.15,0,0,1,1.07,18.08Z"/><path class="cls-1" d="M1.43,18.52c.07,0,.14,0,.22.1l-.11.11c-.08,0-.15,0-.22-.11S1.39,18.55,1.43,18.52Z"/><path class="cls-1" d="M53.25,18.88l.1.1c-.07.11-.14.15-.21.11L53,19C53.1,18.88,53.17,18.84,53.25,18.88Z"/><path class="cls-1" d="M52.92,19.52l.11.11c-.07.11-.15.14-.22.11l-.11-.11C52.77,19.52,52.85,19.49,52.92,19.52Z"/><path class="cls-1" d="M4.26,19.92c0,.07,0,.14-.11.21L4,20c0-.08,0-.15.11-.22S4.22,19.88,4.26,19.92Z"/><path class="cls-1" d="M54,21.93c0,.07,0,.14-.11.22L53.75,22c0-.07,0-.15.11-.22S53.93,21.89,54,21.93Z"/><path class="cls-1" d="M1.65,23.62c-.08.11-.15.14-.22.11l-.11-.11c.07-.11.14-.14.22-.11Z"/><path class="cls-1" d="M2.26,24.37l-.11.11C2,24.41,2,24.34,2,24.27l.11-.11A.14.14,0,0,1,2.26,24.37Z"/><path class="cls-1" d="M1.25,25.34l-.11.11C1,25.38,1,25.31,1,25.24l.11-.11C1.25,25.2,1.28,25.27,1.25,25.34Z"/><path class="cls-1" d="M.23,26.67l-.11.11C0,26.71,0,26.64,0,26.57l.11-.11C.23,26.53.27,26.6.23,26.67Z"/><path class="cls-1" d="M54,26.57c0,.07,0,.14-.11.21l-.11-.11c0-.07,0-.14.11-.21S53.93,26.53,54,26.57Z"/><path class="cls-1" d="M54.77,26.67c0-.07,0-.14.11-.21l.11.11c0,.07,0,.14-.11.21S54.81,26.71,54.77,26.67Z"/><path class="cls-1" d="M1.36,27.36c0-.08,0-.15.1-.22l.11.11c0,.07,0,.14-.11.21Z"/><path class="cls-1" d="M53.26,27.71c.08,0,.15,0,.22.11l-.11.11c-.07,0-.14,0-.22-.11Z"/><path class="cls-1" d="M2.15,27.79s-.07,0-.11-.11a.15.15,0,0,1,0-.11c.07-.11.14-.14.22-.07s.14.14.07.25S2.19,27.82,2.15,27.79Z"/><path class="cls-1" d="M.29,28.32c.11.08.15.15.11.22l-.11.11c-.11-.07-.14-.15-.11-.22S.22,28.36.29,28.32Z"/><path class="cls-1" d="M2.62,28s-.07.11-.1.11A.34.34,0,0,1,2.33,28c-.07-.15,0-.22.15-.15S2.55,27.93,2.62,28Z"/><path class="cls-1" d="M1.5,32.46s-.07,0-.11-.11a.14.14,0,0,1,0-.11c.07-.1.14-.14.21-.07s.15.15.08.25A.21.21,0,0,1,1.5,32.46Z"/><path class="cls-1" d="M1.65,32.78v-.32c.25,0,.29.07.32.32Z"/><path class="cls-1" d="M1.65,32.93s0,.07-.11.1a.14.14,0,0,1-.11,0c-.11-.07-.15-.14-.07-.22s.14-.14.25-.07A.21.21,0,0,1,1.65,32.93Z"/><path class="cls-1" d="M.65,29.64c-.07,0-.14,0-.21-.11l.11-.11c.07,0,.14,0,.21.11S.69,29.6.65,29.64Z"/><path class="cls-1" d="M50.74,34c0-.07,0-.14.11-.21l.11.11c0,.07,0,.14-.11.21S50.78,34,50.74,34Z"/><path class="cls-1" d="M1.86,28.82c.08,0,.15,0,.22.11L2,29c-.07,0-.14,0-.21-.11S1.83,28.86,1.86,28.82Z"/><path class="cls-1" d="M50.34,34.44H50c0-.26.11-.33.22-.29A.24.24,0,0,1,50.34,34.44Z"/><path class="cls-1" d="M50.63,34.65s-.07.11-.1.11-.19-.07-.19-.14,0-.22.15-.15A.36.36,0,0,1,50.63,34.65Z"/><path class="cls-1" d="M50.63,35.33l-.1.11c-.11-.07-.15-.14-.11-.21l.11-.11C50.63,35.19,50.67,35.26,50.63,35.33Z"/><path class="cls-1" d="M1.25,35.66l-.11.11C1,35.69,1,35.62,1,35.55l.11-.11C1.25,35.51,1.28,35.59,1.25,35.66Z"/><path class="cls-1" d="M50.31,36s-.07.11-.11.11S50,36,50,35.94s0-.21.14-.14A.38.38,0,0,1,50.31,36Z"/><path class="cls-1" d="M.74,36.74l-.11-.11c.07-.11.15-.15.22-.11l.11.11C.88,36.74.81,36.77.74,36.74Z"/><path class="cls-1" d="M1.57,37.56c0,.07,0,.15-.11.22l-.1-.11c0-.07,0-.14.1-.22S1.54,37.53,1.57,37.56Z"/><path class="cls-1" d="M2.7,38.21l.11-.11c.1.07.14.14.1.22l-.1.1A.14.14,0,0,1,2.7,38.21Z"/><path class="cls-1" d="M1.17,39.07c-.07,0-.14,0-.21-.11l.11-.1c.07,0,.14,0,.21.1S1.21,39,1.17,39.07Z"/><path class="cls-1" d="M48.64,39s-.07.11-.11.11a.36.36,0,0,1-.18-.14c-.07-.15,0-.22.15-.15A1.29,1.29,0,0,0,48.64,39Z"/><path class="cls-1" d="M52,39.57c0,.08,0,.15-.11.22l-.11-.11c0-.07,0-.14.11-.21S51.94,39.5,52,39.57Z"/><path class="cls-1" d="M52.74,39.68c0-.07,0-.14.11-.21l.11.1c0,.08,0,.15-.11.22Z"/><path class="cls-1" d="M49.4,40.65c0-.07,0-.14.11-.21l.11.1c0,.08,0,.15-.11.22S49.44,40.69,49.4,40.65Z"/><path class="cls-1" d="M2.19,41.05c-.07,0-.15,0-.22-.11l.11-.11c.07,0,.15,0,.22.11S2.23,41,2.19,41.05Z"/><path class="cls-1" d="M48.6,41l-.1.11c-.11-.07-.15-.14-.11-.22l.11-.1A.15.15,0,0,1,48.6,41Z"/><path class="cls-1" d="M46.28,43s-.07.11-.11.11S46,43,46,43s0-.21.15-.14S46.25,42.92,46.28,43Z"/><path class="cls-1" d="M48.79,43.06,48.68,43c.07-.11.14-.14.21-.11L49,43C48.93,43.06,48.86,43.1,48.79,43.06Z"/><path class="cls-1" d="M47.59,43.56c0,.08,0,.15-.11.22l-.11-.11c0-.07,0-.14.11-.21S47.55,43.53,47.59,43.56Z"/><path class="cls-1" d="M51.8,43.71l-.11-.11c.07-.11.14-.14.21-.11l.11.11C51.94,43.71,51.87,43.74,51.8,43.71Z"/><path class="cls-1" d="M46.32,44.1h.33c0,.25-.11.33-.22.29A.22.22,0,0,1,46.32,44.1Z"/><path class="cls-1" d="M47.44,44.39l-.1-.11c.07-.11.14-.14.21-.11l.11.11C47.59,44.39,47.52,44.43,47.44,44.39Z"/><path class="cls-1" d="M5,45.29c-.07.11-.14.14-.22.11l-.1-.11c.07-.11.14-.15.21-.11S5,45.25,5,45.29Z"/><path class="cls-1" d="M3.75,46l-.11-.1c.07-.11.14-.15.22-.11l.11.11A.16.16,0,0,1,3.75,46Z"/><path class="cls-1" d="M5.31,46.65s-.07.11-.11.11S5,46.69,5,46.62s0-.22.14-.15S5.27,46.58,5.31,46.65Z"/><path class="cls-1" d="M43.49,47.09s-.07,0-.11-.11a.15.15,0,0,1,0-.11c.07-.11.14-.14.21-.07s.15.14.08.25A.1.1,0,0,1,43.49,47.09Z"/><path class="cls-1" d="M6.58,47.37c-.08,0-.15,0-.22-.11l.11-.1c.07,0,.14,0,.22.1S6.61,47.34,6.58,47.37Z"/><path class="cls-1" d="M43.93,47.3s-.08.11-.11.11-.15-.07-.18-.15,0-.21.14-.14A.44.44,0,0,1,43.93,47.3Z"/><path class="cls-1" d="M7.3,47.55c0,.07,0,.15-.11.22l-.11-.11c0-.07,0-.14.11-.22Z"/><path class="cls-1" d="M43.53,49.38c-.07,0-.15,0-.22-.1l.11-.11c.07,0,.14,0,.22.11Z"/><path class="cls-1" d="M10.24,49.46s.11.07.11.1-.07.18-.15.18-.21,0-.14-.14S10.17,49.49,10.24,49.46Z"/><path class="cls-1" d="M9.7,50.1c0-.25.07-.28.32-.32C10,50,10,50.07,9.7,50.1Z"/><path class="cls-1" d="M9.7,50.25s0,.07-.11.11a.17.17,0,0,1-.11,0c-.11-.07-.15-.14-.07-.21s.14-.15.25-.08S9.7,50.21,9.7,50.25Z"/><path class="cls-1" d="M11,50.25s0,.07-.11.11a.15.15,0,0,1-.11,0c-.11-.07-.15-.14-.07-.21s.14-.15.25-.08S11,50.21,11,50.25Z"/><path class="cls-1" d="M45.74,51.15c.07,0,.14,0,.22.1l-.11.11c-.07,0-.15,0-.22-.11Z"/><path class="cls-1" d="M47.05,52c0-.07,0-.14.1-.21l.11.1c0,.08,0,.15-.11.22S47.08,52,47.05,52Z"/><path class="cls-1" d="M10.75,52.66c0-.08,0-.15.11-.22l.1.11c0,.07,0,.14-.1.21Z"/><path class="cls-1" d="M34.57,52.58c-.07.11-.14.15-.22.11l-.11-.11c.08-.1.15-.14.22-.1S34.5,52.55,34.57,52.58Z"/><path class="cls-1" d="M43.24,52.66l-.11.1c-.11-.07-.15-.14-.11-.21l.11-.11C43.24,52.51,43.27,52.58,43.24,52.66Z"/><path class="cls-1" d="M46.21,53.37c-.07,0-.14,0-.22-.1l.11-.11c.07,0,.15,0,.22.11Z"/><path class="cls-1" d="M17,53.48l.11.11c-.07.11-.14.14-.21.11l-.11-.11C16.84,53.48,16.91,53.45,17,53.48Z"/><path class="cls-1" d="M43.24,53.55c0,.08,0,.15-.11.22L43,53.66c0-.07,0-.14.11-.21S43.2,53.52,43.24,53.55Z"/><path class="cls-1" d="M20.28,54.09s-.07,0-.1-.11a.11.11,0,0,1,0-.1c.07-.11.14-.15.22-.07s.14.14.07.25S20.36,54.09,20.28,54.09Z"/><path class="cls-1" d="M20.76,54.31s-.08.11-.11.11a.34.34,0,0,1-.18-.15c-.08-.14,0-.21.14-.14S20.72,54.24,20.76,54.31Z"/><path class="cls-1" d="M33.08,54.13s.11.07.11.11a.36.36,0,0,1-.14.18c-.15.07-.22,0-.15-.15S33,54.16,33.08,54.13Z"/><path class="cls-1" d="M42.73,54.16c.07,0,.15,0,.22.11l-.11.11c-.07,0-.15,0-.22-.11S42.69,54.2,42.73,54.16Z"/><path class="cls-1" d="M41.9,54.52c0,.08,0,.15-.11.22l-.11-.11c0-.07,0-.14.11-.21Z"/><path class="cls-1" d="M46.36,54.52l.1-.1c.11.07.15.14.11.21l-.11.11A.16.16,0,0,1,46.36,54.52Z"/><path class="cls-1" d="M44.36,54.88l.11-.1c.11.07.15.14.11.21l-.11.11C44.36,55,44.33,55,44.36,54.88Z"/><path class="cls-1" d="M28,55.42s-.07,0-.11-.11a.11.11,0,0,1,0-.1c.08-.11.15-.15.22-.08s.15.15.07.26S28.08,55.42,28,55.42Z"/><path class="cls-1" d="M47.7,55.31c0-.07,0-.14.11-.21l.11.11c0,.07,0,.14-.11.21Z"/><path class="cls-1" d="M45.34,55.64c0-.07,0-.15.11-.22l.11.11c0,.07,0,.14-.11.22A.26.26,0,0,0,45.34,55.64Z"/><path class="cls-1" d="M48.71,55.64c0-.07,0-.15.11-.22l.11.11c0,.07,0,.14-.11.22Z"/><path class="cls-1" d="M32.58,56c0-.07,0-.14.11-.21l.1.1c0,.08,0,.15-.1.22S32.65,56,32.58,56Z"/><path class="cls-1" d="M30.29,56.14c.07,0,.15,0,.22.11l-.11.11c-.07,0-.14,0-.22-.11Z"/><path class="cls-1" d="M41,57.25c-.07.11-.14.15-.21.11l-.11-.11c.07-.1.14-.14.21-.1S40.88,57.22,41,57.25Z"/><path class="cls-1" d="M43.17,57.36c-.08,0-.15,0-.22-.11l.11-.1c.07,0,.14,0,.21.1Z"/><path class="cls-1" d="M46.17,57.11s.11.07.11.11a.36.36,0,0,1-.14.18c-.15.07-.22,0-.15-.15A1.63,1.63,0,0,1,46.17,57.11Z"/><path class="cls-1" d="M9.9,51.75c0-.07,0-.14.11-.22l.11.11c0,.07,0,.15-.11.22Z"/><path class="cls-1" d="M27.79,57.65l-.11.11c-.11-.07-.14-.15-.11-.22l.11-.11C27.79,57.51,27.83,57.58,27.79,57.65Z"/><path class="cls-1" d="M46,57.58s0,.07-.11.11a.15.15,0,0,1-.11,0c-.11-.07-.15-.14-.07-.21s.14-.15.25-.08S46,57.51,46,57.58Z"/><path class="cls-1" d="M41.71,58.37l-.1-.11c.07-.11.14-.14.21-.11l.11.11C41.86,58.37,41.79,58.4,41.71,58.37Z"/><path class="cls-1" d="M44.69,58.87l.11-.11c.11.08.14.15.11.22l-.11.11C44.69,59,44.65,58.94,44.69,58.87Z"/><path class="cls-1" d="M45.92,59.3l-.11.11c-.11-.07-.14-.14-.11-.21l.11-.11C45.92,59.16,46,59.23,45.92,59.3Z"/><path class="cls-1" d="M40.55,60l-.1.1c-.11-.07-.15-.14-.11-.21l.11-.11A.16.16,0,0,1,40.55,60Z"/><path class="cls-1" d="M41.9,60.2c0,.07,0,.15-.11.22l-.11-.11c0-.07,0-.14.11-.22Z"/><path class="cls-1" d="M12,54.49c.08,0,.15,0,.22.1l-.11.11c-.07,0-.14,0-.21-.11Z"/><path class="cls-1" d="M44,62c0-.07,0-.14.11-.21l.11.1c0,.08,0,.15-.11.22Z"/><path class="cls-1" d="M30.07,62.68c-.07,0-.14,0-.21-.11l.11-.1c.07,0,.14,0,.21.1S30.11,62.65,30.07,62.68Z"/><path class="cls-1" d="M34.17,62.11l-.11.11c-.11-.08-.14-.15-.11-.22l.11-.11C34.17,62,34.21,62,34.17,62.11Z"/><path class="cls-1" d="M40.19,63.12l-.11.1c-.11-.07-.14-.14-.11-.21l.11-.11C40.23,62.94,40.23,63,40.19,63.12Z"/><path class="cls-1" d="M30.62,64.37l-.11-.11c.07-.11.14-.14.22-.11l.11.11A.15.15,0,0,1,30.62,64.37Z"/><path class="cls-1" d="M30.8,65.2c0,.07,0,.14-.11.21l-.11-.11c0-.07,0-.14.11-.21Z"/><path class="cls-1" d="M31.63,65.7l-.1-.11c.07-.11.14-.14.21-.11l.11.11C31.78,65.7,31.71,65.74,31.63,65.7Z"/><path class="cls-1" d="M27,68c.07,0,.14,0,.21.11l-.11.11c-.07,0-.14,0-.21-.11S26.92,68.08,27,68Z"/><path class="cls-1" d="M26.36,65c0,.07,0,.14-.11.21l-.11-.1c0-.08,0-.15.11-.22S26.32,65,26.36,65Z"/><path class="cls-1" d="M35.43,54.84l-.11.11c-.1-.07-.14-.14-.1-.21l.1-.11C35.47,54.66,35.47,54.74,35.43,54.84Z"/><path class="cls-1" d="M21.47,56l-.1.1c-.11-.07-.15-.14-.11-.21l.11-.11C21.47,55.88,21.51,56,21.47,56Z"/><path class="cls-1" d="M26.88,60.3c0-.08,0-.15.11-.22l.11.11c0,.07,0,.14-.11.21Z"/><path class="cls-1" d="M41.79,59.09s-.08,0-.11-.11a.13.13,0,0,1,0-.11c.07-.11.15-.14.22-.07s.14.14.07.25S41.82,59.09,41.79,59.09Z"/><path class="cls-2" d="M25.3,35.74l-7.67-7.16a2,2,0,0,1,2.74-2.92l4.93,4.6,9.33-8.72a2,2,0,0,1,2.74,2.92Z"/></svg>