<svg id="Layer_1" data-name="Layer 1" xmlns="http://www.w3.org/2000/svg" viewBox="0 0 60 61"><defs><style>.cls-1,.cls-7{fill:none;stroke:#f0614a;}.cls-1{stroke-width:4px;}.cls-2{fill:#d1e9fa;}.cls-3{fill:#a0c8e1;}.cls-4{fill:#87a5be;}.cls-5{fill:#bedcf0;}.cls-6{fill:#87aac8;}.cls-7{stroke-linecap:round;stroke-linejoin:round;stroke-width:5px;}</style></defs><path class="cls-1" d="M57.84,30.88c1.84,17.39-12.9,29.24-27.63,28C22.58,58.29,15,55.81,9.57,51.26s-8.5-11-7.33-20.34C3.49,21.05,5.66,14.3,9.46,9.82s9.26-6.91,18-7.69c8.48-.76,15.54,2,20.74,7S56.89,21.84,57.84,30.88Z"/><path class="cls-2" d="M3.56,35.67,4.43,45a5.18,5.18,0,0,0,3,4.22l8.83,4.08a5,5,0,0,0,4.93-.4l7.94-5.44a5,5,0,0,0,2.15-4.64l-.87-9.29a5.2,5.2,0,0,0-3-4.22L18.58,25.2a5,5,0,0,0-4.93.4L5.71,31A5,5,0,0,0,3.56,35.67Z"/><path class="cls-3" d="M4,33.08a3.83,3.83,0,0,0-.46,2.62A38,38,0,0,0,4,40.34,36.68,36.68,0,0,1,4.38,45a5.16,5.16,0,0,0,3,4.21,59.13,59.13,0,0,0,8.8,4.07,9.29,9.29,0,0,0,3.47.43l-2.17-13a2.57,2.57,0,0,0-1.53-1.93C11.06,37.06,4.53,32.12,4,33.08Z"/><path class="cls-4" d="M30.39,33.44a5.19,5.19,0,0,0-.94-2.51l-9.82,6.59c-.7.6-1.93,1.84-1.87,3.24l.87,11.11c.18,2,.82,2.1,2.56.9a43.83,43.83,0,0,0,7.92-5.43,5,5,0,0,0,2.14-4.62l-.43-4.64Z"/><path class="cls-2" d="M29.53,33.87l-1,9.28a5,5,0,0,0,2.07,4.67l7.84,5.57a5,5,0,0,0,4.92.47l8.88-4a5.17,5.17,0,0,0,3-4.17l1-9.29a5,5,0,0,0-2.07-4.67,45.53,45.53,0,0,0-7.84-5.56,5,5,0,0,0-4.92-.47l-8.88,4A5.19,5.19,0,0,0,29.53,33.87Z"/><path class="cls-3" d="M30.49,31.31a5.15,5.15,0,0,0-1,2.5,51.26,51.26,0,0,0-1,9.27,5,5,0,0,0,2.07,4.67A95.22,95.22,0,0,0,38.4,53.3c.72.51,2.62,1.26,3.76.68l-.09-12.45c.2-1-.93-2.33-1.49-2.6C36,36.77,33.87,34.75,30.49,31.31Z"/><path class="cls-4" d="M56.34,36.48c.1-.92-.1-2.82-1.24-2.24-4.32,3.09-5.43,3.95-10.61,5.26a2.62,2.62,0,0,0-2.28,2.12L41,53.31c-.2,1.34,1.65.91,2.46.55a33.56,33.56,0,0,0,8.85-4,5.17,5.17,0,0,0,3-4.16l.5-4.64Z"/><path class="cls-3" d="M49.11,49c-1.19-.22-1.84-.71-1.49-1.85s.94-1.62,1.86-1.53A1.67,1.67,0,0,1,51,47.45C50.87,48.38,50.3,49.21,49.11,49Z"/><path class="cls-3" d="M22.77,42.16a1.92,1.92,0,0,1-1.83-1.56c-.17-.75.39-1.52,1.52-1.82a1.4,1.4,0,0,1,1.83,1.55C24.22,41.37,23.7,42.09,22.77,42.16Z"/><path class="cls-5" d="M32.68,43.05c-.92-.08-1.43-.69-1.49-1.85s.8-1.7,1.86-1.53,1.75.66,1.49,1.85S33.6,43.14,32.68,43.05Z"/><path class="cls-5" d="M7.51,42.64a1.71,1.71,0,0,1-1.84-1.55,1.53,1.53,0,0,1,1.52-1.83c.93-.08,1.93.39,1.84,1.55S8.43,42.57,7.51,42.64Z"/><path class="cls-3" d="M11.84,33.79c-.92.08-1.92-.39-1.84-1.56s.6-1.75,1.52-1.82,1.5.5,1.84,1.55S12.76,33.72,11.84,33.79Z"/><path class="cls-2" d="M15.88,13.27l-.31,9.29A5.05,5.05,0,0,0,18,27.06l8.28,5a5.06,5.06,0,0,0,5,.15l8.61-4.51a5.1,5.1,0,0,0,2.73-4.35l.32-9.29a5.07,5.07,0,0,0-2.43-4.5l-8.29-5a5,5,0,0,0-5-.15L18.62,8.92A5.14,5.14,0,0,0,15.88,13.27Z"/><path class="cls-3" d="M16.43,11.07a3.61,3.61,0,0,0-.55,2.18l-.15,4.65-.16,4.64A5,5,0,0,0,18,27l8.27,5a4.88,4.88,0,0,0,3.59.58l-.53-13.17a2.91,2.91,0,0,0-1.71-1.91,55.48,55.48,0,0,1-10-6.29C17.31,10.91,16.67,10.68,16.43,11.07Z"/><path class="cls-6" d="M42.93,14.08a3.92,3.92,0,0,0-.42-2.28.63.63,0,0,0-.71,0,81,81,0,0,1-11.47,6,1.61,1.61,0,0,0-1.09,1.51c-.12.76-.48,7.29-.46,12.6.18,1.34,1.72.74,2.5.33l8.6-4.51a5.08,5.08,0,0,0,2.73-4.34l.16-4.64Z"/><path class="cls-3" d="M34.68,23.66c-.93,0-1.34-.91-1.31-1.84A2,2,0,0,1,35.26,20a1.71,1.71,0,0,1,1.49,1.89A2.11,2.11,0,0,1,34.68,23.66Z"/><path class="cls-5" d="M23.54,27c-.93,0-1.44-.81-1.63-1.77a1.5,1.5,0,0,1,1.64-1.66,1.63,1.63,0,0,1,1.66,1.65A1.76,1.76,0,0,1,23.54,27Z"/><path class="cls-3" d="M28.63,10.69c-.93,0-1.95-.76-1.64-1.74a1.54,1.54,0,0,1,1.75-1.26c.93,0,1.34.49,1.64,1.36S29.56,10.72,28.63,10.69Z"/><path class="cls-3" d="M47.2,34.36a1.37,1.37,0,0,1-1.49-1.85A1.74,1.74,0,0,1,47.57,31c.92.09,1.41.67,1.49,1.86S48.47,34.35,47.2,34.36Z"/><path class="cls-7" d="M10.39,51.11C23.54,33.62,41.85,29.62,51.58,14"/></svg>