<svg id="Layer_1" data-name="Layer 1" xmlns="http://www.w3.org/2000/svg" viewBox="0 0 188 28"><defs><style>.cls-1{fill:#1565c0;opacity:0.75;isolation:isolate;}.cls-2{fill:#1976d2;}.cls-3{fill:#ff5722;}</style></defs><path class="cls-1" d="M0,0V28H28.48Z"/><path class="cls-2" d="M28.48,0H0V28Z"/><path class="cls-3" d="M132.15,5.6a7.87,7.87,0,0,0-8,7.56V22.4h3.42V19h9.11V22.4h3.42V13.16A7.88,7.88,0,0,0,132.15,5.6Zm4.56,10.08H127.6V13.16a4.57,4.57,0,0,1,9.11,0Z"/><path class="cls-3" d="M179.44,5.6a7.88,7.88,0,0,0-8,7.56V22.4h3.42V19H184V22.4h3.42V13.16A7.87,7.87,0,0,0,179.44,5.6ZM184,15.68h-9.11V13.16a4.57,4.57,0,0,1,9.11,0Z"/><path class="cls-2" d="M97.41,5.6A8.48,8.48,0,0,0,88.86,14,8.55,8.55,0,0,0,106,14,8.48,8.48,0,0,0,97.41,5.6Zm0,13.44a5,5,0,1,1,5.13-5A5.09,5.09,0,0,1,97.41,19Z"/><path class="cls-2" d="M85.24,13.11a5,5,0,0,0,.67-2.48,5.09,5.09,0,0,0-5.13-5H74.06v16.8h8.43a5,5,0,0,0,2.75-9.28ZM77.47,9h3.31a1.68,1.68,0,1,1,0,3.35H77.47Zm5,10.08h-5V15.67h5a1.69,1.69,0,1,1,0,3.37Z"/><path class="cls-2" d="M63.51,5.6A8.47,8.47,0,0,0,55,14a8.55,8.55,0,0,0,17.09,0A8.48,8.48,0,0,0,63.51,5.6Zm0,13.44a5,5,0,1,1,5.13-5A5.09,5.09,0,0,1,63.51,19Z"/><path class="cls-3" d="M150.94,12.35l0,0h-4A1.68,1.68,0,1,1,147,9h6.27l2.27-3.36H147a5,5,0,0,0-.55,10.05l0,0h4a1.68,1.68,0,1,1,0,3.36h-6.26l-2.28,3.36h8.55a5,5,0,0,0,.55-10Z"/><path class="cls-3" d="M161.21,5.6a5,5,0,0,0-.56,10.05l0,0h4a1.68,1.68,0,1,1,0,3.36h-6.26l-2.28,3.36h8.55a5,5,0,0,0,.55-10l0,0h-4a1.68,1.68,0,1,1,0-3.36h6.27l2.27-3.36Z"/><path class="cls-3" d="M122.3,5.6l-7,7.31,7.16,9.48h-4L113,15.28l-1.39,1.63v5.48h-3.42V5.6h3.42v6.63l6.17-6.63Z"/><path class="cls-2" d="M43.3,22.4H39.88V5.6h8a5.26,5.26,0,0,1,3.71,1.45,5.72,5.72,0,0,1,1.91,3.87,4.82,4.82,0,0,1-1.14,3.36,5,5,0,0,1-2.85,2l4.27,6.16h-4l-4-5.81a.86.86,0,0,0-.69-.35H43.3Zm0-9.24h4.55a2.24,2.24,0,1,0,0-4.48H43.3Z"/></svg>