<svg id="Layer_1" data-name="Layer 1" xmlns="http://www.w3.org/2000/svg" viewBox="0 0 48.82 39.66"><defs><style>.cls-1{fill:#df633c;}.cls-1,.cls-2{fill-rule:evenodd;}.cls-2{fill:#efca8b;}</style></defs><path class="cls-1" d="M11.45,14.25C11.45,6.37,18.86,0,26.34,0S41.22,6.37,41.22,14.25,32.83,32.6,28.77,37.7l-.94,1.19a1.86,1.86,0,0,1-3,0L24,37.78C19.93,32.71,11.45,22.1,11.45,14.25Zm10.06,0a4.84,4.84,0,1,0,9.66,0,5,5,0,0,0-4.83-5.09A5,5,0,0,0,21.51,14.25Z"/><path class="cls-2" d="M40.53,28.91a5,5,0,0,1,7.17.86,6,6,0,0,1-.65,7.71c-2.15,1.88-6.88,2-9.17,2.06l-.53,0a.67.67,0,0,1-.65-.85c0-.16.07-.33.11-.53C37.32,35.8,38.38,30.8,40.53,28.91Zm2.2,2.9a2,2,0,0,0-.34,2.61,1.67,1.67,0,0,0,2.46.17A2,2,0,0,0,45.19,32,1.66,1.66,0,0,0,42.73,31.81Z"/><path class="cls-1" d="M2.54,37.35c-3-2.43-3.29-7.31-1.2-10.26a6.71,6.71,0,0,1,9.53-1.5c3,2.41,4.57,9,5.35,12.14.07.27.13.52.19.74a.9.9,0,0,1-.83,1.17h-.67C11.87,39.68,5.5,39.77,2.54,37.35Zm2.81-4A2.23,2.23,0,0,0,8.62,33a2.62,2.62,0,0,0-.56-3.48,2.23,2.23,0,0,0-3.27.34A2.63,2.63,0,0,0,5.35,33.38Z"/></svg>