<svg id="Layer_1" data-name="Layer 1" xmlns="http://www.w3.org/2000/svg" viewBox="0 0 32 32"><defs><style>.cls-1{fill:#27ae60;}.cls-2{fill:#fff;fill-rule:evenodd;}</style></defs><path class="cls-1" d="M31.91,16.14C33,25.9,24.5,33.22,16,31.83S-1.21,26.49.14,16.14,5,2.22,14.55.29,30.85,6.37,31.91,16.14Z"/><path class="cls-2" d="M14.3,21.77l-.13-.12-3.81-3.79a1.5,1.5,0,0,1,0-2.11,1.52,1.52,0,0,1,2.13,0l2.76,2.74,6.16-6.12a1.52,1.52,0,0,1,2.13,0,1.5,1.5,0,0,1,0,2.11l-7.22,7.18A1.53,1.53,0,0,1,14.3,21.77Z"/></svg>