<svg id="Layer_1" data-name="Layer 1" xmlns="http://www.w3.org/2000/svg" viewBox="0 0 21 24.55"><defs><style>.cls-1{fill-rule:evenodd;}</style></defs><path class="cls-1" d="M10.55,24.55l.73-.63C17.4,18.61,21,14,21,9.9,21,4.12,16,0,10.55,0S0,4.12,0,9.9c0,4.07,3.7,8.71,9.83,14Zm-.05-2.91C5.3,17,2.8,13,2.8,9.9a7.58,7.58,0,0,1,7.75-7.7A7.58,7.58,0,0,1,18.3,9.9C18.3,13,15.7,17,10.5,21.64ZM10.55,4.4c3.06,0,5.95,2.46,5.95,5.5s-2.89,5.5-5.95,5.5S4.5,12.93,4.5,9.9,7.5,4.4,10.55,4.4ZM7.23,9.9a3.32,3.32,0,1,1,3.32,3.3A3.31,3.31,0,0,1,7.23,9.9Z"/></svg>