<svg id="Layer_1" data-name="Layer 1" xmlns="http://www.w3.org/2000/svg" viewBox="0 0 25 22.96"><defs><style>.cls-1{fill-rule:evenodd;}</style></defs><path class="cls-1" d="M3.32,11.48l-1.7,1.69C.74,13,.32,12.74,0,11.55L10.88.67a2.3,2.3,0,0,1,3.24,0L25,11.55a2.21,2.21,0,0,1-1.62,1.62l-1.7-1.69a22.36,22.36,0,0,0,0,9.18A2.3,2.3,0,0,1,19.39,23H5.61a2.3,2.3,0,0,1-2.29-2.3A27.45,27.45,0,0,0,3.32,11.48Zm2.29-2.3A53,53,0,0,1,12.5,3a51.86,51.86,0,0,1,6.89,6.18h0a20,20,0,0,0,0,11.48,65.43,65.43,0,0,0-13.78,0,27.76,27.76,0,0,0,0-11.48Z"/></svg>