<svg id="Layer_1" data-name="Layer 1" xmlns="http://www.w3.org/2000/svg" viewBox="0 0 72 54"><defs><style>.cls-1{fill-rule:evenodd;}</style></defs><path d="M57.93,19.79a2.65,2.65,0,1,1-2.64-2.65A2.64,2.64,0,0,1,57.93,19.79Z"/><path class="cls-1" d="M23.57,27.71A13.22,13.22,0,1,0,36.79,14.5,13.22,13.22,0,0,0,23.57,27.71Zm21.14,0a7.93,7.93,0,1,1-15.85,0c0-4.37,3.55-9.07,7.93-9.07S44.71,23.34,44.71,27.71Z"/><path class="cls-1" d="M23.41,8.81c.18-.26.39-.58.66-1l.55-.92c.11-.17.19-.32.22-.37C27,2.93,28.63,1.29,31.5,1.29H42.07c2.87,0,4.47,1.64,6.66,5.22,0,0,.11.2.22.37l.56.92c.26.43.47.75.66,1a4.26,4.26,0,0,0,.32.4h7.44a7.93,7.93,0,0,1,7.93,7.93V40.93a7.93,7.93,0,0,1-7.93,7.93,363.78,363.78,0,0,0-42.29,0,7.93,7.93,0,0,1-7.93-7.93V17.14a7.93,7.93,0,0,1,7.93-7.93h7.45ZM15.64,14.5A2.64,2.64,0,0,0,13,17.14c-1.6,9.29-1.9,14.5,0,23.79a2.64,2.64,0,0,0,2.64,2.64,304.49,304.49,0,0,1,42.29,0,2.64,2.64,0,0,0,2.64-2.64,83.53,83.53,0,0,0,0-23.79,2.64,2.64,0,0,0-2.64-2.64H50c-1.76,0-2.94-1-4.12-2.61-.28-.38-.55-.79-.87-1.32l-.6-1-.19-.32c-1.2-1.95-1.92-2.7-2.15-2.7-4.13-1.35-6.44-1.51-10.57,0-.23,0-.95.75-2.15,2.7l-.19.32-.6,1c-.32.53-.59.94-.86,1.32-1.19,1.65-2.37,2.61-4.13,2.61Z"/><path d="M2.81,31.33c-1.37-.39-1.37-.39-2.21.85l.42,1c1.37.39,1.37.39,2.21-.84Z"/><path d="M3.61,42.25l-2.1.81c-.23.08-.16.58-.23.74l2.11.88a18.1,18.1,0,0,0,.8-2C4.26,42.53,4.05,42.35,3.61,42.25Z"/><path d="M5,38.52c-.54,1-.15,1.62.87,2.14.22-.47.38-1,.59-1.53s.28-.62.07-.81a.82.82,0,0,0-1.07,0C5.35,38.5,5.19,38.43,5,38.52Z"/><path d="M2.21,37.63c-1-.52-1.72-.26-2.21.84A1.55,1.55,0,0,0,2.21,37.63Z"/><path d="M11.19,49.89c1,.52,1.72.25,2.21-.85C12.27,48.56,11.57,48.83,11.19,49.89Z"/><path d="M7.21,17.39l.22-.47c-.38-.25-.65-.27-.84-.07l-.21.47C6.75,17.57,7,17.59,7.21,17.39Z"/><path d="M3.76,21.37c-.28,0-.47.18-.56.61l.48.2c.28,0,.47-.18.56-.6A1,1,0,0,1,3.76,21.37Z"/><path d="M6.1,25.55l.49.21c.26-.36.28-.63.07-.81l-.49-.21A.53.53,0,0,0,6.1,25.55Z"/><path d="M5.06,28.53,4.85,29c.37.25.65.27.84.07l.21-.47C5.53,28.35,5.25,28.33,5.06,28.53Z"/><path d="M6.94,30.16l-.21.47c.37.25.65.27.84.07l.21-.47C7.41,30,7.13,30,6.94,30.16Z"/><path d="M5.71,35.1c0,.27.19.45.63.55l.21-.48q0-.41-.63-.54C5.76,34.56,5.78,35,5.71,35.1Z"/><path d="M13.31,43.41c0,.27.18.45.62.55l.21-.48c0-.27-.18-.45-.62-.54C13.4,43,13.38,43.26,13.31,43.41Z"/><path d="M10.88,44.73c0-.27-.18-.45-.62-.54l-.21.47c0,.27.18.45.62.54C10.79,45.16,10.81,44.89,10.88,44.73Z"/><path d="M7.45,46c-.28,0-.47.18-.56.61l.49.2c.28,0,.46-.18.56-.6Z"/><path d="M68.16,25.87c1.87.53,1.87.53,3-1.17l-.57-1.39c-1.87-.54-1.87-.54-3,1.16Z"/><path d="M67.08,10.85l2.86-1.1c.31-.13.22-.81.32-1L67.38,7.51a25.42,25.42,0,0,0-1.09,2.75C66.2,10.47,66.48,10.72,67.08,10.85Z"/><path d="M65.24,16c.73-1.36.19-2.23-1.2-2.94-.28.64-.51,1.45-.8,2.1q-.52.73-.09,1.11a1.09,1.09,0,0,0,1.45,0C64.7,16,64.92,16.1,65.24,16Z"/><path d="M69,17.21c1.39.71,2.34.35,3-1.17C70.51,15.54,69.56,15.91,69,17.21Z"/><path d="M56.73.35c-1.39-.71-2.34-.35-3,1.17C55.27,2.17,56.22,1.81,56.73.35Z"/><path d="M65.67,41.5c-.1.21-.29.64-.29.64.51.35.89.38,1.14.1s.29-.65.29-.65Q66,41.08,65.67,41.5Z"/><path d="M63.37,39.56c.38,0,.64-.24.77-.83l-.67-.28c-.38,0-.63.24-.76.83A1.25,1.25,0,0,1,63.37,39.56Z"/><path d="M67.19,33.81l-.67-.28c-.35.49-.38.86-.1,1.11l.67.29A.74.74,0,0,0,67.19,33.81Z"/><path d="M65.09,29.72l.29-.65q-.75-.51-1.14-.09l-.29.64C64.46,30,64.84,30,65.09,29.72Z"/><path d="M62.53,27.48l.29-.65q-.75-.51-1.14-.09l-.29.64C61.9,27.73,62.28,27.76,62.53,27.48Z"/><path d="M64.21,20.68c0-.37-.25-.62-.85-.75l-.29.65c0,.37.25.62.85.75C64.14,21.42,64.11,20.9,64.21,20.68Z"/><path d="M53.86,9.25c0-.37-.25-.62-.86-.74l-.28.65c0,.37.25.62.85.74C53.73,9.84,53.76,9.47,53.86,9.25Z"/><path d="M57.16,7.44c0,.37.25.62.85.75l.29-.65c0-.37-.25-.62-.86-.75C57.29,6.86,57.25,7.23,57.16,7.44Z"/><path d="M61.84,5.75c.38,0,.64-.25.76-.83l-.66-.29c-.38,0-.63.25-.76.84Z"/><path d="M11.58,52.86c0-.51.05-.62.45-.65.07,0,.17,0,.24,0,1.05-.09,2.1-.09,3.15-.17l2.83-.1c.57,0,1.16,0,1.74,0l2.83-.36a2.37,2.37,0,0,1,1.08-.1c2.3.16,18.06.22,20.36.46,1.1.06,2.16.06,3.28,0s2.14-.11,3.22-.21a21.48,21.48,0,0,1,2.26.1,4.53,4.53,0,0,1,1,.26,7,7,0,0,0,2.31.32c1.09-.1,2.09-.12,3.16-.18a1.39,1.39,0,0,0,.83-.05,3.66,3.66,0,0,0,1.27-.08c.57,0,1.23-.32,1.83-.1.21.06.44-.22.59,0s.27-.4.21.14-.41-.14-.65.15-.55.07-.86.05a14.12,14.12,0,0,0-1.83.25c-.78,0-1.59.18-2.37.22a5.61,5.61,0,0,0-1.16,0,7.83,7.83,0,0,1-3.16.09c-.79,0-1.59-.25-2.37-.21-2.2.13-4.45-.47-6.68-.24a6.13,6.13,0,0,1-1.9.08c-.91-.33-1.85.55-2.8.66-1.28.12-16-.33-17.31-.13l-1.89.15c-.51.08-1,.07-1.53.15a6.2,6.2,0,0,1-1.29,0c-.72-.08-1.41-.17-2.13-.24a12.82,12.82,0,0,0-3.54.44.32.32,0,0,1-.39-.15c-.21-.41-.39.85-.49.47-.15-1-.22.32-.34-.73h0Z"/></svg>