<svg id="Layer_1" data-name="Layer 1" xmlns="http://www.w3.org/2000/svg" viewBox="0 0 22 24.37"><path d="M14.86,6.44c0-2.27-4.16-4.1-4.16-4.1S6.54,4.17,6.54,6.44a4.16,4.16,0,0,0,8.32,0Zm2.38,0a6.48,6.48,0,0,1-6.54,6.44A6.49,6.49,0,0,1,4.16,6.44,6.49,6.49,0,0,1,10.7,0,6.48,6.48,0,0,1,17.24,6.44ZM2.38,20.66c0,1.1-.1,1,.54,1a70.42,70.42,0,0,1,16.16,0c.64,0,.54.1.54-1,0-2.68-3.93-4.27-8.62-4.27S2.38,18,2.38,20.66ZM0,20.66c0-4.55,5.11-6.61,11-6.61s11,2.06,11,6.61C22,23,21.07,24,19.08,24A87.22,87.22,0,0,1,2.92,24C.93,24,0,23,0,20.66Z"/></svg>