<svg id="Layer_1" data-name="Layer 1" xmlns="http://www.w3.org/2000/svg" viewBox="0 0 32 32"><defs><style>.cls-1{fill:#27ae60;}.cls-2{fill:#fff;}</style></defs><path class="cls-1" d="M31.91,16.14C33,25.9,24.5,33.22,16,31.83S-1.21,26.49.14,16.14,5,2.22,14.55.29,30.85,6.37,31.91,16.14Z"/><path class="cls-2" d="M16,7.81c.06-.1.11-.21.17-.32a.9.9,0,0,1,1.67.17l1.54,4.22c0,.11.05.23.09.34a1.59,1.59,0,0,0,1.14.92,14.05,14.05,0,0,0,4.44,0,1,1,0,0,1,.62,1.67l-.15.14a11.86,11.86,0,0,1-3.25,2.81.58.58,0,0,0-.15.11,1.75,1.75,0,0,0-.39,1.85,13.75,13.75,0,0,1,1.1,3.94.8.8,0,0,0,0,.15.93.93,0,0,1-1.43,1c-1.22-.95-1.82-1.39-3.37-2.69a2.44,2.44,0,0,0-1.84,0,17.07,17.07,0,0,1-3.71,2.69.93.93,0,0,1-1.41-1.07,19.91,19.91,0,0,1,1.5-4.82c.4-1.08-3.48-3.36-4.2-4a.52.52,0,0,0-.11-.1,1,1,0,0,1,.6-1.69,14.57,14.57,0,0,0,4.12-.2C14.12,12.77,15.32,8.94,16,7.81Z"/><path class="cls-2" d="M12.94,10.94c-.06.3,0,.64-.51.87a3.33,3.33,0,0,1-1.12.19,3.3,3.3,0,0,1-1.37-.24c-.4-.19-.42-.45-.54-.68A3.21,3.21,0,0,1,9,9.26c0-.43.09-.93.5-1.08A3.19,3.19,0,0,1,10.59,8a3.51,3.51,0,0,1,1.32.21c.46.2.48.48.62.74A2.56,2.56,0,0,1,12.94,10.94Z"/></svg>