<svg id="Layer_1" data-name="Layer 1" xmlns="http://www.w3.org/2000/svg" viewBox="0 0 40.22 21.29"><path d="M40,19.23a2.21,2.21,0,0,0-.14-.24,19.8,19.8,0,0,0-4-4.3l0,0,0,0,0,0h0c-.9-.79-1.46-1.32-1.7-1.59a1.41,1.41,0,0,1-.29-1.57A14.22,14.22,0,0,1,35.66,8.9c.57-.68,1-1.24,1.36-1.65,2.42-3,3.46-4.88,3.14-5.71L40,1.34A1.36,1.36,0,0,0,39.39,1,3.81,3.81,0,0,0,38.05,1L32,1a.86.86,0,0,0-.42,0l-.27.06-.11,0-.08.06a1,1,0,0,0-.23.2,1.3,1.3,0,0,0-.21.34A30.36,30.36,0,0,1,28.46,6.1c-.52.81-1,1.5-1.43,2.09A10.57,10.57,0,0,1,26,9.5a9.46,9.46,0,0,1-.8.67c-.24.16-.42.24-.54.21l-.36-.08a1.32,1.32,0,0,1-.47-.47,2.06,2.06,0,0,1-.24-.76c0-.31-.07-.57-.08-.79s0-.53,0-.93,0-.68,0-.82c0-.49,0-1,0-1.6s0-1,0-1.37,0-.69,0-1.07a4,4,0,0,0-.07-.88A3.62,3.62,0,0,0,23.31,1a1.06,1.06,0,0,0-.43-.46,2.38,2.38,0,0,0-.7-.26A15.17,15.17,0,0,0,19.35,0a14.81,14.81,0,0,0-5,.47,2.93,2.93,0,0,0-.79.58c-.25.29-.29.44-.11.47a2.6,2.6,0,0,1,1.78.83l.13.24a3.14,3.14,0,0,1,.29.89,8.41,8.41,0,0,1,.19,1.42,14,14,0,0,1,0,2.43c-.07.67-.13,1.2-.2,1.57a2.86,2.86,0,0,1-.28.92c-.13.23-.21.37-.25.42a.32.32,0,0,1-.11.1,1.78,1.78,0,0,1-.56.1,1.32,1.32,0,0,1-.71-.28,5,5,0,0,1-.87-.74,10.45,10.45,0,0,1-1-1.33,20.84,20.84,0,0,1-1.17-2l-.34-.56c-.21-.36-.49-.89-.85-1.58s-.69-1.37-1-2A1.32,1.32,0,0,0,8,1.28l-.11-.05a1.09,1.09,0,0,0-.33-.17A2.42,2.42,0,0,0,7.08.93L1.34,1a1.54,1.54,0,0,0-1.19.37l-.09.12A.6.6,0,0,0,0,1.77a1.4,1.4,0,0,0,.13.53Q1.38,5,2.86,7.58c1,1.7,1.84,3.06,2.56,4.1s1.47,2,2.22,2.93,1.26,1.51,1.5,1.77.44.46.58.59l.52.46a13.55,13.55,0,0,0,1.48,1.12c.65.43,1.36.86,2.15,1.28a12,12,0,0,0,2.76,1,10.07,10.07,0,0,0,3.05.32h2.41a1.71,1.71,0,0,0,1.11-.43l.09-.09a1.62,1.62,0,0,0,.15-.36,1.8,1.8,0,0,0,.08-.54,5.87,5.87,0,0,1,.13-1.5,3.92,3.92,0,0,1,.36-1,2.42,2.42,0,0,1,.45-.58,2.57,2.57,0,0,1,.36-.28l.16-.07a1.42,1.42,0,0,1,1.19.31,6.94,6.94,0,0,1,1.27,1.12c.4.45.88.95,1.44,1.51a9.28,9.28,0,0,0,1.46,1.24l.42.24a5.66,5.66,0,0,0,1.09.42,2.45,2.45,0,0,0,1.17.1l5.36-.08a2.62,2.62,0,0,0,1.24-.24,1,1,0,0,0,.52-.53,1.37,1.37,0,0,0,0-.67A2.43,2.43,0,0,0,40,19.23Z"/></svg>