<svg id="Layer_1" data-name="Layer 1" xmlns="http://www.w3.org/2000/svg" viewBox="0 0 24 24"><defs><style>.cls-1{fill-rule:evenodd;}</style></defs><path class="cls-1" d="M6,4.8A6,6,0,0,1,12,0a6,6,0,0,1,6.05,4.8h3.51A2.42,2.42,0,0,1,24,7.2c0,.11,0,.23,0,.34a50,50,0,0,0-2.09,14.4A2.44,2.44,0,0,1,19.47,24H4.53a2.44,2.44,0,0,1-2.42-2.06A53.35,53.35,0,0,0,0,7.54,2.42,2.42,0,0,1,2.09,4.82l.35,0Zm9.62,0A3.76,3.76,0,0,0,12,2.4,3.76,3.76,0,0,0,8.43,4.8ZM2.44,7.2H5.91V9.6a2.35,2.35,0,0,0,2.43,0V7.2a24.27,24.27,0,0,1,7.32,0V9.6c.81.58,1.34.6,2.43,0V7.2h3.47a54.19,54.19,0,0,0-2.09,14.4,40.56,40.56,0,0,0-14.94,0C4.26,16,4.08,12.85,2.44,7.2Z"/></svg>