<svg id="Layer_1" data-name="Layer 1" xmlns="http://www.w3.org/2000/svg" viewBox="0 0 27 26"><path d="M13.5,0C9.83,0,9.37,0,7.93.08a10.21,10.21,0,0,0-3.27.6,6.63,6.63,0,0,0-2.39,1.5A6.32,6.32,0,0,0,.71,4.48,9.44,9.44,0,0,0,.08,7.64C0,9,0,9.46,0,13s0,4,.08,5.36A9.37,9.37,0,0,0,.71,21.5a6.23,6.23,0,0,0,1.56,2.3,6.5,6.5,0,0,0,2.39,1.5,10.46,10.46,0,0,0,3.27.61c1.44.06,1.9.07,5.57.07s4.13,0,5.57-.07a10.46,10.46,0,0,0,3.27-.61,6.5,6.5,0,0,0,2.39-1.5,6.11,6.11,0,0,0,1.56-2.3,9.13,9.13,0,0,0,.63-3.15C27,17,27,16.52,27,13s0-4-.08-5.35a9.2,9.2,0,0,0-.63-3.16,6.19,6.19,0,0,0-1.56-2.3A6.63,6.63,0,0,0,22.34.68a10.21,10.21,0,0,0-3.27-.6C17.63,0,17.17,0,13.5,0Zm0,2.34c3.61,0,4,0,5.46.08a7.74,7.74,0,0,1,2.5.44,4.18,4.18,0,0,1,1.55,1,3.8,3.8,0,0,1,1,1.49,6.83,6.83,0,0,1,.47,2.41c.06,1.37.08,1.78.08,5.25s0,3.88-.08,5.25A6.72,6.72,0,0,1,24,20.65a3.91,3.91,0,0,1-1,1.5,4.29,4.29,0,0,1-1.55,1,7.66,7.66,0,0,1-2.5.45c-1.43.06-1.85.07-5.46.07s-4,0-5.45-.07a7.68,7.68,0,0,1-2.51-.45,4.29,4.29,0,0,1-1.55-1,3.91,3.91,0,0,1-1-1.5,6.72,6.72,0,0,1-.47-2.41c-.06-1.37-.08-1.78-.08-5.25s0-3.88.08-5.25A6.83,6.83,0,0,1,3,5.33,3.8,3.8,0,0,1,4,3.84a4.18,4.18,0,0,1,1.55-1,7.75,7.75,0,0,1,2.51-.44C9.47,2.35,9.9,2.34,13.5,2.34Z"/><path d="M13.5,17.32A4.42,4.42,0,0,1,9,13a4.42,4.42,0,0,1,4.5-4.33A4.42,4.42,0,0,1,18,13,4.42,4.42,0,0,1,13.5,17.32Zm0-11A6.8,6.8,0,0,0,6.57,13a6.8,6.8,0,0,0,6.93,6.67A6.81,6.81,0,0,0,20.44,13,6.81,6.81,0,0,0,13.5,6.32Z"/><path d="M22.33,6.06a1.62,1.62,0,0,1-3.24,0,1.62,1.62,0,0,1,3.24,0Z"/></svg>