<svg id="Layer_1" data-name="Layer 1" xmlns="http://www.w3.org/2000/svg" viewBox="0 0 82 81"><defs><style>.cls-1{fill:#d4d4d4;}.cls-2{fill:#5198c2;}.cls-3{fill:#71c5f4;}.cls-4{fill:#f8f8f8;}.cls-5{fill:#e5e5e5;}.cls-6{fill:#96d5f6;}.cls-7{fill:#fff;}.cls-8{fill:#6af6ff;}.cls-9{fill:#88ccf2;}.cls-10{fill:#f12186;}.cls-11{fill:#b60361;}.cls-12{fill:#19daf4;}.cls-13{fill:#29e5ff;}</style></defs><path class="cls-1" d="M15.93,76.84c14.29-2.46,22.2-3,35-4.49,3.51-.45,6.34-.92,5.89-4.44-2.48-18-3.83-28.12-5.84-46a6.43,6.43,0,0,0-1-2.77A42.83,42.83,0,0,1,41.16,7.92c-.75-5.89-.26-5.7-3.78-5.25a211.18,211.18,0,0,0-24,3.09A6.44,6.44,0,0,0,7.81,13L3.58,25.11a6.44,6.44,0,0,0-.31,2.95L9.11,74C9.56,77.55,12.42,77.29,15.93,76.84Z"/><path class="cls-2" d="M40.05,21.62c4.65-.6,8.37-1.49,8.83,2.2l5.7,44.8c.47,3.69-3.37,3.62-8,4.22s-8.35,1.63-8.82-2.06L32.05,26C31.58,22.29,35.4,22.22,40.05,21.62Z"/><path class="cls-3" d="M37.13,74.12a112.1,112.1,0,0,0-21.2,2.72c-3.51.45-6.37.71-6.82-2.82C6.33,56.14,5,46.07,3.27,28.06a6.38,6.38,0,0,1,.31-2.94L7.81,13a6.43,6.43,0,0,1,5.55-7.2L32.44,3.31a6.41,6.41,0,0,1,7.17,5.57l-4.56,12.2a6.32,6.32,0,0,0,0,2.9c.76,16.67,2.2,26.86,5.84,46C41.35,73.47,40.64,73.67,37.13,74.12Z"/><path class="cls-4" d="M33.69,22.62,4.86,26.32c-2.55.33-1.1-2.34-.32-4.59l2.88-7.92c.41-1.18,1.18-1,2.41-1.11A150.76,150.76,0,0,1,37.17,9.19c1.28-.16,2.75-.85,1.95,1.08l-1.77,4.39-1.8,5.88C35.13,21.72,34.93,22.46,33.69,22.62Z"/><path class="cls-5" d="M8.55,6.37A231.42,231.42,0,0,1,37.64,2.64C39.39,2.42,39,3.92,39.2,5.69s1,3.11-.75,3.34A282.62,282.62,0,0,0,8.34,12.89c-.76.1-.71-1.36-.93-3.13S6.8,6.6,8.55,6.37Z"/><path class="cls-6" d="M12.23,27.36c3.52-.45,7.19-1.8,6.7,1.82C17.88,37,15.19,32.09,14.4,72.82c-3,.91-2.88-.21-3.33-3.74C8.55,54.22,7.21,45.88,6.21,30.82,5.76,27.29,8.72,27.81,12.23,27.36Z"/><path class="cls-7" d="M16.35,54.5a1.46,1.46,0,0,1,.5-.23,5.85,5.85,0,0,1,.66-.12l10.55-1.21c.88-.1,1.42.08,1.63.55a3.65,3.65,0,0,1,.22.92,3.26,3.26,0,0,1,0,.89,1.27,1.27,0,0,1-.17.53.84.84,0,0,1-.35.32,3.56,3.56,0,0,1-1,.21L22,57.09c.43.28,1.12.67,2.05,1.19s1.5.85,1.73,1l.5.29a2.43,2.43,0,0,1,.39.44,1.66,1.66,0,0,1,.31.79,1.85,1.85,0,0,1-.1.81,2,2,0,0,1-.35.55l-.19.18c-.29.29-.9.88-1.84,1.76S23.08,65.45,23,65.52l6.41-.74a4.3,4.3,0,0,1,.67,0,1.1,1.1,0,0,1,.49.11c.37.16.6.64.69,1.45s0,1.29-.35,1.53a1.66,1.66,0,0,1-.47.25c-.15,0-.38.06-.68.09L19.21,69.4l-.65.06a1.82,1.82,0,0,1-.53-.14c-.35-.15-.58-.63-.67-1.45a2.64,2.64,0,0,1,0-.9,1.2,1.2,0,0,1,.19-.53l.1-.13,5.17-5q-4.65-2.79-6.15-3.73c-.37-.18-.6-.67-.69-1.48S16,54.72,16.35,54.5Z"/><path class="cls-7" d="M21.21,52.16l-.65.06A2.07,2.07,0,0,1,20,52.1c-.35-.14-.57-.62-.67-1.45a2.07,2.07,0,0,1,.18-1.35,1.08,1.08,0,0,1,.77-.44l.55-.08L27.52,48a6.62,6.62,0,0,1,.67,0,1.42,1.42,0,0,1,.51.12c.35.13.57.61.67,1.43s0,1.32-.35,1.54a2.09,2.09,0,0,1-.47.24c-.14,0-.36.06-.66.09ZM17.33,49.4a.77.77,0,0,1,.44.46,3.74,3.74,0,0,1,.23,1,3.47,3.47,0,0,1,0,1,.88.88,0,0,1-.34.57,2.84,2.84,0,0,1-.47.23c-.15,0-.37.06-.67.09s-.5,0-.64.06a1.84,1.84,0,0,1-.52-.12c-.36-.14-.59-.62-.68-1.44s0-1.32.34-1.53a1.23,1.23,0,0,1,.5-.23,4.64,4.64,0,0,1,.64-.12,4.3,4.3,0,0,1,.67,0A1.2,1.2,0,0,1,17.33,49.4Z"/><path class="cls-7" d="M15.93,47.79c-.29,0-.5.05-.65.05a2,2,0,0,1-.53-.11c-.36-.14-.59-.62-.68-1.45s0-1.29.34-1.52a1.26,1.26,0,0,1,.5-.24,4,4,0,0,1,.66-.11l8.8-1a2,2,0,0,0,.86-.21.58.58,0,0,0,.12-.53,3.05,3.05,0,0,1,0-.54.9.9,0,0,1,.12-.35c.13-.27.57-.45,1.3-.54s1.31,0,1.51.22a4.21,4.21,0,0,1,.39,2.38,2.42,2.42,0,0,1-.75,2,6.16,6.16,0,0,1-2.9.88Z"/><path class="cls-7" d="M22.57,34.57l1.8-2.81a2.76,2.76,0,0,1,.54-.67.69.69,0,0,1,.39-.18,2.37,2.37,0,0,1,1.3.45c.58.38.89.74.93,1.07a2.34,2.34,0,0,1-.42,1.24l-.11.21c-.2.32-.57.83-1.1,1.51S25,36.6,24.77,37l1.47-.17a6.62,6.62,0,0,1,.67,0,1.42,1.42,0,0,1,.51.12c.35.13.57.61.66,1.43s0,1.32-.34,1.54a2.32,2.32,0,0,1-.47.24l-.67.09L15.21,41.47a5.29,5.29,0,0,1-.65.06,2.51,2.51,0,0,1-.53-.11c-.36-.15-.59-.63-.69-1.45a2,2,0,0,1,.18-1.35,1,1,0,0,1,.79-.44,3.33,3.33,0,0,1,.54-.08l6-.7c-.21-.21-.58-.52-1.09-.93s-.87-.74-1.09-.95l-.18-.21a2.1,2.1,0,0,1-.64-1.1c0-.32.18-.72.65-1.19a2.31,2.31,0,0,1,1.13-.78q.44,0,1.11.6Z"/><path class="cls-8" d="M50.43,29.53,56,23.12c1.09-1.67,1.23-4.06,1.47-6.05l.77-6.57L74.2,12.39,73.42,19a14.65,14.65,0,0,0,.24,6.26l3.75,7.51a12.77,12.77,0,0,1,.67,5.88C76,52.2,74.64,59.9,73.42,73.9a6.42,6.42,0,0,1-7.12,5.64L50.38,77.65a6.43,6.43,0,0,1-5.61-7.15c2-13.76,2.54-21.55,3.64-35.41A13,13,0,0,1,50.43,29.53Z"/><path class="cls-9" d="M71,12l-9.55-1.13A3.21,3.21,0,0,0,57.9,13.7c-.21,1.76-.51,2.56,1.25,2.77l1.56.8,2.66.74c2.25.27,3,1,4.61,2.66a3.2,3.2,0,0,0,5.46-1.89l.38-3.19A3.22,3.22,0,0,0,71,12Z"/><path class="cls-10" d="M58.66,7.3A91.13,91.13,0,0,1,74.57,9.19a3.22,3.22,0,0,1,2.81,3.58c-.26,2.19-1.29,2.78-3.56,2.82-5.73.08-8.3-.45-15.92-1.89-2.22-.77-3-1.81-2.8-3.58A3.38,3.38,0,0,1,58.66,7.3Z"/><path class="cls-11" d="M70.94,8.76l3.63.43a3.22,3.22,0,0,1-.75,6.4l-3.18-.38a3.21,3.21,0,0,1-2.81-3.57C68,9.87,69.18,8.55,70.94,8.76Z"/><path class="cls-12" d="M71.64,77.61a3.16,3.16,0,0,0-1.78-.89c-8.58-.38-13.4-.63-22.28-2.65a3.21,3.21,0,0,0-1.94.45,6.38,6.38,0,0,0,4.74,3.13A96.45,96.45,0,0,0,66.3,79.54,6.4,6.4,0,0,0,71.64,77.61Z"/><path class="cls-13" d="M71.56,34.77c3.52.42,6.54,3.68,6.13,7.21-1.82,9.92-3,15.46-3.52,25.52A6.41,6.41,0,1,1,61.44,66a151.73,151.73,0,0,1,3-25.58A6.42,6.42,0,0,1,71.56,34.77Z"/><path class="cls-7" d="M55.16,32.82a3.18,3.18,0,0,1,2.78,3.56c-1.18,14-2.16,21.54-4.15,34.87-.21,1.77-1.67,2-3.42,1.8s-2.09-.65-1.88-2.42c2.19-13.7,2.34-21.5,3.13-35A3.21,3.21,0,0,1,55.16,32.82Z"/></svg>