<svg id="Layer_1" data-name="Layer 1" xmlns="http://www.w3.org/2000/svg" viewBox="0 0 85 85"><defs><style>.cls-1{fill:#f0614a;fill-rule:evenodd;}.cls-2{fill:#d1e9fa;}.cls-3{fill:#a0c8e1;}.cls-4{fill:#87a5be;}.cls-5{fill:#bedcf0;}.cls-6{fill:#87aac8;}</style></defs><path class="cls-1" d="M43.19,79.16c19,1.56,37.75-13.7,35.41-35.89-1.27-12-5.85-21.91-12.57-28.46s-15.65-10-26.63-9c-11.72,1-18.61,4.36-23.14,9.72-4.74,5.59-7.68,14.3-9.39,27.87-1.52,12,2.6,20.17,9.22,25.78C23,75,33,78.33,43.19,79.16Zm-.45,5.54c21.95,1.8,44.14-15.87,41.38-42S64-2,38.9.26,4.86,15,1.35,42.69,20.79,82.91,42.74,84.7Z"/><path class="cls-2" d="M5.88,49.77,7,62.62a7.06,7.06,0,0,0,4.12,5.81L23.42,74a7.07,7.07,0,0,0,6.89-.59l11.14-7.59a7,7,0,0,0,3-6.43L43.36,46.54a7.09,7.09,0,0,0-4.13-5.81L26.94,35.16a7,7,0,0,0-6.89.6L8.92,43.35A7,7,0,0,0,5.88,49.77Z"/><path class="cls-3" d="M6.52,46.13a5.33,5.33,0,0,0-.66,3.65,49.69,49.69,0,0,0,.57,6.42A50.56,50.56,0,0,1,7,62.62a7.07,7.07,0,0,0,4.12,5.81A84.45,84.45,0,0,0,23.4,74a13.08,13.08,0,0,0,4.85.56l-2.93-18a3.54,3.54,0,0,0-2.12-2.66C16.41,51.6,7.32,44.81,6.52,46.13Z"/><path class="cls-4" d="M43.35,46.53a7,7,0,0,0-1.28-3.48L28.25,52.27c-1,.83-2.71,2.56-2.63,4.5l1.12,15.38c.24,2.7,1.12,2.91,3.58,1.23A61.67,61.67,0,0,0,41.44,65.8a7,7,0,0,0,3.05-6.43L43.92,53Z"/><path class="cls-2" d="M41.85,47.05,40.52,59.88a7,7,0,0,0,2.94,6.48l11,7.75a7.06,7.06,0,0,0,6.88.7l12.38-5.39a7.05,7.05,0,0,0,4.21-5.74l1.33-12.84a7,7,0,0,0-2.94-6.47,63.93,63.93,0,0,0-11-7.75,7,7,0,0,0-6.88-.7L46.06,41.31A7.08,7.08,0,0,0,41.85,47.05Z"/><path class="cls-3" d="M43.19,43.58A7.11,7.11,0,0,0,41.85,47a69.66,69.66,0,0,0-1.33,12.83,7,7,0,0,0,2.94,6.47,131.66,131.66,0,0,0,11,7.75c1,.71,3.68,1.77,5.27,1L59.5,57.83c.27-1.33-1.33-3.23-2.11-3.61C51,51.19,48,48.38,43.19,43.58Z"/><path class="cls-4" d="M79.29,50.85c.13-1.27-.17-3.89-1.76-3.1C71.5,52,70,53.17,62.71,54.93c-.48.12-2.91.54-3.18,2.93L57.92,74c-.26,1.86,2.33,1.28,3.46.78a46.39,46.39,0,0,0,12.37-5.38A7.11,7.11,0,0,0,78,63.68l.66-6.41Z"/><path class="cls-3" d="M69.24,68.12c-1.67-.33-2.57-1-2.1-2.58s1.29-2.22,2.58-2.09A2.35,2.35,0,0,1,71.82,66,2.08,2.08,0,0,1,69.24,68.12Z"/><path class="cls-3" d="M32.62,58.64a2.65,2.65,0,0,1-2.55-2.14c-.23-1,.56-2.1,2.14-2.54a1.94,1.94,0,0,1,2.55,2.14A2.42,2.42,0,0,1,32.62,58.64Z"/><path class="cls-5" d="M46.42,59.88c-1.29-.13-2-1-2.1-2.57s1.09-2.35,2.58-2.1,2.45.92,2.1,2.57S47.7,60,46.42,59.88Z"/><path class="cls-5" d="M11.41,59.31a2.35,2.35,0,0,1-2.55-2.14A2.15,2.15,0,0,1,11,54.63c1.29-.11,2.69.53,2.55,2.14S12.7,59.2,11.41,59.31Z"/><path class="cls-3" d="M17.43,47c-1.29.11-2.67-.53-2.55-2.14s.85-2.43,2.14-2.54,2.08.69,2.55,2.14S18.72,46.9,17.43,47Z"/><path class="cls-2" d="M23,18.49l-.42,12.88A7,7,0,0,0,26,37.62l11.55,7a7.05,7.05,0,0,0,6.92.22l12-6.23a7.06,7.06,0,0,0,3.8-6l.41-12.88a7,7,0,0,0-3.4-6.25l-11.55-7a7.05,7.05,0,0,0-6.92-.22l-12,6.23a7,7,0,0,0-3.79,6Z"/><path class="cls-3" d="M23.76,15.45a5.1,5.1,0,0,0-.75,3l-.21,6.44-.21,6.44A7,7,0,0,0,26,37.61l11.55,7a6.93,6.93,0,0,0,5,.81l-.79-18.28a4,4,0,0,0-2.38-2.65,79.53,79.53,0,0,1-14-8.75C25,15.23,24.1,14.92,23.76,15.45Z"/><path class="cls-6" d="M60.64,19.67a5.3,5.3,0,0,0-.59-3.16.84.84,0,0,0-1,0,114.06,114.06,0,0,1-16,8.25,2.23,2.23,0,0,0-1.52,2.09c-.16,1.06-.65,10.11-.6,17.49.25,1.85,2.4,1,3.49.46l12-6.23a7,7,0,0,0,3.79-6l.21-6.44Z"/><path class="cls-3" d="M49.18,32.94c-1.29,0-1.87-1.25-1.83-2.54A2.73,2.73,0,0,1,50,27.91a2.4,2.4,0,0,1,2.08,2.63A2.92,2.92,0,0,1,49.18,32.94Z"/><path class="cls-5" d="M33.71,37.52c-1.29,0-2-1.14-2.28-2.46a2.09,2.09,0,0,1,2.28-2.31A2.3,2.3,0,0,1,36,35.06,2.43,2.43,0,0,1,33.71,37.52Z"/><path class="cls-3" d="M40.77,14.93c-1.29,0-2.72-1.07-2.28-2.42a2.14,2.14,0,0,1,2.43-1.74c1.3,0,1.86.68,2.28,1.89S42.07,15,40.77,14.93Z"/><path class="cls-3" d="M66.59,47.8a1.92,1.92,0,0,1-2.1-2.57,2.37,2.37,0,0,1,2.58-2.1c1.29.13,2,.93,2.1,2.57S68.36,47.8,66.59,47.8Z"/><path class="cls-1" d="M74.49,16.58a3.47,3.47,0,0,1,1.11,4.79C68.41,32.92,58.06,40.1,47.8,47.19l-.31.21C37.21,54.5,26.86,61.65,18.2,73.17A3.47,3.47,0,1,1,12.65,69C22,56.57,33.14,48.87,43.28,41.87l.57-.39c10.4-7.19,19.53-13.64,25.86-23.79A3.47,3.47,0,0,1,74.49,16.58Z"/></svg>