<svg id="Layer_1" data-name="Layer 1" xmlns="http://www.w3.org/2000/svg" viewBox="0 0 62 65"><defs><style>.cls-1{fill:#fff;}</style></defs><path class="cls-1" d="M26.6,7.7c.21-.34.38-.7.56-1a3,3,0,0,1,5.56.56L37.8,21.28c.13.37.18.76.3,1.13a5.3,5.3,0,0,0,3.78,3.06,46,46,0,0,0,14.73,0c2.83,0,4.08,3.66,2,5.56-.16.16-.34.31-.48.48a39.66,39.66,0,0,1-10.79,9.34,2.69,2.69,0,0,0-.5.39,5.87,5.87,0,0,0-1.29,6.17,45,45,0,0,1,3.64,13.14,3.86,3.86,0,0,0,.1.49c.67,2.84-2.43,5.11-4.74,3.33-4.05-3.16-6-4.65-11.16-9-1.07-.82-5-.82-6.08,0-4.52,4.29-7.3,6-12.3,9-2.38,1.83-5.58-.62-4.67-3.57a64.93,64.93,0,0,1,4.95-16c1.34-3.63-11.54-11.2-13.9-13.33l-.37-.32c-2.12-1.89-.89-5.63,2-5.63a47.54,47.54,0,0,0,13.67-.67C20.28,24.22,24.27,11.46,26.6,7.7Z"/><path class="cls-1" d="M16.38,18.13c-.21,1,.13,2.14-1.7,2.9a10.5,10.5,0,0,1-3.69.64,11.06,11.06,0,0,1-4.55-.79c-1.34-.64-1.4-1.5-1.8-2.28a10.56,10.56,0,0,1-1.29-6.06c.09-1.45.31-3.1,1.65-3.62a10.62,10.62,0,0,1,3.57-.59A11.28,11.28,0,0,1,13,9.05c1.53.66,1.59,1.6,2.07,2.44C16.43,14,16.87,15.78,16.38,18.13Z"/><path class="cls-1" d="M57.9,54.14c-.72.33-1.26,1.07-2.57.27a8.21,8.21,0,0,1-2.09-2,8.56,8.56,0,0,1-1.6-3.19A2.7,2.7,0,0,1,52.21,47a8.13,8.13,0,0,1,2.73-3.31c1.17-.84,2.67-1.51,3.81-.62a9.1,9.1,0,0,1,1.59,1.66,8.73,8.73,0,0,1,1.57,3.06c.3,1.25-.25,1.72-.55,2.41A6.66,6.66,0,0,1,57.9,54.14Z"/><path class="cls-1" d="M47.13.72c.06-.09.11-.19.16-.28a.8.8,0,0,1,1.49.15l1.36,3.75c0,.1,0,.2.08.3a1.43,1.43,0,0,0,1,.82,12.74,12.74,0,0,0,4,0,.86.86,0,0,1,.55,1.48l-.13.13a10.49,10.49,0,0,1-2.89,2.49l-.13.1a1.54,1.54,0,0,0-.35,1.65,11.7,11.7,0,0,1,1,3.5l0,.13a.82.82,0,0,1-1.27.89c-1.08-.84-1.62-1.24-3-2.39a2.19,2.19,0,0,0-1.63,0A15.35,15.35,0,0,1,44,15.83a.82.82,0,0,1-1.25-.95,16.79,16.79,0,0,1,1.32-4.28c.36-1-3.09-3-3.72-3.55L40.29,7a.86.86,0,0,1,.53-1.5,12.78,12.78,0,0,0,3.66-.18C45.44,5.13,46.51,1.72,47.13.72Z"/></svg>