<svg id="Layer_1" data-name="Layer 1" xmlns="http://www.w3.org/2000/svg" viewBox="0 0 153 5"><defs><style>.cls-1{fill:#faefe6;}</style></defs><path class="cls-1" d="M153,.68c0-.36-.11-.43-.89-.44-.12,0-.32,0-.45,0-2,0-4,0-6,0h-5.38c-1.11,0-2.22,0-3.32,0L131.49.07a12,12,0,0,0-2.07,0C125,.21,91.58,1.09,87.19,1.33c-2.09.07-4.11.1-6.25.1s-4-1.12-6-1.16c-1.42,0-3,1.17-4.43,1.23-.65,0-1.32.14-2,.21A33.87,33.87,0,0,1,64.1,2a38.78,38.78,0,0,0-6,.33,9.12,9.12,0,0,1-1.88,0,8.83,8.83,0,0,0-2.12-.1c-1.13.11-2.37.14-3.5.31a4.49,4.49,0,0,0-1.1.3c-.43.23-.55-.08-.42.3s.56.45,1,.64A5.09,5.09,0,0,0,51.74,4c1.24,0,2.47,0,3.69,0,1.5,0,3,.09,4.53.09.71,0,1.5-.05,2.2,0a40.58,40.58,0,0,0,6,0c1.5,0,3-.21,4.52-.21,4.21,0,8.47.14,12.73.24a31.62,31.62,0,0,0,3.64,0c1.73-.26,3.42.85,5.23.91,2.46,0,9.61-2.22,12.06-2.12,1.22,0,26.94.66,28.11.67,1,0,1.94,0,2.9.06S139,4.75,139.74,4.7c1.37-.07,2.81-1.26,4.19-1.33a66.2,66.2,0,0,1,6.77.22,1.27,1.27,0,0,0,.73-.12,4.77,4.77,0,0,0,.94-.86c.27-.73.42-.95.63-1.69h-.06Z"/><path class="cls-1" d="M38.73,1.78c.33-.25.36-.3.09-.32,0,0-.12,0-.14,0-.67,0-1.4-.05-2.07-.1l-1.89-.07c-.38,0-.82,0-1.21,0l-1.73-.19A1.58,1.58,0,0,0,31.1,1c-1.69.07-14.18.24-15.92.34-.8,0-1.53,0-2.28,0a9.47,9.47,0,0,1-1.05,0c-.5,0-2.11-.14-2.67-.12a8,8,0,0,0-.88.12,9.25,9.25,0,0,1-1.8.14,9.85,9.85,0,0,0-2.4.14,1.5,1.5,0,0,1-.65,0,1,1,0,0,0-.64-.1c-.49.06-1,.07-1.51.17a3.86,3.86,0,0,0-.65.19c-.36.16-.12-.06-.42.2S0,2.4,0,2.55s.15.17.38.17c.46,0,.87,0,1.28,0s1,.1,1.5.12a4.66,4.66,0,0,1,.77,0A7.2,7.2,0,0,0,6.06,3c.57,0,1.26-.11,1.77-.08,1.44.08,2.83.21,4.23.33a4.7,4.7,0,0,0,1.26,0,22.06,22.06,0,0,1,3.73,0c.81.07,4.94-.1,5.7,0,.41,0,6.52.21,6.91.24s.66,0,1,.08.84.41,1.16.39c.55,0,.79-.44,1.34-.47a8.58,8.58,0,0,1,2.16.24.64.64,0,0,0,.37-.07c.4-.2.8-.4,1.11-.58.76-.51,1-.66,1.76-1.17h0Z"/></svg>