<svg id="Layer_1" data-name="Layer 1" xmlns="http://www.w3.org/2000/svg" viewBox="0 0 98.5 9"><defs><style>.cls-1{fill:#df633c;fill-rule:evenodd;}</style></defs><path class="cls-1" d="M.87,6.62c1.44.21,2.57.39,3.32.51L5,7.28l.21,0h0c2.59.48,5.36-.47,6.17-2.11.61-1.84-1.62-3.59-4.59-4.08S-2.29,2.11.87,6.62Z"/><path class="cls-1" d="M98.49,7C98.6,8.86,97,9.16,94,8.94h0l-.69-.27c-.5-.18-2.41-2.22-3.35-2.55-1.89-.64-4.19,1.81-7.46.9-6.57-1.81-15.8,1.08-23.81-.9C50.05,5.7,41.76,4.89,35,6.63c-3.35.86-6.14-.63-8.09,0-1,.33-1.74.61-2.25.81-.26.09-.45.17-.57.22l-.14,0h0A3.27,3.27,0,0,1,19.6,6c-.51-1.95.92-4,2.93-4.77.57-.22,4.77-.6,5.81-1,2.09-.72,6.51,1.87,10.06,1C45.48-.65,46.52.55,56.1,1S76.23-1.2,83,.68c3.43.94,8.54.13,10.53.81l2.32.83C98,3.1,98.36,4.66,98.49,7Z"/></svg>