<svg id="Layer_1" data-name="Layer 1" xmlns="http://www.w3.org/2000/svg" viewBox="0 0 389 411"><defs><style>.cls-1{fill:#faefe6;}</style></defs><path class="cls-1" d="M258,329.26c1.59.19,2.57.09,2.81.76.95,1.94,1.68,4,2.47,5.45.28,2.19-3.14,1.63-.44,4.21,0,0,1.24-1.21,2.16-.78,0,2,1,.66,1.05,2.93,1.22.57.45-2.71,1.67-2.14a8.32,8.32,0,0,1,2.36-.19c1.29,0,1.8-6.12,2-4.92.64,1.8,4.45-4.31,5.1-2.51.24.67-1.2,2.1-1,2.78l2.13,1c.41,1.12,4.46-8.44,5.1-6.65-.28.61-.63,1.75-1.06,2.67,1.17,1.86,3.44-1,5.08,1.46,2,5.61-4-.6-1.78,5.46-.43.92,3.31.33,2.88,1.24.49,1.35-2.79,1.26-2.38,2.39,1,.65,2.52.1,3.43.53-1.63,3.89,2-2.32,5.93-.46,2.27-.45-1-3.83-1.29-7.56.29-.61,3.23,1.52,3.66.61-.08-.22,1.41-1.27,1.71-3.82.09-5.37-3.06-7.26-5.77-8.31-.69-.51-1.61-.94-2.6-1.59.28-.62.26-1.37.71-1.53a15.3,15.3,0,0,1,3.14-1.13,2,2,0,0,0,1.38-1.77c-.48-1.35-1-2.7-1.53-4.27-1.32-1.55-3.44,1-4.84-.79.14-.3.21-.83.43-.91,1.93-.95,3.95-1.68,5.88-2.63,1.14.35,2.05.78,3.19,1.13a6.41,6.41,0,0,1,2.09-.51,21.82,21.82,0,0,0,3,1.21c1.55-1.32-1-3.45.78-4.85l.92.43a3.61,3.61,0,0,0,1.66.42,1.6,1.6,0,0,0,.33-1.9,1.52,1.52,0,0,1,0-2c.36-.38.89-.32,1.81.11,1,.66,2,.56,3.68-.31.41-1.68,1-3.65,1.45-5.1l7.16-2.58c1.06.12,1.53.71,1.24,1.32l-1.57,3.36c-.67.24-1.71.87-2.61,1.2-1.12.4,1.18-.94.92.43.91.43.32.9,1.23,1.32.33.9-.11,1.57,1.55,2a30.5,30.5,0,0,1,1.81-3.19c1.22.58,2.47-3.68,3.69-3.11.48,1.35,2.95,2.71,3.52,4.28,2.4-6.45,1.49-8.12,1.14-7,.53-1.71,2.51-3.19,4,.85-.43.92,1-.55,1.42-2.8.49,1.35.66-4.94,1.14-3.6,3.48.78-1,7.32,1.83,5.07-.69-.51,2.23.71,1.24.06-.41-1.12,3.28-1,2.8-2.37-1-.66,1.39-2.95.18-3.53-.73-2,3.31.07,2.58-1.95.43-.91-1.33-1.59-.9-2.51-1.21-3.36,4.46,3.26,3.25-.11.34-1.14-1.87-2.37-1.3-3.59-1.77-4.94-3.39-.29-5.09-5,.19-1.59,1.47-1.54,2.51-2.17a21.15,21.15,0,0,0,3,1.21c.31.14.67-.24,1.12-.41l-1.13-3.14a21.83,21.83,0,0,1-2.82-1.51,15.24,15.24,0,0,0,1.06-2.67,20.79,20.79,0,0,0-2.82-1.52c-.75-2.77-.83-3,1.86-4,1.83.87,3.88,1.65,5.7,2.51.31.14.68-.25.9-.33l-1.13-3.14a37.68,37.68,0,0,0,1.86-4,10.84,10.84,0,0,0,2.65-2.48l-1.83-.86c-.61-.29-.55-.82-.12-1.73a7.05,7.05,0,0,0,.55-2c-.4-1.12-.66-2.55.23-2.87s1.46,1.25,2,2.06c.16.45,1.38,1,1.52.72a1.58,1.58,0,0,0,.33-1.89c-.5-2.1-.27-2.18,1.66-3.14.22-.08.59-.46.81-.54.57-1.23,1.29-2.75,1.86-4,.14-.31-.24-.68-.32-.9a1.59,1.59,0,0,1-2,0c-.69-.51-.19-1.2,1.75-2.15l-.45.16a1.49,1.49,0,0,1-.12-1.73c.29-.61.74-.78,1.51,0,.08.22-.07.53,0,.75a2.62,2.62,0,0,1-.88,1.08,3.52,3.52,0,0,0,.28,2.18,13.33,13.33,0,0,0,2.91-1c.45-.16.79-1.3.63-1.75a37.79,37.79,0,0,0-1.78-4.94,1.59,1.59,0,0,1-2,0c-.69-.51-.18-1.21,1.31-2-.41-1.12-.73-2-1.13-3.14.57-1.22,1.36-2.52,2.08-4.05l5.59-2a7.93,7.93,0,0,0,2.07-4.81c-1.91-1.08-3.44,1-5,.81a24.09,24.09,0,0,1-1.66,3.13l-2,.73c-2.22-1.23-4.57-2.16-6.78-3.38.28-.61.49-1.45.93-1.61,3.28-1.44,6.64-2.65,10-3.87.23-.08.29-.61.43-.91a21.4,21.4,0,0,1-2.82-1.52c-.3-.14-.24-.67-.32-.9a1.59,1.59,0,0,1-2,0c-.69-.51-.19-1.2,1.3-2-.24-.67-.48-1.34-.73-2L362,205.17c-.22.08-.52-.07-.83-.21s-.61-.29-.46-.59.2-.84.42-.92c2-1.48,2.83-1.27,4,.58a1.5,1.5,0,0,0,1.55-1.32c.26-1.36-1-2.69.35-3.93l1.79-.65a17,17,0,0,0,2.88,1c1.1-1.16.25-2.12-.23-3.47-1.22-.57-2.66-1.06-4.49-1.92-1.06-.13-2.44,1.64-4.41,1.08-.31-.14-.61-.28-.69-.51a1.06,1.06,0,0,1,.43-.91,7.42,7.42,0,0,1,2.15-1,39.55,39.55,0,0,1,1.94-3.74c0-2.26-1.23-4.12-1.73-6.22.1-1.82,1.12-3.2,1.7-4.42,1.18-.93,2-1.48,2.95-2.34-2.13-1-4-2.09-5.87-2.95.86-1.83,1.57-3.36,2.29-4.88a1.08,1.08,0,0,0-1.16-1.11c-.3-.14-.67.25-1.12.41a1.49,1.49,0,0,1-2,0c-.47-.59.19-1.59,1.53-2.07l3.13-1.14a6.36,6.36,0,0,0,1.94-1c.57-1.22,1.28-2.75,1.86-4-1.85-1.61-3.38.46-5.11.58-.61-.29-1.36-.27-2-.56-2.35-.92-4.57-2.15-7-3.3-.92-.43-1.22-.57-1.24-1.33a1.59,1.59,0,0,1,1.55-1.32l.89-.32a5.77,5.77,0,0,0,5.06.71l2.13,1a7.15,7.15,0,0,0,4.7-1.7c.15-.3.74-.77.66-1l-1.86-5.17-2,.73a1.49,1.49,0,0,1-2,0c-.38-.37-.1-1,.33-1.9l.43-.91c-1.26-2.09-3.29.68-4.61-.87a20.62,20.62,0,0,0,1.2-3l-3.31-9.21a1.59,1.59,0,0,1-2,0,3,3,0,0,1-1-2.69,1.5,1.5,0,0,1,1.55-1.33c-.08-.22,0-.75-.33-.89a42.54,42.54,0,0,0-4.26-2c-.3-.15-.67.24-.9.32.33.9.73,2,1.05,2.92-.85,1.83-.85,1.83-2.05,2-1.35.49-1.73.12-2.44-1.15a2.81,2.81,0,0,1,.23-2.87l2.91-1.05c-.16-.45-.55-.82-.4-1.13a21.32,21.32,0,0,0,1.2-3l-4-1.86a22.59,22.59,0,0,1-1.51,2.83c-1.44-.5-2.37-1.68-1.66-3.21a7.52,7.52,0,0,0,.58-4c-.32-.9.55-2,1.75-2.16a2,2,0,0,0,1.39-1.77c-.65-1.79-1.37-3.81-2.1-5.83a1.05,1.05,0,0,0-1.67-.41c-.22.08-.28.61-.43.91l1.46,4C344,111,344,111,339.83,112c-1.06-.12-1.3-.8-.49-1.34.59-.47,1.34-.49,1.85-1.18.37-.39,1-1.39.94-1.61a1.59,1.59,0,0,0-1.89-.33c-2.62.44-2.62.44-3.27-1.35-.32-.9-.72-2-1.05-2.92.29-.61.43-.92.57-1.22.93-2.37.68-3-1.31-4.35-.69-.51-1.22-.57-1.23-1.33.2-.83.87-1.07,1.54-1.32,1.35-.48,1.63-1.09,1.37-2.52a2.25,2.25,0,0,0-2.23-2c-.75,0-1.34.48-2.09.5-.23.08-.61-.29-1.14-.35l-1.54-4.26a9.31,9.31,0,0,1,1.29-2.75c-1.32-1.55-3.52.76-4.84-.79l-.72-2c.24-2.12,3.27-1.44,3.22-3.7l-7-3.3L318.67,75a1.25,1.25,0,0,1-.11,1.82c.63,1,0,1.28-.49,1.44a1.6,1.6,0,0,1-1.89-.33c-.08-.22.27-1.37.72-1.53a14,14,0,0,1,2.91-1c-.17-.45-.55-.82-.41-1.12a21.3,21.3,0,0,1,1.21-3C319.8,69,319.07,67,318.35,65c-.31-.14-1-.65-.92-.43-.28.61-.88,1.08-.71,1.53a15.2,15.2,0,0,0,1.13,3.14,1.61,1.61,0,0,1-.33,1.9c-1.65.34-3.12,1.88-5.17,1.1-.05-2.26,1.41-3.81,2.19-5.86a20.79,20.79,0,0,1-2.82-1.52c-.32-.9-.73-2-1.13-3.14l-2.91,1a1.25,1.25,0,0,1-.83-.2c-.31-.15-.61-.29-.47-.6s.2-.83.43-.91c2-1.48,2.83-1.28,4,.58,1-.1,1.57-.57,1.55-1.32-.12-1.73-.54-3.61.93-5.15-.33-.9-.73-2-1.05-2.92-.25-.68-.49-1.35-1.32-1.55a2.55,2.55,0,0,0-2.77.74c-.94,1.61-1.57,3.36-2.51,5-.61-.29-1.36-.27-1.52-.72a23.44,23.44,0,0,1-1.38-3.82c.35-1.14,1.53-2.07.9-3.11-.93-1.19-2,0-2.92.3-.43.91-1.08,1.91-1.51,2.83l-4-1.87a4.24,4.24,0,0,1,1.16-1.69,15,15,0,0,1,3.13-1.13c.45-.16.66-1,1.16-1.69l-4-1.87a6.41,6.41,0,0,1-2.09.51,21.3,21.3,0,0,0-3-1.21c-.22.08-.67.24-1.77,1.4-.59.47-.61-.29-.24-.67.73-.78,1.34-.49,1.22.57a2.33,2.33,0,0,1-.8,1.3s-.83-.2-.18-1.2c.57-1.22.19-1.59.33-1.9l1.29-2.74c-.91-.43-1.91-1.09-2.52-1.38a22.65,22.65,0,0,1,1-2.89c-2.13-1-3.51.77-5.47,1a37.39,37.39,0,0,1-3.73-2c0-1.51,2-3,.25-4.91l-2.74-1.29a22,22,0,0,0,1.21-3c-.33-.89-.36-2.4-1.87-2.37-1,.1-1,1.39-1.67,2.38-2.17.28-1.58-3-3.69-3.23l-2.46.89c-.64,1.75-1.19,3.73-1.91,5.26a8.2,8.2,0,0,1-2.54.66,16.08,16.08,0,0,0-2.88-1c-.72,1.52-1.29,2.74-1.86,4-.15.3.24.67.32.89a1.24,1.24,0,0,1,1.81.11c.39.37.63,1,1.09,1.63a1.6,1.6,0,0,1-.33,1.9c-.22.08-1.36-.27-1.52-.72A13.23,13.23,0,0,1,261,32.7a1.73,1.73,0,0,1-2.5-.62,11.52,11.52,0,0,1-1-2.69l-2.91,1.05a1.27,1.27,0,0,1-.83-.2c-.3-.15-.61-.29-.47-.6s.21-.83.43-.91c2-1.48,2.83-1.28,4,.58.44-.16,1-.1,1.12-.4a39.61,39.61,0,0,0,1.85-4c-.6-.29-1.07-.88-1.52-.72A16,16,0,0,0,256,25.35a1.6,1.6,0,0,1-1.89-.33c.43-.92.78-2.06,1.21-3-1.91-1.09-4.28.78-6-1.14-.43.92-1.08,1.91-1.51,2.83l-4,1.46c-.91-.44-2.05-.78-3-1.22l-9.4,3.4c-.67.25-1.65.34-1.89-.33-.08-.22.27-1.36.71-1.53.82-.54,2-.72,2.28-2.09a41.91,41.91,0,0,0-4.1-1.56,8.31,8.31,0,0,1-1.45,2.3c-2.25.06-1.58-3-3.69-3.23l-4.25,1.54c-1.3-.8-1.3-.8-.24-3.47l-3.65-1.72c-2.79,0-4.7,1.7-6.88,2L207,22c-2.46.89-5.06,2.08-7.83,2.83-1.12.4-2-.56-2.15-1.76-.08-.23-.24-.68-.55-.82l-2.13-1a7.69,7.69,0,0,1-1.09-1.64c-.49-1.34-.53-2.85-2.5-3.41l-2,.73c-1.08,1.91-1.41,3.81-3.1,5.43-1.36-.27-1.32-1.55-1.95-2.59-1.22-.57-2.66-1.07-4.18-1.78l-3.8,1.37c-1.14-.35-2.06-.78-3.19-1.13A20.87,20.87,0,0,1,171,21.08l-3.13,1.13c.32.9.73,2,1.05,2.92a1.27,1.27,0,0,1-.2.83c-.15.31-.29.62-.59.47s-.84-.2-.92-.43c-1.48-2-1.27-2.84.58-4-.24-.68-.48-1.35-.73-2a1.49,1.49,0,0,0-1.31-1.55c-.53-.07-.82.54-1.25,1.46-.14.3-.28.61-.43.92a6.1,6.1,0,0,1-3.88-1.65,14.18,14.18,0,0,1-2.63-3.1,17.25,17.25,0,0,1-1.51,2.83,17.09,17.09,0,0,0-2.89-1c-.85,1.83-1.57,3.36-2.43,5.19-1.2.18-1.74-.64-2.07-1.53a2.14,2.14,0,0,0-1.54-1.47,6.66,6.66,0,0,1-2.09.5c-.86,1.83-1.94,3.74-2.8,5.58-1.36-.27-1.54-1.48-2.09-2.29a2.12,2.12,0,0,0-1.83-.86,52.54,52.54,0,0,0-5.82,2.1c-1.71,3.66-1.71,3.66-4.74,3-.55-.81-.36-2.4-1.64-2.45-1,.1-.86,1.83-1.75,2.16a13,13,0,0,1-7,2.28c-1.3-.8-1.42-2.53-1.9-3.88A1.6,1.6,0,0,0,114,25c-.23.08-.58,1.22-.64,1.75,0,.75.26,1.42.28,2.18.08.22-.29.61-.43.91l-3.13,1.14a1.73,1.73,0,0,1-.62,2.5,20.75,20.75,0,0,0-3.56,2.05c-.59.47-.61-.29-.24-.67.73-.77,1.34-.49,1.22.57a2.39,2.39,0,0,1-.8,1.3s-.83-.2-.18-1.2a20.89,20.89,0,0,0-1.61-7.28l-3.36,1.21c-.63,1.75-1.18,3.73-1.53,4.87a21.89,21.89,0,0,0-3.26,2.19c-.59.47-.57,1.22.06,2.27L96,38.3a1.46,1.46,0,0,1,1.73-.12c.61.29.77.73,0,1.51-.22.08-.53-.07-.75,0A2.62,2.62,0,0,1,96,38.83a2.67,2.67,0,0,1-2.19-.48c-1.08-.88-1-2.69-2.78-2.8L87,37c-.43.91-1.08,1.91-1.51,2.83l-2,.72c-1,1.39,0,2.8.47,4.14.41,1.13.43,1.88-.31,2.65-.3-.14-.83-.2-.91-.43A26,26,0,0,1,81,43c-.32-.89-1.6-.94-2.72-.53A2.18,2.18,0,0,0,76.83,44c.92.43,1.61.94,2.52,1.37A6.45,6.45,0,0,1,78.41,47a48.72,48.72,0,0,1-5.59,2l-4.27-2-1.13-3.14c-1.65.34-2.26.06-2.58-.84-.71-1.27-1-2.69-1.9-3.88-.47-.59-1.22-.57-2,0,.88,2.46,1.69,4.71,2.58,7.18a1.05,1.05,0,0,1-1,1.38,1.08,1.08,0,0,1-.91-.43l-.73-2c-.61-.29-1.52-.72-2-.56-1.57.57-3.6.54-4.38,2.6a20.87,20.87,0,0,1,2.83,1.52l.72,2c1.24,1.32,2.79,0,3.93.35a1.51,1.51,0,0,1,1.31,1.56l2.91-1.06c.23-.08.53.07.84.21s.6.29.46.59-.2.84-.43.92c-2,1.48-2.83,1.27-4-.58-.45.16-1,.1-1.12.4a36.75,36.75,0,0,0-1.86,4c.24.67.26,1.43.5,2.1a20.87,20.87,0,0,1,2.83,1.52c-.41,1.67-1.53,2.07-3.12,1.88-.75,0-1.3-.79-2.05-.78-.83-.2-2.4.36-2.6,1.2a1.85,1.85,0,0,0,.2,2,2.47,2.47,0,0,0,.46.59A14,14,0,0,1,59,67.42c1.08.88.44,2.63-1,3.42a1.61,1.61,0,0,1,0,2c-.51.69-1.2.18-2-1.31L52.78,72.7a4.34,4.34,0,0,0-.56,2c.27,1.42,1.2,2.61,1.07,3.67-.71,1.53-1.2,3-1.77,4.19l-3.14,1.14a1.61,1.61,0,0,0,1.32,1.55c1.36.27,2.61-1.2,4,.58l.57,1.57a7.7,7.7,0,0,1-1.16,1.69c-1.94,1-4,1.68-5.88,2.63-.23.08-.29.61-.43.92a22.51,22.51,0,0,1,2.82,1.51c.3.15.24.68.32.9a1.23,1.23,0,0,1,1.81.11c.39.37.63,1,1.1,1.63a1.61,1.61,0,0,1-.33,1.9c-.23.08-1.37-.27-1.53-.72A14.33,14.33,0,0,1,49.94,95l-2,.73a1.61,1.61,0,0,0-1.55,1.32c-.06.53.32.9,1.16,1.1s1.21.58,1.15,1.11a1.5,1.5,0,0,1-1.55,1.32l-2,.73c.34,1.65.06,2.26-.84,2.58-1.26.71-2.68,1-3.87,1.91-.59.46-.57,1.22,0,2l3.36-1.22c.61.29,1.6.95,2.51,1.38.31.14.68-.25,1.35-.49l-.45.16a1.46,1.46,0,0,1-.12-1.73c.29-.61.73-.77,1.51,0,.08.23-.07.53,0,.76a2.48,2.48,0,0,1-.87,1.07,8.1,8.1,0,0,0,.68,3.31c-.71,1.52-1,3.42-2.82,4.82-1.2.18-2.54.67-3.74.85-.75,0-1.22-.58-1.32-1.56l-3.13,1.14c-.57,1.22-1.06,2.66-1.78,4.19a13.78,13.78,0,0,0,2.57,6.43c.47.59,1.22.57,2,0-.4-1.12-.72-2-1.13-3.14a37.68,37.68,0,0,0,1.86-4c1.81.11,2,1.31,2.11,3-1.41,1-.74,3.57-2.84,4.07l1.13,3.14c-.14.31-.2.84-.42.92-.6.47-1.27.71-1.86,1.18-.28.61-.87,1.07-1.16,1.69-.94,1.6-1.57,3.35-2.29,4.88.18,1.2,1.38,1,2.15,1.76.43,1.88,2.94,3.25,1,5.48-.92-.42-1.75-.63-2.66-1.06-.29.61-.66,1-.58,1.22l3,8.3c-.25,2.12-3.19,1.66-3.22,3.7a9.13,9.13,0,0,1,2.6,1.6c-.71,1.53-1.29,2.75-1.86,4l-2,.73c-.68,3-.68,3,2.75,4.84a9.15,9.15,0,0,0-1,2.89c.77.73,1.75.63,2.86.23.45-.16,1.37.27,2,.56-.58,1.22-1.29,2.74-1.86,4a11.66,11.66,0,0,0-2.38,1.12c-.35,1.14-.84,2.58-1.62,4.64-.08-.22.53.06,1.28,0,1-.1,1.85-1.18,3-.08a7.61,7.61,0,0,1-1.49,3.58,14.47,14.47,0,0,1-3.1,2.65c2,1.31,4.1,1.56,5.64,3-.26,1.36-1.54,1.32-2.36,1.87a1.08,1.08,0,0,0-.43.91c-.06.53.41,1.13,1.38,1a25.83,25.83,0,0,0,4-1.46c2.28.7,2,2.82,2.67,4.61.17.45-.34,1.14-.71,1.53a4.79,4.79,0,0,0-2-.78,5.66,5.66,0,0,0-2,.2c-.23.08-.68.24-.82.55-.33,1.89-2.42,2.39-3.44,3.78a6.11,6.11,0,0,0-1.5,3.58c1.08.88,2.12.25,3-.07.43-.92,1.09-1.92,1.51-2.83,2.73.54,1.46,4,3.37,5.12,2.21,1.23,4-2.21,6.16-.45-.86,1.83-1.64,3.89-2.5,5.72.25.68.49,1.35.73,2,0,2-3.36,1.22-3.22,3.7l4,1.87c.31.14.67-.24,1.57-.57l-.45.16a1.48,1.48,0,0,1-.12-1.73c.29-.61.74-.77,1.51,0,.08.23-.07.53,0,.76a2.55,2.55,0,0,1-.87,1.08c-.43.91,0,1.5.79,1.49,1.28,0,2.48-.14,4-.18-.57,1.23-.77,2.06-1.35,3.28a20.8,20.8,0,0,0,1.3,3.59,2.11,2.11,0,0,0,3,.68l-.44.16a1.46,1.46,0,0,1-.12-1.73c.28-.61.73-.77,1.5,0,.08.22-.06.53,0,.75a2.54,2.54,0,0,1-.88,1.08c-.28.61.1,1,0,1.28-.78,2.06-1.86,4-2.49,5.72,1.19,2.61,1.19,2.61,2.92,2.5l1.12-.41a2.63,2.63,0,0,1,2.33,3c-.21.84-.57,1.23-.92,2.37a57.33,57.33,0,0,0,3.07,8.52c1.07.88,1.52.72,1.65-.34,0-.75-.26-1.43-.2-2a4.33,4.33,0,0,1,.55-2l7,3.3a1.79,1.79,0,0,1-1.92,1.71c-1.22,2.21-2,3.52-2.59,4.74,2,1.31,4.49-.87,6.28,1.28a9,9,0,0,1,2.32-.59,36.21,36.21,0,0,0,3.88,1.65c.48,1.34.48,1.34-1.31,2l-2,.73,3,8.3,3.13-1.13c.22-.08.61.29.91.43l.24.67c-.63,1.75-1.57,3.36-2.28,4.89a4.33,4.33,0,0,0,2,.55,2.49,2.49,0,0,0,1.71-.87c.94-1.61,1.57-3.36,2.29-4.88a6.26,6.26,0,0,1,1.6.94,3.36,3.36,0,0,1,.5,2.1c0,.75-.79,1.3-.77,2.06a2.52,2.52,0,0,0,1,2.69l2.14,1a21.15,21.15,0,0,0-1,2.89c.25.68.49,1.35.65,1.8,1.24,1.33,2.56.09,3.92.36a1.49,1.49,0,0,1,1.32,1.55l2-.73c1.56-.56,2.48-.13,3,1.44.24.67.49,1.34.73,2l3.13-1.14c.23-.08.61.29.91.44.09.22.25.67.25.67-.64,1.75-1.57,3.36-2.29,4.88.85,1,1.75.64,2.87.23.67-.24,1.36.27,1.89.34a21.3,21.3,0,0,0-1.21,3c1.91,1.09,4.1,1.56,5.64,3a6.53,6.53,0,0,1,.28,2.18c0,.76-.57,1.22-1.54,1.32a13.23,13.23,0,0,0,1,2.92c.46.59,1.3.8,1.66.41a8.21,8.21,0,0,1,.86-1.83c1.16-1.69,3.05-1.36,4,.58a1.51,1.51,0,0,1,2,0c.3.14.46.59.54.82.41,1.12.73,2,1.21,3.36,2.46,1.9,5.79,2.73,8.7,4.47l1,2.92,5.15-1.86,4,1.86c.36,2.41-3.27,1.44-2.91,3.85,1.13.35,2.35.92,4.1,1.56l5.37-2c2.11.25,3.27,1.36,4.94,1.77-1.15,2.44-3.34,2-5,3.07,0,.75-.11,1.81-.09,2.56a10.44,10.44,0,0,0,5,2.52c1.12-.4,2.32-.58,2.36-1.86,0-.76-.49-1.35-.51-2.11-.09-1,.5-1.44,1-1.38l.92.43a17.57,17.57,0,0,0,2.74,1.29c.57,1.57,1.05,2.92,1.54,4.27L160.27,339c.51,2.1.12,4.52,2.92,5.28l1.79-.64a21.82,21.82,0,0,1,3,1.21,1.75,1.75,0,0,0,.24-2.12c-.5-2.1,0-2.79,1.66-3.14.67-.24,1.36.27,1.89.34l.72,2c-.42.91-.77,2-1.2,3,.56,1.57,1.05,2.92,1.53,4.26l4,1.87c.43-.92,1.09-1.91,1.51-2.83l2-.73c1.06.13,1.52.72,1,1.41-.71,1.53-1.57,3.36-2.29,4.89.92.43,1.91,1.08,2.83,1.51.4,1.12,1,2.16.15,3.24-1.83-.86-3.88-1.64-5.71-2.5-.14.31-.51.69-.42.92.74,2.77,1.71,5.46,2.68,8.16.24.67,1.08.88,2.72.53l.67-.24c2.67,1.07,3.53-3.56,7.15,3,.41,1.12,3.06-1.61,2.57-3-.91-.43-1.51-3.43-2.63-3.93-1.4-1.77,1.81-1.6.86-3.54-.57-1.57.67-3.77-.35-5.18-.91-.43,3.33-2.74,2.72-3-.08-.22,4.13-1.63,4-1.85-3.39-9.43,5.76,2.47,2.29-7.18.21-.84,7.52,4,8.09,2.8q-1-2.7-2.18-6.06a36.75,36.75,0,0,1,1.86-4c1.87-.42,3.05,1.44,4.55,1.4l1.62,4.49a13.63,13.63,0,0,1,3-.08,24.08,24.08,0,0,1,1.65-3.13l4.25-1.54c1.22.58,2.52,1.38,4,2.09a14.65,14.65,0,0,1-1.06,2.67c2.66,1.07,2.88,1,4.46-2.37,1.64-.34,3.2,1.88,4.89.26,1.83.86,3.88,1.64,5.79,2.72l2.24-.81c-.1-1,0-2-.07-3a22.93,22.93,0,0,0-3.13-1.66l1.29-2.75c.42-.92.57-1.22,1.32-1.24.83.21,1.08.88,1.32,1.55.34,1.65.87,1.72,2.44,1.15a2,2,0,0,1,2,0,.88.88,0,0,1,.46.59c-.57,1.22-1.59,2.6-.49,4.24a26,26,0,0,0,7.31,3.44c.59-.46,1.26-.71,1.85-1.17s.57-1.23,0-2a1.22,1.22,0,0,1-1.8-.11c-.39-.37-.63-1-1.1-1.63a1.61,1.61,0,0,1,.33-1.9c.22-.08,1.36.27,1.52.72a13.23,13.23,0,0,1,1,2.92,1.23,1.23,0,0,1,1.81.1c.85,1,1.48,2,2.41,3.19,2.21-2.32-.92-4-.37-5.95l1.29-2.75c-1.6-.94-1.93-1.84-3.33-3.62-.46-.59.29-.61.68-.24.77.74.48,1.35-.58,1.22a2.36,2.36,0,0,1-1.3-.8C256.67,329.22,257,328.61,258,329.26ZM272.14,31.45l-6.05,2.18c-.22.09-.61-.28-.91-.43-.39-.36-.32-.89.18-1.59l6.05-2.18c.22-.08.61.29.91.43C272.93,30.15,272.64,30.76,272.14,31.45Zm85.18,200.77c.86-1.83,2.12-2.54,4.25-1.54.18,1.2,1.64,2.45-.29,3.41A36.78,36.78,0,0,0,357.32,232.22ZM322.24,79.28c2.05.78,2.53,2.13,1.53,4.27C321.64,82.54,321.15,81.19,322.24,79.28Zm7.6,15.51c-.3-.14-.83-.2-.91-.43-.24-.67-.48-1.34-.73-2-.08-.22.29-.61.43-.91a.45.45,0,0,1,.67-.25c1.28,0,2.09,2.29,1.22,3.37C330.37,94.86,330.07,94.71,329.84,94.79ZM67,245.62c-.78,2-2.12,2.54-4.25,1.53C63.73,245,65.07,244.53,67,245.62ZM343.3,271.27l-.32-.9.43-.91c.37-.39.89-.33,1.58.19.31.14.25.67.33.89a1.61,1.61,0,0,1,0,2C344.7,273.05,343.79,272.62,343.3,271.27ZM160,24.82c-.37.39-.9.32-1.59-.19l.43-.91q.56-.59,1.59.18C160.63,23.82,160.35,24.43,160,24.82ZM64.93,65q.58.55-.18,1.59l-.92-.43c-.38-.37-.32-.9.19-1.59ZM188.46,23.15l.43-.92c.37-.39.9-.32,1.59.19l-.43.91Q189.5,23.92,188.46,23.15Zm60.24,7.13q-.55.59-1.59-.18l.43-.92c.37-.39.9-.32,1.59.19ZM339.9,115l.92.43c.38.37.32.9-.19,1.59l-.92-.43C339.19,116.53,339.25,116,339.9,115ZM54.76,220.1q-.55.59-1.59-.18s.29-.61.43-.92c.37-.38.9-.32,1.59.19C55.27,219.41,54.9,219.8,54.76,220.1Zm306.39-70.68-.92-.43c.21-.84.57-1.22,1.1-1.16l.92.43C362,149.1,361.67,149.48,361.15,149.42Zm.68,27.9-.91-.43c.21-.83.57-1.22,1.1-1.15l.91.43C362.73,177,362.36,177.39,361.83,177.32Zm1.36,21.33.91.43c-.2.83-.57,1.22-1.1,1.16l-.91-.43C362.29,199,362.66,198.59,363.19,198.65ZM127.91,305.26c.38.37.32.9-.19,1.59l-.91-.43q-.59-.56.18-1.59Zm231.83-81.78c.36-.38.89-.32,1.58.19,0,0-.28.61-.43.92-.36.38-.89.32-1.58-.19C359.31,224.4,359.59,223.79,359.74,223.48Z"/><path class="cls-1" d="M255.27,348.5c.57-1.23.63-1.76.33-1.9l-4-1.86c-.37.38-.88,1.07-.8,1.3A56.82,56.82,0,0,0,253,352.1c2.44,1.14,3.91-.4,5.84-1.35.94-1.61-.44-2.63-.7-4.06a6.83,6.83,0,0,0-2.89,1.81c-.59.46-.61-.29-.25-.68.74-.77,1.35-.48,1.22.58a2.41,2.41,0,0,1-.79,1.3C255.22,349.78,254.61,349.49,255.27,348.5Z"/><path class="cls-1" d="M168.17,351.07,165,352.2c-.91-.43-2-.78-3-1.21a3.33,3.33,0,0,0-.48,2.2c.44,2.63.44,2.63-1.35,3.27l-2.9,1.06-.58,1.22c.08.22.47.59.69.51,2.56.09,4.64-1.17,7-2.28.33-1.9,2-2.77,3.45-3.79A1.42,1.42,0,0,0,168.17,351.07Z"/><path class="cls-1" d="M38.42,49c-1.54-1.47-3.44,1-4.84-.79l-.72-2a1.09,1.09,0,0,0-.92-.43c-.53-.06-1.12.41-1,1.38a28.14,28.14,0,0,0,1.54,4.27c-.51.69-.94,1.61-1.59,2.6,2,1.31,3.45-.23,5.1-.57C37.38,52.4,37.48,50.59,38.42,49Z"/><path class="cls-1" d="M58.69,40.64l-.9.32c-2.68,1-2.68,1-4-1.33a2.17,2.17,0,0,0-3.33-.83,6.16,6.16,0,0,0-.94,1.61l1,2.92c1.48-.79,2.58.84,4.53.64a12.84,12.84,0,0,0,2.91-1A1.37,1.37,0,0,0,58.69,40.64Z"/><path class="cls-1" d="M184.21,369.62a1.18,1.18,0,0,0-1.36-.27,4.42,4.42,0,0,1-4.15-.28.73.73,0,0,0-.52-.06c-.8,1.3-1.37,2.52-2.17,3.82,1.53.72,2.74,1.3,4.27,2a9,9,0,0,1,2.32-.58A19.23,19.23,0,0,1,184.21,369.62Z"/><path class="cls-1" d="M377.29,202.68c-.18-1.2-1.1-1.63-2.3-1.45a20.68,20.68,0,0,0-3.58,1.29,17.25,17.25,0,0,1-1.51,2.83L367,206.4c.24.68.49,1.35.73,2l5.15-1.86c.43-.91,1.08-1.91,1.51-2.83Z"/><path class="cls-1" d="M103.43,307.51l4,1.87,2-.73c.43-.91.7-2.28,1.51-2.83s1.26-.71.49-1.44c-.3-.15-.69-.51-.91-.43a15.47,15.47,0,0,0-6.94,2.5A1.83,1.83,0,0,1,103.43,307.51Z"/><path class="cls-1" d="M34.58,64.32a16.07,16.07,0,0,1-2.66-1.07c-.91-.43-1.22-.58-1.58-.19a1.51,1.51,0,0,0,0,2c.08.22.25.67.41,1.12a15.41,15.41,0,0,0,2.66,1.07c.32.9.56,1.57.81,2.24.08.23.6.29.91.43a1.05,1.05,0,0,0,1.1-1.16Z"/><path class="cls-1" d="M133.36,319l-3.13,1.13c-.91-.43-2-.78-3-1.21-1.12.41-2.32.59-2.51,2.18l3.66,1.72a6.64,6.64,0,0,0,4.92-1.78A1.5,1.5,0,0,0,133.36,319Z"/><path class="cls-1" d="M374,239.13,368.82,241c-.75,2.81-.75,2.81,1.46,4,.43-.92.94-1.61,1.37-2.53.61.29.83.21,1.21.58.69.51,1.3.79,1.89.33a1.5,1.5,0,0,0,0-2A7.81,7.81,0,0,1,374,239.13Z"/><path class="cls-1" d="M317.86,57.28l-2.91,1a2.26,2.26,0,0,0-.24,2.87c.71,1.27,1.1,1.64,2.44,1.15.9-.32.9-.32,2.06-2A16.41,16.41,0,0,1,317.86,57.28Z"/><path class="cls-1" d="M16.19,169.88c-2.58-.84-2.58-.84-4.25,1.54l.72,2c2.58.84,2.58.84,4.26-1.54C16.67,171.23,16.43,170.55,16.19,169.88Z"/><path class="cls-1" d="M343.43,74.92c-1.28,0-2.34-.17-3.09-.15-1.77,1.4-1.88,3.21-3,4.9,1.28,0,2.34.17,3.09.15C341.94,78.5,342,76.69,343.43,74.92Z"/><path class="cls-1" d="M342.45,102.41l1.86-4c-.91-.43-2.28-.7-2.6-1.6-.55-.81-.71-1.26-1.44-.49-.14.31-.51.69-.43.92a9.75,9.75,0,0,0,1.78,4.93A3.63,3.63,0,0,1,342.45,102.41Z"/><path class="cls-1" d="M8.54,223.12l-4,1.45c-.45.16-.35,1.14-.49,1.45l4,1.86A34.48,34.48,0,0,0,9.62,224C9.76,223.69,9.38,223.32,8.54,223.12Z"/><path class="cls-1" d="M370.92,167.45c-1.32,1.23-1.43,3.05-2.53,4.21,1.46,1.24,2.42.39,3.32.07a21.92,21.92,0,0,1,1.51-2.83c.94-1.61.86-1.83-.42-1.88A4.63,4.63,0,0,0,370.92,167.45Z"/><path class="cls-1" d="M374.34,168.49c.32.9.72,2,1.05,2.92a2.24,2.24,0,0,0,2.86.23c1.27-.71,1.63-1.09,1.15-2.44-.33-.9-.33-.9-2-2.06A17.34,17.34,0,0,1,374.34,168.49Z"/><path class="cls-1" d="M154.08,335.11l-2,.73a21.82,21.82,0,0,0-3-1.21c-.53,2.73-.53,2.73,1.68,3.95l4-1.45c.22-.08.29-.61.43-.92C155.52,335.6,155.06,335,154.08,335.11Z"/><path class="cls-1" d="M218.51,341.24l2.18,6.06c.08.22.61.29.91.43.53.06.9-.32,1-1.38l-2.19-6.06c-.08-.23-.61-.29-.91-.43C219,339.79,218.71,340.4,218.51,341.24Z"/><path class="cls-1" d="M314.11,335.6c.94-1.61.75-2.81-.63-3.84a17.18,17.18,0,0,0-3.73-1.94c-.94,1.6-.76,2.81.62,3.83A18,18,0,0,0,314.11,335.6Z"/><path class="cls-1" d="M217.81,3.87c1.91,1.09,3.26.6,4.26-1.53-.92-.43-2.06-.78-3-1.21s-1.22-.58-1.58-.19a1.5,1.5,0,0,0,0,2C217.8,3.12,217.73,3.65,217.81,3.87Z"/><path class="cls-1" d="M74.66,32.33a13.51,13.51,0,0,0,2.91-1.06c.45-.16.43-.91.72-1.52L74.63,28c-.28.61-.87,1.07-.71,1.52A5.88,5.88,0,0,0,74.66,32.33Z"/><path class="cls-1" d="M68.07,33.69c-1.9-1.08-3.25-.6-4.25,1.54.92.43,2.05.78,3,1.21s1.21.58,1.58.19a1.51,1.51,0,0,0,0-2Z"/><path class="cls-1" d="M103.78,28.9a13,13,0,0,0,2.91-1c.45-.16.43-.92.71-1.53l-3.65-1.72c-.29.61-.88,1.08-.71,1.53A5.84,5.84,0,0,0,103.78,28.9Z"/><path class="cls-1" d="M149.85,17.07l1.86-4c-1-1.94-2.19-.48-3.39-.3C147.32,14.94,148,16.21,149.85,17.07Z"/><path class="cls-1" d="M250.87,14.54c-2.5-.62-2.5-.62-4,1.45.63,1,.3,2.94,2.39,2.43A39.39,39.39,0,0,1,250.87,14.54Z"/><path class="cls-1" d="M41,108.15a1.65,1.65,0,0,0-1.53,2.08,34.37,34.37,0,0,0,1.7,4.71,1.64,1.64,0,0,0,1.53-2.07Z"/><path class="cls-1" d="M307.14,47.2l-1.77-4.94c-.16-.45-.92-.43-1.53-.71,0,0-.51.69-.42.91a8.92,8.92,0,0,0,1.92,4.63C305.8,47.69,306.47,47.44,307.14,47.2Z"/><path class="cls-1" d="M21.87,201.81c-1.08,1.92-.38,3.18,1.53,4.27.43-.92.78-2.06,1.21-3,.51-.69.57-1.22.19-1.58a1.49,1.49,0,0,0-2,0C22.62,201.79,22.32,201.65,21.87,201.81Z"/><path class="cls-1" d="M341.08,95.8a13,13,0,0,0,2.91-1c.45-.16.43-.92.72-1.53l-3.66-1.72c-.28.61-.87,1.08-.71,1.53A5.84,5.84,0,0,0,341.08,95.8Z"/><path class="cls-1" d="M353,105.7c-.57,1.22-1.28,2.75-1.86,4,.95,1.94,2.2.47,3.4.29A3.1,3.1,0,0,0,353,105.7Z"/><path class="cls-1" d="M51.43,234.75c-.63-1-.36-2.41-1.64-2.45s-1,1.38-1.53,2.08l-.43.91c-.14.31-.28.61-.43.92Q50.15,237.5,51.43,234.75Z"/><path class="cls-1" d="M371.75,188.71c-.83-3-.44-5.43-3.1-6.5-1,1.39-.08,2.57.18,4C369.23,187.33,369.78,188.15,371.75,188.71Z"/><path class="cls-1" d="M388.45,191.54c.62-2.5.62-2.5-1.45-4-1,.63-2.93.3-2.43,2.4C385.79,190.48,387.23,191,388.45,191.54Z"/><path class="cls-1" d="M378.86,226.71c1.91,1.09,3.17.38,4.25-1.53-.91-.43-2.05-.78-3-1.21-.69-.51-1.21-.58-1.58-.19a1.5,1.5,0,0,0,0,2Z"/><path class="cls-1" d="M366.73,232.37c.22-.08.59-.47.9-.33l2.74,1.3a5.72,5.72,0,0,0,.71-1.53,13.66,13.66,0,0,0-1.05-2.92l-4.25,1.54A6,6,0,0,1,366.73,232.37Z"/><path class="cls-1" d="M370.83,236.72c1.07.88,2.72.54,3.14,2.41.23-.08.75,0,.9-.32a2.64,2.64,0,0,0-.32-3.69c-.47-.59-2-.55-2.78,0A6.16,6.16,0,0,0,370.83,236.72Z"/><path class="cls-1" d="M367.8,254.3c-1.91-1.09-3.25-.6-4.25,1.54.91.43,2.05.78,3,1.21s1.22.57,1.59.19a1.5,1.5,0,0,0,0-2C367.82,255.05,367.88,254.52,367.8,254.3Z"/><path class="cls-1" d="M355.11,264.72a1.58,1.58,0,0,0,1.32,1.55,8.91,8.91,0,0,0,4.78-1.47c.22-.08.43-.92.43-.92-.39-.36-1.08-.88-1.53-.71A19.16,19.16,0,0,0,355.11,264.72Z"/><path class="cls-1" d="M366,276c1.91,1.09,3.25.6,4.25-1.54-.91-.43-2.05-.78-3-1.21s-1.22-.57-1.59-.18a1.5,1.5,0,0,0,0,2C366,275.25,365.84,275.55,366,276Z"/><path class="cls-1" d="M164.63,347.53a1.58,1.58,0,0,0,1.31,1.55c.92.43,2.2.48,2.23,2,1.49-.8,1.78-1.4,1.45-2.3-.34-1.66-1.33-2.31-2.9-1.74A6.66,6.66,0,0,0,164.63,347.53Z"/><path class="cls-1" d="M312.72,312.76c-1.09,1.92-.6,3.26,1.53,4.27.43-.92.78-2.06,1.21-3s.57-1.23.18-1.59a1.48,1.48,0,0,0-2,0C313.47,312.75,312.94,312.68,312.72,312.76Z"/><path class="cls-1" d="M230.1,347.45,233,346.4c1.23-2.22.92-2.37-.92-4C230.35,345.33,230.13,345.41,230.1,347.45Z"/><path class="cls-1" d="M226.8,350.92c.79,1.49,1.4,1.78,2.3,1.46,1.87-.43,2.3-1.34,1.73-2.91-.24-.68-.48-1.35-.73-2-1.42.26-1.55,1.32-2,2.23C227.92,350.52,227.55,350.9,226.8,350.92Z"/><path class="cls-1" d="M203.35,355.72c1.55-1.32,1.55-1.32,2.59-4.74-2.42-.39-2.64-.31-3.64,1.83C202.62,353.7,203,354.6,203.35,355.72Z"/><path class="cls-1" d="M206.41,357.91c-1.07-.88-2.72-.53-3.14-2.41-.23.08-.75,0-.9.32a2.65,2.65,0,0,0,.32,3.69c.47.6,2,.56,2.79,0C206.07,359.05,206.13,358.52,206.41,357.91Z"/><path class="cls-1" d="M216.13,370.45c-.14.31-.29.62-.43.92-.06.53.32.9,1.38,1l4-1.45c.14-.31.29-.61.43-.92.06-.53-.33-.9-1.38-1Z"/><path class="cls-1" d="M224.37,393.35c-.51.69-.8,1.3-.19,1.59l.92.43,4-1.46q.76-1,.18-1.59l-.91-.43Z"/><path class="cls-1" d="M130.3,14.75c1.08-1.91.6-3.26-1.53-4.26C127.68,12.4,128.25,14,130.3,14.75Z"/><path class="cls-1" d="M58.69,40.64l2-.73a15.29,15.29,0,0,0-1.13-3.14C59,36,58.27,36,58,36.58c-.14.31-.51.69-.42.92C58,38.62,58.28,39.52,58.69,40.64Z"/><path class="cls-1" d="M67.21,44.66a13.51,13.51,0,0,0,2.91-1.06c.45-.16.8-1.3.72-1.52A1.58,1.58,0,0,0,69,41.75a5.68,5.68,0,0,0-1.63,1.09C66.65,43.09,66.67,43.84,67.21,44.66Z"/><path class="cls-1" d="M45.05,73.72a1.6,1.6,0,0,0,1.32,1.55c.83.21,1.18-.93.7-2.28-.09-.22-.25-.67-.33-.9l-.91-.43c-.53-.06-.9.33-1.1,1.16C44.58,73.13,45,73.5,45.05,73.72Z"/><path class="cls-1" d="M47.29,79.25c.86,1,3.09.15,3.36-1.21a.46.46,0,0,0-.24-.68c-.85-1-3.09-.15-3.36,1.22Z"/><path class="cls-1" d="M238.74,20.19c1.34-.49,2-1.48,1.31-2a1.5,1.5,0,0,0-2,0l-.89.32c-.51.69-.8,1.3-.19,1.59.31.14.69.51.92.43Z"/><path class="cls-1" d="M34.34,109.3c-1.91-1.09-3.25-.6-4.25,1.53C32.22,111.84,33.56,111.35,34.34,109.3Z"/><path class="cls-1" d="M287.8,25.79a1.6,1.6,0,0,0-1.55,1.32c-.12,1.06,1,1.41,2.36.92l.89-.32.43-.92c.06-.53-.32-.9-1.15-1.1A1.4,1.4,0,0,0,287.8,25.79Z"/><path class="cls-1" d="M302.37,27.62a13.23,13.23,0,0,0-1.05-2.92c-.16-.45-1.3-.8-1.52-.71a1.6,1.6,0,0,0-.33,1.89,5.68,5.68,0,0,0,1.09,1.63A1.22,1.22,0,0,0,302.37,27.62Z"/><path class="cls-1" d="M316.46,25.32c-.95.85-.14,3.09,1.22,3.36a.44.44,0,0,0,.67-.24c1-.85.15-3.1-1.21-3.37Z"/><path class="cls-1" d="M297.08,38.92c.49,1.34,1.48,2,2,1.31a1.51,1.51,0,0,0,0-2c-.09-.22-.25-.67-.33-.9-.69-.51-1.3-.8-1.58-.19-.15.31-.51.7-.43.92Z"/><path class="cls-1" d="M313.16,37.92c1.35-.48,2-1.48,1.31-2a1.5,1.5,0,0,0-2,0l-.9.33c-.51.69-.8,1.3-.19,1.59.31.14.69.51.92.43Z"/><path class="cls-1" d="M317.86,57.28a14.15,14.15,0,0,0,2.9-1.05c.45-.17.8-1.31.72-1.53a1.6,1.6,0,0,0-1.89-.33A5.68,5.68,0,0,0,318,55.46,1.24,1.24,0,0,0,317.86,57.28Z"/><path class="cls-1" d="M345.24,65.89l.67-.24c.88-1.08-.16-3.24-1.21-3.36l-.67.24c-.15.3-.51.69-.43.91l.72,2C344.4,65.69,344.93,65.75,345.24,65.89Z"/><path class="cls-1" d="M7.14,196.74c-1.91-1.09-3.25-.6-4.25,1.53C4.94,199.05,6.28,198.57,7.14,196.74Z"/><path class="cls-1" d="M27.07,238.74c1.91,1.08,3.25.6,4.25-1.54C29.19,236.2,27.85,236.68,27.07,238.74Z"/><path class="cls-1" d="M358.61,131.82a1.57,1.57,0,0,0,1.54-1.32,3,3,0,0,0-1-2.69,1.49,1.49,0,0,0-2,0C357.64,129.13,358.12,130.48,358.61,131.82Z"/><path class="cls-1" d="M46.49,251.25l.68-.25c.87-1.07-.16-3.24-1.22-3.36l-.67.24c-.14.3-.51.69-.43.91.25.68.49,1.35.73,2C45.66,251,46.19,251.1,46.49,251.25Z"/><path class="cls-1" d="M383.94,182.52c-1.91-1.08-3.25-.6-4.25,1.54C381.82,185.06,383.16,184.58,383.94,182.52Z"/><path class="cls-1" d="M101.8,290.35a13,13,0,0,0-2.91,1c-.45.16-.8,1.3-.71,1.53a1.59,1.59,0,0,0,1.89.33,5.47,5.47,0,0,0,1.62-1.1C102.28,291.7,102.35,291.17,101.8,290.35Z"/><path class="cls-1" d="M377.29,202.68a13.23,13.23,0,0,0,1,2.92c.16.45,1.3.8,1.52.72a1.61,1.61,0,0,0,.33-1.9,5.68,5.68,0,0,0-1.09-1.63A1.23,1.23,0,0,0,377.29,202.68Z"/><path class="cls-1" d="M120.58,316.53c1.86-1.18,2.06-2,.58-4-.08-.23-.61-.29-.91-.43-.22.08-.37.38-.59.46a1.25,1.25,0,0,0-.21.84C119.86,314.51,120.26,315.63,120.58,316.53Z"/><path class="cls-1" d="M118.57,317.26a13.23,13.23,0,0,0-1-2.92c-.16-.45-1.3-.8-1.52-.72a1.6,1.6,0,0,0-.33,1.9,5.48,5.48,0,0,0,1.09,1.63A1.23,1.23,0,0,0,118.57,317.26Z"/><path class="cls-1" d="M370.17,228.59c1.86-1.18,2.06-2,.58-4-.08-.22-.61-.28-.91-.43-.23.08-.37.39-.59.47a1.3,1.3,0,0,0-.21.84C369.53,226.79,369.85,227.69,370.17,228.59Z"/><path class="cls-1" d="M106.84,333.16c1.09-1.91.6-3.26-1.53-4.26C104.31,331,104.79,332.38,106.84,333.16Z"/><path class="cls-1" d="M381,238.89a13.48,13.48,0,0,0,2.91-1c.45-.16.8-1.3.72-1.53a1.6,1.6,0,0,0-1.89-.33,5.68,5.68,0,0,0-1.63,1.09C380.26,237.62,380.5,238.3,381,238.89Z"/><path class="cls-1" d="M129.94,339c-1.08,1.91-.59,3.25,1.54,4.26C132.48,341.14,132,339.8,129.94,339Z"/><path class="cls-1" d="M156.69,343.05l.67-.25c.88-1.08-.16-3.24-1.21-3.37l-.67.25c-.15.3-.52.69-.43.91l.72,2C155.85,342.84,156.38,342.9,156.69,343.05Z"/><path class="cls-1" d="M164.63,347.53c-1.18-1.86-2-2.06-4-.58-.22.08-.28.61-.43.91.08.23.39.37.47.6a1.27,1.27,0,0,0,.83.2A15.91,15.91,0,0,0,164.63,347.53Z"/><path class="cls-1" d="M152,354.63c-1.09,1.91-.6,3.26,1.53,4.26C154.32,356.84,153.83,355.49,152,354.63Z"/><path class="cls-1" d="M236.37,345.18a1.58,1.58,0,0,0,1.32,1.55c.83.21,1.18-.93.69-2.28l-.32-.89-.91-.43c-.53-.07-.9.32-1.1,1.16Z"/><path class="cls-1" d="M193.21,372.15a1.59,1.59,0,0,0-1.55,1.32c-.2.83.94,1.18,2.28.7l.9-.33.42-.91c.07-.53-.32-.9-1.15-1.11C193.8,371.68,193.44,372.07,193.21,372.15Z"/><path class="cls-1" d="M198,359.93a13,13,0,0,0-2.91,1.05c-.45.16-.8,1.3-.72,1.53a1.6,1.6,0,0,0,1.89.33,5.72,5.72,0,0,0,1.63-1.1A1.24,1.24,0,0,0,198,359.93Z"/><path class="cls-1" d="M224.85,370.09c-1,.86-.15,3.1,1.21,3.37a.45.45,0,0,0,.67-.24c1-.86.15-3.1-1.21-3.37C225.22,369.71,225.07,370,224.85,370.09Z"/><path class="cls-1" d="M200.31,382c1.91,1.08,3.25.6,4.25-1.54C202.43,379.47,201.09,380,200.31,382Z"/><path class="cls-1" d="M218.84,401.18c1.91,1.08,3.26.6,4.26-1.54C221,398.64,219.62,399.12,218.84,401.18Z"/><path class="cls-1" d="M62.8,274.77c-1.9-1.09-3.25-.6-4.25,1.54C60.46,277.39,61.8,276.91,62.8,274.77Z"/><path class="cls-1" d="M292.83,358c1.08-1.92.6-3.26-1.53-4.27C290.52,355.79,291,357.14,292.83,358Z"/><path class="cls-1" d="M263.79,373.57c1.34-.49,2-1.48,1.3-2a1.48,1.48,0,0,0-2,0l-.89.32c-.51.69-.8,1.3-.19,1.59.3.15.69.51.91.43C263,374.12,263.34,373.73,263.79,373.57Z"/><path class="cls-1" d="M137.37,3.26c-.07.53.32.9,1.15,1.11l.43-.92c.06-.53-.32-.9-1.16-1.1Z"/><path class="cls-1" d="M72.26,23.56c.53.06.9-.33,1.1-1.16L72.45,22c-.53-.07-.89.32-1.1,1.16Z"/><path class="cls-1" d="M64.2,29.26c-.79-1.49-1.09-1.63-2.74-1.29C62,29.54,62.25,29.46,64.2,29.26Z"/><path class="cls-1" d="M64.52,30.16c.08.22.39.37.92.43a.88.88,0,0,0,.75,0c.51-.69.57-1.22,0-1.51s-1.22-.57-1.73.12C64,29.34,64.22,30,64.52,30.16Z"/><path class="cls-1" d="M104.72,18.16c.69.51,1.22.58,1.59.19l.42-.91c-.69-.52-1.21-.58-1.58-.19C104.7,17.41,104.86,17.86,104.72,18.16Z"/><path class="cls-1" d="M35.87,46.1c.52.06.89-.33,1.1-1.16l-.92-.43c-.53-.06-.89.32-1.1,1.16Z"/><path class="cls-1" d="M73.13,34.4s.69.51.92.43a2.37,2.37,0,0,0,.79-1.3c.13-1.06-.48-1.35-1.22-.57A5.47,5.47,0,0,0,73.13,34.4Z"/><path class="cls-1" d="M91.64,31c.22-.08.37-.39.43-.92a.88.88,0,0,0,0-.75c-.69-.51-1.22-.58-1.5,0s-.58,1.23.11,1.74C90.74,31.33,91.19,31.17,91.64,31Z"/><path class="cls-1" d="M49.12,46.38c1.48-.79,1.63-1.1,1.29-2.75C48.92,44.42,48.78,44.73,49.12,46.38Z"/><path class="cls-1" d="M45.12,45.8s-.51.69-.43.91c.38.37.85,1,1.3.8,1,.13,1.34-.48.57-1.22C46.4,45.84,45.64,45.86,45.12,45.8Z"/><path class="cls-1" d="M25.46,54.43l.43-.92c-.69-.51-1.22-.57-1.59-.19-.14.31-.43.92-.43.92C24.64,55,25.09,54.81,25.46,54.43Z"/><path class="cls-1" d="M171,5.2l.91.43c.51-.69.57-1.22.19-1.59l-.92-.43Q170.43,4.64,171,5.2Z"/><path class="cls-1" d="M125.92,20.14c.06-.53-.32-.9-1.16-1.11l-.43.92c-.06.53.33.9,1.16,1.1C125.71,21,125.78,20.44,125.92,20.14Z"/><path class="cls-1" d="M89.22,33.41s.69.51.91.43a2.45,2.45,0,0,0,.8-1.31c.12-1.05-.49-1.34-1.22-.57C89.48,32,89.28,32.88,89.22,33.41Z"/><path class="cls-1" d="M78.25,37.37c.06-.53-.32-.9-1.16-1.1,0,0-.28.61-.43.91-.06.53.33.9,1.16,1.11C78,38.21,78.11,37.68,78.25,37.37Z"/><path class="cls-1" d="M47.1,47.11c.79,1.49,1.4,1.77,2,1.31a1.5,1.5,0,0,0,0-2Z"/><path class="cls-1" d="M43.11,50.07c.07-.53-.32-.9-1.15-1.1l-.43.91c-.06.53.32.9,1.15,1.11Z"/><path class="cls-1" d="M82.27,38.71c.53.06.9-.33,1.1-1.16l-.91-.43c-.53-.07-.9.32-1.1,1.16Z"/><path class="cls-1" d="M155.51,14.51c.53.07.89-.32,1.1-1.15l-.91-.44c-.53-.06-.9.33-1.1,1.16C154.68,14.31,155.2,14.37,155.51,14.51Z"/><path class="cls-1" d="M136.4,21.17l.92.43c.51-.69.57-1.22.19-1.59l-.92-.43A1.07,1.07,0,0,0,136.4,21.17Z"/><path class="cls-1" d="M119.84,27.15l.92.43q.76-1,.18-1.59l-.91-.43A1.07,1.07,0,0,0,119.84,27.15Z"/><path class="cls-1" d="M107.58,30.32s-.51.69-.43.91c.39.37.85,1,1.3.8,1.06.13,1.34-.48.57-1.22A2.32,2.32,0,0,0,107.58,30.32Z"/><path class="cls-1" d="M182.12,6.92c.06-.52-.33-.89-1.16-1.1l-.43.92c-.06.53.32.89,1.16,1.1C181.91,7.76,182,7.23,182.12,6.92Z"/><path class="cls-1" d="M160.69,17l.91.43c.51-.69.57-1.22.19-1.58l-.92-.44Q160.11,16.41,160.69,17Z"/><path class="cls-1" d="M48.12,57.65c.06-.53-.33-.9-1.16-1.11,0,0-.29.61-.43.92-.06.53.32.9,1.16,1.1C47.69,58.56,48,58,48.12,57.65Z"/><path class="cls-1" d="M42.65,58.61l-.43.92c.69.51,1.22.57,1.58.18l.43-.91C43.54,58.29,43,58.22,42.65,58.61Z"/><path class="cls-1" d="M53.67,56.91l-.43.91c.69.52,1.22.58,1.58.19.15-.3.43-.91.43-.91C54.56,56.59,54,56.52,53.67,56.91Z"/><path class="cls-1" d="M195.57,9.16l.91.43c.51-.69.57-1.22.19-1.59l-.91-.43C195.24,8.27,195.18,8.8,195.57,9.16Z"/><path class="cls-1" d="M50.37,60.38l-.43.92c.69.51,1.22.58,1.58.19l.43-.92C51.26,60.06,50.73,60,50.37,60.38Z"/><path class="cls-1" d="M41.48,69.43l.92.43q.76-1,.18-1.59l-.91-.43C41.16,68.53,41.1,69.06,41.48,69.43Z"/><path class="cls-1" d="M246.37.43,245.46,0c-.51.69-.57,1.22-.19,1.59l.91.43A1,1,0,0,0,246.37.43Z"/><path class="cls-1" d="M48.86,69.55c.53.06.9-.32,1.1-1.16L49.05,68c-.53-.06-.9.33-1.1,1.16Z"/><path class="cls-1" d="M257.82.61c-.53-.07-.9.32-1.1,1.15l.91.43c.53.07.89-.32,1.1-1.15Z"/><path class="cls-1" d="M58.09,71.29c-.79-1.49-1.4-1.78-2-1.31a1.51,1.51,0,0,0,0,2Z"/><path class="cls-1" d="M202.41,21.15c.53.06.9-.33,1.1-1.16l-.91-.43c-.53-.07-.9.32-1.1,1.16Z"/><path class="cls-1" d="M46.78,82.73s-.51.69-.43.92c.39.37.85,1,1.3.8,1.06.12,1.34-.49.57-1.22C48.06,82.78,47.31,82.8,46.78,82.73Z"/><path class="cls-1" d="M275.45,10.11l.43-.92c-.69-.51-1.21-.57-1.58-.18l-.43.91C274.56,10.43,275.09,10.5,275.45,10.11Z"/><path class="cls-1" d="M255.8,10l-.91-.43c-.51.69-.58,1.22-.19,1.59l.91.43A1.07,1.07,0,0,0,255.8,10Z"/><path class="cls-1" d="M231,18.94l-.92-.43q-.76,1-.18,1.59l.91.43A1.07,1.07,0,0,0,231,18.94Z"/><path class="cls-1" d="M289.51,1.31c-.06.53.33.9,1.16,1.11l.43-.92c.06-.53-.33-.9-1.16-1.1C289.86.17,289.65,1,289.51,1.31Z"/><path class="cls-1" d="M36.09,98q-.77,1-.18,1.59l.91.43c.51-.69.57-1.22.19-1.59Z"/><path class="cls-1" d="M285.76,10.29q-.76,1-.18,1.59l.91.43c.51-.69.57-1.22.19-1.59S286.07,10.43,285.76,10.29Z"/><path class="cls-1" d="M271.52,15.69c-.53-.06-.89.33-1.1,1.16l.91.43c.53.07.9-.32,1.1-1.16Z"/><path class="cls-1" d="M307.63,13.86c.06-.52-.33-.89-1.16-1.1,0,0-.28.61-.43.92-.06.53.33.89,1.16,1.1C307.2,14.78,307.48,14.17,307.63,13.86Z"/><path class="cls-1" d="M291.43,11.29l-.91-.44c-.51.7-.57,1.23-.19,1.59l.91.43C291.76,12.18,291.82,11.65,291.43,11.29Z"/><path class="cls-1" d="M260.85,22.59c.69.51,1.22.58,1.59.19l.43-.91c-.69-.52-1.22-.58-1.59-.19C261.14,22,261,22.29,260.85,22.59Z"/><path class="cls-1" d="M43.75,100.31s-.51.69-.43.92c.39.37.85,1,1.3.8,1.06.12,1.34-.49.57-1.22A2.39,2.39,0,0,0,43.75,100.31Z"/><path class="cls-1" d="M292.36,21.6l.43-.92c-.69-.51-1.22-.57-1.58-.18l-.43.91C291.47,21.92,292,22,292.36,21.6Z"/><path class="cls-1" d="M292.84,25.74l.92.43q.76-1,.18-1.59l-.91-.43A1,1,0,0,0,292.84,25.74Z"/><path class="cls-1" d="M302.7,28.52c.08.22.38.37.91.43a.88.88,0,0,0,.75,0c.51-.69.57-1.22,0-1.51s-1.21-.57-1.72.12A1.35,1.35,0,0,0,302.7,28.52Z"/><path class="cls-1" d="M3.8,137.58l.43-.91c-.69-.52-1.22-.58-1.59-.19l-.42.91C2.91,137.91,3.43,138,3.8,137.58Z"/><path class="cls-1" d="M329.76,31.72l.43-.92c-.69-.51-1.22-.57-1.58-.18-.15.3-.43.91-.43.91C328.87,32,329.39,32.11,329.76,31.72Z"/><path class="cls-1" d="M7.74,141.49c-.53-.07-.9.32-1.1,1.15l.91.43c.53.07.89-.32,1.1-1.15A1.83,1.83,0,0,1,7.74,141.49Z"/><path class="cls-1" d="M307.64,36.62c.06-.53-.33-.89-1.16-1.1,0,0-.29.61-.43.92-.06.53.33.89,1.16,1.1C307.21,37.54,307.49,36.93,307.64,36.62Z"/><path class="cls-1" d="M16.56,123.84c.69.51,1.22.57,1.58.19.15-.31.43-.92.43-.92-.69-.51-1.22-.57-1.58-.19C16.84,123.23,16.7,123.54,16.56,123.84Z"/><path class="cls-1" d="M.28,150.27l.91.43c.51-.69.57-1.22.19-1.59l-.92-.43A1.06,1.06,0,0,0,.28,150.27Z"/><path class="cls-1" d="M30.1,141.77l.91.43c.51-.69.57-1.22.19-1.59l-.92-.43C29.77,140.88,29.71,141.4,30.1,141.77Z"/><path class="cls-1" d="M307.47,48.1c.08.22.38.37.91.43a.88.88,0,0,0,.75,0c.51-.69.58-1.22,0-1.51s-1.22-.57-1.73.12C307.14,47.2,307.31,47.65,307.47,48.1Z"/><path class="cls-1" d="M326.17,55.79c.06-.53-.32-.89-1.15-1.1,0,0-.29.61-.43.92-.07.52.32.89,1.15,1.1C326,56.63,326,56.1,326.17,55.79Z"/><path class="cls-1" d="M341.38,53.08l.43-.91c-.69-.51-1.21-.58-1.58-.19l-.43.92A1.05,1.05,0,0,0,341.38,53.08Z"/><path class="cls-1" d="M340.12,56.59c-.53-.07-.9.32-1.1,1.15l.91.44c.53.06.9-.33,1.1-1.16C341.25,56.94,340.42,56.73,340.12,56.59Z"/><path class="cls-1" d="M21.12,174.44c-.15.3-.43.91-.43.91.69.52,1.22.58,1.58.19.15-.3.43-.91.43-.91C22,174.12,21.48,174.05,21.12,174.44Z"/><path class="cls-1" d="M24.59,177.75c-.15.31-.43.92-.43.92.69.51,1.22.57,1.58.18.15-.3.43-.91.43-.91C25.48,177.43,25,177.36,24.59,177.75Z"/><path class="cls-1" d="M325.81,71.65c-.06.53.32.9,1.16,1.1,0,0,.28-.61.43-.91.06-.53-.33-.9-1.16-1.11C326,70.81,326,71.34,325.81,71.65Z"/><path class="cls-1" d="M23.51,195.13c-.06.53.32.9,1.16,1.11l.42-.92c.07-.53-.32-.9-1.15-1.1C23.63,194.07,23.65,194.83,23.51,195.13Z"/><path class="cls-1" d="M350.25,88.94c.69.51,1.21.57,1.58.19.15-.31.43-.92.43-.92-.69-.51-1.22-.57-1.58-.19Z"/><path class="cls-1" d="M348.14,95l.91.43c.51-.69.58-1.22.19-1.59l-.91-.43A1,1,0,0,0,348.14,95Z"/><path class="cls-1" d="M356.59,98.82l.91.43c.51-.69.57-1.22.19-1.59l-.92-.43Q356,98.27,356.59,98.82Z"/><path class="cls-1" d="M365.84,104.86l.92.43q.76-1,.18-1.59l-.91-.43C365.52,104,365.46,104.49,365.84,104.86Z"/><path class="cls-1" d="M33.93,224.08c-.06.53.33.9,1.16,1.11,0,0,.28-.61.43-.92.06-.53-.33-.9-1.16-1.1C34.14,223.25,34.08,223.78,33.93,224.08Z"/><path class="cls-1" d="M29.25,226.54c.06-.53-.32-.9-1.15-1.11,0,0-.29.61-.43.92-.07.53.32.9,1.15,1.1C29.05,227.37,29.11,226.84,29.25,226.54Z"/><path class="cls-1" d="M360.44,111.63c.06-.53-.32-.9-1.16-1.1l-.42.91c-.07.53.32.9,1.15,1.11C360,112.55,360.3,111.94,360.44,111.63Z"/><path class="cls-1" d="M19.64,233.56c-.53-.06-.89.32-1.1,1.16l.91.43c.53.06.9-.32,1.1-1.16Z"/><path class="cls-1" d="M356.49,116.11c.22-.09.36-.39.43-.92a.91.91,0,0,0,0-.76c-.69-.51-1.22-.57-1.51,0s-.57,1.22.12,1.73C355.67,116.65,356.34,116.41,356.49,116.11Z"/><path class="cls-1" d="M371.23,117.22q-.76,1-.18,1.59l.91.43c.51-.69.57-1.22.19-1.59C372.07,117.43,371.76,117.29,371.23,117.22Z"/><path class="cls-1" d="M354.06,118.5s.69.51.92.43a2.37,2.37,0,0,0,.79-1.3c.13-1.06-.48-1.35-1.22-.57C354.33,117.14,354.35,117.89,354.06,118.5Z"/><path class="cls-1" d="M371,143.82c.22-.08.37-.38.43-.91a.91.91,0,0,0,0-.76c-.69-.51-1.22-.57-1.51,0s-.57,1.22.12,1.73A1.4,1.4,0,0,0,371,143.82Z"/><path class="cls-1" d="M370.85,146.17c-.24-.68-.48-1.35-.73-2-1.48.79-1.63,1.09-1.28,2.74Z"/><path class="cls-1" d="M371.17,147.06c.09.23.39.37.92.43a.85.85,0,0,0,.75,0c.51-.7.57-1.22,0-1.51s-1.22-.58-1.73.12A1.44,1.44,0,0,0,371.17,147.06Z"/><path class="cls-1" d="M375.05,133.14c.53.06.89-.33,1.1-1.16l-.92-.43c-.52-.06-.89.32-1.09,1.16C374.22,132.93,374.74,133,375.05,133.14Z"/><path class="cls-1" d="M70.58,263.34c.06-.53-.33-.9-1.16-1.11,0,0-.29.61-.43.92-.06.53.32.9,1.16,1.1C70.37,264.17,70.43,263.64,70.58,263.34Z"/><path class="cls-1" d="M74,265.14l2-.73c-.79-1.49-1.4-1.77-2-1.31A1.6,1.6,0,0,0,74,265.14Z"/><path class="cls-1" d="M72.7,267.13s.69.52.92.44c.36-.39.95-.86.79-1.31.13-1.06-.48-1.34-1.22-.57A2.43,2.43,0,0,0,72.7,267.13Z"/><path class="cls-1" d="M74.24,271.4l.91.43c.51-.69.57-1.22.19-1.59l-.92-.43Q73.66,270.85,74.24,271.4Z"/><path class="cls-1" d="M379.78,163.23l.91.43c.51-.69.57-1.22.19-1.59l-.92-.43Q379.2,162.68,379.78,163.23Z"/><path class="cls-1" d="M77.71,274.71s.69.51.91.43c.37-.39,1-.85.8-1.3.12-1.06-.49-1.35-1.22-.58A2.37,2.37,0,0,0,77.71,274.71Z"/><path class="cls-1" d="M385.33,168.83c.15-.31.43-.92.43-.92-.69-.51-1.22-.57-1.58-.18-.15.3-.43.91-.43.91C384.44,169.15,385,169.22,385.33,168.83Z"/><path class="cls-1" d="M382,175.85c-.06.53.33.9,1.16,1.11,0,0,.29-.61.43-.92.06-.53-.32-.9-1.16-1.1C382.25,175,382.19,175.55,382,175.85Z"/><path class="cls-1" d="M376.56,182.4l-.91-.43c-.51.69-.57,1.22-.19,1.59l.92.43A1,1,0,0,0,376.56,182.4Z"/><path class="cls-1" d="M387.9,184.39c.53.06.9-.33,1.1-1.16l-.91-.43c-.53-.06-.9.32-1.1,1.16C386.76,184,387.6,184.24,387.9,184.39Z"/><path class="cls-1" d="M94.71,289.61s.69.52.91.44a2.45,2.45,0,0,0,.8-1.31c.12-1.06-.49-1.34-1.22-.57C95.05,288.48,95,289,94.71,289.61Z"/><path class="cls-1" d="M75.49,300.87c-.06.53.32.9,1.16,1.11,0,0,.28-.61.43-.92.06-.53-.33-.9-1.16-1.1C75.84,299.73,75.55,300.34,75.49,300.87Z"/><path class="cls-1" d="M71,303.25c.07-.53-.32-.9-1.15-1.11,0,0-.29.61-.43.92-.06.53.32.89,1.15,1.1Z"/><path class="cls-1" d="M93.8,301.86c.07-.53-.32-.9-1.15-1.1l-.43.91c-.06.53.32.9,1.16,1.11C93.68,302.92,93.66,302.17,93.8,301.86Z"/><path class="cls-1" d="M386.08,199c.53.06.89-.33,1.1-1.16l-.92-.43c-.52-.07-.89.32-1.1,1.16C385.24,198.79,385.77,198.85,386.08,199Z"/><path class="cls-1" d="M99.54,302.33l.91.43c.51-.69.57-1.22.19-1.59l-.92-.43A1.06,1.06,0,0,0,99.54,302.33Z"/><path class="cls-1" d="M118.3,309.49s.69.51.92.43c.36-.38,1-.85.79-1.3.13-1.06-.48-1.35-1.22-.57C118.57,308.13,118.36,309,118.3,309.49Z"/><path class="cls-1" d="M103,315.52c.15-.3.43-.91.43-.91-.69-.51-1.22-.58-1.58-.19-.15.3-.43.91-.43.91C102.13,315.85,102.65,315.91,103,315.52Z"/><path class="cls-1" d="M111.54,316c-.06.53.32.9,1.15,1.11,0,0,.29-.61.43-.92.07-.53-.32-.89-1.15-1.1C111.74,315.16,111.68,315.69,111.54,316Z"/><path class="cls-1" d="M85.9,326.28c.14-.31.43-.92.43-.92-.69-.51-1.22-.57-1.58-.19-.15.31-.43.92-.43.92C85,326.6,85.53,326.66,85.9,326.28Z"/><path class="cls-1" d="M120.58,316.53l-2,.73c.79,1.49,1.4,1.78,2,1.31A1.5,1.5,0,0,0,120.58,316.53Z"/><path class="cls-1" d="M114.29,320.83l.43-.91c-.69-.51-1.22-.58-1.58-.19l-.43.91C113.4,321.16,113.93,321.22,114.29,320.83Z"/><path class="cls-1" d="M378.38,231.71c.69.51,1.22.57,1.58.19.15-.31.43-.92.43-.92-.69-.51-1.22-.58-1.58-.19C378.58,230.87,378.52,231.4,378.38,231.71Z"/><path class="cls-1" d="M387.68,233.67c.15-.31.43-.92.43-.92-.69-.51-1.21-.57-1.58-.18l-.43.91A1.05,1.05,0,0,0,387.68,233.67Z"/><path class="cls-1" d="M379.43,241s.7.52.92.43c.37-.38,1-.85.79-1.3.13-1.06-.48-1.35-1.21-.57C379.7,239.6,379.5,240.43,379.43,241Z"/><path class="cls-1" d="M144.75,328.85c.22-.08.36-.39.43-.92a.88.88,0,0,0,0-.75c-.69-.51-1.22-.58-1.51,0s-.57,1.22.12,1.74A.6.6,0,0,0,144.75,328.85Z"/><path class="cls-1" d="M373.22,248.28c.53.07.89-.32,1.1-1.15l-.92-.44c-.52-.06-.89.33-1.1,1.16C372.39,248.08,372.91,248.14,373.22,248.28Z"/><path class="cls-1" d="M142.54,331.16s.7.51.92.43a2.39,2.39,0,0,0,.8-1.3c.12-1.06-.49-1.34-1.22-.57A2.39,2.39,0,0,0,142.54,331.16Z"/><path class="cls-1" d="M369.15,251c-.07.53.32.9,1.15,1.11,0,0,.29-.61.43-.92.06-.53-.32-.9-1.15-1.1Z"/><path class="cls-1" d="M149.69,343.29c.53.06.9-.32,1.1-1.16l-.91-.43c-.53-.06-.89.32-1.1,1.16Z"/><path class="cls-1" d="M355.3,269.47s-.51.69-.43.92c.39.37.85,1,1.3.79,1.06.13,1.34-.48.57-1.22C356.66,269.74,355.83,269.53,355.3,269.47Z"/><path class="cls-1" d="M360.11,272.3c-.79-1.49-1.09-1.64-2.74-1.29C358.16,272.49,358.46,272.64,360.11,272.3Z"/><path class="cls-1" d="M360.44,273.19c.08.23.38.37.91.44a.88.88,0,0,0,.75,0c.51-.69.57-1.22,0-1.51s-1.22-.58-1.73.12C360.11,272.3,360.36,273,360.44,273.19Z"/><path class="cls-1" d="M352.15,276.19c.09.22.39.37.92.43a.88.88,0,0,0,.75,0c.51-.69.57-1.22,0-1.51s-1.21-.57-1.72.12C351.61,275.37,352.07,276,352.15,276.19Z"/><path class="cls-1" d="M140,359.22c-.53-.06-.89.33-1.1,1.16l.92.43c.52.06.89-.32,1.09-1.16Z"/><path class="cls-1" d="M133.8,367.3c.07-.53-.32-.9-1.15-1.11,0,0-.29.61-.43.92-.07.53.32.9,1.15,1.1C133.6,368.13,133.66,367.6,133.8,367.3Z"/><path class="cls-1" d="M359.36,290.58c.06-.53-.32-.9-1.16-1.11,0,0-.28.61-.43.92-.06.53.33.9,1.16,1.1Z"/><path class="cls-1" d="M212.16,343.28c.69.51,1.22.58,1.59.19.14-.31.43-.92.43-.92-.69-.51-1.22-.57-1.59-.19C212.45,342.67,212.53,342.89,212.16,343.28Z"/><path class="cls-1" d="M158.84,363.07l.91.42c.51-.69.57-1.22.19-1.58l-.92-.43Q158.26,362.52,158.84,363.07Z"/><path class="cls-1" d="M142.1,374.19c.53.06.9-.33,1.1-1.16l-.91-.43c-.53-.06-.9.32-1.1,1.16Z"/><path class="cls-1" d="M322.72,309.65l-.42.92c.68.51,1.21.57,1.58.19.14-.31.43-.92.43-.92C323.62,309.33,323.09,309.27,322.72,309.65Z"/><path class="cls-1" d="M160.86,368.68c-.07.52.32.89,1.15,1.1,0,0,.29-.61.43-.92.06-.53-.32-.89-1.15-1.1C161.21,367.54,161,368.37,160.86,368.68Z"/><path class="cls-1" d="M303.73,320.83c.23-.08.37-.38.43-.91a.91.91,0,0,0,0-.76c-.69-.51-1.22-.57-1.5,0s-.57,1.22.12,1.73C302.84,321.15,303.29,321,303.73,320.83Z"/><path class="cls-1" d="M301.31,323.23s.69.51.91.43a2.42,2.42,0,0,0,.8-1.3c.12-1.06-.49-1.35-1.22-.58C301.58,321.86,301.37,322.7,301.31,323.23Z"/><path class="cls-1" d="M224.81,349.61s-.51.69-.43.92a2.36,2.36,0,0,0,1.3.8c1.06.12,1.35-.49.58-1.22C226.09,349.66,225.34,349.68,224.81,349.61Z"/><path class="cls-1" d="M165.36,371.36c-.52-.06-.89.32-1.1,1.16l.92.43c.53.06.89-.33,1.1-1.16C166.2,371.56,165.67,371.5,165.36,371.36Z"/><path class="cls-1" d="M171.32,371.74c-.06.53.32.9,1.16,1.11l.42-.92c.07-.53-.32-.9-1.15-1.1Z"/><path class="cls-1" d="M143.79,381.69l-.91-.43c-.51.69-.57,1.22-.19,1.59l.91.43A1.06,1.06,0,0,0,143.79,381.69Z"/><path class="cls-1" d="M156.91,379.49l-.92-.43c-.5.69-.57,1.22-.18,1.59l.91.43C157.23,380.39,157.29,379.86,156.91,379.49Z"/><path class="cls-1" d="M259.05,346.37c.23-.08.37-.39.43-.92a.85.85,0,0,0,0-.75c-.69-.52-1.22-.58-1.5,0s-.57,1.22.12,1.74C258.16,346.69,258.61,346.53,259.05,346.37Z"/><path class="cls-1" d="M137.29,389.62c.06-.53-.33-.89-1.16-1.1,0,0-.28.61-.43.91-.06.53.33.9,1.16,1.11C136.86,390.54,137.15,389.93,137.29,389.62Z"/><path class="cls-1" d="M152.56,386.38c.07-.53-.32-.89-1.15-1.1,0,0-.29.61-.43.92-.07.53.32.89,1.15,1.1A1.88,1.88,0,0,1,152.56,386.38Z"/><path class="cls-1" d="M131.75,393.91c.06-.53-.32-.9-1.16-1.11,0,0-.28.62-.43.92-.06.53.33.9,1.16,1.1Z"/><path class="cls-1" d="M232.07,359.93c.06-.53-.33-.9-1.16-1.11,0,0-.29.61-.43.92-.06.53.32.9,1.16,1.1C231.72,361.07,231.78,360.54,232.07,359.93Z"/><path class="cls-1" d="M246.57,356c-.53-.06-.89.32-1.1,1.16l.91.43c.53.06.9-.32,1.1-1.16Z"/><path class="cls-1" d="M192.83,378.12q1,.76,1.59.18l.43-.91c-.69-.51-1.22-.58-1.59-.19C193.12,377.51,193.2,377.73,192.83,378.12Z"/><path class="cls-1" d="M169.87,392.3c.53.06.89-.32,1.1-1.16l-.92-.43c-.52-.06-.89.33-1.09,1.16Z"/><path class="cls-1" d="M150.73,397.45s-.51.69-.43.91a2.33,2.33,0,0,0,1.3.8c1.05.13,1.34-.49.57-1.22A5.13,5.13,0,0,0,150.73,397.45Z"/><path class="cls-1" d="M345.21,301.27c.06-.53-.32-.9-1.16-1.1,0,0-.28.61-.43.91-.06.53.33.9,1.16,1.11C344.78,302.19,345.07,301.58,345.21,301.27Z"/><path class="cls-1" d="M265.4,359.8l.92.43c.51-.7.57-1.23.19-1.59l-.92-.43C265.08,358.9,265,359.43,265.4,359.8Z"/><path class="cls-1" d="M153.12,399.88c.08.22.39.37.92.43a.88.88,0,0,0,.75,0c.51-.69.57-1.22,0-1.51s-1.22-.57-1.73.12C152.57,399.06,152.74,399.51,153.12,399.88Z"/><path class="cls-1" d="M197.76,355l.43-.91c-.69-.51-1.22-.58-1.59-.19l-.42.92C196.87,355.28,197.39,355.34,197.76,355Z"/><path class="cls-1" d="M163.86,405.13l-.91-.43c-.51.69-.57,1.22-.19,1.58l.92.43C164.19,406,164.25,405.49,163.86,405.13Z"/><path class="cls-1" d="M157.22,410.57l.92.43q.77-1,.18-1.59l-.91-.43C156.9,409.67,156.84,410.2,157.22,410.57Z"/><path class="cls-1" d="M208.56,362.46l.91.43c.51-.69.57-1.22.19-1.59l-.92-.43A1.06,1.06,0,0,0,208.56,362.46Z"/><path class="cls-1" d="M200.76,366.8c-.06.53.33.9,1.16,1.11,0,0,.29-.61.43-.92.06-.53-.33-.9-1.16-1.1C201.19,365.89,200.91,366.5,200.76,366.8Z"/><path class="cls-1" d="M339,326.79c-.53-.06-.89.33-1.1,1.16l.92.43c.52.07.89-.32,1.1-1.15Z"/><path class="cls-1" d="M209.73,376.57c.06-.53-.32-.9-1.15-1.1l-.43.91c-.06.53.32.9,1.15,1.11C209.3,377.49,209.59,376.88,209.73,376.57Z"/><path class="cls-1" d="M262.62,396.31c.53.06.89-.32,1.1-1.16l-.92-.43c-.52-.06-.89.33-1.1,1.16C261.79,396.11,262.31,396.17,262.62,396.31Z"/><path class="cls-1" d="M237.25,405.23l.91.43c.51-.69.57-1.22.19-1.59l-.92-.43C236.93,404.33,236.86,404.86,237.25,405.23Z"/><path class="cls-1" d="M237,378.63l.91.43c.51-.7.57-1.23.19-1.59l-.92-.43C236.4,377.58,236.56,378,237,378.63Z"/><path class="cls-1" d="M305.84,351.27c.14-.31.43-.92.43-.92-.69-.51-1.22-.57-1.59-.19-.14.31-.43.92-.43.92A1,1,0,0,0,305.84,351.27Z"/><path class="cls-1" d="M306.58,356.83c-.06.53.32.9,1.15,1.11,0,0,.29-.61.43-.92.07-.53-.32-.9-1.15-1.1Z"/><path class="cls-1" d="M302.56,361.83l.43-.91c-.69-.51-1.22-.57-1.59-.19l-.42.92C301.67,362.16,302.19,362.22,302.56,361.83Z"/><path class="cls-1" d="M385,266.11c.14-.31.43-.92.43-.92q-1-.76-1.59-.18l-.43.91A1,1,0,0,0,385,266.11Z"/><path class="cls-1" d="M279.42,357.27c-.53-.07-.9.32-1.1,1.15l.91.44c.53.06.9-.33,1.1-1.16C280.55,357.62,279.72,357.41,279.42,357.27Z"/><path class="cls-1" d="M247,387.44c-.06.53.32.89,1.16,1.1,0,0,.28-.61.43-.91.06-.53-.33-.9-1.16-1.11C247.38,386.3,247.17,387.13,247,387.44Z"/><path class="cls-1" d="M258.54,377.24l.91.43c.51-.69.57-1.22.19-1.59l-.92-.43C257.91,376.2,258.07,376.65,258.54,377.24Z"/><path class="cls-1" d="M252.62,366.45l.92.43q.77-1,.18-1.59l-.91-.43C252.3,365.55,252.24,366.08,252.62,366.45Z"/><path class="cls-1" d="M356.44,303.55c.07-.53-.32-.9-1.15-1.1l-.43.91c-.06.53.32.9,1.15,1.11C356,304.47,356.3,303.86,356.44,303.55Z"/><path class="cls-1" d="M198.93,359.6c.22-.08.37-.38.43-.91a.91.91,0,0,0,0-.76c-.69-.51-1.22-.57-1.5,0s-.58,1.22.11,1.73C198,359.93,198.71,359.68,198.93,359.6Z"/></svg>