<svg id="Layer_1" data-name="Layer 1" xmlns="http://www.w3.org/2000/svg" viewBox="0 0 119 158"><defs><style>.cls-1{fill:#faefe6;}</style></defs><path class="cls-1" d="M59,114.59c-.47.23-.79.31-.79.54-.07.7-.07,1.4-.15,2,.15.7,1.1.85.55,1.94,0,0-.24.31-.47.55.23.62,1.17.07,1.41.77-.32.31-.71.7-1,1a2.45,2.45,0,0,0-.71.07.67.67,0,0,0-.39.86v1.79c0,.23-.08.46-.08.7l-.55.54v1.48c.16.16.39.47.63.7-.16.7-1.18.08-1.41,1v3.9c.23.23.47.55.7.78v1.4a7.83,7.83,0,0,1-.7.78c.94,1,.94,1.09-.08,2.1v5.67a7.87,7.87,0,0,0-.71.78,2.1,2.1,0,0,1-.08.7c.48.47,1,1,1.42,1.48v5.05l-.55.55a4.69,4.69,0,0,0-.16,2.1v1.71c-.23.23-.55.39-.55.62A2.74,2.74,0,0,1,54.09,158H51.26c-.39-.23-.63-.54-.94-.7s-.55,0-.63-.16c-.78-.7-1.57-1.47-2.43-2.33a9.21,9.21,0,0,0-.08-1.4c-.08-.47-.94-.7-.7-1.48a6.12,6.12,0,0,1,.7-.78v-2.8a7.26,7.26,0,0,1,.79-.77V144.7a6.85,6.85,0,0,1,.7-.78V141l-.55-.54a6.48,6.48,0,0,1-.15-2.1,13.41,13.41,0,0,0-.08-1.79l-.55-.54c0-.08-.08-.24-.08-.31v-19c.16-.24.39-.47.63-.78-.16-.16-.24-.39-.39-.39a5,5,0,0,0-1.1,0,.65.65,0,0,1-.63-.39v-1.48c.24-.62,1.18-.08,1.41-.77-.08-.08-.15-.24-.23-.24-.71-.08-1.42-.08-2.12-.15-.32.23-.55.46-.86.7a2.41,2.41,0,0,0-.71.07,6.14,6.14,0,0,1-.79.7c-.62-.23-.07-1.16-.78-1.4l-.24.24a1.19,1.19,0,0,1-.47.31.53.53,0,0,1-.31-.55.48.48,0,0,0-.24-.62c-.15-.08-.31,0-.54.23s-.55.39-1.18.32c-.31-.47-.71-1-1-1.4H35.18c-.32.15-.39.39-.24.54l.87.86c.23,0,.62.07.94.07s.7,0,.94.39c-.24.24-.47.55-.71.78a1,1,0,0,1-.39,1c-.47-.46-.94-.93-1.49-1.4l-1,1v1.48a6.88,6.88,0,0,1,.71.78v3.12a7.12,7.12,0,0,0,.78.77V122l.55.55a.81.81,0,0,1,.16.62v3.19a1.65,1.65,0,0,1,.78,1.55,1.71,1.71,0,0,1-.7,1.25v3.5c-.24.31-.48.54-.71.85a2.83,2.83,0,0,1-.08.78c-.55.55-1.18,1.09-1.88,1.71H29.45c-.23-.15-.47-.46-.78-.7H28c-.39-.23-.31-.54-.39-.93s-.39-.55-.63-.93V130c-.24-.31-.47-.54-.71-.85a7.87,7.87,0,0,0,.71-.78v-2.1a7.87,7.87,0,0,0-.71-.78,1.2,1.2,0,0,1,.32-1,2.61,2.61,0,0,0,.39-.54v-1.17c-.16-.23-.39-.47-.63-.86.16-.23.39-.46.63-.77v-1.32a7.68,7.68,0,0,1,.78-.86V118c-.23-.23-.47-.54-.7-.78v-3.58a7.66,7.66,0,0,0-.79-.85v-5c-.23-.46-.62-.31-1-.39a6,6,0,0,1-.78.7c-.08.08-.24,0-.39,0V107a6.71,6.71,0,0,0,.7-.77,5.47,5.47,0,0,1-.62-.7,6.09,6.09,0,0,1,.7-.78c-.08-.93-.08-1-1-1-.47.46-1,.93-1.49,1.4-.08.07-.23,0-.31,0v-1.09a10.76,10.76,0,0,1-1-1,3.5,3.5,0,0,1-1.1-.47l.47-.47c.16-.15.08-.31-.16-.54a2.91,2.91,0,0,1-.39-.54c0-.39-.08-.86-.39-.86s-.32.54-.39.86c0,.15-.32.46-.4.38a.52.52,0,0,1-.31-.54c-.08-.7-.16-.7-.86-.78-.08,0-.24-.08-.32-.08l-1-1c-.08-.08,0-.23,0-.31a.53.53,0,0,0,.63-.23c.16-.24-.08-.39-.78-.47h.15a.48.48,0,0,0-.15-.54c-.16-.16-.32-.16-.47.15,0,.08.07.16.07.24a1,1,0,0,0,.4.23,1.19,1.19,0,0,1,.15.7,4.35,4.35,0,0,1-1,0c-.15,0-.39-.31-.39-.47a12.2,12.2,0,0,1,0-1.71.53.53,0,0,0,.63-.23c.16-.24-.08-.39-.63-.47V94.83c-.31-.31-.71-.62-1.1-1h-2a2.62,2.62,0,0,1-1.18-1.24c.48-.55,1.18-.08,1.65-.31A8.39,8.39,0,0,0,13,93h.71c.55-.62,1.18-1.16,1.73-1.79-.16-.15-.32-.38-.47-.38-1.18-.08-2.36-.08-3.53-.08-.08,0-.16-.16-.24-.24a6.74,6.74,0,0,0,.71-.77c.07-.08,0-.24,0-.31a.52.52,0,0,0,.62-.24c.16-.23-.07-.39-.62-.46v-.7h1c.07,0,.15-.08.23-.16s.16-.16.08-.23-.16-.24-.24-.24c-.78-.23-1-.07-1.17.63a.5.5,0,0,1-.63-.24c-.23-.39,0-.93-.55-1.16H10a6,6,0,0,1-.78.62c-.47-.24-.31-.62-.31-1.09.31-.31.7-.62,1.17-1.09.32-.16.94.23,1.49-.16.08-.07.16-.15.16-.23a.35.35,0,0,0-.24-.23,2.34,2.34,0,0,0-.78-.08,11.78,11.78,0,0,0-1-.93,9.3,9.3,0,0,1-.16-2.1,3.59,3.59,0,0,0-1-1.17c-.47-.16-.78-.23-1.17-.39.55-.54,1-1.09,1.49-1.55L7.56,77a.35.35,0,0,1,.24-.47c.08-.07.23,0,.39,0a.5.5,0,0,0,.63-.23c.08-.23-.24-.47-.71-.47H7a2.38,2.38,0,0,1-.7-.07l-1-1c.39-.7,1.09-.24,1.64-.39.16-.16.4-.24.55-.39.63-.55,1.18-1.17,1.81-1.79.23-.23.31-.31.23-.55a.52.52,0,0,0-.62-.23H8.58a1.89,1.89,0,0,1-1.49.78l-.55.54a2.34,2.34,0,0,1-1.65,0c-.07-.07-.31-.15-.31-.23V70.72h.71a.49.49,0,0,0,.62-.23c.08-.16-.07-.31-.31-.55l-.24-.23c.16-.78,1.1-.16,1.34-.78A6.12,6.12,0,0,1,6,68.15V65a.54.54,0,0,0,.63-.24,1,1,0,0,0,0-.93A.5.5,0,0,0,6,63.57c0-.08-.08-.24,0-.32.39-.38.71-.77,1.1-1.08.08-.08.24,0,.31,0v1c.48.46.48.46.87.39s.55-.16.63-.63a.89.89,0,0,0-.4-.85h-1c0-.16.08-.31,0-.39a6.85,6.85,0,0,1-.7-.78l1-1a6.85,6.85,0,0,0,.78.7.74.74,0,0,0,.16-1.17,2.42,2.42,0,0,1-.63-1.16c0-.31-.39-.55-.78-.47a.65.65,0,0,1-.63-.39v-2a.34.34,0,0,1,.47-.31c.08,0,.16.15.23.23v1.4c.55.47.55.47,2,.31.31-.15.31-.39,0-.46s-.47,0-.71-.16-.47-.31-.47-.39a.53.53,0,0,1,.55-.31c.86-.16.86-.16.86-.78v-1l-.31-.31c-.55-.62-.55-.86-.08-1.48.16-.23.31-.31.23-.54s-.39-.24-.62-.24c-.47,0-.63-.15-.71-.62a.72.72,0,0,1,.47-.85c.24-.08.47,0,.71-.08.08,0,.15-.16.31-.24V48.09a2.89,2.89,0,0,0-.7-.7c.23-.63,1.17-.16,1.41-.78v-.7c-.32-.62-1.18-.08-1.41-.78l1.8-1.79h1.1a.41.41,0,0,0,.23.55c-.08.39.16.39.32.39A.53.53,0,0,0,12.9,44c0-.07-.24-.38-.4-.38a4.35,4.35,0,0,0-1,0c0-.16.08-.32,0-.39a6.85,6.85,0,0,0-.7-.78V40.23c.08-.08.23-.31.23-.23.16.15.4.23.4.39a5.65,5.65,0,0,1,0,1.09.51.51,0,0,0,.31.54c.55-.08,1.18.23,1.73-.23-.24-.7-.87-1-1.34-1.56a6.88,6.88,0,0,0,.71-.78V38.36h1c.08,0,.15-.07.23-.15s.16-.16.08-.23-.16-.24-.23-.24c-.79-.23-1-.08-1.18.62-.31.08-.55,0-.63-.23-.16-.54-.23-1.17-.86-1.48v-1a.65.65,0,0,1,.23-.62.88.88,0,0,1,.95-.08c.47.39.86.86,1.33,1.25.16-.16.39-.24.39-.39a7.26,7.26,0,0,0,0-1.32c-.23-.32-.7-.47-.63-.86s.63-.23,1-.23c.23.23.54.46.78.7l1-1a1.29,1.29,0,0,0-.55-.39,5,5,0,0,0-1.1,0c-.15,0-.31-.24-.55-.39l1-1a2.16,2.16,0,0,0,.71-.08,6.85,6.85,0,0,1,.78-.7,1.54,1.54,0,0,1,.71.23c.24.08.16-.15,0-.23s-.47,0-.31.31a.72.72,0,0,0,.39.31s.23-.15-.08-.39-.24-.46-.31-.54l-.71-.7c.24-.24.47-.55.63-.7a6.66,6.66,0,0,0-.63-.78c.55-.54,1.18-.16,1.8-.31a11.69,11.69,0,0,0,.95-1c-.16-.47-.95-.7-.63-1.48l.7-.7a6.85,6.85,0,0,1-.7-.78c0-.31-.16-.78.31-.93s.47.31.79.54c.7-.15.15-1.09.78-1.4h.86c.4.47.79,1,1.18,1.4a3,3,0,0,0,.86-.07,5.45,5.45,0,0,1,.79-.63l1,1c.08.08,0,.24,0,.32a.41.41,0,0,0-.55.23c-.08.15-.08.39-.16.62a.53.53,0,0,0,.32.55c.08,0,.39-.24.39-.39a4.27,4.27,0,0,0,0-1,.57.57,0,0,0,.7-.47,3.62,3.62,0,0,0,0-.93h1c.08,0,.16-.08.24-.16s.16-.16.08-.23-.16-.24-.24-.24c-.78-.23-1-.07-1.17.63-.16,0-.32.07-.4,0a14,14,0,0,1-1-1c.16-.15.24-.38.4-.38a5,5,0,0,1,1.09,0,.52.52,0,0,0,.55-.32c-.23-.23-.47-.54-.7-.77.47-.55,1.41-.24,1.72-1,.24.23.55.46.79.7h1.41c.24-.24.55-.47.79-.7h3.29c.24,0,.55-.08.55-.32,0-.07-.24-.38-.39-.38-.32-.08-.71,0-.94-.39a13.21,13.21,0,0,1,1.09-.94c.16.16.4-2.2.71-2.05.71-.23.16-1.09.79-1.4h1.49c.31-.39.31-.39-.32-1.09l.94-.93c.87-.31,1.65,0,2.36-.15.31.31.47.46.7.7.87,0,1.81.07,2.75,0,.39,0,.55-.39.47-.78,0-.08,0-.24.08-.31l.55-.55a2.2,2.2,0,0,0,.15-.62c0-.47-.15-.93.4-1.32h.7c.55.46.87,1,1.57,1.32.39-.23.24-.62.32-1,.31-.31.7-.62,1.09-1h1.34c.31-.24.55-.47.86-.7a8.14,8.14,0,0,0,.79.7h1.09v1c0,.08.08.15.16.23s.16.16.24.08.23-.16.23-.23c.24-.78.08-1-.63-1.17v-.7a.49.49,0,0,1,.24-.62c.16-.08.31.08.55.31l.23.23a1.94,1.94,0,0,0,1-.93,4.24,4.24,0,0,0,.47-1.25c.32.32.55,3.14.79,3.3a14.16,14.16,0,0,1,1.49-.78c.47.47.16,1,.63,1.48.39-.08.47-.39.47-.7a.71.71,0,0,1,.31-.62,2.16,2.16,0,0,0,.71-.08c.47.47,1,.93,1.49,1.4.39-.23.31-.62.39-.93a.71.71,0,0,1,.47-.47,17.34,17.34,0,0,1,2,0c.94.93.94.93,1.81.39.08-.31-.16-.78.23-.94s.47.47.79.47a4.29,4.29,0,0,0,2.43-.08c.31-.39.16-.93.16-1.4a.51.51,0,0,1,.31-.54c.08,0,.31.31.39.47s.08.46.16.7c0,.07.16.15.23.23h1.1a.57.57,0,0,0,.47.7,7.16,7.16,0,0,1,1.34.23c.23.08.15-.15,0-.23-.32-.16-.47,0-.32.31a.78.78,0,0,0,.4.31s.23-.15-.08-.39a6.66,6.66,0,0,1-.32-2.41h1.18c.39.47.78,1,1,1.32a8.47,8.47,0,0,1,1.26.31c.23.08.31.32.23.7V7.41a.5.5,0,0,0-.55.15c-.16.16-.16.32.16.47.08,0,.16-.08.23-.08a.76.76,0,0,0,.24-.39.88.88,0,0,0,.63-.38c.23-.39,0-.94.55-1.17h1.41c.23.23.55.47.78.7h.71c.47.31.31.85.31,1.32s.08.62.39.78c.08-.08.24-.16.24-.23a8.28,8.28,0,0,0,.08-1.4c0-.32.39-.47.78-.47a.72.72,0,0,1,.63.31c-.23.23-.39.47-.63.7a2.25,2.25,0,0,0,.47.39,16.13,16.13,0,0,0,2,0L86.25,7V5.93c.55-.08.71-.23.71-.54A8.23,8.23,0,0,1,87.12,4c.08-.24.31-.31.62-.24V6.24a.35.35,0,0,0,.48.31c.07,0,.23-.15.23-.23v-.7c.16-.16.39-.39.55-.39.55,0,1.18-.23,1.65.31a7.87,7.87,0,0,0-.71.78V7c-.23.54-.86.31-1.18.54a.5.5,0,0,0-.23.63h-1a.4.4,0,0,0-.24.15c-.07.08-.15.16-.07.24s.15.23.23.23c.79.23,1,.08,1.18-.62.15,0,.31-.08.39,0a12.2,12.2,0,0,1,1,1c0,.23.08.46.08.7a6.12,6.12,0,0,0-.71.78.81.81,0,0,0,1.18.23c.23-.08.31-.39.55-.47a.84.84,0,0,1,.94.08.59.59,0,0,1,.16.62.81.81,0,0,1-.08.24,4.57,4.57,0,0,0-.63.85c-.23.39.16.86.71.93a.53.53,0,0,0,.23.63c.24.15.39-.08.47-.63H94a1.45,1.45,0,0,1,.39.55c.08.47-.08.93.08,1.24.39.39.71.78,1,1.09h1.1a.51.51,0,0,1-.24.62c-.39.24-.94-.07-1.17.63v.54a2.33,2.33,0,0,0,.55.39c.7.08,1.41.08,2.12.16.07,0,.15.15.23.23a8,8,0,0,0-.71.78c-.07.07,0,.23,0,.31a.4.4,0,0,0-.54.23c-.08.16-.08.39-.16.62a.53.53,0,0,0,.31.55c.08,0,.39-.24.39-.39a4.27,4.27,0,0,0,0-1h.71a.53.53,0,0,1,.63.23c.08.16,0,.31-.24.47s-.31.31-.23.46a.49.49,0,0,0,.63.24h.7c.08.54.24.7.55.7a9.64,9.64,0,0,1,1.41.15c.24.08.32.31.24.63h-1.18c-.15.15-.39.46-.63.7-.07.07-.23,0-.47,0h.16a.48.48,0,0,0-.16-.55c-.15-.15-.31-.15-.47.16,0,.07.08.15.08.23a.79.79,0,0,0,.39.23,2.58,2.58,0,0,1,.16,1.09,3.53,3.53,0,0,0,1.41,1.17c.39-.08.86-.08,1.26-.16.23-.07.31-.31.23-.62h1.1c.32.31.63.7,1,1.09a4.37,4.37,0,0,1-.08,2.26c-.08.23-.31.31-.62.23V27.32a12.14,12.14,0,0,1-1-1c-.54.23-.46.62-.31,1.17.55.15.63,1,1.34.93V29.5c.07.08.15.23.23.23.24.08.47.08.71.16s.39.23.55.39a16.29,16.29,0,0,1,1.25,1.24c.08.39-.31.47-.47.78.08.62-.55,1.32.31,1.79.24-.24.47-.39.71-.63.16.16.31.24.31.32v2.87c.32.63,1.18.16,1.42.78a3,3,0,0,0-.63.78l1,1h.71c.54.86.54.86-.32,1.79a3,3,0,0,1,.63.78.86.86,0,0,1-.86.39c-.16,0-.4.23-.55.38.31.32.7.7,1,1a4.29,4.29,0,0,1,.86.07c.24.31.55.7,1,1.25,0-.08-.16.08-.39.15s-.71-.15-.94.32a2.56,2.56,0,0,0,.86.93,4.54,4.54,0,0,0,1.25.46c-.47.63-1.09.94-1.41,1.56.24.39.63.23.94.31a.36.36,0,0,1,.24.24c.08.15,0,.38-.32.46a8.3,8.3,0,0,1-1.41,0c-.62.47-.31,1.09-.31,1.71,0,.16.23.31.39.39.16-.15.32-.39.55-.46a1.83,1.83,0,0,1,.63-.16.45.45,0,0,1,.31.08c.32.54,1,.46,1.49.78a1.93,1.93,0,0,1,.86.93c-.23.39-.62.31-.94.31-.23-.23-.54-.47-.78-.7-.79.47,0,1.4-.47,1.94s-1.49-.23-2,.55c.47.47.94,1,1.41,1.48v.7c.23.62,1.18,0,1.41.77-.31.32-.7.7-1,1-.08.07-.23,0-.55,0h.16a.48.48,0,0,0-.16-.55c-.15-.15-.31-.15-.47.16,0,.07.08.15.08.23a.79.79,0,0,0,.39.23c.24.24.16.47-.08.55-.39.15-.78.23-1.25.39.31.31.47.54.78.85a6.53,6.53,0,0,1,0,1.25.69.69,0,0,1-.86.54h.16a.47.47,0,0,0-.16-.54c-.16-.16-.31-.16-.47.15,0,.08.08.16.08.24a1,1,0,0,0,.39.23c.16.15.08.31.16.39.47.54,1,1,1.41,1.48-.08.93-.08.93-.63,1.08h-.39a.86.86,0,0,0-.39,1.17c.15.23.31.31.55.62a18.28,18.28,0,0,1,0,3c-.24.39-.4.39-.55.08s-.08-.47-.16-.63A1.42,1.42,0,0,0,110,69l-1.81,1.79a.6.6,0,0,0,.79.31c.63.54,1,.86,1.33,1.17-.47.62-1.49.23-1.8,1.09a3.34,3.34,0,0,0-.79.07,11.83,11.83,0,0,1-1,.94c0,.46,0,.46.63.46H108v2.88h-1.1c-.08,0-.16.16-.24.23v.24c.39.46.87.85,1.26,1.24a1.45,1.45,0,0,1-.55.39.82.82,0,0,1-.63-.08c-.47-.39-.86-.85-1.25-1.24a1.89,1.89,0,0,0-.4.47,1.08,1.08,0,0,0,.08.7c.08.23.39.31.47.54a.8.8,0,0,1,0,.93c-.15.16-.31.31-.55.55a5.21,5.21,0,0,1,.63.78v.62c-.23.54-.78.31-1.18.54a.49.49,0,0,0-.23.62h-.71c-.55,0-.78.24-.78.78v.7h-1.1c-.08,0-.16.16-.24.24v.23c.4.47.87.85,1.26,1.24-.16.39-.47.39-.86.39s-.4.24-.55.31a7.83,7.83,0,0,1,.7.78,9,9,0,0,0-1.41,1.56,2.28,2.28,0,0,0,.16.7c.08.23.31.31.63.23a4.87,4.87,0,0,1,0,1c-.08.23-.32.39-.47.31s-.32-.39-.47-.46c-.55-.39-1.1-.08-1.18.62a.5.5,0,0,0-.63.23.45.45,0,0,0-.08.31V94.6a29.43,29.43,0,0,1-2.2,2.33v1h-1.8l-1,1c.16.78,1.18.08,1.33.86-.31.23-.62.55-1.09.93H91.9c-.62.32-.86.78-1.33,1.09.63.63,1.25.24,1.88.39.08.24.24.55.32.78a3.49,3.49,0,0,1-1.26,1.32c-.39,0-.78.08-.94-.31-.08-.23,0-.47-.08-.7s-.31-.39-.47-.31l-.24.23a5.13,5.13,0,0,1-.7.7v1.48l1.33,1.32c.08.7.47,1.4-.31,2h-.63a6,6,0,0,0-.78.7.58.58,0,0,1-.32-.63c-.08-.69-.31-.85-.86-.77-.24,0-.39.23-.55.31v.7c.24.23.47.54.71.78v1.47l-1,1c-.24-.23-.55-.46-.79-.69h-.7c-.32.15-.4.38-.16.54l1.25,1.24c-.23.24-.47.55-.7.78,0,.39-.08.78.31,1,.47-.46,1-.93,1.49-1.4.08.08.24.16.24.24.08.93.08,1.86.08,2.8,0,.23-.24.38-.79.46h-.23c-.71.63-1.34,1.25-1.89,1.71v.78a6,6,0,0,1,.63.78l-.55.54c-.08.16,0,.32.24.55.55.54.55.85-.08,1.48l-.32.31v1.71c.16.24.48.47.71.78v.7a9.33,9.33,0,0,0-.71.78c.24.62,1.18,0,1.34.78-.71.46-.86,1.09-.39,2.33a4.48,4.48,0,0,0,.31.39c-.24.62-.86.93-1.33,1.48v.7a6.71,6.71,0,0,1,.7.77c-.23.24-.47.55-.7.78-.08.55.07,1,.55,1.17a3.28,3.28,0,0,1,.15.7c.08.85-.08,1.63.08,2.49l.55.54c-.16.24-.39.47-.63.78v1.48c-.55.47-1.25,1-2,1.71H82c-.39-.16-.63-.93-1.34-.7l-4.15-4.12a1.85,1.85,0,0,0-.08-.62l-.55-.55a2.36,2.36,0,0,1-.16-.62V128l.63-.62a9.91,9.91,0,0,0,.16-2.1,6.54,6.54,0,0,1,.07-1.71c.24-.23.4-.39.55-.55,0-.07.08-.23.08-.31V114a6.24,6.24,0,0,0-.7-.77v-2.1c-.32-.31-.63-.7-1-1-.63.08-.79.78-1.26.94v1.55a4.35,4.35,0,0,0-.94.32,7.49,7.49,0,0,0-.86-.78H71c-.31.31-.62.7-1,1.09a6.52,6.52,0,0,0,.63.7c-.7.62-.78.62-1.65-.24-.54.08-.78.94-1.49.63-.47.46-1,.93-1.49,1.47h-.78c-.08-.31-.24-.62-.31-.93a8.55,8.55,0,0,1,.78-.86l-.71-.7c-.23-.23-.31-.31-.55-.23a.65.65,0,0,0-.23.62c.08.55-.08.63-.63.63a.67.67,0,0,0-.63.23.3.3,0,0,0-.07.23c.31.31.78.62.62,1.25a8.3,8.3,0,0,1-1.88,1.86c-.24-.07-.47-.07-.71-.15s-.31-.31-.23-.63a.41.41,0,0,0,.55-.23,4.72,4.72,0,0,0,.15-.62.52.52,0,0,0-.31-.55c-.08,0-.39.24-.39.39a4.27,4.27,0,0,0,0,1,.41.41,0,0,0-.55.24c-.16.39-.24.78-.39,1.24-.94-.46-.16-1.32-.55-1.86l-.71-.7a3.8,3.8,0,0,0,.63-1.48c.08-.23-.16-.16-.24,0-.15.31,0,.47.32.31a.81.81,0,0,0,.31-.39C59.42,114.43,59.26,114.28,59,114.59ZM21.37,24.83h2.12c.08,0,.16-.15.23-.23s0-.31-.23-.47H21.37c-.08,0-.16.16-.24.23S21.13,24.68,21.37,24.83Zm-4,71a.93.93,0,0,0-1.49,0c.08.39-.24.94.47,1A12.1,12.1,0,0,1,17.37,95.84Zm-6.2-50.79c-.55.47-.55.94,0,1.48C11.72,46,11.72,45.52,11.17,45.05Zm-.63,5.6c.08-.07.24-.15.24-.23v-.7c0-.08-.16-.16-.24-.23a.14.14,0,0,0-.23,0c-.39.15-.39.93,0,1.16C10.39,50.73,10.46,50.65,10.54,50.65Zm98.39,17.12c.47.54.94.54,1.49,0C109.87,67.22,109.4,67.22,108.93,67.77Zm-82.85,38.5V106l-.24-.24c-.16-.08-.31,0-.47.24-.08.07,0,.23,0,.31a.51.51,0,0,0,.24.62C25.84,107,26.08,106.73,26.08,106.27ZM55.42,7.77c.16.08-.16,1,0,.78,0,0,.08-.7,0-.78s-.08-.47-.24-.23C55.11,7.54,55.26,7.69,55.42,7.77Zm34,4.38c-.08.16,0,.31.24.47l.23-.23c.08-.16,0-.31-.23-.47Zm-43-1.74-.24-.23c-.15-.08-.31,0-.47.23l.24.24C46.08,10.73,46.24,10.65,46.4,10.41ZM28.51,21.88c.16.07.31,0,.47-.24l-.24-.23c-.15-.08-.31,0-.47.23ZM9.68,58l-.24.23c-.07.15,0,.31.24.47l.24-.24C10.07,58.35,10,58.2,9.68,58Zm100.19.62c.16.08.31,0,.47-.24l-.23-.23c-.16-.08-.32,0-.48.23C109.63,58.43,109.79,58.51,109.87,58.59ZM6.93,70.88l.24-.24c-.16-.23-.31-.31-.47-.23l-.24.23C6.62,70.88,6.78,71,6.93,70.88Zm2.91,8.63.23-.23C9.92,79,9.76,79,9.6,79l-.23.24C9.52,79.51,9.68,79.59,9.84,79.51Zm2,6.69-.24.23c.16.24.32.31.47.24l.24-.24C12.11,86.2,12,86.12,11.8,86.2Zm84.89,6.61c-.08.16,0,.31.23.47l.24-.24c.08-.15,0-.31-.24-.46Zm-81,.62c-.15-.08-.31,0-.47.24l.24.23c.15.08.31,0,.47-.23Zm70.14,22.48c-.08.16,0,.31.24.47l.23-.24c.08-.15,0-.31-.23-.46C86,115.6,85.86,115.83,85.78,115.91Z"/><path class="cls-1" d="M62,120.19c-.31-.31-.39-.47-.31-.55l1-1c.15.08.39.24.39.31a18.39,18.39,0,0,1,0,2.1c-.63.63-1.26.32-2,.24-.47-.39-.16-.86-.24-1.32a2.32,2.32,0,0,1,1.1.23c.24.08.16-.16,0-.23s-.47,0-.31.31a.81.81,0,0,0,.39.31C62.17,120.58,62.32,120.42,62,120.19Z"/><path class="cls-1" d="M89.31,111.32h1.1c.24-.23.55-.46.79-.7a1.12,1.12,0,0,1,.39.62c.16.86.16.86.78.86h1l.32.31c0,.08-.08.23-.16.23a5,5,0,0,1-2.43.08c-.32-.54-.94-.62-1.49-.78A.46.46,0,0,1,89.31,111.32Z"/><path class="cls-1" d="M26,12.08c.31-.62,1.17-.08,1.41-.78v-.7a.35.35,0,0,1,.24-.23c.15-.08.39,0,.47.31a10.43,10.43,0,0,1,0,1.48c.23.15.47.39.78.62-.47.62-1.1.31-1.65.39C26.68,13,26.45,12.47,26,12.08Z"/><path class="cls-1" d="M33.46,9.73h.32c.94,0,.94,0,1.09-.85a.72.72,0,0,1,.94-.63,2.35,2.35,0,0,1,.48.39v1c-.55-.07-.71.55-1.34.7a4.22,4.22,0,0,1-1,0C33.62,10.35,33.3,10.12,33.46,9.73Z"/><path class="cls-1" d="M86.41,118.79a.39.39,0,0,1,.39-.23,1.48,1.48,0,0,0,1.26-.55.25.25,0,0,1,.16-.08c.39.31.7.63,1.09.94-.39.38-.7.7-1.09,1.09a3.29,3.29,0,0,0-.79.07A6.07,6.07,0,0,0,86.41,118.79Z"/><path class="cls-1" d="M7.88,89c-.08-.39.15-.62.54-.7a6.61,6.61,0,0,1,1.26,0,6.22,6.22,0,0,0,.78.7h1v.7H9.68c-.24-.23-.55-.47-.78-.7Z"/><path class="cls-1" d="M104.53,90.79l-1,1h-.7c-.24-.23-.47-.62-.79-.7s-.47-.08-.31-.39c.08-.08.16-.23.23-.23a5,5,0,0,1,2.44,0A.68.68,0,0,0,104.53,90.79Z"/><path class="cls-1" d="M98.73,8.58a5,5,0,0,0,.7-.63c.24-.23.32-.31.48-.23a.49.49,0,0,1,.23.62v.39a4.44,4.44,0,0,1-.71.62v.78c0,.08-.15.16-.23.23a.35.35,0,0,1-.47-.23Z"/><path class="cls-1" d="M96.53,97.63h1.1c.24-.23.55-.46.78-.7.4,0,.79-.08,1,.39l-.94.93a2.14,2.14,0,0,1-1.72,0A.48.48,0,0,1,96.53,97.63Z"/><path class="cls-1" d="M13,99.81h1.81c.55.78.55.78,0,1.4-.24-.23-.47-.39-.71-.62-.15.15-.23.15-.31.31s-.31.39-.55.31a.49.49,0,0,1-.24-.62A2.54,2.54,0,0,0,13,99.81Z"/><path class="cls-1" d="M10.07,37.82h1a.73.73,0,0,1,.39.86c-.07.46-.15.62-.62.62-.32,0-.32,0-.87-.39A5.38,5.38,0,0,0,10.07,37.82Z"/><path class="cls-1" d="M116.22,38.91c.71-.55.71-.55,1.49,0v.7c-.7.54-.7.54-1.49,0Z"/><path class="cls-1" d="M4.11,46.06c.39-.15.71-.31.94-.38.71.23.94.77,1.49,1.16-.39.16-.7.31-.94.39C5,47,4.74,46.45,4.11,46.06Z"/><path class="cls-1" d="M7.48,54.39l-1-1c.24-.24.63-.47.63-.78s.08-.47.39-.31c.08.08.24.15.24.23a3.1,3.1,0,0,1,0,1.71A1.15,1.15,0,0,0,7.48,54.39Z"/><path class="cls-1" d="M5.91,77.49c.55.23.79.78,1.26,1-.31.54-.71.39-1,.39a6.14,6.14,0,0,0-.79-.7c-.47-.39-.47-.47-.07-.62A1.46,1.46,0,0,1,5.91,77.49Z"/><path class="cls-1" d="M5,78.19v1a.74.74,0,0,1-.86.39c-.47-.08-.63-.16-.63-.62s0-.32.39-.86A5.53,5.53,0,0,0,5,78.19Z"/><path class="cls-1" d="M91.9,104.87h.71a6,6,0,0,1,.78-.7c.47.77.47.77-.07,1.4H91.9c-.08,0-.15-.16-.23-.24S91.59,104.94,91.9,104.87Z"/><path class="cls-1" d="M72.6,113.89V116c0,.08-.15.15-.23.23s-.32,0-.47-.31v-2.1c0-.08.15-.16.23-.23S72.45,113.65,72.6,113.89Z"/><path class="cls-1" d="M47.25,143.92a.82.82,0,0,1-.23-1.24,5.63,5.63,0,0,1,.94-1,.83.83,0,0,1,.24,1.24A5.69,5.69,0,0,1,47.25,143.92Z"/><path class="cls-1" d="M82.72,3.21a4.35,4.35,0,0,1-1,0c-.15,0-.23-.23-.39-.39l.94-.93c.16.15.39.23.39.39A1.85,1.85,0,0,1,82.72,3.21Z"/><path class="cls-1" d="M84.92,2.9c.47-.55.94-.55,1.49,0-.23.23-.55.46-.78.7s-.32.31-.47.23a.48.48,0,0,1-.24-.62Z"/><path class="cls-1" d="M73.31,5.39a5,5,0,0,1-1,0c-.16,0-.24-.24-.39-.39l.94-.94c.15.16.39.24.39.39A1.89,1.89,0,0,1,73.31,5.39Z"/><path class="cls-1" d="M57.7,6.86l-1-1c.07-.7.62-.39,1-.46A.9.9,0,0,1,57.7,6.86Z"/><path class="cls-1" d="M26.08,17.29c.7-.47.7-.47,1.41,0-.08.39.23.93-.47,1A13.44,13.44,0,0,0,26.08,17.29Z"/><path class="cls-1" d="M101.63,22.73a.55.55,0,0,1,.71.47,11.09,11.09,0,0,1,0,1.63.54.54,0,0,1-.71-.47Z"/><path class="cls-1" d="M12.27,33.54V31.83c0-.15.23-.23.39-.39,0,0,.24.16.24.24a3,3,0,0,1-.08,1.63C12.74,33.54,12.5,33.54,12.27,33.54Z"/><path class="cls-1" d="M118,49.33c.55.47.47.94,0,1.48-.24-.23-.47-.54-.71-.78s-.31-.31-.23-.46a.48.48,0,0,1,.62-.24C117.79,49.41,117.87,49.33,118,49.33Z"/><path class="cls-1" d="M7.17,52.21a4.35,4.35,0,0,1-1,0c-.16,0-.24-.23-.39-.39l.94-.93c.16.15.39.23.39.39A1.85,1.85,0,0,1,7.17,52.21Z"/><path class="cls-1" d="M4.58,56.57l1,1c-.08.7-.63.39-1,.46A1,1,0,0,1,4.58,56.57Z"/><path class="cls-1" d="M112.54,62.71c.08-.39-.16-.78.23-.93s.47.31.71.46l.23.24.24.23A.88.88,0,0,1,112.54,62.71Z"/><path class="cls-1" d="M8,84.1c-.08-1-.47-1.71.24-2.33.47.31.31.77.39,1.24A1.17,1.17,0,0,1,8,84.1Z"/><path class="cls-1" d="M3.17,86.82c-.47-.7-.47-.7,0-1.4.39.08.94-.23,1,.47C3.87,86.2,3.48,86.51,3.17,86.82Z"/><path class="cls-1" d="M10.07,96.54c-.47.55-.94.47-1.49,0,.24-.23.55-.46.79-.7s.31-.31.47-.23a.49.49,0,0,1,.23.62Z"/><path class="cls-1" d="M14.47,96.93c-.08,0-.24-.08-.32,0-.23.24-.47.47-.7.7-.16-.15-.32-.23-.4-.39a4.25,4.25,0,0,1,0-1h1.49A2.16,2.16,0,0,0,14.47,96.93Z"/><path class="cls-1" d="M13.68,98.72c-.23.39-.78.47-.71,1.09-.07,0-.23.08-.31,0a.85.85,0,0,1-.31-1.17c.08-.23.55-.39.86-.31A2.31,2.31,0,0,1,13.68,98.72Z"/><path class="cls-1" d="M16.58,103.78c.47-.55,1-.55,1.49,0-.23.23-.54.46-.78.7s-.31.31-.47.23a.49.49,0,0,1-.24-.62C16.66,104,16.58,103.86,16.58,103.78Z"/><path class="cls-1" d="M21.68,105.57a.52.52,0,0,1-.23.62,3.09,3.09,0,0,1-1.65.08c-.08,0-.23-.24-.23-.24.07-.15.23-.39.39-.39A6.75,6.75,0,0,1,21.68,105.57Z"/><path class="cls-1" d="M19.57,110.23c-.48.55-.95.55-1.5,0,.24-.23.55-.46.79-.7s.31-.31.47-.23a.49.49,0,0,1,.24.62C19.49,110,19.57,110.08,19.57,110.23Z"/><path class="cls-1" d="M90,109.84a.52.52,0,0,1-.24.63c-.23.23-.62.39-.47.85-.55-.08-.7-.23-.7-.54-.08-.55.15-.86.7-.86A2.16,2.16,0,0,1,90,109.84Z"/><path class="cls-1" d="M40.2,115.6c.55.47.55.93,0,1.48-.24-.24-.47-.55-.71-.78s-.31-.31-.23-.47a.5.5,0,0,1,.63-.23C40,115.68,40.12,115.6,40.2,115.6Z"/><path class="cls-1" d="M69.7,117.08h-1c-.63-.55-.55-.62-.16-1.33C69.39,116.46,69.46,116.46,69.7,117.08Z"/><path class="cls-1" d="M71.11,117.78c-.08.54-.23.7-.55.7-.63.08-.86-.16-.86-.7v-.7c.47-.08.63.23.86.46S70.88,117.86,71.11,117.78Z"/><path class="cls-1" d="M88.61,127.19C88,127,88,127,87.27,126c.71-.39.79-.39,1.34.16Z"/><path class="cls-1" d="M87.9,128.2c.24-.39.79-.47.71-1.09.08,0,.23-.08.31,0a.86.86,0,0,1,.32,1.17c-.08.23-.55.39-.87.31S88.06,128.35,87.9,128.2Z"/><path class="cls-1" d="M92.53,132.94l.24.24c.07.15,0,.31-.32.46H91l-.24-.23c-.07-.15,0-.31.32-.47Z"/><path class="cls-1" d="M92.53,139.72c.24.15.39.31.24.46l-.24.24H91.12c-.24-.16-.32-.32-.24-.47l.24-.23Z"/><path class="cls-1" d="M63.5,4c-.55-.47-.55-.94,0-1.48A.87.87,0,0,1,63.5,4Z"/><path class="cls-1" d="M33.46,9.73h-.7a5,5,0,0,1,0-1.09c.07-.31.31-.39.47-.23s.23.16.23.23Z"/><path class="cls-1" d="M86.41,6.16a4.35,4.35,0,0,1-1,0c-.16,0-.39-.31-.39-.38a.52.52,0,0,1,.55-.32,1.89,1.89,0,0,1,.63.16C86.41,5.62,86.49,5.85,86.41,6.16Z"/><path class="cls-1" d="M96.53,12.62a.52.52,0,0,1-.23.62c-.24.16-.47-.15-.47-.62v-.31l.23-.23c.16-.08.32,0,.47.23C96.61,12.39,96.53,12.54,96.53,12.62Z"/><path class="cls-1" d="M96.45,14.56c-.15.39-.94.39-1.17,0a.14.14,0,0,1,0-.23c.15-.39.94-.39,1.17,0Z"/><path class="cls-1" d="M30.47,17.68c-.47,0-.78-.24-.63-.47a.5.5,0,0,1,.63-.23h.31c.24.15.4.31.24.46s-.16.24-.24.24Z"/><path class="cls-1" d="M103.83,22.34c.47-.54.94-.54,1.49,0C104.77,22.89,104.3,22.89,103.83,22.34Z"/><path class="cls-1" d="M15.88,24.83a.53.53,0,0,1,.63.23c.15.32-.16.55-.63.55h-.32a2.5,2.5,0,0,0-.23-.23c-.08-.16,0-.32.23-.47A.48.48,0,0,1,15.88,24.83Z"/><path class="cls-1" d="M11.56,27a4.27,4.27,0,0,1,0-1c0-.16.32-.39.39-.39a.52.52,0,0,1,.32.54,1.83,1.83,0,0,1-.16.63A.41.41,0,0,1,11.56,27Z"/><path class="cls-1" d="M6.93,27.86c.4.16.4.94,0,1.17a.14.14,0,0,1-.23,0c-.39-.15-.39-.93,0-1.17Z"/><path class="cls-1" d="M14.47,29.89c0,.46-.24.77-.48.62a.49.49,0,0,1-.23-.62v-.31c.16-.24.31-.39.47-.24s.24.16.24.24Z"/><path class="cls-1" d="M9.37,31.36c-.47,0-.79-.23-.63-.46a.5.5,0,0,1,.63-.24h.31c.24.16.39.32.24.47s-.16.23-.24.23Z"/><path class="cls-1" d="M10.07,37.82a4.35,4.35,0,0,1-1,0c-.15,0-.39-.31-.39-.39a.53.53,0,0,1,.55-.31,1.89,1.89,0,0,1,.63.16A.4.4,0,0,1,10.07,37.82Z"/><path class="cls-1" d="M2.54,43.5H2.3a.78.78,0,0,1,0-1.17h.24c.08.08.24.16.24.23v.7C2.78,43.34,2.62,43.42,2.54,43.5Z"/><path class="cls-1" d="M115.86,55.43c-.47.54-.94.54-1.49,0C114.92,54.88,115.39,54.88,115.86,55.43Z"/><path class="cls-1" d="M5.76,65.2A.53.53,0,0,1,5.13,65a1,1,0,0,1,0-.94.5.5,0,0,1,.63-.23Z"/><path class="cls-1" d="M115.91,67.22h-.23a.77.77,0,0,1,0-1.17h.23c.08.08.24.16.24.24V67C116.15,67.07,116,67.14,115.91,67.22Z"/><path class="cls-1" d="M3.56,83.55c.47-.54.94-.54,1.49,0C4.5,84.1,4,84.1,3.56,83.55Z"/><path class="cls-1" d="M103.12,85.34a5,5,0,0,1,1,0c.16,0,.39.31.39.39A.5.5,0,0,1,104,86a1.76,1.76,0,0,1-.63-.15C103.12,85.81,103,85.65,103.12,85.34Z"/><path class="cls-1" d="M7.88,89a4.87,4.87,0,0,1,0,1c0,.16-.32.39-.4.39a.53.53,0,0,1-.31-.55,1.83,1.83,0,0,1,.16-.62A.4.4,0,0,1,7.88,89Z"/><path class="cls-1" d="M100.22,95.45c-.71-.15-.86-.38-.63-1.16,0-.08.16-.16.24-.24s.15.08.23.08.16.16.16.24Z"/><path class="cls-1" d="M100.93,95.45a4.27,4.27,0,0,1,0-1c0-.15.31-.39.39-.39a.54.54,0,0,1,.31.55,1.78,1.78,0,0,1-.16.62A.4.4,0,0,1,100.93,95.45Z"/><path class="cls-1" d="M13,96.15c-.7-.15-.86-.38-.62-1.16,0-.08.15-.16.23-.24s.16.08.24.08a.4.4,0,0,1,.15.24Z"/><path class="cls-1" d="M106.34,99c-.55-.46-.55-.93,0-1.48C106.89,98.1,106.89,98.57,106.34,99Z"/><path class="cls-1" d="M10.78,100.51a4.35,4.35,0,0,1-1,0c-.16,0-.39-.31-.39-.39a.52.52,0,0,1,.55-.31,1.78,1.78,0,0,1,.62.16C10.86,100,10.86,100.28,10.78,100.51Z"/><path class="cls-1" d="M99.83,103.39c.55.47.55.93,0,1.48C99.28,104.32,99.28,103.86,99.83,103.39Z"/><path class="cls-1" d="M92,107.59h-.23a.77.77,0,0,1,0-1.17H92c.08.08.24.16.24.23v.71C92.22,107.43,92.06,107.51,92,107.59Z"/><path class="cls-1" d="M90,109.84c.16-.7.39-.85,1.18-.62.08,0,.15.16.23.24s-.08.15-.08.23a.36.36,0,0,1-.23.15A5,5,0,0,1,90,109.84Z"/><path class="cls-1" d="M94.73,110.62c.55.47.55.94,0,1.48A1,1,0,0,1,94.73,110.62Z"/><path class="cls-1" d="M67.5,117.08a.52.52,0,0,1-.23.62c-.24.16-.47-.16-.47-.62v-.31l.23-.24c.16-.07.32,0,.47.24Z"/><path class="cls-1" d="M87.82,122.13a.54.54,0,0,1,.63.24c.16.23-.16.46-.63.46h-.31l-.24-.23c-.07-.16,0-.31.24-.47C87.59,122.06,87.74,122.13,87.82,122.13Z"/><path class="cls-1" d="M90.73,127.89a4.35,4.35,0,0,1,1,0c.15,0,.39.31.39.39a.54.54,0,0,1-.55.31,1.83,1.83,0,0,1-.63-.16A.4.4,0,0,1,90.73,127.89Z"/><path class="cls-1" d="M89.78,133.8c.4.16.4.93,0,1.17a.15.15,0,0,1-.23,0c-.39-.16-.39-.94,0-1.17C89.63,133.72,89.71,133.8,89.78,133.8Z"/><path class="cls-1" d="M98.73,134.73c-.47.55-.94.55-1.49,0C97.79,134.19,98.26,134.19,98.73,134.73Z"/><path class="cls-1" d="M86.93,141.51c-.47.54-1,.54-1.49,0C86,141,86.46,141,86.93,141.51Z"/><path class="cls-1" d="M75.14,115.31c.47-.55.94-.55,1.49,0C76.16,115.85,75.69,115.85,75.14,115.31Z"/><path class="cls-1" d="M57.6,154.61c-.55-.46-.55-.93,0-1.48A1,1,0,0,1,57.6,154.61Z"/><path class="cls-1" d="M74.62,118.16c-.47,0-.78-.24-.62-.47a.49.49,0,0,1,.62-.23h.32c.23.15.39.31.23.46s-.15.24-.23.24S74.78,118.16,74.62,118.16Z"/><path class="cls-1" d="M41.1,5.44c-.16.08-.32,0-.47-.23L40.86,5c.16-.07.32,0,.47.24Z"/><path class="cls-1" d="M85.63,1.11c.07-.55.15-.62.7-.7C86.33,1,86.25,1,85.63,1.11Z"/><path class="cls-1" d="M85.63,1.42c0,.08-.08.16-.24.23a.28.28,0,0,1-.23.08c-.24-.15-.32-.31-.16-.47s.31-.31.55-.15C85.7,1.11,85.7,1.34,85.63,1.42Z"/><path class="cls-1" d="M71.82,2.2c-.16.23-.32.31-.47.23l-.24-.23c.16-.24.32-.31.47-.24S71.74,2.12,71.82,2.2Z"/><path class="cls-1" d="M26.45,10.91c-.16.08-.32,0-.47-.23l.23-.23c.16-.08.32,0,.47.23Z"/><path class="cls-1" d="M83.43,3.68s-.16.23-.24.23a.86.86,0,0,1-.39-.31c-.16-.31,0-.47.32-.31A1.7,1.7,0,0,1,83.43,3.68Z"/><path class="cls-1" d="M77.31,4.69q-.12,0-.24-.24A.29.29,0,0,1,77,4.22c.15-.23.31-.31.47-.16s.31.32.15.55C77.62,4.69,77.47,4.69,77.31,4.69Z"/><path class="cls-1" d="M37.07,10.43c-.55-.08-.63-.15-.71-.7C36.91,9.81,37,9.89,37.07,10.43Z"/><path class="cls-1" d="M38.25,9.81s.23.16.23.23-.15.39-.31.39c-.32.16-.47,0-.32-.31C37.85,10,38.09,9.89,38.25,9.81Z"/><path class="cls-1" d="M30.61,12.31l-.24-.23c.16-.23.32-.31.47-.23l.24.23C30.92,12.39,30.76,12.39,30.61,12.31Z"/><path class="cls-1" d="M49.22,2.56,49,2.79c-.24-.15-.32-.31-.24-.46L49,2.09C49.22,2.25,49.3,2.4,49.22,2.56Z"/><path class="cls-1" d="M65.46,5.15c-.08-.15,0-.31.24-.46l.23.23c.08.16,0,.31-.23.47C65.62,5.39,65.54,5.23,65.46,5.15Z"/><path class="cls-1" d="M78.33,5.15s-.16.24-.24.24a.86.86,0,0,1-.39-.31c-.15-.32,0-.47.32-.32C78.09,4.76,78.25,5,78.33,5.15Z"/><path class="cls-1" d="M82.17,5.15c-.07-.15,0-.31.24-.46l.23.23c.08.16,0,.31-.23.47C82.33,5.39,82.25,5.23,82.17,5.15Z"/><path class="cls-1" d="M37.78,10.43c-.08.55-.24.7-.47.62a.48.48,0,0,1-.24-.62Z"/><path class="cls-1" d="M94.49,5.15c-.08-.15,0-.31.24-.46l.23.23c.08.16,0,.31-.23.47Z"/><path class="cls-1" d="M81.08,6c-.16.08-.32,0-.47-.23l.23-.24c.16-.08.31,0,.47.24Z"/><path class="cls-1" d="M56,5.15c-.24-1.74-.63-1-.79-1.27l.24-.23a1,1,0,0,1,.9.23C56.32,4,56.28,3.41,56,5.15Z"/><path class="cls-1" d="M62.32,6.63l-.23.23c-.24-.15-.31-.31-.24-.46l.24-.24A.35.35,0,0,1,62.32,6.63Z"/><path class="cls-1" d="M68.13,6.63l-.24.23c-.23-.15-.31-.31-.23-.46l.23-.24A.35.35,0,0,1,68.13,6.63Z"/><path class="cls-1" d="M72.29,6.24s.23.16.23.24-.15.38-.31.38c-.31.16-.47,0-.31-.31A.77.77,0,0,1,72.29,6.24Z"/><path class="cls-1" d="M46.55,4.74c-.07-.16,0-.31.24-.47L47,4.5c.07.16,0,.31-.24.47C46.71,5,46.63,4.81,46.55,4.74Z"/><path class="cls-1" d="M54.32,5.44l-.23.23c-.24-.16-.32-.31-.24-.47L54.09,5C54.32,5.13,54.4,5.28,54.32,5.44Z"/><path class="cls-1" d="M93.79,8c-.08-.15,0-.31.23-.47l.24.24c.08.15,0,.31-.24.46Z"/><path class="cls-1" d="M95.59,7.72l.24.23c-.16.24-.32.31-.47.24L95.12,8C95.28,7.72,95.43,7.64,95.59,7.72Z"/><path class="cls-1" d="M92,8.42l.24.23c-.16.24-.32.31-.47.24l-.24-.24C91.67,8.42,91.82,8.34,92,8.42Z"/><path class="cls-1" d="M42.63,6.91l-.23.24c-.24-.16-.32-.31-.24-.47l.24-.23C42.63,6.6,42.71,6.76,42.63,6.91Z"/><path class="cls-1" d="M93.39,9.12l.24.23c-.16.24-.31.31-.47.24l-.24-.24C93.08,9.12,93.24,9,93.39,9.12Z"/><path class="cls-1" d="M97.16,10.91l-.24.23c-.23-.15-.31-.31-.23-.46l.23-.24C97.16,10.6,97.24,10.75,97.16,10.91Z"/><path class="cls-1" d="M21.84,11.38l.24-.24c.23.16.31.31.23.47l-.23.23A.32.32,0,0,1,21.84,11.38Z"/><path class="cls-1" d="M94.88,11.76c-.15.08-.31,0-.47-.23l.24-.23c.16-.08.31,0,.47.23Z"/><path class="cls-1" d="M18.31,12.7c.16-.08.31,0,.47.23l-.23.23c-.16.08-.32,0-.48-.23Z"/><path class="cls-1" d="M92.22,13.32c.08-.54.23-.7.47-.62a.49.49,0,0,1,.23.62Z"/><path class="cls-1" d="M41.85,11.35c-.16.08-.32,0-.47-.24l.23-.23c.16-.08.32,0,.47.23Z"/><path class="cls-1" d="M97,15.58s.24.15.24.23-.16.39-.32.39c-.31.15-.47,0-.31-.31C96.61,15.73,96.85,15.65,97,15.58Z"/><path class="cls-1" d="M33.27,6.44,33,6.21c.16-.23.31-.31.47-.23l.23.23C33.59,6.44,33.43,6.52,33.27,6.44Z"/><path class="cls-1" d="M24,16.43l.23-.23c.24.15.32.31.24.46l-.24.24A.35.35,0,0,1,24,16.43Z"/><path class="cls-1" d="M32.75,16.43,33,16.2c.24.15.32.31.24.46L33,16.9A.35.35,0,0,1,32.75,16.43Z"/><path class="cls-1" d="M36.57,6.83c.08.16,0,.31-.24.47l-.23-.23c-.08-.16,0-.32.23-.47C36.33,6.52,36.49,6.75,36.57,6.83Z"/><path class="cls-1" d="M102,19.08c.24.15.32.31.24.46l-.24.24c-.23-.16-.31-.32-.23-.47S101.94,19.15,102,19.08Z"/><path class="cls-1" d="M14.78,19.85c.23.16.31.31.23.47l-.23.23c-.24-.15-.31-.31-.24-.46S14.7,19.93,14.78,19.85Z"/><path class="cls-1" d="M19.8,19.93c.16-.08.31,0,.47.23L20,20.4c-.16.08-.32,0-.47-.24Z"/><path class="cls-1" d="M31.7,10.64c-.07-.15,0-.31.24-.46l.24.23c.07.16,0,.31-.24.47Z"/><path class="cls-1" d="M13.13,20.79l.24-.24c.23.16.31.31.23.47l-.23.23C13.13,21.1,13.05,20.94,13.13,20.79Z"/><path class="cls-1" d="M23.88,20.86c-.16.24-.31.32-.47.24l-.24-.24c.16-.23.32-.31.48-.23Z"/><path class="cls-1" d="M99.91,20.63s.23.16.23.23-.16.39-.31.39c-.32.16-.47,0-.32-.31A.84.84,0,0,1,99.91,20.63Z"/><path class="cls-1" d="M14,24.05l-.23-.23c.16-.23.31-.31.47-.23l.24.23C14.31,24.05,14.15,24.13,14,24.05Z"/><path class="cls-1" d="M14.31,25.38l-.24.23c-.23-.16-.31-.31-.23-.47l.23-.23A.33.33,0,0,1,14.31,25.38Z"/><path class="cls-1" d="M11.56,27.32c0,.08-.08.16-.23.23a.29.29,0,0,1-.24.08c-.23-.15-.31-.31-.15-.47s.31-.31.54-.15A.45.45,0,0,1,11.56,27.32Z"/><path class="cls-1" d="M108.27,27.63,108,27.4c.16-.24.32-.31.47-.24l.24.24C108.58,27.63,108.42,27.71,108.27,27.63Z"/><path class="cls-1" d="M55.53.5,55.3.26c.16-.23.31-.31.47-.23L56,.26C55.85.5,55.69.57,55.53.5Z"/><path class="cls-1" d="M107.48,29.26c.16-.07.32,0,.47.24l-.23.23c-.16.08-.32,0-.47-.23A.61.61,0,0,0,107.48,29.26Z"/><path class="cls-1" d="M10.94,30.35c-.08-.15,0-.31.23-.46l.24.23c.07.16,0,.31-.24.47Z"/><path class="cls-1" d="M110.78,31.13l-.24.23c-.23-.15-.31-.31-.23-.46l.23-.24A.35.35,0,0,1,110.78,31.13Z"/><path class="cls-1" d="M108.77,31.83l-.23.23c-.24-.15-.32-.31-.24-.46l.24-.24C108.77,31.52,108.85,31.68,108.77,31.83Z"/><path class="cls-1" d="M12.27,33.85q0,.12-.24.24a.3.3,0,0,1-.23.07c-.24-.15-.32-.31-.16-.46s.31-.31.55-.16C12.27,33.54,12.27,33.7,12.27,33.85Z"/><path class="cls-1" d="M7.33,38.29c-.08-.16,0-.31.23-.47l.24.23c.08.16,0,.31-.24.47C7.48,38.52,7.4,38.36,7.33,38.29Z"/><path class="cls-1" d="M2.3,39.14l-.23-.23c.16-.23.31-.31.47-.23l.24.23A.36.36,0,0,1,2.3,39.14Z"/><path class="cls-1" d="M3.09,40.08c.16-.08.31,0,.47.23l-.24.23c-.15.08-.31,0-.47-.23C2.78,40.31,3,40.15,3.09,40.08Z"/><path class="cls-1" d="M115.21,40.85l.23.24c-.16.23-.31.31-.47.23l-.24-.23C114.89,40.85,115.05,40.78,115.21,40.85Z"/><path class="cls-1" d="M114.5,42.25l.23.24c-.15.23-.31.31-.47.23l-.23-.23C114.18,42.25,114.34,42.18,114.5,42.25Z"/><path class="cls-1" d="M9.21,43.11c.08.15,0,.31-.24.47l-.23-.24c-.08-.15,0-.31.23-.46C9.05,42.88,9.13,43,9.21,43.11Z"/><path class="cls-1" d="M116.77,47.47c.08.15,0,.31-.23.46l-.24-.23c-.08-.16,0-.31.24-.47C116.62,47.15,116.69,47.39,116.77,47.47Z"/><path class="cls-1" d="M3.56,51.12c-.16.23-.31.31-.47.23l-.24-.23c.16-.23.32-.31.47-.23Z"/><path class="cls-1" d="M4.89,52.75,4.66,53c-.24-.16-.32-.31-.24-.47l.24-.23A.32.32,0,0,1,4.89,52.75Z"/><path class="cls-1" d="M2.7,54.85l-.24.24c-.23-.16-.31-.31-.23-.47l.23-.23C2.7,54.54,2.78,54.7,2.7,54.85Z"/><path class="cls-1" d="M.5,57.73.26,58C0,57.81,0,57.65,0,57.5l.23-.23C.5,57.42.58,57.58.5,57.73Z"/><path class="cls-1" d="M116.77,57.5c.08.15,0,.31-.23.47l-.24-.24c-.08-.15,0-.31.24-.46C116.62,57.27,116.69,57.42,116.77,57.5Z"/><path class="cls-1" d="M118.5,57.73c-.08-.15,0-.31.24-.46l.23.23c.08.15,0,.31-.23.47C118.66,58,118.58,57.81,118.5,57.73Z"/><path class="cls-1" d="M2.93,59.21c-.08-.16,0-.31.24-.47L3.4,59c.08.15,0,.31-.23.46Z"/><path class="cls-1" d="M115.24,60c.16-.08.32,0,.47.24l-.23.23c-.16.08-.32,0-.47-.23Z"/><path class="cls-1" d="M4.66,60.14c-.08,0-.16-.07-.24-.23a.28.28,0,0,1-.08-.23c.16-.24.32-.31.48-.16s.31.31.15.55C5,60.22,4.74,60.22,4.66,60.14Z"/><path class="cls-1" d="M.63,61.3c.24.16.32.32.24.47L.63,62c-.23-.15-.31-.31-.23-.46S.47,61.38.63,61.3Z"/><path class="cls-1" d="M5.68,60.61s-.16.23-.24.23a.75.75,0,0,1-.39-.31c-.16-.31,0-.46.31-.31C5.44,60.22,5.52,60.45,5.68,60.61Z"/><path class="cls-1" d="M3.25,70.25c-.08,0-.16-.07-.24-.23a.27.27,0,0,1-.08-.23c.16-.24.32-.31.47-.16s.32.31.16.55A.52.52,0,0,1,3.25,70.25Z"/><path class="cls-1" d="M3.56,71v-.7c.55.08.63.16.71.7Z"/><path class="cls-1" d="M3.56,71.27c0,.07-.08.15-.24.23a.26.26,0,0,1-.23.08c-.24-.16-.31-.31-.16-.47s.32-.31.55-.16A.48.48,0,0,1,3.56,71.27Z"/><path class="cls-1" d="M1.42,64.15c-.16.08-.32,0-.47-.23l.23-.24c.16-.08.31,0,.47.24C1.65,64,1.49,64.07,1.42,64.15Z"/><path class="cls-1" d="M109.79,73.6c-.08-.16,0-.31.24-.47l.23.24c.08.15,0,.31-.23.46C110,73.83,109.87,73.68,109.79,73.6Z"/><path class="cls-1" d="M4,62.38c.16-.08.32,0,.47.23l-.23.23c-.16.08-.32,0-.47-.23C3.8,62.53,4,62.45,4,62.38Z"/><path class="cls-1" d="M108.93,74.53h-.71c.08-.54.24-.7.47-.62A.51.51,0,0,1,108.93,74.53Z"/><path class="cls-1" d="M109.56,75s-.16.23-.24.23-.39-.15-.39-.31c-.16-.31,0-.47.31-.31A.77.77,0,0,1,109.56,75Z"/><path class="cls-1" d="M109.56,76.48l-.24.23c-.24-.16-.31-.31-.24-.47l.24-.23C109.56,76.17,109.63,76.32,109.56,76.48Z"/><path class="cls-1" d="M2.7,77.18l-.24.23c-.23-.16-.31-.31-.23-.47l.23-.23C2.7,76.87,2.78,77,2.7,77.18Z"/><path class="cls-1" d="M108.85,77.88s-.16.23-.24.23-.39-.16-.39-.31c-.15-.31,0-.47.32-.31A.81.81,0,0,1,108.85,77.88Z"/><path class="cls-1" d="M1.6,79.51l-.24-.23c.16-.24.32-.31.47-.24l.24.24C1.91,79.51,1.76,79.59,1.6,79.51Z"/><path class="cls-1" d="M3.4,81.3c.08.15,0,.31-.23.47l-.24-.24c-.08-.15,0-.31.24-.46C3.25,81.07,3.32,81.22,3.4,81.3Z"/><path class="cls-1" d="M5.84,82.7l.23-.23c.24.15.31.31.24.46l-.24.24A.33.33,0,0,1,5.84,82.7Z"/><path class="cls-1" d="M2.54,84.57c-.16.07-.31,0-.47-.24l.23-.23c.16-.08.32,0,.48.23C2.85,84.33,2.62,84.49,2.54,84.57Z"/><path class="cls-1" d="M105.24,84.33s-.16.24-.24.24a.82.82,0,0,1-.39-.32c-.15-.31,0-.46.32-.31A3,3,0,0,0,105.24,84.33Z"/><path class="cls-1" d="M112.46,85.65c.08.16,0,.32-.24.47l-.23-.23c-.08-.16,0-.31.23-.47C112.22,85.34,112.38,85.5,112.46,85.65Z"/><path class="cls-1" d="M114.11,85.89c-.08-.16,0-.31.23-.47l.24.23c.07.16,0,.32-.24.47Z"/><path class="cls-1" d="M106.89,88c-.08-.16,0-.31.23-.47l.24.23c.08.16,0,.32-.24.47C107,88.3,107,88.07,106.89,88Z"/><path class="cls-1" d="M4.74,88.84c-.16.08-.32,0-.47-.23l.23-.23c.16-.08.32,0,.47.23C5,88.69,4.82,88.77,4.74,88.84Z"/><path class="cls-1" d="M105.16,88.77l-.23.23c-.24-.16-.32-.31-.24-.47l.24-.23A.35.35,0,0,1,105.16,88.77Z"/><path class="cls-1" d="M100.14,93s-.16.24-.23.24-.4-.16-.4-.31c-.15-.32,0-.47.32-.32C99.91,92.65,100.06,92.89,100.14,93Z"/><path class="cls-1" d="M105.55,93.2c-.07-.08-.23-.23-.23-.23.16-.24.31-.32.47-.24L106,93C105.87,93.2,105.71,93.28,105.55,93.2Z"/><path class="cls-1" d="M103,94.29c.08.15,0,.31-.23.46,0,0-.16-.15-.23-.23s0-.31.23-.47C102.81,94.05,102.89,94.21,103,94.29Z"/><path class="cls-1" d="M112.07,94.6l-.24-.23c.16-.24.31-.32.47-.24l.24.24C112.38,94.6,112.22,94.68,112.07,94.6Z"/><path class="cls-1" d="M100.22,95.45h.71c-.08.55-.24.7-.47.63A.49.49,0,0,1,100.22,95.45Z"/><path class="cls-1" d="M102.65,96.08l-.23-.24c.15-.23.31-.31.47-.23s.23.23.23.23C103,96.08,102.81,96.15,102.65,96.08Z"/><path class="cls-1" d="M10.78,98c-.16.23-.32.31-.47.23L10.07,98c.16-.23.32-.31.47-.23S10.7,97.94,10.78,98Z"/><path class="cls-1" d="M8.11,99.65l-.23-.23c.15-.23.31-.31.47-.23l.23.23A.35.35,0,0,1,8.11,99.65Z"/><path class="cls-1" d="M11.48,101s-.15.23-.23.23-.39-.15-.39-.31c-.16-.31,0-.47.31-.31C11.25,100.59,11.41,100.82,11.48,101Z"/><path class="cls-1" d="M94.1,101.91c-.08,0-.16-.08-.24-.23a.32.32,0,0,1-.07-.24c.15-.23.31-.31.47-.15s.31.31.15.54A.19.19,0,0,1,94.1,101.91Z"/><path class="cls-1" d="M14.23,102.53c-.16.08-.31,0-.47-.23l.23-.23c.16-.08.32,0,.48.23C14.47,102.38,14.31,102.46,14.23,102.53Z"/><path class="cls-1" d="M95,102.38s-.16.23-.23.23a.78.78,0,0,1-.4-.31c-.15-.31,0-.47.32-.31A.81.81,0,0,1,95,102.38Z"/><path class="cls-1" d="M15.8,102.92c.08.16,0,.31-.24.47l-.23-.24c-.08-.15,0-.31.23-.46Z"/><path class="cls-1" d="M94.18,106.89c-.16.08-.32,0-.47-.24l.23-.23c.16-.08.32,0,.47.23Z"/><path class="cls-1" d="M22.15,107s.24.16.24.24-.16.39-.31.39c-.32.15-.47,0-.32-.31C21.76,107.28,22,107.12,22.15,107Z"/><path class="cls-1" d="M21,108.44c.08-.54.15-.62.7-.7C21.61,108.29,21.53,108.37,21,108.44Z"/><path class="cls-1" d="M21,108.75q0,.12-.24.24a.27.27,0,0,1-.23.08c-.24-.16-.32-.32-.16-.47s.31-.31.55-.16C21,108.44,21,108.68,21,108.75Z"/><path class="cls-1" d="M23.88,108.75c0,.08-.08.16-.23.24a.29.29,0,0,1-.24.08c-.24-.16-.31-.32-.16-.47s.32-.31.55-.16S23.88,108.68,23.88,108.75Z"/><path class="cls-1" d="M99,110.7c.16-.08.32,0,.47.23l-.23.24c-.16.07-.31,0-.47-.24Z"/><path class="cls-1" d="M101.79,112.49c-.08-.16,0-.31.23-.47l.24.23c.08.16,0,.32-.24.47C101.94,112.72,101.87,112.57,101.79,112.49Z"/><path class="cls-1" d="M23.25,114c-.08-.16,0-.32.24-.47l.23.23c.08.16,0,.31-.23.47Z"/><path class="cls-1" d="M74.8,113.81c-.16.23-.31.31-.47.23l-.24-.23c.16-.23.32-.31.47-.23S74.64,113.73,74.8,113.81Z"/><path class="cls-1" d="M93.55,114l-.23.23c-.24-.16-.32-.31-.24-.47l.24-.23C93.55,113.65,93.63,113.81,93.55,114Z"/><path class="cls-1" d="M100,115.52c-.15.08-.31,0-.47-.23l.24-.23c.16-.08.31,0,.47.23Z"/><path class="cls-1" d="M36.75,115.75,37,116c-.15.23-.31.31-.47.23l-.23-.23C36.43,115.75,36.59,115.68,36.75,115.75Z"/><path class="cls-1" d="M93.55,115.91c.08.16,0,.31-.23.47l-.24-.24c-.08-.15,0-.31.24-.46C93.32,115.6,93.47,115.83,93.55,115.91Z"/><path class="cls-1" d="M43.89,117.08q-.12,0-.24-.24a.26.26,0,0,1-.08-.23c.16-.23.32-.31.47-.15s.32.31.16.54C44.2,117.08,44,117.08,43.89,117.08Z"/><path class="cls-1" d="M44.91,117.54s-.16.24-.24.24a.81.81,0,0,1-.39-.31c-.16-.32,0-.47.31-.32C44.67,117.15,44.83,117.39,44.91,117.54Z"/><path class="cls-1" d="M71.58,117.15s.24.16.24.24a.82.82,0,0,1-.32.39c-.31.15-.47,0-.31-.31C71.19,117.31,71.43,117.23,71.58,117.15Z"/><path class="cls-1" d="M92.45,117.23c.16-.08.32,0,.47.24l-.23.23c-.16.08-.32,0-.47-.23C92.22,117.39,92.37,117.31,92.45,117.23Z"/><path class="cls-1" d="M90.65,118c.08.16,0,.31-.24.47l-.23-.24c-.08-.15,0-.31.23-.46Z"/><path class="cls-1" d="M100.3,118l.23-.23c.24.15.32.31.24.46l-.24.24A.35.35,0,0,1,100.3,118Z"/><path class="cls-1" d="M96,118.79l.24-.23c.23.15.31.31.23.46l-.23.23C96,119.1,95.9,118.94,96,118.79Z"/><path class="cls-1" d="M60.6,120q-.12,0-.24-.24a.27.27,0,0,1-.08-.23c.16-.24.32-.31.48-.16s.31.31.15.55C60.91,120,60.76,120,60.6,120Z"/><path class="cls-1" d="M103.2,119.72c-.08-.15,0-.31.24-.47l.23.24c.08.15,0,.31-.23.47Z"/><path class="cls-1" d="M98.1,120.42c-.08-.15,0-.31.24-.46l.23.23c.08.15,0,.31-.23.46A.61.61,0,0,0,98.1,120.42Z"/><path class="cls-1" d="M105.4,120.42c-.08-.15,0-.31.23-.46l.24.23c.08.15,0,.31-.24.46Z"/><path class="cls-1" d="M70.48,121.12c-.07-.15,0-.31.24-.47l.23.24c.08.15,0,.31-.23.47C70.72,121.43,70.64,121.28,70.48,121.12Z"/><path class="cls-1" d="M65.54,121.51c.16-.08.32,0,.47.23l-.23.24c-.16.08-.32,0-.47-.24Z"/><path class="cls-1" d="M88.61,123.92c-.16.23-.32.31-.47.23l-.24-.23c.16-.23.32-.31.47-.23S88.45,123.84,88.61,123.92Z"/><path class="cls-1" d="M93.39,124.15c-.15.08-.31,0-.47-.23l.24-.23c.16-.08.31,0,.47.23Z"/><path class="cls-1" d="M99.91,123.61s.23.16.23.23a.81.81,0,0,1-.31.39c-.32.16-.47,0-.32-.31A1.74,1.74,0,0,1,99.91,123.61Z"/><path class="cls-1" d="M21.42,112c-.08-.16,0-.32.24-.47,0,0,.16.15.23.23s0,.31-.23.47Z"/><path class="cls-1" d="M60.13,124.78l-.24.23c-.23-.15-.31-.31-.23-.47l.23-.23C60.13,124.47,60.21,124.62,60.13,124.78Z"/><path class="cls-1" d="M99.43,124.62c0,.08-.07.16-.23.24a.32.32,0,0,1-.24.07c-.23-.15-.31-.31-.15-.46s.31-.32.55-.16C99.51,124.31,99.51,124.47,99.43,124.62Z"/><path class="cls-1" d="M90.26,126.33,90,126.1c.16-.23.31-.31.47-.23l.24.23C90.57,126.33,90.41,126.41,90.26,126.33Z"/><path class="cls-1" d="M96.69,127.42l.23-.23c.24.15.32.31.24.46l-.24.24C96.69,127.73,96.61,127.58,96.69,127.42Z"/><path class="cls-1" d="M99.36,128.35l-.24.24c-.23-.16-.31-.31-.23-.47l.23-.23C99.36,128,99.43,128.2,99.36,128.35Z"/><path class="cls-1" d="M87.74,129.83l-.23.24c-.24-.16-.31-.31-.24-.47l.24-.23A.34.34,0,0,1,87.74,129.83Z"/><path class="cls-1" d="M90.65,130.3c.08.16,0,.31-.24.47l-.23-.24c-.08-.15,0-.31.23-.46Z"/><path class="cls-1" d="M26,117.93c.16-.08.31,0,.47.23l-.24.23c-.15.08-.31,0-.47-.23Z"/><path class="cls-1" d="M95.2,134.11c-.08-.15,0-.31.23-.47l.24.24c.08.15,0,.31-.24.46Z"/><path class="cls-1" d="M65.07,135.67c-.16.07-.31,0-.47-.24l.24-.23c.15-.08.31,0,.47.23C65.31,135.51,65.15,135.59,65.07,135.67Z"/><path class="cls-1" d="M73.94,134.43l-.24.23c-.23-.15-.31-.31-.23-.47l.23-.23C73.94,134.12,74,134.27,73.94,134.43Z"/><path class="cls-1" d="M87,136.6l-.24.24c-.23-.16-.31-.31-.23-.47l.23-.23C87,136.22,87,136.37,87,136.6Z"/><path class="cls-1" d="M66.25,139.32l-.24-.23c.16-.24.32-.31.47-.24l.24.24A.33.33,0,0,1,66.25,139.32Z"/><path class="cls-1" d="M66.64,141.11c.08.16,0,.31-.24.47l-.23-.24c-.08-.15,0-.31.23-.46Z"/><path class="cls-1" d="M68.44,142.2l-.23-.23c.16-.24.31-.32.47-.24l.23.24C68.76,142.2,68.6,142.28,68.44,142.2Z"/><path class="cls-1" d="M58.32,147.27c.16-.08.32,0,.47.23l-.23.23c-.16.08-.32,0-.47-.23C58,147.5,58.24,147.34,58.32,147.27Z"/><path class="cls-1" d="M57,140.72c.08.16,0,.31-.23.47l-.24-.23c-.08-.16,0-.31.24-.47C56.8,140.41,57,140.65,57,140.72Z"/><path class="cls-1" d="M76.66,118.7l-.23.24c-.24-.16-.32-.32-.24-.47l.24-.23C76.74,118.31,76.74,118.47,76.66,118.7Z"/><path class="cls-1" d="M46.46,121.26l-.23.24c-.24-.16-.32-.31-.24-.47l.24-.23C46.46,121,46.54,121.11,46.46,121.26Z"/><path class="cls-1" d="M58.17,130.5c-.08-.15,0-.31.23-.46l.24.23c.08.15,0,.31-.24.47Z"/><path class="cls-1" d="M90.41,127.89c-.08,0-.15-.08-.23-.24a.26.26,0,0,1-.08-.23c.16-.23.31-.31.47-.15s.31.31.16.54C90.73,127.89,90.49,127.89,90.41,127.89Z"/></svg>