<svg xmlns="http://www.w3.org/2000/svg" viewBox="0 0 1282 4" preserveAspectRatio="none">
    <defs>
        <style>
            .cls-1 {
                fill: #f4decc;
            }
        </style>
    </defs>
    <path class="cls-1"
        d="M.25,2.23C.33,1.45,1.44.59,8.47.55,9.62.5,11.42.55,12.56.5,59.66.55,61.19.21,65.9.21c6.28-.16,6.28,1,49.95.55,10,0,20,.05,30,0L195,.21c6.38-.15,12.76-.29,18.74-.16C253.29.3,514.07.6,553.75,1c18.89.1,37.14.09,56.53,0,18.24,0,37-.17,55.71-.32,12.93,0,25.93.05,38.94.14,5.89,0,12,.27,17.92.4,13.09.22,26.34.69,39.75.5,18.74-.16,36-.19,54.62-.29,5.4.15,8.56,0,14.37-.08,7.46.19,13.88-.07,21.84-.12,10-.05,21.48-.51,31.7-.17,3.6.11,15-.32,17.52,0,3.84.49,4.73-.62,3.5.21-.65.81-14.18-.23-18.6.22-5.07.35-9.52.11-14.83.08-11.21,0-20.63.31-31.75.4-13.5.06-27.49.28-41,.34-6.47,0-13.58-.07-20,.08-18.49.54-36.33.26-54.65.14-13.58-.06-27.33-.38-40.83-.32-38.12.21-76.55-.72-115.17-.35-11.12.09-22.74.33-32.88.11-15.63-.49-30.78.18-47.14.37-22.25.17-266.82-.06-289,.24-11.13.09-22.26.18-32.81.25-8.75.11-17.59.1-26.34.22-7.61.07-15.22.14-22.34,0C106.44,3,94.58,2.82,82.14,2.7q-30.91,0-61.36.7a41.86,41.86,0,0,1-6.62-.24c-3.36-.63-7.08,1.31-8.63.73-2.2-1.6-3.9.5-5.53-1.12l.57,0Z" />
    <path class="cls-1"
        d="M819.77,1.28c10.94-.08,21.37-.26,32.3-.34h29.51c3.65.16-10.57.63,35.69.59,13.15,0,105-1.41,109.73.45.19.85-31.42.5-34.7.53C969,2.57,970.44,3.57,947,3.21c-41.79-.51-38.16-.1-48.42,0S817.77,2.9,815.64,2C815.06,1.75,812.06,1.81,819.77,1.28Z" />
    <path class="cls-1"
        d="M1282,1.56c0-.18-.22-.22-2-.23-.28,0-.73,0-1,0l-13.6-.07-12.17-.05c-2.49,0-5,0-7.49,0l-12.22-.14c-1.58,0-3.17-.07-4.67,0-9.9.05-85.53.18-95.46.25-4.73,0-9.28,0-14.12,0-4.56,0-9.22-.05-13.89-.09-3.23,0-6.48,0-9.73,0-1.48,0-3,.05-4.51.08-3.28.05-6.62.15-10,.11-4.67,0-9.11,0-13.64.1-1.36,0-2.8,0-4.24,0s-3.11-.13-4.78-.08c-2.55.05-5.35.05-7.93.13-.9,0-1.84.07-2.49.14-1,.11-1.24,0-1,.14a7.6,7.6,0,0,0,2.31.34c1.24.08,2.37.12,3.7.12,2.8,0,5.57,0,8.35,0,3.36,0,6.84.07,10.21.08,1.61,0,3.39,0,5,0,4.58.12,9,.07,13.63,0,3.4,0,6.85-.08,10.22-.06,9.5.06,19.12.15,28.74.24,2.77,0,5.65.08,8.2,0,3.94-.11,8-.09,12.11,0,5.54,0,76.45.31,82,.38,2.77,0,5.85-.2,8.48-.18,2.18,0,4.39,0,6.56.06,1.9,0,3.79,0,5.58,0l9.2-.07c5.14,0,10.24.06,15.27.17a12.05,12.05,0,0,0,1.67-.05,21.64,21.64,0,0,0,2.19-.42,13.7,13.7,0,0,0,1.55-.84h-.14Z" />
</svg>