<svg id="Layer_1" data-name="Layer 1" xmlns="http://www.w3.org/2000/svg" viewBox="0 0 260 278"><defs><style>.cls-1{opacity:0.3;}.cls-2{fill:#f2c94c;}</style></defs><g class="cls-1"><path class="cls-2" d="M131.54,235.81c.92.46,1.53.61,1.53,1.08.15,1.38.15,2.77.31,3.85-.31,1.39-2.26.3-1.19,2.46,0,0,1-.46,1.48,0-.46,1.23.46.62,0,2,.62.62.87-1.55,1.48-.93a5.44,5.44,0,0,1,1.48.4c.77.31,2.42-3.32,2.27-2.55,0,1.23,3.64-1.65,3.64-.41,0,.46-1.18,1-1.18,1.48l1.07,1.08c0,.77,4.55-4.16,4.55-2.92-.31.3-.77.92-1.23,1.38.31,1.39,2.3.16,2.76,2,0,3.85-2.27-1.24-2.27,2.93-.46.46,1.94.92,1.48,1.38,0,.93-2,.16-2,.93.46.61,1.51.61,2,1.08-1.84,2,1.7-1,3.7,1,1.48.23.23-2.54.87-4.88.3-.3,1.62,1.64,2.08,1.18a5.33,5.33,0,0,0,1.88-1.95,5.15,5.15,0,0,0-1.69-6.32c-.31-.46-.77-.92-1.23-1.54.31-.31.46-.77.77-.77a10.27,10.27,0,0,1,2.15,0,1.24,1.24,0,0,0,1.22-.77v-2.93c-.46-1.23-2.3-.15-2.76-1.54.15-.15.31-.46.46-.46,1.38-.16,2.76-.16,4.15-.31.61.46,1.07.92,1.68,1.39a4.33,4.33,0,0,1,1.38.15,15.29,15.29,0,0,0,1.54,1.39c1.23-.46.15-2.31,1.53-2.78l.46.47a2.39,2.39,0,0,0,.93.61,1,1,0,0,0,.61-1.08,1,1,0,0,1,.46-1.23c.31-.15.61,0,1.08.46.46.62,1.07.77,2.3.62.61-.92,1.38-2,2-2.78h4.91c.62.31.77.78.46,1.08L177,231.8c-.46,0-1.23.15-1.85.15s.92-.3.46.47c.46.46,0,.61.46,1.07,0,.62-.41.93.51,1.55a18,18,0,0,1,1.8-1.55c.61.62,2.3-1.69,2.91-1.07,0,.92,1.21,2.29,1.21,3.37,2.86-3.39,2.68-4.61,2.21-4,.7-.93,2.22-1.39,2.22,1.39-.46.46.74-.12,1.48-1.39,0,.92,1.48-2.86,1.48-1.94,1.94,1.23-2.22,4.22,0,3.48-.31-.46,1.2.93.74.31,0-.77,2.22.1,2.22-.83-.46-.61,1.49-1.48.88-2.1,0-1.39,2,.77,2-.62.46-.46-.46-1.26,0-1.72,0-2.31,2,3,2,.64.46-.61-.62-1.84,0-2.46,0-3.39-2-.93-2-4.16.46-.93,1.23-.62,2-.77a14.08,14.08,0,0,0,1.53,1.38c.15.16.46,0,.77,0v-2.16a13.34,13.34,0,0,1-1.38-1.54,10.18,10.18,0,0,0,1.23-1.38,15.58,15.58,0,0,0-1.39-1.55c.16-1.84.16-2,2-2,.92.93,2,1.85,2.92,2.78.15.15.45,0,.61,0V215a25.27,25.27,0,0,0,2-2,6.79,6.79,0,0,0,2.15-.92l-.92-.93c-.3-.3-.15-.61.31-1.07a5,5,0,0,0,.77-1.08c0-.78.15-1.7.76-1.7s.62,1.08.77,1.7c0,.3.62.92.77.77a1,1,0,0,0,.61-1.08c.16-1.39.31-1.39,1.69-1.54.15,0,.46-.16.61-.16.62-.61,1.39-1.38,2-2,.15-.16,0-.46,0-.62a1,1,0,0,1-1.23-.46c-.3-.46.16-.77,1.54-.93h-.31a.94.94,0,0,1,.31-1.07c.3-.31.61-.31.92.3,0,.16-.16.31-.16.47a1.67,1.67,0,0,1-.76.46,2.27,2.27,0,0,0-.31,1.39,8.92,8.92,0,0,0,2,0c.3,0,.76-.62.76-.93a24,24,0,0,0,0-3.39,1,1,0,0,1-1.23-.46c-.3-.47.16-.77,1.23-.93v-2.16c.62-.61,1.38-1.23,2.15-2h3.84a5.14,5.14,0,0,0,2.3-2.47c-.92-1.08-2.3-.15-3.22-.61a16.73,16.73,0,0,1-1.69,1.54h-1.38c-1.08-1.23-2.3-2.31-3.38-3.55.31-.3.62-.77.92-.77,2.3-.15,4.61-.15,6.91-.15.15,0,.31-.31.46-.46a14.39,14.39,0,0,1-1.38-1.55c-.15-.15,0-.46,0-.61a1,1,0,0,1-1.23-.46c-.31-.47.15-.77,1.23-.93v-1.39h-2c-.15,0-.3-.15-.46-.31s-.31-.3-.15-.46.31-.46.46-.46c1.53-.46,2-.15,2.3,1.23a1,1,0,0,0,1.23-.46c.46-.77,0-1.85,1.07-2.31h1.23A11.06,11.06,0,0,0,229,181.7c.92-.46.61-1.23.61-2.16-.61-.61-1.38-1.23-2.3-2.15-.62-.31-1.84.46-2.92-.31-.15-.16-.3-.31-.3-.46a.69.69,0,0,1,.45-.47,4.91,4.91,0,0,1,1.54-.15,22.77,22.77,0,0,1,2-1.85c.46-1.39.15-2.78.3-4.16a7.31,7.31,0,0,1,2-2.31c.92-.31,1.53-.47,2.3-.78-1.07-1.08-2-2.15-2.92-3.08l2.46-2.47a.69.69,0,0,0-.46-.92c-.15-.15-.46,0-.77,0a1,1,0,0,1-1.23-.46c-.15-.46.46-.93,1.39-.93h2.14a4.43,4.43,0,0,0,1.39-.15l2-2c-.77-1.38-2.15-.46-3.22-.77-.31-.3-.77-.46-1.08-.77-1.22-1.08-2.3-2.31-3.53-3.54-.46-.46-.61-.62-.46-1.08a1,1,0,0,1,1.23-.46h.61a3.73,3.73,0,0,0,2.92,1.54l1.07,1.08a4.72,4.72,0,0,0,3.23,0c.15-.16.61-.31.61-.47v-3.54h-1.38a1,1,0,0,1-1.23-.46c-.15-.31.16-.62.62-1.08.15-.16.3-.31.46-.46-.31-1.55-2.15-.31-2.61-1.55a13.34,13.34,0,0,0,1.38-1.54v-6.32a1,1,0,0,1-1.23-.46,2,2,0,0,1,0-1.85,1,1,0,0,1,1.23-.46c0-.16.15-.46,0-.62a29.26,29.26,0,0,0-2.15-2.16c-.15-.15-.46,0-.61,0v2c-.92.92-.92.92-1.69.77-.92,0-1.08-.31-1.23-1.24a1.79,1.79,0,0,1,.77-1.69h2c0-.31-.15-.62,0-.77a14.23,14.23,0,0,0,1.38-1.54l-2-2a13.38,13.38,0,0,1-1.54,1.39,1.47,1.47,0,0,1-.3-2.31,5,5,0,0,0,1.23-2.31c0-.62.76-1.08,1.53-.93a1.26,1.26,0,0,0,1.23-.77v-4a.67.67,0,0,0-.92-.61c-.16,0-.31.3-.46.46v2.77c-1.08.93-1.08.93-3.84.62-.61-.31-.61-.77,0-.93s.92,0,1.38-.3.92-.62.92-.77a1,1,0,0,0-1.07-.62c-1.69-.31-1.69-.31-1.69-1.54v-2l.61-.61c1.08-1.24,1.08-1.7.16-2.93-.31-.46-.62-.62-.46-1.08s.76-.46,1.22-.46c.92,0,1.23-.31,1.39-1.24a1.45,1.45,0,0,0-.93-1.69c-.46-.16-.92,0-1.38-.16-.15,0-.3-.3-.61-.46V104a6,6,0,0,1,1.38-1.38c-.46-1.24-2.3-.31-2.76-1.55V99.7c.61-1.24,2.3-.16,2.76-1.54l-3.53-3.55h-2.15a.8.8,0,0,1-.46,1.08c.16.77-.31.77-.61.77a1,1,0,0,1-1.08-.62c0-.15.46-.77.77-.77a8.83,8.83,0,0,1,2,0c0-.31-.15-.61,0-.77a14.37,14.37,0,0,1,1.39-1.54V88.44c-.16-.15-.46-.61-.46-.46-.31.31-.77.46-.77.77a9.72,9.72,0,0,0,0,2.16,1,1,0,0,1-.61,1.08c-1.08-.15-2.31.46-3.38-.46.46-1.39,1.69-2,2.61-3.09a13.34,13.34,0,0,1-1.38-1.54V84.74h-2c-.15,0-.31-.15-.46-.3s-.31-.31-.15-.47.3-.46.46-.46c1.53-.46,2-.15,2.3,1.23.61.16,1.07,0,1.23-.46.31-1.08.46-2.31,1.69-2.93v-2c0-.46,0-.93-.47-1.23A1.62,1.62,0,0,0,222.7,78c-.92.77-1.69,1.7-2.61,2.47-.3-.31-.76-.46-.76-.77a14.3,14.3,0,0,1,0-2.62c.46-.62,1.38-.93,1.22-1.7-.3-.92-1.22-.46-1.84-.46-.46.46-1.07.92-1.53,1.39l-2-2a2.84,2.84,0,0,1,1.08-.77,10.27,10.27,0,0,1,2.15,0c.3,0,.61-.46,1.07-.77l-2-2a4.11,4.11,0,0,1-1.39-.16,14.08,14.08,0,0,0-1.53-1.38,3,3,0,0,0-1.38.46c-.46.15-.31-.31,0-.46.61-.31.92,0,.61.61a1.54,1.54,0,0,1-.77.62s-.46-.31.16-.77c.61-.62.46-.93.61-1.08l1.38-1.39c-.46-.46-.92-1.08-1.22-1.39a14.79,14.79,0,0,1,1.22-1.54c-1.07-1.08-2.3-.31-3.53-.61a26.35,26.35,0,0,1-1.84-2c.31-.92,1.84-1.38,1.23-2.93l-1.38-1.38A14.39,14.39,0,0,0,211,55.76c0-.61.31-1.54-.61-1.84-.62-.16-.93.61-1.54,1.07-1.38-.3-.31-2.15-1.54-2.77h-1.68c-.77.92-1.54,2-2.3,2.77a5.37,5.37,0,0,1-1.69-.15,11.06,11.06,0,0,0-1.54-1.23l-2,2c-.16.15,0,.46,0,.62a.78.78,0,0,1,1.07.46c.15.31.15.77.31,1.23a1,1,0,0,1-.62,1.08c-.15,0-.76-.46-.76-.77a8.36,8.36,0,0,1,0-2,1.13,1.13,0,0,1-1.39-.93,7.63,7.63,0,0,1,0-1.85h-2c-.15,0-.31-.15-.46-.31s-.31-.3-.15-.46.3-.46.46-.46c1.53-.46,2-.15,2.3,1.23.31,0,.61.16.77,0a23.41,23.41,0,0,0,2-2c-.31-.31-.46-.77-.77-.77a9.63,9.63,0,0,0-2.15,0,1,1,0,0,1-1.07-.62c.46-.46.92-1.08,1.38-1.54-.92-1.08-2.76-.46-3.37-2-.46.46-1.08.92-1.54,1.38H189.4c-.46-.46-1.08-.92-1.54-1.38h-6.44c-.46,0-1.08-.16-1.08-.62,0-.15.46-.77.77-.77.61-.16,1.38,0,1.84-.77a25.69,25.69,0,0,0-2.15-1.85,5.17,5.17,0,0,1-1.38,1.08c-1.38-.46-.31-2.16-1.53-2.78H175c-.61-.77-.61-.77.61-2.16-.61-.61-1.22-1.23-1.84-1.84-1.69-.62-3.22,0-4.6-.31l-1.38,1.38c-1.69,0-3.53.16-5.38,0-.76,0-1.07-.77-.92-1.54a.93.93,0,0,0-.15-.61l-1.07-1.08a4.64,4.64,0,0,1-.31-1.24c0-.92.31-1.85-.77-2.62h-1.38c-1.07.93-1.69,2-3.07,2.62-.77-.46-.46-1.23-.61-2-.62-.62-1.39-1.23-2.15-2h-2.61c-.61-.47-1.08-.93-1.69-1.39a15.23,15.23,0,0,1-1.53,1.39H144v2c0,.15-.16.31-.31.46s-.31.31-.46.16-.46-.31-.46-.47c-.46-1.54-.15-2,1.23-2.31V27.86a1,1,0,0,0-.46-1.23c-.31-.15-.62.16-1.08.62l-.46.46a3.91,3.91,0,0,1-2-1.85,9.31,9.31,0,0,1-.93-2.47,11,11,0,0,1-1.53,1.39A11,11,0,0,0,136,23.55l-2.61,2.62c-.77-.16-.92-.77-.92-1.39a1.41,1.41,0,0,0-.62-1.23,4.08,4.08,0,0,1-1.38-.16c-.92.93-2,1.85-2.92,2.78-.76-.46-.61-1.23-.76-1.85a1.4,1.4,0,0,0-.92-.93,35.55,35.55,0,0,0-4,0c-1.84,1.85-1.84,1.85-3.53.78-.15-.62.31-1.55-.45-1.85s-.93.92-1.54.92a8.4,8.4,0,0,1-4.76-.15c-.61-.77-.3-1.85-.3-2.78a1,1,0,0,0-.62-1.08c-.15,0-.61.62-.77.93-.15.46-.15.92-.3,1.38,0,.16-.31.31-.46.47H107a1.12,1.12,0,0,1-.92,1.38,13.08,13.08,0,0,0-2.61.47c-.46.15-.31-.31,0-.47.61-.3.92,0,.61.62a1.54,1.54,0,0,1-.77.62s-.46-.31.16-.77a13.74,13.74,0,0,0,.61-4.78h-2.3c-.77.92-1.54,2-2,2.62a13.82,13.82,0,0,0-2.45.62c-.46.15-.62.61-.46,1.38v-.31a1,1,0,0,1,1.07.31c.31.31.31.62-.31.93-.15,0-.3-.16-.46-.16a1.66,1.66,0,0,1-.46-.77,1.7,1.7,0,0,1-1.22-.77c-.46-.77,0-1.85-1.08-2.31H91.63c-.46.46-1.08.92-1.54,1.39H88.71c-.92.61-.61,1.69-.61,2.62,0,.77-.15,1.23-.77,1.54-.15-.16-.46-.31-.46-.46a17.28,17.28,0,0,1-.15-2.78c0-.61-.77-.92-1.54-.92a1.37,1.37,0,0,0-1.22.61c.46.47.76.93,1.22,1.39a3.73,3.73,0,0,1-.92.77,30.64,30.64,0,0,1-3.84,0l-2.14-2.16V20.47c-1.08-.16-1.39-.47-1.39-1.08a17.5,17.5,0,0,0-.3-2.78c-.16-.46-.62-.61-1.23-.46v4.93a.68.68,0,0,1-.92.62.7.7,0,0,1-.46-.46V19.85c-.31-.31-.77-.77-1.08-.77-1.07,0-2.3-.46-3.22.61a14.39,14.39,0,0,1,1.38,1.55v1.38c.46,1.08,1.69.62,2.3,1.08a1,1,0,0,1,.47,1.24h2c.15,0,.31.15.46.3s.31.31.15.47-.3.46-.46.46c-1.53.46-2,.15-2.3-1.23-.31,0-.61-.16-.77,0a23.41,23.41,0,0,0-2,2c0,.46-.15.92-.15,1.39a13.34,13.34,0,0,1,1.38,1.54,1.57,1.57,0,0,1-2.31.46c-.46-.15-.61-.77-1.07-.92-.46-.31-1.53-.31-1.84.15a1.2,1.2,0,0,0-.31,1.23,1.59,1.59,0,0,0,.15.47A8.47,8.47,0,0,1,68,33c.46.77-.3,1.7-1.38,1.85A1,1,0,0,1,66.15,36c-.46.31-.77-.15-.92-1.23H63.08a2.84,2.84,0,0,0-.77,1.08c-.15.93.16,1.85-.15,2.47-.77.77-1.38,1.54-2,2.15H58a1,1,0,0,0,.46,1.24c.76.46,1.84-.16,2.3,1.23v1.08a4.51,4.51,0,0,1-1.08.77c-1.38.15-2.76.15-4.14.31-.15,0-.31.31-.46.46a14.23,14.23,0,0,1,1.38,1.54c.16.16,0,.47,0,.62a.8.8,0,0,1,1.08.46c.15.31.15.77.3,1.23a1,1,0,0,1-.61,1.08c-.15,0-.77-.46-.77-.77a8.92,8.92,0,0,1,0-2H55.1a1,1,0,0,0-1.23.46c-.15.31,0,.62.46.93s.62.61.46.92a1,1,0,0,1-1.22.46H52.18c-.15,1.08-.46,1.39-1.07,1.39a17.28,17.28,0,0,0-2.76.31c-.46.15-.62.62-.46,1.23h2.3c.31.31.77.93,1.23,1.39.15.15.46,0,.92,0H52a1,1,0,0,1,.31-1.08c.3-.31.61-.31.92.31,0,.15-.16.31-.16.46a1.52,1.52,0,0,1-.76.46A5.23,5.23,0,0,0,52,57.15c-.77.77-1.38,1.85-2.76,2.31-.77-.15-1.69-.15-2.46-.3-.46-.16-.61-.62-.46-1.24H44.2c-.61.62-1.22,1.39-2,2.16a8.86,8.86,0,0,0,.15,4.47c.15.46.62.62,1.23.46V62.86a25.27,25.27,0,0,0,2-2c1.08.46.93,1.23.62,2.31-1.08.31-1.23,2-2.61,1.85v2.16c-.15.16-.31.46-.46.46-.46.16-.92.16-1.38.31-.31.31-.77.46-1.08.77-.92.77-1.69,1.7-2.45,2.47-.16.77.61.92.92,1.54-.16,1.23,1.07,2.62-.62,3.55-.46-.47-.92-.77-1.38-1.24-.3.31-.61.47-.61.62v5.7c-.62,1.24-2.3.31-2.76,1.54A6,6,0,0,1,35,84.44l-2,2H31.62c-1.08,1.7-1.08,1.7.61,3.55A6,6,0,0,0,31,91.53a1.68,1.68,0,0,0,1.69.77c.31,0,.77.46,1.08.77l-2,2a7.26,7.26,0,0,0-1.69.16c-.46.61-1.07,1.38-2,2.46,0-.15.3.16.76.31.62.16,1.39-.31,1.85.62A5,5,0,0,1,29,100.47a9.37,9.37,0,0,1-2.46.92c.92,1.24,2.15,1.85,2.77,3.08-.47.78-1.23.47-1.85.62a.7.7,0,0,0-.46.46c-.15.31,0,.77.62.93a17,17,0,0,0,2.76,0c1.23.92.61,2.16.61,3.39,0,.31-.46.62-.76.77-.31-.31-.62-.77-1.08-.92a3.48,3.48,0,0,0-1.23-.31.93.93,0,0,0-.61.15c-.61,1.08-2,.93-2.92,1.54A3.94,3.94,0,0,0,22.72,113c.46.77,1.22.62,1.84.62.46-.46,1.07-.93,1.53-1.39,1.54.93,0,2.78.92,3.86,1.08,1.23,2.92-.47,3.84,1.07-.92.93-1.84,2-2.76,2.93v1.39c-.46,1.23-2.31,0-2.77,1.54l2,2c.15.15.46,0,1.07,0h-.3a1,1,0,0,1,.3-1.08c.31-.31.62-.31.93.31,0,.15-.16.3-.16.46a1.64,1.64,0,0,1-.77.46c-.46.46-.3.93.16,1.08.77.31,1.53.46,2.45.77-.61.62-.92,1.08-1.53,1.7a13.48,13.48,0,0,0,0,2.46,1.36,1.36,0,0,0,1.69,1.08h-.31a1,1,0,0,1,.31-1.08c.3-.31.61-.31.92.31,0,.15-.16.31-.16.46a1.59,1.59,0,0,1-.76.47c-.31.3-.16.61-.31.77-.92,1.08-2,2-2.76,2.92.15,1.86.15,1.86,1.23,2.16h.76a1.7,1.7,0,0,1,.77,2.31c-.31.47-.61.62-1.07,1.24a35.83,35.83,0,0,0,0,5.86c.46.77.76.77,1.07.15a11.5,11.5,0,0,1,.31-1.23,2.75,2.75,0,0,1,.76-1.08L35.45,149a1.14,1.14,0,0,1-1.53.62c-1.23,1.08-2,1.7-2.61,2.31.92,1.23,2.92.46,3.53,2.16a6,6,0,0,1,1.54.15,21.17,21.17,0,0,0,2,1.85c0,.93,0,.93-1.23.93H35.76v5.7h2.15c.15,0,.31.31.46.47v.46c-.77.92-1.69,1.69-2.46,2.46a2.74,2.74,0,0,0,1.08.77,1.63,1.63,0,0,0,1.23-.15c.92-.77,1.69-1.7,2.45-2.47a4,4,0,0,1,.77.93,2.25,2.25,0,0,1-.15,1.39c-.16.46-.77.61-.92,1.08a1.61,1.61,0,0,0,0,1.84l1.07,1.08a14,14,0,0,0-1.23,1.55v1.23c.46,1.08,1.54.61,2.3,1.08a1,1,0,0,1,.47,1.23h1.38c1.07,0,1.53.46,1.53,1.54v1.39H48c.15,0,.31.31.46.46v.46c-.77.93-1.69,1.7-2.46,2.47.31.77.93.77,1.69.77.46,0,.77.46,1.08.62a13.34,13.34,0,0,0-1.38,1.54c.92,1.08,2.14,1.85,2.76,3.08a4.3,4.3,0,0,1-.31,1.39c-.15.46-.61.62-1.23.46a9,9,0,0,0,0,2c.16.46.62.77.92.61.31-.31.62-.77.93-.92,1.07-.77,2.14-.16,2.3,1.23a1.06,1.06,0,0,1,1.38,1.08v2.31c1.07,1.7,2.92,2.93,4.3,4.63v2H62l2,2c-.3,1.55-2.3.16-2.61,1.7.62.46,1.23,1.08,2.15,1.85h3.69c1.22.62,1.68,1.54,2.6,2.16-1.22,1.23-2.45.46-3.68.77-.15.46-.46,1.08-.61,1.54A6.77,6.77,0,0,0,68,215.46c.77,0,1.54.15,1.84-.62.16-.46,0-.92.16-1.38.15-.62.61-.78.92-.62l.46.46a12.1,12.1,0,0,0,1.38,1.39v2.93l-2.61,2.62c-.15,1.39-.92,2.77.62,3.85H72a13.38,13.38,0,0,1,1.54,1.39,1.14,1.14,0,0,0,.61-1.23c.16-1.39.62-1.7,1.69-1.54.46,0,.77.46,1.07.61v1.39c-.46.46-.92,1.08-1.38,1.54v2.93l2,2c.46-.46,1.07-.92,1.53-1.38h1.38c.62.3.77.77.31,1.08l-2.45,2.46c.46.46.92,1.08,1.38,1.54,0,.77.15,1.54-.62,2-.92-.93-2-1.85-2.91-2.78-.16.16-.46.31-.46.46-.16,1.85-.16,3.7-.16,5.55,0,.47.46.77,1.54.93h.46c1.38,1.23,2.91-1.39,3.68,3.39,0,.77,2.21-.31,2.21-1.24-.46-.46-.17-2.42-.74-3-.46-1.39,1.45-.58,1.29-2,0-1.07,1.23-2.14.93-3.22-.46-.46,2.61-.94,2.31-1.25,0-.15,2.86-.08,2.86-.23,0-6.48,3,2.76,3-3.86.31-.47,3.68,4.09,4.3,3.48V229a26.72,26.72,0,0,1,2-2c1.23.16,1.54,1.54,2.46,1.85V232a8.86,8.86,0,0,1,1.84.62,14.74,14.74,0,0,1,1.69-1.54h2.92c.61.62,1.22,1.39,2,2.16a10.18,10.18,0,0,1-1.23,1.38c1.38,1.24,1.54,1.24,3.23-.46,1.07.16,1.53,1.85,2.91,1.24.92.92,2,1.85,2.92,2.92h1.53c.16-.61.46-1.23.62-1.85a15.62,15.62,0,0,0-1.54-1.69l1.38-1.39c.46-.46.62-.62,1.08-.46a1.28,1.28,0,0,1,.46,1.23c-.16,1.08.15,1.24,1.23,1.24.46,0,.92,0,1.22.46a.55.55,0,0,1,.16.46c-.62.62-1.54,1.23-1.23,2.47a17,17,0,0,0,3.68,3.7c.46-.16.92-.16,1.39-.31s.61-.62.45-1.24a.79.79,0,0,1-1.07-.46c-.15-.31-.15-.77-.31-1.23a1,1,0,0,1,.62-1.08c.15,0,.76.46.76.77a8.36,8.36,0,0,1,0,2,.79.79,0,0,1,1.08.47c.31.77.46,1.54.77,2.46,1.84-.92.3-2.62,1.07-3.7l1.38-1.38c-.77-.93-.77-1.54-1.22-2.93-.16-.46.3-.31.45,0,.31.61,0,.92-.61.61a1.47,1.47,0,0,1-.61-.77C130.77,235.5,131.07,235.19,131.54,235.81ZM205.21,57.92h-4.15c-.15,0-.3-.31-.46-.46-.15-.31,0-.62.46-.92h4.15c.15,0,.3.3.46.46C206,57.31,205.67,57.61,205.21,57.92ZM213,198.66a1.79,1.79,0,0,1,2.92,0c-.15.77.46,1.85-.92,2A22.19,22.19,0,0,0,213,198.66ZM225.16,98c1.07.93,1.07,1.85,0,2.93C224.09,99.85,224.09,98.93,225.16,98Zm1.23,11.1c-.16-.16-.46-.31-.46-.46v-1.39c0-.15.3-.31.46-.46a.28.28,0,0,1,.46,0c.77.31.77,1.85,0,2.31C226.69,109.25,226.54,109.1,226.39,109.1ZM33.92,143c-.92,1.08-1.84,1.08-2.92,0C32.08,141.93,33,141.93,33.92,143ZM196,219.31v-.61c.15-.16.3-.31.46-.46s.61,0,.92.46c.15.15,0,.46,0,.61a1,1,0,0,1-.46,1.24C196.46,220.7,196,220.24,196,219.31ZM138.6,29.25c-.31.16-.62,0-.93-.46l.46-.46c.31-.16.62,0,.92.46C139.21,28.79,138.9,29.1,138.6,29.25ZM72.14,32.8c.15.31,0,.61-.46.92l-.46-.46c-.16-.31,0-.62.46-.93Zm84.1,1.69.47-.46c.3-.15.61,0,.92.46l-.46.47C156.86,35.11,156.55,35,156.24,34.49Zm35,17.58c-.31.15-.61,0-.92-.47l.46-.46c.31-.15.61,0,.92.46Zm36.84,71.52.46.46c.15.31,0,.62-.46.93l-.46-.47C227.31,124.36,227.46,124.05,228.08,123.59Zm-196,1.23c-.31.16-.62,0-.92-.46,0,0,.3-.31.46-.46s.61,0,.92.46C32.54,124.51,32.23,124.67,32.08,124.82Zm201.37,24.36-.46-.47c.3-.46.61-.61.92-.46l.46.46C234.06,149.18,233.75,149.33,233.45,149.18Zm-5.68,17.11-.46-.47c.31-.46.61-.61.92-.46l.46.46C228.38,166.29,228.08,166.44,227.77,166.29Zm-3.84,13.25.46.47c-.3.46-.61.61-.92.46L223,180C223.32,179.54,223.63,179.39,223.93,179.54ZM57.86,192.65c.16.31,0,.61-.46.92l-.46-.46c-.15-.31,0-.62.46-.93Zm158.55,1.23c.31-.15.61,0,.92.46l-.46.46c-.31.16-.61,0-.92-.46Z"/><path class="cls-2" d="M125.7,246.91c.62-.62.77-.93.62-1.08l-2-2c-.31.16-.77.47-.77.62a38.49,38.49,0,0,0,0,4.16c1.23,1.24,2.46.62,3.84.46.92-.77.31-1.69.46-2.62a4.41,4.41,0,0,0-2.15.47c-.46.15-.31-.31,0-.47.62-.31.92,0,.62.62a1.58,1.58,0,0,1-.77.62C125.39,247.68,125.09,247.37,125.7,246.91Z"/><path class="cls-2" d="M72.29,229.33H70.14c-.46-.46-1.07-.92-1.53-1.38a2.08,2.08,0,0,0-.77,1.23c-.31,1.7-.31,1.7-1.54,1.7h-2l-.61.61c0,.16.15.46.3.46,1.54.62,3.07.31,4.76.16.61-1.08,1.84-1.23,2.92-1.54A.93.93,0,0,0,72.29,229.33Z"/><path class="cls-2" d="M59.55,17.23c-.61-1.23-2.3-.16-2.76-1.54V14.3a.7.7,0,0,0-.46-.46c-.31-.16-.77,0-.92.61a17.89,17.89,0,0,0,0,2.93c-.46.31-.92.77-1.54,1.24.92,1.23,2.15.61,3.23.77C58.17,19.08,58.63,18,59.55,17.23Z"/><path class="cls-2" d="M73.67,16.61h-.61c-1.84,0-1.84,0-2.15-1.69a1.4,1.4,0,0,0-1.84-1.24,4.23,4.23,0,0,0-.92.77v2c1.07-.16,1.38,1.08,2.61,1.39a8.55,8.55,0,0,0,2,0A.89.89,0,0,0,73.67,16.61Z"/><path class="cls-2" d="M78,244.13a.76.76,0,0,0-.77-.46,2.85,2.85,0,0,1-2.45-1.08.5.5,0,0,0-.31-.15c-.77.61-1.38,1.23-2.15,1.85l2.15,2.15a5.49,5.49,0,0,1,1.53.16A13,13,0,0,1,78,244.13Z"/><path class="cls-2" d="M231.61,185.09c.15-.77-.31-1.23-1.08-1.38a12.51,12.51,0,0,0-2.45,0,11.35,11.35,0,0,1-1.54,1.38h-2v1.39h3.54c.46-.46,1.07-.92,1.53-1.39Z"/><path class="cls-2" d="M42.51,188.64l2,2h1.38c.46-.46.92-1.23,1.54-1.38s.92-.16.61-.77c-.15-.16-.31-.47-.46-.47a10,10,0,0,0-4.76,0A1.11,1.11,0,0,1,42.51,188.64Z"/><path class="cls-2" d="M53.87,25.71a9.64,9.64,0,0,1-1.38-1.24c-.46-.46-.61-.61-.92-.46a1,1,0,0,0-.46,1.23V26a9.64,9.64,0,0,0,1.38,1.24v1.54c0,.15.31.31.46.46a.68.68,0,0,0,.92-.46Z"/><path class="cls-2" d="M58.17,202.2H56c-.46-.46-1.07-.92-1.53-1.38-.77,0-1.54-.16-2,.77l1.84,1.85a4.31,4.31,0,0,0,3.38,0A1,1,0,0,0,58.17,202.2Z"/><path class="cls-2" d="M221.63,206.52H218.1c-1.08,1.54-1.08,1.54,0,2.77.46-.46.92-.77,1.38-1.23.31.31.46.31.61.62.31.46.62.77,1.08.61a1,1,0,0,0,.46-1.23A5.27,5.27,0,0,1,221.63,206.52Z"/><path class="cls-2" d="M227.31,83.67h-2a1.46,1.46,0,0,0-.77,1.69c.16.93.31,1.23,1.23,1.23.62,0,.62,0,1.69-.77A11.17,11.17,0,0,1,227.31,83.67Z"/><path class="cls-2" d="M19.65,85.82c-1.39-1.08-1.39-1.08-2.92,0v1.39c1.38,1.08,1.38,1.08,2.92,0Z"/><path class="cls-2" d="M239,100c-.76-.3-1.38-.61-1.84-.77-1.38.47-1.84,1.55-2.92,2.32.77.31,1.39.61,1.85.77C237.28,101.86,237.74,100.78,239,100Z"/><path class="cls-2" d="M232.37,116.5c.62-.62,1.38-1.39,2-2-.46-.47-1.23-.93-1.23-1.55s-.15-.92-.77-.61c-.15.15-.46.3-.46.46a6.49,6.49,0,0,0,0,3.39A1.93,1.93,0,0,1,232.37,116.5Z"/><path class="cls-2" d="M3.38,116.5H.61c-.3,0-.46.61-.61.77.61.62,1.38,1.39,2,2a24.37,24.37,0,0,0,1.84-2C4,117.11,3.84,116.81,3.38,116.5Z"/><path class="cls-2" d="M235.44,162.28c-1.07.46-1.53,1.54-2.45,2,.61,1.08,1.38.77,2,.77a13.34,13.34,0,0,1,1.54-1.38c.92-.77.92-.93.15-1.24A3.08,3.08,0,0,0,235.44,162.28Z"/><path class="cls-2" d="M237.28,163.67v2a1.45,1.45,0,0,0,1.69.77c.92-.15,1.23-.31,1.23-1.23,0-.62,0-.62-.77-1.7A10.39,10.39,0,0,1,237.28,163.67Z"/><path class="cls-2" d="M67.23,216.54H65.84a14.12,14.12,0,0,0-1.53-1.39c-.92,1.54-.92,1.54.15,2.78h2.77c.15,0,.3-.31.46-.47S67.84,216.69,67.23,216.54Z"/><path class="cls-2" d="M105,234.42v4.16c0,.16.31.31.46.46.31.16.62,0,.92-.61v-4.16c0-.16-.3-.31-.46-.47S105.29,234,105,234.42Z"/><path class="cls-2" d="M164.23,252a1.65,1.65,0,0,0,.46-2.46,11.72,11.72,0,0,0-1.84-2,1.65,1.65,0,0,0-.47,2.47A11.35,11.35,0,0,0,164.23,252Z"/><path class="cls-2" d="M181.72,12.91c.92,1.08,1.85,1.08,2.92,0-.46-.46-1.07-.92-1.54-1.38s-.61-.62-.92-.47a1,1,0,0,0-.46,1.24C181.88,12.45,181.72,12.76,181.72,12.91Z"/><path class="cls-2" d="M85.18,15.07a8.92,8.92,0,0,0,2,0c.31,0,.46-.46.77-.77L86.1,12.45c-.3.31-.76.46-.76.77A3.78,3.78,0,0,0,85.18,15.07Z"/><path class="cls-2" d="M80.89,14.45C80,13.37,79,13.37,78,14.45c.46.47,1.07.93,1.53,1.39s.62.62.92.46a1,1,0,0,0,.47-1.23Z"/><path class="cls-2" d="M103.6,19.39a8.92,8.92,0,0,0,2,0c.3,0,.46-.47.76-.77-.61-.62-1.22-1.24-1.84-1.85-.31.3-.77.46-.77.77A3.89,3.89,0,0,0,103.6,19.39Z"/><path class="cls-2" d="M134.14,22.32l2-2c-.15-1.39-1.23-.77-2-.92A1.81,1.81,0,0,0,134.14,22.32Z"/><path class="cls-2" d="M196,43c-1.38-.92-1.38-.92-2.76,0,.15.77-.47,1.85.92,2A22.6,22.6,0,0,1,196,43Z"/><path class="cls-2" d="M48.19,53.76a1.06,1.06,0,0,0-1.38.93,23.21,23.21,0,0,0,0,3.23A1.05,1.05,0,0,0,48.19,57Z"/><path class="cls-2" d="M223,75.19V71.8c0-.31-.46-.47-.77-.77,0,0-.46.3-.46.46a5.83,5.83,0,0,0,.16,3.23C222.09,75.19,222.55,75.19,223,75.19Z"/><path class="cls-2" d="M16.12,106.48c-1.08.92-.93,1.85,0,2.93.46-.47.92-1.08,1.38-1.54s.61-.62.46-.93a1,1,0,0,0-1.23-.46C16.58,106.63,16.42,106.48,16.12,106.48Z"/><path class="cls-2" d="M233,112.18a8.28,8.28,0,0,0,2,0c.31,0,.46-.46.77-.77l-1.84-1.85c-.31.31-.77.46-.77.77A3.78,3.78,0,0,0,233,112.18Z"/><path class="cls-2" d="M238.05,120.81l-2,2c.15,1.39,1.23.77,2,.92A2,2,0,0,0,238.05,120.81Z"/><path class="cls-2" d="M26.86,133c-.15-.77.31-1.54-.46-1.85s-.92.62-1.38.93l-.46.46-.46.46A1.71,1.71,0,0,0,26.86,133Z"/><path class="cls-2" d="M231.3,175.38c.15-2,.92-3.39-.46-4.62-.92.61-.62,1.54-.77,2.46A2.32,2.32,0,0,0,231.3,175.38Z"/><path class="cls-2" d="M240.82,180.78c.92-1.39.92-1.39,0-2.78-.77.16-1.85-.46-2,.93C239.43,179.54,240.2,180.16,240.82,180.78Z"/><path class="cls-2" d="M227.31,200.05c.92,1.08,1.84.92,2.91,0-.46-.47-1.07-.93-1.53-1.39-.31-.46-.61-.62-.92-.46a1,1,0,0,0-.46,1.23Z"/><path class="cls-2" d="M218.71,200.82c.16,0,.46-.16.62,0l1.38,1.38c.3-.3.61-.46.77-.77a8.89,8.89,0,0,0,0-2h-2.92A3.93,3.93,0,0,1,218.71,200.82Z"/><path class="cls-2" d="M220.25,204.36c.46.77,1.53.93,1.38,2.16.15,0,.46.15.61,0a1.7,1.7,0,0,0,.62-2.31c-.16-.47-1.08-.77-1.69-.62A3.73,3.73,0,0,0,220.25,204.36Z"/><path class="cls-2" d="M214.57,214.38c-.92-1.08-1.84-1.08-2.92,0,.46.46,1.08.93,1.54,1.39s.61.61.92.46a1,1,0,0,0,.46-1.23C214.42,214.84,214.57,214.54,214.57,214.38Z"/><path class="cls-2" d="M204.59,217.93a1,1,0,0,0,.46,1.23,5.74,5.74,0,0,0,3.23.15c.15,0,.46-.46.46-.46-.16-.31-.46-.77-.77-.77A12.63,12.63,0,0,0,204.59,217.93Z"/><path class="cls-2" d="M208.74,227.18c.92,1.07,1.84,1.07,2.91,0-.46-.47-1.07-.93-1.53-1.39s-.62-.62-.92-.47a1,1,0,0,0-.46,1.24C208.89,226.71,208.74,226.87,208.74,227.18Z"/><path class="cls-2" d="M70.91,226.4a1,1,0,0,0,.46,1.24c.46.46,1.23.77.92,1.69,1.07-.15,1.38-.46,1.38-1.08.16-1.07-.31-1.69-1.38-1.69A4.08,4.08,0,0,0,70.91,226.4Z"/><path class="cls-2" d="M168.37,237.81c-1.07.93-1.07,1.85,0,2.93.46-.46.92-1.08,1.38-1.54s.62-.62.46-.93a1,1,0,0,0-1.22-.46C168.83,238,168.52,237.81,168.37,237.81Z"/><path class="cls-2" d="M110.66,240.74h2c1.22-1.08,1.07-1.23.3-2.62C111.28,239.51,111.12,239.51,110.66,240.74Z"/><path class="cls-2" d="M107.9,242.13c.15,1.08.46,1.38,1.07,1.38,1.23.16,1.69-.3,1.69-1.38v-1.39c-.92-.15-1.23.46-1.69.92C108.67,242.13,108.36,242.28,107.9,242.13Z"/><path class="cls-2" d="M92.62,239.89c1.23-.46,1.23-.46,2.61-2.31-1.38-.77-1.54-.77-2.61.31Z"/><path class="cls-2" d="M94,241.9c-.46-.77-1.54-.93-1.38-2.16-.16,0-.46-.16-.62,0a1.71,1.71,0,0,0-.61,2.31c.15.46,1.07.77,1.69.62C93.54,242.51,93.69,242.2,94,241.9Z"/><path class="cls-2" d="M97.15,251.65l-.46.47c-.15.3,0,.61.62.92h2.76l.46-.46c.15-.31,0-.62-.61-.93Z"/><path class="cls-2" d="M97.15,267.38c-.46.3-.76.61-.46.92l.46.46h2.77c.46-.31.61-.61.46-.92l-.46-.46Z"/><path class="cls-2" d="M122.79,16.61c1.07-.92,1.07-1.85,0-2.93A1.73,1.73,0,0,0,122.79,16.61Z"/><path class="cls-2" d="M73.67,16.61h1.38a9.75,9.75,0,0,0,0-2.16c-.15-.61-.61-.77-.92-.46-.15.16-.46.31-.46.46Z"/><path class="cls-2" d="M78,20.93a8.83,8.83,0,0,0,2,0c.31,0,.77-.62.77-.77a1,1,0,0,0-1.07-.62,3.48,3.48,0,0,0-1.23.31C78,19.85,77.82,20.31,78,20.93Z"/><path class="cls-2" d="M58.17,33.72A1.05,1.05,0,0,0,58.63,35c.46.3.92-.31.92-1.24v-.61l-.46-.47c-.31-.15-.61,0-.92.47C58,33.26,58.17,33.57,58.17,33.72Z"/><path class="cls-2" d="M58.32,37.58c.31.77,1.85.77,2.31,0a.3.3,0,0,0,0-.47c-.31-.77-1.85-.77-2.31,0Z"/><path class="cls-2" d="M187.4,43.74c.92,0,1.54-.46,1.23-.92a1,1,0,0,0-1.23-.47h-.61c-.46.31-.77.62-.46.93.15.15.3.46.46.46Z"/><path class="cls-2" d="M43.9,53C43,51.91,42.05,51.91,41,53,42.05,54.07,43,54.07,43.9,53Z"/><path class="cls-2" d="M216,57.92a1,1,0,0,0-1.23.47c-.3.61.31,1.07,1.23,1.07h.61L217,59c.16-.31,0-.61-.46-.92A.88.88,0,0,0,216,57.92Z"/><path class="cls-2" d="M224.39,62.24a8.92,8.92,0,0,0,0-2c0-.31-.61-.78-.77-.78a1,1,0,0,0-.61,1.08,3.54,3.54,0,0,0,.31,1.24A.79.79,0,0,0,224.39,62.24Z"/><path class="cls-2" d="M233.45,63.93c-.77.31-.77,1.85,0,2.32a.29.29,0,0,0,.46,0c.77-.31.77-1.85,0-2.32Z"/><path class="cls-2" d="M218.71,67.94c0,.93.46,1.54.92,1.24a1,1,0,0,0,.46-1.24v-.61c-.3-.47-.61-.77-.92-.47-.15.16-.46.31-.46.47Z"/><path class="cls-2" d="M228.69,70.87c.92,0,1.53-.46,1.23-.92a1,1,0,0,0-1.23-.47h-.61c-.46.31-.77.62-.46.93.15.15.3.46.46.46Z"/><path class="cls-2" d="M227.31,83.67a8.83,8.83,0,0,0,2,0c.31,0,.77-.62.77-.78a1,1,0,0,0-1.07-.61,3.48,3.48,0,0,0-1.23.31A.79.79,0,0,0,227.31,83.67Z"/><path class="cls-2" d="M242,94.92h.46a1.54,1.54,0,0,0,0-2.31H242c-.15.15-.46.3-.46.46v1.39C241.58,94.61,241.89,94.76,242,94.92Z"/><path class="cls-2" d="M8.29,100.16c-.92-1.08-1.84-1.08-2.92,0C6.45,101.08,7.37,101.08,8.29,100.16Z"/><path class="cls-2" d="M11.2,130.06c.93,1.08,1.85,1.08,2.92,0C13.05,129,12.13,129,11.2,130.06Z"/><path class="cls-2" d="M235.75,137.93a1,1,0,0,0,1.23-.47,2,2,0,0,0,0-1.85,1,1,0,0,0-1.23-.46Z"/><path class="cls-2" d="M20.26,141.93h.46a1.55,1.55,0,0,0,0-2.31h-.46c-.15.15-.46.31-.46.46v1.39C19.8,141.62,20.11,141.78,20.26,141.93Z"/><path class="cls-2" d="M240.05,174.3c-.92-1.08-1.84-1.08-2.92,0C238.21,175.38,239.13,175.38,240.05,174.3Z"/><path class="cls-2" d="M45.28,177.85a8.36,8.36,0,0,0-2,0c-.3,0-.77.61-.77.77a1,1,0,0,0,1.08.62,3.71,3.71,0,0,0,1.23-.31C45.28,178.77,45.43,178.46,45.28,177.85Z"/><path class="cls-2" d="M231.61,185.09a8.45,8.45,0,0,0,0,2c0,.31.61.77.76.77a1,1,0,0,0,.62-1.08,3.71,3.71,0,0,0-.31-1.23A.79.79,0,0,0,231.61,185.09Z"/><path class="cls-2" d="M51,197.89c1.38-.31,1.68-.77,1.22-2.32,0-.15-.3-.3-.46-.46-.15,0-.3.16-.46.16s-.3.3-.3.46Z"/><path class="cls-2" d="M49.57,197.89a8.45,8.45,0,0,0,0-2c0-.31-.61-.77-.76-.77a1,1,0,0,0-.62,1.08,3.83,3.83,0,0,0,.31,1.24A.79.79,0,0,0,49.57,197.89Z"/><path class="cls-2" d="M221.63,199.27c1.38-.3,1.69-.77,1.23-2.31,0-.15-.31-.31-.46-.46-.16,0-.31.15-.46.15-.16.16-.31.31-.31.47Z"/><path class="cls-2" d="M39,205c1.08-.93,1.08-1.85,0-2.93C37.91,203.13,37.91,204.05,39,205Z"/><path class="cls-2" d="M225.93,207.91a8.83,8.83,0,0,0,2,0c.31,0,.77-.62.77-.77a1,1,0,0,0-1.07-.62,3.43,3.43,0,0,0-1.23.31C225.77,207,225.77,207.45,225.93,207.91Z"/><path class="cls-2" d="M51.72,213.61c-1.07.93-1.07,1.85,0,2.93C52.8,215.46,52.8,214.54,51.72,213.61Z"/><path class="cls-2" d="M67.07,221.93h.46a1.54,1.54,0,0,0,0-2.31h-.46c-.15.16-.46.31-.46.46v1.39C66.61,221.63,66.92,221.78,67.07,221.93Z"/><path class="cls-2" d="M70.91,226.4c-.31-1.38-.77-1.69-2.3-1.23-.16,0-.31.31-.46.46s.15.31.15.47c.15.15.31.3.46.3A9.63,9.63,0,0,0,70.91,226.4Z"/><path class="cls-2" d="M61.7,228c-1.07.92-1.07,1.85,0,2.93C62.62,229.8,62.62,228.87,61.7,228Z"/><path class="cls-2" d="M115,240.74a1,1,0,0,0,.46,1.23c.46.31.92-.31.92-1.23v-.62l-.46-.46c-.31-.15-.62,0-.92.46Z"/><path class="cls-2" d="M82.88,247.65a1,1,0,0,0-1.23.46c-.31.46.31.92,1.23.92h.61l.46-.46c.16-.31,0-.62-.46-.92C83.34,247.49,83,247.65,82.88,247.65Z"/><path class="cls-2" d="M88.47,241.28a8.83,8.83,0,0,0-2,0c-.31,0-.77.62-.77.77a1,1,0,0,0,1.08.62,3.66,3.66,0,0,0,1.22-.31A.8.8,0,0,0,88.47,241.28Z"/><path class="cls-2" d="M102.53,253.35c-.77.31-.77,1.85,0,2.31a.28.28,0,0,0,.46,0c.76-.31.76-1.85,0-2.31C102.83,253.2,102.68,253.35,102.53,253.35Z"/><path class="cls-2" d="M85,255.2c.92,1.08,1.84,1.08,2.92,0C86.87,254.12,86,254.12,85,255.2Z"/><path class="cls-2" d="M92.09,270.92c.92,1.08,1.84,1.08,2.92,0C93.93,269.84,93,269.84,92.09,270.92Z"/><path class="cls-2" d="M25,159.81c-.92-1.08-1.84-1.08-2.92,0C23,160.89,23.94,160.89,25,159.81Z"/><path class="cls-2" d="M146.42,260.93c1.08-.92,1.08-1.85,0-2.93C145.5,259.08,145.5,260,146.42,260.93Z"/><path class="cls-2" d="M125.39,264c.93,0,1.54-.47,1.23-.93a1,1,0,0,0-1.23-.46h-.61c-.46.31-.77.61-.46.92.15.16.31.47.46.47C124.78,264.17,125.09,264,125.39,264Z"/><path class="cls-2" d="M112.35,1.35c-.15.31,0,.62.46.93l.46-.47c.15-.3,0-.61-.46-.92Z"/><path class="cls-2" d="M85.64,9.21c.31.16.62,0,.92-.46,0,0-.3-.31-.46-.46s-.61,0-.92.46Z"/><path class="cls-2" d="M79.5,10.91c-.15-1.08-.3-1.23-1.38-1.39C78.12,10.6,78.28,10.6,79.5,10.91Z"/><path class="cls-2" d="M79.5,11.53c0,.15.16.3.46.46a.58.58,0,0,0,.46.15c.47-.31.62-.61.31-.92s-.61-.62-1.07-.31C79.35,10.91,79.35,11.37,79.5,11.53Z"/><path class="cls-2" d="M106.52,13.07c.3.46.61.61.92.46l.46-.46c-.31-.47-.62-.62-.92-.47C106.67,12.6,106.67,12.91,106.52,13.07Z"/><path class="cls-2" d="M58.63,14.92c.31.15.61,0,.92-.47L59.09,14c-.31-.15-.61,0-.92.46Z"/><path class="cls-2" d="M83.8,16s.31.46.46.46a1.54,1.54,0,0,0,.77-.62c.31-.62,0-.92-.61-.62A3.54,3.54,0,0,0,83.8,16Z"/><path class="cls-2" d="M95.77,18c.16,0,.31-.15.46-.46a.57.57,0,0,0,.16-.47c-.31-.46-.62-.61-.92-.3s-.62.61-.31,1.08C95.16,18,95.47,18,95.77,18Z"/><path class="cls-2" d="M66.61,18c1.08-.15,1.23-.31,1.38-1.39C66.92,16.77,66.76,16.92,66.61,18Z"/><path class="cls-2" d="M64.31,16.77s-.46.3-.46.46.31.77.61.77c.62.31.92,0,.62-.62C65.08,17.07,64.62,16.92,64.31,16.77Z"/><path class="cls-2" d="M50.5,17.69l.46-.46c-.31-.46-.62-.62-.92-.46l-.47.46C49.88,17.85,50.19,17.85,50.5,17.69Z"/><path class="cls-2" d="M150.72,18.92l.46.47c.46-.31.61-.62.46-.93l-.46-.46C150.72,18.31,150.57,18.62,150.72,18.92Z"/><path class="cls-2" d="M119,18.92c.15-.3,0-.61-.46-.92l-.46.46c-.15.31,0,.62.46.93C118.64,19.39,118.8,19.08,119,18.92Z"/><path class="cls-2" d="M93.78,18.92s.3.47.46.47a1.58,1.58,0,0,0,.77-.62c.3-.62,0-.92-.62-.62C94.24,18.15,93.93,18.62,93.78,18.92Z"/><path class="cls-2" d="M86.26,18.92c.15-.3,0-.61-.46-.92l-.46.46c-.16.31,0,.62.46.93C86,19.39,86.1,19.08,86.26,18.92Z"/><path class="cls-2" d="M65.23,18c.15,1.08.46,1.39.92,1.23A1,1,0,0,0,66.61,18Z"/><path class="cls-2" d="M62.16,18.92c.15-.3,0-.61-.46-.92l-.46.46c-.15.31,0,.62.46.93Z"/><path class="cls-2" d="M88.41,20.62c.3.15.61,0,.92-.46l-.46-.47c-.31-.15-.62,0-.92.47Z"/><path class="cls-2" d="M138.13,22c.31.15.62,0,.92-.47l-.45-.46c-.31-.15-.62,0-.93.46C137.67,21.7,138,21.85,138.13,22Z"/><path class="cls-2" d="M125.09,21.85l.46.47c.46-.31.61-.62.46-.93l-.46-.46A.68.68,0,0,0,125.09,21.85Z"/><path class="cls-2" d="M113.73,21.85l.46.47c.46-.31.62-.62.46-.93l-.46-.46A.68.68,0,0,0,113.73,21.85Z"/><path class="cls-2" d="M105.6,21.08s-.46.31-.46.46c.15.31.3.78.61.78.61.3.92,0,.61-.62A1.56,1.56,0,0,0,105.6,21.08Z"/><path class="cls-2" d="M155.94,23.24c.15-.31,0-.62-.46-.92,0,0-.31.3-.46.46s0,.61.46.92C155.63,23.7,155.79,23.39,155.94,23.24Z"/><path class="cls-2" d="M140.74,24.63c.16.15.46.46.46.46.46-.31.62-.62.46-.92l-.46-.47C140.74,24,140.59,24.32,140.74,24.63Z"/><path class="cls-2" d="M63.54,24.63c.16-.31,0-.62-.46-.93l-.46.47c-.15.3,0,.61.46.92Z"/><path class="cls-2" d="M60,24l-.46.46c.31.47.62.62.92.47l.46-.47C60.63,24,60.32,23.86,60,24Z"/><path class="cls-2" d="M67.07,25.4l-.46.46c.31.46.62.62.92.46s.46-.46.46-.46C67.69,25.4,67.38,25.24,67.07,25.4Z"/><path class="cls-2" d="M163.61,27.56c.16.15.46.46.46.46.46-.31.62-.62.46-.93l-.46-.46C163.61,26.94,163.46,27.25,163.61,27.56Z"/><path class="cls-2" d="M64.31,26.79l-.46.46c.31.46.61.61.92.46l.46-.46C64.92,26.79,64.62,26.63,64.31,26.79Z"/><path class="cls-2" d="M56.94,30.33l.46.46c.46-.3.62-.61.46-.92l-.46-.46C56.94,29.71,56.79,30,56.94,30.33Z"/><path class="cls-2" d="M204.29,31.26l-.47-.47c-.45.31-.61.62-.45.93l.45.46A.64.64,0,0,0,204.29,31.26Z"/><path class="cls-2" d="M61.39,32c.31.15.62,0,.92-.47l-.46-.46c-.3-.15-.61,0-.92.46Z"/><path class="cls-2" d="M211.19,33.88c-.31-.16-.61,0-.92.46l.46.46c.31.16.62,0,.92-.46Z"/><path class="cls-2" d="M66.61,35.11c-.15-1.08-.46-1.39-.92-1.23a1,1,0,0,0-.46,1.23Z"/><path class="cls-2" d="M165.15,36.34c.3.16.61,0,.92-.46l-.46-.46c-.31-.16-.62,0-.92.46Z"/><path class="cls-2" d="M242,39.58l-.46.46c.31.46.62.62.92.46L243,40C242.66,39.58,242.35,39.43,242,39.58Z"/><path class="cls-2" d="M57.25,39.58s-.46.31-.46.46c.15.31.31.77.61.77.62.31.92,0,.62-.61C58,39.89,57.56,39.73,57.25,39.58Z"/><path class="cls-2" d="M232.53,42.05l.46-.47c-.31-.46-.62-.61-.92-.46l-.46.46C231.91,42.05,232.22,42.2,232.53,42.05Z"/><path class="cls-2" d="M200,41.28l-.46-.47c-.46.31-.62.62-.46.93l.46.46A.69.69,0,0,0,200,41.28Z"/><path class="cls-2" d="M183,41.28l-.46-.47c-.46.31-.61.62-.46.93l.46.46A.69.69,0,0,0,183,41.28Z"/><path class="cls-2" d="M226.08,42.82c-.15.31,0,.61.46.92l.46-.46c.15-.31,0-.62-.46-.93C226.54,42.2,226.23,42.66,226.08,42.82Z"/><path class="cls-2" d="M47.43,46.52c-.46.3-.62.61-.46.92s.46.46.46.46c.46-.3.61-.61.46-.92Z"/><path class="cls-2" d="M218.1,48.06c-.46.31-.61.61-.46.92l.46.46c.46-.3.61-.61.46-.92S218.25,48.21,218.1,48.06Z"/><path class="cls-2" d="M208.28,48.21c-.31-.15-.62,0-.93.46l.47.47c.3.15.61,0,.92-.47Z"/><path class="cls-2" d="M235.6,50.37c.15-.31,0-.62-.46-.93l-.46.47c-.16.31,0,.61.46.92Z"/><path class="cls-2" d="M221.32,49.91l-.46-.47c-.46.31-.61.62-.46.93l.46.46C221.32,50.52,221.48,50.22,221.32,49.91Z"/><path class="cls-2" d="M200.29,50.06c.31.46.62.62.93.46l.46-.46c-.31-.46-.62-.62-.92-.46Z"/><path class="cls-2" d="M51.57,49.6s-.46.31-.46.46c.15.31.31.77.61.77.62.31.92,0,.62-.61A1.53,1.53,0,0,0,51.57,49.6Z"/><path class="cls-2" d="M219.63,56.38l.46-.46c-.3-.46-.61-.62-.92-.46l-.46.46C219,56.38,219.33,56.54,219.63,56.38Z"/><path class="cls-2" d="M219,59c.15.16.46.46.46.46.46-.3.61-.61.46-.92l-.46-.46A.64.64,0,0,0,219,59Z"/><path class="cls-2" d="M224.39,62.86c0,.15.15.3.46.46a.58.58,0,0,0,.46.15c.46-.31.62-.61.31-.92s-.61-.62-1.08-.31A.94.94,0,0,0,224.39,62.86Z"/><path class="cls-2" d="M19.19,63.47l.46-.46c-.31-.46-.62-.62-.93-.46l-.46.46C18.57,63.47,18.88,63.63,19.19,63.47Z"/><path class="cls-2" d="M239.59,66.25l.46-.47c-.31-.46-.62-.61-.92-.46l-.46.46C239,66.25,239.28,66.4,239.59,66.25Z"/><path class="cls-2" d="M20.72,66.71c-.31-.15-.61,0-.92.46l.46.46c.31.16.61,0,.92-.46A1.1,1.1,0,0,1,20.72,66.71Z"/><path class="cls-2" d="M259.08,69.18c.31.15.61,0,.92-.47l-.46-.46c-.31-.15-.61,0-.92.46Z"/><path class="cls-2" d="M225.62,68.87c.15-.31,0-.62-.46-.93l-.46.46c-.16.31,0,.62.46.93Z"/><path class="cls-2" d="M29.93,57.92c.31.47.61.62.92.47l.46-.47c-.31-.46-.61-.61-.92-.46Z"/><path class="cls-2" d="M14.27,70.41l.46.46c.46-.31.62-.62.46-.92l-.46-.47A.7.7,0,0,0,14.27,70.41Z"/><path class="cls-2" d="M34.23,71.8l.46.46c.46-.31.61-.62.46-.93l-.46-.46C34.23,71.18,34.07,71.49,34.23,71.8Z"/><path class="cls-2" d="M223,75.8c0,.16.15.31.46.47a.57.57,0,0,0,.46.15c.46-.31.61-.62.31-.92s-.62-.62-1.08-.31C223,75.19,223,75.5,223,75.8Z"/><path class="cls-2" d="M232.68,84.59c.15-.31,0-.62-.46-.92l-.46.46c-.15.31,0,.61.46.92C232.37,85.05,232.53,84.74,232.68,84.59Z"/><path class="cls-2" d="M242.5,86.29l.46-.47c-.3-.46-.61-.61-.92-.46l-.46.46A.69.69,0,0,0,242.5,86.29Z"/><path class="cls-2" d="M241,88.14c-.31-.16-.62,0-.92.46,0,0,.3.31.46.46.31.15.61,0,.92-.46C241.58,88.6,241.12,88.29,241,88.14Z"/><path class="cls-2" d="M21.64,89.68l-.46.46c.31.46.61.62.92.46l.46-.46C22.25,89.68,22,89.52,21.64,89.68Z"/><path class="cls-2" d="M23,92.45l-.46.46c.31.47.62.62.92.47l.46-.47C23.64,92.45,23.33,92.3,23,92.45Z"/><path class="cls-2" d="M229,94.15c-.16.31,0,.61.46.92l.46-.46c.15-.31,0-.62-.46-.93C229.3,93.68,229.15,94,229,94.15Z"/><path class="cls-2" d="M258.31,98.93c.15-.31,0-.62-.46-.93l-.46.46c-.15.31,0,.62.46.93Z"/><path class="cls-2" d="M18.57,102.78c-.15.31,0,.62.46.92l.46-.46c.16-.31,0-.61-.46-.92C18.88,102.16,18.72,102.63,18.57,102.78Z"/><path class="cls-2" d="M240.05,110c.3.47.61.62.92.47l.46-.47c-.31-.46-.61-.61-.92-.46Z"/><path class="cls-2" d="M237.44,113.26l.46.46c.46-.3.61-.61.46-.92l-.46-.46A.64.64,0,0,0,237.44,113.26Z"/><path class="cls-2" d="M241.74,117.42l.46.47c.46-.31.61-.62.46-.93l-.46-.46C241.74,116.81,241.58,117.11,241.74,117.42Z"/><path class="cls-2" d="M246,123.13l.46.46c.46-.31.62-.62.46-.93l-.46-.46C246,122.51,245.88,122.82,246,123.13Z"/><path class="cls-2" d="M18.57,122.66c-.15.31,0,.62.46.93l.46-.46c.16-.31,0-.62-.46-.93C18.88,122.2,18.72,122.51,18.57,122.66Z"/><path class="cls-2" d="M15.19,123.13c.16-.31,0-.62-.46-.93l-.46.46c-.15.31,0,.62.46.93C14.89,123.59,15,123.28,15.19,123.13Z"/><path class="cls-2" d="M241.27,126.06c.16-.31,0-.62-.45-.93l-.47.46c-.15.31,0,.62.47.93Z"/><path class="cls-2" d="M7.83,125.29c-.31-.16-.62,0-.92.46,0,0,.3.31.46.46s.61,0,.92-.46Z"/><path class="cls-2" d="M237.9,127.9c.15,0,.31-.15.46-.46a.56.56,0,0,0,.15-.46c-.3-.46-.61-.62-.92-.31s-.61.62-.31,1.08C237.28,128.06,237.74,128.06,237.9,127.9Z"/><path class="cls-2" d="M254.93,127.9c-.45.31-.61.62-.45.93l.45.46c.47-.31.62-.61.47-.92C255.4,128.21,255.24,128.06,254.93,127.9Z"/><path class="cls-2" d="M235.9,128.83s.31.46.46.46a1.52,1.52,0,0,0,.77-.61c.31-.62,0-.93-.61-.62C236.36,128.06,236.21,128.52,235.9,128.83Z"/><path class="cls-2" d="M240.66,147.94c.16,0,.31-.15.46-.46a.57.57,0,0,0,.15-.46c-.3-.46-.61-.62-.92-.31s-.61.62-.3,1.08A.93.93,0,0,0,240.66,147.94Z"/><path class="cls-2" d="M240.05,149.33v-1.39c-1.08.16-1.23.31-1.38,1.39Z"/><path class="cls-2" d="M240.05,150c0,.15.15.31.46.46a.55.55,0,0,0,.46.16c.46-.31.61-.62.3-.93s-.61-.62-1.07-.31A1,1,0,0,0,240.05,150Z"/><path class="cls-2" d="M253.4,152c.31.16.61,0,.92-.46l-.46-.46c-.31-.16-.61,0-.92.46C252.94,151.64,253.25,151.8,253.4,152Z"/><path class="cls-2" d="M32.23,154.57c.15-.31,0-.61-.46-.92l-.46.46c-.15.31,0,.62.46.93C31.92,155,32.08,154.73,32.23,154.57Z"/><path class="cls-2" d="M33.92,156.42H35.3c-.15-1.08-.46-1.38-.92-1.23A1,1,0,0,0,33.92,156.42Z"/><path class="cls-2" d="M32.69,157.35s.31.46.46.46c.31-.16.77-.31.77-.62.31-.61,0-.92-.61-.61A1.54,1.54,0,0,0,32.69,157.35Z"/><path class="cls-2" d="M32.69,160.28l.46.46c.46-.31.62-.62.46-.93l-.46-.46C32.69,159.66,32.54,160,32.69,160.28Z"/><path class="cls-2" d="M241.74,161.66l.46.47c.46-.31.61-.62.46-.93l-.46-.46C241.74,161.05,241.58,161.35,241.74,161.66Z"/><path class="cls-2" d="M34.07,163.05s.31.46.46.46c.31-.15.77-.3.77-.61.31-.62,0-.93-.61-.62A1.54,1.54,0,0,0,34.07,163.05Z"/><path class="cls-2" d="M243.88,166.29l.47-.47c-.31-.46-.62-.61-.93-.46-.15.16-.46.46-.46.46C243.27,166.29,243.58,166.44,243.88,166.29Z"/><path class="cls-2" d="M240.35,169.83c-.15.31,0,.62.47.93l.45-.47c.16-.3,0-.61-.45-.92C240.66,169.37,240.51,169.68,240.35,169.83Z"/><path class="cls-2" d="M235.6,172.61l-.46-.46c-.46.3-.62.61-.46.92l.46.46A.64.64,0,0,0,235.6,172.61Z"/><path class="cls-2" d="M242,176.31c.31.15.62,0,.92-.46l-.46-.47c-.3-.15-.61,0-.92.47C241.43,175.85,241.89,176.15,242,176.31Z"/><path class="cls-2" d="M41.13,175.85s.31.46.46.46a1.54,1.54,0,0,0,.77-.62c.31-.62,0-.92-.61-.62C41.59,175.23,41.44,175.54,41.13,175.85Z"/><path class="cls-2" d="M27,178.46c-.15.31,0,.62.46.93l.46-.46c.16-.31,0-.62-.46-.93C27.47,177.85,27.17,178.16,27,178.46Z"/><path class="cls-2" d="M23.79,178.93c.15-.31,0-.62-.46-.93l-.46.46c-.15.31,0,.62.46.93Z"/><path class="cls-2" d="M37.91,183.09c.15-.31,0-.62-.46-.93l-.46.47c-.15.3,0,.61.46.92C37.6,183.71,37.76,183.24,37.91,183.09Z"/><path class="cls-2" d="M237.74,184.79c.31.15.62,0,.93-.47l-.46-.46c-.31-.15-.62,0-.92.46C237.29,184.48,237.59,184.63,237.74,184.79Z"/><path class="cls-2" d="M41.29,184.63l.46.46c.46-.3.61-.61.46-.92l-.46-.46A.68.68,0,0,0,41.29,184.63Z"/><path class="cls-2" d="M51.11,193.11s.31.46.46.46c.31-.15.77-.31.77-.61.3-.62,0-.93-.62-.62C51.57,192.34,51.26,192.8,51.11,193.11Z"/><path class="cls-2" d="M40.52,193.42,41,193c-.31-.47-.61-.62-.92-.47l-.46.47C39.91,193.42,40.21,193.57,40.52,193.42Z"/><path class="cls-2" d="M45.58,195.57c-.15.31,0,.62.46.93l.47-.46c.15-.31,0-.62-.47-.93C45.89,195.11,45.74,195.42,45.58,195.57Z"/><path class="cls-2" d="M27.78,196.19l.46-.46c-.31-.46-.61-.62-.92-.46l-.46.46C27.17,196.19,27.47,196.35,27.78,196.19Z"/><path class="cls-2" d="M51,197.89H49.57c.16,1.08.47,1.38.93,1.23A1,1,0,0,0,51,197.89Z"/><path class="cls-2" d="M46.2,199.12l.46-.46c-.31-.46-.62-.62-.92-.46l-.46.46C45.58,199.12,45.89,199.27,46.2,199.12Z"/><path class="cls-2" d="M225.93,203c.3.47.61.62.92.47l.46-.47c-.31-.46-.62-.61-.92-.46S226.08,202.82,225.93,203Z"/><path class="cls-2" d="M231.15,206.21l.46-.46c-.31-.46-.62-.62-.93-.46l-.46.46A.69.69,0,0,0,231.15,206.21Z"/><path class="cls-2" d="M224.54,208.83s.31.46.47.46c.3-.15.76-.3.76-.61.31-.62,0-.93-.61-.62C225,208.06,224.7,208.52,224.54,208.83Z"/><path class="cls-2" d="M62.93,210.68c.15,0,.3-.15.46-.46a.57.57,0,0,0,.15-.46c-.31-.47-.61-.62-.92-.31s-.61.62-.31,1.08A.38.38,0,0,0,62.93,210.68Z"/><path class="cls-2" d="M219.17,211.91c.31.16.62,0,.92-.46,0,0-.3-.31-.46-.46s-.61,0-.92.46C218.71,211.61,219,211.76,219.17,211.91Z"/><path class="cls-2" d="M61.09,211.61s.3.46.46.46a1.56,1.56,0,0,0,.76-.62c.31-.61,0-.92-.61-.61A1.47,1.47,0,0,0,61.09,211.61Z"/><path class="cls-2" d="M216.1,212.68c-.15.31,0,.62.46.93l.46-.46c.16-.31,0-.62-.46-.93Z"/><path class="cls-2" d="M62.77,220.55c.31.15.62,0,.93-.47l-.47-.46c-.3-.15-.61,0-.92.46Z"/><path class="cls-2" d="M203.67,220.85s-.46.31-.46.47c.16.31.31.77.61.77.62.31.93,0,.62-.62C204.44,221.32,204,221,203.67,220.85Z"/><path class="cls-2" d="M206,223.63c-.15-1.08-.3-1.23-1.38-1.39C204.75,223.32,204.9,223.48,206,223.63Z"/><path class="cls-2" d="M206,224.25c0,.15.16.3.46.46a.59.59,0,0,0,.47.15c.45-.31.61-.61.3-.92s-.61-.62-1.07-.31C206,223.63,206,224.09,206,224.25Z"/><path class="cls-2" d="M200.29,224.25c0,.15.16.3.47.46a.56.56,0,0,0,.46.15c.46-.31.61-.61.3-.92s-.61-.62-1.07-.31C200.14,223.63,200.29,224.09,200.29,224.25Z"/><path class="cls-2" d="M53.41,228.1c-.31-.15-.61,0-.92.46L53,229c.31.16.62,0,.92-.46Z"/><path class="cls-2" d="M47.89,231.65c.15-.31,0-.62-.46-.93l-.46.46c-.16.31,0,.62.46.93C47.58,232.11,47.73,231.8,47.89,231.65Z"/><path class="cls-2" d="M201.52,234.57c.16-.3,0-.61-.46-.92l-.46.46c-.15.31,0,.62.46.93Z"/><path class="cls-2" d="M100.68,234.27c.31.46.62.61.93.46l.46-.46c-.31-.47-.62-.62-.93-.47C101,234,101,234.11,100.68,234.27Z"/><path class="cls-2" d="M64,234.57l.46.47c.46-.31.62-.62.46-.93l-.46-.46C64,234,63.85,234.27,64,234.57Z"/><path class="cls-2" d="M51.42,237.66c.3.15.61,0,.92-.46l-.46-.47c-.31-.15-.62,0-.92.47Z"/><path class="cls-2" d="M175.12,238.12l-.46.46c.31.46.62.62.92.46l.46-.46C175.74,238.12,175.43,238,175.12,238.12Z"/><path class="cls-2" d="M64,238.43c-.15.31,0,.61.46.92l.46-.46c.16-.31,0-.62-.46-.93C64.46,237.81,64.16,238.27,64,238.43Z"/><path class="cls-2" d="M161.16,240.74c.15,0,.3-.15.46-.46a.58.58,0,0,0,.15-.46c-.31-.47-.61-.62-.92-.31s-.61.61-.31,1.08C160.54,240.74,160.85,240.74,161.16,240.74Z"/><path class="cls-2" d="M159.16,241.66s.31.47.46.47a1.54,1.54,0,0,0,.77-.62c.31-.62,0-.92-.61-.62C159.62,240.89,159.32,241.36,159.16,241.66Z"/><path class="cls-2" d="M107,240.89s-.46.31-.46.47a1.55,1.55,0,0,0,.61.77c.62.31.92,0,.62-.62C107.75,241.2,107.28,241.05,107,240.89Z"/><path class="cls-2" d="M66.15,241.05c-.31-.16-.61,0-.92.46l.46.46c.31.16.61,0,.92-.46C66.61,241.36,66.3,241.2,66.15,241.05Z"/><path class="cls-2" d="M69.68,242.59c-.15.31,0,.62.46.92,0,0,.31-.3.46-.46.16-.31,0-.61-.46-.92Z"/><path class="cls-2" d="M50.8,242.59l-.46-.46c-.46.31-.61.61-.46.92l.46.46A.68.68,0,0,0,50.8,242.59Z"/><path class="cls-2" d="M59.24,244.13l-.46-.46c-.46.31-.61.62-.46.92l.46.47C59.24,244.75,59.4,244.44,59.24,244.13Z"/><path class="cls-2" d="M128.46,246.44c.16,0,.31-.15.47-.46a.57.57,0,0,0,.15-.46c-.31-.46-.62-.62-.92-.31s-.62.62-.31,1.08C127.85,246.44,128.16,246.44,128.46,246.44Z"/><path class="cls-2" d="M45.12,246c.16-.31,0-.62-.46-.92l-.46.46c-.15.31,0,.61.46.92Z"/><path class="cls-2" d="M55.1,247.37c.15-.31,0-.62-.46-.93l-.46.47c-.15.3,0,.61.46.92A1.1,1.1,0,0,1,55.1,247.37Z"/><path class="cls-2" d="M40.83,247.37c.15-.31,0-.62-.46-.93l-.46.47c-.16.3,0,.61.46.92Z"/><path class="cls-2" d="M109.13,248.76c.15-.31,0-.62-.46-.93l-.46.46c-.16.31,0,.62.46.93C108.67,249.37,108.82,249.06,109.13,248.76Z"/><path class="cls-2" d="M118.8,249.53c-.31-.16-.62,0-.92.46l.45.46c.31.15.62,0,.93-.46Z"/><path class="cls-2" d="M81.34,251.19c.31.46.62.62.92.46l.47-.46c-.31-.46-.62-.62-.93-.46C81.65,250.88,81.65,251,81.34,251.19Z"/><path class="cls-2" d="M64.31,254.77c.31.15.61,0,.92-.47l-.46-.46c-.31-.15-.61,0-.92.46Z"/><path class="cls-2" d="M51.57,253.69s-.46.31-.46.46a1.52,1.52,0,0,0,.61.77c.62.31.92,0,.62-.62A3.44,3.44,0,0,0,51.57,253.69Z"/><path class="cls-2" d="M190.6,238c.15-.3,0-.61-.46-.92l-.46.46c-.16.31,0,.62.46.93Z"/><path class="cls-2" d="M129.39,256l.46.46c.46-.31.61-.61.46-.92l-.46-.46C129.39,255.38,129.23,255.69,129.39,256Z"/><path class="cls-2" d="M52.49,255.69c0,.16.15.31.46.46a.55.55,0,0,0,.46.16c.46-.31.62-.62.31-.93s-.62-.61-1.08-.3C52.34,255.08,52.34,255.38,52.49,255.69Z"/><path class="cls-2" d="M89.4,238.2l.46-.47c-.31-.46-.62-.61-.93-.46l-.46.46C88.78,238.2,89.09,238.35,89.4,238.2Z"/><path class="cls-2" d="M57.86,261.24l-.46-.46c-.46.31-.61.61-.46.92l.46.47C57.86,261.86,58,261.55,57.86,261.24Z"/><path class="cls-2" d="M52.64,263.09l.46.46c.47-.31.62-.61.47-.92l-.47-.46C52.64,262.48,52.49,262.78,52.64,263.09Z"/><path class="cls-2" d="M94.31,245.13l.46.47c.46-.31.61-.62.46-.93-.16-.15-.46-.46-.46-.46A.68.68,0,0,0,94.31,245.13Z"/><path class="cls-2" d="M88.63,246.06c-.16.31,0,.61.46.92l.46-.46c.15-.31,0-.62-.46-.92Z"/><path class="cls-2" d="M181.26,252.12c-.3-.16-.61,0-.92.46l.46.46c.31.16.62,0,.92-.46Z"/><path class="cls-2" d="M91.94,254c.15-.3,0-.61-.46-.92l-.46.46c-.16.31,0,.62.46.93Z"/><path class="cls-2" d="M119.72,277.58c.3.15.61,0,.92-.46l-.46-.46c-.31-.16-.62,0-.92.46C119.26,277.27,119.56,277.43,119.72,277.58Z"/><path class="cls-2" d="M102.37,277.43l.46.46c.46-.31.62-.62.46-.93l-.46-.46C102.37,276.81,102.22,277.12,102.37,277.43Z"/><path class="cls-2" d="M108.05,261.21l.46.46c.46-.31.62-.61.46-.92s-.46-.46-.46-.46C107.9,260.44,107.9,260.75,108.05,261.21Z"/><path class="cls-2" d="M155.79,259.7l.46-.46c-.31-.47-.62-.62-.93-.47l-.46.47A.65.65,0,0,0,155.79,259.7Z"/><path class="cls-2" d="M155,263.24c-.16.31,0,.62.46.93l.46-.46c.15-.31,0-.62-.46-.93Z"/><path class="cls-2" d="M151.49,265.4l.46-.46c-.31-.46-.62-.62-.92-.46l-.46.46C150.87,265.4,151.18,265.56,151.49,265.4Z"/><path class="cls-2" d="M222.4,225.32l.46-.46c-.31-.46-.62-.61-.92-.46l-.46.46A.64.64,0,0,0,222.4,225.32Z"/><path class="cls-2" d="M138.44,257.54c-.31-.15-.61,0-.92.46l.46.47c.31.15.62,0,.92-.47C139.05,258,138.6,257.7,138.44,257.54Z"/><path class="cls-2" d="M112.2,268.76c-.16.31,0,.62.46.93,0,0,.3-.31.46-.46.15-.31,0-.62-.46-.93C112.66,268.15,112.35,268.61,112.2,268.76Z"/><path class="cls-2" d="M121.4,265.1l.46.46c.47-.31.62-.62.47-.93l-.47-.46C121.25,264.32,121.25,264.63,121.4,265.1Z"/><path class="cls-2" d="M120.18,257.23l.46.47c.46-.31.61-.62.46-.93l-.46-.46C120.18,256.62,120,256.92,120.18,257.23Z"/><path class="cls-2" d="M196.92,241.82c.15-.31,0-.62-.46-.93l-.46.47c-.16.3,0,.61.46.92Z"/><path class="cls-2" d="M89.09,241.28c.15,0,.31-.15.46-.46a.59.59,0,0,0,.15-.47c-.3-.46-.61-.61-.92-.3s-.61.61-.31,1.08C88.47,241.28,88.93,241.28,89.09,241.28Z"/></g></svg>