<svg xmlns="http://www.w3.org/2000/svg" viewBox="0 0 843 3" preserveAspectRatio="none">
    <defs>
        <style>
            .cls-1 {
                fill: #ececec;
            }
        </style>
    </defs>
    <path class="cls-1"
        d="M.2,1.67C.27,1.08,1.18.44,7,.41c.94,0,2.42,0,3.36,0C49,.41,50.22.16,54.09.16c5.16-.12,5.16.73,41,.41,8.2,0,16.45,0,24.65,0L160,.16c5.24-.11,10.48-.22,15.38-.12C207.91.22,422,.45,454.54.73c15.51.07,30.48.07,46.4,0,15,0,30.35-.12,45.73-.24,10.61,0,21.29,0,32,.11,4.84,0,9.81.2,14.71.3,10.74.16,21.62.52,32.63.38,15.38-.12,29.55-.15,44.83-.22,4.44.12,7,0,11.8-.06C688.72,1.16,694,1,700.53.93c8.19,0,17.63-.38,26-.12,3,.07,12.29-.25,14.37,0,3.16.37,3.89-.46,2.88.16-.53.61-11.64-.17-15.27.17-4.16.26-7.81.08-12.17.06-9.2,0-16.93.23-26.06.3-11.08,0-22.57.2-33.65.25-5.3,0-11.15-.05-16.38.06-15.18.4-29.82.2-44.86.11-11.15,0-22.43-.29-33.51-.25-31.29.16-62.84-.53-94.54-.26-9.13.07-18.67.25-27,.09-12.83-.38-25.26.13-38.69.27-18.27.13-219-.05-237.22.18-9.13.07-18.26.14-26.93.19-7.18.09-14.44.08-21.62.17-6.25,0-12.49.1-18.33,0-10.21-.09-20-.2-30.15-.28Q42,2,17.06,2.55a38.06,38.06,0,0,1-5.44-.18c-2.75-.48-5.81,1-7.08.55-1.81-1.2-3.2.37-4.54-.85H.47Z" />
    <path class="cls-1"
        d="M672.9,1c9-.06,17.54-.19,26.51-.25h24.22c3,.12-8.67.47,29.3.44,10.8,0,86.18-1.06,90.07.34.15.64-25.79.38-28.48.4-19.09.05-17.95.79-37.2.53C743,2,746,2.33,737.58,2.41s-66.33-.23-68.07-.91C669,1.32,666.57,1.36,672.9,1Z" />
</svg>