<svg id="Layer_1" data-name="Layer 1" xmlns="http://www.w3.org/2000/svg" viewBox="0 0 104 3">
    <defs>
        <style>
            .cls-1 {
                fill: #F2F2F2;
            }
        </style>
    </defs>
    <path class="cls-1"
        d="M104,.41c0-.22-.11-.26-.89-.27-.12,0-.32,0-.45,0-2,0-4,0-6,0H91.23c-1.11,0-2.22,0-3.32,0L82.49,0a20.53,20.53,0,0,0-2.07,0C76,.12,42.58.66,38.19.8c-2.09,0-4.11.06-6.25.06s-4-.67-6-.7c-1.42,0-3,.71-4.43.74-.65,0-1.32.09-2,.13-1.45.07-2.92.21-4.4.17-2.07,0-4,0-6,.19a14.74,14.74,0,0,1-1.88,0,14.93,14.93,0,0,0-2.12-.07c-1.13.07-2.37.09-3.5.19a7.21,7.21,0,0,0-1.1.18c-.43.14-.55-.05-.42.18s.56.27,1,.39a8.17,8.17,0,0,0,1.65.12c1.24,0,2.47,0,3.69,0,1.5,0,3,0,4.53,0,.71,0,1.5,0,2.2,0,2,.12,4,0,6,0,1.5,0,3-.13,4.52-.12,4.21,0,8.47.08,12.73.14,1.23,0,2.51.07,3.64,0,1.73-.15,3.42.51,5.23.55,2.46,0,9.61-1.33,12-1.27l28.11.4c1,0,2,0,2.91,0s1.56.69,2.35.66c1.37,0,2.81-.75,4.19-.8q3.41,0,6.77.13a1.79,1.79,0,0,0,.73-.07,4.83,4.83,0,0,0,.94-.51,8.52,8.52,0,0,0,.63-1h-.06Z" />
</svg>