<svg id="Layer_1" data-name="Layer 1" xmlns="http://www.w3.org/2000/svg" viewBox="0 0 95.96 412.88"><defs><style>.cls-1{fill:#fcebce;}</style></defs><path class="cls-1" d="M94,393.86c-.69.23-.36,1.12-1,.67-1.12-.84-.45,1.12-1.48.35-.49-.37,1-2.07,1.48-2.47s.29-.47.44-1.06c.29-1.17.49-1.81-1.92-1.4-.37.12.55-.49.46-.93a2.29,2.29,0,0,0-1-1.39c-.6-.45-1.09-.36-1.34.78a1,1,0,0,0,.09.72,2.47,2.47,0,0,0,.84.91l.32.12a1.89,1.89,0,0,1,1.16.8,2.15,2.15,0,0,1-1.17,2.9,5,5,0,0,1-1.08.3,1.59,1.59,0,0,1-.81,0,2.81,2.81,0,0,1-1.34-1.53,31.38,31.38,0,0,1-1-4.37c-.27-1.44.91-3.19,1.27-4.61a1.28,1.28,0,0,0,0-.67c-.53-1.79-2.83-2-3.24-3.81a3.72,3.72,0,0,0-1.42-2.26l-1.11-.73a5.9,5.9,0,0,0-5.07-.8l-1.85.6a4.61,4.61,0,0,1-3.83-.24,9.4,9.4,0,0,1-1.37-1c-1.28-1.15-1.43-3.58.11-4.09.19-.06.37-.11.56-.15a6.83,6.83,0,0,1,5.08.69l.23.15a2.28,2.28,0,0,0,1.92.21,3.26,3.26,0,0,0,1.94-1.94c.78-1.89,1.64-3.71,2.44-5.59.57-1.34.25-3.93-1-3.54-4,.92-7.84,2.17-11.73,3.42-.65.21-.75-1.3-.44-2a27.8,27.8,0,0,0,1-2.8c.27-.61.36-1.28.83-1.68a2.54,2.54,0,0,0,.73-1.31c.22-.89-.26-1.34-1.33-1.39a1.63,1.63,0,0,1-1.5-1.32,1.72,1.72,0,0,1,1-2l2-.65c.26-.09.44-.5.63-.92s.37-.83,0-1.08l0,0a2.89,2.89,0,0,0-2.11-.71,2,2,0,0,0-1.76.94c-.89,1.54-1.53,3.91-2.67,2.64s-.94-3.35-2.25-4.14a1.78,1.78,0,0,0-1.45,0,4,4,0,0,0-2.08,1.95c-.71,1.27-2.27,1.85-2.74.43a7.29,7.29,0,0,1-.18-.74,6.11,6.11,0,0,1,.49-3.85c.36-.72.75-1.48,1.17-2.34.56-1.15,1.29-2.17,2.4-2.32a4.77,4.77,0,0,0,2.44-.84,2.26,2.26,0,0,0,1-2,1,1,0,0,0-.3-.42,1.72,1.72,0,0,0-1.42-.32,5.13,5.13,0,0,1-3.6-.72l-.87-.6a6.17,6.17,0,0,1-2.6-3.19c-.46-1.42-.72-2.9-1-4.37a7.58,7.58,0,0,0-2-4,20.09,20.09,0,0,0-2.5-1.8,2.87,2.87,0,0,0-1.24-.45c-1.77-.14-2.68-2.34-1.91-4.26.15-.35.29-.71.43-1.06a4.5,4.5,0,0,0-1.21-5.18l-2-1.52a1.9,1.9,0,0,1-1-1.47,1.82,1.82,0,0,1,.06-.46,1.48,1.48,0,0,1,1.27-1.17l1-.13a1.43,1.43,0,0,0,.73-.35,1.65,1.65,0,0,0,0-2.44,2.67,2.67,0,0,0-2.09-.08l-3.63,1.17c-.37.11-.73.23-1.11.31a2.92,2.92,0,0,1-2.37-.7c-1.93-1.44-2.77-4.64-.52-5.08l.72-.14a4.74,4.74,0,0,0,2.68-2.22,4.61,4.61,0,0,0,.38-.65c1.55-3,2.77-6.24,4.25-9.56a6,6,0,0,0,.51-1.36,1.74,1.74,0,0,0-1.17-1.86,1.37,1.37,0,0,0-1.13.14,2.06,2.06,0,0,1-.49.25A2,2,0,0,0,41.53,285a7.89,7.89,0,0,1-2.13,3.1,7.88,7.88,0,0,0-2.54,2.8,4.25,4.25,0,0,1-1.16,1.65,6.15,6.15,0,0,1-3.34,1.14c-.92.07-2.43.42-2.67-.65l-1.15-5.16a2.65,2.65,0,0,1,1.51-3.14,2.13,2.13,0,0,1,.55-.1c.91-.08,1.3-.59,1.57-1.66.11-.74-.55-1.24-1.55-2a1.86,1.86,0,0,1-.81-2.12c.35-.81,1.14-1.06,1.88-1.37,1.43-.61.83-2.5-.4-3.56a4.8,4.8,0,0,1-1.42-2.5c-.69-3.12-1.38-6.22-2.05-9.21-.32-1.42.84-3.17,1.2-4.58a5.36,5.36,0,0,0-.89-4,1.82,1.82,0,0,0-1.18-.74c-.6,0-1.69-.28-1.41-.92.92-2.08,1.59-4.07,2.59-5.82.29-.65,1.16.25,1.32,1s.27,1.2.4,1.8A3.12,3.12,0,0,0,31,250.85c.82.59,1.14.69,1.64.47a13.66,13.66,0,0,0,1.38-.69c.74-.43.89-1.06.83-2.25a6.51,6.51,0,0,0-.24-1.52,4,4,0,0,0-1.14-2,1.68,1.68,0,0,0-1.66-.25l-1.07.35c-.79.25-1.1-.69-1.79-1.21-.43-.32-.87-.64-1.31-1a3.4,3.4,0,0,1-.73-3.92l.38-.84a1.82,1.82,0,0,1,2.72-1,1.36,1.36,0,0,0,2.18-.86A3.34,3.34,0,0,0,31,232.82a13.89,13.89,0,0,1-2.41-2.73c-.61-1-.84-2.42-1.79-2.88A1.94,1.94,0,0,0,25.6,227c-.59.08-1,.45-1.62.42-1.22-.06-1.83-1.85-2.15-3.27-.46-2.07-1-4.27-1.45-6.48a1.46,1.46,0,0,1,.9-1.8.7.7,0,0,1,.63.05,2.86,2.86,0,0,1,.95,1.64l.41,1.86c.45,2,1.53,4.31,3.25,4.11a7.88,7.88,0,0,0,2.22-.77c1.33-.6,3.31-2.57,1.91-2.9a1.25,1.25,0,0,0-.35,0c-.85-.08-1.55.5-2.48.09a7.18,7.18,0,0,1-.69-.28,1.46,1.46,0,0,1-.55-2.35,11.74,11.74,0,0,1,1.66-.93c1.87-1.13,1.81-1.4,1.28-3.76-.17-.76-.36-1.64-.55-2.5a4.81,4.81,0,0,0-1.74-2.81c-2.41-2.08-2.63-3.07-1.67-6.23.44-1.73-.41-3.42-1.87-3l-.17.05c-1.55.5-2.22,0-2.92-1.9-.63-1.58-.22-3.49.74-4.16.61-.51,1.34-.51,2-.89.18-.11.3-.14.42-.34a3.52,3.52,0,0,0,.38-2.44c-.28-1.24-.56-2.5-.86-3.87a3.31,3.31,0,0,0-1-1.88c-1.22-1.08-2.14-3-.76-3.74a5.16,5.16,0,0,0,2-1.39,3.4,3.4,0,0,0,.1-2.54c-.25-1.11-.66-2.37-1.61-2.55l-.2,0c-2.68-.24-3.19-2.69-1.93-5.53l1.78-4a2.2,2.2,0,0,1,1.3-1.24l1.33-.43c.71-.23,1.38.58,1.91,1.19a8.85,8.85,0,0,1,1.05,1.49c.3.54.8.38,1.17.27a2.32,2.32,0,0,0,1.1-.73,1.55,1.55,0,0,0-.37-2.09,2.35,2.35,0,0,0-.48-.3,1.59,1.59,0,0,0-.81,0,6.92,6.92,0,0,0-1.57.49c-.76.32-1.07-.59-1.76-1.1a14.26,14.26,0,0,1-4-6.92l-.94-4.21a3.42,3.42,0,0,1,.15-1.65c.16-.46.43-.19.81,0a3.78,3.78,0,0,1,.83.48,2.08,2.08,0,0,1,.45.93c.4,1.19.53,2.7.85,4.15a4.61,4.61,0,0,0,.24.77c.51,1.24,1.87.93,3,.7.42-.09.84-.17,1.26-.29,1.85-.53,1.91-3.36.31-4.61-.43-.33-.87-.63-1.31-.93A4,4,0,0,1,25,144.21v0a3.63,3.63,0,0,0,.13-2.09c-.44-2,.51-4.06,2.13-4.59l.43-.13c.26-.09.44-.5.63-.92s.37-.83,0-1.08l0,0a2.9,2.9,0,0,0-2.11-.71,2.06,2.06,0,0,0-1.73.89c-1,1.53-1.86,4.3-2.71,2.69-.43-.92-.84-1.91-1.34-2.8-1.29-2.27-1.16-3.2-1.76-5.86a3.48,3.48,0,0,1,.19-2.91,2.51,2.51,0,0,1,3-1.33c1.37.83,2.65,1.86,4,2.81.89.64,2.63.4,2.58-.84,0-.12,0-.21,0-.33,0-.32-.08-.64-.13-1-.52-3-3.71-4.38-4-7.42a.19.19,0,0,1,0-.08c.05-1.51.94-1.72,1.82-1.82a3,3,0,0,1,2,.46,2.46,2.46,0,0,0,3.58-1.28.3.3,0,0,1,0-.08c.63-1.42.27-3.47-1.07-3.6-1.11,0-2.33.75-3.62,1.17s-1.65-2.27-1.06-3.62c.21-.46.42-.92.62-1.38a4,4,0,0,1,2-2l.15-.08a2.92,2.92,0,0,0,1.18-1.43c.1-.23.21-.45.32-.68.7-1.48,2.76-.72,4.15-.37.12,0,1.76-2.5.24-2.65.85.08-.28.22-.87,0-1.18-.33-1.55.5-.74,1.66l0,.07c.72.93,2.52-1.27,1.56-1.78-1.34-1-1.87-.7-2.2-1L31,99.09a3,3,0,0,1-.7-3.26,2.59,2.59,0,0,0-.61-2.74L29.56,93c-.83-.83-1.18-2.38-.24-3a9.32,9.32,0,0,1,2.94-1c4.1,1.18,5.86,1.32,6.32.26,0-.09.08-.17.11-.26.91-2.12,3.56,0,2.06-1.57a3.65,3.65,0,0,1-1-2.53A3.26,3.26,0,0,1,40,83.52l.05-.11c.74-1.67,1-4.33-.26-5.46a4.09,4.09,0,0,1-1.11-1.84c-.33-1.12-.6-2.37.45-3.24,1.92-1.33,3.22.79,2.87-1.84a5.31,5.31,0,0,1,0-2c.2-.75-1.41-2.12-.78-2.33,1.19-.38.49-.13,1.46.79.71.67,1,.78,1.72,1.41,1,.87.83-1.59,2-2.12l.28-.14a2.91,2.91,0,0,0,1.06-1.27c.83-1.62.49-4.05,1.83-3l2,1.48c.33.25.22,1,.29,1.33a1.46,1.46,0,0,0-1.59,1.58,7.22,7.22,0,0,0,0,1.46,6,6,0,0,0,.53,2.6l0,.06c.51.76,1.41.48,1.78-.39a3.64,3.64,0,0,0,.08-2c-.2-1.13-.63-2.31-.86-3.34,1.37-.09,1.93-1.33,1.89-2.75-.06-2.28-.46-5.52,1.38-6.12h0c.26-.08.44-.5.63-.91s.37-.83,0-1.08L55.6,54a2.15,2.15,0,0,0-1.68-.55,2.12,2.12,0,0,0-2.36,2.26c-.1,1-.63,2.59-1.31,2.08-1-.59-.9-1.34-1.8-2.07s-1.52-2.43-.72-3.15a2,2,0,0,1,.39-.24,8.76,8.76,0,0,1,2.35-1,2.51,2.51,0,0,0,.79-.42c.77-.61.24-1.86-.51-2.51-1-.91-1.42-2.66-.34-3.5.58-.46,1.21-.83,1.77-1.31,1.1-.94,2.88-2,4.06-1.21a1.66,1.66,0,0,0,1.43.22l2.1-.68a5,5,0,0,0,2.76-2.49A5,5,0,0,1,65.29,37L74.37,34c.78-.25,1.74-.92,1.52-1.92A3,3,0,0,0,74.76,31a1.72,1.72,0,0,0-1.1-.06c-.3,0-.6.11-.91.13-1.31.13-1.59-1.79-.88-3.12.13-.25.27-.49.4-.73a2.17,2.17,0,0,1,3-1A1.22,1.22,0,0,0,77,25.75c.51-1.2-.09-2.73-.06-4.12s1.22-2,2.3-2.34l1.61-.52c1-.34,2.13-.82,2-2.13-.16-2.08-1.82-4.12-1-6,.1-.24.21-.48.32-.72A3.73,3.73,0,0,1,83.47,8.3C85.1,7.22,86.83,7,88.38,6.58a4.27,4.27,0,0,1,3.72.54c.82.61,1,.57,1.92.3ZM44.44,72c-.68,1.51,1.16,2,2.54,1.57,1.63-.52,1.27-.57,2.9-1.09.12,0,.21-.24.29-.48a2.1,2.1,0,0,0,.2-1.46c-.36-1-1.63-.9-2.5-.62-1.89.61-1,.23-2.88.83C44.73,70.83,44.62,71.58,44.44,72ZM92.63,382.37c.85-1.87.22-4.7-1.46-4a2.2,2.2,0,0,0-.63.41c-1.07.93-1.16,2.86-.77,4.38a2.81,2.81,0,0,0,.25.69C90.67,385.08,92.05,383.64,92.63,382.37ZM24.56,172c-.29-1.95,2.16-2.73,2.71-.87C27.88,173.2,24.89,174.16,24.56,172ZM28,193.69c.43,0,.71-.57.95-1a.87.87,0,0,0,.18-.59c-.22-1-.44-2-.67-3-.07-.33-.66-.5-1-.75-.52-.39-1.1.48-1.26,1.2-.29,1.35.33,3.36,1.42,4A1,1,0,0,0,28,193.69ZM60.26,51.17a.73.73,0,0,0,.41.18.82.82,0,0,0,.71-.47A1.27,1.27,0,0,0,61,49.23a.8.8,0,0,0-.41-.18.85.85,0,0,0-.71.48A1.26,1.26,0,0,0,60.26,51.17Zm-26.7,174.9c-.47-.38-1.09-.1-1.36.5a1,1,0,0,0-.1.39,1.3,1.3,0,0,0,.38,1c.42.46,1.05.16,1.32-.44.05-.14.15-.27.21-.4C34.16,226.77,34,226.44,33.56,226.07Zm2.18,57.66a.91.91,0,0,0,.28-.4,1.28,1.28,0,0,0-.35-1.66.76.76,0,0,0-.82,0,1,1,0,0,0-.27.4,1.29,1.29,0,0,0,.34,1.66A.74.74,0,0,0,35.74,283.73Zm17.82,33.8a1.07,1.07,0,0,0,.28-.4,1.3,1.3,0,0,0-.35-1.66.74.74,0,0,0-.82,0,.91.91,0,0,0-.28.4,1.28,1.28,0,0,0,.35,1.66A.76.76,0,0,0,53.56,317.53Zm13.18,26.19a1.07,1.07,0,0,0-.28.4,1.28,1.28,0,0,0,.35,1.66.74.74,0,0,0,.82,0,1,1,0,0,0,.28-.4,1.28,1.28,0,0,0-.35-1.66A.76.76,0,0,0,66.74,343.72Zm19.62,27.12a.81.81,0,0,0-.41-.19.85.85,0,0,0-.71.48,1.27,1.27,0,0,0,.39,1.65.8.8,0,0,0,.4.18.86.86,0,0,0,.72-.48A1.26,1.26,0,0,0,86.36,370.84Z"/><path class="cls-1" d="M56.29,360a2.7,2.7,0,0,1,1.14-3.57,8.25,8.25,0,0,1,2-.8,4.81,4.81,0,0,1,3.93.8l.65.41a1.89,1.89,0,0,0,1.59.15l1.31-.42a1.28,1.28,0,0,1,1.58,1.09,1.61,1.61,0,0,1-.91,1.9l-2.92.93a4.1,4.1,0,0,1-3.43-.49,4,4,0,0,0-3.42-.5Z"/><path class="cls-1" d="M83.43,400.77l4.11-1.32a2.91,2.91,0,0,1,3.25,1,2.39,2.39,0,0,1,.6,2.5,1.46,1.46,0,0,1-2.19.92c-.77-.46-2-.27-2.14.74a1.44,1.44,0,0,1-2.88-.23c0-.08,0-.17,0-.26A14.4,14.4,0,0,0,83.43,400.77Z"/><path class="cls-1" d="M14.77,139c2.21-.71,5.18-.81,5.46,1.92a1.94,1.94,0,0,1,0,.24c.19,2.08.08,2.82-1.48,3.32-2,.65-3.31-2.32-3.83-4.72C14.88,139.53,14.83,139.27,14.77,139Z"/><path class="cls-1" d="M8.75,182.2a2.91,2.91,0,0,1-.25-4,.91.91,0,0,1,.92-.22,7.25,7.25,0,0,1,3,1.59,3,3,0,0,1,.17,4,1,1,0,0,1-1,.21A8.74,8.74,0,0,1,8.75,182.2Z"/><path class="cls-1" d="M22.53,211.77c-.26.32-.79.59-1.1.36l-1.73-1.29a3.5,3.5,0,0,1-.83-4,3.23,3.23,0,0,0,.19-1c0-.32,0-.64-.07-1,0-.72,0-1.17.29-1.3s1,.17,1.46.46c.27.18.34.49.47.82a16.65,16.65,0,0,1,1.41,6.45C22.63,211.51,22.67,211.6,22.53,211.77Z"/><path class="cls-1" d="M37.86,313.25a2.39,2.39,0,0,1,2,0,9.86,9.86,0,0,1,1.6,1.06c1.32,1.05,2.1,3.69.55,4.09a2.35,2.35,0,0,1-2.08-.54,20.59,20.59,0,0,0-2.19-1.38c-1.93-1.16-2-1.49-.86-2.57A2.86,2.86,0,0,1,37.86,313.25Z"/><path class="cls-1" d="M34.31,317.5a2.3,2.3,0,0,1,2.67,2l.21.92a2.88,2.88,0,0,1,0,1.57,2.52,2.52,0,0,1-2.29,1.8c-1.62.17-2.22,0-2.66-2a3.88,3.88,0,0,1,0-2.34A2.81,2.81,0,0,1,34.31,317.5Z"/><path class="cls-1" d="M61.66,13a2,2,0,0,1,0,1.45A3.9,3.9,0,0,1,60.51,16c-1.8,1.29-2.56-2.26-1.57-4.47.55-1.25.74-1.67,1.33-1.5a2,2,0,0,1,1.32,1.8A8.11,8.11,0,0,0,61.66,13Z"/><path class="cls-1" d="M50.74,36.39c-1.43-1.19-1.92-4.54-.19-4.38l.28.05a3.86,3.86,0,0,1,2.42,3,3,3,0,0,1,0,1.23C53,37.52,51.57,37.09,50.74,36.39Z"/><path class="cls-1" d="M21.66,117.9c-.05,1.5-1.85.42-2.17-1s.34-1.1,0-2.58a1.25,1.25,0,0,1,.23-.91c.39-.68,1.52-1.22,1.7-.42C22.2,115.21,21.92,115.33,21.66,117.9Z"/><path class="cls-1" d="M18.11,200.31a3.27,3.27,0,0,1-1.93,4.29l-.4.06a1.66,1.66,0,0,1-.44,0c-1-.15-1.11-2.08-.64-3.14l.6-1.34c.42-1,1.72-1.63,2.31-.82A4.25,4.25,0,0,1,18,200Z"/><path class="cls-1" d="M14.37,229.21c-.86-2.08,1.64-3.14,3.27-1.91a2.27,2.27,0,0,1,1.07,2.57,1.4,1.4,0,0,1-.81.76,2.64,2.64,0,0,1-3.41-1.16Z"/><path class="cls-1" d="M53.21,333.78c.48,2.29-2.16,2.27-2.81.05a8.8,8.8,0,0,1-.38-2c-.14-1.94,1.92-2.62,2.45-.78.22.72.37,1.52.63,2.28C53.14,333.51,53.18,333.63,53.21,333.78Z"/><path class="cls-1" d="M40.53,351.94c-.94,1.89-3.94,2.44-3.73.26,0-.05,0-.09,0-.14a3.6,3.6,0,0,1,2.46-3,1.15,1.15,0,0,1,1.2.27A2.33,2.33,0,0,1,40.53,351.94Z"/><path class="cls-1" d="M61.31,379.08a2.86,2.86,0,0,1-.18,1.94,2.89,2.89,0,0,1-1.27,1.35c-1.74.82-2.4-2.22-1.47-4.17.1-.23.18-.46.26-.7.29-.9.7-1.27,1.22-1.13a2.1,2.1,0,0,1,1.35,2.07A4.48,4.48,0,0,0,61.31,379.08Z"/><path class="cls-1" d="M85.34,385.63c.13.65-.31,1-.7,1.49a.36.36,0,0,0-.07.1l-.81,1.84c-.46,1-1.71,1.62-2.4.8a.91.91,0,0,1-.2-.33,10,10,0,0,1-.47-1.81,2.62,2.62,0,0,1,1.5-2.94l1.47-.47C84.38,384.08,85.18,384.76,85.34,385.63Z"/><path class="cls-1" d="M83,394.29a2.18,2.18,0,0,1,.81,3,3.82,3.82,0,0,0-.42,3.43,1.9,1.9,0,0,1-2-.29,4.52,4.52,0,0,1-1.16-4,2.81,2.81,0,0,1,2.26-2.22A.88.88,0,0,1,83,394.29Z"/><path class="cls-1" d="M53.58,372.18c-.16-.49-.19.06,0-.39a3.9,3.9,0,0,1,1.13-1.51c1.8-1.29,2.56,1.19,1.57,3.41-.55,1.24-.74,1.66-1.33,1.49a2,2,0,0,1-1.33-1.79A6.86,6.86,0,0,0,53.58,372.18Z"/><path class="cls-1" d="M60.81,31.3c-1.55.5-2.81-.16-2.52-1.33s.66-1.56,1.54-1.65a2.91,2.91,0,0,0,.59-.1,1.7,1.7,0,0,1,1.46.12c.52.35.79.78.52,1.38-.18.41-.29,1.16-.55,1.24Z"/><path class="cls-1" d="M29.19,79a3.63,3.63,0,0,1,1.31-.64,1.68,1.68,0,0,1,1.64.67c.81,1.16,0,2.49-1.56,3l-.2.07a1.7,1.7,0,0,1-1.56-.28,1.12,1.12,0,0,1-.44-.52,1.86,1.86,0,0,1,.25-1.52A2.32,2.32,0,0,1,29.19,79Z"/><path class="cls-1" d="M13.1,90.75c0,1.68-1.92.52-2.3-1.09a9.83,9.83,0,0,1-.2-1,3.23,3.23,0,0,1,0-1.24,2.19,2.19,0,0,1,.12-.33c.35-.87,1.29-1.2,1.8-.44a4,4,0,0,1,.51,1.3A10.24,10.24,0,0,1,13.1,90.75Z"/><path class="cls-1" d="M1,99.94a.77.77,0,0,1,.63,0,2.55,2.55,0,0,1,1,3.48,1.63,1.63,0,0,1-.44.66c-.33.23-.76-.07-1.08-.33a2.58,2.58,0,0,1-.84-3.2A1.15,1.15,0,0,1,1,99.94Z"/><path class="cls-1" d="M23.84,101.53c.45,2,0,3.58-1,3.16a2.08,2.08,0,0,1-1.35-2,4.82,4.82,0,0,0-.1-.75A3.28,3.28,0,0,1,21.5,100c.25-.62.58-.93,1.05-.58s.92.41,1,.75S23.77,101.2,23.84,101.53Z"/><path class="cls-1" d="M8.41,113.27c-1.55.5-2.81-.17-2.52-1.33s.66-1.56,1.54-1.65a2.91,2.91,0,0,0,.59-.1,1.64,1.64,0,0,1,1.45.12c.53.35.8.78.53,1.38-.18.41-.29,1.16-.55,1.24Z"/><path class="cls-1" d="M14.77,139c-.75.25-1.6.71-2.43.94a2.08,2.08,0,0,1-1.86-.22,1.52,1.52,0,0,1-.32-2.07,2.33,2.33,0,0,1,1.1-.72,5,5,0,0,1,2.22,0C14.33,137,14.81,138,14.77,139Z"/><path class="cls-1" d="M26,257.72c.39,1.71-.51,3.76-1.61,2.57l0,0a5.32,5.32,0,0,1-.89-4c.44-1.72,2.12-.45,2.51,1.29Z"/><path class="cls-1" d="M38.64,338.89c-1.54.69-.85,3.81.78,3.47C41.24,342,40.38,338.12,38.64,338.89Z"/><path class="cls-1" d="M56.29,360c.23,1,.66,2.21.86,3.34a3.69,3.69,0,0,1-.09,2c-.37.87-1.27,1.14-1.77.38a3.84,3.84,0,0,1-.52-1.29,10.24,10.24,0,0,1-.07-2.83A1.45,1.45,0,0,1,56.29,360Z"/><path class="cls-1" d="M78.91,380.5c.53,2.37-1.63,4.86-2,2.45a11.09,11.09,0,0,1-.12-1.77,1.92,1.92,0,0,1,0-.68,4.76,4.76,0,0,1,.27-.48c.16-.27.39-.47.66-.39a1.89,1.89,0,0,1,.79.32A1.12,1.12,0,0,1,78.91,380.5Z"/><path class="cls-1" d="M66.35,394.23c1.49,0,.37,2.57-1.08,3l-.46.11a1.61,1.61,0,0,1-1,0,2.58,2.58,0,0,1-.37-.24A1.56,1.56,0,0,1,63,395a2.38,2.38,0,0,1,1.1-.72A5,5,0,0,1,66.35,394.23Z"/><path class="cls-1" d="M58.85,23.41a1.31,1.31,0,0,1-.12.44c-.27.6-.9.9-1.32.45a1.34,1.34,0,0,1-.38-.95,1.25,1.25,0,0,1,.12-.43c.27-.61.9-.91,1.32-.45A1.31,1.31,0,0,1,58.85,23.41Z"/><path class="cls-1" d="M58.71,2.06a1.48,1.48,0,0,1-.42-.56,1.49,1.49,0,0,1,0-.89A.82.82,0,0,1,59.62.2a1.19,1.19,0,0,1,.28.31,1.53,1.53,0,0,1,0,1.26c-.22.57-.72.75-1.12.35Z"/><path class="cls-1" d="M58.2,17.21a1.09,1.09,0,0,1-.11.43c-.27.6-.9.91-1.32.45a1.32,1.32,0,0,1-.38-.95,1.11,1.11,0,0,1,.12-.43c.27-.6.89-.91,1.32-.45A1.31,1.31,0,0,1,58.2,17.21Z"/><path class="cls-1" d="M50.85,13.83a1.34,1.34,0,0,1,.13-.59c.25-.57.82-.83,1.24-.42a1.36,1.36,0,0,1,.42.94,1.54,1.54,0,0,1-.14.56c-.28.61-.88,1-1.3.56A1.67,1.67,0,0,1,50.85,13.83Z"/><path class="cls-1" d="M44.85,377.61a6,6,0,0,1,.38-1.11c.24-.17.69.38,1,.53a1.29,1.29,0,0,1,.34,1.66,1,1,0,0,1-.27.4.75.75,0,0,1-.83,0A1.18,1.18,0,0,1,44.85,377.61Z"/><path class="cls-1" d="M66.3,3a1.15,1.15,0,0,1-.28.4.74.74,0,0,1-.82,0,1.27,1.27,0,0,1-.35-1.65,1,1,0,0,1,.28-.41.76.76,0,0,1,.82,0A1.29,1.29,0,0,1,66.3,3Z"/><path class="cls-1" d="M20.15,272.13a.81.81,0,0,1,.41.19A1.26,1.26,0,0,1,21,274a.85.85,0,0,1-.71.48.8.8,0,0,1-.41-.18,1.28,1.28,0,0,1-.39-1.65A.85.85,0,0,1,20.15,272.13Z"/><path class="cls-1" d="M5.05,130.23a.73.73,0,0,1-.4-.18,1.27,1.27,0,0,1-.39-1.65.82.82,0,0,1,.72-.47.73.73,0,0,1,.4.18,1.26,1.26,0,0,1,.39,1.64A.86.86,0,0,1,5.05,130.23Z"/><path class="cls-1" d="M47,387.18a1.05,1.05,0,0,1,.11-.43c.27-.61.9-.91,1.32-.45a1.33,1.33,0,0,1,.38.89,1.5,1.5,0,0,1-.15.55c-.27.61-.86,1-1.27.51A1.62,1.62,0,0,1,47,387.18Z"/><path class="cls-1" d="M59.7,36.51a1.1,1.1,0,0,1,.11-.44c.27-.6.9-.9,1.32-.45a1.3,1.3,0,0,1,.38.89,1.54,1.54,0,0,1-.14.56c-.27.61-.87,1-1.28.51A1.7,1.7,0,0,1,59.7,36.51Z"/><path class="cls-1" d="M22,303.68a1.64,1.64,0,0,1,.45.56,1.48,1.48,0,0,1,0,.91.82.82,0,0,1-1.34.41.93.93,0,0,1-.28-.31,1.47,1.47,0,0,1-.06-1.06C20.94,303.49,21.47,303.23,22,303.68Z"/><path class="cls-1" d="M14.76,59.59a.88.88,0,0,1,1.56-.5,1.33,1.33,0,0,1,.24.78,1.32,1.32,0,0,1-.12.43c-.27.6-.9.91-1.32.45A1.35,1.35,0,0,1,14.76,59.59Z"/><path class="cls-1" d="M31.86,53.59a1,1,0,0,1,.28-.41.74.74,0,0,1,.82,0,1.28,1.28,0,0,1,.34,1.65,1,1,0,0,1-.27.41.74.74,0,0,1-.82,0A1.27,1.27,0,0,1,31.86,53.59Z"/><path class="cls-1" d="M34.9,66.48a1,1,0,0,1-.27-.31,1.39,1.39,0,0,1-.07-1,.81.81,0,0,1,1.33-.4.84.84,0,0,1,.28.31,1.46,1.46,0,0,1,.07,1A.82.82,0,0,1,34.9,66.48Z"/><path class="cls-1" d="M10.75,64.29a1.3,1.3,0,0,1,.11-.43c.27-.6.9-.91,1.33-.45a1.35,1.35,0,0,1,.37,1,1.3,1.3,0,0,1-.11.43c-.27.6-.9.91-1.33.45A1.31,1.31,0,0,1,10.75,64.29Z"/><path class="cls-1" d="M44.45,51.31A1.31,1.31,0,0,1,44.86,53a.81.81,0,0,1-.71.48.73.73,0,0,1-.41-.18,1.26,1.26,0,0,1-.39-1.64.82.82,0,0,1,.72-.48A.67.67,0,0,1,44.45,51.31Z"/><path class="cls-1" d="M23.09,77.41a.76.76,0,0,1-.41-.18,1.3,1.3,0,0,1-.39-1.65.83.83,0,0,1,.72-.47.76.76,0,0,1,.41.18,1.28,1.28,0,0,1,.39,1.64A.87.87,0,0,1,23.09,77.41Z"/><path class="cls-1" d="M25.18,82.4a1.54,1.54,0,0,1-.13.6c-.26.56-.83.82-1.24.41a1.34,1.34,0,0,1-.42-.94,1.32,1.32,0,0,1,.14-.55c.27-.61.88-1,1.3-.57A1.67,1.67,0,0,1,25.18,82.4Z"/><path class="cls-1" d="M11.81,93.65a1.25,1.25,0,0,1-.34,1,5.13,5.13,0,0,1-.43.58.75.75,0,0,1-1,0,1.14,1.14,0,0,1-.43-1.53,4.86,4.86,0,0,1,.55-1C10.71,92,11.6,92.73,11.81,93.65Z"/><path class="cls-1" d="M7,271.05a1,1,0,0,1-.28.4.74.74,0,0,1-.82,0,1.28,1.28,0,0,1-.35-1.65,1.11,1.11,0,0,1,.28-.41.74.74,0,0,1,.82,0A1.28,1.28,0,0,1,7,271.05Z"/><path class="cls-1" d="M12.8,107.41a.93.93,0,0,1-.28-.31,1.46,1.46,0,0,1-.07-1,.82.82,0,0,1,1.34-.41,1.19,1.19,0,0,1,.28.31,1.42,1.42,0,0,1,.06,1A.8.8,0,0,1,12.8,107.41Z"/><path class="cls-1" d="M20.37,120.81a1.27,1.27,0,0,1-.35,1,5.06,5.06,0,0,1-.42.58.75.75,0,0,1-1,0,1.13,1.13,0,0,1-.43-1.53,4.43,4.43,0,0,1,.52-1C19.22,119.13,20.16,119.87,20.37,120.81Z"/><path class="cls-1" d="M6.41,144.18a1.48,1.48,0,0,1-.43-.56,1.53,1.53,0,0,1,0-.9.81.81,0,0,1,1.33-.4.93.93,0,0,1,.28.31,1.53,1.53,0,0,1,0,1.26c-.22.57-.72.75-1.12.35Z"/><path class="cls-1" d="M16.71,162.32a1.26,1.26,0,0,1,.43,1.45.81.81,0,0,1-1.34.4.87.87,0,0,1-.27-.3,1.53,1.53,0,0,1,0-1.26c.21-.58.71-.76,1.12-.35Z"/><path class="cls-1" d="M5.12,202.16a1.31,1.31,0,0,1,.42,1.66.88.88,0,0,1-.72.48.76.76,0,0,1-.41-.18A1.29,1.29,0,0,1,4,202.47a.82.82,0,0,1,.72-.47A.64.64,0,0,1,5.12,202.16Z"/><path class="cls-1" d="M11.9,208a1.34,1.34,0,0,1-.13.59c-.25.57-.83.83-1.24.42a1.34,1.34,0,0,1-.42-.94,1.59,1.59,0,0,1,.14-.56c.27-.6.88-1,1.3-.56A1.67,1.67,0,0,1,11.9,208Z"/><path class="cls-1" d="M6.67,219.42a1.29,1.29,0,0,1-.11.44c-.27.6-.9.9-1.33.44a1.29,1.29,0,0,1-.37-.94,1.18,1.18,0,0,1,.11-.43c.27-.61.9-.91,1.33-.45A1.33,1.33,0,0,1,6.67,219.42Z"/><path class="cls-1" d="M16,255.26a1.31,1.31,0,0,1-.12.44c-.27.6-.9.9-1.32.45a1.34,1.34,0,0,1-.38-.95,1.19,1.19,0,0,1,.12-.43c.27-.61.9-.91,1.32-.45A1.31,1.31,0,0,1,16,255.26Z"/><path class="cls-1" d="M11.75,238.13a1,1,0,0,1-.27-.31,1.44,1.44,0,0,1-.08-1,.82.82,0,0,1,1.34-.4,1,1,0,0,1,.28.3,1.49,1.49,0,0,1,.07,1.05A.82.82,0,0,1,11.75,238.13Z"/><path class="cls-1" d="M19,240.07c-.43.38-1.13.12-1.51-.32l-.05-.05a7,7,0,0,1-.49-.59,1.46,1.46,0,0,1,0-1.29c.29-.67.67-.88,1.19-.5s1.06.79,1.11,1.51C19.23,239.26,19.25,239.82,19,240.07Z"/><path class="cls-1" d="M21.28,240.37a1.6,1.6,0,0,1,.34,1.71c-.11.2-.29.2-.48.14a2.28,2.28,0,0,1-1.31-.83c-.7-1-.52-1.76.3-1.73A1.09,1.09,0,0,1,21,240Z"/><path class="cls-1" d="M23.14,284.84q-.32.11-.78-.45a5.68,5.68,0,0,1-.49-.59,1.41,1.41,0,0,1,0-1.28c.28-.67.67-.89,1.19-.5a3.29,3.29,0,0,1,.89.85A1.42,1.42,0,0,1,23.14,284.84Z"/><path class="cls-1" d="M25.93,287.15a1.12,1.12,0,0,1-1.38-1v-.07c-.19-.85.3-1.79,1-1.65a1.45,1.45,0,0,1,1.05.89A1.29,1.29,0,0,1,25.93,287.15Z"/><path class="cls-1" d="M25.14,288.83a1.28,1.28,0,0,1-.34,1,6.22,6.22,0,0,1-.43.58.76.76,0,0,1-1,0,1.14,1.14,0,0,1-.43-1.53,4.58,4.58,0,0,1,.55-1C24,287.14,24.93,287.9,25.14,288.83Z"/><path class="cls-1" d="M6.94,295.8c-.14.23-.27.49-.5.59a.76.76,0,0,1-.68-.06,1.28,1.28,0,0,1-.35-1.66,1,1,0,0,1,.28-.4.84.84,0,0,1,1,.09A1,1,0,0,1,7,295.72Z"/><path class="cls-1" d="M27.94,314.78a1.29,1.29,0,0,1-.11.44c-.27.6-.9.9-1.33.45a1.37,1.37,0,0,1-.37-.95,1.24,1.24,0,0,1,.11-.43c.27-.61.9-.91,1.33-.45A1.3,1.3,0,0,1,27.94,314.78Z"/><path class="cls-1" d="M26.73,326.17a.77.77,0,0,1-.41-.19,1.26,1.26,0,0,1-.39-1.64.86.86,0,0,1,.72-.48.79.79,0,0,1,.41.18,1.28,1.28,0,0,1,.38,1.65A.85.85,0,0,1,26.73,326.17Z"/><path class="cls-1" d="M33.93,331.63a1.52,1.52,0,0,1,.42.55,1.45,1.45,0,0,1,0,.9.81.81,0,0,1-1.33.41.92.92,0,0,1-.28-.31,1.53,1.53,0,0,1,0-1.26c.21-.57.72-.75,1.12-.35Z"/><path class="cls-1" d="M43.55,335.55a1.54,1.54,0,0,1,.13-.6c.25-.56.83-.82,1.24-.41a1.34,1.34,0,0,1,.42.94,1.32,1.32,0,0,1-.14.55c-.27.61-.88,1-1.3.57A1.67,1.67,0,0,1,43.55,335.55Z"/><path class="cls-1" d="M34.63,346.39a1.54,1.54,0,0,1-.42.54.77.77,0,0,1-.75,0,1.28,1.28,0,0,1-.35-1.66,1,1,0,0,1,.28-.4.74.74,0,0,1,.81,0A1.1,1.1,0,0,1,34.63,346.39Z"/><path class="cls-1" d="M46,362.31c-.14.23-.27.49-.5.59a.76.76,0,0,1-.68-.06,1.28,1.28,0,0,1-.35-1.66,1.07,1.07,0,0,1,.28-.4.84.84,0,0,1,1,.09,1,1,0,0,1,.29,1.36A.22.22,0,0,1,46,362.31Z"/><path class="cls-1" d="M64.49,385a1.38,1.38,0,0,1,.42,1.69.91.91,0,0,1-.76.54.76.76,0,0,1-.41-.18,1.3,1.3,0,0,1-.39-1.65.94.94,0,0,1,.64-.47A.72.72,0,0,1,64.49,385Z"/><path class="cls-1" d="M60.35,393.39a.79.79,0,0,1-.41-.18,1.27,1.27,0,0,1-.38-1.64.89.89,0,0,1,.66-.48.92.92,0,0,1,.52.22,1.22,1.22,0,0,1,.44,1.58A1,1,0,0,1,60.35,393.39Z"/><path class="cls-1" d="M79.05,406.62a1.54,1.54,0,0,1,.26,1.63.49.49,0,0,1-.62.24,5.54,5.54,0,0,1-.58-.17,2.06,2.06,0,0,1-1.06-1.56c-.08-.47.13-.79.59-.82a1.44,1.44,0,0,1,1.08.35Q78.88,406.44,79.05,406.62Z"/><path class="cls-1" d="M90.37,410.7a1.4,1.4,0,0,1-.5.59.78.78,0,0,1-.69-.06,1.29,1.29,0,0,1-.35-1.66,1,1,0,0,1,.28-.4.84.84,0,0,1,1,.09,1,1,0,0,1,.29,1.36Z"/><path class="cls-1" d="M95.55,410.92a1.19,1.19,0,0,1,.28.31,1.49,1.49,0,0,1,.07,1,.82.82,0,0,1-1.34.4.84.84,0,0,1-.28-.31,1.46,1.46,0,0,1-.07-1A.82.82,0,0,1,95.55,410.92Z"/><path class="cls-1" d="M57.3,387.63a1,1,0,0,1-.57-.22,1.19,1.19,0,0,1-.35-1.51.72.72,0,0,1,1.23-.32,1.25,1.25,0,0,1,.48,1.59A.94.94,0,0,1,57.3,387.63Z"/></svg>