<svg id="Layer_1" data-name="Layer 1" xmlns="http://www.w3.org/2000/svg" viewBox="0 0 625 113"><defs><style>.cls-1{fill:#fcebce;}</style></defs><path class="cls-1" d="M604.16,2.37c.24.75,1.23.39.73,1-.92,1.23,1.23.5.38,1.63-.4.54-2.26-1.11-2.7-1.63-.31-.35-.52-.31-1.16-.47-1.28-.33-2-.54-1.53,2.1.13.4-.54-.61-1-.5a2.52,2.52,0,0,0-1.52,1.07c-.49.66-.39,1.19.86,1.46A1,1,0,0,0,599,7a2.79,2.79,0,0,0,1-.92,2.12,2.12,0,0,0,.13-.36A2.12,2.12,0,0,1,601,4.44a2.36,2.36,0,0,1,3.18,1.29,5.88,5.88,0,0,1,.33,1.19,1.6,1.6,0,0,1,0,.87,3,3,0,0,1-1.67,1.48A34.43,34.43,0,0,1,598,10.42c-1.58.3-3.51-1-5-1.4a1.47,1.47,0,0,0-.75,0c-2,.57-2.16,3.1-4.17,3.55a4.07,4.07,0,0,0-2.48,1.55l-.79,1.21a6.44,6.44,0,0,0-.88,5.56l.66,2a5,5,0,0,1-.27,4.19,10.62,10.62,0,0,1-1.09,1.5c-1.26,1.41-3.93,1.57-4.48-.12a6.29,6.29,0,0,1-.17-.62,7.51,7.51,0,0,1,.76-5.56l.16-.25a2.49,2.49,0,0,0,.23-2.11,3.54,3.54,0,0,0-2.12-2.11c-2.07-.86-4.07-1.8-6.12-2.68-1.48-.63-4.31-.28-3.88,1.06,1,4.34,2.37,8.6,3.74,12.85.23.72-1.42.82-2.22.48A28.84,28.84,0,0,0,566,28.42c-.67-.3-1.4-.39-1.84-.91a2.84,2.84,0,0,0-1.44-.8c-1-.24-1.46.28-1.52,1.46a1.79,1.79,0,0,1-1.44,1.64,1.88,1.88,0,0,1-2.24-1.07c-.24-.77-.49-1.55-.71-2.23-.09-.28-.55-.48-1-.69s-.91-.4-1.18,0l0,0a3.15,3.15,0,0,0-.77,2.31,2.24,2.24,0,0,0,1,1.93c1.69,1,4.29,1.68,2.89,2.93s-3.66,1-4.53,2.46a2,2,0,0,0,0,1.59,4.37,4.37,0,0,0,2.14,2.28c1.39.78,2,2.48.47,3-.26.08-.53.14-.82.2a6.61,6.61,0,0,1-4.21-.54l-2.56-1.28c-1.27-.61-2.38-1.42-2.55-2.62a5.2,5.2,0,0,0-.92-2.68,2.44,2.44,0,0,0-2.2-1.15,1,1,0,0,0-.46.33,1.86,1.86,0,0,0-.35,1.55,5.67,5.67,0,0,1-.79,4l-.66.95a6.75,6.75,0,0,1-3.49,2.85c-1.56.5-3.18.79-4.78,1.14a8.38,8.38,0,0,0-4.44,2.25,22.43,22.43,0,0,0-2,2.74,3,3,0,0,0-.48,1.36c-.16,1.94-2.58,2.94-4.67,2.09L519.3,53a4.94,4.94,0,0,0-5.68,1.33L512,56.56a1.76,1.76,0,0,1-2.11,1,1.65,1.65,0,0,1-1.29-1.39c0-.36-.08-.79-.14-1.14a1.65,1.65,0,0,0-.38-.81c-.67-.72-2.2-.77-2.67.06a2.9,2.9,0,0,0-.09,2.29c.45,1.42.82,2.56,1.28,4,.12.4.25.8.34,1.21a3.15,3.15,0,0,1-.77,2.6c-1.58,2.12-5.08,3-5.57.58-.05-.26-.09-.53-.15-.79a5.23,5.23,0,0,0-2.43-3,4.88,4.88,0,0,0-.71-.41c-3.28-1.7-6.83-3-10.47-4.66a7.71,7.71,0,0,0-1.49-.55,1.9,1.9,0,0,0-2,1.28,1.47,1.47,0,0,0,.16,1.24,2.73,2.73,0,0,1,.27.54,2.17,2.17,0,0,0,1.22,1.23,8.63,8.63,0,0,1,3.4,2.34A8.43,8.43,0,0,0,491.37,65a4.87,4.87,0,0,1,1.82,1.28,6.94,6.94,0,0,1,1.25,3.66c.07,1,.45,2.66-.72,2.92l-5.66,1.26a2.9,2.9,0,0,1-3.44-1.65,2.51,2.51,0,0,1-.1-.6c-.1-1-.65-1.43-1.82-1.72-.81-.13-1.36.6-2.18,1.7a2,2,0,0,1-2.32.89c-.9-.4-1.17-1.26-1.51-2.07-.66-1.56-2.73-.9-3.89.44a5.23,5.23,0,0,1-2.74,1.55L460,74.89c-1.56.35-3.48-.92-5-1.31a5.86,5.86,0,0,0-4.37,1,2,2,0,0,0-.81,1.29c0,.66-.32,1.86-1,1.55-2.28-1-4.46-1.74-6.38-2.83-.71-.32.28-1.28,1.06-1.46l2-.44a3.44,3.44,0,0,0,2.07-1.28c.64-.9.75-1.26.51-1.8s-.47-1-.75-1.52c-.47-.8-1.17-1-2.47-.91a7.67,7.67,0,0,0-1.66.27A4.27,4.27,0,0,0,441,68.67a1.81,1.81,0,0,0-.28,1.82c.13.38.26.78.38,1.17.28.86-.75,1.21-1.32,2-.35.48-.7.95-1.09,1.43a3.66,3.66,0,0,1-4.28.8l-.93-.41a2,2,0,0,1-1.07-3,1.5,1.5,0,0,0-.95-2.39,3.66,3.66,0,0,0-3.7,1.37,14.69,14.69,0,0,1-3,2.64c-1.07.67-2.65.92-3.15,2a2.18,2.18,0,0,0-.19,1.29c.09.64.49,1.12.46,1.77-.07,1.34-2,2-3.58,2.36L411.17,83a1.59,1.59,0,0,1-2-1,.78.78,0,0,1,.05-.7,3.15,3.15,0,0,1,1.8-1l2-.45c2.2-.5,4.73-1.68,4.51-3.57a8.93,8.93,0,0,0-.84-2.43c-.67-1.46-2.82-3.62-3.18-2.09a1.46,1.46,0,0,0-.05.38c-.09.93.55,1.71.1,2.72a6.18,6.18,0,0,1-.3.76,1.61,1.61,0,0,1-2.58.6,13,13,0,0,1-1-1.82c-1.24-2.05-1.54-2-4.11-1.4l-2.74.61a5.22,5.22,0,0,0-3.09,1.9c-2.27,2.64-3.36,2.88-6.82,1.83-1.9-.48-3.75.45-3.25,2a1.27,1.27,0,0,1,.06.18c.55,1.7,0,2.43-2.09,3.2-1.72.69-3.82.25-4.55-.81-.56-.67-.56-1.47-1-2.18a1.07,1.07,0,0,0-.36-.46,3.91,3.91,0,0,0-2.68-.42l-4.24.95a3.62,3.62,0,0,0-2.06,1.06c-1.18,1.34-3.26,2.34-4.09.83a5.78,5.78,0,0,0-1.53-2.19,3.73,3.73,0,0,0-2.78-.1c-1.22.27-2.6.72-2.8,1.76l0,.22c-.26,2.93-2.94,3.49-6.06,2.11l-4.38-1.95a2.44,2.44,0,0,1-1.36-1.43c-.16-.49-.31-1-.47-1.45-.25-.78.64-1.51,1.3-2.09a9.14,9.14,0,0,1,1.64-1.16c.59-.32.42-.87.29-1.27a2.51,2.51,0,0,0-.79-1.21,1.7,1.7,0,0,0-2.3.4,2.34,2.34,0,0,0-.32.53,1.75,1.75,0,0,0,0,.88,7.59,7.59,0,0,0,.54,1.72c.36.84-.64,1.18-1.2,1.93a15.63,15.63,0,0,1-7.59,4.43l-4.61,1a3.84,3.84,0,0,1-1.81-.16c-.49-.18-.21-.47,0-.89A4.27,4.27,0,0,1,335,82a2.42,2.42,0,0,1,1-.5c1.3-.43,3-.57,4.55-.92a5.5,5.5,0,0,0,.84-.27c1.35-.55,1-2,.76-3.28-.09-.46-.18-.93-.31-1.38-.58-2-3.69-2.1-5.06-.34-.36.46-.68,1-1,1.44-1,1.51-3.2,1.91-5.11,1.23h0a4,4,0,0,0-2.29-.14c-2.14.47-4.45-.56-5-2.34a4.26,4.26,0,0,1-.15-.47c-.1-.28-.55-.48-1-.68s-.91-.41-1.18,0l0,0a3.15,3.15,0,0,0-.77,2.31,2.23,2.23,0,0,0,1,1.9c1.68,1,4.71,2,2.94,3-1,.48-2.08.93-3.06,1.48-2.49,1.41-3.51,1.27-6.42,1.92a3.8,3.8,0,0,1-3.18-.2c-1.46-.89-1.92-2.31-1.47-3.33.91-1.5,2-2.89,3.08-4.33.7-1,.44-2.89-.92-2.83l-.36,0q-.53.06-1.05.15c-3.28.57-4.79,4.06-8.13,4.37h-.08c-1.66-.06-1.89-1-2-2a3.31,3.31,0,0,1,.51-2.17,2.7,2.7,0,0,0-1.4-3.93.2.2,0,0,1-.08,0c-1.56-.69-3.81-.3-4,1.17,0,1.21.82,2.55,1.28,4s-2.49,1.81-4,1.16l-1.52-.68a4.44,4.44,0,0,1-2.17-2.19s-.05-.11-.08-.16a3.23,3.23,0,0,0-1.57-1.3l-.74-.34c-1.63-.78-.8-3-.41-4.56,0-.13-2.75-1.93-2.91-.25.09-.94.24.29.06.94-.36,1.3.55,1.71,1.82.81l.08,0c1-.79-1.4-2.76-2-1.7-1.09,1.46-.76,2-1,2.4l-1.21,1.62a3.32,3.32,0,0,1-3.57.77,2.85,2.85,0,0,0-3,.66l-.08.09c-.91.91-2.61,1.29-3.31.27A10.21,10.21,0,0,1,270.19,70c1.29-4.48,1.45-6.42.28-6.92l-.28-.12c-2.33-1,0-3.9-1.72-2.26a4,4,0,0,1-2.78,1.16,3.53,3.53,0,0,1-1.54-.34l-.12-.06c-1.83-.81-4.74-1.09-6,.29A4.51,4.51,0,0,1,256,63c-1.24.36-2.6.66-3.56-.49-1.45-2.1.87-3.53-2-3.15a5.75,5.75,0,0,1-2.23,0c-.82-.22-2.32,1.55-2.55.86-.42-1.31-.15-.54.86-1.6.74-.77.86-1.12,1.55-1.88,1-1.07-1.75-.92-2.33-2.17,0-.1-.1-.2-.15-.3a3.23,3.23,0,0,0-1.39-1.17c-1.77-.91-4.43-.53-3.33-2l1.62-2.17c.27-.37,1.1-.25,1.46-.33a1.59,1.59,0,0,0,1.73,1.74,7.21,7.21,0,0,0,1.6,0,6.33,6.33,0,0,0,2.85-.58l.07,0c.83-.56.52-1.54-.43-1.95a4,4,0,0,0-2.16-.09c-1.24.22-2.53.69-3.66.94-.09-1.5-1.46-2.11-3-2.07-2.5.07-6.05.51-6.7-1.51v0c-.1-.28-.55-.49-1-.69s-.91-.4-1.18,0a2.46,2.46,0,0,1-.22.25,2.38,2.38,0,0,0-.61,1.85,2.32,2.32,0,0,0,2.47,2.58c1.06.11,2.84.69,2.28,1.44-.64,1.12-1.46,1-2.26,2s-2.66,1.66-3.45.79a1.7,1.7,0,0,1-.26-.43,9.36,9.36,0,0,1-1.13-2.57,2.72,2.72,0,0,0-.45-.86c-.68-.85-2-.28-2.76.55-1,1.14-2.91,1.55-3.84.37-.49-.63-.9-1.33-1.42-1.93-1-1.21-2.19-3.16-1.33-4.45a1.8,1.8,0,0,0,.24-1.57c-.25-.76-.5-1.53-.74-2.3a5.45,5.45,0,0,0-2.73-3,5.43,5.43,0,0,1-2.73-3q-1.6-5-3.2-10c-.28-.85-1-1.9-2.1-1.66a3.16,3.16,0,0,0-1.24,1.23,1.92,1.92,0,0,0-.07,1.21c0,.32.12.66.15,1,.13,1.44-2,1.75-3.43,1l-.8-.44a2.37,2.37,0,0,1-1.08-3.28,1.34,1.34,0,0,0-.5-1.89c-1.32-.56-3,.1-4.51.07s-2.19-1.34-2.57-2.52c-.19-.57-.38-1.16-.57-1.76-.37-1.16-.9-2.34-2.33-2.23-2.28.18-4.51,2-6.54,1.09l-.8-.36a4.08,4.08,0,0,1-1.8-1.39c-1.18-1.79-1.39-3.67-1.89-5.38a4.68,4.68,0,0,1,.6-4.07c.67-.9.62-1.08.32-2.1ZM251.52,56.69c1.66.73,2.21-1.28,1.72-2.79-.57-1.78-.62-1.39-1.2-3.17,0-.14-.26-.24-.52-.33a2.27,2.27,0,0,0-1.6-.21c-1.09.39-1,1.78-.68,2.74.66,2.06.25,1.08.91,3.15C250.24,56.36,251.06,56.48,251.52,56.69ZM591.57,3.89c-2.05-.93-5.15-.24-4.37,1.59a2.81,2.81,0,0,0,.44.7c1,1.17,3.14,1.26,4.8.85a3.24,3.24,0,0,0,.76-.28C594.54,6,593,4.52,591.57,3.89ZM361.08,78.46c-2.12.32-3-2.36-.95-3C362.4,74.82,363.46,78.1,361.08,78.46Zm23.77-3.75c0-.46-.62-.77-1.08-1a1.06,1.06,0,0,0-.65-.19l-3.27.73c-.37.08-.55.73-.82,1.09-.43.58.52,1.21,1.3,1.39,1.49.32,3.69-.37,4.34-1.56A1,1,0,0,0,384.85,74.71ZM228.71,39.35a.77.77,0,0,0,.2-.44.94.94,0,0,0-.52-.79,1.4,1.4,0,0,0-1.8.43.89.89,0,0,0-.21.45.94.94,0,0,0,.53.78A1.39,1.39,0,0,0,228.71,39.35ZM420.33,68.6c-.42.52-.11,1.2.55,1.49a1,1,0,0,0,.42.11,1.48,1.48,0,0,0,1.06-.41c.49-.47.17-1.15-.49-1.44-.15-.07-.3-.18-.44-.24C421.1,67.94,420.73,68.11,420.33,68.6Zm63.17-2.39a1.08,1.08,0,0,0-.44-.3,1.4,1.4,0,0,0-1.82.38.83.83,0,0,0,0,.9,1.23,1.23,0,0,0,.44.3,1.4,1.4,0,0,0,1.82-.38A.81.81,0,0,0,483.5,66.21Zm37-19.51a1.1,1.1,0,0,0-.44-.31,1.43,1.43,0,0,0-1.82.38.83.83,0,0,0,0,.9,1.2,1.2,0,0,0,.44.31,1.41,1.41,0,0,0,1.82-.39A.8.8,0,0,0,520.53,46.7Zm28.69-14.45a1.21,1.21,0,0,0,.45.31,1.41,1.41,0,0,0,1.81-.38.81.81,0,0,0,0-.9A1.1,1.1,0,0,0,551,31a1.41,1.41,0,0,0-1.81.38A.81.81,0,0,0,549.22,32.25Zm29.71-21.5a.91.91,0,0,0-.2.45.93.93,0,0,0,.53.79,1.4,1.4,0,0,0,1.8-.43.83.83,0,0,0,.2-.45.92.92,0,0,0-.53-.78A1.4,1.4,0,0,0,578.93,10.75Z"/><path class="cls-1" d="M567.06,43.7a3,3,0,0,1-3.91-1.25,9.09,9.09,0,0,1-.88-2.25,5.26,5.26,0,0,1,.87-4.3c.17-.25.32-.49.46-.72a2.09,2.09,0,0,0,.16-1.74L563.3,32a1.41,1.41,0,0,1,1.2-1.73,1.75,1.75,0,0,1,2.07,1c.35,1.08.69,2.13,1,3.2a4.44,4.44,0,0,1-.54,3.75,4.44,4.44,0,0,0-.55,3.75Z"/><path class="cls-1" d="M611.72,14c-.5-1.58-1-3-1.44-4.5a3.21,3.21,0,0,1,1.06-3.57,2.62,2.62,0,0,1,2.75-.65,1.59,1.59,0,0,1,1,2.39c-.51.84-.29,2.19.82,2.35a1.58,1.58,0,0,1-.26,3.15h-.29A15.86,15.86,0,0,0,611.72,14Z"/><path class="cls-1" d="M325,89.19c-.78-2.43-.89-5.67,2.11-6l.25,0c2.28-.21,3.1-.09,3.65,1.62.7,2.19-2.55,3.62-5.18,4.2Z"/><path class="cls-1" d="M372.27,99.28a3.2,3.2,0,0,1-4.34.26,1,1,0,0,1-.25-1,8.13,8.13,0,0,1,1.74-3.25,3.26,3.26,0,0,1,4.42-.18,1,1,0,0,1,.24,1.12A10,10,0,0,1,372.27,99.28Z"/><path class="cls-1" d="M404.66,80.69c.35.28.65.86.39,1.2l-1.41,1.9a3.84,3.84,0,0,1-4.37.91,3.53,3.53,0,0,0-1.14-.21c-.35,0-.7.06-1.05.07-.79,0-1.28,0-1.43-.31-.22-.51.19-1.13.51-1.6a1.82,1.82,0,0,1,.9-.52,18.3,18.3,0,0,1,7.06-1.54C404.37,80.58,404.48,80.54,404.66,80.69Z"/><path class="cls-1" d="M515.85,63.89a2.6,2.6,0,0,1,0-2.15A10.47,10.47,0,0,1,517,60c1.14-1.45,4-2.29,4.47-.6a2.54,2.54,0,0,1-.59,2.28,22.51,22.51,0,0,0-1.51,2.4c-1.27,2.11-1.63,2.19-2.82.94A3,3,0,0,1,515.85,63.89Z"/><path class="cls-1" d="M520.49,67.78a2.54,2.54,0,0,1,2.21-2.93l1-.22a3,3,0,0,1,1.72,0,2.77,2.77,0,0,1,2,2.5c.18,1.79,0,2.43-2.18,2.92a4.14,4.14,0,0,1-2.56,0A3.08,3.08,0,0,1,520.49,67.78Z"/><path class="cls-1" d="M186.88,37.82a2.21,2.21,0,0,1,1.6,0,4.2,4.2,0,0,1,1.65,1.24c1.41,2-2.47,2.8-4.9,1.72-1.36-.61-1.82-.81-1.64-1.46a2.21,2.21,0,0,1,2-1.45A8.22,8.22,0,0,0,186.88,37.82Z"/><path class="cls-1" d="M212.51,49.79c-1.3,1.55-5,2.09-4.79.2a1.81,1.81,0,0,1,.05-.31c.3-1.3,1.79-2.31,3.33-2.64a3.12,3.12,0,0,1,1.35-.06C213.75,47.27,213.28,48.87,212.51,49.79Z"/><path class="cls-1" d="M301.82,81.64c1.64,0,.45,2-1.13,2.38-1.73.39-1.19-.38-2.82,0a1.36,1.36,0,0,1-1-.25c-.74-.44-1.34-1.67-.47-1.86C298.87,81.05,299,81.36,301.82,81.64Z"/><path class="cls-1" d="M392.11,85.53c1.81-.84,4.33.42,4.69,2.12a3.21,3.21,0,0,1,.07.43,1.55,1.55,0,0,1,0,.48c-.16,1.09-2.28,1.22-3.43.71L392,88.61c-1-.47-1.78-1.88-.89-2.54a6.43,6.43,0,0,1,.69-.37Z"/><path class="cls-1" d="M423.76,89.63c-2.27.94-3.43-1.8-2.09-3.59.63-.85,1.76-1.63,2.82-1.17a1.57,1.57,0,0,1,.83.89,2.88,2.88,0,0,1-1.26,3.73Z"/><path class="cls-1" d="M538.34,47.07c2.5-.52,2.48,2.37,0,3.08a9.76,9.76,0,0,1-2.14.42c-2.12.15-2.86-2.1-.86-2.69.8-.23,1.67-.4,2.51-.68A3,3,0,0,1,538.34,47.07Z"/><path class="cls-1" d="M558.23,61c2.07,1,2.67,4.32.28,4.09l-.15,0a3.93,3.93,0,0,1-3.26-2.7,1.25,1.25,0,0,1,.3-1.31C556.07,60.35,557.32,60.52,558.23,61Z"/><path class="cls-1" d="M588,38.2a3.22,3.22,0,0,1,2.13.19,3.26,3.26,0,0,1,1.48,1.4c.9,1.9-2.43,2.62-4.57,1.61-.25-.11-.5-.19-.77-.28-1-.32-1.39-.77-1.23-1.34a2.29,2.29,0,0,1,2.26-1.48A4.07,4.07,0,0,0,588,38.2Z"/><path class="cls-1" d="M595.14,11.87c.72-.13,1.1.35,1.63.78l.11.06,2,.9c1.13.5,1.77,1.86.88,2.63a1.48,1.48,0,0,1-.37.21,9.42,9.42,0,0,1-2,.51,2.84,2.84,0,0,1-3.22-1.64l-.52-1.61C593.44,12.93,594.19,12.05,595.14,11.87Z"/><path class="cls-1" d="M604.63,14.39A2.39,2.39,0,0,1,608,13.5a4.16,4.16,0,0,0,3.75.47,2.07,2.07,0,0,1-.31,2.21A5,5,0,0,1,607,17.45,3.08,3.08,0,0,1,604.56,15,1,1,0,0,1,604.63,14.39Z"/><path class="cls-1" d="M580.4,46.67c-.53.17.07.21-.43,0a4.29,4.29,0,0,1-1.65-1.24c-1.41-2,1.31-2.8,3.74-1.72,1.36.61,1.82.81,1.64,1.46a2.24,2.24,0,0,1-2,1.45A8.35,8.35,0,0,0,580.4,46.67Z"/><path class="cls-1" d="M206.93,38.75c.55,1.7-.17,3.08-1.45,2.75s-1.7-.71-1.8-1.68a3.55,3.55,0,0,0-.12-.65,1.82,1.82,0,0,1,.14-1.59c.38-.57.85-.87,1.5-.58.46.21,1.28.33,1.37.61Z"/><path class="cls-1" d="M259.2,73.39a3.89,3.89,0,0,1-.7-1.43,1.84,1.84,0,0,1,.73-1.8c1.28-.89,2.73,0,3.28,1.71a1.94,1.94,0,0,1,.07.22,1.86,1.86,0,0,1-.3,1.71,1.27,1.27,0,0,1-.57.48A2.07,2.07,0,0,1,260,74,2.49,2.49,0,0,1,259.2,73.39Z"/><path class="cls-1" d="M272.07,91c1.84.07.57,2.11-1.2,2.53a11.07,11.07,0,0,1-1.12.22,3.28,3.28,0,0,1-1.36,0,2.53,2.53,0,0,1-.36-.12c-1-.39-1.31-1.41-.48-2A4.18,4.18,0,0,1,269,91.1,11,11,0,0,1,272.07,91Z"/><path class="cls-1" d="M284.47,109a.9.9,0,0,1,0-.7,2.81,2.81,0,0,1,3.81-1.09,1.73,1.73,0,0,1,.73.48c.26.37-.08.84-.36,1.19a2.82,2.82,0,0,1-3.51.91A1.19,1.19,0,0,1,284.47,109Z"/><path class="cls-1" d="M283.89,79.25c2.18-.49,3.91,0,3.46,1a2.28,2.28,0,0,1-2.21,1.48,7.68,7.68,0,0,0-.82.11,3.64,3.64,0,0,1-2.07-.07c-.68-.28-1-.63-.64-1.15.28-.36.46-1,.82-1.09Z"/><path class="cls-1" d="M296.74,96.16c.55,1.7-.18,3.08-1.45,2.75s-1.71-.71-1.81-1.68a2.85,2.85,0,0,0-.11-.65,1.82,1.82,0,0,1,.14-1.59c.38-.57.84-.87,1.5-.58.45.21,1.27.33,1.37.61Z"/><path class="cls-1" d="M325,89.19c.27.82.77,1.75,1,2.66a2.27,2.27,0,0,1-.25,2,1.66,1.66,0,0,1-2.26.36A2.56,2.56,0,0,1,322.7,93a5.53,5.53,0,0,1,0-2.43C322.79,89.67,323.79,89.15,325,89.19Z"/><path class="cls-1" d="M359.79,100.92a1.45,1.45,0,0,1,.69.8.75.75,0,0,1-.06.67c-.88,1.28-3.73,1.72-5,1.09a.84.84,0,0,1-.4-.51,1.31,1.31,0,0,1,.12-1c.15-.28.3-.55.52-.6l3.28-.73A1.39,1.39,0,0,1,359.79,100.92Z"/><path class="cls-1" d="M455,76.91c1.88-.41,4.12.57,2.82,1.78l-.05,0a5.81,5.81,0,0,1-4.36,1c-1.89-.48-.5-2.32,1.4-2.74Z"/><path class="cls-1" d="M543.93,63c.76,1.69,4.17.92,3.81-.85C547.33,60.19,543.09,61.14,543.93,63Z"/><path class="cls-1" d="M567.06,43.7c1.13-.25,2.42-.72,3.66-.94a4.08,4.08,0,0,1,2.17.09c1,.41,1.25,1.39.42,1.95a4.18,4.18,0,0,1-1.42.56,11,11,0,0,1-3.1.09A1.6,1.6,0,0,1,567.06,43.7Z"/><path class="cls-1" d="M589.52,18.92c2.6-.58,5.32,1.79,2.68,2.22a11.78,11.78,0,0,1-1.93.13,2.05,2.05,0,0,1-.75-.05,4,4,0,0,1-.53-.29c-.29-.18-.51-.44-.43-.73a2.19,2.19,0,0,1,.36-.86A1.15,1.15,0,0,1,589.52,18.92Z"/><path class="cls-1" d="M604.56,32.67c0-1.62,2.82-.39,3.28,1.19a4.77,4.77,0,0,1,.13.51,1.72,1.72,0,0,1-.06,1.14,2.27,2.27,0,0,1-.26.4,1.69,1.69,0,0,1-2.3.4,2.56,2.56,0,0,1-.79-1.2A5.58,5.58,0,0,1,604.56,32.67Z"/><path class="cls-1" d="M198.3,40.9a1.1,1.1,0,0,1,.47.13c.66.29,1,1,.49,1.45a1.49,1.49,0,0,1-1,.41,1.55,1.55,0,0,1-.48-.13c-.66-.29-1-1-.49-1.45A1.47,1.47,0,0,1,198.3,40.9Z"/><path class="cls-1" d="M174.9,41a1.59,1.59,0,0,1-.61.47,1.71,1.71,0,0,1-1,0,.89.89,0,0,1-.44-1.46,1,1,0,0,1,.33-.31,1.68,1.68,0,0,1,1.39,0c.62.24.82.79.38,1.23Z"/><path class="cls-1" d="M191.5,41.6a1.49,1.49,0,0,1,.47.13c.66.29,1,1,.49,1.45a1.45,1.45,0,0,1-1,.41,1.15,1.15,0,0,1-.48-.13c-.66-.29-1-1-.49-1.45A1.52,1.52,0,0,1,191.5,41.6Z"/><path class="cls-1" d="M187.8,49.67a1.63,1.63,0,0,1-.65-.15c-.62-.28-.9-.91-.45-1.36a1.48,1.48,0,0,1,1-.46,1.58,1.58,0,0,1,.61.16c.67.29,1.14,1,.62,1.42A1.88,1.88,0,0,1,187.8,49.67Z"/><path class="cls-1" d="M586.36,56.24a7.93,7.93,0,0,1-1.22-.42c-.19-.26.41-.75.58-1.09a1.42,1.42,0,0,1,1.82-.39,1.2,1.2,0,0,1,.44.31.83.83,0,0,1,0,.9A1.29,1.29,0,0,1,586.36,56.24Z"/><path class="cls-1" d="M175.94,32.74a1.08,1.08,0,0,1,.44.3.81.81,0,0,1,0,.9,1.4,1.4,0,0,1-1.82.38,1.08,1.08,0,0,1-.44-.3.83.83,0,0,1,0-.9A1.4,1.4,0,0,1,175.94,32.74Z"/><path class="cls-1" d="M470.79,83.29a1,1,0,0,1,.2-.45,1.41,1.41,0,0,1,1.81-.42.93.93,0,0,1,.52.78.83.83,0,0,1-.2.45,1.41,1.41,0,0,1-1.8.43A1,1,0,0,1,470.79,83.29Z"/><path class="cls-1" d="M315.33,99.83a.91.91,0,0,1-.2.45,1.41,1.41,0,0,1-1.8.43.93.93,0,0,1-.53-.79.83.83,0,0,1,.2-.45,1.4,1.4,0,0,1,1.8-.42A.92.92,0,0,1,315.33,99.83Z"/><path class="cls-1" d="M596.84,53.88a1.31,1.31,0,0,1-.48-.12c-.66-.29-1-1-.49-1.45a1.49,1.49,0,0,1,1-.41,1.62,1.62,0,0,1,.61.16c.66.29,1.08.95.56,1.4A1.89,1.89,0,0,1,596.84,53.88Z"/><path class="cls-1" d="M212.64,40a1.27,1.27,0,0,1-.47-.13c-.66-.29-1-1-.49-1.45a1.44,1.44,0,0,1,1-.41,1.62,1.62,0,0,1,.61.16c.67.3,1.09,1,.56,1.4A1.9,1.9,0,0,1,212.64,40Z"/><path class="cls-1" d="M501.87,82.48a1.84,1.84,0,0,1,.61-.49,1.62,1.62,0,0,1,1,0,.89.89,0,0,1,.45,1.46,1,1,0,0,1-.34.3,1.58,1.58,0,0,1-1.16.07C501.66,83.6,501.38,83,501.87,82.48Z"/><path class="cls-1" d="M237.93,89.2a1,1,0,0,1-.55-1.71,1.53,1.53,0,0,1,.86-.26,1.32,1.32,0,0,1,.47.13c.66.29,1,1,.49,1.45A1.48,1.48,0,0,1,237.93,89.2Z"/><path class="cls-1" d="M231.36,70.47a1.21,1.21,0,0,1-.45-.31.81.81,0,0,1,0-.9,1.41,1.41,0,0,1,1.81-.38,1.1,1.1,0,0,1,.44.31.81.81,0,0,1,0,.9A1.41,1.41,0,0,1,231.36,70.47Z"/><path class="cls-1" d="M245.48,67.13a1.13,1.13,0,0,1-.34.31,1.58,1.58,0,0,1-1.14.07.88.88,0,0,1-.45-1.46.9.9,0,0,1,.34-.3,1.52,1.52,0,0,1,1.14-.08A.89.89,0,0,1,245.48,67.13Z"/><path class="cls-1" d="M243.09,93.6a1.55,1.55,0,0,1-.48-.13c-.66-.29-1-1-.49-1.45a1.46,1.46,0,0,1,1-.41,1.14,1.14,0,0,1,.47.13c.66.29,1,1,.49,1.45A1.49,1.49,0,0,1,243.09,93.6Z"/><path class="cls-1" d="M228.86,56.67a1.43,1.43,0,0,1,1.82-.45.92.92,0,0,1,.53.79.84.84,0,0,1-.2.44,1.39,1.39,0,0,1-1.8.43.92.92,0,0,1-.53-.79A.78.78,0,0,1,228.86,56.67Z"/><path class="cls-1" d="M257.46,80.07a1,1,0,0,1-.2.45,1.4,1.4,0,0,1-1.8.43.92.92,0,0,1-.53-.79.91.91,0,0,1,.2-.45,1.4,1.4,0,0,1,1.8-.42A.92.92,0,0,1,257.46,80.07Z"/><path class="cls-1" d="M262.92,77.79a1.63,1.63,0,0,1,.66.14c.62.28.9.91.45,1.36a1.51,1.51,0,0,1-1,.46,1.46,1.46,0,0,1-.61-.16c-.66-.29-1.14-1-.62-1.42A1.84,1.84,0,0,1,262.92,77.79Z"/><path class="cls-1" d="M275.25,92.43a1.42,1.42,0,0,1,1.09.38,5.64,5.64,0,0,1,.63.46.83.83,0,0,1,0,1.12,1.24,1.24,0,0,1-1.67.48,5,5,0,0,1-1.11-.61C273.41,93.64,274.24,92.66,275.25,92.43Z"/><path class="cls-1" d="M451.88,95a.83.83,0,0,1-.2.45,1.4,1.4,0,0,1-1.8.42.91.91,0,0,1-.52-.78.83.83,0,0,1,.19-.45,1.41,1.41,0,0,1,1.81-.43A.94.94,0,0,1,451.88,95Z"/><path class="cls-1" d="M465,87.24a1.2,1.2,0,0,1,.44.31.79.79,0,0,1,0,.9,1.41,1.41,0,0,1-1.81.38,1.21,1.21,0,0,1-.45-.31.8.8,0,0,1,0-.89A1.4,1.4,0,0,1,465,87.24Z"/><path class="cls-1" d="M290.32,91.35a1.06,1.06,0,0,1-.33.3,1.6,1.6,0,0,1-1.15.08.89.89,0,0,1-.44-1.46,1,1,0,0,1,.34-.31,1.52,1.52,0,0,1,1.14-.07A.89.89,0,0,1,290.32,91.35Z"/><path class="cls-1" d="M305,83.06a1.39,1.39,0,0,1,1.08.37,6.21,6.21,0,0,1,.64.47.82.82,0,0,1,0,1.11,1.24,1.24,0,0,1-1.68.48,5,5,0,0,1-1.06-.57C303.17,84.31,304,83.29,305,83.06Z"/><path class="cls-1" d="M330.61,98.35a1.76,1.76,0,0,1-.61.47,1.63,1.63,0,0,1-1,0,.88.88,0,0,1-.45-1.46,1,1,0,0,1,.34-.3,1.65,1.65,0,0,1,1.38,0c.62.24.82.79.38,1.23Z"/><path class="cls-1" d="M340.23,106.38a.75.75,0,0,1-.19.45,1.4,1.4,0,0,1-1.8.43,1,1,0,0,1-.53-.73A1,1,0,0,1,338,106a1.31,1.31,0,0,1,1.72-.48A1.11,1.11,0,0,1,340.23,106.38Z"/><path class="cls-1" d="M344,103a1.58,1.58,0,0,1-.6-.47.82.82,0,0,1,0-.81,1.4,1.4,0,0,1,1.81-.39,1.2,1.2,0,0,1,.44.31.81.81,0,0,1,0,.89A1.22,1.22,0,0,1,344,103Z"/><path class="cls-1" d="M350.48,87.07a1.67,1.67,0,0,1,.61-.47,1.63,1.63,0,0,1,1,0,.89.89,0,0,1,.44,1.46,1.06,1.06,0,0,1-.33.3,1.66,1.66,0,0,1-1.38,0c-.63-.23-.83-.79-.39-1.22Z"/><path class="cls-1" d="M379.61,111.57a1,1,0,0,1-.34.3,1.57,1.57,0,0,1-1.14.08.89.89,0,0,1-.45-1.46,1.13,1.13,0,0,1,.34-.31,1.53,1.53,0,0,1,1.14-.07A.89.89,0,0,1,379.61,111.57Z"/><path class="cls-1" d="M394.13,99.76a1.43,1.43,0,0,1,1.82-.45.92.92,0,0,1,.53.78.91.91,0,0,1-.2.45,1.41,1.41,0,0,1-1.8.43,1,1,0,0,1-.53-.79A.72.72,0,0,1,394.13,99.76Z"/><path class="cls-1" d="M400.57,92.33a1.49,1.49,0,0,1,.66.15c.62.27.9.9.45,1.35a1.46,1.46,0,0,1-1,.46,1.44,1.44,0,0,1-.61-.15c-.66-.3-1.14-1-.62-1.42A1.84,1.84,0,0,1,400.57,92.33Z"/><path class="cls-1" d="M413,98.06a1.55,1.55,0,0,1,.48.13c.66.29,1,1,.49,1.45a1.47,1.47,0,0,1-1,.41,1.14,1.14,0,0,1-.47-.13c-.66-.29-1-1-.49-1.45A1.49,1.49,0,0,1,413,98.06Z"/><path class="cls-1" d="M429.07,103a1.31,1.31,0,0,1,.48.12c.66.3,1,1,.49,1.45a1.43,1.43,0,0,1-1,.41,1.26,1.26,0,0,1-.47-.12c-.67-.3-1-1-.5-1.45A1.43,1.43,0,0,1,429.07,103Z"/><path class="cls-1" d="M433.54,92.49a1.12,1.12,0,0,1-.34.31,1.6,1.6,0,0,1-1.15.08.89.89,0,0,1-.44-1.46.93.93,0,0,1,.34-.31,1.57,1.57,0,0,1,1.14-.08A.89.89,0,0,1,433.54,92.49Z"/><path class="cls-1" d="M435.67,84.61c.41.47.13,1.23-.35,1.66l-.07,0a6.76,6.76,0,0,1-.64.54,1.56,1.56,0,0,1-1.41,0c-.73-.31-1-.73-.54-1.3a2.33,2.33,0,0,1,1.65-1.21C434.78,84.3,435.39,84.29,435.67,84.61Z"/><path class="cls-1" d="M442.3,107.13a.91.91,0,0,1-.5-1.49,1.29,1.29,0,0,1,1.59-.36c.66.29,1,1,.49,1.45a1.44,1.44,0,0,1-.84.4A2.62,2.62,0,0,1,442.3,107.13Z"/><path class="cls-1" d="M436,82.05a1.78,1.78,0,0,1,1.88-.36.39.39,0,0,1,.15.52,2.4,2.4,0,0,1-.91,1.43c-1.09.77-1.92.58-1.9-.33a1.2,1.2,0,0,1,.35-.89Z"/><path class="cls-1" d="M484.72,80c.07.23-.09.51-.5.85a5.54,5.54,0,0,1-.64.54,1.56,1.56,0,0,1-1.41,0c-.73-.31-1-.73-.54-1.3a3.49,3.49,0,0,1,.93-1A1.57,1.57,0,0,1,484.72,80Z"/><path class="cls-1" d="M487.25,77a1.23,1.23,0,0,1-1.05,1.51l-.08,0c-.93.21-2-.33-1.81-1.12a1.61,1.61,0,0,1,1-1.16A1.42,1.42,0,0,1,487.25,77Z"/><path class="cls-1" d="M489.09,77.83a1.39,1.39,0,0,1,1.08.37,6.21,6.21,0,0,1,.64.47.84.84,0,0,1,0,1.12,1.25,1.25,0,0,1-1.68.47,4.65,4.65,0,0,1-1.11-.61C487.24,79,488.07,78.05,489.09,77.83Z"/><path class="cls-1" d="M494.4,95.44a1.48,1.48,0,0,1,.65.55.88.88,0,0,1-.07.75,1.42,1.42,0,0,1-1.82.38,1.1,1.1,0,0,1-.44-.31.9.9,0,0,1,.1-1.1,1.1,1.1,0,0,1,1.5-.32Z"/><path class="cls-1" d="M517.52,74.76a1.21,1.21,0,0,1,.47.12c.67.3,1,1,.5,1.45a1.43,1.43,0,0,1-1,.41,1.26,1.26,0,0,1-.47-.12c-.66-.3-1-1-.5-1.45A1.43,1.43,0,0,1,517.52,74.76Z"/><path class="cls-1" d="M530,76.09a.83.83,0,0,1-.2.45A1.39,1.39,0,0,1,528,77a.91.91,0,0,1-.52-.78.83.83,0,0,1,.2-.45,1.41,1.41,0,0,1,1.8-.43A1,1,0,0,1,530,76.09Z"/><path class="cls-1" d="M536,68.2a1.64,1.64,0,0,1,.61-.46,1.56,1.56,0,0,1,1,0,.89.89,0,0,1,.44,1.46,1,1,0,0,1-.33.3,1.68,1.68,0,0,1-1.39,0c-.62-.23-.82-.78-.38-1.22Z"/><path class="cls-1" d="M540.27,57.66a1.47,1.47,0,0,1-.65-.15c-.62-.27-.9-.9-.46-1.35a1.46,1.46,0,0,1,1-.46,1.41,1.41,0,0,1,.61.15c.67.3,1.14,1,.62,1.42A1.82,1.82,0,0,1,540.27,57.66Z"/><path class="cls-1" d="M552.14,67.43a1.66,1.66,0,0,1,.6.46.86.86,0,0,1,0,.82,1.4,1.4,0,0,1-1.82.38,1.08,1.08,0,0,1-.44-.3.82.82,0,0,1,0-.89A1.19,1.19,0,0,1,552.14,67.43Z"/><path class="cls-1" d="M569.59,55a1.49,1.49,0,0,1,.65.55.88.88,0,0,1-.07.75,1.4,1.4,0,0,1-1.82.38,1.23,1.23,0,0,1-.44-.3.92.92,0,0,1,.11-1.11,1.1,1.1,0,0,1,1.49-.32Z"/><path class="cls-1" d="M594.42,34.71a1.52,1.52,0,0,1,1.85-.45,1,1,0,0,1,.59.83.83.83,0,0,1-.2.45,1.4,1.4,0,0,1-1.8.42,1,1,0,0,1-.52-.69A.84.84,0,0,1,594.42,34.71Z"/><path class="cls-1" d="M603.64,39.25a.89.89,0,0,1-.19.45,1.4,1.4,0,0,1-1.8.42,1,1,0,0,1-.53-.73,1,1,0,0,1,.25-.56,1.32,1.32,0,0,1,1.72-.49A1.12,1.12,0,0,1,603.64,39.25Z"/><path class="cls-1" d="M618.14,18.77a1.68,1.68,0,0,1,1.78-.29.53.53,0,0,1,.26.68,3.51,3.51,0,0,1-.19.63,2.21,2.21,0,0,1-1.7,1.16c-.52.09-.86-.14-.9-.64a1.56,1.56,0,0,1,.38-1.19Z"/><path class="cls-1" d="M622.61,6.37c.25.15.54.3.64.55a.82.82,0,0,1-.06.74,1.42,1.42,0,0,1-1.82.39,1.2,1.2,0,0,1-.44-.31.9.9,0,0,1,.1-1.1,1.08,1.08,0,0,1,1.49-.32Z"/><path class="cls-1" d="M622.85.69a1,1,0,0,1,.34-.3,1.53,1.53,0,0,1,1.14-.08.89.89,0,0,1,.45,1.46,1,1,0,0,1-.34.31,1.58,1.58,0,0,1-1.14.07A.89.89,0,0,1,622.85.69Z"/><path class="cls-1" d="M597.33,42.59a1,1,0,0,1-.24.62,1.28,1.28,0,0,1-1.65.39,1,1,0,0,1-.6-.78.91.91,0,0,1,.24-.56,1.38,1.38,0,0,1,1.75-.54A1.07,1.07,0,0,1,597.33,42.59Z"/><path class="cls-1" d="M431.52,7c.24.76,1.22.4.72,1.06-.91,1.23,1.23.5.39,1.63-.4.53-2.27-1.11-2.71-1.63-.31-.35-.52-.31-1.16-.48-1.28-.32-2-.53-1.53,2.11.13.4-.53-.61-1-.5a2.51,2.51,0,0,0-1.53,1.07c-.49.66-.39,1.19.86,1.46a1,1,0,0,0,.79-.1,2.65,2.65,0,0,0,1-.91,2.46,2.46,0,0,0,.14-.36,2.08,2.08,0,0,1,.87-1.27,2.37,2.37,0,0,1,3.19,1.29,5.18,5.18,0,0,1,.32,1.18,1.55,1.55,0,0,1,0,.88,3,3,0,0,1-1.67,1.47,34.09,34.09,0,0,1-4.78,1.16c-1.58.29-3.51-1-5.05-1.4a1.44,1.44,0,0,0-.74,0c-2,.58-2.17,3.1-4.18,3.55a4,4,0,0,0-2.47,1.56c-.26.39-.53.79-.8,1.21a6.42,6.42,0,0,0-.87,5.55c.22.68.44,1.37.65,2a5,5,0,0,1-.27,4.19,9.89,9.89,0,0,1-1.09,1.5c-1.25,1.41-3.92,1.57-4.48-.12a6.29,6.29,0,0,1-.17-.62,7.55,7.55,0,0,1,.76-5.56l.17-.25a2.53,2.53,0,0,0,.23-2.11,3.6,3.6,0,0,0-2.12-2.12c-2.07-.85-4.08-1.79-6.13-2.67-1.48-.63-4.31-.28-3.88,1.06,1,4.34,2.38,8.59,3.75,12.85.23.72-1.43.82-2.22.48a32.13,32.13,0,0,0-3.06-1.13c-.67-.3-1.4-.39-1.85-.9a2.71,2.71,0,0,0-1.43-.8c-1-.25-1.47.28-1.53,1.46a1.79,1.79,0,0,1-1.44,1.64,1.89,1.89,0,0,1-2.23-1.08c-.25-.76-.5-1.54-.72-2.22-.09-.28-.55-.49-1-.69s-.91-.4-1.18,0l0,.05a3.19,3.19,0,0,0-.78,2.31,2.23,2.23,0,0,0,1,1.93c1.68,1,4.29,1.68,2.89,2.93-1.35,1.09-3.66,1-4.54,2.46a2,2,0,0,0,0,1.59A4.28,4.28,0,0,0,382.71,44c1.38.78,2,2.49.46,3a6.39,6.39,0,0,1-.81.21,6.57,6.57,0,0,1-4.22-.55c-.78-.39-1.62-.82-2.56-1.27-1.26-.61-2.38-1.42-2.55-2.63a5.06,5.06,0,0,0-.91-2.67c-.5-.63-1.33-1.35-2.2-1.15a1,1,0,0,0-.46.32,1.86,1.86,0,0,0-.35,1.56,5.72,5.72,0,0,1-.79,4c-.23.31-.45.62-.66.95a6.86,6.86,0,0,1-3.5,2.85c-1.55.5-3.18.79-4.78,1.14a8.38,8.38,0,0,0-4.44,2.25,22.73,22.73,0,0,0-2,2.74,3.14,3.14,0,0,0-.48,1.36c-.16,1.94-2.57,2.94-4.67,2.09l-1.16-.47A4.94,4.94,0,0,0,341,59l-1.67,2.23a2.06,2.06,0,0,1-1.61,1.07,2.15,2.15,0,0,1-.5-.07,1.62,1.62,0,0,1-1.28-1.4c0-.35-.08-.78-.15-1.13a1.5,1.5,0,0,0-.38-.81c-.67-.72-2.2-.77-2.67.06a2.94,2.94,0,0,0-.09,2.29c.46,1.42.82,2.56,1.28,4,.13.4.26.8.35,1.21a3.24,3.24,0,0,1-.77,2.6c-1.58,2.12-5.09,3-5.57.58l-.15-.8a5.22,5.22,0,0,0-2.43-2.94,5.6,5.6,0,0,0-.72-.41c-3.28-1.7-6.83-3-10.47-4.66a7,7,0,0,0-1.49-.56,1.91,1.91,0,0,0-2,1.29,1.51,1.51,0,0,0,.16,1.24,2.41,2.41,0,0,1,.27.53,2.1,2.1,0,0,0,1.23,1.23,8.82,8.82,0,0,1,3.4,2.35,8.52,8.52,0,0,0,3.06,2.77,4.8,4.8,0,0,1,1.81,1.28,6.85,6.85,0,0,1,1.25,3.66c.07,1,.45,2.66-.71,2.92l-5.66,1.26A2.91,2.91,0,0,1,312,77.1a2.52,2.52,0,0,1-.11-.61c-.09-1-.65-1.42-1.81-1.72-.82-.12-1.36.61-2.18,1.71a2.06,2.06,0,0,1-2.33.89c-.89-.4-1.16-1.26-1.51-2.07-.66-1.56-2.73-.91-3.89.44a5.17,5.17,0,0,1-2.73,1.55l-10.09,2.25c-1.57.35-3.48-.92-5-1.31a5.82,5.82,0,0,0-4.37,1,2,2,0,0,0-.81,1.29c0,.66-.31,1.86-1,1.55-2.27-1-4.46-1.74-6.37-2.84-.72-.31.27-1.27,1.06-1.45l2-.44A3.38,3.38,0,0,0,274.83,76c.64-.91.75-1.26.51-1.8a15.3,15.3,0,0,0-.75-1.52c-.47-.8-1.16-1-2.46-.91a7.19,7.19,0,0,0-1.67.27,4.3,4.3,0,0,0-2.14,1.24,1.83,1.83,0,0,0-.28,1.83c.12.38.25.78.38,1.17.27.86-.76,1.21-1.32,2-.36.48-.71,1-1.09,1.43a3.69,3.69,0,0,1-4.29.8l-.93-.41a2,2,0,0,1-1.06-3,1.49,1.49,0,0,0-1-2.38,3.65,3.65,0,0,0-3.7,1.37,15.57,15.57,0,0,1-3,2.64c-1.08.67-2.65.92-3.16,2a2.24,2.24,0,0,0-.19,1.29c.09.64.5,1.12.46,1.76-.07,1.35-2,2-3.58,2.36l-7.1,1.59a1.61,1.61,0,0,1-2-1,.75.75,0,0,1,.06-.7,3.07,3.07,0,0,1,1.79-1l2-.46c2.2-.49,4.72-1.67,4.51-3.56a8.93,8.93,0,0,0-.85-2.43c-.66-1.46-2.82-3.62-3.18-2.09a1.48,1.48,0,0,0,0,.38c-.09.93.55,1.7.09,2.72a6.18,6.18,0,0,1-.3.76,1.6,1.6,0,0,1-2.57.6,13.08,13.08,0,0,1-1-1.82c-1.23-2-1.53-2-4.11-1.41l-2.74.61a5.26,5.26,0,0,0-3.08,1.91c-2.28,2.64-3.37,2.88-6.83,1.83-1.89-.49-3.74.45-3.24,2l.06.19c.55,1.7,0,2.43-2.09,3.2-1.73.69-3.82.25-4.55-.81-.56-.67-.56-1.47-1-2.18a1.1,1.1,0,0,0-.37-.46,3.83,3.83,0,0,0-2.67-.42l-4.25,1a3.65,3.65,0,0,0-2.06,1.06c-1.17,1.34-3.26,2.34-4.09.83a5.6,5.6,0,0,0-1.53-2.19,3.68,3.68,0,0,0-2.78-.11c-1.22.28-2.6.73-2.8,1.77l0,.22c-.26,2.93-2.94,3.49-6.06,2.11l-4.38-2a2.44,2.44,0,0,1-1.36-1.43c-.16-.5-.31-1-.47-1.45-.25-.78.64-1.52,1.31-2.1a9.54,9.54,0,0,1,1.63-1.15c.6-.33.42-.87.29-1.28a2.48,2.48,0,0,0-.79-1.2,1.71,1.71,0,0,0-2.3.4,2.77,2.77,0,0,0-.32.53,1.64,1.64,0,0,0,0,.88,7.12,7.12,0,0,0,.54,1.72c.35.84-.65,1.18-1.21,1.93a15.54,15.54,0,0,1-7.59,4.43l-4.61,1a3.67,3.67,0,0,1-1.8-.17c-.5-.17-.21-.47,0-.88a3.89,3.89,0,0,1,.52-.91,2.27,2.27,0,0,1,1-.5c1.3-.43,3-.57,4.55-.93a4.66,4.66,0,0,0,.85-.26c1.35-.55,1-2.05.76-3.29-.1-.45-.18-.92-.31-1.37-.59-2-3.69-2.1-5.06-.34-.36.46-.69.94-1,1.43-1,1.52-3.2,1.92-5.1,1.24l-.05,0a4.06,4.06,0,0,0-2.29-.14c-2.13.48-4.45-.55-5-2.33l-.15-.47c-.09-.28-.55-.48-1-.69s-.91-.4-1.19,0l0,0a3.16,3.16,0,0,0-.78,2.31,2.27,2.27,0,0,0,1,1.9c1.68,1,4.72,2,2.95,3-1,.48-2.09.93-3.06,1.48-2.5,1.41-3.51,1.27-6.43,1.92a3.84,3.84,0,0,1-3.18-.2c-1.46-.9-1.92-2.32-1.46-3.33.9-1.5,2-2.9,3.07-4.34.71-1,.45-2.88-.92-2.82l-.35,0c-.36,0-.71.09-1.06.15-3.28.57-4.79,4.06-8.12,4.37h-.09c-1.66-.06-1.89-1-2-2a3.29,3.29,0,0,1,.5-2.17,2.7,2.7,0,0,0-1.4-3.93l-.08,0c-1.56-.69-3.8-.3-4,1.16,0,1.22.83,2.56,1.28,4s-2.49,1.81-4,1.15l-1.51-.67a4.42,4.42,0,0,1-2.18-2.19l-.08-.16a3.15,3.15,0,0,0-1.57-1.3l-.74-.35c-1.63-.77-.79-3-.41-4.55,0-.13-2.74-1.93-2.9-.26.09-.93.23.3,0,1-.36,1.3.55,1.7,1.82.81l.08,0c1-.79-1.4-2.76-2-1.71-1.09,1.46-.76,2-1,2.41l-1.2,1.62a3.34,3.34,0,0,1-3.58.77,2.84,2.84,0,0,0-3,.66l-.09.09c-.91.91-2.6,1.29-3.3.26a10.17,10.17,0,0,1-1.06-3.22c1.29-4.48,1.45-6.42.29-6.92l-.29-.12c-2.32-1,0-3.9-1.72-2.26a4,4,0,0,1-2.77,1.16,3.5,3.5,0,0,1-1.54-.34l-.13-.06c-1.83-.81-4.74-1.1-6,.29a4.49,4.49,0,0,1-2,1.21c-1.23.36-2.6.66-3.55-.49-1.46-2.11.86-3.53-2-3.15a5.75,5.75,0,0,1-2.23,0c-.82-.22-2.32,1.55-2.54.85-.42-1.3-.15-.54.86-1.59.74-.78.86-1.12,1.54-1.89,1-1.06-1.74-.91-2.32-2.16,0-.1-.1-.2-.16-.3a3.11,3.11,0,0,0-1.39-1.17c-1.77-.91-4.43-.53-3.33-2l1.63-2.18c.27-.36,1.09-.24,1.45-.32a1.59,1.59,0,0,0,1.73,1.74,7.87,7.87,0,0,0,1.6,0,6.33,6.33,0,0,0,2.85-.58l.07,0c.83-.56.53-1.55-.42-1.95A4,4,0,0,0,75,52.26c-1.25.22-2.54.69-3.67.94-.09-1.5-1.46-2.11-3-2.07-2.51.07-6.06.5-6.71-1.51v0c-.09-.29-.55-.49-1-.69s-.91-.41-1.19,0a2.46,2.46,0,0,1-.22.25A2.36,2.36,0,0,0,58.59,51c.09,1.71.78,2.41,2.48,2.58,1,.11,2.83.69,2.27,1.44-.63,1.12-1.46,1-2.26,2s-2.66,1.66-3.45.79a2.14,2.14,0,0,1-.26-.43,10.16,10.16,0,0,1-1.13-2.57,2.67,2.67,0,0,0-.45-.87c-.67-.84-2-.27-2.76.56-1,1.13-2.91,1.55-3.83.37-.5-.63-.91-1.33-1.43-1.94-1-1.2-2.19-3.15-1.33-4.44a1.81,1.81,0,0,0,.24-1.57c-.25-.77-.49-1.54-.74-2.3a5.47,5.47,0,0,0-2.73-3,5.45,5.45,0,0,1-2.73-3l-3.2-10c-.27-.85-1-1.91-2.1-1.66A3,3,0,0,0,34,28.11a1.89,1.89,0,0,0-.08,1.2c.05.33.12.67.15,1,.14,1.44-2,1.75-3.42,1l-.8-.44a2.36,2.36,0,0,1-1.08-3.28,1.36,1.36,0,0,0-.51-1.9c-1.32-.55-3,.11-4.51.07s-2.19-1.33-2.57-2.51c-.19-.58-.37-1.16-.57-1.77-.37-1.15-.9-2.34-2.32-2.23-2.29.18-4.52,2-6.55,1.1L10.9,20a4.09,4.09,0,0,1-1.8-1.39c-1.18-1.79-1.4-3.68-1.89-5.38A4.67,4.67,0,0,1,7.8,9.12c.67-.9.63-1.08.33-2.11ZM78.87,61.33c1.66.74,2.21-1.27,1.73-2.79-.58-1.78-.63-1.39-1.2-3.16-.05-.14-.26-.24-.53-.33a2.31,2.31,0,0,0-1.6-.22c-1.08.4-1,1.79-.68,2.75.67,2.06.25,1.08.92,3.15C77.6,61,78.42,61.13,78.87,61.33ZM418.93,8.54c-2.06-.94-5.15-.24-4.38,1.59a2.81,2.81,0,0,0,.44.7c1,1.17,3.15,1.26,4.81.84a3.41,3.41,0,0,0,.76-.27C421.89,10.68,420.32,9.17,418.93,8.54ZM188.44,83.11c-2.13.32-3-2.36-.95-3C189.76,79.47,190.81,82.75,188.44,83.11Zm23.76-3.75c0-.46-.62-.78-1.08-1a1,1,0,0,0-.64-.19l-3.28.73c-.36.08-.55.73-.82,1.09-.43.58.52,1.21,1.31,1.38,1.48.33,3.69-.36,4.34-1.55A1,1,0,0,0,212.2,79.36ZM56.06,44a.8.8,0,0,0,.2-.45.91.91,0,0,0-.52-.78,1.4,1.4,0,0,0-1.8.42.83.83,0,0,0-.2.45.92.92,0,0,0,.52.79A1.4,1.4,0,0,0,56.06,44ZM247.68,73.25c-.42.51-.11,1.2.55,1.49a1.09,1.09,0,0,0,.43.11,1.41,1.41,0,0,0,1.05-.42c.5-.46.17-1.14-.49-1.44-.14-.06-.29-.17-.43-.24C248.45,72.59,248.08,72.76,247.68,73.25Zm63.18-2.39a1.17,1.17,0,0,0-.44-.31,1.42,1.42,0,0,0-1.82.38.81.81,0,0,0,0,.9,1.1,1.1,0,0,0,.44.31,1.43,1.43,0,0,0,1.82-.38A.83.83,0,0,0,310.86,70.86Zm37-19.52a1.08,1.08,0,0,0-.44-.3,1.39,1.39,0,0,0-1.81.38.81.81,0,0,0,0,.9,1.19,1.19,0,0,0,.45.3,1.39,1.39,0,0,0,1.81-.38A.79.79,0,0,0,347.88,51.34Zm28.7-14.44a1.2,1.2,0,0,0,.44.31,1.4,1.4,0,0,0,1.81-.39.8.8,0,0,0,0-.89,1.1,1.1,0,0,0-.44-.31,1.42,1.42,0,0,0-1.82.38A.81.81,0,0,0,376.58,36.9Zm29.71-21.5a.83.83,0,0,0-.2.45.93.93,0,0,0,.52.79,1.41,1.41,0,0,0,1.8-.43.83.83,0,0,0,.2-.45.91.91,0,0,0-.52-.78A1.39,1.39,0,0,0,406.29,15.4Z"/><path class="cls-1" d="M394.42,48.35a3,3,0,0,1-3.92-1.25,9.67,9.67,0,0,1-.88-2.25,5.3,5.3,0,0,1,.88-4.31,8.28,8.28,0,0,0,.45-.71,2,2,0,0,0,.16-1.74c-.16-.5-.31-1-.46-1.43a1.41,1.41,0,0,1,1.2-1.73,1.75,1.75,0,0,1,2.08,1c.35,1.08.68,2.12,1,3.19a4.5,4.5,0,0,1-.55,3.76,4.47,4.47,0,0,0-.55,3.75C394,47.17,394.21,47.73,394.42,48.35Z"/><path class="cls-1" d="M439.08,18.61c-.51-1.57-1-3-1.45-4.5a3.21,3.21,0,0,1,1.06-3.56,2.62,2.62,0,0,1,2.75-.65,1.6,1.6,0,0,1,1,2.39c-.51.84-.3,2.18.81,2.35a1.58,1.58,0,0,1-.25,3.15h-.29A15.66,15.66,0,0,0,439.08,18.61Z"/><path class="cls-1" d="M152.33,93.83c-.78-2.42-.89-5.67,2.1-6l.26,0c2.27-.2,3.09-.08,3.64,1.62.7,2.19-2.54,3.63-5.18,4.2Z"/><path class="cls-1" d="M199.62,100.44a3.19,3.19,0,0,1-4.34.26,1,1,0,0,1-.24-1,7.89,7.89,0,0,1,1.74-3.25,3.26,3.26,0,0,1,4.41-.18,1,1,0,0,1,.24,1.13A10,10,0,0,1,199.62,100.44Z"/><path class="cls-1" d="M232,85.33c.35.29.65.87.39,1.21L231,88.43a3.84,3.84,0,0,1-4.37.92,3.52,3.52,0,0,0-1.13-.21c-.36,0-.7.06-1.06.07-.78,0-1.28,0-1.43-.31-.21-.51.2-1.13.51-1.6a1.82,1.82,0,0,1,.9-.52,18.12,18.12,0,0,1,7.06-1.54C231.73,85.23,231.83,85.18,232,85.33Z"/><path class="cls-1" d="M343.2,68.54a2.6,2.6,0,0,1,0-2.15,9.71,9.71,0,0,1,1.17-1.75c1.14-1.45,4-2.3,4.48-.6a2.57,2.57,0,0,1-.59,2.27,19.86,19.86,0,0,0-1.51,2.41c-1.27,2.11-1.64,2.19-2.82.93A2.93,2.93,0,0,1,343.2,68.54Z"/><path class="cls-1" d="M347.85,72.43a2.53,2.53,0,0,1,2.2-2.93l1-.22a3.1,3.1,0,0,1,1.71,0,2.76,2.76,0,0,1,2,2.51c.19,1.78,0,2.43-2.18,2.92a4.18,4.18,0,0,1-2.55,0A3.07,3.07,0,0,1,347.85,72.43Z"/><path class="cls-1" d="M14.24,42.47a2.13,2.13,0,0,1,1.59,0,4.13,4.13,0,0,1,1.65,1.24c1.41,2-2.47,2.8-4.89,1.72-1.37-.61-1.83-.81-1.64-1.46a2.19,2.19,0,0,1,2-1.45A8.28,8.28,0,0,0,14.24,42.47Z"/><path class="cls-1" d="M39.87,54.43c-1.31,1.56-5,2.1-4.8.21,0-.1,0-.2,0-.31.31-1.3,1.8-2.31,3.34-2.65a3.11,3.11,0,0,1,1.35,0C41.1,51.92,40.64,53.52,39.87,54.43Z"/><path class="cls-1" d="M129.18,86.29c1.63,0,.45,2-1.13,2.38-1.74.38-1.2-.38-2.83,0a1.36,1.36,0,0,1-1-.24c-.74-.44-1.34-1.67-.47-1.86C126.22,85.69,126.35,86,129.18,86.29Z"/><path class="cls-1" d="M219.46,90.18a3.59,3.59,0,0,1,4.7,2.12c0,.14.05.29.07.43a2.58,2.58,0,0,1,0,.48c-.16,1.08-2.28,1.22-3.44.71l-1.47-.66c-1-.47-1.79-1.88-.9-2.54a5.08,5.08,0,0,1,.69-.38Z"/><path class="cls-1" d="M251.12,94.27c-2.27.94-3.44-1.79-2.1-3.58.64-.85,1.77-1.64,2.82-1.17a1.56,1.56,0,0,1,.84.89,2.89,2.89,0,0,1-1.27,3.73Z"/><path class="cls-1" d="M365.69,51.72c2.51-.52,2.48,2.36.05,3.08a9.84,9.84,0,0,1-2.15.42c-2.12.15-2.86-2.1-.86-2.69.8-.23,1.67-.4,2.51-.68A2.32,2.32,0,0,1,365.69,51.72Z"/><path class="cls-1" d="M385.58,65.62c2.07,1,2.68,4.32.28,4.08h-.15a4,4,0,0,1-3.26-2.7,1.27,1.27,0,0,1,.3-1.31A2.56,2.56,0,0,1,385.58,65.62Z"/><path class="cls-1" d="M415.32,42.85a3.16,3.16,0,0,1,3.6,1.59c.9,1.9-2.43,2.62-4.57,1.61a4.69,4.69,0,0,0-.77-.28c-1-.32-1.39-.77-1.23-1.34a2.32,2.32,0,0,1,2.27-1.49A5.59,5.59,0,0,0,415.32,42.85Z"/><path class="cls-1" d="M422.49,16.52c.72-.14,1.11.35,1.64.77a.41.41,0,0,0,.11.07l2,.9c1.13.5,1.77,1.86.88,2.63a1.62,1.62,0,0,1-.36.21,9.58,9.58,0,0,1-2,.51A2.84,2.84,0,0,1,421.57,20c-.17-.52-.35-1.06-.52-1.61C420.79,17.58,421.54,16.69,422.49,16.52Z"/><path class="cls-1" d="M432,19a2.39,2.39,0,0,1,3.34-.89,4.16,4.16,0,0,0,3.76.46,2.11,2.11,0,0,1-.32,2.22,5,5,0,0,1-4.41,1.27,3.1,3.1,0,0,1-2.44-2.47A1.08,1.08,0,0,1,432,19Z"/><path class="cls-1" d="M407.76,51.32c-.54.17.06.21-.43,0a4.06,4.06,0,0,1-1.65-1.24c-1.42-2,1.3-2.79,3.73-1.71,1.37.61,1.82.81,1.64,1.46a2.22,2.22,0,0,1-2,1.45A8.22,8.22,0,0,0,407.76,51.32Z"/><path class="cls-1" d="M34.29,43.39c.55,1.71-.18,3.09-1.45,2.76s-1.71-.71-1.81-1.68a2.41,2.41,0,0,0-.12-.65,1.89,1.89,0,0,1,.14-1.59c.38-.57.85-.87,1.51-.58.45.2,1.27.32,1.36.61S34.2,43.11,34.29,43.39Z"/><path class="cls-1" d="M86.55,78a4.1,4.1,0,0,1-.7-1.44,1.84,1.84,0,0,1,.74-1.79c1.27-.89,2.73,0,3.27,1.7,0,.07,0,.14.08.23a1.89,1.89,0,0,1-.31,1.71,1.28,1.28,0,0,1-.57.48,2.05,2.05,0,0,1-1.66-.28A2.57,2.57,0,0,1,86.55,78Z"/><path class="cls-1" d="M99.42,95.66c1.84.07.58,2.11-1.19,2.53a9.16,9.16,0,0,1-1.12.21,3.33,3.33,0,0,1-1.37,0l-.36-.12c-1-.39-1.31-1.42-.48-2a4.19,4.19,0,0,1,1.42-.57A11.42,11.42,0,0,1,99.42,95.66Z"/><path class="cls-1" d="M82.77,97.34a.89.89,0,0,1,0-.7,2.81,2.81,0,0,1,3.81-1.09,1.86,1.86,0,0,1,.72.48c.26.37-.08.84-.36,1.19a2.81,2.81,0,0,1-3.5.91A1.21,1.21,0,0,1,82.77,97.34Z"/><path class="cls-1" d="M111.24,83.9c2.19-.49,3.91,0,3.46,1a2.28,2.28,0,0,1-2.2,1.48,5.4,5.4,0,0,0-.82.11,3.59,3.59,0,0,1-2.08-.08c-.68-.27-1-.63-.63-1.14s.45-1,.82-1.1Z"/><path class="cls-1" d="M124.1,100.81c.54,1.7-.18,3.08-1.46,2.75s-1.7-.71-1.8-1.68a3.55,3.55,0,0,0-.12-.65,1.82,1.82,0,0,1,.14-1.59c.38-.57.85-.87,1.5-.58.46.2,1.28.33,1.37.61S123.91,100.24,124.1,100.81Z"/><path class="cls-1" d="M152.33,93.83c.26.83.76,1.76,1,2.67a2.24,2.24,0,0,1-.24,2,1.65,1.65,0,0,1-2.27.36,2.56,2.56,0,0,1-.79-1.2,5.53,5.53,0,0,1,0-2.43C150.14,94.32,151.14,93.79,152.33,93.83Z"/><path class="cls-1" d="M191.79,104.4a1.5,1.5,0,0,1,.69.81.73.73,0,0,1-.06.66c-.88,1.29-3.73,1.73-5,1.1a.84.84,0,0,1-.4-.51,1.38,1.38,0,0,1,.12-1c.15-.28.3-.54.53-.59l3.27-.73A1.35,1.35,0,0,1,191.79,104.4Z"/><path class="cls-1" d="M282.35,81.56c1.88-.42,4.13.57,2.82,1.77l0,0a5.87,5.87,0,0,1-4.37,1c-1.89-.48-.5-2.32,1.41-2.75Z"/><path class="cls-1" d="M371.29,67.68c.75,1.69,4.16.93,3.8-.84C374.68,64.84,370.45,65.78,371.29,67.68Z"/><path class="cls-1" d="M394.42,48.35c1.12-.25,2.41-.72,3.66-.94a4,4,0,0,1,2.16.09c.95.41,1.26,1.39.42,2a4.1,4.1,0,0,1-1.42.56,11,11,0,0,1-3.09.08A1.59,1.59,0,0,1,394.42,48.35Z"/><path class="cls-1" d="M416.87,23.57c2.6-.58,5.33,1.78,2.68,2.22a11.78,11.78,0,0,1-1.93.13,1.88,1.88,0,0,1-.75-.06,2.55,2.55,0,0,1-.53-.29c-.29-.17-.51-.43-.42-.72a2.13,2.13,0,0,1,.35-.87A1.18,1.18,0,0,1,416.87,23.57Z"/><path class="cls-1" d="M431.92,37.32c0-1.63,2.81-.4,3.28,1.19.05.17.09.34.12.5a1.81,1.81,0,0,1-.05,1.15,3,3,0,0,1-.26.4,1.71,1.71,0,0,1-2.3.4,2.48,2.48,0,0,1-.79-1.2A5.43,5.43,0,0,1,431.92,37.32Z"/><path class="cls-1" d="M25.65,45.55a1.31,1.31,0,0,1,.48.12c.66.3,1,1,.49,1.45a1.43,1.43,0,0,1-1,.41,1.26,1.26,0,0,1-.47-.12c-.67-.3-1-1-.5-1.45A1.43,1.43,0,0,1,25.65,45.55Z"/><path class="cls-1" d="M2.26,45.69a1.67,1.67,0,0,1-.61.47,1.63,1.63,0,0,1-1,0A.89.89,0,0,1,.22,44.7a1.1,1.1,0,0,1,.34-.3,1.65,1.65,0,0,1,1.38,0c.63.24.82.79.38,1.23Z"/><path class="cls-1" d="M18.85,46.25a1.15,1.15,0,0,1,.48.13c.66.29,1,1,.49,1.45a1.47,1.47,0,0,1-1,.41,1.49,1.49,0,0,1-.47-.13c-.66-.29-1-1-.5-1.45A1.47,1.47,0,0,1,18.85,46.25Z"/><path class="cls-1" d="M15.16,54.31a1.58,1.58,0,0,1-.65-.14c-.62-.28-.91-.91-.46-1.36a1.33,1.33,0,0,1,1.64-.3c.67.29,1.14,1,.62,1.42A1.84,1.84,0,0,1,15.16,54.31Z"/><path class="cls-1" d="M413.71,60.88a7,7,0,0,1-1.22-.42c-.18-.26.41-.75.59-1.09a1.41,1.41,0,0,1,1.81-.38,1.1,1.1,0,0,1,.44.31.81.81,0,0,1,0,.9A1.29,1.29,0,0,1,413.71,60.88Z"/><path class="cls-1" d="M3.29,37.39a1.08,1.08,0,0,1,.44.3.81.81,0,0,1,0,.9A1.39,1.39,0,0,1,1.94,39a1.19,1.19,0,0,1-.45-.3.81.81,0,0,1,0-.9A1.39,1.39,0,0,1,3.29,37.39Z"/><path class="cls-1" d="M298.15,87.94a.83.83,0,0,1,.2-.45,1.41,1.41,0,0,1,1.8-.43.93.93,0,0,1,.52.79.83.83,0,0,1-.2.45,1.39,1.39,0,0,1-1.8.42A.91.91,0,0,1,298.15,87.94Z"/><path class="cls-1" d="M142.68,104.48a.83.83,0,0,1-.2.45,1.41,1.41,0,0,1-1.8.43,1,1,0,0,1-.53-.79,1,1,0,0,1,.2-.45,1.42,1.42,0,0,1,1.81-.43A1,1,0,0,1,142.68,104.48Z"/><path class="cls-1" d="M424.19,58.53a1.31,1.31,0,0,1-.47-.12c-.66-.3-1-1-.49-1.45a1.31,1.31,0,0,1,1.58-.25c.67.29,1.09.94.56,1.39A1.82,1.82,0,0,1,424.19,58.53Z"/><path class="cls-1" d="M40,44.61a1.31,1.31,0,0,1-.48-.12c-.66-.29-1-1-.49-1.45a1.46,1.46,0,0,1,1-.41,1.42,1.42,0,0,1,.61.16c.67.29,1.09,1,.56,1.4A1.86,1.86,0,0,1,40,44.61Z"/><path class="cls-1" d="M332.71,86a1.72,1.72,0,0,1,.61-.49,1.61,1.61,0,0,1,1,0,.89.89,0,0,1,.45,1.46,1.13,1.13,0,0,1-.34.31,1.58,1.58,0,0,1-1.16.07C332.5,87.08,332.22,86.5,332.71,86Z"/><path class="cls-1" d="M65.28,93.85a1,1,0,0,1-.54-1.71,1.42,1.42,0,0,1,.85-.26,1.1,1.1,0,0,1,.47.13c.66.29,1,1,.5,1.45A1.5,1.5,0,0,1,65.28,93.85Z"/><path class="cls-1" d="M58.71,75.12a1.2,1.2,0,0,1-.44-.31.81.81,0,0,1,0-.9,1.42,1.42,0,0,1,1.82-.38,1.1,1.1,0,0,1,.44.31.8.8,0,0,1,0,.89A1.4,1.4,0,0,1,58.71,75.12Z"/><path class="cls-1" d="M72.83,71.78a.9.9,0,0,1-.34.3,1.52,1.52,0,0,1-1.14.08.89.89,0,0,1-.44-1.46,1.09,1.09,0,0,1,.33-.31,1.6,1.6,0,0,1,1.15-.07A.89.89,0,0,1,72.83,71.78Z"/><path class="cls-1" d="M70.44,98.24a1.31,1.31,0,0,1-.48-.12c-.66-.3-1-1-.49-1.45a1.43,1.43,0,0,1,1-.41,1.26,1.26,0,0,1,.47.12c.66.3,1,1,.5,1.45A1.43,1.43,0,0,1,70.44,98.24Z"/><path class="cls-1" d="M56.22,61.32A1.43,1.43,0,0,1,58,60.87a.91.91,0,0,1,.52.78.83.83,0,0,1-.2.45,1.4,1.4,0,0,1-1.8.43.92.92,0,0,1-.52-.79A.72.72,0,0,1,56.22,61.32Z"/><path class="cls-1" d="M84.81,84.72a.83.83,0,0,1-.2.45,1.41,1.41,0,0,1-1.8.43,1,1,0,0,1-.53-.79,1,1,0,0,1,.2-.45,1.41,1.41,0,0,1,1.81-.42A.93.93,0,0,1,84.81,84.72Z"/><path class="cls-1" d="M90.28,82.44a1.62,1.62,0,0,1,.65.14c.62.28.9.9.45,1.36a1.48,1.48,0,0,1-1,.46,1.58,1.58,0,0,1-.61-.16c-.67-.29-1.14-1-.62-1.42A1.81,1.81,0,0,1,90.28,82.44Z"/><path class="cls-1" d="M102.61,97.08a1.36,1.36,0,0,1,1.08.38,5,5,0,0,1,.64.46.84.84,0,0,1,0,1.12,1.24,1.24,0,0,1-1.68.47,4.84,4.84,0,0,1-1.11-.6C100.76,98.28,101.59,97.31,102.61,97.08Z"/><path class="cls-1" d="M287.37,108.89a.83.83,0,0,1-.2.45,1.4,1.4,0,0,1-1.8.42.92.92,0,0,1-.53-.78.91.91,0,0,1,.2-.45,1.4,1.4,0,0,1,1.8-.42A.92.92,0,0,1,287.37,108.89Z"/><path class="cls-1" d="M292.31,91.89a1.1,1.1,0,0,1,.44.31.83.83,0,0,1,0,.9,1.42,1.42,0,0,1-1.82.38,1.1,1.1,0,0,1-.44-.31.83.83,0,0,1,0-.9A1.42,1.42,0,0,1,292.31,91.89Z"/><path class="cls-1" d="M117.68,96a.93.93,0,0,1-.34.31,1.57,1.57,0,0,1-1.14.08.9.9,0,0,1-.45-1.47,1.1,1.1,0,0,1,.34-.3,1.58,1.58,0,0,1,1.14-.08A.89.89,0,0,1,117.68,96Z"/><path class="cls-1" d="M132.36,87.7a1.43,1.43,0,0,1,1.09.38,7.36,7.36,0,0,1,.63.47.82.82,0,0,1,0,1.11,1.24,1.24,0,0,1-1.67.48,5.53,5.53,0,0,1-1.06-.57C130.52,89,131.33,87.94,132.36,87.7Z"/><path class="cls-1" d="M158,103a1.4,1.4,0,0,1-1.59.47.88.88,0,0,1-.44-1.46.87.87,0,0,1,.33-.3,1.66,1.66,0,0,1,1.38,0c.63.23.83.78.38,1.22Z"/><path class="cls-1" d="M167.59,111a.83.83,0,0,1-.2.45,1.41,1.41,0,0,1-1.8.43,1,1,0,0,1-.52-.73.93.93,0,0,1,.24-.57,1.32,1.32,0,0,1,1.73-.48A1.13,1.13,0,0,1,167.59,111Z"/><path class="cls-1" d="M171.39,107.64a1.45,1.45,0,0,1-.59-.46.83.83,0,0,1,0-.82,1.42,1.42,0,0,1,1.82-.38,1.1,1.1,0,0,1,.44.31.81.81,0,0,1,0,.89A1.2,1.2,0,0,1,171.39,107.64Z"/><path class="cls-1" d="M177.83,91.72a1.67,1.67,0,0,1,.61-.47,1.71,1.71,0,0,1,1,0,.89.89,0,0,1,.45,1.46.93.93,0,0,1-.34.31,1.65,1.65,0,0,1-1.38,0c-.63-.24-.82-.79-.38-1.23Z"/><path class="cls-1" d="M211.61,111.57a1,1,0,0,1-.34.3,1.57,1.57,0,0,1-1.14.08.89.89,0,0,1-.45-1.46,1.13,1.13,0,0,1,.34-.31,1.53,1.53,0,0,1,1.14-.07A.88.88,0,0,1,211.61,111.57Z"/><path class="cls-1" d="M221.48,104.41a1.46,1.46,0,0,1,1.83-.46,1,1,0,0,1,.52.79.83.83,0,0,1-.2.45,1.4,1.4,0,0,1-1.8.42.94.94,0,0,1-.53-.78A.87.87,0,0,1,221.48,104.41Z"/><path class="cls-1" d="M227.93,97a1.62,1.62,0,0,1,.65.14c.62.28.9.91.45,1.36a1.44,1.44,0,0,1-1,.46,1.57,1.57,0,0,1-.61-.15c-.67-.3-1.14-1-.62-1.43A1.81,1.81,0,0,1,227.93,97Z"/><path class="cls-1" d="M240.4,102.71a1.27,1.27,0,0,1,.47.13c.66.29,1,1,.5,1.45a1.47,1.47,0,0,1-1,.41,1.55,1.55,0,0,1-.48-.13c-.66-.29-1-1-.49-1.45A1.47,1.47,0,0,1,240.4,102.71Z"/><path class="cls-1" d="M256.43,107.65a1.57,1.57,0,0,1,.47.13c.66.29,1,1,.49,1.45a1.45,1.45,0,0,1-1,.41,1.15,1.15,0,0,1-.48-.13c-.66-.29-1-1-.49-1.44A1.48,1.48,0,0,1,256.43,107.65Z"/><path class="cls-1" d="M260.89,97.14a1,1,0,0,1-.34.31,1.58,1.58,0,0,1-1.14.07.89.89,0,0,1-.45-1.46,1.1,1.1,0,0,1,.34-.3,1.6,1.6,0,0,1,1.15-.08A.89.89,0,0,1,260.89,97.14Z"/><path class="cls-1" d="M263,89.25a1.25,1.25,0,0,1-.35,1.66l-.06.06a6.42,6.42,0,0,1-.64.53,1.56,1.56,0,0,1-1.41,0c-.73-.31-1-.73-.55-1.3s.86-1.16,1.65-1.21C262.13,89,262.75,88.93,263,89.25Z"/><path class="cls-1" d="M269.66,111.77a.89.89,0,0,1-.5-1.48,1.5,1.5,0,0,1,1.11-.49,1.42,1.42,0,0,1,.47.13c.67.29,1,1,.5,1.45a1.46,1.46,0,0,1-.85.4A2.23,2.23,0,0,1,269.66,111.77Z"/><path class="cls-1" d="M263.34,86.7a1.8,1.8,0,0,1,1.88-.37c.22.12.22.32.16.53a2.45,2.45,0,0,1-.91,1.43c-1.1.77-1.93.57-1.9-.33a1.24,1.24,0,0,1,.35-.9Z"/><path class="cls-1" d="M312.07,84.67c.08.23-.09.51-.49.85a5.64,5.64,0,0,1-.65.54,1.56,1.56,0,0,1-1.41,0c-.73-.31-1-.73-.54-1.3a3.52,3.52,0,0,1,.94-1A1.54,1.54,0,0,1,312.07,84.67Z"/><path class="cls-1" d="M314.6,81.61a1.23,1.23,0,0,1-1.05,1.51l-.08,0c-.93.21-2-.33-1.81-1.12a1.63,1.63,0,0,1,1-1.16A1.42,1.42,0,0,1,314.6,81.61Z"/><path class="cls-1" d="M316.44,82.48a1.35,1.35,0,0,1,1.08.37,6.21,6.21,0,0,1,.64.47.82.82,0,0,1,0,1.11,1.24,1.24,0,0,1-1.68.48,4.86,4.86,0,0,1-1.11-.61C314.59,83.68,315.42,82.7,316.44,82.48Z"/><path class="cls-1" d="M319.43,92a1.62,1.62,0,0,1,.65.55.88.88,0,0,1-.07.75,1.4,1.4,0,0,1-1.82.38,1.08,1.08,0,0,1-.44-.3.92.92,0,0,1,.1-1.11,1.11,1.11,0,0,1,1.5-.32Z"/><path class="cls-1" d="M344.88,79.41a1.31,1.31,0,0,1,.47.12c.66.3,1,1,.49,1.45a1.42,1.42,0,0,1-1,.41,1.31,1.31,0,0,1-.47-.12c-.66-.3-1-1-.49-1.45A1.42,1.42,0,0,1,344.88,79.41Z"/><path class="cls-1" d="M357.35,80.74a1,1,0,0,1-.2.45,1.41,1.41,0,0,1-1.81.42.93.93,0,0,1-.52-.78.8.8,0,0,1,.2-.45,1.4,1.4,0,0,1,1.8-.43A1,1,0,0,1,357.35,80.74Z"/><path class="cls-1" d="M363.33,72.85a1.67,1.67,0,0,1,.61-.47,1.63,1.63,0,0,1,1,0,.89.89,0,0,1,.45,1.46,1,1,0,0,1-.34.3,1.66,1.66,0,0,1-1.38,0c-.63-.23-.83-.78-.38-1.22Z"/><path class="cls-1" d="M367.63,62.31a1.63,1.63,0,0,1-.66-.15c-.62-.28-.9-.9-.45-1.36a1.51,1.51,0,0,1,1-.46,1.62,1.62,0,0,1,.61.16c.66.3,1.14,1,.62,1.42A1.9,1.9,0,0,1,367.63,62.31Z"/><path class="cls-1" d="M379.5,72.08a1.54,1.54,0,0,1,.59.46.83.83,0,0,1,0,.82,1.4,1.4,0,0,1-1.82.38,1.08,1.08,0,0,1-.44-.3.82.82,0,0,1,0-.89A1.21,1.21,0,0,1,379.5,72.08Z"/><path class="cls-1" d="M397,59.65c.25.15.54.3.64.55a.85.85,0,0,1-.07.75,1.41,1.41,0,0,1-1.81.38,1.1,1.1,0,0,1-.44-.31.9.9,0,0,1,.1-1.1,1.1,1.1,0,0,1,1.49-.32Z"/><path class="cls-1" d="M421.77,39.36a1.51,1.51,0,0,1,1.86-.45,1,1,0,0,1,.58.83.77.77,0,0,1-.2.44,1.4,1.4,0,0,1-1.8.43,1,1,0,0,1-.52-.69A.84.84,0,0,1,421.77,39.36Z"/><path class="cls-1" d="M431,43.9a.77.77,0,0,1-.2.44,1.39,1.39,0,0,1-1.8.43.78.78,0,0,1-.28-1.3,1.33,1.33,0,0,1,1.73-.48A1.15,1.15,0,0,1,431,43.9Z"/><path class="cls-1" d="M445.49,23.41a1.71,1.71,0,0,1,1.79-.28.54.54,0,0,1,.26.67,4.32,4.32,0,0,1-.19.64,2.24,2.24,0,0,1-1.7,1.16c-.52.09-.87-.14-.91-.64a1.59,1.59,0,0,1,.39-1.19Z"/><path class="cls-1" d="M450,11a1.53,1.53,0,0,1,.65.54.88.88,0,0,1-.07.75,1.4,1.4,0,0,1-1.82.38,1.08,1.08,0,0,1-.44-.3.91.91,0,0,1,.11-1.1,1.09,1.09,0,0,1,1.49-.33Z"/><path class="cls-1" d="M450.21,5.34a1.09,1.09,0,0,1,.33-.31A1.6,1.6,0,0,1,451.69,5a.89.89,0,0,1,.44,1.46,1,1,0,0,1-.33.3,1.55,1.55,0,0,1-1.15.08A.89.89,0,0,1,450.21,5.34Z"/><path class="cls-1" d="M424.68,47.24a1,1,0,0,1-.23.62,1.32,1.32,0,0,1-1.66.39,1,1,0,0,1-.6-.78,1,1,0,0,1,.24-.57,1.39,1.39,0,0,1,1.75-.53A1,1,0,0,1,424.68,47.24Z"/></svg>