<svg id="Layer_1" data-name="Layer 1" xmlns="http://www.w3.org/2000/svg" xmlns:xlink="http://www.w3.org/1999/xlink" viewBox="0 0 375 97"><defs><style>.cls-1{fill:none;}.cls-2{clip-path:url(#clip-path);}.cls-3{fill:#fcebce;}</style><clipPath id="clip-path"><rect class="cls-1" width="375" height="97"/></clipPath></defs><g class="cls-2"><path class="cls-3" d="M456.37,1.83c.21.65,1.05.34.63.91-.79,1.06,1.05.43.33,1.4-.35.46-1.95-.95-2.33-1.4s-.45-.27-1-.41c-1.1-.28-1.71-.46-1.32,1.81.12.35-.46-.52-.88-.43a2.17,2.17,0,0,0-1.31.92c-.43.57-.34,1,.74,1.26a.91.91,0,0,0,.67-.08,2.35,2.35,0,0,0,.86-.79c0-.09.08-.19.12-.31a1.76,1.76,0,0,1,.75-1.09,2,2,0,0,1,2.74,1.11,4.85,4.85,0,0,1,.28,1,1.36,1.36,0,0,1,0,.75,2.62,2.62,0,0,1-1.44,1.27,28.07,28.07,0,0,1-4.11,1c-1.36.26-3-.86-4.35-1.2a1.13,1.13,0,0,0-.63,0c-1.69.49-1.87,2.67-3.6,3.05a3.45,3.45,0,0,0-2.13,1.34l-.69,1a5.56,5.56,0,0,0-.75,4.78l.57,1.75a4.34,4.34,0,0,1-.23,3.61,8.57,8.57,0,0,1-.95,1.29c-1.08,1.21-3.37,1.35-3.85-.1a5.18,5.18,0,0,1-.14-.53A6.51,6.51,0,0,1,435,19l.14-.22a2.18,2.18,0,0,0,.2-1.81,3,3,0,0,0-1.83-1.82c-1.78-.74-3.5-1.55-5.27-2.3-1.27-.54-3.71-.24-3.34.91.87,3.73,2.05,7.39,3.23,11.06.2.61-1.23.7-1.91.41a26.44,26.44,0,0,0-2.64-1c-.58-.26-1.2-.33-1.58-.78a2.42,2.42,0,0,0-1.24-.68c-.83-.22-1.26.24-1.31,1.25a1.55,1.55,0,0,1-1.24,1.41,1.64,1.64,0,0,1-1.93-.92l-.61-1.92c-.08-.24-.47-.42-.86-.59s-.79-.35-1,0l0,.05a2.68,2.68,0,0,0-.66,2,1.91,1.91,0,0,0,.88,1.67c1.45.83,3.69,1.44,2.49,2.52s-3.15.88-3.9,2.11a1.68,1.68,0,0,0,0,1.37,3.76,3.76,0,0,0,1.84,2c1.2.67,1.74,2.14.4,2.58a6.49,6.49,0,0,1-.7.18,5.72,5.72,0,0,1-3.63-.47c-.67-.34-1.39-.71-2.2-1.1-1.09-.52-2.05-1.22-2.19-2.26a4.42,4.42,0,0,0-.79-2.3c-.43-.54-1.14-1.16-1.89-1a.89.89,0,0,0-.4.28,1.61,1.61,0,0,0-.3,1.34,4.91,4.91,0,0,1-.68,3.4l-.57.81a5.77,5.77,0,0,1-3,2.46c-1.33.43-2.73.68-4.11,1a7.2,7.2,0,0,0-3.82,1.94,19.31,19.31,0,0,0-1.71,2.36,2.61,2.61,0,0,0-.41,1.17c-.14,1.67-2.21,2.52-4,1.79l-1-.4a4.23,4.23,0,0,0-4.88,1.14L377,48.47a1.79,1.79,0,0,1-1.39.92,1.59,1.59,0,0,1-.43-.06,1.39,1.39,0,0,1-1.1-1.2c0-.3-.07-.67-.13-1a1.31,1.31,0,0,0-.33-.69,1.56,1.56,0,0,0-2.29,0,2.47,2.47,0,0,0-.08,2c.39,1.23.7,2.2,1.1,3.42.11.35.22.7.3,1.05a2.77,2.77,0,0,1-.67,2.24c-1.36,1.82-4.37,2.61-4.79.49,0-.22-.08-.45-.13-.68A4.48,4.48,0,0,0,365,52.47a3.33,3.33,0,0,0-.61-.35c-2.82-1.47-5.88-2.62-9-4a6.07,6.07,0,0,0-1.28-.48,1.62,1.62,0,0,0-1.75,1.1,1.27,1.27,0,0,0,.13,1.07,2.25,2.25,0,0,1,.24.46,1.85,1.85,0,0,0,1.05,1.06,7.56,7.56,0,0,1,2.93,2,7.21,7.21,0,0,0,2.63,2.39,4.16,4.16,0,0,1,1.56,1.1A5.88,5.88,0,0,1,361.94,60c.06.87.39,2.29-.62,2.51l-4.87,1.09a2.5,2.5,0,0,1-3-1.42,3.15,3.15,0,0,1-.09-.52c-.08-.86-.56-1.23-1.56-1.48-.7-.11-1.17.52-1.88,1.46a1.77,1.77,0,0,1-2,.77c-.77-.34-1-1.09-1.29-1.78-.58-1.35-2.36-.78-3.36.38A4.44,4.44,0,0,1,341,62.31l-8.68,1.94c-1.35.3-3-.79-4.33-1.13a5,5,0,0,0-3.76.84,1.74,1.74,0,0,0-.7,1.11c0,.56-.26,1.6-.86,1.33-2-.87-3.84-1.5-5.49-2.44-.62-.27.24-1.1.91-1.25l1.7-.38a2.9,2.9,0,0,0,1.77-1.1c.56-.78.65-1.08.44-1.55a13.2,13.2,0,0,0-.64-1.31c-.41-.69-1-.83-2.12-.78a6.19,6.19,0,0,0-1.43.23,3.67,3.67,0,0,0-1.85,1.07,1.57,1.57,0,0,0-.24,1.57c.1.33.21.67.32,1,.24.74-.65,1-1.13,1.69-.31.41-.61.81-.94,1.23a3.19,3.19,0,0,1-3.69.69l-.8-.36a1.72,1.72,0,0,1-.92-2.57,1.28,1.28,0,0,0-.81-2,3.15,3.15,0,0,0-3.19,1.18A12.62,12.62,0,0,1,302,63.55c-.93.58-2.28.79-2.71,1.68a1.86,1.86,0,0,0-.17,1.12c.08.55.42,1,.4,1.52-.06,1.15-1.74,1.73-3.09,2l-6.1,1.36a1.37,1.37,0,0,1-1.7-.84.64.64,0,0,1,.05-.6,2.62,2.62,0,0,1,1.54-.89l1.75-.39c1.9-.43,4.07-1.44,3.88-3.07a7.67,7.67,0,0,0-.72-2.09c-.57-1.26-2.43-3.12-2.74-1.8a1.66,1.66,0,0,0,0,.33c-.07.8.47,1.46.08,2.34a4.16,4.16,0,0,1-.26.65,1.37,1.37,0,0,1-2.21.52,10.51,10.51,0,0,1-.88-1.57c-1.07-1.76-1.32-1.7-3.54-1.21l-2.36.53a4.47,4.47,0,0,0-2.65,1.64c-2,2.27-2.9,2.48-5.88,1.57-1.63-.42-3.22.39-2.79,1.76a1,1,0,0,1,.05.16c.47,1.47,0,2.09-1.79,2.76-1.49.59-3.3.21-3.92-.7-.48-.58-.48-1.27-.85-1.88a.93.93,0,0,0-.31-.4,3.36,3.36,0,0,0-2.3-.35l-3.65.81a3.19,3.19,0,0,0-1.78.92c-1,1.15-2.8,2-3.52.71a4.84,4.84,0,0,0-1.31-1.88,3.16,3.16,0,0,0-2.39-.1c-1,.24-2.24.63-2.41,1.52a.63.63,0,0,0,0,.19c-.23,2.52-2.53,3-5.22,1.82L238.62,70a2.09,2.09,0,0,1-1.18-1.23c-.14-.43-.27-.83-.4-1.25-.22-.67.55-1.3,1.12-1.8a7.91,7.91,0,0,1,1.41-1c.51-.29.36-.76.25-1.1a2.2,2.2,0,0,0-.68-1,1.46,1.46,0,0,0-2,.35,2.05,2.05,0,0,0-.28.45,1.5,1.5,0,0,0,0,.76,6,6,0,0,0,.47,1.48c.3.72-.56,1-1,1.66a13.45,13.45,0,0,1-6.53,3.81l-4,.89a3.31,3.31,0,0,1-1.56-.14c-.42-.16-.18-.41,0-.77a4,4,0,0,1,.44-.78,2.13,2.13,0,0,1,.88-.43c1.13-.37,2.55-.49,3.92-.8a4.4,4.4,0,0,0,.73-.22c1.16-.48.87-1.77.65-2.83-.08-.4-.15-.8-.26-1.19-.51-1.75-3.18-1.8-4.36-.29-.31.4-.59.82-.87,1.24A3.74,3.74,0,0,1,221,66.88h0a3.36,3.36,0,0,0-2-.12c-1.84.41-3.84-.48-4.33-2,0-.14-.09-.27-.13-.4s-.47-.42-.86-.6-.78-.34-1,0l0,0a2.77,2.77,0,0,0-.67,2,2,2,0,0,0,.84,1.63c1.44.9,4,1.75,2.53,2.55-.86.42-1.79.8-2.63,1.27-2.15,1.22-3,1.09-5.53,1.65a3.28,3.28,0,0,1-2.74-.17,2.37,2.37,0,0,1-1.26-2.86c.78-1.29,1.76-2.49,2.65-3.73.61-.84.38-2.48-.79-2.43a3,3,0,0,0-.31,0c-.3,0-.61.08-.9.13-2.83.49-4.13,3.49-7,3.76h-.07c-1.43,0-1.63-.89-1.73-1.72a2.85,2.85,0,0,1,.44-1.87,2.33,2.33,0,0,0-1.21-3.38l-.07,0c-1.34-.6-3.27-.26-3.39,1,0,1,.7,2.2,1.1,3.42s-2.15,1.55-3.41,1l-1.3-.58a3.82,3.82,0,0,1-1.88-1.88,1,1,0,0,0-.07-.15,2.78,2.78,0,0,0-1.35-1.11l-.64-.3c-1.4-.67-.68-2.6-.35-3.92,0-.11-2.36-1.66-2.5-.22.08-.8.21.26,0,.82-.31,1.11.47,1.46,1.57.7l.06-.05c.88-.68-1.2-2.38-1.68-1.47-.94,1.26-.65,1.76-.89,2.07-.34.47-.69.93-1,1.39a2.87,2.87,0,0,1-3.07.67,2.45,2.45,0,0,0-2.59.57l-.07.07c-.79.79-2.24,1.12-2.85.23a9,9,0,0,1-.91-2.77c1.11-3.86,1.25-5.53.25-6l-.25-.1c-2-.86,0-3.36-1.47-1.94a3.46,3.46,0,0,1-2.39,1,3,3,0,0,1-1.33-.29l-.1,0c-1.58-.7-4.08-.94-5.15.25a4,4,0,0,1-1.73,1c-1.07.31-2.24.57-3.06-.43-1.25-1.8.74-3-1.73-2.7a5.14,5.14,0,0,1-1.92,0c-.71-.19-2,1.33-2.19.74-.36-1.13-.13-.47.73-1.38.64-.66.75-1,1.33-1.62.83-.92-1.5-.79-2-1.86a2.1,2.1,0,0,0-.13-.26,2.6,2.6,0,0,0-1.2-1c-1.52-.79-3.81-.46-2.86-1.73l1.4-1.87c.23-.32.94-.21,1.25-.28a1.37,1.37,0,0,0,1.49,1.5,6.46,6.46,0,0,0,1.38,0,5.46,5.46,0,0,0,2.45-.5l.06,0c.71-.47.45-1.32-.37-1.67a3.34,3.34,0,0,0-1.86-.08c-1.07.19-2.18.59-3.15.81-.08-1.29-1.26-1.82-2.59-1.78-2.15.06-5.21.43-5.77-1.3v0c-.08-.24-.47-.42-.86-.59s-.78-.35-1,0a1.8,1.8,0,0,1-.19.21,2,2,0,0,0-.52,1.59,2,2,0,0,0,2.12,2.23c.91.09,2.45.59,2,1.23-.55,1-1.25.85-1.94,1.7s-2.29,1.43-3,.68a2.06,2.06,0,0,1-.23-.37,8.66,8.66,0,0,1-1-2.21,2.15,2.15,0,0,0-.39-.75c-.58-.73-1.75-.23-2.37.48-.86,1-2.51,1.34-3.3.32-.43-.55-.78-1.15-1.23-1.67-.88-1-1.88-2.71-1.14-3.83a1.56,1.56,0,0,0,.21-1.34c-.22-.66-.43-1.32-.64-2a4.71,4.71,0,0,0-2.35-2.6,4.71,4.71,0,0,1-2.35-2.6l-2.76-8.56c-.23-.74-.86-1.64-1.8-1.43A2.71,2.71,0,0,0,114.21,20a1.65,1.65,0,0,0-.06,1c0,.29.1.57.13.86.12,1.24-1.69,1.5-3,.83l-.69-.37a2.05,2.05,0,0,1-.93-2.83,1.17,1.17,0,0,0-.43-1.63c-1.14-.48-2.57.09-3.88.06s-1.89-1.15-2.22-2.16c-.15-.5-.32-1-.48-1.52-.32-1-.78-2-2-1.92-2,.15-3.88,1.72-5.63.94L94.38,13a3.48,3.48,0,0,1-1.55-1.19A15.23,15.23,0,0,1,91.2,7.15a4.05,4.05,0,0,1,.51-3.51c.58-.77.54-.92.29-1.81ZM152.88,48.58c1.43.64,1.9-1.1,1.48-2.4-.49-1.53-.54-1.2-1-2.73,0-.12-.23-.2-.45-.28A2,2,0,0,0,151.5,43c-.93.34-.85,1.53-.58,2.36.57,1.77.21.93.78,2.71C151.78,48.3,152.49,48.41,152.88,48.58ZM445.53,3.14c-1.76-.8-4.43-.21-3.76,1.38a2.27,2.27,0,0,0,.38.59c.88,1,2.7,1.09,4.13.73a2.58,2.58,0,0,0,.66-.24C448.09,5,446.73,3.69,445.53,3.14ZM247.17,67.32c-1.83.28-2.57-2-.82-2.55C248.31,64.19,249.22,67,247.17,67.32Zm20.46-3.22c0-.41-.54-.67-.94-.9a.86.86,0,0,0-.55-.17l-2.82.63c-.31.07-.47.63-.71.94-.37.5.45,1,1.13,1.19,1.27.28,3.17-.31,3.73-1.33A1,1,0,0,0,267.63,64.1ZM133.25,33.67A.66.66,0,0,0,133,32.6a1.21,1.21,0,0,0-1.55.37.76.76,0,0,0-.17.39.78.78,0,0,0,.45.67A1.2,1.2,0,0,0,133.25,33.67ZM298.16,58.84c-.36.44-.09,1,.47,1.28a1,1,0,0,0,.37.09,1.24,1.24,0,0,0,.91-.36c.42-.39.14-1-.43-1.24-.12,0-.25-.14-.37-.2C298.82,58.27,298.5,58.41,298.16,58.84Zm54.37-2.06a1.09,1.09,0,0,0-.38-.27,1.23,1.23,0,0,0-1.57.33.73.73,0,0,0,0,.78,1,1,0,0,0,.38.26,1.21,1.21,0,0,0,1.56-.33A.69.69,0,0,0,352.53,56.78ZM384.39,40a.89.89,0,0,0-.38-.26,1.21,1.21,0,0,0-1.56.33.69.69,0,0,0,0,.77,1,1,0,0,0,.38.26,1.2,1.2,0,0,0,1.56-.32A.71.71,0,0,0,384.39,40Zm24.7-12.43a1,1,0,0,0,.38.27,1.22,1.22,0,0,0,1.56-.33.73.73,0,0,0,0-.78,1,1,0,0,0-.38-.26,1.22,1.22,0,0,0-1.57.33A.69.69,0,0,0,409.09,27.55Zm25.57-18.5a.77.77,0,0,0-.18.39.8.8,0,0,0,.45.67,1.22,1.22,0,0,0,1.56-.36.79.79,0,0,0,.17-.39.82.82,0,0,0-.45-.68A1.21,1.21,0,0,0,434.66,9.05Z"/><path class="cls-3" d="M216.09,76.55c-.67-2.08-.76-4.88,1.81-5.15h.23c2-.18,2.66-.08,3.13,1.39.61,1.89-2.19,3.12-4.46,3.61Z"/><path class="cls-3" d="M256.8,85.23a2.74,2.74,0,0,1-3.74.23.87.87,0,0,1-.21-.87,7,7,0,0,1,1.5-2.8,2.8,2.8,0,0,1,3.8-.15.9.9,0,0,1,.2,1A8.59,8.59,0,0,1,256.8,85.23Z"/><path class="cls-3" d="M284.67,69.23c.3.25.56.75.34,1-.39.53-.8,1.08-1.22,1.63a3.28,3.28,0,0,1-3.76.79,3,3,0,0,0-1-.18c-.31,0-.61,0-.91.06-.68,0-1.1,0-1.23-.27s.17-1,.44-1.37.46-.32.77-.45a15.68,15.68,0,0,1,6.08-1.32C284.43,69.14,284.52,69.11,284.67,69.23Z"/><path class="cls-3" d="M97.25,32.34a1.9,1.9,0,0,1,1.37,0A3.52,3.52,0,0,1,100,33.43c1.22,1.69-2.12,2.41-4.21,1.48-1.17-.53-1.57-.7-1.41-1.26a1.92,1.92,0,0,1,1.69-1.25A6.09,6.09,0,0,0,97.25,32.34Z"/><path class="cls-3" d="M119.31,42.64c-1.12,1.34-4.28,1.81-4.13.18,0-.09,0-.17,0-.27a3.63,3.63,0,0,1,2.87-2.27,2.7,2.7,0,0,1,1.16-.05C120.38,40.48,120,41.85,119.31,42.64Z"/><path class="cls-3" d="M196.17,70.05c1.41,0,.39,1.75-1,2s-1-.32-2.43,0a1.16,1.16,0,0,1-.86-.21c-.63-.37-1.15-1.43-.4-1.6C193.63,69.55,193.74,69.81,196.17,70.05Z"/><path class="cls-3" d="M273.87,73.4a3.09,3.09,0,0,1,4,1.83,2.38,2.38,0,0,1,.06.37,1.44,1.44,0,0,1,0,.41c-.14.94-2,1-3,.61l-1.27-.56c-.9-.41-1.54-1.62-.77-2.19a5.54,5.54,0,0,1,.59-.32Z"/><path class="cls-3" d="M301.12,76.93c-2,.81-3-1.54-1.81-3.09a2.17,2.17,0,0,1,2.43-1,1.29,1.29,0,0,1,.71.76,2.49,2.49,0,0,1-1.08,3.22Z"/><path class="cls-3" d="M114.51,33.14c.47,1.47-.15,2.65-1.25,2.37s-1.47-.61-1.55-1.45a3.53,3.53,0,0,0-.1-.55,1.57,1.57,0,0,1,.11-1.37c.33-.49.73-.75,1.3-.5.39.18,1.1.28,1.17.52Z"/><path class="cls-3" d="M159.49,63a3.68,3.68,0,0,1-.61-1.24,1.58,1.58,0,0,1,.64-1.54c1.09-.77,2.35,0,2.82,1.46,0,.06,0,.12.06.2a1.6,1.6,0,0,1-.26,1.47,1.1,1.1,0,0,1-.49.41,1.79,1.79,0,0,1-1.44-.24A2.15,2.15,0,0,1,159.49,63Z"/><path class="cls-3" d="M170.56,78.12c1.59.06.5,1.82-1,2.18a8.66,8.66,0,0,1-1,.18,2.88,2.88,0,0,1-1.17,0l-.31-.1c-.83-.34-1.13-1.22-.41-1.7a3.72,3.72,0,0,1,1.22-.49A9.79,9.79,0,0,1,170.56,78.12Z"/><path class="cls-3" d="M181.23,93.57a.78.78,0,0,1,0-.6,2.42,2.42,0,0,1,3.28-1,1.74,1.74,0,0,1,.62.42c.23.32-.07.72-.31,1a2.42,2.42,0,0,1-3,.79A1,1,0,0,1,181.23,93.57Z"/><path class="cls-3" d="M180.74,68c1.88-.42,3.36,0,3,.91a2,2,0,0,1-1.9,1.27,5.59,5.59,0,0,0-.7.09,3.11,3.11,0,0,1-1.79-.06c-.58-.24-.87-.55-.54-1s.39-.87.7-.94Z"/><path class="cls-3" d="M191.8,82.55c.47,1.47-.15,2.65-1.25,2.37s-1.47-.61-1.56-1.45a2.54,2.54,0,0,0-.1-.55,1.6,1.6,0,0,1,.12-1.37c.33-.49.73-.75,1.3-.5.39.17,1.09.28,1.17.52Z"/><path class="cls-3" d="M216.09,76.55c.23.71.66,1.51.89,2.29a2,2,0,0,1-.21,1.76,1.43,1.43,0,0,1-2,.3,2.1,2.1,0,0,1-.68-1,4.65,4.65,0,0,1,0-2.1C214.21,77,215.07,76.52,216.09,76.55Z"/><path class="cls-3" d="M246.06,86.65a1.31,1.31,0,0,1,.59.69.64.64,0,0,1-.05.57c-.76,1.11-3.21,1.49-4.29.94a.7.7,0,0,1-.35-.44,1.19,1.19,0,0,1,.1-.9c.13-.24.26-.46.46-.51l2.82-.62A1.08,1.08,0,0,1,246.06,86.65Z"/><path class="cls-3" d="M328,66c1.61-.36,3.55.49,2.42,1.52a.08.08,0,0,1,0,0,5,5,0,0,1-3.75.84c-1.63-.41-.43-2,1.21-2.37Z"/><path class="cls-3" d="M107.08,35a1.12,1.12,0,0,1,.4.1c.57.26.86.85.43,1.25a1.24,1.24,0,0,1-.9.35,1.12,1.12,0,0,1-.4-.1c-.57-.26-.86-.85-.43-1.25A1.24,1.24,0,0,1,107.08,35Z"/><path class="cls-3" d="M86.94,35.12a1.48,1.48,0,0,1-.52.4,1.44,1.44,0,0,1-.85,0,.77.77,0,0,1-.38-1.26.73.73,0,0,1,.29-.26,1.45,1.45,0,0,1,1.19,0c.54.2.71.67.33,1.05Z"/><path class="cls-3" d="M101.22,35.6a1,1,0,0,1,.41.11c.57.25.86.85.43,1.25a1.28,1.28,0,0,1-.9.35,1.14,1.14,0,0,1-.4-.11c-.57-.25-.86-.85-.43-1.25A1.27,1.27,0,0,1,101.22,35.6Z"/><path class="cls-3" d="M98,42.54a1.35,1.35,0,0,1-.56-.13c-.53-.23-.77-.78-.39-1.16a1.27,1.27,0,0,1,.89-.4,1.33,1.33,0,0,1,.52.13c.58.26,1,.83.53,1.23A1.56,1.56,0,0,1,98,42.54Z"/><path class="cls-3" d="M87.83,28a1,1,0,0,1,.38.26.71.71,0,0,1,0,.78,1.22,1.22,0,0,1-1.56.33,1.09,1.09,0,0,1-.38-.27.69.69,0,0,1,0-.77A1.21,1.21,0,0,1,87.83,28Z"/><path class="cls-3" d="M341.59,71.48a.76.76,0,0,1,.17-.39,1.21,1.21,0,0,1,1.55-.37.79.79,0,0,1,.45.68.76.76,0,0,1-.17.39,1.2,1.2,0,0,1-1.55.36A.8.8,0,0,1,341.59,71.48Z"/><path class="cls-3" d="M207.79,85.71a.76.76,0,0,1-.17.39,1.21,1.21,0,0,1-1.55.37.83.83,0,0,1-.45-.68.76.76,0,0,1,.17-.39,1.21,1.21,0,0,1,1.55-.36A.76.76,0,0,1,207.79,85.71Z"/><path class="cls-3" d="M119.42,34.19a1.17,1.17,0,0,1-.41-.1c-.57-.26-.85-.85-.42-1.25a1.23,1.23,0,0,1,.84-.36,1.34,1.34,0,0,1,.52.14c.58.25.94.82.48,1.2A1.57,1.57,0,0,1,119.42,34.19Z"/><path class="cls-3" d="M368.34,70.78a1.42,1.42,0,0,1,.52-.42,1.33,1.33,0,0,1,.86,0,.76.76,0,0,1,.39,1.25,1.06,1.06,0,0,1-.29.27,1.44,1.44,0,0,1-1,.06C368.15,71.74,367.91,71.24,368.34,70.78Z"/><path class="cls-3" d="M141.18,76.56a.83.83,0,0,1-.47-1.47,1.29,1.29,0,0,1,.74-.22.92.92,0,0,1,.4.11c.57.25.86.84.43,1.24A1.27,1.27,0,0,1,141.18,76.56Z"/><path class="cls-3" d="M135.53,60.44a1,1,0,0,1-.38-.26.69.69,0,0,1,0-.77,1.19,1.19,0,0,1,1.56-.33,1,1,0,0,1,.38.26.69.69,0,0,1,0,.77A1.19,1.19,0,0,1,135.53,60.44Z"/><path class="cls-3" d="M147.68,57.57a.81.81,0,0,1-.29.26,1.33,1.33,0,0,1-1,.07.77.77,0,0,1-.38-1.26.91.91,0,0,1,.29-.26,1.33,1.33,0,0,1,1-.07A.77.77,0,0,1,147.68,57.57Z"/><path class="cls-3" d="M145.62,80.35a1.46,1.46,0,0,1-.41-.11c-.57-.26-.85-.85-.42-1.25a1.23,1.23,0,0,1,.89-.35,1,1,0,0,1,.41.11c.57.25.86.84.42,1.24A1.25,1.25,0,0,1,145.62,80.35Z"/><path class="cls-3" d="M133.38,48.57a1.24,1.24,0,0,1,1.57-.39.82.82,0,0,1,.45.68.73.73,0,0,1-.17.38,1.21,1.21,0,0,1-1.55.37.78.78,0,0,1-.45-.68A.64.64,0,0,1,133.38,48.57Z"/><path class="cls-3" d="M158,68.71a.79.79,0,0,1-.17.39,1.21,1.21,0,0,1-1.55.36.76.76,0,0,1-.45-.67.68.68,0,0,1,.17-.39,1.21,1.21,0,0,1,1.55-.37A.82.82,0,0,1,158,68.71Z"/><path class="cls-3" d="M162.7,66.74a1.21,1.21,0,0,1,.56.13c.53.23.77.77.39,1.16a1.27,1.27,0,0,1-.89.4,1.53,1.53,0,0,1-.52-.13c-.58-.26-1-.83-.53-1.23A1.54,1.54,0,0,1,162.7,66.74Z"/><path class="cls-3" d="M173.31,79.35a1.16,1.16,0,0,1,.93.32,4.29,4.29,0,0,1,.55.4.72.72,0,0,1,0,1,1.07,1.07,0,0,1-1.44.41,4.54,4.54,0,0,1-1-.52C171.71,80.38,172.43,79.54,173.31,79.35Z"/><path class="cls-3" d="M325.31,81.51a.73.73,0,0,1-.17.38,1.2,1.2,0,0,1-1.55.37.82.82,0,0,1-.45-.68.73.73,0,0,1,.17-.38,1.21,1.21,0,0,1,1.55-.37A.78.78,0,0,1,325.31,81.51Z"/><path class="cls-3" d="M336.56,74.88a1,1,0,0,1,.38.26.71.71,0,0,1,0,.78,1.2,1.2,0,0,1-1.56.32A1,1,0,0,1,335,76a.69.69,0,0,1,0-.77A1.21,1.21,0,0,1,336.56,74.88Z"/><path class="cls-3" d="M186.27,78.41a.87.87,0,0,1-.28.26,1.33,1.33,0,0,1-1,.07.77.77,0,0,1-.38-1.26.81.81,0,0,1,.29-.26,1.31,1.31,0,0,1,1-.07A.76.76,0,0,1,186.27,78.41Z"/><path class="cls-3" d="M198.91,71.28a1.21,1.21,0,0,1,.94.32,5.39,5.39,0,0,1,.54.4.71.71,0,0,1,0,1,1.07,1.07,0,0,1-1.44.41,4.67,4.67,0,0,1-.92-.49C197.33,72.35,198,71.47,198.91,71.28Z"/><path class="cls-3" d="M220.94,84.44a1.48,1.48,0,0,1-.52.4,1.44,1.44,0,0,1-.85,0,.77.77,0,0,1-.38-1.26.73.73,0,0,1,.29-.26,1.45,1.45,0,0,1,1.19,0c.54.2.71.67.33,1Z"/><path class="cls-3" d="M229.23,91.35a.76.76,0,0,1-.17.39,1.2,1.2,0,0,1-1.55.36.83.83,0,0,1-.45-.62.86.86,0,0,1,.21-.49,1.13,1.13,0,0,1,1.48-.42A1,1,0,0,1,229.23,91.35Z"/><path class="cls-3" d="M232.5,88.44A1.49,1.49,0,0,1,232,88a.72.72,0,0,1,0-.71,1.2,1.2,0,0,1,1.56-.32,1,1,0,0,1,.38.26.68.68,0,0,1,0,.76A1,1,0,0,1,232.5,88.44Z"/><path class="cls-3" d="M238.05,74.73a1.37,1.37,0,0,1,.52-.4,1.41,1.41,0,0,1,.84,0,.77.77,0,0,1,.39,1.26,1,1,0,0,1-.29.26,1.45,1.45,0,0,1-1.19,0c-.54-.2-.71-.68-.33-1Z"/><path class="cls-3" d="M263.11,95.81a.77.77,0,0,1-.28.26,1.33,1.33,0,0,1-1,.07.77.77,0,0,1-.38-1.26.92.92,0,0,1,.29-.26,1.36,1.36,0,0,1,1-.07A.76.76,0,0,1,263.11,95.81Z"/><path class="cls-3" d="M275.61,85.65a1.24,1.24,0,0,1,1.57-.39.79.79,0,0,1,.45.68.73.73,0,0,1-.17.38,1.21,1.21,0,0,1-1.55.37.79.79,0,0,1-.45-.68A.64.64,0,0,1,275.61,85.65Z"/><path class="cls-3" d="M281.16,79.26a1.34,1.34,0,0,1,.56.12c.53.24.77.78.39,1.17a1.26,1.26,0,0,1-.88.4,1.34,1.34,0,0,1-.53-.14c-.57-.25-1-.83-.53-1.22A1.58,1.58,0,0,1,281.16,79.26Z"/><path class="cls-3" d="M291.89,84.19a1.13,1.13,0,0,1,.41.11c.57.25.85.85.42,1.25a1.25,1.25,0,0,1-.89.35,1,1,0,0,1-.41-.11c-.57-.25-.85-.85-.42-1.25A1.25,1.25,0,0,1,291.89,84.19Z"/><path class="cls-3" d="M305.68,88.44a1.38,1.38,0,0,1,.41.11c.57.26.86.85.43,1.25a1.24,1.24,0,0,1-.9.35,1.17,1.17,0,0,1-.41-.1c-.57-.26-.85-.85-.42-1.25A1.28,1.28,0,0,1,305.68,88.44Z"/><path class="cls-3" d="M309.52,79.4a1,1,0,0,1-.28.26,1.38,1.38,0,0,1-1,.07.77.77,0,0,1-.38-1.26.73.73,0,0,1,.29-.26,1.31,1.31,0,0,1,1-.07A.76.76,0,0,1,309.52,79.4Z"/><path class="cls-3" d="M311.36,72.61a1.08,1.08,0,0,1-.3,1.43l-.06,0a5,5,0,0,1-.55.47,1.36,1.36,0,0,1-1.21,0c-.63-.27-.84-.63-.47-1.12a2,2,0,0,1,1.42-1C310.6,72.35,311.12,72.33,311.36,72.61Z"/><path class="cls-3" d="M317.07,92a.77.77,0,0,1-.43-1.28,1.29,1.29,0,0,1,1-.42,1.46,1.46,0,0,1,.41.11c.57.25.85.85.42,1.25a1.28,1.28,0,0,1-.73.35A2.22,2.22,0,0,1,317.07,92Z"/><path class="cls-3" d="M311.64,70.41a1.51,1.51,0,0,1,1.61-.31c.19.09.19.27.14.45a2.11,2.11,0,0,1-.78,1.23c-.95.66-1.66.49-1.64-.28a1.09,1.09,0,0,1,.3-.78Z"/><path class="cls-3" d="M353.58,68.66c.06.2-.08.44-.43.73a5,5,0,0,1-.56.47,1.36,1.36,0,0,1-1.21,0c-.63-.27-.83-.63-.47-1.12a3.09,3.09,0,0,1,.81-.84A1.34,1.34,0,0,1,353.58,68.66Z"/><path class="cls-3" d="M355.75,66a1.06,1.06,0,0,1-.9,1.3l-.07,0c-.8.17-1.69-.29-1.56-1a1.36,1.36,0,0,1,.84-1A1.22,1.22,0,0,1,355.75,66Z"/><path class="cls-3" d="M357.33,66.78a1.21,1.21,0,0,1,.94.32,5.39,5.39,0,0,1,.54.4.71.71,0,0,1,0,1,1.08,1.08,0,0,1-1.45.41,4.71,4.71,0,0,1-.95-.52C355.74,67.81,356.46,67,357.33,66.78Z"/><path class="cls-3" d="M361.91,81.93a1.23,1.23,0,0,1,.55.47.76.76,0,0,1-.06.65,1.22,1.22,0,0,1-1.56.33,1,1,0,0,1-.38-.27.77.77,0,0,1,.09-.94.94.94,0,0,1,1.28-.28Z"/><path class="cls-3" d="M310.37,5.83c.21.65,1.05.34.63.91-.79,1.06,1.05.43.33,1.4-.35.46-1.95-1-2.33-1.4-.27-.3-.45-.27-1-.41-1.1-.28-1.71-.46-1.32,1.81.12.35-.46-.52-.88-.43a2.17,2.17,0,0,0-1.31.92c-.43.57-.34,1,.74,1.26a.91.91,0,0,0,.67-.08,2.35,2.35,0,0,0,.86-.79c0-.09.08-.19.12-.31a1.76,1.76,0,0,1,.75-1.09,2,2,0,0,1,2.74,1.11,4.85,4.85,0,0,1,.28,1,1.36,1.36,0,0,1,0,.75,2.62,2.62,0,0,1-1.44,1.27,28.07,28.07,0,0,1-4.11,1c-1.36.26-3-.86-4.35-1.2a1.13,1.13,0,0,0-.63,0c-1.69.49-1.87,2.67-3.6,3a3.45,3.45,0,0,0-2.13,1.34l-.69,1a5.56,5.56,0,0,0-.75,4.78l.57,1.75a4.34,4.34,0,0,1-.23,3.61,8.57,8.57,0,0,1-.95,1.29c-1.08,1.21-3.37,1.35-3.85-.1a5.18,5.18,0,0,1-.14-.53A6.51,6.51,0,0,1,289,23l.14-.22a2.18,2.18,0,0,0,.2-1.81,3,3,0,0,0-1.83-1.82c-1.78-.74-3.5-1.55-5.27-2.3-1.27-.54-3.71-.24-3.34.91.87,3.73,2.05,7.39,3.23,11.06.2.61-1.23.7-1.91.41a26.44,26.44,0,0,0-2.64-1c-.58-.26-1.2-.33-1.58-.78a2.42,2.42,0,0,0-1.24-.68c-.83-.22-1.26.24-1.31,1.25a1.55,1.55,0,0,1-1.24,1.41,1.64,1.64,0,0,1-1.93-.92l-.61-1.92c-.08-.24-.47-.42-.86-.59s-.79-.35-1,0l0,.05a2.68,2.68,0,0,0-.66,2,1.91,1.91,0,0,0,.88,1.67c1.45.83,3.69,1.44,2.49,2.52s-3.15.88-3.9,2.11a1.68,1.68,0,0,0,0,1.37,3.76,3.76,0,0,0,1.84,2c1.2.67,1.74,2.14.4,2.58a6.49,6.49,0,0,1-.7.18,5.72,5.72,0,0,1-3.63-.47c-.67-.34-1.39-.71-2.2-1.1-1.09-.52-2.05-1.22-2.19-2.26a4.42,4.42,0,0,0-.79-2.3c-.43-.54-1.14-1.16-1.89-1a.89.89,0,0,0-.4.28,1.61,1.61,0,0,0-.3,1.34,4.91,4.91,0,0,1-.68,3.4l-.57.81a5.77,5.77,0,0,1-3,2.46c-1.33.43-2.73.68-4.11,1a7.2,7.2,0,0,0-3.82,1.94,19.31,19.31,0,0,0-1.71,2.36,2.61,2.61,0,0,0-.41,1.17c-.14,1.67-2.21,2.52-4,1.79l-1-.4a4.23,4.23,0,0,0-4.88,1.14L231,52.47a1.79,1.79,0,0,1-1.39.92,1.59,1.59,0,0,1-.43-.06,1.39,1.39,0,0,1-1.1-1.2c0-.3-.07-.67-.13-1a1.31,1.31,0,0,0-.33-.69,1.56,1.56,0,0,0-2.29,0,2.47,2.47,0,0,0-.08,2c.39,1.23.7,2.2,1.1,3.42.11.35.22.7.3,1.05a2.73,2.73,0,0,1-.67,2.24c-1.36,1.82-4.37,2.61-4.79.49,0-.22-.08-.45-.13-.68A4.48,4.48,0,0,0,219,56.47a3.33,3.33,0,0,0-.61-.35c-2.82-1.47-5.88-2.62-9-4a6.07,6.07,0,0,0-1.28-.48,1.62,1.62,0,0,0-1.75,1.1,1.31,1.31,0,0,0,.13,1.07,2.88,2.88,0,0,1,.24.46,1.88,1.88,0,0,0,1.05,1.06,7.56,7.56,0,0,1,2.93,2,7.21,7.21,0,0,0,2.63,2.39,4.08,4.08,0,0,1,1.56,1.1A5.88,5.88,0,0,1,215.94,64c.06.87.39,2.29-.62,2.51l-4.87,1.09a2.5,2.5,0,0,1-3-1.42,2.36,2.36,0,0,1-.09-.52c-.08-.86-.56-1.23-1.56-1.48-.7-.11-1.17.52-1.88,1.46a1.77,1.77,0,0,1-2,.77c-.77-.34-1-1.09-1.3-1.78-.57-1.35-2.35-.78-3.35.38A4.44,4.44,0,0,1,195,66.31l-8.68,1.94c-1.35.3-3-.79-4.33-1.13a5,5,0,0,0-3.76.84,1.74,1.74,0,0,0-.7,1.11c0,.56-.26,1.6-.86,1.33-2-.87-3.84-1.5-5.49-2.44-.62-.27.24-1.1.91-1.25l1.7-.38a2.9,2.9,0,0,0,1.77-1.1c.55-.78.65-1.08.44-1.55a13.2,13.2,0,0,0-.64-1.31c-.41-.69-1-.83-2.12-.78a6.36,6.36,0,0,0-1.44.23,3.76,3.76,0,0,0-1.85,1.07,1.59,1.59,0,0,0-.23,1.57c.1.33.21.67.32,1,.24.74-.65,1-1.13,1.69-.31.41-.61.81-.94,1.23a3.19,3.19,0,0,1-3.69.69l-.8-.36a1.72,1.72,0,0,1-.92-2.57,1.28,1.28,0,0,0-.81-2.05,3.15,3.15,0,0,0-3.19,1.18A12.89,12.89,0,0,1,156,67.55c-.93.58-2.28.79-2.71,1.68a1.86,1.86,0,0,0-.17,1.12c.08.55.42,1,.4,1.52-.06,1.15-1.74,1.73-3.09,2l-6.1,1.36a1.37,1.37,0,0,1-1.7-.84.64.64,0,0,1,0-.6,2.62,2.62,0,0,1,1.54-.89l1.75-.39c1.9-.43,4.07-1.44,3.88-3.07a7.67,7.67,0,0,0-.72-2.09c-.57-1.26-2.43-3.12-2.74-1.8a1.66,1.66,0,0,0,0,.33c-.07.8.47,1.46.08,2.34a3.36,3.36,0,0,1-.26.65,1.37,1.37,0,0,1-2.21.52,10.51,10.51,0,0,1-.88-1.57c-1.07-1.76-1.32-1.7-3.54-1.21l-2.36.53a4.47,4.47,0,0,0-2.65,1.64c-2,2.27-2.9,2.48-5.88,1.57-1.63-.42-3.22.39-2.79,1.76a1,1,0,0,1,0,.16c.47,1.47,0,2.09-1.79,2.76-1.49.59-3.29.21-3.92-.7-.48-.58-.48-1.27-.84-1.88a1,1,0,0,0-.32-.4,3.36,3.36,0,0,0-2.3-.35l-3.65.81a3.19,3.19,0,0,0-1.78.92c-1,1.15-2.8,2-3.52.71a4.84,4.84,0,0,0-1.31-1.88,3.16,3.16,0,0,0-2.39-.1c-1.05.24-2.24.63-2.41,1.52a1.25,1.25,0,0,0,0,.19c-.23,2.52-2.54,3-5.22,1.82L92.62,74a2.09,2.09,0,0,1-1.18-1.23c-.13-.43-.27-.83-.4-1.25-.21-.67.55-1.3,1.12-1.8a7.91,7.91,0,0,1,1.41-1c.51-.29.36-.76.25-1.1a2.2,2.2,0,0,0-.68-1,1.46,1.46,0,0,0-2,.35,2.05,2.05,0,0,0-.28.45,1.5,1.5,0,0,0,0,.76,6,6,0,0,0,.47,1.48c.3.72-.56,1-1,1.66a13.45,13.45,0,0,1-6.53,3.81l-4,.89a3.25,3.25,0,0,1-1.55-.14c-.43-.16-.19-.41,0-.77a4,4,0,0,1,.44-.78,2.13,2.13,0,0,1,.88-.43c1.13-.37,2.55-.49,3.92-.8a4.4,4.4,0,0,0,.73-.22c1.16-.48.87-1.77.65-2.83-.08-.4-.15-.8-.26-1.19-.51-1.75-3.18-1.8-4.36-.29-.31.4-.59.82-.87,1.24A3.75,3.75,0,0,1,75,70.88h0a3.36,3.36,0,0,0-2-.12c-1.84.41-3.84-.48-4.33-2,0-.14-.09-.27-.13-.4s-.47-.42-.86-.6-.78-.34-1,0l0,0a2.77,2.77,0,0,0-.67,2,2,2,0,0,0,.84,1.63c1.44.9,4,1.75,2.53,2.55-.86.42-1.79.8-2.63,1.27-2.14,1.22-3,1.09-5.53,1.65a3.28,3.28,0,0,1-2.74-.17,2.37,2.37,0,0,1-1.26-2.86c.78-1.29,1.76-2.49,2.65-3.73.61-.84.38-2.48-.79-2.43-.11,0-.2,0-.31,0-.3,0-.61.08-.9.13-2.83.49-4.13,3.49-7,3.76h-.07c-1.43,0-1.63-.89-1.73-1.72A2.85,2.85,0,0,1,49.43,68a2.33,2.33,0,0,0-1.21-3.38l-.07,0c-1.34-.6-3.27-.26-3.39,1,0,1,.7,2.2,1.1,3.42s-2.15,1.55-3.41,1l-1.3-.58a3.82,3.82,0,0,1-1.88-1.88,1,1,0,0,0-.07-.15,2.78,2.78,0,0,0-1.35-1.11l-.64-.3c-1.4-.67-.68-2.6-.35-3.92,0-.11-2.36-1.66-2.5-.22.08-.8.21.26,0,.82-.31,1.11.47,1.46,1.57.7L36,63.3c.88-.68-1.2-2.38-1.68-1.47-.94,1.26-.65,1.76-.89,2.07-.34.47-.69.93-1,1.39a2.87,2.87,0,0,1-3.07.67,2.45,2.45,0,0,0-2.59.57l-.07.07c-.78.79-2.24,1.12-2.85.23a9,9,0,0,1-.91-2.77c1.12-3.86,1.25-5.53.25-6l-.25-.1c-2-.86,0-3.36-1.47-1.94a3.49,3.49,0,0,1-2.39,1,3,3,0,0,1-1.33-.29l-.1,0c-1.58-.7-4.08-.94-5.15.25a4,4,0,0,1-1.73,1c-1.07.31-2.24.57-3.06-.43-1.25-1.8.74-3-1.74-2.7a5.1,5.1,0,0,1-1.91,0c-.71-.19-2,1.33-2.19.74-.36-1.13-.13-.47.74-1.38.63-.66.74-1,1.32-1.62.83-.92-1.5-.79-2-1.86a2.1,2.1,0,0,0-.13-.26,2.62,2.62,0,0,0-1.19-1c-1.53-.79-3.82-.46-2.87-1.73l1.4-1.87c.23-.32.94-.21,1.25-.28a1.37,1.37,0,0,0,1.49,1.5,6.36,6.36,0,0,0,1.37,0,5.47,5.47,0,0,0,2.46-.5l.06,0c.71-.47.45-1.32-.37-1.67a3.34,3.34,0,0,0-1.86-.08c-1.07.19-2.18.59-3.15.81C.31,44.29-.87,43.76-2.2,43.8c-2.15.06-5.21.43-5.77-1.3v0c-.08-.24-.47-.42-.86-.59s-.78-.35-1,0a1.8,1.8,0,0,1-.19.21,2,2,0,0,0-.52,1.59,2,2,0,0,0,2.12,2.23c.91.09,2.45.59,2,1.23-.54,1-1.25.85-1.94,1.7s-2.29,1.43-3,.68a2.06,2.06,0,0,1-.23-.37,8.66,8.66,0,0,1-1-2.21,2.31,2.31,0,0,0-.38-.75c-.59-.73-1.76-.23-2.38.48-.86,1-2.5,1.34-3.3.32-.43-.55-.78-1.15-1.23-1.67-.88-1-1.88-2.71-1.14-3.83a1.53,1.53,0,0,0,.2-1.34l-.63-2a4.71,4.71,0,0,0-2.35-2.6,4.71,4.71,0,0,1-2.35-2.6l-2.76-8.56c-.23-.74-.86-1.64-1.8-1.43A2.71,2.71,0,0,0-31.79,24a1.65,1.65,0,0,0-.06,1c0,.29.1.57.13.86.12,1.24-1.69,1.5-3,.83l-.69-.37a2.05,2.05,0,0,1-.93-2.83,1.17,1.17,0,0,0-.43-1.63c-1.14-.48-2.57.09-3.88.06s-1.89-1.15-2.22-2.16c-.15-.5-.32-1-.48-1.52-.32-1-.78-2-2-1.92-2,.15-3.88,1.72-5.63.94l-.68-.31a3.48,3.48,0,0,1-1.55-1.19,15.23,15.23,0,0,1-1.63-4.63,4.05,4.05,0,0,1,.51-3.51c.58-.77.54-.92.29-1.81ZM6.88,52.58c1.43.64,1.9-1.1,1.48-2.4-.49-1.53-.54-1.2-1-2.73,0-.12-.22-.2-.45-.28A2,2,0,0,0,5.5,47c-.93.34-.85,1.53-.58,2.36.57,1.77.21.93.78,2.71C5.78,52.3,6.49,52.41,6.88,52.58ZM299.53,7.14c-1.76-.8-4.43-.21-3.76,1.38a2.27,2.27,0,0,0,.38.59c.88,1,2.7,1.09,4.13.73a2.58,2.58,0,0,0,.66-.24C302.09,9,300.73,7.69,299.53,7.14ZM101.17,71.32c-1.83.28-2.57-2-.82-2.55C102.31,68.19,103.22,71,101.17,71.32Zm20.46-3.22c0-.41-.54-.67-.94-.9a.87.87,0,0,0-.55-.17l-2.82.63c-.31.07-.47.63-.71.94-.36.5.45,1,1.13,1.19,1.27.28,3.17-.31,3.73-1.33A1,1,0,0,0,121.63,68.1ZM-12.75,37.67a.79.79,0,0,0,.17-.39A.82.82,0,0,0-13,36.6a1.21,1.21,0,0,0-1.55.37.76.76,0,0,0-.17.39.78.78,0,0,0,.45.67A1.2,1.2,0,0,0-12.75,37.67ZM152.16,62.84c-.36.44-.09,1,.47,1.28a1,1,0,0,0,.37.09,1.24,1.24,0,0,0,.91-.36c.42-.39.14-1-.43-1.24-.12,0-.25-.14-.37-.2C152.82,62.27,152.5,62.41,152.16,62.84Zm54.37-2.06a1.09,1.09,0,0,0-.38-.27,1.23,1.23,0,0,0-1.57.33.73.73,0,0,0,0,.78,1,1,0,0,0,.38.26,1.21,1.21,0,0,0,1.56-.33A.69.69,0,0,0,206.53,60.78ZM238.39,44a.89.89,0,0,0-.38-.26,1.21,1.21,0,0,0-1.56.33.69.69,0,0,0,0,.77,1,1,0,0,0,.38.26,1.2,1.2,0,0,0,1.56-.32A.71.71,0,0,0,238.39,44Zm24.7-12.43a1,1,0,0,0,.38.27,1.22,1.22,0,0,0,1.56-.33.73.73,0,0,0,0-.78,1,1,0,0,0-.38-.26,1.22,1.22,0,0,0-1.57.33A.69.69,0,0,0,263.09,31.55Zm25.57-18.5a.77.77,0,0,0-.18.39.8.8,0,0,0,.45.67,1.22,1.22,0,0,0,1.56-.36.79.79,0,0,0,.17-.39.83.83,0,0,0-.45-.68A1.21,1.21,0,0,0,288.66,13.05Z"/><path class="cls-3" d="M278.44,41.41a2.55,2.55,0,0,1-3.37-1.08,7.66,7.66,0,0,1-.75-1.93,4.52,4.52,0,0,1,.75-3.71c.14-.21.27-.42.39-.62a1.77,1.77,0,0,0,.14-1.49l-.4-1.24a1.2,1.2,0,0,1,1-1.48,1.5,1.5,0,0,1,1.79.86c.3.93.59,1.82.88,2.75a3.84,3.84,0,0,1-.47,3.23,3.83,3.83,0,0,0-.47,3.23C278.11,40.39,278.27,40.87,278.44,41.41Z"/><path class="cls-3" d="M316.88,15.82l-1.25-3.88a2.77,2.77,0,0,1,.92-3.07,2.26,2.26,0,0,1,2.36-.56,1.37,1.37,0,0,1,.86,2.06c-.43.73-.25,1.88.71,2a1.36,1.36,0,0,1-.22,2.72H320A13.11,13.11,0,0,0,316.88,15.82Z"/><path class="cls-3" d="M70.09,80.55c-.67-2.08-.76-4.88,1.81-5.15h.22c2-.18,2.67-.08,3.14,1.39.61,1.89-2.19,3.12-4.46,3.61Z"/><path class="cls-3" d="M110.8,86.23a2.74,2.74,0,0,1-3.74.23.87.87,0,0,1-.21-.87,7,7,0,0,1,1.5-2.8,2.8,2.8,0,0,1,3.8-.15.9.9,0,0,1,.2,1A8.59,8.59,0,0,1,110.8,86.23Z"/><path class="cls-3" d="M138.68,73.23c.29.25.55.75.33,1-.39.53-.8,1.08-1.22,1.63a3.28,3.28,0,0,1-3.76.79,3,3,0,0,0-1-.18c-.31,0-.61,0-.91.06-.68,0-1.1,0-1.23-.27s.17-1,.44-1.37.46-.32.77-.45a15.68,15.68,0,0,1,6.08-1.32C138.43,73.14,138.52,73.11,138.68,73.23Z"/><path class="cls-3" d="M234.36,58.78a2.21,2.21,0,0,1,0-1.85,8.34,8.34,0,0,1,1-1.5c1-1.25,3.48-2,3.85-.52a2.25,2.25,0,0,1-.5,2,15.91,15.91,0,0,0-1.3,2.07c-1.1,1.81-1.41,1.88-2.43.8A2.53,2.53,0,0,1,234.36,58.78Z"/><path class="cls-3" d="M238.36,62.13a2.18,2.18,0,0,1,1.9-2.52l.87-.19a2.75,2.75,0,0,1,1.48,0,2.38,2.38,0,0,1,1.69,2.16c.16,1.53,0,2.09-1.87,2.51a3.59,3.59,0,0,1-2.2,0A2.64,2.64,0,0,1,238.36,62.13Z"/><path class="cls-3" d="M50.17,74.05c1.41,0,.39,1.75-1,2s-1-.32-2.43,0a1.16,1.16,0,0,1-.86-.21c-.63-.37-1.15-1.43-.4-1.6C47.63,73.55,47.74,73.81,50.17,74.05Z"/><path class="cls-3" d="M127.87,77.4a3.09,3.09,0,0,1,4,1.83,2.38,2.38,0,0,1,.06.37,1.44,1.44,0,0,1,0,.41c-.14.94-2,1-3,.61l-1.27-.56c-.9-.41-1.53-1.62-.77-2.19a5.54,5.54,0,0,1,.59-.32Z"/><path class="cls-3" d="M155.12,80.93c-2,.81-3-1.54-1.81-3.09a2.17,2.17,0,0,1,2.43-1,1.34,1.34,0,0,1,.72.76,2.5,2.5,0,0,1-1.09,3.22Z"/><path class="cls-3" d="M253.72,44.3c2.16-.44,2.13,2,0,2.66a8.88,8.88,0,0,1-1.85.36c-1.82.12-2.46-1.81-.73-2.32.68-.2,1.43-.34,2.15-.58A2.52,2.52,0,0,1,253.72,44.3Z"/><path class="cls-3" d="M270.84,56.27c1.78.88,2.3,3.71.24,3.51H271a3.4,3.4,0,0,1-2.81-2.32,1.1,1.1,0,0,1,.26-1.13A2.2,2.2,0,0,1,270.84,56.27Z"/><path class="cls-3" d="M296.43,36.67a2.75,2.75,0,0,1,3.1,1.37c.77,1.64-2.09,2.26-3.93,1.39a6.44,6.44,0,0,0-.66-.25c-.85-.27-1.2-.66-1.06-1.15a2,2,0,0,1,1.95-1.28A3.09,3.09,0,0,0,296.43,36.67Z"/><path class="cls-3" d="M302.6,14c.62-.11.95.3,1.41.67l.1.06,1.73.77c1,.43,1.52,1.6.76,2.26a1.26,1.26,0,0,1-.32.18,8.32,8.32,0,0,1-1.7.45A2.47,2.47,0,0,1,301.8,17c-.14-.45-.29-.91-.44-1.38C301.14,14.92,301.78,14.16,302.6,14Z"/><path class="cls-3" d="M310.77,16.18a2.06,2.06,0,0,1,2.87-.76,3.62,3.62,0,0,0,3.24.4,1.82,1.82,0,0,1-.27,1.9,4.28,4.28,0,0,1-3.81,1.1,2.68,2.68,0,0,1-2.09-2.13A.88.88,0,0,1,310.77,16.18Z"/><path class="cls-3" d="M289.92,44c-.46.15.06.18-.37,0a3.51,3.51,0,0,1-1.42-1.07c-1.22-1.69,1.12-2.4,3.21-1.47,1.18.52,1.57.69,1.42,1.25a1.91,1.91,0,0,1-1.7,1.25A7.2,7.2,0,0,0,289.92,44Z"/><path class="cls-3" d="M13.49,67a3.68,3.68,0,0,1-.61-1.24,1.58,1.58,0,0,1,.64-1.54c1.09-.77,2.35,0,2.82,1.46,0,.06,0,.12.06.2a1.6,1.6,0,0,1-.26,1.47,1.1,1.1,0,0,1-.49.41,1.79,1.79,0,0,1-1.44-.24A2.15,2.15,0,0,1,13.49,67Z"/><path class="cls-3" d="M24.56,82.12c1.59.06.5,1.82-1,2.18a8.66,8.66,0,0,1-1,.18,2.88,2.88,0,0,1-1.17,0l-.31-.1c-.83-.34-1.13-1.22-.42-1.7a3.86,3.86,0,0,1,1.23-.49A9.79,9.79,0,0,1,24.56,82.12Z"/><path class="cls-3" d="M10.23,83.57a.78.78,0,0,1,0-.6,2.42,2.42,0,0,1,3.28-1,1.66,1.66,0,0,1,.62.42c.23.32-.07.72-.31,1a2.42,2.42,0,0,1-3,.79A1,1,0,0,1,10.23,83.57Z"/><path class="cls-3" d="M34.74,72c1.88-.42,3.36,0,3,.91a2,2,0,0,1-1.9,1.27,5.59,5.59,0,0,0-.7.09,3.11,3.11,0,0,1-1.79-.06c-.58-.24-.87-.55-.54-1s.39-.87.7-.94Z"/><path class="cls-3" d="M45.8,86.55c.47,1.47-.16,2.65-1.25,2.37s-1.47-.61-1.56-1.45a2.54,2.54,0,0,0-.1-.55A1.6,1.6,0,0,1,43,85.55c.33-.49.73-.75,1.3-.5.39.17,1.09.28,1.17.52Z"/><path class="cls-3" d="M70.09,80.55c.23.71.66,1.51.89,2.29a2,2,0,0,1-.21,1.76,1.43,1.43,0,0,1-2,.3,2.1,2.1,0,0,1-.68-1,4.65,4.65,0,0,1,0-2.1C68.21,81,69.08,80.52,70.09,80.55Z"/><path class="cls-3" d="M104.06,89.65a1.31,1.31,0,0,1,.59.69.64.64,0,0,1-.05.57c-.76,1.11-3.21,1.49-4.29.94a.7.7,0,0,1-.35-.44,1.19,1.19,0,0,1,.1-.9c.13-.24.26-.46.46-.51l2.82-.62A1.08,1.08,0,0,1,104.06,89.65Z"/><path class="cls-3" d="M182,70c1.62-.36,3.55.49,2.42,1.52a.08.08,0,0,1,0,0,5,5,0,0,1-3.75.84c-1.63-.41-.43-2,1.21-2.37Z"/><path class="cls-3" d="M258.54,58.05c.64,1.45,3.58.79,3.27-.73C261.45,55.6,257.81,56.41,258.54,58.05Z"/><path class="cls-3" d="M278.44,41.41c1-.22,2.08-.62,3.15-.81a3.34,3.34,0,0,1,1.86.08c.82.34,1.08,1.19.37,1.67a3.56,3.56,0,0,1-1.23.49,9.79,9.79,0,0,1-2.66.07A1.37,1.37,0,0,1,278.44,41.41Z"/><path class="cls-3" d="M297.77,20.08c2.23-.5,4.58,1.54,2.31,1.91a11.18,11.18,0,0,1-1.67.11,1.69,1.69,0,0,1-.64-.05,2.91,2.91,0,0,1-.46-.24c-.25-.16-.44-.38-.37-.63a2,2,0,0,1,.31-.74A1,1,0,0,1,297.77,20.08Z"/><path class="cls-3" d="M310.71,31.92c0-1.41,2.43-.35,2.83,1a3.93,3.93,0,0,1,.1.44,1.56,1.56,0,0,1,0,1,1.92,1.92,0,0,1-.23.35,1.47,1.47,0,0,1-2,.35,2.2,2.2,0,0,1-.68-1A4.91,4.91,0,0,1,310.71,31.92Z"/><path class="cls-3" d="M295,52.19a6.36,6.36,0,0,1-1-.36c-.16-.22.35-.64.5-.94a1.2,1.2,0,0,1,1.56-.32,1,1,0,0,1,.38.26.69.69,0,0,1,0,.77A1.11,1.11,0,0,1,295,52.19Z"/><path class="cls-3" d="M195.59,75.48a.76.76,0,0,1,.17-.39,1.21,1.21,0,0,1,1.55-.37.79.79,0,0,1,.45.68.68.68,0,0,1-.17.39,1.2,1.2,0,0,1-1.55.36A.8.8,0,0,1,195.59,75.48Z"/><path class="cls-3" d="M61.79,89.71a.76.76,0,0,1-.17.39,1.21,1.21,0,0,1-1.55.37.83.83,0,0,1-.45-.68.76.76,0,0,1,.17-.39A1.21,1.21,0,0,1,61.34,89,.76.76,0,0,1,61.79,89.71Z"/><path class="cls-3" d="M304.07,50.17a1,1,0,0,1-.41-.11c-.57-.25-.86-.84-.43-1.24a1.27,1.27,0,0,1,.84-.36,1.44,1.44,0,0,1,.53.14c.57.25.93.81.48,1.2A1.57,1.57,0,0,1,304.07,50.17Z"/><path class="cls-3" d="M225.34,73.78a1.42,1.42,0,0,1,.52-.42,1.33,1.33,0,0,1,.86,0,.76.76,0,0,1,.39,1.25,1.06,1.06,0,0,1-.29.27,1.44,1.44,0,0,1-1,.06C225.15,74.74,224.91,74.24,225.34,73.78Z"/><path class="cls-3" d="M1.68,61.57a.81.81,0,0,1-.29.26,1.33,1.33,0,0,1-1,.07A.77.77,0,0,1,0,60.64a.91.91,0,0,1,.29-.26,1.33,1.33,0,0,1,1-.07A.77.77,0,0,1,1.68,61.57Z"/><path class="cls-3" d="M-.38,84.35a1.46,1.46,0,0,1-.41-.11c-.57-.26-.85-.85-.42-1.25a1.21,1.21,0,0,1,.89-.35,1,1,0,0,1,.41.11C.66,83,1,83.59.51,84A1.25,1.25,0,0,1-.38,84.35Z"/><path class="cls-3" d="M12,72.71a.79.79,0,0,1-.17.39,1.21,1.21,0,0,1-1.55.36.76.76,0,0,1-.45-.67A.68.68,0,0,1,10,72.4,1.21,1.21,0,0,1,11.54,72,.82.82,0,0,1,12,72.71Z"/><path class="cls-3" d="M16.7,70.74a1.21,1.21,0,0,1,.56.13c.53.23.77.77.39,1.16a1.27,1.27,0,0,1-.89.4,1.53,1.53,0,0,1-.52-.13c-.58-.26-1-.83-.54-1.23A1.59,1.59,0,0,1,16.7,70.74Z"/><path class="cls-3" d="M27.31,83.35a1.16,1.16,0,0,1,.93.32,4.29,4.29,0,0,1,.55.4.72.72,0,0,1,0,1,1.07,1.07,0,0,1-1.44.41,4.54,4.54,0,0,1-1-.52C25.72,84.38,26.43,83.54,27.31,83.35Z"/><path class="cls-3" d="M186.31,93.51a.73.73,0,0,1-.17.38,1.2,1.2,0,0,1-1.55.37.82.82,0,0,1-.45-.68.73.73,0,0,1,.17-.38,1.21,1.21,0,0,1,1.55-.37A.78.78,0,0,1,186.31,93.51Z"/><path class="cls-3" d="M190.56,78.88a.89.89,0,0,1,.38.26.71.71,0,0,1,0,.78,1.2,1.2,0,0,1-1.56.32A1,1,0,0,1,189,80a.69.69,0,0,1,0-.77A1.21,1.21,0,0,1,190.56,78.88Z"/><path class="cls-3" d="M40.28,82.41a1,1,0,0,1-.29.26,1.33,1.33,0,0,1-1,.07.77.77,0,0,1-.38-1.26.81.81,0,0,1,.29-.26,1.31,1.31,0,0,1,1-.07A.77.77,0,0,1,40.28,82.41Z"/><path class="cls-3" d="M52.91,75.28a1.21,1.21,0,0,1,.94.32,5.39,5.39,0,0,1,.54.4.71.71,0,0,1,0,1,1.07,1.07,0,0,1-1.44.41,4.67,4.67,0,0,1-.92-.49C51.33,76.35,52,75.47,52.91,75.28Z"/><path class="cls-3" d="M74.94,88.44a1.48,1.48,0,0,1-.52.4,1.44,1.44,0,0,1-.85,0,.77.77,0,0,1-.38-1.26.73.73,0,0,1,.29-.26,1.45,1.45,0,0,1,1.19,0c.54.2.71.67.33,1Z"/><path class="cls-3" d="M83.23,95.35a.76.76,0,0,1-.17.39,1.2,1.2,0,0,1-1.55.36.83.83,0,0,1-.45-.62.86.86,0,0,1,.21-.49,1.13,1.13,0,0,1,1.48-.42A1,1,0,0,1,83.23,95.35Z"/><path class="cls-3" d="M86.5,92.44A1.49,1.49,0,0,1,86,92a.75.75,0,0,1,0-.71A1.2,1.2,0,0,1,87.58,91a1,1,0,0,1,.38.26A.68.68,0,0,1,88,92,1,1,0,0,1,86.5,92.44Z"/><path class="cls-3" d="M92.05,78.73a1.37,1.37,0,0,1,.52-.4,1.41,1.41,0,0,1,.84,0,.77.77,0,0,1,.39,1.26,1,1,0,0,1-.29.26,1.45,1.45,0,0,1-1.19,0c-.54-.2-.71-.68-.33-1Z"/><path class="cls-3" d="M121.11,95.81a.73.73,0,0,1-.29.26,1.3,1.3,0,0,1-1,.07.77.77,0,0,1-.38-1.26.92.92,0,0,1,.29-.26,1.36,1.36,0,0,1,1-.07A.76.76,0,0,1,121.11,95.81Z"/><path class="cls-3" d="M129.61,89.65a1.24,1.24,0,0,1,1.57-.39.79.79,0,0,1,.45.68.73.73,0,0,1-.17.38,1.21,1.21,0,0,1-1.55.37.82.82,0,0,1-.45-.68A.64.64,0,0,1,129.61,89.65Z"/><path class="cls-3" d="M135.16,83.26a1.34,1.34,0,0,1,.56.12c.53.24.77.78.39,1.17a1.26,1.26,0,0,1-.88.4,1.34,1.34,0,0,1-.53-.14c-.57-.25-1-.83-.53-1.22A1.58,1.58,0,0,1,135.16,83.26Z"/><path class="cls-3" d="M145.89,88.19a1.13,1.13,0,0,1,.41.11c.57.25.85.85.42,1.25a1.25,1.25,0,0,1-.89.35,1,1,0,0,1-.41-.11c-.57-.25-.85-.85-.42-1.25A1.25,1.25,0,0,1,145.89,88.19Z"/><path class="cls-3" d="M159.68,92.44a1.38,1.38,0,0,1,.41.11c.57.26.86.85.43,1.25a1.16,1.16,0,0,1-1.31.25c-.56-.26-.85-.85-.42-1.25A1.28,1.28,0,0,1,159.68,92.44Z"/><path class="cls-3" d="M163.52,83.4a1,1,0,0,1-.28.26,1.38,1.38,0,0,1-1,.07.77.77,0,0,1-.38-1.26.73.73,0,0,1,.29-.26,1.31,1.31,0,0,1,1-.07A.76.76,0,0,1,163.52,83.4Z"/><path class="cls-3" d="M165.36,76.61a1.08,1.08,0,0,1-.3,1.43l-.06,0a5,5,0,0,1-.55.47,1.36,1.36,0,0,1-1.21,0c-.63-.27-.84-.63-.47-1.12a2,2,0,0,1,1.42-1C164.6,76.35,165.12,76.33,165.36,76.61Z"/><path class="cls-3" d="M171.07,96a.77.77,0,0,1-.43-1.28,1.29,1.29,0,0,1,1-.42,1.38,1.38,0,0,1,.41.11c.57.25.85.85.42,1.25a1.28,1.28,0,0,1-.73.35A2.22,2.22,0,0,1,171.07,96Z"/><path class="cls-3" d="M165.64,74.41a1.51,1.51,0,0,1,1.61-.31c.19.09.19.27.14.45a2.11,2.11,0,0,1-.78,1.23c-1,.66-1.66.49-1.64-.28a1.09,1.09,0,0,1,.3-.78Z"/><path class="cls-3" d="M207.58,72.66c.06.2-.08.44-.43.73a5,5,0,0,1-.56.47,1.36,1.36,0,0,1-1.21,0c-.63-.27-.84-.63-.47-1.12a3.09,3.09,0,0,1,.81-.84A1.34,1.34,0,0,1,207.58,72.66Z"/><path class="cls-3" d="M209.75,70a1.06,1.06,0,0,1-.9,1.3l-.07,0c-.8.17-1.69-.29-1.56-1a1.36,1.36,0,0,1,.84-1A1.22,1.22,0,0,1,209.75,70Z"/><path class="cls-3" d="M211.33,70.78a1.21,1.21,0,0,1,.94.32,5.39,5.39,0,0,1,.54.4.71.71,0,0,1,0,1,1.07,1.07,0,0,1-1.44.41,4.54,4.54,0,0,1-1-.52C209.74,71.81,210.46,71,211.33,70.78Z"/><path class="cls-3" d="M213.91,78.93a1.23,1.23,0,0,1,.55.47.76.76,0,0,1-.06.65,1.22,1.22,0,0,1-1.56.33,1,1,0,0,1-.38-.27.77.77,0,0,1,.09-.94.94.94,0,0,1,1.28-.28Z"/><path class="cls-3" d="M235.8,68.14a1.12,1.12,0,0,1,.41.1c.57.26.86.85.43,1.25a1.24,1.24,0,0,1-.9.35,1.12,1.12,0,0,1-.4-.1c-.57-.26-.86-.85-.43-1.25A1.23,1.23,0,0,1,235.8,68.14Z"/><path class="cls-3" d="M246.54,69.28a.79.79,0,0,1-.17.39,1.22,1.22,0,0,1-1.56.36.8.8,0,0,1-.45-.67.7.7,0,0,1,.18-.39,1.21,1.21,0,0,1,1.55-.37A.83.83,0,0,1,246.54,69.28Z"/><path class="cls-3" d="M251.69,62.49a1.48,1.48,0,0,1,.52-.4,1.44,1.44,0,0,1,.85,0,.77.77,0,0,1,.38,1.26.73.73,0,0,1-.29.26,1.45,1.45,0,0,1-1.19,0c-.54-.2-.71-.67-.33-1.05Z"/><path class="cls-3" d="M255.38,53.42a1.35,1.35,0,0,1-.56-.13c-.53-.24-.78-.78-.39-1.16a1.27,1.27,0,0,1,.89-.4,1.18,1.18,0,0,1,.52.13c.58.26,1,.83.53,1.23A1.56,1.56,0,0,1,255.38,53.42Z"/><path class="cls-3" d="M265.6,61.83a1.29,1.29,0,0,1,.51.4.7.7,0,0,1,0,.7,1.22,1.22,0,0,1-1.57.33,1,1,0,0,1-.38-.26.71.71,0,0,1,0-.77A1,1,0,0,1,265.6,61.83Z"/><path class="cls-3" d="M280.62,51.13a1.23,1.23,0,0,1,.55.47.7.7,0,0,1-.06.65,1.22,1.22,0,0,1-1.56.33.94.94,0,0,1-.38-.27.77.77,0,0,1,.09-.94,1,1,0,0,1,1.29-.28Z"/><path class="cls-3" d="M302,33.67a1.31,1.31,0,0,1,1.6-.39.82.82,0,0,1,.5.71.76.76,0,0,1-.17.39,1.19,1.19,0,0,1-1.55.36.8.8,0,0,1-.44-.59A.67.67,0,0,1,302,33.67Z"/><path class="cls-3" d="M309.92,37.57a.68.68,0,0,1-.17.39,1.21,1.21,0,0,1-1.55.37.85.85,0,0,1-.45-.63.89.89,0,0,1,.21-.49,1.14,1.14,0,0,1,1.49-.41A1,1,0,0,1,309.92,37.57Z"/><path class="cls-3" d="M322.4,20a1.44,1.44,0,0,1,1.53-.25.46.46,0,0,1,.23.58,4.42,4.42,0,0,1-.17.55,1.91,1.91,0,0,1-1.46,1,.59.59,0,0,1-.78-.56,1.4,1.4,0,0,1,.33-1A3.13,3.13,0,0,1,322.4,20Z"/><path class="cls-3" d="M326.24,9.28c.22.13.47.26.56.47a.74.74,0,0,1-.06.64,1.21,1.21,0,0,1-1.56.33,1,1,0,0,1-.38-.26.78.78,0,0,1,.09-1,.94.94,0,0,1,1.28-.28Z"/><path class="cls-3" d="M326.45,4.39a.89.89,0,0,1,.29-.26,1.33,1.33,0,0,1,1-.07.77.77,0,0,1,.38,1.26.81.81,0,0,1-.29.26,1.31,1.31,0,0,1-1,.07A.77.77,0,0,1,326.45,4.39Z"/><path class="cls-3" d="M304.49,40.45a.92.92,0,0,1-.2.54,1.13,1.13,0,0,1-1.43.33.88.88,0,0,1-.52-.67.89.89,0,0,1,.21-.49,1.19,1.19,0,0,1,1.5-.46A.91.91,0,0,1,304.49,40.45Z"/></g></svg>