<svg id="Layer_1" data-name="Layer 1" xmlns="http://www.w3.org/2000/svg" viewBox="0 0 96 413"><defs><style>.cls-1{fill:#fcebce;}</style></defs><path class="cls-1" d="M1.94,19c.69-.22.37-1.12,1-.67,1.12.84.45-1.12,1.48-.35.49.37-1,2.07-1.48,2.48s-.29.47-.44,1.06C2.18,22.7,2,23.35,4.39,22.93c.37-.12-.55.49-.45.93a2.24,2.24,0,0,0,1,1.39c.6.46,1.09.36,1.34-.78a1,1,0,0,0-.09-.71,2.39,2.39,0,0,0-.84-.91A1.93,1.93,0,0,0,5,22.72a1.88,1.88,0,0,1-1.16-.8A2.15,2.15,0,0,1,5,19a4.92,4.92,0,0,1,1.09-.3,1.45,1.45,0,0,1,.8,0,2.78,2.78,0,0,1,1.34,1.53,30.21,30.21,0,0,1,1,4.36c.28,1.44-.91,3.2-1.27,4.61a1.32,1.32,0,0,0,0,.68c.53,1.78,2.83,2,3.24,3.81A3.72,3.72,0,0,0,12.66,36l1.11.73a5.9,5.9,0,0,0,5.07.79l1.86-.6a4.56,4.56,0,0,1,3.82.25,8.89,8.89,0,0,1,1.37,1c1.29,1.14,1.43,3.58-.11,4.09l-.56.15a6.88,6.88,0,0,1-5.08-.7l-.23-.14A2.25,2.25,0,0,0,18,41.35a3.27,3.27,0,0,0-1.94,1.93c-.77,1.89-1.63,3.72-2.43,5.59-.58,1.35-.26,3.94,1,3.54,4-.92,7.84-2.17,11.73-3.42.65-.21.75,1.31.44,2a28.5,28.5,0,0,0-1,2.79,4.39,4.39,0,0,1-.83,1.69,2.53,2.53,0,0,0-.72,1.31c-.23.88.25,1.33,1.32,1.39A1.62,1.62,0,0,1,27,59.51a1.71,1.71,0,0,1-1,2l-2,.66c-.26.08-.44.5-.63.91s-.37.83,0,1.08c0,0,0,0,0,0a2.9,2.9,0,0,0,2.11.7A2,2,0,0,0,27.23,64c.89-1.54,1.54-3.92,2.67-2.64s.94,3.34,2.25,4.14a1.78,1.78,0,0,0,1.45,0,3.93,3.93,0,0,0,2.08-1.95c.71-1.27,2.27-1.84,2.74-.42a7.29,7.29,0,0,1,.18.74,6.05,6.05,0,0,1-.49,3.85c-.36.71-.75,1.48-1.17,2.33-.56,1.16-1.29,2.17-2.39,2.33a4.72,4.72,0,0,0-2.45.84,2.2,2.2,0,0,0-1,2,.82.82,0,0,0,.29.42,1.72,1.72,0,0,0,1.42.33,5.12,5.12,0,0,1,3.6.72l.87.6a6.15,6.15,0,0,1,2.6,3.18c.46,1.43.73,2.91,1,4.37a7.61,7.61,0,0,0,2,4,20.22,20.22,0,0,0,2.5,1.81,2.77,2.77,0,0,0,1.24.44c1.77.14,2.68,2.35,1.91,4.26l-.43,1.06a4.5,4.5,0,0,0,1.21,5.18l2,1.52a1.93,1.93,0,0,1,1,1.48,1.88,1.88,0,0,1-.06.46,1.5,1.5,0,0,1-1.27,1.17c-.32,0-.72.07-1,.13a1.35,1.35,0,0,0-.73.35,1.64,1.64,0,0,0,0,2.43,2.63,2.63,0,0,0,2.09.09l3.63-1.17a10.8,10.8,0,0,1,1.11-.32,2.92,2.92,0,0,1,2.37.7c1.93,1.45,2.77,4.64.53,5.09l-.73.13a4.82,4.82,0,0,0-2.68,2.22,5.26,5.26,0,0,0-.38.65c-1.55,3-2.77,6.24-4.25,9.56a6.69,6.69,0,0,0-.51,1.36,1.74,1.74,0,0,0,1.17,1.86,1.36,1.36,0,0,0,1.13-.14,2.52,2.52,0,0,1,.49-.25,2,2,0,0,0,1.13-1.12,8,8,0,0,1,2.14-3.1A7.74,7.74,0,0,0,59.1,122a4.27,4.27,0,0,1,1.17-1.66,6.29,6.29,0,0,1,3.34-1.14c.91-.06,2.42-.41,2.66.65.4,1.81.77,3.46,1.15,5.17a2.66,2.66,0,0,1-1.51,3.14,2.54,2.54,0,0,1-.55.1c-.91.08-1.3.59-1.57,1.65-.11.75.56,1.24,1.55,2a1.89,1.89,0,0,1,.82,2.13c-.36.81-1.15,1.06-1.89,1.37-1.43.61-.83,2.49.4,3.56a4.73,4.73,0,0,1,1.42,2.49c.69,3.12,1.39,6.22,2,9.21.32,1.42-.84,3.18-1.2,4.59a5.35,5.35,0,0,0,.89,4,1.78,1.78,0,0,0,1.18.74c.6,0,1.7.29,1.41.92-.92,2.08-1.59,4.08-2.59,5.82-.29.66-1.16-.25-1.32-1s-.27-1.21-.4-1.8A3.14,3.14,0,0,0,64.93,162c-.82-.58-1.14-.68-1.64-.46s-.93.42-1.38.68c-.74.43-.89,1.07-.83,2.25a6.43,6.43,0,0,0,.24,1.52,4,4,0,0,0,1.14,2,1.64,1.64,0,0,0,1.66.25l1.07-.34c.79-.25,1.1.69,1.79,1.2.44.33.87.65,1.31,1A3.36,3.36,0,0,1,69,174c-.13.29-.26.57-.38.85a1.81,1.81,0,0,1-2.72,1,1.37,1.37,0,0,0-2.18.87A3.33,3.33,0,0,0,65,180.06a14.18,14.18,0,0,1,2.41,2.73c.61,1,.84,2.42,1.79,2.88a2,2,0,0,0,1.18.18c.58-.09,1-.45,1.61-.42,1.22.06,1.84,1.84,2.15,3.27.46,2.07,1,4.27,1.45,6.47a1.47,1.47,0,0,1-.9,1.81.67.67,0,0,1-.63-.06,2.79,2.79,0,0,1-1-1.64l-.41-1.85c-.45-2-1.53-4.32-3.25-4.12a8.22,8.22,0,0,0-2.22.77c-1.33.61-3.3,2.57-1.91,2.91a1.83,1.83,0,0,0,.35,0c.85.09,1.55-.5,2.48-.08a5,5,0,0,1,.69.27,1.46,1.46,0,0,1,.55,2.35,11.8,11.8,0,0,1-1.66.94c-1.87,1.13-1.81,1.4-1.28,3.75l.55,2.5a4.88,4.88,0,0,0,1.74,2.82c2.41,2.07,2.63,3.07,1.67,6.23-.44,1.73.41,3.41,1.87,3l.17-.06c1.55-.5,2.22,0,2.92,1.91.63,1.58.22,3.49-.74,4.15-.61.51-1.34.51-2,.9a1,1,0,0,0-.42.33,3.53,3.53,0,0,0-.38,2.44l.87,3.87a3.36,3.36,0,0,0,1,1.89c1.23,1.07,2.14,3,.76,3.73a5.18,5.18,0,0,0-2,1.4,3.33,3.33,0,0,0-.09,2.53c.24,1.12.66,2.38,1.61,2.56l.19,0c2.68.25,3.2,2.69,1.93,5.54-.59,1.31-1.17,2.62-1.78,4a2.19,2.19,0,0,1-1.3,1.25l-1.33.42c-.7.23-1.38-.58-1.91-1.18a8.94,8.94,0,0,1-1-1.5c-.3-.54-.8-.38-1.17-.26a2.3,2.3,0,0,0-1.1.72,1.56,1.56,0,0,0,.37,2.1,2.27,2.27,0,0,0,.48.29,1.71,1.71,0,0,0,.81,0,6.81,6.81,0,0,0,1.57-.5c.76-.32,1.07.59,1.76,1.1a14.25,14.25,0,0,1,4,6.93l.94,4.21a3.38,3.38,0,0,1-.15,1.64c-.16.46-.43.2-.81,0a3.78,3.78,0,0,1-.83-.47,2.17,2.17,0,0,1-.45-.94c-.4-1.19-.53-2.7-.85-4.15a4.61,4.61,0,0,0-.24-.77c-.5-1.23-1.87-.93-3-.69-.42.08-.84.16-1.26.28-1.85.53-1.91,3.37-.31,4.62.43.33.87.63,1.32.92a4,4,0,0,1,1.12,4.66v.05a3.6,3.6,0,0,0-.13,2.08c.44,1.95-.5,4.07-2.13,4.59l-.43.14c-.25.08-.44.5-.62.91s-.37.83,0,1.08l0,0a2.9,2.9,0,0,0,2.11.7,2.07,2.07,0,0,0,1.73-.88c1-1.53,1.86-4.3,2.71-2.69.44.91.84,1.9,1.34,2.79,1.29,2.28,1.16,3.2,1.76,5.86a3.48,3.48,0,0,1-.19,2.91,2.49,2.49,0,0,1-3,1.33c-1.37-.82-2.65-1.86-4-2.8-.89-.64-2.63-.41-2.58.84,0,.12,0,.2,0,.32,0,.33.08.65.13,1,.52,3,3.71,4.38,4,7.42a.22.22,0,0,1,0,.08c0,1.51-.94,1.72-1.82,1.83a3,3,0,0,1-2-.46,2.47,2.47,0,0,0-3.59,1.28l0,.07c-.64,1.42-.28,3.47,1.06,3.6,1.11,0,2.33-.75,3.62-1.17s1.66,2.28,1.06,3.62c-.21.46-.41.93-.62,1.38a4,4,0,0,1-2,2l-.16.07A3,3,0,0,0,66,308.05c-.1.22-.21.45-.32.67-.7,1.49-2.76.73-4.15.37-.12,0-1.76,2.51-.23,2.66-.86-.09.27-.22.86-.06,1.18.33,1.55-.5.74-1.66l0-.07c-.72-.93-2.52,1.28-1.55,1.79,1.33,1,1.86.69,2.19.94l1.48,1.1a3,3,0,0,1,.7,3.26,2.61,2.61,0,0,0,.61,2.75l.08.08c.83.82,1.18,2.37.24,3a9.6,9.6,0,0,1-2.94,1c-4.1-1.18-5.86-1.33-6.32-.27,0,.09-.08.18-.11.27-.91,2.12-3.56,0-2.06,1.56a3.67,3.67,0,0,1,1,2.54,3.05,3.05,0,0,1-.31,1.4l-.05.11c-.74,1.67-1,4.33.27,5.46a4.22,4.22,0,0,1,1.1,1.84c.33,1.13.6,2.37-.45,3.24-1.92,1.33-3.22-.78-2.87,1.84a5.37,5.37,0,0,1,0,2c-.2.75,1.41,2.12.78,2.32-1.19.38-.49.14-1.46-.78-.7-.68-1-.79-1.72-1.41-1-.88-.83,1.59-2,2.12l-.28.14a2.85,2.85,0,0,0-1.06,1.27c-.83,1.62-.49,4-1.83,3l-2-1.48c-.33-.25-.22-1-.29-1.33a1.46,1.46,0,0,0,1.59-1.58,7.22,7.22,0,0,0,0-1.46,5.73,5.73,0,0,0-.53-2.61l0-.06c-.51-.76-1.41-.48-1.78.39a3.64,3.64,0,0,0-.08,2c.2,1.14.63,2.32.86,3.35-1.37.08-1.93,1.33-1.89,2.74.06,2.29.46,5.53-1.38,6.12h0c-.26.08-.44.5-.63.92s-.37.83,0,1.08a1.92,1.92,0,0,1,.23.2,2.16,2.16,0,0,0,1.69.55,2.11,2.11,0,0,0,2.35-2.25c.1-1,.63-2.59,1.32-2.08,1,.58.89,1.33,1.79,2.06s1.52,2.43.72,3.15a2,2,0,0,1-.39.24,9.18,9.18,0,0,1-2.34,1,2.29,2.29,0,0,0-.79.41c-.78.62-.25,1.86.5,2.52,1,.91,1.42,2.66.34,3.5-.58.45-1.21.83-1.77,1.3-1.1.94-2.87,2-4.06,1.22a1.58,1.58,0,0,0-1.42-.22l-2.11.67a5,5,0,0,0-2.76,2.49,4.91,4.91,0,0,1-2.76,2.49l-9.08,2.93c-.78.25-1.74.91-1.52,1.91a2.85,2.85,0,0,0,1.13,1.13,1.79,1.79,0,0,0,1.1.07c.3-.05.6-.11.91-.14,1.31-.12,1.59,1.8.88,3.13l-.4.73a2.16,2.16,0,0,1-3,1,1.23,1.23,0,0,0-1.72.46c-.51,1.21.09,2.73.06,4.12s-1.22,2-2.3,2.35l-1.61.52c-1,.33-2.13.82-2,2.12.16,2.09,1.82,4.12,1,6-.1.24-.21.49-.32.73a3.75,3.75,0,0,1-1.27,1.64,16,16,0,0,1-4.91,1.73,4.31,4.31,0,0,1-3.72-.54c-.82-.62-1-.58-1.92-.31ZM51.52,340.89c.68-1.51-1.16-2-2.54-1.57-1.63.52-1.27.57-2.9,1.1-.12,0-.21.23-.29.47a2.1,2.1,0,0,0-.2,1.46c.36,1,1.63.91,2.5.62,1.89-.6,1-.22,2.88-.83C51.23,342.06,51.34,341.31,51.52,340.89ZM3.34,30.51c-.86,1.87-.23,4.7,1.45,4a2.16,2.16,0,0,0,.63-.4c1.07-.93,1.16-2.87.78-4.38a3.39,3.39,0,0,0-.26-.7C5.29,27.8,3.91,29.24,3.34,30.51ZM71.4,240.89c.29,1.94-2.15,2.73-2.71.87C68.08,239.68,71.07,238.72,71.4,240.89ZM68,219.2c-.43,0-.71.56-1,1a.85.85,0,0,0-.18.58c.22,1,.44,2,.67,3,.07.34.66.5,1,.75.52.39,1.1-.47,1.26-1.19.3-1.35-.33-3.37-1.42-4A.84.84,0,0,0,68,219.2ZM35.7,361.71a.8.8,0,0,0-.4-.18.86.86,0,0,0-.72.48,1.26,1.26,0,0,0,.39,1.64.73.73,0,0,0,.41.18.82.82,0,0,0,.71-.47A1.28,1.28,0,0,0,35.7,361.71Zm26.7-174.9c.47.39,1.09.1,1.36-.5a.87.87,0,0,0,.1-.39,1.32,1.32,0,0,0-.38-1c-.42-.45-1-.15-1.31.45-.06.13-.16.27-.22.4C61.8,186.11,62,186.45,62.4,186.81Zm-2.18-57.66a1,1,0,0,0-.28.4,1.28,1.28,0,0,0,.35,1.66.76.76,0,0,0,.82,0,1.11,1.11,0,0,0,.28-.41,1.31,1.31,0,0,0-.35-1.66A.75.75,0,0,0,60.22,129.15ZM42.4,95.35a1.09,1.09,0,0,0-.27.41,1.29,1.29,0,0,0,.34,1.66.75.75,0,0,0,.82,0,1,1,0,0,0,.28-.4,1.28,1.28,0,0,0-.35-1.66A.76.76,0,0,0,42.4,95.35ZM29.22,69.17a1,1,0,0,0,.28-.41,1.28,1.28,0,0,0-.35-1.66.76.76,0,0,0-.82,0,1.07,1.07,0,0,0-.28.4,1.29,1.29,0,0,0,.35,1.66A.76.76,0,0,0,29.22,69.17ZM9.6,42.05a.76.76,0,0,0,.41.18.88.88,0,0,0,.72-.48,1.28,1.28,0,0,0-.39-1.64.9.9,0,0,0-.41-.19.86.86,0,0,0-.72.48A1.29,1.29,0,0,0,9.6,42.05Z"/><path class="cls-1" d="M39.67,52.88a2.71,2.71,0,0,1-1.14,3.58,8.66,8.66,0,0,1-2.05.8,4.81,4.81,0,0,1-3.93-.8L31.9,56a1.93,1.93,0,0,0-1.59-.14L29,56.32a1.29,1.29,0,0,1-1.58-1.1,1.61,1.61,0,0,1,.91-1.89l2.92-.94a4.07,4.07,0,0,1,3.43.5,4.05,4.05,0,0,0,3.42.5Z"/><path class="cls-1" d="M12.53,12.12,8.42,13.44a2.93,2.93,0,0,1-3.25-1A2.38,2.38,0,0,1,4.58,10,1.46,1.46,0,0,1,6.76,9,1.37,1.37,0,0,0,8.9,8.3a1.44,1.44,0,0,1,2.88.23c0,.09,0,.17,0,.27A14.52,14.52,0,0,0,12.53,12.12Z"/><path class="cls-1" d="M81.19,273.85c-2.21.71-5.18.81-5.46-1.92,0-.08,0-.16,0-.23-.19-2.08-.07-2.83,1.48-3.33,2-.64,3.31,2.32,3.83,4.73C81.08,273.36,81.13,273.61,81.19,273.85Z"/><path class="cls-1" d="M87.22,230.68a2.92,2.92,0,0,1,.24,4,.93.93,0,0,1-.92.23,7.37,7.37,0,0,1-3-1.59,3,3,0,0,1-.16-4,.91.91,0,0,1,1-.22A9.29,9.29,0,0,1,87.22,230.68Z"/><path class="cls-1" d="M73.43,201.11c.26-.31.79-.59,1.1-.35l1.73,1.29a3.49,3.49,0,0,1,.83,4,3.4,3.4,0,0,0-.19,1c0,.32.06.64.07,1,0,.71,0,1.17-.29,1.3-.46.2-1-.18-1.46-.47a1.62,1.62,0,0,1-.47-.82,16.46,16.46,0,0,1-1.4-6.44C73.33,201.38,73.29,201.28,73.43,201.11Z"/><path class="cls-1" d="M58.1,99.63a2.39,2.39,0,0,1-2,0,9.3,9.3,0,0,1-1.6-1.07c-1.32-1-2.1-3.69-.55-4.09a2.38,2.38,0,0,1,2.08.54,18.43,18.43,0,0,0,2.2,1.38c1.92,1.16,2,1.49.85,2.58A2.76,2.76,0,0,1,58.1,99.63Z"/><path class="cls-1" d="M61.65,95.39a2.3,2.3,0,0,1-2.67-2l-.21-.92a2.85,2.85,0,0,1,0-1.56,2.51,2.51,0,0,1,2.29-1.8c1.63-.17,2.22,0,2.66,2a3.71,3.71,0,0,1,0,2.33A2.79,2.79,0,0,1,61.65,95.39Z"/><path class="cls-1" d="M34.3,399.89a2,2,0,0,1,0-1.46,3.85,3.85,0,0,1,1.14-1.5c1.79-1.29,2.55,2.25,1.56,4.47-.55,1.24-.74,1.66-1.33,1.49a2,2,0,0,1-1.32-1.79A8,8,0,0,0,34.3,399.89Z"/><path class="cls-1" d="M45.23,376.5c1.42,1.18,1.91,4.53.18,4.37l-.28,0a3.85,3.85,0,0,1-2.41-3.05,2.88,2.88,0,0,1-.06-1.23C42.93,375.37,44.39,375.8,45.23,376.5Z"/><path class="cls-1" d="M74.3,295c0-1.49,1.85-.41,2.17,1,.36,1.59-.34,1.09,0,2.58a1.22,1.22,0,0,1-.23.9c-.39.68-1.52,1.23-1.69.43C73.76,297.68,74,297.56,74.3,295Z"/><path class="cls-1" d="M77.85,212.57a3.26,3.26,0,0,1,1.93-4.28l.4-.07a1.64,1.64,0,0,1,.44,0c1,.14,1.11,2.08.64,3.13l-.6,1.35c-.42.95-1.71,1.63-2.31.82a5.58,5.58,0,0,1-.35-.63Z"/><path class="cls-1" d="M81.59,183.68c.86,2.07-1.64,3.13-3.27,1.91A2.29,2.29,0,0,1,77.25,183a1.39,1.39,0,0,1,.81-.75,2.63,2.63,0,0,1,3.41,1.15Z"/><path class="cls-1" d="M42.75,79.1c-.48-2.28,2.16-2.26,2.81,0a8.69,8.69,0,0,1,.38,2c.14,1.93-1.91,2.61-2.45.78-.22-.73-.37-1.52-.63-2.29C42.82,79.37,42.78,79.25,42.75,79.1Z"/><path class="cls-1" d="M55.43,61c.94-1.89,4-2.45,3.73-.26,0,0,0,.09,0,.14a3.6,3.6,0,0,1-2.46,3,1.15,1.15,0,0,1-1.2-.27A2.33,2.33,0,0,1,55.43,61Z"/><path class="cls-1" d="M34.65,33.81a2.89,2.89,0,0,1,.18-2,2.94,2.94,0,0,1,1.27-1.35c1.74-.81,2.4,2.22,1.47,4.17a5.41,5.41,0,0,0-.25.71c-.3.89-.71,1.27-1.23,1.12a2.1,2.1,0,0,1-1.35-2.07A4.55,4.55,0,0,0,34.65,33.81Z"/><path class="cls-1" d="M10.62,27.26c-.13-.66.31-1,.71-1.49l.06-.11c.27-.61.54-1.22.82-1.83.45-1,1.7-1.62,2.39-.81a1.05,1.05,0,0,1,.2.34,9.13,9.13,0,0,1,.47,1.8,2.61,2.61,0,0,1-1.5,2.94l-1.47.48C11.58,28.81,10.78,28.13,10.62,27.26Z"/><path class="cls-1" d="M12.92,18.6a2.18,2.18,0,0,1-.81-3.05,3.83,3.83,0,0,0,.42-3.43,1.9,1.9,0,0,1,2,.29,4.53,4.53,0,0,1,1.17,4,2.85,2.85,0,0,1-2.26,2.22A1,1,0,0,1,12.92,18.6Z"/><path class="cls-1" d="M42.38,40.71c.16.48.2-.07,0,.39a3.9,3.9,0,0,1-1.13,1.51c-1.8,1.29-2.56-1.2-1.57-3.41.56-1.25.74-1.67,1.33-1.5a2,2,0,0,1,1.33,1.8A7,7,0,0,0,42.38,40.71Z"/><path class="cls-1" d="M35.15,381.59c1.55-.5,2.81.16,2.52,1.32s-.66,1.56-1.54,1.65a2.36,2.36,0,0,0-.59.11,1.7,1.7,0,0,1-1.46-.13,1,1,0,0,1-.52-1.37c.18-.42.29-1.17.55-1.25Z"/><path class="cls-1" d="M66.77,333.88a3.63,3.63,0,0,1-1.31.64,1.67,1.67,0,0,1-1.64-.67c-.81-1.16,0-2.49,1.56-3l.2-.06a1.72,1.72,0,0,1,1.57.27,1.22,1.22,0,0,1,.43.52,1.86,1.86,0,0,1-.25,1.52A2.22,2.22,0,0,1,66.77,333.88Z"/><path class="cls-1" d="M82.86,322.14c0-1.68,1.92-.53,2.3,1.09a9.18,9.18,0,0,1,.2,1,3.28,3.28,0,0,1,0,1.25,2.08,2.08,0,0,1-.12.32c-.35.88-1.29,1.2-1.79.44a3.89,3.89,0,0,1-.52-1.3A10.16,10.16,0,0,1,82.86,322.14Z"/><path class="cls-1" d="M95,312.94a.81.81,0,0,1-.63,0,2.57,2.57,0,0,1-1-3.48,1.57,1.57,0,0,1,.44-.66c.34-.24.76.07,1.08.33a2.58,2.58,0,0,1,.84,3.2A1.11,1.11,0,0,1,95,312.94Z"/><path class="cls-1" d="M72.12,311.35c-.45-2,0-3.57,1-3.16a2.11,2.11,0,0,1,1.35,2,4.54,4.54,0,0,0,.1.74,3.23,3.23,0,0,1-.07,1.9c-.25.62-.57.93-1,.58s-.93-.42-1-.75S72.19,311.68,72.12,311.35Z"/><path class="cls-1" d="M87.55,299.62c1.56-.5,2.81.16,2.52,1.32s-.66,1.56-1.54,1.65a2.36,2.36,0,0,0-.59.11,1.68,1.68,0,0,1-1.45-.13c-.52-.34-.8-.77-.53-1.37.18-.42.29-1.17.55-1.25Z"/><path class="cls-1" d="M81.19,273.85c.75-.24,1.6-.7,2.43-.94a2.08,2.08,0,0,1,1.86.23,1.51,1.51,0,0,1,.33,2.06,2.28,2.28,0,0,1-1.1.72,4.89,4.89,0,0,1-2.22,0C81.63,275.84,81.15,274.93,81.19,273.85Z"/><path class="cls-1" d="M70,155.17c-.39-1.72.51-3.77,1.61-2.58l0,0a5.3,5.3,0,0,1,.89,4c-.44,1.72-2.12.46-2.51-1.28Z"/><path class="cls-1" d="M57.32,74c1.54-.68.85-3.8-.77-3.47C54.72,70.9,55.59,74.76,57.32,74Z"/><path class="cls-1" d="M39.67,52.88c-.23-1-.66-2.2-.86-3.34a3.64,3.64,0,0,1,.09-2c.37-.87,1.27-1.15,1.78-.39a4,4,0,0,1,.51,1.3,10.16,10.16,0,0,1,.07,2.82A1.45,1.45,0,0,1,39.67,52.88Z"/><path class="cls-1" d="M17.05,32.39c-.53-2.38,1.63-4.86,2-2.45a11,11,0,0,1,.12,1.76,2,2,0,0,1-.05.69,3,3,0,0,1-.27.48c-.16.26-.39.46-.66.39a1.9,1.9,0,0,1-.79-.33A1.15,1.15,0,0,1,17.05,32.39Z"/><path class="cls-1" d="M29.61,18.66c-1.49,0-.37-2.58,1.08-3a2.56,2.56,0,0,1,.46-.11,1.54,1.54,0,0,1,1,0,2.49,2.49,0,0,1,.37.23,1.56,1.56,0,0,1,.37,2.1,2.23,2.23,0,0,1-1.1.72A5,5,0,0,1,29.61,18.66Z"/><path class="cls-1" d="M37.12,389.47a1.09,1.09,0,0,1,.11-.43c.27-.61.9-.91,1.32-.45a1.32,1.32,0,0,1,.38,1,1.11,1.11,0,0,1-.12.43c-.27.6-.9.91-1.32.45A1.33,1.33,0,0,1,37.12,389.47Z"/><path class="cls-1" d="M37.25,410.83a1.26,1.26,0,0,1,.43,1.45.82.82,0,0,1-1.34.4,1,1,0,0,1-.28-.3,1.56,1.56,0,0,1,0-1.27c.21-.57.71-.75,1.12-.34Z"/><path class="cls-1" d="M37.76,395.68a1.1,1.1,0,0,1,.11-.44c.27-.6.9-.9,1.32-.44a1.31,1.31,0,0,1,.38.94,1,1,0,0,1-.12.43c-.26.61-.89.91-1.32.45A1.29,1.29,0,0,1,37.76,395.68Z"/><path class="cls-1" d="M45.12,399.05a1.46,1.46,0,0,1-.14.59c-.25.57-.82.83-1.24.42a1.19,1.19,0,0,1-.27-1.49c.27-.61.87-1.05,1.29-.57A1.67,1.67,0,0,1,45.12,399.05Z"/><path class="cls-1" d="M51.11,35.27a5.79,5.79,0,0,1-.38,1.11c-.24.17-.69-.37-1-.53a1.29,1.29,0,0,1-.34-1.66,1,1,0,0,1,.28-.4.75.75,0,0,1,.82,0A1.19,1.19,0,0,1,51.11,35.27Z"/><path class="cls-1" d="M29.67,409.88a.89.89,0,0,1,.27-.4.74.74,0,0,1,.82,0,1.28,1.28,0,0,1,.35,1.66,1,1,0,0,1-.28.4.74.74,0,0,1-.82,0A1.29,1.29,0,0,1,29.67,409.88Z"/><path class="cls-1" d="M75.81,140.75a.73.73,0,0,1-.41-.18,1.26,1.26,0,0,1-.39-1.64.82.82,0,0,1,.72-.48.79.79,0,0,1,.41.18,1.27,1.27,0,0,1,.38,1.64A.83.83,0,0,1,75.81,140.75Z"/><path class="cls-1" d="M90.91,282.65a.81.81,0,0,1,.41.19,1.27,1.27,0,0,1,.38,1.64A.85.85,0,0,1,91,285a.8.8,0,0,1-.41-.18,1.28,1.28,0,0,1-.39-1.65A.86.86,0,0,1,90.91,282.65Z"/><path class="cls-1" d="M49,25.7a1.31,1.31,0,0,1-.12.44c-.27.6-.89.9-1.32.45a1.29,1.29,0,0,1-.37-.89,1.32,1.32,0,0,1,.14-.56c.27-.61.86-1,1.28-.51A1.7,1.7,0,0,1,49,25.7Z"/><path class="cls-1" d="M36.26,376.38a1.09,1.09,0,0,1-.11.43c-.27.61-.9.91-1.32.45a1.33,1.33,0,0,1-.38-.89,1.49,1.49,0,0,1,.14-.55c.28-.61.87-1,1.28-.51A1.68,1.68,0,0,1,36.26,376.38Z"/><path class="cls-1" d="M74,109.2a1.52,1.52,0,0,1-.45-.55,1.44,1.44,0,0,1,0-.92.8.8,0,0,1,1.33-.4.9.9,0,0,1,.28.3,1.49,1.49,0,0,1,.06,1.07C75,109.39,74.49,109.65,74,109.2Z"/><path class="cls-1" d="M81.2,353.3a.88.88,0,0,1-1.56.5,1.38,1.38,0,0,1-.24-.78,1.25,1.25,0,0,1,.12-.43c.27-.61.9-.91,1.32-.45A1.3,1.3,0,0,1,81.2,353.3Z"/><path class="cls-1" d="M64.1,359.3a1,1,0,0,1-.28.4.74.74,0,0,1-.82,0,1.29,1.29,0,0,1-.34-1.66,1,1,0,0,1,.27-.4.75.75,0,0,1,.83,0A1.29,1.29,0,0,1,64.1,359.3Z"/><path class="cls-1" d="M61.06,346.41a.94.94,0,0,1,.28.31,1.41,1.41,0,0,1,.06,1,.81.81,0,0,1-1.33.41,1,1,0,0,1-.28-.31,1.49,1.49,0,0,1-.07-1.05A.82.82,0,0,1,61.06,346.41Z"/><path class="cls-1" d="M85.21,348.59a1.05,1.05,0,0,1-.11.43c-.27.61-.9.91-1.32.45a1.31,1.31,0,0,1-.38-.94,1,1,0,0,1,.12-.43c.26-.61.89-.91,1.32-.46A1.33,1.33,0,0,1,85.21,348.59Z"/><path class="cls-1" d="M51.51,361.57a1.3,1.3,0,0,1-.41-1.66.86.86,0,0,1,.72-.48.8.8,0,0,1,.4.18,1.28,1.28,0,0,1,.39,1.65.85.85,0,0,1-.71.48A.68.68,0,0,1,51.51,361.57Z"/><path class="cls-1" d="M72.87,335.47a.86.86,0,0,1,.41.19,1.27,1.27,0,0,1,.39,1.64.86.86,0,0,1-.72.48.84.84,0,0,1-.41-.18,1.3,1.3,0,0,1-.39-1.65A.88.88,0,0,1,72.87,335.47Z"/><path class="cls-1" d="M70.78,330.48a1.35,1.35,0,0,1,.14-.59c.25-.57.82-.82,1.23-.42a1.37,1.37,0,0,1,.43.94,1.33,1.33,0,0,1-.15.56c-.27.61-.88,1-1.29.56A1.67,1.67,0,0,1,70.78,330.48Z"/><path class="cls-1" d="M84.15,319.23a1.28,1.28,0,0,1,.34-1,6.22,6.22,0,0,1,.43-.58.76.76,0,0,1,1,0,1.14,1.14,0,0,1,.43,1.53,4.58,4.58,0,0,1-.55,1C85.25,320.92,84.36,320.16,84.15,319.23Z"/><path class="cls-1" d="M89,141.84a1,1,0,0,1,.28-.4.74.74,0,0,1,.82,0,1.28,1.28,0,0,1,.35,1.66,1.07,1.07,0,0,1-.28.4.76.76,0,0,1-.82,0A1.28,1.28,0,0,1,89,141.84Z"/><path class="cls-1" d="M83.16,305.48a.9.9,0,0,1,.28.3,1.49,1.49,0,0,1,.07,1.05.82.82,0,0,1-1.34.4.91.91,0,0,1-.27-.31,1.36,1.36,0,0,1-.07-1A.8.8,0,0,1,83.16,305.48Z"/><path class="cls-1" d="M75.59,292.07a1.29,1.29,0,0,1,.35-1,5.06,5.06,0,0,1,.42-.58.76.76,0,0,1,1,0,1.13,1.13,0,0,1,.43,1.53,4.66,4.66,0,0,1-.51,1C76.74,293.75,75.8,293,75.59,292.07Z"/><path class="cls-1" d="M89.55,268.71a1.45,1.45,0,0,1,.43.55,1.61,1.61,0,0,1,0,.9.82.82,0,0,1-1.34.41,1.19,1.19,0,0,1-.28-.31,1.53,1.53,0,0,1,0-1.26c.22-.57.72-.76,1.12-.35Z"/><path class="cls-1" d="M79.25,250.57a1.56,1.56,0,0,1-.42-.56,1.49,1.49,0,0,1,0-.89.81.81,0,0,1,1.34-.41,1.05,1.05,0,0,1,.28.31,1.53,1.53,0,0,1,0,1.26c-.22.57-.72.75-1.12.35Z"/><path class="cls-1" d="M90.84,210.73a1.32,1.32,0,0,1-.42-1.67.88.88,0,0,1,.72-.48.86.86,0,0,1,.41.19,1.27,1.27,0,0,1,.39,1.64.86.86,0,0,1-.72.48A.74.74,0,0,1,90.84,210.73Z"/><path class="cls-1" d="M84.06,204.85a1.35,1.35,0,0,1,.13-.6c.25-.57.83-.82,1.24-.41a1.22,1.22,0,0,1,.28,1.49c-.27.61-.88,1-1.3.57A1.71,1.71,0,0,1,84.06,204.85Z"/><path class="cls-1" d="M89.29,193.46a1.11,1.11,0,0,1,.12-.43c.26-.6.89-.91,1.32-.45a1.31,1.31,0,0,1,.37.95A1.09,1.09,0,0,1,91,194c-.27.6-.9.91-1.32.45A1.34,1.34,0,0,1,89.29,193.46Z"/><path class="cls-1" d="M80,157.62a1.32,1.32,0,0,1,.12-.43c.27-.6.9-.91,1.32-.45a1.32,1.32,0,0,1,.38.95,1.11,1.11,0,0,1-.12.43c-.27.6-.9.91-1.32.45A1.38,1.38,0,0,1,80,157.62Z"/><path class="cls-1" d="M84.21,174.76a1.05,1.05,0,0,1,.28.31,1.46,1.46,0,0,1,.07,1,.82.82,0,0,1-1.34.41,1.19,1.19,0,0,1-.28-.31,1.49,1.49,0,0,1-.07-1.05A.82.82,0,0,1,84.21,174.76Z"/><path class="cls-1" d="M77,172.81a1.14,1.14,0,0,1,1.51.32l0,.06a5.68,5.68,0,0,1,.49.59,1.44,1.44,0,0,1,0,1.28c-.29.67-.67.89-1.19.5a2.15,2.15,0,0,1-1.11-1.5C76.73,173.62,76.71,173.06,77,172.81Z"/><path class="cls-1" d="M74.68,172.52a1.64,1.64,0,0,1-.34-1.72.37.37,0,0,1,.48-.14,2.25,2.25,0,0,1,1.31.83c.7,1,.52,1.76-.3,1.74a1.11,1.11,0,0,1-.82-.32Z"/><path class="cls-1" d="M72.82,128q.32-.1.78.45a7,7,0,0,1,.49.59,1.43,1.43,0,0,1,0,1.29c-.28.67-.66.88-1.18.5A3.37,3.37,0,0,1,72,130,1.43,1.43,0,0,1,72.82,128Z"/><path class="cls-1" d="M70,125.73a1.13,1.13,0,0,1,1.38,1l0,.07c.18.85-.31,1.79-1,1.66a1.44,1.44,0,0,1-1.05-.9A1.29,1.29,0,0,1,70,125.73Z"/><path class="cls-1" d="M70.82,124.05a1.24,1.24,0,0,1,.34-1,5.13,5.13,0,0,1,.43-.58.75.75,0,0,1,1,0,1.14,1.14,0,0,1,.43,1.53,4.44,4.44,0,0,1-.55,1C71.92,125.74,71,125,70.82,124.05Z"/><path class="cls-1" d="M89,117.08c.14-.23.27-.49.5-.59a.8.8,0,0,1,.68.07,1.27,1.27,0,0,1,.35,1.65,1.11,1.11,0,0,1-.28.41.83.83,0,0,1-1-.1,1,1,0,0,1-.29-1.36Z"/><path class="cls-1" d="M68,98.1a1.3,1.3,0,0,1,.11-.43c.27-.61.9-.91,1.33-.45a1.21,1.21,0,0,1,.26,1.38c-.27.6-.9.91-1.33.45A1.37,1.37,0,0,1,68,98.1Z"/><path class="cls-1" d="M69.23,86.72a.73.73,0,0,1,.41.18A1.27,1.27,0,0,1,70,88.55a.82.82,0,0,1-.72.47.73.73,0,0,1-.4-.18,1.26,1.26,0,0,1-.39-1.64A.83.83,0,0,1,69.23,86.72Z"/><path class="cls-1" d="M62,81.25a1.26,1.26,0,0,1-.43-1.45.82.82,0,0,1,1.34-.4.87.87,0,0,1,.27.3,1.56,1.56,0,0,1,0,1.27c-.21.57-.71.75-1.12.35Z"/><path class="cls-1" d="M52.41,77.34a1.49,1.49,0,0,1-.13.59c-.25.57-.83.83-1.24.42a1.36,1.36,0,0,1-.42-.94,1.32,1.32,0,0,1,.14-.56c.27-.61.88-1,1.3-.56A1.67,1.67,0,0,1,52.41,77.34Z"/><path class="cls-1" d="M61.33,66.5a1.45,1.45,0,0,1,.42-.54.73.73,0,0,1,.75,0,1.27,1.27,0,0,1,.35,1.65,1.11,1.11,0,0,1-.28.41.76.76,0,0,1-.81,0A1.1,1.1,0,0,1,61.33,66.5Z"/><path class="cls-1" d="M50,50.57c.14-.23.27-.49.5-.59a.8.8,0,0,1,.68.07,1.27,1.27,0,0,1,.35,1.65,1.11,1.11,0,0,1-.28.41.83.83,0,0,1-1-.1,1,1,0,0,1-.29-1.36Z"/><path class="cls-1" d="M31.47,27.91a1.37,1.37,0,0,1-.41-1.69.89.89,0,0,1,.75-.54.86.86,0,0,1,.41.19,1.28,1.28,0,0,1,.39,1.64A.9.9,0,0,1,32,28,.74.74,0,0,1,31.47,27.91Z"/><path class="cls-1" d="M35.61,19.49a.76.76,0,0,1,.41.18,1.3,1.3,0,0,1,.39,1.65.72.72,0,0,1-1.19.25A1.21,1.21,0,0,1,34.78,20,1,1,0,0,1,35.61,19.49Z"/><path class="cls-1" d="M16.91,6.26a1.53,1.53,0,0,1-.26-1.63.49.49,0,0,1,.62-.23,3,3,0,0,1,.58.17,2,2,0,0,1,1.06,1.55c.08.48-.13.79-.59.83a1.44,1.44,0,0,1-1.08-.35C17.13,6.5,17,6.38,16.91,6.26Z"/><path class="cls-1" d="M5.6,2.18c.14-.23.27-.49.5-.59a.8.8,0,0,1,.68.07,1.27,1.27,0,0,1,.35,1.65,1.11,1.11,0,0,1-.28.41.83.83,0,0,1-1-.1,1,1,0,0,1-.29-1.36Z"/><path class="cls-1" d="M.41,2a1.05,1.05,0,0,1-.28-.31,1.41,1.41,0,0,1-.06-1A.81.81,0,0,1,1.4.2a1,1,0,0,1,.28.31,1.47,1.47,0,0,1,.07,1A.81.81,0,0,1,.41,2Z"/><path class="cls-1" d="M38.66,25.25a1,1,0,0,1,.57.22A1.18,1.18,0,0,1,39.58,27a.93.93,0,0,1-.71.55.92.92,0,0,1-.52-.22,1.25,1.25,0,0,1-.48-1.59A1,1,0,0,1,38.66,25.25Z"/></svg>