<svg id="Layer_1" data-name="Layer 1" xmlns="http://www.w3.org/2000/svg" xmlns:xlink="http://www.w3.org/1999/xlink" viewBox="0 0 375 95"><defs><style>.cls-1{fill:none;}.cls-2{clip-path:url(#clip-path);}.cls-3{fill:#fcebce;}</style><clipPath id="clip-path"><rect class="cls-1" width="375" height="95"/></clipPath></defs><g class="cls-2"><path class="cls-3" d="M-110.07,92.65c-.21-.65-1.05-.34-.62-.91.79-1.06-1.06-.43-.33-1.4.34-.46,2,1,2.33,1.4s.44.27,1,.41c1.09.28,1.7.46,1.31-1.81-.11-.35.46.52.88.43a2.17,2.17,0,0,0,1.31-.92c.43-.57.34-1-.73-1.26a.93.93,0,0,0-.68.08,2.35,2.35,0,0,0-.86.79,1.85,1.85,0,0,0-.11.31,1.79,1.79,0,0,1-.76,1.09,2,2,0,0,1-2.74-1.11,5.54,5.54,0,0,1-.28-1,1.36,1.36,0,0,1,0-.75,2.66,2.66,0,0,1,1.44-1.27,28.38,28.38,0,0,1,4.11-1c1.36-.26,3,.86,4.35,1.2a1.16,1.16,0,0,0,.64,0c1.68-.49,1.86-2.67,3.59-3.05a3.45,3.45,0,0,0,2.13-1.34l.69-1a5.53,5.53,0,0,0,.75-4.78L-93.2,75A4.34,4.34,0,0,1-93,71.36,7.88,7.88,0,0,1-92,70.07c1.08-1.21,3.37-1.35,3.85.1a5.26,5.26,0,0,1,.15.53,6.47,6.47,0,0,1-.66,4.79l-.14.22a2.18,2.18,0,0,0-.2,1.81,3.07,3.07,0,0,0,1.83,1.82c1.78.74,3.5,1.55,5.27,2.3,1.27.54,3.71.24,3.34-.91-.87-3.73-2-7.39-3.23-11.06-.19-.61,1.23-.7,1.92-.41a25.33,25.33,0,0,0,2.63,1c.58.26,1.21.34,1.59.78a2.38,2.38,0,0,0,1.23.68c.84.22,1.26-.24,1.31-1.25A1.56,1.56,0,0,1-71.89,69,1.64,1.64,0,0,1-70,70c.21.66.43,1.33.61,1.92.08.24.47.42.87.59s.78.35,1,0l0,0a2.68,2.68,0,0,0,.66-2,1.91,1.91,0,0,0-.88-1.67c-1.45-.83-3.69-1.44-2.49-2.52s3.16-.88,3.91-2.11a1.72,1.72,0,0,0,0-1.37,3.72,3.72,0,0,0-1.84-2c-1.19-.67-1.74-2.14-.4-2.58a6.49,6.49,0,0,1,.7-.18,5.72,5.72,0,0,1,3.63.47c.67.34,1.39.71,2.2,1.1,1.09.52,2,1.22,2.19,2.26a4.51,4.51,0,0,0,.79,2.3,2.1,2.1,0,0,0,1.9,1,.92.92,0,0,0,.39-.28,1.61,1.61,0,0,0,.31-1.34,4.85,4.85,0,0,1,.67-3.4c.2-.26.38-.54.57-.81a5.81,5.81,0,0,1,3-2.46c1.34-.43,2.73-.68,4.11-1A7.27,7.27,0,0,0-44.16,54a19.9,19.9,0,0,0,1.7-2.35A2.69,2.69,0,0,0-42,50.46c.14-1.67,2.22-2.52,4-1.79l1,.4a4.25,4.25,0,0,0,4.89-1.14c.49-.66,1-1.3,1.43-1.92a1.81,1.81,0,0,1,1.39-.92,1.59,1.59,0,0,1,.43.06,1.4,1.4,0,0,1,1.11,1.2c0,.3.07.68.12,1a1.31,1.31,0,0,0,.33.69A1.57,1.57,0,0,0-25,48a2.51,2.51,0,0,0,.08-2c-.4-1.23-.71-2.2-1.11-3.42-.11-.35-.22-.7-.3-1a2.8,2.8,0,0,1,.67-2.24c1.36-1.82,4.37-2.61,4.79-.49,0,.22.08.45.13.68A4.51,4.51,0,0,0-18.68,42a4.16,4.16,0,0,0,.61.35c2.83,1.47,5.88,2.62,9,4a6.07,6.07,0,0,0,1.28.48A1.62,1.62,0,0,0-6,45.75a1.27,1.27,0,0,0-.13-1.07,2.51,2.51,0,0,1-.24-.46,1.82,1.82,0,0,0-1.05-1.06,7.71,7.71,0,0,1-2.93-2A7.14,7.14,0,0,0-13,38.76a4.16,4.16,0,0,1-1.56-1.1,5.87,5.87,0,0,1-1.07-3.15c-.07-.87-.4-2.29.61-2.51l4.87-1.09a2.5,2.5,0,0,1,3,1.42,2.36,2.36,0,0,1,.09.52c.08.86.56,1.23,1.56,1.48.71.11,1.17-.52,1.88-1.46a1.78,1.78,0,0,1,2-.77c.77.34,1,1.09,1.3,1.78C.21,35.23,2,34.66,3,33.5a4.44,4.44,0,0,1,2.35-1.33L14,30.23c1.34-.3,3,.79,4.32,1.13a5,5,0,0,0,3.76-.84,1.74,1.74,0,0,0,.7-1.11c0-.56.27-1.6.86-1.33,2,.87,3.85,1.5,5.49,2.44.62.27-.23,1.1-.91,1.25l-1.69.38a2.92,2.92,0,0,0-1.78,1.1c-.55.78-.65,1.08-.44,1.55A13.29,13.29,0,0,0,25,36.11c.4.69,1,.83,2.12.78a6.28,6.28,0,0,0,1.43-.23,3.76,3.76,0,0,0,1.85-1.07A1.59,1.59,0,0,0,30.63,34l-.33-1c-.24-.74.65-1,1.13-1.69.31-.4.61-.81.94-1.23a3.19,3.19,0,0,1,3.69-.69l.8.36a1.72,1.72,0,0,1,.92,2.57,1.28,1.28,0,0,0,.81,2.05,3.15,3.15,0,0,0,3.19-1.18,13.17,13.17,0,0,1,2.57-2.27c.93-.58,2.28-.79,2.72-1.68a1.94,1.94,0,0,0,.16-1.12c-.08-.55-.42-1-.39-1.52,0-1.15,1.74-1.73,3.08-2L56,23.22a1.37,1.37,0,0,1,1.7.84.64.64,0,0,1,0,.6,2.62,2.62,0,0,1-1.54.89l-1.75.39c-1.89.43-4.07,1.44-3.88,3.07a7.67,7.67,0,0,0,.72,2.09c.58,1.26,2.43,3.12,2.74,1.8a1.15,1.15,0,0,0,0-.33c.08-.8-.47-1.46-.08-2.34a4.16,4.16,0,0,1,.26-.65,1.37,1.37,0,0,1,2.21-.52,10.51,10.51,0,0,1,.88,1.57c1.07,1.76,1.32,1.7,3.54,1.21l2.36-.53a4.52,4.52,0,0,0,2.66-1.64c2-2.27,2.89-2.48,5.87-1.57,1.63.42,3.22-.39,2.79-1.76,0-.05,0-.11,0-.16-.47-1.47,0-2.09,1.8-2.76,1.48-.59,3.29-.21,3.91.7.49.58.49,1.27.85,1.88a.93.93,0,0,0,.31.4,3.36,3.36,0,0,0,2.3.35l3.66-.81A3.16,3.16,0,0,0,89,25c1-1.15,2.81-2,3.52-.71a4.76,4.76,0,0,0,1.32,1.88,3.16,3.16,0,0,0,2.39.1c1-.24,2.24-.63,2.41-1.52a1.23,1.23,0,0,0,0-.19c.23-2.52,2.54-3,5.22-1.82l3.77,1.68a2.11,2.11,0,0,1,1.17,1.23c.14.43.27.83.4,1.25.22.67-.55,1.3-1.12,1.8a7.91,7.91,0,0,1-1.41,1c-.51.29-.36.76-.24,1.1a2.06,2.06,0,0,0,.68,1,1.45,1.45,0,0,0,2-.35,2.05,2.05,0,0,0,.28-.45,1.4,1.4,0,0,0,0-.76,6.47,6.47,0,0,0-.46-1.48c-.31-.72.55-1,1-1.66a13.42,13.42,0,0,1,6.52-3.81l4-.89a3.31,3.31,0,0,1,1.56.14c.43.16.18.41,0,.77a3.19,3.19,0,0,1-.44.78,2.08,2.08,0,0,1-.88.43c-1.12.37-2.55.49-3.92.8a4.4,4.4,0,0,0-.73.22c-1.16.48-.87,1.77-.65,2.83a12,12,0,0,0,.27,1.19c.5,1.75,3.17,1.8,4.35.29.31-.4.59-.82.87-1.24a3.75,3.75,0,0,1,4.4-1.06h0a3.36,3.36,0,0,0,2,.12c1.85-.41,3.84.48,4.33,2,.05.14.09.27.13.4s.47.42.86.6.79.34,1,0l0,0a2.73,2.73,0,0,0,.67-2,1.94,1.94,0,0,0-.83-1.63c-1.45-.9-4.06-1.75-2.54-2.55.86-.42,1.79-.8,2.63-1.27,2.15-1.22,3-1.09,5.53-1.65a3.28,3.28,0,0,1,2.74.17,2.36,2.36,0,0,1,1.26,2.86c-.78,1.29-1.76,2.49-2.65,3.73-.6.84-.38,2.48.79,2.43a3,3,0,0,0,.31,0c.31,0,.61-.08.91-.13,2.82-.49,4.12-3.49,7-3.76h.08c1.42.05,1.62.89,1.72,1.72a2.9,2.9,0,0,1-.43,1.87,2.32,2.32,0,0,0,1.2,3.38l.07,0c1.34.6,3.28.26,3.4-1,0-1-.71-2.19-1.1-3.42s2.14-1.55,3.4-1l1.31.58A3.84,3.84,0,0,1,161,31a1,1,0,0,0,.07.15,2.78,2.78,0,0,0,1.35,1.11l.64.3c1.4.67.68,2.61.35,3.92,0,.11,2.36,1.66,2.5.22-.08.8-.2-.26-.05-.82.31-1.11-.47-1.46-1.57-.69l-.06,0c-.88.68,1.2,2.38,1.68,1.47.94-1.26.66-1.76.89-2.07l1-1.39a2.87,2.87,0,0,1,3.07-.67,2.45,2.45,0,0,0,2.59-.57l.08-.07c.78-.79,2.24-1.12,2.84-.23a8.76,8.76,0,0,1,.91,2.77c-1.11,3.86-1.25,5.53-.25,6l.25.1c2,.86,0,3.36,1.48,2a3.4,3.4,0,0,1,2.38-1,3,3,0,0,1,1.33.29l.11.05c1.57.7,4.08.94,5.14-.25a4,4,0,0,1,1.74-1c1.06-.31,2.23-.57,3.05.43,1.26,1.81-.74,3,1.74,2.7a5.14,5.14,0,0,1,1.92,0c.71.19,2-1.33,2.19-.74.36,1.13.13.47-.74,1.38-.64.66-.74,1-1.33,1.62-.83.92,1.5.79,2,1.86a2.1,2.1,0,0,0,.13.26,2.65,2.65,0,0,0,1.2,1c1.52.79,3.81.46,2.86,1.73l-1.39,1.87c-.24.32-.94.21-1.26.28a1.37,1.37,0,0,0-1.49-1.5,6.36,6.36,0,0,0-1.37,0,5.53,5.53,0,0,0-2.46.5.1.1,0,0,0-.05,0c-.72.48-.46,1.32.36,1.67a3.35,3.35,0,0,0,1.86.08c1.07-.19,2.18-.59,3.15-.81.08,1.29,1.26,1.82,2.59,1.78,2.16-.06,5.21-.43,5.77,1.3v0c.08.24.47.42.86.59s.79.35,1,0a1.8,1.8,0,0,1,.19-.21,2.06,2.06,0,0,0,.53-1.59,2,2,0,0,0-2.13-2.23c-.91-.09-2.45-.59-2-1.23.55-1,1.26-.85,1.94-1.69s2.29-1.44,3-.69a1.62,1.62,0,0,1,.23.37,8.66,8.66,0,0,1,1,2.21,2.15,2.15,0,0,0,.39.75c.58.73,1.75.23,2.37-.48.86-1,2.51-1.34,3.3-.32.43.55.78,1.15,1.23,1.67.88,1,1.88,2.71,1.15,3.83a1.5,1.5,0,0,0-.21,1.34c.21.66.42,1.32.64,2a4.65,4.65,0,0,0,2.34,2.6,4.67,4.67,0,0,1,2.35,2.6l2.76,8.56c.24.74.86,1.64,1.8,1.43a2.65,2.65,0,0,0,1.07-1.06,1.65,1.65,0,0,0,.06-1c0-.29-.1-.57-.13-.86-.11-1.24,1.7-1.5,2.95-.83l.69.37a2.05,2.05,0,0,1,.93,2.83A1.17,1.17,0,0,0,237,76.6c1.14.48,2.58-.09,3.88-.06s1.89,1.15,2.22,2.16c.16.5.32,1,.48,1.52.33,1,.78,2,2,1.92,2-.15,3.88-1.72,5.63-.94l.68.31a3.48,3.48,0,0,1,1.55,1.19,15.23,15.23,0,0,1,1.63,4.63,4.05,4.05,0,0,1-.51,3.51c-.58.77-.54.93-.28,1.81ZM193.42,45.9c-1.42-.64-1.9,1.1-1.48,2.4.49,1.53.54,1.2,1,2.73,0,.12.23.2.45.28a2,2,0,0,0,1.38.18c.94-.34.85-1.53.58-2.36-.57-1.77-.21-.93-.78-2.71C194.52,46.18,193.82,46.07,193.42,45.9ZM-99.23,91.34c1.76.8,4.43.21,3.76-1.38a2,2,0,0,0-.38-.59c-.88-1-2.7-1.09-4.13-.73a2.72,2.72,0,0,0-.66.24C-101.78,89.49-100.43,90.79-99.23,91.34ZM99.13,27.16c1.83-.28,2.57,2,.82,2.55C98,30.29,97.09,27.47,99.13,27.16ZM78.68,30.38c0,.41.53.67.93.9a.87.87,0,0,0,.55.17L83,30.82c.32-.07.47-.63.71-.94.37-.5-.45-1-1.13-1.19-1.27-.28-3.17.31-3.73,1.33A.87.87,0,0,0,78.68,30.38ZM213.05,60.81a.79.79,0,0,0-.17.39.82.82,0,0,0,.45.68,1.21,1.21,0,0,0,1.55-.37.65.65,0,0,0-.28-1.06A1.21,1.21,0,0,0,213.05,60.81ZM48.14,35.64c.36-.44.1-1-.47-1.28a.92.92,0,0,0-.37-.09,1.21,1.21,0,0,0-.9.36c-.43.39-.15,1,.42,1.24.12.05.25.14.37.2C47.48,36.21,47.8,36.07,48.14,35.64ZM-6.23,37.7a1.19,1.19,0,0,0,.38.27,1.23,1.23,0,0,0,1.57-.33.71.71,0,0,0,0-.78,1,1,0,0,0-.38-.26,1.21,1.21,0,0,0-1.56.33A.71.71,0,0,0-6.23,37.7ZM-38.09,54.5a1,1,0,0,0,.38.26,1.21,1.21,0,0,0,1.56-.33.71.71,0,0,0,0-.77,1,1,0,0,0-.38-.26,1.21,1.21,0,0,0-1.57.32A.71.71,0,0,0-38.09,54.5Zm-24.7,12.43a1,1,0,0,0-.38-.27,1.22,1.22,0,0,0-1.56.33.71.71,0,0,0,0,.78,1,1,0,0,0,.38.26,1.21,1.21,0,0,0,1.56-.33A.69.69,0,0,0-62.79,66.93Zm-25.56,18.5a.76.76,0,0,0,.17-.39.8.8,0,0,0-.45-.67,1.2,1.2,0,0,0-1.55.36.81.81,0,0,0-.18.39.81.81,0,0,0,.46.68A1.21,1.21,0,0,0-88.35,85.43Z"/><path class="cls-3" d="M130.21,17.93c.67,2.08.76,4.88-1.81,5.15h-.22c-2,.18-2.67.08-3.14-1.39-.6-1.89,2.19-3.12,4.46-3.61Z"/><path class="cls-3" d="M92.51,12.25A2.73,2.73,0,0,1,96.24,12a.85.85,0,0,1,.21.87,7,7,0,0,1-1.5,2.8,2.8,2.8,0,0,1-3.8.15.9.9,0,0,1-.2-1A8.43,8.43,0,0,1,92.51,12.25Z"/><path class="cls-3" d="M61.63,25.25c-.3-.25-.56-.75-.34-1l1.22-1.63a3.28,3.28,0,0,1,3.76-.79,3.07,3.07,0,0,0,1,.18c.31,0,.61,0,.91-.06.68,0,1.11,0,1.23.27s-.16,1-.44,1.37-.46.32-.77.45a15.64,15.64,0,0,1-6.08,1.32C61.87,25.34,61.78,25.37,61.63,25.25Z"/><path class="cls-3" d="M249.05,62.14a1.9,1.9,0,0,1-1.37,0,3.6,3.6,0,0,1-1.42-1.07c-1.22-1.69,2.12-2.41,4.21-1.48,1.18.53,1.57.7,1.41,1.26a1.92,1.92,0,0,1-1.69,1.25A6.09,6.09,0,0,0,249.05,62.14Z"/><path class="cls-3" d="M227,51.84c1.12-1.34,4.28-1.81,4.13-.18a1.41,1.41,0,0,1-.05.27,3.63,3.63,0,0,1-2.86,2.27,2.75,2.75,0,0,1-1.17,0C225.93,54,226.33,52.63,227,51.84Z"/><path class="cls-3" d="M150.13,24.43c-1.4-.05-.39-1.75,1-2.05s1,.32,2.43,0a1.16,1.16,0,0,1,.86.21c.63.37,1.15,1.43.4,1.6C152.67,24.93,152.56,24.67,150.13,24.43Z"/><path class="cls-3" d="M72.43,21.08a3.09,3.09,0,0,1-4-1.83,2.38,2.38,0,0,1-.06-.37,1.93,1.93,0,0,1,0-.41c.14-.94,2-1,3-.61l1.27.56c.9.41,1.54,1.62.77,2.19a5.54,5.54,0,0,1-.59.32A2.49,2.49,0,0,1,72.43,21.08Z"/><path class="cls-3" d="M45.19,17.55c2-.81,3,1.54,1.8,3.09a2.17,2.17,0,0,1-2.43,1,1.29,1.29,0,0,1-.71-.76,2.5,2.5,0,0,1,1.08-3.22Z"/><path class="cls-3" d="M231.79,61.34c-.47-1.47.16-2.65,1.25-2.37s1.47.61,1.56,1.45a2.65,2.65,0,0,0,.1.55,1.61,1.61,0,0,1-.12,1.37c-.33.49-.73.75-1.3.5-.39-.18-1.09-.28-1.17-.52Z"/><path class="cls-3" d="M186.81,31.52a3.68,3.68,0,0,1,.61,1.24,1.57,1.57,0,0,1-.63,1.54c-1.1.77-2.36,0-2.83-1.46,0-.06,0-.12-.06-.2a1.63,1.63,0,0,1,.26-1.47,1.15,1.15,0,0,1,.49-.41,1.79,1.79,0,0,1,1.44.24A2.15,2.15,0,0,1,186.81,31.52Z"/><path class="cls-3" d="M175.74,16.36c-1.59-.06-.5-1.82,1-2.18a8.1,8.1,0,0,1,1-.18,2.93,2.93,0,0,1,1.18,0l.3.1c.83.34,1.13,1.22.42,1.7a3.77,3.77,0,0,1-1.23.49A9.79,9.79,0,0,1,175.74,16.36Z"/><path class="cls-3" d="M165.07.91a.78.78,0,0,1,0,.6,2.42,2.42,0,0,1-3.28,1,1.74,1.74,0,0,1-.62-.42c-.22-.32.07-.72.31-1a2.43,2.43,0,0,1,3-.79A1.05,1.05,0,0,1,165.07.91Z"/><path class="cls-3" d="M165.57,26.48c-1.88.42-3.37,0-3-.91a2,2,0,0,1,1.9-1.27,5.59,5.59,0,0,0,.7-.09,3.11,3.11,0,0,1,1.79.06c.58.24.87.55.54,1s-.39.87-.7.94Z"/><path class="cls-3" d="M154.5,11.93c-.47-1.47.16-2.65,1.25-2.37s1.47.61,1.56,1.45a2.54,2.54,0,0,0,.1.55,1.6,1.6,0,0,1-.12,1.37c-.33.49-.73.75-1.3.5-.39-.17-1.09-.28-1.17-.52Z"/><path class="cls-3" d="M130.21,17.93c-.23-.71-.66-1.51-.88-2.29a1.93,1.93,0,0,1,.21-1.76,1.41,1.41,0,0,1,1.94-.3,2,2,0,0,1,.68,1,4.79,4.79,0,0,1,0,2.1C132.09,17.51,131.23,18,130.21,17.93Z"/><path class="cls-3" d="M18.31,28.49c-1.62.36-3.55-.49-2.43-1.52l0,0a5,5,0,0,1,3.76-.84c1.62.41.43,2-1.21,2.37Z"/><path class="cls-3" d="M239.23,59.48a1.12,1.12,0,0,1-.41-.1c-.57-.26-.86-.85-.43-1.25a1.16,1.16,0,0,1,1.31-.25c.56.26.85.85.42,1.25A1.23,1.23,0,0,1,239.23,59.48Z"/><path class="cls-3" d="M259.36,59.36a1.48,1.48,0,0,1,.52-.4,1.44,1.44,0,0,1,.85,0,.77.77,0,0,1,.38,1.26.84.84,0,0,1-.29.27,1.49,1.49,0,0,1-1.19,0c-.54-.2-.71-.67-.33-1Z"/><path class="cls-3" d="M245.08,58.88a1,1,0,0,1-.41-.11c-.57-.25-.86-.85-.42-1.25a1.24,1.24,0,0,1,.89-.35,1.19,1.19,0,0,1,.41.11c.57.25.85.85.42,1.25A1.27,1.27,0,0,1,245.08,58.88Z"/><path class="cls-3" d="M248.26,51.94a1.35,1.35,0,0,1,.56.13c.53.23.78.78.39,1.16a1.24,1.24,0,0,1-.88.4,1.19,1.19,0,0,1-.53-.13c-.57-.26-1-.83-.53-1.23A1.58,1.58,0,0,1,248.26,51.94Z"/><path class="cls-3" d="M258.47,66.51a1,1,0,0,1-.38-.26.71.71,0,0,1,0-.78,1.22,1.22,0,0,1,1.57-.32,1,1,0,0,1,.38.26.71.71,0,0,1,0,.77A1.21,1.21,0,0,1,258.47,66.51Z"/><path class="cls-3" d="M4.71,23a.76.76,0,0,1-.17.39A1.21,1.21,0,0,1,3,23.76a.83.83,0,0,1-.45-.68.76.76,0,0,1,.17-.39,1.2,1.2,0,0,1,1.55-.36A.8.8,0,0,1,4.71,23Z"/><path class="cls-3" d="M138.51,8.77a.76.76,0,0,1,.17-.39A1.21,1.21,0,0,1,140.23,8a.79.79,0,0,1,.45.68.76.76,0,0,1-.17.39,1.2,1.2,0,0,1-1.55.36A.8.8,0,0,1,138.51,8.77Z"/><path class="cls-3" d="M226.88,60.29a1,1,0,0,1,.41.11c.57.25.86.84.42,1.24a1.23,1.23,0,0,1-.83.36,1.34,1.34,0,0,1-.53-.14c-.57-.25-.94-.82-.48-1.2A1.57,1.57,0,0,1,226.88,60.29Z"/><path class="cls-3" d="M205.12,17.92a.83.83,0,0,1,.47,1.47,1.26,1.26,0,0,1-.73.22,1,1,0,0,1-.41-.11c-.57-.25-.86-.84-.43-1.24A1.27,1.27,0,0,1,205.12,17.92Z"/><path class="cls-3" d="M210.78,34a1,1,0,0,1,.38.26.69.69,0,0,1,0,.77,1.19,1.19,0,0,1-1.56.33,1,1,0,0,1-.38-.26.71.71,0,0,1,0-.77A1.21,1.21,0,0,1,210.78,34Z"/><path class="cls-3" d="M198.62,36.91a1,1,0,0,1,.29-.26,1.33,1.33,0,0,1,1-.07.77.77,0,0,1,.38,1.26.81.81,0,0,1-.29.26,1.31,1.31,0,0,1-1,.07A.77.77,0,0,1,198.62,36.91Z"/><path class="cls-3" d="M200.68,14.13a1.38,1.38,0,0,1,.41.11c.57.26.86.85.42,1.25a1.2,1.2,0,0,1-.89.35,1,1,0,0,1-.41-.11c-.57-.25-.85-.84-.42-1.24A1.26,1.26,0,0,1,200.68,14.13Z"/><path class="cls-3" d="M212.92,45.91a1.23,1.23,0,0,1-1.57.39.82.82,0,0,1-.45-.68.73.73,0,0,1,.17-.38,1.22,1.22,0,0,1,1.56-.37.82.82,0,0,1,.45.68A.65.65,0,0,1,212.92,45.91Z"/><path class="cls-3" d="M188.31,25.77a.74.74,0,0,1,.18-.38A1.2,1.2,0,0,1,190,25a.8.8,0,0,1,.45.67.76.76,0,0,1-.17.39,1.22,1.22,0,0,1-1.56.37A.82.82,0,0,1,188.31,25.77Z"/><path class="cls-3" d="M183.61,27.74a1.21,1.21,0,0,1-.56-.13c-.54-.23-.78-.77-.39-1.16a1.24,1.24,0,0,1,.88-.4,1.53,1.53,0,0,1,.52.13c.58.26,1,.83.54,1.23A1.58,1.58,0,0,1,183.61,27.74Z"/><path class="cls-3" d="M173,15.14a1.23,1.23,0,0,1-.94-.33,4.19,4.19,0,0,1-.54-.4.71.71,0,0,1,0-1A1.07,1.07,0,0,1,173,13a4.54,4.54,0,0,1,1,.52C174.59,14.1,173.87,14.94,173,15.14Z"/><path class="cls-3" d="M5.74,10.6a1,1,0,0,1-.38-.26.71.71,0,0,1,0-.78,1.21,1.21,0,0,1,1.57-.32,1,1,0,0,1,.38.26.71.71,0,0,1,0,.77A1.21,1.21,0,0,1,5.74,10.6Z"/><path class="cls-3" d="M160,16.07a.81.81,0,0,1,.29-.26,1.3,1.3,0,0,1,1-.07.76.76,0,0,1,.38,1.26.81.81,0,0,1-.29.26,1.31,1.31,0,0,1-1,.07A.76.76,0,0,1,160,16.07Z"/><path class="cls-3" d="M147.39,23.2a1.18,1.18,0,0,1-.93-.32,3.69,3.69,0,0,1-.55-.4.71.71,0,0,1,0-1,1.07,1.07,0,0,1,1.44-.41,4.67,4.67,0,0,1,.92.49C149,22.13,148.28,23,147.39,23.2Z"/><path class="cls-3" d="M125.36,10a1.48,1.48,0,0,1,.52-.4,1.44,1.44,0,0,1,.85,0,.77.77,0,0,1,.38,1.26.73.73,0,0,1-.29.26,1.45,1.45,0,0,1-1.19,0c-.53-.2-.71-.67-.33-1.05Z"/><path class="cls-3" d="M108.25,19.75a1.37,1.37,0,0,1-.52.4,1.41,1.41,0,0,1-.84,0,.77.77,0,0,1-.39-1.26,1.2,1.2,0,0,1,.29-.26,1.45,1.45,0,0,1,1.19,0c.54.2.71.68.33,1.05Z"/><path class="cls-3" d="M81.69,12.83a1.23,1.23,0,0,1-1.57.39.82.82,0,0,1-.45-.68.73.73,0,0,1,.17-.38,1.21,1.21,0,0,1,1.55-.37.78.78,0,0,1,.45.68A.64.64,0,0,1,81.69,12.83Z"/><path class="cls-3" d="M65.14,15.22a1.34,1.34,0,0,1-.56-.12c-.53-.24-.77-.78-.39-1.17a1.27,1.27,0,0,1,.89-.4,1.34,1.34,0,0,1,.52.14c.58.25,1,.83.53,1.22A1.54,1.54,0,0,1,65.14,15.22Z"/><path class="cls-3" d="M54.41,10.29a1.19,1.19,0,0,1-.41-.11c-.57-.25-.85-.85-.42-1.25a1.27,1.27,0,0,1,.89-.35,1,1,0,0,1,.41.11c.57.25.86.85.42,1.25A1.24,1.24,0,0,1,54.41,10.29Z"/><path class="cls-3" d="M18.62,15a1.38,1.38,0,0,1-.41-.11c-.57-.26-.86-.85-.42-1.25a1.2,1.2,0,0,1,.89-.35,1.12,1.12,0,0,1,.41.1c.57.26.85.85.42,1.25A1.26,1.26,0,0,1,18.62,15Z"/><path class="cls-3" d="M36.78,15.08a.92.92,0,0,1,.29-.26,1.36,1.36,0,0,1,1-.07A.76.76,0,0,1,38.43,16a.77.77,0,0,1-.28.26,1.33,1.33,0,0,1-1,.07A.77.77,0,0,1,36.78,15.08Z"/><path class="cls-3" d="M34.94,21.87a1.08,1.08,0,0,1,.31-1.43l0,0a5,5,0,0,1,.55-.47,1.36,1.36,0,0,1,1.21,0c.63.27.84.63.47,1.12a2,2,0,0,1-1.42,1C35.71,22.13,35.18,22.15,34.94,21.87Z"/><path class="cls-3" d="M34.67,24.07a1.53,1.53,0,0,1-1.62.31c-.19-.09-.19-.27-.14-.45a2.13,2.13,0,0,1,.79-1.23c.94-.66,1.66-.49,1.63.28a1,1,0,0,1-.3.78Z"/><path class="cls-3" d="M89.93,88.65c-.21-.65-1.05-.34-.62-.91.79-1.06-1.06-.43-.33-1.4.34-.46,1.94,1,2.33,1.4s.44.27,1,.41c1.09.28,1.7.46,1.31-1.81-.11-.35.46.52.88.43a2.17,2.17,0,0,0,1.31-.92c.43-.57.34-1-.73-1.26a.93.93,0,0,0-.68.08,2.35,2.35,0,0,0-.86.79,1.85,1.85,0,0,0-.11.31,1.79,1.79,0,0,1-.76,1.09,2,2,0,0,1-2.74-1.11,5.54,5.54,0,0,1-.28-1,1.36,1.36,0,0,1,0-.75,2.66,2.66,0,0,1,1.44-1.27,28.38,28.38,0,0,1,4.11-1c1.36-.26,3,.86,4.35,1.2a1.16,1.16,0,0,0,.64,0c1.68-.49,1.86-2.67,3.59-3.05a3.45,3.45,0,0,0,2.13-1.34l.69-1a5.53,5.53,0,0,0,.75-4.78L106.8,71a4.34,4.34,0,0,1,.24-3.61,7.88,7.88,0,0,1,.94-1.29c1.08-1.21,3.38-1.35,3.85.1a5.26,5.26,0,0,1,.15.53,6.47,6.47,0,0,1-.66,4.79l-.14.22a2.18,2.18,0,0,0-.2,1.81,3.07,3.07,0,0,0,1.83,1.82c1.78.74,3.5,1.55,5.27,2.3,1.27.54,3.71.24,3.34-.91-.87-3.73-2-7.39-3.23-11.06-.19-.61,1.23-.7,1.92-.41a25.33,25.33,0,0,0,2.63,1,4.3,4.3,0,0,1,1.59.78,2.38,2.38,0,0,0,1.23.68c.84.22,1.26-.24,1.31-1.25A1.56,1.56,0,0,1,128.12,65,1.63,1.63,0,0,1,130,66c.21.66.43,1.33.61,1.92.08.24.48.42.87.59s.78.35,1,0c0,0,0,0,0,0a2.68,2.68,0,0,0,.66-2,1.91,1.91,0,0,0-.88-1.67c-1.45-.83-3.69-1.44-2.49-2.52s3.15-.88,3.91-2.11a1.72,1.72,0,0,0,0-1.37,3.76,3.76,0,0,0-1.84-2c-1.2-.67-1.74-2.14-.4-2.58a6.49,6.49,0,0,1,.7-.18,5.71,5.71,0,0,1,3.63.47c.67.34,1.39.71,2.2,1.1,1.09.52,2.05,1.22,2.19,2.26a4.6,4.6,0,0,0,.79,2.3,2.1,2.1,0,0,0,1.9,1,.92.92,0,0,0,.39-.28,1.61,1.61,0,0,0,.31-1.34,4.85,4.85,0,0,1,.67-3.4c.19-.26.39-.54.57-.81a5.81,5.81,0,0,1,3-2.46c1.34-.43,2.73-.68,4.11-1A7.27,7.27,0,0,0,155.84,50a21.12,21.12,0,0,0,1.7-2.35,2.69,2.69,0,0,0,.41-1.18c.14-1.67,2.22-2.52,4-1.79l1,.4a4.25,4.25,0,0,0,4.89-1.14c.49-.66,1-1.3,1.43-1.92a1.81,1.81,0,0,1,1.39-.92,1.59,1.59,0,0,1,.43.06,1.4,1.4,0,0,1,1.11,1.2c0,.3.07.68.12,1a1.31,1.31,0,0,0,.33.69A1.56,1.56,0,0,0,175,44a2.43,2.43,0,0,0,.08-2c-.39-1.23-.7-2.2-1.1-3.42-.11-.35-.22-.7-.3-1a2.77,2.77,0,0,1,.67-2.24c1.36-1.82,4.37-2.61,4.79-.49,0,.22.08.45.13.68A4.51,4.51,0,0,0,181.32,38a3.7,3.7,0,0,0,.61.35c2.83,1.47,5.88,2.62,9,4a6.07,6.07,0,0,0,1.28.48,1.62,1.62,0,0,0,1.75-1.1,1.27,1.27,0,0,0-.13-1.07,2.51,2.51,0,0,1-.24-.46,1.82,1.82,0,0,0-1.05-1.06,7.64,7.64,0,0,1-2.93-2A7.14,7.14,0,0,0,187,34.76a4.16,4.16,0,0,1-1.56-1.1,5.87,5.87,0,0,1-1.07-3.15c-.07-.87-.4-2.29.61-2.51l4.87-1.09a2.5,2.5,0,0,1,3,1.42,2.36,2.36,0,0,1,.09.52c.08.86.56,1.23,1.56,1.48.71.11,1.17-.52,1.88-1.46a1.78,1.78,0,0,1,2-.77c.77.34,1,1.09,1.3,1.78.57,1.35,2.35.78,3.35-.38a4.44,4.44,0,0,1,2.35-1.33L214,26.23c1.34-.3,3,.79,4.32,1.13a5,5,0,0,0,3.76-.84,1.74,1.74,0,0,0,.7-1.11c0-.56.27-1.6.87-1.33,1.95.87,3.84,1.5,5.48,2.44.62.27-.23,1.1-.91,1.25l-1.69.38a2.92,2.92,0,0,0-1.78,1.1c-.55.78-.65,1.08-.44,1.55a13.29,13.29,0,0,0,.65,1.31c.4.69,1,.83,2.12.78a6.28,6.28,0,0,0,1.43-.23,3.71,3.71,0,0,0,1.85-1.07,1.59,1.59,0,0,0,.24-1.57l-.33-1c-.24-.74.65-1,1.13-1.69.31-.4.61-.81.94-1.23a3.19,3.19,0,0,1,3.69-.69l.8.36a1.72,1.72,0,0,1,.92,2.57,1.28,1.28,0,0,0,.82,2.05,3.14,3.14,0,0,0,3.18-1.18,13.17,13.17,0,0,1,2.57-2.27c.93-.58,2.28-.79,2.72-1.68a1.94,1.94,0,0,0,.16-1.12c-.08-.55-.42-1-.39-1.52,0-1.15,1.73-1.73,3.08-2l6.1-1.36a1.39,1.39,0,0,1,1.71.84.67.67,0,0,1-.06.6,2.62,2.62,0,0,1-1.54.89l-1.75.39c-1.89.43-4.07,1.44-3.88,3.07a7.43,7.43,0,0,0,.73,2.09c.56,1.26,2.42,3.12,2.73,1.8a1.15,1.15,0,0,0,0-.33c.08-.8-.47-1.46-.08-2.34a4.16,4.16,0,0,1,.26-.65,1.37,1.37,0,0,1,2.21-.52,10.51,10.51,0,0,1,.88,1.57c1.07,1.76,1.32,1.7,3.54,1.21l2.36-.53a4.52,4.52,0,0,0,2.66-1.64c1.95-2.27,2.89-2.48,5.87-1.57,1.63.42,3.22-.39,2.79-1.76,0-.05,0-.11-.05-.16-.47-1.47,0-2.09,1.8-2.76,1.49-.59,3.29-.21,3.91.7.49.58.49,1.27.85,1.88a.93.93,0,0,0,.31.4,3.36,3.36,0,0,0,2.3.35l3.66-.81A3.19,3.19,0,0,0,289,21c1-1.15,2.81-2,3.52-.71a4.76,4.76,0,0,0,1.32,1.88,3.16,3.16,0,0,0,2.39.1c1.05-.24,2.24-.63,2.41-1.52a1.23,1.23,0,0,0,0-.19c.23-2.52,2.54-3,5.22-1.82l3.77,1.68a2.08,2.08,0,0,1,1.17,1.23c.14.43.27.83.4,1.25.22.67-.55,1.3-1.12,1.8a7.91,7.91,0,0,1-1.41,1c-.51.29-.36.76-.25,1.1a2.15,2.15,0,0,0,.69,1,1.45,1.45,0,0,0,2-.35,2.05,2.05,0,0,0,.28-.45,1.4,1.4,0,0,0,0-.76,6.47,6.47,0,0,0-.46-1.48c-.31-.72.55-1,1-1.66a13.42,13.42,0,0,1,6.52-3.81l4-.89a3.31,3.31,0,0,1,1.56.14c.43.16.18.41,0,.77a3.19,3.19,0,0,1-.44.78,2.08,2.08,0,0,1-.88.43c-1.12.37-2.55.49-3.92.8a4.4,4.4,0,0,0-.73.22c-1.16.48-.87,1.77-.65,2.83a12,12,0,0,0,.27,1.19c.5,1.75,3.17,1.8,4.35.29.31-.4.59-.82.87-1.24a3.76,3.76,0,0,1,4.4-1.06h0a3.36,3.36,0,0,0,2,.12c1.84-.41,3.84.48,4.33,2,0,.14.09.27.13.4s.47.42.86.6.79.34,1,0l0,0a2.73,2.73,0,0,0,.67-2,1.94,1.94,0,0,0-.83-1.63c-1.45-.9-4.06-1.75-2.54-2.55.86-.42,1.8-.8,2.63-1.27,2.15-1.22,3-1.09,5.53-1.65a3.28,3.28,0,0,1,2.74.17,2.36,2.36,0,0,1,1.26,2.86c-.78,1.29-1.76,2.49-2.65,3.73-.6.84-.38,2.48.79,2.43a3,3,0,0,0,.31,0c.31,0,.61-.08.91-.13,2.82-.49,4.12-3.49,7-3.76h.08c1.42.05,1.62.89,1.72,1.72a2.84,2.84,0,0,1-.43,1.87,2.32,2.32,0,0,0,1.2,3.38l.07,0c1.34.6,3.27.26,3.4-1,0-1-.71-2.19-1.1-3.42s2.14-1.55,3.4-1l1.31.58A3.84,3.84,0,0,1,361,27l.07.15a2.78,2.78,0,0,0,1.35,1.11l.64.3c1.4.67.68,2.61.35,3.92,0,.11,2.36,1.66,2.5.22-.08.8-.21-.26-.05-.82.31-1.11-.47-1.46-1.57-.69l-.06,0c-.88.68,1.2,2.38,1.68,1.47.94-1.26.66-1.76.89-2.07l1-1.39a2.87,2.87,0,0,1,3.07-.67,2.45,2.45,0,0,0,2.59-.57l.08-.07c.78-.79,2.24-1.12,2.84-.23a8.76,8.76,0,0,1,.91,2.77c-1.11,3.86-1.25,5.53-.25,6l.25.1c2,.86,0,3.36,1.47,2a3.45,3.45,0,0,1,2.39-1,3,3,0,0,1,1.33.29l.11.05c1.57.7,4.08.94,5.14-.25a4,4,0,0,1,1.74-1c1.06-.31,2.23-.57,3,.43,1.26,1.81-.74,3,1.74,2.7a5.14,5.14,0,0,1,1.92,0c.7.19,2-1.33,2.19-.74.36,1.13.13.47-.74,1.38-.64.66-.74,1-1.33,1.62-.83.92,1.5.79,2,1.86a2.1,2.1,0,0,0,.13.26,2.6,2.6,0,0,0,1.2,1c1.52.79,3.81.46,2.86,1.73l-1.39,1.87c-.24.32-.94.21-1.26.28a1.37,1.37,0,0,0-1.49-1.5,6.36,6.36,0,0,0-1.37,0,5.53,5.53,0,0,0-2.46.5.1.1,0,0,0,0,0c-.72.48-.46,1.32.36,1.67a3.35,3.35,0,0,0,1.86.08c1.07-.19,2.18-.59,3.15-.81.08,1.29,1.26,1.82,2.59,1.78,2.16-.06,5.21-.43,5.77,1.3v0c.08.24.47.42.86.59s.79.35,1,0a1.8,1.8,0,0,1,.19-.21,2.06,2.06,0,0,0,.53-1.59,2,2,0,0,0-2.13-2.23c-.91-.09-2.45-.59-2-1.23.55-1,1.26-.85,1.94-1.69s2.29-1.44,3-.69a1.62,1.62,0,0,1,.23.37,8.66,8.66,0,0,1,1,2.21,2.15,2.15,0,0,0,.39.75c.58.73,1.75.23,2.37-.48.86-1,2.51-1.34,3.3-.32.43.55.78,1.15,1.23,1.67.89,1,1.88,2.71,1.14,3.83a1.53,1.53,0,0,0-.2,1.34c.21.66.42,1.32.64,2a4.65,4.65,0,0,0,2.34,2.6,4.67,4.67,0,0,1,2.35,2.6l2.76,8.56c.23.74.86,1.64,1.8,1.43a2.65,2.65,0,0,0,1.07-1.06,1.65,1.65,0,0,0,.06-1c0-.29-.1-.57-.13-.86-.11-1.24,1.7-1.5,3-.83l.69.37a2.05,2.05,0,0,1,.93,2.83A1.17,1.17,0,0,0,437,72.6c1.14.48,2.58-.09,3.88-.06s1.89,1.15,2.22,2.16l.49,1.52c.31,1,.77,2,2,1.92,2-.15,3.88-1.72,5.63-.94l.68.31a3.48,3.48,0,0,1,1.55,1.19,15.23,15.23,0,0,1,1.63,4.63,4.05,4.05,0,0,1-.51,3.51c-.58.77-.54.93-.28,1.81ZM393.42,41.9c-1.42-.64-1.9,1.1-1.48,2.4.49,1.53.54,1.2,1,2.73,0,.12.23.2.45.28a2,2,0,0,0,1.38.18c.93-.34.85-1.53.58-2.36-.57-1.77-.21-.93-.78-2.71C394.52,42.18,393.82,42.07,393.42,41.9ZM100.77,87.34c1.77.8,4.43.21,3.76-1.38a2.27,2.27,0,0,0-.38-.59c-.88-1-2.7-1.09-4.13-.73a2.72,2.72,0,0,0-.66.24C98.22,85.49,99.57,86.79,100.77,87.34ZM299.13,23.16c1.83-.28,2.57,2,.82,2.55C298,26.29,297.09,23.47,299.13,23.16Zm-20.45,3.22c0,.41.53.67.93.9a.87.87,0,0,0,.55.17l2.82-.63c.32-.07.47-.63.71-.94.37-.5-.45-1-1.13-1.19-1.27-.28-3.17.31-3.73,1.33A.87.87,0,0,0,278.68,26.38ZM413.05,56.81a.79.79,0,0,0-.17.39.82.82,0,0,0,.45.68,1.21,1.21,0,0,0,1.55-.37.65.65,0,0,0-.28-1.06A1.21,1.21,0,0,0,413.05,56.81ZM248.14,31.64c.36-.44.1-1-.47-1.28a.92.92,0,0,0-.37-.09,1.21,1.21,0,0,0-.9.36c-.43.39-.15,1,.42,1.24.12.05.25.14.37.2C247.48,32.21,247.8,32.07,248.14,31.64ZM193.77,33.7a1.19,1.19,0,0,0,.38.27,1.23,1.23,0,0,0,1.57-.33.71.71,0,0,0,0-.78,1,1,0,0,0-.38-.26,1.21,1.21,0,0,0-1.56.33A.71.71,0,0,0,193.77,33.7ZM161.91,50.5a1,1,0,0,0,.38.26,1.21,1.21,0,0,0,1.56-.33.71.71,0,0,0,0-.77,1,1,0,0,0-.38-.26,1.21,1.21,0,0,0-1.57.32A.71.71,0,0,0,161.91,50.5Zm-24.7,12.43a1.09,1.09,0,0,0-.38-.27,1.22,1.22,0,0,0-1.56.33.71.71,0,0,0,0,.78,1,1,0,0,0,.38.26,1.21,1.21,0,0,0,1.56-.33A.69.69,0,0,0,137.21,62.93Zm-25.56,18.5a.76.76,0,0,0,.17-.39.8.8,0,0,0-.45-.67,1.2,1.2,0,0,0-1.55.36.65.65,0,0,0,.28,1.07A1.21,1.21,0,0,0,111.65,81.43Z"/><path class="cls-3" d="M121.86,53.07a2.55,2.55,0,0,1,3.37,1.08,8.12,8.12,0,0,1,.76,1.93,4.53,4.53,0,0,1-.76,3.71c-.14.21-.27.42-.39.62a1.74,1.74,0,0,0-.13,1.49c.14.44.26.84.39,1.24a1.2,1.2,0,0,1-1,1.48,1.5,1.5,0,0,1-1.79-.86c-.3-.93-.59-1.82-.88-2.75a3.84,3.84,0,0,1,.47-3.23,3.83,3.83,0,0,0,.47-3.23C122.19,54.09,122,53.61,121.86,53.07Z"/><path class="cls-3" d="M83.43,78.66c.43,1.36.83,2.6,1.24,3.88a2.78,2.78,0,0,1-.91,3.07,2.28,2.28,0,0,1-2.37.56,1.37,1.37,0,0,1-.86-2.06c.43-.73.25-1.88-.7-2A1.36,1.36,0,0,1,80,79.37h.25A13.09,13.09,0,0,0,83.43,78.66Z"/><path class="cls-3" d="M330.21,13.93c.67,2.08.76,4.88-1.81,5.15h-.22c-2,.18-2.67.08-3.14-1.39-.6-1.89,2.19-3.12,4.46-3.61Z"/><path class="cls-3" d="M289.51,8.25A2.73,2.73,0,0,1,293.24,8a.87.87,0,0,1,.21.87,7,7,0,0,1-1.5,2.8,2.8,2.8,0,0,1-3.8.15.9.9,0,0,1-.2-1A8.43,8.43,0,0,1,289.51,8.25Z"/><path class="cls-3" d="M261.63,21.25c-.3-.25-.56-.75-.34-1l1.22-1.63a3.28,3.28,0,0,1,3.76-.79,3.07,3.07,0,0,0,1,.18c.31,0,.61,0,.91-.06.68,0,1.11,0,1.23.27s-.17,1-.44,1.37-.46.32-.77.45a15.64,15.64,0,0,1-6.08,1.32C261.88,21.34,261.78,21.37,261.63,21.25Z"/><path class="cls-3" d="M165.94,35.7a2.21,2.21,0,0,1,0,1.85,7.84,7.84,0,0,1-1,1.5c-1,1.25-3.48,2-3.85.52a2.23,2.23,0,0,1,.51-2,17,17,0,0,0,1.29-2.07c1.1-1.81,1.41-1.88,2.43-.8A2.61,2.61,0,0,1,165.94,35.7Z"/><path class="cls-3" d="M161.94,32.35a2.17,2.17,0,0,1-1.9,2.52l-.87.19a2.66,2.66,0,0,1-1.48,0A2.38,2.38,0,0,1,156,32.89c-.16-1.53,0-2.09,1.88-2.51a3.55,3.55,0,0,1,2.19,0A2.64,2.64,0,0,1,161.94,32.35Z"/><path class="cls-3" d="M350.13,20.43c-1.4-.05-.39-1.75,1-2.05s1,.32,2.43,0a1.15,1.15,0,0,1,.86.21c.63.37,1.15,1.43.4,1.6C352.67,20.93,352.56,20.67,350.13,20.43Z"/><path class="cls-3" d="M272.43,17.08a3.09,3.09,0,0,1-4-1.83,2.38,2.38,0,0,1-.06-.37,1.93,1.93,0,0,1,0-.41c.14-.94,2-1.05,3-.61l1.27.56c.9.41,1.54,1.62.77,2.19a5.54,5.54,0,0,1-.59.32C272.62,17,272.52,17,272.43,17.08Z"/><path class="cls-3" d="M245.19,13.55c1.95-.81,2.95,1.54,1.8,3.09a2.17,2.17,0,0,1-2.43,1,1.29,1.29,0,0,1-.71-.76,2.5,2.5,0,0,1,1.08-3.22Z"/><path class="cls-3" d="M146.59,50.18c-2.16.44-2.14-2-.05-2.66a8.88,8.88,0,0,1,1.85-.36c1.83-.12,2.46,1.81.74,2.32-.69.2-1.44.34-2.16.58A2.4,2.4,0,0,1,146.59,50.18Z"/><path class="cls-3" d="M129.46,38.21c-1.78-.88-2.3-3.71-.24-3.51h.13A3.39,3.39,0,0,1,132.16,37a1.1,1.1,0,0,1-.26,1.13A2.2,2.2,0,0,1,129.46,38.21Z"/><path class="cls-3" d="M103.88,57.81a2.75,2.75,0,0,1-1.84-.17,2.71,2.71,0,0,1-1.27-1.2c-.77-1.64,2.09-2.26,3.93-1.39.22.1.44.17.66.25.85.27,1.21.66,1.07,1.15a2,2,0,0,1-2,1.28A2.89,2.89,0,0,0,103.88,57.81Z"/><path class="cls-3" d="M97.7,80.47c-.62.11-1-.3-1.41-.67l-.09-.06L94.47,79c-1-.43-1.53-1.6-.76-2.26a1.05,1.05,0,0,1,.31-.18,8.32,8.32,0,0,1,1.7-.45A2.46,2.46,0,0,1,98.5,77.5c.14.45.29.91.44,1.38C99.16,79.56,98.52,80.32,97.7,80.47Z"/><path class="cls-3" d="M89.53,78.3a2.06,2.06,0,0,1-2.87.76,3.61,3.61,0,0,0-3.23-.4,1.78,1.78,0,0,1,.27-1.9,4.26,4.26,0,0,1,3.8-1.1,2.67,2.67,0,0,1,2.09,2.13A.81.81,0,0,1,89.53,78.3Z"/><path class="cls-3" d="M110.38,50.52c.46-.15-.06-.18.37,0a3.51,3.51,0,0,1,1.42,1.07c1.22,1.69-1.12,2.4-3.21,1.47-1.18-.52-1.57-.69-1.41-1.25a1.91,1.91,0,0,1,1.69-1.25A7.14,7.14,0,0,0,110.38,50.52Z"/><path class="cls-3" d="M375.74,12.36c-1.59-.06-.5-1.82,1-2.18a8.1,8.1,0,0,1,1-.18,2.93,2.93,0,0,1,1.18,0l.3.1c.83.34,1.13,1.22.42,1.7a3.77,3.77,0,0,1-1.23.49A9.79,9.79,0,0,1,375.74,12.36Z"/><path class="cls-3" d="M367.07.91a.78.78,0,0,1,0,.6,2.42,2.42,0,0,1-3.28,1,1.74,1.74,0,0,1-.62-.42c-.22-.32.07-.72.31-1a2.43,2.43,0,0,1,3-.79A1.05,1.05,0,0,1,367.07.91Z"/><path class="cls-3" d="M365.57,22.48c-1.88.42-3.37,0-3-.91a2,2,0,0,1,1.9-1.27,5.59,5.59,0,0,0,.7-.09,3.11,3.11,0,0,1,1.79.06c.58.24.88.55.54,1s-.39.87-.7.94Z"/><path class="cls-3" d="M354.5,7.93c-.47-1.47.16-2.65,1.25-2.37s1.47.61,1.56,1.45a2.54,2.54,0,0,0,.1.55,1.6,1.6,0,0,1-.12,1.37c-.33.49-.73.75-1.3.5-.39-.17-1.09-.28-1.17-.52Z"/><path class="cls-3" d="M330.21,13.93c-.23-.71-.66-1.51-.88-2.29a1.93,1.93,0,0,1,.21-1.76,1.41,1.41,0,0,1,1.94-.3,2,2,0,0,1,.68,1,4.79,4.79,0,0,1,0,2.1C332.09,13.51,331.23,14,330.21,13.93Z"/><path class="cls-3" d="M218.31,24.49c-1.62.36-3.55-.49-2.43-1.52a.08.08,0,0,1,0,0,5,5,0,0,1,3.76-.84c1.62.41.42,2-1.21,2.37Z"/><path class="cls-3" d="M141.77,36.44c-.65-1.46-3.59-.8-3.28.72C138.85,38.88,142.49,38.07,141.77,36.44Z"/><path class="cls-3" d="M121.86,53.07c-1,.22-2.08.62-3.15.81a3.35,3.35,0,0,1-1.86-.08c-.82-.34-1.08-1.19-.36-1.67a3.51,3.51,0,0,1,1.22-.49,9.79,9.79,0,0,1,2.66-.07A1.37,1.37,0,0,1,121.86,53.07Z"/><path class="cls-3" d="M102.54,74.4c-2.24.5-4.59-1.54-2.31-1.91a11.13,11.13,0,0,1,1.66-.11,1.76,1.76,0,0,1,.65.05,2.84,2.84,0,0,1,.45.24c.25.16.44.38.37.63a1.67,1.67,0,0,1-.31.74A1,1,0,0,1,102.54,74.4Z"/><path class="cls-3" d="M89.59,62.56c0,1.41-2.43.35-2.83-1,0-.15-.07-.3-.1-.44a1.56,1.56,0,0,1,0-1,1.92,1.92,0,0,1,.23-.35,1.47,1.47,0,0,1,2-.35,2.2,2.2,0,0,1,.68,1A4.75,4.75,0,0,1,89.59,62.56Z"/><path class="cls-3" d="M105.26,42.29a6.16,6.16,0,0,1,1,.36c.15.22-.36.64-.51.94a1.2,1.2,0,0,1-1.56.32,1,1,0,0,1-.38-.26.71.71,0,0,1,0-.77A1.11,1.11,0,0,1,105.26,42.29Z"/><path class="cls-3" d="M204.71,19a.76.76,0,0,1-.17.39,1.21,1.21,0,0,1-1.55.37.83.83,0,0,1-.45-.68.76.76,0,0,1,.17-.39,1.2,1.2,0,0,1,1.55-.36A.8.8,0,0,1,204.71,19Z"/><path class="cls-3" d="M338.51,4.77a.76.76,0,0,1,.17-.39A1.21,1.21,0,0,1,340.23,4a.79.79,0,0,1,.45.68.76.76,0,0,1-.17.39,1.2,1.2,0,0,1-1.55.36A.8.8,0,0,1,338.51,4.77Z"/><path class="cls-3" d="M96.24,44.31a1,1,0,0,1,.4.11c.57.25.86.84.43,1.24a1.27,1.27,0,0,1-.84.36,1.34,1.34,0,0,1-.52-.14c-.58-.25-.94-.81-.49-1.2A1.6,1.6,0,0,1,96.24,44.31Z"/><path class="cls-3" d="M175,20.7a1.34,1.34,0,0,1-.52.42,1.39,1.39,0,0,1-.86,0,.76.76,0,0,1-.38-1.26.9.9,0,0,1,.28-.27,1.39,1.39,0,0,1,1-.05C175.15,19.74,175.39,20.24,175,20.7Z"/><path class="cls-3" d="M373,11.14a1.23,1.23,0,0,1-.94-.33,4.19,4.19,0,0,1-.54-.4.71.71,0,0,1,0-1A1.07,1.07,0,0,1,373,9a4.54,4.54,0,0,1,1,.52C374.59,10.1,373.87,10.94,373,11.14Z"/><path class="cls-3" d="M205.74,6.6a1,1,0,0,1-.38-.26.71.71,0,0,1,0-.78,1.21,1.21,0,0,1,1.56-.32,1,1,0,0,1,.39.26.69.69,0,0,1,0,.77A1.21,1.21,0,0,1,205.74,6.6Z"/><path class="cls-3" d="M360,12.07a.81.81,0,0,1,.29-.26,1.31,1.31,0,0,1,1-.07.76.76,0,0,1,.38,1.26.81.81,0,0,1-.29.26,1.3,1.3,0,0,1-1,.07A.77.77,0,0,1,360,12.07Z"/><path class="cls-3" d="M347.39,19.2a1.18,1.18,0,0,1-.93-.32,3.69,3.69,0,0,1-.55-.4.71.71,0,0,1,0-1,1.08,1.08,0,0,1,1.45-.41,4.87,4.87,0,0,1,.91.49C349,18.13,348.28,19,347.39,19.2Z"/><path class="cls-3" d="M325.36,6a1.48,1.48,0,0,1,.52-.4,1.44,1.44,0,0,1,.85,0,.77.77,0,0,1,.38,1.26.73.73,0,0,1-.29.26,1.45,1.45,0,0,1-1.19,0c-.53-.2-.71-.67-.33-1.05Z"/><path class="cls-3" d="M308.26,15.75a1.49,1.49,0,0,1-.53.4,1.41,1.41,0,0,1-.84,0,.76.76,0,0,1-.38-1.26,1,1,0,0,1,.28-.26,1.45,1.45,0,0,1,1.19,0c.54.2.71.68.33,1Z"/><path class="cls-3" d="M270.69,4.83a1.23,1.23,0,0,1-1.57.39.82.82,0,0,1-.45-.68.73.73,0,0,1,.17-.38,1.21,1.21,0,0,1,1.55-.37.78.78,0,0,1,.45.68A.64.64,0,0,1,270.69,4.83Z"/><path class="cls-3" d="M265.14,11.22a1.34,1.34,0,0,1-.56-.12c-.53-.24-.77-.78-.39-1.17a1.27,1.27,0,0,1,.89-.4,1.34,1.34,0,0,1,.52.14c.58.25,1,.83.54,1.22A1.59,1.59,0,0,1,265.14,11.22Z"/><path class="cls-3" d="M254.41,6.29a1.19,1.19,0,0,1-.41-.11c-.57-.25-.85-.85-.42-1.25a1.27,1.27,0,0,1,.89-.35,1,1,0,0,1,.41.11c.57.25.86.85.42,1.25A1.24,1.24,0,0,1,254.41,6.29Z"/><path class="cls-3" d="M220.62,15a1.38,1.38,0,0,1-.41-.11c-.57-.26-.86-.85-.42-1.25a1.2,1.2,0,0,1,.89-.35,1.12,1.12,0,0,1,.41.1c.57.26.85.85.42,1.25A1.26,1.26,0,0,1,220.62,15Z"/><path class="cls-3" d="M236.78,11.08a.92.92,0,0,1,.29-.26,1.36,1.36,0,0,1,1-.07.76.76,0,0,1,.38,1.26.77.77,0,0,1-.28.26,1.33,1.33,0,0,1-1,.07A.76.76,0,0,1,236.78,11.08Z"/><path class="cls-3" d="M234.94,17.87a1.08,1.08,0,0,1,.3-1.43l.06,0a5,5,0,0,1,.55-.47,1.36,1.36,0,0,1,1.21,0c.63.27.84.63.47,1.12a2,2,0,0,1-1.42,1C235.71,18.13,235.18,18.15,234.94,17.87Z"/><path class="cls-3" d="M234.66,20.07a1.51,1.51,0,0,1-1.61.31c-.19-.09-.19-.27-.14-.45a2.13,2.13,0,0,1,.79-1.23c.94-.66,1.65-.49,1.63.28a1.05,1.05,0,0,1-.3.78Z"/><path class="cls-3" d="M192.73,21.82c-.07-.2.08-.44.42-.73a5,5,0,0,1,.56-.47,1.36,1.36,0,0,1,1.21,0c.63.27.84.63.47,1.12a3.21,3.21,0,0,1-.8.84A1.34,1.34,0,0,1,192.73,21.82Z"/><path class="cls-3" d="M190.55,24.45a1.06,1.06,0,0,1,.9-1.3l.07,0c.8-.17,1.69.29,1.56,1a1.36,1.36,0,0,1-.84,1A1.22,1.22,0,0,1,190.55,24.45Z"/><path class="cls-3" d="M189,23.7a1.18,1.18,0,0,1-.93-.32,3.69,3.69,0,0,1-.55-.4.71.71,0,0,1,0-1,1.08,1.08,0,0,1,1.45-.41,4.45,4.45,0,0,1,.95.52C190.56,22.67,189.84,23.51,189,23.7Z"/><path class="cls-3" d="M182.4,6.55c-.22-.13-.47-.26-.56-.47a.76.76,0,0,1,.06-.65,1.22,1.22,0,0,1,1.56-.33,1,1,0,0,1,.38.27.77.77,0,0,1-.09.94.94.94,0,0,1-1.28.28Z"/><path class="cls-3" d="M164.5,26.35a1.38,1.38,0,0,1-.41-.11c-.57-.26-.86-.85-.42-1.25a1.2,1.2,0,0,1,.89-.35,1.17,1.17,0,0,1,.41.1c.57.26.85.85.42,1.25A1.26,1.26,0,0,1,164.5,26.35Z"/><path class="cls-3" d="M153.77,25.2a.71.71,0,0,1,.17-.39,1.2,1.2,0,0,1,1.55-.36.8.8,0,0,1,.45.67.76.76,0,0,1-.17.39,1.21,1.21,0,0,1-1.55.37A.78.78,0,0,1,153.77,25.2Z"/><path class="cls-3" d="M148.61,32a1.48,1.48,0,0,1-.52.4,1.41,1.41,0,0,1-.84,0,.77.77,0,0,1-.39-1.26.8.8,0,0,1,.29-.26,1.45,1.45,0,0,1,1.19,0c.54.2.71.67.33,1.05Z"/><path class="cls-3" d="M144.92,41.06a1.35,1.35,0,0,1,.56.13c.53.24.78.78.39,1.16a1.24,1.24,0,0,1-.88.4,1.19,1.19,0,0,1-.53-.13c-.57-.26-1-.83-.53-1.23A1.58,1.58,0,0,1,144.92,41.06Z"/><path class="cls-3" d="M134.7,32.65a1.29,1.29,0,0,1-.51-.4.68.68,0,0,1,0-.7,1.21,1.21,0,0,1,1.56-.33,1,1,0,0,1,.38.26.71.71,0,0,1,0,.77A1,1,0,0,1,134.7,32.65Z"/><path class="cls-3" d="M119.68,43.35c-.21-.13-.46-.26-.55-.47a.76.76,0,0,1,.06-.65,1.22,1.22,0,0,1,1.56-.33,1,1,0,0,1,.38.27.77.77,0,0,1-.09.94.94.94,0,0,1-1.28.28Z"/><path class="cls-3" d="M98.32,60.81a1.31,1.31,0,0,1-1.6.39.82.82,0,0,1-.5-.71.76.76,0,0,1,.17-.39,1.19,1.19,0,0,1,1.55-.36.84.84,0,0,1,.45.59A.73.73,0,0,1,98.32,60.81Z"/><path class="cls-3" d="M90.38,56.91a.76.76,0,0,1,.17-.39,1.21,1.21,0,0,1,1.55-.37.85.85,0,0,1,.45.63.89.89,0,0,1-.21.49,1.15,1.15,0,0,1-1.49.42A1,1,0,0,1,90.38,56.91Z"/><path class="cls-3" d="M77.9,74.53a1.44,1.44,0,0,1-1.53.25.46.46,0,0,1-.23-.58,4.42,4.42,0,0,1,.17-.55,1.92,1.92,0,0,1,1.46-1,.59.59,0,0,1,.78.56,1.36,1.36,0,0,1-.33,1A3.13,3.13,0,0,1,77.9,74.53Z"/><path class="cls-3" d="M74.06,85.2c-.22-.13-.47-.26-.56-.47a.74.74,0,0,1,.06-.64,1.21,1.21,0,0,1,1.56-.33.89.89,0,0,1,.38.26.79.79,0,0,1-.08,1,1,1,0,0,1-1.29.28Z"/><path class="cls-3" d="M73.85,90.09a.8.8,0,0,1-.29.26,1.33,1.33,0,0,1-1,.07.77.77,0,0,1-.38-1.26.81.81,0,0,1,.29-.26,1.33,1.33,0,0,1,1-.07A.77.77,0,0,1,73.85,90.09Z"/><path class="cls-3" d="M95.81,54a.93.93,0,0,1,.21-.54,1.12,1.12,0,0,1,1.42-.33.88.88,0,0,1,.52.67.89.89,0,0,1-.21.49,1.19,1.19,0,0,1-1.5.46A.93.93,0,0,1,95.81,54Z"/></g></svg>