<svg id="Layer_1" data-name="Layer 1" xmlns="http://www.w3.org/2000/svg" viewBox="0 0 47 67">
    <defs>
        <style>
            .cls-1 {
                fill: #663A72;
            }
        </style>
    </defs>
    <path class="cls-1" d="M19.34,11.73l.9.81c.6.28,1.2,0,1.8-1.08v-4l-.9-.82c-.6-.27-1.2,0-1.8,1.09Z" />
    <path class="cls-1"
        d="M30.61,66c.6.82,1.2,1.37,1.8.82l.9-.82c0-1.63,1.91-2.83,1.91-4.46-.6-.82-1.2-1.09-1.8-.82l-.9.82C32.52,63.13,30.61,64.33,30.61,66Z" />
    <path class="cls-1"
        d="M27.47,44.09c.6,1.37,3.6,1.37,4.5,0a.48.48,0,0,0,0-.81c-.6-1.36-3.6-1.36-4.5,0C27.17,43.55,27.47,43.82,27.47,44.09Z" />
    <path class="cls-1" d="M36.28,56.21c2.1-1.64,2.1-3.27,0-5.18C34.18,52.94,34.18,54.57,36.28,56.21Z" />
    <path class="cls-1"
        d="M36.41,22.34c0-1.64-.9-2.73-1.8-2.18a1.65,1.65,0,0,0-.9,2.18v1.09c.6.81,1.2,1.36,1.8.81.3-.27.9-.54.9-.81C36.71,23.43,36.41,22.88,36.41,22.34Z" />
    <path class="cls-1" d="M1.8.1C1.2-.17.6.1,0,.92l.9.82c.6.27,1.2,0,1.8-.82C3,.92,2.4.65,1.8.1Z" />
    <path class="cls-1" d="M22.55,14.26c-.6-.28-1.2,0-1.8.81l.9.82c.6.27,1.2,0,1.8-.82Z" />
    <path class="cls-1" d="M21.8,23.32l.9-.81c-.6-.82-1.2-1.09-1.8-.82l-.9.82C20.6,23.32,21.2,23.6,21.8,23.32Z" />
    <path class="cls-1" d="M34.14,32.68l.9-.82c-.6-.81-1.2-1.09-1.8-.81l-.9.81A1.37,1.37,0,0,0,34.14,32.68Z" />
    <path class="cls-1" d="M13.5,4.4c-.3.54,0,1.09.9,1.63l.9-.81c.3-.55,0-1.09-.9-1.64Z" />
    <path class="cls-1" d="M28.67,62.89c-.6-.27-1.2,0-1.8.82l.9.81c.6.28,1.2,0,1.8-.81Z" />
    <path class="cls-1"
        d="M45.71,36.61c.3-.55,0-1.09-.9-1.64l-.9.82c-.3.55,0,1.09.9,1.64C45.11,37.43,45.41,36.88,45.71,36.61Z" />
    <path class="cls-1" d="M46.1,56.7l.9-.82c-.6-.82-1.2-1.09-1.8-.82l-.9.82C44.9,56.7,45.5,57,46.1,56.7Z" />
    <path class="cls-1" d="M34.43,39.1l.9-.81c-.6-.82-1.2-1.09-1.8-.82l-.9.82C32.93,39.38,33.53,39.38,34.43,39.1Z" />
    <path class="cls-1" d="M37,12l-.9-.82c-.9.55-1.2,1.09-.9,1.63l.9.82C37,13.4,37.31,12.85,37,12Z" />
    <path class="cls-1" d="M40,8c.6.27,1.2,0,1.8-.82l-.9-.81c-.6-.28-1.2,0-1.8.81Z" />
    <path class="cls-1" d="M46.13,14.28l-.89-.81c-.9.54-1.2,1.09-.9,1.63l.9.82C46.13,15.37,46.43,14.83,46.13,14.28Z" />
    <path class="cls-1"
        d="M28.74,12.63c-.3.55,0,1.09.9,1.64l.9-.82c.3-.55,0-1.09-.9-1.64C29.64,11.54,29,12.36,28.74,12.63Z" />
    <path class="cls-1"
        d="M39.28,43.41c.6.27,1.19,0,1.79-.82l-.9-.82c-.59-.27-1.19,0-1.79.82C38.08,42.59,39,43.13,39.28,43.41Z" />
    <path class="cls-1" d="M38.51,29.42l.9-.82c-.6-.82-1.2-1.09-1.8-.82l-.9.82C37,29.69,37.61,29.69,38.51,29.42Z" />
    <path class="cls-1" d="M23.21,31.6l.9-.82c-.6-.82-1.2-1.09-1.8-.82l-.9.82C22,31.6,22.61,31.87,23.21,31.6Z" />
    <path class="cls-1" d="M30.05,3c-.6-.27-1.2,0-1.8.82l.9.82c.6.27,1.2,0,1.8-.82Z" />
</svg>