<svg xmlns="http://www.w3.org/2000/svg" viewBox="0 0 151.02 3.23" preserveAspectRatio="none">
    <defs>
        <style>
            .cls-1 {
                fill: #fff;
            }
        </style>
    </defs>
    <path class="cls-1" d="M106.1.4c-.14-.18-.15-.1,0,0Z" />
    <path class="cls-1"
        d="M127.92.87c-9.73,0-6.74-.34-7.51-.47h-3.35c0-.16,0-.08,0,0h-.43a0,0,0,0,1,0,0,1.16,1.16,0,0,0-.8,0h-.84a8.54,8.54,0,0,0-1.89,0c-1.92,0-3.86,0-5.77.07A1.47,1.47,0,0,1,106.1.4a2.53,2.53,0,0,1,.23.37c-2.41.08-4.64.12-7.06.25A27.86,27.86,0,0,1,94.1.66a18.81,18.81,0,0,0-2.33-.3C90.08.29,88.38.23,86.7.27c-2.44.13-4.88.26-7.25.28-2.53,0-4.9.07-7.36,0C66.92.29,33,.21,27.82,0a9.15,9.15,0,0,0-2.43.13L19,.63c-1.3,0-2.6,0-3.9,0L8.74.79C6.37.9,4,.92,1.63,1c-.15,0-.38,0-.53,0-.91,0-1,.17-1.07.79l0,.39L0,2.27c.21,1.26.43-.37.72.87.2.45.69-1.06,1.12-.57a1,1,0,0,0,.86.18,54.76,54.76,0,0,1,8-.58c1.62.09,3.17.19,4.78.27a25.93,25.93,0,0,0,2.91,0c1.14-.1,2.29-.1,3.43-.19L26.08,2C29,1.74,60.81,1.78,63.7,1.63c2.13-.15,4.11-.69,6.14-.31a25.86,25.86,0,0,0,4.28-.11c5-.3,10,.4,15,.21,1.76-.06,3.55.18,5.32.22a32.56,32.56,0,0,0,7.11-.14,22.52,22.52,0,0,1,2.6-.07c.83,0,1.68-.08,2.53-.14,1.51.65,15.25,1,17.32.89a104.27,104.27,0,0,1,11.8.22c4.93.28,3,.06,7.93,0,.69,0,7.34.26,7.3-.4C150,.57,130.69.88,127.92.87Z" />
</svg>