<svg xmlns="http://www.w3.org/2000/svg" viewBox="0 0 152 3" preserveAspectRatio="none">
    <defs>
        <style>
            .cls-1 {
                fill: #fff;
            }
        </style>
    </defs>
    <path class="cls-1"
        d="M0,1.67C0,1.08.2.94,1.7.91c.24,0,.63,0,.87,0C6.45.78,10.35.77,14.23.68,17.74.63,21.13.61,24.64.57c2.14,0,4.29,0,6.42,0L41.53.16a25.59,25.59,0,0,1,4-.12c8.49.19,24,.43,32.56.72,4,.07,7.94.07,12.09,0,3.9,0,7.89-.12,11.89-.24,2.76,0,5.55,0,8.34.11,1.26,0,2.57.2,3.85.3a78.26,78.26,0,0,0,8.54.38c4-.11,5.15-.69,9.12-.77a49.13,49.13,0,0,0,5.61.5A40.65,40.65,0,0,0,142.18,1,50.76,50.76,0,0,1,149,.86c.78.08,1.64-.26,2.2,0,.85.36,1-.47.76.16s-1.5-.17-2.42.17a12,12,0,0,1-3.17.06c-2.39,0-4.39.23-6.76.3-2.88,0-5.86.2-8.74.25-1.38,0-2.91-.05-4.27.06a90.88,90.88,0,0,1-11.67.1c-2.91,0-5.87-.29-8.75-.24-8.14.15-16.26,0-24.5.24a71.6,71.6,0,0,1-7.18-.43c-3.38-.38-6.57.13-10.06.27-4.74.13-16.84-.07-21.56.16-2.37.07-4.74.14-7,.18-1.86.09-3.75.08-5.62.17-1.62,0-3.24.1-4.77,0L17.56,2q-6.61,0-13.07.52a2.93,2.93,0,0,1-1.44-.18c-.76-.48-1.42,1-1.79.55C.68,1.71.45,3.29,0,2.07l.12,0Z" />
</svg>