<svg id="Layer_1" data-name="Layer 1" xmlns="http://www.w3.org/2000/svg" viewBox="0 0 327 4" preserveAspectRatio="none">
    <defs>
        <style>
            .cls-1 {
                fill: #fff;
            }
        </style>
    </defs>
    <path class="cls-1"
        d="M.08,2.23C.11,1.45.46.59,2.7.55,3.06.5,3.64.55,4,.5,19,.55,19.48.21,21,.21c2-.16,2,1,15.91.55,3.17,0,6.38.05,9.56,0L62.08.21a42.91,42.91,0,0,1,6-.16C80.65.3,163.68.6,176.32,1c6,.1,11.82.09,18,0,5.81,0,11.78-.17,17.74-.32,4.12,0,8.26.05,12.4.14,1.88,0,3.81.27,5.71.4,4.16.22,8.38.69,12.66.5,6-.16,11.46-.19,17.39-.29a26.07,26.07,0,0,0,4.57-.08,67.87,67.87,0,0,0,7-.12c3.18-.05,6.84-.51,10.1-.17,1.15.11,4.77-.32,5.57,0,1.23.49,1.51-.62,1.12.21-.21.81-4.51-.23-5.92.22a19.56,19.56,0,0,1-4.72.08c-3.57,0-6.57.31-10.11.4-4.3.06-8.76.28-13.06.34-2.05,0-4.32-.07-6.35.08A153.16,153.16,0,0,1,231,2.5c-4.33-.06-8.7-.38-13-.32-12.14.21-24.37-.72-36.67-.35-3.54.09-7.24.33-10.47.11-5-.49-9.8.18-15,.37-7.08.17-85-.06-92,.24-3.54.09-7.08.18-10.44.25-2.79.11-5.6.1-8.39.22-2.42.07-4.84.14-7.11,0-4-.11-7.74-.25-11.7-.37q-9.84,0-19.53.7a4.39,4.39,0,0,1-2.11-.24c-1.07-.63-2.26,1.31-2.75.73C1.06,2.29.52,4.39,0,2.77l.18,0Z" />
    <path class="cls-1"
        d="M261,1.28c3.48-.08,6.8-.26,10.28-.34h9.4c1.16.16-3.37.63,11.36.59,4.19,0,33.43-1.41,34.94.45.06.85-10,.5-11.05.53-7.4.07-7,1.07-14.43.71-13.3-.51-12.14-.1-15.41,0S260.38,2.9,259.7,2C259.52,1.75,258.56,1.81,261,1.28Z" />
</svg>