<svg id="Layer_1" data-name="Layer 1" xmlns="http://www.w3.org/2000/svg" viewBox="0 0 669 209"><defs><style>.cls-1{fill:#fff;}</style></defs><path class="cls-1" d="M1.7,0c2.48,3.32,5-2.1,3.9,4.11-.2.62.82-.93,1.57-.76A3.85,3.85,0,0,1,9.51,5c.76,1,.6,1.83-1.31,2.25A1.62,1.62,0,0,1,7,7.08a4.16,4.16,0,0,1-1.53-1.4,4.24,4.24,0,0,1-.21-.55A3.16,3.16,0,0,0,3.91,3.18c-1.84-1-3-.15-3.64,1.6-.8,2.14.19,5.28,3,5.9a25.53,25.53,0,0,0,5.2,1.66c2.42.46,5.38-1.53,7.75-2.14a2.11,2.11,0,0,1,1.14,0c3,.88,3.32,4.75,6.41,5.43A6.21,6.21,0,0,1,27.56,18l1.22,1.85a9.85,9.85,0,0,1,1.34,8.52c-.33,1-.67,2.08-1,3.12a7.67,7.67,0,0,0,.41,6.42,14.33,14.33,0,0,0,1.68,2.29c1.92,2.17,6,2.41,6.88-.18.1-.31.18-.62.25-.94a11.49,11.49,0,0,0-1.17-8.52l-.24-.4a3.78,3.78,0,0,1-.36-3.22,5.5,5.5,0,0,1,3.26-3.25c3.17-1.31,6.25-2.75,9.4-4.09,2.27-1,6.62-.43,6,1.61-1.55,6.65-3.65,13.18-5.76,19.7-.35,1.1,2.19,1.26,3.41.74a44.18,44.18,0,0,1,4.7-1.73c1-.46,2.15-.6,2.83-1.38a4.16,4.16,0,0,1,2.21-1.23c1.48-.38,2.24.43,2.34,2.23a2.73,2.73,0,0,0,2.21,2.52,2.91,2.91,0,0,0,3.43-1.65L71.66,37c.14-.43.84-.74,1.54-1s1.39-.62,1.81-.06l.06.07a4.84,4.84,0,0,1,1.19,3.54,3.41,3.41,0,0,1-1.57,3C72.1,44,68.1,45,70.25,47c2.07,1.68,5.62,1.56,7,3.76a3,3,0,0,1,0,2.44A6.57,6.57,0,0,1,74,56.64c-2.13,1.2-3.1,3.81-.71,4.6a9.14,9.14,0,0,0,1.25.31A10.24,10.24,0,0,0,81,60.72c1.2-.6,2.49-1.26,3.93-2,1.94-.93,3.65-2.17,3.91-4a7.93,7.93,0,0,1,1.41-4.1c.76-1,2-2.06,3.37-1.76a1.61,1.61,0,0,1,.71.5,2.86,2.86,0,0,1,.54,2.38A8.71,8.71,0,0,0,96,57.81c.34.48.68,1,1,1.46a10.37,10.37,0,0,0,5.36,4.36c2.39.77,4.88,1.22,7.34,1.76a12.81,12.81,0,0,1,6.82,3.45,34.13,34.13,0,0,1,3,4.19,4.66,4.66,0,0,1,.74,2.09c.24,3,4,4.5,7.17,3.19l1.78-.71c3.1-1.26,6.9-.4,8.72,2,.88,1.18,1.72,2.31,2.56,3.42a3.18,3.18,0,0,0,2.47,1.64,3.32,3.32,0,0,0,.77-.1,2.5,2.5,0,0,0,2-2.14c.05-.54.13-1.21.23-1.74a2.39,2.39,0,0,1,.58-1.24c1-1.11,3.38-1.18,4.1.09a4.46,4.46,0,0,1,.14,3.51l-2,6.09c-.2.62-.4,1.24-.54,1.87a4.89,4.89,0,0,0,1.18,4c2.43,3.24,7.81,4.65,8.55.88.08-.4.15-.81.23-1.21.38-1.86,2-3.31,3.74-4.51a6.88,6.88,0,0,1,1.09-.63c5-2.61,10.49-4.66,16.08-7.14a11.57,11.57,0,0,1,2.28-.86,2.93,2.93,0,0,1,3.13,2,2.28,2.28,0,0,1-.24,1.9,4.54,4.54,0,0,0-.42.82,3.27,3.27,0,0,1-1.88,1.89,13.3,13.3,0,0,0-5.21,3.59c-1.39,1.66-2.55,3.3-4.7,4.25a7.4,7.4,0,0,0-2.79,2,10.57,10.57,0,0,0-1.92,5.61c-.11,1.54-.69,4.07,1.1,4.47l8.69,1.93c2.3.52,4.66-.62,5.28-2.53a4.81,4.81,0,0,0,.17-.92c.13-1.53,1-2.19,2.77-2.64,1.26-.19,2.1.93,3.35,2.61.79,1.06,2.26,2,3.58,1.36s1.78-1.92,2.31-3.16c1-2.4,4.19-1.39,6,.67a8,8,0,0,0,4.19,2.38l15.49,3.45c2.4.53,5.34-1.41,7.72-2a9,9,0,0,1,6.7,1.5,3.06,3.06,0,0,1,1.25,2c.06,1,.48,2.85,1.54,2.38,3.5-1.55,6.85-2.67,9.79-4.35,1.1-.49-.42-2-1.62-2.23l-3-.67a5.25,5.25,0,0,1-3.17-2c-1-1.38-1.15-1.92-.78-2.75a22.89,22.89,0,0,1,1.15-2.33c.72-1.23,1.79-1.49,3.78-1.39a11,11,0,0,1,2.56.41,6.7,6.7,0,0,1,3.3,1.9,2.8,2.8,0,0,1,.42,2.8c-.19.59-.39,1.2-.58,1.8-.42,1.31,1.16,1.85,2,3,.54.73,1.08,1.45,1.67,2.19a5.66,5.66,0,0,0,6.58,1.23l1.42-.63c2-.9,2.75-2.91,1.64-4.58a2.29,2.29,0,0,1,1.46-3.65,5.6,5.6,0,0,1,5.67,2.09,23.34,23.34,0,0,0,4.6,4.05c1.65,1,4.06,1.41,4.84,3a3.42,3.42,0,0,1,.3,2c-.15,1-.76,1.72-.72,2.71.11,2.06,3.11,3.08,5.5,3.62l10.9,2.42a2.46,2.46,0,0,0,3-1.5,1.16,1.16,0,0,0-.09-1.06,4.74,4.74,0,0,0-2.75-1.59l-3.13-.7c-3.38-.75-7.25-2.57-6.92-5.46a13.31,13.31,0,0,1,1.3-3.72c1-2.24,4.32-5.55,4.88-3.21a2.68,2.68,0,0,1,.06.59c.14,1.43-.84,2.61-.14,4.16a9.53,9.53,0,0,0,.46,1.17c.72,1.5,2.84,2.24,3.95.92a20.2,20.2,0,0,0,1.58-2.79c1.9-3.14,2.35-3,6.31-2.15l4.2.93a8.08,8.08,0,0,1,4.74,2.92c3.49,4,5.16,4.41,10.48,2.8,2.91-.74,5.74.69,5,3.14l-.09.28c-.84,2.61,0,3.73,3.21,4.91,2.65,1.06,5.87.37,7-1.24.86-1,.86-2.26,1.5-3.34a1.69,1.69,0,0,1,.56-.71,5.93,5.93,0,0,1,4.11-.64l6.51,1.45a5.48,5.48,0,0,1,3.16,1.63c1.81,2,5,3.58,6.28,1.27.67-1.22,1.18-2.57,2.35-3.35s2.82-.49,4.27-.17c1.87.42,4,1.11,4.3,2.7,0,.11,0,.23,0,.34.41,4.49,4.52,5.36,9.31,3.23l6.72-3a3.74,3.74,0,0,0,2.09-2.19c.25-.76.48-1.49.72-2.23.38-1.19-1-2.32-2-3.21a15,15,0,0,0-2.51-1.76c-.91-.5-.64-1.34-.44-2a3.8,3.8,0,0,1,1.21-1.85,2.61,2.61,0,0,1,3.53.62,4.16,4.16,0,0,1,.49.81,2.57,2.57,0,0,1,0,1.35,10.88,10.88,0,0,1-.83,2.64c-.54,1.28,1,1.8,1.86,3a24.06,24.06,0,0,0,11.64,6.79L410.3,125a5.92,5.92,0,0,0,2.77-.25c.77-.27.32-.73,0-1.36a5.92,5.92,0,0,0-.79-1.4,3.61,3.61,0,0,0-1.57-.76c-2-.67-4.55-.88-7-1.42a7.46,7.46,0,0,1-1.29-.4c-2.08-.85-1.56-3.14-1.17-5,.14-.7.27-1.42.47-2.11.9-3.12,5.67-3.21,7.77-.52.56.71,1.06,1.45,1.56,2.2,1.54,2.32,4.91,2.94,7.84,1.9l.07,0a6.14,6.14,0,0,1,3.5-.22c3.29.74,6.84-.84,7.72-3.57.08-.25.16-.49.23-.72.14-.43.84-.74,1.54-1s1.4-.62,1.82-.07c0,0,0,0,.06.08a4.82,4.82,0,0,1,1.18,3.53,3.47,3.47,0,0,1-1.48,2.92c-2.58,1.59-7.24,3.11-4.53,4.54,1.54.73,3.21,1.42,4.7,2.26,3.83,2.16,5.39,1.95,9.86,2.94,1.68.37,3.35.75,4.89-.31,2.24-1.37,2.94-3.54,2.24-5.09-1.39-2.3-3.13-4.44-4.72-6.65-1.08-1.5-.68-4.42,1.42-4.32a5,5,0,0,1,.54.06c.55,0,1.09.13,1.62.22,5,.87,7.36,6.22,12.47,6.7h.14c2.54-.08,2.89-1.57,3.07-3.06a5,5,0,0,0-.77-3.33c-1.37-2.12-.41-4.88,2.14-6l.13,0c2.39-1.06,5.84-.47,6.06,1.78,0,1.86-1.26,3.91-2,6.09s3.82,2.77,6.07,1.77l2.33-1a6.82,6.82,0,0,0,3.34-3.36l.12-.25a4.92,4.92,0,0,1,2.42-2l1.13-.53c2.5-1.19,1.22-4.64.63-7-.05-.2,4.21-3,4.46-.39-.14-1.43-.37.46-.09,1.45.56,2-.84,2.61-2.8,1.24l-.11-.08c-1.57-1.2,2.14-4.23,3-2.61,1.67,2.24,1.17,3.13,1.58,3.69l1.86,2.47c1.07,1.44,3.61,1.86,5.48,1.19a4.38,4.38,0,0,1,4.62,1l.13.14c1.4,1.39,4,2,5.08.4s1.14-3.23,1.61-4.93c-2-6.88-2.22-9.85-.44-10.61l.44-.19c3.57-1.52,0-6,2.64-3.46a6.11,6.11,0,0,0,4.26,1.77,5.43,5.43,0,0,0,2.36-.52l.19-.08c2.81-1.25,7.28-1.68,9.19.44a6.82,6.82,0,0,0,3.08,1.85c1.9.55,4,1,5.46-.75,2.23-3.22-1.32-5.4,3.09-4.83a8.77,8.77,0,0,0,3.43,0c1.26-.33,3.56,2.37,3.9,1.31.65-2,.23-.83-1.32-2.45-1.13-1.18-1.32-1.71-2.37-2.88-1.47-1.64,2.68-1.41,3.57-3.32.08-.16.15-.31.24-.47a4.78,4.78,0,0,1,2.13-1.78c2.72-1.4,6.8-.82,5.11-3.07-.86-1.16-1.67-2.25-2.49-3.33-.42-.56-1.67-.38-2.23-.5a2.45,2.45,0,0,1-2.66,2.67,12,12,0,0,1-2.45,0c-1.52-.12-3.16-.12-4.38-.88l-.11-.07c-1.27-.85-.81-2.36.66-3a6.08,6.08,0,0,1,3.31-.14c1.91.33,3.9,1,5.63,1.44.14-2.3,2.23-3.23,4.61-3.17,3.85.1,9.3.77,10.29-2.32a.14.14,0,0,0,0-.06c.14-.44.84-.75,1.54-1.06s1.4-.62,1.82-.06a3,3,0,0,0,.34.39,3.6,3.6,0,0,1,.93,2.83c-.13,2.63-1.19,3.7-3.79,4-1.62.16-4.36,1-3.5,2.2,1,1.71,2.25,1.51,3.47,3s4.08,2.56,5.3,1.22a3,3,0,0,0,.4-.66,14.91,14.91,0,0,0,1.73-3.94,4.17,4.17,0,0,1,.69-1.32c1-1.3,3.13-.42,4.24.84,1.53,1.75,4.47,2.39,5.88.58.77-1,1.4-2,2.19-3,1.58-1.85,3.36-4.83,2-6.82a2.73,2.73,0,0,1-.37-2.39l1.14-3.54a8.35,8.35,0,0,1,4.18-4.63,8.34,8.34,0,0,0,4.19-4.63L604.22,33c.42-1.31,1.54-2.92,3.22-2.55a4.79,4.79,0,0,1,1.9,1.89,2.89,2.89,0,0,1,.11,1.84c-.08.51-.18,1-.23,1.53-.2,2.21,3,2.68,5.26,1.48l1.23-.66a3.64,3.64,0,0,0,1.65-5,2.08,2.08,0,0,1,.78-2.9c2-.85,4.59.16,6.92.11s3.37-2.05,4-3.86c.29-.88.57-1.77.87-2.7.57-1.77,1.38-3.59,3.58-3.42,3.51.28,6.93,3.06,10,1.68l1.22-.55a15.11,15.11,0,0,0,7.15-5.59c1.81-2.75,14.6-1.38,16.38-5.32.6-2,1.34-4.47,0-6.25-1-1.37-1.87-1.11-1.41-2.68ZM540.37,83.25c-2.54,1.13-3.39-2-2.65-4.28.88-2.73,1-2.13,1.85-4.86.06-.21.4-.36.8-.5a3.61,3.61,0,0,1,2.45-.33c1.67.61,1.52,2.74,1,4.21-1,3.16-.38,1.66-1.4,4.82C542.33,82.75,541.07,82.94,540.37,83.25ZM18.35,2.34C21.5.9,26.26,2,25.06,4.78a3.88,3.88,0,0,1-.68,1.06c-1.56,1.8-4.82,1.94-7.37,1.3a5.77,5.77,0,0,1-1.17-.42C13.8,5.63,16.22,3.31,18.35,2.34ZM372.17,116.61c3.27.5,4.6-3.61,1.47-4.54C370.15,111,368.53,116.06,372.17,116.61Zm-36.48-5.74c0-.71,1-1.19,1.67-1.59a1.53,1.53,0,0,1,1-.3l5,1.12c.56.12.84,1.12,1.26,1.68.66.88-.8,1.85-2,2.12-2.27.49-5.66-.56-6.66-2.38A1.84,1.84,0,0,1,335.69,110.87ZM575.38,56.69a1.37,1.37,0,0,1-.3-.69,1.42,1.42,0,0,1,.8-1.21,2.17,2.17,0,0,1,2.77.66,1.41,1.41,0,0,1,.31.68,1.44,1.44,0,0,1-.81,1.21A2.16,2.16,0,0,1,575.38,56.69ZM281.23,101.51c.64.78.16,1.83-.84,2.28a1.89,1.89,0,0,1-.66.17,2.24,2.24,0,0,1-1.62-.64c-.76-.71-.25-1.76.76-2.21.22-.1.45-.26.67-.36C280.05,100.5,280.62,100.75,281.23,101.51Zm-97-3.67a1.69,1.69,0,0,1,.68-.47c1-.45,2.34-.3,2.78.59a1.25,1.25,0,0,1,0,1.38,1.74,1.74,0,0,1-.68.46,2.16,2.16,0,0,1-2.79-.58A1.27,1.27,0,0,1,184.25,97.84ZM127.41,67.93a1.78,1.78,0,0,1,.68-.46c1-.46,2.34-.3,2.78.58a1.25,1.25,0,0,1,0,1.38,1.84,1.84,0,0,1-.68.47c-1,.45-2.34.3-2.79-.59A1.23,1.23,0,0,1,127.41,67.93Zm-44-22.13a1.69,1.69,0,0,1-.68.47c-1,.45-2.34.3-2.79-.59a1.25,1.25,0,0,1,0-1.37,1.69,1.69,0,0,1,.68-.47c1-.45,2.34-.3,2.79.58A1.27,1.27,0,0,1,83.36,45.8ZM37.75,12.85a1.31,1.31,0,0,1,.31.69,1.42,1.42,0,0,1-.81,1.2,2.14,2.14,0,0,1-2.76-.65,1.27,1.27,0,0,1-.31-.69A1.42,1.42,0,0,1,35,12.2,2.15,2.15,0,0,1,37.75,12.85Z"/><path class="cls-1" d="M56,63.35a4.55,4.55,0,0,0,6-1.93A14,14,0,0,0,63.33,58,8.1,8.1,0,0,0,62,51.38c-.26-.37-.49-.74-.7-1.09a3.18,3.18,0,0,1-.24-2.66l.7-2.2a2.15,2.15,0,0,0-1.84-2.65,2.71,2.71,0,0,0-3.19,1.53c-.53,1.66-1,3.26-1.57,4.9A6.82,6.82,0,0,0,56,55a6.85,6.85,0,0,1,.84,5.75C56.56,61.53,56.28,62.4,56,63.35Z"/><path class="cls-1" d="M427.61,133.05c1.2-3.71,1.36-8.69-3.23-9.16l-.39,0c-3.49-.31-4.75-.12-5.59,2.49-1.08,3.36,3.9,5.56,8,6.43Z"/><path class="cls-1" d="M355,148.51c1.36,1.81,5.09,2.1,6.66.41a1.55,1.55,0,0,0,.38-1.55,12.3,12.3,0,0,0-2.68-5c-1.41-1.82-5.17-2-6.77-.27a1.57,1.57,0,0,0-.37,1.72A15.29,15.29,0,0,0,355,148.51Z"/><path class="cls-1" d="M305.28,120c-.53.44-1,1.33-.6,1.86.7.92,1.44,1.91,2.17,2.89,1.43,1.92,4.21,2.26,6.71,1.41a5.41,5.41,0,0,1,1.74-.33c.54,0,1.08.1,1.62.11,1.21.05,2,.05,2.19-.47.34-.78-.29-1.74-.78-2.45a2.63,2.63,0,0,0-1.38-.8c-4-1.63-5.8-2-10.84-2.36C305.72,119.86,305.56,119.79,305.28,120Z"/><path class="cls-1" d="M134.6,94.29a4,4,0,0,0,0-3.3,15.27,15.27,0,0,0-1.79-2.68c-1.76-2.22-6.2-3.52-6.88-.92a4,4,0,0,0,.91,3.49,30.73,30.73,0,0,1,2.32,3.69c2,3.23,2.51,3.35,4.33,1.42A4.59,4.59,0,0,0,134.6,94.29Z"/><path class="cls-1" d="M127.46,100.25c.46-2-1-4-3.38-4.49l-1.56-.34a4.79,4.79,0,0,0-2.63,0,4.25,4.25,0,0,0-3,3.84c-.28,2.74,0,3.73,3.35,4.48a6.42,6.42,0,0,0,3.93,0A4.7,4.7,0,0,0,127.46,100.25Z"/><path class="cls-1" d="M639.59,54.33a3.31,3.31,0,0,0-2.44,0,6.35,6.35,0,0,0-2.54,1.9c-2.17,3,3.79,4.28,7.52,2.63,2.1-.93,2.79-1.24,2.52-2.24a3.39,3.39,0,0,0-3-2.22A12.44,12.44,0,0,1,639.59,54.33Z"/><path class="cls-1" d="M600.25,72.67c2,2.39,7.63,3.21,7.36.31a2.89,2.89,0,0,0-.08-.47c-.46-2-2.75-3.54-5.12-4.05a4.87,4.87,0,0,0-2.07-.09C598.35,68.81,599.07,71.26,600.25,72.67Z"/><path class="cls-1" d="M463.15,121.48c-2.51.09-.69,3.11,1.73,3.65,2.67.6,1.83-.57,4.34,0a2,2,0,0,0,1.52-.38c1.14-.66,2.06-2.55.72-2.85C467.68,120.58,467.48,121.05,463.15,121.48Z"/><path class="cls-1" d="M324.55,127.45c-2.77-1.29-6.65.64-7.21,3.24,0,.23-.08.45-.1.67a2.64,2.64,0,0,0-.05.74c.25,1.66,3.5,1.86,5.28,1.08l2.26-1c1.6-.71,2.74-2.88,1.38-3.89a12,12,0,0,0-1.06-.58Z"/><path class="cls-1" d="M276,133.73c3.49,1.44,5.27-2.75,3.22-5.5-1-1.3-2.7-2.5-4.33-1.79a2.35,2.35,0,0,0-1.27,1.36,4.41,4.41,0,0,0,1.94,5.72C275.65,133.6,275.8,133.66,276,133.73Z"/><path class="cls-1" d="M100.07,68.51c-3.84-.8-3.81,3.62-.07,4.73a15.75,15.75,0,0,0,3.3.64c3.25.22,4.39-3.22,1.31-4.13-1.22-.36-2.56-.61-3.84-1A5.6,5.6,0,0,0,100.07,68.51Z"/><path class="cls-1" d="M69.54,89.81c-3.18,1.57-4.11,6.62-.44,6.26l.23,0a6.07,6.07,0,0,0,5-4.13,2,2,0,0,0-.46-2C72.85,88.86,70.94,89.12,69.54,89.81Z"/><path class="cls-1" d="M23.89,54.92a4.87,4.87,0,0,0-3.27.29,5,5,0,0,0-2.27,2.14c-1.37,2.92,3.74,4,7,2.47a9.19,9.19,0,0,1,1.18-.43c1.51-.49,2.14-1.18,1.89-2.06-.64-1.42-1.51-2.11-3.48-2.27A7.84,7.84,0,0,1,23.89,54.92Z"/><path class="cls-1" d="M12.87,14.56c-1.1-.2-1.69.54-2.5,1.19l-.17.11L7.11,17.23c-1.74.77-2.73,2.86-1.36,4a1.94,1.94,0,0,0,.56.32,15.4,15.4,0,0,0,3,.79c2.16.38,4.38-.74,5-2.52l.79-2.46C15.48,16.18,14.34,14.83,12.87,14.56Z"/><path class="cls-1" d="M35.5,67.89c.82.27-.11.33.66,0A6.38,6.38,0,0,0,38.69,66c2.17-3-2-4.29-5.73-2.63-2.1.93-2.8,1.24-2.52,2.23a3.41,3.41,0,0,0,3,2.23A12.51,12.51,0,0,1,35.5,67.89Z"/><path class="cls-1" d="M608.81,55.75c-.84,2.61.27,4.73,2.23,4.23,1.76-.45,2.62-1.1,2.77-2.58a4.88,4.88,0,0,1,.18-1,2.8,2.8,0,0,0-.21-2.43c-.58-.88-1.3-1.34-2.31-.89-.7.31-2,.5-2.1.93Z"/><path class="cls-1" d="M528.58,108.85a6.36,6.36,0,0,0,1.08-2.2,2.82,2.82,0,0,0-1.13-2.75c-1.95-1.37-4.19,0-5,2.61l-.11.34a2.88,2.88,0,0,0,.46,2.63,2,2,0,0,0,.88.72,3.1,3.1,0,0,0,2.56-.42A3.75,3.75,0,0,0,528.58,108.85Z"/><path class="cls-1" d="M473.15,135.85c-2.82.1-.88,3.23,1.84,3.88a15.08,15.08,0,0,0,1.71.32,5.12,5.12,0,0,0,2.1,0,4,4,0,0,0,.55-.19c1.47-.6,2-2.16.74-3a6.6,6.6,0,0,0-2.19-.86A17.42,17.42,0,0,0,473.15,135.85Z"/><path class="cls-1" d="M459.47,140.21a1.41,1.41,0,0,0,0-1.07,4.32,4.32,0,0,0-5.85-1.68,2.85,2.85,0,0,0-1.12.74c-.39.56.13,1.28.56,1.82a4.34,4.34,0,0,0,5.38,1.4A1.86,1.86,0,0,0,459.47,140.21Z"/><path class="cls-1" d="M490.68,117.83c-3.35-.75-6,.06-5.31,1.61a3.51,3.51,0,0,0,3.39,2.26,10.16,10.16,0,0,1,1.25.17,5.58,5.58,0,0,0,3.19-.11c1-.43,1.56-1,1-1.76-.41-.56-.69-1.55-1.25-1.68Z"/><path class="cls-1" d="M471,143.73c-.84,2.61.27,4.73,2.23,4.23,1.76-.45,2.62-1.1,2.77-2.58a4.88,4.88,0,0,1,.18-1,2.81,2.81,0,0,0-.21-2.43c-.59-.88-1.3-1.34-2.31-.89-.7.31-2,.5-2.1.93Z"/><path class="cls-1" d="M427.61,133.05c-.4,1.26-1.18,2.69-1.57,4.08a3.47,3.47,0,0,0,.37,3.12,2.55,2.55,0,0,0,3.48.55A3.86,3.86,0,0,0,431.1,139a8.38,8.38,0,0,0,0-3.73C431,133.8,429.43,133,427.61,133.05Z"/><path class="cls-1" d="M374.16,165.27a2.41,2.41,0,0,0-1.06,1.23,1.14,1.14,0,0,0,.1,1c1.35,2,5.73,2.64,7.65,1.67a1.23,1.23,0,0,0,.62-.78,2.09,2.09,0,0,0-.18-1.6c-.23-.43-.47-.83-.81-.91l-5-1.12C375.1,164.71,374.63,165,374.16,165.27Z"/><path class="cls-1" d="M228,114.25c-2.89-.65-6.33.86-4.33,2.71l.07.07a9,9,0,0,0,6.7,1.49c2.9-.74.77-3.56-2.16-4.21Z"/><path class="cls-1" d="M91.48,93c-1.15,2.59-6.4,1.42-5.84-1.3C86.27,88.62,92.77,90.07,91.48,93Z"/><path class="cls-1" d="M56,63.35c-1.73-.39-3.72-1.11-5.63-1.44a6.08,6.08,0,0,0-3.31.14c-1.46.62-1.93,2.13-.66,3a6.7,6.7,0,0,0,2.19.87,17.43,17.43,0,0,0,4.75.12C55.14,66,56.12,64.78,56,63.35Z"/><path class="cls-1" d="M21.5,25.37c-4-.89-8.17,2.74-4.12,3.4a19,19,0,0,0,3,.21,3.12,3.12,0,0,0,1.15-.09,6,6,0,0,0,.81-.45c.45-.27.79-.66.66-1.11A3.21,3.21,0,0,0,22.42,26,1.77,1.77,0,0,0,21.5,25.37Z"/><path class="cls-1" d="M622.07,59.05a2.32,2.32,0,0,0-.73.19c-1,.46-1.52,1.51-.75,2.23a2.29,2.29,0,0,0,1.59.63,2.32,2.32,0,0,0,.73-.19c1-.46,1.52-1.51.75-2.23A2.29,2.29,0,0,0,622.07,59.05Z"/><path class="cls-1" d="M634.8,45a2.62,2.62,0,0,0,.93.71,2.5,2.5,0,0,0,1.51,0,1.36,1.36,0,0,0,.68-2.24,1.69,1.69,0,0,0-.52-.47,2.56,2.56,0,0,0-2.12,0c-1,.36-1.26,1.2-.58,1.88Z"/><path class="cls-1" d="M632.51,60.13a2,2,0,0,0-.73.19c-1,.45-1.52,1.51-.75,2.23a2.23,2.23,0,0,0,1.59.62,1.88,1.88,0,0,0,.73-.19c1-.45,1.52-1.51.75-2.22A2.2,2.2,0,0,0,632.51,60.13Z"/><path class="cls-1" d="M654.24,58.2a2.4,2.4,0,0,0,1-.23c1-.42,1.39-1.39.7-2.08a2.25,2.25,0,0,0-1.58-.7,2.28,2.28,0,0,0-.93.23c-1,.46-1.75,1.48-.95,2.18A2.78,2.78,0,0,0,654.24,58.2Z"/><path class="cls-1" d="M37.06,77.2a10.8,10.8,0,0,0,1.87-.65c.29-.4-.63-1.15-.89-1.67-.45-.88-1.77-1-2.79-.58a1.69,1.69,0,0,0-.68.47,1.27,1.27,0,0,0,0,1.38A2,2,0,0,0,37.06,77.2Z"/><path class="cls-1" d="M633.21,32.3a1.69,1.69,0,0,0-.68.47,1.25,1.25,0,0,0,0,1.37c.45.89,1.77,1,2.79.59a1.76,1.76,0,0,0,.68-.47,1.25,1.25,0,0,0,0-1.38C635.55,32,634.22,31.85,633.21,32.3Z"/><path class="cls-1" d="M203.76,124a1.27,1.27,0,0,0-.31-.69,2.15,2.15,0,0,0-2.76-.65,1.42,1.42,0,0,0-.81,1.2,1.31,1.31,0,0,0,.31.69,2.15,2.15,0,0,0,2.76.65A1.44,1.44,0,0,0,203.76,124Z"/><path class="cls-1" d="M442.42,149.37a1.31,1.31,0,0,0,.31.69,2.15,2.15,0,0,0,2.76.65,1.44,1.44,0,0,0,.81-1.21,1.32,1.32,0,0,0-.31-.68,2.17,2.17,0,0,0-2.77-.66A1.42,1.42,0,0,0,442.42,149.37Z"/><path class="cls-1" d="M21,73.59a1.88,1.88,0,0,0,.73-.19c1-.45,1.52-1.5.75-2.22A2.25,2.25,0,0,0,21,70.55a2.29,2.29,0,0,0-.93.24c-1,.46-1.68,1.46-.86,2.15A2.82,2.82,0,0,0,21,73.59Z"/><path class="cls-1" d="M600.05,57.62a1.88,1.88,0,0,0,.73-.19c1-.45,1.52-1.51.75-2.22a2.25,2.25,0,0,0-1.49-.63,2.38,2.38,0,0,0-.94.24c-1,.46-1.67,1.46-.85,2.15A2.82,2.82,0,0,0,600.05,57.62Z"/><path class="cls-1" d="M154.26,112.09a2.75,2.75,0,0,0-.93-.75,2.44,2.44,0,0,0-1.54,0,1.35,1.35,0,0,0-.68,2.23,1.53,1.53,0,0,0,.51.47,2.42,2.42,0,0,0,1.79.11C154.59,113.8,155,112.91,154.26,112.09Z"/><path class="cls-1" d="M559.45,118.83a1.48,1.48,0,0,0,.84-2.62,2.25,2.25,0,0,0-1.31-.4,2.32,2.32,0,0,0-.73.19c-1,.45-1.52,1.51-.75,2.23A2.25,2.25,0,0,0,559.45,118.83Z"/><path class="cls-1" d="M571.32,104.37a1.69,1.69,0,0,0,.68-.47,1.25,1.25,0,0,0,0-1.38,2.16,2.16,0,0,0-2.79-.58,2,2,0,0,0-.68.46,1.25,1.25,0,0,0,0,1.38A2.15,2.15,0,0,0,571.32,104.37Z"/><path class="cls-1" d="M549.65,99.25a1.64,1.64,0,0,0,.51.47,2.44,2.44,0,0,0,1.76.12,1.36,1.36,0,0,0,.68-2.24,1.64,1.64,0,0,0-.51-.47,2.45,2.45,0,0,0-1.76-.12A1.36,1.36,0,0,0,549.65,99.25Z"/><path class="cls-1" d="M551.53,125.56a1.79,1.79,0,0,0,.73-.19c1-.45,1.53-1.51.76-2.22a2.21,2.21,0,0,0-1.6-.63,2,2,0,0,0-.72.19c-1,.46-1.53,1.51-.76,2.22A2.2,2.2,0,0,0,551.53,125.56Z"/><path class="cls-1" d="M575.15,83.23a2.2,2.2,0,0,0-2.8-.7,1.41,1.41,0,0,0-.8,1.21,1.3,1.3,0,0,0,.3.68,2.17,2.17,0,0,0,2.77.66,1.45,1.45,0,0,0,.81-1.21A1.15,1.15,0,0,0,575.15,83.23Z"/><path class="cls-1" d="M531.26,119.09a1.29,1.29,0,0,0,.3.69,2.16,2.16,0,0,0,2.77.65,1.41,1.41,0,0,0,.8-1.21,1.3,1.3,0,0,0-.3-.68,2.15,2.15,0,0,0-2.77-.66A1.42,1.42,0,0,0,531.26,119.09Z"/><path class="cls-1" d="M522.86,115.58a2.48,2.48,0,0,0-1,.23c-1,.42-1.38,1.38-.7,2.07a2.28,2.28,0,0,0,1.58.71,2.33,2.33,0,0,0,.94-.24c1-.45,1.75-1.47,1-2.18A2.9,2.9,0,0,0,522.86,115.58Z"/><path class="cls-1" d="M503.93,138a2.12,2.12,0,0,0-1.66.57,10.55,10.55,0,0,0-1,.71,1.27,1.27,0,0,0,.06,1.72,1.91,1.91,0,0,0,2.57.73,7.86,7.86,0,0,0,1.71-.94C506.77,139.87,505.49,138.37,503.93,138Z"/><path class="cls-1" d="M231,133a1.24,1.24,0,0,0,.31.68,2.15,2.15,0,0,0,2.76.66,1.44,1.44,0,0,0,.81-1.21,1.39,1.39,0,0,0-.31-.69,2.16,2.16,0,0,0-2.77-.65A1.41,1.41,0,0,0,231,133Z"/><path class="cls-1" d="M209.16,130.08a1.58,1.58,0,0,0-.68.46,1.27,1.27,0,0,0,0,1.38,2.16,2.16,0,0,0,2.79.58,1.64,1.64,0,0,0,.68-.46,1.27,1.27,0,0,0,0-1.38A2.16,2.16,0,0,0,209.16,130.08Z"/><path class="cls-1" d="M480.8,136.36a1.57,1.57,0,0,0,.52.47,2.37,2.37,0,0,0,1.75.12,1.36,1.36,0,0,0,.69-2.24,1.57,1.57,0,0,0-.52-.47,2.44,2.44,0,0,0-1.76-.12A1.36,1.36,0,0,0,480.8,136.36Z"/><path class="cls-1" d="M458.26,123.66a2.17,2.17,0,0,0-1.67.57,10.31,10.31,0,0,0-1,.72,1.27,1.27,0,0,0,.07,1.71,1.91,1.91,0,0,0,2.57.73,8,8,0,0,0,1.63-.87C461.08,125.58,459.85,124,458.26,123.66Z"/><path class="cls-1" d="M419,147.1a2.66,2.66,0,0,0,.94.71,2.47,2.47,0,0,0,1.5,0,1.36,1.36,0,0,0,.69-2.24,1.54,1.54,0,0,0-.52-.46,2.52,2.52,0,0,0-2.12,0c-1,.36-1.27,1.2-.59,1.88Z"/><path class="cls-1" d="M404.18,173.65a1.29,1.29,0,0,0,.3.69,2.16,2.16,0,0,0,2.77.65,1.46,1.46,0,0,0,.8-1.12,1.5,1.5,0,0,0-.37-.86,2,2,0,0,0-2.65-.74A1.71,1.71,0,0,0,404.18,173.65Z"/><path class="cls-1" d="M398.34,168.46a2.44,2.44,0,0,0,.92-.71,1.3,1.3,0,0,0-.05-1.25,2.17,2.17,0,0,0-2.79-.59,1.69,1.69,0,0,0-.68.47,1.27,1.27,0,0,0,0,1.37A1.85,1.85,0,0,0,398.34,168.46Z"/><path class="cls-1" d="M388.45,129.81a2.46,2.46,0,0,0-.93-.72,2.58,2.58,0,0,0-1.51,0,1.36,1.36,0,0,0-.68,2.24,1.69,1.69,0,0,0,.52.47,2.6,2.6,0,0,0,2.12,0c1-.36,1.26-1.21.59-1.88Z"/><path class="cls-1" d="M343.74,208.31a1.54,1.54,0,0,0,.52.46,2.37,2.37,0,0,0,1.75.12,1.36,1.36,0,0,0,.69-2.24,1.69,1.69,0,0,0-.52-.47,2.44,2.44,0,0,0-1.76-.11A1.36,1.36,0,0,0,343.74,208.31Z"/><path class="cls-1" d="M321.45,149.26a2.21,2.21,0,0,0-2.8-.7,1.44,1.44,0,0,0-.81,1.21,1.32,1.32,0,0,0,.31.68,2.15,2.15,0,0,0,2.77.65,1.41,1.41,0,0,0,.8-1.2A1.14,1.14,0,0,0,321.45,149.26Z"/><path class="cls-1" d="M311.55,137.87a2.64,2.64,0,0,0-1,.22c-.95.43-1.38,1.39-.69,2.08a2.24,2.24,0,0,0,1.57.71,2.33,2.33,0,0,0,.94-.24c1-.45,1.75-1.48.95-2.18A2.83,2.83,0,0,0,311.55,137.87Z"/><path class="cls-1" d="M292.41,146.66a1.88,1.88,0,0,0-.73.19c-1,.45-1.52,1.51-.75,2.22a2.2,2.2,0,0,0,1.59.63,2,2,0,0,0,.72-.19c1-.45,1.53-1.51.76-2.22A2.2,2.2,0,0,0,292.41,146.66Z"/><path class="cls-1" d="M267.81,154.23a2,2,0,0,0-.73.19c-1,.46-1.53,1.51-.76,2.22a2.23,2.23,0,0,0,1.6.63,1.79,1.79,0,0,0,.72-.19c1-.45,1.53-1.51.76-2.22A2.2,2.2,0,0,0,267.81,154.23Z"/><path class="cls-1" d="M261,138.12a1.57,1.57,0,0,0,.52.47,2.44,2.44,0,0,0,1.76.12,1.36,1.36,0,0,0,.68-2.24,1.64,1.64,0,0,0-.51-.47,2.4,2.4,0,0,0-1.76-.12A1.36,1.36,0,0,0,261,138.12Z"/><path class="cls-1" d="M257.68,126c-.63.73-.2,1.9.54,2.55l.1.08a9.67,9.67,0,0,0,1,.82,2.38,2.38,0,0,0,2.16,0c1.13-.47,1.5-1.12.84-2s-1.32-1.77-2.53-1.86C259.05,125.57,258.1,125.54,257.68,126Z"/><path class="cls-1" d="M243.93,149.86a1.37,1.37,0,0,0,.77-2.27,2.25,2.25,0,0,0-1.71-.75,2,2,0,0,0-.73.19c-1,.45-1.53,1.51-.76,2.22a2.23,2.23,0,0,0,1.3.62A3.57,3.57,0,0,0,243.93,149.86Z"/><path class="cls-1" d="M257.19,122.12a2.75,2.75,0,0,0-2.89-.56c-.33.17-.33.49-.24.8a3.74,3.74,0,0,0,1.4,2.19c1.68,1.18,3,.88,2.92-.5a1.88,1.88,0,0,0-.54-1.37C257.66,122.51,257.43,122.32,257.19,122.12Z"/><path class="cls-1" d="M182.38,119c-.11.36.14.79.76,1.31a8.62,8.62,0,0,0,1,.82,2.38,2.38,0,0,0,2.16,0c1.13-.47,1.5-1.12.84-2a5.7,5.7,0,0,0-1.43-1.5A2.4,2.4,0,0,0,182.38,119Z"/><path class="cls-1" d="M178.5,114.32a1.88,1.88,0,0,0,1.61,2.31l.13,0c1.42.32,3-.51,2.77-1.72a2.43,2.43,0,0,0-1.5-1.77A2.18,2.18,0,0,0,178.5,114.32Z"/><path class="cls-1" d="M175.68,115.65a2.1,2.1,0,0,0-1.67.57c-.3.23-.71.46-1,.71a1.28,1.28,0,0,0,.06,1.71,1.89,1.89,0,0,0,2.57.73,7.25,7.25,0,0,0,1.71-.93C178.51,117.49,177.24,116,175.68,115.65Z"/><path class="cls-1" d="M164,133.73c-.39.24-.83.46-1,.84a1.33,1.33,0,0,0,.11,1.15c.44.88,1.77,1,2.78.58a1.69,1.69,0,0,0,.68-.47,1.37,1.37,0,0,0-.16-1.68,1.69,1.69,0,0,0-2.29-.5Z"/><path class="cls-1" d="M132,110.94a2.25,2.25,0,0,0-.73.19c-1,.46-1.53,1.51-.76,2.22a2.2,2.2,0,0,0,1.59.63,1.79,1.79,0,0,0,.73-.19c1-.45,1.53-1.51.76-2.22A2.24,2.24,0,0,0,132,110.94Z"/><path class="cls-1" d="M112.88,113a1.39,1.39,0,0,0,.31.69,2.16,2.16,0,0,0,2.77.65,1.41,1.41,0,0,0,.8-1.2,1.31,1.31,0,0,0-.31-.69,2.15,2.15,0,0,0-2.76-.65A1.44,1.44,0,0,0,112.88,113Z"/><path class="cls-1" d="M103.69,100.89a2.62,2.62,0,0,0-.93-.71,2.5,2.5,0,0,0-1.51,0,1.36,1.36,0,0,0-.68,2.24,1.54,1.54,0,0,0,.52.46,2.52,2.52,0,0,0,2.12,0c1-.36,1.26-1.2.58-1.88Z"/><path class="cls-1" d="M97.1,84.74a2.4,2.4,0,0,0,1-.23c1-.42,1.39-1.39.7-2.08a2.24,2.24,0,0,0-1.58-.7,2.32,2.32,0,0,0-.93.23c-1,.46-1.75,1.48-1,2.18A2.78,2.78,0,0,0,97.1,84.74Z"/><path class="cls-1" d="M78.88,99.71a2.66,2.66,0,0,0-.92.71,1.32,1.32,0,0,0,.05,1.26c.45.88,1.77,1,2.79.58a1.69,1.69,0,0,0,.68-.47,1.24,1.24,0,0,0,0-1.36A1.85,1.85,0,0,0,78.88,99.71Z"/><path class="cls-1" d="M52.09,80.66c-.39.24-.83.47-1,.84a1.32,1.32,0,0,0,.1,1.15c.45.89,1.77,1,2.79.59a1.69,1.69,0,0,0,.68-.47,1.38,1.38,0,0,0-.16-1.69,1.68,1.68,0,0,0-2.29-.49Z"/><path class="cls-1" d="M14,49.57a2.32,2.32,0,0,0-2.84-.69,1.5,1.5,0,0,0-.91,1.27,1.32,1.32,0,0,0,.31.68,2.14,2.14,0,0,0,2.76.65,1.48,1.48,0,0,0,.8-1A1.22,1.22,0,0,0,14,49.57Z"/><path class="cls-1" d="M3.39,56.52a1.29,1.29,0,0,0,.3.69,2.15,2.15,0,0,0,2.76.65,1.48,1.48,0,0,0,.81-1.12,1.52,1.52,0,0,0-.38-.86,2,2,0,0,0-2.65-.74A1.72,1.72,0,0,0,3.39,56.52Z"/><path class="cls-1" d="M9.51,61.65a1.65,1.65,0,0,0,.36,1,2,2,0,0,0,2.55.59A1.56,1.56,0,0,0,13.34,62a1.53,1.53,0,0,0-.37-.87,2.13,2.13,0,0,0-2.69-.82A1.62,1.62,0,0,0,9.51,61.65Z"/></svg>