<svg id="Layer_1" data-name="Layer 1" xmlns="http://www.w3.org/2000/svg" viewBox="0 0 374.92 117">
    <defs>
        <style>
            .cls-1 {
                fill: #FAEFE6;
            }
        </style>
    </defs>
    <path class="cls-1"
        d="M1,0C2.34,1.86,3.74-1.17,3.14,2.3c-.11.35.46-.52.88-.43a2.17,2.17,0,0,1,1.31.92c.42.57.34,1-.74,1.26A.86.86,0,0,1,3.92,4a2.33,2.33,0,0,1-.86-.78C3,3.09,3,3,2.94,2.87a1.79,1.79,0,0,0-.75-1.09c-1-.57-1.67-.08-2,.9A2.5,2.5,0,0,0,1.82,6a15.12,15.12,0,0,0,2.92.93c1.36.25,3-.86,4.35-1.2a1.23,1.23,0,0,1,.63,0c1.69.49,1.87,2.66,3.59,3a3.45,3.45,0,0,1,2.13,1.34c.23.33.46.68.69,1a5.52,5.52,0,0,1,.75,4.77c-.19.58-.38,1.17-.56,1.75a4.26,4.26,0,0,0,.23,3.59,8.33,8.33,0,0,0,.94,1.29c1.08,1.21,3.38,1.35,3.85-.11a5.08,5.08,0,0,0,.15-.52,6.42,6.42,0,0,0-.66-4.77,1.64,1.64,0,0,0-.14-.22,2.14,2.14,0,0,1-.19-1.81,3.06,3.06,0,0,1,1.82-1.82c1.78-.73,3.5-1.54,5.27-2.29,1.27-.54,3.71-.24,3.34.91-.87,3.72-2.05,7.37-3.23,11-.19.62,1.23.71,1.91.42a25.55,25.55,0,0,1,2.64-1c.57-.26,1.2-.34,1.58-.78a2.42,2.42,0,0,1,1.24-.68c.83-.21,1.26.24,1.31,1.25a1.52,1.52,0,0,0,1.24,1.4,1.61,1.61,0,0,0,1.92-.92l.62-1.9c.08-.25.47-.42.86-.6s.78-.34,1,0l0,0a2.75,2.75,0,0,1,.67,2,1.94,1.94,0,0,1-.88,1.66c-1.45.83-3.69,1.44-2.49,2.51s3.15.88,3.9,2.11a1.69,1.69,0,0,1,0,1.36,3.68,3.68,0,0,1-1.84,2c-1.19.67-1.73,2.13-.39,2.57a6.3,6.3,0,0,0,.69.18A5.78,5.78,0,0,0,45.37,34l2.2-1.09c1.09-.53,2-1.22,2.19-2.26a4.54,4.54,0,0,1,.79-2.29,2.12,2.12,0,0,1,1.9-1,.92.92,0,0,1,.39.28A1.64,1.64,0,0,1,53.15,29a4.79,4.79,0,0,0,.67,3.38l.57.82a5.78,5.78,0,0,0,3,2.44c1.33.43,2.73.68,4.11,1a7.12,7.12,0,0,1,3.82,1.93A18.76,18.76,0,0,1,67,40.88a2.59,2.59,0,0,1,.42,1.17c.13,1.67,2.21,2.52,4,1.79l1-.4a4.26,4.26,0,0,1,4.89,1.14l1.43,1.91a1.81,1.81,0,0,0,1.39.92,1.59,1.59,0,0,0,.43-.06,1.4,1.4,0,0,0,1.11-1.2c0-.3.07-.67.12-1a1.28,1.28,0,0,1,.33-.69,1.56,1.56,0,0,1,2.29,0,2.47,2.47,0,0,1,.08,2c-.39,1.21-.7,2.19-1.1,3.4-.11.35-.22.7-.3,1.05a2.75,2.75,0,0,0,.67,2.23c1.36,1.81,4.37,2.6,4.79.49,0-.22.08-.45.13-.68a4.42,4.42,0,0,1,2.09-2.52,3.33,3.33,0,0,1,.61-.35c2.82-1.46,5.88-2.61,9-4a6.07,6.07,0,0,1,1.28-.48,1.63,1.63,0,0,1,1.75,1.1,1.27,1.27,0,0,1-.13,1.07,2.13,2.13,0,0,0-.23.45A1.82,1.82,0,0,1,102,49.33a7.6,7.6,0,0,0-2.92,2,7.36,7.36,0,0,1-2.63,2.38,4,4,0,0,0-1.56,1.1A5.85,5.85,0,0,0,93.85,58c-.06.86-.39,2.28.61,2.5l4.87,1.08a2.5,2.5,0,0,0,3-1.42,2.19,2.19,0,0,0,.1-.51c.07-.86.55-1.23,1.55-1.48.71-.1,1.18.52,1.88,1.46a1.76,1.76,0,0,0,2,.76c.77-.33,1-1.07,1.3-1.77.57-1.34,2.35-.77,3.35.38a4.44,4.44,0,0,0,2.35,1.33l8.68,1.93c1.34.3,3-.79,4.32-1.13a5.1,5.1,0,0,1,3.76.84,1.7,1.7,0,0,1,.7,1.11c0,.56.27,1.59.87,1.33,1.95-.87,3.84-1.5,5.48-2.44.62-.27-.23-1.09-.91-1.24L136,60.31a3,3,0,0,1-1.78-1.1c-.55-.78-.65-1.08-.44-1.55a13.13,13.13,0,0,1,.65-1.3c.4-.69,1-.83,2.12-.78a6.88,6.88,0,0,1,1.43.23,3.68,3.68,0,0,1,1.84,1.07,1.55,1.55,0,0,1,.24,1.56c-.1.33-.21.67-.32,1-.24.74.65,1,1.13,1.68.31.41.61.82.94,1.23a3.18,3.18,0,0,0,3.69.68l.8-.35a1.7,1.7,0,0,0,.91-2.56,1.28,1.28,0,0,1,.82-2,3.14,3.14,0,0,1,3.18,1.17,13.6,13.6,0,0,0,2.58,2.27c.92.57,2.27.78,2.71,1.67a2,2,0,0,1,.17,1.11c-.08.55-.43,1-.4,1.52.06,1.15,1.74,1.72,3.08,2l6.1,1.36a1.37,1.37,0,0,0,1.7-.84.64.64,0,0,0-.05-.6,2.73,2.73,0,0,0-1.54-.89l-1.75-.38c-1.89-.43-4.07-1.44-3.88-3.06a7.43,7.43,0,0,1,.73-2.09c.57-1.25,2.42-3.1,2.73-1.79a1.15,1.15,0,0,1,0,.33c.08.8-.47,1.46-.08,2.33a4.16,4.16,0,0,0,.26.65,1.37,1.37,0,0,0,2.21.51,10.31,10.31,0,0,0,.88-1.55c1.07-1.76,1.32-1.7,3.54-1.21l2.36.52a4.51,4.51,0,0,1,2.65,1.64c2,2.26,2.9,2.47,5.87,1.56,1.63-.41,3.22.39,2.79,1.76l-.05.16c-.47,1.46,0,2.09,1.8,2.75,1.49.59,3.29.21,3.91-.7.49-.58.49-1.26.85-1.87a.93.93,0,0,1,.31-.4,3.36,3.36,0,0,1,2.3-.35l3.65.81a3.17,3.17,0,0,1,1.78.91c1,1.15,2.8,2,3.52.71a4.8,4.8,0,0,1,1.31-1.87,3.16,3.16,0,0,1,2.39-.1c1,.24,2.24.62,2.41,1.52l0,.18c.22,2.52,2.53,3,5.21,1.81L217.13,68a2.06,2.06,0,0,0,1.17-1.22l.4-1.25c.22-.66-.55-1.3-1.12-1.79a7.69,7.69,0,0,0-1.4-1c-.52-.28-.37-.75-.25-1.1a2,2,0,0,1,.68-1,1.46,1.46,0,0,1,2,.34,1.89,1.89,0,0,1,.28.46,1.36,1.36,0,0,1,0,.75,6.47,6.47,0,0,1-.46,1.48c-.31.72.55,1,1,1.65a13.4,13.4,0,0,0,6.52,3.8l4,.89a3.27,3.27,0,0,0,1.55-.15c.43-.15.18-.4,0-.76a3.81,3.81,0,0,0-.45-.78,1.9,1.9,0,0,0-.88-.42c-1.12-.38-2.55-.5-3.91-.8a5.62,5.62,0,0,1-.73-.22c-1.16-.48-.87-1.76-.65-2.83.08-.39.15-.79.26-1.18.51-1.74,3.18-1.79,4.36-.29.31.4.59.81.87,1.24a3.77,3.77,0,0,0,4.39,1.06l0,0a3.48,3.48,0,0,1,2-.12c1.84.41,3.83-.47,4.32-2,0-.14.09-.27.13-.4s.47-.42.86-.59.79-.35,1,0l0,0a2.68,2.68,0,0,1,.67,2,1.93,1.93,0,0,1-.83,1.63c-1.45.9-4.06,1.75-2.54,2.54.86.42,1.8.8,2.63,1.27,2.15,1.21,3,1.09,5.53,1.65a3.28,3.28,0,0,0,2.74-.17,2.37,2.37,0,0,0,1.26-2.86c-.78-1.28-1.76-2.48-2.65-3.72-.6-.84-.38-2.47.79-2.42l.31,0c.31,0,.61.07.91.12,2.82.49,4.12,3.48,7,3.75H259c1.43-.05,1.63-.88,1.72-1.71A2.77,2.77,0,0,0,260.3,62a2.31,2.31,0,0,1,1.2-3.37l.08,0c1.33-.59,3.27-.26,3.39,1,0,1-.71,2.19-1.1,3.41s2.14,1.55,3.41,1l1.3-.58a3.84,3.84,0,0,0,1.87-1.88s.05-.09.07-.14a2.73,2.73,0,0,1,1.35-1.11l.64-.3c1.4-.67.68-2.6.35-3.91,0-.11,2.36-1.65,2.5-.22-.08-.8-.21.26-.05.82.31,1.11-.47,1.46-1.57.69l-.06,0c-.88-.67,1.2-2.36,1.68-1.46.94,1.26.65,1.76.89,2.07l1,1.39a2.88,2.88,0,0,0,3.07.66,2.45,2.45,0,0,1,2.59.57l.07.07c.78.78,2.24,1.11,2.85.23a8.75,8.75,0,0,0,.9-2.77c-1.11-3.84-1.24-5.5-.24-5.93l.24-.11c2-.85,0-3.34,1.48-1.94a3.4,3.4,0,0,0,2.39,1,2.86,2.86,0,0,0,1.32-.29l.11,0c1.57-.7,4.08-.94,5.15.24A3.75,3.75,0,0,0,299,52c1.06.31,2.23.57,3.05-.42,1.25-1.8-.74-3,1.74-2.7a4.89,4.89,0,0,0,1.91,0c.71-.19,2,1.32,2.19.73.36-1.12.13-.47-.73-1.37-.64-.67-.75-1-1.33-1.62-.83-.92,1.5-.79,2-1.85,0-.09.08-.18.13-.27a2.67,2.67,0,0,1,1.19-1c1.53-.78,3.82-.46,2.87-1.73-.49-.64-.94-1.25-1.4-1.86-.23-.31-.94-.21-1.25-.28a1.37,1.37,0,0,1-1.49,1.5,6.36,6.36,0,0,1-1.37,0,5.47,5.47,0,0,1-2.46-.5l-.06,0c-.71-.47-.45-1.32.37-1.67a3.44,3.44,0,0,1,1.86-.07c1.07.18,2.18.59,3.15.8.08-1.29,1.26-1.81,2.59-1.77,2.15.06,5.21.43,5.76-1.3v0c.08-.25.48-.42.87-.6s.78-.34,1,0a1.74,1.74,0,0,0,.19.22,2,2,0,0,1,.52,1.58c-.07,1.47-.67,2.07-2.13,2.22-.91.09-2.44.59-2,1.23.55,1,1.26.85,1.95,1.69s2.29,1.43,3,.68a2,2,0,0,0,.22-.37,8.4,8.4,0,0,0,1-2.2,2.33,2.33,0,0,1,.39-.75c.58-.73,1.75-.23,2.37.48.86,1,2.51,1.33,3.3.32.43-.55.78-1.14,1.23-1.66.89-1,1.88-2.71,1.14-3.82a1.53,1.53,0,0,1-.2-1.34c.21-.66.42-1.32.64-2a4.64,4.64,0,0,1,2.34-2.59,4.67,4.67,0,0,0,2.35-2.6l2.76-8.53c.23-.73.86-1.64,1.8-1.43a2.63,2.63,0,0,1,1.06,1.06,1.58,1.58,0,0,1,.07,1c-.05.28-.1.57-.13.86-.12,1.23,1.69,1.49,2.94.83l.69-.38a2,2,0,0,0,.93-2.82,1.15,1.15,0,0,1,.44-1.62c1.13-.48,2.57.09,3.88.06s1.88-1.15,2.21-2.16l.49-1.51c.32-1,.77-2,2-1.91,2,.15,3.88,1.71,5.63.93l.68-.3a8.46,8.46,0,0,0,4-3.14c1-1.53,8.18-.77,9.18-3,.33-1.14.75-2.5,0-3.5-.58-.77-1.05-.62-.79-1.5ZM302.83,46.6c-1.42.64-1.9-1.09-1.48-2.39.49-1.53.54-1.19,1-2.72,0-.12.23-.2.45-.28a2,2,0,0,1,1.38-.18c.93.34.85,1.53.58,2.35-.57,1.77-.21.93-.78,2.7C303.93,46.32,303.23,46.43,302.83,46.6ZM10.28,1.31c1.77-.8,4.43-.21,3.77,1.37a2.56,2.56,0,0,1-.38.59c-.88,1-2.71,1.09-4.14.73a2.92,2.92,0,0,1-.65-.24C7.73,3.15,9.09,1.85,10.28,1.31Zm198.29,64c1.83.28,2.58-2,.82-2.54C207.44,62.16,206.53,65,208.57,65.28Zm-20.44-3.21c0-.4.53-.67.93-.9a.85.85,0,0,1,.55-.16l2.82.62c.32.07.47.63.71.94.37.5-.45,1-1.13,1.19-1.27.28-3.17-.31-3.73-1.33A.87.87,0,0,1,188.13,62.07ZM322.45,31.73a.65.65,0,0,1,.28-1.06,1.21,1.21,0,0,1,1.55.37.74.74,0,0,1,.18.38.81.81,0,0,1-.46.68A1.21,1.21,0,0,1,322.45,31.73ZM157.61,56.82c.35.45.09,1-.48,1.28a1.07,1.07,0,0,1-.36.1,1.29,1.29,0,0,1-.91-.36c-.43-.4-.15-1,.42-1.24.12-.05.26-.14.38-.2C157,56.26,157.26,56.4,157.61,56.82Zm-54.35-2a1,1,0,0,1,.38-.26,1.21,1.21,0,0,1,1.56.33.69.69,0,0,1,0,.77,1,1,0,0,1-.38.26,1.21,1.21,0,0,1-1.56-.33A.69.69,0,0,1,103.26,54.77ZM71.4,38a1,1,0,0,1,.38-.26,1.21,1.21,0,0,1,1.56.33.69.69,0,0,1,0,.77,1,1,0,0,1-.38.26,1.21,1.21,0,0,1-1.56-.33A.69.69,0,0,1,71.4,38ZM46.72,25.64a1,1,0,0,1-.38.26,1.22,1.22,0,0,1-1.57-.33.71.71,0,0,1,0-.77,1,1,0,0,1,.38-.26,1.21,1.21,0,0,1,1.56.33A.69.69,0,0,1,46.72,25.64ZM21.16,7.2a.73.73,0,0,1,.17.38.8.8,0,0,1-.45.67,1.2,1.2,0,0,1-1.55-.36.76.76,0,0,1-.17-.39.76.76,0,0,1,.45-.67A1.21,1.21,0,0,1,21.16,7.2Z" />
    <path class="cls-1"
        d="M31.37,35.46a2.55,2.55,0,0,0,3.37-1.07,8.06,8.06,0,0,0,.75-1.93,4.55,4.55,0,0,0-.75-3.7c-.14-.21-.27-.41-.39-.61a1.77,1.77,0,0,1-.14-1.49l.4-1.23a1.2,1.2,0,0,0-1-1.48,1.51,1.51,0,0,0-1.79.86l-.89,2.74a3.85,3.85,0,0,0,.48,3.22A3.85,3.85,0,0,1,31.85,34Z" />
    <path class="cls-1"
        d="M239.64,74.48c.67-2.07.76-4.86-1.81-5.13l-.22,0c-2-.17-2.66-.07-3.13,1.4-.61,1.87,2.18,3.11,4.45,3.6Z" />
    <path class="cls-1"
        d="M199,83.14a2.75,2.75,0,0,0,3.73.23.86.86,0,0,0,.22-.87,6.88,6.88,0,0,0-1.5-2.79,2.8,2.8,0,0,0-3.8-.15.88.88,0,0,0-.2,1A8.59,8.59,0,0,0,199,83.14Z" />
    <path class="cls-1"
        d="M171.08,67.19c-.29.24-.55.74-.33,1L172,69.85a3.29,3.29,0,0,0,3.76.78,3,3,0,0,1,1-.18c.3,0,.6.06.91.07.68,0,1.1,0,1.23-.27s-.17-1-.44-1.37a1.55,1.55,0,0,0-.77-.45,15.68,15.68,0,0,0-6.08-1.32C171.33,67.1,171.24,67.06,171.08,67.19Z" />
    <path class="cls-1"
        d="M75.43,52.78a2.23,2.23,0,0,0,0-1.84,8.39,8.39,0,0,0-1-1.5c-1-1.25-3.47-2-3.85-.52a2.2,2.2,0,0,0,.51,1.95,18.39,18.39,0,0,1,1.3,2.07c1.09,1.81,1.4,1.88,2.42.8A2.53,2.53,0,0,0,75.43,52.78Z" />
    <path class="cls-1"
        d="M71.43,56.12a2.16,2.16,0,0,0-1.9-2.51l-.87-.19a2.62,2.62,0,0,0-1.47,0,2.37,2.37,0,0,0-1.7,2.15c-.16,1.53,0,2.09,1.88,2.51a3.59,3.59,0,0,0,2.2,0A2.6,2.6,0,0,0,71.43,56.12Z" />
    <path class="cls-1"
        d="M358.44,30.41a1.85,1.85,0,0,0-1.37,0,3.59,3.59,0,0,0-1.42,1.06c-1.22,1.69,2.12,2.4,4.21,1.47,1.18-.52,1.57-.69,1.41-1.25a1.9,1.9,0,0,0-1.69-1.24A7.05,7.05,0,0,1,358.44,30.41Z" />
    <path class="cls-1"
        d="M336.39,40.68c1.12,1.34,4.28,1.8,4.13.18,0-.09,0-.17,0-.27a3.63,3.63,0,0,0-2.87-2.27,2.7,2.7,0,0,0-1.16,0C335.33,38.52,335.73,39.89,336.39,40.68Z" />
    <path class="cls-1"
        d="M259.56,68c-1.41,0-.39,1.74,1,2s1-.32,2.43,0a1.18,1.18,0,0,0,.85-.21c.64-.38,1.15-1.43.4-1.6C262.1,67.5,262,67.77,259.56,68Z" />
    <path class="cls-1"
        d="M181.88,71.35a3.08,3.08,0,0,0-4,1.81,2.5,2.5,0,0,0-.06.38,1.42,1.42,0,0,0,0,.41c.14.93,2,1,3,.6L182,74c.9-.4,1.54-1.61.78-2.18a5.7,5.7,0,0,0-.6-.32Z" />
    <path class="cls-1"
        d="M154.65,74.86c1.95.81,2.95-1.54,1.8-3.08a2.17,2.17,0,0,0-2.43-1,1.35,1.35,0,0,0-.71.76,2.48,2.48,0,0,0,1.09,3.21Z" />
    <path class="cls-1"
        d="M56.08,38.35c-2.15-.45-2.13,2,0,2.65a9.59,9.59,0,0,0,1.85.36c1.82.12,2.46-1.81.73-2.31-.68-.2-1.43-.34-2.15-.59Z" />
    <path class="cls-1"
        d="M39,50.28c-1.78.88-2.3,3.7-.24,3.5h.13a3.38,3.38,0,0,0,2.8-2.32,1.07,1.07,0,0,0-.25-1.12A2.2,2.2,0,0,0,39,50.28Z" />
    <path class="cls-1"
        d="M13.39,30.74a2.72,2.72,0,0,0-1.83.17,2.69,2.69,0,0,0-1.27,1.19c-.77,1.64,2.09,2.26,3.93,1.39a4.7,4.7,0,0,1,.66-.24c.84-.28,1.2-.66,1.06-1.15A2,2,0,0,0,14,30.82,3.09,3.09,0,0,1,13.39,30.74Z" />
    <path class="cls-1"
        d="M7.22,8.15c-.62-.11-1,.3-1.41.67l-.1.06L4,9.65c-1,.43-1.52,1.59-.76,2.25a1.26,1.26,0,0,0,.32.18,8.31,8.31,0,0,0,1.7.44A2.43,2.43,0,0,0,8,11.11q.22-.66.45-1.38C8.68,9.06,8,8.3,7.22,8.15Z" />
    <path class="cls-1"
        d="M19.89,38c.46.14-.06.18.37,0a3.51,3.51,0,0,0,1.42-1.07c1.22-1.68-1.12-2.4-3.21-1.47-1.18.52-1.57.7-1.41,1.25A1.91,1.91,0,0,0,18.75,38,7.07,7.07,0,0,1,19.89,38Z" />
    <path class="cls-1"
        d="M341.19,31.21c-.47,1.46.15,2.64,1.25,2.37S343.9,33,344,32.13a2.54,2.54,0,0,1,.1-.55,1.57,1.57,0,0,0-.12-1.37c-.32-.49-.73-.75-1.29-.49-.39.17-1.1.27-1.18.52S341.27,31,341.19,31.21Z" />
    <path class="cls-1"
        d="M296.23,60.93a3.35,3.35,0,0,0,.6-1.23,1.57,1.57,0,0,0-.63-1.54c-1.1-.76-2.35,0-2.82,1.46l-.07.2a1.61,1.61,0,0,0,.27,1.47,1,1,0,0,0,.49.4,1.72,1.72,0,0,0,1.43-.23A2.33,2.33,0,0,0,296.23,60.93Z" />
    <path class="cls-1"
        d="M265.16,76.05c-1.58.06-.49,1.81,1,2.17a8.49,8.49,0,0,0,1,.18,2.76,2.76,0,0,0,1.18,0l.31-.1c.82-.34,1.13-1.22.41-1.7a3.8,3.8,0,0,0-1.22-.48A9.87,9.87,0,0,0,265.16,76.05Z" />
    <path class="cls-1"
        d="M257.49,78.49a.74.74,0,0,0,0-.6,2.43,2.43,0,0,0-3.28-.94,1.55,1.55,0,0,0-.62.42c-.23.31.06.71.31,1a2.43,2.43,0,0,0,3,.79A1,1,0,0,0,257.49,78.49Z" />
    <path class="cls-1"
        d="M275,66c-1.88-.42-3.37,0-3,.9a2,2,0,0,0,1.9,1.27,4.22,4.22,0,0,1,.7.1,3.11,3.11,0,0,0,1.79-.07c.58-.24.87-.54.54-1s-.39-.87-.7-.94Z" />
    <path class="cls-1"
        d="M263.93,80.46c-.47,1.46.15,2.65,1.25,2.37s1.46-.61,1.55-1.45a2.65,2.65,0,0,1,.1-.55,1.57,1.57,0,0,0-.12-1.37,1,1,0,0,0-1.29-.49c-.39.17-1.1.28-1.18.52S264.08,80,263.93,80.46Z" />
    <path class="cls-1"
        d="M239.64,74.48c-.23.71-.66,1.51-.88,2.29a1.94,1.94,0,0,0,.21,1.75,1.42,1.42,0,0,0,1.95.3,2.17,2.17,0,0,0,.68-1,4.75,4.75,0,0,0,0-2.09C241.52,74.9,240.66,74.45,239.64,74.48Z" />
    <path class="cls-1"
        d="M209.68,92.52a1.31,1.31,0,0,0-.59.69.64.64,0,0,0,.06.57c.75,1.11,3.21,1.48,4.29.94a.68.68,0,0,0,.34-.44,1.12,1.12,0,0,0-.1-.89c-.13-.24-.26-.47-.45-.51l-2.82-.63A1.25,1.25,0,0,0,209.68,92.52Z" />
    <path class="cls-1" d="M127.78,64c-1.62-.36-3.55.48-2.43,1.52l0,0a5,5,0,0,0,3.76.84c1.62-.41.43-2-1.21-2.36Z" />
    <path class="cls-1" d="M51.27,52.05c-.65,1.45-3.59.8-3.27-.73C48.35,49.61,52,50.42,51.27,52.05Z" />
    <path class="cls-1"
        d="M31.37,35.46c-1-.21-2.08-.62-3.15-.8a3.44,3.44,0,0,0-1.86.07c-.82.35-1.08,1.2-.37,1.68a3.85,3.85,0,0,0,1.23.48,9.79,9.79,0,0,0,2.66.07A1.37,1.37,0,0,0,31.37,35.46Z" />
    <path class="cls-1"
        d="M12.05,14.2c-2.24-.5-4.58,1.53-2.31,1.91a11.18,11.18,0,0,0,1.67.11,1.7,1.7,0,0,0,.64,0,3.56,3.56,0,0,0,.46-.25c.25-.15.43-.37.36-.62a1.84,1.84,0,0,0-.3-.74A1,1,0,0,0,12.05,14.2Z" />
    <path class="cls-1"
        d="M348.62,33.06a1,1,0,0,0-.41.11c-.57.25-.85.84-.42,1.24a1.21,1.21,0,0,0,.89.35,1.12,1.12,0,0,0,.41-.1c.57-.26.85-.85.42-1.25A1.21,1.21,0,0,0,348.62,33.06Z" />
    <path class="cls-1"
        d="M355.75,25.21a1.48,1.48,0,0,0,.52.4,1.45,1.45,0,0,0,.85,0,.76.76,0,0,0,.38-1.25.73.73,0,0,0-.29-.26,1.44,1.44,0,0,0-1.19,0c-.54.2-.7.67-.33,1Z" />
    <path class="cls-1"
        d="M354.47,33.66a1.13,1.13,0,0,0-.41.11c-.57.25-.85.84-.42,1.24a1.26,1.26,0,0,0,.89.36,1.38,1.38,0,0,0,.41-.11c.57-.25.85-.85.42-1.25A1.3,1.3,0,0,0,354.47,33.66Z" />
    <path class="cls-1"
        d="M366.65,32.58a1.35,1.35,0,0,0,.56-.13c.53-.23.78-.77.39-1.16a1.24,1.24,0,0,0-.88-.4,1.34,1.34,0,0,0-.53.14c-.57.25-1,.82-.53,1.22A1.58,1.58,0,0,0,366.65,32.58Z" />
    <path class="cls-1"
        d="M20.77,43.21a6.16,6.16,0,0,0,1.05-.35c.16-.23-.36-.65-.5-.94a1.23,1.23,0,0,0-1.57-.33,1,1,0,0,0-.38.26.73.73,0,0,0,0,.78A1.1,1.1,0,0,0,20.77,43.21Z" />
    <path class="cls-1"
        d="M354.86,18.08a1,1,0,0,0-.38.26.71.71,0,0,0,0,.77,1.22,1.22,0,0,0,1.57.33,1,1,0,0,0,.38-.26.69.69,0,0,0,0-.77A1.21,1.21,0,0,0,354.86,18.08Z" />
    <path class="cls-1"
        d="M114.19,69.43A.76.76,0,0,0,114,69a1.21,1.21,0,0,0-1.55-.36.78.78,0,0,0-.45.67.73.73,0,0,0,.17.38,1.21,1.21,0,0,0,1.55.37A.81.81,0,0,0,114.19,69.43Z" />
    <path class="cls-1"
        d="M247.94,83.62a.73.73,0,0,0,.17.38,1.21,1.21,0,0,0,1.55.37.79.79,0,0,0,.45-.68.73.73,0,0,0-.17-.38,1.21,1.21,0,0,0-1.55-.37A.82.82,0,0,0,247.94,83.62Z" />
    <path class="cls-1"
        d="M11.75,41.2a1.13,1.13,0,0,0,.41-.11c.57-.25.86-.84.42-1.24a1.15,1.15,0,0,0-1.36-.22c-.57.26-.93.81-.48,1.2A1.57,1.57,0,0,0,11.75,41.2Z" />
    <path class="cls-1"
        d="M336.28,32.26a1.13,1.13,0,0,0,.41-.11c.57-.25.85-.84.42-1.24a1.15,1.15,0,0,0-1.36-.22c-.58.25-.94.81-.48,1.2A1.57,1.57,0,0,0,336.28,32.26Z" />
    <path class="cls-1"
        d="M86.45,62.75a1.53,1.53,0,0,0-.52-.42,1.33,1.33,0,0,0-.86,0,.76.76,0,0,0-.39,1.25,1.2,1.2,0,0,0,.29.26,1.34,1.34,0,0,0,1,.06C86.63,63.71,86.88,63.21,86.45,62.75Z" />
    <path class="cls-1"
        d="M313.53,66.52a.82.82,0,0,0,.46-1.46,1.07,1.07,0,0,0-1.14-.12c-.57.25-.85.84-.42,1.24A1.26,1.26,0,0,0,313.53,66.52Z" />
    <path class="cls-1"
        d="M320.18,58.43a1,1,0,0,0,.38-.27.71.71,0,0,0,0-.77,1.22,1.22,0,0,0-1.57-.32,1,1,0,0,0-.38.26.69.69,0,0,0,0,.77A1.22,1.22,0,0,0,320.18,58.43Z" />
    <path class="cls-1"
        d="M308,55.56a.73.73,0,0,0,.29.26,1.31,1.31,0,0,0,1,.07.76.76,0,0,0,.39-1.25.94.94,0,0,0-.29-.27,1.38,1.38,0,0,0-1-.06A.76.76,0,0,0,308,55.56Z" />
    <path class="cls-1"
        d="M309.09,70.29a1,1,0,0,0,.41-.11c.57-.25.85-.84.42-1.24a1.23,1.23,0,0,0-.89-.35,1,1,0,0,0-.41.11c-.57.25-.85.84-.42,1.24A1.2,1.2,0,0,0,309.09,70.29Z" />
    <path class="cls-1"
        d="M322.33,46.59a1.26,1.26,0,0,0-1.57-.39.78.78,0,0,0-.45.68.66.66,0,0,0,.17.38,1.21,1.21,0,0,0,1.55.37.82.82,0,0,0,.45-.68A.64.64,0,0,0,322.33,46.59Z" />
    <path class="cls-1"
        d="M297.73,66.67a.66.66,0,0,0,.17.38,1.21,1.21,0,0,0,1.55.37.82.82,0,0,0,.45-.68.73.73,0,0,0-.17-.38,1.21,1.21,0,0,0-1.55-.37A.78.78,0,0,0,297.73,66.67Z" />
    <path class="cls-1"
        d="M293,64.7a1.53,1.53,0,0,0-.56.13c-.53.24-.78.77-.39,1.16a1.24,1.24,0,0,0,.88.4,1.34,1.34,0,0,0,.53-.14c.57-.25,1-.82.53-1.21A1.53,1.53,0,0,0,293,64.7Z" />
    <path class="cls-1"
        d="M282.41,77.27a1.2,1.2,0,0,0-.93.32c-.17.13-.4.26-.55.4a.72.72,0,0,0,0,1,1.08,1.08,0,0,0,1.44.41,4.14,4.14,0,0,0,1-.53C284,78.3,283.29,77.46,282.41,77.27Z" />
    <path class="cls-1"
        d="M129.46,74.44a.76.76,0,0,0,.17.39,1.21,1.21,0,0,0,1.55.36.65.65,0,0,0,.28-1.06,1.2,1.2,0,0,0-1.55-.36A.8.8,0,0,0,129.46,74.44Z" />
    <path class="cls-1"
        d="M117.21,72.82a1,1,0,0,0-.38.26.71.71,0,0,0,0,.77,1.22,1.22,0,0,0,1.56.33,1,1,0,0,0,.38-.26.71.71,0,0,0,0-.78A1.21,1.21,0,0,0,117.21,72.82Z" />
    <path class="cls-1"
        d="M269.45,76.34a.92.92,0,0,0,.29.26,1.36,1.36,0,0,0,1,.06.75.75,0,0,0,.38-1.25.87.87,0,0,0-.28-.26,1.38,1.38,0,0,0-1-.07A.77.77,0,0,0,269.45,76.34Z" />
    <path class="cls-1"
        d="M256.82,69.22a1.27,1.27,0,0,0-.94.33,3.59,3.59,0,0,0-.54.4.7.7,0,0,0,0,1,1.07,1.07,0,0,0,1.44.41,4.82,4.82,0,0,0,.91-.48C258.4,70.3,257.71,69.42,256.82,69.22Z" />
    <path class="cls-1"
        d="M234.79,82.35a1.61,1.61,0,0,0,.53.4,1.41,1.41,0,0,0,.84,0,.75.75,0,0,0,.38-1.25.87.87,0,0,0-.28-.26,1.45,1.45,0,0,0-1.19,0c-.54.2-.71.67-.33,1.05Z" />
    <path class="cls-1"
        d="M226.51,97.21a.76.76,0,0,0,.17.39,1.2,1.2,0,0,0,1.55.36.66.66,0,0,0,.24-1.11,1.13,1.13,0,0,0-1.48-.41A1,1,0,0,0,226.51,97.21Z" />
    <path class="cls-1"
        d="M223.24,94.31a1.49,1.49,0,0,0,.51-.4.73.73,0,0,0,0-.7,1.21,1.21,0,0,0-1.56-.33,1,1,0,0,0-.38.26.71.71,0,0,0,0,.77A1,1,0,0,0,223.24,94.31Z" />
    <path class="cls-1"
        d="M217.7,72.67a1.49,1.49,0,0,0-.53-.4,1.41,1.41,0,0,0-.84,0,.75.75,0,0,0-.38,1.25.84.84,0,0,0,.29.27,1.42,1.42,0,0,0,1.18,0c.54-.21.71-.68.33-1.06Z" />
    <path class="cls-1"
        d="M192.64,116.61a.73.73,0,0,0,.29.26,1.31,1.31,0,0,0,1,.07.76.76,0,0,0,.38-1.25.9.9,0,0,0-.28-.27,1.38,1.38,0,0,0-1-.06A.76.76,0,0,0,192.64,116.61Z" />
    <path class="cls-1"
        d="M180.15,83.55a1.24,1.24,0,0,0-1.57-.38.79.79,0,0,0-.46.67.74.74,0,0,0,.18.38,1.21,1.21,0,0,0,1.55.37.81.81,0,0,0,.45-.67A.67.67,0,0,0,180.15,83.55Z" />
    <path class="cls-1"
        d="M174.6,77.18a1.21,1.21,0,0,0-.56.13c-.53.23-.78.77-.39,1.16a1.28,1.28,0,0,0,.88.4,1.34,1.34,0,0,0,.53-.14c.57-.25,1-.83.53-1.22A1.58,1.58,0,0,0,174.6,77.18Z" />
    <path class="cls-1"
        d="M163.87,82.1a1,1,0,0,0-.41.11c-.57.25-.85.84-.42,1.24a1.23,1.23,0,0,0,.89.35,1.12,1.12,0,0,0,.41-.1c.57-.26.86-.85.42-1.25A1.24,1.24,0,0,0,163.87,82.1Z" />
    <path class="cls-1"
        d="M150.08,86.34a1,1,0,0,0-.4.11c-.57.25-.86.84-.43,1.24a1.24,1.24,0,0,0,.9.35,1.12,1.12,0,0,0,.4-.1c.57-.26.86-.85.43-1.25A1.28,1.28,0,0,0,150.08,86.34Z" />
    <path class="cls-1"
        d="M146.24,77.32a.89.89,0,0,0,.29.26,1.33,1.33,0,0,0,1,.07.76.76,0,0,0,.38-1.25.84.84,0,0,0-.29-.27,1.38,1.38,0,0,0-1-.06A.76.76,0,0,0,146.24,77.32Z" />
    <path class="cls-1"
        d="M144.41,70.55a1.06,1.06,0,0,0,.3,1.43l0,0a4.89,4.89,0,0,0,.56.46,1.32,1.32,0,0,0,1.21,0c.63-.27.84-.63.47-1.12a2,2,0,0,0-1.42-1C145.17,70.29,144.65,70.28,144.41,70.55Z" />
    <path class="cls-1"
        d="M136.7,83.89a.77.77,0,0,0,.43-1.27,1.29,1.29,0,0,0-1-.42,1.19,1.19,0,0,0-.41.11c-.56.25-.85.84-.42,1.24a1.28,1.28,0,0,0,.73.35A2.22,2.22,0,0,0,136.7,83.89Z" />
    <path class="cls-1"
        d="M144.13,68.36a1.53,1.53,0,0,0-1.61-.31c-.19.1-.19.27-.14.45a2.16,2.16,0,0,0,.78,1.23c1,.66,1.66.49,1.64-.28a1.06,1.06,0,0,0-.3-.77C144.4,68.58,144.27,68.48,144.13,68.36Z" />
    <path class="cls-1"
        d="M102.21,66.62c-.07.2.08.44.43.73a5,5,0,0,0,.55.46,1.36,1.36,0,0,0,1.21,0c.63-.27.84-.63.47-1.12a3.21,3.21,0,0,0-.8-.84A1.34,1.34,0,0,0,102.21,66.62Z" />
    <path class="cls-1"
        d="M100,64a1,1,0,0,0,.9,1.29l.07,0c.8.18,1.68-.29,1.55-1a1.37,1.37,0,0,0-.84-1A1.22,1.22,0,0,0,100,64Z" />
    <path class="cls-1"
        d="M98.45,64.74a1.18,1.18,0,0,0-.93.32c-.17.13-.4.26-.55.4a.72.72,0,0,0,0,1,1.08,1.08,0,0,0,1.44.41,4.54,4.54,0,0,0,1-.52C100,65.77,99.33,64.93,98.45,64.74Z" />
    <path class="cls-1"
        d="M91.88,74.86c-.22.14-.46.26-.55.47a.72.72,0,0,0,0,.65A1.22,1.22,0,0,0,93,76.3a1,1,0,0,0,.38-.26.77.77,0,0,0-.09-.94A1,1,0,0,0,92,74.82Z" />
    <path class="cls-1"
        d="M74,62.11a1.12,1.12,0,0,0-.41.1c-.57.26-.85.85-.42,1.25a1.25,1.25,0,0,0,.89.35,1,1,0,0,0,.41-.11c.57-.25.85-.84.42-1.24A1.21,1.21,0,0,0,74,62.11Z" />
    <path class="cls-1"
        d="M63.26,63.25a.73.73,0,0,0,.17.38A1.21,1.21,0,0,0,65,64a.78.78,0,0,0,.45-.68.66.66,0,0,0-.17-.38,1.21,1.21,0,0,0-1.55-.37A.82.82,0,0,0,63.26,63.25Z" />
    <path class="cls-1"
        d="M58.11,56.48a1.48,1.48,0,0,0-.52-.4,1.37,1.37,0,0,0-.85,0,.76.76,0,0,0-.38,1.25.92.92,0,0,0,.29.26,1.45,1.45,0,0,0,1.19,0c.54-.2.71-.68.33-1.05Z" />
    <path class="cls-1"
        d="M54.42,47.44a1.53,1.53,0,0,0,.56-.13c.53-.24.78-.78.39-1.16a1.26,1.26,0,0,0-.88-.4,1.53,1.53,0,0,0-.53.13c-.57.26-1,.83-.53,1.22A1.65,1.65,0,0,0,54.42,47.44Z" />
    <path class="cls-1"
        d="M44.2,55.82a1.29,1.29,0,0,0-.51.4.73.73,0,0,0,0,.7,1.22,1.22,0,0,0,1.56.33.88.88,0,0,0,.38-.27.67.67,0,0,0,0-.76A1,1,0,0,0,44.2,55.82Z" />
    <path class="cls-1"
        d="M29.19,45.16a1.23,1.23,0,0,0-.55.47.74.74,0,0,0,.06.64,1.22,1.22,0,0,0,1.56.33,1,1,0,0,0,.38-.26.78.78,0,0,0-.09-1,1,1,0,0,0-1.28-.28Z" />
    <path class="cls-1"
        d="M7.84,27.75a1.33,1.33,0,0,0-1.6-.39.85.85,0,0,0-.51.71.77.77,0,0,0,.18.39,1.2,1.2,0,0,0,1.55.36.82.82,0,0,0,.44-.59A.73.73,0,0,0,7.84,27.75Z" />
    <path class="cls-1"
        d="M1.9,31.64a.68.68,0,0,0,.17.39,1.2,1.2,0,0,0,1.55.36.66.66,0,0,0,.24-1.11,1.14,1.14,0,0,0-1.49-.41A1,1,0,0,0,1.9,31.64Z" />
    <path class="cls-1"
        d="M5.33,34.51a.87.87,0,0,0,.2.53A1.13,1.13,0,0,0,7,35.37a.86.86,0,0,0,.52-.66.89.89,0,0,0-.21-.49,1.21,1.21,0,0,0-1.51-.46A.92.92,0,0,0,5.33,34.51Z" />
</svg>