<svg id="Layer_1" data-name="Layer 1" xmlns="http://www.w3.org/2000/svg" viewBox="0 0 110 5"><defs><style>.cls-1{fill:#f3be38;}</style></defs><path class="cls-1" d="M109.05,1.65c0-.3-.17-.37-1-.38-.13,0-.33,0-.46,0-2,0-4.1,0-6.15-.05L96,1.19c-1.12,0-2.25,0-3.38,0C90.77,1.17,89.35.56,87.5.5A18.72,18.72,0,0,0,85,1c-4.45.13-37.51,1.39-42,1.57C40.88,2.64,34.88,2,32.7,2s-4.09.46-6.2.42c-1.46,0-3-.44-4.46-.4-.66,0-1.33.12-2,.17a40.66,40.66,0,0,1-4.45.23,47.28,47.28,0,0,0-6.11.25,11.22,11.22,0,0,1-1.92,0,10.46,10.46,0,0,0-2.17-.1c-1.13.09-2.39.11-3.53.25a4.66,4.66,0,0,0-1.08.25c-.42.19-.57-.07-.4.25s.62.38,1.14.55a6.47,6.47,0,0,0,1.7.18c1.26,0,2.51,0,3.77,0,1.52,0,3.1.08,4.62.09.73,0,1.53,0,2.25,0A50.49,50.49,0,0,0,20,4.2c1.53,0,3.06-.18,4.58-.17,4.3,0,8.65.15,13,.25,1.26,0,2.57.11,3.7,0a37.65,37.65,0,0,1,5.44-.14c2.51,0,37.58-.31,40.08-.21l3.7.06c1,0,2,0,3,.06s1.72,0,2.52,0l4.11-.18q3.48,0,6.93.21a1.49,1.49,0,0,0,.74-.1,3.46,3.46,0,0,0,.86-.72,10.56,10.56,0,0,0,.44-1.42H109C109,1.74,109,1.7,109.05,1.65Z"/></svg>