<svg id="Layer_1" data-name="Layer 1" xmlns="http://www.w3.org/2000/svg" viewBox="0 0 502 518"><defs><style>.cls-1{fill:#663A72;}</style></defs><path class="cls-1" d="M316.41,455.22c2,.44,3.24.44,3.47,1.33,1,2.58,1.63,5.24,2.44,7.23.08,2.81-4.19,1.67-1.09,5.29,0,0,1.73-1.38,2.84-.72-.29,2.59,1.18,1,1,3.86,1.47.88.91-3.39,2.39-2.5a10.31,10.31,0,0,1,3,.06c1.62.22,3.06-7.54,3.14-6,.59,2.36,6.2-4.9,6.79-2.54.22.88-1.79,2.52-1.56,3.41l2.58,1.55c.37,1.47,6.73-10.15,7.32-7.79-.44.74-1,2.14-1.69,3.25,1.26,2.51,4.5-.82,6.27,2.5,1.85,7.39-5-1.26-3,6.71-.66,1.11,4.17.84,3.51,1.95.44,1.77-3.7,1.24-3.33,2.72,1.18,1,3.19.45,4.29,1.12-2.57,4.72,2.8-2.7,7.59.17,2.95-.28-.77-5-.68-9.76.44-.74,3.92,2.35,4.58,1.24-.08-.29,1.95-1.43,2.66-4.62.79-6.81-3-9.62-6.29-11.3-.81-.74-1.91-1.4-3.09-2.36.44-.74.51-1.7,1.1-1.85a19.83,19.83,0,0,1,4.12-1,2.49,2.49,0,0,0,2-2.07c-.44-1.77-.89-3.54-1.41-5.61-1.48-2.14-4.49.81-6-1.62.22-.37.36-1,.66-1.11,2.57-1,5.23-1.63,7.81-2.59,1.4.59,2.5,1.25,3.9,1.84a8.3,8.3,0,0,1,2.73-.36,28.14,28.14,0,0,0,3.61,1.91c2.14-1.47-.81-4.5,1.61-6.05l1.11.66a4.72,4.72,0,0,0,2.07.74,2.05,2.05,0,0,0,.66-2.37,1.9,1.9,0,0,1,.29-2.58c.51-.44,1.18-.3,2.28.37,1.18,1,2.44,1,4.72.07.73-2.07,1.69-4.5,2.49-6.28l9.43-2.37c1.33.3,1.85,1.11,1.41,1.85l-2.43,4.06c-.88.22-2.28.89-3.46,1.19-1.47.37,1.62-1,1.11.66,1.1.66.29,1.18,1.4,1.84.3,1.19-.35,2,1.71,2.71a38.34,38.34,0,0,1,2.71-3.81c1.47.88,3.6-4.36,5.08-3.48.44,1.77,3.41,3.82,3.93,5.88,3.87-7.87,2.93-10.11,2.34-8.71.88-2.11,3.59-3.73,4.93,1.59-.67,1.11,1.36-.57,2.17-3.37.44,1.77,1.46-6.2,1.9-4.43,4.32,1.43-2.22,9.16,1.68,6.67-.81-.74,2.75,1.19,1.56.23-.37-1.47,4.31-.87,3.87-2.64-1.18-1,2.14-3.58.67-4.46-.67-2.66,4.2.51,3.53-2.14.66-1.11-1.49-2.2-.83-3.31-1.11-4.43,5.26,4.71,4.14.28.59-1.41-2.06-3.25-1.18-4.73-1.63-6.49-4.28-.81-5.84-7,.44-2,2.06-1.77,3.46-2.44a27.09,27.09,0,0,0,3.62,1.92c.37.22.88-.22,1.47-.37-.37-1.48-.67-2.66-1-4.13a28.52,28.52,0,0,1-3.39-2.29,20.3,20.3,0,0,0,1.69-3.25,28.52,28.52,0,0,0-3.39-2.29c-.6-3.62-.67-3.91,2.86-4.8,2.21,1.33,4.72,2.58,6.94,3.91.36.22.88-.22,1.17-.29l-1-4.14a47.92,47.92,0,0,0,2.86-4.8,13.82,13.82,0,0,0,3.68-2.81l-2.21-1.33c-.74-.44-.59-1.1.07-2.21a9,9,0,0,0,.95-2.44c-.37-1.48-.52-3.32.66-3.62s1.7,1.77,2.29,2.88c.15.59,1.62,1.48,1.85,1.11a2,2,0,0,0,.65-2.36c-.37-2.74-.07-2.81,2.5-3.77.3-.08.81-.52,1.11-.59.88-1.48,2-3.33,2.87-4.81.22-.36-.23-.88-.3-1.18a2,2,0,0,1-2.58-.29c-.81-.74-.08-1.55,2.5-2.51l-.59.15a1.89,1.89,0,0,1,.07-2.22c.44-.74,1-.89,1.92.15.07.29-.15.66-.08,1a3.18,3.18,0,0,1-1.25,1.25,4.61,4.61,0,0,0,.08,2.81,17.34,17.34,0,0,0,3.83-1c.59-.15,1.18-1.55,1-2.14a48.28,48.28,0,0,0-1.63-6.5,2,2,0,0,1-2.58-.3c-.81-.73-.08-1.55,1.91-2.36-.37-1.48-.67-2.66-1-4.13.89-1.48,2.06-3,3.16-4.88l7.37-1.85a10.1,10.1,0,0,0,3.24-5.83c-2.29-1.63-4.5.81-6.49.37a30.07,30.07,0,0,1-2.5,3.77l-2.65.66c-2.66-1.84-5.53-3.32-8.19-5.16.44-.74.81-1.78,1.4-1.92,4.34-1.41,8.76-2.52,13.18-3.63.3-.07.44-.74.66-1.11a27.22,27.22,0,0,1-3.39-2.28c-.37-.22-.22-.89-.29-1.18a2.06,2.06,0,0,1-2.59-.3c-.81-.74-.07-1.55,1.92-2.36-.23-.89-.45-1.77-.67-2.66l-3.83,1c-.3.08-.66-.15-1-.37s-.74-.44-.52-.81.37-1,.66-1.11c2.73-1.62,3.76-1.25,5,1.26a1.91,1.91,0,0,0,2.13-1.48c.51-1.7-.89-3.55.95-4.95L474,303a21.18,21.18,0,0,0,3.54,1.62c1.54-1.33.58-2.66.14-4.43-1.48-.88-3.25-1.7-5.46-3-1.33-.3-3.31,1.77-5.75.81-.37-.22-.74-.44-.81-.74a1.38,1.38,0,0,1,.66-1.1,9.45,9.45,0,0,1,2.87-1,50.6,50.6,0,0,1,2.94-4.51c.22-2.88-1-5.38-1.41-8.12.37-2.29,1.84-3.91,2.72-5.39,1.62-1,2.72-1.62,4.05-2.59-2.58-1.54-4.87-3.17-7.08-4.5,1.32-2.21,2.42-4.06,3.53-5.9a1.37,1.37,0,0,0-1.33-1.56c-.37-.22-.89.23-1.48.37a1.9,1.9,0,0,1-2.58-.29c-.51-.81.44-2,2.21-2.44l4.13-1a8.53,8.53,0,0,0,2.57-1l2.87-4.8c-2.14-2.29-4.35.15-6.56.07-.74-.44-1.69-.51-2.43-1a58.14,58.14,0,0,1-5.48-3.09c-1.11-.66-1.48-.88-1.41-1.84a2,2,0,0,1,2.14-1.48l1.18-.3c1.91,1.41,1,.14,3.34-.45l2.58,1.55a9.2,9.2,0,0,0,6.19-1.55c.22-.37,1-.89.95-1.19-.59-2.36-1.11-4.42-1.7-6.79l-2.66.67a1.91,1.91,0,0,1-2.58-.3c-.44-.51,0-1.25.66-2.36l.67-1.11c-1.34-2.8-4.28.45-5.76-1.69a27.09,27.09,0,0,0,1.92-3.62c-1-4.14-2.08-8.27-3.05-12.11a2,2,0,0,1-2.58-.29,3.9,3.9,0,0,1-.88-3.55,1.9,1.9,0,0,1,2.13-1.47c-.07-.3.07-1-.3-1.19a56.65,56.65,0,0,0-5.16-3.09c-.37-.23-.88.22-1.18.29.3,1.18.67,2.66,1,3.84-1.32,2.22-1.32,2.22-2.87,2.29-1.76.45-2.21-.07-2.95-1.77a3.57,3.57,0,0,1,.66-3.62l3.83-1c-.15-.59-.59-1.11-.37-1.48a27.49,27.49,0,0,0,1.91-3.61l-4.79-2.88a29.27,29.27,0,0,1-2.28,3.4c-1.77-.82-2.81-2.44-1.7-4.29a9.64,9.64,0,0,0,1.24-5c-.3-1.18.95-2.44,2.5-2.51a2.49,2.49,0,0,0,2-2.07c-.59-2.36-1.26-5-1.93-7.68a1.33,1.33,0,0,0-2.06-.73c-.3.07-.44.73-.66,1.1.44,1.77.88,3.55,1.33,5.32-1.62,2.29-1.62,2.29-7.07,3-1.33-.29-1.55-1.18-.44-1.77.81-.52,1.76-.45,2.5-1.26.51-.44,1.47-1.62,1.4-1.92a2,2,0,0,0-2.36-.66c-3.39.22-3.39.22-4-2.14-.29-1.18-.66-2.66-1-3.84l.88-1.48c1.47-2.88,1.25-3.76-1.11-5.68-.81-.74-1.48-.89-1.4-1.85.36-1,1.25-1.25,2.13-1.48,1.77-.44,2.21-1.18,2.06-3a2.89,2.89,0,0,0-2.59-2.81c-.95-.07-1.76.44-2.72.37-.3.08-.74-.44-1.4-.59-.45-1.77-.89-3.54-1.41-5.61a11.82,11.82,0,0,1,2-3.32c-1.48-2.14-4.57.52-6-1.62-.22-.89-.45-1.78-.67-2.66.58-2.66,4.35-1.41,4.56-4.29L430,139.13l-4.13,1a1.57,1.57,0,0,1-.36,2.29c.67,1.4-.22,1.62-.81,1.77a2,2,0,0,1-2.36-.66c-.07-.3.52-1.7,1.1-1.85a17,17,0,0,1,3.84-1c-.15-.59-.6-1.11-.38-1.48a28.3,28.3,0,0,1,1.91-3.62c-.74-2.95-1.4-5.61-2.07-8.27-.37-.22-1.18-1-1.11-.66-.44.74-1.25,1.26-1.1,1.85a20,20,0,0,0,1,4.13,2,2,0,0,1-.66,2.36c-2.14.23-4.2,2-6.71.75.22-2.88,2.28-4.66,3.53-7.17a26.63,26.63,0,0,1-3.39-2.29c-.3-1.18-.67-2.65-1-4.13l-3.83,1a1.65,1.65,0,0,1-1-.37c-.36-.22-.73-.44-.51-.81s.36-1,.66-1.11c2.72-1.62,3.76-1.25,5,1.26,1.25,0,2.06-.52,2.14-1.48.07-2.22-.23-4.65,1.83-6.43l-1-3.84c-.22-.88-.44-1.77-1.47-2.14a3.24,3.24,0,0,0-3.61.6c-1.4,1.92-2.43,4.06-3.82,6-.74-.44-1.7-.52-1.85-1.11a29.25,29.25,0,0,1-1.26-5c.59-1.4,2.21-2.44,1.54-3.84-1-1.62-2.58-.29-3.76,0-.66,1.11-1.61,2.29-2.27,3.4l-4.8-2.88a5.51,5.51,0,0,1,1.69-2,19.91,19.91,0,0,1,4.13-1c.59-.15.95-1.18,1.69-2L402,97.5a8.21,8.21,0,0,1-2.72.37A27.64,27.64,0,0,0,395.65,96a6,6,0,0,0-2.42,1.56c-.81.51-.74-.45-.23-.89,1-.89,1.77-.44,1.48.89a3.08,3.08,0,0,1-1.18,1.55s-1-.37-.07-1.55c.88-1.48.43-2,.66-2.37l2-3.32c-1.11-.67-2.29-1.62-3-2.07a26.12,26.12,0,0,1,1.61-3.54c-2.58-1.55-4.57.52-7.07.52a47.27,47.27,0,0,1-4.5-3c.14-1.92,2.87-3.55.94-6.21l-3.31-2A27.64,27.64,0,0,0,382.43,72c-.3-1.18-.16-3.1-2.07-3.24-1.25,0-1.47,1.62-2.43,2.8-2.8.08-1.63-4-4.28-4.57l-3.24.81c-1,2.14-2,4.58-3.09,6.43a10.12,10.12,0,0,1-3.31.51,21.94,21.94,0,0,0-3.54-1.62l-2.87,4.8c-.22.37.22.89.3,1.18a1.57,1.57,0,0,1,2.28.37,23.82,23.82,0,0,1,1.18,2.22,2,2,0,0,1-.65,2.36c-.3.07-1.7-.52-1.85-1.11a16.75,16.75,0,0,1-1-3.84,2.21,2.21,0,0,1-3.1-1.1,14.9,14.9,0,0,1-.89-3.55l-3.83,1c-.29.07-.66-.15-1-.37s-.74-.45-.52-.81.37-1,.66-1.11c2.73-1.63,3.76-1.26,5,1.25.6-.15,1.26,0,1.48-.37a49,49,0,0,0,2.87-4.8c-.74-.44-1.26-1.26-1.85-1.11a19.74,19.74,0,0,0-4.12,1,2,2,0,0,1-2.36-.66c.66-1.11,1.25-2.52,1.91-3.62-2.29-1.63-5.53.44-7.45-2.22-.66,1.11-1.62,2.29-2.28,3.4l-5.3,1.33c-1.11-.66-2.51-1.25-3.62-1.91l-12.37,3.1c-.89.23-2.14.23-2.36-.66-.08-.29.51-1.7,1.1-1.85,1.11-.59,2.65-.66,3.17-2.36a52.17,52.17,0,0,0-5-2.51,10.51,10.51,0,0,1-2.13,2.73c-2.88-.22-1.63-4-4.28-4.57L306,60.7c-1.55-1.18-1.55-1.18.14-4.43l-4.43-2.65c-3.53-.37-6.18,1.55-9,1.63-.89,1.47-1.33,2.21-2,3.32-3.24.81-6.7,2-10.31,2.59-1.47.37-2.44-1-2.51-2.51a1.9,1.9,0,0,0-.59-1.11L274.74,56a9.41,9.41,0,0,1-1.19-2.21c-.44-1.77-.3-3.69-2.73-4.65l-2.65.67c-1.62,2.29-2.28,4.65-4.63,6.5-1.7-.52-1.48-2.14-2.15-3.55-1.47-.88-3.24-1.69-5.09-2.8l-5,1.26c-1.4-.59-2.5-1.26-3.9-1.85a28.85,28.85,0,0,1-2.28,3.4l-4.13,1,1,3.84c.07.29-.15.66-.37,1s-.44.74-.81.52-1-.37-1.11-.67c-1.62-2.73-1.26-3.76,1.25-5-.23-.88-.45-1.77-.67-2.66a1.93,1.93,0,0,0-1.48-2.14c-.66-.14-1.1.59-1.76,1.7l-.66,1.11a7.74,7.74,0,0,1-4.72-2.58c-1.19-1-1.92-2.66-3-4.28a22.49,22.49,0,0,1-2.28,3.4,21.19,21.19,0,0,0-3.54-1.63l-3.75,6.28c-1.54.08-2.14-1-2.43-2.21a2.79,2.79,0,0,0-1.77-2.07,8.58,8.58,0,0,1-2.73.37c-1.32,2.22-2.94,4.51-4.26,6.72-1.7-.51-1.77-2.06-2.37-3.17A2.74,2.74,0,0,0,203.32,51a69.08,69.08,0,0,0-7.66,1.92c-2.65,4.44-2.65,4.44-6.41,3.18-.59-1.1-.15-3.1-1.77-3.32-1.25,0-1.32,2.22-2.5,2.51-2.8,1.33-6,2.44-9.21,2-1.55-1.18-1.48-3.4-1.92-5.17a2.06,2.06,0,0,0-1.7-1.77c-.3.08-.88,1.48-1,2.14-.07,1,.15,1.85.08,2.81.07.29-.44.74-.66,1.11l-4.13,1a2.23,2.23,0,0,1-1.1,3.11c-1.1.59-2.36.59-4.79,2.14-.81.52-.73-.44-.22-.89,1-.88,1.77-.44,1.48.89a3,3,0,0,1-1.18,1.55s-1-.37-.08-1.55a26.66,26.66,0,0,0-1.12-9.45L155,54.36c-1,2.14-2,4.58-2.57,6-2.2,1.18-3.38,1.48-4.41,2.37-.81.51-.89,1.47-.22,2.88.07.29-.15-.6-.15-.6a1.87,1.87,0,0,1,2.21.08c.74.44.89,1-.14,1.92-.3.07-.67-.15-1-.08a3.18,3.18,0,0,1-1.25-1.25,3.41,3.41,0,0,1-2.73-.89c-1.26-1.25-.89-3.54-3.18-3.91l-5.3,1.33c-.66,1.11-1.62,2.29-2.28,3.4l-2.65.67c-1.47,1.62-.37,3.54.08,5.31.37,1.48.3,2.44-.73,3.33-.37-.22-1-.37-1.11-.67A33.44,33.44,0,0,1,128,69c-.29-1.18-1.92-1.4-3.39-1a2.77,2.77,0,0,0-2.06,1.77c1.11.67,1.92,1.41,3,2.07a8.06,8.06,0,0,1-1.39,1.92,63.94,63.94,0,0,1-7.37,1.85l-5.16-3.1c-.37-1.48-.74-3-1-4.13-2.14.22-2.88-.22-3.17-1.41-.74-1.69-.89-3.54-1.93-5.16-.51-.81-1.47-.89-2.58-.3l2.38,9.45a1.35,1.35,0,0,1-1.47,1.63,1.37,1.37,0,0,1-1.11-.67L102,69.23c-.74-.45-1.84-1.11-2.43-1-2.06.52-4.64.22-5.89,2.73a28.52,28.52,0,0,1,3.39,2.29c.22.89.45,1.77.67,2.66,1.4,1.84,3.54.37,4.94,1a1.91,1.91,0,0,1,1.47,2.14l3.83-1a1.65,1.65,0,0,1,1,.37c.37.22.74.45.51.81s-.36,1-.66,1.11c-2.72,1.63-3.75,1.26-5-1.25-.59.15-1.25,0-1.47.37a47.06,47.06,0,0,0-2.87,4.8c.22.89.15,1.85.37,2.73a27.8,27.8,0,0,1,3.4,2.29c-.74,2.07-2.21,2.44-4.2,2-1-.08-1.55-1.18-2.51-1.26-1-.37-3.09.15-3.46,1.19a2.39,2.39,0,0,0,0,2.51,3.3,3.3,0,0,0,.52.81c1.18,1,2.66,1.84,3.17,2.65,1.26,1.26.23,3.4-1.76,4.21a2,2,0,0,1-.29,2.59c-.73.81-1.55.07-2.36-1.92l-4.13,1a5.38,5.38,0,0,0-1,2.43c.15,1.85,1.19,3.47.89,4.8-1.1,1.85-1.91,3.62-2.79,5.1l-4.12,1a2,2,0,0,0,1.47,2.15c1.7.51,3.46-1.19,5,1.25l.51,2.07a9.16,9.16,0,0,1-1.69,2c-2.58,1-5.23,1.63-7.8,2.59-.3.07-.45.74-.67,1.11a26.57,26.57,0,0,1,3.4,2.28c.37.22.22.89.29,1.18a1.58,1.58,0,0,1,2.29.37c.44.52.66,1.4,1.18,2.22a2,2,0,0,1-.66,2.36c-.29.07-1.69-.52-1.84-1.11a17.44,17.44,0,0,1-1-3.84l-2.65.67a2,2,0,0,0-2.13,1.48c-.15.66.29,1.18,1.33,1.55s1.47.88,1.32,1.55a1.91,1.91,0,0,1-2.13,1.48l-2.65.66c.22,2.14-.22,2.88-1.4,3.18-1.69.74-3.53.89-5.15,1.92-.81.52-.88,1.48-.29,2.58l4.42-1.11c.73.45,1.92,1.41,3,2.07.37.22.89-.22,1.77-.44l-.59.15a1.89,1.89,0,0,1,.07-2.22c.44-.74,1-.89,1.92.15.07.29-.15.66-.08,1A3.25,3.25,0,0,1,77.38,147a10.51,10.51,0,0,0,.45,4.28c-1.1,1.85-1.76,4.21-4.19,5.77-1.55.07-3.31.51-4.86.59-1-.07-1.48-.89-1.48-2.14l-4.12,1c-.89,1.48-1.69,3.25-2.8,5.1a17.49,17.49,0,0,0,2.45,8.49c.52.81,1.47.89,2.58.29-.37-1.47-.67-2.65-1-4.13a49.91,49.91,0,0,0,2.87-4.8c2.28.37,2.36,1.92,2.29,4.13-1.92,1.11-1.4,4.43-4.12,4.8l1,4.14c-.22.37-.37,1-.66,1.11-.81.51-1.7.74-2.51,1.25-.44.74-1.25,1.26-1.69,2-1.4,1.92-2.43,4.06-3.53,5.91.08,1.55,1.63,1.47,2.51,2.51.3,2.43,3.32,4.5.53,7.08-1.11-.66-2.14-1-3.25-1.69-.44.74-1,1.18-.88,1.48l2.75,10.92c-.59,2.66-4.28,1.7-4.57,4.29a11.75,11.75,0,0,1,3.1,2.36l-2.86,4.8-2.66.67c-1.24,3.76-1.24,3.76,2.89,6.49A11.94,11.94,0,0,0,54,227.27c.89,1,2.14,1,3.61.66.59-.15,1.7.52,2.44,1l-2.87,4.8A14.62,14.62,0,0,0,54,234.8c-.58,1.4-1.39,3.17-2.64,5.69-.07-.3.66.14,1.62.22,1.25,0,2.5-1.26,3.83.29a9.57,9.57,0,0,1-2.35,4.36c-.95,1.18-2.65,1.92-4.27,2.95,2.36,1.92,5,2.51,6.79,4.58-.51,1.7-2.13,1.48-3.24,2.07a1.38,1.38,0,0,0-.66,1.11c-.15.66.37,1.47,1.62,1.47A33.54,33.54,0,0,0,60,256.21c2.8,1.18,2.21,3.84,2.81,6.2.14.59-.59,1.4-1.11,1.85a6.16,6.16,0,0,0-2.5-1.26,7.55,7.55,0,0,0-2.51,0,1.87,1.87,0,0,0-1.1.6C55,266,52.22,266.33,50.75,268a7.79,7.79,0,0,0-2.35,4.36c1.25,1.26,2.65.59,3.83.3.66-1.11,1.62-2.29,2.28-3.4,3.39,1,1.33,5.31,3.62,6.94,2.66,1.84,5.38-2.29,7.89.21-1.33,2.22-2.57,4.73-3.9,6.95.23.88.45,1.77.67,2.65-.29,2.59-4.42,1.11-4.56,4.29L63,293.13c.37.22.89-.23,2.06-.52l-.58.15a1.87,1.87,0,0,1,.07-2.22c.44-.74,1-.89,1.91.15.08.29-.14.66-.07,1a3.18,3.18,0,0,1-1.25,1.25c-.66,1.11-.15,1.92.81,2,1.62.22,3.17.14,5.09.29-.88,1.48-1.25,2.51-2.13,4a26.51,26.51,0,0,0,1.18,4.72,2.72,2.72,0,0,0,3.76,1.26l-.59.14a1.89,1.89,0,0,1,.07-2.21c.45-.74,1-.89,1.92.15.08.29-.15.66-.07,1A3.25,3.25,0,0,1,74,305.45c-.44.74,0,1.26-.22,1.63-1.25,2.51-2.87,4.8-3.9,6.94,1.19,3.47,1.19,3.47,3.4,3.54l1.47-.37a3.37,3.37,0,0,1,2.59,4.06c-.37,1-.88,1.48-1.47,2.88a73.52,73.52,0,0,0,2.82,11.23c1.25,1.25,1.84,1.1,2.13-.23.08-1-.15-1.84,0-2.51a5.46,5.46,0,0,1,1-2.44l8.49,5.09a2.27,2.27,0,0,1-2.65,1.93c-1.84,2.66-3,4.21-3.9,5.68,2.36,1.92,5.82-.52,7.82,2.44a10.94,10.94,0,0,1,3-.45,45,45,0,0,0,4.72,2.58c.44,1.78.44,1.78-1.92,2.37l-2.65.66c.89,3.55,1.86,7.39,2.75,10.93l4.12-1c.3-.07.74.45,1.11.67.07.29.15.59.22.88-1,2.15-2.42,4.07-3.53,5.91a5.36,5.36,0,0,0,2.44,1,3.22,3.22,0,0,0,2.28-.89c1.4-1.92,2.42-4.06,3.53-5.9a8,8,0,0,1,1.92,1.4,4.36,4.36,0,0,1,.37,2.73c-.07,1-1.18,1.55-1.25,2.51-.29,1.33-.29,2.59.89,3.54l2.58,1.55a27.55,27.55,0,0,0-1.62,3.55c.23.89.45,1.77.6,2.36,1.4,1.85,3.24.44,4.94,1a1.91,1.91,0,0,1,1.47,2.14l2.66-.67c2.06-.51,3.16.15,3.69,2.22l.66,2.66,4.13-1c.29-.08.74.44,1.1.66l.23.89c-1,2.14-2.43,4.06-3.53,5.91,1,1.33,2.14,1,3.61.66.88-.22,1.7.52,2.36.66a28.3,28.3,0,0,0-1.91,3.62c2.29,1.63,5,2.51,6.79,4.58a8.71,8.71,0,0,1,.07,2.8c-.07,1-.88,1.48-2.13,1.48a17.56,17.56,0,0,0,1,3.84c.52.81,1.55,1.18,2.07.74a10.67,10.67,0,0,1,1.32-2.22c1.69-2,4-1.33,5,1.26a1.9,1.9,0,0,1,2.58.29,1.86,1.86,0,0,1,.6,1.11c.37,1.47.66,2.65,1.11,4.43,2.88,2.73,7,4.2,10.47,6.78l1,3.84,6.77-1.7,4.8,2.88c.15,3.1-4.35,1.4-4.2,4.5,1.41.59,2.88,1.48,5,2.51l7.07-1.77c2.65.59,4,2.14,6.05,2.87-1.77,3-4.49,2.07-6.7,3.26-.08,1-.37,2.29-.44,3.25a13.41,13.41,0,0,0,6,3.83c1.47-.37,3-.44,3.24-2.07.07-1-.45-1.77-.38-2.73,0-1.25.81-1.77,1.47-1.62l1.11.66a24.05,24.05,0,0,0,3.32,2c.52,2.07,1,3.84,1.41,5.61L191.06,455c.37,2.73-.43,5.76,3,7.09l2.36-.59a27.49,27.49,0,0,1,3.61,1.91,2.25,2.25,0,0,0,.59-2.66c-.37-2.73.36-3.54,2.5-3.76.88-.22,1.69.51,2.36.66.22.89.44,1.77.67,2.66-.67,1.11-1.25,2.51-1.92,3.62.52,2.06,1,3.84,1.41,5.61l4.8,2.88c.66-1.11,1.62-2.29,2.28-3.4l2.65-.67c1.33.3,1.84,1.11,1.11,1.92L213,476.17c1.11.66,2.29,1.62,3.39,2.29.37,1.47,1,2.88-.21,4.13-2.21-1.32-4.72-2.58-6.93-3.91-.22.37-.74.82-.67,1.11.6,3.62,1.49,7.16,2.38,10.71.22.88,1.25,1.25,3.39,1l.88-.22c3.25,1.69,4.94-4.07,8.71,4.72.37,1.48,4.08-1.66,3.64-3.44-1.11-.67-1.49-4.55-2.85-5.32-1.55-2.44,2.5-1.8,1.54-4.38-.52-2.07,1.33-4.71.22-6.63-1.1-.66,4.58-3.06,3.84-3.5-.07-.29,5.46-1.54,5.39-1.83-3.12-12.41,7,3.87,3.81-8.83.37-1,9.05,6.08,9.93,4.6l-2-8a47.06,47.06,0,0,1,2.87-4.8c2.43-.3,3.68,2.21,5.6,2.36.52,2.06,1,3.84,1.48,5.9a16.89,16.89,0,0,1,3.84.3,29.35,29.35,0,0,1,2.5-3.77l5.6-1.41c1.47.89,3,2.07,4.86,3.18a18.79,18.79,0,0,1-1.69,3.25c3.25,1.69,3.54,1.62,6-2.44,2.14-.23,3.83,2.8,6.19.95,2.21,1.33,4.72,2.58,7,4.21l2.94-.74c0-1.26.29-2.59.29-3.84a30.31,30.31,0,0,0-3.76-2.51c.66-1.11,1.32-2.22,2-3.32s.88-1.48,1.83-1.41c1,.37,1.26,1.26,1.48,2.14.23,2.14.89,2.29,2.95,1.77a2.52,2.52,0,0,1,2.58.3,1.09,1.09,0,0,1,.52.81c-.88,1.48-2.35,3.1-1.17,5.32a33.37,33.37,0,0,0,8.85,5.31c.81-.52,1.69-.74,2.5-1.26s.89-1.48.29-2.58a1.57,1.57,0,0,1-2.28-.37c-.44-.52-.66-1.4-1.18-2.22a2,2,0,0,1,.66-2.36c.29-.07,1.69.52,1.84,1.11a16.88,16.88,0,0,1,1,3.84,1.57,1.57,0,0,1,2.29.37c1,1.32,1.63,2.73,2.66,4.35,3.09-2.66-.67-5.17.28-7.6l2-3.33c-1.92-1.4-2.22-2.58-3.77-5-.52-.81.44-.74.89-.22.88,1,.44,1.77-.89,1.48a3.13,3.13,0,0,1-1.55-1.18C314.79,455,315.23,454.26,316.41,455.22ZM372.27,78.91l-8,2c-.29.07-.74-.45-1.11-.67-.44-.51-.29-1.18.44-2l8-2c.29-.07.74.44,1.11.67C373.44,77.36,373,78.1,372.27,78.91ZM455,344.76c1.32-2.21,3-2.95,5.6-1.4.07,1.55,1.77,3.32-.81,4.28A49,49,0,0,0,455,344.76ZM429.85,146.07c2.51,1.26,3,3,1.41,5.61C428.68,150.13,428.23,148.36,429.85,146.07Zm7.7,20.67c-.37-.22-1-.36-1.11-.66l-.66-2.66c-.08-.29.44-.74.66-1.11a.57.57,0,0,1,.88-.22c1.62.22,2.36,3.18,1.11,4.43C438.21,166.89,437.84,166.67,437.55,166.74ZM84.37,324.5c-1.25,2.51-3,2.95-5.6,1.4C80.31,323.32,82.08,322.87,84.37,324.5Zm347.86,68.05c-.07-.3-.22-.89-.3-1.18l.67-1.11c.51-.45,1.17-.3,2,.44.36.22.22.89.29,1.18a2,2,0,0,1-.29,2.58C433.78,395,432.67,394.32,432.23,392.55ZM230.59,56.09c-.51.44-1.17.3-2-.44,0,0,.44-.74.67-1.11.51-.44,1.17-.29,2,.44C231.55,54.91,231.11,55.65,230.59,56.09ZM104.71,94.92c.45.52.3,1.18-.43,2l-1.11-.67c-.44-.52-.3-1.18.44-2ZM267,57.62l.66-1.1c.52-.45,1.18-.3,2,.44L269,58.07C268.48,58.51,267.81,58.36,267,57.62Zm75.64,16.8c-.52.44-1.18.3-2-.44l.67-1.11c.51-.44,1.18-.3,2,.44ZM447.76,193.69l1.11.66c.44.52.3,1.19-.44,2l-1.11-.67C446.66,195.54,446.8,194.87,447.76,193.69ZM72.08,290.54c-.51.44-1.18.29-2-.44l.66-1.11c.52-.44,1.18-.3,2,.44C72.82,289.73,72.3,290.17,72.08,290.54Zm398.3-50.42-1.1-.66c.36-1,.88-1.48,1.54-1.33l1.11.66C471.56,239.83,471.05,240.27,470.38,240.12Zm-2.67,35.52-1.1-.66c.36-1,.88-1.48,1.54-1.33l1.11.66C468.89,275.35,468.38,275.79,467.71,275.64Zm-1,27.25,1.1.66c-.37,1-.88,1.48-1.54,1.33l-1.11-.66C465.55,303.18,466.06,302.74,466.73,302.89ZM154.21,408.05c.45.51.3,1.18-.44,2l-1.1-.66c-.44-.52-.3-1.18.44-2Zm305-74.07c.52-.44,1.18-.3,2,.44l-.66,1.11c-.51.44-1.18.29-2-.44Z"/><path class="cls-1" d="M310.55,479.3c.88-1.48,1-2.15.66-2.37l-4.79-2.87c-.52.44-1.25,1.25-1.18,1.55a75.5,75.5,0,0,0,2,8c2.95,1.77,5,0,7.59-1,1.4-1.92-.22-3.4-.37-5.25a8.84,8.84,0,0,0-3.91,1.93c-.81.51-.73-.45-.22-.89,1-.89,1.77-.44,1.48.89a3.13,3.13,0,0,1-1.18,1.55C310.33,480.92,309.6,480.48,310.55,479.3Z"/><path class="cls-1" d="M199.56,471.38l-4.13,1c-1.1-.66-2.5-1.25-3.61-1.91a4.19,4.19,0,0,0-.88,2.73c.23,3.4.23,3.4-2.13,4l-3.83,1-.88,1.48c.07.29.52.81.81.73,3.24.45,6-.88,9.21-2,.66-2.37,2.94-3.25,4.86-4.36A1.82,1.82,0,0,0,199.56,471.38Z"/><path class="cls-1" d="M73.06,71.16c-1.77-2.07-4.49.82-6-1.62-.22-.89-.45-1.77-.67-2.66a1.36,1.36,0,0,0-1.11-.66c-.66-.15-1.47.37-1.47,1.62a36.26,36.26,0,0,0,1.41,5.61c-.73.82-1.4,1.93-2.35,3.11,2.36,1.92,4.42.14,6.56-.08C71.3,75.37,71.67,73.08,73.06,71.16Z"/><path class="cls-1" d="M99.88,63.17l-1.18.3c-3.54.89-3.54.89-4.94-2.21a2.78,2.78,0,0,0-4.13-1.48,7.81,7.81,0,0,0-1.4,1.92c.3,1.18.67,2.66,1,3.84,2-.81,3.17,1.4,5.68,1.4a17,17,0,0,0,3.83-1A1.75,1.75,0,0,0,99.88,63.17Z"/><path class="cls-1" d="M217.58,497a1.52,1.52,0,0,0-1.7-.51,5.68,5.68,0,0,1-5.23-.89.91.91,0,0,0-.66-.14c-1.18,1.55-2.06,3-3.24,4.57l5.17,3.1a11.36,11.36,0,0,1,3-.44A25.28,25.28,0,0,1,217.58,497Z"/><path class="cls-1" d="M484.13,309.82c-.08-1.55-1.18-2.21-2.73-2.14a26,26,0,0,0-4.72,1.18,21.5,21.5,0,0,1-2.28,3.4l-3.83,1c.23.89.45,1.78.67,2.66l6.78-1.7c.66-1.11,1.62-2.29,2.28-3.4Z"/><path class="cls-1" d="M122.82,407.77l4.79,2.88,2.66-.67c.66-1.11,1.17-2.81,2.27-3.4s1.7-.74.81-1.77c-.37-.22-.81-.74-1.1-.66a19.69,19.69,0,0,0-9.14,2.29A2.28,2.28,0,0,1,122.82,407.77Z"/><path class="cls-1" d="M66.24,90.14A19.15,19.15,0,0,1,63,88.44c-1.11-.66-1.48-.88-2-.44a1.93,1.93,0,0,0-.29,2.59c.08.29.23.88.37,1.47a19.61,19.61,0,0,0,3.25,1.7c.3,1.18.52,2.07.74,2.95.08.3.74.45,1.11.67a1.35,1.35,0,0,0,1.54-1.33Z"/><path class="cls-1" d="M159.4,426.21l-4.13,1c-1.1-.66-2.5-1.25-3.61-1.91-1.47.37-3,.44-3.46,2.44l4.43,2.65a8.46,8.46,0,0,0,6.48-1.63A1.91,1.91,0,0,0,159.4,426.21Z"/><path class="cls-1" d="M475.28,355.68l-6.77,1.7c-1.33,3.47-1.33,3.47,1.33,5.32.66-1.11,1.4-1.92,2.06-3,.74.44,1,.37,1.47.88.82.74,1.55,1.18,2.36.67a1.92,1.92,0,0,0,.29-2.59A10.43,10.43,0,0,1,475.28,355.68Z"/><path class="cls-1" d="M427.08,117.57l-3.83,1a2.9,2.9,0,0,0-.66,3.62c.74,1.7,1.19,2.22,3,1.77,1.18-.29,1.18-.29,2.87-2.29A22.22,22.22,0,0,1,427.08,117.57Z"/><path class="cls-1" d="M22.08,224c-3.17-1.41-3.17-1.41-5.6,1.4l.66,2.66c3.18,1.4,3.18,1.4,5.6-1.41Z"/><path class="cls-1" d="M457.34,143.25c-1.63-.22-2.95-.51-3.91-.59-2.43,1.56-2.79,3.85-4.49,5.84,1.63.22,2.95.51,3.91.59C455,147.61,455.35,145.32,457.34,143.25Z"/><path class="cls-1" d="M452.6,178l2.87-4.8c-1.11-.66-2.8-1.18-3.1-2.36-.59-1.11-.74-1.7-1.77-.81-.22.37-.74.81-.66,1.11a12.52,12.52,0,0,0,1.63,6.49A4.48,4.48,0,0,1,452.6,178Z"/><path class="cls-1" d="M21.73,284.66,16.43,286c-.59.15-.59,1.4-.81,1.77l4.79,2.88A46.27,46.27,0,0,0,23,285.91C23.2,285.54,22.76,285,21.73,284.66Z"/><path class="cls-1" d="M480.52,264.26c-1.84,1.41-2.21,3.7-3.75,5,1.7,1.77,3,.81,4.2.51a27.29,27.29,0,0,1,2.28-3.4c1.39-1.92,1.32-2.21-.3-2.43A5.88,5.88,0,0,0,480.52,264.26Z"/><path class="cls-1" d="M484.72,266l1,3.84a2.87,2.87,0,0,0,3.61.67c1.69-.74,2.21-1.19,1.76-3-.29-1.18-.29-1.18-2.29-2.88A20.7,20.7,0,0,1,484.72,266Z"/><path class="cls-1" d="M183.68,449.31,181,450a26.94,26.94,0,0,0-3.61-1.92c-1,3.39-1,3.39,1.62,5.24l5.31-1.33c.29-.08.44-.74.66-1.11C185.45,450.12,184.93,449.31,183.68,449.31Z"/><path class="cls-1" d="M264.77,465.36c.67,2.66,1.33,5.32,2,8,.08.29.74.44,1.11.66.66.15,1.18-.29,1.47-1.62q-1-4-2-8c-.08-.29-.74-.44-1.11-.66C265.58,463.59,265.14,464.33,264.77,465.36Z"/><path class="cls-1" d="M387,470.47c1.4-1.92,1.32-3.47-.3-5a23.27,23.27,0,0,0-4.5-2.95c-1.4,1.92-1.33,3.47.3,4.95A22.67,22.67,0,0,0,387,470.47Z"/><path class="cls-1" d="M305.53,4c2.29,1.62,4.06,1.18,5.6-1.41-1.11-.66-2.51-1.25-3.61-1.92s-1.48-.88-2-.44a1.93,1.93,0,0,0-.29,2.59C305.6,3,305.46,3.7,305.53,4Z"/><path class="cls-1" d="M121.23,54.67a17.34,17.34,0,0,0,3.83-1c.59-.15.66-1.11,1.11-1.85l-4.43-2.65c-.44.73-1.25,1.25-1.1,1.84C120.35,52.38,120.94,53.49,121.23,54.67Z"/><path class="cls-1" d="M112.69,55.56c-2.29-1.62-4.06-1.18-5.6,1.41,1.1.66,2.51,1.25,3.61,1.91s1.48.89,2,.45a1.92,1.92,0,0,0,.29-2.59Z"/><path class="cls-1" d="M158.67,54.06a17.48,17.48,0,0,0,3.83-1c.59-.15.66-1.11,1.1-1.85l-4.42-2.65c-.45.74-1.26,1.25-1.11,1.84C157.78,51.77,158.37,52.88,158.67,54.06Z"/><path class="cls-1" d="M218.71,45l2.87-4.8c-1-2.59-2.73-.89-4.28-.81C215.76,41.92,216.5,43.62,218.71,45Z"/><path class="cls-1" d="M347.39,54.7c-3.09-1.1-3.09-1.1-5.3,1.33.67,1.41,0,3.77,2.73,3.4A48.3,48.3,0,0,1,347.39,54.7Z"/><path class="cls-1" d="M68.83,146.63a2.09,2.09,0,0,0-2.2,2.44,44.29,44.29,0,0,0,1.56,6.2,2.1,2.1,0,0,0,2.2-2.44Z"/><path class="cls-1" d="M414.75,103.4l-1.63-6.5c-.15-.59-1.1-.66-1.84-1.1,0,0-.74.81-.66,1.11.22,2.14.44,4.28,1.85,6.12C413,103.85,413.87,103.62,414.75,103.4Z"/><path class="cls-1" d="M32.61,263.09c-1.61,2.29-.87,4,1.41,5.61.66-1.11,1.25-2.51,1.91-3.62.74-.81.89-1.47.44-2a1.91,1.91,0,0,0-2.58-.3C33.57,263.16,33.2,262.94,32.61,263.09Z"/><path class="cls-1" d="M451.7,169.47a17.34,17.34,0,0,0,3.83-1c.59-.15.67-1.11,1.11-1.85L452.21,164c-.44.73-1.25,1.25-1.1,1.84C450.82,167.18,451.41,168.29,451.7,169.47Z"/><path class="cls-1" d="M465.58,183.57l-2.87,4.8c1,2.58,2.73.88,4.28.81C468.24,186.66,467.5,185,465.58,183.57Z"/><path class="cls-1" d="M66,308.7c-.66-1.4-.15-3.1-1.77-3.32S62.75,307,62,307.82l-.66,1.11L60.69,310C62.9,311.36,64.67,310.92,66,308.7Z"/><path class="cls-1" d="M478.87,291.36c-.67-3.91.13-6.94-3.11-8.63-1.47,1.62-.44,3.25-.29,5.09C475.84,289.3,476.43,290.4,478.87,291.36Z"/><path class="cls-1" d="M499.73,297.11c1.1-3.1,1.1-3.1-1.34-5.31-1.39.66-3.75,0-3.38,2.73C496.48,295.42,498.26,296.23,499.73,297.11Z"/><path class="cls-1" d="M483.07,340.54c2.29,1.62,4,.88,5.6-1.41-1.11-.66-2.51-1.25-3.62-1.92-.81-.73-1.47-.88-2-.44a1.93,1.93,0,0,0-.29,2.59C482.85,339.65,483,340.24,483.07,340.54Z"/><path class="cls-1" d="M466.94,346.16c.29-.08.81-.52,1.18-.3l3.32,2a7.37,7.37,0,0,0,1.1-1.84,17,17,0,0,0-1-3.84l-5.6,1.4A7.62,7.62,0,0,1,466.94,346.16Z"/><path class="cls-1" d="M471.59,352.21c1.26,1.25,3.39,1,3.69,3.47.3-.07,1,.07,1.18-.3a3.36,3.36,0,0,0,.07-4.72c-.52-.81-2.44-1-3.54-.37A7.81,7.81,0,0,0,471.59,352.21Z"/><path class="cls-1" d="M465.51,374.14c-2.29-1.62-4.05-1.18-5.6,1.41,1.11.66,2.51,1.25,3.62,1.92s1.47.88,2,.44a1.92,1.92,0,0,0,.29-2.58C465.44,375.1,465.58,374.44,465.51,374.14Z"/><path class="cls-1" d="M448.06,385.75a2,2,0,0,0,1.48,2.14c2.29.36,4.27-.45,6.26-1.26.3-.08.66-1.11.66-1.11-.44-.52-1.25-1.25-1.84-1.11C452.11,384.41,450.13,385.23,448.06,385.75Z"/><path class="cls-1" d="M460.47,401.47c2.29,1.62,4,1.18,5.6-1.41-1.11-.66-2.51-1.25-3.62-1.92s-1.47-.88-2-.44a1.93,1.93,0,0,0-.29,2.59C460.54,400.51,460.32,400.88,460.47,401.47Z"/><path class="cls-1" d="M195.5,466.43a2,2,0,0,0,1.48,2.14c1.1.67,2.72.89,2.58,2.81,2-.81,2.43-1.55,2.13-2.74-.22-2.14-1.4-3.09-3.46-2.58A8.54,8.54,0,0,0,195.5,466.43Z"/><path class="cls-1" d="M388.09,441.3c-1.62,2.29-1.17,4.06,1.41,5.61.66-1.1,1.25-2.51,1.91-3.61s.88-1.48.44-2a1.91,1.91,0,0,0-2.58-.29C389.05,441.38,388.39,441.23,388.09,441.3Z"/><path class="cls-1" d="M278.71,474.73l3.83-1c1.84-2.66,1.47-2.88-.67-5.17C279.3,472.08,279,472.15,278.71,474.73Z"/><path class="cls-1" d="M274.08,478.72c.81,2,1.55,2.44,2.72,2.14,2.44-.29,3.1-1.4,2.58-3.47-.22-.88-.45-1.77-.67-2.66-1.84.15-2.13,1.48-2.79,2.59C275.55,478.35,275,478.8,274.08,478.72Z"/><path class="cls-1" d="M243.66,481.81c2.14-1.48,2.14-1.48,3.9-5.69-3-.81-3.32-.74-4.86,1.85C243,479.15,243.29,480.33,243.66,481.81Z"/><path class="cls-1" d="M247.28,485c-1.25-1.25-3.39-1-3.69-3.47-.29.08-1-.07-1.18.3a3.36,3.36,0,0,0-.06,4.72c.51.82,2.43,1,3.53.37C246.69,486.38,246.84,485.72,247.28,485Z"/><path class="cls-1" d="M258,502.15l-.66,1.11c-.15.67.3,1.18,1.62,1.48l5.31-1.33.66-1.11c.15-.67-.3-1.18-1.62-1.48Z"/><path class="cls-1" d="M255.2,510.4c-.73.81-1.17,1.55-.44,2l1.11.67c1.77-.45,1.15-1.23,2.92-1.68.73-.81.88-1.47.44-2l-1.11-.66C256.35,509.17,257,510,255.2,510.4Z"/><path class="cls-1" d="M194.16,39.5c1.62-2.29,1.18-4.07-1.4-5.61C191.14,36.17,191.66,38.24,194.16,39.5Z"/><path class="cls-1" d="M99.88,63.17l2.65-.66a20.42,20.42,0,0,0-1-4.14c-.59-1.1-1.55-1.18-2-.44-.22.37-.74.81-.66,1.11C99.21,60.52,99.5,61.7,99.88,63.17Z"/><path class="cls-1" d="M110.2,69.37a17.34,17.34,0,0,0,3.83-1c.59-.15,1.18-1.55,1.11-1.85a2,2,0,0,0-2.36-.66,7,7,0,0,0-2.21,1.18C109.68,67.3,109.61,68.26,110.2,69.37Z"/><path class="cls-1" d="M78.35,103.43a2,2,0,0,0,1.47,2.14c1,.37,1.62-1,1.18-2.81-.08-.3-.22-.88-.3-1.18l-1.1-.66c-.67-.15-1.18.29-1.55,1.33C77.83,102.61,78.27,103.13,78.35,103.43Z"/><path class="cls-1" d="M80.5,110.74c1,1.32,3.9.58,4.42-1.11a.58.58,0,0,0-.23-.89c-1-1.33-3.9-.59-4.42,1.11C80.27,109.85,80.35,110.14,80.5,110.74Z"/><path class="cls-1" d="M331.27,60.32C333,59.88,334,58.7,333.18,58a1.91,1.91,0,0,0-2.58-.3l-1.18.3c-.74.81-1.18,1.55-.44,2,.37.23.81.74,1.11.67Z"/><path class="cls-1" d="M60.21,147.22c-2.28-1.62-4.05-1.18-5.59,1.41C57.2,150.18,59,149.73,60.21,147.22Z"/><path class="cls-1" d="M392.89,73.73a2,2,0,0,0-2.13,1.48c-.29,1.33,1.11,1.92,2.88,1.47l1.17-.29c.22-.37.44-.74.67-1.11.14-.67-.3-1.18-1.33-1.55A1.88,1.88,0,0,0,392.89,73.73Z"/><path class="cls-1" d="M411.17,77.93a17,17,0,0,0-1-3.84c-.15-.59-1.55-1.18-1.84-1.11a2,2,0,0,0-.66,2.37,7.08,7.08,0,0,0,1.18,2.21A1.56,1.56,0,0,0,411.17,77.93Z"/><path class="cls-1" d="M429.38,76.81c-1.33,1-.59,3.92,1.11,4.43a.56.56,0,0,0,.88-.22c1.33-1,.59-3.91-1.11-4.43Z"/><path class="cls-1" d="M403,91.59c.44,1.78,1.62,2.73,2.36,1.92a1.92,1.92,0,0,0,.29-2.58c-.07-.3-.22-.89-.3-1.18-.81-.74-1.55-1.18-2-.45-.22.37-.73.82-.66,1.11S402.94,91.3,403,91.59Z"/><path class="cls-1" d="M423.58,92.4c1.77-.45,2.72-1.63,1.91-2.37a1.91,1.91,0,0,0-2.58-.29l-1.18.29c-.73.82-1.17,1.55-.44,2,.37.22.82.74,1.11.66Z"/><path class="cls-1" d="M427.08,117.57a16.8,16.8,0,0,0,3.83-1c.59-.15,1.18-1.55,1.11-1.85a2.05,2.05,0,0,0-2.37-.66,7.25,7.25,0,0,0-2.2,1.18A1.58,1.58,0,0,0,427.08,117.57Z"/><path class="cls-1" d="M466.78,136l.89-.22c1.25-1.26.21-4.14-1.12-4.43l-.88.22c-.22.37-.74.81-.66,1.11l.66,2.65C465.75,135.66,466.41,135.81,466.78,136Z"/><path class="cls-1" d="M18.05,253.25c-2.29-1.62-4.06-1.18-5.6,1.4C15,255.91,16.72,255.46,18.05,253.25Z"/><path class="cls-1" d="M38.79,310.88c2.28,1.63,4.05,1.18,5.59-1.4C41.8,307.93,40,308.37,38.79,310.88Z"/><path class="cls-1" d="M469.39,217.46a2,2,0,0,0,2.14-1.48,3.93,3.93,0,0,0-.89-3.55,1.92,1.92,0,0,0-2.58-.29C468.5,213.91,469,215.68,469.39,217.46Z"/><path class="cls-1" d="M57.63,329l.88-.23c1.25-1.25.21-4.13-1.11-4.43l-.89.23c-.22.36-.73.81-.66,1.1.22.89.45,1.78.67,2.66C56.59,328.65,57.26,328.79,57.63,329Z"/><path class="cls-1" d="M495.14,285.08c-2.28-1.63-4.05-1.18-5.6,1.4C492.13,288,493.89,287.59,495.14,285.08Z"/><path class="cls-1" d="M122.93,385.76a17.5,17.5,0,0,0-3.83,1c-.59.14-1.17,1.55-1.1,1.84a2,2,0,0,0,2.36.67,7.33,7.33,0,0,0,2.21-1.19C123.38,387.54,123.52,386.87,122.93,385.76Z"/><path class="cls-1" d="M484.13,309.82a17,17,0,0,0,1,3.84c.15.59,1.55,1.18,1.84,1.11a2.06,2.06,0,0,0,.67-2.37,7.33,7.33,0,0,0-1.19-2.21A1.56,1.56,0,0,0,484.13,309.82Z"/><path class="cls-1" d="M143.48,421.42c2.5-1.26,2.87-2.29,1.24-5-.07-.3-.74-.45-1.11-.67-.29.08-.51.45-.81.52-.22.37-.44.74-.36,1C142.81,418.76,143.18,420.24,143.48,421.42Z"/><path class="cls-1" d="M140.82,422.08a17,17,0,0,0-1-3.84c-.15-.59-1.55-1.18-1.85-1.1a2,2,0,0,0-.65,2.36,7.13,7.13,0,0,0,1.18,2.22A1.56,1.56,0,0,0,140.82,422.08Z"/><path class="cls-1" d="M471.8,341.8c2.5-1.26,2.87-2.29,1.24-5-.07-.3-.74-.45-1.1-.67-.3.08-.52.45-.81.52-.23.37-.45.74-.37,1C471.2,339.44,471.5,340.62,471.8,341.8Z"/><path class="cls-1" d="M123.9,440.77c1.62-2.29,1.18-4.06-1.41-5.61C121,437.75,121.4,439.52,123.9,440.77Z"/><path class="cls-1" d="M484.2,356.27a17.36,17.36,0,0,0,3.83-1c.59-.15,1.18-1.55,1.1-1.84a2,2,0,0,0-2.36-.67,7.28,7.28,0,0,0-2.2,1.19C483.46,354.57,483.68,355.45,484.2,356.27Z"/><path class="cls-1" d="M152.51,451.17c-1.61,2.29-1.17,4.06,1.41,5.61C155.46,454.2,155,452.42,152.51,451.17Z"/><path class="cls-1" d="M186,459.72l.89-.22c1.25-1.26.21-4.14-1.12-4.43l-.88.22c-.22.37-.74.81-.66,1.11.22.88.44,1.77.67,2.65C185,459.35,185.61,459.5,186,459.72Z"/><path class="cls-1" d="M195.5,466.43c-1.26-2.51-2.29-2.88-5-1.25-.3.08-.45.74-.67,1.11.08.29.45.51.52.81.37.22.74.44,1,.37A19.91,19.91,0,0,0,195.5,466.43Z"/><path class="cls-1" d="M178.56,473.83c-1.62,2.29-1.17,4.06,1.41,5.61C181.22,476.93,180.77,475.15,178.56,473.83Z"/><path class="cls-1" d="M287,472.66a2,2,0,0,0,1.48,2.14c1,.37,1.62-1,1.17-2.8-.07-.3-.22-.89-.29-1.18l-1.11-.67c-.66-.15-1.18.3-1.54,1.33C286.74,471.78,286.89,472.37,287,472.66Z"/><path class="cls-1" d="M228.7,501.36a2,2,0,0,0-2.14,1.47c-.36,1,1,1.63,2.8,1.19l1.18-.3.66-1.11c.15-.66-.29-1.18-1.32-1.55C229.51,500.84,229,501.28,228.7,501.36Z"/><path class="cls-1" d="M236.38,486.46a17.34,17.34,0,0,0-3.83,1c-.59.15-1.18,1.56-1.11,1.85a2,2,0,0,0,2.36.66,7,7,0,0,0,2.21-1.18A1.58,1.58,0,0,0,236.38,486.46Z"/><path class="cls-1" d="M269.16,502.81c-1.33,1-.58,3.92,1.11,4.43a.57.57,0,0,0,.89-.22c1.32-1,.58-3.91-1.12-4.43C269.67,502.37,269.45,502.74,269.16,502.81Z"/><path class="cls-1" d="M236.46,514.79c2.29,1.62,4,1.18,5.6-1.4C239.48,511.84,237.71,512.28,236.46,514.79Z"/><path class="cls-1" d="M239.19,504.63c2.28,1.63,4.05,1.18,5.59-1.4C242.2,501.68,240.43,502.12,239.19,504.63Z"/><path class="cls-1" d="M75.36,361c-2.29-1.62-4-1.18-5.6,1.4C72.05,364,73.82,363.56,75.36,361Z"/><path class="cls-1" d="M352,490.56c1.62-2.29,1.17-4.07-1.41-5.61C349.29,487.46,349.74,489.23,352,490.56Z"/><path class="cls-1" d="M318.2,504.23c1.76-.45,2.72-1.63,1.91-2.37a1.91,1.91,0,0,0-2.58-.29l-1.18.29c-.74.81-1.18,1.55-.44,2,.37.22.81.74,1.11.66C317.09,504.82,317.61,504.37,318.2,504.23Z"/><path class="cls-1" d="M166.79,15.29c-.15.67.29,1.18,1.33,1.55l.66-1.11c.14-.66-.3-1.18-1.33-1.55Z"/><path class="cls-1" d="M119.3,43.23c.66.14,1.18-.3,1.54-1.33l-1.1-.67c-.67-.14-1.18.3-1.55,1.33Z"/><path class="cls-1" d="M108.33,49.43c-.82-2-1.18-2.21-3.32-2C105.53,49.51,105.82,49.44,108.33,49.43Z"/><path class="cls-1" d="M108.63,50.62c.07.29.44.51,1.1.66a1.1,1.1,0,0,0,1,.07c.74-.81.88-1.47.14-1.92s-1.47-.88-2.21-.07C108,49.51,108.26,50.39,108.63,50.62Z"/><path class="cls-1" d="M161.23,40.55c.81.73,1.47.88,2,.44l.66-1.11c-.81-.74-1.48-.88-2-.44C161.3,39.59,161.45,40.18,161.23,40.55Z"/><path class="cls-1" d="M70.18,67.18c.67.14,1.18-.3,1.55-1.33l-1.11-.67c-.66-.15-1.18.3-1.54,1.33Z"/><path class="cls-1" d="M119,57.11s.81.74,1.1.66a3,3,0,0,0,1.18-1.55c.29-1.33-.45-1.77-1.48-.88A6.38,6.38,0,0,0,119,57.11Z"/><path class="cls-1" d="M143,55.18q.45-.12.66-1.11a1.14,1.14,0,0,0,.08-1c-.81-.74-1.48-.89-1.92-.15s-.88,1.48-.07,2.22C141.79,55.47,142.38,55.32,143,55.18Z"/><path class="cls-1" d="M87,69.23c2-.81,2.21-1.18,2-3.32C87,66.72,86.76,67.09,87,69.23Z"/><path class="cls-1" d="M82,68s-.74.81-.67,1.11c.45.52,1,1.33,1.55,1.18,1.33.3,1.77-.44.89-1.48C83.6,68.2,82.64,68.13,82,68Z"/><path class="cls-1" d="M55.9,76.41l.66-1.11c-.81-.73-1.47-.88-2-.44L53.91,76C54.8,77,55.39,76.86,55.9,76.41Z"/><path class="cls-1" d="M248.9,30.46l1.11.66c.74-.81.88-1.47.44-2l-1.11-.66C248.61,29.28,248.46,29.94,248.9,30.46Z"/><path class="cls-1" d="M187.91,45.78c.15-.67-.3-1.19-1.33-1.55l-.66,1.1c-.15.67.3,1.18,1.33,1.55C187.54,46.81,187.69,46.14,187.91,45.78Z"/><path class="cls-1" d="M139.59,57.91s.81.74,1.1.66A3,3,0,0,0,141.87,57c.29-1.33-.44-1.77-1.47-.88C140.1,56.21,139.73,57.25,139.59,57.91Z"/><path class="cls-1" d="M125.15,61.54c.14-.67-.3-1.19-1.33-1.55l-.66,1.1c-.15.67.3,1.18,1.33,1.55C124.78,62.57,124.93,61.9,125.15,61.54Z"/><path class="cls-1" d="M84.34,69.9c.81,2,1.55,2.44,2.36,1.92A1.93,1.93,0,0,0,87,69.23Z"/><path class="cls-1" d="M78.89,73.15c.15-.66-.3-1.18-1.33-1.55l-.66,1.11c-.15.66.29,1.18,1.33,1.55Z"/><path class="cls-1" d="M130.09,63.75c.66.15,1.18-.3,1.55-1.33l-1.11-.67c-.66-.14-1.18.3-1.55,1.33Z"/><path class="cls-1" d="M226.23,42.43c.66.15,1.17-.29,1.54-1.33l-1.11-.66c-.66-.15-1.17.3-1.54,1.33C225.19,42.06,225.86,42.21,226.23,42.43Z"/><path class="cls-1" d="M201.11,48.43l1.1.66c.74-.81.88-1.48.44-2l-1.11-.67A1.36,1.36,0,0,0,201.11,48.43Z"/><path class="cls-1" d="M179.3,53.9l1.11.67c.73-.82.88-1.48.44-2l-1.11-.66A1.36,1.36,0,0,0,179.3,53.9Z"/><path class="cls-1" d="M163.31,56.35s-.73.81-.66,1.11c.45.51,1,1.32,1.55,1.18,1.33.29,1.77-.45.88-1.48A2.94,2.94,0,0,0,163.31,56.35Z"/><path class="cls-1" d="M261,36.21c.14-.66-.3-1.18-1.33-1.55L259,35.77c-.15.67.29,1.18,1.33,1.55C260.63,37.25,260.78,36.58,261,36.21Z"/><path class="cls-1" d="M232.49,46.2l1.11.66c.74-.81.88-1.48.44-2l-1.11-.67C232.2,45,232.05,45.68,232.49,46.2Z"/><path class="cls-1" d="M84.28,83.41c.15-.66-.29-1.18-1.32-1.55L82.29,83c-.14.67.3,1.18,1.33,1.55Z"/><path class="cls-1" d="M77.21,83.93,76.55,85c.81.74,1.47.89,2,.44l.66-1.1C78.39,83.64,77.73,83.49,77.21,83.93Z"/><path class="cls-1" d="M91.43,83.19l-.66,1.11c.81.73,1.48.88,2,.44l.66-1.11C92.61,82.89,92,82.74,91.43,83.19Z"/><path class="cls-1" d="M277.81,40.78l1.1.67c.74-.82.89-1.48.44-2l-1.1-.66C277.51,39.6,277.36,40.27,277.81,40.78Z"/><path class="cls-1" d="M86.8,87.18l-.67,1.11c.82.73,1.48.88,2,.44l.67-1.11C88,86.88,87.31,86.73,86.8,87.18Z"/><path class="cls-1" d="M74.36,97.52l1.1.67c.74-.82.89-1.48.44-2l-1.1-.66C74.06,96.34,73.91,97,74.36,97.52Z"/><path class="cls-1" d="M357.67,28.26l-1.11-.66c-.73.81-.88,1.48-.43,2l1.1.67A1.28,1.28,0,0,0,357.67,28.26Z"/><path class="cls-1" d="M83.72,98.62c.66.15,1.18-.29,1.54-1.33l-1.1-.66c-.67-.15-1.18.3-1.55,1.33Z"/><path class="cls-1" d="M372.19,30c-.66-.14-1.18.3-1.55,1.33l1.11.67c.67.15,1.18-.3,1.55-1.33Z"/><path class="cls-1" d="M95.22,102c-.81-2-1.55-2.43-2.36-1.91a1.91,1.91,0,0,0-.29,2.58Z"/><path class="cls-1" d="M285,56.88c.66.14,1.18-.3,1.55-1.33l-1.11-.67c-.66-.15-1.18.3-1.55,1.33Z"/><path class="cls-1" d="M434.16,26l-.66,1.11c.81.73,1.47.88,2,.44l.66-1.11C435.34,25.71,434.67,25.57,434.16,26Z"/><path class="cls-1" d="M79.4,115.09s-.74.81-.66,1.11c.44.52,1,1.33,1.54,1.18,1.33.3,1.77-.44.89-1.48C81,115.31,80.06,115.24,79.4,115.09Z"/><path class="cls-1" d="M417.08,35.32l.66-1.11c-.81-.73-1.48-.88-2-.44l-.66,1.11C415.9,35.62,416.56,35.76,417.08,35.32Z"/><path class="cls-1" d="M354.24,49.53l-1.11-.66c-.73.81-.88,1.47-.43,2l1.1.66A1.35,1.35,0,0,0,354.24,49.53Z"/><path class="cls-1" d="M321.53,57.74l-1.1-.66c-.74.81-.88,1.48-.44,2l1.11.67A1.36,1.36,0,0,0,321.53,57.74Z"/><path class="cls-1" d="M405.07,39.91c-.14.66.3,1.18,1.33,1.55l.66-1.11c.15-.67-.29-1.18-1.33-1.55C405.66,38.5,405.29,39.54,405.07,39.91Z"/><path class="cls-1" d="M63.88,133.12c-.74.81-.89,1.47-.44,2l1.1.66c.74-.81.89-1.47.44-2Z"/><path class="cls-1" d="M392.27,53.79c-.73.82-.88,1.48-.44,2l1.11.66c.73-.81.88-1.48.44-2S392.64,54,392.27,53.79Z"/><path class="cls-1" d="M373.49,58.82c-.66-.14-1.18.3-1.55,1.33l1.11.67c.66.15,1.18-.3,1.55-1.33Z"/><path class="cls-1" d="M427,49.79c.14-.67-.3-1.18-1.33-1.55L425,49.35c-.14.66.3,1.18,1.33,1.55Z"/><path class="cls-1" d="M399.35,55.78l-1.11-.66c-.73.81-.88,1.48-.44,2l1.11.67C399.65,57,399.79,56.3,399.35,55.78Z"/><path class="cls-1" d="M359.06,66.22c.81.73,1.47.88,2,.44l.66-1.11c-.81-.74-1.48-.89-2-.44Z"/><path class="cls-1" d="M73.31,137s-.73.81-.66,1.1c.45.52,1,1.33,1.55,1.18,1.33.3,1.77-.44.88-1.47A2.94,2.94,0,0,0,73.31,137Z"/><path class="cls-1" d="M399.22,69l.67-1.11c-.82-.74-1.48-.88-2-.44l-.66,1.11C398.05,69.3,398.71,69.44,399.22,69Z"/><path class="cls-1" d="M399.3,74.32l1.11.66c.74-.81.88-1.48.44-2l-1.11-.67A1.29,1.29,0,0,0,399.3,74.32Z"/><path class="cls-1" d="M411.47,79.11q.12.45,1.11.66a1.11,1.11,0,0,0,1,.08c.73-.81.88-1.48.14-1.92s-1.47-.89-2.21-.07A1.85,1.85,0,0,0,411.47,79.11Z"/><path class="cls-1" d="M6.44,184.12,7.1,183c-.81-.74-1.47-.89-2-.44l-.66,1.1C5.26,184.41,5.93,184.56,6.44,184.12Z"/><path class="cls-1" d="M442.27,78.28l.67-1.11c-.82-.73-1.48-.88-2-.44l-.67,1.11C441.1,78.58,441.76,78.73,442.27,78.28Z"/><path class="cls-1" d="M10.94,189.58c-.66-.15-1.17.29-1.54,1.33l1.11.66c.66.15,1.17-.3,1.54-1.33A2.34,2.34,0,0,1,10.94,189.58Z"/><path class="cls-1" d="M468.1,148.5c.67.14,1.18-.3,1.55-1.33l-1.11-.67c-.66-.14-1.18.3-1.54,1.33Z"/><path class="cls-1" d="M416.72,90c.15-.67-.3-1.19-1.33-1.55l-.66,1.1c-.15.67.3,1.19,1.33,1.55Z"/><path class="cls-1" d="M35.77,163.41c.82.73,1.48.88,2,.44l.67-1.11c-.82-.74-1.48-.89-2-.44Z"/><path class="cls-1" d="M.35,199.77l1.11.67c.73-.82.88-1.48.43-2l-1.1-.66A1.36,1.36,0,0,0,.35,199.77Z"/><path class="cls-1" d="M50.7,187.91l1.1.67c.74-.82.89-1.48.44-2l-1.1-.66C50.4,186.73,50.25,187.4,50.7,187.91Z"/><path class="cls-1" d="M415.05,104.58c.07.3.44.52,1.11.67a1.11,1.11,0,0,0,.95.07c.74-.81.89-1.48.15-1.92s-1.48-.89-2.21-.07C414.75,103.4,414.9,104,415.05,104.58Z"/><path class="cls-1" d="M437.84,116.75c.15-.66-.3-1.18-1.33-1.54l-.66,1.1c-.15.67.3,1.18,1.33,1.55C437.47,117.79,437.62,117.12,437.84,116.75Z"/><path class="cls-1" d="M463.51,119.27l.66-1.11c-.81-.74-1.47-.88-2-.44l-.66,1.11A1.36,1.36,0,0,0,463.51,119.27Z"/><path class="cls-1" d="M461.46,123.55c-.67-.15-1.18.3-1.55,1.33l1.11.67c.66.14,1.18-.3,1.54-1.33C462.86,124.14,461.83,123.77,461.46,123.55Z"/><path class="cls-1" d="M35.14,228.24l-.66,1.1c.81.74,1.47.89,2,.45l.66-1.11C36.32,227.94,35.65,227.79,35.14,228.24Z"/><path class="cls-1" d="M39.13,232.89l-.67,1.1c.82.74,1.48.89,2,.45l.67-1.11C40.3,232.59,39.64,232.44,39.13,232.89Z"/><path class="cls-1" d="M435.37,136.84c-.15.67.29,1.18,1.32,1.55l.67-1.11c.14-.66-.3-1.18-1.33-1.55C435.73,135.81,435.59,136.47,435.37,136.84Z"/><path class="cls-1" d="M477.94,164.86c.15-.66-.29-1.18-1.33-1.55l-.66,1.11c-.14.67.3,1.18,1.33,1.55Z"/><path class="cls-1" d="M35.55,254.82c-.15.66.3,1.18,1.33,1.55l.66-1.11c.15-.66-.3-1.18-1.33-1.55C35.84,253.49,35.77,254.45,35.55,254.82Z"/><path class="cls-1" d="M464.22,161.93c.81.74,1.47.89,2,.44l.66-1.11c-.81-.73-1.48-.88-2-.44Z"/><path class="cls-1" d="M460.77,169.39l1.1.66c.74-.81.89-1.47.44-2l-1.1-.66A1.27,1.27,0,0,0,460.77,169.39Z"/><path class="cls-1" d="M471,175.29l1.11.67c.73-.82.88-1.48.44-2l-1.11-.66C470.72,174.11,470.58,174.78,471,175.29Z"/><path class="cls-1" d="M482,184.15l1.11.66c.74-.81.88-1.48.44-2l-1.11-.67C481.72,183,481.57,183.63,482,184.15Z"/><path class="cls-1" d="M45.11,292.91c-.14.67.3,1.19,1.33,1.55l.66-1.1c.15-.67-.29-1.19-1.32-1.55C45.48,291.88,45.34,292.55,45.11,292.91Z"/><path class="cls-1" d="M38.85,295.43c.15-.67-.29-1.18-1.32-1.55L36.86,295c-.14.66.3,1.18,1.33,1.55C38.49,296.46,38.63,295.8,38.85,295.43Z"/><path class="cls-1" d="M474.29,192.05c.14-.66-.3-1.18-1.33-1.55l-.66,1.11c-.15.66.29,1.18,1.33,1.55Z"/><path class="cls-1" d="M28.38,302c-.67-.14-1.18.3-1.55,1.33l1.11.67c.66.15,1.17-.3,1.54-1.33Z"/><path class="cls-1" d="M468.7,197.22c.29-.07.51-.44.66-1.1a1.14,1.14,0,0,0,.07-1c-.81-.74-1.48-.89-1.92-.15s-.88,1.48-.07,2.22C467.59,197.82,468.48,197.59,468.7,197.22Z"/><path class="cls-1" d="M487.4,202c-.73.81-.88,1.48-.44,2l1.11.66c.73-.81.88-1.48.44-2C488.43,202.38,488.07,202.16,487.4,202Z"/><path class="cls-1" d="M465.31,200s.81.74,1.11.66a3,3,0,0,0,1.17-1.55c.3-1.33-.44-1.77-1.47-.89C465.82,198.26,465.75,199.22,465.31,200Z"/><path class="cls-1" d="M483.64,234.28c.29-.07.51-.44.66-1.1a1.1,1.1,0,0,0,.07-1c-.81-.74-1.47-.89-1.91-.15s-.88,1.48-.07,2.21A1.73,1.73,0,0,0,483.64,234.28Z"/><path class="cls-1" d="M483.13,237.24c-.22-.89-.45-1.78-.67-2.66-2,.81-2.21,1.18-2,3.32Z"/><path class="cls-1" d="M483.42,238.42q.12.44,1.11.66a1.14,1.14,0,0,0,1,.08c.74-.82.88-1.48.14-1.92s-1.47-.89-2.21-.08A1.88,1.88,0,0,0,483.42,238.42Z"/><path class="cls-1" d="M484,219.82c.67.15,1.18-.3,1.55-1.33l-1.11-.66c-.66-.15-1.17.29-1.54,1.33C483,219.45,483.65,219.6,484,219.82Z"/><path class="cls-1" d="M86.69,347.46c.15-.66-.3-1.18-1.33-1.55L84.7,347c-.15.66.3,1.18,1.33,1.55C86.32,348.49,86.47,347.83,86.69,347.46Z"/><path class="cls-1" d="M90.82,350.19l2.65-.67c-.81-2-1.55-2.43-2.36-1.91A2,2,0,0,0,90.82,350.19Z"/><path class="cls-1" d="M88.91,352.55s.81.74,1.1.67c.52-.45,1.33-1,1.18-1.55.29-1.33-.44-1.78-1.47-.89A3,3,0,0,0,88.91,352.55Z"/><path class="cls-1" d="M90.32,358.17l1.1.66c.74-.81.89-1.48.44-2l-1.1-.66C90,357,89.87,357.65,90.32,358.17Z"/><path class="cls-1" d="M492.3,260.05l1.11.66c.73-.81.88-1.47.44-2l-1.11-.67C492,258.87,491.86,259.53,492.3,260.05Z"/><path class="cls-1" d="M94.3,362.82s.82.73,1.11.66c.52-.44,1.33-1,1.18-1.55.29-1.33-.45-1.77-1.48-.89A3.12,3.12,0,0,0,94.3,362.82Z"/><path class="cls-1" d="M498.65,267.87l.66-1.11c-.81-.73-1.47-.88-2-.44l-.66,1.11C497.47,268.17,498.14,268.32,498.65,267.87Z"/><path class="cls-1" d="M493.58,276.37c-.15.66.3,1.18,1.33,1.55l.66-1.11c.15-.67-.3-1.18-1.33-1.55C494,275.33,493.8,276,493.58,276.37Z"/><path class="cls-1" d="M485.78,284l-1.11-.67c-.73.82-.88,1.48-.43,2l1.1.66A1.27,1.27,0,0,0,485.78,284Z"/><path class="cls-1" d="M499.94,288c.66.14,1.17-.3,1.54-1.33l-1.1-.67c-.67-.14-1.18.3-1.55,1.33C498.54,287.37,499.57,287.73,499.94,288Z"/><path class="cls-1" d="M114,383.92s.81.74,1.11.67A3.08,3.08,0,0,0,116.3,383c.29-1.33-.45-1.78-1.48-.89C114.6,382.52,114.45,383.18,114,383.92Z"/><path class="cls-1" d="M88.17,395.75c-.15.67.29,1.18,1.32,1.55l.67-1.11c.14-.66-.3-1.18-1.33-1.55C88.75,394.35,88.31,395.09,88.17,395.75Z"/><path class="cls-1" d="M82.2,398.19c.15-.66-.3-1.18-1.33-1.55l-.66,1.11c-.15.66.3,1.18,1.33,1.55Z"/><path class="cls-1" d="M111.31,399.36c.15-.67-.3-1.19-1.33-1.55l-.66,1.11c-.15.66.3,1.18,1.33,1.54C111,400.69,111.09,399.73,111.31,399.36Z"/><path class="cls-1" d="M495.77,306.27c.66.15,1.17-.3,1.54-1.33l-1.11-.66c-.66-.15-1.18.29-1.54,1.33C494.73,305.9,495.4,306.05,495.77,306.27Z"/><path class="cls-1" d="M118.54,400.68l1.1.67c.74-.82.88-1.48.44-2l-1.11-.66A1.35,1.35,0,0,0,118.54,400.68Z"/><path class="cls-1" d="M141.47,412.19s.81.74,1.11.66c.51-.44,1.32-1,1.17-1.55.3-1.33-.44-1.77-1.47-.88C142,410.49,141.62,411.52,141.47,412.19Z"/><path class="cls-1" d="M121.29,417.89l.66-1.11c-.81-.74-1.48-.89-2-.45l-.66,1.11C120.11,418.18,120.77,418.33,121.29,417.89Z"/><path class="cls-1" d="M132.05,419.58c-.15.66.3,1.18,1.33,1.55L134,420c.15-.66-.3-1.18-1.33-1.55C132.42,418.54,132.27,419.21,132.05,419.58Z"/><path class="cls-1" d="M98.17,429.34l.66-1.11c-.81-.73-1.48-.88-2-.44l-.66,1.11C97,429.64,97.65,429.79,98.17,429.34Z"/><path class="cls-1" d="M143.48,421.42l-2.66.66c.82,2,1.56,2.44,2.36,1.92A1.91,1.91,0,0,0,143.48,421.42Z"/><path class="cls-1" d="M134.93,426.07l.67-1.1c-.82-.74-1.48-.89-2-.45l-.66,1.11C133.76,426.37,134.42,426.52,134.93,426.07Z"/><path class="cls-1" d="M481.83,346.82c.81.73,1.47.88,2,.44l.66-1.11c-.81-.74-1.48-.89-2-.44C482.19,345.78,482.05,346.45,481.83,346.82Z"/><path class="cls-1" d="M493.4,350.5l.66-1.11c-.81-.74-1.47-.88-2-.44l-.66,1.11A1.36,1.36,0,0,0,493.4,350.5Z"/><path class="cls-1" d="M482,358.7s.81.74,1.11.67c.51-.45,1.32-1,1.18-1.55.29-1.33-.45-1.78-1.48-.89C482.51,357,482.14,358,482,358.7Z"/><path class="cls-1" d="M172.61,440.16q.45-.12.66-1.11a1.14,1.14,0,0,0,.08-1c-.81-.74-1.48-.89-1.92-.15s-.88,1.48-.07,2.22A.75.75,0,0,0,172.61,440.16Z"/><path class="cls-1" d="M473.16,367.2c.67.15,1.18-.3,1.55-1.33l-1.11-.67c-.66-.14-1.18.3-1.54,1.34C472.13,366.83,472.8,367,473.16,367.2Z"/><path class="cls-1" d="M169.52,442.82s.81.74,1.11.66a3,3,0,0,0,1.17-1.55c.3-1.33-.44-1.77-1.47-.88A3.06,3.06,0,0,0,169.52,442.82Z"/><path class="cls-1" d="M467.64,370.15c-.15.67.3,1.19,1.33,1.55l.66-1.1c.15-.67-.3-1.18-1.33-1.55Z"/><path class="cls-1" d="M177.06,459.13c.67.15,1.18-.29,1.55-1.33l-1.11-.66c-.66-.15-1.18.29-1.54,1.33Z"/><path class="cls-1" d="M447.7,391.8s-.73.81-.66,1.11c.45.51,1,1.33,1.55,1.18,1.33.29,1.77-.45.89-1.48C449.4,392.32,448.37,392,447.7,391.8Z"/><path class="cls-1" d="M453.46,396c-.82-2-1.18-2.22-3.32-2C451,396,451.32,396.23,453.46,396Z"/><path class="cls-1" d="M453.76,397.19c.07.29.44.51,1.1.66a1.1,1.1,0,0,0,1,.07c.74-.81.88-1.47.14-1.91s-1.47-.89-2.21-.08C453.46,396,453.68,396.89,453.76,397.19Z"/><path class="cls-1" d="M442.85,399.92c.08.3.45.52,1.11.67a1.1,1.1,0,0,0,1,.07c.73-.81.88-1.48.14-1.92s-1.47-.88-2.21-.07C442.26,398.82,442.78,399.63,442.85,399.92Z"/><path class="cls-1" d="M167.72,469.12c-.66-.15-1.17.29-1.54,1.33l1.11.66c.66.15,1.17-.3,1.54-1.33Z"/><path class="cls-1" d="M158.82,478.57c.15-.66-.29-1.18-1.33-1.55l-.66,1.11c-.14.67.3,1.18,1.33,1.55C158.46,479.61,158.6,478.94,158.82,478.57Z"/><path class="cls-1" d="M450.18,419.12c.15-.67-.3-1.18-1.33-1.55l-.66,1.11c-.15.66.3,1.18,1.33,1.55Z"/><path class="cls-1" d="M256.44,467.14c.82.74,1.48.89,2,.44l.67-1.1c-.82-.74-1.48-.89-2-.45C256.89,466.4,257,466.7,256.44,467.14Z"/><path class="cls-1" d="M186.17,485.42l1.11.66c.73-.81.88-1.48.43-2l-1.1-.66C185.87,484.23,185.73,484.9,186.17,485.42Z"/><path class="cls-1" d="M168.49,485.39c.66.15,1.18-.3,1.55-1.33l-1.11-.67c-.66-.14-1.18.3-1.55,1.33Z"/><path class="cls-1" d="M401.2,438.64l-.66,1.11c.82.73,1.48.88,2,.44l.67-1.11C402.38,438.34,401.72,438.2,401.2,438.64Z"/><path class="cls-1" d="M188,492.8c-.14.66.3,1.18,1.33,1.55l.66-1.11c.15-.66-.29-1.18-1.33-1.55C188.61,491.39,188.24,492.43,188,492.8Z"/><path class="cls-1" d="M375.65,450.39q.45-.11.66-1.11a1.14,1.14,0,0,0,.08-1c-.82-.73-1.48-.88-1.92-.14s-.88,1.47-.07,2.21C374.47,450.69,375.06,450.54,375.65,450.39Z"/><path class="cls-1" d="M372.27,453.13s.81.73,1.1.66a3,3,0,0,0,1.18-1.55c.29-1.33-.45-1.77-1.48-.89C372.78,451.43,372.41,452.46,372.27,453.13Z"/><path class="cls-1" d="M271.71,476.81s-.73.81-.66,1.1a3,3,0,0,0,1.55,1.18c1.33.3,1.77-.44.88-1.47C273.33,477,272.38,477,271.71,476.81Z"/><path class="cls-1" d="M193.41,496.78c-.66-.14-1.18.3-1.55,1.33l1.11.67c.66.14,1.18-.3,1.55-1.33C194.44,497.15,193.78,497,193.41,496.78Z"/><path class="cls-1" d="M200.93,498c-.15.67.3,1.18,1.33,1.55l.66-1.1c.15-.67-.3-1.19-1.33-1.55Z"/><path class="cls-1" d="M169.69,495.13l-1.11-.66c-.74.81-.88,1.48-.44,2l1.11.67A1.37,1.37,0,0,0,169.69,495.13Z"/><path class="cls-1" d="M181.63,497l-1.1-.67c-.74.82-.88,1.48-.44,2l1.11.66C181.93,498.2,182.08,497.54,181.63,497Z"/><path class="cls-1" d="M315.64,477.08c.29-.08.51-.44.66-1.11a1.14,1.14,0,0,0,.07-1c-.81-.74-1.48-.88-1.92-.15s-.88,1.48-.07,2.22C314.46,477.37,315.05,477.23,315.64,477.08Z"/><path class="cls-1" d="M160.41,501.37c.15-.67-.29-1.18-1.32-1.55l-.66,1.11c-.15.66.29,1.18,1.32,1.55C159.75,502.48,160.2,501.74,160.41,501.37Z"/><path class="cls-1" d="M175.24,505.22c.14-.67-.3-1.18-1.33-1.55l-.67,1.11c-.14.66.3,1.18,1.33,1.55A2.27,2.27,0,0,1,175.24,505.22Z"/><path class="cls-1" d="M151.83,489.1c.15-.67-.29-1.18-1.33-1.55l-.66,1.11c-.14.66.3,1.18,1.33,1.55Z"/><path class="cls-1" d="M279.62,490.83c.15-.66-.3-1.18-1.33-1.55l-.66,1.11c-.15.66.3,1.18,1.33,1.55C279,492.23,279.18,491.57,279.62,490.83Z"/><path class="cls-1" d="M298.55,487.65c-.66-.15-1.17.29-1.54,1.33l1.11.66c.66.15,1.17-.3,1.54-1.33Z"/><path class="cls-1" d="M227.46,508.89c.81.74,1.47.88,2,.44l.66-1.11c-.81-.73-1.48-.88-2-.44C227.9,508.15,228,508.45,227.46,508.89Z"/><path class="cls-1" d="M214.47,511c.67.15,1.18-.29,1.55-1.33l-1.11-.66c-.66-.15-1.18.3-1.54,1.33Z"/><path class="cls-1" d="M192.5,507s-.74.81-.66,1.11a3.05,3.05,0,0,0,1.55,1.18c1.32.29,1.76-.45.88-1.48A6.52,6.52,0,0,0,192.5,507Z"/><path class="cls-1" d="M430.84,430.88c.15-.66-.3-1.18-1.33-1.55l-.66,1.11c-.15.67.3,1.18,1.33,1.55Z"/><path class="cls-1" d="M322,494.94l1.11.67c.73-.81.88-1.48.44-2l-1.11-.66C321.7,493.76,321.56,494.43,322,494.94Z"/><path class="cls-1" d="M195.23,510.42c.07.3.44.52,1.11.67a1.14,1.14,0,0,0,1,.07c.73-.81.88-1.48.14-1.92s-1.48-.88-2.21-.07C194.64,509.32,194.79,509.91,195.23,510.42Z"/><path class="cls-1" d="M236.66,480.11l.66-1.1c-.81-.74-1.47-.89-2-.45l-.66,1.11C235.48,480.41,236.15,480.56,236.66,480.11Z"/><path class="cls-1" d="M205.21,507.46l-1.1-.66c-.74.81-.88,1.48-.44,2l1.1.67C205.51,508.65,205.66,508,205.21,507.46Z"/><path class="cls-1" d="M196.09,489.52l1.1.67c.74-.81.88-1.48.44-2l-1.11-.66C195.79,488.34,195.64,489,196.09,489.52Z"/><path class="cls-1" d="M249.43,491l1.1.67c.74-.81.89-1.48.44-2l-1.1-.66A1.35,1.35,0,0,0,249.43,491Z"/><path class="cls-1" d="M239,495.54c-.15.67.3,1.19,1.33,1.55L241,496c.15-.67-.3-1.19-1.33-1.55Z"/><path class="cls-1" d="M417.84,458.12c-.66-.15-1.18.29-1.55,1.33l1.11.66c.66.15,1.18-.29,1.55-1.33Z"/><path class="cls-1" d="M252.13,502.1c.14-.67-.3-1.18-1.33-1.55,0,0-.44.74-.67,1.11-.14.66.3,1.18,1.33,1.55C251.46,503.21,251.9,502.47,252.13,502.1Z"/><path class="cls-1" d="M297.67,503.32c.67.15,1.18-.29,1.55-1.33l-1.11-.66c-.66-.15-1.18.3-1.54,1.33C296.64,503,297.3,503.1,297.67,503.32Z"/><path class="cls-1" d="M272.06,517.14l1.1.66c.74-.81.89-1.47.44-2l-1.1-.66C271.76,516,271.61,516.62,272.06,517.14Z"/><path class="cls-1" d="M280.16,507.33l1.1.67c.74-.82.89-1.48.44-2l-1.1-.66C279.49,505.93,279.64,506.52,280.16,507.33Z"/><path class="cls-1" d="M369.33,483.68l.66-1.11c-.81-.74-1.47-.88-2-.44l-.66,1.11A1.27,1.27,0,0,0,369.33,483.68Z"/><path class="cls-1" d="M369.56,490.84c-.14.67.3,1.18,1.33,1.55l.66-1.11c.15-.66-.29-1.18-1.33-1.55Z"/><path class="cls-1" d="M363.82,496.68l.66-1.11c-.81-.74-1.47-.89-2-.44l-.66,1.11C362.64,497,363.31,497.12,363.82,496.68Z"/><path class="cls-1" d="M471.8,386.34l.66-1.11c-.81-.74-1.47-.88-2-.44l-.66,1.11A1.27,1.27,0,0,0,471.8,386.34Z"/><path class="cls-1" d="M338.13,487.53c-.67-.14-1.18.3-1.55,1.33l1.11.67c.66.14,1.18-.3,1.54-1.33C339.53,488.12,338.49,487.75,338.13,487.53Z"/><path class="cls-1" d="M291.75,511.81c-.15.66.29,1.18,1.33,1.55l.66-1.11c.14-.67-.3-1.18-1.33-1.55C292.33,510.4,292,511.44,291.75,511.81Z"/><path class="cls-1" d="M311.05,508.21l1.11.67c.74-.81.88-1.48.44-2l-1.11-.67C310.39,506.81,310.54,507.4,311.05,508.21Z"/><path class="cls-1" d="M304.91,493.75l1.11.66c.74-.81.88-1.48.44-2l-1.11-.67C304.62,492.57,304.47,493.23,304.91,493.75Z"/><path class="cls-1" d="M444.83,435.22c.14-.67-.3-1.18-1.33-1.55l-.67,1.11c-.14.66.3,1.18,1.33,1.55Z"/><path class="cls-1" d="M237.55,486.17c.3-.08.52-.45.67-1.11a1.14,1.14,0,0,0,.07-1c-.81-.74-1.48-.89-1.92-.15s-.88,1.48-.07,2.22C236.38,486.46,237.26,486.24,237.55,486.17Z"/></svg>