<svg id="Layer_1" data-name="Layer 1" xmlns="http://www.w3.org/2000/svg" viewBox="0 0 143 6">
    <defs>
        <style>
            .cls-1 {
                fill: #6F4A79;
            }
        </style>
    </defs>
    <path class="cls-1"
        d="M142.16,2.65c0-.37-.22-.46-1.28-.5-.18,0-.45,0-.62,0C137.51,2,134.76.94,132,.83c-2.49-.08-4.88.86-7.37.78-1.51-.05-3,0-4.53-.08-2.48-.14-4-.28-6.44-.41A35.69,35.69,0,0,0,109.84,1c-6,0-51.62-.45-57.6-.39-2.85,0-5.6-.06-8.53-.15C41,.4,38.12.27,35.28.14c-2-.06-3.91-.05-5.87-.05-.89,0-1.79.1-2.69.14-2,.07-3.94.25-6,.13a67.7,67.7,0,0,0-8.2.08A16.22,16.22,0,0,1,10,.35,16.62,16.62,0,0,0,7.05.15C5.53.22,3.84.21,2.31.34A6.14,6.14,0,0,0,.85.61C.29.83.09.5.31.9s.84.5,1.52.73a9.77,9.77,0,0,0,2.29.29c1.69,0,3.37.09,5.05.16,2.05.07,4.17.22,6.21.28,1,0,2,0,3,.1,2.81.31,5.49-.77,8.25-.77,2.05,0,4.11.89,6.15,1,5.77.21,11.61.5,17.46.79,1.68.07,3.45.22,5,.15,2.34-.19,4.82-1.12,7.3-1,3.37.15,46.41,1.88,49.77,2.09,1.68.07,3.37-.85,5-.79,1.33.08,2.66,1.1,4,1.18,1.15.06,2.31.11,3.38.09l5.52-.07q4.68.08,9.3.51a2,2,0,0,0,1-.09,4.57,4.57,0,0,0,1.16-.87,12.57,12.57,0,0,0,.62-1.75l-.09,0C142.15,2.77,142.15,2.71,142.16,2.65Z" />
</svg>