<svg id="Layer_1" data-name="Layer 1" xmlns="http://www.w3.org/2000/svg" viewBox="0 0 285 68.96"><defs><style>.cls-1{fill:#f7e183;}</style></defs><path class="cls-1" d="M271.87,1.34c.15.47.77.25.46.66-.58.77.77.31.24,1-.25.34-1.42-.7-1.7-1s-.33-.19-.74-.3c-.8-.2-1.25-.33-1,1.32.09.26-.34-.38-.64-.31a1.54,1.54,0,0,0-1,.67c-.31.42-.25.75.54.92a.64.64,0,0,0,.49-.06,1.77,1.77,0,0,0,.63-.58,1.13,1.13,0,0,0,.08-.22,1.3,1.3,0,0,1,.56-.8,1.49,1.49,0,0,1,2,.81,4.35,4.35,0,0,1,.21.74,1,1,0,0,1,0,.56,1.89,1.89,0,0,1-1.05.92,22.45,22.45,0,0,1-3,.73c-1,.18-2.21-.63-3.18-.88a.84.84,0,0,0-.47,0c-1.23.36-1.37,2-2.63,2.23a2.51,2.51,0,0,0-1.56,1c-.17.24-.33.49-.5.75a4,4,0,0,0-.55,3.49c.13.43.27.86.41,1.28a3.14,3.14,0,0,1-.17,2.63,6.39,6.39,0,0,1-.69.95c-.79.88-2.47,1-2.82-.08,0-.13-.08-.26-.11-.39a4.78,4.78,0,0,1,.48-3.49,1.4,1.4,0,0,0,.1-.16,1.54,1.54,0,0,0,.15-1.32,2.23,2.23,0,0,0-1.34-1.33c-1.3-.54-2.56-1.13-3.86-1.68-.92-.4-2.71-.18-2.44.66.63,2.73,1.5,5.4,2.36,8.08.15.45-.9.51-1.4.3a17.61,17.61,0,0,0-1.93-.71c-.42-.19-.88-.25-1.16-.57a1.69,1.69,0,0,0-.9-.5c-.61-.15-.92.18-1,.91a1.13,1.13,0,0,1-.91,1,1.19,1.19,0,0,1-1.41-.67c-.15-.48-.31-1-.45-1.4-.06-.17-.34-.3-.63-.43s-.58-.25-.75,0l0,0a2,2,0,0,0-.49,1.45,1.4,1.4,0,0,0,.65,1.21c1.06.61,2.7,1.06,1.82,1.84s-2.31.64-2.86,1.54a1.24,1.24,0,0,0,0,1,2.71,2.71,0,0,0,1.35,1.43c.87.49,1.27,1.57.29,1.89l-.51.13a4.19,4.19,0,0,1-2.66-.35l-1.61-.8c-.79-.38-1.5-.89-1.6-1.65a3.33,3.33,0,0,0-.58-1.68,1.57,1.57,0,0,0-1.39-.72.64.64,0,0,0-.29.21,1.16,1.16,0,0,0-.22,1,3.5,3.5,0,0,1-.5,2.48l-.41.6a4.27,4.27,0,0,1-2.2,1.79c-1,.31-2,.5-3,.72a5.27,5.27,0,0,0-2.79,1.41,14.22,14.22,0,0,0-1.25,1.72,1.85,1.85,0,0,0-.3.86c-.1,1.21-1.62,1.84-3,1.31l-.73-.3a3.11,3.11,0,0,0-3.57.84l-1.06,1.4a1.31,1.31,0,0,1-1,.67,1.75,1.75,0,0,1-.32,0,1.06,1.06,0,0,1-.81-.88c0-.22,0-.49-.09-.71a.87.87,0,0,0-.24-.51,1.14,1.14,0,0,0-1.68,0,1.83,1.83,0,0,0-.06,1.44l.81,2.49c.08.26.16.51.22.77a2,2,0,0,1-.49,1.63c-1,1.33-3.2,1.91-3.51.36l-.09-.5A3.32,3.32,0,0,0,205,38.29a3.25,3.25,0,0,0-.45-.25c-2.07-1.07-4.31-1.91-6.6-2.93a4.37,4.37,0,0,0-.94-.35,1.2,1.2,0,0,0-1.28.81.94.94,0,0,0,.1.78,2.06,2.06,0,0,1,.17.33,1.33,1.33,0,0,0,.77.77,5.57,5.57,0,0,1,2.14,1.48,5.4,5.4,0,0,0,1.93,1.74,3,3,0,0,1,1.14.8,4.3,4.3,0,0,1,.79,2.3c0,.63.29,1.67-.45,1.83l-3.56.8a1.83,1.83,0,0,1-2.17-1,1.69,1.69,0,0,1-.07-.38c-.06-.63-.41-.9-1.14-1.08-.52-.08-.86.38-1.38,1.07a1.29,1.29,0,0,1-1.46.56,2.06,2.06,0,0,1-.95-1.3c-.42-1-1.72-.57-2.46.28a3.3,3.3,0,0,1-1.72,1L181,46.89c-1,.22-2.2-.58-3.17-.82a3.7,3.7,0,0,0-2.75.61,1.23,1.23,0,0,0-.51.81c0,.41-.2,1.17-.64,1a43.29,43.29,0,0,1-4-1.78c-.46-.2.17-.8.66-.91l1.24-.28a2.11,2.11,0,0,0,1.3-.8c.41-.57.48-.79.33-1.13s-.3-.65-.48-1c-.29-.5-.73-.61-1.55-.57a4.61,4.61,0,0,0-1,.17,2.72,2.72,0,0,0-1.35.78,1.17,1.17,0,0,0-.18,1.15l.24.74c.18.53-.47.75-.83,1.23-.22.29-.44.59-.69.89a2.32,2.32,0,0,1-2.7.51l-.58-.26a1.25,1.25,0,0,1-.67-1.88.93.93,0,0,0-.6-1.49,2.3,2.3,0,0,0-2.33.85,9.38,9.38,0,0,1-1.89,1.66c-.67.42-1.66.58-2,1.23a1.41,1.41,0,0,0-.13.81c.06.41.32.71.3,1.11,0,.85-1.28,1.27-2.26,1.49l-4.47,1A1,1,0,0,1,149,51.4a.46.46,0,0,1,0-.44,1.92,1.92,0,0,1,1.13-.65l1.28-.29c1.39-.31,3-1.05,2.84-2.24a5.28,5.28,0,0,0-.53-1.52c-.41-.92-1.77-2.28-2-1.32a1,1,0,0,0,0,.24c0,.59.35,1.07.06,1.71a2.36,2.36,0,0,1-.19.48,1,1,0,0,1-1.62.38,8.69,8.69,0,0,1-.65-1.15c-.77-1.28-1-1.24-2.59-.88l-1.72.38a3.35,3.35,0,0,0-2,1.2c-1.43,1.66-2.12,1.81-4.3,1.15-1.19-.31-2.35.28-2,1.28l0,.12c.34,1.07,0,1.53-1.32,2a2.57,2.57,0,0,1-2.87-.51c-.35-.42-.35-.92-.61-1.37a.8.8,0,0,0-.23-.29,2.45,2.45,0,0,0-1.69-.26l-2.67.6a2.28,2.28,0,0,0-1.3.66c-.74.84-2.06,1.47-2.58.52a3.51,3.51,0,0,0-1-1.37,2.33,2.33,0,0,0-1.75-.07c-.77.17-1.64.46-1.77,1.11,0,0,0,.09,0,.14-.17,1.84-1.86,2.19-3.82,1.32l-2.76-1.22a1.52,1.52,0,0,1-.86-.9l-.3-.91c-.15-.49.41-1,.83-1.32a5.91,5.91,0,0,1,1-.72c.37-.21.26-.55.18-.8a1.61,1.61,0,0,0-.5-.76,1.07,1.07,0,0,0-1.45.25,1.51,1.51,0,0,0-.2.34,1,1,0,0,0,0,.55,4.5,4.5,0,0,0,.34,1.08c.22.53-.4.74-.76,1.21A9.89,9.89,0,0,1,106,51.93l-2.91.64a2.29,2.29,0,0,1-1.13-.1c-.32-.11-.13-.3,0-.56a2.52,2.52,0,0,1,.33-.57,1.37,1.37,0,0,1,.64-.31c.83-.28,1.87-.36,2.87-.59a2.74,2.74,0,0,0,.53-.16c.86-.35.64-1.29.48-2.07-.06-.28-.11-.58-.19-.86-.37-1.28-2.33-1.32-3.19-.21-.23.29-.43.59-.64.9a2.74,2.74,0,0,1-3.22.77h0a2.43,2.43,0,0,0-1.44-.08,2.69,2.69,0,0,1-3.16-1.47c0-.1-.07-.2-.1-.29s-.34-.31-.63-.44-.57-.25-.74,0l0,0A2,2,0,0,0,92.93,48a1.4,1.4,0,0,0,.61,1.19c1,.66,3,1.28,1.85,1.86-.63.3-1.31.58-1.92.93-1.58.89-2.22.8-4,1.21a2.43,2.43,0,0,1-2-.13A1.72,1.72,0,0,1,86.49,51c.57-.94,1.28-1.82,1.94-2.72.44-.62.28-1.81-.58-1.78l-.23,0-.66.09c-2.07.36-3,2.55-5.12,2.75h0c-1.05,0-1.19-.64-1.27-1.25a2.1,2.1,0,0,1,.32-1.37A1.7,1.7,0,0,0,80,44.23l0,0c-1-.43-2.4-.19-2.49.73a9.65,9.65,0,0,0,.81,2.5c.27.84-1.57,1.13-2.5.72l-1-.42a2.73,2.73,0,0,1-1.37-1.37.54.54,0,0,1,0-.11,2.06,2.06,0,0,0-1-.81l-.47-.22c-1-.49-.5-1.9-.26-2.86,0-.08-1.73-1.21-1.83-.16.06-.59.15.19,0,.59-.23.82.34,1.07,1.15.51l0,0c.65-.49-.88-1.74-1.23-1.07-.68.92-.48,1.28-.65,1.51l-.76,1a2.09,2.09,0,0,1-2.25.48,1.79,1.79,0,0,0-1.89.42l-.06,0c-.57.57-1.64.81-2.08.17a6.5,6.5,0,0,1-.67-2c.82-2.82.92-4,.18-4.35l-.18-.08C60,38.79,61.45,37,60.37,38a2.52,2.52,0,0,1-1.75.73,2.15,2.15,0,0,1-1-.22l-.07,0c-1.16-.51-3-.69-3.77.18a2.87,2.87,0,0,1-1.27.76c-.78.23-1.64.42-2.24-.31-.92-1.32.54-2.21-1.27-2a3.65,3.65,0,0,1-1.4,0c-.52-.14-1.47,1-1.61.53-.26-.82-.09-.34.54-1,.47-.49.55-.7,1-1.18.6-.67-1.1-.58-1.47-1.36L46,33.91a2,2,0,0,0-.88-.73c-1.12-.58-2.79-.34-2.1-1.26l1-1.37c.18-.23.69-.15.92-.2A1,1,0,0,0,46,31.44a4.91,4.91,0,0,0,1,0,4,4,0,0,0,1.8-.37l0,0c.52-.35.33-1-.27-1.23a2.5,2.5,0,0,0-1.36,0c-.78.13-1.6.43-2.31.59-.06-1-.92-1.33-1.89-1.3-1.58,0-3.82.31-4.23-.95v0c-.06-.18-.35-.3-.64-.43s-.57-.25-.74,0a1.07,1.07,0,0,1-.14.16,1.49,1.49,0,0,0-.38,1.16,1.46,1.46,0,0,0,1.55,1.63c.67.06,1.79.43,1.44.9-.4.7-.92.62-1.42,1.23s-1.68,1.05-2.18.5a.92.92,0,0,1-.16-.27,5.81,5.81,0,0,1-.71-1.61,1.76,1.76,0,0,0-.29-.54c-.43-.54-1.28-.18-1.74.34a1.62,1.62,0,0,1-2.41.24c-.32-.4-.57-.84-.9-1.22-.65-.76-1.38-2-.84-2.79a1.13,1.13,0,0,0,.15-1c-.15-.48-.31-1-.47-1.44A3.41,3.41,0,0,0,27.22,23a3.43,3.43,0,0,1-1.71-1.9c-.68-2.08-1.35-4.17-2-6.25-.18-.54-.64-1.2-1.32-1a2,2,0,0,0-.78.78,1.13,1.13,0,0,0-.05.75c0,.21.08.42.1.63.08.9-1.24,1.1-2.16.61l-.51-.28a1.49,1.49,0,0,1-.68-2.06.84.84,0,0,0-.31-1.19c-.84-.35-1.89.07-2.85,0s-1.38-.84-1.62-1.58c-.11-.36-.23-.73-.35-1.11-.24-.73-.57-1.47-1.47-1.4-1.44.11-2.85,1.25-4.12.68l-.5-.22A2.6,2.6,0,0,1,5.73,8.6,11.15,11.15,0,0,1,4.54,5.22a3,3,0,0,1,.37-2.56c.43-.57.4-.68.21-1.32ZM49.69,35.46c1.05.46,1.4-.81,1.09-1.76-.36-1.11-.4-.87-.76-2,0-.08-.16-.15-.33-.2a1.48,1.48,0,0,0-1-.14c-.69.25-.63,1.13-.43,1.73.42,1.29.15.68.57,2C48.89,35.25,49.41,35.33,49.69,35.46ZM263.94,2.3c-1.29-.59-3.25-.16-2.76,1a1.86,1.86,0,0,0,.28.43,3.16,3.16,0,0,0,3,.53,2.26,2.26,0,0,0,.48-.17C265.81,3.64,264.81,2.69,263.94,2.3ZM118.72,49.13c-1.34.21-1.88-1.48-.6-1.86S120.22,48.91,118.72,49.13Zm15-2.35c0-.29-.4-.49-.69-.65a.65.65,0,0,0-.4-.13l-2.07.46c-.23,0-.34.46-.51.69s.32.76.82.87a2.81,2.81,0,0,0,2.73-1A.56.56,0,0,0,133.7,46.78ZM35.32,24.57a.55.55,0,0,0,.13-.28.58.58,0,0,0-.33-.49.89.89,0,0,0-1.14.26.53.53,0,0,0-.12.28.58.58,0,0,0,.33.5A.88.88,0,0,0,35.32,24.57ZM156.05,42.94c-.26.32-.07.75.35.94a.77.77,0,0,0,.26.07,1,1,0,0,0,.67-.26c.31-.3.1-.73-.31-.91l-.28-.15C156.53,42.53,156.3,42.63,156.05,42.94Zm39.8-1.5a.7.7,0,0,0-.28-.19.88.88,0,0,0-1.14.24.49.49,0,0,0,0,.56.7.7,0,0,0,.28.19.87.87,0,0,0,1.14-.24A.49.49,0,0,0,195.85,41.44Zm23.33-12.26a.7.7,0,0,0-.28-.19.88.88,0,0,0-1.14.24.49.49,0,0,0,0,.56.72.72,0,0,0,.28.2.89.89,0,0,0,1.14-.24A.51.51,0,0,0,219.18,29.18Zm18.08-9.07a.7.7,0,0,0,.28.19.88.88,0,0,0,1.14-.24.49.49,0,0,0,0-.56.7.7,0,0,0-.28-.19.87.87,0,0,0-1.14.24A.49.49,0,0,0,237.26,20.11ZM256,6.61a.45.45,0,0,0-.13.28.59.59,0,0,0,.33.49.88.88,0,0,0,1.14-.27.5.5,0,0,0,.12-.28.59.59,0,0,0-.33-.49A.87.87,0,0,0,256,6.61Z"/><path class="cls-1" d="M248.5,27.3a1.87,1.87,0,0,1-2.47-.79,5.78,5.78,0,0,1-.55-1.41,3.26,3.26,0,0,1,.55-2.7l.29-.45a1.34,1.34,0,0,0,.1-1.09c-.11-.32-.2-.62-.29-.9a.88.88,0,0,1,.75-1.09,1.11,1.11,0,0,1,1.31.63l.65,2a2.78,2.78,0,0,1-.35,2.35,2.8,2.8,0,0,0-.34,2.36C248.26,26.56,248.37,26.91,248.5,27.3Z"/><path class="cls-1" d="M276.64,8.62c-.32-1-.62-1.89-.92-2.82a2,2,0,0,1,.67-2.24,1.64,1.64,0,0,1,1.73-.41,1,1,0,0,1,.64,1.5,1,1,0,0,0,.51,1.48,1,1,0,0,1-.16,2h-.18A10,10,0,0,0,276.64,8.62Z"/><path class="cls-1" d="M96,55.87c-.49-1.52-.56-3.56,1.33-3.75l.16,0c1.43-.13,2-.05,2.29,1,.45,1.38-1.6,2.28-3.26,2.64Z"/><path class="cls-1" d="M106.77,59.21a2,2,0,0,1-2.73.16.62.62,0,0,1-.16-.63,5,5,0,0,1,1.1-2,2,2,0,0,1,2.78-.11.64.64,0,0,1,.15.7A6.42,6.42,0,0,1,106.77,59.21Z"/><path class="cls-1" d="M146.18,50.53c.22.18.41.54.24.76l-.89,1.19a2.41,2.41,0,0,1-2.75.57,2.27,2.27,0,0,0-.71-.13c-.23,0-.45,0-.67,0-.5,0-.81,0-.9-.2s.12-.71.32-1a1.08,1.08,0,0,1,.57-.33,11.39,11.39,0,0,1,4.45-1C146,50.46,146.06,50.44,146.18,50.53Z"/><path class="cls-1" d="M216.23,40a1.63,1.63,0,0,1,0-1.35,6.56,6.56,0,0,1,.73-1.1c.72-.91,2.54-1.44,2.82-.37a1.61,1.61,0,0,1-.37,1.42,13.66,13.66,0,0,0-.95,1.52c-.8,1.32-1,1.37-1.78.58A1.73,1.73,0,0,1,216.23,40Z"/><path class="cls-1" d="M219.16,42.43a1.58,1.58,0,0,1,1.39-1.84l.63-.14a2,2,0,0,1,1.08,0A1.74,1.74,0,0,1,223.51,42c.11,1.12,0,1.53-1.38,1.84a2.68,2.68,0,0,1-1.61,0A1.91,1.91,0,0,1,219.16,42.43Z"/><path class="cls-1" d="M9,23.61a1.33,1.33,0,0,1,1,0,2.62,2.62,0,0,1,1,.78c.89,1.24-1.55,1.76-3.08,1.08-.86-.38-1.15-.51-1-.92a1.38,1.38,0,0,1,1.24-.91A5.7,5.7,0,0,0,9,23.61Z"/><path class="cls-1" d="M25.12,31.12c-.82,1-3.13,1.32-3,.13a.68.68,0,0,1,0-.19,2.65,2.65,0,0,1,2.1-1.66,1.9,1.9,0,0,1,.85,0C25.9,29.54,25.6,30.55,25.12,31.12Z"/><path class="cls-1" d="M81.39,51.13c1,0,.28,1.27-.71,1.5s-.76-.24-1.78,0a.83.83,0,0,1-.63-.16c-.47-.27-.84-1-.29-1.17C79.52,50.76,79.61,51,81.39,51.13Z"/><path class="cls-1" d="M138.27,53.57a2.27,2.27,0,0,1,3,1.33c0,.1,0,.19,0,.28a1,1,0,0,1,0,.3c-.1.68-1.44.77-2.17.44l-.92-.41c-.66-.29-1.13-1.18-.57-1.59a3.09,3.09,0,0,1,.44-.24Z"/><path class="cls-1" d="M158.21,56.15c-1.43.59-2.16-1.13-1.31-2.26a1.57,1.57,0,0,1,1.77-.73,1,1,0,0,1,.53.56,1.82,1.82,0,0,1-.8,2.34Z"/><path class="cls-1" d="M230.4,29.42c1.58-.33,1.56,1.48,0,1.93a6.07,6.07,0,0,1-1.36.27c-1.33.09-1.8-1.32-.53-1.69.5-.15,1.05-.25,1.57-.43A2.45,2.45,0,0,1,230.4,29.42Z"/><path class="cls-1" d="M242.93,38.15c1.3.64,1.69,2.71.18,2.56H243A2.46,2.46,0,0,1,241,39a.78.78,0,0,1,.19-.82A1.59,1.59,0,0,1,242.93,38.15Z"/><path class="cls-1" d="M261.66,23.85A2,2,0,0,1,263,24a2,2,0,0,1,.93.87c.56,1.2-1.54,1.65-2.88,1a2.88,2.88,0,0,0-.49-.18c-.62-.2-.87-.48-.77-.84a1.44,1.44,0,0,1,1.43-.93Z"/><path class="cls-1" d="M266.19,7.31c.45-.09.69.21,1,.48l.08,0,1.26.56c.72.31,1.12,1.17.56,1.65a.65.65,0,0,1-.23.13,6,6,0,0,1-1.25.33,1.81,1.81,0,0,1-2-1c-.1-.32-.21-.66-.33-1S265.59,7.42,266.19,7.31Z"/><path class="cls-1" d="M272.16,8.89a1.52,1.52,0,0,1,2.11-.56,2.62,2.62,0,0,0,2.37.29,1.34,1.34,0,0,1-.2,1.4,3.15,3.15,0,0,1-2.79.79,1.94,1.94,0,0,1-1.53-1.55A.68.68,0,0,1,272.16,8.89Z"/><path class="cls-1" d="M256.9,29.17c-.34.1.05.13-.27,0a2.6,2.6,0,0,1-1-.78c-.89-1.24.82-1.76,2.35-1.08.86.39,1.15.51,1,.92a1.39,1.39,0,0,1-1.24.91A4.63,4.63,0,0,0,256.9,29.17Z"/><path class="cls-1" d="M21.6,24.19c.35,1.07-.11,1.93-.91,1.73s-1.08-.45-1.14-1.06a1.76,1.76,0,0,0-.07-.4,1.17,1.17,0,0,1,.08-1c.24-.36.54-.55,1-.37s.81.21.86.39S21.55,24,21.6,24.19Z"/><path class="cls-1" d="M54.53,46a2.69,2.69,0,0,1-.44-.9,1.16,1.16,0,0,1,.46-1.13c.8-.56,1.72,0,2.07,1.07,0,0,0,.09,0,.14a1.17,1.17,0,0,1-.19,1.08.82.82,0,0,1-.36.3,1.31,1.31,0,0,1-1-.18A1.6,1.6,0,0,1,54.53,46Z"/><path class="cls-1" d="M62.64,57c1.16,0,.36,1.32-.75,1.59-.24,0-.48.1-.71.13a2.08,2.08,0,0,1-.86,0l-.23-.08c-.6-.24-.82-.89-.3-1.24a2.77,2.77,0,0,1,.9-.35A7,7,0,0,1,62.64,57Z"/><path class="cls-1" d="M70.45,68.29a.56.56,0,0,1,0-.44,1.79,1.79,0,0,1,2.41-.69,1.24,1.24,0,0,1,.45.31c.17.23,0,.52-.23.75a1.77,1.77,0,0,1-2.2.57A.79.79,0,0,1,70.45,68.29Z"/><path class="cls-1" d="M70.09,49.63c1.37-.31,2.46,0,2.18.66a1.44,1.44,0,0,1-1.39.93,4.63,4.63,0,0,0-.52.07,2.33,2.33,0,0,1-1.31,0c-.43-.17-.64-.39-.4-.72s.29-.63.52-.69Z"/><path class="cls-1" d="M78.18,60.25c.35,1.07-.11,1.94-.91,1.73s-1.08-.45-1.14-1.06a1.76,1.76,0,0,0-.07-.4,1.14,1.14,0,0,1,.09-1,.7.7,0,0,1,.94-.37c.29.13.81.21.86.39S78.07,59.89,78.18,60.25Z"/><path class="cls-1" d="M96,55.87c.17.52.48,1.1.65,1.67a1.41,1.41,0,0,1-.16,1.28,1,1,0,0,1-1.42.23,1.54,1.54,0,0,1-.5-.76,3.43,3.43,0,0,1,0-1.53C94.59,56.18,95.23,55.85,96,55.87Z"/><path class="cls-1" d="M121.91,58.08a.94.94,0,0,1,.43.5.45.45,0,0,1,0,.42,3,3,0,0,1-3.14.69.5.5,0,0,1-.25-.32.85.85,0,0,1,.07-.66c.1-.17.19-.34.33-.37l2.07-.46A.88.88,0,0,1,121.91,58.08Z"/><path class="cls-1" d="M177.89,48.16c1.19-.26,2.6.36,1.78,1.12l0,0a3.65,3.65,0,0,1-2.75.61c-1.19-.3-.32-1.45.89-1.72Z"/><path class="cls-1" d="M233.93,39.45c.47,1.06,2.62.58,2.39-.54S233.4,38.25,233.93,39.45Z"/><path class="cls-1" d="M248.5,27.3c.71-.16,1.52-.45,2.3-.59a2.54,2.54,0,0,1,1.37.06c.59.25.79.87.26,1.22a2.64,2.64,0,0,1-.89.36,7.44,7.44,0,0,1-1.95,0A1,1,0,0,1,248.5,27.3Z"/><path class="cls-1" d="M262.64,11.73c1.64-.36,3.36,1.13,1.69,1.4a8.14,8.14,0,0,1-1.21.08,1.54,1.54,0,0,1-.48,0l-.33-.18c-.18-.12-.32-.28-.27-.46a1.18,1.18,0,0,1,.23-.54A.79.79,0,0,1,262.64,11.73Z"/><path class="cls-1" d="M272.12,20.37c0-1,1.78-.25,2.07.75,0,.11.06.21.08.32a1.08,1.08,0,0,1,0,.71,1.22,1.22,0,0,1-.16.26,1.07,1.07,0,0,1-1.45.25,1.64,1.64,0,0,1-.5-.76A3.59,3.59,0,0,1,272.12,20.37Z"/><path class="cls-1" d="M16.16,25.54a.79.79,0,0,1,.3.08c.42.19.63.62.31.91a.91.91,0,0,1-.65.26.79.79,0,0,1-.3-.08c-.42-.18-.63-.62-.31-.91A.9.9,0,0,1,16.16,25.54Z"/><path class="cls-1" d="M1.42,25.63a1,1,0,0,1-.38.29,1,1,0,0,1-.62,0A.56.56,0,0,1,.14,25a.64.64,0,0,1,.21-.19,1.05,1.05,0,0,1,.87,0c.4.15.52.49.24.77Z"/><path class="cls-1" d="M11.88,26a.79.79,0,0,1,.3.08c.41.19.62.62.31.91a.92.92,0,0,1-.66.26.79.79,0,0,1-.3-.08c-.41-.18-.62-.62-.31-.91A1,1,0,0,1,11.88,26Z"/><path class="cls-1" d="M9.55,31.05A1.16,1.16,0,0,1,9.14,31c-.39-.18-.57-.57-.29-.86a1,1,0,0,1,.65-.29,1,1,0,0,1,.38.1c.42.19.72.61.39.89A1.15,1.15,0,0,1,9.55,31.05Z"/><path class="cls-1" d="M260.65,35.17a4,4,0,0,1-.76-.26c-.12-.16.25-.47.36-.68A.88.88,0,0,1,261.4,34a.7.7,0,0,1,.28.19.51.51,0,0,1,0,.56A.81.81,0,0,1,260.65,35.17Z"/><path class="cls-1" d="M2.07,20.41a.65.65,0,0,1,.28.2.49.49,0,0,1,0,.56.88.88,0,0,1-1.14.24.7.7,0,0,1-.28-.19.53.53,0,0,1,0-.57A.89.89,0,0,1,2.07,20.41Z"/><path class="cls-1" d="M187.84,52.17a.6.6,0,0,1,.13-.28.87.87,0,0,1,1.13-.27.58.58,0,0,1,.34.49.6.6,0,0,1-.13.28.87.87,0,0,1-1.13.27A.58.58,0,0,1,187.84,52.17Z"/><path class="cls-1" d="M89.89,62.56a.53.53,0,0,1-.12.28.9.9,0,0,1-1.14.27.6.6,0,0,1-.33-.5.55.55,0,0,1,.13-.28.89.89,0,0,1,1.13-.27A.56.56,0,0,1,89.89,62.56Z"/><path class="cls-1" d="M267.26,33.7a.79.79,0,0,1-.3-.08c-.42-.19-.63-.62-.31-.91a.91.91,0,0,1,.61-.26,1,1,0,0,1,.38.1c.43.19.69.6.36.88A1.18,1.18,0,0,1,267.26,33.7Z"/><path class="cls-1" d="M25.2,25a.78.78,0,0,1-.3-.07c-.42-.19-.63-.62-.31-.91a.83.83,0,0,1,1-.16c.42.18.68.59.35.88A1.17,1.17,0,0,1,25.2,25Z"/><path class="cls-1" d="M209.62,50.93a1.15,1.15,0,0,1,.38-.31,1.07,1.07,0,0,1,.64,0,.56.56,0,0,1,.28.92.67.67,0,0,1-.22.19,1,1,0,0,1-.73.05C209.49,51.63,209.31,51.26,209.62,50.93Z"/><path class="cls-1" d="M41.13,55.88a.6.6,0,0,1-.34-1.07.93.93,0,0,1,.53-.17,1,1,0,0,1,.3.08c.42.19.63.62.31.91A.93.93,0,0,1,41.13,55.88Z"/><path class="cls-1" d="M37,44.11a.7.7,0,0,1-.28-.19.49.49,0,0,1,0-.56.88.88,0,0,1,1.14-.24.7.7,0,0,1,.28.19.49.49,0,0,1,0,.56A.87.87,0,0,1,37,44.11Z"/><path class="cls-1" d="M45.89,42a.67.67,0,0,1-.22.19,1,1,0,0,1-.72,0,.56.56,0,0,1-.28-.92.76.76,0,0,1,.21-.19,1,1,0,0,1,.73,0A.56.56,0,0,1,45.89,42Z"/><path class="cls-1" d="M44.38,58.64a.79.79,0,0,1-.3-.08c-.42-.18-.63-.62-.31-.91a1,1,0,0,1,.65-.26.79.79,0,0,1,.3.08c.42.19.63.62.31.91A.9.9,0,0,1,44.38,58.64Z"/><path class="cls-1" d="M35.42,35.45a.92.92,0,0,1,1.15-.29.6.6,0,0,1,.33.5.55.55,0,0,1-.13.28.89.89,0,0,1-1.13.27.56.56,0,0,1-.33-.5A.46.46,0,0,1,35.42,35.45Z"/><path class="cls-1" d="M53.43,50.15a.53.53,0,0,1-.12.28.9.9,0,0,1-1.14.27.6.6,0,0,1-.33-.5.55.55,0,0,1,.13-.28.89.89,0,0,1,1.13-.27A.56.56,0,0,1,53.43,50.15Z"/><path class="cls-1" d="M56.88,48.71a1,1,0,0,1,.41.09c.39.18.57.57.29.85a.91.91,0,0,1-.65.29.89.89,0,0,1-.39-.09c-.42-.19-.71-.61-.39-.9A1.24,1.24,0,0,1,56.88,48.71Z"/><path class="cls-1" d="M64.65,57.91a.88.88,0,0,1,.68.24,3.69,3.69,0,0,1,.4.29.52.52,0,0,1,0,.7.79.79,0,0,1-1.06.3,3.28,3.28,0,0,1-.7-.38C63.48,58.67,64,58.05,64.65,57.91Z"/><path class="cls-1" d="M184,54.9a.48.48,0,0,1-.13.28.89.89,0,0,1-1.13.27.6.6,0,0,1-.33-.5.48.48,0,0,1,.13-.28.89.89,0,0,1,1.13-.27A.6.6,0,0,1,184,54.9Z"/><path class="cls-1" d="M187.09,61.22a.7.7,0,0,1,.28.19.51.51,0,0,1,0,.57.89.89,0,0,1-1.14.24A.72.72,0,0,1,186,62a.49.49,0,0,1,0-.56A.88.88,0,0,1,187.09,61.22Z"/><path class="cls-1" d="M74.14,57.23a.55.55,0,0,1-.21.19,1,1,0,0,1-.72,0,.56.56,0,0,1-.28-.92.64.64,0,0,1,.21-.19,1,1,0,0,1,.72,0A.56.56,0,0,1,74.14,57.23Z"/><path class="cls-1" d="M83.39,52a.9.9,0,0,1,.69.24,3.69,3.69,0,0,1,.4.29.52.52,0,0,1,0,.7.78.78,0,0,1-1,.3,3.24,3.24,0,0,1-.67-.36C82.23,52.81,82.74,52.17,83.39,52Z"/><path class="cls-1" d="M99.52,61.63a1.1,1.1,0,0,1-.38.29,1,1,0,0,1-.62,0,.56.56,0,0,1-.28-.92.55.55,0,0,1,.21-.19,1,1,0,0,1,.87,0c.39.14.52.49.24.77Z"/><path class="cls-1" d="M129.59,63.51a.52.52,0,0,1-.13.28.87.87,0,0,1-1.13.27.59.59,0,0,1-.33-.46.61.61,0,0,1,.15-.35.85.85,0,0,1,1.09-.31A.72.72,0,0,1,129.59,63.51Z"/><path class="cls-1" d="M132,61.38a1,1,0,0,1-.37-.29.49.49,0,0,1,0-.51.89.89,0,0,1,1.14-.24.82.82,0,0,1,.28.19.51.51,0,0,1,0,.56A.76.76,0,0,1,132,61.38Z"/><path class="cls-1" d="M112,54.54a1.05,1.05,0,0,1,.39-.29,1,1,0,0,1,.61,0,.56.56,0,0,1,.28.92.55.55,0,0,1-.21.19,1,1,0,0,1-.87,0c-.39-.15-.52-.49-.24-.77Z"/><path class="cls-1" d="M128.39,55.72a.55.55,0,0,1-.21.19,1,1,0,0,1-.72.05.56.56,0,0,1-.28-.92.64.64,0,0,1,.21-.19.93.93,0,0,1,.72-.05A.56.56,0,0,1,128.39,55.72Z"/><path class="cls-1" d="M139.54,62.51a.91.91,0,0,1,1.15-.28.59.59,0,0,1,.33.49.5.5,0,0,1-.12.28.88.88,0,0,1-1.14.27.59.59,0,0,1-.33-.49A.46.46,0,0,1,139.54,62.51Z"/><path class="cls-1" d="M143.6,57.85a.91.91,0,0,1,.41.09c.39.17.57.57.29.85a.93.93,0,0,1-.65.29,1,1,0,0,1-.38-.1c-.42-.19-.72-.6-.39-.89A1.09,1.09,0,0,1,143.6,57.85Z"/><path class="cls-1" d="M151.46,61.45a.79.79,0,0,1,.3.08c.42.18.62.61.31.91a.9.9,0,0,1-.65.25.94.94,0,0,1-.3-.07c-.42-.19-.63-.62-.31-.91A.86.86,0,0,1,151.46,61.45Z"/><path class="cls-1" d="M161.56,64.55a.79.79,0,0,1,.3.08c.41.19.62.62.31.91a.92.92,0,0,1-.66.26.79.79,0,0,1-.3-.08c-.41-.18-.62-.62-.31-.91A.92.92,0,0,1,161.56,64.55Z"/><path class="cls-1" d="M164.37,58a.64.64,0,0,1-.21.19,1,1,0,0,1-.72,0,.61.61,0,0,1-.07-1.11,1,1,0,0,1,.72,0A.56.56,0,0,1,164.37,58Z"/><path class="cls-1" d="M165.71,53a.78.78,0,0,1-.22,1l0,0a3.26,3.26,0,0,1-.4.34,1,1,0,0,1-.89,0c-.46-.19-.61-.46-.34-.81s.54-.73,1-.76C165.15,52.8,165.54,52.79,165.71,53Z"/><path class="cls-1" d="M172.82,56.71a.56.56,0,0,1-.31-.93.93.93,0,0,1,.7-.31.79.79,0,0,1,.3.08c.42.18.62.62.31.91a.9.9,0,0,1-.54.25A1.42,1.42,0,0,1,172.82,56.71Z"/><path class="cls-1" d="M165.92,51.39a1.13,1.13,0,0,1,1.18-.23.25.25,0,0,1,.1.33,1.54,1.54,0,0,1-.58.9c-.69.48-1.21.36-1.19-.21a.72.72,0,0,1,.22-.56A3.53,3.53,0,0,1,165.92,51.39Z"/><path class="cls-1" d="M196.62,50.11c0,.15-.06.33-.32.54a3.4,3.4,0,0,1-.4.34,1,1,0,0,1-.89,0c-.46-.19-.61-.46-.34-.82a2.15,2.15,0,0,1,.59-.61A1,1,0,0,1,196.62,50.11Z"/><path class="cls-1" d="M198.21,48.19a.77.77,0,0,1-.66,1h-.05c-.59.13-1.24-.21-1.14-.7a1,1,0,0,1,.62-.73A.9.9,0,0,1,198.21,48.19Z"/><path class="cls-1" d="M199.37,48.74a.82.82,0,0,1,.68.23,3.17,3.17,0,0,1,.4.29.54.54,0,0,1,0,.71.79.79,0,0,1-1.06.29,2.89,2.89,0,0,1-.7-.38C198.2,49.49,198.73,48.88,199.37,48.74Z"/><path class="cls-1" d="M204.18,61.26a.93.93,0,0,1,.41.34.57.57,0,0,1,0,.47.89.89,0,0,1-1.15.24.7.7,0,0,1-.28-.19.57.57,0,0,1,.07-.69.68.68,0,0,1,.94-.2Z"/><path class="cls-1" d="M217.28,46.81a.79.79,0,0,1,.3.08c.42.18.63.62.31.91a.94.94,0,0,1-.65.26,1,1,0,0,1-.3-.08c-.42-.19-.63-.62-.31-.91A.91.91,0,0,1,217.28,46.81Z"/><path class="cls-1" d="M225.14,47.64a.48.48,0,0,1-.13.29.88.88,0,0,1-1.13.26.59.59,0,0,1-.33-.49.55.55,0,0,1,.13-.28.87.87,0,0,1,1.13-.27A.6.6,0,0,1,225.14,47.64Z"/><path class="cls-1" d="M228.91,42.69a1,1,0,0,1,.39-.29,1,1,0,0,1,.61,0,.56.56,0,0,1,.28.92.55.55,0,0,1-.21.19,1,1,0,0,1-.87,0c-.39-.15-.52-.49-.24-.77Z"/><path class="cls-1" d="M231.62,36.07a1.07,1.07,0,0,1-.41-.09c-.39-.18-.57-.57-.29-.86a1,1,0,0,1,.65-.29,1,1,0,0,1,.38.1c.42.19.72.61.39.9A1.21,1.21,0,0,1,231.62,36.07Z"/><path class="cls-1" d="M239.1,42.21a.91.91,0,0,1,.37.29.49.49,0,0,1,0,.51.88.88,0,0,1-1.14.24.7.7,0,0,1-.28-.19.49.49,0,0,1,0-.56A.75.75,0,0,1,239.1,42.21Z"/><path class="cls-1" d="M250.09,34.4a1,1,0,0,1,.41.34.54.54,0,0,1-.05.47.87.87,0,0,1-1.14.24.7.7,0,0,1-.28-.19c-.14-.19-.11-.42.07-.69a.68.68,0,0,1,.94-.2Z"/><path class="cls-1" d="M265.73,21.66a1,1,0,0,1,1.17-.29.62.62,0,0,1,.37.52.52.52,0,0,1-.13.28.87.87,0,0,1-1.13.27.63.63,0,0,1-.33-.44A.5.5,0,0,1,265.73,21.66Z"/><path class="cls-1" d="M271.55,24.5a.58.58,0,0,1-.13.29.88.88,0,0,1-1.13.26.59.59,0,0,1-.33-.46.64.64,0,0,1,.15-.35.83.83,0,0,1,1.09-.3A.75.75,0,0,1,271.55,24.5Z"/><path class="cls-1" d="M280.68,11.64a1.06,1.06,0,0,1,1.12-.18.34.34,0,0,1,.17.42,3.79,3.79,0,0,1-.12.4,1.4,1.4,0,0,1-1.08.73.43.43,0,0,1-.57-.4,1,1,0,0,1,.25-.75A1.63,1.63,0,0,1,280.68,11.64Z"/><path class="cls-1" d="M283.49,3.85a1,1,0,0,1,.41.34.55.55,0,0,1,0,.48.89.89,0,0,1-1.15.23.7.7,0,0,1-.28-.19A.58.58,0,0,1,282.5,4a.68.68,0,0,1,.94-.2Z"/><path class="cls-1" d="M283.65.28a.65.65,0,0,1,.21-.19,1,1,0,0,1,.72,0,.56.56,0,0,1,.28.92.64.64,0,0,1-.21.19.93.93,0,0,1-.72.05A.56.56,0,0,1,283.65.28Z"/><path class="cls-1" d="M267.57,26.61a.63.63,0,0,1-.15.38.84.84,0,0,1-1.05.25.5.5,0,0,1-.22-.85.86.86,0,0,1,1.1-.33A.67.67,0,0,1,267.57,26.61Z"/></svg>