<svg id="Layer_1" data-name="Layer 1" xmlns="http://www.w3.org/2000/svg" viewBox="0 0 6 144"><defs><style>.cls-1{fill:#f2994a;}</style></defs><path class="cls-1" d="M3.75,143.51c.33-.06.4-.24.42-1.31,0-.18,0-.45,0-.63.07-2.78.09-5.57.16-8.35,0-2.51.07-4.94.1-7.45,0-1.53,0-3.06,0-4.58q.13-3.76.26-7.53a23.41,23.41,0,0,0,.09-2.87c-.07-6-.19-52.16-.31-58.19,0-2.88,0-5.66,0-8.62,0-2.79,1.1-5.7,1.18-8.57,0-2-1-3.91-1-5.89,0-.9-.1-1.81-.15-2.71-.07-2-.26-4-.17-6a78.26,78.26,0,0,0-.17-8.29,20.83,20.83,0,0,1,0-2.6,18.17,18.17,0,0,0,.15-2.95C4.33,5.4,4.32,3.7,4.19,2.16A6.67,6.67,0,0,0,3.94.7C3.75.15,4-.08,3.68.17S3.26,1,3.07,1.74a11.26,11.26,0,0,0-.22,2.32c0,1.7,0,3.41-.09,5.11,0,2.07-.13,4.22-.17,6.28,0,1,0,2.07,0,3.05a83.32,83.32,0,0,0-.1,8.35c0,2.07.13,4.15.09,6.21-.11,5.83-.3,11.75-.48,17.67,0,1.7-.15,3.49-.07,5,.19,2.35-.85,4.9-.94,7.41C1,66.58,2.86,76,2.72,79.45c-.05,1.7-1.16,37.41-1.19,39-.06,1.34-.06,2.69-.12,4,0,1.16-1.07,2.37-1,3.45,0,1.89,1.09,3.65,1.13,5.54,0,3.15-.12,6.28-.34,9.41a2.48,2.48,0,0,0,.09,1A4.37,4.37,0,0,0,2,143a9.85,9.85,0,0,0,1.52.54v-.09Z"/></svg>