<svg id="Layer_1" data-name="Layer 1" xmlns="http://www.w3.org/2000/svg" viewBox="0 0 18.8 21.48"><defs><style>.cls-1{fill:#f2994a;}</style></defs><path class="cls-1" d="M9.59,15.76c-.07,0-.12.05-.12.08s0,.19,0,.27.18.12.09.27a.54.54,0,0,1-.08.08c0,.09.19,0,.23.11l-.16.14H9.4a.09.09,0,0,0-.06.12v-.1s0,.07,0,.1l-.09.08v.21l.1.09c0,.1-.19,0-.23.15v.52l.11.11v.2a.52.52,0,0,1-.11.1c.15.15.15.16,0,.3v.8a.6.6,0,0,0-.12.11.28.28,0,0,1,0,.09,2.29,2.29,0,0,0,.23.21v.71l-.09.08a.57.57,0,0,0,0,.29v.24s-.09.06-.09.09a.36.36,0,0,1-.2.26H8.33c-.06,0-.1-.08-.15-.1s-.09,0-.1,0L7.68,21a1.34,1.34,0,0,0,0-.19c0-.07-.16-.1-.12-.21l.12-.11v-.39A.47.47,0,0,1,7.8,20v-.41a.52.52,0,0,1,.11-.1V19.1L7.82,19c-.05-.1,0-.2,0-.3s0-.16,0-.25l-.09-.08s0,0,0,0V16.07l.1-.11s0-.06-.06-.06H7.54a.1.1,0,0,1-.1-.05v-.21c0-.09.19,0,.23-.11l0,0-.34,0a.71.71,0,0,0-.14.1H7l-.13.1c-.1,0,0-.17-.12-.2l0,0-.08.05a.08.08,0,0,1,0-.08.07.07,0,0,0,0-.09s-.05,0-.09,0-.09.06-.19.05l-.16-.2H5.72s-.07.06,0,.08l.14.12H6c.07,0,.12,0,.16,0L6,15.65s0,.1-.06.14L5.7,15.6l-.16.14V16l.11.11v.25l.13.11v.19l.09.08s0,0,0,.09v.44a.23.23,0,0,1,.12.22c0,.08,0,.12-.11.18v.49a1.36,1.36,0,0,0-.12.12.49.49,0,0,1,0,.11l-.31.24H4.79s-.08-.07-.13-.1H4.54c-.06,0,0-.08-.06-.13s-.06-.08-.1-.13v-.48l-.12-.12.12-.11v-.3l-.12-.11a.16.16,0,0,1,0-.14.23.23,0,0,0,.07-.07v-.17a.42.42,0,0,1-.1-.12l.1-.11v-.18a.5.5,0,0,1,.13-.12v0l-.12-.11v-.5l-.13-.12v-.7c0-.06-.1,0-.16-.05l-.13.1H3.91V14.7A1.13,1.13,0,0,0,4,14.59a.45.45,0,0,1-.1-.09A1.13,1.13,0,0,1,4,14.39c0-.13,0-.15-.16-.15l-.24.2H3.57v-.15l-.16-.14a.75.75,0,0,1-.18-.07L3.31,14s0,0,0-.08l-.06-.08s0-.12-.07-.12,0,.08-.06.12,0,.07-.06.06a.07.07,0,0,1,0-.08c0-.1,0-.1-.14-.11H2.78l-.16-.14s0,0,0,0a.08.08,0,0,0,.1,0s0-.05-.13-.06h0a.06.06,0,0,0,0-.08s0,0-.07,0,0,0,0,0l.06,0a.12.12,0,0,1,0,.1H2.45s-.06-.05-.06-.07a1.92,1.92,0,0,1,0-.24.09.09,0,0,0,.1,0s0-.06-.1-.07V13l-.18-.14H1.89a.42.42,0,0,1-.19-.18c.08-.07.19,0,.27,0l.14.11h.11l.28-.25s0-.06-.07-.06H1.85l0,0,.11-.11s0,0,0,0a.08.08,0,0,0,.1,0s0,0-.1-.06V12H2.1l0,0s0,0,0,0,0,0,0,0-.17,0-.19.09-.08,0-.1,0,0-.13-.09-.17H1.62a.47.47,0,0,1-.12.09c-.08,0-.05-.09-.05-.15a1.81,1.81,0,0,1,.19-.15c.05,0,.15,0,.24,0l0,0,0,0H1.74a.76.76,0,0,0-.17-.13,1,1,0,0,1,0-.3.64.64,0,0,0-.17-.16,1.06,1.06,0,0,1-.19-.06l.24-.21-.2-.18s0-.05,0-.06,0,0,.06,0,.08,0,.1,0,0-.06-.11-.06H1l-.16-.15c.06-.09.18,0,.27-.05l.09,0,.29-.26s.05,0,0-.07-.07-.05-.1,0H1.39a.33.33,0,0,1-.24.1l-.09.08a.46.46,0,0,1-.26,0l-.06,0V9.61H.86c.05,0,.08,0,.1,0s0,0,0-.07l0,0c0-.11.18,0,.22-.11L1,9.25V8.8a.11.11,0,0,0,.11,0,.15.15,0,0,0,0-.13A.09.09,0,0,0,1,8.6s0,0,0,0,.12-.11.18-.15H1.2v.14c.08.06.08.06.14,0s.09,0,.11-.08a.12.12,0,0,0-.07-.12H1.22s0-.05,0-.06a.6.6,0,0,1-.12-.11l.17-.14a1.27,1.27,0,0,0,.12.1c.07,0,.09-.11,0-.17a.27.27,0,0,1-.1-.16s-.07-.08-.13-.06a.11.11,0,0,1-.1-.06V7.46s0-.06.08,0,0,0,0,0v.19c.09.07.09.07.32.05.05,0,.05-.06,0-.07s-.07,0-.11,0-.08,0-.08-.06,0,0,.09,0,.14,0,.14-.11V7.25l-.05,0c-.09-.09-.09-.12,0-.21s.05,0,0-.08-.06,0-.1,0-.1,0-.11-.09a.1.1,0,0,1,.07-.12h.12l.05,0V6.43l-.11-.1c0-.08.19,0,.23-.11V6.13c-.06-.09-.2,0-.23-.11l.29-.25h.18s0,.06,0,.07S2,5.9,2,5.9a.1.1,0,0,0,.09-.05A.1.1,0,0,0,2,5.8H1.87s0,0,0-.06l-.12-.1V5.33l0,0s.06,0,.06,0a.38.38,0,0,1,0,.15.08.08,0,0,0,0,.08c.09,0,.2,0,.29,0S2,5.41,2,5.33l.11-.11V5.07h.17l0,0s0,0,0,0l0,0c-.13,0-.16,0-.19.09S2,5.07,2,5s0-.16-.14-.2V4.69s0-.07,0-.09a.16.16,0,0,1,.15,0c.08,0,.14.12.22.17s.06,0,.06,0a1.2,1.2,0,0,0,0-.19s-.11-.06-.1-.12.1,0,.15,0l.13.1.16-.14a.15.15,0,0,0-.09-.06H2.38s0,0-.09,0l.16-.15h.12A.73.73,0,0,1,2.7,4l.11,0s0,0,0,0-.08,0-.05,0,0,0,.06,0,0,0,0,0,0-.07-.05-.08l-.12-.1.11-.09a.57.57,0,0,0-.11-.11c.09-.08.2,0,.3-.05a1,1,0,0,0,.15-.14c0-.06-.15-.1-.1-.21l.11-.09L3,3s0-.11,0-.13.08,0,.13.07,0-.15.12-.19h.14c.07.06.13.14.2.19h.14l.12-.09L4.06,3s0,0,0,0-.08,0-.09,0a.47.47,0,0,1,0,.09A.09.09,0,0,0,4,3.25s.06,0,.06-.06a.66.66,0,0,0,0-.14A.09.09,0,0,0,4.17,3s0-.08,0-.13h.17l0,0s0,0,0,0,0,0,0,0-.16,0-.19.08H4.1a1.27,1.27,0,0,1-.17-.14s0,0,.07,0a1,1,0,0,1,.17,0s.08,0,.09-.05L4.15,2.5c.08-.07.23,0,.28-.14l.13.1h.23l.12-.1h.54s.09,0,.09,0,0-.06-.07-.06-.11,0-.15,0l.18-.13a.52.52,0,0,0,.11.07c.12,0,0-.15.13-.19H6C6,1.9,6,1.9,5.93,1.81l.16-.14a2.55,2.55,0,0,1,.38,0l.11.1c.14,0,.3,0,.45,0s.09-.05.08-.11a.06.06,0,0,1,0,0l.09-.08a.29.29,0,0,0,0-.09c0-.06,0-.13.07-.18h.11c.09.06.14.14.26.18s0-.08,0-.14l.18-.14h.21a1.7,1.7,0,0,0,.14-.1l.13.1h.18v.14s0,0,0,0,0,0,0,0,0,0,0,0,0-.14-.1-.16V1s0-.06,0-.09.05,0,.09.05l0,0A.34.34,0,0,0,8.89.9.61.61,0,0,0,9,.72a.5.5,0,0,0,.13.1L9.22.74l.22.18a.09.09,0,0,0,.08-.1A.08.08,0,0,1,9.57.74a.22.22,0,0,0,.11,0l.24.2C10,.89,10,.83,10,.79a.12.12,0,0,1,.07-.07c.12,0,.23,0,.34,0s.15.14.29.06,0-.11,0-.13.07.06.13.06a.65.65,0,0,0,.39,0c.05,0,0-.13,0-.19s0-.07.05-.08a.14.14,0,0,1,.06.07.32.32,0,0,0,0,.09s0,0,0,0h.18c0,.05,0,.08.08.09a2.19,2.19,0,0,1,.22,0s0,0,0,0-.08,0,0,.05a.09.09,0,0,0,.06,0s0,0,0-.05a.85.85,0,0,1,0-.34h.19l.16.18.21.05s.05,0,0,.1v0a.07.07,0,0,0-.08,0s0,0,0,.06h0l0-.05a.17.17,0,0,0,.1-.06s0-.13.09-.16h.23l.13.1h.11c.08,0,0,.12,0,.18s0,.09.07.11,0,0,0,0a.68.68,0,0,0,0-.2s.06-.06.12-.06a.15.15,0,0,1,.11,0l-.11.1.08,0c.12,0,.23,0,.32,0L14,.67V.52c.09,0,.11,0,.11-.08s0-.13,0-.2.05,0,.1,0V.56a.05.05,0,0,0,.08,0,0,0,0,0,0,0,0V.47a.28.28,0,0,1,.09,0c.09,0,.2,0,.27,0l-.11.11v.1c0,.08-.14,0-.19.08s-.06,0,0,.08h-.17l0,0s0,0,0,0l0,0c.13,0,.16,0,.19-.09s0,0,.06,0a1.29,1.29,0,0,1,.17.15s0,.06,0,.09l-.11.11c.05.07.11.07.19,0s0-.06.09-.07.13,0,.15,0a.08.08,0,0,1,0,.09s0,0,0,0-.09.09-.1.12,0,.12.12.13a.07.07,0,0,0,0,.09s.07,0,.08-.09h.18a.16.16,0,0,1,.06.08c0,.06,0,.13,0,.17l.16.16h.18a.06.06,0,0,1,0,.08c-.06,0-.15,0-.19.09v.08l.09.05.34,0s0,0,0,0a.57.57,0,0,0-.11.11s0,0,0,0-.08,0-.09,0a.47.47,0,0,1,0,.09.1.1,0,0,0,0,.08s.07,0,.07-.06a.66.66,0,0,0,0-.14h.11a.09.09,0,0,1,.1,0s0,0,0,.07-.05,0,0,.06,0,.05.1,0h.12c0,.07,0,.09.08.09a.85.85,0,0,1,.23,0s.05,0,0,.08h-.19l-.1.1H16.2s0-.05,0-.08-.05,0-.07,0,0,0,0,0a.1.1,0,0,0,.06,0,.29.29,0,0,1,0,.15.46.46,0,0,0,.23.17l.2,0s.05,0,0-.09h.18l.16.15a.5.5,0,0,1,0,.32s-.05,0-.1,0V3.52l-.17-.14c-.09,0-.07.08-.05.16s.1.14.22.13v.15s0,0,0,0l.11,0,.09.05.21.18s-.06.06-.08.11-.09.18.05.25l.11-.09.06,0v.41c.05.08.19,0,.23.11a.38.38,0,0,0-.11.11l.17.14h.11c.09.12.09.12-.05.25a.27.27,0,0,1,.1.11s-.07,0-.14,0-.06,0-.08.06l.16.14H18s.09.1.17.17,0,0-.07,0S18,6,18,6.05a.44.44,0,0,0,.14.13c.05,0,.13,0,.2.07s-.17.13-.23.21.11,0,.16,0l0,0s0,.06-.05.07H18c-.11.06-.06.15-.06.24s0,0,.07.05a.2.2,0,0,1,.09-.06.17.17,0,0,1,.1,0h.05c.05.08.17.07.24.11a.3.3,0,0,1,.14.13c0,.06-.1.05-.15.05L18.35,7c-.12.07,0,.2-.07.27s-.25,0-.32.08l.23.21v.09c0,.09.19,0,.23.11l-.17.15h-.06a.06.06,0,0,0,0-.08s-.05,0-.08,0l0,0a.1.1,0,0,0,.06,0s0,.06,0,.07l-.21.06a.74.74,0,0,1,.13.12,1,1,0,0,1,0,.17c0,.05-.05.09-.14.08h0a.07.07,0,0,0,0-.08s-.05,0-.07,0,0,0,0,0l.06,0s0,0,0,.05a2.19,2.19,0,0,0,.23.21c0,.13,0,.13-.11.15H18A.12.12,0,0,0,18,9s.05,0,.09.09a2.81,2.81,0,0,1,0,.41c0,.05-.07.05-.09,0a.32.32,0,0,1,0-.09s0,0-.06-.07l-.3.25c0,.07.13,0,.13,0s.17.12.22.17-.24,0-.29.15H17.5a1.26,1.26,0,0,1-.17.13c0,.07,0,.07.1.07h.12v.4h-.18l0,0v0l.21.18a.26.26,0,0,1-.09.05.16.16,0,0,1-.1,0c-.08,0-.14-.12-.21-.17l-.06.06s0,.07,0,.1.06.05.08.08,0,.09,0,.13l-.09.08a.94.94,0,0,1,.1.1v.09c0,.08-.13.05-.19.08s0,0,0,.09h-.11c-.09,0-.13,0-.13.1v.1h-.18s0,0,0,0v0a1.73,1.73,0,0,0,.21.17c0,.06-.08.06-.15.06s-.06,0-.08,0l.11.11c-.08.08-.18.13-.23.22a.22.22,0,0,0,0,.1s.05,0,.1,0a.66.66,0,0,1,0,.14.07.07,0,0,1-.08,0,.23.23,0,0,0-.07-.07.13.13,0,0,0-.2.09.09.09,0,0,0-.1,0,.06.06,0,0,0,0,0V13a3.88,3.88,0,0,1-.36.32v.15h-.29l-.17.14c0,.11.19,0,.22.12l-.18.13h-.3c-.11,0-.14.11-.22.15.1.09.2,0,.3.06l.06.11a.6.6,0,0,1-.21.18c-.06,0-.13,0-.15,0s0-.07,0-.1-.05-.06-.08,0l0,0-.11.1v.2l.21.19c0,.1.08.2,0,.27h-.1l-.13.1c-.05,0-.05,0-.05-.09s0-.12-.14-.11-.06,0-.09.05V15l.12.1v.21l-.17.14L14,15.34h-.11c-.05,0-.06.05,0,.07l.21.18-.12.11c0,.05,0,.11,0,.14l.25-.2,0,0a2.75,2.75,0,0,1,0,.4s0,.05-.13.06h0l-.3.24v.11l.1.11-.09.08s0,0,0,.07.09.12,0,.21l-.05,0v.41a1.1,1.1,0,0,1,.12.11v.1l-.12.1c0,.09.19,0,.22.11-.12.07-.14.16-.06.33l.05.06c0,.08-.14.13-.22.2v.1a.57.57,0,0,1,.11.11l-.11.11c0,.08,0,.14.09.16a.58.58,0,0,1,0,.1c0,.12,0,.23,0,.35l.09.08a1.13,1.13,0,0,0-.11.11v.2c-.08.07-.2.15-.33.24h-.2c-.06,0-.1-.13-.22-.09l-.67-.58a.16.16,0,0,0,0-.09l-.09-.08a.31.31,0,0,1,0-.08V17.8l.1-.09c0-.09,0-.19,0-.29a.65.65,0,0,1,0-.24l.09-.08s0,0,0,0V15.69a.38.38,0,0,0-.11-.11v-.3l-.17-.14c-.1,0-.13.11-.2.13v.22l-.16,0-.14-.11h-.24l-.16.16a.45.45,0,0,0,.1.09c-.12.09-.13.09-.27,0s-.13.13-.24.09a1.57,1.57,0,0,0-.24.21h-.13a1.12,1.12,0,0,1-.05-.13.46.46,0,0,1,.12-.12l-.11-.1s-.05-.05-.09,0a.09.09,0,0,0,0,.09c0,.08,0,.09-.1.09s-.08,0-.1,0a0,0,0,0,0,0,0c0,.05.12.09.1.18a1.34,1.34,0,0,1-.31.26l-.11,0s-.05,0,0-.09a.08.08,0,0,0,.09,0S10,16,10,16a.06.06,0,0,0-.05-.07s-.06,0-.06.05a.66.66,0,0,0,0,.14s-.08,0-.09,0a1,1,0,0,0-.06.18c-.16-.07,0-.19-.09-.26L9.49,16a.59.59,0,0,0,.1-.21s0,0,0,0,0,.07.06.05l.05-.06S9.63,15.72,9.59,15.76ZM3.47,3.17h.35l0,0s0-.05,0-.07H3.47l0,0S3.43,3.15,3.47,3.17Zm-.65,10a.17.17,0,0,0-.24,0c0,.06,0,.13.08.14ZM1.82,6c-.09.06-.09.13,0,.2S1.9,6.07,1.82,6Zm-.11.78,0,0v-.1l0,0h0a.09.09,0,0,0,0,.16Zm16,2.4a.15.15,0,0,0,.24,0A.16.16,0,0,0,17.7,9.19ZM4.24,14.59v0l0,0s0,0-.08,0,0,0,0,0a.07.07,0,0,0,0,.09S4.24,14.66,4.24,14.59ZM9,1.14a.06.06,0,0,0,.07,0l0,0s0,0-.07,0S9,1.13,9,1.14Zm5.52.25s0,0,0,.07l0,0s0,0,0-.06Zm-7,.12,0,0a.06.06,0,0,0-.07,0l0,0S7.51,1.54,7.54,1.51ZM4.63,2.75s0,0,.08,0l0,0s0,0-.08,0ZM1.57,7.82l0,0s0,0,0,.07l0,0S1.62,7.85,1.57,7.82Zm16.29.08s.05,0,.07,0l0,0a.06.06,0,0,0-.07,0ZM1.13,9.63l0,0s-.06,0-.08,0l0,0S1.1,9.64,1.13,9.63Zm.47,1.21,0,0s0-.05-.08,0l0,0S1.57,10.85,1.6,10.84Zm.32.94,0,0s.05,0,.08,0l0,0A.06.06,0,0,0,1.92,11.78Zm13.79.93s0,0,0,.06l0,0s0,0,0-.07Zm-13.17.08s0,0-.07,0l0,0s0,0,.08,0ZM13.94,16s0,0,0,.06l0,0s0,0,0-.07Z"/><path class="cls-1" d="M10.08,16.9c-.05,0-.07-.07-.05-.08l.16-.14.07,0c0,.1,0,.2,0,.3s-.21,0-.32,0,0-.12,0-.19a.37.37,0,0,1,.18,0s0,0,0,0-.08,0-.05.05a.09.09,0,0,0,.06,0S10.13,16.93,10.08,16.9Z"/><path class="cls-1" d="M14.51,15.65h.18l.13-.1a.16.16,0,0,1,.06.09c0,.12,0,.12.13.12h.17l.05,0s0,0,0,0a1,1,0,0,1-.39,0c-.05-.08-.15-.09-.24-.11A.07.07,0,0,1,14.51,15.65Z"/><path class="cls-1" d="M15.57.64c0-.09.19,0,.23-.11V.43s0,0,0,0a.06.06,0,0,1,.08,0,1.47,1.47,0,0,1,0,.21A.74.74,0,0,1,16,.74c-.07.08-.17,0-.26.05S15.65.69,15.57.64Z"/><path class="cls-1" d="M14.4.59h0c.15,0,.15,0,.18-.12a.11.11,0,0,1,.15-.08l.08,0V.58c-.09,0-.12.08-.22.1h-.16C14.43.68,14.37.65,14.4.59Z"/><path class="cls-1" d="M14,16.7a.08.08,0,0,1,.07,0,.26.26,0,0,0,.2-.08h0l.17.13-.17.15h-.13A.9.9,0,0,0,14,16.7Z"/><path class="cls-1" d="M1.28,12.52s0-.09.09-.1h.2a.5.5,0,0,0,.13.1h.17v.1h-.3l-.12-.1Z"/><path class="cls-1" d="M17,12.77l-.17.14h-.11a.64.64,0,0,0-.13-.1s-.08,0,0-.05,0,0,0,0a.86.86,0,0,1,.39,0Z"/><path class="cls-1" d="M16,1.24l.12-.09s.05,0,.08,0,.05,0,0,.08v.06l-.11.09v.11s0,0,0,0a.07.07,0,0,1-.08,0Z"/><path class="cls-1" d="M15.69,13.73h.18a1.06,1.06,0,0,0,.12-.1c.07,0,.13,0,.17.06l-.15.13a.45.45,0,0,1-.28,0A.07.07,0,0,1,15.69,13.73Z"/><path class="cls-1" d="M2.11,14H2.4c.09.11.09.11,0,.19l-.11-.08s0,0,0,0-.05.05-.09,0,0,0,0-.08A.4.4,0,0,0,2.11,14Z"/><path class="cls-1" d="M1.64,5.34H1.8a.11.11,0,0,1,.07.12c0,.07,0,.09-.11.09s-.05,0-.14-.06A.41.41,0,0,0,1.64,5.34Z"/><path class="cls-1" d="M17.89,5.49c.11-.07.11-.07.24,0v.1c-.11.08-.11.08-.24,0Z"/><path class="cls-1" d="M.67,6.5l.15-.06c.12,0,.15.11.24.17l-.15,0C.81,6.63.77,6.55.67,6.5Z"/><path class="cls-1" d="M1.22,7.66l-.17-.14s.1-.06.1-.11,0-.06.07,0,0,0,0,0a.33.33,0,0,1,0,.24Z"/><path class="cls-1" d="M1,10.91c.09,0,.13.1.21.14s-.12,0-.17,0L.87,11c-.07-.05-.07-.06,0-.08Z"/><path class="cls-1" d="M.81,11v.15a.14.14,0,0,1-.14,0c-.08,0-.1,0-.1-.09s0,0,.06-.12Z"/><path class="cls-1" d="M14.94,14.75h.11l.13-.1c.07.11.07.11,0,.19h-.23s0,0,0,0S14.88,14.76,14.94,14.75Z"/><path class="cls-1" d="M11.8,16v.3s0,0,0,0,0,0-.08,0V16l0,0S11.77,16,11.8,16Z"/><path class="cls-1" d="M6.7,17.06c-.08,0-.09-.11,0-.17a1.06,1.06,0,0,1,.15-.15c.08.06.09.11,0,.18A1,1,0,0,1,6.7,17.06Z"/><path class="cls-1" d="M13.44.48a.43.43,0,0,1-.16,0s0,0-.07,0L13.37.3s.06,0,.06,0S13.44.44,13.44.48Z"/><path class="cls-1" d="M13.8.44a.15.15,0,0,1,.24,0l-.12.1s-.06,0-.08,0-.05,0,0-.09Z"/><path class="cls-1" d="M11.91.79a.86.86,0,0,1-.16,0s0,0-.07-.05L11.84.6s.06,0,.06.06S11.91.75,11.91.79Z"/><path class="cls-1" d="M9.38,1,9.21.86c0-.1.1-.06.17-.07S9.45.93,9.38,1Z"/><path class="cls-1" d="M4.24,2.46c.11-.07.11-.07.23,0s0,.13-.08.14Z"/><path class="cls-1" d="M16.52,3.22c.06,0,.11,0,.11.07a1.76,1.76,0,0,1,0,.23c-.06,0-.11,0-.11-.07Z"/><path class="cls-1" d="M2,4.74V4.5s0,0,.07,0,0,0,0,0a.37.37,0,0,1,0,.23S2,4.74,2,4.74Z"/><path class="cls-1" d="M18.65,7.46c.09.06.07.13,0,.2l-.12-.1s-.05,0,0-.07a.09.09,0,0,1,.1,0Z"/><path class="cls-1" d="M1.17,7.36H1s0,0-.06-.06l.15-.13s.06,0,.06.06A.2.2,0,0,1,1.17,7.36Z"/><path class="cls-1" d="M.74,8l.17.14c0,.1-.1.06-.17.07A.14.14,0,0,1,.74,8Z"/><path class="cls-1" d="M18.29,8.83c0-.05,0-.11,0-.13s.07,0,.11.07l0,0,0,0A.15.15,0,0,1,18.29,8.83Z"/><path class="cls-1" d="M1.31,11.83c0-.14-.08-.24,0-.32s0,.1.07.17A.17.17,0,0,1,1.31,11.83Z"/><path class="cls-1" d="M.51,12.21c-.07-.09-.07-.09,0-.19s.16,0,.17.06A1.09,1.09,0,0,1,.51,12.21Z"/><path class="cls-1" d="M2.67,15.5c-.08.08-.15.07-.24,0a.58.58,0,0,0,.12-.1s.06,0,.08,0,.05,0,0,.09Z"/><path class="cls-1" d="M2.35,13.63s0,0-.05,0l-.11.1s-.06,0-.07-.05a.66.66,0,0,1,0-.14h.24A.25.25,0,0,0,2.35,13.63Z"/><path class="cls-1" d="M2.22,13.88c0,.06-.12.07-.11.16s0,0,0,0A.11.11,0,0,1,2,13.87s.09,0,.14,0Z"/><path class="cls-1" d="M2.7,14.59a.16.16,0,0,1,.24,0l-.13.1s-.05.05-.08,0,0,0,0-.08S2.7,14.6,2.7,14.59Z"/><path class="cls-1" d="M3.52,14.84a.07.07,0,0,1,0,.09.62.62,0,0,1-.27,0l0,0s0-.05.06-.05A.92.92,0,0,1,3.52,14.84Z"/><path class="cls-1" d="M3.18,15.5a.15.15,0,0,1-.24,0l.12-.1s.06,0,.08,0,0,0,0,.09S3.18,15.48,3.18,15.5Z"/><path class="cls-1" d="M14.63,15.44a.07.07,0,0,1,0,.09s-.1.06-.08.12-.11,0-.11-.07,0-.12.11-.12A.25.25,0,0,1,14.63,15.44Z"/><path class="cls-1" d="M6.53,16c.09.06.09.13,0,.2l-.11-.1s0-.05,0-.07a.09.09,0,0,1,.1,0S6.52,16,6.53,16Z"/><path class="cls-1" d="M11.33,16.46h-.17c-.1-.08-.09-.09,0-.19C11.28,16.37,11.29,16.37,11.33,16.46Z"/><path class="cls-1" d="M11.56,16.56c0,.07,0,.1-.09.1s-.14,0-.14-.1v-.1c.07,0,.1,0,.14.06A.07.07,0,0,0,11.56,16.56Z"/><path class="cls-1" d="M14.4,17.88c-.1,0-.1,0-.22-.17.12-.05.13-.05.22,0Z"/><path class="cls-1" d="M14.29,18c0-.05.12-.07.11-.15s0,0,0,0a.11.11,0,0,1,.05.16.13.13,0,0,1-.14,0A.13.13,0,0,1,14.29,18Z"/><path class="cls-1" d="M15,18.69l0,0s0,0-.06.06H14.8l0,0s0,0,.05-.06Z"/><path class="cls-1" d="M11.35,17.36s.06,0,0,.06l0,0h-.23s0-.05,0-.07l0,0Z"/><path class="cls-1" d="M10.32.59c-.09-.06-.09-.13,0-.2A.11.11,0,0,1,10.32.59Z"/><path class="cls-1" d="M14.4.59h-.11a.38.38,0,0,1,0-.15s.05,0,.07,0,0,0,0,0Z"/><path class="cls-1" d="M14,.9a.86.86,0,0,1-.16,0,.09.09,0,0,1-.07-.06.1.1,0,0,1,.09,0l.1,0S14.06.86,14,.9Z"/><path class="cls-1" d="M15.69,1.8a.07.07,0,0,1,0,.09s-.08,0-.08-.09v0l0,0s.05,0,.08,0S15.69,1.79,15.69,1.8Z"/><path class="cls-1" d="M15.68,2.08a.15.15,0,0,1-.2,0s0,0,0,0a.15.15,0,0,1,.2,0Z"/><path class="cls-1" d="M5,2.51c-.07,0-.13,0-.1-.06s.05-.05.1,0H5s.07,0,0,.06,0,0,0,0Z"/><path class="cls-1" d="M16.87,3.17a.16.16,0,0,1,.25,0A.17.17,0,0,1,16.87,3.17Z"/><path class="cls-1" d="M2.58,3.52a.09.09,0,0,1,.1,0s0,.08-.1.08H2.53l0,0s0,0,0-.06Z"/><path class="cls-1" d="M1.88,3.82a.65.65,0,0,1,0-.14s.05-.05.06-.05A.06.06,0,0,1,2,3.7a.24.24,0,0,1,0,.09S1.92,3.83,1.88,3.82Z"/><path class="cls-1" d="M2.35,4.23c0,.06,0,.11-.08.08s0,0,0-.08V4.18s0,0,.07,0l0,0Z"/><path class="cls-1" d="M1.52,4.43c-.07,0-.13,0-.1-.06a.09.09,0,0,1,.1,0h.05s.07,0,0,.06,0,0,0,0Z"/><path class="cls-1" d="M1.64,5.34H1.47a.1.1,0,0,1-.06,0s.05,0,.09,0l.1,0A.06.06,0,0,1,1.64,5.34Z"/><path class="cls-1" d="M.41,6.14h0A.11.11,0,0,1,.37,6h0s0,0,0,0V6.1S.43,6.13.41,6.14Z"/><path class="cls-1" d="M18.71,8.54a.16.16,0,0,1-.24,0Q18.6,8.42,18.71,8.54Z"/><path class="cls-1" d="M.94,9.18a.11.11,0,0,1-.11,0A.15.15,0,0,1,.83,9,.09.09,0,0,1,.94,9Z"/><path class="cls-1" d="M18.33,10h0a.1.1,0,0,1,0-.16h0l0,0V10Z"/><path class="cls-1" d="M.58,11.76a.15.15,0,0,1,.24,0A.16.16,0,0,1,.58,11.76Z"/><path class="cls-1" d="M16.76,12h.16a.1.1,0,0,1,.07.05.09.09,0,0,1-.09,0s-.06,0-.1,0S16.75,12.05,16.76,12Z"/><path class="cls-1" d="M1.28,12.52a.66.66,0,0,1,0,.14s-.05.06-.06.06a.07.07,0,0,1-.05-.08.37.37,0,0,1,0-.09S1.24,12.51,1.28,12.52Z"/><path class="cls-1" d="M16.29,13.43c-.12,0-.14-.06-.1-.17l0,0h0l0,0Z"/><path class="cls-1" d="M16.4,13.43a.75.75,0,0,1,0-.15s.05,0,.07,0a.08.08,0,0,1,.05.08s0,0,0,.08S16.44,13.44,16.4,13.43Z"/><path class="cls-1" d="M2.11,13.52c-.12,0-.14,0-.1-.16l0,0h0l0,0Z"/><path class="cls-1" d="M2.78,16.06a.86.86,0,0,1-.16,0s-.07,0-.07-.06a.11.11,0,0,1,.09,0l.11,0S2.8,16,2.78,16.06Z"/><path class="cls-1" d="M16.22,14.54q.13.09,0,.21Q16.09,14.63,16.22,14.54Z"/><path class="cls-1" d="M15,15.13h0a.11.11,0,0,1,0-.17h0l0,0v.1Z"/><path class="cls-1" d="M14.63,15.44c0-.09.06-.12.19-.08l0,0v0l0,0A.54.54,0,0,1,14.63,15.44Z"/><path class="cls-1" d="M15.39,15.55c.09.07.09.13,0,.21C15.32,15.68,15.32,15.62,15.39,15.55Z"/><path class="cls-1" d="M11,16.46s0,.06,0,.09-.07,0-.07-.09v0l0,0s0,0,.08,0Z"/><path class="cls-1" d="M14.27,17.17a.09.09,0,0,1,.1,0s0,.07-.1.07h0l0,0s0,0,0-.06S14.26,17.17,14.27,17.17Z"/><path class="cls-1" d="M14.74,18a1,1,0,0,1,.17,0A.08.08,0,0,1,15,18s-.05,0-.09,0l-.1,0A.05.05,0,0,1,14.74,18Z"/><path class="cls-1" d="M14.59,18.81a.09.09,0,0,1,0,.16s0,0,0,0-.06-.13,0-.16S14.58,18.81,14.59,18.81Z"/><path class="cls-1" d="M14.41,18.59a.17.17,0,0,1-.25,0A.16.16,0,0,1,14.41,18.59Z"/><path class="cls-1" d="M11.77,17.61a.16.16,0,0,1-.24,0A.15.15,0,0,1,11.77,17.61Z"/><path class="cls-1" d="M6.36,16.56c-.09-.07-.09-.13,0-.21C6.44,16.43,6.44,16.49,6.36,16.56Z"/><path class="cls-1" d="M13.41.07a.07.07,0,0,1-.08,0l0,0s.05,0,.07,0Z"/><path class="cls-1" d="M13.92.19c0-.08,0-.09.11-.1S14,.17,13.92.19Z"/><path class="cls-1" d="M13.92.23s0,0,0,0h0s-.05-.05,0-.07,0,0,.09,0A0,0,0,0,1,13.92.23Z"/><path class="cls-1" d="M11.67.34s-.05,0-.07,0l0,0a.06.06,0,0,1,.07,0S11.66.33,11.67.34Z"/><path class="cls-1" d="M15.65.47s-.05,0-.08,0l0,0s.05,0,.08,0Z"/><path class="cls-1" d="M13.56.55l0,0a.09.09,0,0,1-.06,0s0-.07,0,0S13.55.53,13.56.55Z"/><path class="cls-1" d="M12.56.69s0,0,0,0,0,0,0,0,.05-.05.08,0,.05.05,0,.08Z"/><path class="cls-1" d="M15,.69c-.09,0-.11,0-.12-.1S15,.62,15,.69Z"/><path class="cls-1" d="M15.18.6s0,0,0,0,0,0-.05,0-.08,0-.06,0S15.15.62,15.18.6Z"/><path class="cls-1" d="M16.33.67l0,0s.05-.05.07,0l0,0A0,0,0,0,1,16.33.67Z"/><path class="cls-1" d="M8,.76l0,0s0,0,0-.07l0,0S8,.74,8,.76Z"/><path class="cls-1" d="M10.64.76s0-.05,0-.07l0,0s0,.05,0,.07S10.65.77,10.64.76Z"/><path class="cls-1" d="M12.73.76l0,0s0,0-.06,0,0-.07,0-.05S12.72.74,12.73.76Z"/><path class="cls-1" d="M13.35.76s0-.05,0-.07l0,0s0,.05,0,.07Z"/><path class="cls-1" d="M15.1.69c0,.08,0,.1-.08.09a.06.06,0,0,1,0-.09Z"/><path class="cls-1" d="M15.36.76s0-.05,0-.07l0,0s0,.05,0,.07Z"/><path class="cls-1" d="M13.18.88s0,0-.08,0l0,0a.06.06,0,0,1,.07,0Z"/><path class="cls-1" d="M9,1S9,1,9,.94l0,0a.06.06,0,0,1,.07,0S9.06,1,9,1Z"/><path class="cls-1" d="M10.13,1l0,0S10,1,10.05.93l0,0S10.14.94,10.13,1Z"/><path class="cls-1" d="M11.07,1l0,0S11,1,11,.93l0,0S11.08.94,11.07,1Z"/><path class="cls-1" d="M11.75.91l0,0s0,.06,0,.06-.08,0-.06-.05Z"/><path class="cls-1" d="M7.57,1.06s0,0,0-.06l0,0s0,0,0,.07S7.58,1.07,7.57,1.06Z"/><path class="cls-1" d="M8.83,1.16l0,0s0,0,0-.06l0,0S8.84,1.14,8.83,1.16Z"/><path class="cls-1" d="M15.24,1.16s0,0,0-.06l0,0s0,0,0,.06Z"/><path class="cls-1" d="M15.53,1.12l0,0a.06.06,0,0,1-.07,0l0,0A.06.06,0,0,1,15.53,1.12Z"/><path class="cls-1" d="M15,1.22l0,0s-.05,0-.08,0l0,0S14.92,1.2,15,1.22Z"/><path class="cls-1" d="M6.93,1.37l0,0s0,0,0-.06l0,0S6.94,1.35,6.93,1.37Z"/><path class="cls-1" d="M15.18,1.31l0,0s-.05,0-.08,0l0,0S15.15,1.3,15.18,1.31Z"/><path class="cls-1" d="M15.79,1.56l0,0s-.05-.05,0-.07l0,0S15.8,1.54,15.79,1.56Z"/><path class="cls-1" d="M15.42,1.68s-.05,0-.08,0l0,0s0,0,.08,0Z"/><path class="cls-1" d="M15,1.9c0-.07,0-.1.07-.08s0,0,0,.08Z"/><path class="cls-1" d="M6.8,2s0,0-.08,0l0,0s0,0,.08,0Z"/><path class="cls-1" d="M15.76,2.22l0,0s0,.06-.05.06-.07,0-.05-.05S15.74,2.23,15.76,2.22Z"/><path class="cls-1" d="M3.91,2.34l0,0s.06,0,0,.06l0,0S3.89,2.36,3.91,2.34Z"/><path class="cls-1" d="M5.32,2.34l0,0s0,0,0,.06l0,0S5.31,2.36,5.32,2.34Z"/><path class="cls-1" d="M16.58,2.71s.05,0,0,.07l0,0s0-.05,0-.07Z"/><path class="cls-1" d="M2.4,2.82s.05,0,0,.06l0,0s0,0,0-.07Z"/><path class="cls-1" d="M3.22,2.83a.06.06,0,0,1,.07,0l0,0s0,0-.08,0Z"/><path class="cls-1" d="M2.13,3l0,0s.05,0,0,.06l0,0S2.12,3,2.13,3Z"/><path class="cls-1" d="M3.88,3A.07.07,0,0,1,3.8,3l0,0a.06.06,0,0,1,.07,0Z"/><path class="cls-1" d="M16.24,2.93l0,0s0,.06-.05.06-.07,0,0,0Z"/><path class="cls-1" d="M2.27,3.41l0,0s0,0,.07,0l0,0A.07.07,0,0,1,2.27,3.41Z"/><path class="cls-1" d="M2.33,3.59l0,0s0,0,0-.07l0,0S2.34,3.56,2.33,3.59Z"/><path class="cls-1" d="M1.88,3.87s0,0,0,0h0s-.05,0,0-.06a.07.07,0,0,1,.09,0S1.88,3.86,1.88,3.87Z"/><path class="cls-1" d="M1.78,4.29s0,0,0-.06l0,0s0,0,0,.07Z"/><path class="cls-1" d="M17.68,4.5l0,0s-.05,0,0-.06l0,0S17.69,4.48,17.68,4.5Z"/><path class="cls-1" d="M2,4.78a.05.05,0,0,1,0,0h0s0,0,0-.07.05,0,.09,0S2,4.76,2,4.78Z"/><path class="cls-1" d="M1.19,5.41s0,0,0-.07l0,0s0,0,0,.07Z"/><path class="cls-1" d="M.37,5.53l0,0a.06.06,0,0,1,.07,0l0,0A.06.06,0,0,1,.37,5.53Z"/><path class="cls-1" d="M.5,5.66s.05,0,.08,0l0,0s-.05,0-.08,0Z"/><path class="cls-1" d="M18.48,10.35l0,0s-.05,0-.08,0l0,0S18.45,10.34,18.48,10.35Z"/><path class="cls-1" d="M18.37,10.55l0,0a.06.06,0,0,1-.07,0l0,0S18.34,10.53,18.37,10.55Z"/><path class="cls-1" d="M1.5,6.08s0,0,0,.07l0,0s0,0,0-.06Z"/><path class="cls-1" d="M18.4,9.19s0,.05,0,.07l0,0s0-.05,0-.07S18.38,9.18,18.4,9.19Z"/><path class="cls-1" d="M.58,7.21s0,0-.08,0l0,0s0,0,.08,0Z"/><path class="cls-1" d="M.8,7.44l0,0s-.05,0,0-.07l0,0S.81,7.4.8,7.44Z"/><path class="cls-1" d="M.44,7.73l0,0s-.05,0,0-.06l0,0S.45,7.71.44,7.73Z"/><path class="cls-1" d="M.08,8.13l0,0s0-.05,0-.07l0,0S.09,8.11.08,8.13Z"/><path class="cls-1" d="M18.43,8.08s0,0,0,.06l0,0s0,0,0-.06S18.42,8.07,18.43,8.08Z"/><path class="cls-1" d="M18.71,8.11s0,0,0-.06l0,0s0,0,0,.06Z"/><path class="cls-1" d="M.48,8.34s0,0,0-.06l0,0s0,0,0,.06Z"/><path class="cls-1" d="M.76,8.47s0,0,0,0a0,0,0,0,1,0,0s.05-.05.07,0,0,0,0,.08S.77,8.48.76,8.47Z"/><path class="cls-1" d="M.92,8.54s0,0,0,0-.05,0-.06,0,0-.07.05,0S.9,8.52.92,8.54Z"/><path class="cls-1" d="M.53,9.89s0,0,0,0,0,0,0,0,.05,0,.07,0,0,0,0,.08Z"/><path class="cls-1" d="M.58,10v-.1c.09,0,.1,0,.11.1Z"/><path class="cls-1" d="M.58,10s0,0,0,0a0,0,0,0,1,0,0s0-.05,0-.07a.07.07,0,0,1,.09,0A.06.06,0,0,1,.58,10Z"/><path class="cls-1" d="M17.84,10.36s0,0,0-.07l0,0s0,0,0,.06Z"/><path class="cls-1" d="M17.7,10.49h-.11c0-.08,0-.1.07-.09S17.72,10.46,17.7,10.49Z"/><path class="cls-1" d="M17.8,10.56s0,0,0,0-.07,0-.07,0,0-.07.05-.05S17.79,10.53,17.8,10.56Z"/><path class="cls-1" d="M17.8,10.76l0,0s-.05-.05,0-.07l0,0S17.82,10.74,17.8,10.76Z"/><path class="cls-1" d="M.44,10.86l0,0s-.05,0,0-.06l0,0S.45,10.84.44,10.86Z"/><path class="cls-1" d="M17.69,11l0,0s-.06,0-.06,0,0-.07.05,0Z"/><path class="cls-1" d="M.26,11.19l0,0s.05-.05.08,0l0,0S.29,11.2.26,11.19Z"/><path class="cls-1" d="M.55,11.44s0,0,0,.07l0,0s0,0,0-.06S.54,11.43.55,11.44Z"/><path class="cls-1" d="M1,11.64l0,0s.05.05,0,.07l0,0S.94,11.67,1,11.64Z"/><path class="cls-1" d="M.41,11.9a.06.06,0,0,1-.07,0l0,0a.06.06,0,0,1,.08,0Z"/><path class="cls-1" d="M17.1,11.87s0,0,0,0,0,0-.06-.05,0-.06.05,0Z"/><path class="cls-1" d="M.77,12.5s-.05,0-.08,0l0,0s.05,0,.08,0Z"/><path class="cls-1" d="M17.09,12.49l0,0s-.05,0,0-.07l0,0A.05.05,0,0,1,17.09,12.49Z"/><path class="cls-1" d="M16.27,13.09s0,0,0,0-.07,0-.07,0,0-.07,0-.05S16.26,13.07,16.27,13.09Z"/><path class="cls-1" d="M17.15,13.11l0,0s.05-.05.07,0l0,0A.07.07,0,0,1,17.15,13.11Z"/><path class="cls-1" d="M16.73,13.26s0,.05,0,.07l0,0s0,0,0-.06S16.72,13.25,16.73,13.26Z"/><path class="cls-1" d="M16.29,13.43h.11c0,.07,0,.09-.07.08S16.27,13.47,16.29,13.43Z"/><path class="cls-1" d="M16.68,13.51l0,0s.06,0,.08,0l0,0S16.71,13.52,16.68,13.51Z"/><path class="cls-1" d="M2.78,15.71a.06.06,0,0,1-.07,0l0,0s.05-.05.08,0Z"/><path class="cls-1" d="M2.35,15.94l0,0s0,0,.08,0l0,0A.06.06,0,0,1,2.35,15.94Z"/><path class="cls-1" d="M2.9,16.12s0,0,0,0-.06,0-.06-.05,0-.06.05,0S2.89,16.1,2.9,16.12Z"/><path class="cls-1" d="M15.29,14.33l0,0a0,0,0,0,1,0,0s0,0,.08,0,0,0,0,.08S15.31,14.34,15.29,14.33Z"/><path class="cls-1" d="M2.31,14.42a.06.06,0,0,1-.07,0l0,0a.06.06,0,0,1,.08,0Z"/><path class="cls-1" d="M15.45,14.4l0,0-.07,0c0-.05,0-.07.05-.05S15.43,14.38,15.45,14.4Z"/><path class="cls-1" d="M2.57,14.47s0,0,0,.07l0,0s0,0,0-.07Z"/><path class="cls-1" d="M15.31,15a.07.07,0,0,1-.08,0l0,0s.05,0,.07,0Z"/><path class="cls-1" d="M3.6,15.05l0,0s0,.06-.05.06-.08,0,0,0S3.57,15.06,3.6,15.05Z"/><path class="cls-1" d="M3.41,15.25c0-.08,0-.09.11-.1S3.5,15.24,3.41,15.25Z"/><path class="cls-1" d="M3.41,15.29s0,0,0,0,0,0,0,0-.05-.05,0-.07a.07.07,0,0,1,.09,0S3.41,15.28,3.41,15.29Z"/><path class="cls-1" d="M3.88,15.29s0,0,0,0,0,0,0,0,0-.05,0-.07a.07.07,0,0,1,.09,0S3.88,15.28,3.88,15.29Z"/><path class="cls-1" d="M3.84,15.75s0,0,0-.06l0,0s0,0,0,.06Z"/><path class="cls-1" d="M12.16,16s-.06,0-.08,0l0,0s.05,0,.08,0A.07.07,0,0,0,12.16,16Z"/><path class="cls-1" d="M15.2,16l0,0s-.06,0,0-.07l0,0S15.22,16,15.2,16Z"/><path class="cls-1" d="M6,16.27l0,0s0,0-.08,0l0,0S6,16.26,6,16.27Z"/><path class="cls-1" d="M15.2,16.3s0,0,0,.06l0,0s0,0,0-.07S15.19,16.28,15.2,16.3Z"/><path class="cls-1" d="M7,16a.05.05,0,0,1,0,0,0,0,0,0,1,0,0s0,0,.07,0,0,0,0,.07S7.05,16,7,16Z"/><path class="cls-1" d="M7.19,16.1l0,0s-.06,0-.07,0,0-.07,0,0S7.18,16.08,7.19,16.1Z"/><path class="cls-1" d="M11.63,16.47s0,0,0,0,0,.05-.05.06-.08,0,0,0S11.61,16.48,11.63,16.47Z"/><path class="cls-1" d="M15,16.48a.07.07,0,0,1,.08,0l0,0s-.05,0-.07,0S15,16.49,15,16.48Z"/><path class="cls-1" d="M14.73,16.59s0,0,0,.07l0,0s0,0,0-.06Z"/><path class="cls-1" d="M9.85,16.86a.05.05,0,0,1,0,0,0,0,0,0,1,0,0s0-.05.07,0,.05,0,0,.07Z"/><path class="cls-1" d="M11.45,17s0-.05,0-.07l0,0s0,.05,0,.07S11.48,17.05,11.45,17Z"/><path class="cls-1" d="M10.65,17.08s0,0,.08,0l0,0s0,0-.08,0Z"/><path class="cls-1" d="M14.4,17.42s-.05,0-.08,0l0,0a.06.06,0,0,1,.07,0A.07.07,0,0,0,14.4,17.42Z"/><path class="cls-1" d="M15.18,17.45s0,0-.08,0l0,0s0,0,.08,0Z"/><path class="cls-1" d="M4,16.22s0,0,0-.06l0,0s0,0,0,.06Z"/><path class="cls-1" d="M9.77,17.19l0,0s-.05,0,0-.06l0,0S9.78,17.17,9.77,17.19Z"/><path class="cls-1" d="M14.67,17.76l0,0s0-.05.08,0l0,0A.06.06,0,0,1,14.67,17.76Z"/><path class="cls-1" d="M14.26,18.25l0,0s-.05,0,0-.06l0,0A.05.05,0,0,1,14.26,18.25Z"/><path class="cls-1" d="M14.73,18.31s0,.05,0,.07l0,0s0-.05,0-.07Z"/><path class="cls-1" d="M3.56,16s0,0,.08,0l0,0s-.05,0-.08,0Z"/><path class="cls-1" d="M9.35,18a.07.07,0,0,1-.08,0l0,0s0,0,.07,0S9.36,18,9.35,18Z"/><path class="cls-1" d="M12,17.31l0,0s-.05-.05,0-.07l0,0S12,17.29,12,17.31Z"/><path class="cls-1" d="M14.13,19.36l0,0s-.05,0,0-.06l0,0C14.15,19.31,14.15,19.33,14.13,19.36Z"/><path class="cls-1" d="M9.54,18.19l0,0a.06.06,0,0,1,.07,0l0,0A.05.05,0,0,1,9.54,18.19Z"/><path class="cls-1" d="M9.6,18.44s0,0,0,.06l0,0s0,0,0-.07Z"/><path class="cls-1" d="M9.89,18.59l0,0s.05,0,.07,0l0,0S9.92,18.6,9.89,18.59Z"/><path class="cls-1" d="M9.48,20.32s0,0,.07,0l0,0s0,0-.08,0Z"/><path class="cls-1" d="M14.69,18s0,0,0,0,0,0,0,0,0,0,.08,0,0,0,0,.08S14.71,18,14.69,18Z"/></svg>