<svg id="Layer_1" data-name="Layer 1" xmlns="http://www.w3.org/2000/svg" viewBox="0 0 254 239"><defs><style>.cls-1{fill:#f4decc;}</style></defs><path class="cls-1" d="M226.37,127.67c.46-.92.62-1.53,1.08-1.53,1.38-.14,2.76-.14,3.83-.28,1.38.31.29,2.26,2.44,1.19,0,0-.46-1,0-1.48,1.22.47.62-.45,2,0,.62-.61-1.53-.87-.91-1.48a5.44,5.44,0,0,1,.4-1.48c.31-.76-3.29-2.44-2.52-2.29,1.22,0-1.62-3.65-.39-3.64.46,0,1,1.19,1.47,1.19.3-.31.61-.61,1.07-1.07.77,0-4.1-4.57-2.88-4.57.31.31.92.78,1.38,1.24,1.38-.3.16-2.3,2-2.75.15,0,3.11-1.18,2.47-3.76-.66-.68,2.51-2.32-.74-4a5.08,5.08,0,0,0-6.29,1.65c-.46.31-.92.77-1.54,1.23-.3-.31-.76-.47-.76-.78a10.32,10.32,0,0,1,0-2.15,1.27,1.27,0,0,0-.76-1.23l-2.91,0c-1.22.46-.16,2.31-1.54,2.76-.16-.15-.46-.31-.46-.46-.15-1.39-.14-2.77-.28-4.15.46-.61.92-1.07,1.38-1.68a4.68,4.68,0,0,1,.16-1.39,12.46,12.46,0,0,0,1.39-1.53c-.45-1.23-2.3-.16-2.75-1.55l.46-.45a2.38,2.38,0,0,0,.62-.92,1,1,0,0,0-1.07-.62,1,1,0,0,1-1.22-.47c-.15-.31,0-.61.46-1.07.62-.46.77-1.07.63-2.3-.92-.62-2-1.4-2.75-2,0-2.15,0-3.53,0-4.91.31-.61.77-.77,1.07-.46l1.68,1.7c0,.46.14,1.23.14,1.85s-.3-.93.46-.46c.47-.46.62,0,1.08-.46.61,0,.92.42,1.53-.5a17.91,17.91,0,0,1-1.52-1.8c.62-.61-1.67-2.31-1.06-2.93.92,0,2.29-1.19,3.36-1.18-3.35-2.89-4.56-2.71-4-2.24-.92-.7-1.37-2.23,1.39-2.22.46.47-.11-.74-1.37-1.48.92,0-2.84-1.5-1.92-1.49,1.24-1.94,4.18,2.24,3.46,0-.46.31.92-1.19.31-.73-.77,0,.11-2.22-.81-2.23-.61.46-1.47-1.5-2.08-.89-1.38,0,.77-2-.61-2-.45-.46-1.25.46-1.71,0-2.3,0,2.95-2,.65-2-.61-.46-1.84.6-2.45,0-3.37,0-.93,2-4.15,2-.91-.46-.6-1.23-.75-2A15.23,15.23,0,0,0,214,59.86c.15-.15,0-.46,0-.77h-2.14a15.25,15.25,0,0,1-1.54,1.38A9.64,9.64,0,0,0,209,59.22a15.17,15.17,0,0,0-1.53,1.37c-1.84-.16-2-.16-2-2,.92-.92,1.84-2,2.77-2.91.15-.15,0-.46,0-.61h-2.14a24.83,24.83,0,0,0-2-2,7.2,7.2,0,0,0-.91-2.16l-.93.92c-.3.31-.61.15-1.06-.31a5.07,5.07,0,0,0-1.07-.78c-.77,0-1.69-.16-1.68-.77s1.07-.61,1.68-.76c.31,0,.93-.61.77-.77a1,1,0,0,0-1.06-.62c-1.38-.16-1.38-.31-1.53-1.69,0-.16-.15-.47-.15-.62l-2-2c-.15-.15-.46,0-.61,0a1,1,0,0,1-.47,1.23c-.46.3-.76-.16-.91-1.55v.31a1,1,0,0,1-1.07-.31c-.3-.31-.3-.62.31-.92.16,0,.31.15.46.15a1.68,1.68,0,0,1,.46.78,2.28,2.28,0,0,0,1.37.31,8.36,8.36,0,0,0,0-2c0-.3-.6-.77-.91-.77a25.27,25.27,0,0,0-3.37,0,1,1,0,0,1-.47,1.23c-.46.3-.76-.16-.91-1.24h-2.14c-.61-.61-1.22-1.39-2-2.16,0-1.23,0-2.61,0-3.84a5.12,5.12,0,0,0-2.44-2.32c-1.08.92-.17,2.31-.63,3.23a14.48,14.48,0,0,1,1.52,1.69c0,.47,0,.93,0,1.39-1.23,1.07-2.31,2.29-3.54,3.36-.3-.31-.76-.62-.76-.93-.14-2.3-.13-4.61-.11-6.91,0-.16-.31-.31-.46-.46A14.31,14.31,0,0,1,178,35.09c-.15.15-.46,0-.61,0a1,1,0,0,1-.47,1.22c-.46.31-.76-.16-.91-1.23h-1.38c0,.62,0,1.38,0,2,0,.15-.16.3-.31.46s-.31.3-.46.15-.46-.31-.46-.46c-.45-1.54-.14-2,1.24-2.3a1,1,0,0,0-.45-1.23c-.77-.47-1.84,0-2.29-1.09V31.37a11.1,11.1,0,0,0,1.24-1.53c-.46-.92-1.23-.62-2.14-.63-.62.62-1.24,1.38-2.16,2.3-.31.61.45,1.84-.32,2.91-.16.16-.31.31-.46.31a.68.68,0,0,1-.46-.46,4.91,4.91,0,0,1-.15-1.54,26.27,26.27,0,0,1-1.82-2c-1.38-.47-2.76-.17-4.14-.33a7.31,7.31,0,0,1-2.28-2c-.3-.92-.46-1.54-.76-2.31-1.07,1.07-2.15,2-3.08,2.91l-2.43-2.47A.67.67,0,0,0,152,27c-.16.15,0,.46,0,.77a1,1,0,0,1-.46,1.23c-.47.15-.92-.47-.92-1.39s0-1.38,0-2.15a4.14,4.14,0,0,0-.14-1.39l-2-2c-1.38.76-.47,2.15-.78,3.22-.31.3-.47.76-.78,1.07-1.07,1.22-2.31,2.29-3.54,3.51-.46.46-.61.62-1.07.46a1,1,0,0,1-.46-1.23c0-.16,0-.46,0-.62a3.69,3.69,0,0,0,1.54-2.91l1.08-1.07a4.63,4.63,0,0,0,0-3.22c-.15-.16-.3-.62-.46-.62l-3.52,0c0,.46,0,.92,0,1.38a1,1,0,0,1-.46,1.23c-.31.15-.61-.16-1.07-.62l-.46-.46c-1.53.3-.32,2.15-1.54,2.6a14.12,14.12,0,0,0-1.53-1.39l-6.28,0a1,1,0,0,1-.46,1.22,1.94,1.94,0,0,1-1.84,0,1,1,0,0,1-.45-1.23c-.16,0-.46-.15-.62,0a25.57,25.57,0,0,0-2.15,2.14c-.16.15,0,.46,0,.61h2c.91.93.91.93.75,1.7,0,.92-.31,1.07-1.23,1.22a1.8,1.8,0,0,1-1.68-.78c0-.61,0-1.38,0-2-.31,0-.61.15-.77,0a13.09,13.09,0,0,0-1.52-1.39c-.77.76-1.39,1.37-2,2a14.31,14.31,0,0,1,1.37,1.54,1.45,1.45,0,0,1-2.3.29A4.88,4.88,0,0,0,116,27.38c-.61,0-1.07-.77-.91-1.54a1.27,1.27,0,0,0-.76-1.23l-4,0a.68.68,0,0,0-.62.92c0,.15.3.31.46.46H113c.92,1.08.92,1.08.59,3.85-.3.61-.76.61-.91,0-.16-.46,0-.92-.3-1.38-.15-.31-.61-.93-.76-.93a1,1,0,0,0-.62,1.07c-.32,1.69-.32,1.69-1.54,1.69h-2l-.61-.62c-1.22-1.08-1.68-1.09-2.91-.17-.46.3-.62.61-1.08.45-.46-.31-.45-.77-.45-1.23,0-.92-.3-1.23-1.22-1.39a1.46,1.46,0,0,0-1.69.92c-.15.46,0,.92-.16,1.38,0,.15-.31.3-.46.61l-2.91,0a5.65,5.65,0,0,1-1.37-1.39c-1.23.46-.32,2.31-1.55,2.76H91.63c-1.22-.62-.14-2.3-1.51-2.77l-3.55,3.51c0,.77,0,1.39,0,2.16a.78.78,0,0,1,1.07.46c.77-.15.77.31.76.62a1,1,0,0,1-.61,1.07c-.16,0-.77-.46-.77-.77a8.36,8.36,0,0,1,0-2c-.31,0-.62.15-.77,0a14,14,0,0,1-1.52-1.39l-4.29,0c-.16.15-.62.45-.47.45.31.31.46.77.77.78a10.85,10.85,0,0,0,2.14,0,1,1,0,0,1,1.07.62c-.16,1.07.45,2.3-.48,3.37-1.37-.46-2-1.7-3-2.62a13.31,13.31,0,0,1-1.54,1.37H76.75c0,.61,0,1.38,0,2,0,.15-.16.3-.31.46s-.31.3-.46.15-.46-.31-.46-.47c-.45-1.54-.14-2,1.24-2.29.16-.62,0-1.08-.45-1.24-1.07-.31-2.3-.47-2.9-1.7h-2c-.46,0-.92,0-1.23.45A1.66,1.66,0,0,0,70,35.59c.77.92,1.68,1.69,2.44,2.62-.31.31-.46.77-.77.76a15,15,0,0,1-2.6,0c-.61-.46-.91-1.39-1.68-1.24-.92.3-.47,1.23-.47,1.84.46.47.91,1.08,1.37,1.55l-2,2A2.72,2.72,0,0,1,65.54,42a10.32,10.32,0,0,1,0-2.15c0-.3-.46-.61-.76-1.08l-2,2a4.35,4.35,0,0,1-.16,1.38,14.12,14.12,0,0,0-1.39,1.53,3,3,0,0,0,.45,1.38c.15.47-.3.31-.46,0-.3-.61,0-.92.62-.61a1.51,1.51,0,0,1,.61.77s-.31.46-.77-.16-.91-.46-1.07-.62l-1.37-1.39c-.46.46-1.07.92-1.38,1.23A14.9,14.9,0,0,1,56.34,43c-1.07,1.07-.32,2.3-.63,3.53a22.68,22.68,0,0,1-2,1.83c-.92-.31-1.37-1.85-2.9-1.24l-1.39,1.37a15.06,15.06,0,0,0-1.52-1.39c-.62,0-1.53-.31-1.84.61-.16.61.6.92,1.06,1.54-.31,1.38-2.15.29-2.77,1.52V52.5c.91.77,2,1.55,2.74,2.32a5.32,5.32,0,0,1-.16,1.69A11.1,11.1,0,0,0,45.69,58l2,2c.15.16.45,0,.61,0A.8.8,0,0,1,48.75,59c.31-.15.77-.14,1.23-.3a1,1,0,0,1,1.07.62c0,.16-.46.77-.77.77a8.83,8.83,0,0,1-2,0,1.11,1.11,0,0,1-.93,1.37,7.08,7.08,0,0,1-1.84,0c0,.61,0,1.38,0,2,0,.16-.15.31-.31.46s-.3.31-.46.15-.45-.31-.45-.46c-.45-1.54-.15-2,1.23-2.3,0-.31.16-.61,0-.77a23.45,23.45,0,0,0-2-2c-.31.3-.77.45-.77.76a9.59,9.59,0,0,0,0,2.15,1,1,0,0,1-.62,1.07c-.46-.46-1.07-.93-1.53-1.39-1.07.92-.47,2.76-2,3.37.45.46.91,1.08,1.37,1.54l0,2.77c-.46.46-.92,1.07-1.39,1.53l0,6.45c0,.46-.16,1.07-.62,1.07-.15,0-.76-.46-.76-.77-.15-.62,0-1.38-.76-1.85-.61.61-1.23,1.38-1.85,2.14a5.19,5.19,0,0,1,1.07,1.39c-.47,1.38-2.15.3-2.77,1.52,0,.92,0,1.85,0,2.92-.77.61-.77.61-2.14-.63l-1.85,1.84c-.62,1.68,0,3.22-.33,4.6l1.37,1.39c0,1.69.13,3.54,0,5.38,0,.77-.77,1.07-1.54.91a.9.9,0,0,0-.61.16c-.31.3-.61.61-1.08,1.06a4.53,4.53,0,0,1-1.22.31c-.92,0-1.84-.32-2.61.75,0,.46,0,.92,0,1.38.91,1.08,2,1.7,2.59,3.09-.46.76-1.23.45-2,.6-.61.61-1.23,1.38-2,2.14,0,.77,0,1.69,0,2.61-.46.61-.93,1.07-1.39,1.69A13.31,13.31,0,0,1,21.36,112c0,.61,0,1.38,0,2.15h2c.15,0,.31.16.46.31s.3.31.15.46-.31.46-.46.46c-1.54.45-2,.14-2.29-1.24H19.82a1,1,0,0,0-1.23.46c-.15.3.15.61.61,1.07l.45.47a3.93,3.93,0,0,1-1.84,2,9.38,9.38,0,0,1-2.46.9,10.61,10.61,0,0,1,1.37,1.55,10.44,10.44,0,0,0-1.23,1.53c.91.92,1.67,1.7,2.59,2.62-.16.77-.77.92-1.39.92a1.36,1.36,0,0,0-1.22.6,4.42,4.42,0,0,1-.17,1.39c.92.92,1.83,2,2.75,2.93-.47.77-1.23.61-1.85.76a1.4,1.4,0,0,0-.92.91,35.74,35.74,0,0,0,0,4c1.83,1.85,1.83,1.85.75,3.54-.62.14-1.53-.32-1.84.45-.16.61.91.92.91,1.54a8.48,8.48,0,0,1-.18,4.76c-.77.61-1.84.3-2.76.29a1,1,0,0,0-1.08.61c0,.15.61.62.92.77s.92.16,1.38.32c.15,0,.3.31.45.46,0,.77,0,1.38,0,2.15a1.12,1.12,0,0,1,1.37.93,13.48,13.48,0,0,0,.45,2.61c.15.47-.31.31-.46,0-.3-.61,0-.92.62-.61a1.62,1.62,0,0,1,.61.77s-.31.46-.77-.16a13.57,13.57,0,0,0-4.74-.64c0,.62,0,1.39,0,2.31.92.77,2,1.55,2.6,2a13.46,13.46,0,0,0,.6,2.46c.15.46.61.62,1.37.47h-.3a1,1,0,0,1,.31-1.08c.31-.3.61-.3.92.31,0,.16-.16.31-.16.47a1.64,1.64,0,0,1-.77.45,1.75,1.75,0,0,1-.77,1.23c-.77.45-1.84,0-2.3,1.06l0,2.76c.46.47.91,1.08,1.37,1.55,0,.46,0,.92,0,1.38.61.93,1.69.62,2.6.63s1.23.16,1.53.78c-.15.15-.31.46-.46.45a16,16,0,0,1-2.76.14c-.61,0-.92.77-.92,1.53a1.39,1.39,0,0,0,.6,1.24c.46-.46.92-.77,1.39-1.23a4.15,4.15,0,0,1,.76.93,34.61,34.61,0,0,1,0,3.84l-2.16,2.14H12.12c-.16,1.07-.47,1.38-1.08,1.38a16.16,16.16,0,0,0-2.76.29c-.46.15-.62.61-.47,1.22l4.9,0a.68.68,0,0,1,.61.93.69.69,0,0,1-.46.45H11.48c-.31.3-.77.76-.77,1.07,0,1.07-.47,2.3.6,3.23a14.08,14.08,0,0,1,1.53-1.38h1.38c1.08-.46.62-1.69,1.09-2.3a1,1,0,0,1,1.22-.45c0-.62,0-1.39,0-2,0-.15.15-.31.3-.46s.31-.31.46-.15.46.31.46.46c.45,1.54.14,2-1.24,2.3,0,.31-.15.61,0,.77a25.21,25.21,0,0,0,2,2c.46,0,.92.16,1.38.16A13.34,13.34,0,0,1,21.43,186a1.57,1.57,0,0,1,.44,2.31c-.15.46-.76.61-.92,1.07a1.62,1.62,0,0,0,.14,1.84,1.21,1.21,0,0,0,1.23.32,1.61,1.61,0,0,0,.46-.15,8.78,8.78,0,0,1,1.69-1.22c.77-.46,1.68.31,1.83,1.39a1,1,0,0,1,1.22.47c.31.46-.16.76-1.23.91,0,.77,0,1.38,0,2.15a2.83,2.83,0,0,0,1.07.78c.92.15,1.84-.15,2.45.16.76.77,1.52,1.39,2.13,2,0,.77,0,1.54,0,2.15a1,1,0,0,0,1.23-.45c.46-.77-.15-1.85,1.24-2.3h1.07a4.71,4.71,0,0,1,.76,1.07c.14,1.39.14,2.77.28,4.15,0,.16.31.31.46.47a13.34,13.34,0,0,1,1.54-1.38c.15-.15.46,0,.61,0a.8.8,0,0,1,.47-1.08c.3-.15.76-.15,1.22-.3a1,1,0,0,1,1.07.62c0,.16-.46.77-.77.77a8.83,8.83,0,0,1-2,0c0,.46,0,.92,0,1.38a1,1,0,0,0,.46,1.23c.3.16.61,0,.92-.45s.61-.62.92-.46a1,1,0,0,1,.45,1.23v1.38c1.07.16,1.37.47,1.37,1.08a17.24,17.24,0,0,0,.29,2.77c.15.46.61.62,1.22.47,0-.77,0-1.38,0-2.3.31-.31.93-.77,1.39-1.23.15-.15,0-.46,0-.92a2.78,2.78,0,0,1,0,.31,1,1,0,0,1-1.07-.31c-.3-.31-.3-.62.31-.92.16,0,.31.15.46.15a1.69,1.69,0,0,1,.46.77,5.12,5.12,0,0,0,2.14.32c.76.77,1.83,1.39,2.28,2.78-.15.77-.16,1.69-.32,2.45-.15.47-.61.62-1.22.46,0,.77,0,1.38,0,2.15.61.62,1.38,1.24,2.14,2a8.84,8.84,0,0,0,4.44-.13c.46-.15.62-.61.47-1.23H54.05a24.83,24.83,0,0,0-2-2c.47-1.07,1.23-.91,2.3-.6.3,1.08,2,1.24,1.83,2.62h2.14c.15.16.46.31.46.47.15.46.15.92.3,1.38s.45.77.76,1.08c.76.93,1.67,1.7,2.43,2.47.77.16.93-.61,1.54-.91,1.23.16,2.61-1.06,3.52.63-.46.46-.77.92-1.23,1.38.3.31.45.61.61.61l5.66,0c1.23.62.3,2.3,1.52,2.77a5.93,5.93,0,0,1,1.54-1.22l2,2c0,.46,0,.92,0,1.38C79.1,228,79.1,228,81,226.28a5.9,5.9,0,0,0,1.52,1.24c.62-.3.77-.92.78-1.69,0-.3.46-.76.77-1.07l2,2a8.27,8.27,0,0,0,.14,1.69c.62.47,1.38,1.08,2.44,2-.15,0,.16-.31.32-.76.15-.62-.3-1.39.62-1.84a4.9,4.9,0,0,1,1.83,1.7,9.12,9.12,0,0,1,.9,2.46c1.23-.92,1.85-2.14,3.08-2.75.76.46.45,1.23.6,1.85a.7.7,0,0,0,.46.46c.31.15.77,0,.92-.61a17.07,17.07,0,0,0,0-2.77c.92-1.22,2.15-.6,3.37-.59.31,0,.61.46.76.77-.31.31-.77.61-.92,1.07a3.73,3.73,0,0,0-.32,1.23.93.93,0,0,0,.15.61c1.07.62.91,2,1.52,2.93a3.94,3.94,0,0,0,1.83,1.7c.77-.46.62-1.23.62-1.84-.45-.46-.91-1.08-1.37-1.54.93-1.54,2.76,0,3.84-.9,1.23-1.07-.45-2.93,1.09-3.84.91.93,2,1.85,2.89,2.78h1.38c1.22.47,0,2.3,1.52,2.77l2-2c.16-.15,0-.46,0-1.07,0-.15,0,.31,0,.31a1,1,0,0,1-1.07-.32c-.3-.31-.3-.61.32-.92.15,0,.3.16.45.16a1.56,1.56,0,0,1,.46.77c.46.46.92.31,1.07-.15.31-.76.47-1.53.78-2.45.61.62,1.07.93,1.68,1.54a12.53,12.53,0,0,0,2.45,0,1.37,1.37,0,0,0,1.08-1.69v.31a.94.94,0,0,1-1.07-.31c-.31-.31-.3-.62.31-.92.15,0,.3.15.46.15a1.7,1.7,0,0,1,.45.77c.31.31.62.16.77.32,1.06.92,2,2,2.89,2.78,1.84-.15,1.84-.15,2.15-1.22v-.77a1.69,1.69,0,0,1,2.3-.76c.46.31.61.62,1.22,1.09a37.69,37.69,0,0,0,5.82,0c.77-.46.77-.77.16-1.08a11.5,11.5,0,0,1-1.23-.31,2.77,2.77,0,0,1-1.06-.77l3.54-3.52a1.14,1.14,0,0,1,.6,1.54c1.07,1.24,1.68,2,2.29,2.63,1.23-.92.47-2.92,2.16-3.53a5.49,5.49,0,0,1,.16-1.53,22.59,22.59,0,0,0,1.85-2c.92,0,.92,0,.91,1.24,0,.46,0,.92,0,1.38l5.67,0c0-.77,0-1.38,0-2.15,0-.16.31-.31.46-.46h.46c.92.77,1.68,1.7,2.44,2.47a2.63,2.63,0,0,0,.77-1.07,1.63,1.63,0,0,0-.14-1.23c-.77-.92-1.68-1.7-2.44-2.47a4.11,4.11,0,0,1,.92-.76,2.15,2.15,0,0,1,1.38.16c.46.15.61.77,1.07.93a1.61,1.61,0,0,0,1.83,0l1.08-1.07a13.66,13.66,0,0,0,1.53,1.23h1.22c1.08-.45.62-1.53,1.09-2.3a1,1,0,0,1,1.22-.45c0-.46,0-.92,0-1.39,0-1.07.47-1.53,1.54-1.52h1.38c0-.76,0-1.38,0-2.15,0-.15.31-.3.46-.45H170c.92.77,1.68,1.7,2.44,2.47.77-.3.77-.92.78-1.69,0-.46.46-.76.61-1.07a14.12,14.12,0,0,0,1.53,1.39c1.08-.91,1.85-2.14,3.08-2.75a4.54,4.54,0,0,1,1.37.32c.46.15.61.61.46,1.23a8.83,8.83,0,0,0,2,0c.46-.15.77-.61.62-.92-.31-.31-.77-.62-.92-.93-.76-1.08-.14-2.15,1.24-2.29a1,1,0,0,1,.46-1.23,1,1,0,0,1,.62-.15h2.3c1.69-1.06,2.92-2.9,4.61-4.27h2c0-1.23,0-2.31,0-3.54l2-2c1.53.31.15,2.3,1.68,2.62.46-.61,1.07-1.23,1.84-2.14,0-1.08,0-2.46,0-3.69.62-1.23,1.54-1.68,2.16-2.6,1.22,1.24.45,2.46.75,3.69.46.16,1.07.47,1.53.62a6.58,6.58,0,0,0,2.61-2.44c0-.77.17-1.53-.6-1.85-.46-.15-.92,0-1.38-.16-.61-.15-.76-.62-.6-.92l.46-.46a12,12,0,0,0,1.38-1.38l2.91,0,2.59,2.63c1.38.16,2.75.93,3.84-.6v-1.23a15.23,15.23,0,0,1,1.39-1.53c-.3-.61-.76-.61-1.22-.62-1.38-.16-1.68-.62-1.53-1.69,0-.47.47-.77.62-1.08h1.38c.46.46,1.07.93,1.52,1.39l2.92,0,2-2c-.46-.46-.92-1.08-1.37-1.54v-1.39c.31-.61.77-.76,1.08-.3l2.43,2.47c.47-.45,1.08-.91,1.54-1.37.77,0,1.54-.15,2,.62-.92.92-1.85,2-2.77,2.91.15.15.3.46.46.46,1.83.16,3.67.18,5.51.18.46,0,.77-.45.93-1.53v-.46c1.23-1.37-1.36-2.92,3.39-3.67.77,0-.3-2.21-1.22-2.21-.46.46-2.4.16-3,.72-1.38.46-.56-1.45-1.94-1.3-1.08,0-2.13-1.24-3.2-.94-.47.45-.92-2.63-1.23-2.32-.15,0-.07-2.87-.22-2.87-6.43,0,2.77-3-3.82-3-.46-.31,4.09-3.67,3.48-4.29l-4.13,0a23.63,23.63,0,0,1-2-2c.16-1.22,1.54-1.52,1.85-2.44h3.06a9.73,9.73,0,0,1,.62-1.84,16.61,16.61,0,0,1-1.52-1.7c0-.92,0-1.84,0-2.91.61-.62,1.38-1.23,2.15-2a9.09,9.09,0,0,1,1.37,1.24c1.24-1.38,1.24-1.53-.44-3.23.16-1.07,1.85-1.53,1.24-2.91.93-.92,1.85-2,2.93-2.91,0-.46,0-.92,0-1.53-.62-.16-1.23-.47-1.84-.63a15.58,15.58,0,0,0-1.69,1.53l-1.37-1.39c-.46-.46-.61-.62-.46-1.08.31-.46.77-.45,1.23-.45,1.07.16,1.23-.15,1.23-1.22a1.31,1.31,0,0,1,.47-1.23.57.57,0,0,1,.46-.15c.61.62,1.22,1.54,2.44,1.24a16.5,16.5,0,0,0,3.7-3.67c-.15-.46-.15-.92-.3-1.38s-.61-.62-1.22-.47a.81.81,0,0,1-.47,1.08c-.31.15-.76.14-1.23.3a1,1,0,0,1-1.06-.62c0-.16.46-.77.77-.77a8.83,8.83,0,0,1,2,0,.79.79,0,0,1,.46-1.07c.77-.3,1.54-.45,2.46-.75-.91-1.85-2.6-.33-3.67-1.1l-1.37-1.39c-.93.76-1.54.76-2.92,1.21-.46.15-.3-.31,0-.46.62-.3.92,0,.61.62a1.47,1.47,0,0,1-.77.61C226.06,128.44,225.75,128.13,226.37,127.67ZM50,53c0,1.38,0,2.77,0,4.15,0,.15-.31.3-.46.46-.31.15-.62,0-.92-.47,0-1.38,0-2.76,0-4.15,0-.15.31-.3.46-.46C49.4,52.22,49.71,52.53,50,53Zm139.88-7.08a1.8,1.8,0,0,1,0-2.92c.76.16,1.84-.45,2,.93A25.08,25.08,0,0,0,189.89,45.91ZM89.94,33.23c.92-1.07,1.84-1.06,2.91,0C91.77,34.32,90.85,34.31,89.94,33.23Zm11-1.17c-.15.16-.31.46-.46.46H99.13c-.15,0-.3-.31-.45-.47a.28.28,0,0,1,0-.46c.31-.76,1.84-.76,2.3,0C101.13,31.76,101,31.91,101,32.06Zm32.68,192.82c1.06.92,1.06,1.85,0,2.91C132.56,226.71,132.57,225.79,133.65,224.88ZM210.32,63.07h-.61l-.46-.46c-.15-.31,0-.61.47-.92.15-.15.46,0,.61,0a1,1,0,0,1,1.22.46C211.7,62.61,211.24,63.07,210.32,63.07ZM21.17,119.5c.15.31,0,.62-.47.93l-.45-.47c-.16-.31,0-.61.46-.92C20.71,118.89,21,119.2,21.17,119.5ZM24.34,186c.3-.15.61,0,.91.46l-.46.46c-.31.16-.61,0-.91-.46Zm2.13-84.17L26,101.4c-.15-.3,0-.61.47-.91l.45.46C27.09,101.26,26.93,101.56,26.47,101.87ZM44.12,66.94c.15.31,0,.61-.47.92l-.46-.47c-.15-.3,0-.61.47-.92Zm71.26-36.49.46-.46c.31-.15.61,0,.92.47l-.46.46C116.14,31.22,115.84,31.07,115.38,30.45Zm.18,196.17c.15.31,0,.62-.46.92l-.46-.46c-.15-.31,0-.62.47-.92C115.26,226.16,115.41,226.47,115.56,226.62ZM140.83,25.21l-.46.46c-.46-.31-.61-.62-.45-.92l.46-.46C140.84,24.6,141,24.91,140.83,25.21Zm17,5.78-.46.46q-.69-.46-.45-.93l.46-.46Q158,30.53,157.8,31ZM171,34.9l.46-.46c.46.31.61.62.45.92l-.46.46C171,35.51,170.8,35.2,171,34.9Zm12.13,166.28c.31-.16.61,0,.92.46l-.46.46c-.31.15-.62,0-.92-.47ZM185.16,42.5c-.15-.31,0-.61.46-.92l.46.47c.15.3,0,.61-.46.91Z"/><path class="cls-1" d="M237.38,133.26c-.61-.62-.93-.46-1.08-.31l-2,2c.16.3.46.77.61.77a38.12,38.12,0,0,0,4.14,0c1.23-1.22.62-2.46.48-3.84-.76-.93-1.68-.32-2.6-.47A3.5,3.5,0,0,0,237.38,133.26Z"/><path class="cls-1" d="M219.62,186.93c0,.77,0,1.39,0,2.15-.46.46-.93,1.07-1.39,1.53a2.18,2.18,0,0,0,1.23.78c1.68.31,1.68.31,1.67,1.54,0,.62,0,1.39,0,2l.61.62c.15,0,.46-.15.46-.31.62-1.53.32-3.07.18-4.76-1.07-.62-1.22-1.85-1.52-2.93A.92.92,0,0,0,219.62,186.93Z"/><path class="cls-1" d="M8.8,198.55c-1.23.61-.16,2.3-1.55,2.76H5.88a.72.72,0,0,0-.47.46c-.15.31,0,.77.61.92a17.53,17.53,0,0,0,2.91,0c.31.46.76.93,1.22,1.54,1.23-.91.62-2.14.78-3.22C10.63,199.94,9.56,199.48,8.8,198.55Z"/><path class="cls-1" d="M8.26,184.42V185c0,1.84,0,1.84-1.7,2.14A1.4,1.4,0,0,0,5.33,189a3.9,3.9,0,0,0,.76.92l2,0c-.15-1.08,1.08-1.38,1.39-2.61a8.53,8.53,0,0,0,0-2C9.49,184.73,9,184.11,8.26,184.42Z"/><path class="cls-1" d="M234.35,181.33a.77.77,0,0,0-.46.76,2.86,2.86,0,0,1-1.08,2.46.45.45,0,0,0-.16.3c.61.77,1.22,1.39,1.83,2.16l2.15-2.14a6.36,6.36,0,0,1,.16-1.53A13.07,13.07,0,0,1,234.35,181.33Z"/><path class="cls-1" d="M176.51,27.25c-.77-.16-1.23.3-1.38,1.06a13.56,13.56,0,0,0,0,2.46,10.61,10.61,0,0,1,1.37,1.55c0,.76,0,1.38,0,2h1.38c0-1.23,0-2.3,0-3.53-.46-.47-.91-1.08-1.37-1.55C176.5,28.63,176.51,28,176.51,27.25Z"/><path class="cls-1" d="M179,216.52l2-2c0-.46,0-.92,0-1.38-.46-.47-1.22-.93-1.37-1.55s-.15-.92-.77-.61c-.15.15-.46.3-.46.45a10.12,10.12,0,0,0,0,4.77A1.11,1.11,0,0,1,179,216.52Z"/><path class="cls-1" d="M17.19,204.28A9.54,9.54,0,0,1,16,205.66c-.46.46-.61.61-.46.92a1,1,0,0,0,1.22.46h.77a10.18,10.18,0,0,0,1.23-1.38h1.53c.15,0,.31-.31.46-.46a.67.67,0,0,0-.45-.92Z"/><path class="cls-1" d="M192.59,200.92c0,.77,0,1.38,0,2.15-.46.46-.93,1.07-1.39,1.53,0,.77-.16,1.53.76,2l1.84-1.83a4.27,4.27,0,0,0,0-3.38A1,1,0,0,0,192.59,200.92Z"/><path class="cls-1" d="M197.75,37.35c0,1.23,0,2.3,0,3.53,1.52,1.08,1.52,1.08,2.76,0-.46-.46-.77-.92-1.22-1.39.3-.3.31-.45.61-.61.46-.3.77-.61.62-1.07a1,1,0,0,0-1.22-.47A5.2,5.2,0,0,1,197.75,37.35Z"/><path class="cls-1" d="M75.71,31v2a1.44,1.44,0,0,0,1.68.78c.92-.15,1.22-.3,1.23-1.22,0-.62,0-.62-.76-1.69A11.84,11.84,0,0,1,75.71,31Z"/><path class="cls-1" d="M92,19.42c-.31.77-.62,1.38-.77,1.84.45,1.38,1.52,1.85,2.28,2.93.31-.77.62-1.38.78-1.84C93.83,21.12,92.76,20.65,92,19.42Z"/><path class="cls-1" d="M108.36,26.11l-2-2c-.47.45-.93,1.22-1.54,1.22-.62.15-.92.14-.62.76.15.16.31.46.46.46a6.21,6.21,0,0,0,3.37,0A2.17,2.17,0,0,1,108.36,26.11Z"/><path class="cls-1" d="M153.86,23.28c.46,1.08,1.53,1.55,2,2.47,1.08-.61.77-1.37.78-2a13.21,13.21,0,0,1-1.37-1.54c-.76-.93-.92-.93-1.23-.16A3.17,3.17,0,0,0,153.86,23.28Z"/><path class="cls-1" d="M155.25,21.45h2a1.46,1.46,0,0,0,.78-1.69c-.15-.92-.3-1.23-1.22-1.23-.62,0-.62,0-1.69.76A11.05,11.05,0,0,1,155.25,21.45Z"/><path class="cls-1" d="M206.88,191.93v1.39a11.7,11.7,0,0,0-1.39,1.53c1.52.92,1.52.92,2.76-.14,0-.92,0-1.85,0-2.77,0-.15-.3-.31-.46-.46C207.5,191.17,207,191.32,206.88,191.93Z"/><path class="cls-1" d="M224.85,154.24l4.14,0c.15,0,.3-.3.46-.46s0-.61-.61-.92l-4.14,0c-.15,0-.3.3-.46.46S224.39,153.93,224.85,154.24Z"/><path class="cls-1" d="M242.63,95a1.63,1.63,0,0,0-2.45-.47,10.88,10.88,0,0,0-2,1.83,1.63,1.63,0,0,0,2.44.47A11.27,11.27,0,0,0,242.63,95Z"/><path class="cls-1" d="M12.37,78.66c1.08-.92,1.08-1.84,0-2.92-.46.46-.93,1.07-1.39,1.53s-.62.61-.46.92a1,1,0,0,0,1.22.46C11.91,78.5,12.22,78.66,12.37,78.66Z"/><path class="cls-1" d="M6.79,172.89a8.36,8.36,0,0,0,0-2c0-.31-.45-.46-.76-.77L4.19,172c.31.31.46.77.77.77A3.82,3.82,0,0,0,6.79,172.89Z"/><path class="cls-1" d="M6.16,177.18c-1.08.92-1.08,1.84,0,2.92.46-.45.93-1.07,1.39-1.53s.61-.61.46-.91a1,1,0,0,0-1.22-.47Z"/><path class="cls-1" d="M11.18,154.48a8.92,8.92,0,0,0,0-2c0-.31-.46-.46-.76-.77l-1.85,1.83c.31.31.46.77.76.77A3.87,3.87,0,0,0,11.18,154.48Z"/><path class="cls-1" d="M14.25,123.92l-2-2c-1.38.14-.77,1.22-.93,2A1.79,1.79,0,0,0,14.25,123.92Z"/><path class="cls-1" d="M35.1,62.13c-.92,1.37-.92,1.37,0,2.76.77-.15,1.84.47,2-.91A24.21,24.21,0,0,1,35.1,62.13Z"/><path class="cls-1" d="M45,210.11A1.06,1.06,0,0,0,46,211.5a23.07,23.07,0,0,0,3.22,0,1.06,1.06,0,0,0-.91-1.39Z"/><path class="cls-1" d="M67.26,35.26H63.89c-.31,0-.46.45-.77.76,0,0,.3.46.46.46a5.76,5.76,0,0,0,3.21-.13C67.25,36.19,67.26,35.72,67.26,35.26Z"/><path class="cls-1" d="M104.07,25.48a8.92,8.92,0,0,0,0-2c0-.31-.45-.46-.76-.77l-1.85,1.83c.31.31.46.77.76.77A3.88,3.88,0,0,0,104.07,25.48Z"/><path class="cls-1" d="M112.68,20.45l2,2c1.38-.15.77-1.22.93-2A2,2,0,0,0,112.68,20.45Z"/><path class="cls-1" d="M123.65,231.89c-.76.15-1.53-.32-1.84.45s.61.92.91,1.39l.46.46.46.46A1.72,1.72,0,0,0,123.65,231.89Z"/><path class="cls-1" d="M166.86,27.5c-2-.16-3.37-.94-4.6.44.61.92,1.53.62,2.45.78A2.32,2.32,0,0,0,166.86,27.5Z"/><path class="cls-1" d="M172.27,18c-1.37-.93-1.37-.93-2.76,0,.15.77-.47,1.84.91,2C171,19.38,171.65,18.62,172.27,18Z"/><path class="cls-1" d="M191.34,31.63c1.08-.92.93-1.84,0-2.92-.46.46-.93,1.07-1.39,1.53-.46.3-.61.61-.46.92a1,1,0,0,0,1.22.46Z"/><path class="cls-1" d="M192.07,40.23c0-.15-.16-.46,0-.61l1.38-1.38c-.3-.3-.45-.61-.76-.77a9.37,9.37,0,0,0-2,0c0,.92,0,1.85,0,2.92A3.93,3.93,0,0,1,192.07,40.23Z"/><path class="cls-1" d="M195.6,38.72c.76-.46.92-1.53,2.15-1.37,0-.16.15-.46,0-.62a1.69,1.69,0,0,0-2.29-.63,1.59,1.59,0,0,0-.62,1.69A3.89,3.89,0,0,0,195.6,38.72Z"/><path class="cls-1" d="M205.52,44.45c-1.08.92-1.08,1.84,0,2.92.46-.46.92-1.07,1.38-1.53s.62-.61.47-.92a1,1,0,0,0-1.23-.46C206,44.61,205.67,44.46,205.52,44.45Z"/><path class="cls-1" d="M209,54.46a1,1,0,0,0,1.23-.46,5.8,5.8,0,0,0,.17-3.22c0-.15-.46-.46-.46-.46-.3.15-.77.45-.77.76A13.11,13.11,0,0,0,209,54.46Z"/><path class="cls-1" d="M218.2,50.36c1.08-.92,1.08-1.84,0-2.92-.46.46-.93,1.07-1.39,1.53s-.62.61-.46.92a1,1,0,0,0,1.22.47C217.74,50.2,217.9,50.36,218.2,50.36Z"/><path class="cls-1" d="M216.7,188.3a1,1,0,0,0,1.23-.45c.46-.46.77-1.23,1.69-.92-.15-1.07-.45-1.38-1.06-1.39-1.07-.16-1.69.3-1.7,1.38A4.65,4.65,0,0,0,216.7,188.3Z"/><path class="cls-1" d="M228.56,90.82c.91,1.08,1.83,1.08,2.91,0-.46-.46-1.07-.93-1.53-1.39s-.61-.62-.92-.46a1,1,0,0,0-.46,1.22C228.71,90.36,228.56,90.66,228.56,90.82Z"/><path class="cls-1" d="M231.16,148.59c0-.61,0-1.38,0-2-1.07-1.23-1.22-1.08-2.6-.32C229.94,148,229.94,148.12,231.16,148.59Z"/><path class="cls-1" d="M232.52,151.36c1.08-.15,1.38-.45,1.39-1.07.16-1.22-.3-1.69-1.37-1.69h-1.38c-.16.92.45,1.23.91,1.7C232.53,150.6,232.68,150.9,232.52,151.36Z"/><path class="cls-1" d="M230.22,166.64c-.45-1.23-.45-1.23-2.28-2.62-.78,1.38-.78,1.53.29,2.61Z"/><path class="cls-1" d="M232.22,165.27c-.77.46-.93,1.53-2.15,1.37,0,.16-.16.46,0,.62a1.69,1.69,0,0,0,2.3.62c.46-.15.77-1.07.62-1.68C232.83,165.74,232.52,165.58,232.22,165.27Z"/><path class="cls-1" d="M240.5,161.45l.46.46c.3.16.61,0,.92-.61,0-.92,0-1.84,0-2.76l-.46-.47c-.31-.15-.61,0-.92.61C240.51,159.6,240.51,160.53,240.5,161.45Z"/><path class="cls-1" d="M249.69,163c.31.46.61.77.92.46l.46-.45c0-.93,0-1.13,0-2-.31-.46-.61-.62-.92-.47l-.46.46C249.7,161.84,249.7,162.05,249.69,163Z"/><path class="cls-1" d="M8.52,135.26c-.91-1.08-1.83-1.08-2.91,0A1.72,1.72,0,0,0,8.52,135.26Z"/><path class="cls-1" d="M8.26,184.42c0-.46,0-.93,0-1.39a10.21,10.21,0,0,0-2.14,0c-.62.15-.77.61-.47.92.15.16.31.46.46.46Z"/><path class="cls-1" d="M12.57,180.14a8.36,8.36,0,0,0,0-2c0-.31-.61-.77-.77-.77a1,1,0,0,0-.61,1.07,3.26,3.26,0,0,0,.3,1.23C11.5,180.13,12,180.29,12.57,180.14Z"/><path class="cls-1" d="M25.18,200a1,1,0,0,0,1.23-.45c.31-.46-.3-.92-1.22-.93h-.61l-.47.46c-.15.3,0,.61.46.92C24.72,200.17,25,200,25.18,200Z"/><path class="cls-1" d="M29,199.89c.77-.3.78-1.84,0-2.3a.29.29,0,0,0-.46,0c-.76.31-.77,1.84,0,2.31Z"/><path class="cls-1" d="M35.82,70.73c0-.92-.45-1.53-.91-1.23a1,1,0,0,0-.46,1.23v.61c.31.46.61.77.92.47.15-.16.46-.31.46-.46Z"/><path class="cls-1" d="M44.25,214.41c-1.08.92-1.08,1.84,0,2.92C45.31,216.26,45.32,215.34,44.25,214.41Z"/><path class="cls-1" d="M50.07,42.24a1,1,0,0,0,.45,1.23c.61.31,1.07-.3,1.08-1.22v-.62l-.45-.46q-.46-.24-.93.45A1,1,0,0,0,50.07,42.24Z"/><path class="cls-1" d="M54.4,33.81a8.83,8.83,0,0,0-2,0c-.31,0-.77.61-.77.76a1,1,0,0,0,1.07.63,3.48,3.48,0,0,0,1.23-.31A.79.79,0,0,0,54.4,33.81Z"/><path class="cls-1" d="M56.13,24.76c.31.77,1.84.78,2.3,0a.28.28,0,0,0,0-.46c-.3-.77-1.83-.78-2.29,0C56.14,24.45,56.13,24.6,56.13,24.76Z"/><path class="cls-1" d="M60,39.53c.92,0,1.53-.46,1.23-.92a1,1,0,0,0-1.22-.47h-.62c-.46.3-.77.61-.46.92.15.15.3.46.46.46Z"/><path class="cls-1" d="M63,29.56c0-.93-.45-1.54-.91-1.24a1,1,0,0,0-.47,1.23v.61c.3.47.61.77.92.47.15-.15.46-.31.46-.46Z"/><path class="cls-1" d="M75.71,31a8.92,8.92,0,0,0,0-2c0-.31-.61-.77-.76-.77a1,1,0,0,0-.62,1.07,3.46,3.46,0,0,0,.3,1.23A.79.79,0,0,0,75.71,31Z"/><path class="cls-1" d="M87,16.32v-.46a1.53,1.53,0,0,0-2.3,0v.46c.15.15.3.46.46.46H86.5C86.66,16.78,86.81,16.47,87,16.32Z"/><path class="cls-1" d="M129.66,22.85a1,1,0,0,0-.45-1.23,1.94,1.94,0,0,0-1.84,0,1,1,0,0,0-.46,1.22Z"/><path class="cls-1" d="M132.5,238.54v-.46a1.52,1.52,0,0,0-2.29,0c0,.15,0,.31,0,.46.16.15.31.46.46.46H132C132.19,239,132.35,238.69,132.5,238.54Z"/><path class="cls-1" d="M165.83,18.74c-1.07.92-1.08,1.84,0,2.92C166.9,20.59,166.9,19.67,165.83,18.74Z"/><path class="cls-1" d="M168.32,213.69a8.92,8.92,0,0,0,0,2c0,.31.61.77.76.77a1,1,0,0,0,.62-1.07,3.69,3.69,0,0,0-.3-1.23C169.24,213.7,168.93,213.54,168.32,213.69Z"/><path class="cls-1" d="M176.51,27.25a8.83,8.83,0,0,0,2,0c.31,0,.77-.61.77-.77a1,1,0,0,0-1.07-.62,3.64,3.64,0,0,0-1.22.3A.8.8,0,0,0,176.51,27.25Z"/><path class="cls-1" d="M188.26,208.12c-.3-1.39-.75-1.7-2.29-1.24-.15,0-.31.3-.46.46,0,.15.15.3.15.46.15.15.3.3.46.31Z"/><path class="cls-1" d="M188.26,209.5a8.92,8.92,0,0,0-2,0c-.3,0-.77.61-.77.76a1,1,0,0,0,1.07.62,3.46,3.46,0,0,0,1.23-.3A.79.79,0,0,0,188.26,209.5Z"/><path class="cls-1" d="M190.55,37.31c-.3-1.39-.76-1.7-2.29-1.24-.16,0-.31.3-.46.45s.15.31.15.47c.15.15.3.31.45.31Z"/><path class="cls-1" d="M195.24,220.14c-.91-1.08-1.83-1.09-2.91,0C193.4,221.2,194.32,221.21,195.24,220.14Z"/><path class="cls-1" d="M199.15,33.05a8.83,8.83,0,0,0,0-2c0-.31-.61-.78-.76-.78a1,1,0,0,0-.62,1.08,3.75,3.75,0,0,0,.3,1.23C198.23,33.2,198.69,33.2,199.15,33.05Z"/><path class="cls-1" d="M203.89,207.43c.91,1.08,1.83,1.09,2.91,0C205.73,206.37,204.81,206.36,203.89,207.43Z"/><path class="cls-1" d="M212.24,192.12v-.46a1.52,1.52,0,0,0-2.29,0v.46c.16.16.31.47.46.47h1.38C211.93,192.58,212.09,192.27,212.24,192.12Z"/><path class="cls-1" d="M216.7,188.3c-1.38.3-1.69.76-1.23,2.3,0,.15.3.31.45.46.16,0,.31-.15.46-.15.16-.15.31-.31.31-.46A9.68,9.68,0,0,0,216.7,188.3Z"/><path class="cls-1" d="M218.19,197.52c.91,1.08,1.83,1.09,2.91,0C220,196.61,219.11,196.61,218.19,197.52Z"/><path class="cls-1" d="M231.18,144.29a1,1,0,0,0,1.23-.45c.31-.46-.3-.93-1.22-.93h-.61l-.46.46q-.24.46.45.93Z"/><path class="cls-1" d="M237.87,176.43a1,1,0,0,0,.46,1.23c.45.32.92-.3.92-1.22,0-.15,0-.46,0-.61l-.46-.47c-.31-.15-.62,0-.92.46C237.72,176,237.87,176.28,237.87,176.43Z"/><path class="cls-1" d="M231.58,170.8a8.36,8.36,0,0,0,0,2c0,.3.61.77.76.77a1,1,0,0,0,.62-1.07,3.69,3.69,0,0,0-.3-1.23A.79.79,0,0,0,231.58,170.8Z"/><path class="cls-1" d="M242.21,156.08c.31.77,1.84.78,2.3,0a.28.28,0,0,0,0-.46c-.3-.77-1.83-.78-2.29,0C242.06,155.77,242.22,155.93,242.21,156.08Z"/><path class="cls-1" d="M245.39,174.32c1.08-.92,1.08-1.84,0-2.92C244.33,172.47,244.32,173.39,245.39,174.32Z"/><path class="cls-1" d="M253.19,168.06c1.07-.92,1.08-1.84,0-2.92C252.13,166.21,252.12,167.13,253.19,168.06Z"/><path class="cls-1" d="M244.27,113.63c-.92-1.09-1.84-1.09-2.91,0A1.88,1.88,0,0,0,244.27,113.63Z"/><path class="cls-1" d="M249.36,134c0-.92-.45-.82-.91-.52s-.62-.1-.47.51v.61c.31.47.61.78.92.47.15-.15.46-.3.46-.46C249.51,134.58,249.36,134.27,249.36,134Z"/><path class="cls-1" d="M.52,144c.3.16.61,0,.92-.45L1,143.1c-.31-.15-.61,0-.92.46Z"/><path class="cls-1" d="M1,172.4c.15-.31,0-.62-.46-.93l-.46.46c-.16.31,0,.61.45.92Z"/><path class="cls-1" d="M2.63,178.55c-1.08.15-1.23.3-1.39,1.37C2.31,179.93,2.31,179.78,2.63,178.55Z"/><path class="cls-1" d="M3.24,178.55c.15,0,.31-.15.46-.46a.54.54,0,0,0,.16-.46c-.31-.46-.61-.61-.92-.31s-.62.61-.31,1.08C2.63,178.7,3.09,178.71,3.24,178.55Z"/><path class="cls-1" d="M4.92,151.52c.46-.3.61-.61.46-.92l-.46-.46c-.46.31-.61.61-.46.92C4.46,151.37,4.76,151.37,4.92,151.52Z"/><path class="cls-1" d="M6.5,199.46c.15-.31,0-.61-.46-.92l-.46.45c-.15.31,0,.62.46.93Z"/><path class="cls-1" d="M7.7,174.27s.47-.3.47-.45a1.65,1.65,0,0,0-.61-.78c-.61-.31-.92,0-.62.62A3.36,3.36,0,0,0,7.7,174.27Z"/><path class="cls-1" d="M9.76,162.3c0-.15-.15-.31-.46-.46a.57.57,0,0,0-.46-.16c-.46.31-.61.61-.31.92s.61.62,1.07.32C9.76,162.92,9.76,162.61,9.76,162.3Z"/><path class="cls-1" d="M9.6,191.49c-.14-1.08-.3-1.23-1.37-1.39C8.38,191.18,8.53,191.33,9.6,191.49Z"/><path class="cls-1" d="M8.37,193.79s.3.46.45.46c.31-.15.77-.3.77-.61.31-.61,0-.92-.61-.62C8.68,193,8.52,193.48,8.37,193.79Z"/><path class="cls-1" d="M9.21,207.62l-.45-.47c-.47.31-.62.61-.47.92l.46.47C9.36,208.23,9.36,207.93,9.21,207.62Z"/><path class="cls-1" d="M11,107.32c.15-.16.46-.46.46-.46-.3-.47-.61-.62-.91-.47l-.47.46C10.36,107.31,10.66,107.47,11,107.32Z"/><path class="cls-1" d="M10.8,139.11c-.3-.15-.61,0-.92.46l.46.46c.3.16.61,0,.92-.45C11.26,139.42,11,139.27,10.8,139.11Z"/><path class="cls-1" d="M10.67,164.3s.46-.3.46-.45a1.47,1.47,0,0,0-.61-.77c-.61-.32-.92,0-.61.61C9.9,163.84,10.36,164.15,10.67,164.3Z"/><path class="cls-1" d="M10.63,171.83c-.31-.15-.61,0-.92.46l.45.46c.31.16.62,0,.92-.45C11.09,172.14,10.78,172,10.63,171.83Z"/><path class="cls-1" d="M9.6,192.87c1.07-.15,1.38-.45,1.23-.91a1,1,0,0,0-1.23-.47Z"/><path class="cls-1" d="M10.5,196c-.31-.16-.61,0-.92.45l.46.47c.3.15.61,0,.92-.46Z"/><path class="cls-1" d="M12.32,169.69c.16-.31,0-.61-.45-.92l-.46.46c-.16.3,0,.61.45.92Z"/><path class="cls-1" d="M14,119.93c.15-.31,0-.62-.46-.93l-.46.46q-.23.47.45.93C13.66,120.39,13.81,120.08,14,119.93Z"/><path class="cls-1" d="M13.74,133l.47-.46c-.31-.46-.61-.61-.92-.46l-.46.46A.67.67,0,0,0,13.74,133Z"/><path class="cls-1" d="M13.68,144.35l.47-.46c-.31-.46-.61-.62-.92-.46l-.46.45A.68.68,0,0,0,13.68,144.35Z"/><path class="cls-1" d="M12.87,152.49s.31.46.46.46c.31-.15.77-.3.77-.61.31-.61,0-.92-.61-.62A1.58,1.58,0,0,0,12.87,152.49Z"/><path class="cls-1" d="M15.29,102.11c-.31-.15-.62,0-.92.46l.45.46c.31.16.62,0,.92-.45C15.74,102.43,15.44,102.27,15.29,102.11Z"/><path class="cls-1" d="M16.58,117.33l.47-.46c-.31-.46-.61-.62-.92-.46l-.46.45C16,117.33,16.28,117.48,16.58,117.33Z"/><path class="cls-1" d="M16.17,194.6c-.3-.16-.61,0-.92.45l.46.47c.31.15.61,0,.92-.46Z"/><path class="cls-1" d="M15.54,198.13l.46.46c.46-.3.62-.61.46-.92l-.45-.46C15.55,197.51,15.39,197.82,15.54,198.13Z"/><path class="cls-1" d="M17,191.07l.46.46c.46-.3.61-.61.46-.92l-.46-.46C17,190.45,16.81,190.76,17,191.07Z"/><path class="cls-1" d="M19.62,94.46l.46-.46c-.31-.46-.61-.62-.92-.47L18.7,94C19,94.45,19.31,94.61,19.62,94.46Z"/><path class="cls-1" d="M18.32,193.84l.46.46c.46-.3.62-.61.46-.92l-.45-.46C18.33,193.23,18.17,193.53,18.32,193.84Z"/><path class="cls-1" d="M21.81,201.23l.46-.46c-.31-.46-.61-.61-.92-.46l-.46.46C21.19,201.23,21.5,201.38,21.81,201.23Z"/><path class="cls-1" d="M23.51,53.77l-.46.46c.3.46.61.62.91.46l.46-.45A.63.63,0,0,0,23.51,53.77Z"/><path class="cls-1" d="M23.51,196.79q.24-.47-.45-.93l-.46.46q-.24.47.45.93Z"/><path class="cls-1" d="M26.15,46.87c-.16.31,0,.62.45.93l.47-.46c.15-.31,0-.62-.46-.93Z"/><path class="cls-1" d="M26.61,191.58c-1.08.15-1.39.45-1.23.92a1,1,0,0,0,1.22.46C26.6,192.5,26.6,192,26.61,191.58Z"/><path class="cls-1" d="M28.35,93q.24-.47-.45-.93l-.46.46q-.24.47.45.93Z"/><path class="cls-1" d="M32,16l.46.46c.46-.31.61-.61.46-.92l-.46-.46C32,15.41,31.83,15.72,32,16Z"/><path class="cls-1" d="M31,201s.3.46.45.46c.31-.15.77-.31.77-.61.31-.62,0-.92-.61-.62C31.31,200.21,31.15,200.67,31,201Z"/><path class="cls-1" d="M34.38,25.56l-.46-.46c-.46.3-.61.61-.46.92l.46.46C34.38,26.18,34.53,25.87,34.38,25.56Z"/><path class="cls-1" d="M33.44,58.12l-.46.46c.3.47.61.62.92.47l.46-.46A.69.69,0,0,0,33.44,58.12Z"/><path class="cls-1" d="M33.35,75.18l-.46.45c.3.47.61.62.92.47l.46-.46A.68.68,0,0,0,33.35,75.18Z"/><path class="cls-1" d="M35.11,32c.31.15.61,0,.92-.46l-.45-.46c-.31-.16-.62,0-.93.46C34.5,31.55,35,31.86,35.11,32Z"/><path class="cls-1" d="M37.84,210.84c.3.47.61.62.91.47l.47-.46c-.31-.46-.61-.62-.92-.47Z"/><path class="cls-1" d="M40.28,40c.3.47.61.62.91.47l.46-.46c-.3-.46-.6-.62-.91-.46S40.43,39.88,40.28,40Z"/><path class="cls-1" d="M40.38,49.87c-.16.3,0,.61.45.92l.46-.46c.16-.3,0-.61-.45-.92Z"/><path class="cls-1" d="M42.67,22.53c-.31-.15-.62,0-.92.46l.45.46c.31.16.62,0,.92-.45Z"/><path class="cls-1" d="M42.13,36.82l-.46.46c.3.46.61.61.92.46l.46-.46C42.74,36.82,42.44,36.67,42.13,36.82Z"/><path class="cls-1" d="M42.17,57.86c.46-.3.62-.61.47-.92l-.46-.46c-.46.31-.62.61-.46.92Z"/><path class="cls-1" d="M40.92,206.71s.31.47.46.47c.31-.16.77-.31.77-.61.31-.62,0-.93-.61-.62A1.56,1.56,0,0,0,40.92,206.71Z"/><path class="cls-1" d="M48.56,38.54c-.16-.15-.46-.46-.46-.46-.46.3-.62.61-.47.92l.46.46C48.55,39.16,48.71,38.85,48.56,38.54Z"/><path class="cls-1" d="M51.16,39.17l.46-.46c-.31-.46-.61-.62-.92-.46l-.46.46A.64.64,0,0,0,51.16,39.17Z"/><path class="cls-1" d="M55,33.81c.16,0,.31-.15.47-.45a.58.58,0,0,0,.15-.46c-.3-.47-.61-.62-.92-.32s-.61.62-.31,1.08A.93.93,0,0,0,55,33.81Z"/><path class="cls-1" d="M58.46,18.63,58,18.16c-.46.31-.62.61-.47.92l.46.46C58.46,19.24,58.62,18.93,58.46,18.63Z"/><path class="cls-1" d="M67.09,12c.15-.3,0-.61-.46-.92l-.46.46c-.16.3,0,.61.45.92Z"/><path class="cls-1" d="M61,32.62c-.3-.16-.61,0-.92.45l.46.47c.3.15.61,0,.92-.46Z"/><path class="cls-1" d="M49.08,226.26c.46-.3.61-.61.46-.92l-.45-.46c-.47.3-.62.61-.47.92Z"/><path class="cls-1" d="M62.89,224.19l.46-.46c-.31-.46-.61-.62-.92-.47l-.46.46C62.27,224.19,62.58,224.34,62.89,224.19Z"/><path class="cls-1" d="M67.87,35.27c.16,0,.31-.16.46-.46a.55.55,0,0,0,.16-.46c-.3-.46-.61-.62-.92-.31s-.61.61-.31,1.07C67.26,35.26,67.57,35.26,67.87,35.27Z"/><path class="cls-1" d="M76.65,25.64c-.3-.16-.61,0-.92.45l.46.47c.3.15.61,0,.92-.46C77.11,26,76.81,25.79,76.65,25.64Z"/><path class="cls-1" d="M78.39,15.81l-.46-.46c-.46.31-.61.61-.46.92l.46.46A.68.68,0,0,0,78.39,15.81Z"/><path class="cls-1" d="M80.22,17.36c-.15.31,0,.61.46.92l.46-.45c.15-.31,0-.62-.46-.93C80.68,16.75,80.37,17.21,80.22,17.36Z"/><path class="cls-1" d="M86.13,29.37c.31.16.61,0,.92-.45l-.46-.47c-.3-.15-.61,0-.92.46C85.67,29.06,86,29.22,86.13,29.37Z"/><path class="cls-1" d="M91,.06c-.3-.16-.61,0-.92.45l.46.47c.31.15.61,0,.92-.46Z"/><path class="cls-1" d="M102,18.4c.47-.31.62-.61.47-.92L102,17c-.46.3-.61.61-.46.91Z"/><path class="cls-1" d="M105.17,21l.46-.46c-.31-.46-.61-.62-.92-.47l-.46.46A.65.65,0,0,0,105.17,21Z"/><path class="cls-1" d="M109.33,16.75l.46-.46c-.31-.46-.61-.62-.92-.47l-.46.46C108.71,16.74,109,16.9,109.33,16.75Z"/><path class="cls-1" d="M115,12.48l.46-.46c-.31-.46-.61-.62-.92-.47l-.46.46C114.4,12.47,114.71,12.63,115,12.48Z"/><path class="cls-1" d="M117.9,17.25c-.3-.15-.61,0-.92.46l.46.46c.3.16.61,0,.92-.45Z"/><path class="cls-1" d="M140.19,232.94c-.15.3,0,.61.46.92l.46-.46c.15-.3,0-.61-.46-.92Z"/><path class="cls-1" d="M119.72,20.64c0-.15-.15-.3-.46-.46a.6.6,0,0,0-.45-.16c-.47.31-.62.62-.32.92s.61.62,1.07.32C119.87,21.26,119.87,20.8,119.72,20.64Z"/><path class="cls-1" d="M119.81,3.59c.3.47.61.62.92.47l.46-.46c-.3-.46-.61-.62-.92-.47C120.12,3.13,120,3.29,119.81,3.59Z"/><path class="cls-1" d="M120.63,22.65s.46-.31.46-.46a1.47,1.47,0,0,0-.61-.77c-.61-.31-.92,0-.61.61C119.86,22.18,120.32,22.34,120.63,22.65Z"/><path class="cls-1" d="M139.65,18c0-.16-.16-.31-.46-.47a.57.57,0,0,0-.46-.15c-.46.3-.61.61-.31.92s.61.61,1.07.31A.94.94,0,0,0,139.65,18Z"/><path class="cls-1" d="M141,18.61h-1.38c.15,1.08.3,1.23,1.37,1.39C141,19.53,141,19.07,141,18.61Z"/><path class="cls-1" d="M141.63,18.61c.16,0,.31-.15.47-.46a.56.56,0,0,0,.15-.46c-.3-.46-.61-.62-.92-.31s-.61.61-.31,1.07A.9.9,0,0,0,141.63,18.61Z"/><path class="cls-1" d="M143.7,5.26c.15-.31,0-.62-.46-.93l-.46.46q-.22.46.45.93C143.39,5.72,143.54,5.41,143.7,5.26Z"/><path class="cls-1" d="M145.12,226.63c-.3-.16-.61,0-.92.45l.46.47c.3.15.61,0,.92-.46C145.58,226.94,145.28,226.78,145.12,226.63Z"/><path class="cls-1" d="M147,225c0-.46,0-.92,0-1.38-1.07.14-1.38.45-1.23.91A1,1,0,0,0,147,225Z"/><path class="cls-1" d="M147.88,226.18s.47-.3.47-.46c-.16-.31-.31-.77-.61-.77-.61-.31-.92,0-.62.61A1.51,1.51,0,0,0,147.88,226.18Z"/><path class="cls-1" d="M150.79,226.2l.47-.46c-.31-.46-.61-.62-.92-.47l-.46.46C150.18,226.19,150.49,226.35,150.79,226.2Z"/><path class="cls-1" d="M153.28,17l.46-.45c-.3-.47-.6-.62-.91-.47l-.46.46C152.67,17,153,17.14,153.28,17Z"/><path class="cls-1" d="M153.56,224.83s.46-.31.46-.46c-.15-.31-.3-.77-.61-.77-.61-.31-.92,0-.62.61A1.58,1.58,0,0,0,153.56,224.83Z"/><path class="cls-1" d="M157.89,14.86l-.46-.47c-.46.31-.61.62-.46.92l.46.47C157.89,15.47,158,15.17,157.89,14.86Z"/><path class="cls-1" d="M161.39,18.41c.31.16.62,0,.93-.46,0,0-.31-.3-.46-.46-.31-.15-.61,0-.92.46C160.94,18.1,161.24,18.26,161.39,18.41Z"/><path class="cls-1" d="M164.13,23.19l-.47.45c.31.47.61.62.92.47l.46-.46A.63.63,0,0,0,164.13,23.19Z"/><path class="cls-1" d="M167.84,16.75c.15-.3,0-.61-.46-.92l-.46.46c-.16.31,0,.61.45.92C167.37,17.37,167.68,16.91,167.84,16.75Z"/><path class="cls-1" d="M166.31,217.83s.46-.3.46-.46a1.55,1.55,0,0,0-.61-.77c-.61-.31-.92,0-.61.61C165.7,217.37,166,217.52,166.31,217.83Z"/><path class="cls-1" d="M173.49,221.1c-.31-.16-.61,0-.92.45l.45.46q.47.24.93-.45C174.1,221.41,173.64,221.25,173.49,221.1Z"/><path class="cls-1" d="M176.24,21.1c.15-.31,0-.61-.46-.92l-.46.46c-.16.3,0,.61.45.92C175.93,21.56,176.08,21.25,176.24,21.1Z"/><path class="cls-1" d="M175,217.72l.46-.45c-.3-.47-.61-.62-.91-.47l-.47.46A.68.68,0,0,0,175,217.72Z"/><path class="cls-1" d="M183.51,207.94s.47-.31.47-.46c-.15-.31-.3-.77-.61-.77-.61-.31-.92,0-.62.61C182.75,207.47,183.21,207.78,183.51,207.94Z"/><path class="cls-1" d="M183.77,218.54l-.46-.46c-.46.3-.62.61-.47.91l.46.47C183.76,219.15,183.92,218.85,183.77,218.54Z"/><path class="cls-1" d="M185.94,213.48c.3.16.61,0,.92-.45l-.46-.47c-.3-.15-.61,0-.92.46C185.48,213.17,185.78,213.33,185.94,213.48Z"/><path class="cls-1" d="M186.46,227l-.46-.46c-.46.31-.62.61-.47.92l.46.46C186.45,227.61,186.61,227.3,186.46,227Z"/><path class="cls-1" d="M188.26,208.12v1.38c1.07-.15,1.38-.45,1.23-.91A1,1,0,0,0,188.26,208.12Z"/><path class="cls-1" d="M189.46,212.89l-.45-.47c-.47.31-.62.61-.47.92l.46.46C189.46,213.5,189.61,213.19,189.46,212.89Z"/><path class="cls-1" d="M194.25,33c.46-.31.61-.62.46-.92l-.45-.47c-.47.31-.62.61-.47.92C193.79,32.72,194.1,32.87,194.25,33Z"/><path class="cls-1" d="M197.49,27.82l-.46-.46c-.46.3-.61.61-.46.92l.46.46A.68.68,0,0,0,197.49,27.82Z"/><path class="cls-1" d="M200.06,34.44s.46-.31.46-.46c-.15-.31-.3-.77-.61-.77-.61-.31-.92,0-.61.61C199.3,34,199.76,34.28,200.06,34.44Z"/><path class="cls-1" d="M201,196.2c0-.15-.15-.3-.46-.46a.56.56,0,0,0-.46-.15c-.46.3-.61.61-.31.92s.61.61,1.07.31A.39.39,0,0,0,201,196.2Z"/><path class="cls-1" d="M203.1,39.83c.15-.3,0-.61-.46-.92l-.46.46c-.16.3,0,.61.45.92C202.79,40.29,202.94,40,203.1,39.83Z"/><path class="cls-1" d="M202,198.05s.46-.3.46-.46a1.55,1.55,0,0,0-.61-.77c-.61-.31-.92,0-.61.61A1.47,1.47,0,0,0,202,198.05Z"/><path class="cls-1" d="M203.84,42.91c.31.15.62,0,.93-.46l-.46-.46c-.31-.16-.61,0-.92.46Z"/><path class="cls-1" d="M210.84,196.41c.15-.31,0-.61-.45-.92l-.47.45c-.15.31,0,.62.46.93Z"/><path class="cls-1" d="M211.9,55.4s.3.46.45.46c.31-.15.77-.3.77-.61.31-.61,0-.92-.61-.62C212.36,54.63,212.05,55.09,211.9,55.4Z"/><path class="cls-1" d="M214.66,53.11c-1.07.14-1.22.3-1.38,1.37C214.35,54.33,214.51,54.18,214.66,53.11Z"/><path class="cls-1" d="M215.28,53.11c.15,0,.31-.15.46-.46a.62.62,0,0,0,.16-.46c-.31-.46-.61-.62-.92-.31s-.62.61-.31,1.07C214.66,53.11,215.13,53.11,215.28,53.11Z"/><path class="cls-1" d="M215.25,58.79c.15,0,.3-.15.46-.46a.61.61,0,0,0,.16-.46c-.31-.46-.61-.61-.92-.31s-.62.61-.31,1.08C214.63,58.94,215.09,58.79,215.25,58.79Z"/><path class="cls-1" d="M216.87,205.1q-.24.47.45.93l.46-.46q.24-.47-.45-.93Z"/><path class="cls-1" d="M222.5,207.06c-.3-.16-.61,0-.92.45l.46.47c.31.15.61,0,.92-.46C223,207.37,222.66,207.21,222.5,207.06Z"/><path class="cls-1" d="M225.52,59.77c-.31-.15-.62,0-.92.46l.45.46c.31.16.61,0,.92-.45Z"/><path class="cls-1" d="M224.67,158.54c.46-.3.62-.61.47-.92l-.46-.46c-.46.3-.61.61-.46.92C224.37,158.23,224.52,158.23,224.67,158.54Z"/><path class="cls-1" d="M224.79,195.26l.46-.46c-.31-.46-.61-.62-.92-.47l-.46.46C224.17,195.25,224.48,195.41,224.79,195.26Z"/><path class="cls-1" d="M225.64,202.84c.15-.31,0-.61-.46-.92l-.46.45c-.15.31,0,.62.46.93Z"/><path class="cls-1" d="M228.9,84.06l.45.46c.47-.3.62-.61.47-.92l-.46-.46C228.9,83.44,228.75,83.75,228.9,84.06Z"/><path class="cls-1" d="M228.61,194.56c.31.15.62,0,.93-.46l-.46-.46c-.31-.16-.61,0-.92.46C228,194.09,228.46,194.4,228.61,194.56Z"/><path class="cls-1" d="M231.43,98.05c0-.15-.15-.31-.46-.46a.55.55,0,0,0-.46-.16c-.46.31-.61.61-.31.92s.61.62,1.07.32C231.43,98.67,231.43,98.36,231.43,98.05Z"/><path class="cls-1" d="M232.34,100.05s.46-.3.46-.45a1.59,1.59,0,0,0-.61-.78c-.61-.31-.92,0-.62.62C231.57,99.59,232,99.9,232.34,100.05Z"/><path class="cls-1" d="M231.29,152.28s.31.46.46.46a1.51,1.51,0,0,0,.77-.61c.31-.61,0-.92-.61-.62C231.6,151.51,231.45,152,231.29,152.28Z"/><path class="cls-1" d="M226.23,188.83c-.16.31,0,.61.45.92l.46-.46c.16-.3,0-.61-.45-.92C226.54,188.37,226.38,188.68,226.23,188.83Z"/><path class="cls-1" d="M232.78,188.9c.31.15.61,0,.92-.46l-.46-.46c-.3-.16-.61,0-.92.45Z"/><path class="cls-1" d="M233.39,204.2l-.46.46c.31.46.61.61.92.46l.46-.46A.68.68,0,0,0,233.39,204.2Z"/><path class="cls-1" d="M231.4,195.76l-.47.46c.31.46.61.62.92.46l.46-.46C232,195.76,231.7,195.61,231.4,195.76Z"/><path class="cls-1" d="M236.92,130.8c0-.15-.15-.31-.46-.46a.53.53,0,0,0-.45-.16c-.47.31-.62.61-.32.92s.61.62,1.07.32C236.92,131.42,236.92,131.11,236.92,130.8Z"/><path class="cls-1" d="M217.44,209.9c-.31-.15-.62,0-.92.46l.45.46c.31.16.62,0,.92-.46Z"/><path class="cls-1" d="M237.45,203.51c-.3-.15-.61,0-.92.46l.46.46c.3.16.61,0,.92-.45A1.16,1.16,0,0,1,237.45,203.51Z"/><path class="cls-1" d="M223.79,199.84c-.3-.15-.61,0-.92.46l.46.46c.31.16.61,0,.92-.46Z"/><path class="cls-1" d="M239.12,150.17c-.31-.16-.62,0-.93.46l.46.46c.31.15.61,0,.92-.46C239.73,150.63,239.42,150.48,239.12,150.17Z"/><path class="cls-1" d="M239.93,141.93c-.15.31,0,.62.46.93l.46-.46q.22-.47-.45-.93Z"/><path class="cls-1" d="M241.39,178c.46-.31.61-.61.46-.92l-.45-.46c-.47.3-.62.61-.47.91S241.24,177.68,241.39,178Z"/><path class="cls-1" d="M240.56,185q.24-.47-.45-.93l-.46.46q-.24.47.45.93Z"/><path class="cls-1" d="M236.56,196.31s.31.46.46.46a1.47,1.47,0,0,0,.77-.61c.31-.61,0-.92-.61-.62A3.5,3.5,0,0,0,236.56,196.31Z"/><path class="cls-1" d="M228.83,68.57c-.31-.16-.62,0-.92.46l.45.46c.31.15.62,0,.93-.46Z"/><path class="cls-1" d="M241.42,129.21l.46-.45c-.3-.47-.61-.62-.92-.47l-.46.46C240.81,129.21,241.11,129.37,241.42,129.21Z"/><path class="cls-1" d="M238.56,195.4c.15,0,.31-.16.46-.46a.56.56,0,0,0,.16-.46c-.31-.47-.61-.62-.92-.32s-.61.62-.31,1.08C238,195.55,238.25,195.55,238.56,195.4Z"/><path class="cls-1" d="M228.52,169.86l-.46-.46c-.46.3-.61.61-.46.92l.45.46C228.52,170.48,228.67,170.17,228.52,169.86Z"/><path class="cls-1" d="M239.82,190.05l-.47.46c.31.46.61.62.92.46l.46-.46C240.43,190.05,240.12,189.9,239.82,190.05Z"/><path class="cls-1" d="M243.77,196l.46-.46c-.3-.46-.61-.62-.92-.47l-.46.46C243.16,196,243.46,196.15,243.77,196Z"/><path class="cls-1" d="M234,160.67l.46-.46c-.3-.46-.61-.61-.92-.46l-.46.46A.68.68,0,0,0,234,160.67Z"/><path class="cls-1" d="M236.33,170.67c.3.16.61,0,.92-.46l-.46-.46c-.3-.15-.61,0-.92.46C235.87,170.21,236.17,170.52,236.33,170.67Z"/><path class="cls-1" d="M239.26,80.86c-.15.31,0,.62.46.93l.46-.46c.16-.31,0-.62-.45-.93Z"/><path class="cls-1" d="M244.2,167.4c-.3-.15-.61,0-.92.46l.46.46c.3.16.61,0,.92-.45Z"/><path class="cls-1" d="M246.48,147.72l.47-.46c-.31-.46-.61-.62-.92-.47l-.46.46C245.72,147.87,246,147.87,246.48,147.72Z"/><path class="cls-1" d="M243.09,104.25l-.46-.46c-.46.3-.61.61-.46.91l.46.47A.64.64,0,0,0,243.09,104.25Z"/><path class="cls-1" d="M246.61,105c.31.15.61,0,.92-.46l-.46-.46c-.3-.16-.61,0-.92.45Z"/><path class="cls-1" d="M248.74,108.58l-.46-.46c-.46.3-.62.61-.47.92l.46.46C248.73,109.19,248.89,108.89,248.74,108.58Z"/><path class="cls-1" d="M216.44,36.68l-.46-.46c-.46.3-.62.61-.46.91l.45.47A.65.65,0,0,0,216.44,36.68Z"/><path class="cls-1" d="M242.29,120.88c-.16.3,0,.61.45.92,0,0,.31-.3.46-.46s0-.61-.45-.92C242.75,120.26,242.44,120.72,242.29,120.88Z"/><path class="cls-1" d="M251.15,144.33c.31.16.61,0,.92-.45l-.45-.47c-.31-.15-.62,0-.93.46C250.54,143.87,251,144.18,251.15,144.33Z"/><path class="cls-1" d="M250.41,138l.47-.46c-.31-.46-.61-.62-.92-.47l-.46.46C249.65,138.12,250,138.12,250.41,138Z"/><path class="cls-1" d="M246.17,139.15l.46-.45c-.3-.47-.61-.62-.92-.47l-.46.46C245.56,139.15,245.86,139.31,246.17,139.15Z"/><path class="cls-1" d="M231.26,62.27c-.3-.16-.61,0-.92.45l.46.47c.3.15.61,0,.92-.46Z"/><path class="cls-1" d="M231.58,170.18c0-.15-.15-.3-.46-.46a.56.56,0,0,0-.46-.15c-.46.3-.61.61-.31.92s.61.61,1.07.31C231.58,170.8,231.58,170.34,231.58,170.18Z"/></svg>