<svg id="Layer_1" data-name="Layer 1" xmlns="http://www.w3.org/2000/svg" viewBox="0 0 491 404"><defs><style>.cls-1{fill:#e62f48;}</style></defs><path class="cls-1" d="M300.4,340.48c2.06.45,3.35.45,3.58,1.37,1,2.66,1.7,5.4,2.55,7.46.09,2.89-4.32,1.73-1.11,5.46,0,0,1.78-1.43,2.93-.75-.29,2.67,1.23,1,1,4,1.53.91.94-3.5,2.46-2.59a11,11,0,0,1,3.13,0c1.68.22,3.14-7.79,3.22-6.19.62,2.44,6.39-5.08,7-2.65.23.92-1.84,2.62-1.6,3.53l2.66,1.59c.39,1.53,6.93-10.5,7.55-8.06-.46.76-1.06,2.21-1.74,3.36,1.31,2.59,4.64-.86,6.48,2.57,1.94,7.62-5.12-1.29-3,6.93-.68,1.15,4.3.85,3.62,2,.47,1.83-3.82,1.3-3.43,2.82,1.22,1,3.3.46,4.44,1.14-2.64,4.89,2.88-2.79,7.84.17,3-.31-.81-5.15-.73-10.08.45-.77,4,2.41,4.72,1.26-.07-.3,2-1.48,2.74-4.78.8-7-3.09-9.92-6.52-11.65-.84-.75-2-1.44-3.21-2.42.45-.77.52-1.76,1.13-1.91,1.14-.62,2.74-.7,4.26-1.09a2.56,2.56,0,0,0,2-2.14c-.46-1.83-.93-3.65-1.47-5.79-1.53-2.2-4.64.86-6.25-1.65.23-.39.38-1.07.68-1.15,2.66-1,5.4-1.69,8.06-2.69,1.45.6,2.59,1.28,4,1.89a8.24,8.24,0,0,1,2.81-.39,29.51,29.51,0,0,0,3.74,2c2.2-1.54-.86-4.65,1.65-6.26l1.14.68a5,5,0,0,0,2.14.76,2.12,2.12,0,0,0,.67-2.45,2,2,0,0,1,.29-2.67c.53-.46,1.22-.31,2.36.38,1.22,1,2.52,1,4.87.06.76-2.14,1.73-4.66,2.56-6.49l9.73-2.48c1.37.31,1.91,1.14,1.46,1.91l-2.5,4.2c-.91.23-2.35.92-3.57,1.23-1.52.39,1.67-1.07,1.15.68,1.14.68.31,1.22,1.45,1.9.31,1.22-.35,2,1.78,2.79a39,39,0,0,1,2.78-4c1.53.91,3.71-4.51,5.23-3.6.47,1.83,3.54,3.93,4.09,6.06,4-8.14,3-10.45,2.38-9,.91-2.18,3.7-3.86,5.1,1.63-.69,1.14,1.4-.6,2.23-3.49.46,1.83,1.49-6.4,1.95-4.58,4.47,1.46-2.27,9.46,1.75,6.88-.84-.76,2.84,1.23,1.62.24-.39-1.52,4.44-.92,4-2.75-1.22-1,2.21-3.69.68-4.6-.7-2.74,4.34.52,3.64-2.22.68-1.15-1.54-2.27-.86-3.41-1.17-4.57,5.43,4.84,4.27.27.6-1.45-2.14-3.35-1.24-4.88-1.7-6.7-4.41-.82-6-7.22.45-2.06,2.12-1.84,3.56-2.53a27.14,27.14,0,0,0,3.74,2c.38.23.91-.23,1.52-.38-.39-1.53-.7-2.75-1.08-4.27a27.2,27.2,0,0,1-3.51-2.35,19.93,19.93,0,0,0,1.73-3.36,27.2,27.2,0,0,0-3.51-2.35c-.62-3.74-.7-4,2.95-5,2.28,1.37,4.88,2.65,7.17,4,.38.23.91-.23,1.21-.31-.38-1.52-.69-2.74-1.08-4.27a47.06,47.06,0,0,0,2.94-5,14.21,14.21,0,0,0,3.8-2.91l-2.29-1.37c-.77-.45-.62-1.14.06-2.28a9.53,9.53,0,0,0,1-2.52c-.39-1.53-.55-3.43.67-3.74s1.76,1.82,2.37,3c.16.61,1.68,1.52,1.91,1.14a2.1,2.1,0,0,0,.67-2.44c-.39-2.82-.09-2.9,2.57-3.9.31-.08.84-.54,1.14-.61l3-5c.22-.38-.24-.91-.31-1.22a2.1,2.1,0,0,1-2.67-.29c-.84-.76-.08-1.61,2.58-2.61l-.61.16a1.93,1.93,0,0,1,.07-2.29c.45-.76,1.06-.92,2,.15.07.3-.15.68-.08,1a3.31,3.31,0,0,1-1.29,1.3,4.75,4.75,0,0,0,.09,2.9,17.45,17.45,0,0,0,4-1c.61-.15,1.21-1.6,1.05-2.21a51.91,51.91,0,0,0-1.7-6.71,2.1,2.1,0,0,1-2.67-.29c-.84-.76-.08-1.6,2-2.45-.39-1.52-.7-2.74-1.08-4.26.9-1.53,2.11-3.14,3.25-5.05l7.6-1.93a10.42,10.42,0,0,0,3.32-6c-2.37-1.67-4.64.85-6.7.4a30.28,30.28,0,0,1-2.57,3.9l-2.73.69c-2.75-1.89-5.72-3.41-8.47-5.31.45-.76.83-1.83,1.43-2,4.49-1.47,9.05,103.11,13.61,101.95.3-.08.45-.77.68-1.15a27.2,27.2,0,0,1-3.51-2.35c-.38-.23-.24-.92-.31-1.22a2.1,2.1,0,0,1-2.67-.3c-.84-.75-.08-1.6,2-2.44-.23-.92-.46-1.83-.7-2.75l-3.95,1c-.3.08-.68-.15-1.07-.38s-.76-.45-.53-.83.37-1.07.68-1.15c2.8-1.69,3.87-1.31,5.18,1.28a2,2,0,0,0,2.2-1.53c.52-1.76-.93-3.66,1-5.12l2.44-.61a22.06,22.06,0,0,0,3.66,1.66c1.59-1.38.59-2.75.13-4.57-1.53-.91-3.36-1.75-5.65-3.11-1.37-.3-3.41,1.84-5.93.86-.38-.23-.76-.46-.84-.76a1.42,1.42,0,0,1,.68-1.15,9.68,9.68,0,0,1,3-1.07,49.62,49.62,0,0,1,3-4.67c.21-3-1.09-5.56-1.49-8.38.37-2.36,1.89-4,2.79-5.57,1.67-1.08,2.81-1.69,4.18-2.69-2.67-1.59-5-3.26-7.33-4.62l3.63-6.11a1.4,1.4,0,0,0-1.38-1.6c-.38-.23-.91.23-1.52.39a2,2,0,0,1-2.66-.3c-.54-.84.44-2.06,2.27-2.52l4.25-1.09a8.42,8.42,0,0,0,2.66-1c.91-1.52,2-3.43,2.95-5-2.22-2.36-4.49.17-6.77.1-.77-.46-1.76-.53-2.52-1-3-1.51-5.72-3.41-8.77-5.23-1.15-.68-1.53-.91-1.46-1.9a2.1,2.1,0,0,1,2.2-1.53l1.22-.31a7.57,7.57,0,0,0,6.55,1.58l2.67,1.59a9.44,9.44,0,0,0,6.38-1.62c.23-.38,1.07-.92,1-1.22-.62-2.44-1.16-4.58-1.78-7l-2.74.69a2,2,0,0,1-2.66-.29c-.46-.53,0-1.3.67-2.45l.68-1.14c-1.38-2.89-4.41.47-5.94-1.73a28.43,28.43,0,0,0,2-3.75c-1.09-4.26-2.17-8.53-3.18-12.49a2.09,2.09,0,0,1-2.66-.3,4,4,0,0,1-.93-3.65,2,2,0,0,1,2.2-1.53c-.08-.31.07-1-.31-1.22a57.29,57.29,0,0,0-5.34-3.19c-.38-.22-.92.23-1.22.31l1,4c-1.36,2.29-1.36,2.29-3,2.38-1.82.46-2.28-.07-3.05-1.82a3.67,3.67,0,0,1,.67-3.74l3.95-1c-.16-.61-.61-1.14-.39-1.52a28.28,28.28,0,0,0,2-3.74l-5-3a27.84,27.84,0,0,1-2.34,3.52c-1.83-.84-2.9-2.51-1.77-4.42a9.88,9.88,0,0,0,1.27-5.19c-.31-1.22,1-2.52,2.58-2.6a2.58,2.58,0,0,0,2-2.14c-.62-2.44-1.31-5.18-2-7.92a1.38,1.38,0,0,0-2.14-.76c-.3.08-.45.76-.68,1.15l1.4,5.48c-1.66,2.37-1.66,2.37-7.29,3.15-1.37-.3-1.61-1.21-.47-1.83.84-.53,1.83-.46,2.58-1.3.54-.46,1.52-1.68,1.44-2a2.1,2.1,0,0,0-2.44-.68c-3.5.24-3.5.24-4.11-2.19l-1-4,.9-1.52c1.51-3,1.28-3.9-1.16-5.87-.84-.76-1.53-.91-1.46-1.9.38-1.07,1.29-1.3,2.2-1.53,1.83-.47,2.28-1.23,2.12-3.14a3,3,0,0,0-2.68-2.88c-1-.08-1.82.46-2.81.39-.31.07-.76-.46-1.45-.61-.46-1.83-.93-3.66-1.47-5.79a12,12,0,0,1,2-3.44c-1.53-2.2-4.72.55-6.25-1.65-.23-.92-.46-1.83-.7-2.75.6-2.74,4.49-1.46,4.7-4.43l-8.77-5.23-4.26,1.08a1.61,1.61,0,0,1-.37,2.36c.69,1.45-.22,1.68-.83,1.84a2.1,2.1,0,0,1-2.43-.68c-.08-.31.52-1.76,1.13-1.91a17.37,17.37,0,0,1,3.95-1c-.16-.61-.61-1.14-.39-1.52a27.66,27.66,0,0,1,2-3.74c-.78-3-1.48-5.79-2.17-8.53-.39-.23-1.23-1-1.15-.69-.45.77-1.29,1.3-1.13,1.91,0,1.3.7,2.75,1.08,4.27a2.1,2.1,0,0,1-.67,2.44c-2.21.24-4.33,2.07-6.92.79.21-3,2.34-4.82,3.62-7.41a28.27,28.27,0,0,1-3.51-2.35l-1.09-4.27-3.95,1a1.77,1.77,0,0,1-1.07-.38c-.38-.23-.76-.46-.53-.84s.37-1.07.68-1.15c2.8-1.68,3.87-1.3,5.18,1.28,1.29,0,2.12-.54,2.2-1.53.06-2.29-.25-4.8,1.87-6.64l-1-4c-.23-.91-.46-1.83-1.53-2.21a3.38,3.38,0,0,0-3.73.63c-1.43,2-2.49,4.2-3.92,6.19C397,94,396,94,395.85,93.34a30.58,30.58,0,0,1-1.32-5.18c.6-1.45,2.27-2.52,1.58-4-1.07-1.67-2.66-.3-3.88,0-.68,1.15-1.66,2.37-2.34,3.52l-5-3a5.51,5.51,0,0,1,1.74-2.06c1.14-.62,2.73-.7,4.25-1.09.61-.15,1-1.22,1.75-2.06l-5-3a8.55,8.55,0,0,1-2.82.39,29.35,29.35,0,0,0-3.73-2,6.12,6.12,0,0,0-2.51,1.61c-.83.54-.76-.45-.23-.91,1.06-.92,1.82-.46,1.53.91a3,3,0,0,1-1.22,1.6s-1.06-.37-.08-1.6c.91-1.52.45-2.06.68-2.44.68-1.14,1.35-2.29,2-3.44-1.14-.68-2.36-1.67-3.12-2.12A27.52,27.52,0,0,1,379.89,65c-2.67-1.59-4.71.55-7.3.56a49.43,49.43,0,0,1-4.65-3c.14-2,2.95-3.67,1-6.41l-3.44-2a27.66,27.66,0,0,0,2-3.74c-.31-1.22-.16-3.2-2.14-3.35-1.3,0-1.51,1.69-2.5,2.91-2.89.09-1.69-4.11-4.43-4.71L355,46c-1.05,2.21-2,4.73-3.16,6.64a10.75,10.75,0,0,1-3.43.55,22.14,22.14,0,0,0-3.66-1.67l-2.94,5c-.23.38.23.91.31,1.22a1.61,1.61,0,0,1,2.36.37c.46.53.69,1.45,1.23,2.28a2.11,2.11,0,0,1-.68,2.45c-.3.07-1.75-.53-1.9-1.14a17.45,17.45,0,0,1-1-4,2.28,2.28,0,0,1-3.2-1.14A14.83,14.83,0,0,1,338,52.9l-3.95,1c-.31.08-.69-.15-1.07-.38s-.77-.45-.54-.83.38-1.07.68-1.15c2.81-1.68,3.88-1.31,5.18,1.28.61-.15,1.29,0,1.52-.39a50,50,0,0,0,2.95-5c-.77-.46-1.3-1.29-1.91-1.14-1.29,0-2.74.7-4.26,1.08a2.1,2.1,0,0,1-2.43-.67c.67-1.15,1.28-2.6,2-3.75-2.37-1.67-5.71.48-7.7-2.26-.68,1.15-1.66,2.37-2.34,3.52l-5.47,1.39c-1.15-.68-2.6-1.29-3.74-2L304.1,46.91c-.91.24-2.21.24-2.44-.67-.08-.31.53-1.76,1.13-1.91,1.14-.62,2.74-.7,3.26-2.46a55.58,55.58,0,0,0-5.18-2.57,10.9,10.9,0,0,1-2.2,2.83c-3-.22-1.69-4.11-4.43-4.71l-5.78,1.46c-1.6-1.21-1.6-1.21.14-4.57L284,31.58c-3.66-.37-6.39,1.62-9.28,1.71-.9,1.53-1.36,2.29-2,3.44-3.34.85-6.91,2.08-10.64,2.7-1.52.39-2.51-1-2.6-2.58a1.82,1.82,0,0,0-.61-1.14l-2.67-1.59A9.89,9.89,0,0,1,255,31.83c-.46-1.83-.32-3.81-2.84-4.79l-2.73.69c-1.67,2.37-2.34,4.81-4.77,6.73-1.75-.53-1.53-2.21-2.22-3.65-1.52-.91-3.35-1.74-5.26-2.88L232,29.24c-1.45-.6-2.59-1.29-4-1.89a27.2,27.2,0,0,1-2.35,3.51L221.32,32l1,4c.08.3-.14.68-.37,1.07s-.45.76-.84.53-1.06-.37-1.14-.68c-1.69-2.81-1.31-3.88,1.27-5.19-.23-.91-.46-1.83-.7-2.74A2,2,0,0,0,219,26.69c-.68-.15-1.14.62-1.82,1.76-.22.39-.45.77-.68,1.15A8,8,0,0,1,211.63,27c-1.22-1-2-2.74-3.06-4.41a24,24,0,0,1-2.34,3.51,22,22,0,0,0-3.66-1.66l-3.86,6.49c-1.59.08-2.21-1.06-2.52-2.28a2.88,2.88,0,0,0-1.83-2.13,8.59,8.59,0,0,1-2.82.39c-1.36,2.29-3,4.66-4.38,7-1.75-.53-1.84-2.13-2.45-3.27a2.84,2.84,0,0,0-2.29-1.37,70,70,0,0,0-7.9,2c-2.72,4.58-2.72,4.58-6.61,3.3-.61-1.14-.17-3.2-1.84-3.42-1.29,0-1.36,2.29-2.58,2.6-2.88,1.38-6.15,2.53-9.5,2.09-1.6-1.22-1.54-3.5-2-5.33a2.11,2.11,0,0,0-1.76-1.83c-.3.08-.91,1.53-1,2.22-.08,1,.16,1.9.08,2.9.08.3-.45.76-.67,1.14l-4.26,1.08a2.3,2.3,0,0,1-1.13,3.21c-1.14.61-2.43.62-4.94,2.23-.83.53-.76-.46-.23-.92,1.06-.91,1.83-.46,1.53.91A3.14,3.14,0,0,1,138.35,43s-1.07-.38-.09-1.6a27.83,27.83,0,0,0-1.18-9.76l-4.56,1.16c-1.06,2.22-2,4.74-2.64,6.19-2.27,1.22-3.49,1.53-4.55,2.45-.83.54-.91,1.53-.22,3,.08.3-.15-.61-.15-.61a1.92,1.92,0,0,1,2.28.07c.77.45.92,1.06-.14,2-.31.08-.69-.15-1-.07a3.43,3.43,0,0,1-1.3-1.3,3.51,3.51,0,0,1-2.82-.9c-1.3-1.29-.93-3.66-3.29-4l-5.47,1.39c-.68,1.15-1.66,2.37-2.34,3.51l-2.74.7c-1.52,1.68-.37,3.66.1,5.49.39,1.52.32,2.51-.75,3.43-.38-.22-1.06-.37-1.14-.68a34.62,34.62,0,0,1-1.7-5.41c-.31-1.22-2-1.44-3.5-1A2.86,2.86,0,0,0,99,48.75c1.15.69,2,1.45,3.13,2.13a8.35,8.35,0,0,1-1.43,2,65.31,65.31,0,0,1-7.6,1.93l-5.35-3.19c-.38-1.52-.77-3-1.08-4.26-2.21.23-3-.22-3.28-1.44-.77-1.75-.93-3.66-2-5.33-.54-.84-1.53-.91-2.67-.3.86,3.36,1.63,6.4,2.48,9.76a1.38,1.38,0,0,1-1.51,1.68A1.45,1.45,0,0,1,78.57,51l-.69-2.75c-.77-.45-1.91-1.13-2.52-1-2.13.54-4.79.25-6.07,2.84A29,29,0,0,1,72.8,52.5l.69,2.75c1.46,1.9,3.66.36,5.11,1a2,2,0,0,1,1.53,2.21l4-1c.31-.08.69.15,1.07.38s.76.45.53.84-.37,1.06-.67,1.14c-2.81,1.69-3.88,1.31-5.18-1.28-.61.16-1.3,0-1.53.39a49.94,49.94,0,0,0-2.94,5c.23.91.16,1.9.39,2.81A28.4,28.4,0,0,1,79.26,69c-.75,2.13-2.27,2.52-4.32,2.07-1-.07-1.61-1.21-2.6-1.29-1.06-.38-3.19.17-3.57,1.23a2.48,2.48,0,0,0,0,2.6,3.24,3.24,0,0,0,.54.83c1.22,1,2.75,1.9,3.28,2.74,1.3,1.29.25,3.5-1.8,4.35a2.12,2.12,0,0,1-.3,2.67c-.75.84-1.59.08-2.44-2L63.8,83.34a5.59,5.59,0,0,0-1,2.52c.16,1.9,1.23,3.58.93,5-1.13,1.91-2,3.74-2.87,5.27l-4.25,1.08a2.1,2.1,0,0,0,1.53,2.21c1.75.52,3.57-1.23,5.18,1.28.08.3.31,1.21.54,2.13a9.54,9.54,0,0,1-1.74,2.06c-2.66,1-5.4,1.7-8,2.7-.31.08-.46.76-.68,1.14A30,30,0,0,1,56.93,111c.38.22.23.91.31,1.22a1.61,1.61,0,0,1,2.36.37c.46.53.69,1.44,1.22,2.28a2.08,2.08,0,0,1-.67,2.44c-.3.08-1.75-.52-1.91-1.13a18.26,18.26,0,0,1-1-4L54.5,113a2.11,2.11,0,0,0-2.2,1.53c-.15.69.31,1.22,1.38,1.6s1.52.91,1.37,1.6a2,2,0,0,1-2.2,1.53l-2.73.69c.24,2.21-.22,3-1.43,3.29-1.75.77-3.65.92-5.32,2-.84.53-.91,1.53-.29,2.67l4.56-1.16c.76.45,2,1.44,3.13,2.12.38.23.91-.23,1.82-.46l-.61.15a2,2,0,0,1,.07-2.28c.45-.77,1.06-.92,2,.14.07.31-.15.69-.07,1a3.33,3.33,0,0,1-1.29,1.3,10.85,10.85,0,0,0,.47,4.42c-1.13,1.91-1.8,4.36-4.31,6-1.59.08-3.42.54-5,.62-1-.07-1.52-.91-1.53-2.2L38,138.55c-.91,1.53-1.74,3.36-2.87,5.27a18.08,18.08,0,0,0,2.55,8.76c.53.84,1.52.91,2.66.3-.38-1.53-.69-2.75-1.08-4.27a49,49,0,0,0,2.94-5c2.36.38,2.45,2,2.38,4.26-2,1.15-1.42,4.58-4.24,5l1.09,4.26c-.23.38-.38,1.07-.68,1.15-.84.53-1.75.76-2.58,1.3-.46.77-1.29,1.3-1.74,2.07-1.44,2-2.5,4.2-3.63,6.11.08,1.6,1.68,1.52,2.6,2.58.31,2.52,3.44,4.64.56,7.32-1.14-.68-2.21-1.06-3.35-1.74-.46.76-1,1.22-.91,1.53l2.87,11.27c-.6,2.75-4.41,1.77-4.7,4.44a12.26,12.26,0,0,1,3.21,2.43l-2.95,5-2.74.7c-1.27,3.89-1.27,3.89,3,6.7a12.29,12.29,0,0,0-1.66,3.66c.92,1.07,2.22,1.06,3.74.68.6-.16,1.75.52,2.51,1l-2.94,5a15.78,15.78,0,0,0-3.27,1.16c-.6,1.45-1.43,3.28-2.71,5.88-.08-.31.68.15,1.67.22,1.29,0,2.58-1.3,4,.29a9.91,9.91,0,0,1-2.42,4.51c-1,1.22-2.73,2-4.4,3.07,2.45,2,5.19,2.57,7,4.7-.53,1.75-2.2,1.53-3.34,2.14a1.41,1.41,0,0,0-.68,1.15c-.15.69.38,1.52,1.68,1.52a34.26,34.26,0,0,0,5.47-1.39c2.9,1.21,2.3,4,2.92,6.39.16.61-.6,1.45-1.13,1.91a6.43,6.43,0,0,0-2.59-1.28,7.51,7.51,0,0,0-2.59,0,1.91,1.91,0,0,0-1.14.62c-.67,2.44-3.49,2.83-5,4.51a8,8,0,0,0-2.42,4.51c1.3,1.29,2.74.6,4,.29.68-1.14,1.66-2.37,2.34-3.51,3.51,1,1.4,5.48,3.76,7.15,2.75,1.9,5.55-2.38,8.15.2-1.36,2.29-2.64,4.89-4,7.18L38,272.2c-.29,2.68-4.56,1.16-4.69,4.44l5,3c.39.23.92-.23,2.13-.54l-.6.15a1.93,1.93,0,0,1,.06-2.28c.45-.77,1.06-.92,2,.14.08.31-.15.69-.07,1a3.26,3.26,0,0,1-1.29,1.3c-.68,1.15-.14,2,.85,2.06,1.67.22,3.27.14,5.25.29-.91,1.52-1.28,2.59-2.19,4.12a27.28,27.28,0,0,0,1.24,4.88A2.8,2.8,0,0,0,49.52,292l-.61.15a1.93,1.93,0,0,1,.06-2.28c.46-.77,1.07-.92,2,.14.08.31-.15.69-.07,1a3.26,3.26,0,0,1-1.29,1.3c-.45.77,0,1.3-.22,1.68-1.28,2.6-2.94,5-4,7.18,1.24,3.58,1.24,3.58,3.52,3.65l1.52-.39a3.49,3.49,0,0,1,2.68,4.19c-.38,1.07-.91-104.2-1.51-102.75a76.62,76.62,0,0,0,2.94,11.57c1.3,1.3,1.91,1.14,2.21-.23.07-1-.16-1.91,0-2.59a5.49,5.49,0,0,1,1-2.52l8.77,5.23a2.34,2.34,0,0,1-2.73,2c-1.89,2.75-3.1,4.36-4,5.88,2.45,2,6-.55,8.08,2.49a12,12,0,0,1,3.12-.47,49.06,49.06,0,0,0,4.88,2.66c.46,1.82.46,1.82-2,2.44l-2.73.7C72,236.65,73,240.62,74,244.27l4.26-1.08c.3-.08.76.46,1.14.68l.24.92C78.55,247,77.11,249,76,250.9a5.65,5.65,0,0,0,2.52,1,3.32,3.32,0,0,0,2.35-.92c1.44-2,2.49-4.2,3.63-6.11a8.3,8.3,0,0,1,2,1.44,4.37,4.37,0,0,1,.39,2.82c-.07,1-1.21,1.6-1.28,2.6-.3,1.37-.29,2.66.93,3.65L89.17,257a28.83,28.83,0,0,0-1.66,3.67c.24.91.47,1.83.62,2.44,1.46,1.9,3.35.44,5.11,1a2,2,0,0,1,1.53,2.21l2.73-.7c2.13-.54,3.28.14,3.82,2.28.23.91.46,1.82.7,2.74l4.25-1.08c.31-.08.77.45,1.15.68.07.3.23.91.23.91-1.06,2.22-2.49,4.2-3.63,6.11,1,1.37,2.22,1.06,3.73.68.92-.23,1.76.53,2.44.68a27.66,27.66,0,0,0-2,3.74c2.37,1.67,5.19,2.57,7,4.7a9,9,0,0,1,.09,2.9c-.07,1-.9,1.53-2.2,1.53a18,18,0,0,0,1,4c.54.84,1.6,1.22,2.13.76a10.91,10.91,0,0,1,1.36-2.3c1.74-2.06,4.18-1.38,5.18,1.28a2,2,0,0,1,2.67.3,1.92,1.92,0,0,1,.61,1.14c.39,1.53.7,2.74,1.16,4.57,3,2.81,7.25,4.32,10.84,7l1,4,7-1.78,5,3c.17,3.2-4.48,1.46-4.32,4.66,1.45.61,3,1.52,5.19,2.58l7.3-1.85c2.74.6,4.11,2.19,6.25,2.95-1.82,3.05-4.63,2.15-6.91,3.38-.07,1-.37,2.36-.44,3.35a13.79,13.79,0,0,0,6.18,3.95c1.52-.39,3.12-.47,3.34-2.15.07-1-.47-1.83-.4-2.82,0-1.3.83-1.83,1.52-1.68l1.14.68a24.66,24.66,0,0,0,3.44,2c.54,2.13,1,4,1.47,5.79L171,340.62c.4,2.82-.42,5.95,3.16,7.31l2.43-.62a29.51,29.51,0,0,1,3.74,2,2.3,2.3,0,0,0,.59-2.75c-.39-2.82.37-3.66,2.57-3.89.92-.24,1.76.52,2.44.67.23.92.47,1.83.7,2.75-.68,1.14-1.28,2.59-2,3.74.54,2.13,1,4,1.47,5.79l5,3c.68-1.15,1.66-2.37,2.34-3.52l2.74-.7c1.37.31,1.9,1.14,1.15,2-1.14,1.91-2.49,4.21-3.63,6.11,1.15.69,2.37,1.67,3.51,2.36.39,1.52,1.08,3-.21,4.27-2.28-1.37-4.88-2.66-7.17-4-.22.38-.75.84-.68,1.15.63,3.73,1.56,7.39,2.49,11,.23.92,1.3,1.3,3.5,1.06l.91-.23c3.36,1.74,5.09-4.21,9,4.85.38,1.52,4.21-1.72,3.74-3.57-1.14-.68-1.55-4.69-2.95-5.48-1.61-2.51,2.58-1.87,1.58-4.53-.55-2.14,1.36-4.87.21-6.84-1.15-.69,4.71-3.17,4-3.63-.08-.3,5.63-1.6,5.55-1.91-3.25-12.8,7.25,4,3.92-9.12.38-1.07,9.36,6.25,10.27,4.72q-.93-3.66-2.1-8.23a50,50,0,0,1,2.95-5c2.51-.32,3.81,2.27,5.79,2.42.55,2.13,1,4,1.55,6.09a17.92,17.92,0,0,1,4,.29,32.54,32.54,0,0,1,2.57-3.9l5.78-1.46c1.52.91,3.13,2.12,5,3.26a20.31,20.31,0,0,1-1.73,3.36c3.36,1.74,3.66,1.66,6.15-2.54,2.21-.24,4,2.88,6.4,1,2.29,1.36,4.88,2.65,7.25,4.32l3-.77c0-1.3.29-2.67.28-4a30.52,30.52,0,0,0-3.89-2.58l2-3.44c.68-1.14.91-1.52,1.9-1.45,1.06.38,1.29,1.29,1.53,2.21.23,2.21.92,2.36,3,1.82a2.57,2.57,0,0,1,2.66.29,1.14,1.14,0,0,1,.54.84c-.91,1.53-2.42,3.21-1.19,5.49a34.27,34.27,0,0,0,9.15,5.46c.84-.54,1.75-.77,2.58-1.3s.91-1.53.3-2.67a1.62,1.62,0,0,1-2.36-.38c-.46-.53-.69-1.44-1.23-2.28A2.11,2.11,0,0,1,294,347c.31-.08,1.75.53,1.91,1.14a18,18,0,0,1,1,4,1.61,1.61,0,0,1,2.36.37c1,1.37,1.68,2.81,2.76,4.49,3.18-2.76-.71-5.34.27-7.86l2-3.43c-2-1.45-2.29-2.67-3.9-5.18-.54-.83.45-.76.91-.23.92,1.07.47,1.83-.9,1.53a3.14,3.14,0,0,1-1.61-1.21C298.73,340.26,299.18,339.5,300.4,340.48ZM357,57.48l-8.21,2.09c-.31.08-.77-.45-1.15-.68-.46-.53-.31-1.22.45-2.06l8.21-2.09c.3-.08.76.46,1.14.68C358.17,55.88,357.71,56.64,357,57.48ZM443.18,226c1.36-2.29,3.1-3.06,5.77-1.46.09,1.6,1.85,3.42-.81,4.42A52.58,52.58,0,0,0,443.18,226Zm-26.56-99.35c2.59,1.29,3.06,3.12,1.47,5.79C415.42,130.86,415,129,416.62,126.66Zm8,21.33c-.39-.23-1.07-.38-1.15-.69l-.69-2.74c-.08-.3.45-.76.67-1.15a.6.6,0,0,1,.92-.23c1.67.22,2.45,3.27,1.16,4.57C425.31,148.13,424.93,147.91,424.63,148ZM60.41,206.2c-1.28,2.59-3.11,3.06-5.78,1.46C56.22,205,58,204.53,60.41,206.2Zm359.4,69.22c-.08-.3-.23-.91-.31-1.22l.68-1.14c.53-.46,1.21-.31,2.05.45.39.23.24.91.31,1.22a2.1,2.1,0,0,1-.29,2.67C421.42,277.93,420.27,277.25,419.81,275.42ZM210.6,34.35c-.53.46-1.22.31-2.06-.45l.68-1.15c.53-.46,1.22-.31,2.06.45C211.58,33.12,211.13,33.89,210.6,34.35ZM80.73,74.82c.46.53.31,1.21-.44,2.06l-1.15-.69c-.46-.53-.31-1.22.45-2.06Zm167.47-39,.68-1.15c.53-.46,1.21-.31,2.05.45l-.68,1.15C249.72,36.73,249,36.58,248.2,35.82Zm78.15,17.12c-.53.46-1.22.31-2.06-.45l.68-1.15c.53-.46,1.21-.31,2,.45Zm108.9,122.84,1.15.68c.46.53.31,1.22-.45,2.06l-1.15-.68C434.12,177.69,434.27,177,435.25,175.78ZM47.62,276.9c-.53.46-1.21.31-2-.45l.68-1.15c.53-.46,1.21-.31,2,.45C48.38,276.06,47.85,276.52,47.62,276.9Zm411.13-53.25-1.14-.68c.37-1.07.9-1.52,1.59-1.37l1.14.68C460,223.35,459.44,223.8,458.75,223.65Zm-2.65,36.69-1.15-.69c.38-1.06.91-1.52,1.6-1.37l1.14.68C457.32,260,456.78,260.49,456.1,260.34Zm-.94,28.14,1.14.68c-.37,1.07-.9,1.52-1.59,1.38l-1.14-.69C453.94,288.78,454.47,288.33,455.16,288.48Zm-322.38,3.78c.46.53.31,1.22-.45,2.06l-1.14-.68c-.46-.54-.31-1.22.44-2.06Zm314.68-77.39c.53-.46,1.22-.31,2.06.45l-.68,1.14c-.53.46-1.21.31-2-.45Z"/><path class="cls-1" d="M294.42,365.36c.91-1.53,1.06-2.21.68-2.44l-5-3c-.53.46-1.29,1.3-1.21,1.61A75.71,75.71,0,0,0,291,369.8c3.05,1.81,5.18,0,7.83-1,1.44-2-.24-3.51-.4-5.42a9.21,9.21,0,0,0-4,2c-.83.54-.76-.45-.23-.91,1.06-.92,1.83-.47,1.53.91a3.16,3.16,0,0,1-1.21,1.6C294.2,367,293.44,366.58,294.42,365.36Z"/><path class="cls-1" d="M179.79,357.52l-4.25,1.08c-1.15-.68-2.6-1.29-3.74-2a4.29,4.29,0,0,0-.9,2.82c.24,3.51.24,3.51-2.19,4.13l-4,1-.91,1.53c.08.31.54.84.84.76,3.35.45,6.24-.94,9.5-2.09.68-2.44,3-3.37,5-4.52A1.87,1.87,0,0,0,179.79,357.52Z"/><path class="cls-1" d="M48,50.38c-1.83-2.13-4.64.85-6.25-1.66L41,46a1.4,1.4,0,0,0-1.15-.68c-.68-.15-1.52.38-1.51,1.68a38.16,38.16,0,0,0,1.47,5.79c-.76.84-1.44,2-2.42,3.21,2.44,2,4.57.14,6.77-.1C46.17,54.73,46.54,52.36,48,50.38Z"/><path class="cls-1" d="M75.64,42.05l-1.21.31c-3.65.92-3.65.92-5.11-2.27a2.86,2.86,0,0,0-4.27-1.51,8.58,8.58,0,0,0-1.44,2l1,4c2-.85,3.28,1.43,5.87,1.42a17,17,0,0,0,4-1C75.65,44.64,76.64,43.42,75.64,42.05Z"/><path class="cls-1" d="M198.48,383.91a1.57,1.57,0,0,0-1.76-.53,5.82,5.82,0,0,1-5.4-.9,1,1,0,0,0-.69-.15c-1.21,1.61-2.12,3.14-3.33,4.74l5.35,3.19a11.58,11.58,0,0,1,3.11-.47A26.22,26.22,0,0,1,198.48,383.91Z"/><path class="cls-1" d="M473.15,295.58c-.08-1.6-1.23-2.28-2.83-2.2a26.47,26.47,0,0,0-4.86,1.24,24,24,0,0,1-2.34,3.51l-4,1c.24.91.47,1.82.7,2.74l7-1.78c.68-1.15,1.67-2.37,2.35-3.52Z"/><path class="cls-1" d="M100.36,292.06l5,3,2.74-.69c.68-1.15,1.2-2.91,2.34-3.52s1.75-.77.83-1.83c-.38-.23-.84-.76-1.15-.68a20.27,20.27,0,0,0-9.42,2.39A2.34,2.34,0,0,1,100.36,292.06Z"/><path class="cls-1" d="M41,70a20,20,0,0,1-3.35-1.75c-1.15-.68-1.53-.91-2.06-.45a2,2,0,0,0-.29,2.67c.07.31.23.92.38,1.53A20.79,20.79,0,0,0,39,73.74c.31,1.22.54,2.13.78,3.05.07.3.76.45,1.14.68a1.4,1.4,0,0,0,1.59-1.38Z"/><path class="cls-1" d="M138.19,311l-4.26,1.08c-1.14-.68-2.59-1.29-3.73-2-1.52.38-3.12.47-3.57,2.53l4.58,2.73a8.81,8.81,0,0,0,6.69-1.7A2,2,0,0,0,138.19,311Z"/><path class="cls-1" d="M464.15,237.23l-7,1.77c-1.35,3.59-1.35,3.59,1.39,5.49.68-1.15,1.44-2,2.12-3.13.76.45,1.07.37,1.53.91.84.75,1.6,1.21,2.44.67a2,2,0,0,0,.29-2.67A10.56,10.56,0,0,1,464.15,237.23Z"/><path class="cls-1" d="M413.67,97.24l-3.95,1a3,3,0,0,0-.67,3.74c.77,1.75,1.23,2.28,3.05,1.82,1.22-.31,1.22-.31,3-2.38A22.28,22.28,0,0,1,413.67,97.24Z"/><path class="cls-1" d="M445,123.67c-1.68-.22-3.05-.52-4-.6-2.5,1.61-2.87,4-4.61,6,1.67.23,3,.53,4,.6C442.57,128.18,442.94,125.81,445,123.67Z"/><path class="cls-1" d="M440.2,159.6l2.95-5c-1.15-.68-2.9-1.21-3.21-2.43-.61-1.14-.77-1.75-1.83-.83-.23.38-.76.84-.68,1.15a12.87,12.87,0,0,0,1.71,6.7A4.41,4.41,0,0,1,440.2,159.6Z"/><path class="cls-1" d="M469.29,248.55c-1.9,1.46-2.27,3.82-3.86,5.2,1.76,1.82,3.12.83,4.34.52a29,29,0,0,1,2.34-3.52c1.44-2,1.36-2.29-.31-2.51A6.12,6.12,0,0,0,469.29,248.55Z"/><path class="cls-1" d="M473.63,250.37l1,4a3,3,0,0,0,3.73.67c1.75-.77,2.28-1.23,1.81-3.05-.31-1.22-.31-1.22-2.37-3A22.2,22.2,0,0,1,473.63,250.37Z"/><path class="cls-1" d="M163.33,334.77l-2.74.7a29.35,29.35,0,0,0-3.73-2c-1.05,3.51-1.05,3.51,1.69,5.41l5.48-1.39c.3-.08.45-.77.68-1.15C165.16,335.61,164.62,334.77,163.33,334.77Z"/><path class="cls-1" d="M247.11,351.11c.69,2.74,1.39,5.49,2.09,8.23.07.3.76.45,1.14.68.69.15,1.22-.31,1.52-1.68l-2.1-8.23c-.07-.3-.76-.45-1.14-.68C247.93,349.28,247.48,350,247.11,351.11Z"/><path class="cls-1" d="M373.29,356c1.44-2,1.36-3.59-.32-5.11a23.28,23.28,0,0,0-4.66-3c-1.43,2-1.35,3.59.33,5.1A23.11,23.11,0,0,0,373.29,356Z"/><path class="cls-1" d="M283.45,6.55c2.37,1.67,4.19,1.2,5.78-1.47-1.15-.68-2.59-1.29-3.74-2s-1.52-.91-2.06-.45a2,2,0,0,0-.29,2.67C283.52,5.55,283.38,6.24,283.45,6.55Z"/><path class="cls-1" d="M97.67,33.21a17.91,17.91,0,0,0,4-1c.61-.15.68-1.15,1.14-1.91l-4.58-2.73c-.46.77-1.29,1.3-1.14,1.91C96.75,30.85,97.36,32,97.67,33.21Z"/><path class="cls-1" d="M88.85,34.15c-2.37-1.67-4.19-1.21-5.78,1.47,1.15.68,2.59,1.29,3.74,2s1.52.91,2,.45a2,2,0,0,0,.3-2.67Z"/><path class="cls-1" d="M136.32,32.46a17.21,17.21,0,0,0,4-1c.61-.15.69-1.15,1.14-1.91l-4.58-2.73c-.45.76-1.29,1.3-1.13,1.91C135.4,30.1,136,31.25,136.32,32.46Z"/><path class="cls-1" d="M198.3,22.88l2.94-5c-1-2.67-2.82-.91-4.42-.82C195.24,19.76,196,21.51,198.3,22.88Z"/><path class="cls-1" d="M331.2,32.56c-3.2-1.13-3.2-1.13-5.47,1.39.69,1.45,0,3.89,2.83,3.5A48.34,48.34,0,0,1,331.2,32.56Z"/><path class="cls-1" d="M43.84,128.31a2.16,2.16,0,0,0-2.27,2.53,47.23,47.23,0,0,0,1.62,6.4,2.17,2.17,0,0,0,2.28-2.53Z"/><path class="cls-1" d="M400.9,82.65c-.54-2.14-1.16-4.57-1.71-6.71-.15-.61-1.14-.68-1.9-1.13,0,0-.76.84-.68,1.14.24,2.21.47,4.42,1.93,6.32C399.07,83.11,400,82.88,400.9,82.65Z"/><path class="cls-1" d="M6.79,248.68c-1.67,2.36-.9,4.12,1.47,5.78.68-1.14,1.28-2.59,2-3.74.76-.84.91-1.52.45-2.06A2,2,0,0,0,8,248.37C7.78,248.75,7.39,248.52,6.79,248.68Z"/><path class="cls-1" d="M439.25,150.76a17.37,17.37,0,0,0,3.95-1c.61-.15.68-1.15,1.13-1.91l-4.57-2.73c-.46.77-1.29,1.3-1.14,1.91C438.33,148.4,438.94,149.54,439.25,150.76Z"/><path class="cls-1" d="M453.62,165.27l-2.95,5c1,2.66,2.82.9,4.42.82C456.37,168.46,455.61,166.71,453.62,165.27Z"/><path class="cls-1" d="M41.39,295.68c-.69-1.45-.17-3.2-1.84-3.43s-1.52,1.68-2.27,2.53c-.23.38-.46.76-.68,1.14l-.68,1.15Q39.36,299.11,41.39,295.68Z"/><path class="cls-1" d="M467.66,276.54c-.7-4,.12-7.17-3.23-8.91-1.52,1.68-.45,3.35-.29,5.26C464.53,274.41,465.15,275.56,467.66,276.54Z"/><path class="cls-1" d="M489.22,282.41c1.13-3.2,1.13-3.2-1.39-5.48-1.44.69-3.88,0-3.49,2.83C485.87,280.67,487.7,281.5,489.22,282.41Z"/><path class="cls-1" d="M472.15,221.57c2.37,1.67,4.11.9,5.78-1.47-1.15-.68-2.6-1.29-3.74-2-.84-.76-1.53-.91-2.06-.45a2,2,0,0,0-.29,2.67Z"/><path class="cls-1" d="M455.51,227.42c.3-.08.84-.54,1.22-.31l3.43,2a7.55,7.55,0,0,0,1.13-1.91c0-1.3-.62-2.44-1-4l-5.78,1.47A7.74,7.74,0,0,1,455.51,227.42Z"/><path class="cls-1" d="M460.33,233.66c1.3,1.29,3.51,1.05,3.82,3.57.31-.08,1,.07,1.22-.31a3.47,3.47,0,0,0,.05-4.88c-.53-.84-2.51-1-3.65-.37A8.45,8.45,0,0,0,460.33,233.66Z"/><path class="cls-1" d="M454.12,256.32c-2.37-1.67-4.19-1.2-5.78,1.47,1.14.68,2.59,1.29,3.74,2s1.52.91,2.06.45a2,2,0,0,0,.29-2.67C454.05,257.31,454.2,256.63,454.12,256.32Z"/><path class="cls-1" d="M436.14,268.35a2.11,2.11,0,0,0,1.53,2.21c2.36.37,4.41-.47,6.46-1.32.3-.08.68-1.14.68-1.14-.46-.54-1.3-1.3-1.91-1.14C440.32,267,438.27,267.81,436.14,268.35Z"/><path class="cls-1" d="M449,284.55c2.37,1.67,4.19,1.21,5.78-1.47-1.14-.68-2.59-1.29-3.74-2s-1.52-.91-2-.45a2,2,0,0,0-.3,2.67C449.06,283.56,448.84,283.94,449,284.55Z"/><path class="cls-1" d="M175.58,352.42a2.12,2.12,0,0,0,1.54,2.21c1.14.68,2.81.9,2.67,2.89,2.05-.85,2.5-1.61,2.2-2.83-.24-2.21-1.46-3.2-3.59-2.66A8.86,8.86,0,0,0,175.58,352.42Z"/><path class="cls-1" d="M374.38,325.9c-1.67,2.37-1.2,4.2,1.47,5.79.68-1.15,1.28-2.6,2-3.74s.91-1.53.45-2.06a2,2,0,0,0-2.67-.3C375.37,326,374.68,325.82,374.38,325.9Z"/><path class="cls-1" d="M261.53,360.75l4-1c1.89-2.75,1.51-3-.71-5.33C262.13,358,261.82,358.08,261.53,360.75Z"/><path class="cls-1" d="M256.76,364.88c.84,2.05,1.6,2.51,2.82,2.2,2.51-.31,3.19-1.46,2.65-3.59-.23-.92-.47-1.83-.7-2.74-1.9.15-2.2,1.53-2.88,2.67C258.28,364.49,257.74,365,256.76,364.88Z"/><path class="cls-1" d="M225.36,368.15c2.2-1.53,2.2-1.53,4-5.88-3.12-.83-3.43-.75-5,1.92C224.67,365.41,225,366.63,225.36,368.15Z"/><path class="cls-1" d="M229.11,371.42c-1.3-1.29-3.51-1.06-3.82-3.57-.31.08-1-.07-1.22.31a3.47,3.47,0,0,0,0,4.88c.53.84,2.51,1,3.65.37C228.51,372.87,228.65,372.18,229.11,371.42Z"/><path class="cls-1" d="M240.26,389.12l-.68,1.15c-.15.68.31,1.21,1.68,1.51l5.47-1.39c.23-.38.46-.76.68-1.14.15-.69-.31-1.22-1.68-1.52Z"/><path class="cls-1" d="M172.93,17.32c1.67-2.37,1.2-4.2-1.47-5.79C169.8,13.9,170.34,16,172.93,17.32Z"/><path class="cls-1" d="M75.64,42.05l2.74-.7a20.19,20.19,0,0,0-1.09-4.26c-.61-1.14-1.6-1.22-2.05-.45-.23.38-.76.84-.68,1.14C75,39.31,75.26,40.52,75.64,42.05Z"/><path class="cls-1" d="M86.32,48.42a17.45,17.45,0,0,0,4-1c.6-.15,1.21-1.6,1.13-1.91A2.12,2.12,0,0,0,89,44.82a7.81,7.81,0,0,0-2.28,1.23C85.78,46.28,85.71,47.27,86.32,48.42Z"/><path class="cls-1" d="M53.53,83.68a2.11,2.11,0,0,0,1.53,2.2c1.07.38,1.67-1.07,1.21-2.9-.08-.3-.23-.91-.31-1.22l-1.15-.68q-1-.22-1.59,1.38C53,82.84,53.46,83.37,53.53,83.68Z"/><path class="cls-1" d="M55.77,91.22c1,1.37,4,.59,4.56-1.16a.59.59,0,0,0-.23-.92c-1-1.37-4-.59-4.56,1.16Z"/><path class="cls-1" d="M314.56,38.41c1.83-.46,2.81-1.68,2-2.44a2,2,0,0,0-2.67-.3l-1.21.31c-.76.84-1.21,1.61-.45,2.06.38.23.84.76,1.15.68Z"/><path class="cls-1" d="M34.94,129c-2.37-1.67-4.19-1.2-5.78,1.47C31.83,132,33.66,131.55,34.94,129Z"/><path class="cls-1" d="M378.24,52.07a2.1,2.1,0,0,0-2.2,1.54c-.3,1.37,1.15,2,3,1.51l1.22-.31c.22-.38.45-.76.68-1.14.15-.69-.31-1.22-1.38-1.6A1.9,1.9,0,0,0,378.24,52.07Z"/><path class="cls-1" d="M397.13,56.36a18,18,0,0,0-1-4c-.15-.61-1.6-1.22-1.91-1.14a2.11,2.11,0,0,0-.67,2.44A7.25,7.25,0,0,0,394.77,56,1.62,1.62,0,0,0,397.13,56.36Z"/><path class="cls-1" d="M415.92,55.15c-1.37,1-.59,4,1.16,4.57a.58.58,0,0,0,.91-.23c1.37-1,.59-4.05-1.16-4.57Z"/><path class="cls-1" d="M388.74,70.49c.47,1.83,1.69,2.82,2.45,2a2,2,0,0,0,.29-2.67c-.08-.3-.23-.91-.31-1.21-.84-.76-1.6-1.22-2.06-.45-.22.38-.75.84-.68,1.14S388.67,70.19,388.74,70.49Z"/><path class="cls-1" d="M410,71.26c1.82-.47,2.81-1.69,2-2.45a2,2,0,0,0-2.67-.3l-1.21.31c-.76.84-1.21,1.61-.45,2.06.38.23.84.76,1.14.69Z"/><path class="cls-1" d="M413.67,97.24a17.88,17.88,0,0,0,3.95-1c.61-.16,1.21-1.61,1.14-1.91a2.1,2.1,0,0,0-2.44-.68A7.36,7.36,0,0,0,414,94.88,1.63,1.63,0,0,0,413.67,97.24Z"/><path class="cls-1" d="M459.86,107.9l.91-.23c1.29-1.3.21-4.27-1.16-4.57l-.91.23c-.23.39-.76.85-.68,1.15l.69,2.74C458.79,107.53,459.48,107.68,459.86,107.9Z"/><path class="cls-1" d="M13.3,298c2.37,1.67,4.19,1.2,5.78-1.47C16.41,295,14.58,295.41,13.3,298Z"/><path class="cls-1" d="M457.66,200.25a2.1,2.1,0,0,0,2.2-1.53,4,4,0,0,0-.93-3.66,2,2,0,0,0-2.67-.29Z"/><path class="cls-1" d="M32.81,210.94l.91-.23c1.29-1.3.21-4.27-1.16-4.57l-.91.23c-.23.38-.76.84-.68,1.15l.69,2.74C31.74,210.56,32.43,210.71,32.81,210.94Z"/><path class="cls-1" d="M484.45,270c-2.37-1.67-4.19-1.2-5.78,1.47C481.34,273.06,483.17,272.6,484.45,270Z"/><path class="cls-1" d="M100.41,269.34a17.5,17.5,0,0,0-4,1c-.61.15-1.21,1.6-1.13,1.91a2.1,2.1,0,0,0,2.44.68,7.63,7.63,0,0,0,2.27-1.23C100.88,271.17,101,270.48,100.41,269.34Z"/><path class="cls-1" d="M473.15,295.58a17.45,17.45,0,0,0,1,4c.15.61,1.6,1.22,1.9,1.14a2.1,2.1,0,0,0,.68-2.44,7.3,7.3,0,0,0-1.23-2.29A1.62,1.62,0,0,0,473.15,295.58Z"/><path class="cls-1" d="M121.73,306.1c2.58-1.31,3-2.38,1.27-5.19-.08-.31-.76-.46-1.14-.68-.31.07-.53.45-.84.53a1.63,1.63,0,0,0-.37,1.07C121,303.35,121.42,304.88,121.73,306.1Z"/><path class="cls-1" d="M119,306.79a18,18,0,0,0-1-4c-.16-.61-1.61-1.21-1.91-1.14a2.11,2.11,0,0,0-.67,2.45,7.54,7.54,0,0,0,1.22,2.28A1.61,1.61,0,0,0,119,306.79Z"/><path class="cls-1" d="M460.51,222.9c2.58-1.3,3-2.37,1.27-5.18-.07-.31-.76-.46-1.14-.69-.31.08-.53.46-.84.54-.22.38-.45.77-.37,1.07C459.89,220.47,460.2,221.69,460.51,222.9Z"/><path class="cls-1" d="M101.58,326.14c1.66-2.37,1.2-4.2-1.47-5.79C98.52,323,99,324.85,101.58,326.14Z"/><path class="cls-1" d="M473.36,237.81a18,18,0,0,0,4-1c.6-.15,1.21-1.6,1.13-1.91a2.1,2.1,0,0,0-2.44-.68,7.58,7.58,0,0,0-2.28,1.23C472.59,236.05,472.83,237,473.36,237.81Z"/><path class="cls-1" d="M131.15,336.79c-1.66,2.37-1.2,4.2,1.47,5.79C134.21,339.91,133.74,338.08,131.15,336.79Z"/><path class="cls-1" d="M165.74,345.52l.91-.23c1.29-1.31.21-4.27-1.16-4.58l-.92.24c-.22.38-.75.84-.67,1.14l.69,2.74C164.67,345.14,165.35,345.29,165.74,345.52Z"/><path class="cls-1" d="M175.58,352.42c-1.3-2.59-2.37-3-5.18-1.28-.3.08-.45.77-.68,1.15.08.31.46.53.54.84.38.22.76.45,1.07.37A20.09,20.09,0,0,0,175.58,352.42Z"/><path class="cls-1" d="M158.12,360.11c-1.67,2.37-1.2,4.19,1.47,5.79C160.87,363.3,160.4,361.47,158.12,360.11Z"/><path class="cls-1" d="M270,358.58a2.12,2.12,0,0,0,1.54,2.21c1.06.38,1.66-1.08,1.2-2.9-.08-.31-.23-.92-.31-1.22l-1.14-.69c-.69-.15-1.22.31-1.6,1.38C269.81,357.67,270,358.28,270,358.58Z"/><path class="cls-1" d="M210,388.39a2.08,2.08,0,0,0-2.2,1.53c-.38,1.07,1.07,1.67,2.89,1.21l1.22-.31.68-1.15q.23-1-1.38-1.59C210.8,387.85,210.27,388.31,210,388.39Z"/><path class="cls-1" d="M217.85,373a17.5,17.5,0,0,0-3.95,1c-.61.15-1.21,1.6-1.13,1.91a2.11,2.11,0,0,0,2.44.68,7.63,7.63,0,0,0,2.27-1.23A1.62,1.62,0,0,0,217.85,373Z"/><path class="cls-1" d="M251.75,389.77c-1.36,1-.59,4,1.16,4.57a.6.6,0,0,0,.92-.23c1.36-1,.59-4.05-1.17-4.58C252.28,389.31,252.06,389.69,251.75,389.77Z"/><path class="cls-1" d="M218,402.23c2.37,1.67,4.19,1.21,5.78-1.47C221.13,399.17,219.3,399.64,218,402.23Z"/><path class="cls-1" d="M51.22,243.89c-2.37-1.67-4.19-1.2-5.78,1.47C47.81,247,49.63,246.57,51.22,243.89Z"/><path class="cls-1" d="M341.34,380c1.67-2.37,1.2-4.2-1.47-5.79C338.59,376.76,339.05,378.58,341.34,380Z"/><path class="cls-1" d="M149.83,1.15q-.22,1,1.38,1.59l.68-1.14c.15-.69-.31-1.22-1.38-1.6Z"/><path class="cls-1" d="M95.64,21.39c.68.15,1.22-.3,1.59-1.37l-1.14-.69c-.69-.15-1.22.31-1.6,1.38Z"/><path class="cls-1" d="M84.33,27.84c-.85-2.06-1.23-2.29-3.43-2.05C81.44,27.92,81.74,27.85,84.33,27.84Z"/><path class="cls-1" d="M84.64,29.06c.08.3.46.53,1.14.68a1.13,1.13,0,0,0,1,.07c.76-.84.91-1.53.15-2s-1.53-.91-2.29-.07C84,27.91,84.26,28.83,84.64,29.06Z"/><path class="cls-1" d="M138.92,18.5c.84.76,1.53.91,2.06.45l.68-1.14c-.84-.76-1.53-.91-2.06-.45C139,17.51,139.15,18.12,138.92,18.5Z"/><path class="cls-1" d="M45,46.27q1,.23,1.59-1.38l-1.15-.68q-1-.23-1.59,1.38Z"/><path class="cls-1" d="M95.4,35.73s.84.76,1.14.68a3.16,3.16,0,0,0,1.21-1.6c.3-1.38-.46-1.83-1.52-.91A6.68,6.68,0,0,0,95.4,35.73Z"/><path class="cls-1" d="M120.12,33.66c.3-.07.53-.46.68-1.14a1.13,1.13,0,0,0,.07-1c-.84-.76-1.52-.91-2-.15s-.9,1.53-.06,2.29C118.9,34,119.51,33.82,120.12,33.66Z"/><path class="cls-1" d="M62.35,48.35c2.05-.85,2.28-1.23,2-3.44C62.34,45.75,62.12,46.14,62.35,48.35Z"/><path class="cls-1" d="M57.17,47.07s-.75.84-.68,1.14c.46.54,1,1.37,1.61,1.22,1.37.3,1.82-.47.9-1.53C58.85,47.29,57.86,47.22,57.17,47.07Z"/><path class="cls-1" d="M30.28,55.85,31,54.7c-.84-.76-1.53-.91-2.06-.45l-.68,1.15C29.14,56.46,29.75,56.31,30.28,55.85Z"/><path class="cls-1" d="M229.43,7.83l1.14.68c.76-.84.91-1.53.45-2.06l-1.14-.68C229.12,6.61,229,7.29,229.43,7.83Z"/><path class="cls-1" d="M166.49,23.82c.15-.68-.31-1.22-1.37-1.59,0,0-.46.76-.68,1.14-.15.69.31,1.22,1.37,1.6C166.12,24.89,166.27,24.2,166.49,23.82Z"/><path class="cls-1" d="M116.63,36.5s.84.76,1.15.68A3.14,3.14,0,0,0,119,35.57c.3-1.37-.47-1.83-1.53-.91C117.16,34.74,116.78,35.81,116.63,36.5Z"/><path class="cls-1" d="M101.74,40.28c.14-.68-.31-1.22-1.38-1.59,0,0-.46.76-.68,1.14-.15.69.31,1.22,1.38,1.6C101.36,41.35,101.51,40.66,101.74,40.28Z"/><path class="cls-1" d="M59.62,49c.84,2.06,1.61,2.51,2.44,2a2,2,0,0,0,.29-2.67Z"/><path class="cls-1" d="M54,52.41c.15-.68-.31-1.21-1.37-1.59L52,52c-.15.69.31,1.22,1.37,1.6Z"/><path class="cls-1" d="M106.84,42.55q1,.23,1.59-1.38l-1.14-.68c-.68-.15-1.22.31-1.59,1.38Z"/><path class="cls-1" d="M206.05,20.26q1,.22,1.59-1.38s-.76-.46-1.15-.68c-.68-.15-1.21.31-1.59,1.37C205,19.88,205.66,20,206.05,20.26Z"/><path class="cls-1" d="M180.13,26.52l1.14.68c.76-.84.91-1.53.45-2.06l-1.15-.68A1.4,1.4,0,0,0,180.13,26.52Z"/><path class="cls-1" d="M157.63,32.24l1.14.68c.76-.84.91-1.53.45-2.06l-1.14-.68A1.4,1.4,0,0,0,157.63,32.24Z"/><path class="cls-1" d="M141.13,34.81s-.76.84-.68,1.15c.46.53,1,1.37,1.6,1.21,1.37.3,1.83-.46.91-1.53A3.16,3.16,0,0,0,141.13,34.81Z"/><path class="cls-1" d="M241.93,13.73c.15-.69-.31-1.22-1.37-1.6l-.68,1.15c-.15.69.31,1.22,1.37,1.6C241.56,14.8,241.71,14.11,241.93,13.73Z"/><path class="cls-1" d="M212.53,24.12l1.15.69c.75-.85.9-1.53.44-2.06L213,22.06C212.22,22.9,212.07,23.59,212.53,24.12Z"/><path class="cls-1" d="M59.6,63c.15-.68-.31-1.21-1.37-1.59,0,0-.46.76-.68,1.14-.15.69.31,1.22,1.37,1.6C58.92,64.14,59.38,63.38,59.6,63Z"/><path class="cls-1" d="M52.3,63.55l-.68,1.15c.84.76,1.53.91,2.06.45L54.36,64C53.52,63.24,52.83,63.09,52.3,63.55Z"/><path class="cls-1" d="M67,62.74l-.68,1.15c.84.76,1.53.91,2.06.45L69,63.19C68.2,62.43,67.51,62.28,67,62.74Z"/><path class="cls-1" d="M259.3,18.4l1.15.68c.76-.84.91-1.53.45-2.06l-1.15-.68C259,17.18,258.85,17.87,259.3,18.4Z"/><path class="cls-1" d="M62.21,66.87,61.53,68c.84.76,1.52.91,2.06.45l.67-1.15C63.42,66.56,62.74,66.41,62.21,66.87Z"/><path class="cls-1" d="M49.4,77.59l1.14.68c.76-.84.91-1.52.45-2.06l-1.15-.68C49.09,76.37,48.94,77.06,49.4,77.59Z"/><path class="cls-1" d="M308.53,12.22c-.39-.22-1.15-.68-1.15-.68-.75.84-.9,1.53-.45,2.06l1.15.68A1.32,1.32,0,0,0,308.53,12.22Z"/><path class="cls-1" d="M59.07,78.7q1,.22,1.59-1.38l-1.15-.68q-1-.23-1.59,1.38Z"/><path class="cls-1" d="M323.52,13.93c-.68-.15-1.21.3-1.59,1.37l1.15.69q1,.22,1.59-1.38S323.91,14.15,323.52,13.93Z"/><path class="cls-1" d="M71,82.17c-.84-2.06-1.61-2.51-2.44-2a2,2,0,0,0-.29,2.67Z"/><path class="cls-1" d="M266.76,35c.69.15,1.22-.3,1.59-1.37l-1.14-.69c-.69-.15-1.22.31-1.6,1.38Z"/><path class="cls-1" d="M391,18.41l-.68,1.14c.84.76,1.52.91,2.05.45l.68-1.14C392.21,18.1,391.53,18,391,18.41Z"/><path class="cls-1" d="M54.65,95.72s-.76.84-.68,1.15c.46.53,1,1.36,1.61,1.21,1.37.3,1.82-.46.9-1.53C56.33,95.94,55.34,95.87,54.65,95.72Z"/><path class="cls-1" d="M372.51,15l.68-1.14c-.84-.76-1.52-.91-2.06-.45-.22.38-.68,1.14-.68,1.14C371.3,15.27,372,15.42,372.51,15Z"/><path class="cls-1" d="M338.25,27.2l-1.14-.68c-.76.84-.91,1.53-.45,2.06l1.15.68A1.4,1.4,0,0,0,338.25,27.2Z"/><path class="cls-1" d="M304.51,35.78l-1.15-.68c-.76.84-.91,1.53-.45,2.06l1.15.68A1.41,1.41,0,0,0,304.51,35.78Z"/><path class="cls-1" d="M356.63,18.86c-.15.69.31,1.22,1.38,1.6l.68-1.15c.15-.69-.31-1.22-1.38-1.6C357.24,17.41,356.86,18.48,356.63,18.86Z"/><path class="cls-1" d="M38.68,114.38c-.76.84-.91,1.52-.45,2.06l1.15.68c.75-.84.9-1.53.44-2.06Z"/><path class="cls-1" d="M377.54,31.49c-.76.84-.91,1.53-.45,2.06l1.14.68c.76-.84.91-1.52.45-2.06S377.92,31.72,377.54,31.49Z"/><path class="cls-1" d="M358.16,36.74q-1-.23-1.59,1.38l1.14.68q1,.23,1.59-1.38Z"/><path class="cls-1" d="M407.24,29c.15-.69-.31-1.22-1.38-1.6l-.67,1.15c-.15.69.3,1.22,1.37,1.6Z"/><path class="cls-1" d="M384.85,33.53l-1.14-.69c-.76.84-.91,1.53-.45,2.06l1.14.69C385.16,34.74,385.31,34.06,384.85,33.53Z"/><path class="cls-1" d="M343.28,44.42c.84.76,1.52.91,2.05.45l.68-1.15c-.84-.76-1.52-.91-2.05-.45C343.73,43.65,343.5,44,343.28,44.42Z"/><path class="cls-1" d="M48.44,118.39s-.76.84-.68,1.14c.46.53,1,1.37,1.6,1.22,1.37.3,1.82-.47.91-1.53A3.1,3.1,0,0,0,48.44,118.39Z"/><path class="cls-1" d="M384.76,47.17l.68-1.14c-.84-.76-1.53-.91-2.06-.45-.22.38-.68,1.14-.68,1.14C383.54,47.48,384.23,47.63,384.76,47.17Z"/><path class="cls-1" d="M384.86,52.66l1.15.68c.75-.84.9-1.52.44-2.06l-1.14-.68A1.32,1.32,0,0,0,384.86,52.66Z"/><path class="cls-1" d="M397.44,57.58c.08.3.46.53,1.14.68a1.13,1.13,0,0,0,1,.07c.76-.84.91-1.53.15-2s-1.53-.91-2.29-.07A1.93,1.93,0,0,0,397.44,57.58Z"/><path class="cls-1" d="M429.24,56.63l.68-1.15c-.84-.76-1.53-.91-2.06-.45l-.68,1.15C428,56.94,428.71,57.09,429.24,56.63Z"/><path class="cls-1" d="M460.24,124.91q1,.23,1.59-1.38l-1.14-.68q-1-.22-1.59,1.38Z"/><path class="cls-1" d="M402.89,68.84c.15-.69-.31-1.22-1.38-1.6l-.68,1.15c-.14.69.31,1.22,1.38,1.6Z"/><path class="cls-1" d="M9.75,145.74c.84.76,1.53.91,2.06.45.22-.39.68-1.15.68-1.15-.84-.76-1.53-.91-2.06-.45Z"/><path class="cls-1" d="M25.23,171c.39.22,1.15.68,1.15.68.76-.84.91-1.53.45-2.06l-1.15-.68C24.92,169.78,24.78,170.46,25.23,171Z"/><path class="cls-1" d="M401.21,83.87c.08.3.46.53,1.14.68a1.13,1.13,0,0,0,1,.07c.76-.84.91-1.53.14-2s-1.52-.91-2.28-.07C400.9,82.65,401.05,83.26,401.21,83.87Z"/><path class="cls-1" d="M424.78,96.37c.15-.69-.31-1.22-1.38-1.6l-.68,1.15c-.15.68.31,1.22,1.38,1.59C424.4,97.44,424.55,96.75,424.78,96.37Z"/><path class="cls-1" d="M456.43,90.61l.68-1.15c-.84-.76-1.52-.91-2.05-.45l-.68,1.15A1.39,1.39,0,0,0,456.43,90.61Z"/><path class="cls-1" d="M454.32,95q-1-.23-1.59,1.38l1.15.68q1,.23,1.59-1.38C455.77,95.64,454.7,95.27,454.32,95Z"/><path class="cls-1" d="M9.29,212.68l-.68,1.15c.84.76,1.52.91,2.06.45.22-.39.68-1.15.68-1.15C10.5,212.37,9.82,212.22,9.29,212.68Z"/><path class="cls-1" d="M13.42,217.47l-.68,1.15c.84.76,1.53.9,2.06.45.22-.39.68-1.15.68-1.15C14.64,217.16,14,217,13.42,217.47Z"/><path class="cls-1" d="M422.28,117.11c-.15.69.31,1.22,1.38,1.6l.68-1.15q.23-1-1.38-1.59C422.66,116,422.51,116.73,422.28,117.11Z"/><path class="cls-1" d="M478.67,128.33c.15-.68-.31-1.22-1.38-1.59l-.68,1.14c-.15.69.31,1.22,1.38,1.6Z"/><path class="cls-1" d="M9.79,240.13c-.15.68.31,1.22,1.38,1.59l.68-1.14c.15-.69-.31-1.22-1.38-1.6C10.09,238.75,10,239.74,9.79,240.13Z"/><path class="cls-1" d="M452.15,142.93c.84.77,1.53.92,2.06.46.22-.39.68-1.15.68-1.15-.84-.76-1.53-.91-2.06-.45Z"/><path class="cls-1" d="M448.61,150.65l1.14.68c.76-.84.91-1.53.45-2.06l-1.14-.68A1.31,1.31,0,0,0,448.61,150.65Z"/><path class="cls-1" d="M459.21,156.71l1.15.68c.75-.84.9-1.52.44-2.06l-1.14-.68C458.9,155.49,458.75,156.18,459.21,156.71Z"/><path class="cls-1" d="M470.59,165.82l1.15.68c.75-.84.9-1.52.44-2.06l-1.14-.68C470.28,164.6,470.13,165.29,470.59,165.82Z"/><path class="cls-1" d="M19.78,279.43c-.15.69.31,1.22,1.38,1.6l.68-1.14c.15-.69-.31-1.22-1.38-1.6C20.16,278.36,20,279.05,19.78,279.43Z"/><path class="cls-1" d="M13.33,282.05c.15-.69-.31-1.22-1.38-1.6l-.68,1.15q-.23,1,1.38,1.59C13,283.12,13.1,282.43,13.33,282.05Z"/><path class="cls-1" d="M462.64,174c.15-.69-.31-1.22-1.38-1.6l-.68,1.15q-.22,1,1.38,1.59Z"/><path class="cls-1" d="M2.53,288.85c-.69-.15-1.22.31-1.6,1.38l1.15.68q1,.22,1.59-1.38Z"/><path class="cls-1" d="M456.88,179.36c.3-.07.53-.46.68-1.14a1.13,1.13,0,0,0,.07-1c-.84-.76-1.53-.91-2-.15s-.91,1.53-.07,2.29C455.74,180,456.65,179.75,456.88,179.36Z"/><path class="cls-1" d="M476.21,184.25c-.76.84-.91,1.53-.45,2.06l1.15.68c.75-.84.9-1.53.44-2.06C477.28,184.63,476.89,184.4,476.21,184.25Z"/><path class="cls-1" d="M453.39,182.2s.84.76,1.15.68a3.14,3.14,0,0,0,1.21-1.61c.29-1.37-.47-1.82-1.53-.91C453.92,180.44,453.84,181.43,453.39,182.2Z"/><path class="cls-1" d="M472.42,217.59c.3-.08.53-.46.68-1.15a1.13,1.13,0,0,0,.07-1c-.84-.76-1.52-.91-2-.15s-.9,1.53-.06,2.29A1.9,1.9,0,0,0,472.42,217.59Z"/><path class="cls-1" d="M471.9,220.64c-.23-.92-.46-1.83-.7-2.74-2.05.84-2.27,1.22-2,3.43Z"/><path class="cls-1" d="M472.21,221.86c.08.3.46.53,1.15.68a1.13,1.13,0,0,0,1,.07c.75-.84.9-1.53.14-2s-1.53-.91-2.29-.07A1.93,1.93,0,0,0,472.21,221.86Z"/><path class="cls-1" d="M483.1,203.65c.69.15,1.22-.31,1.6-1.38l-1.15-.68q-1-.22-1.59,1.38C482,203.28,482.72,203.43,483.1,203.65Z"/><path class="cls-1" d="M62.87,229.9c.15-.69-.31-1.22-1.37-1.6l-.68,1.15c-.15.69.31,1.22,1.37,1.6C62.5,231,62.65,230.28,62.87,229.9Z"/><path class="cls-1" d="M67.15,232.71l2.73-.7c-.84-2-1.6-2.51-2.44-2A2.1,2.1,0,0,0,67.15,232.71Z"/><path class="cls-1" d="M65.18,235.15s.84.76,1.14.69c.54-.46,1.37-1,1.22-1.61.29-1.37-.47-1.83-1.53-.91A3.16,3.16,0,0,0,65.18,235.15Z"/><path class="cls-1" d="M66.65,240.94l1.15.69c.75-.85.9-1.53.44-2.06l-1.14-.69C66.34,239.72,66.19,240.41,66.65,240.94Z"/><path class="cls-1" d="M481.44,244.16l1.15.69c.75-.84.9-1.53.44-2.06l-1.14-.69C481.13,243,481,243.63,481.44,244.16Z"/><path class="cls-1" d="M70.78,245.73s.84.76,1.15.68c.53-.45,1.36-1,1.21-1.6.3-1.38-.47-1.83-1.53-.91A3.13,3.13,0,0,0,70.78,245.73Z"/><path class="cls-1" d="M488,252.22l.68-1.14c-.84-.76-1.52-.91-2.06-.45-.22.38-.68,1.14-.68,1.14C486.81,252.53,487.49,252.68,488,252.22Z"/><path class="cls-1" d="M482.81,261c-.15.69.31,1.22,1.38,1.6l.68-1.15c.15-.69-.31-1.22-1.38-1.6C483.19,259.94,483,260.63,482.81,261Z"/><path class="cls-1" d="M474.78,268.89l-1.14-.68c-.76.84-.91,1.52-.45,2.06l1.14.68A1.31,1.31,0,0,0,474.78,268.89Z"/><path class="cls-1" d="M489.41,273q1,.23,1.59-1.38l-1.14-.68c-.69-.15-1.22.31-1.6,1.37C488,272.35,489,272.73,489.41,273Z"/><path class="cls-1" d="M91.2,267.47s.84.76,1.14.68a3.16,3.16,0,0,0,1.21-1.6c.3-1.38-.46-1.83-1.52-.91C91.8,266,91.65,266.7,91.2,267.47Z"/><path class="cls-1" d="M64.54,279.76c-.15.69.31,1.22,1.38,1.6l.68-1.15c.15-.69-.31-1.22-1.38-1.6C65.14,278.31,64.69,279.07,64.54,279.76Z"/><path class="cls-1" d="M58.39,282.3c.15-.69-.31-1.22-1.38-1.6l-.68,1.15q-.22,1,1.38,1.59Z"/><path class="cls-1" d="M88.45,283.41c.15-.68-.31-1.22-1.37-1.59L86.4,283c-.15.69.31,1.22,1.37,1.6C88.15,284.79,88.23,283.8,88.45,283.41Z"/><path class="cls-1" d="M485.15,291.88c.69.15,1.22-.31,1.6-1.38l-1.15-.68q-1-.22-1.59,1.38C484.09,291.5,484.77,291.65,485.15,291.88Z"/><path class="cls-1" d="M95.92,284.76l1.14.68c.76-.84.91-1.53.45-2.06l-1.15-.68A1.4,1.4,0,0,0,95.92,284.76Z"/><path class="cls-1" d="M119.63,296.57s.84.76,1.15.69c.53-.46,1.36-1,1.21-1.61.3-1.37-.47-1.83-1.53-.91C120.16,294.82,119.78,295.89,119.63,296.57Z"/><path class="cls-1" d="M98.81,302.52l.68-1.15c-.84-.76-1.53-.91-2.06-.45-.22.38-.68,1.14-.68,1.14C97.59,302.82,98.28,303,98.81,302.52Z"/><path class="cls-1" d="M109.93,304.23c-.15.69.31,1.22,1.37,1.6l.68-1.15c.15-.69-.31-1.22-1.37-1.6C110.3,303.16,110.15,303.85,109.93,304.23Z"/><path class="cls-1" d="M75,314.41l.68-1.14c-.84-.76-1.53-.91-2.06-.45L72.91,314C73.75,314.72,74.44,314.87,75,314.41Z"/><path class="cls-1" d="M121.73,306.1l-2.74.69c.85,2.06,1.61,2.51,2.45,2A2,2,0,0,0,121.73,306.1Z"/><path class="cls-1" d="M112.93,310.93l.68-1.15c-.85-.76-1.53-.91-2.06-.45l-.68,1.15C111.71,311.24,112.39,311.39,112.93,310.93Z"/><path class="cls-1" d="M470.88,228.05c.85.76,1.53.91,2.06.46l.68-1.15c-.84-.76-1.52-.91-2.06-.45C471.26,227,471.11,227.67,470.88,228.05Z"/><path class="cls-1" d="M482.85,231.83l.68-1.15c-.84-.76-1.53-.91-2.06-.45l-.68,1.15A1.41,1.41,0,0,0,482.85,231.83Z"/><path class="cls-1" d="M471.09,240.33s.84.76,1.15.68c.53-.46,1.36-1,1.21-1.6.29-1.38-.47-1.83-1.53-.91C471.62,238.57,471.24,239.64,471.09,240.33Z"/><path class="cls-1" d="M151.87,325.36c.31-.08.53-.46.68-1.15a1.17,1.17,0,0,0,.08-1c-.84-.76-1.53-.91-2-.14s-.91,1.53-.07,2.28A.77.77,0,0,0,151.87,325.36Z"/><path class="cls-1" d="M462,249.13q1,.23,1.59-1.38l-1.14-.68q-1-.23-1.59,1.38C460.93,248.75,461.62,248.9,462,249.13Z"/><path class="cls-1" d="M148.69,328.12s.84.76,1.14.68a3,3,0,0,0,1.21-1.61c.3-1.37-.46-1.83-1.52-.91A3.16,3.16,0,0,0,148.69,328.12Z"/><path class="cls-1" d="M456.31,252.2c-.15.68.3,1.22,1.37,1.59,0,0,.46-.76.68-1.14.15-.69-.31-1.22-1.38-1.6Z"/><path class="cls-1" d="M156.53,344.94q1,.22,1.59-1.38l-1.15-.68q-1-.22-1.59,1.38Z"/><path class="cls-1" d="M435.78,274.61s-.75.84-.68,1.14c.46.54,1,1.37,1.61,1.22,1.37.3,1.82-.47.9-1.53C437.54,275.14,436.47,274.76,435.78,274.61Z"/><path class="cls-1" d="M441.74,278.93c-.85-2.05-1.23-2.28-3.44-2C439.15,278.94,439.53,279.17,441.74,278.93Z"/><path class="cls-1" d="M442.05,280.15c.08.31.46.53,1.14.68a1.17,1.17,0,0,0,1,.08c.76-.84.91-1.53.15-2s-1.53-.91-2.29-.06C441.74,278.93,442,279.85,442.05,280.15Z"/><path class="cls-1" d="M430.8,283c.08.31.46.53,1.14.68a1.17,1.17,0,0,0,1,.08c.76-.85.91-1.53.15-2s-1.53-.91-2.29-.07C430.18,281.87,430.72,282.71,430.8,283Z"/><path class="cls-1" d="M141.78,364.58c-.69-.15-1.22.31-1.6,1.38l1.15.68c.68.15,1.21-.31,1.59-1.37Z"/><path class="cls-1" d="M132.61,374.37c.15-.68-.31-1.22-1.37-1.59,0,0-.46.76-.68,1.14-.15.69.31,1.22,1.37,1.6C132.24,375.44,132.39,374.76,132.61,374.37Z"/><path class="cls-1" d="M438.42,302.81c.15-.69-.31-1.22-1.38-1.6l-.68,1.15c-.15.68.31,1.22,1.38,1.59Z"/><path class="cls-1" d="M238.52,353c.84.76,1.52.91,2,.45l.68-1.15c-.84-.75-1.52-.9-2.05-.44C239,352.21,239.05,352.51,238.52,353Z"/><path class="cls-1" d="M166,372.05l1.14.68c.76-.84.91-1.53.45-2.06l-1.14-.68C165.7,370.83,165.55,371.52,166,372.05Z"/><path class="cls-1" d="M142.62,381.38c.68.15,1.21-.31,1.59-1.37l-1.15-.69q-1-.22-1.59,1.38Z"/><path class="cls-1" d="M387.91,323.11l-.68,1.14c.84.76,1.53.91,2.06.45.22-.38.68-1.14.68-1.14C389.13,322.8,388.44,322.65,387.91,323.11Z"/><path class="cls-1" d="M167.94,379.67c-.15.68.31,1.22,1.38,1.59l.68-1.14c.15-.69-.31-1.22-1.38-1.6C168.55,378.22,168.17,379.29,167.94,379.67Z"/><path class="cls-1" d="M361.56,335.32c.3-.08.53-.46.68-1.15a1.13,1.13,0,0,0,.07-1c-.84-.76-1.52-.91-2-.14s-.91,1.53-.06,2.29C360.34,335.63,361,335.48,361.56,335.32Z"/><path class="cls-1" d="M358.07,338.15s.84.76,1.15.69a3.14,3.14,0,0,0,1.21-1.61c.3-1.37-.47-1.83-1.53-.91C358.6,336.4,358.22,337.47,358.07,338.15Z"/><path class="cls-1" d="M254.31,362.9s-.76.85-.68,1.15a3.22,3.22,0,0,0,1.61,1.22c1.37.3,1.82-.47.9-1.53C256,363.13,255,363.05,254.31,362.9Z"/><path class="cls-1" d="M173.52,383.77c-.69-.15-1.22.31-1.59,1.37l1.14.69q1,.23,1.59-1.38C174.58,384.14,173.9,384,173.52,383.77Z"/><path class="cls-1" d="M181.28,385q-.22,1,1.38,1.59l.68-1.14c.15-.69-.31-1.22-1.38-1.6Z"/><path class="cls-1" d="M143.88,391.44l-1.14-.68c-.76.84-.91,1.53-.45,2.06l1.14.68A1.4,1.4,0,0,0,143.88,391.44Z"/><path class="cls-1" d="M161.36,384.05l-1.15-.69c-.75.84-.9,1.53-.44,2.06l1.14.69C161.67,385.26,161.82,384.58,161.36,384.05Z"/><path class="cls-1" d="M299.67,363.06c.3-.08.53-.46.68-1.15a1.2,1.2,0,0,0,.07-1c-.84-.76-1.53-.91-2-.15s-.91,1.53-.07,2.29C298.45,363.36,299.06,363.21,299.67,363.06Z"/><path class="cls-1" d="M154.77,392.53c.16-.69-.3-1.22-1.37-1.6l-.68,1.15c-.15.69.31,1.22,1.38,1.6A2.3,2.3,0,0,1,154.77,392.53Z"/><path class="cls-1" d="M125.43,385.26c.14-.68-.31-1.21-1.38-1.59l-.68,1.14c-.15.69.31,1.22,1.38,1.6Z"/><path class="cls-1" d="M262.52,377.36c.15-.68-.31-1.22-1.38-1.59l-.68,1.14c-.15.69.31,1.22,1.38,1.6C261.92,378.81,262.07,378.13,262.52,377.36Z"/><path class="cls-1" d="M282.06,374q-1-.22-1.59,1.38l1.14.68q1,.23,1.59-1.38Z"/><path class="cls-1" d="M208.71,396.17c.84.75,1.52.91,2,.45l.69-1.15c-.85-.76-1.53-.91-2.06-.45C209.16,395.4,209.24,395.71,208.71,396.17Z"/><path class="cls-1" d="M195.31,398.34c.68.15,1.22-.31,1.59-1.38l-1.14-.68c-.69-.15-1.22.3-1.6,1.37Z"/><path class="cls-1" d="M172.61,396.41s-.75.84-.68,1.15a3.14,3.14,0,0,0,1.61,1.21c1.37.3,1.82-.46.9-1.53A7,7,0,0,0,172.61,396.41Z"/><path class="cls-1" d="M418.49,315c.15-.68-.31-1.22-1.38-1.59l-.68,1.14c-.15.69.31,1.22,1.38,1.6Z"/><path class="cls-1" d="M306.29,381.48l1.15.69c.75-.84.9-1.53.44-2.06l-1.14-.69C306,380.27,305.83,381,306.29,381.48Z"/><path class="cls-1" d="M175.44,399.91c.08.3.46.53,1.15.68a1.17,1.17,0,0,0,1,.08c.76-.85.9-1.53.14-2s-1.52-.91-2.28-.07C174.83,398.77,175,399.38,175.44,399.91Z"/><path class="cls-1" d="M218.13,366.42c.22-.38.68-1.14.68-1.14-.84-.76-1.53-.91-2.06-.45l-.68,1.14C216.91,366.73,217.6,366.88,218.13,366.42Z"/><path class="cls-1" d="M231.34,377.66l1.15.69c.75-.84.9-1.53.44-2.06l-1.14-.69A1.41,1.41,0,0,0,231.34,377.66Z"/><path class="cls-1" d="M220.56,382.35c-.15.69.31,1.22,1.37,1.6l.69-1.15c.14-.69-.32-1.22-1.38-1.6Z"/><path class="cls-1" d="M405.14,343.17q-1-.23-1.59,1.38l1.15.68q1,.22,1.59-1.38Z"/><path class="cls-1" d="M231.09,396.32c.14-.69-.32-1.22-1.38-1.6l-.68,1.15c-.15.68.31,1.22,1.37,1.59Z"/><path class="cls-1" d="M263.12,394.4l1.15.68c.75-.84.9-1.52.44-2.06l-1.14-.68C262.43,393,262.59,393.57,263.12,394.4Z"/><path class="cls-1" d="M359.27,372.8l.68-1.15c-.84-.76-1.53-.91-2.06-.45l-.68,1.15A1.33,1.33,0,0,0,359.27,372.8Z"/><path class="cls-1" d="M359.53,380.19c-.15.69.31,1.22,1.38,1.6l.68-1.15c.15-.68-.31-1.22-1.38-1.59Z"/><path class="cls-1" d="M353.62,386.24l.68-1.15c-.84-.76-1.52-.91-2.05-.45l-.68,1.15C352.41,386.55,353.09,386.7,353.62,386.24Z"/><path class="cls-1" d="M475.12,274l.68-1.15c-.84-.76-1.52-.91-2.06-.45l-.67,1.15A1.32,1.32,0,0,0,475.12,274Z"/><path class="cls-1" d="M325,380q-1-.23-1.59,1.38l1.15.68q1,.23,1.59-1.38C326.45,380.58,325.39,380.2,325,380Z"/><path class="cls-1" d="M288.67,388.56l1.14.68c.76-.84.91-1.53.45-2.06l-1.14-.68C288.36,387.34,288.21,388,288.67,388.56Z"/><path class="cls-1" d="M432.94,319.45c.15-.69-.31-1.22-1.38-1.6l-.68,1.15c-.15.68.31,1.22,1.38,1.59Z"/><path class="cls-1" d="M219.07,372.67c.3-.07.53-.46.68-1.14a1.13,1.13,0,0,0,.07-1c-.84-.76-1.53-.91-2-.15s-.91,1.53-.07,2.29C217.85,373,218.76,372.75,219.07,372.67Z"/></svg>