<svg id="Layer_1" data-name="Layer 1" xmlns="http://www.w3.org/2000/svg" viewBox="0 0 550 425"><defs><style>.cls-1{fill:#e62f48;}</style></defs><path class="cls-1" d="M482.9,245.62c1.39-1.62,2-2.77,2.94-2.54,2.85.39,5.63,1.08,7.87,1.32,2.63,1.31-.53,4.68,4.34,3.61,0,0-.42-2.28.74-3,2.24,1.54,1.48-.61,4,1,1.54-.92-2.67-2.51-1.12-3.43a10.9,10.9,0,0,1,1.55-2.77c1-1.38-5.44-6.53-4-5.84,2.47.62-1.46,67.89,1,68.51.93.23,1.45-73.12,2.38-72.89.77-.46,1.54,75.09,2.7,74.39,1.54.39-6-11.2-3.57-10.58.47.77,1.47,2,2.16,3.16,2.94.08,1.47-4.54,5.41-4.54,7.72,1.94-3.61,3.94,4.73,6,.69,1.16,2.82-3.42,3.52-2.27,1.85.47-.68,4,.86,4.41,1.47-.61,2-2.71,3.16-3.4,3.08,4.7-1.11-3.91,3.91-6.9,1.19-2.85-5-1.75-9.34-4.19-.46-.77,4.1-2.44,3.4-3.6-.31-.08-.35-2.5-3-4.73-5.88-4.09-10.33-2-13.51.22-1.09.38-2.24,1.07-3.71,1.69-.46-.77-1.31-1.31-1.16-1.93,0-1.31.7-2.77,1.08-4.31a2.62,2.62,0,0,0-.92-2.85l-5.87-1.47c-2.7.31-1.47,4.54-4.48,4.77-.23-.38-.77-.85-.7-1.15.39-2.85,1.08-5.62,1.47-8.47,1.24-1,2.39-1.69,3.63-2.69a8.77,8.77,0,0,1,1-2.69,28.65,28.65,0,0,0,3.56-2.38c-.31-2.7-4.56-1.47-4.79-4.47l1.16-.69a4.85,4.85,0,0,0,1.7-1.54,2.13,2.13,0,0,0-1.86-1.77,2,2,0,0,1-2.23-1.55c-.16-.69.3-1.23,1.46-1.92,1.47-.61,2.09-1.76,2.4-4.3-1.55-1.7-3.32-3.78-4.56-5.4,1.08-4.31,1.78-7.08,2.47-9.85.93-1.07,1.93-1.15,2.4-.38l2.54,4.24c-.23.92-.31,2.54-.61,3.77-.39,1.54-.16-2,1.15-.69,1.16-.69,1.24.31,2.4-.39,1.23.31,1.64,1.3,3.34-.24a37.85,37.85,0,0,1-2.18-4.37c1.54-.92-2.24-5.47-.7-6.39,1.86.46,5.21-1.26,7.37-.72-5.36-7.45-7.88-7.68-6.88-6.45-1.51-1.85-1.66-5.14,3.9-3.75.69,1.15.14-1.54-2-3.66,1.85.46-5-4.4-3.14-3.94,3.45-3.27,7.34,6.56,7,1.74-1.08.39,2.46-1.94,1-1.32-1.54-.39,1.32-4.4-.53-4.86-1.47.61-2.23-3.74-3.78-2.82-2.78-.69,2.55-3.61-.23-4.31-.69-1.16-2.76.29-3.46-.86-4.63-1.16,6.94-2.52,2.3-3.68-1-1.23-4,.3-4.94-1.24-6.8-1.7-2.86,3.54-9.34,1.92-1.62-1.39-.62-2.78-.54-4.39a29.35,29.35,0,0,0,3.55-2.38c.38-.23.23-.93.38-1.54l-4.32-1.09a27.73,27.73,0,0,1-3.78,2,21.51,21.51,0,0,0-2.16-3.16,29.62,29.62,0,0,0-3.79,2c-3.63-1.24-3.94-1.31-3-5,2.32-1.38,4.71-3.07,7-4.45.38-.23.23-.92.31-1.23l-4.33-1.09a50.61,50.61,0,0,0-3-5,14.14,14.14,0,0,0-.77-4.77l-2.32,1.38c-.77.46-1.31,0-2-1.16a9.52,9.52,0,0,0-1.77-2.08c-1.55-.39-3.32-1.16-3-2.39s2.47-.69,3.78-.69c.62.16,2.16-.76,1.93-1.15a2.13,2.13,0,0,0-1.85-1.77c-2.7-1-2.63-1.31-2.24-4.16.08-.31-.08-1,0-1.31-.93-1.54-2.09-3.46-3-5-.23-.39-.93-.23-1.24-.31a2.12,2.12,0,0,1-1.54,2.23c-1.08.38-1.47-.7-1.08-3.54.07-.31-.16.61-.16.61a2,2,0,0,1-2-1.16c-.47-.77-.31-1.38,1.08-1.69.3.08.54.47.85.54a3.45,3.45,0,0,1,.54,1.77,4.76,4.76,0,0,0,2.62,1.32,18,18,0,0,0,1-4c.15-.61-.85-1.84-1.47-2a51.21,51.21,0,0,0-6.8-1.7,2.12,2.12,0,0,1-1.54,2.23c-1.08.38-1.47-.69-1.24-2.93l-4.32-1.08c-.93-1.54-1.78-3.39-2.94-5.31l1.94-7.7a10.6,10.6,0,0,0-3.79-5.85c-2.62,1.31-1.47,4.54-2.85,6.15a31.55,31.55,0,0,1,2.23,4.16l-.69,2.77c-3,1.54-5.79,3.46-8.81,5-.46-.78-1.23-1.62-1.08-2.24.85-4.69,2-9.31,3.17-13.93.08-.3-.46-.76-.69-1.15a29.62,29.62,0,0,1-3.79,2c-.38.23-.92-.24-1.23-.31a2.14,2.14,0,0,1-1.55,2.23c-1.08.38-1.46-.7-1.23-2.93L424,110.3l-1,4c-.07.31-.46.53-.85.77s-.77.46-1,.07-.77-.85-.69-1.15c-.16-3.31.69-4.08,3.63-4a2,2,0,0,0-.31-2.7c-1.32-1.31-3.71-.92-4.1-3.31.23-.92.47-1.85.62-2.46a22.64,22.64,0,0,0,3.25-2.46c-.47-2.08-2.17-1.85-4-2.31-1.54.92-3.17,2.15-5.48,3.53-.93,1.08,0,3.92-2.09,5.69a1.73,1.73,0,0,1-1.08.39,1.46,1.46,0,0,1-.7-1.16,9.91,9.91,0,0,1,.47-3.15,50.28,50.28,0,0,1-2.7-4.93c-2.55-1.62-5.49-1.7-8.19-2.71-1.93-1.46-2.7-3.62-3.63-5.16-.15-2-.15-3.31-.38-5-2.71,1.61-5.33,2.92-7.65,4.3-1.39-2.31-2.55-4.23-3.7-6.16a1.43,1.43,0,0,0-2.09.46c-.39.23-.23.92-.39,1.54a2,2,0,0,1-1.54,2.23c-1,.07-1.62-1.39-1.16-3.24.39-1.53.7-2.77,1.08-4.3a8.77,8.77,0,0,0,.39-2.85l-3-5c-3.17.85-2,4.08-3.17,6.08-.77.46-1.31,1.31-2.08,1.77-2.78,1.92-5.8,3.45-8.88,5.3-1.16.69-1.55.92-2.4.38a2.12,2.12,0,0,1-.31-2.69c.08-.31.23-.93.31-1.24a7.66,7.66,0,0,0,4.56-5.07l2.7-1.61A9.59,9.59,0,0,0,370,67.67c-.23-.38-.31-1.38-.62-1.46l-7.1-1.78-.69,2.77a2,2,0,0,1-1.55,2.23c-.69.16-1.16-.61-1.85-1.77l-.7-1.15c-3.24-.16-1.7,4.15-4.4,4.45a28.65,28.65,0,0,0-2.39-3.54l-12.67-3.17a2.12,2.12,0,0,1-1.54,2.23,4.05,4.05,0,0,1-3.71-.93,2,2,0,0,1-.31-2.69c-.31-.08-.85-.54-1.23-.31a58.14,58.14,0,0,0-5.41,3.23c-.38.23-.23.92-.31,1.23l4,1c1.39,2.31,1.39,2.31.69,3.77-.46,1.85-1.15,2-3.08,1.85a3.76,3.76,0,0,1-3-2.39l1-4c-.62-.16-1.31,0-1.55-.39a28.65,28.65,0,0,0-2.39-3.54l-5,3a29.45,29.45,0,0,1,2,3.78c-1.62,1.23-3.63,1.38-4.79-.55a10.08,10.08,0,0,0-4-3.62c-1.23-.31-1.77-2.08-1.08-3.54a2.62,2.62,0,0,0-.92-2.85l-8-2a1.4,1.4,0,0,0-1.7,1.54c-.08.31.46.77.69,1.15l5.56,1.4c1.31,2.61,1.31,2.61-.69,8-.93,1.08-1.86.84-1.86-.47-.07-1,.47-1.84.08-2.92-.15-.69-.77-2.16-1.08-2.23-1,.07-1.54.92-1.78,1.84-1.46,3.23-1.46,3.23-3.94,2.61l-4-1c-.46-.77-.69-1.16-.93-1.54-1.93-2.77-2.85-3-5.79-1.78-1.08.39-1.54.92-2.39.38a2.63,2.63,0,0,1-.31-2.69c.46-1.85,0-2.62-1.78-3.39a3,3,0,0,0-3.86,1c-.54.84-.46,1.84-1,2.69-.08.31-.77.46-1.24,1l-5.87-1.47a12.27,12.27,0,0,1-2.08-3.46c-2.7.3-1.78,4.46-4.48,4.76l-2.78-.69c-2.16-1.85.85-4.7-1.7-6.32l-8.88,5.3c-.39,1.54-.69,2.77-1.08,4.31A1.66,1.66,0,0,1,248.4,67c1.62.08,1.39,1,1.23,1.61a2.12,2.12,0,0,1-1.77,1.85c-.31-.08-1.31-1.31-1.16-1.93a17.92,17.92,0,0,1,1-4c-.62-.15-1.32,0-1.55-.38a28.72,28.72,0,0,1-2.39-3.55l-8.65-2.16c-.39.23-1.47.61-1.16.69.46.77.54,1.77,1.16,1.93,1.16.61,2.78.69,4.32,1.08a2.13,2.13,0,0,1,1.86,1.77c-.85,2.08-.24,4.85-2.63,6.54-2.55-1.62-3.17-4.39-4.87-6.78a28.8,28.8,0,0,1-3.78,2l-4.32-1.09-1,4c-.07.3-.46.53-.85.76s-.77.47-1,.08-.77-.85-.7-1.15c-.15-3.31.7-4.08,3.63-4,.62-1.16.55-2.16-.31-2.7-2-1.15-4.4-2.08-5-4.85l-4-1c-.93-.23-1.85-.46-2.7.31a3.39,3.39,0,0,0-1.24,3.61c1.08,2.24,2.55,4.24,3.63,6.47-.77.46-1.31,1.31-1.93,1.16A30.7,30.7,0,0,1,208.94,66c-1-1.23-1.16-3.23-2.78-3.31-2,.15-1.54,2.23-1.85,3.46.69,1.16,1.31,2.62,2,3.77l-5,3a5.75,5.75,0,0,1-1-2.54c0-1.31.7-2.77,1.08-4.31.16-.62-.62-1.46-1-2.54l-5,3a9,9,0,0,1-1,2.7,28.65,28.65,0,0,0-3.56,2.38c-.08.31-.23.92.23,3,.08,1-.77.46-.92-.23-.31-1.39.46-1.85,1.54-.92a3.12,3.12,0,0,1,.85,1.85s-.85.76-1.47-.7c-.92-1.54-1.62-1.39-1.85-1.77l-2.08-3.47c-1.16.69-2.63,1.31-3.4,1.77a26.08,26.08,0,0,1-2.47-3.24c-2.71,1.62-1.78,4.47-3,6.77a46.59,46.59,0,0,1-5,2.69c-1.7-1.08-1.85-4.39-5.25-3.93l-3.47,2.07a28.79,28.79,0,0,0-2.4-3.54c-1.23-.31-2.93-1.39-4,.3-.62,1.16.77,2.16,1.39,3.62-1.32,2.62-4.48-.46-6.34,1.69l-.84,3.38c1.46,2,3.24,4.09,4.4,6a11,11,0,0,1-1.16,3.31,22.09,22.09,0,0,0-3.25,2.46l3,5c.23.38.92.23,1.23.31a1.64,1.64,0,0,1,1.47-1.93c.69-.15,1.62.08,2.62,0a2.13,2.13,0,0,1,1.86,1.77c-.08.31-1.32,1.31-1.93,1.15a18.48,18.48,0,0,1-4-1,2.32,2.32,0,0,1-2.55,2.3,15.21,15.21,0,0,1-3.7-.93c-.31,1.24-.7,2.77-1,4-.08.31-.46.54-.85.77s-.77.46-1,.08-.77-.85-.7-1.16c-.15-3.31.7-4.07,3.63-4,.16-.62.62-1.16.39-1.54a49.89,49.89,0,0,0-3-5c-.77.46-1.78.54-1.93,1.15-.62,1.16-.7,2.77-1.08,4.31A2.13,2.13,0,0,1,143,99.82c-.7-1.16-1.7-2.39-2.39-3.55-2.63,1.31-2.32,5.31-5.72,5.77.7,1.15,1.31,2.62,2,3.77-.46,1.85-.93,3.7-1.39,5.54-1.16.69-2.4,1.69-3.55,2.39q-1.62,6.45-3.25,12.92c-.23.92-.85,2.08-1.77,1.85-.31-.08-1.32-1.31-1.16-1.93,0-1.31.69-2.77-.62-4.08a55.28,55.28,0,0,0-4.79,3.38,11.06,11.06,0,0,1,1.47,3.31c-1.62,2.54-4.48-.46-6.33,1.69-.47,1.85-.93,3.69-1.47,5.85-1.85.84-1.85.84-4-2.32l-4.63,2.77c-2.09,3.08-1.62,6.46-2.94,9.08l2.09,3.46c-.85,3.39-1.47,7.16-2.7,10.77-.39,1.54-2.09,1.77-3.56,1.08a1.9,1.9,0,0,0-1.31,0l-2.7,1.61a9.94,9.94,0,0,1-2.63,0c-1.85-.47-3.55-1.55-5.63.22-.24.92-.47,1.85-.7,2.77,1.31,2.62,3.17,4.39,3.71,7.47-1.32,1.31-2.71.31-4.33.23-1.54.92-3.16,2.15-5.09,3.3-.39,1.54-.85,3.38-1.32,5.23-1.23,1-2.39,1.69-3.63,2.69a28.25,28.25,0,0,1,2,3.78c-.31,1.23-.7,2.76-1.08,4.3l4,1c.31.08.54.46.78.85s.46.77.07,1-.85.77-1.15.69c-3.33.15-4.1-.7-4-3.62l-2.78-.7a2,2,0,0,0-2.7.31c-.47.53,0,1.3.69,2.46l.7,1.15a8.08,8.08,0,0,1-4.71,3.08c-1.47.61-3.4.45-5.41.61a23.13,23.13,0,0,1,2,3.77,22.09,22.09,0,0,0-3.25,2.46l3.94,6.55c-.69,1.46-2,1.46-3.24,1.15a2.9,2.9,0,0,0-2.78.61,8.46,8.46,0,0,1-1,2.69c1.39,2.31,2.71,4.93,4.1,7.24-1.32,1.31-2.78.61-4.1.61a2.88,2.88,0,0,0-2.31,1.38,70.54,70.54,0,0,0-2,8c2.78,4.62,2.78,4.62-.23,7.46-1.32,0-2.94-1.39-3.94,0-.62,1.15,1.39,2.31,1.08,3.54-.16,3.23-.7,6.69-2.7,9.46-1.86.85-3.87-.31-5.72-.77a2.11,2.11,0,0,0-2.47.69c-.08.3.93,1.54,1.47,2,.85.54,1.77.77,2.62,1.31.31.08.47.77.7,1.16-.39,1.53-.7,2.77-1.08,4.3a2.33,2.33,0,0,1,2.31,2.55c0,1.3-.62,2.46-.38,5.46.07,1-.78.46-.93-.23-.31-1.39.46-1.85,1.54-.92a3.12,3.12,0,0,1,.85,1.84s-.85.77-1.46-.69A28.31,28.31,0,0,0,34.79,268c-.31,1.23-.7,2.77-1.16,4.62,1.47,2,3.24,4.08,4.25,5.31,0,2.62-.31,3.85,0,5.24q.1,1.5,2.55,1.62l-.62-.16a2,2,0,0,1,1.16-2c.77-.46,1.39-.3,1.7,1.08-.08.31-.47.54-.55.85a3.41,3.41,0,0,1-1.77.54,3.57,3.57,0,0,1-2.16,2.07c-1.78.54-3.71-.93-5.18,1q-.69,2.77-1.39,5.54c.7,1.16,1.31,2.62,2,3.78-.23.92-.46,1.84-.7,2.77.78,2.15,3.09,2.08,5,2.54,1.54.39,2.39-75.08,2.7-73.69-.39.23-.85.77-1.16.69-1.93-.16-3.78,75.39-5.64,74.92-1.23-.31-2.24-74.93-2.62-73.39a2.87,2.87,0,0,0,.62,2.77c1.15-.69,2.23-1.08,3.39-1.77a8,8,0,0,1,1.08,2.24,65.17,65.17,0,0,1-1.93,7.69l-5.4,3.23-4.33-1.09c-.85,2.08-1.62,2.54-2.85,2.23-1.93-.15-3.71-.93-5.72-.77-1,.07-1.54.92-1.54,2.23l9.88,2.47a1.4,1.4,0,0,1,.77,2.16,1.44,1.44,0,0,1-1.16.69l-2.78-.7c-.77.46-1.93,1.15-2.08,1.77-.54,2.15-2.09,4.38-.39,6.77a28.41,28.41,0,0,1,3.79-2l2.78.69c2.39-.38,2.08-3.07,3.32-4.07a2,2,0,0,1,2.7-.31c.31-1.23.7-2.77,1-4,.08-.31.47-.54.85-.77s.78-.46,1-.07.77.84.69,1.15c.16,3.31-.69,4.08-3.63,4-.15.61-.61,1.15-.38,1.54a49.7,49.7,0,0,0,3,5c.92.23,1.77.78,2.7,1a28.88,28.88,0,0,1,3.78-2c1.55,1.7,1.16,3.23-.23,4.85-.54.85-1.85.84-2.39,1.69-.85.77-1.39,2.92-.62,3.77A2.47,2.47,0,0,0,39.42,273a3.15,3.15,0,0,0,1-.07c1.47-.62,3-1.54,4-1.61,1.77-.54,3.24,1.46,3,3.69a2.15,2.15,0,0,1,2.24,1.55c.38,1.07-.7,1.46-2.94,1.22-.38,1.54-.69,2.77-1.08,4.31a5.68,5.68,0,0,0,1.78,2.08c1.77.77,3.78.62,4.86,1.55,1.16,1.92,2.4,3.54,3.32,5.08-.38,1.54-.77,3.08-1.08,4.31a2.13,2.13,0,0,0,2.7-.31c1.32-1.3.62-3.77,3.63-4l2.17.54a10,10,0,0,1,1,2.54c-.39,2.85-1.08,5.62-1.47,8.46-.08.31.46.77.7,1.16a28.8,28.8,0,0,1,3.78-2c.39-.23.93.23,1.24.31a1.63,1.63,0,0,1,1.46-1.92c.7-.16,1.62.08,2.63,0a2.12,2.12,0,0,1,1.85,1.77c-.08.31-1.31,1.31-1.93,1.16a18.42,18.42,0,0,1-4-1c-.24.92-.47,1.85-.7,2.77a2.13,2.13,0,0,0,.31,2.7c.54.46,1.23.3,2.08-.46s1.55-.93,2.09-.46a2,2,0,0,1,.31,2.69l-.7,2.77c2.09.85,2.55,1.62,2.24,2.85-.15,1.92-.93,3.69-.77,5.69.08,1,.93,1.55,2.24,1.55.38-1.54.69-2.77,1.16-4.62.77-.46,2.24-1.07,3.4-1.77.38-.23.23-.92.46-1.84l-.16.61a2,2,0,0,1-2-1.15c-.47-.77-.31-1.39,1.08-1.7.31.08.54.47.85.54a3.45,3.45,0,0,1,.54,1.77,10.62,10.62,0,0,0,4.17,1.7c1.16,1.93,3,3.7,3.24,6.7-.7,1.46-1.16,3.31-1.85,4.77-.54.85-1.55.92-2.71.31-.38,1.53-.69,2.77-1.08,4.31.93,1.53,2.16,3.15,3.32,5.08a18.4,18.4,0,0,0,9,1.93c1-.07,1.54-.92,1.54-2.23l-4.32-1.08a52.72,52.72,0,0,0-3-5c1.46-1.92,2.93-1.22,4.94-.07.07,2.31,3.39,3.47,2.39,6.16l4.32,1.09c.24.38.78.84.7,1.15.08,1-.15,1.92-.08,2.92.47.77.54,1.77,1,2.55,1.08,2.23,2.54,4.23,3.7,6.16,1.47.69,2.16-.77,3.56-1.08,2.39.93,5.79-.84,6.79,3-1.16.69-2,1.46-3.17,2.15.47.77.62,1.47.93,1.54l11.43,2.86c2.16,1.85-.54,4.78,1.7,6.32a12.33,12.33,0,0,1,3.7-1.69l3,5c-.24.92-.47,1.84-.7,2.76,2.86,3,2.86,3,7.41.55a12.61,12.61,0,0,0,2.47,3.24c1.39-.31,2-1.46,2.4-3,.15-.62,1.31-1.31,2.08-1.77l3,5a15.68,15.68,0,0,0-.54,3.46c1,1.23,2.24,2.85,3.94,5.24-.31-.08.46-.54,1-1.39.61-1.15.07-2.92,2.16-3.38a10,10,0,0,1,2.85,4.31c.62,1.47.47,3.39.62,5.39,2.94-1.23,4.79-3.38,7.57-4,1.31,1.31.31,2.69.31,4a1.45,1.45,0,0,0,.69,1.16c.54.46,1.55.38,2.17-.77a35.36,35.36,0,0,0,1.39-5.54c2.47-2,4.63-.15,7.1.47.62.15,1,1.23,1.16,1.92a6.65,6.65,0,0,0-2.4,1.69,7.5,7.5,0,0,0-1.23,2.31,1.9,1.9,0,0,0,0,1.31c1.85,1.77.85,4.46,1.62,6.62A8.07,8.07,0,0,0,182,402.2c1.77-.53,1.85-2.15,2.16-3.38-.7-1.15-1.31-2.62-2-3.77,2.63-2.62,5.56,1.39,8.19.08,3-1.53.54-6.08,4.09-7.15,1.39,2.31,3.09,4.7,4.48,7l2.78.69c2.24,1.55-1.16,4.62,1.7,6.32l5-3c.38-.23.23-.92.54-2.15l-.16.61a2,2,0,0,1-2-1.15c-.46-.77-.3-1.39,1.09-1.7.3.08.54.47.85.54a3.45,3.45,0,0,1,.54,1.77c.69,1.16,1.69,1.08,2.24.24,1-1.39,1.69-2.85,2.78-4.54.92,1.54,1.69,2.39,2.62,3.93a28.13,28.13,0,0,0,4.94,1.24,2.85,2.85,0,0,0,3-2.85c.07-.31-.16.62-.16.62a2,2,0,0,1-2-1.16c-.46-.77-.31-1.39,1.08-1.69.31.08.54.46.85.54a3.23,3.23,0,0,1,.54,1.77c.47.77,1.16.62,1.39,1,1.7,2.39,3,5,4.48,7,3.79.62,3.79.62,4.94-1.38.08-.31.24-.92.39-1.54a3.53,3.53,0,0,1,5-.38c.77.85.93,1.54,1.93,2.77A76.37,76.37,0,0,0,255,405.44c1.77-.54,1.93-1.15.85-2.08-.85-.53-1.78-.77-2.32-1.23a5.78,5.78,0,0,1-1.78-2.08l8.89-5.3a2.37,2.37,0,0,1,.46,3.39c1.54,3,2.39,4.85,3.32,6.39,2.93-1.23,2.39-5.62,6.1-6a11.83,11.83,0,0,1,1.08-3,47.57,47.57,0,0,0,4.71-3.07c1.85.46,1.85.46,1.24,2.93-.23.92-.47,1.84-.7,2.76L288.29,401c.39-1.54.7-2.77,1.08-4.31.08-.31.77-.46,1.16-.69l.93.23c1.46,2,2.55,4.23,3.7,6.16a5.68,5.68,0,0,0,2.09-1.77,3.38,3.38,0,0,0,.31-2.54c-1.08-2.23-2.55-4.23-3.71-6.16a8.77,8.77,0,0,1,2.24-1.08,4.53,4.53,0,0,1,2.7,1c.85.54.85,1.85,1.7,2.39,1.08.92,2.24,1.54,3.71.92l2.7-1.61a29.08,29.08,0,0,0,2.47,3.24l2.47.61c2.4-.38,2-2.76,3.32-4.07a2,2,0,0,1,2.71-.3l.69-2.78c.54-2.15,1.7-2.84,3.86-2.3l2.78.7,1.09-4.31c.07-.31.77-.46,1.15-.69l.93.23c1.47,2,2.55,4.23,3.71,6.16,1.69-.23,2-1.46,2.39-3,.23-.92,1.31-1.31,1.78-1.84a28.65,28.65,0,0,0,2.39,3.54c2.63-1.31,4.79-3.38,7.57-4a9.32,9.32,0,0,1,2.62,1.31c.85.54.93,1.54.31,2.69a18.65,18.65,0,0,0,4,1c1-.08,1.85-.85,1.7-1.54a10.4,10.4,0,0,1-1.39-2.31c-1-2.54.77-4.39,3.63-4a2,2,0,0,1,1.54-2.23,1.9,1.9,0,0,1,1.31,0l4.64,1.16c3.93-1.3,7.33-4.38,11.43-6.3l4,1,1.78-7.08,5-3c2.93,1.39-.85,4.7,2.08,6.09,1.24-1,2.78-1.93,4.79-3.38.54-2.16,1.24-4.93,1.85-7.39,1.86-2.15,3.94-2.61,5.64-4.15,1.86,3.08-.31,5.16-.31,7.77.85.54,1.93,1.47,2.78,2a14.14,14.14,0,0,0,6.49-3.61c.39-1.54,1.08-3-.31-4-.85-.54-1.85-.46-2.7-1-1.16-.62-1.24-1.62-.78-2.15l1.16-.7A24.05,24.05,0,0,0,411,352.9l5.87,1.47c1.39,2.31,2.55,4.23,3.93,6.55,2.71,1,5.1,3.23,8,.7.23-.93.46-1.85.61-2.47a28.65,28.65,0,0,1,3.56-2.38c-.31-1.38-1.24-1.62-2.16-1.85-2.71-1-3.09-2.08-2.24-4.16.23-.92,1.31-1.3,1.77-1.84l2.78.69c.7,1.16,1.7,2.39,2.4,3.55l5.87,1.47,5-3c-.7-1.15-1.32-2.62-2-3.77l.69-2.77c.93-1.08,1.93-1.15,2.32-.08l3.71,6.16c1.16-.69,2.62-1.3,3.78-2,1.54.39,3.17.46,3.71,2.24-2.32,1.38-4.71,3.07-7,4.45.23.39.39,1.08.69,1.16,3.63,1.23,7.34,2.16,11.05,3.09.92.23,1.77-.54,2.62-2.62.08-.3.23-.92.23-.92,3.17-2.15-1.31-6.54,8.65-5.69,1.55.39.5-4.57-1.37-5-1.16.69-4.93-.87-6.31,0-3,.22-.42-3.2-3.28-3.58-2.17-.54-3.68-3.55-6-3.47-1.16.69-.56-5.72-1.33-5.26-.31-.08,1.27-5.79,1-5.87-13-3.24,7-4.54-6.25-7.86-.78-.85,10.06-5.33,9.14-6.88l-8.34-2.08a49.91,49.91,0,0,1-3-5c.93-2.38,3.87-2.3,4.95-4l6.18,1.54a17.2,17.2,0,0,1,2.16-3.38,31.67,31.67,0,0,1-2.24-4.16c.46-1.85.93-3.69,1.47-5.85,1.54-.92,3.39-1.77,5.32-2.92a20.79,20.79,0,0,1,2.17,3.16c3.16-2.15,3.24-2.46.69-6.69.85-2.08,4.48-2.15,3.94-5.23,2.32-1.39,4.71-3.08,7.34-4.38.23-.92.46-1.85.77-3.08-1.16-.62-2.24-1.54-3.4-2.16a32.87,32.87,0,0,0-4.17,2.23l-2.08-3.47c-.7-1.15-.93-1.54-.39-2.38a2.65,2.65,0,0,1,2.7-.31c2.09.85,2.55.31,3.09-1.84.23-.92.47-1.85,1.55-2.23a1.19,1.19,0,0,1,1-.08c.93,1.54,1.7,3.7,4.33,3.7a34.6,34.6,0,0,0,9.26-5.53c-.07-1,.16-1.92.08-2.92s-.93-1.54-2.24-1.55a1.64,1.64,0,0,1-1.47,1.93c-.69.15-1.62-.08-2.62,0-.93-.23-1.78-.77-1.85-1.77.07-.31,1.31-1.31,1.93-1.15a17.84,17.84,0,0,1,4,1A1.63,1.63,0,0,1,493,252.4c1.7-.23,3.32-.15,5.33-.3-.93-4.16-5.1-1.93-6.88-4-.69-1.16-1.39-2.31-2.08-3.46-2.24,1.07-3.48.76-6.49,1-1,.07-.46-.77.23-.92,1.39-.31,1.86.46.93,1.54a3.2,3.2,0,0,1-1.85.84C481.9,247,481.43,246.23,482.9,245.62ZM163.53,84.68c-.69,2.77-1.39,5.54-2.08,8.31-.08.31-.78.46-1.16.69-.7.15-1.24-.31-1.62-1.39.69-2.77,1.39-5.54,2.08-8.31.08-.3.77-.46,1.16-.69C162.68,82.83,163.15,83.6,163.53,84.68Zm286,54.89c-1.39-2.31-1.24-4.23,1.47-5.85,1.46.7,3.93,0,3.55,2.85A50.83,50.83,0,0,0,449.48,139.57Zm-195.6-74.8c2.4-1.69,4.25-1.23,5.87,1.47C257.05,67.85,255.2,67.39,253.88,64.77Zm22.86,3.11c-.39.23-.85.76-1.16.69l-2.78-.7c-.31-.08-.46-.77-.69-1.15a.6.6,0,0,1,.23-.93c1-1.38,4.09-.61,4.63,1.16C277.2,67.34,276.82,67.57,276.74,67.88ZM247.83,394.81c1.7,2.39,1.23,4.24-1.47,5.85C244.74,398,245.2,396.12,247.83,394.81ZM482.29,184.09l-1.23-.31c-.23-.38-.46-.77-.7-1.15-.15-.69.31-1.23,1.39-1.62.39-.23.93.24,1.24.31a2.15,2.15,0,0,1,2.24,1.55C485.3,183.87,484.15,184.56,482.29,184.09ZM72.56,203.87c.15.69-.31,1.23-1.39,1.61l-.7-1.15c-.15-.7.31-1.23,1.39-1.62C71.94,202.4,72.4,203.18,72.56,203.87Zm-26.35,59c.7-.15,1.24.31,1.62,1.39l-1.15.69c-.7.15-1.24-.31-1.62-1.39Zm45.73-91.8L91.25,170c-.16-.69.31-1.23,1.39-1.62l.69,1.16C93.49,170.18,93,170.72,91.94,171.1Zm52.82-61.35c.16.69-.3,1.23-1.38,1.61l-.7-1.15c-.15-.7.31-1.23,1.39-1.62Zm161.86-38,1.16-.69c.7-.16,1.24.31,1.62,1.38l-1.15.69C307.78,73.68,307.24,73.22,306.62,71.76ZM210.45,389.38c.16.7-.31,1.23-1.39,1.62l-.69-1.16c-.16-.69.31-1.23,1.39-1.61C210.07,388.3,210.22,389,210.45,389.38ZM360.6,73.82l-1.16.69c-.77-.85-.92-1.54-.46-2.08l1.16-.69C360.91,72.59,361.07,73.28,360.6,73.82Zm31.43,20-1.16.69c-.77-.85-.93-1.54-.46-2.08l1.16-.69C392.34,92.56,392.49,93.25,392,93.79Zm24.63,14.34,1.16-.69c.77.85.93,1.54.46,2.08l-1.15.69C416.35,109.36,416.2,108.67,416.66,108.13ZM359.34,371.7c.69-.16,1.23.31,1.62,1.38,0,0-.77.47-1.16.69-.69.16-1.24-.3-1.62-1.38ZM441.6,130.4c-.15-.69.31-1.23,1.39-1.61l.7,1.15c.15.7-.31,1.24-1.39,1.62Z"/><path class="cls-1" d="M502.21,262.88c-.93-1.54-1.47-2-1.86-1.77l-5,3c.16.7.54,1.77.85,1.85a80.06,80.06,0,0,0,8.34,2.09c3.09-1.84,2.47-4.62,2.86-7.46-1.08-2.24-3.24-1.47-5-2.24a9.14,9.14,0,0,0-.15,4.54c.07,1-.78.46-.93-.23-.31-1.39.46-1.85,1.54-.92a3.12,3.12,0,0,1,.85,1.84C503.6,263.88,502.82,264.34,502.21,262.88Z"/><path class="cls-1" d="M440.11,361.17c-.38,1.54-.69,2.77-1.08,4.31-1.16.69-2.39,1.69-3.55,2.38a4.34,4.34,0,0,0,2.08,2.16c3.25,1.46,3.25,1.46,2.63,3.92l-1,4c.47.76.7,1.15.93,1.53.31.08,1-.07,1.08-.38,2-2.77,2.17-6,2.71-9.46-1.86-1.77-1.55-4.31-1.63-6.62A1.89,1.89,0,0,0,440.11,361.17Z"/><path class="cls-1" d="M8.68,280.33c-2.78.61-1.46,4.54-4.48,4.76l-2.78-.69a1.4,1.4,0,0,0-1.15.69c-.47.54-.39,1.54.77,2.15,1.77.78,3.7.93,5.87,1.47.38,1.08,1.08,2.24,1.69,3.7,2.94-1.23,2.32-4,3.17-6.08C11.69,284,9.76,282.56,8.68,280.33Z"/><path class="cls-1" d="M14.55,251.7c-.07.31-.23.93-.31,1.23-.92,3.7-.92,3.7-4.47,3.46-1.94-.15-3.56,1.08-3.4,3.08a8.4,8.4,0,0,0,1.08,2.23l4,1c.24-2.24,2.86-2.23,4.1-4.54a17.77,17.77,0,0,0,1-4C16.87,252.94,16.25,251.48,14.55,251.7Z"/><path class="cls-1" d="M472.62,357.2a1.59,1.59,0,0,0-1.31,1.31,5.89,5.89,0,0,1-3.4,4.38,1,1,0,0,0-.46.54c.85,1.85,1.78,3.39,2.62,5.24l5.41-3.23a11.83,11.83,0,0,1,1.08-3A26.53,26.53,0,0,1,472.62,357.2Z"/><path class="cls-1" d="M431.64,95.53c-1.46-.7-2.62,0-3.32,1.46a26.58,26.58,0,0,0-1.23,4.92,23.37,23.37,0,0,1,2,3.77c-.38,1.54-.69,2.77-1,4l2.78.7,1.78-7.08c-.7-1.15-1.32-2.62-2-3.77C431,98.3,431.26,97.07,431.64,95.53Z"/><path class="cls-1" d="M343.58,400.46l5-3c.23-.93.46-1.85.7-2.77-.7-1.16-2-2.47-2-3.78s.15-1.92-1.24-1.61c-.38.23-1.08.38-1.16.69a20.72,20.72,0,0,0-2.39,9.54A2.37,2.37,0,0,1,343.58,400.46Z"/><path class="cls-1" d="M22.81,296a20.26,20.26,0,0,1-3.16,2.15c-1.16.69-1.55.92-1.39,1.61a2,2,0,0,0,2.24,1.54l1.54.39a20.37,20.37,0,0,0,3.17-2.15l3.09.77c.3.08.77-.46,1.15-.69a1.41,1.41,0,0,0-.46-2.08Z"/><path class="cls-1" d="M378.64,375.88c-.38,1.53-.69,2.76-1.08,4.3-1.16.7-2.39,1.69-3.55,2.39-.39,1.53-1.08,3,.54,4.38l4.63-2.76a8.84,8.84,0,0,0,1.7-6.77A2,2,0,0,0,378.64,375.88Z"/><path class="cls-1" d="M469.56,126.28l-1.78,7.08c2.55,2.93,2.55,2.93,5.56,1.39-.7-1.16-1.08-2.23-1.78-3.39.78-.46.85-.77,1.55-.92,1.08-.38,1.85-.84,1.78-1.85a2,2,0,0,0-2.24-1.54A10.56,10.56,0,0,1,469.56,126.28Z"/><path class="cls-1" d="M226.24,53.27l-1,4a3,3,0,0,0,3,2.39c1.93.16,2.62,0,3.09-1.84.3-1.23.3-1.23-.7-3.77A22.58,22.58,0,0,1,226.24,53.27Z"/><path class="cls-1" d="M124.38,402.6c-2.86,2.23-2.86,2.23-1.47,5.85l2.78.69c2.86-2.22,2.86-2.22,1.47-5.84Z"/><path class="cls-1" d="M264.85,38.08c-1,1.38-1.93,2.46-2.47,3.3.23,3,2.16,4.47,3.16,7,1-1.38,1.94-2.46,2.48-3.31C267.71,42.39,265.78,40.93,264.85,38.08Z"/><path class="cls-1" d="M294.58,59.58c-.93-1.54-2.09-3.46-3-5-1.16.69-2.47,2-3.71,1.69-1.31,0-1.93-.16-1.62,1.23.23.38.39,1.07.69,1.15a13.18,13.18,0,0,0,6.8,1.7A4.42,4.42,0,0,1,294.58,59.58Z"/><path class="cls-1" d="M387.86,76.39c.39,2.39,2.32,3.85,2.78,5.93,2.47-.69,2.24-2.38,2.55-3.61a28.25,28.25,0,0,1-2-3.78c-1.08-2.23-1.39-2.31-2.39-.92A6,6,0,0,0,387.86,76.39Z"/><path class="cls-1" d="M391.57,73.39l4,1a3,3,0,0,0,2.4-3c.15-1.92,0-2.62-1.86-3.08-1.23-.31-1.23-.31-3.78.69A22.54,22.54,0,0,1,391.57,73.39Z"/><path class="cls-1" d="M411.92,364.91l-.69,2.77a27.86,27.86,0,0,0-3.55,2.38c2.62,2.62,2.62,2.62,5.63,1.08q.7-2.76,1.39-5.54c.08-.3-.46-.77-.69-1.15C413.55,363.68,412.54,363.75,411.92,364.91Z"/><path class="cls-1" d="M466.76,298.17l8.34,2.08c.31.08.77-.46,1.16-.69.46-.54.31-1.23-.78-2.15l-8.34-2.09c-.3-.08-.77.46-1.15.69C465.52,296.55,466,297.32,466.76,298.17Z"/><path class="cls-1" d="M531.79,264.19c-1.08-2.23-2.55-2.93-4.71-2.16a23.93,23.93,0,0,0-5,2.69c1.09,2.23,2.55,2.93,4.71,2.16A23.93,23.93,0,0,0,531.79,264.19Z"/><path class="cls-1" d="M61.52,109.19c2.63-1.3,3.09-3.15,1.47-5.85-1.16.7-2.4,1.69-3.55,2.38s-1.55.93-1.39,1.62a2,2,0,0,0,2.24,1.54C60.67,108.65,61.21,109.11,61.52,109.19Z"/><path class="cls-1" d="M17.26,303.86a17.76,17.76,0,0,0,1-4c.16-.62-.69-1.16-1.16-1.93l-4.63,2.77c.46.77.54,1.77,1.16,1.92C14.71,303.55,16,303.55,17.26,303.86Z"/><path class="cls-1" d="M13.86,236.16c-2.63,1.3-3.09,3.15-1.47,5.84,1.16-.69,2.4-1.69,3.55-2.38s1.55-.92,1.39-1.61a2,2,0,0,0-2.23-1.54Z"/><path class="cls-1" d="M35.18,269.09a17.76,17.76,0,0,0,1-4c.15-.62-.69-1.16-1.16-1.93l-4.63,2.77c.46.77.54,1.77,1.16,1.93C32.63,268.78,33.94,268.78,35.18,269.09Z"/><path class="cls-1" d="M56.42,209.31c-.93-1.54-2.09-3.46-3-5-2.86-.39-2.17,2.07-2.86,3.54C52.17,210.54,54.1,210.7,56.42,209.31Z"/><path class="cls-1" d="M128.94,95.65c-2.55,2.3-2.55,2.3-1.39,5.53,1.62.08,3.47,1.86,4.47-.84A47.55,47.55,0,0,1,128.94,95.65Z"/><path class="cls-1" d="M76.17,321.42c-.69,1.47-.08,2.93,1.16,3.24a46.3,46.3,0,0,0,6.49,1.62,2.19,2.19,0,0,0-1.16-3.23Z"/><path class="cls-1" d="M207.09,57.64l-6.8-1.7c-.62-.16-1.16.69-1.93,1.15,0,0,.39,1.08.7,1.15,2.08.85,4.17,1.7,6.56,1.32C206.62,59.48,206.85,58.56,207.09,57.64Z"/><path class="cls-1" d="M165.66,412.19c1.32,2.62,3.24,2.77,5.87,1.47-.69-1.15-1.7-2.39-2.39-3.54-.39-1.08-.93-1.54-1.62-1.39A2,2,0,0,0,166,411C166.2,411.35,165.82,411.58,165.66,412.19Z"/><path class="cls-1" d="M286.24,56.19a17.76,17.76,0,0,0,1-4c.16-.62-.69-1.16-1.16-1.93L281.45,53c.47.77.54,1.77,1.16,1.92C283.69,55.88,285,55.88,286.24,56.19Z"/><path class="cls-1" d="M306.08,50.36l3,5c2.85.39,2.16-2.08,2.85-3.54C310.26,49.44,308.33,49.29,306.08,50.36Z"/><path class="cls-1" d="M224.2,404c-1.63-.08-2.94-1.39-3.94,0s.77,2.16,1.16,3.23l.69,1.16c.23.38.46.77.7,1.15C225.12,408.1,225.59,406.26,224.2,404Z"/><path class="cls-1" d="M412,91.27c-3.94-1.31-6.33-3.55-9.5-1.39.77,2.15,2.78,2,4.56,2.77C408.63,93,410,93,412,91.27Z"/><path class="cls-1" d="M427.63,74.9c-2.32-2.55-2.32-2.55-5.56-1.39-.08,1.61-1.85,3.46.85,4.46C424.46,77.05,426.08,75.82,427.63,74.9Z"/><path class="cls-1" d="M459.44,111.64c2.63-1.3,2.78-3.22,1.47-5.84-1.16.69-2.39,1.69-3.55,2.38-1.08.38-1.55.92-1.39,1.61a2,2,0,0,0,2.24,1.54Z"/><path class="cls-1" d="M456.66,129.27c.08-.31-.08-1,.31-1.23l3.48-2.08c-.47-.77-.62-1.46-1.16-1.92-1.16-.62-2.47-.62-4-1-.46,1.85-.93,3.69-1.47,5.85A7.84,7.84,0,0,1,456.66,129.27Z"/><path class="cls-1" d="M464.54,128c1.77-.54,2.62-2.62,5-1.69.07-.31.54-.85.31-1.23a3.52,3.52,0,0,0-4.33-2.39c-1,.07-2.08,1.77-2.08,3.07A8,8,0,0,0,464.54,128Z"/><path class="cls-1" d="M481.76,144.38c-2.63,1.3-3.09,3.15-1.47,5.85,1.16-.69,2.39-1.69,3.55-2.38s1.55-.93,1.39-1.62a2,2,0,0,0-2.24-1.54C482.61,144.92,482.07,144.46,481.76,144.38Z"/><path class="cls-1" d="M483.84,166.16a2.13,2.13,0,0,0,2.7-.3c1.47-1.93,1.7-4.16,1.93-6.39.08-.31-.69-1.15-.69-1.15-.7.15-1.78.53-1.93,1.15C484.61,161.78,484.38,164,483.84,166.16Z"/><path class="cls-1" d="M504.46,162.49c2.62-1.3,3.09-3.15,1.46-5.85-1.15.7-2.39,1.69-3.55,2.39s-1.54.92-1.39,1.61a2,2,0,0,0,2.24,1.54C503.61,162,503.84,162.34,504.46,162.49Z"/><path class="cls-1" d="M433.55,362.47a2.13,2.13,0,0,0,2.7-.31c1.16-.69,2.16-2.07,3.86-1,.24-2.23-.23-3-1.46-3.31-2.09-.85-3.56-.24-4.1,1.92A8.68,8.68,0,0,0,433.55,362.47Z"/><path class="cls-1" d="M505.45,248.77c1.32,2.62,3.17,3.08,5.87,1.47-.69-1.16-1.69-2.39-2.39-3.55s-.93-1.54-1.62-1.38a2,2,0,0,0-1.55,2.23C506,247.92,505.53,248.46,505.45,248.77Z"/><path class="cls-1" d="M482.28,290l1-4c-1.55-3-1.93-2.78-5.1-1.93C480.12,288.1,480,288.41,482.28,290Z"/><path class="cls-1" d="M483.67,296.18c2.24.24,3-.22,3.32-1.45.93-2.39.23-3.55-1.93-4.09l-2.78-.69c-.77,1.77.31,2.69,1,3.85A1.73,1.73,0,0,1,483.67,296.18Z"/><path class="cls-1" d="M471.5,325.7c-.31-2.69-.31-2.69-3.32-6.39-2.24,2.38-2.32,2.69-.69,5.39Z"/><path class="cls-1" d="M476.21,323.94c-1.77.53-2.62,2.61-5,1.69-.08.3-.54.84-.31,1.23a3.52,3.52,0,0,0,4.33,2.39c1-.08,2.08-1.77,2.08-3.08C477.22,325.17,476.67,324.71,476.21,323.94Z"/><path class="cls-1" d="M497.35,322.51c.23.38.47.76.7,1.15.54.46,1.23.31,2.16-.77.46-1.84.93-3.69,1.39-5.54-.23-.38-.46-.77-.7-1.15-.54-.46-1.23-.31-2.16.76Q498.05,319.74,497.35,322.51Z"/><path class="cls-1" d="M519.92,329.63c.39,1.08.85,1.85,1.62,1.39l1.16-.69c.46-1.85.93-3.7,1.39-5.54-.38-1.08-.92-1.54-1.62-1.39l-1.16.69C520.85,325.94,520.39,327.78,519.92,329.63Z"/><path class="cls-1" d="M39.27,229.23c-1.31-2.62-3.16-3.08-5.87-1.47C34.72,230.38,36.88,230.92,39.27,229.23Z"/><path class="cls-1" d="M14.55,251.7c.24-.92.47-1.84.7-2.77a21.44,21.44,0,0,0-4.33-1.08c-1.31,0-1.85.85-1.39,1.62.24.38.39,1.07.7,1.15Z"/><path class="cls-1" d="M25.36,245.25a17.78,17.78,0,0,0,1-4c.15-.62-.85-1.85-1.16-1.93a2.16,2.16,0,0,0-1.78,1.85,7.68,7.68,0,0,0,0,2.62C23.2,244.71,24.05,245.25,25.36,245.25Z"/><path class="cls-1" d="M41,291.37a2.14,2.14,0,0,0,2.7-.3c.85-.77-.15-2-2-2.47l-1.23-.31-1.16.69c-.46.54-.31,1.23.46,2.08C40,291.45,40.73,291.29,41,291.37Z"/><path class="cls-1" d="M48.84,293c1.7-.22,2.47-3.3,1.16-4.61a.6.6,0,0,0-.93-.23c-1.7.23-2.47,3.3-1.16,4.61Z"/><path class="cls-1" d="M126.15,113.27c.47-1.85-.15-3.31-1.23-2.93a2,2,0,0,0-1.54,2.23c-.08.31-.24.92-.31,1.23.38,1.08.85,1.85,1.62,1.39.38-.23,1.08-.38,1.16-.69S126.08,113.57,126.15,113.27Z"/><path class="cls-1" d="M72.46,329.66c-2.62,1.3-3.09,3.15-1.46,5.84C73.7,333.89,74.16,332,72.46,329.66Z"/><path class="cls-1" d="M168.94,63.14a2.12,2.12,0,0,0,.31,2.69c1.08.92,2.32-.08,2.78-1.92.07-.31.23-.92.31-1.23l-.7-1.16c-.54-.46-1.23-.31-2.08.46A1.91,1.91,0,0,0,168.94,63.14Z"/><path class="cls-1" d="M181.84,48.37a18.06,18.06,0,0,0-4-1c-.62-.16-1.85.84-1.93,1.15a2.13,2.13,0,0,0,1.85,1.77,7.73,7.73,0,0,0,2.63,0A1.66,1.66,0,0,0,181.84,48.37Z"/><path class="cls-1" d="M189.79,31.07c.23,1.69,3.32,2.46,4.64,1.15a.59.59,0,0,0,.23-.92c-.23-1.69-3.32-2.47-4.64-1.16Z"/><path class="cls-1" d="M190.41,62.62c1.85.46,3.32-.15,2.93-1.23a2,2,0,0,0-2.24-1.54l-1.23-.31c-1.08.39-1.86.85-1.39,1.62.23.38.38,1.07.69,1.15Z"/><path class="cls-1" d="M201.3,44.08c.46-1.84-.16-3.3-1.24-2.92a2,2,0,0,0-1.54,2.23l-.31,1.23c.38,1.08.85,1.85,1.62,1.39.38-.23,1.08-.39,1.16-.69S201.14,44.7,201.3,44.08Z"/><path class="cls-1" d="M226.24,53.27a17.76,17.76,0,0,0,1-4c.16-.61-.85-1.85-1.16-1.92a2.11,2.11,0,0,0-1.77,1.84,7.44,7.44,0,0,0,0,2.62A1.63,1.63,0,0,0,226.24,53.27Z"/><path class="cls-1" d="M257.94,17.27l.24-.92c-.54-1.77-3.71-2.24-4.64-1.16-.07.31-.15.61-.23.92.23.39.39,1.08.7,1.16l2.78.69C257.1,18,257.56,17.5,257.94,17.27Z"/><path class="cls-1" d="M339.21,63.56a2.11,2.11,0,0,0-.31-2.69,4,4,0,0,0-3.7-.93,2,2,0,0,0-1.55,2.23Z"/><path class="cls-1" d="M238.79,421.66c.08-.3.16-.61.23-.92-.54-1.77-3.7-2.24-4.63-1.16-.08.31-.16.62-.23.92.23.39.38,1.08.69,1.16l2.78.7C237.94,422.43,238.4,421.89,238.79,421.66Z"/><path class="cls-1" d="M414.27,73.19c-2.63,1.3-3.09,3.15-1.47,5.85C415.51,77.42,416,75.58,414.27,73.19Z"/><path class="cls-1" d="M323.35,389.51a17.76,17.76,0,0,0-1,4c-.16.62.85,1.85,1.15,1.93a2.12,2.12,0,0,0,1.78-1.85,7.38,7.38,0,0,0,0-2.61C325.2,390,324.66,389.51,323.35,389.51Z"/><path class="cls-1" d="M431.64,95.53a18.06,18.06,0,0,0,4,1c.62.16,1.85-.84,1.93-1.15a2.13,2.13,0,0,0-1.85-1.77,7.49,7.49,0,0,0-2.63,0A1.64,1.64,0,0,0,431.64,95.53Z"/><path class="cls-1" d="M366.36,388.17c.08-2.92-.69-3.77-4-3.62-.31-.07-.77.46-1.16.69-.08.31.15.7.08,1,.23.39.46.78.77.85Z"/><path class="cls-1" d="M365.67,390.94a18.63,18.63,0,0,0-4-1c-.62-.15-1.85.84-1.93,1.15a2.13,2.13,0,0,0,1.85,1.77,7.49,7.49,0,0,0,2.63,0A1.65,1.65,0,0,0,365.67,390.94Z"/><path class="cls-1" d="M455,122.64c.08-2.92-.69-3.77-4-3.62-.31-.07-.77.46-1.15.69-.08.31.15.7.07,1,.23.39.47.78.77.85Z"/><path class="cls-1" d="M374.55,415.74c-1.32-2.62-3.17-3.09-5.87-1.47C370.3,417,372.15,417.43,374.55,415.74Z"/><path class="cls-1" d="M474.5,118.36a17.76,17.76,0,0,0,1-4c.16-.62-.85-1.85-1.15-1.93a2.12,2.12,0,0,0-1.78,1.85,7.38,7.38,0,0,0,0,2.61C472.57,118.2,473.5,118.43,474.5,118.36Z"/><path class="cls-1" d="M398.25,394.52c1.32,2.62,3.17,3.08,5.87,1.47C402.5,393.3,400.65,392.83,398.25,394.52Z"/><path class="cls-1" d="M422.66,367.92c.08-.31.15-.62.23-.92-.54-1.77-3.71-2.24-4.63-1.16l-.24.92c.24.39.39,1.08.7,1.16l2.78.69C421.81,368.69,422.27,368.15,422.66,367.92Z"/><path class="cls-1" d="M433.55,362.47c-2.94-.08-3.79.69-3.63,4-.08.3.46.77.69,1.15.31.08.7-.15,1-.07.38-.23.77-.47.85-.77A21,21,0,0,0,433.55,362.47Z"/><path class="cls-1" d="M432,381.71c1.32,2.62,3.17,3.08,5.87,1.47C436.17,380.79,434.32,380.33,432,381.71Z"/><path class="cls-1" d="M484.44,281.33a2.15,2.15,0,0,0,2.71-.3c.85-.77-.16-2-2-2.47l-1.24-.31-1.15.69c-.47.54-.31,1.23.46,2.08Z"/><path class="cls-1" d="M482.14,349.12a2.12,2.12,0,0,0,.31,2.7c.77.84,2-.16,2.47-2,.07-.31.23-.93.31-1.23l-.7-1.16c-.54-.46-1.23-.31-2.08.46C482.06,348.12,482.21,348.81,482.14,349.12Z"/><path class="cls-1" d="M472.2,334.71a17.78,17.78,0,0,0-1,4c-.15.61.85,1.85,1.16,1.92,1-.07,1.54-.92,1.78-1.84a7.68,7.68,0,0,0,0-2.62A1.64,1.64,0,0,0,472.2,334.71Z"/><path class="cls-1" d="M503.45,312.58c.23,1.7,3.32,2.47,4.64,1.16a.59.59,0,0,0,.23-.92c-.23-1.69-3.32-2.47-4.64-1.16C503.3,311.89,503.53,312.28,503.45,312.58Z"/><path class="cls-1" d="M498.35,348.6c2.63-1.31,3.09-3.15,1.47-5.85C497.12,344.36,496.65,346.21,498.35,348.6Z"/><path class="cls-1" d="M524.48,341.57c2.62-1.31,3.09-3.16,1.46-5.85C523.24,337.33,522.78,339.18,524.48,341.57Z"/><path class="cls-1" d="M537.76,304.12c-1.31-2.61-3.16-3.08-5.87-1.47C533.59,305,535.45,305.51,537.76,304.12Z"/><path class="cls-1" d="M536.34,272.08c.46-1.85-.16-3.31-1.24-2.93a2,2,0,0,0-1.54,2.23l-.31,1.23c.39,1.08.85,1.85,1.62,1.39.39-.23,1.08-.38,1.16-.69C536.34,273.39,536.18,272.69,536.34,272.08Z"/><path class="cls-1" d="M3.44,242.5c.54.46,1.24.31,2.09-.46l-.7-1.15c-.54-.46-1.24-.31-2.08.46Z"/><path class="cls-1" d="M5.75,300c.47-.54.31-1.23-.46-2.08l-1.16.69c-.46.54-.31,1.23.46,2.08Z"/><path class="cls-1" d="M6.06,237.15c-2.24-.24-2.63,0-3.47,2.07C4.75,239.76,4.82,239.46,6.06,237.15Z"/><path class="cls-1" d="M7.3,237.46c.3.08.69-.16,1.15-.69a1.13,1.13,0,0,0,.54-.85c-.38-1.08-.92-1.54-1.69-1.08s-1.55.92-1.16,2C6,237.46,6.91,237.69,7.3,237.46Z"/><path class="cls-1" d="M24,260.07c1.08-.38,1.54-.92,1.39-1.61l-.7-1.16c-1.08.39-1.54.93-1.39,1.62C23.13,259.53,23.75,259.69,24,260.07Z"/><path class="cls-1" d="M3.59,281c.46-.53.3-1.23-.47-2.07L2,279.63c-.46.54-.3,1.23.47,2.08Z"/><path class="cls-1" d="M18.42,231.08s1.08-.38,1.15-.69c-.15-.69-.3,74.62-.84,74.16-1.09-.92-1.86-76.47-1.55-75.09A6.8,6.8,0,0,0,18.42,231.08Z"/><path class="cls-1" d="M28.46,284.09c.07-.31-.16-.69-.7-1.15a1.13,1.13,0,0,0-.85-.54c-1.08.38-1.54.92-1.08,1.69s.93,1.54,2,1.15C28.15,285.32,28.3,284.71,28.46,284.09Z"/><path class="cls-1" d="M13.78,266.56c.23-2.23,0-2.62-2.08-3.47C11.46,265.32,11.7,265.71,13.78,266.56Z"/><path class="cls-1" d="M10.15,270.55s.39,1.08.7,1.16c.69-.15,1.69-.23,1.85-.84.93-1.08.46-1.85-.93-1.54C11.15,269.17,10.61,270,10.15,270.55Z"/><path class="cls-1" d="M5.05,298.72l-.69-1.16c-1.08.39-1.55.92-1.39,1.62l.69,1.15C5.05,300,5.21,299.41,5.05,298.72Z"/><path class="cls-1" d="M58,174.38l1.16-.7c-.38-1.07-.92-1.54-1.62-1.38l-1.16.69C56.73,174.07,57.27,174.53,58,174.38Z"/><path class="cls-1" d="M42,238.08c-.54-.46-1.23-.31-2.08.46l.69,1.16c.54.46,1.24.31,2.09-.46C42.75,238.93,42.21,238.47,42,238.08Z"/><path class="cls-1" d="M29.31,288.56s1.08-.39,1.15-.7a3.07,3.07,0,0,0-.85-1.84c-1.08-.93-1.85-.47-1.54.92C28,287.25,28.77,288.09,29.31,288.56Z"/><path class="cls-1" d="M25.52,303.64c-.54-.47-1.24-.31-2.08.46,0,0,.46-75.24.69-74.86.54.46,1.24,76.32,2.09,75.55C26.29,304.48,25.75,304,25.52,303.64Z"/><path class="cls-1" d="M13.08,269.33c2.24.23,3-.23,2.94-1.23a2,2,0,0,0-2.24-1.54C13.55,267.48,13.32,268.4,13.08,269.33Z"/><path class="cls-1" d="M13.39,276c-.54-.47-1.23-.31-2.08.45l.69,1.16c.54.46,1.24.31,2.09-.46Z"/><path class="cls-1" d="M30,300.18c.46-.54.31-1.23-.46-2.08l-1.16.69c-.47.54-.31,1.23.46,2.08Z"/><path class="cls-1" d="M57.81,201.16c.46-.54.31-1.23-.47-2.08l-1.15.69c-.47.54-.31,1.23.46,2.08C57,201.93,57.42,201.39,57.81,201.16Z"/><path class="cls-1" d="M50.93,227.24l1.16-.69c-.39-1.08-.93-1.54-1.62-1.39l-1.16.69A1.43,1.43,0,0,0,50.93,227.24Z"/><path class="cls-1" d="M45.22,250l1.15-.69c-.38-1.07-.92-1.54-1.62-1.38l-1.16.69A1.42,1.42,0,0,0,45.22,250Z"/><path class="cls-1" d="M39.58,265.94s.38,1.08.69,1.16c.7-.16,1.7-.23,1.86-.85.92-1.08.46-1.85-.93-1.54A3.11,3.11,0,0,0,39.58,265.94Z"/><path class="cls-1" d="M69.24,166.08c-.54-.47-1.24-.31-2.09.46,0,0,.47.76.7,1.15.54.46,1.23.31,2.08-.46C70,166.92,69.47,166.46,69.24,166.08Z"/><path class="cls-1" d="M64.37,197.24l1.16-.69c-.39-1.08-.93-1.54-1.62-1.39l-1.16.69C63.14,196.93,63.68,197.39,64.37,197.24Z"/><path class="cls-1" d="M25.52,276c-.54-.47-1.24-.31-2.09.46l.7,1.15c.54.46,1.23.31,2.08-.46Z"/><path class="cls-1" d="M22.51,282.81,23.2,284c1.08-.38,1.54-.92,1.39-1.61l-.69-1.16C22.81,281.58,22.35,282.11,22.51,282.81Z"/><path class="cls-1" d="M28.84,269.35l.69,1.15c1.08-.38,1.55-.92,1.39-1.61l-.69-1.16C29.15,268.11,28.68,268.65,28.84,269.35Z"/><path class="cls-1" d="M81.75,152.85l1.16-.69c-.39-1.08-.93-1.54-1.62-1.39l-1.16.69C80.51,152.54,81.05,153,81.75,152.85Z"/><path class="cls-1" d="M30.23,275.58l.69,1.15c1.08-.38,1.55-.92,1.39-1.61L31.62,274C30.54,274.35,30.07,274.89,30.23,275.58Z"/><path class="cls-1" d="M33.62,292.13l1.16-.69c-.38-1.08-.92-1.54-1.62-1.39l-1.16.69C32.39,291.82,32.93,292.28,33.62,292.13Z"/><path class="cls-1" d="M109.63,73.15l-1.16.69c.39,1.08.93,1.54,1.63,1.39l1.15-.69A1.33,1.33,0,0,0,109.63,73.15Z"/><path class="cls-1" d="M39.26,284.06c.47-.54.31-1.23-.46-2.08l-1.16.69c-.46.54-.31,1.23.46,2.08Z"/><path class="cls-1" d="M118.36,60.61c-.46.54-.31,1.24.46,2.08L120,62c.46-.54.31-1.23-.46-2.08Z"/><path class="cls-1" d="M48.07,275.14c-2.24-.24-3,.23-2.94,1.23a2,2,0,0,0,2.24,1.54C47.6,277,47.83,276.06,48.07,275.14Z"/><path class="cls-1" d="M100.13,154.18c.46-.54.31-1.23-.47-2.08l-1.15.69c-.47.54-.31,1.23.46,2.08Z"/><path class="cls-1" d="M145.31,1.61l.7,1.16c1.08-.38,1.54-.92,1.39-1.61L146.7,0C145.62.38,145.16.92,145.31,1.61Z"/><path class="cls-1" d="M52.31,296.15s.39,1.08.7,1.16c.69-.15,1.69-.23,1.85-.85.93-1.07.46-1.84-.93-1.54C53.32,294.77,52.77,295.62,52.31,296.15Z"/><path class="cls-1" d="M145.47,21.93l-.7-1.15c-1.08.38-1.54.92-1.39,1.61l.7,1.16C145.16,23.16,145.62,22.63,145.47,21.93Z"/><path class="cls-1" d="M127.55,86.79l-1.16.69c.39,1.08.93,1.54,1.62,1.39l1.16-.69A1.43,1.43,0,0,0,127.55,86.79Z"/><path class="cls-1" d="M119,121l-1.16.69c.39,1.07.93,1.54,1.63,1.38l1.15-.69A1.4,1.4,0,0,0,119,121Z"/><path class="cls-1" d="M143.77,35.25c.54.46,1.23.31,2.08-.46l-.69-1.16c-.54-.46-1.24-.31-2.09.46C142.76,34,143.54,34.86,143.77,35.25Z"/><path class="cls-1" d="M61.27,319.33c.38,1.08.92,1.54,1.62,1.39l1.16-.69c-.39-1.08-.93-1.54-1.62-1.39Z"/><path class="cls-1" d="M150.25,53.88c.39,1.08.93,1.54,1.62,1.39l1.16-.7c-.38-1.07-.92-1.54-1.62-1.38S150.64,53.65,150.25,53.88Z"/><path class="cls-1" d="M145.62,73.65c-.47.54-.31,1.23.46,2.08l1.16-.69c.46-.54.31-1.23-.46-2.08Z"/><path class="cls-1" d="M163.69,20c-.54-.46-1.23-.31-2.08.46l.69,1.16c.54.46,1.24.31,2.09-.46Z"/><path class="cls-1" d="M155.58,48.34l-1.16.69c.39,1.08.93,1.54,1.62,1.39l1.16-.69C156.82,48.65,156.28,48.19,155.58,48.34Z"/><path class="cls-1" d="M145.31,90.58c1.08-.38,1.54-.92,1.39-1.61l-.7-1.16c-1.08.39-1.54.93-1.39,1.62Z"/><path class="cls-1" d="M69.53,312.57s.39,1.07.7,1.15c.69-.15,1.69-.23,1.85-.84.93-1.08.46-1.85-.93-1.54A3.15,3.15,0,0,0,69.53,312.57Z"/><path class="cls-1" d="M167.7,55,167,53.82c-1.08.38-1.55.92-1.39,1.61l.69,1.16C167.4,56.21,167.86,55.67,167.7,55Z"/><path class="cls-1" d="M172.65,57.52l1.15-.69c-.38-1.08-.92-1.54-1.62-1.39l-1.16.69A1.34,1.34,0,0,0,172.65,57.52Z"/><path class="cls-1" d="M183.07,48.68c.31.08.7-.15,1.16-.69a1.16,1.16,0,0,0,.54-.85c-.39-1.07-.93-1.54-1.7-1.07s-1.54.92-1.16,2A2,2,0,0,0,183.07,48.68Z"/><path class="cls-1" d="M197.51,19.91l-.69-1.15c-1.08.38-1.55.92-1.39,1.61l.69,1.16C197.21,21.15,197.67,20.61,197.51,19.91Z"/><path class="cls-1" d="M273.29,25.09c.46-.54.31-1.23-.47-2.08l-1.15.7c-.47.53-.31,1.23.46,2.07Z"/><path class="cls-1" d="M195.74,49.24c-.54-.47-1.24-.31-2.09.45l.7,1.16c.54.46,1.23.31,2.08-.46Z"/><path class="cls-1" d="M75.32,360.14c1.08-.39,1.54-.93,1.39-1.62l-.7-1.15c-1.08.38-1.54.92-1.39,1.61Z"/><path class="cls-1" d="M105.28,358.48l1.16-.69c-.39-1.08-.93-1.54-1.62-1.39l-1.16.69C104,358.17,104.58,358.63,105.28,358.48Z"/><path class="cls-1" d="M208.32,58c.31.07.7-.16,1.16-.69a1.15,1.15,0,0,0,.54-.85c-.38-1.08-.92-1.54-1.7-1.08s-1.54.92-1.16,2C207.09,57.64,207.71,57.79,208.32,58Z"/><path class="cls-1" d="M230.79,43c-.53-.46-1.23-.31-2.08.46l.69,1.16c.55.46,1.24.31,2.09-.46C231.57,43.81,231,43.35,230.79,43Z"/><path class="cls-1" d="M240.88,12l-.7-1.16c-1.08.39-1.54.92-1.39,1.62.24.38.7,1.15.7,1.15A1.41,1.41,0,0,0,240.88,12Z"/><path class="cls-1" d="M243.81,16c-.46.54-.31,1.23.47,2.08l1.15-.69c.47-.54.31-1.23-.46-2.08C245.05,15,244.2,15.79,243.81,16Z"/><path class="cls-1" d="M134.77,392.68l.7,1.16c1.08-.39,1.54-.92,1.39-1.62l-.7-1.15C135.08,391.45,134.62,392,134.77,392.68Z"/><path class="cls-1" d="M141,391.3l.7,1.16c1.08-.38,1.54-.92,1.39-1.61l-.7-1.16C141.34,390.07,140.88,390.61,141,391.3Z"/><path class="cls-1" d="M248.09,55.14c.54.47,1.24.31,2.09-.46l-.7-1.15c-.54-.46-1.23-.31-2.08.46C247.32,54.3,247.86,54.76,248.09,55.14Z"/><path class="cls-1" d="M285.2,10.33c-.54-.46-1.24-.31-2.09.46l.7,1.15c.54.47,1.23.31,2.08-.46Z"/><path class="cls-1" d="M159.49,405.41c.54.46,1.23.31,2.08-.46l-.69-1.15c-.54-.47-1.24-.31-2.09.46C158.4,404.49,159.25,405,159.49,405.41Z"/><path class="cls-1" d="M285.47,41c1.08-.39,1.54-.92,1.39-1.62l-.7-1.15c-1.08.38-1.54.92-1.39,1.61Z"/><path class="cls-1" d="M290.64,47.8l1.16-.69q-.58-1.62-1.62-1.38l-1.16.69A1.33,1.33,0,0,0,290.64,47.8Z"/><path class="cls-1" d="M301.14,41.27l1.16-.69q-.57-1.62-1.62-1.38l-1.16.69C299.91,41,300.45,41.43,301.14,41.27Z"/><path class="cls-1" d="M314.73,35.52l1.16-.69c-.38-1.08-.92-1.54-1.62-1.39l-1.16.69C313.5,35.21,314,35.67,314.73,35.52Z"/><path class="cls-1" d="M199.33,415.39c.54.46,1.24.3,2.08-.47l-.69-1.15c-.54-.46-1.23-.31-2.08.46C198.56,414.54,199.1,415,199.33,415.39Z"/><path class="cls-1" d="M198.56,422.39c-.54-.47-1.24-.31-2.09.46l.7,1.15c.54.46,1.23.31,2.08-.46C199.33,423.23,198.79,422.77,198.56,422.39Z"/><path class="cls-1" d="M318.21,46.53c-.54-.47-1.24-.31-2.09.46l.7,1.15c.54.46,1.23.31,2.08-.46Z"/><path class="cls-1" d="M320.22,54.23c.07-.31-.16-.7-.7-1.16a1.19,1.19,0,0,0-.85-.54c-1.08.38-1.54.92-1.08,1.69s.93,1.54,2,1.16C320.22,55.53,320.45,54.61,320.22,54.23Z"/><path class="cls-1" d="M333.86,39.36c.39,1.08.93,1.54,1.63,1.39l1.15-.69c-.38-1.08-.92-1.54-1.62-1.39C334.71,38.59,334.33,38.82,333.86,39.36Z"/><path class="cls-1" d="M321.07,58.69s1.08-.38,1.15-.69a3.14,3.14,0,0,0-.84-1.85c-1.09-.92-1.86-.46-1.55.92C319.75,57.38,320.6,57.92,321.07,58.69Z"/><path class="cls-1" d="M361.76,58.74c.08-.31-.15-.7-.69-1.16a1.21,1.21,0,0,0-.85-.54c-1.08.39-1.55.92-1.08,1.69s.92,1.54,2,1.16C361.53,59.66,361.68,59,361.76,58.74Z"/><path class="cls-1" d="M364.23,60.66,361.45,60c-.23,2.23,0,2.61,2.09,3.46Z"/><path class="cls-1" d="M365.47,61c.31.08.69-.15,1.16-.69a1.19,1.19,0,0,0,.54-.84c-.39-1.08-.93-1.54-1.7-1.08s-1.55.92-1.16,2A1.89,1.89,0,0,0,365.47,61Z"/><path class="cls-1" d="M354.48,42.54c.46-.54.3-1.23-.47-2.08l-1.16.69c-.46.54-.3,1.23.47,2.08C353.63,43.31,354.09,42.77,354.48,42.54Z"/><path class="cls-1" d="M270.14,404c-.54-.47-1.23-.31-2.08.46l.69,1.15c.54.46,1.24.31,2.09-.46C270.92,404.84,270.38,404.38,270.14,404Z"/><path class="cls-1" d="M274.7,401.54l.69-2.77c-2.23-.23-3,.23-2.93,1.23A2.14,2.14,0,0,0,274.7,401.54Z"/><path class="cls-1" d="M275.93,404.46s1.09-.38,1.16-.69c-.15-.69-.23-1.69-.85-1.84-1.08-.93-1.85-.47-1.54.92A3.13,3.13,0,0,0,275.93,404.46Z"/><path class="cls-1" d="M281.8,405.93l1.16-.69c-.38-1.07-.92-1.54-1.62-1.38l-1.16.69Q280.77,406.17,281.8,405.93Z"/><path class="cls-1" d="M389.79,63.46l1.16-.69c-.38-1.08-.93-1.54-1.62-1.39l-1.16.7C388.56,63.15,389.1,63.62,389.79,63.46Z"/><path class="cls-1" d="M288.06,404.56s1.08-.39,1.16-.7c-.16-.69-.23-1.69-.85-1.84-1.08-.93-1.86-.47-1.55.92A3.27,3.27,0,0,0,288.06,404.56Z"/><path class="cls-1" d="M400.14,61.47l-.69-1.15c-1.09.38-1.55.92-1.4,1.61l.7,1.16C399.83,62.71,400.29,62.17,400.14,61.47Z"/><path class="cls-1" d="M405.47,70.33c.54.46,1.23.31,2.08-.46l-.69-1.15c-.54-.47-1.24-.31-2.09.46C404.7,69.48,405.24,70,405.47,70.33Z"/><path class="cls-1" d="M408.63,81.26l-1.16.69c.39,1.08.93,1.54,1.63,1.39l1.15-.69A1.33,1.33,0,0,0,408.63,81.26Z"/><path class="cls-1" d="M419.29,70.19c.46-.54.31-1.23-.46-2.08l-1.16.7c-.47.53-.31,1.23.46,2.07C418.05,71.19,418.9,70.42,419.29,70.19Z"/><path class="cls-1" d="M317.25,396.82s1.08-.39,1.16-.7a3.18,3.18,0,0,0-.85-1.84c-1.08-.93-1.86-.47-1.55.92C316.24,395.58,316.79,396.05,317.25,396.82Z"/><path class="cls-1" d="M330.14,406.91c-.54-.46-1.23-.31-2.08.46l.69,1.16c.55.46,1.24.31,2.09-.46C331.23,407.84,330.38,407.3,330.14,406.91Z"/><path class="cls-1" d="M434.12,83.06c.46-.54.3-1.23-.47-2.08l-1.16.7c-.46.53-.31,1.23.47,2.07C433.27,83.83,433.73,83.29,434.12,83.06Z"/><path class="cls-1" d="M334.93,400.92l1.16-.7q-.58-1.62-1.62-1.38l-1.16.69A1.43,1.43,0,0,0,334.93,400.92Z"/><path class="cls-1" d="M356.86,385.47s1.09-.38,1.16-.69c-.15-.69-.23-1.7-.85-1.85-1.08-.92-1.85-.46-1.54.92C355.55,384.16,356.32,385,356.86,385.47Z"/><path class="cls-1" d="M352.15,406.86l-.69-1.16c-1.08.39-1.55.93-1.39,1.62l.69,1.16C351.84,408.09,352.31,407.55,352.15,406.86Z"/><path class="cls-1" d="M359,397.79c.54.46,1.23.31,2.08-.46l-.69-1.16c-.54-.46-1.24-.31-2.09.46C358.25,396.94,358.79,397.4,359,397.79Z"/><path class="cls-1" d="M366.36,388.17l-.69,2.77c2.24.24,3-.22,2.93-1.22A2,2,0,0,0,366.36,388.17Z"/><path class="cls-1" d="M366.44,398.33l-.7-1.15c-1.08.38-1.54.92-1.39,1.61l.7,1.16C366.13,399.57,366.59,399,366.44,398.33Z"/><path class="cls-1" d="M464.61,115.88c1.09-.38,1.55-.92,1.4-1.61l-.7-1.16c-1.08.39-1.54.93-1.39,1.62C463.84,115,464.38,115.5,464.61,115.88Z"/><path class="cls-1" d="M473.73,107l-.7-1.15c-1.08.38-1.54.92-1.39,1.61l.7,1.16A1.42,1.42,0,0,0,473.73,107Z"/><path class="cls-1" d="M475.66,121.59s1.08-.38,1.16-.69c-.16-.69-.24-1.69-.85-1.85-1.08-.92-1.86-.46-1.55.92C474.35,120.28,475.12,121.13,475.66,121.59Z"/><path class="cls-1" d="M398,370.59c.08-.31-.15-.7-.69-1.16a1.19,1.19,0,0,0-.85-.54c-1.08.38-1.54.92-1.08,1.69s.93,1.54,2,1.16A.78.78,0,0,0,398,370.59Z"/><path class="cls-1" d="M479.13,133.91c.47-.54.31-1.23-.46-2.08l-1.16.69c-.46.54-.31,1.23.46,2.08C478.28,134.68,478.75,134.14,479.13,133.91Z"/><path class="cls-1" d="M399,374.74s1.08-.38,1.16-.69a3.24,3.24,0,0,0-.85-1.85c-1.08-.92-1.85-.46-1.55.93A3.2,3.2,0,0,0,399,374.74Z"/><path class="cls-1" d="M479.13,140.45c.54.46,1.24.31,2.09-.46l-.7-1.15c-.54-.47-1.23-.31-2.08.46Z"/><path class="cls-1" d="M417.72,375.84c.46-.54.3-1.23-.47-2.08l-1.16.69c-.46.54-.3,1.24.47,2.08Z"/><path class="cls-1" d="M489.24,169.48s.39,1.08.7,1.15c.7-.15,1.7-.23,1.85-.84.93-1.08.47-1.85-.92-1.54C490.56,168.17,489.71,168.94,489.24,169.48Z"/><path class="cls-1" d="M496,166.25c-2.24-.23-2.62,0-3.47,2.08C494.73,168.56,495.11,168.33,496,166.25Z"/><path class="cls-1" d="M497.2,166.56c.31.08.69-.15,1.16-.69a1.19,1.19,0,0,0,.54-.85c-.39-1.07-.93-1.53-1.7-1.07s-1.55.92-1.16,2C496,166.25,496.89,166.49,497.2,166.56Z"/><path class="cls-1" d="M494.34,178c.31.08.7-.15,1.16-.69a1.16,1.16,0,0,0,.54-.85c-.39-1.08-.93-1.54-1.7-1.08s-1.54.93-1.16,2C493,178,494,177.87,494.34,178Z"/><path class="cls-1" d="M428.14,398.4c-.46.54-.31,1.24.46,2.08l1.16-.69c.47-.54.31-1.23-.46-2.08Z"/><path class="cls-1" d="M432.46,411.26c-.54-.46-1.23-.31-2.08.46l.69,1.16c.54.46,1.24.31,2.09-.46C433.24,412.11,432.7,411.65,432.46,411.26Z"/><path class="cls-1" d="M515.65,180.67c-.54-.46-1.23-.31-2.08.46l.69,1.15c.54.46,1.24.31,2.09-.46C516.35,181.82,515.89,181.05,515.65,180.67Z"/><path class="cls-1" d="M464.29,306.71c1.08-.39,1.54-.93,1.39-1.62l-.7-1.15c-1.08.38-1.54.92-1.39,1.61C463.82,305.93,464.13,306,464.29,306.71Z"/><path class="cls-1" d="M446.44,380.42l1.16-.69c-.38-1.08-.93-1.55-1.62-1.39l-1.16.69C445.21,380.11,445.75,380.57,446.44,380.42Z"/><path class="cls-1" d="M443.52,405.72c.46-.54.31-1.23-.46-2.08l-1.16.69c-.46.54-.31,1.23.46,2.08Z"/><path class="cls-1" d="M509.47,235.38l.7,1.16c1.08-.39,1.54-.92,1.39-1.62l-.7-1.15C509.78,234.15,509.32,234.69,509.47,235.38Z"/><path class="cls-1" d="M454.17,382.35c.54.46,1.23.31,2.08-.46l-.69-1.16c-.54-.46-1.24-.31-2.09.46C453.16,381.12,453.93,382,454.17,382.35Z"/><path class="cls-1" d="M507.69,264.7c.08-.31-.15-.69-.69-1.15a1.13,1.13,0,0,0-.85-.54c-1.08.38-1.55.92-1.08,1.69s.92,1.54,2,1.16C507.38,265.93,507.54,265.32,507.69,264.7Z"/><path class="cls-1" d="M508.54,269.17s1.08-.39,1.16-.69a3.12,3.12,0,0,0-.85-1.85c-1.08-.93-1.85-.47-1.54.92C507.23,267.86,508,268.7,508.54,269.17Z"/><path class="cls-1" d="M480.74,297.41s.38,1.08.69,1.16a3.24,3.24,0,0,0,1.86-.85c.92-1.07.46-1.84-.93-1.54C481.74,296,481.2,296.87,480.74,297.41Z"/><path class="cls-1" d="M460.5,379.36c-.46.53-.31,1.23.46,2.07l1.16-.69c.46-.54.31-1.23-.46-2.08C461.35,378.59,460.88,379.12,460.5,379.36Z"/><path class="cls-1" d="M465.36,373.05c.54.46,1.24.31,2.09-.46l-.7-1.16c-.54-.46-1.23-.3-2.08.46Z"/><path class="cls-1" d="M453.1,409.42l-1.16.7c.38,1.07.92,1.54,1.62,1.38l1.16-.69A1.43,1.43,0,0,0,453.1,409.42Z"/><path class="cls-1" d="M454.9,390.31l-1.16.7c.39,1.07.93,1.54,1.62,1.38l1.16-.69C456.14,390.62,455.6,390.16,454.9,390.31Z"/><path class="cls-1" d="M502.67,257.11c.08-.31-.15-.69-.69-1.16a1.23,1.23,0,0,0-.85-.54c-1.08.39-1.55.92-1.08,1.7s.92,1.53,2,1.15C502.36,258.34,502.52,257.72,502.67,257.11Z"/><path class="cls-1" d="M459.3,400.25c-.54-.47-1.23-.31-2.08.46l.69,1.15c.54.46,1.24.31,2.09-.46A2.39,2.39,0,0,1,459.3,400.25Z"/><path class="cls-1" d="M497.57,297.05c-.54-.47-1.24-.31-2.08.46l.69,1.15c.54.46,1.24.31,2.09-.46C498.57,298.28,498,297.82,497.57,297.05Z"/><path class="cls-1" d="M504,278c-.46.54-.31,1.23.47,2.08l1.15-.69c.47-.54.31-1.23-.46-2.08Z"/><path class="cls-1" d="M488.47,354c1.08-.39,1.54-.93,1.39-1.62l-.7-1.15c-1.08.38-1.54.92-1.39,1.61C488,353.21,488.31,353.28,488.47,354Z"/><path class="cls-1" d="M484,367c.46-.54.31-1.23-.46-2.08l-1.16.69c-.46.54-.31,1.23.46,2.08Z"/><path class="cls-1" d="M471.34,386.23s.38,1.08.69,1.16a3.24,3.24,0,0,0,1.86-.85c.92-1.08.46-1.85-.93-1.54A6.73,6.73,0,0,0,471.34,386.23Z"/><path class="cls-1" d="M517,204.27c-.54-.46-1.23-.31-2.08.46l.69,1.16c.54.46,1.24.31,2.09-.46Z"/><path class="cls-1" d="M522.28,260.05l1.16-.69c-.38-1.07-.92-1.54-1.62-1.38l-1.16.69Q521.24,260.29,522.28,260.05Z"/><path class="cls-1" d="M475.82,385.39c.31.08.69-.16,1.16-.69a1.19,1.19,0,0,0,.54-.85c-.39-1.08-.93-1.54-1.7-1.08s-1.55.92-1.16,2C474.5,385.39,475.12,385.54,475.82,385.39Z"/><path class="cls-1" d="M466.48,331.32l-.69-1.16c-1.09.38-1.55.92-1.39,1.61l.69,1.16C466.17,332.55,466.64,332,466.48,331.32Z"/><path class="cls-1" d="M489.64,377.4l-1.16.69c.39,1.08.93,1.54,1.62,1.39l1.16-.69C490.88,377.71,490.33,377.25,489.64,377.4Z"/><path class="cls-1" d="M490.72,388.79l1.16-.69c-.39-1.08-.93-1.54-1.62-1.39l-1.16.69C489.48,388.48,490,389,490.72,388.79Z"/><path class="cls-1" d="M482.85,325l1.16-.7c-.38-1.07-.93-1.54-1.62-1.38l-1.16.69A1.43,1.43,0,0,0,482.85,325Z"/><path class="cls-1" d="M481.85,336.8c.54.46,1.23.31,2.08-.46l-.69-1.16c-.54-.46-1.24-.31-2.09.46Z"/><path class="cls-1" d="M535.64,229.67c-.46.54-.31,1.23.47,2.08l1.15-.69c.47-.54.31-1.24-.46-2.08Z"/><path class="cls-1" d="M499.36,334.13c-.54-.46-1.24-.31-2.09.46l.7,1.15c.54.47,1.23.31,2.08-.46Z"/><path class="cls-1" d="M549.74,289.34c.46-.54.31-1.23-.46-2.08l-1.16.69c-.46.54-.31,1.23.46,2.08C548.89,290.11,549.35,289.57,549.74,289.34Z"/><path class="cls-1" d="M542.69,324.21l1.16-.69c-.39-1.08-.93-1.54-1.63-1.39l-1.15.69C541.45,323.9,542,324.36,542.69,324.21Z"/><path class="cls-1" d="M513.05,304.69l1.16-.69c-.39-1.08-.93-1.54-1.62-1.39l-1.16.69C511.43,304.61,512.05,304.76,513.05,304.69Z"/><path class="cls-1" d="M540,284.73l-.69-1.15c-1.08.38-1.55.92-1.39,1.61l.69,1.16A1.33,1.33,0,0,0,540,284.73Z"/><path class="cls-1" d="M546.72,288.05c.54.46,1.24.31,2.09-.46l-.7-1.16c-.54-.46-1.23-.31-2.08.46Z"/><path class="cls-1" d="M549.27,296.21l-.7-1.16c-1.08.39-1.54.93-1.39,1.62l.7,1.15C549,297.44,549.42,296.9,549.27,296.21Z"/><path class="cls-1" d="M507.63,134.17c-.24-.38-.7-1.15-.7-1.15-1.08.38-1.54.92-1.39,1.61l.7,1.16A1.34,1.34,0,0,0,507.63,134.17Z"/><path class="cls-1" d="M529.93,242.67c-.46.54-.31,1.23.46,2.08l1.16-.69c.47-.54.31-1.23-.46-2.08C531.17,241.67,530.32,242.44,529.93,242.67Z"/><path class="cls-1" d="M530.27,300.17c.54.46,1.24.31,2.09-.46l-.7-1.16c-.54-.46-1.23-.31-2.08.46C529.27,298.93,530,299.78,530.27,300.17Z"/><path class="cls-1" d="M536.49,280.62l1.16-.69c-.39-1.08-.93-1.54-1.62-1.39l-1.16.69C534.87,280.54,535.49,280.7,536.49,280.62Z"/><path class="cls-1" d="M520.12,279.14l1.16-.69c-.39-1.08-.93-1.54-1.62-1.39l-1.16.69C518.89,278.83,519.43,279.29,520.12,279.14Z"/><path class="cls-1" d="M527.85,193.53c-.54-.46-1.23-.3-2.08.46l.69,1.16c.54.46,1.24.31,2.09-.46Z"/><path class="cls-1" d="M472.51,333.48c.07-.31-.16-.7-.7-1.16a1.19,1.19,0,0,0-.85-.54c-1.08.39-1.54.92-1.08,1.69s.92,1.54,2,1.16C472.2,334.71,472.43,333.78,472.51,333.48Z"/></svg>