<svg id="Layer_1" data-name="Layer 1" xmlns="http://www.w3.org/2000/svg" viewBox="0 0 73.79 74.6"><defs><style>.cls-1{opacity:0.3;}.cls-2{fill:#f2c94c;}</style></defs><g class="cls-1"><path class="cls-2" d="M37.33,66.07c.26.13.44.17.44.3,0,.39,0,.78.09,1.09s-.65.08-.34.69c0,0,.29-.13.42,0-.13.34.13.17,0,.56.17.18.24-.43.42-.26a1.63,1.63,0,0,1,.42.11c.22.09.69-.93.64-.71s1-.47,1-.12c0,.13-.34.29-.34.42l.31.3c0,.22,1.29-1.17,1.29-.82-.09.09-.22.26-.35.39.09.39.65,0,.78.56,0,1.09-.64-.34-.64.83-.13.13.55.26.42.39s-.56,0-.56.26.43.17.56.3c-.53.56.48-.27,1,.29.42.06.06-.72.24-1.37.09-.09.46.46.6.33s.32-.13.53-.55a1.46,1.46,0,0,0-.48-1.78c-.09-.13-.22-.26-.35-.43.09-.09.13-.22.22-.22a3.1,3.1,0,0,1,.61,0,.34.34,0,0,0,.34-.21v-.83c-.13-.34-.65,0-.78-.43,0,0,.09-.13.13-.13.39,0,.79,0,1.18-.09.17.13.3.26.48.39a1,1,0,0,1,.39,0,4.18,4.18,0,0,0,.43.39c.35-.13,0-.65.44-.79l.13.14a.79.79,0,0,0,.26.17.29.29,0,0,0,.18-.31.26.26,0,0,1,.13-.34c.08,0,.17,0,.3.13s.31.21.66.17c.17-.26.39-.56.56-.78h1.4c.17.09.21.22.13.3l-.48.48c-.13,0-.35,0-.53,0s.27-.08.14.14c.13.13,0,.17.13.3s-.12.26.14.43a4.6,4.6,0,0,1,.51-.43c.17.17.65-.48.83-.3,0,.26.34.64.34.94.81-1,.76-1.29.63-1.12.19-.26.63-.39.63.39-.13.13.21,0,.42-.39,0,.26.42-.8.42-.54.55.34-.63,1.18,0,1-.09-.13.34.26.21.08s.63,0,.63-.23.42-.42.25-.59c0-.39.56.21.56-.18.13-.13-.13-.35,0-.48,0-.65.57.83.57.18.13-.17-.18-.52,0-.69,0-1-.57-.26-.57-1.17.13-.26.35-.18.57-.22a4.18,4.18,0,0,0,.43.39c.05,0,.13,0,.22,0v-.61a4.18,4.18,0,0,1-.39-.43,3.08,3.08,0,0,0,.35-.39,4.18,4.18,0,0,0-.39-.43c0-.52,0-.57.56-.57.26.26.57.52.83.78,0,0,.13,0,.17,0v-.6a6.13,6.13,0,0,0,.57-.57,1.81,1.81,0,0,0,.61-.26l-.26-.26c-.09-.08,0-.17.09-.3a1.65,1.65,0,0,0,.21-.3c0-.22,0-.48.22-.48s.18.3.22.48.17.26.22.21a.28.28,0,0,0,.17-.3c.05-.39.09-.39.48-.43,0,0,.13,0,.18,0l.56-.56c.05,0,0-.13,0-.18a.29.29,0,0,1-.35-.13c-.08-.13,0-.21.44-.26h-.09a.27.27,0,0,1,.09-.3c.09-.09.17-.09.26.09s0,.08,0,.13a.65.65,0,0,1-.22.13.62.62,0,0,0-.09.39,2.72,2.72,0,0,0,.57,0c.08,0,.22-.18.22-.26a7.69,7.69,0,0,0,0-1,.28.28,0,0,1-.35-.13c-.09-.13,0-.21.35-.26v-.6c.17-.18.39-.35.61-.57h1.08a1.42,1.42,0,0,0,.66-.69c-.26-.3-.66,0-.92-.17a3.8,3.8,0,0,1-.48.43h-.39c-.3-.35-.65-.65-1-1,.09-.08.18-.21.26-.21.66-.05,1.31-.05,2-.05,0,0,.08-.08.13-.13a4.22,4.22,0,0,1-.4-.43s0-.13,0-.17a.28.28,0,0,1-.34-.13c-.09-.13,0-.22.34-.26v-.39H63c-.05,0-.09,0-.13-.09s-.09-.09,0-.13.09-.13.13-.13c.44-.13.57,0,.66.35a.28.28,0,0,0,.35-.13c.13-.22,0-.52.3-.65h.35a2.56,2.56,0,0,0,.43.34c.27-.13.18-.34.18-.6-.18-.18-.39-.35-.65-.61-.18-.09-.53.13-.83-.09a.21.21,0,0,1-.09-.13.21.21,0,0,1,.13-.13,1.47,1.47,0,0,1,.44,0,5.64,5.64,0,0,1,.56-.52,5.13,5.13,0,0,0,.09-1.17,1.93,1.93,0,0,1,.57-.65c.26-.09.43-.13.65-.22-.3-.3-.57-.61-.83-.87l.7-.69a.19.19,0,0,0-.13-.26s-.13,0-.22,0a.28.28,0,0,1-.35-.13c0-.13.13-.26.39-.26h.61a1.33,1.33,0,0,0,.4,0l.56-.57c-.21-.39-.61-.13-.91-.21-.09-.09-.22-.13-.31-.22-.35-.3-.65-.65-1-1-.13-.13-.17-.17-.13-.3a.29.29,0,0,1,.35-.13h.17a1.06,1.06,0,0,0,.83.43l.31.31a1.35,1.35,0,0,0,.91,0s.18-.09.18-.13v-1h-.4a.28.28,0,0,1-.35-.13c0-.09.05-.18.18-.31l.13-.13c-.09-.43-.61-.08-.74-.43a4.18,4.18,0,0,0,.39-.43V38.41a.3.3,0,0,1-.35-.13.59.59,0,0,1,0-.52.28.28,0,0,1,.35-.13s0-.13,0-.17a7,7,0,0,0-.61-.61s-.13,0-.17,0v.56c-.26.26-.26.26-.48.22s-.31-.09-.35-.35a.49.49,0,0,1,.22-.47H66c0-.09,0-.18,0-.22a5.76,5.76,0,0,0,.4-.43l-.57-.57a3.47,3.47,0,0,1-.44.39.41.41,0,0,1-.08-.65,1.32,1.32,0,0,0,.34-.65c0-.17.22-.3.44-.26a.36.36,0,0,0,.35-.22V33.08a.2.2,0,0,0-.26-.18S66,33,66,33v.78c-.31.26-.31.26-1.09.18-.18-.09-.18-.22,0-.26s.26,0,.39-.09.26-.17.26-.22a.28.28,0,0,0-.3-.17c-.48-.09-.48-.09-.48-.43v-.57l.17-.17c.31-.35.31-.48,0-.82-.08-.13-.17-.18-.13-.31a.37.37,0,0,1,.35-.13c.26,0,.35-.08.39-.34a.4.4,0,0,0-.26-.48c-.13,0-.26,0-.39,0s-.09-.09-.17-.13V29a1.43,1.43,0,0,1,.39-.39c-.13-.34-.65-.08-.78-.43v-.39c.17-.35.65,0,.78-.43l-1-1h-.61a.22.22,0,0,1-.13.3c0,.22-.09.22-.18.22a.28.28,0,0,1-.3-.18s.13-.21.22-.21a2.1,2.1,0,0,1,.56,0c0-.09,0-.18,0-.22a4.18,4.18,0,0,1,.39-.43V24.62s-.13-.17-.13-.13-.21.13-.21.22a2.48,2.48,0,0,0,0,.61.29.29,0,0,1-.18.3c-.3,0-.65.13-1-.13.13-.39.48-.56.74-.87a4.18,4.18,0,0,1-.39-.43v-.61h-.57s-.08,0-.13-.08-.08-.09,0-.13.09-.13.13-.13c.44-.13.57,0,.65.34.18.05.31,0,.35-.13.09-.3.13-.65.48-.82v-.56a.37.37,0,0,0-.13-.35.46.46,0,0,0-.52,0c-.26.21-.48.47-.74.69-.09-.09-.22-.13-.22-.22a4.44,4.44,0,0,1,0-.73c.13-.18.39-.26.35-.48s-.35-.13-.52-.13-.31.26-.44.39l-.57-.56a.77.77,0,0,1,.31-.22,3.1,3.1,0,0,1,.61,0c.09,0,.17-.13.3-.22l-.56-.56a1.29,1.29,0,0,1-.39,0,4.34,4.34,0,0,0-.44-.39.85.85,0,0,0-.39.13c-.13,0-.09-.09,0-.13s.26,0,.17.17a.38.38,0,0,1-.22.17s-.13-.08,0-.21.13-.27.17-.31l.39-.39c-.13-.13-.26-.3-.34-.39a4,4,0,0,1,.34-.43c-.3-.31-.65-.09-1-.18a5.72,5.72,0,0,1-.52-.56c.09-.26.52-.39.35-.82l-.39-.39a3.47,3.47,0,0,0,.39-.44c0-.17.09-.43-.18-.52s-.26.18-.43.31c-.39-.09-.09-.61-.44-.78h-.48c-.21.26-.43.56-.65.78a1.3,1.3,0,0,1-.48-.05,2.56,2.56,0,0,0-.43-.34l-.57.56s0,.13,0,.17a.22.22,0,0,1,.3.13,2.21,2.21,0,0,1,.09.35.28.28,0,0,1-.17.3c-.05,0-.22-.13-.22-.21a2.72,2.72,0,0,1,0-.57.31.31,0,0,1-.39-.26,1.81,1.81,0,0,1,0-.52h-.57a.23.23,0,0,1-.13-.08s-.09-.09,0-.13.08-.13.13-.13c.43-.13.56,0,.65.34.09,0,.17.05.22,0a5.91,5.91,0,0,0,.56-.56c-.08-.09-.13-.22-.21-.22a3.1,3.1,0,0,0-.61,0,.3.3,0,0,1-.31-.17c.13-.13.26-.3.39-.43-.26-.31-.78-.13-1-.57-.14.13-.31.26-.44.39h-.78c-.13-.13-.31-.26-.44-.39H51.49c-.13,0-.3,0-.3-.17s.13-.22.21-.22.4,0,.53-.21a7.91,7.91,0,0,0-.61-.52,1.8,1.8,0,0,1-.4.3c-.39-.13-.08-.61-.43-.78h-.83c-.17-.22-.17-.22.18-.61l-.53-.52c-.48-.17-.91,0-1.3-.09l-.4.39c-.48,0-1,0-1.52,0-.22,0-.31-.21-.26-.43,0,0,0-.13,0-.17l-.3-.31a1.57,1.57,0,0,1-.09-.34c0-.26.09-.52-.22-.74h-.39a3.67,3.67,0,0,1-.87.74c-.22-.13-.13-.35-.17-.57s-.4-.34-.61-.56h-.74c-.18-.13-.31-.26-.48-.39a3.47,3.47,0,0,1-.44.39h-.61v.56c0,.05,0,.09-.09.13s-.08.09-.13,0-.13-.09-.13-.13c-.13-.44,0-.57.35-.65V7.59a.28.28,0,0,0-.13-.35c-.09,0-.17,0-.3.17l-.13.13A1,1,0,0,1,39.73,7a2.31,2.31,0,0,1-.26-.69,4.26,4.26,0,0,1-.44.39,3.3,3.3,0,0,0-.43-.35c-.27.26-.48.48-.74.74-.22,0-.27-.22-.27-.39a.4.4,0,0,0-.17-.35,1.29,1.29,0,0,1-.39,0c-.26.26-.57.52-.83.78C36,7,36,6.76,36,6.59a.38.38,0,0,0-.26-.26,10.64,10.64,0,0,0-1.13,0c-.52.52-.52.52-1,.22-.05-.18.08-.44-.13-.52s-.27.26-.44.26a2.39,2.39,0,0,1-1.35,0c-.17-.21-.09-.52-.09-.78a.28.28,0,0,0-.17-.3c-.05,0-.18.17-.22.26s0,.26-.09.39S31,5.9,31,5.94h-.61a.31.31,0,0,1-.26.39,3.53,3.53,0,0,0-.74.13c-.13,0-.09-.09,0-.13s.26,0,.18.17a.55.55,0,0,1-.22.18s-.13-.09,0-.22a3.68,3.68,0,0,0,.18-1.34h-.66c-.22.26-.43.56-.56.73a3.77,3.77,0,0,0-.7.18c-.13,0-.18.17-.13.39V6.33a.26.26,0,0,1,.3.09c.09.08.09.17-.08.26s-.09,0-.14,0a.5.5,0,0,1-.13-.21.49.49,0,0,1-.34-.22c-.13-.22,0-.52-.31-.65H26c-.13.13-.31.26-.44.39h-.39c-.26.17-.18.48-.18.74s0,.34-.21.43S24.66,7,24.66,7a4.09,4.09,0,0,1-.05-.78c0-.17-.22-.26-.43-.26a.4.4,0,0,0-.35.17c.13.13.22.26.35.39a1.22,1.22,0,0,1-.26.22,9.86,9.86,0,0,1-1.09,0l-.61-.61v-.6c-.31,0-.4-.13-.4-.31a5.16,5.16,0,0,0-.08-.78c0-.13-.18-.17-.35-.13V5.68a.19.19,0,0,1-.26.17A.17.17,0,0,1,21,5.72V5.33c-.09-.08-.22-.21-.31-.21-.3,0-.65-.13-.91.17a4.18,4.18,0,0,1,.39.43v.39c.13.31.48.18.65.31a.26.26,0,0,1,.13.34h.57s.09,0,.13.09.09.09,0,.13-.08.13-.13.13c-.43.13-.56,0-.65-.35-.09,0-.17,0-.22,0a6,6,0,0,0-.56.57c0,.13-.05.26-.05.39a4.18,4.18,0,0,1,.39.43c-.17.26-.39.26-.65.13s-.17-.22-.3-.26a.46.46,0,0,0-.53,0,.34.34,0,0,0-.08.35.5.5,0,0,0,0,.13A2.84,2.84,0,0,1,19.3,9c.13.21-.09.47-.39.52a.28.28,0,0,1-.13.34c-.14.09-.22,0-.27-.34H17.9a.74.74,0,0,0-.21.3c-.05.26,0,.52-.05.69s-.39.44-.56.61h-.61a.29.29,0,0,0,.13.35c.22.13.52-.05.65.35v.3a1.75,1.75,0,0,1-.3.22c-.4,0-.79,0-1.18.08,0,0-.09.09-.13.13A3.47,3.47,0,0,1,16,13s0,.13,0,.17a.24.24,0,0,1,.31.13c0,.09,0,.22.08.35a.28.28,0,0,1-.17.3s-.22-.13-.22-.22a2.62,2.62,0,0,1,0-.56h-.39a.3.3,0,0,0-.35.13c0,.09,0,.17.13.26s.18.17.13.26a.28.28,0,0,1-.35.13h-.39c0,.3-.13.39-.3.39a4.16,4.16,0,0,0-.79.09c-.13,0-.17.17-.13.34h.65c.09.09.22.26.35.39s.13,0,.26,0h-.08a.26.26,0,0,1,.08-.3c.09-.09.18-.09.27.09s0,.08,0,.13a.49.49,0,0,1-.22.13,1.55,1.55,0,0,0-.08.6,1.93,1.93,0,0,1-.79.65c-.21,0-.48,0-.69-.08s-.18-.18-.13-.35h-.61c-.18.17-.35.39-.57.61a2.42,2.42,0,0,0,0,1.25c.05.13.18.18.35.13v-.6a7.66,7.66,0,0,0,.57-.57c.3.13.26.35.17.65-.3.09-.35.57-.74.52v.61s-.09.13-.13.13-.26,0-.39.09-.22.13-.31.21a9,9,0,0,0-.69.7c0,.22.17.26.26.43,0,.35.3.74-.18,1-.13-.13-.26-.22-.39-.35-.09.09-.17.13-.17.18v1.6c-.18.35-.66.09-.79.43a1.51,1.51,0,0,1,.35.44l-.56.56H9c-.3.48-.3.48.18,1a1.83,1.83,0,0,0-.35.43.48.48,0,0,0,.48.22c.09,0,.22.13.3.21L9,26.49a2.34,2.34,0,0,0-.48,0c-.13.17-.31.39-.57.7,0-.05.09,0,.22.08s.39-.08.52.18a1.33,1.33,0,0,1-.48.52,2.62,2.62,0,0,1-.69.26c.26.34.61.52.78.86-.13.22-.35.13-.52.18a.17.17,0,0,0-.13.13c0,.08,0,.21.17.26a5.21,5.21,0,0,0,.79,0c.34.26.17.6.17.95,0,.09-.13.17-.22.22s-.17-.22-.3-.26a.91.91,0,0,0-.35-.09.3.3,0,0,0-.18,0c-.17.31-.56.26-.82.44a1,1,0,0,0-.48.52c.13.21.35.17.52.17s.3-.26.44-.39c.43.26,0,.78.26,1.08s.82-.13,1.09.31c-.27.26-.53.56-.79.82v.39c-.13.35-.65,0-.78.43l.56.57s.13,0,.31,0H8a.26.26,0,0,1,.09-.3c.09-.09.17-.09.26.08s0,.09,0,.13a.44.44,0,0,1-.22.13c-.13.13-.09.26,0,.31s.44.13.7.21c-.17.18-.26.31-.44.48a4,4,0,0,0,0,.69.4.4,0,0,0,.48.31H8.76a.28.28,0,0,1,.08-.31c.09-.08.18-.08.26.09s0,.09,0,.13a.46.46,0,0,1-.22.13c-.08.09,0,.17-.08.22-.27.3-.57.56-.79.82,0,.52,0,.52.35.61h.22a.48.48,0,0,1,.22.65c-.09.13-.18.17-.31.34a11.36,11.36,0,0,0,0,1.65c.13.22.22.22.31,0s0-.26.08-.34a.87.87,0,0,1,.22-.31l1,1a.32.32,0,0,1-.43.17c-.35.31-.57.48-.74.66.26.34.82.13,1,.6a1.39,1.39,0,0,1,.43,0c.18.17.35.34.57.52,0,.26,0,.26-.35.26h-.39v1.6h.61s.09.09.13.13v.13a9,9,0,0,1-.7.69.77.77,0,0,0,.31.22.51.51,0,0,0,.35,0,9,9,0,0,0,.69-.7,1.22,1.22,0,0,1,.22.26.59.59,0,0,1,0,.39c-.05.13-.22.18-.26.31a.45.45,0,0,0,0,.52l.3.3a4.06,4.06,0,0,0-.35.43v.35c.13.3.44.17.66.3a.28.28,0,0,1,.13.35h.39c.3,0,.44.13.44.43V50h.6s.09.08.14.13v.13c-.22.26-.48.47-.7.69.09.22.26.22.48.22s.22.13.3.17a4.18,4.18,0,0,0-.39.43c.26.31.61.52.78.87a1.36,1.36,0,0,1-.08.39c-.05.13-.18.17-.35.13a2.62,2.62,0,0,0,0,.56c0,.13.17.22.26.18s.17-.22.26-.26c.31-.22.61-.05.66.34a.27.27,0,0,1,.34.13.25.25,0,0,1,.05.18v.65c.3.47.83.82,1.22,1.3v.56h1l.57.57c-.09.43-.66,0-.75.47.18.13.35.31.61.52h1c.35.18.48.44.74.61-.35.35-.7.13-1,.22-.05.13-.14.3-.18.43a2,2,0,0,0,.7.74c.22,0,.43,0,.52-.18s0-.26,0-.39.18-.21.27-.17l.13.13a3.59,3.59,0,0,0,.39.39V61l-.74.74c-.05.39-.26.78.17,1.08h.35a4.34,4.34,0,0,1,.44.39c.17-.08.17-.21.17-.34,0-.39.17-.48.48-.44.13,0,.22.13.3.18V63c-.13.13-.26.3-.39.43v.82l.57.57c.13-.13.3-.26.43-.39h.4c.17.08.21.21.08.3l-.69.7c.13.13.26.3.39.43s0,.43-.18.56c-.26-.26-.56-.52-.82-.78-.05,0-.13.09-.13.13-.05.52-.05,1-.05,1.56,0,.13.13.22.44.26H22c.39.35.83-.39,1,1,0,.21.63-.09.63-.35s-.05-.68-.21-.84c-.13-.39.41-.16.37-.55s.35-.6.26-.9c-.13-.13.74-.27.66-.35s.81,0,.81-.07c0-1.82.84.78.84-1.09.09-.13,1,1.16,1.22,1V64.16a7.39,7.39,0,0,1,.56-.56c.35,0,.44.43.7.52V65a2.47,2.47,0,0,1,.52.18,4.69,4.69,0,0,1,.48-.44h.83c.18.18.35.4.57.61a3.08,3.08,0,0,1-.35.39c.39.35.43.35.91-.13.31,0,.44.52.83.35.26.26.57.52.83.82h.44c0-.17.13-.34.17-.52a3.79,3.79,0,0,0-.44-.47l.4-.39c.13-.13.17-.18.3-.13s.13.21.13.34c0,.31,0,.35.35.35a.37.37,0,0,1,.35.13.17.17,0,0,1,0,.13c-.17.17-.43.35-.35.69a4.71,4.71,0,0,0,1,1c.13,0,.26,0,.39-.08s.18-.18.13-.35a.22.22,0,0,1-.3-.13,2.21,2.21,0,0,1-.09-.35.28.28,0,0,1,.17-.3s.22.13.22.22a2.1,2.1,0,0,1,0,.56.24.24,0,0,1,.31.13c.08.22.13.43.21.69.53-.26.09-.73.31-1l.39-.39a2,2,0,0,1-.35-.82c0-.13.09-.09.13,0s0,.26-.17.17a.39.39,0,0,1-.17-.21S37.2,65.9,37.33,66.07ZM58.24,16H57.07s-.09-.09-.13-.13,0-.17.13-.26h1.17s.09.09.13.13S58.37,16,58.24,16Zm2.22,39.58a.51.51,0,0,1,.83,0c0,.22.13.52-.26.56A6,6,0,0,0,60.46,55.62Zm3.45-28.31c.3.26.3.52,0,.83C63.6,27.83,63.6,27.57,63.91,27.31Zm.34,3.12s-.13-.08-.13-.13v-.39s.09-.08.13-.13a.1.1,0,0,1,.14,0c.21.09.21.52,0,.65C64.34,30.48,64.3,30.43,64.25,30.43ZM9.63,40c-.26.3-.53.3-.83,0C9.1,39.67,9.37,39.67,9.63,40Zm46,21.46v-.17l.13-.13c.09-.05.17,0,.26.13s0,.13,0,.17a.3.3,0,0,1-.13.35C55.76,61.82,55.63,61.69,55.63,61.43ZM39.34,8c-.09,0-.18,0-.26-.13l.13-.13c.08,0,.17,0,.26.13S39.42,7.93,39.34,8ZM20.47,9c.05.09,0,.18-.13.26l-.13-.13c0-.08,0-.17.13-.26Zm23.88.48.13-.13c.08,0,.17,0,.26.13l-.13.13C44.52,9.62,44.43,9.58,44.35,9.45Zm9.93,4.94c-.09,0-.18,0-.26-.13l.13-.13c.09,0,.17,0,.26.13ZM64.73,34.51l.13.13c0,.09,0,.17-.13.26l-.13-.13C64.52,34.73,64.56,34.64,64.73,34.51ZM9.1,34.86c-.08,0-.17,0-.26-.13L9,34.6c.09-.05.18,0,.27.13S9.15,34.81,9.1,34.86ZM66.26,41.7l-.13-.13c.08-.13.17-.17.26-.13l.13.13C66.43,41.7,66.35,41.75,66.26,41.7Zm-1.61,4.82-.13-.13c.08-.13.17-.18.26-.13l.13.13C64.82,46.52,64.73,46.56,64.65,46.52Zm-1.09,3.73.13.13c-.09.13-.18.17-.26.13l-.13-.13C63.38,50.25,63.47,50.2,63.56,50.25ZM16.42,53.93c0,.09,0,.17-.13.26l-.13-.13c0-.09,0-.17.13-.26Zm45,.35c.09-.05.18,0,.26.13l-.13.13c-.08,0-.17,0-.26-.13Z"/><path class="cls-2" d="M35.68,69.19c.17-.17.22-.26.17-.3l-.56-.57c-.09.05-.22.13-.22.18a9.14,9.14,0,0,0,0,1.17c.35.34.69.17,1.09.13.26-.22.08-.48.13-.74a1.25,1.25,0,0,0-.61.13c-.13,0-.09-.09,0-.13s.26,0,.17.17-.13.13-.22.18S35.5,69.32,35.68,69.19Z"/><path class="cls-2" d="M20.52,64.25h-.61c-.13-.13-.31-.26-.44-.39a.6.6,0,0,0-.22.34c-.08.48-.08.48-.43.48h-.57l-.17.17c0,.05,0,.14.09.14a2.91,2.91,0,0,0,1.35,0c.17-.31.52-.35.82-.44A.25.25,0,0,0,20.52,64.25Z"/><path class="cls-2" d="M16.9,4.6c-.17-.35-.65,0-.78-.44V3.77A.21.21,0,0,0,16,3.64c-.09,0-.22,0-.26.18a4.49,4.49,0,0,0,0,.82c-.13.09-.27.22-.44.35.26.34.61.17.92.21S16.64,4.81,16.9,4.6Z"/><path class="cls-2" d="M20.91,4.42h-.17c-.53,0-.53,0-.61-.47a.4.4,0,0,0-.53-.35,1.22,1.22,0,0,0-.26.22v.56c.31,0,.39.3.74.39a2.64,2.64,0,0,0,.57,0C20.82,4.77,21,4.64,20.91,4.42Z"/><path class="cls-2" d="M22.13,68.41a.21.21,0,0,0-.22-.13.85.85,0,0,1-.7-.3.11.11,0,0,0-.08,0c-.22.18-.39.35-.61.52l.61.61a1.72,1.72,0,0,1,.43,0A3.88,3.88,0,0,1,22.13,68.41Z"/><path class="cls-2" d="M65.74,51.81c0-.22-.09-.35-.31-.39a3.27,3.27,0,0,0-.7,0,3.43,3.43,0,0,1-.43.39h-.57v.39h1c.13-.13.31-.26.44-.39Z"/><path class="cls-2" d="M12.07,52.8l.56.57H13c.13-.13.26-.35.43-.39s.26,0,.17-.22-.08-.13-.13-.13a2.8,2.8,0,0,0-1.35,0A.33.33,0,0,1,12.07,52.8Z"/><path class="cls-2" d="M15.29,7a3.08,3.08,0,0,1-.39-.35c-.13-.13-.18-.17-.26-.13a.27.27,0,0,0-.13.35v.22a2.37,2.37,0,0,0,.39.34v.44S15,7.93,15,8a.19.19,0,0,0,.26-.13Z"/><path class="cls-2" d="M16.51,56.62H15.9c-.13-.13-.3-.26-.44-.39s-.43,0-.56.21l.52.52a1.23,1.23,0,0,0,1,0A.27.27,0,0,0,16.51,56.62Z"/><path class="cls-2" d="M62.9,57.83h-1c-.3.44-.3.44,0,.78.13-.13.26-.21.39-.34.09.08.13.08.18.17s.17.22.3.17a.26.26,0,0,0,.13-.34A1.61,1.61,0,0,1,62.9,57.83Z"/><path class="cls-2" d="M64.52,23.28H64a.42.42,0,0,0-.22.48c.05.26.09.34.35.34s.17,0,.48-.21A3.39,3.39,0,0,1,64.52,23.28Z"/><path class="cls-2" d="M5.58,23.89c-.4-.31-.4-.31-.83,0v.39c.39.3.39.3.83,0Z"/><path class="cls-2" d="M67.83,27.88c-.22-.09-.4-.18-.53-.22-.39.13-.52.43-.82.65l.52.22C67.35,28.4,67.48,28.09,67.83,27.88Z"/><path class="cls-2" d="M66,32.51l.57-.56c-.13-.13-.35-.26-.35-.43s0-.26-.22-.18-.13.09-.13.13a2,2,0,0,0,0,1A.55.55,0,0,1,66,32.51Z"/><path class="cls-2" d="M1,32.51H.17c-.08,0-.13.18-.17.22l.57.56a7.28,7.28,0,0,0,.52-.56S1.09,32.6,1,32.51Z"/><path class="cls-2" d="M66.82,45.39c-.3.13-.43.43-.69.56.17.31.39.22.56.22a4.34,4.34,0,0,1,.44-.39c.26-.22.26-.26,0-.35A.89.89,0,0,0,66.82,45.39Z"/><path class="cls-2" d="M67.35,45.78v.56a.41.41,0,0,0,.48.22c.26,0,.35-.09.35-.35s0-.17-.22-.47A3.39,3.39,0,0,1,67.35,45.78Z"/><path class="cls-2" d="M19.08,60.65h-.39a3.47,3.47,0,0,0-.44-.39c-.26.43-.26.43.05.78h.78s.09-.09.13-.13S19.25,60.69,19.08,60.65Z"/><path class="cls-2" d="M29.8,65.68v1.17s.08.09.13.13.17,0,.26-.17V65.64s-.09-.09-.13-.13S29.88,65.55,29.8,65.68Z"/><path class="cls-2" d="M46.61,70.62c.26-.22.31-.43.13-.69a3.52,3.52,0,0,0-.52-.57.47.47,0,0,0-.13.7A3.45,3.45,0,0,0,46.61,70.62Z"/><path class="cls-2" d="M51.58,3.38c.26.3.52.3.83,0-.14-.13-.31-.26-.44-.39s-.17-.17-.26-.13a.27.27,0,0,0-.13.35S51.58,3.34,51.58,3.38Z"/><path class="cls-2" d="M24.18,4a2.62,2.62,0,0,0,.56,0c.09,0,.13-.13.22-.22l-.52-.52c-.09.09-.22.13-.22.22A1,1,0,0,0,24.18,4Z"/><path class="cls-2" d="M23,3.82c-.26-.31-.53-.31-.83,0,.13.13.3.26.44.39s.17.17.26.13A.28.28,0,0,0,23,4Z"/><path class="cls-2" d="M29.4,5.2a2.18,2.18,0,0,0,.57,0c.09,0,.13-.13.22-.21l-.52-.52c-.09.08-.22.13-.22.21A1,1,0,0,0,29.4,5.2Z"/><path class="cls-2" d="M38.07,6l.57-.57c0-.39-.35-.21-.57-.26A.51.51,0,0,0,38.07,6Z"/><path class="cls-2" d="M55.63,11.84c-.39-.26-.39-.26-.79,0,0,.21-.13.52.27.56A4.71,4.71,0,0,1,55.63,11.84Z"/><path class="cls-2" d="M13.68,14.87a.3.3,0,0,0-.39.26,5.53,5.53,0,0,0,0,.91.3.3,0,0,0,.39-.26Z"/><path class="cls-2" d="M63.3,20.9v-1c0-.08-.13-.13-.22-.21s-.13.08-.13.13a1.58,1.58,0,0,0,0,.91C63,20.9,63.17,20.9,63.3,20.9Z"/><path class="cls-2" d="M4.57,29.7c-.3.26-.26.52,0,.82l.4-.43c.13-.09.17-.18.13-.26a.27.27,0,0,0-.35-.13S4.66,29.7,4.57,29.7Z"/><path class="cls-2" d="M66.13,31.3a2.62,2.62,0,0,0,.56,0c.09,0,.13-.13.22-.22l-.52-.52c-.09.09-.22.13-.22.22A1,1,0,0,0,66.13,31.3Z"/><path class="cls-2" d="M67.57,33.73l-.57.56c0,.39.35.22.57.26A.56.56,0,0,0,67.57,33.73Z"/><path class="cls-2" d="M7.62,37.15c0-.21.09-.43-.13-.52s-.26.18-.39.26L7,37l-.13.13A.49.49,0,0,0,7.62,37.15Z"/><path class="cls-2" d="M65.65,49.07c0-.56.26-1-.13-1.3-.26.18-.18.44-.22.7A.64.64,0,0,0,65.65,49.07Z"/><path class="cls-2" d="M68.35,50.59c.26-.39.26-.39,0-.78-.22,0-.52-.13-.57.26C68,50.25,68.18,50.42,68.35,50.59Z"/><path class="cls-2" d="M64.52,56c.26.3.52.26.82,0-.13-.13-.3-.26-.43-.39s-.18-.17-.26-.13a.27.27,0,0,0-.13.35Z"/><path class="cls-2" d="M62.08,56.23s.13,0,.17,0l.39.39c.09-.09.18-.13.22-.22a2.61,2.61,0,0,0,0-.56H62A.93.93,0,0,1,62.08,56.23Z"/><path class="cls-2" d="M62.51,57.22c.13.22.44.27.39.61.05,0,.13.05.18,0a.47.47,0,0,0,.17-.65c0-.13-.3-.22-.48-.17A1.5,1.5,0,0,0,62.51,57.22Z"/><path class="cls-2" d="M60.9,60c-.26-.3-.52-.3-.83,0,.13.13.31.26.44.39s.17.18.26.13a.27.27,0,0,0,.13-.34S60.9,60.09,60.9,60Z"/><path class="cls-2" d="M58.07,61a.29.29,0,0,0,.13.35,1.66,1.66,0,0,0,.91,0s.13-.13.13-.13-.13-.22-.21-.22A4,4,0,0,0,58.07,61Z"/><path class="cls-2" d="M59.24,63.64c.27.3.53.3.83,0-.13-.13-.3-.26-.43-.39s-.18-.17-.26-.13a.27.27,0,0,0-.14.35S59.24,63.55,59.24,63.64Z"/><path class="cls-2" d="M20.13,63.42a.29.29,0,0,0,.13.35c.13.13.34.22.26.48.3,0,.39-.13.39-.31s-.09-.47-.39-.47A1,1,0,0,0,20.13,63.42Z"/><path class="cls-2" d="M47.79,66.63c-.31.26-.31.52,0,.83.13-.13.26-.31.39-.44s.17-.17.13-.26a.28.28,0,0,0-.35-.13C47.92,66.68,47.83,66.63,47.79,66.63Z"/><path class="cls-2" d="M31.41,67.46H32c.35-.31.31-.35.09-.74C31.58,67.11,31.54,67.11,31.41,67.46Z"/><path class="cls-2" d="M30.62,67.85c.05.3.13.39.31.39.35,0,.48-.09.48-.39v-.39c-.26,0-.35.13-.48.26A.25.25,0,0,1,30.62,67.85Z"/><path class="cls-2" d="M26.29,67.22c.35-.13.35-.13.74-.65-.39-.22-.44-.22-.74.08Z"/><path class="cls-2" d="M26.68,67.78c-.13-.22-.44-.26-.39-.61-.05,0-.13,0-.18,0a.48.48,0,0,0-.17.65c0,.13.3.22.48.18S26.59,67.87,26.68,67.78Z"/><path class="cls-2" d="M27.57,70.53l-.13.13c0,.08,0,.17.18.26h.78l.13-.13c0-.09,0-.18-.17-.26Z"/><path class="cls-2" d="M27.57,72c-.13.08-.21.17-.13.26l.13.13h.79c.13-.09.17-.18.13-.26L28.36,72Z"/><path class="cls-2" d="M34.85,4.42c.3-.26.3-.52,0-.82A.48.48,0,0,0,34.85,4.42Z"/><path class="cls-2" d="M20.91,4.42h.39a2.41,2.41,0,0,0,0-.6c0-.18-.17-.22-.26-.14s-.13.09-.13.14Z"/><path class="cls-2" d="M22.13,5.64a2.71,2.71,0,0,0,.57,0c.08,0,.21-.18.21-.22a.28.28,0,0,0-.3-.17,1.11,1.11,0,0,0-.35.08C22.13,5.33,22.09,5.46,22.13,5.64Z"/><path class="cls-2" d="M16.51,9.23a.3.3,0,0,0,.13.35c.13.09.26-.09.26-.35V9.06l-.13-.13c-.09,0-.17,0-.26.13S16.51,9.19,16.51,9.23Z"/><path class="cls-2" d="M16.55,10.32c.09.21.53.21.66,0a.09.09,0,0,0,0-.13c-.09-.22-.53-.22-.66,0Z"/><path class="cls-2" d="M53.19,12.05c.26,0,.44-.13.35-.26a.28.28,0,0,0-.35-.13H53c-.14.09-.22.18-.14.26s.09.13.14.13Z"/><path class="cls-2" d="M12.46,14.65c-.26-.3-.52-.3-.83,0C11.94,15,12.2,15,12.46,14.65Z"/><path class="cls-2" d="M61.29,16a.3.3,0,0,0-.35.13c-.08.17.09.3.35.3h.18l.13-.13c0-.08,0-.17-.13-.26A.3.3,0,0,0,61.29,16Z"/><path class="cls-2" d="M63.69,17.25a2.62,2.62,0,0,0,0-.56c0-.09-.18-.22-.22-.22a.3.3,0,0,0-.17.31,1.05,1.05,0,0,0,.08.34A.23.23,0,0,0,63.69,17.25Z"/><path class="cls-2" d="M66.26,17.73c-.22.09-.22.52,0,.65a.09.09,0,0,0,.13,0c.22-.09.22-.52,0-.65Z"/><path class="cls-2" d="M62.08,18.86c0,.26.13.43.26.35a.28.28,0,0,0,.13-.35v-.18c-.09-.13-.18-.21-.26-.13s-.13.09-.13.13Z"/><path class="cls-2" d="M64.91,19.68c.26,0,.43-.13.35-.26a.28.28,0,0,0-.35-.13h-.18c-.13.09-.21.18-.13.26s.09.13.13.13Z"/><path class="cls-2" d="M64.52,23.28a2.62,2.62,0,0,0,.56,0c.09,0,.22-.17.22-.22s-.17-.17-.31-.17a.86.86,0,0,0-.34.09A.21.21,0,0,0,64.52,23.28Z"/><path class="cls-2" d="M68.7,26.44h.13a.43.43,0,0,0,0-.65H68.7c0,.05-.13.09-.13.13v.39C68.57,26.36,68.65,26.4,68.7,26.44Z"/><path class="cls-2" d="M2.35,27.92c-.26-.3-.52-.3-.83,0A.54.54,0,0,0,2.35,27.92Z"/><path class="cls-2" d="M3.18,36.33c.26.3.52.3.83,0C3.7,36,3.44,36,3.18,36.33Z"/><path class="cls-2" d="M66.91,38.54a.3.3,0,0,0,.35-.13.53.53,0,0,0,0-.52.28.28,0,0,0-.35-.13Z"/><path class="cls-2" d="M5.75,39.67h.13a.43.43,0,0,0,0-.65H5.75s-.13.08-.13.13v.39S5.71,39.62,5.75,39.67Z"/><path class="cls-2" d="M68.13,48.77c-.26-.3-.52-.3-.83,0C67.61,49.07,67.87,49.07,68.13,48.77Z"/><path class="cls-2" d="M12.85,49.77a2.71,2.71,0,0,0-.57,0c-.08,0-.21.17-.21.22a.28.28,0,0,0,.3.17.91.91,0,0,0,.35-.09C12.85,50,12.89,49.94,12.85,49.77Z"/><path class="cls-2" d="M65.74,51.81a2.1,2.1,0,0,0,0,.56c0,.09.17.22.21.22a.31.31,0,0,0,.18-.31,1.07,1.07,0,0,0-.09-.34A.21.21,0,0,0,65.74,51.81Z"/><path class="cls-2" d="M14.46,55.4c.39-.08.48-.21.35-.65,0,0-.09-.08-.13-.13s-.09.05-.13.05-.09.08-.09.13Z"/><path class="cls-2" d="M14.07,55.4a2.62,2.62,0,0,0,0-.56c0-.09-.17-.22-.22-.22a.3.3,0,0,0-.17.31.86.86,0,0,0,.09.34A.21.21,0,0,0,14.07,55.4Z"/><path class="cls-2" d="M62.9,55.79c.4-.08.48-.21.35-.65,0,0-.08-.08-.13-.13s-.09.05-.13.05-.09.08-.09.13Z"/><path class="cls-2" d="M11.06,57.4c.31-.26.31-.52,0-.83C10.76,56.88,10.76,57.14,11.06,57.4Z"/><path class="cls-2" d="M64.12,58.22a2.18,2.18,0,0,0,.57,0c.09,0,.22-.17.22-.21a.31.31,0,0,0-.31-.18,1.21,1.21,0,0,0-.35.09C64.08,58,64.08,58.09,64.12,58.22Z"/><path class="cls-2" d="M14.68,59.83c-.3.26-.3.52,0,.82C15,60.35,15,60.09,14.68,59.83Z"/><path class="cls-2" d="M19,62.17h.13a.43.43,0,0,0,0-.65H19c-.05,0-.13.08-.13.13V62S19,62.12,19,62.17Z"/><path class="cls-2" d="M20.13,63.42c-.09-.39-.22-.47-.66-.34,0,0-.08.08-.13.13s.05.08.05.13a.2.2,0,0,0,.13.08A2.49,2.49,0,0,0,20.13,63.42Z"/><path class="cls-2" d="M17.51,63.86c-.3.26-.3.52,0,.82A.53.53,0,0,0,17.51,63.86Z"/><path class="cls-2" d="M32.63,67.46a.27.27,0,0,0,.13.34c.13.09.26-.08.26-.34v-.18l-.13-.13c-.09,0-.17,0-.26.13Z"/><path class="cls-2" d="M23.52,69.4a.29.29,0,0,0-.35.13c-.08.13.09.26.35.26h.18l.13-.13c0-.09,0-.18-.13-.26S23.57,69.4,23.52,69.4Z"/><path class="cls-2" d="M25.11,67.61a2.18,2.18,0,0,0-.57,0c-.08,0-.21.17-.21.21a.29.29,0,0,0,.3.18,1.13,1.13,0,0,0,.35-.09A.22.22,0,0,0,25.11,67.61Z"/><path class="cls-2" d="M29.1,71c-.22.09-.22.52,0,.65a.08.08,0,0,0,.13,0c.22-.08.22-.52,0-.65C29.19,71,29.14,71,29.1,71Z"/><path class="cls-2" d="M24.13,71.52c.26.31.53.31.83,0C24.66,71.22,24.39,71.22,24.13,71.52Z"/><path class="cls-2" d="M26.14,72.94c.26.31.52.31.83,0C26.66,72.64,26.4,72.64,26.14,72.94Z"/><path class="cls-2" d="M7.1,44.7c-.26-.31-.52-.31-.83,0C6.53,45,6.8,45,7.1,44.7Z"/><path class="cls-2" d="M41.56,73.14c.3-.26.3-.52,0-.83A.54.54,0,0,0,41.56,73.14Z"/><path class="cls-2" d="M35.59,74c.26,0,.44-.13.35-.26a.28.28,0,0,0-.35-.13h-.17c-.13.09-.22.18-.13.26s.08.13.13.13S35.5,74,35.59,74Z"/><path class="cls-2" d="M31.89.13c-.05.09,0,.17.13.26l.13-.13c0-.09,0-.17-.13-.26Z"/><path class="cls-2" d="M24.31,2.34c.08,0,.17,0,.26-.13l-.13-.13c-.09,0-.18,0-.26.13Z"/><path class="cls-2" d="M22.57,2.82c-.05-.31-.09-.35-.4-.39C22.17,2.73,22.22,2.73,22.57,2.82Z"/><path class="cls-2" d="M22.57,3s0,.09.13.13a.16.16,0,0,0,.13,0c.13-.08.17-.17.08-.26s-.17-.17-.3-.08S22.52,3,22.57,3Z"/><path class="cls-2" d="M30.23,3.42c.09.13.18.18.26.13l.13-.13c-.08-.13-.17-.17-.26-.13S30.28,3.38,30.23,3.42Z"/><path class="cls-2" d="M16.64,4c.09,0,.18,0,.26-.13l-.13-.14c-.09,0-.17,0-.26.14Z"/><path class="cls-2" d="M23.78,4.25s.09.13.14.13a.44.44,0,0,0,.21-.17C24.22,4,24.13,4,24,4A1.52,1.52,0,0,0,23.78,4.25Z"/><path class="cls-2" d="M27.18,4.81c.05,0,.09,0,.13-.13a.14.14,0,0,0,.05-.13c-.09-.13-.18-.17-.26-.08s-.18.17-.09.3S27.1,4.81,27.18,4.81Z"/><path class="cls-2" d="M18.91,4.81c.3,0,.34-.08.39-.39C19,4.47,19,4.51,18.91,4.81Z"/><path class="cls-2" d="M18.25,4.47s-.13.08-.13.13.09.21.18.21.26,0,.17-.17S18.34,4.51,18.25,4.47Z"/><path class="cls-2" d="M14.33,4.73l.13-.13c-.08-.13-.17-.18-.26-.13l-.13.13C14.16,4.77,14.24,4.77,14.33,4.73Z"/><path class="cls-2" d="M42.78,5.07l.13.13c.13-.08.17-.17.13-.26l-.13-.13C42.78,4.9,42.73,5,42.78,5.07Z"/><path class="cls-2" d="M33.76,5.07c0-.08,0-.17-.13-.26l-.13.13c0,.09,0,.18.13.26S33.72,5.12,33.76,5.07Z"/><path class="cls-2" d="M26.62,5.07s.08.13.13.13A.46.46,0,0,0,27,5c.08-.17,0-.26-.18-.17S26.66,5,26.62,5.07Z"/><path class="cls-2" d="M24.48,5.07c.05-.08,0-.17-.13-.26l-.13.13c0,.09,0,.18.13.26S24.44,5.12,24.48,5.07Z"/><path class="cls-2" d="M18.51,4.81c0,.31.13.39.27.35a.28.28,0,0,0,.13-.35Z"/><path class="cls-2" d="M17.64,5.07c.05-.08,0-.17-.13-.26l-.13.13c0,.09,0,.18.13.26Z"/><path class="cls-2" d="M25.09,5.55c.09,0,.18,0,.26-.13l-.13-.13c-.08,0-.17,0-.26.13Z"/><path class="cls-2" d="M39.21,5.94c.08,0,.17,0,.26-.13l-.13-.13c-.09,0-.18,0-.26.13S39.16,5.9,39.21,5.94Z"/><path class="cls-2" d="M35.5,5.9l.13.13c.13-.09.18-.18.13-.26l-.13-.13A.19.19,0,0,0,35.5,5.9Z"/><path class="cls-2" d="M32.28,5.9l.13.13c.13-.09.17-.18.13-.26l-.13-.13A.19.19,0,0,0,32.28,5.9Z"/><path class="cls-2" d="M30,5.68s-.13.09-.13.13S29.93,6,30,6s.27,0,.18-.18A.43.43,0,0,0,30,5.68Z"/><path class="cls-2" d="M44.26,6.29c0-.09,0-.18-.13-.26L44,6.16c0,.08,0,.17.13.26S44.22,6.33,44.26,6.29Z"/><path class="cls-2" d="M40,6.68l.13.13c.13-.09.17-.18.13-.26l-.13-.13C40,6.5,39.9,6.59,40,6.68Z"/><path class="cls-2" d="M18,6.68c0-.09,0-.18-.13-.26l-.13.13c0,.08,0,.17.13.26Z"/><path class="cls-2" d="M17,6.5l-.13.13c.09.13.18.18.26.13l.13-.13C17.21,6.5,17.12,6.46,17,6.5Z"/><path class="cls-2" d="M19,6.89,18.91,7c.08.13.17.18.26.13L19.3,7C19.21,6.89,19.12,6.85,19,6.89Z"/><path class="cls-2" d="M46.44,7.5l.13.13c.13-.09.17-.17.13-.26l-.13-.13C46.44,7.33,46.39,7.41,46.44,7.5Z"/><path class="cls-2" d="M18.25,7.28l-.13.13c.09.13.18.18.26.13l.13-.13C18.43,7.28,18.34,7.24,18.25,7.28Z"/><path class="cls-2" d="M16.16,8.28l.13.13c.13-.09.18-.17.13-.26L16.29,8C16.16,8.11,16.12,8.19,16.16,8.28Z"/><path class="cls-2" d="M58,8.54l-.13-.13c-.13.09-.17.17-.13.26l.13.13A.18.18,0,0,0,58,8.54Z"/><path class="cls-2" d="M17.42,8.76c.09,0,.18,0,.27-.13l-.13-.13c-.09-.05-.18,0-.27.13Z"/><path class="cls-2" d="M59.94,9.28c-.09,0-.17,0-.26.13l.13.13c.09,0,.18,0,.26-.13Z"/><path class="cls-2" d="M18.91,9.62c-.05-.3-.13-.39-.27-.34a.27.27,0,0,0-.13.34Z"/><path class="cls-2" d="M46.87,10c.09,0,.18,0,.26-.13L47,9.71c-.08,0-.17,0-.26.13Z"/><path class="cls-2" d="M68.7,10.88l-.13.13c.08.13.17.17.26.13L69,11C68.87,10.88,68.78,10.84,68.7,10.88Z"/><path class="cls-2" d="M16.25,10.88s-.13.09-.13.13.09.22.17.22.26,0,.18-.18S16.34,10.92,16.25,10.88Z"/><path class="cls-2" d="M66,11.58l.13-.14c-.09-.13-.18-.17-.26-.13l-.13.13C65.82,11.58,65.91,11.62,66,11.58Z"/><path class="cls-2" d="M56.76,11.36l-.13-.13c-.13.08-.17.17-.13.26l.13.13A.19.19,0,0,0,56.76,11.36Z"/><path class="cls-2" d="M51.93,11.36l-.13-.13c-.14.08-.18.17-.14.26l.14.13A.2.2,0,0,0,51.93,11.36Z"/><path class="cls-2" d="M64.17,11.79c0,.09,0,.18.13.26l.13-.13c0-.08,0-.17-.13-.26S64.21,11.75,64.17,11.79Z"/><path class="cls-2" d="M13.46,12.83c-.13.09-.17.18-.13.26l.13.13c.13-.08.17-.17.13-.26Z"/><path class="cls-2" d="M61.9,13.27c-.13.08-.17.17-.13.26l.13.13c.13-.09.18-.18.13-.26S62,13.31,61.9,13.27Z"/><path class="cls-2" d="M59.11,13.31c-.08,0-.17,0-.26.13l.13.13c.09,0,.18,0,.26-.13Z"/><path class="cls-2" d="M66.87,13.92c0-.09,0-.18-.13-.26l-.13.13c0,.08,0,.17.13.26Z"/><path class="cls-2" d="M62.82,13.79l-.13-.13c-.13.08-.18.17-.13.26l.13.13C62.82,14,62.86,13.87,62.82,13.79Z"/><path class="cls-2" d="M56.85,13.83c.09.13.17.17.26.13l.13-.13c-.09-.13-.17-.17-.26-.13Z"/><path class="cls-2" d="M14.64,13.7s-.13.09-.13.13.08.22.17.22.26,0,.17-.18A.44.44,0,0,0,14.64,13.7Z"/><path class="cls-2" d="M62.34,15.61l.13-.13c-.09-.13-.18-.18-.26-.13l-.13.13C62.16,15.61,62.25,15.65,62.34,15.61Z"/><path class="cls-2" d="M62.16,16.34l.13.13c.13-.08.18-.17.13-.26l-.13-.13A.19.19,0,0,0,62.16,16.34Z"/><path class="cls-2" d="M63.69,17.43s0,.08.13.13a.17.17,0,0,0,.13,0c.13-.09.17-.17.09-.26s-.18-.17-.31-.09A.3.3,0,0,0,63.69,17.43Z"/><path class="cls-2" d="M5.45,17.6l.13-.13c-.09-.13-.18-.17-.27-.13l-.13.13C5.27,17.6,5.36,17.64,5.45,17.6Z"/><path class="cls-2" d="M68,18.38l.13-.13c-.09-.13-.17-.17-.26-.13l-.13.13C67.83,18.38,67.91,18.42,68,18.38Z"/><path class="cls-2" d="M5.88,18.51c-.09,0-.17,0-.26.13l.13.13c.09,0,.17,0,.26-.13A.28.28,0,0,1,5.88,18.51Z"/><path class="cls-2" d="M73.53,19.21c.09,0,.18,0,.26-.14l-.13-.13c-.08,0-.17,0-.26.13Z"/><path class="cls-2" d="M64,19.12c0-.09,0-.18-.13-.26l-.13.13c-.05.08,0,.17.13.26Z"/><path class="cls-2" d="M8.49,16c.09.13.18.17.27.13L8.89,16c-.09-.13-.18-.17-.26-.13Z"/><path class="cls-2" d="M4.05,19.55l.13.13c.13-.08.18-.17.13-.26l-.13-.13A.2.2,0,0,0,4.05,19.55Z"/><path class="cls-2" d="M9.71,19.94l.14.13c.13-.08.17-.17.13-.26l-.13-.13C9.71,19.77,9.67,19.86,9.71,19.94Z"/><path class="cls-2" d="M63.3,21.07s0,.09.13.13a.16.16,0,0,0,.13,0c.13-.08.17-.17.08-.26s-.17-.17-.3-.08S63.3,21,63.3,21.07Z"/><path class="cls-2" d="M66,23.54c0-.09,0-.17-.13-.26l-.13.13c0,.09,0,.17.13.26S66,23.58,66,23.54Z"/><path class="cls-2" d="M68.83,24l.13-.13c-.09-.13-.18-.18-.26-.13l-.13.13A.19.19,0,0,0,68.83,24Z"/><path class="cls-2" d="M68.39,24.54c-.08-.05-.17,0-.26.13l.13.13c.09,0,.18,0,.26-.13S68.44,24.58,68.39,24.54Z"/><path class="cls-2" d="M6.14,25,6,25.1c.09.13.18.17.26.13l.13-.13C6.32,25,6.23,24.93,6.14,25Z"/><path class="cls-2" d="M6.53,25.75l-.13.13c.09.13.18.17.27.13l.13-.13C6.71,25.75,6.62,25.71,6.53,25.75Z"/><path class="cls-2" d="M65,26.23c0,.08,0,.17.14.26l.13-.13c0-.09,0-.18-.13-.26S65,26.18,65,26.23Z"/><path class="cls-2" d="M73.32,27.57c0-.08,0-.17-.14-.26l-.13.13c0,.09,0,.18.13.26Z"/><path class="cls-2" d="M5.27,28.66c0,.08,0,.17.13.26l.13-.13c0-.09,0-.18-.13-.26S5.31,28.61,5.27,28.66Z"/><path class="cls-2" d="M68.13,30.69c.09.13.18.18.26.13l.13-.13c-.08-.13-.17-.17-.26-.13Z"/><path class="cls-2" d="M67.39,31.6l.13.13c.13-.08.18-.17.13-.26l-.13-.13A.19.19,0,0,0,67.39,31.6Z"/><path class="cls-2" d="M68.61,32.77l.13.13c.13-.08.18-.17.13-.26l-.13-.13C68.61,32.6,68.57,32.69,68.61,32.77Z"/><path class="cls-2" d="M69.83,34.38l.13.13c.13-.09.18-.18.13-.26L70,34.12C69.83,34.2,69.79,34.29,69.83,34.38Z"/><path class="cls-2" d="M5.27,34.25c0,.08,0,.17.13.26l.13-.13c0-.09,0-.18-.13-.26S5.31,34.2,5.27,34.25Z"/><path class="cls-2" d="M4.31,34.38c.05-.09,0-.18-.13-.26l-.13.13c0,.08,0,.17.13.26S4.27,34.42,4.31,34.38Z"/><path class="cls-2" d="M68.48,35.2c0-.08,0-.17-.13-.26l-.13.13c0,.09,0,.18.13.26Z"/><path class="cls-2" d="M2.22,35c-.09-.05-.17,0-.26.13l.13.13c.09,0,.18,0,.26-.13Z"/><path class="cls-2" d="M67.52,35.72s.09,0,.13-.13a.14.14,0,0,0,0-.13c-.09-.13-.18-.17-.27-.08s-.17.17-.08.3S67.48,35.77,67.52,35.72Z"/><path class="cls-2" d="M72.36,35.72c-.13.09-.18.18-.13.26l.13.13c.13-.08.17-.17.13-.26S72.44,35.77,72.36,35.72Z"/><path class="cls-2" d="M67,36s.08.13.13.13a.39.39,0,0,0,.21-.17c.09-.17,0-.26-.17-.17S67,35.9,67,36Z"/><path class="cls-2" d="M68.31,41.36s.08,0,.13-.13a.18.18,0,0,0,0-.13c-.09-.13-.17-.18-.26-.09s-.18.17-.09.3A.25.25,0,0,0,68.31,41.36Z"/><path class="cls-2" d="M68.13,41.75v-.39c-.3,0-.35.08-.39.39Z"/><path class="cls-2" d="M68.13,41.92s.05.09.13.13a.16.16,0,0,0,.13.05c.13-.09.18-.18.09-.27s-.17-.17-.3-.08S68.13,41.88,68.13,41.92Z"/><path class="cls-2" d="M71.92,42.49c.09,0,.18,0,.26-.13l-.13-.13c-.09,0-.17,0-.26.13S71.88,42.44,71.92,42.49Z"/><path class="cls-2" d="M9.15,43.22c0-.08,0-.17-.13-.26l-.13.13c-.05.09,0,.18.13.26S9.1,43.27,9.15,43.22Z"/><path class="cls-2" d="M9.63,43.74H10c0-.3-.13-.39-.26-.34A.27.27,0,0,0,9.63,43.74Z"/><path class="cls-2" d="M9.28,44s.09.13.13.13.22-.08.22-.17,0-.26-.18-.17A.44.44,0,0,0,9.28,44Z"/><path class="cls-2" d="M9.28,44.83l.13.13c.13-.09.17-.18.13-.26l-.13-.13C9.28,44.65,9.24,44.74,9.28,44.83Z"/><path class="cls-2" d="M68.61,45.22l.13.13c.13-.09.18-.18.13-.26L68.74,45C68.61,45,68.57,45.13,68.61,45.22Z"/><path class="cls-2" d="M9.67,45.61s.09.13.13.13.22-.09.22-.18,0-.26-.17-.17A.4.4,0,0,0,9.67,45.61Z"/><path class="cls-2" d="M69.22,46.52l.13-.13c-.09-.13-.17-.18-.26-.13l-.13.13C69.05,46.52,69.13,46.56,69.22,46.52Z"/><path class="cls-2" d="M68.22,47.51c0,.09,0,.18.13.26l.13-.13c0-.08,0-.17-.13-.26S68.26,47.47,68.22,47.51Z"/><path class="cls-2" d="M66.87,48.29l-.13-.13c-.13.09-.18.18-.13.26l.13.13A.18.18,0,0,0,66.87,48.29Z"/><path class="cls-2" d="M68.7,49.33c.08.05.17,0,.26-.13l-.13-.13c-.09,0-.18,0-.26.13S68.65,49.29,68.7,49.33Z"/><path class="cls-2" d="M11.67,49.2s.09.13.14.13a.39.39,0,0,0,.21-.17c.09-.17,0-.26-.17-.17A2.08,2.08,0,0,1,11.67,49.2Z"/><path class="cls-2" d="M7.67,49.94c0,.09,0,.18.13.26l.13-.13c0-.08,0-.17-.13-.26S7.71,49.86,7.67,49.94Z"/><path class="cls-2" d="M6.75,50.07c0-.08,0-.17-.13-.26l-.13.13c0,.09,0,.18.13.26Z"/><path class="cls-2" d="M10.76,51.24c0-.08,0-.17-.13-.26l-.13.13c-.05.09,0,.18.13.26S10.72,51.29,10.76,51.24Z"/><path class="cls-2" d="M67.48,51.72c.09,0,.17,0,.26-.13l-.13-.13c-.09,0-.18,0-.26.13S67.43,51.68,67.48,51.72Z"/><path class="cls-2" d="M11.72,51.68l.13.13c.13-.09.17-.18.13-.26l-.13-.13A.19.19,0,0,0,11.72,51.68Z"/><path class="cls-2" d="M14.51,54.06s.08.13.13.13.21-.09.21-.17,0-.26-.17-.18S14.55,54,14.51,54.06Z"/><path class="cls-2" d="M11.5,54.15l.13-.13c-.09-.13-.17-.18-.26-.13l-.13.13C11.33,54.15,11.41,54.19,11.5,54.15Z"/><path class="cls-2" d="M12.94,54.75c0,.09,0,.18.13.26l.13-.13c0-.08,0-.17-.13-.26S13,54.71,12.94,54.75Z"/><path class="cls-2" d="M7.88,54.93,8,54.8c-.09-.13-.18-.18-.27-.13l-.13.13C7.71,54.93,7.8,55,7.88,54.93Z"/><path class="cls-2" d="M14.46,55.4h-.39c0,.31.13.39.26.35A.27.27,0,0,0,14.46,55.4Z"/><path class="cls-2" d="M13.11,55.75l.13-.13c-.08-.13-.17-.17-.26-.13l-.13.13C12.94,55.75,13,55.79,13.11,55.75Z"/><path class="cls-2" d="M64.12,56.83c.09.13.18.18.27.13l.13-.13c-.09-.13-.18-.17-.27-.13S64.17,56.79,64.12,56.83Z"/><path class="cls-2" d="M65.6,57.75l.14-.13c-.09-.13-.18-.18-.27-.13l-.13.13A.2.2,0,0,0,65.6,57.75Z"/><path class="cls-2" d="M63.73,58.48s.09.13.13.13.22-.08.22-.17,0-.26-.17-.17S63.78,58.4,63.73,58.48Z"/><path class="cls-2" d="M17.86,59s.09,0,.13-.13a.16.16,0,0,0,0-.13c-.08-.13-.17-.17-.26-.08s-.17.17-.08.3A.1.1,0,0,0,17.86,59Z"/><path class="cls-2" d="M62.21,59.35c.08,0,.17,0,.26-.13l-.13-.13c-.09,0-.18,0-.26.13S62.16,59.31,62.21,59.35Z"/><path class="cls-2" d="M17.34,59.26s.08.13.13.13a.41.41,0,0,0,.22-.17c.08-.17,0-.26-.18-.17A.39.39,0,0,0,17.34,59.26Z"/><path class="cls-2" d="M61.34,59.57c-.05.08,0,.17.13.26l.13-.13c0-.09,0-.18-.13-.26Z"/><path class="cls-2" d="M17.82,61.78c.08,0,.17,0,.26-.13L18,61.52c-.09-.05-.18,0-.26.13Z"/><path class="cls-2" d="M57.81,61.86s-.13.09-.13.13.08.22.17.22.26,0,.17-.17S57.89,61.91,57.81,61.86Z"/><path class="cls-2" d="M58.46,62.64c0-.3-.09-.34-.39-.39C58.11,62.56,58.16,62.6,58.46,62.64Z"/><path class="cls-2" d="M58.46,62.82s0,.08.13.13a.17.17,0,0,0,.13,0c.13-.09.18-.17.09-.26s-.18-.17-.31-.09S58.46,62.77,58.46,62.82Z"/><path class="cls-2" d="M56.85,62.82s0,.08.13.13a.17.17,0,0,0,.13,0c.13-.09.17-.17.09-.26s-.18-.17-.31-.09S56.85,62.77,56.85,62.82Z"/><path class="cls-2" d="M15.16,63.9c-.09,0-.17,0-.26.13l.13.13c.09,0,.17,0,.26-.13Z"/><path class="cls-2" d="M13.59,64.9c0-.09,0-.18-.13-.26l-.13.13c0,.08,0,.17.13.26S13.55,64.94,13.59,64.9Z"/><path class="cls-2" d="M57.2,65.72c0-.08,0-.17-.13-.26l-.13.13c0,.09,0,.18.13.26Z"/><path class="cls-2" d="M28.58,65.64c.08.13.17.17.26.13l.13-.13c-.09-.13-.18-.18-.26-.13S28.66,65.59,28.58,65.64Z"/><path class="cls-2" d="M18.17,65.72l.13.13c.13-.08.17-.17.13-.26l-.13-.13C18.17,65.55,18.12,65.64,18.17,65.72Z"/><path class="cls-2" d="M14.59,66.59c.09,0,.18,0,.26-.13l-.13-.13c-.08,0-.17,0-.26.13Z"/><path class="cls-2" d="M49.7,66.72l-.13.13c.09.13.18.17.27.13l.13-.13C49.88,66.72,49.79,66.68,49.7,66.72Z"/><path class="cls-2" d="M18.17,66.81c-.05.08,0,.17.13.26l.13-.13c0-.09,0-.18-.13-.26S18.21,66.76,18.17,66.81Z"/><path class="cls-2" d="M45.74,67.46s.09,0,.13-.13a.18.18,0,0,0,0-.13c-.08-.13-.17-.18-.26-.09s-.17.17-.08.3S45.65,67.46,45.74,67.46Z"/><path class="cls-2" d="M45.17,67.72s.09.13.13.13.18-.09.22-.18,0-.26-.17-.17S45.22,67.63,45.17,67.72Z"/><path class="cls-2" d="M30.36,67.5s-.13.09-.13.13a.49.49,0,0,0,.18.22c.17.08.26,0,.17-.18S30.45,67.54,30.36,67.5Z"/><path class="cls-2" d="M18.78,67.54c-.09,0-.18,0-.27.13l.13.13c.09,0,.18,0,.27-.13S18.82,67.59,18.78,67.54Z"/><path class="cls-2" d="M19.78,68c-.05.08,0,.17.13.26l.13-.13c0-.09,0-.18-.13-.26Z"/><path class="cls-2" d="M14.42,68l-.13-.13c-.13.08-.18.17-.13.26l.13.13A.2.2,0,0,0,14.42,68Z"/><path class="cls-2" d="M16.82,68.41l-.14-.13c-.13.09-.17.17-.13.26l.13.13C16.82,68.58,16.86,68.5,16.82,68.41Z"/><path class="cls-2" d="M36.46,69.06s.09,0,.13-.13a.15.15,0,0,0,0-.13c-.09-.13-.18-.17-.27-.09s-.17.18-.08.31S36.37,69.06,36.46,69.06Z"/><path class="cls-2" d="M12.81,68.93c0-.09,0-.17-.13-.26l-.13.13c-.05.09,0,.17.13.26Z"/><path class="cls-2" d="M15.64,69.32c0-.09,0-.17-.13-.26l-.13.13c-.05.09,0,.17.13.26A.28.28,0,0,1,15.64,69.32Z"/><path class="cls-2" d="M11.59,69.32c0-.09,0-.17-.13-.26l-.13.13c-.05.09,0,.17.13.26Z"/><path class="cls-2" d="M31,69.71c.05-.09,0-.17-.13-.26l-.13.13c0,.09,0,.17.13.26S30.89,69.8,31,69.71Z"/><path class="cls-2" d="M33.72,69.93c-.09-.05-.18,0-.26.13l.13.13c.08,0,.17,0,.26-.13Z"/><path class="cls-2" d="M23.09,70.4c.08.13.17.17.26.13l.13-.13c-.09-.13-.17-.18-.26-.13S23.17,70.35,23.09,70.4Z"/><path class="cls-2" d="M18.25,71.4c.09,0,.18,0,.26-.13l-.13-.13c-.08,0-.17,0-.26.13Z"/><path class="cls-2" d="M14.64,71.1s-.13.08-.13.13a.39.39,0,0,0,.17.21c.17.09.26,0,.17-.17A1,1,0,0,0,14.64,71.1Z"/><path class="cls-2" d="M54.1,66.68c0-.09,0-.18-.13-.26l-.13.13c-.05.08,0,.17.13.26Z"/><path class="cls-2" d="M36.72,71.75l.13.13c.13-.09.18-.18.13-.26l-.13-.13C36.72,71.57,36.68,71.66,36.72,71.75Z"/><path class="cls-2" d="M14.9,71.66s0,.09.13.13a.17.17,0,0,0,.13,0c.13-.08.17-.17.09-.26s-.18-.17-.31-.08S14.85,71.57,14.9,71.66Z"/><path class="cls-2" d="M25.37,66.74l.13-.13c-.08-.13-.17-.17-.26-.13l-.13.13C25.2,66.74,25.29,66.78,25.37,66.74Z"/><path class="cls-2" d="M16.42,73.22l-.13-.13c-.13.09-.17.18-.13.26l.13.13C16.42,73.4,16.47,73.31,16.42,73.22Z"/><path class="cls-2" d="M14.94,73.74l.13.13c.13-.08.18-.17.13-.26l-.13-.13C14.94,73.57,14.9,73.66,14.94,73.74Z"/><path class="cls-2" d="M26.77,68.69l.13.13c.13-.09.17-.17.13-.26l-.13-.13A.19.19,0,0,0,26.77,68.69Z"/><path class="cls-2" d="M25.15,69c0,.09,0,.18.14.26l.13-.13c0-.09,0-.17-.13-.26Z"/><path class="cls-2" d="M51.45,70.66c-.09,0-.18,0-.26.13l.13.13c.08,0,.17,0,.26-.13Z"/><path class="cls-2" d="M26.09,71.18c.05-.09,0-.18-.13-.26l-.13.13c0,.08,0,.17.13.26Z"/><path class="cls-2" d="M32,72.4c.09,0,.17,0,.26-.13l-.13-.13c-.09,0-.17,0-.26.13S31.94,72.35,32,72.4Z"/><path class="cls-2" d="M29.06,74.35l.13.13c.13-.08.17-.17.13-.26l-.13-.13C29.06,74.18,29,74.27,29.06,74.35Z"/><path class="cls-2" d="M30.67,73.21l.13.13c.13-.08.17-.17.13-.26L30.8,73C30.62,73,30.62,73.08,30.67,73.21Z"/><path class="cls-2" d="M44.22,72.79l.13-.13c-.09-.13-.18-.18-.26-.13l-.14.13A.19.19,0,0,0,44.22,72.79Z"/><path class="cls-2" d="M44,73.79c0,.08,0,.17.13.26l.13-.13c0-.09,0-.18-.13-.26Z"/><path class="cls-2" d="M43,74.39l.13-.13c-.09-.13-.18-.17-.26-.13l-.14.13C42.82,74.39,42.91,74.44,43,74.39Z"/><path class="cls-2" d="M63.12,63.12l.13-.13c-.08-.13-.17-.17-.26-.13l-.13.13A.18.18,0,0,0,63.12,63.12Z"/><path class="cls-2" d="M39.29,72.18c-.08,0-.17,0-.26.13l.13.13c.09,0,.18,0,.26-.13S39.34,72.22,39.29,72.18Z"/><path class="cls-2" d="M31.84,74.34c0,.08,0,.17.13.26l.14-.13c0-.09,0-.18-.14-.26S31.89,74.29,31.84,74.34Z"/><path class="cls-2" d="M34.46,74.31l.13.13c.13-.09.17-.18.13-.26l-.13-.13C34.41,74.09,34.41,74.18,34.46,74.31Z"/><path class="cls-2" d="M34.11,72.09l.13.13c.13-.08.17-.17.13-.26l-.13-.13C34.11,71.92,34.07,72,34.11,72.09Z"/><path class="cls-2" d="M55.89,67.76c0-.09,0-.17-.13-.26l-.13.13c0,.09,0,.17.13.26Z"/><path class="cls-2" d="M25.29,67.61s.08,0,.13-.13a.18.18,0,0,0,0-.13c-.09-.13-.17-.18-.26-.09s-.18.17-.09.3S25.24,67.61,25.29,67.61Z"/></g></svg>