<svg id="Layer_1" data-name="Layer 1" xmlns="http://www.w3.org/2000/svg" xmlns:xlink="http://www.w3.org/1999/xlink"
    viewBox="0 0 375 96" preserveAspectRatio="none">
    <defs>
        <style>
            .cls-1 {
                fill: none;
            }

            .cls-2 {
                clip-path: url(#clip-path);
            }

            .cls-3 {
                fill: #faefe6;
            }
        </style>
        <clipPath id="clip-path">
            <rect class="cls-1" width="375" height="96" />
        </clipPath>
    </defs>
    <g class="cls-2">
        <path class="cls-3"
            d="M-109.07,93.37c-.21-.65-1.05-.34-.62-.91.79-1.06-1.06-.43-.33-1.4.34-.46,2,1,2.33,1.4s.44.27,1,.41c1.09.28,1.7.46,1.31-1.81-.11-.35.46.52.88.43a2.17,2.17,0,0,0,1.31-.92c.43-.57.34-1-.73-1.26a.93.93,0,0,0-.68.08,2.44,2.44,0,0,0-.86.79,1.85,1.85,0,0,0-.11.31,1.79,1.79,0,0,1-.76,1.09,2,2,0,0,1-2.74-1.1,5.86,5.86,0,0,1-.28-1,1.36,1.36,0,0,1,0-.75,2.66,2.66,0,0,1,1.44-1.27,28.38,28.38,0,0,1,4.11-1c1.36-.26,3,.86,4.35,1.2a1.16,1.16,0,0,0,.64,0c1.68-.49,1.86-2.66,3.59-3.05a3.45,3.45,0,0,0,2.13-1.34l.69-1a5.53,5.53,0,0,0,.75-4.78l-.57-1.75A4.34,4.34,0,0,1-92,72.08,8.33,8.33,0,0,1-91,70.79c1.08-1.21,3.37-1.35,3.85.1a5.44,5.44,0,0,1,.15.54,6.45,6.45,0,0,1-.66,4.78l-.14.22a2.18,2.18,0,0,0-.2,1.81,3.07,3.07,0,0,0,1.83,1.82c1.78.74,3.5,1.55,5.27,2.3,1.27.55,3.71.24,3.34-.9-.87-3.74-2-7.4-3.23-11.07-.19-.61,1.23-.7,1.92-.41a25.33,25.33,0,0,0,2.63,1c.58.26,1.21.34,1.59.78a2.32,2.32,0,0,0,1.23.69c.84.21,1.26-.24,1.31-1.26a1.56,1.56,0,0,1,1.24-1.41,1.64,1.64,0,0,1,1.93.93c.21.65.43,1.32.61,1.91.08.24.47.42.87.59s.78.35,1,0l0,0a2.72,2.72,0,0,0,.66-2,1.91,1.91,0,0,0-.88-1.67c-1.45-.83-3.69-1.44-2.49-2.51s3.16-.88,3.91-2.12a1.72,1.72,0,0,0,0-1.37,3.72,3.72,0,0,0-1.84-2c-1.19-.67-1.74-2.14-.4-2.58a6.49,6.49,0,0,1,.7-.18,5.79,5.79,0,0,1,3.63.47c.67.34,1.39.71,2.2,1.1,1.09.53,2,1.22,2.19,2.26a4.51,4.51,0,0,0,.79,2.3,2.1,2.1,0,0,0,1.9,1,.92.92,0,0,0,.39-.28,1.61,1.61,0,0,0,.31-1.34,4.82,4.82,0,0,1,.67-3.39c.2-.27.38-.54.57-.82a5.9,5.9,0,0,1,3-2.46c1.34-.42,2.73-.68,4.11-1a7.27,7.27,0,0,0,3.83-1.94,19.9,19.9,0,0,0,1.7-2.35A2.69,2.69,0,0,0-41,51.18c.14-1.66,2.22-2.52,4-1.79l1,.4a4.25,4.25,0,0,0,4.89-1.14l1.43-1.92a1.81,1.81,0,0,1,1.39-.92,1.59,1.59,0,0,1,.43.06,1.4,1.4,0,0,1,1.11,1.2c0,.3.07.68.12,1a1.31,1.31,0,0,0,.33.69,1.57,1.57,0,0,0,2.3-.05,2.51,2.51,0,0,0,.08-2c-.4-1.22-.71-2.2-1.11-3.42-.11-.35-.22-.7-.3-1A2.77,2.77,0,0,1-24.69,40c1.36-1.83,4.37-2.62,4.79-.5,0,.23.08.45.13.68a4.51,4.51,0,0,0,2.09,2.53,4.24,4.24,0,0,0,.61.36c2.83,1.46,5.88,2.61,9,4a6.69,6.69,0,0,0,1.28.48A1.64,1.64,0,0,0-5,46.47a1.27,1.27,0,0,0-.13-1.07,2.51,2.51,0,0,1-.24-.46,1.82,1.82,0,0,0-1.05-1.06,7.71,7.71,0,0,1-2.93-2A7.22,7.22,0,0,0-12,39.48a4.16,4.16,0,0,1-1.56-1.1,5.87,5.87,0,0,1-1.07-3.15c-.07-.87-.4-2.29.61-2.51l4.87-1.09a2.51,2.51,0,0,1,3,1.43,2.28,2.28,0,0,1,.09.51c.08.86.56,1.23,1.56,1.48.71.11,1.17-.52,1.88-1.46a1.78,1.78,0,0,1,2-.77c.77.34,1,1.09,1.3,1.78C1.21,36,3,35.38,4,34.22a4.44,4.44,0,0,1,2.35-1.33L15,31c1.34-.3,3,.79,4.32,1.13a5,5,0,0,0,3.76-.84,1.71,1.71,0,0,0,.7-1.11c0-.56.27-1.6.86-1.33,2,.87,3.85,1.5,5.49,2.44.62.28-.23,1.1-.91,1.25l-1.69.38A3,3,0,0,0,25.78,34c-.55.77-.65,1.08-.44,1.54A13.29,13.29,0,0,0,26,36.83c.4.69,1,.84,2.12.78a5.77,5.77,0,0,0,1.43-.23,3.76,3.76,0,0,0,1.85-1.07,1.59,1.59,0,0,0,.24-1.57l-.33-1c-.24-.74.65-1,1.13-1.69.31-.4.61-.81.94-1.22a3.17,3.17,0,0,1,3.69-.69l.8.35a1.72,1.72,0,0,1,.92,2.57,1.28,1.28,0,0,0,.81,2.05,3.15,3.15,0,0,0,3.19-1.18,13.17,13.17,0,0,1,2.57-2.27c.93-.58,2.28-.79,2.72-1.68a1.93,1.93,0,0,0,.16-1.12c-.08-.55-.42-1-.39-1.51,0-1.16,1.74-1.74,3.08-2L57,23.94a1.37,1.37,0,0,1,1.7.84.64.64,0,0,1,0,.6,2.62,2.62,0,0,1-1.54.89l-1.75.39c-1.89.43-4.07,1.45-3.88,3.07a7.56,7.56,0,0,0,.72,2.09c.58,1.26,2.43,3.12,2.74,1.8a1.15,1.15,0,0,0,0-.33c.08-.8-.47-1.46-.08-2.33a3.87,3.87,0,0,1,.26-.66,1.38,1.38,0,0,1,2.21-.52,10.51,10.51,0,0,1,.88,1.57c1.07,1.76,1.32,1.7,3.54,1.21L64.17,32a4.52,4.52,0,0,0,2.66-1.64c2-2.27,2.89-2.47,5.87-1.57,1.63.42,3.22-.39,2.79-1.76,0,0,0-.11,0-.16-.47-1.46,0-2.09,1.8-2.76,1.48-.59,3.29-.21,3.91.7.49.58.49,1.27.85,1.88a.93.93,0,0,0,.31.4,3.31,3.31,0,0,0,2.3.35l3.66-.81A3.14,3.14,0,0,0,90,25.75c1-1.16,2.81-2,3.52-.72a4.76,4.76,0,0,0,1.32,1.88,3.16,3.16,0,0,0,2.39.1c1-.24,2.24-.63,2.41-1.52a1.23,1.23,0,0,0,0-.19c.23-2.52,2.54-3,5.22-1.81l3.77,1.67a2.13,2.13,0,0,1,1.17,1.23l.4,1.25c.22.67-.55,1.3-1.12,1.8a8,8,0,0,1-1.41,1c-.51.28-.36.75-.24,1.09a2.06,2.06,0,0,0,.68,1,1.45,1.45,0,0,0,2-.35,1.84,1.84,0,0,0,.28-.45,1.4,1.4,0,0,0,0-.76,6.47,6.47,0,0,0-.46-1.48c-.31-.72.55-1,1-1.66a13.42,13.42,0,0,1,6.52-3.81l4-.89a3.19,3.19,0,0,1,1.56.15c.43.15.18.4,0,.76a3.19,3.19,0,0,1-.44.78,2.08,2.08,0,0,1-.88.43c-1.12.37-2.55.49-3.92.8a4.4,4.4,0,0,0-.73.22c-1.16.48-.87,1.77-.65,2.83a12,12,0,0,0,.27,1.19c.5,1.75,3.17,1.8,4.35.29.31-.4.59-.81.87-1.24a3.75,3.75,0,0,1,4.4-1.06h0a3.31,3.31,0,0,0,2,.12c1.84-.41,3.83.48,4.32,2,.05.14.09.27.13.4s.47.42.86.6.79.35,1,0l0,0a2.71,2.71,0,0,0,.67-2,1.94,1.94,0,0,0-.83-1.64c-1.45-.9-4.06-1.75-2.54-2.55.86-.41,1.79-.8,2.63-1.27,2.15-1.22,3-1.09,5.53-1.65a3.28,3.28,0,0,1,2.74.17,2.36,2.36,0,0,1,1.26,2.86c-.78,1.29-1.76,2.5-2.65,3.74-.6.84-.38,2.48.79,2.42a3,3,0,0,0,.31,0c.31,0,.61-.08.91-.13,2.82-.49,4.12-3.49,7-3.76h.08c1.42.05,1.62.89,1.72,1.72a2.89,2.89,0,0,1-.43,1.87,2.32,2.32,0,0,0,1.2,3.38l.07,0c1.34.59,3.28.26,3.4-1,0-1.05-.71-2.2-1.1-3.42s2.14-1.56,3.4-1l1.31.58A3.84,3.84,0,0,1,162,31.67a1,1,0,0,0,.07.15,2.73,2.73,0,0,0,1.35,1.11l.64.3c1.4.67.68,2.61.35,3.92,0,.11,2.36,1.66,2.5.22-.08.8-.2-.26-.05-.82.31-1.11-.47-1.46-1.57-.69l-.06,0c-.88.68,1.2,2.38,1.68,1.47.94-1.26.66-1.76.89-2.07l1-1.39a2.87,2.87,0,0,1,3.07-.67,2.45,2.45,0,0,0,2.59-.57l.08-.07c.78-.79,2.24-1.12,2.84-.23a8.85,8.85,0,0,1,.91,2.77c-1.11,3.86-1.25,5.53-.25,6l.25.11c2,.85,0,3.35,1.48,1.94a3.44,3.44,0,0,1,2.38-1,2.88,2.88,0,0,1,1.33.3l.11,0c1.57.7,4.08.95,5.14-.25a3.91,3.91,0,0,1,1.74-1c1.06-.32,2.23-.57,3.05.42,1.26,1.81-.74,3,1.74,2.71a5,5,0,0,1,1.92,0c.71.19,2-1.33,2.19-.73.36,1.12.13.46-.74,1.37-.64.67-.74,1-1.33,1.62-.83.92,1.5.79,2,1.86a2.1,2.1,0,0,0,.13.26,2.73,2.73,0,0,0,1.2,1c1.52.78,3.81.46,2.86,1.72l-1.39,1.87c-.24.32-.94.21-1.26.28a1.37,1.37,0,0,0-1.49-1.5,6.36,6.36,0,0,0-1.37,0,5.53,5.53,0,0,0-2.46.5.1.1,0,0,0-.05,0c-.72.48-.46,1.33.36,1.67a3.35,3.35,0,0,0,1.86.08c1.07-.19,2.18-.59,3.15-.81.08,1.29,1.26,1.82,2.59,1.78,2.16-.06,5.21-.43,5.77,1.3v0c.08.24.47.42.86.59s.79.35,1,0a1.86,1.86,0,0,1,.19-.22,2.06,2.06,0,0,0,.53-1.59,2,2,0,0,0-2.13-2.22c-.91-.09-2.45-.6-2-1.24.55-1,1.26-.85,1.94-1.69s2.29-1.44,3-.69a1.62,1.62,0,0,1,.23.37,8.66,8.66,0,0,1,1,2.21,2.15,2.15,0,0,0,.39.75c.58.73,1.75.23,2.37-.48.86-1,2.51-1.33,3.3-.32.43.55.78,1.15,1.23,1.67.88,1,1.88,2.71,1.15,3.83a1.5,1.5,0,0,0-.21,1.34c.21.66.42,1.33.64,2a4.65,4.65,0,0,0,2.34,2.6,4.67,4.67,0,0,1,2.35,2.6l2.76,8.57c.24.73.86,1.63,1.8,1.42a2.68,2.68,0,0,0,1.07-1,1.68,1.68,0,0,0,.06-1c0-.28-.1-.57-.13-.86-.11-1.24,1.7-1.5,2.95-.83l.69.37a2.05,2.05,0,0,1,.93,2.83,1.17,1.17,0,0,0,.43,1.63c1.14.48,2.58-.09,3.88-.06s1.89,1.15,2.22,2.16c.16.5.32,1,.48,1.52.33,1,.78,2,2,1.92,2-.15,3.88-1.71,5.63-.94l.68.31a3.48,3.48,0,0,1,1.55,1.19,15.19,15.19,0,0,1,1.63,4.64,4,4,0,0,1-.51,3.5c-.58.77-.54.93-.28,1.81ZM194.42,46.62c-1.42-.63-1.9,1.1-1.48,2.4.49,1.53.54,1.2,1,2.73,0,.12.23.2.45.28a2,2,0,0,0,1.38.19c.94-.35.85-1.54.58-2.36-.57-1.78-.21-.94-.78-2.72C195.52,46.9,194.82,46.79,194.42,46.62ZM-98.23,92.06c1.76.8,4.43.21,3.76-1.37a2,2,0,0,0-.38-.6c-.88-1-2.7-1.09-4.13-.73a3.21,3.21,0,0,0-.66.24C-100.78,90.21-99.43,91.51-98.23,92.06ZM100.13,27.88c1.83-.28,2.57,2,.82,2.55C99,31,98.09,28.19,100.13,27.88ZM79.68,31.11c0,.4.53.67.93.89a.87.87,0,0,0,.55.17L84,31.54c.32-.07.47-.63.71-.94.37-.5-.45-1-1.13-1.19-1.27-.28-3.17.31-3.73,1.34A.82.82,0,0,0,79.68,31.11ZM214.05,61.54a.73.73,0,0,0-.17.38.82.82,0,0,0,.45.68,1.21,1.21,0,0,0,1.55-.37.73.73,0,0,0,.17-.38.78.78,0,0,0-.45-.68A1.21,1.21,0,0,0,214.05,61.54ZM49.14,36.37a.84.84,0,0,0-.47-1.29A.92.92,0,0,0,48.3,35a1.21,1.21,0,0,0-.9.36c-.43.4-.15,1,.42,1.24.12,0,.25.14.37.2C48.48,36.93,48.8,36.79,49.14,36.37ZM-5.23,38.42a.94.94,0,0,0,.38.27,1.23,1.23,0,0,0,1.57-.33.71.71,0,0,0,0-.78,1,1,0,0,0-.38-.26,1.21,1.21,0,0,0-1.56.33A.71.71,0,0,0-5.23,38.42Zm-31.86,16.8a1,1,0,0,0,.38.26,1.19,1.19,0,0,0,1.56-.33.71.71,0,0,0,0-.77,1,1,0,0,0-.38-.26,1.2,1.2,0,0,0-1.57.33A.69.69,0,0,0-37.09,55.22Zm-24.7,12.43a.89.89,0,0,0-.38-.26,1.2,1.2,0,0,0-1.56.32.71.71,0,0,0,0,.78,1,1,0,0,0,.38.26,1.21,1.21,0,0,0,1.56-.33A.69.69,0,0,0-61.79,67.65Zm-25.56,18.5a.73.73,0,0,0,.17-.38.82.82,0,0,0-.45-.68,1.2,1.2,0,0,0-1.55.37.74.74,0,0,0-.18.38.81.81,0,0,0,.46.68A1.21,1.21,0,0,0-87.35,86.15Z" />
        <path class="cls-3"
            d="M131.21,18.65c.67,2.09.76,4.88-1.81,5.15l-.22,0c-2,.17-2.67.07-3.14-1.4-.6-1.88,2.19-3.12,4.46-3.61Z" />
        <path class="cls-3"
            d="M93.51,13a2.73,2.73,0,0,1,3.73-.23.86.86,0,0,1,.21.87,7,7,0,0,1-1.5,2.8,2.8,2.8,0,0,1-3.8.15.9.9,0,0,1-.2-1A8.43,8.43,0,0,1,93.51,13Z" />
        <path class="cls-3"
            d="M62.63,26c-.3-.25-.56-.75-.34-1l1.22-1.63a3.3,3.3,0,0,1,3.76-.79,3.07,3.07,0,0,0,1,.18c.31,0,.61-.05.91-.06.68,0,1.11,0,1.23.27s-.16,1-.44,1.38a1.47,1.47,0,0,1-.77.44,15.64,15.64,0,0,1-6.08,1.33C62.87,26.06,62.78,26.1,62.63,26Z" />
        <path class="cls-3"
            d="M250.05,62.86a1.85,1.85,0,0,1-1.37,0,3.6,3.6,0,0,1-1.42-1.07c-1.22-1.69,2.12-2.41,4.21-1.48,1.18.53,1.57.7,1.41,1.26a1.92,1.92,0,0,1-1.69,1.25A7.07,7.07,0,0,0,250.05,62.86Z" />
        <path class="cls-3"
            d="M228,52.56c1.12-1.34,4.28-1.8,4.13-.18a1.28,1.28,0,0,1-.05.27,3.64,3.64,0,0,1-2.86,2.28A2.74,2.74,0,0,1,228,55C226.93,54.73,227.33,53.35,228,52.56Z" />
        <path class="cls-3"
            d="M151.13,25.15c-1.4,0-.39-1.75,1-2s1,.32,2.43,0a1.16,1.16,0,0,1,.86.21c.63.38,1.15,1.44.4,1.6C153.67,25.66,153.56,25.39,151.13,25.15Z" />
        <path class="cls-3"
            d="M73.43,21.8a3.08,3.08,0,0,1-4-1.83,2.38,2.38,0,0,1-.06-.37,1.93,1.93,0,0,1,0-.41c.14-.94,2-1.05,3-.61l1.27.57c.9.4,1.54,1.61.77,2.18-.19.14-.38.2-.59.33Z" />
        <path class="cls-3"
            d="M46.19,18.27c2-.81,3,1.55,1.8,3.09a2.17,2.17,0,0,1-2.43,1,1.34,1.34,0,0,1-.71-.77,2.48,2.48,0,0,1,1.08-3.21Z" />
        <path class="cls-3"
            d="M232.79,62.06c-.47-1.46.16-2.65,1.25-2.37s1.47.61,1.56,1.45a2.54,2.54,0,0,0,.1.55,1.6,1.6,0,0,1-.12,1.37c-.33.5-.73.75-1.3.5-.39-.17-1.09-.28-1.17-.52Z" />
        <path class="cls-3"
            d="M187.81,32.24a3.68,3.68,0,0,1,.61,1.24,1.57,1.57,0,0,1-.63,1.54c-1.1.77-2.36,0-2.83-1.46,0-.06,0-.12-.06-.19a1.64,1.64,0,0,1,.26-1.48,1.15,1.15,0,0,1,.49-.41,1.79,1.79,0,0,1,1.44.24A2.15,2.15,0,0,1,187.81,32.24Z" />
        <path class="cls-3"
            d="M176.74,17.08c-1.59-.06-.5-1.81,1-2.18a8.1,8.1,0,0,1,1-.18,2.93,2.93,0,0,1,1.18,0,1.82,1.82,0,0,1,.3.11c.83.33,1.13,1.21.42,1.69a3.56,3.56,0,0,1-1.23.49A9.79,9.79,0,0,1,176.74,17.08Z" />
        <path class="cls-3"
            d="M166.07,1.63a.78.78,0,0,1,0,.6,2.42,2.42,0,0,1-3.28,1,1.62,1.62,0,0,1-.62-.42c-.22-.32.07-.72.31-1a2.44,2.44,0,0,1,3-.79A1.05,1.05,0,0,1,166.07,1.63Z" />
        <path class="cls-3"
            d="M166.57,27.2c-1.88.42-3.37,0-3-.9a2,2,0,0,1,1.9-1.28,5.59,5.59,0,0,0,.7-.09A3.11,3.11,0,0,1,168,25c.58.24.87.55.54,1s-.39.87-.7.94Z" />
        <path class="cls-3"
            d="M155.5,12.65c-.47-1.46.16-2.65,1.25-2.37s1.47.61,1.56,1.45a2.75,2.75,0,0,0,.1.56,1.58,1.58,0,0,1-.12,1.36c-.33.5-.73.75-1.3.5-.39-.17-1.09-.28-1.17-.52Z" />
        <path class="cls-3"
            d="M131.21,18.65c-.23-.71-.66-1.51-.88-2.29a1.9,1.9,0,0,1,.21-1.75,1.4,1.4,0,0,1,1.94-.31,2,2,0,0,1,.68,1,4.79,4.79,0,0,1,0,2.1C133.09,18.23,132.23,18.69,131.21,18.65Z" />
        <path class="cls-3"
            d="M19.31,29.21c-1.62.36-3.55-.49-2.43-1.52l0,0a5,5,0,0,1,3.76-.84c1.62.42.43,2-1.21,2.37Z" />
        <path class="cls-3"
            d="M240.23,60.21a1.38,1.38,0,0,1-.41-.11c-.57-.25-.86-.85-.43-1.25a1.16,1.16,0,0,1,1.31-.25c.56.26.85.85.42,1.25A1.28,1.28,0,0,1,240.23,60.21Z" />
        <path class="cls-3"
            d="M260.36,60.08a1.48,1.48,0,0,1,.52-.4,1.37,1.37,0,0,1,.85,0,.76.76,0,0,1,.38,1.25.84.84,0,0,1-.29.27,1.45,1.45,0,0,1-1.19,0c-.54-.21-.71-.68-.33-1.06Z" />
        <path class="cls-3"
            d="M246.08,59.6a1,1,0,0,1-.41-.11c-.57-.25-.86-.84-.42-1.24a1.25,1.25,0,0,1,.89-.36,1.19,1.19,0,0,1,.41.11c.57.25.85.85.42,1.25A1.23,1.23,0,0,1,246.08,59.6Z" />
        <path class="cls-3"
            d="M249.26,52.66a1.35,1.35,0,0,1,.56.13c.53.24.78.78.39,1.17a1.27,1.27,0,0,1-.88.39,1.19,1.19,0,0,1-.53-.13c-.57-.26-1-.83-.53-1.22A1.58,1.58,0,0,1,249.26,52.66Z" />
        <path class="cls-3"
            d="M259.47,67.23a1,1,0,0,1-.38-.26.71.71,0,0,1,0-.78,1.22,1.22,0,0,1,1.57-.32,1,1,0,0,1,.38.26.71.71,0,0,1,0,.77A1.21,1.21,0,0,1,259.47,67.23Z" />
        <path class="cls-3"
            d="M5.71,23.72a.76.76,0,0,1-.17.39A1.21,1.21,0,0,1,4,24.48a.82.82,0,0,1-.45-.68.73.73,0,0,1,.17-.38,1.2,1.2,0,0,1,1.55-.37A.81.81,0,0,1,5.71,23.72Z" />
        <path class="cls-3"
            d="M139.51,9.49a.76.76,0,0,1,.17-.39,1.2,1.2,0,0,1,1.55-.36.76.76,0,0,1,.45.67.76.76,0,0,1-.17.39,1.19,1.19,0,0,1-1.55.36A.8.8,0,0,1,139.51,9.49Z" />
        <path class="cls-3"
            d="M227.88,61a1,1,0,0,1,.41.11c.57.25.86.84.42,1.24a1.23,1.23,0,0,1-.83.36,1.34,1.34,0,0,1-.53-.14c-.57-.25-.94-.81-.48-1.2A1.57,1.57,0,0,1,227.88,61Z" />
        <path class="cls-3"
            d="M206.12,18.64a.83.83,0,0,1,.47,1.47,1.19,1.19,0,0,1-.73.22,1,1,0,0,1-.41-.11c-.57-.25-.86-.84-.43-1.24A1.27,1.27,0,0,1,206.12,18.64Z" />
        <path class="cls-3"
            d="M211.78,34.76a1,1,0,0,1,.38.26.71.71,0,0,1,0,.78,1.2,1.2,0,0,1-1.56.32,1,1,0,0,1-.38-.26.71.71,0,0,1,0-.77A1.22,1.22,0,0,1,211.78,34.76Z" />
        <path class="cls-3"
            d="M199.62,37.63a1.2,1.2,0,0,1,.29-.26,1.38,1.38,0,0,1,1-.07.77.77,0,0,1,.38,1.26.73.73,0,0,1-.29.26,1.31,1.31,0,0,1-1,.07A.77.77,0,0,1,199.62,37.63Z" />
        <path class="cls-3"
            d="M201.68,14.86a1.12,1.12,0,0,1,.41.1c.57.26.86.85.42,1.25a1.2,1.2,0,0,1-.89.35,1.17,1.17,0,0,1-.41-.1c-.57-.26-.85-.85-.42-1.25A1.21,1.21,0,0,1,201.68,14.86Z" />
        <path class="cls-3"
            d="M213.92,46.63a1.23,1.23,0,0,1-1.57.39.8.8,0,0,1-.45-.67.76.76,0,0,1,.17-.39,1.22,1.22,0,0,1,1.56-.37.82.82,0,0,1,.45.68A.65.65,0,0,1,213.92,46.63Z" />
        <path class="cls-3"
            d="M189.31,26.49a.74.74,0,0,1,.18-.38,1.21,1.21,0,0,1,1.55-.37.82.82,0,0,1,.45.68.73.73,0,0,1-.17.38,1.22,1.22,0,0,1-1.56.37A.82.82,0,0,1,189.31,26.49Z" />
        <path class="cls-3"
            d="M184.61,28.46a1.34,1.34,0,0,1-.56-.12c-.54-.24-.78-.78-.39-1.17a1.24,1.24,0,0,1,.88-.4,1.34,1.34,0,0,1,.52.14c.58.25,1,.83.54,1.22A1.58,1.58,0,0,1,184.61,28.46Z" />
        <path class="cls-3"
            d="M174,15.86a1.23,1.23,0,0,1-.94-.33,4.19,4.19,0,0,1-.54-.4.71.71,0,0,1,0-1,1.08,1.08,0,0,1,1.44-.41,4.14,4.14,0,0,1,1,.53C175.59,14.82,174.87,15.66,174,15.86Z" />
        <path class="cls-3"
            d="M6.74,11.32a1,1,0,0,1-.38-.26.69.69,0,0,1,0-.77A1.2,1.2,0,0,1,7.91,10a1,1,0,0,1,.38.26.71.71,0,0,1,0,.77A1.19,1.19,0,0,1,6.74,11.32Z" />
        <path class="cls-3"
            d="M161,16.79a.92.92,0,0,1,.29-.26,1.35,1.35,0,0,1,1-.07.76.76,0,0,1,.38,1.26.73.73,0,0,1-.29.26,1.31,1.31,0,0,1-1,.07A.76.76,0,0,1,161,16.79Z" />
        <path class="cls-3"
            d="M148.39,23.93a1.2,1.2,0,0,1-.93-.33,3.69,3.69,0,0,1-.55-.4.71.71,0,0,1,0-1,1.07,1.07,0,0,1,1.44-.41,4.67,4.67,0,0,1,.92.49C150,22.85,149.28,23.73,148.39,23.93Z" />
        <path class="cls-3"
            d="M126.36,10.76a1.48,1.48,0,0,1,.52-.4,1.37,1.37,0,0,1,.85,0,.76.76,0,0,1,.38,1.25.84.84,0,0,1-.29.27,1.45,1.45,0,0,1-1.19,0c-.53-.21-.71-.68-.33-1.06Z" />
        <path class="cls-3"
            d="M109.25,20.47a1.28,1.28,0,0,1-.52.4,1.41,1.41,0,0,1-.84,0,.77.77,0,0,1-.39-1.26,1.2,1.2,0,0,1,.29-.26,1.45,1.45,0,0,1,1.19,0c.54.2.71.68.33,1.06Z" />
        <path class="cls-3"
            d="M82.69,13.55a1.23,1.23,0,0,1-1.57.39.82.82,0,0,1-.45-.68.73.73,0,0,1,.17-.38,1.21,1.21,0,0,1,1.55-.37.78.78,0,0,1,.45.68A.64.64,0,0,1,82.69,13.55Z" />
        <path class="cls-3"
            d="M66.14,15.94a1.34,1.34,0,0,1-.56-.12c-.53-.24-.77-.78-.39-1.17a1.25,1.25,0,0,1,.89-.39,1.18,1.18,0,0,1,.52.13c.58.25,1,.83.53,1.22A1.54,1.54,0,0,1,66.14,15.94Z" />
        <path class="cls-3"
            d="M55.41,11A1,1,0,0,1,55,10.9c-.57-.25-.85-.84-.42-1.24a1.28,1.28,0,0,1,.89-.36,1.13,1.13,0,0,1,.41.11c.57.25.86.85.42,1.25A1.24,1.24,0,0,1,55.41,11Z" />
        <path class="cls-3"
            d="M19.62,15.76a1.13,1.13,0,0,1-.41-.11c-.57-.25-.86-.85-.42-1.25a1.2,1.2,0,0,1,.89-.35,1,1,0,0,1,.41.11c.57.25.85.84.42,1.24A1.26,1.26,0,0,1,19.62,15.76Z" />
        <path class="cls-3"
            d="M37.78,15.8a.92.92,0,0,1,.29-.26,1.36,1.36,0,0,1,1-.07.76.76,0,0,1,.38,1.26.9.9,0,0,1-.28.27,1.38,1.38,0,0,1-1,.06A.77.77,0,0,1,37.78,15.8Z" />
        <path class="cls-3"
            d="M35.94,22.59c-.35-.4-.11-1.06.31-1.43l0,0a4.06,4.06,0,0,1,.55-.46,1.32,1.32,0,0,1,1.21,0c.63.27.84.63.47,1.12a2,2,0,0,1-1.42,1C36.71,22.85,36.18,22.87,35.94,22.59Z" />
        <path class="cls-3"
            d="M35.67,24.79a1.55,1.55,0,0,1-1.62.32c-.19-.1-.19-.28-.14-.46a2.13,2.13,0,0,1,.79-1.23c.94-.66,1.66-.49,1.63.28a1,1,0,0,1-.3.78Z" />
        <path class="cls-3"
            d="M90.93,89.37c-.21-.65-1.05-.34-.62-.91.79-1.06-1.06-.43-.33-1.4.34-.46,1.94,1,2.33,1.4s.44.27,1,.41c1.09.28,1.7.46,1.31-1.81-.11-.35.46.52.88.43a2.17,2.17,0,0,0,1.31-.92c.43-.57.34-1-.73-1.26a.93.93,0,0,0-.68.08,2.44,2.44,0,0,0-.86.79,1.85,1.85,0,0,0-.11.31,1.79,1.79,0,0,1-.76,1.09,2,2,0,0,1-2.74-1.1,5.86,5.86,0,0,1-.28-1,1.36,1.36,0,0,1,0-.75,2.66,2.66,0,0,1,1.44-1.27,28.38,28.38,0,0,1,4.11-1c1.36-.26,3,.86,4.35,1.2a1.16,1.16,0,0,0,.64,0c1.68-.49,1.86-2.66,3.59-3.05a3.45,3.45,0,0,0,2.13-1.34l.69-1a5.53,5.53,0,0,0,.75-4.78l-.57-1.75a4.34,4.34,0,0,1,.24-3.61,8.33,8.33,0,0,1,.94-1.29c1.08-1.21,3.38-1.35,3.85.1a5.44,5.44,0,0,1,.15.54,6.45,6.45,0,0,1-.66,4.78l-.14.22a2.18,2.18,0,0,0-.2,1.81,3.07,3.07,0,0,0,1.83,1.82c1.78.74,3.5,1.55,5.27,2.3,1.27.55,3.71.24,3.34-.9-.87-3.74-2-7.4-3.23-11.07-.19-.61,1.23-.7,1.92-.41a25.33,25.33,0,0,0,2.63,1,4.3,4.3,0,0,1,1.59.78,2.32,2.32,0,0,0,1.23.69c.84.21,1.26-.24,1.31-1.26a1.56,1.56,0,0,1,1.25-1.41,1.63,1.63,0,0,1,1.92.93c.21.65.43,1.32.61,1.91.08.24.48.42.87.59s.78.35,1,0c0,0,0,0,0,0a2.72,2.72,0,0,0,.66-2,1.91,1.91,0,0,0-.88-1.67c-1.45-.83-3.69-1.44-2.49-2.51s3.15-.88,3.91-2.12a1.72,1.72,0,0,0,0-1.37,3.76,3.76,0,0,0-1.84-2c-1.2-.67-1.74-2.14-.4-2.58a6.49,6.49,0,0,1,.7-.18,5.78,5.78,0,0,1,3.63.47c.67.34,1.39.71,2.2,1.1,1.09.53,2.05,1.22,2.19,2.26a4.6,4.6,0,0,0,.79,2.3,2.1,2.1,0,0,0,1.9,1,.92.92,0,0,0,.39-.28,1.61,1.61,0,0,0,.31-1.34,4.82,4.82,0,0,1,.67-3.39c.19-.27.39-.54.57-.82a5.9,5.9,0,0,1,3-2.46c1.34-.42,2.73-.68,4.11-1a7.27,7.27,0,0,0,3.83-1.94,21.12,21.12,0,0,0,1.7-2.35,2.69,2.69,0,0,0,.41-1.18c.14-1.66,2.22-2.52,4-1.79l1,.4a4.25,4.25,0,0,0,4.89-1.14l1.43-1.92a1.81,1.81,0,0,1,1.39-.92,1.59,1.59,0,0,1,.43.06,1.4,1.4,0,0,1,1.11,1.2c0,.3.07.68.12,1a1.31,1.31,0,0,0,.33.69,1.56,1.56,0,0,0,2.29-.05,2.43,2.43,0,0,0,.08-2c-.39-1.22-.7-2.2-1.1-3.42-.11-.35-.22-.7-.3-1a2.74,2.74,0,0,1,.67-2.23c1.36-1.83,4.37-2.62,4.79-.5,0,.23.08.45.13.68a4.51,4.51,0,0,0,2.09,2.53,3.76,3.76,0,0,0,.61.36c2.83,1.46,5.88,2.61,9,4a6.69,6.69,0,0,0,1.28.48A1.64,1.64,0,0,0,195,42.47a1.27,1.27,0,0,0-.13-1.07,2.51,2.51,0,0,1-.24-.46,1.82,1.82,0,0,0-1.05-1.06,7.64,7.64,0,0,1-2.93-2A7.22,7.22,0,0,0,188,35.48a4.16,4.16,0,0,1-1.56-1.1,5.87,5.87,0,0,1-1.07-3.15c-.07-.87-.4-2.29.61-2.51l4.87-1.09a2.51,2.51,0,0,1,3,1.43,2.28,2.28,0,0,1,.09.51c.08.86.56,1.23,1.56,1.48.71.11,1.17-.52,1.88-1.46a1.78,1.78,0,0,1,2-.77c.77.34,1,1.09,1.3,1.78.57,1.35,2.35.78,3.35-.38a4.44,4.44,0,0,1,2.35-1.33L215,27c1.34-.3,3,.79,4.32,1.13a5,5,0,0,0,3.76-.84,1.71,1.71,0,0,0,.7-1.11c0-.56.27-1.6.87-1.33,1.95.87,3.84,1.5,5.48,2.44.62.28-.23,1.1-.91,1.25l-1.69.38A3,3,0,0,0,225.78,30c-.55.77-.65,1.08-.44,1.54a13.29,13.29,0,0,0,.65,1.31c.4.69,1,.84,2.12.78a5.77,5.77,0,0,0,1.43-.23,3.71,3.71,0,0,0,1.85-1.07,1.59,1.59,0,0,0,.24-1.57l-.33-1c-.24-.74.65-1,1.13-1.69.31-.4.61-.81.94-1.22a3.17,3.17,0,0,1,3.69-.69l.8.35a1.72,1.72,0,0,1,.92,2.57,1.28,1.28,0,0,0,.82,2.05,3.14,3.14,0,0,0,3.18-1.18,13.17,13.17,0,0,1,2.57-2.27c.93-.58,2.28-.79,2.72-1.68a1.93,1.93,0,0,0,.16-1.12c-.08-.55-.42-1-.39-1.51,0-1.16,1.73-1.74,3.08-2l6.1-1.36a1.39,1.39,0,0,1,1.71.84.67.67,0,0,1-.06.6,2.62,2.62,0,0,1-1.54.89l-1.75.39c-1.89.43-4.07,1.45-3.88,3.07a7.33,7.33,0,0,0,.73,2.09c.56,1.26,2.42,3.12,2.73,1.8a1.15,1.15,0,0,0,0-.33c.08-.8-.47-1.46-.08-2.33a3.87,3.87,0,0,1,.26-.66,1.38,1.38,0,0,1,2.21-.52,10.51,10.51,0,0,1,.88,1.57c1.07,1.76,1.32,1.7,3.54,1.21l2.36-.53a4.52,4.52,0,0,0,2.66-1.64c1.95-2.27,2.89-2.47,5.87-1.57,1.63.42,3.22-.39,2.79-1.76,0,0,0-.11-.05-.16-.47-1.46,0-2.09,1.8-2.76,1.49-.59,3.29-.21,3.91.7.49.58.49,1.27.85,1.88a.93.93,0,0,0,.31.4,3.31,3.31,0,0,0,2.3.35l3.66-.81a3.18,3.18,0,0,0,1.77-.91c1-1.16,2.81-2,3.52-.72a4.76,4.76,0,0,0,1.32,1.88,3.16,3.16,0,0,0,2.39.1c1.05-.24,2.24-.63,2.41-1.52a1.23,1.23,0,0,0,0-.19c.23-2.52,2.54-3,5.22-1.81l3.77,1.67a2.1,2.1,0,0,1,1.17,1.23l.4,1.25c.22.67-.55,1.3-1.12,1.8a8,8,0,0,1-1.41,1c-.51.28-.36.75-.25,1.09a2.15,2.15,0,0,0,.69,1,1.45,1.45,0,0,0,2-.35,1.84,1.84,0,0,0,.28-.45,1.4,1.4,0,0,0,0-.76,6.47,6.47,0,0,0-.46-1.48c-.31-.72.55-1,1-1.66a13.42,13.42,0,0,1,6.52-3.81l4-.89a3.19,3.19,0,0,1,1.56.15c.43.15.18.4,0,.76a3.19,3.19,0,0,1-.44.78,2.08,2.08,0,0,1-.88.43c-1.12.37-2.55.49-3.92.8a4.4,4.4,0,0,0-.73.22c-1.16.48-.87,1.77-.65,2.83a12,12,0,0,0,.27,1.19c.5,1.75,3.17,1.8,4.35.29.31-.4.59-.81.87-1.24a3.76,3.76,0,0,1,4.4-1.06h0a3.28,3.28,0,0,0,2,.12c1.84-.41,3.84.48,4.33,2,0,.14.09.27.13.4s.47.42.86.6.79.35,1,0l0,0a2.71,2.71,0,0,0,.67-2,1.94,1.94,0,0,0-.83-1.64c-1.45-.9-4.06-1.75-2.54-2.55.86-.41,1.8-.8,2.63-1.27,2.15-1.22,3-1.09,5.53-1.65a3.28,3.28,0,0,1,2.74.17,2.36,2.36,0,0,1,1.26,2.86c-.78,1.29-1.76,2.5-2.65,3.74-.6.84-.38,2.48.79,2.42a3,3,0,0,0,.31,0c.31,0,.61-.08.91-.13,2.82-.49,4.12-3.49,7-3.76h.08c1.42.05,1.62.89,1.72,1.72a2.83,2.83,0,0,1-.43,1.87,2.32,2.32,0,0,0,1.2,3.38l.07,0c1.34.59,3.27.26,3.4-1,0-1.05-.71-2.2-1.1-3.42s2.14-1.56,3.4-1l1.31.58A3.84,3.84,0,0,1,362,27.67l.07.15a2.73,2.73,0,0,0,1.35,1.11l.64.3c1.4.67.68,2.61.35,3.92,0,.11,2.36,1.66,2.5.22-.08.8-.21-.26-.05-.82.31-1.11-.47-1.46-1.57-.69l-.06,0c-.88.68,1.2,2.38,1.68,1.47.94-1.26.66-1.76.89-2.07l1-1.39a2.87,2.87,0,0,1,3.07-.67,2.45,2.45,0,0,0,2.59-.57l.08-.07c.78-.79,2.24-1.12,2.84-.23a8.85,8.85,0,0,1,.91,2.77c-1.11,3.86-1.25,5.53-.25,6l.25.11c2,.85,0,3.35,1.47,1.94a3.49,3.49,0,0,1,2.39-1,2.88,2.88,0,0,1,1.33.3l.11,0c1.57.7,4.08.95,5.14-.25a3.91,3.91,0,0,1,1.74-1c1.06-.32,2.23-.57,3,.42,1.26,1.81-.74,3,1.74,2.71a5,5,0,0,1,1.92,0c.7.19,2-1.33,2.19-.73.36,1.12.13.46-.74,1.37-.64.67-.74,1-1.33,1.62-.83.92,1.5.79,2,1.86a2.1,2.1,0,0,0,.13.26,2.68,2.68,0,0,0,1.2,1c1.52.78,3.81.46,2.86,1.72l-1.39,1.87c-.24.32-.94.21-1.26.28a1.37,1.37,0,0,0-1.49-1.5,6.36,6.36,0,0,0-1.37,0,5.53,5.53,0,0,0-2.46.5.1.1,0,0,0,0,0c-.72.48-.46,1.33.36,1.67a3.35,3.35,0,0,0,1.86.08c1.07-.19,2.18-.59,3.15-.81.08,1.29,1.26,1.82,2.59,1.78,2.16-.06,5.21-.43,5.77,1.3v0c.08.24.47.42.86.59s.79.35,1,0a1.86,1.86,0,0,1,.19-.22,2.06,2.06,0,0,0,.53-1.59,2,2,0,0,0-2.13-2.22c-.91-.09-2.45-.6-2-1.24.55-1,1.26-.85,1.94-1.69s2.29-1.44,3-.69a1.62,1.62,0,0,1,.23.37,8.66,8.66,0,0,1,1,2.21,2.15,2.15,0,0,0,.39.75c.58.73,1.75.23,2.37-.48.86-1,2.51-1.33,3.3-.32.43.55.78,1.15,1.23,1.67.89,1,1.88,2.71,1.14,3.83a1.53,1.53,0,0,0-.2,1.34c.21.66.42,1.33.64,2a4.65,4.65,0,0,0,2.34,2.6,4.67,4.67,0,0,1,2.35,2.6l2.76,8.57c.23.73.86,1.63,1.8,1.42a2.68,2.68,0,0,0,1.07-1,1.68,1.68,0,0,0,.06-1c0-.28-.1-.57-.13-.86-.11-1.24,1.7-1.5,3-.83l.69.37a2.05,2.05,0,0,1,.93,2.83,1.17,1.17,0,0,0,.43,1.63c1.14.48,2.58-.09,3.88-.06s1.89,1.15,2.22,2.16l.49,1.52c.31,1,.77,2,2,1.92,2-.15,3.88-1.71,5.63-.94l.68.31a3.48,3.48,0,0,1,1.55,1.19,15.19,15.19,0,0,1,1.63,4.64,4,4,0,0,1-.51,3.5c-.58.77-.54.93-.28,1.81ZM394.42,42.62c-1.42-.63-1.9,1.1-1.48,2.4.49,1.53.54,1.2,1,2.73,0,.12.23.2.45.28a2,2,0,0,0,1.38.19c.93-.35.85-1.54.58-2.36-.57-1.78-.21-.94-.78-2.72C395.52,42.9,394.82,42.79,394.42,42.62ZM101.77,88.06c1.77.8,4.43.21,3.76-1.37a2.16,2.16,0,0,0-.38-.6c-.88-1-2.7-1.09-4.13-.73a3.21,3.21,0,0,0-.66.24C99.22,86.21,100.57,87.51,101.77,88.06ZM300.13,23.88c1.83-.28,2.57,2,.82,2.55C299,27,298.09,24.19,300.13,23.88Zm-20.45,3.23c0,.4.53.67.93.89a.87.87,0,0,0,.55.17l2.82-.63c.32-.07.47-.63.71-.94.37-.5-.45-1-1.13-1.19-1.27-.28-3.17.31-3.73,1.34A.82.82,0,0,0,279.68,27.11ZM414.05,57.54a.73.73,0,0,0-.17.38.82.82,0,0,0,.45.68,1.21,1.21,0,0,0,1.55-.37.73.73,0,0,0,.17-.38.78.78,0,0,0-.45-.68A1.21,1.21,0,0,0,414.05,57.54ZM249.14,32.37a.84.84,0,0,0-.47-1.29.92.92,0,0,0-.37-.09,1.21,1.21,0,0,0-.9.36c-.43.4-.15,1,.42,1.24.12,0,.25.14.37.2C248.48,32.93,248.8,32.79,249.14,32.37Zm-54.37,2.05a.94.94,0,0,0,.38.27,1.23,1.23,0,0,0,1.57-.33.71.71,0,0,0,0-.78,1,1,0,0,0-.38-.26,1.21,1.21,0,0,0-1.56.33A.71.71,0,0,0,194.77,34.42Zm-31.86,16.8a1,1,0,0,0,.38.26,1.19,1.19,0,0,0,1.56-.33.71.71,0,0,0,0-.77,1,1,0,0,0-.38-.26,1.2,1.2,0,0,0-1.57.33A.69.69,0,0,0,162.91,51.22Zm-24.7,12.43a1,1,0,0,0-.38-.26,1.2,1.2,0,0,0-1.56.32.71.71,0,0,0,0,.78,1,1,0,0,0,.38.26,1.21,1.21,0,0,0,1.56-.33A.69.69,0,0,0,138.21,63.65Zm-25.56,18.5a.73.73,0,0,0,.17-.38.82.82,0,0,0-.45-.68,1.2,1.2,0,0,0-1.55.37.74.74,0,0,0-.18.38.81.81,0,0,0,.46.68A1.21,1.21,0,0,0,112.65,82.15Z" />
        <path class="cls-3"
            d="M122.86,53.79a2.55,2.55,0,0,1,3.37,1.09,7.8,7.8,0,0,1,.76,1.93,4.51,4.51,0,0,1-.76,3.7l-.39.62a1.74,1.74,0,0,0-.13,1.49c.14.44.26.85.39,1.24a1.21,1.21,0,0,1-1,1.49,1.52,1.52,0,0,1-1.79-.86c-.3-.94-.59-1.83-.88-2.75a3.83,3.83,0,0,1,.47-3.23,3.84,3.84,0,0,0,.47-3.23C123.19,54.81,123,54.33,122.86,53.79Z" />
        <path class="cls-3"
            d="M84.43,79.39l1.24,3.87a2.78,2.78,0,0,1-.91,3.07,2.26,2.26,0,0,1-2.37.56,1.37,1.37,0,0,1-.86-2.06c.43-.72.25-1.88-.7-2A1.36,1.36,0,0,1,81,80.1h.25A13.59,13.59,0,0,0,84.43,79.39Z" />
        <path class="cls-3"
            d="M331.21,14.65c.67,2.09.76,4.88-1.81,5.15l-.22,0c-2,.17-2.67.07-3.14-1.4-.6-1.88,2.19-3.12,4.46-3.61Z" />
        <path class="cls-3"
            d="M290.51,9a2.73,2.73,0,0,1,3.73-.23.88.88,0,0,1,.21.87,7,7,0,0,1-1.5,2.8,2.8,2.8,0,0,1-3.8.15.9.9,0,0,1-.2-1A8.43,8.43,0,0,1,290.51,9Z" />
        <path class="cls-3"
            d="M262.63,22c-.3-.25-.56-.75-.34-1l1.22-1.63a3.3,3.3,0,0,1,3.76-.79,3.07,3.07,0,0,0,1,.18c.31,0,.61-.05.91-.06.68,0,1.11,0,1.23.27s-.17,1-.44,1.38a1.47,1.47,0,0,1-.77.44,15.64,15.64,0,0,1-6.08,1.33C262.88,22.06,262.78,22.1,262.63,22Z" />
        <path class="cls-3"
            d="M166.94,36.42a2.21,2.21,0,0,1,0,1.85,7.84,7.84,0,0,1-1,1.5c-1,1.25-3.48,2-3.85.52a2.2,2.2,0,0,1,.51-1.95,17.18,17.18,0,0,0,1.29-2.08c1.1-1.81,1.41-1.88,2.43-.8A2.61,2.61,0,0,1,166.94,36.42Z" />
        <path class="cls-3"
            d="M162.94,33.07a2.17,2.17,0,0,1-1.9,2.52l-.87.2a2.75,2.75,0,0,1-1.48,0A2.37,2.37,0,0,1,157,33.61c-.16-1.53,0-2.09,1.88-2.51a3.55,3.55,0,0,1,2.19,0A2.64,2.64,0,0,1,162.94,33.07Z" />
        <path class="cls-3"
            d="M351.13,21.15c-1.4,0-.39-1.75,1-2s1,.32,2.43,0a1.15,1.15,0,0,1,.86.21c.63.38,1.15,1.44.4,1.6C353.67,21.66,353.56,21.39,351.13,21.15Z" />
        <path class="cls-3"
            d="M273.43,17.8a3.08,3.08,0,0,1-4-1.83,2.38,2.38,0,0,1-.06-.37,1.93,1.93,0,0,1,0-.41c.14-.94,2-1,3-.61l1.27.57c.9.4,1.54,1.61.77,2.18-.19.14-.38.2-.59.33Z" />
        <path class="cls-3"
            d="M246.19,14.27c1.95-.81,2.95,1.55,1.8,3.09a2.17,2.17,0,0,1-2.43,1,1.34,1.34,0,0,1-.71-.77,2.48,2.48,0,0,1,1.08-3.21Z" />
        <path class="cls-3"
            d="M147.59,50.9c-2.16.45-2.14-2-.05-2.66a9.59,9.59,0,0,1,1.85-.36c1.83-.12,2.46,1.81.74,2.32-.69.2-1.44.34-2.16.59C147.84,50.83,147.73,50.87,147.59,50.9Z" />
        <path class="cls-3"
            d="M130.46,38.93c-1.78-.88-2.3-3.71-.24-3.51h.13a3.41,3.41,0,0,1,2.81,2.32,1.1,1.1,0,0,1-.26,1.13A2.2,2.2,0,0,1,130.46,38.93Z" />
        <path class="cls-3"
            d="M104.88,58.53a2.75,2.75,0,0,1-1.84-.17,2.71,2.71,0,0,1-1.27-1.2c-.77-1.64,2.09-2.26,3.93-1.39a5.92,5.92,0,0,0,.66.25c.85.27,1.21.66,1.07,1.15a2,2,0,0,1-2,1.28A3.78,3.78,0,0,0,104.88,58.53Z" />
        <path class="cls-3"
            d="M98.7,81.19c-.62.12-1-.3-1.41-.67l-.09-.06-1.73-.77c-1-.43-1.53-1.6-.76-2.26a1.05,1.05,0,0,1,.31-.18,8.31,8.31,0,0,1,1.7-.44,2.44,2.44,0,0,1,2.78,1.41c.14.45.29.91.44,1.38C100.16,80.28,99.52,81,98.7,81.19Z" />
        <path class="cls-3"
            d="M90.53,79a2.06,2.06,0,0,1-2.87.77,3.55,3.55,0,0,0-3.23-.4,1.79,1.79,0,0,1,.27-1.91,4.29,4.29,0,0,1,3.8-1.1,2.69,2.69,0,0,1,2.09,2.13A.81.81,0,0,1,90.53,79Z" />
        <path class="cls-3"
            d="M111.38,51.24c.46-.15-.06-.18.37,0a3.6,3.6,0,0,1,1.42,1.07c1.22,1.69-1.12,2.41-3.21,1.48-1.18-.53-1.57-.7-1.41-1.26a1.92,1.92,0,0,1,1.69-1.25A7.14,7.14,0,0,0,111.38,51.24Z" />
        <path class="cls-3"
            d="M368.07,1.63a.78.78,0,0,1,0,.6,2.42,2.42,0,0,1-3.28,1,1.62,1.62,0,0,1-.62-.42c-.22-.32.07-.72.31-1a2.44,2.44,0,0,1,3-.79A1.05,1.05,0,0,1,368.07,1.63Z" />
        <path class="cls-3"
            d="M366.57,23.2c-1.88.42-3.37,0-3-.9a2,2,0,0,1,1.9-1.28,5.59,5.59,0,0,0,.7-.09A3.11,3.11,0,0,1,368,21c.58.24.88.55.54,1s-.39.87-.7.94Z" />
        <path class="cls-3"
            d="M355.5,8.65c-.47-1.46.16-2.65,1.25-2.37s1.47.61,1.56,1.45a2.75,2.75,0,0,0,.1.56,1.58,1.58,0,0,1-.12,1.36c-.33.5-.73.75-1.3.5-.39-.17-1.09-.28-1.17-.52Z" />
        <path class="cls-3"
            d="M331.21,14.65c-.23-.71-.66-1.51-.88-2.29a1.9,1.9,0,0,1,.21-1.75,1.4,1.4,0,0,1,1.94-.31,2,2,0,0,1,.68,1,4.79,4.79,0,0,1,0,2.1C333.09,14.23,332.23,14.69,331.21,14.65Z" />
        <path class="cls-3"
            d="M219.31,25.21c-1.62.36-3.55-.49-2.43-1.52a.08.08,0,0,1,0,0,5,5,0,0,1,3.76-.84c1.62.42.42,2-1.21,2.37Z" />
        <path class="cls-3" d="M142.77,37.16c-.65-1.46-3.59-.8-3.28.73C139.85,39.6,143.49,38.79,142.77,37.16Z" />
        <path class="cls-3"
            d="M122.86,53.79c-1,.22-2.08.63-3.15.81a3.44,3.44,0,0,1-1.86-.07c-.82-.35-1.08-1.2-.36-1.68a3.72,3.72,0,0,1,1.22-.49,9.79,9.79,0,0,1,2.66-.07A1.37,1.37,0,0,1,122.86,53.79Z" />
        <path class="cls-3"
            d="M103.54,75.12c-2.24.5-4.59-1.53-2.31-1.91a11.13,11.13,0,0,1,1.66-.11,1.76,1.76,0,0,1,.65.05,2.93,2.93,0,0,1,.45.25c.25.15.44.37.37.62a1.63,1.63,0,0,1-.31.74A1,1,0,0,1,103.54,75.12Z" />
        <path class="cls-3"
            d="M90.59,63.29c0,1.4-2.43.34-2.83-1,0-.15-.07-.3-.1-.44a1.56,1.56,0,0,1,0-1,2.33,2.33,0,0,1,.23-.35,1.47,1.47,0,0,1,2-.35,2.25,2.25,0,0,1,.68,1A4.8,4.8,0,0,1,90.59,63.29Z" />
        <path class="cls-3"
            d="M106.26,43a6.16,6.16,0,0,1,1,.36c.15.22-.36.65-.51.94a1.22,1.22,0,0,1-1.56.33,1,1,0,0,1-.38-.27.71.71,0,0,1,0-.77A1.12,1.12,0,0,1,106.26,43Z" />
        <path class="cls-3"
            d="M205.71,19.72a.76.76,0,0,1-.17.39,1.21,1.21,0,0,1-1.55.37.82.82,0,0,1-.45-.68.73.73,0,0,1,.17-.38,1.2,1.2,0,0,1,1.55-.37A.81.81,0,0,1,205.71,19.72Z" />
        <path class="cls-3"
            d="M339.51,5.49a.76.76,0,0,1,.17-.39,1.2,1.2,0,0,1,1.55-.36.76.76,0,0,1,.45.67.76.76,0,0,1-.17.39,1.19,1.19,0,0,1-1.55.36A.8.8,0,0,1,339.51,5.49Z" />
        <path class="cls-3"
            d="M97.24,45a1.14,1.14,0,0,1,.4.11c.57.25.86.85.43,1.25a1.31,1.31,0,0,1-.84.35,1.34,1.34,0,0,1-.52-.14c-.58-.25-.94-.81-.49-1.2A1.6,1.6,0,0,1,97.24,45Z" />
        <path class="cls-3"
            d="M176,21.42a1.34,1.34,0,0,1-.52.42,1.39,1.39,0,0,1-.86,0,.76.76,0,0,1-.38-1.26.77.77,0,0,1,.28-.26,1.34,1.34,0,0,1,1-.06C176.15,20.46,176.39,21,176,21.42Z" />
        <path class="cls-3"
            d="M374,11.86a1.23,1.23,0,0,1-.94-.33,4.19,4.19,0,0,1-.54-.4.71.71,0,0,1,0-1A1.08,1.08,0,0,1,374,9.76a4.14,4.14,0,0,1,1,.53C375.59,10.82,374.87,11.66,374,11.86Z" />
        <path class="cls-3"
            d="M206.74,7.32a1,1,0,0,1-.38-.26.69.69,0,0,1,0-.77A1.2,1.2,0,0,1,207.9,6a1,1,0,0,1,.39.26.69.69,0,0,1,0,.77A1.19,1.19,0,0,1,206.74,7.32Z" />
        <path class="cls-3"
            d="M361,12.79a.92.92,0,0,1,.29-.26,1.36,1.36,0,0,1,1-.07.76.76,0,0,1,.38,1.26.73.73,0,0,1-.29.26,1.3,1.3,0,0,1-1,.07A.77.77,0,0,1,361,12.79Z" />
        <path class="cls-3"
            d="M348.39,19.93a1.2,1.2,0,0,1-.93-.33,3.69,3.69,0,0,1-.55-.4.71.71,0,0,1,0-1,1.08,1.08,0,0,1,1.45-.41,4.87,4.87,0,0,1,.91.49C350,18.85,349.28,19.73,348.39,19.93Z" />
        <path class="cls-3"
            d="M326.36,6.76a1.48,1.48,0,0,1,.52-.4,1.37,1.37,0,0,1,.85,0,.76.76,0,0,1,.38,1.25.84.84,0,0,1-.29.27,1.45,1.45,0,0,1-1.19,0c-.53-.21-.71-.68-.33-1.06Z" />
        <path class="cls-3"
            d="M309.26,16.47a1.38,1.38,0,0,1-.53.4,1.41,1.41,0,0,1-.84,0,.76.76,0,0,1-.38-1.26,1,1,0,0,1,.28-.26,1.45,1.45,0,0,1,1.19,0c.54.2.71.68.33,1.06C309.29,16.44,309.27,16.45,309.26,16.47Z" />
        <path class="cls-3"
            d="M271.69,5.55a1.23,1.23,0,0,1-1.57.39.82.82,0,0,1-.45-.68.73.73,0,0,1,.17-.38,1.21,1.21,0,0,1,1.55-.37.78.78,0,0,1,.45.68A.64.64,0,0,1,271.69,5.55Z" />
        <path class="cls-3"
            d="M266.14,11.94a1.34,1.34,0,0,1-.56-.12c-.53-.24-.77-.78-.39-1.17a1.25,1.25,0,0,1,.89-.39,1.18,1.18,0,0,1,.52.13c.58.25,1,.83.54,1.22A1.59,1.59,0,0,1,266.14,11.94Z" />
        <path class="cls-3"
            d="M255.41,7A1,1,0,0,1,255,6.9c-.57-.25-.85-.84-.42-1.24a1.28,1.28,0,0,1,.89-.36,1.13,1.13,0,0,1,.41.11c.57.25.86.85.42,1.25A1.24,1.24,0,0,1,255.41,7Z" />
        <path class="cls-3"
            d="M221.62,15.76a1.13,1.13,0,0,1-.41-.11c-.57-.25-.86-.85-.42-1.25a1.2,1.2,0,0,1,.89-.35,1,1,0,0,1,.41.11c.57.25.85.84.42,1.24A1.26,1.26,0,0,1,221.62,15.76Z" />
        <path class="cls-3"
            d="M237.78,11.8a.92.92,0,0,1,.29-.26,1.36,1.36,0,0,1,1-.07.76.76,0,0,1,.38,1.26.9.9,0,0,1-.28.27,1.38,1.38,0,0,1-1,.06A.76.76,0,0,1,237.78,11.8Z" />
        <path class="cls-3"
            d="M235.94,18.59c-.35-.4-.11-1.06.3-1.43l.06,0a4.06,4.06,0,0,1,.55-.46,1.32,1.32,0,0,1,1.21,0c.63.27.84.63.47,1.12a2,2,0,0,1-1.42,1C236.71,18.85,236.18,18.87,235.94,18.59Z" />
        <path class="cls-3"
            d="M235.66,20.79a1.53,1.53,0,0,1-1.61.32c-.19-.1-.19-.28-.14-.46a2.13,2.13,0,0,1,.79-1.23c.94-.66,1.65-.49,1.63.28a1.05,1.05,0,0,1-.3.78Z" />
        <path class="cls-3"
            d="M193.73,22.54c-.07-.2.08-.44.42-.73a6.33,6.33,0,0,1,.56-.47,1.36,1.36,0,0,1,1.21,0c.63.27.84.63.47,1.12a3.21,3.21,0,0,1-.8.84A1.34,1.34,0,0,1,193.73,22.54Z" />
        <path class="cls-3"
            d="M191.55,25.17a1.06,1.06,0,0,1,.9-1.3h.07c.8-.18,1.69.28,1.56,1a1.37,1.37,0,0,1-.84,1A1.23,1.23,0,0,1,191.55,25.17Z" />
        <path class="cls-3"
            d="M190,24.43a1.2,1.2,0,0,1-.93-.33,3.69,3.69,0,0,1-.55-.4.71.71,0,0,1,0-1,1.08,1.08,0,0,1,1.45-.41,4.45,4.45,0,0,1,.95.52C191.56,23.39,190.84,24.23,190,24.43Z" />
        <path class="cls-3"
            d="M183.4,7.27c-.22-.13-.47-.26-.56-.47a.76.76,0,0,1,.06-.65,1.2,1.2,0,0,1,1.56-.32,1,1,0,0,1,.38.26.78.78,0,0,1-.09,1,.94.94,0,0,1-1.28.27Z" />
        <path class="cls-3"
            d="M165.5,27.07a1.38,1.38,0,0,1-.41-.11c-.57-.25-.86-.85-.42-1.25a1.2,1.2,0,0,1,.89-.35,1,1,0,0,1,.41.11c.57.25.85.84.42,1.24A1.26,1.26,0,0,1,165.5,27.07Z" />
        <path class="cls-3"
            d="M154.77,25.92a.66.66,0,0,1,.17-.38,1.2,1.2,0,0,1,1.55-.37.82.82,0,0,1,.45.68.73.73,0,0,1-.17.38,1.21,1.21,0,0,1-1.55.37A.78.78,0,0,1,154.77,25.92Z" />
        <path class="cls-3"
            d="M149.61,32.71a1.37,1.37,0,0,1-.52.4,1.41,1.41,0,0,1-.84,0,.77.77,0,0,1-.39-1.26.91.91,0,0,1,.29-.26,1.45,1.45,0,0,1,1.19,0c.54.2.71.68.33,1Z" />
        <path class="cls-3"
            d="M145.92,41.78a1.53,1.53,0,0,1,.56.13c.53.24.78.78.39,1.17a1.27,1.27,0,0,1-.88.39,1.19,1.19,0,0,1-.53-.13c-.57-.26-1-.83-.53-1.22A1.65,1.65,0,0,1,145.92,41.78Z" />
        <path class="cls-3"
            d="M135.7,33.37a1.29,1.29,0,0,1-.51-.4.68.68,0,0,1,0-.7,1.21,1.21,0,0,1,1.56-.33.88.88,0,0,1,.38.27.69.69,0,0,1,0,.76A1,1,0,0,1,135.7,33.37Z" />
        <path class="cls-3"
            d="M120.68,44.07c-.21-.13-.46-.26-.55-.47a.76.76,0,0,1,.06-.65,1.2,1.2,0,0,1,1.56-.32,1,1,0,0,1,.38.26.78.78,0,0,1-.09,1,1,1,0,0,1-1.28.27Z" />
        <path class="cls-3"
            d="M99.32,61.53a1.3,1.3,0,0,1-1.6.39.82.82,0,0,1-.5-.71.76.76,0,0,1,.17-.39,1.2,1.2,0,0,1,1.55-.36.86.86,0,0,1,.45.59A.72.72,0,0,1,99.32,61.53Z" />
        <path class="cls-3"
            d="M91.38,57.63a.76.76,0,0,1,.17-.39,1.2,1.2,0,0,1,1.55-.36.82.82,0,0,1,.45.62.86.86,0,0,1-.21.49,1.14,1.14,0,0,1-1.49.42A1,1,0,0,1,91.38,57.63Z" />
        <path class="cls-3"
            d="M78.9,75.26a1.44,1.44,0,0,1-1.53.24.46.46,0,0,1-.23-.58,4.42,4.42,0,0,1,.17-.55,2,2,0,0,1,1.46-1c.45-.07.75.13.78.56a1.36,1.36,0,0,1-.33,1C79.13,75.05,79,75.15,78.9,75.26Z" />
        <path class="cls-3"
            d="M75.06,85.93c-.22-.14-.47-.26-.56-.48a.74.74,0,0,1,.06-.64,1.21,1.21,0,0,1,1.56-.33.89.89,0,0,1,.38.26.79.79,0,0,1-.08,1,1,1,0,0,1-1.29.28Z" />
        <path class="cls-3"
            d="M74.85,90.81a.8.8,0,0,1-.29.26,1.33,1.33,0,0,1-1,.07.77.77,0,0,1-.38-1.26.92.92,0,0,1,.29-.26,1.38,1.38,0,0,1,1-.07A.77.77,0,0,1,74.85,90.81Z" />
        <path class="cls-3"
            d="M96.81,54.75a.88.88,0,0,1,.21-.53,1.11,1.11,0,0,1,1.42-.34.88.88,0,0,1,.52.67.89.89,0,0,1-.21.49,1.19,1.19,0,0,1-1.5.46A.93.93,0,0,1,96.81,54.75Z" />
    </g>
</svg>