<svg id="Layer_1" data-name="Layer 1" xmlns="http://www.w3.org/2000/svg" viewBox="0 0 391 370"><defs><style>.cls-1{fill:#f4decc;}</style></defs><path class="cls-1" d="M348.25,197.65c.72-1.42,1-2.37,1.67-2.37,2.13-.22,4.27-.21,5.93-.44,2.13.49.44,3.5,3.77,1.85,0,0-.7-1.58,0-2.29,1.89.73,1-.71,3.09,0,.95-.95-2.37-1.35-1.42-2.3a8.17,8.17,0,0,1,.63-2.29c.48-1.18-5.09-3.78-3.91-3.54,1.9,0-2.49-5.66-.6-5.65.72,0,1.56,1.85,2.27,1.85l1.67-1.65c1.19,0-6.35-7.08-4.45-7.07.47.47,1.41,1.19,2.12,1.91,2.14-.46.26-3.56,3.1-4.26.23,0,4.81-1.82,3.83-5.82-1-1,3.88-3.58-1.16-6.15-5-1.93-7.82.38-9.73,2.57-.71.47-1.43,1.18-2.38,1.89-.47-.48-1.18-.72-1.17-1.2a15.45,15.45,0,0,1,0-3.33,2,2,0,0,0-1.17-1.91l-4.5,0c-1.91.7-.26,3.56-2.4,4.27-.23-.24-.71-.48-.7-.72-.23-2.14-.22-4.28-.44-6.42.71-1,1.43-1.66,2.14-2.61a6.82,6.82,0,0,1,.25-2.14,23,23,0,0,0,2.15-2.36c-.71-1.91-3.56-.26-4.26-2.4l.72-.72a3.61,3.61,0,0,0,.95-1.42,1.59,1.59,0,0,0-1.65-1,1.48,1.48,0,0,1-1.89-.72c-.24-.48,0-.95.72-1.66.95-.71,1.19-1.66,1-3.56-1.41-1-3.07-2.16-4.24-3.12,0-3.33,0-5.47,0-7.61.48-1,1.2-1.18,1.67-.7l2.59,2.63c0,.71.23,1.9.22,2.85,0,1.19-.46-1.43.72-.71.71-.71,1,0,1.66-.7.95,0,1.42.65,2.37-.78a28.68,28.68,0,0,1-2.35-2.79c.95-.95-2.59-3.58-1.64-4.53,1.43,0,3.54-1.84,5.2-1.83-5.19-4.47-7.06-4.19-6.12-3.47-1.41-1.08-2.11-3.45,2.15-3.43.71.72-.16-1.15-2.12-2.3,1.43,0-4.38-2.32-3-2.31,1.91-3,6.47,3.47,5.35,0-.72.47,1.43-1.85.48-1.14-1.19,0,.17-3.44-1.25-3.45-.95.71-2.28-2.32-3.23-1.37-2.13,0,1.2-3.09-.93-3.1-.71-.72-1.95.7-2.65,0-3.56,0,4.56-3.07,1-3.09-.94-.72-2.84.94-3.79,0-5.21,0-1.43,3.08-6.41,3.06-1.42-.72-.94-1.91-1.17-3.1a22.17,22.17,0,0,0,2.15-2.37c.23-.23,0-.71,0-1.19h-3.32a20.26,20.26,0,0,1-2.38,2.12,15.3,15.3,0,0,0-2.12-1.91,21.24,21.24,0,0,0-2.38,2.13c-2.84-.26-3.08-.26-3.06-3.11,1.42-1.42,2.85-3.08,4.28-4.5.24-.23,0-.71,0-1l-3.32,0a37,37,0,0,0-3.06-3.1,10.87,10.87,0,0,0-1.41-3.34L311,80.21c-.47.47-.94.23-1.65-.49a7.23,7.23,0,0,0-1.66-1.19c-1.18,0-2.6-.26-2.6-1.21s1.67-.94,2.62-1.17c.47,0,1.42-1,1.19-1.18a1.59,1.59,0,0,0-1.65-1c-2.14-.24-2.13-.48-2.36-2.62,0-.24-.23-.72-.23-1l-3.07-3.1c-.23-.24-.71,0-.94,0a1.6,1.6,0,0,1-.73,1.9c-.71.47-1.18-.24-1.41-2.39,0-.23,0,.48,0,.48a1.46,1.46,0,0,1-1.65-.49c-.48-.47-.47-1,.48-1.42.23,0,.47.24.71.24a2.59,2.59,0,0,1,.7,1.19,3.49,3.49,0,0,0,2.13.49,13.31,13.31,0,0,0,0-3.09c0-.48-.94-1.19-1.42-1.2a37.75,37.75,0,0,0-5.21,0,1.59,1.59,0,0,1-.72,1.89c-.72.48-1.19-.24-1.41-1.91h-3.32c-.94-1-1.89-2.15-3.07-3.35,0-1.9,0-4,0-5.94A7.87,7.87,0,0,0,282,50.09c-1.66,1.42-.25,3.56-1,5a23.41,23.41,0,0,1,2.36,2.63l0,2.14c-1.9,1.65-3.57,3.54-5.47,5.2-.47-.48-1.18-1-1.18-1.43-.22-3.57-.2-7.14-.18-10.71,0-.24-.47-.48-.71-.72a21.24,21.24,0,0,1-2.38,2.13c-.24.24-.71,0-1,0a1.6,1.6,0,0,1-.72,1.9c-.71.47-1.18-.25-1.41-1.91l-2.13,0c0,1,0,2.14,0,3.1,0,.23-.24.47-.48.71s-.47.47-.71.23-.71-.48-.71-.72c-.7-2.38-.22-3.09,1.92-3.55a1.51,1.51,0,0,0-.7-1.91c-1.18-.72-2.85,0-3.55-1.68,0-.72,0-1.43,0-1.91a16.48,16.48,0,0,0,1.91-2.36c-.7-1.43-1.89-1-3.31-1-1,.94-1.91,2.13-3.34,3.55-.48.95.7,2.85-.5,4.51-.24.24-.47.48-.71.47a1.07,1.07,0,0,1-.71-.71,7.34,7.34,0,0,1-.22-2.38,34.89,34.89,0,0,1-2.83-3.11c-2.13-.72-4.26-.26-6.4-.51-1.65-.72-2.59-2.15-3.53-3.11-.47-1.43-.7-2.38-1.17-3.57-1.67,1.65-3.33,3.07-4.76,4.49-1.42-1.43-2.6-2.63-3.77-3.83a1.06,1.06,0,0,0-1.43.71c-.24.24,0,.71,0,1.19a1.5,1.5,0,0,1-.72,1.9c-.71.23-1.42-.72-1.41-2.15,0-1.19,0-2.14,0-3.33a6.52,6.52,0,0,0-.23-2.14l-3.06-3.11c-2.14,1.18-.73,3.33-1.21,5-.48.47-.72,1.18-1.2,1.66-1.66,1.89-3.57,3.54-5.48,5.44-.71.71-.95.94-1.66.7a1.59,1.59,0,0,1-.7-1.9c0-.24,0-.72,0-1a5.76,5.76,0,0,0,2.39-4.5l1.67-1.66a7.2,7.2,0,0,0,0-5c-.23-.24-.47-1-.7-1l-5.45,0c0,.72,0,1.43,0,2.14a1.5,1.5,0,0,1-.72,1.9c-.48.24-1-.24-1.66-1l-.71-.71c-2.37.46-.49,3.32-2.39,4a21,21,0,0,0-2.36-2.16l-9.71-.05a1.6,1.6,0,0,1-.72,1.9,3,3,0,0,1-2.85,0,1.49,1.49,0,0,1-.7-1.9c-.24,0-.71-.24-.95,0a45.33,45.33,0,0,0-3.33,3.31c-.24.24,0,.72,0,1h3.08c1.42,1.44,1.42,1.44,1.18,2.62,0,1.43-.49,1.67-1.91,1.9a2.77,2.77,0,0,1-2.6-1.21c0-1,0-2.14,0-3.09-.48,0-1,.23-1.19,0a21,21,0,0,0-2.36-2.16l-3.09,3.08a22.4,22.4,0,0,1,2.12,2.39c-1,1.18-2.38,1.65-3.56.45a7.57,7.57,0,0,0-3.55-1.92c-1,0-1.65-1.2-1.41-2.38a2,2,0,0,0-1.17-1.91l-6.16,0a1.06,1.06,0,0,0-1,1.43c0,.23.47.47.71.71l4.26,0c1.42,1.67,1.42,1.67.92,6-.48,1-1.19.94-1.42,0-.23-.72,0-1.43-.46-2.14-.24-.48-.94-1.44-1.18-1.44a1.61,1.61,0,0,0-1,1.66c-.48,2.62-.48,2.62-2.38,2.61l-3.08,0-.94-1c-1.89-1.67-2.6-1.68-4.51-.26-.71.47-.95,1-1.66.71a2,2,0,0,1-.7-1.91c0-1.43-.46-1.91-1.88-2.15a2.23,2.23,0,0,0-2.62,1.41c-.24.71,0,1.43-.25,2.14,0,.24-.47.47-.71,1l-4.5,0a9,9,0,0,1-2.13-2.15c-1.9.71-.49,3.57-2.39,4.27h-2.13c-1.89-1-.22-3.57-2.35-4.29L132,50c0,1.18,0,2.14,0,3.33a1.22,1.22,0,0,1,1.66.72c1.18-.23,1.18.48,1.18,1a1.59,1.59,0,0,1-1,1.65c-.24,0-1.18-.72-1.18-1.19a13.88,13.88,0,0,1,0-3.09c-.47,0-1,.23-1.19,0a20.87,20.87,0,0,1-2.35-2.15l-6.64,0c-.24.24-1,.71-.71.71.47.48.7,1.2,1.17,1.2a15.88,15.88,0,0,0,3.32,0,1.59,1.59,0,0,1,1.66,1c-.25,1.66.69,3.57-.74,5.22-2.13-.72-3.07-2.63-4.72-4.06a21.2,21.2,0,0,1-2.38,2.12h-3.32c0,.95,0,2.14,0,3.09,0,.23-.23.47-.47.71s-.48.47-.72.23-.7-.48-.7-.72c-.7-2.38-.22-3.09,1.91-3.55.24-1,0-1.67-.7-1.91-1.66-.48-3.55-.73-4.49-2.64l-3.08,0a2,2,0,0,0-1.9.71,2.56,2.56,0,0,0-.25,2.85c1.18,1.43,2.59,2.63,3.77,4.06-.48.48-.72,1.19-1.19,1.19a22.4,22.4,0,0,1-4,0c-.94-.71-1.41-2.14-2.6-1.91-1.42.47-.72,1.9-.72,2.85.7.72,1.41,1.67,2.12,2.39l-3.1,3.07A4.33,4.33,0,0,1,99.4,65a16.17,16.17,0,0,1,0-3.33c0-.47-.7-1-1.17-1.67l-3.1,3.08a6.75,6.75,0,0,1-.25,2.13,22.17,22.17,0,0,0-2.15,2.37,4.7,4.7,0,0,0,.7,2.15c.24.71-.47.47-.71,0-.47-1,0-1.43,1-.94A2.39,2.39,0,0,1,94.64,70s-.48.71-1.19-.24c-.94-1-1.41-.73-1.65-1l-2.12-2.16c-.72.71-1.67,1.42-2.14,1.89a18.61,18.61,0,0,1-2.36-1.91c-1.67,1.66-.5,3.56-1,5.46a34.76,34.76,0,0,1-3.1,2.84C79.68,74.45,79,72.07,76.61,73l-2.14,2.13A23,23,0,0,0,72.11,73c-1,0-2.37-.49-2.85.94-.24,1,.94,1.43,1.65,2.38-.49,2.14-3.32.46-4.28,2.36,0,.71,0,1.43,0,2.61,1.42,1.2,3.07,2.4,4.25,3.59a8.32,8.32,0,0,1-.25,2.62,16.54,16.54,0,0,0-1.91,2.37L71.77,93c.23.23.71,0,.94,0a1.23,1.23,0,0,1,.72-1.66c.48-.24,1.19-.23,1.9-.47a1.61,1.61,0,0,1,1.66,1C77,92,76.27,93,75.79,93a13.22,13.22,0,0,1-3.08,0,1.73,1.73,0,0,1-1.43,2.13,11.25,11.25,0,0,1-2.84,0c0,1,0,2.14,0,3.09,0,.24-.24.47-.48.71s-.47.47-.71.23-.71-.48-.71-.71c-.7-2.38-.22-3.1,1.92-3.56,0-.48.24-1,0-1.19a39.33,39.33,0,0,0-3.06-3.11c-.48.48-1.19.71-1.19,1.19a15.88,15.88,0,0,0,0,3.32,1.57,1.57,0,0,1-1,1.66c-.7-.71-1.65-1.43-2.35-2.15-1.67,1.42-.74,4.28-3.11,5.22.7.71,1.41,1.67,2.12,2.39l0,4.28c-.71.71-1.43,1.65-2.14,2.36q0,5-.05,10c0,.71-.25,1.66-1,1.66-.24,0-1.18-.72-1.18-1.19-.23-1,0-2.14-1.17-2.86a40.64,40.64,0,0,0-2.86,3.31,8.52,8.52,0,0,1,1.65,2.15c-.73,2.13-3.32.46-4.28,2.35,0,1.43,0,2.86,0,4.52-1.19.95-1.19.95-3.31-1-.95,1-1.9,1.9-2.86,2.84-1,2.61,0,5-.51,7.13l2.12,2.16c0,2.61.21,5.47,0,8.32,0,1.19-1.2,1.66-2.38,1.41a1.42,1.42,0,0,0-1,.24l-1.67,1.65a7.17,7.17,0,0,1-1.89.47c-1.43,0-2.85-.49-4,1.16v2.14c1.41,1.68,3.07,2.64,4,4.78-.71,1.19-1.9.71-3.08.94-1,.94-1.91,2.13-3.1,3.31,0,1.19,0,2.62,0,4-.72.95-1.43,1.66-2.15,2.61a20.5,20.5,0,0,1,2.12,2.39c0,.95,0,2.14,0,3.33h3.08c.24,0,.48.24.71.48s.47.48.24.72-.48.71-.72.71c-2.37.7-3.08.22-3.54-1.93H28.66a1.5,1.5,0,0,0-1.9.71c-.24.47.24,1,.94,1.67l.71.71a6,6,0,0,1-2.86,3.08,14.11,14.11,0,0,1-3.8,1.41,16.92,16.92,0,0,1,2.12,2.39A17.2,17.2,0,0,0,22,189l4,4.07c-.24,1.19-1.19,1.42-2.14,1.41a2.15,2.15,0,0,0-1.9,1,6.75,6.75,0,0,1-.25,2.13c1.41,1.44,2.83,3.11,4.24,4.54-.72,1.19-1.9,1-2.85,1.18a2.14,2.14,0,0,0-1.43,1.42,53.3,53.3,0,0,0,0,6.18c2.83,2.87,2.83,2.87,1.15,5.48-.94.23-2.36-.49-2.84.69-.24,1,1.41,1.44,1.41,2.39a13,13,0,0,1-.28,7.37c-1.19.95-2.85.46-4.27.45a1.58,1.58,0,0,0-1.66,1c0,.24.94.95,1.41,1.19.71.25,1.42.25,2.13.49.24,0,.48.48.71.72,0,1.19,0,2.14,0,3.33a1.73,1.73,0,0,1,2.13,1.44,20.23,20.23,0,0,0,.69,4c.23.72-.48.48-.71,0-.47-1,0-1.43.95-.95a2.36,2.36,0,0,1,.94,1.2s-.48.71-1.18-.25a20.9,20.9,0,0,0-7.34-1c0,.95,0,2.14,0,3.57,1.41,1.2,3.07,2.39,4,3.11a21,21,0,0,0,.93,3.81c.23.72.94,1,2.13.73H21.4a1.48,1.48,0,0,1,.49-1.66c.47-.47.95-.47,1.42.49,0,.23-.24.47-.25.71a2.48,2.48,0,0,1-1.18.7,2.7,2.7,0,0,1-1.2,1.9c-1.19.71-2.84,0-3.56,1.65l0,4.28c.71.71,1.42,1.67,2.12,2.39v2.14c.94,1.43,2.61,1,4,1,1.18,0,1.89.25,2.36,1.2-.24.24-.48.71-.71.71a26.63,26.63,0,0,1-4.27.22c-.95,0-1.43,1.18-1.44,2.37a2.15,2.15,0,0,0,.94,1.9c.72-.71,1.43-1.18,2.15-1.89a6.17,6.17,0,0,1,1.17,1.44,48.39,48.39,0,0,1,0,5.94l-3.33,3.31-3.32,0c-.25,1.67-.72,2.14-1.67,2.14-1.43.23-2.85,0-4.27.45-.71.23-1,.95-.72,1.9l7.58,0a1,1,0,0,1,.94,1.43,1.07,1.07,0,0,1-.71.71H15.76c-.47.47-1.19,1.18-1.19,1.66,0,1.66-.73,3.56.92,5a22.16,22.16,0,0,1,2.38-2.13H20c1.66-.7,1-2.61,1.67-3.56a1.5,1.5,0,0,1,1.9-.7c0-.95,0-2.14,0-3.09,0-.24.24-.48.48-.71s.47-.48.71-.24.71.48.71.72c.7,2.38.22,3.09-1.92,3.56,0,.47-.24.95,0,1.19a37.51,37.51,0,0,0,3.06,3.1c.71,0,1.42.25,2.13.25A22.16,22.16,0,0,1,31.15,288c1.42,1,1.41,2.15.7,3.58-.25.71-1.19.94-1.44,1.65-.47.71-.48,2.38.23,2.86a1.82,1.82,0,0,0,1.89.48,2.39,2.39,0,0,0,.71-.23,14.32,14.32,0,0,1,2.62-1.89c1.19-.7,2.6.49,2.83,2.16a1.58,1.58,0,0,1,1.89.72c.47.72-.24,1.19-1.9,1.42,0,1.19,0,2.14,0,3.33a4.3,4.3,0,0,0,1.65,1.2c1.43.24,2.85-.23,3.8.25,1.17,1.2,2.35,2.16,3.3,3.11,0,1.19,0,2.38,0,3.33a1.59,1.59,0,0,0,1.9-.7c.72-1.19-.22-2.86,1.91-3.56h1.66A7.44,7.44,0,0,1,54,307.37c.22,2.14.21,4.28.44,6.43,0,.23.47.47.71.71a20.39,20.39,0,0,1,2.38-2.13c.23-.23.71,0,.94,0a1.23,1.23,0,0,1,.72-1.66c.48-.24,1.19-.23,1.9-.47a1.61,1.61,0,0,1,1.66,1c0,.24-.72,1.19-1.19,1.19a13.88,13.88,0,0,1-3.09,0v2.14a1.61,1.61,0,0,0,.7,1.91c.48.24.95,0,1.43-.71s.95-1,1.43-.71a1.51,1.51,0,0,1,.7,1.91l0,2.14c1.66.25,2.13.73,2.13,1.68.23,1.42,0,2.85.45,4.28.23.71.94,1,1.89.72,0-1.18,0-2.14,0-3.56.48-.48,1.43-1.18,2.14-1.89.24-.24,0-.72,0-1.43v.48a1.47,1.47,0,0,1-1.66-.49c-.47-.48-.47-.95.48-1.42.24,0,.48.24.71.24a2.5,2.5,0,0,1,.71,1.19,8,8,0,0,0,3.31.49c1.18,1.2,2.84,2.16,3.54,4.3-.25,1.19-.26,2.62-.5,3.81-.24.71-1,.94-1.9.7,0,1.19,0,2.14,0,3.33,1,.95,2.13,1.91,3.31,3.11a13.53,13.53,0,0,0,6.87-.2c.71-.24,1-1,.72-1.9l-3.32,0a37.09,37.09,0,0,0-3.06-3.11c.72-1.66,1.9-1.41,3.56-.93.46,1.67,3.07,1.92,2.82,4.06l3.32,0c.23.24.71.48.7.71.24.72.23,1.43.47,2.15.47.47.7,1.19,1.17,1.67,1.18,1.43,2.6,2.63,3.78,3.82,1.18.25,1.42-.94,2.37-1.41,1.9.25,4-1.64,5.45,1-.72.71-1.19,1.42-1.91,2.13.47.48.71.95.94,1l8.77,0c1.89,1,.46,3.57,2.35,4.3a9.19,9.19,0,0,1,2.38-1.89l3.06,3.1c0,.72,0,1.43,0,2.14,2.6,1.68,2.6,1.68,5.46-.92a9.2,9.2,0,0,0,2.36,1.92c1-.47,1.19-1.42,1.2-2.61,0-.48.71-1.19,1.19-1.66l3.06,3.11a12,12,0,0,0,.23,2.61c.94.72,2.12,1.68,3.77,3.12-.23,0,.24-.48.48-1.19.25-.95-.46-2.14,1-2.85a7.61,7.61,0,0,1,2.83,2.63,14.67,14.67,0,0,1,1.4,3.81c1.9-1.41,2.86-3.31,4.76-4.25,1.18.72.7,1.91.93,2.86a1.09,1.09,0,0,0,.71.72c.47.24,1.18,0,1.43-.95a26.59,26.59,0,0,0,0-4.28c1.43-1.89,3.32-.93,5.22-.92.47,0,.94.72,1.18,1.19-.48.48-1.19.95-1.43,1.66a5.62,5.62,0,0,0-.49,1.9,1.45,1.45,0,0,0,.23.95c1.66,1,1.41,3.1,2.35,4.53a6.05,6.05,0,0,0,2.83,2.64c1.19-.71,1-1.9,1-2.85-.7-.72-1.41-1.67-2.12-2.39,1.44-2.37,4.27,0,5.93-1.4,1.91-1.65-.68-4.52,1.7-5.93,1.41,1.43,3.06,2.87,4.48,4.3h2.13c1.89.73,0,3.57,2.34,4.3l3.1-3.08c.24-.23,0-.71,0-1.66V357a1.45,1.45,0,0,1-1.66-.48c-.47-.48-.47-1,.48-1.43.24,0,.48.24.71.25a2.47,2.47,0,0,1,.71,1.19c.71.72,1.42.48,1.66-.23.48-1.19.72-2.37,1.2-3.8.95,1,1.65,1.44,2.6,2.39a20,20,0,0,0,3.79,0,2.11,2.11,0,0,0,1.67-2.6v.47a1.45,1.45,0,0,1-1.66-.48c-.47-.48-.47-1,.48-1.43.24,0,.48.24.71.24a2.49,2.49,0,0,1,.71,1.2c.47.47.94.24,1.18.48,1.65,1.43,3.06,3.11,4.48,4.3,2.85-.22,2.85-.22,3.33-1.88V354a2.62,2.62,0,0,1,3.57-1.17c.7.48.94,1,1.88,1.68a56.47,56.47,0,0,0,9,0c1.19-.7,1.19-1.18.24-1.66-.71-.24-1.42-.25-1.89-.49a4.28,4.28,0,0,1-1.65-1.19c1.9-1.9,3.57-3.55,5.48-5.44a1.77,1.77,0,0,1,.93,2.38c1.65,1.91,2.59,3.1,3.54,4.06,1.9-1.42.73-4.51,3.34-5.45a9.31,9.31,0,0,1,.25-2.38,34.34,34.34,0,0,0,2.86-3.07c1.42,0,1.42,0,1.42,1.91l0,2.14,8.77,0c0-1.19,0-2.14,0-3.33,0-.23.48-.47.71-.71h.71c1.42,1.2,2.6,2.63,3.78,3.82a4.28,4.28,0,0,0,1.19-1.65,2.53,2.53,0,0,0-.23-1.91c-1.17-1.43-2.59-2.63-3.77-3.82a6,6,0,0,1,1.43-1.18,3.3,3.3,0,0,1,2.13.24c.71.25.94,1.2,1.65,1.44a2.5,2.5,0,0,0,2.85,0l1.66-1.65a20.14,20.14,0,0,0,2.36,1.91l1.9,0c1.66-.71,1-2.38,1.68-3.56a1.49,1.49,0,0,1,1.9-.71v-2.14c0-1.66.72-2.37,2.38-2.36h2.13c0-1.19,0-2.14,0-3.33,0-.24.48-.47.72-.71h.71c1.41,1.2,2.59,2.63,3.77,3.83,1.19-.47,1.19-1.42,1.2-2.61,0-.71.72-1.19.95-1.66a21.93,21.93,0,0,0,2.36,2.15c1.67-1.41,2.86-3.31,4.76-4.25a6.58,6.58,0,0,1,2.14.49c.7.24.94.95.7,1.9a13.22,13.22,0,0,0,3.08,0c.71-.24,1.19-.95,1-1.42-.47-.48-1.18-1-1.41-1.44-1.18-1.67-.22-3.33,1.91-3.56a1.49,1.49,0,0,1,.72-1.89,1.43,1.43,0,0,1,.95-.24l3.56,0c2.61-1.65,4.52-4.49,7.14-6.62l3.08,0c0-1.9,0-3.57,0-5.47l3.1-3.08c2.37.49.22,3.57,2.58,4.06.72-.95,1.67-1.89,2.87-3.31,0-1.67,0-3.81,0-5.71.95-1.9,2.38-2.6,3.34-4,1.88,1.92.69,3.81,1.15,5.72.71.24,1.66.72,2.36,1a10.33,10.33,0,0,0,4.05-3.78c0-1.19.25-2.38-.93-2.86-.71-.24-1.42,0-2.13-.25-.95-.24-1.18-1-.94-1.43l.71-.71a18.07,18.07,0,0,0,2.15-2.13l4.5,0,4,4.07c2.13.25,4.26,1.45,5.93-.92,0-.71,0-1.43,0-1.9a21.12,21.12,0,0,1,2.14-2.37,1.74,1.74,0,0,0-1.89-1c-2.13-.25-2.6-1-2.35-2.63,0-.71.71-1.19,1-1.66h2.14c.7.72,1.65,1.44,2.36,2.16l4.5,0,3.1-3.08c-.71-.71-1.42-1.67-2.13-2.39l0-2.14c.48-.94,1.19-1.18,1.66-.46l3.77,3.82c.71-.71,1.66-1.42,2.38-2.13,1.18,0,2.37-.22,3.08,1-1.43,1.42-2.87,3.08-4.29,4.5.23.24.47.71.7.72,2.85.25,5.69.26,8.53.28.71,0,1.19-.71,1.44-2.37v-.72c1.91-2.13-2.11-4.52,5.25-5.67,1.18,0-.46-3.43-1.89-3.43-.72.71-3.72.24-4.57,1.12-2.13.7-.87-2.25-3-2-1.66,0-3.29-1.93-4.95-1.46-.72.71-1.42-4.06-1.9-3.59-.23,0-.1-4.44-.34-4.44-9.95-.05,4.28-4.56-5.91-4.62-.71-.47,6.33-5.67,5.39-6.63l-6.4,0a39.33,39.33,0,0,1-3.06-3.11c.24-1.9,2.38-2.37,2.86-3.79l4.74,0a13.29,13.29,0,0,1,1-2.85,24.07,24.07,0,0,1-2.35-2.63c0-1.43,0-2.85,0-4.52,1-.95,2.14-1.89,3.33-3.07a15.28,15.28,0,0,1,2.13,1.91c1.9-2.13,1.91-2.37-.69-5,.25-1.66,2.86-2.36,1.92-4.5,1.43-1.42,2.86-3.08,4.53-4.5,0-.71,0-1.43,0-2.38-.95-.24-1.89-.72-2.84-1a23.15,23.15,0,0,0-2.62,2.36c-.7-.72-1.41-1.44-2.12-2.15s-.94-1-.7-1.67a2,2,0,0,1,1.9-.7c1.66.24,1.9-.23,1.9-1.9a2,2,0,0,1,.73-1.9.88.88,0,0,1,.71-.23c.94,1,1.88,2.39,3.78,1.92a25.82,25.82,0,0,0,5.72-5.67c-.23-.72-.23-1.43-.46-2.15s-.95-.95-1.9-.72a1.22,1.22,0,0,1-.72,1.66c-.47.24-1.18.23-1.9.47a1.6,1.6,0,0,1-1.65-1c0-.24.72-1.19,1.19-1.19a13.79,13.79,0,0,1,3.08,0,1.23,1.23,0,0,1,.72-1.66c1.19-.47,2.38-.7,3.8-1.17-1.41-2.86-4-.5-5.68-1.69l-2.12-2.16c-1.43,1.19-2.37,1.18-4.51,1.88-.71.24-.47-.48,0-.71.95-.47,1.42,0,.95,1a2.43,2.43,0,0,1-1.19.94C347.77,198.84,347.3,198.36,348.25,197.65ZM75.38,82q0,3.21,0,6.42c0,.23-.47.47-.71.71-.48.23-.95,0-1.42-.73q0-3.21,0-6.42c0-.23.47-.47.71-.71C74.44,80.84,74.91,81.32,75.38,82Zm216.43-11c-1.42-1.44-1.65-2.86,0-4.52,1.18.24,2.85-.7,3.07,1.44A37.45,37.45,0,0,0,291.81,71.07ZM137.16,51.45c1.43-1.66,2.85-1.65,4.5,0C140,53.13,138.57,53.12,137.16,51.45Zm17.07-1.81c-.24.24-.48.71-.72.71h-2.13c-.23,0-.47-.48-.7-.72a.44.44,0,0,1,0-.71c.48-1.19,2.85-1.18,3.55,0C154.47,49.17,154.23,49.4,154.23,49.64Zm50.55,298.49c1.65,1.44,1.65,2.87,0,4.52C203.11,351,203.12,349.55,204.78,348.13ZM323.42,97.64h-.95l-.7-.72c-.24-.47,0-1,.71-1.42.24-.24.72,0,.95,0a1.58,1.58,0,0,1,1.9.72C325.56,96.93,324.84,97.64,323.42,97.64ZM30.75,185c.24.48,0,1-.72,1.42l-.7-.72c-.24-.47,0-1,.71-1.42C30.05,184.05,30.52,184.53,30.75,185Zm4.91,103c.47-.24.94,0,1.41.72l-.71.71c-.48.23-1,0-1.42-.72ZM39,157.7l-.7-.71c-.24-.48,0-1,.72-1.43l.7.72C39.91,156.76,39.67,157.23,39,157.7Zm27.31-54.07c.23.47,0,1-.72,1.42l-.71-.72c-.23-.47,0-1,.72-1.42ZM176.52,47.14l.72-.71q.7-.34,1.41.72s-.47.48-.71.71C177.7,48.34,177.23,48.1,176.52,47.14Zm.28,303.7c.24.48,0,1-.71,1.42l-.71-.72c-.24-.47,0-1,.72-1.42C176.33,350.12,176.57,350.6,176.8,350.84ZM215.9,39l-.71.71c-.71-.48-.94-1-.7-1.43.23-.24.71-.71.71-.71C215.91,38.08,216.14,38.56,215.9,39ZM242.16,48l-.71.71c-.71-.48-.95-1-.71-1.43l.72-.71C242.17,47,242.4,47.5,242.16,48ZM262.51,54l.72-.71c.7.48.94,1,.7,1.43l-.72.71C262.51,55,262.27,54.5,262.51,54Zm18.78,257.42c.47-.24.95,0,1.42.72l-.72.71c-.47.23-.95,0-1.42-.73Zm3.2-245.65c-.24-.48,0-1,.72-1.43l.7.72c.24.48,0,1-.71,1.42Z"/><path class="cls-1" d="M365.28,206.3c-.94-1-1.43-.71-1.67-.48l-3.1,3.08c.24.47.71,1.19.94,1.19a59.41,59.41,0,0,0,6.4,0c1.91-1.9,1-3.81.75-5.95-1.18-1.43-2.61-.49-4-.73A5.52,5.52,0,0,0,365.28,206.3Z"/><path class="cls-1" d="M337.81,289.39c0,1.19,0,2.14,0,3.33-.71.71-1.43,1.66-2.15,2.37a3.26,3.26,0,0,0,1.89,1.2c2.61.49,2.61.49,2.6,2.39,0,.95,0,2.14,0,3.09l.94,1c.24,0,.72-.24.72-.47,1-2.37.5-4.76.28-7.37-1.66-1-1.89-2.87-2.35-4.53A1.42,1.42,0,0,0,337.81,289.39Z"/><path class="cls-1" d="M11.62,307.38c-1.9.94-.26,3.57-2.4,4.27H7.09a1.07,1.07,0,0,0-.71.71c-.24.47,0,1.19.94,1.43a28,28,0,0,0,4.5,0c.47.72,1.18,1.44,1.88,2.39,1.91-1.42,1-3.32,1.21-5C14.45,309.54,12.79,308.82,11.62,307.38Z"/><path class="cls-1" d="M10.79,285.5c0,.24,0,.71,0,.95,0,2.85,0,2.85-2.62,3.31a2.18,2.18,0,0,0-1.92,2.85A6.71,6.71,0,0,0,7.42,294l3.08,0c-.23-1.67,1.67-2.13,2.16-4a13.42,13.42,0,0,0,0-3.1C12.68,286,12,285,10.79,285.5Z"/><path class="cls-1" d="M360.61,280.72a1.17,1.17,0,0,0-.72,1.18,4.45,4.45,0,0,1-1.68,3.8.71.71,0,0,0-.24.47c.94,1.2,1.88,2.15,2.83,3.35l3.33-3.31a8.88,8.88,0,0,1,.25-2.38A19.73,19.73,0,0,1,360.61,280.72Z"/><path class="cls-1" d="M271.11,42.18c-1.19-.24-1.9.47-2.15,1.65a21.15,21.15,0,0,0,0,3.81A16.83,16.83,0,0,1,271.06,50c0,1.19,0,2.14,0,3.09h2.13c0-1.9,0-3.56,0-5.47-.71-.71-1.41-1.67-2.12-2.39C271.09,44.32,271.1,43.37,271.11,42.18Z"/><path class="cls-1" d="M275,335.19l3.1-3.07c0-.72,0-1.43,0-2.14-.71-.72-1.89-1.44-2.12-2.39s-.23-1.43-1.18-1c-.24.24-.71.47-.72.71a15.69,15.69,0,0,0,0,7.37A1.79,1.79,0,0,1,275,335.19Z"/><path class="cls-1" d="M24.6,316.25a15.17,15.17,0,0,1-1.9,2.13c-.72.71-1,.95-.72,1.42a1.49,1.49,0,0,0,1.89.73h1.19A15.17,15.17,0,0,0,27,318.4l2.37,0c.24,0,.48-.48.72-.71a1.06,1.06,0,0,0-.71-1.43Z"/><path class="cls-1" d="M296,311.05c0,1.19,0,2.14,0,3.33-.72.71-1.43,1.66-2.15,2.36,0,1.19-.25,2.38,1.17,3.1l2.86-2.84a6.69,6.69,0,0,0,0-5.23A1.51,1.51,0,0,0,296,311.05Z"/><path class="cls-1" d="M304,57.82c0,1.9,0,3.56,0,5.47,2.37,1.67,2.37,1.67,4.27,0-.71-.72-1.18-1.43-1.88-2.15.47-.47.47-.71.95-.95.71-.47,1.19-.94,1-1.66a1.51,1.51,0,0,0-1.9-.72A8.1,8.1,0,0,1,304,57.82Z"/><path class="cls-1" d="M115.14,48c0,1,0,2.14,0,3.09a2.24,2.24,0,0,0,2.6,1.21c1.42-.23,1.9-.47,1.91-1.89,0-1,0-1-1.17-2.63A16.54,16.54,0,0,1,115.14,48Z"/><path class="cls-1" d="M140.35,30.06c-.48,1.19-1,2.14-1.2,2.85.7,2.15,2.36,2.87,3.53,4.54.48-1.19,1-2.14,1.2-2.85C143.18,32.7,141.53,32,140.35,30.06Z"/><path class="cls-1" d="M165.65,40.43l-3.06-3.11c-.71.71-1.43,1.89-2.38,1.89-1,.23-1.42.23-1,1.18.23.24.47.72.7.72a9.71,9.71,0,0,0,5.22,0A3.45,3.45,0,0,1,165.65,40.43Z"/><path class="cls-1" d="M236.06,36.05c.7,1.67,2.36,2.39,3.06,3.82,1.67-.94,1.2-2.13,1.2-3.09a20.47,20.47,0,0,1-2.11-2.39c-1.18-1.43-1.42-1.43-1.9-.24A4.71,4.71,0,0,0,236.06,36.05Z"/><path class="cls-1" d="M238.21,33.21h3.08a2.26,2.26,0,0,0,1.2-2.61c-.23-1.43-.46-1.9-1.89-1.91-.94,0-.94,0-2.61,1.18A16.54,16.54,0,0,1,238.21,33.21Z"/><path class="cls-1" d="M318.1,297.14c0,.71,0,1.42,0,2.14a21.93,21.93,0,0,0-2.15,2.36c2.36,1.44,2.36,1.44,4.27-.21,0-1.43,0-2.85,0-4.28,0-.24-.47-.48-.71-.72C319.05,296,318.34,296.19,318.1,297.14Z"/><path class="cls-1" d="M345.9,238.78l6.4,0c.23,0,.47-.48.71-.71.24-.48,0-1-.94-1.43l-6.4,0c-.24,0-.47.47-.71.71C344.72,237.82,345.19,238.3,345.9,238.78Z"/><path class="cls-1" d="M373.4,147.13c-1.18-1.43-2.36-1.67-3.79-.73a17.38,17.38,0,0,0-3.09,2.84c1.17,1.43,2.36,1.67,3.78.73A17.44,17.44,0,0,0,373.4,147.13Z"/><path class="cls-1" d="M17.14,121.77c1.67-1.42,1.68-2.84,0-4.52-.72.71-1.43,1.66-2.15,2.37s-.95.94-.72,1.42a1.48,1.48,0,0,0,1.89.72C16.43,121.53,16.9,121.77,17.14,121.77Z"/><path class="cls-1" d="M8.51,267.65a13.31,13.31,0,0,0,0-3.09c0-.48-.71-.72-1.18-1.2L4.49,266.2c.47.48.7,1.19,1.18,1.2A5.86,5.86,0,0,0,8.51,267.65Z"/><path class="cls-1" d="M7.53,274.3c-1.67,1.42-1.68,2.85,0,4.52.72-.71,1.43-1.66,2.15-2.37s.95-.94.72-1.42a1.5,1.5,0,0,0-1.89-.72Z"/><path class="cls-1" d="M15.3,239.15a13.31,13.31,0,0,0,0-3.09c0-.48-.7-.72-1.17-1.2l-2.86,2.84c.47.48.7,1.19,1.17,1.2A5.91,5.91,0,0,0,15.3,239.15Z"/><path class="cls-1" d="M20.05,191.85,17,188.74c-2.14.23-1.2,1.9-1.44,3.08C17.2,193.5,18.62,193.27,20.05,191.85Z"/><path class="cls-1" d="M52.32,96.18c-1.44,2.13-1.44,2.13,0,4.28,1.19-.23,2.84.73,3.09-1.41A35.73,35.73,0,0,1,52.32,96.18Z"/><path class="cls-1" d="M67.69,325.28a1.64,1.64,0,0,0,1.41,2.15,34.49,34.49,0,0,0,5,0,1.64,1.64,0,0,0-1.41-2.15Z"/><path class="cls-1" d="M102.07,54.59l-5.22,0c-.47,0-.71.71-1.19,1.19,0,0,.47.71.71.71a8.82,8.82,0,0,0,5-.21C102.06,56,102.06,55.31,102.07,54.59Z"/><path class="cls-1" d="M159,39.44a13.31,13.31,0,0,0,0-3.09c0-.48-.71-.72-1.18-1.2L155,38c.47.48.71,1.19,1.18,1.2A5.88,5.88,0,0,0,159,39.44Z"/><path class="cls-1" d="M172.34,31.66l3.06,3.11c2.14-.23,1.2-1.9,1.44-3.08A3.07,3.07,0,0,0,172.34,31.66Z"/><path class="cls-1" d="M189.32,359c-1.19.23-2.37-.49-2.85.7s.94,1.43,1.41,2.15l.71.71.71.72Q191.45,361.14,189.32,359Z"/><path class="cls-1" d="M256.17,42.58c-3.08-.26-5.2-1.46-7.11.67.94,1.43,2.36,1,3.79,1.21C254,44.47,255,44.24,256.17,42.58Z"/><path class="cls-1" d="M264.55,27.88c-2.13-1.44-2.13-1.44-4.27,0,.23,1.19-.73,2.85,1.4,3.1C262.64,30,263.59,28.82,264.55,27.88Z"/><path class="cls-1" d="M294.06,49c1.66-1.41,1.43-2.84,0-4.51-.71.7-1.43,1.65-2.15,2.36-.71.47-.95.95-.71,1.42a1.49,1.49,0,0,0,1.89.73Z"/><path class="cls-1" d="M295.17,62.29c0-.24-.23-.72,0-.95l2.14-2.13c-.47-.48-.71-1-1.18-1.2a13.13,13.13,0,0,0-3.08,0c0,1.42,0,2.85,0,4.51A5.82,5.82,0,0,1,295.17,62.29Z"/><path class="cls-1" d="M300.63,59.94c1.19-.71,1.44-2.37,3.33-2.12,0-.24.24-.72,0-1a2.62,2.62,0,0,0-3.55-1c-.71.24-1.19,1.66-1,2.62A6.35,6.35,0,0,0,300.63,59.94Z"/><path class="cls-1" d="M316,68.82c-1.67,1.42-1.67,2.85,0,4.52.71-.71,1.43-1.66,2.14-2.37s1-.94.72-1.42a1.48,1.48,0,0,0-1.89-.72C316.7,69.06,316.23,68.82,316,68.82Z"/><path class="cls-1" d="M321.36,84.31a1.59,1.59,0,0,0,1.9-.71,9,9,0,0,0,.26-5c0-.24-.7-.72-.7-.72-.48.24-1.19.71-1.2,1.19A20,20,0,0,0,321.36,84.31Z"/><path class="cls-1" d="M335.61,78c1.67-1.42,1.68-2.84,0-4.52-.72.71-1.43,1.66-2.15,2.37s-.95,1-.72,1.42a1.49,1.49,0,0,0,1.89.73C334.9,77.72,335.14,78,335.61,78Z"/><path class="cls-1" d="M333.29,291.51a1.58,1.58,0,0,0,1.9-.7c.72-.71,1.2-1.9,2.62-1.42-.23-1.66-.7-2.14-1.65-2.15-1.66-.24-2.61.47-2.62,2.13A6.82,6.82,0,0,0,333.29,291.51Z"/><path class="cls-1" d="M351.63,140.6c1.42,1.67,2.84,1.67,4.51,0-.71-.72-1.66-1.44-2.36-2.15s-.95-1-1.42-.73a1.49,1.49,0,0,0-.72,1.9C351.87,139.88,351.63,140.36,351.63,140.6Z"/><path class="cls-1" d="M355.66,230c0-.95,0-2.14,0-3.1-1.65-1.91-1.89-1.67-4-.49C353.77,229.07,353.77,229.31,355.66,230Z"/><path class="cls-1" d="M357.77,234.33c1.66-.23,2.14-.7,2.14-1.66.25-1.9-.46-2.61-2.12-2.62h-2.13c-.24,1.42.7,1.9,1.41,2.62C357.78,233.14,358,233.62,357.77,234.33Z"/><path class="cls-1" d="M354.21,258c-.7-1.9-.7-1.9-3.54-4.06-1.19,2.14-1.19,2.37.46,4.05Z"/><path class="cls-1" d="M357.3,255.86c-1.19.71-1.43,2.37-3.33,2.12,0,.24-.24.72,0,.95a2.6,2.6,0,0,0,3.55,1c.71-.23,1.19-1.65,1-2.61C358.24,256.58,357.77,256.34,357.3,255.86Z"/><path class="cls-1" d="M370.11,249.94l.71.72c.48.24.95,0,1.43-.95,0-1.42,0-2.85,0-4.28l-.7-.71c-.48-.24-.95,0-1.43.94Z"/><path class="cls-1" d="M384.33,252.29c.48.72.95,1.2,1.42.73l.72-.71c0-1.43,0-1.74,0-3.17-.47-.72-.94-1-1.42-.72l-.71.71C384.35,250.55,384.34,250.87,384.33,252.29Z"/><path class="cls-1" d="M11.19,209.4c-1.41-1.67-2.84-1.68-4.5,0C8.1,211.05,9.76,211.05,11.19,209.4Z"/><path class="cls-1" d="M10.79,285.5c0-.72,0-1.43,0-2.14a15.35,15.35,0,0,0-3.32,0c-1,.23-1.19,1-.72,1.42.24.24.47.72.71.72Z"/><path class="cls-1" d="M17.46,278.88a14,14,0,0,0,0-3.1c0-.47-.94-1.19-1.18-1.19a1.58,1.58,0,0,0-.95,1.66,5.5,5.5,0,0,0,.46,1.9C15.8,278.87,16.51,279.11,17.46,278.88Z"/><path class="cls-1" d="M37,309.66a1.58,1.58,0,0,0,1.9-.71c.48-.71-.46-1.43-1.89-1.43H36l-.72.71c-.24.48,0,.95.7,1.43C36.25,309.89,36.73,309.66,37,309.66Z"/><path class="cls-1" d="M42.89,309.45c1.19-.47,1.2-2.84,0-3.56a.44.44,0,0,0-.71,0c-1.19.47-1.2,2.85,0,3.57Z"/><path class="cls-1" d="M53.43,109.5c0-1.42-.7-2.38-1.41-1.91a1.49,1.49,0,0,0-.72,1.9c0,.24,0,.72,0,1,.47.72.94,1.2,1.42.73.24-.24.71-.48.71-.71S53.43,109.74,53.43,109.5Z"/><path class="cls-1" d="M66.47,331.93c-1.67,1.42-1.68,2.85,0,4.52C68.11,334.8,68.12,333.37,66.47,331.93Z"/><path class="cls-1" d="M75.47,65.39a1.58,1.58,0,0,0,.7,1.9c.94.49,1.66-.46,1.67-1.89v-1l-.71-.72c-.47-.24-.94,0-1.42.71A1.42,1.42,0,0,0,75.47,65.39Z"/><path class="cls-1" d="M82.17,52.34a13.79,13.79,0,0,0-3.08,0c-.47,0-1.19.94-1.19,1.18a1.57,1.57,0,0,0,1.65,1,5.74,5.74,0,0,0,1.9-.46A1.24,1.24,0,0,0,82.17,52.34Z"/><path class="cls-1" d="M84.85,38.33c.47,1.19,2.84,1.2,3.56,0a.45.45,0,0,0,0-.72c-.47-1.19-2.84-1.2-3.55,0C84.86,37.85,84.85,38.09,84.85,38.33Z"/><path class="cls-1" d="M90.89,61.19c1.43,0,2.38-.7,1.91-1.42a1.51,1.51,0,0,0-1.9-.72H90c-.72.47-1.19.94-.72,1.42.23.24.47.71.71.72Z"/><path class="cls-1" d="M95.48,45.76c0-1.43-.7-2.38-1.41-1.91a1.48,1.48,0,0,0-.72,1.9c0,.23,0,.71,0,1,.47.71.94,1.19,1.42.72.24-.24.71-.47.71-.71S95.48,46.23,95.48,45.76Z"/><path class="cls-1" d="M115.14,48a13.88,13.88,0,0,0,0-3.09c0-.47-.94-1.19-1.18-1.19a1.58,1.58,0,0,0-1,1.66,5.5,5.5,0,0,0,.46,1.9A1.22,1.22,0,0,0,115.14,48Z"/><path class="cls-1" d="M132.56,25.27v-.72c-.7-1.19-3.07-1-3.55,0,0,.24,0,.48,0,.72.24.24.47.71.71.71l2.13,0C132.08,26,132.32,25.5,132.56,25.27Z"/><path class="cls-1" d="M198.62,35.37a1.58,1.58,0,0,0-.7-1.9,3,3,0,0,0-2.84,0,1.51,1.51,0,0,0-.72,1.9Z"/><path class="cls-1" d="M203,369.29c0-.24,0-.47,0-.71-.71-1.2-3.08-1-3.56,0v.71c.23.24.47.72.7.72h2.14C202.53,370,202.77,369.53,203,369.29Z"/><path class="cls-1" d="M254.59,29c-1.67,1.42-1.68,2.85,0,4.52C256.23,31.88,256.24,30.45,254.59,29Z"/><path class="cls-1" d="M258.43,330.82a14,14,0,0,0,0,3.1c0,.47.94,1.19,1.18,1.19a1.58,1.58,0,0,0,.95-1.66,5.5,5.5,0,0,0-.46-1.9C259.86,330.83,259.38,330.59,258.43,330.82Z"/><path class="cls-1" d="M271.11,42.18a13.22,13.22,0,0,0,3.08,0c.47,0,1.19-1,1.19-1.18a1.59,1.59,0,0,0-1.66-1,5.45,5.45,0,0,0-1.89.46A1.22,1.22,0,0,0,271.11,42.18Z"/><path class="cls-1" d="M289.29,322.19c-.46-2.14-1.17-2.62-3.55-1.92-.23,0-.47.47-.71.71,0,.24.23.47.23.71.24.24.47.48.71.48Z"/><path class="cls-1" d="M289.28,324.33a13.8,13.8,0,0,0-3.08,0c-.48,0-1.19.95-1.19,1.19a1.59,1.59,0,0,0,1.65,1,5.52,5.52,0,0,0,1.9-.47A1.23,1.23,0,0,0,289.28,324.33Z"/><path class="cls-1" d="M292.83,57.76c-.47-2.15-1.18-2.63-3.55-1.93-.24,0-.48.48-.71.71,0,.24.23.48.23.72.24.24.47.48.71.48Z"/><path class="cls-1" d="M300.09,340.8c-1.41-1.67-2.83-1.68-4.5,0C297.24,342.45,298.66,342.45,300.09,340.8Z"/><path class="cls-1" d="M306.13,51.17a13.31,13.31,0,0,0,0-3.09c0-.48-.94-1.2-1.18-1.2a1.61,1.61,0,0,0-1,1.66,5.63,5.63,0,0,0,.47,1.91C304.71,51.4,305.42,51.4,306.13,51.17Z"/><path class="cls-1" d="M313.47,321.13c1.41,1.67,2.83,1.68,4.5,0C316.32,319.48,314.9,319.47,313.47,321.13Z"/><path class="cls-1" d="M326.39,297.42v-.72c-.7-1.19-3.07-1-3.55,0,0,.23,0,.47,0,.71.24.24.47.72.71.72h2.13C325.91,298.13,326.15,297.65,326.39,297.42Z"/><path class="cls-1" d="M333.29,291.51c-2.13.47-2.61,1.17-1.91,3.56,0,.23.47.48.71.72.23,0,.47-.24.71-.24.24-.24.47-.47.48-.71A15.45,15.45,0,0,0,333.29,291.51Z"/><path class="cls-1" d="M335.59,305.79c1.41,1.67,2.83,1.68,4.5,0C338.44,304.38,337,304.37,335.59,305.79Z"/><path class="cls-1" d="M355.7,223.38a1.6,1.6,0,0,0,1.9-.71c.47-.71-.47-1.43-1.89-1.43h-.95l-.72.71c-.24.48,0,.95.71,1.43Z"/><path class="cls-1" d="M366.05,273.14a1.6,1.6,0,0,0,.7,1.91c.71.47,1.42-.47,1.43-1.9,0-.24,0-.71,0-.95l-.71-.72c-.47-.24-1,0-1.43.71C365.82,272.42,366.05,272.9,366.05,273.14Z"/><path class="cls-1" d="M356.31,264.42a13.31,13.31,0,0,0,0,3.09c0,.47.94,1.19,1.18,1.19a1.6,1.6,0,0,0,1-1.66,5.52,5.52,0,0,0-.47-1.9A1.21,1.21,0,0,0,356.31,264.42Z"/><path class="cls-1" d="M372.77,241.63c.46,1.19,2.83,1.21,3.55,0a.45.45,0,0,0,0-.71c-.47-1.19-2.84-1.21-3.56,0C372.53,241.15,372.77,241.39,372.77,241.63Z"/><path class="cls-1" d="M377.68,269.87c1.66-1.42,1.67-2.85,0-4.52C376,267,376,268.43,377.68,269.87Z"/><path class="cls-1" d="M389.74,260.17c1.67-1.42,1.68-2.84,0-4.52C388.1,257.31,388.09,258.74,389.74,260.17Z"/><path class="cls-1" d="M375.94,175.9c-1.41-1.67-2.83-1.67-4.5,0C373.09,177.32,374.51,177.32,375.94,175.9Z"/><path class="cls-1" d="M383.83,207.4c0-1.43-.7-1.27-1.42-.8s-1-.17-.72.79v1c.47.71.94,1.19,1.42.72.23-.24.71-.47.71-.71C384.06,208.35,383.82,207.87,383.83,207.4Z"/><path class="cls-1" d="M-1.2,223c.47.24,1,0,1.42-.7l-.7-.72c-.48-.24-.95,0-1.43.7Z"/><path class="cls-1" d="M2.07,276.41c-1.66.23-1.9.47-2.15,2.13C1.58,278.55,1.58,278.31,2.07,276.41Z"/><path class="cls-1" d="M3,276.42c.24,0,.48-.24.72-.71A.87.87,0,0,0,4,275c-.47-.72-.94-1-1.42-.49s-.95.95-.48,1.67C2.06,276.65,2.77,276.66,3,276.42Z"/><path class="cls-1" d="M5.61,234.58c.71-.48.95-1,.71-1.43l-.7-.71c-.72.47-1,.94-.72,1.42C4.9,234.34,5.37,234.34,5.61,234.58Z"/><path class="cls-1" d="M8.06,308.79c.23-.47,0-1-.71-1.43l-.71.71c-.24.47,0,.95.7,1.43Z"/><path class="cls-1" d="M9.92,269.8s.71-.47.72-.71a2.38,2.38,0,0,0-1-1.2c-.94-.48-1.42,0-.95.95A5.3,5.3,0,0,0,9.92,269.8Z"/><path class="cls-1" d="M13.1,251.26c0-.23-.23-.47-.71-.71a.85.85,0,0,0-.71-.24c-.71.47-.95.94-.48,1.42s.94,1,1.66.48C13.1,252.22,13.1,251.74,13.1,251.26Z"/><path class="cls-1" d="M12.86,296.45c-.23-1.67-.46-1.91-2.12-2.15C11,296,11.2,296.2,12.86,296.45Z"/><path class="cls-1" d="M11,300s.47.71.7.71c.48-.23,1.19-.47,1.19-.94.48-.95,0-1.43-.94-1C11.43,298.82,11.19,299.53,11,300Z"/><path class="cls-1" d="M12.25,321.42l-.7-.72c-.72.47-1,.94-.72,1.42l.71.72C12.49,322.37,12.49,321.89,12.25,321.42Z"/><path class="cls-1" d="M15,166.14l.72-.71c-.47-.72-.94-1-1.42-.72l-.71.7C14,166.13,14.5,166.37,15,166.14Z"/><path class="cls-1" d="M14.71,215.36c-.47-.24-1,0-1.42.71l.7.72c.48.24.95,0,1.43-.71C15.42,215.84,15,215.6,14.71,215.36Z"/><path class="cls-1" d="M14.51,254.36s.71-.47.71-.71a2.38,2.38,0,0,0-.94-1.19c-.95-.48-1.42,0-.95.95C13.32,253.64,14,254.12,14.51,254.36Z"/><path class="cls-1" d="M14.44,266c-.47-.24-.94,0-1.42.7l.71.72c.47.24.94,0,1.42-.71C15.15,266.5,14.68,266.26,14.44,266Z"/><path class="cls-1" d="M12.85,298.59c1.66-.23,2.14-.7,1.9-1.42a1.49,1.49,0,0,0-1.89-.72Z"/><path class="cls-1" d="M14.25,303.35c-.48-.24-.95,0-1.43.71l.71.72c.47.24.94,0,1.42-.71Z"/><path class="cls-1" d="M17.07,262.7c.24-.47,0-.95-.71-1.43l-.71.71c-.24.47,0,.95.7,1.43Z"/><path class="cls-1" d="M19.61,185.66c.24-.47,0-.95-.7-1.43l-.72.71c-.24.47,0,.95.71,1.43C19.13,186.37,19.37,185.9,19.61,185.66Z"/><path class="cls-1" d="M19.27,205.88l.71-.72c-.47-.71-.94-.95-1.42-.72l-.71.71A1.06,1.06,0,0,0,19.27,205.88Z"/><path class="cls-1" d="M19.17,223.47l.72-.71c-.47-.71-.95-.95-1.42-.72l-.72.71A1.05,1.05,0,0,0,19.17,223.47Z"/><path class="cls-1" d="M17.92,236.07s.47.72.71.72c.47-.24,1.19-.47,1.19-.95.48-1,0-1.42-.95-1A2.38,2.38,0,0,0,17.92,236.07Z"/><path class="cls-1" d="M21.65,158.09c-.47-.24-.95,0-1.42.7l.7.72c.48.24.95,0,1.43-.71C22.36,158.57,21.89,158.32,21.65,158.09Z"/><path class="cls-1" d="M23.66,181.64l.71-.71c-.47-.72-.94-1-1.41-.72l-.72.71C22.71,181.64,23.18,181.88,23.66,181.64Z"/><path class="cls-1" d="M23,301.26c-.48-.24-1,0-1.43.7l.71.72c.47.24.94,0,1.42-.7Z"/><path class="cls-1" d="M22.05,306.72l.71.72c.71-.47.95-.95.71-1.42l-.7-.72C22.05,305.77,21.81,306.25,22.05,306.72Z"/><path class="cls-1" d="M24.24,295.8l.71.71c.71-.47.95-.94.71-1.42l-.7-.72C24.24,294.85,24,295.32,24.24,295.8Z"/><path class="cls-1" d="M28.35,146.23l.72-.71c-.47-.71-.95-1-1.42-.72l-.72.71C27.4,146.23,27.88,146.47,28.35,146.23Z"/><path class="cls-1" d="M26.35,300.09l.71.72c.71-.48,1-.95.71-1.43l-.7-.71C26.35,299.14,26.11,299.61,26.35,300.09Z"/><path class="cls-1" d="M31.74,311.53c.24-.23.71-.71.71-.71q-.71-1.06-1.41-.72l-.72.71C30.79,311.53,31.26,311.77,31.74,311.53Z"/><path class="cls-1" d="M34.37,83.24l-.71.71c.47.72.94,1,1.42.72l.71-.71A1,1,0,0,0,34.37,83.24Z"/><path class="cls-1" d="M34.38,304.65c.24-.47,0-.95-.7-1.43l-.72.71c-.24.47,0,.95.71,1.43Z"/><path class="cls-1" d="M38.46,72.56c-.24.48,0,1,.7,1.43l.72-.71c.24-.47,0-1-.71-1.43Z"/><path class="cls-1" d="M39.17,296.59c-1.66.23-2.14.7-1.91,1.42a1.49,1.49,0,0,0,1.89.72Z"/><path class="cls-1" d="M41.87,143.93c.24-.48,0-1-.7-1.44l-.72.72c-.24.47,0,.95.71,1.42Z"/><path class="cls-1" d="M47.48,24.81l.71.72c.71-.48,1-1,.72-1.43l-.71-.71C47.49,23.86,47.25,24.33,47.48,24.81Z"/><path class="cls-1" d="M46,311.13s.47.72.71.72c.47-.24,1.19-.47,1.19-.94.48-1,0-1.43-1-1C46.44,310,46.2,310.66,46,311.13Z"/><path class="cls-1" d="M51.19,39.57l-.7-.71c-.72.47-1,.94-.72,1.42l.71.72C51.19,40.53,51.43,40.05,51.19,39.57Z"/><path class="cls-1" d="M49.74,90l-.71.71q.7,1.08,1.41.72l.72-.71A1.06,1.06,0,0,0,49.74,90Z"/><path class="cls-1" d="M49.6,116.38l-.71.71q.7,1.08,1.41.72l.72-.71A1.05,1.05,0,0,0,49.6,116.38Z"/><path class="cls-1" d="M52.33,49.57c.47.24.94,0,1.42-.71L53,48.15c-.47-.25-.94,0-1.42.7C51.38,48.85,52.09,49.33,52.33,49.57Z"/><path class="cls-1" d="M56.54,326.41c.47.72,1,1,1.42.72l.72-.71c-.47-.71-1-1-1.42-.72Z"/><path class="cls-1" d="M60.32,62c.47.71.94,1,1.42.72.23-.24.71-.71.71-.71-.47-.72-.94-1-1.42-.72S60.56,61.74,60.32,62Z"/><path class="cls-1" d="M60.47,77.2c-.24.47,0,1,.71,1.43l.71-.71c.24-.47,0-1-.7-1.43Z"/><path class="cls-1" d="M64,34.89c-.48-.24-.95,0-1.43.7l.71.72c.47.24,1,0,1.42-.71Z"/><path class="cls-1" d="M63.19,57l-.72.71c.47.71,1,.95,1.42.72l.72-.71C64.14,57,63.66,56.76,63.19,57Z"/><path class="cls-1" d="M63.25,89.58c.72-.47,1-1,.72-1.42l-.71-.72c-.71.47-.95,1-.72,1.42Z"/><path class="cls-1" d="M61.32,320s.47.71.7.71c.48-.23,1.19-.47,1.19-.94.48-1,0-1.43-.94-1A2.41,2.41,0,0,0,61.32,320Z"/><path class="cls-1" d="M73.13,59.67,72.42,59c-.71.47-1,.95-.72,1.42l.71.72C73.12,60.62,73.36,60.15,73.13,59.67Z"/><path class="cls-1" d="M77.15,60.64l.72-.71c-.47-.71-1-1-1.42-.72l-.72.71A1,1,0,0,0,77.15,60.64Z"/><path class="cls-1" d="M83.12,52.35c.24,0,.47-.24.71-.71a.86.86,0,0,0,.24-.71c-.47-.72-.94-1-1.41-.49s-1,1-.49,1.67A1.42,1.42,0,0,0,83.12,52.35Z"/><path class="cls-1" d="M88.46,28.83l-.71-.71c-.71.47-1,.94-.72,1.42l.71.72C88.45,29.79,88.69,29.31,88.46,28.83Z"/><path class="cls-1" d="M101.8,18.5c.24-.47,0-.95-.71-1.43,0,0-.47.48-.71.71-.24.48,0,.95.7,1.43Z"/><path class="cls-1" d="M92.37,50.5c-.47-.24-1,0-1.42.7l.7.72c.48.24.95,0,1.43-.71Z"/><path class="cls-1" d="M73.94,350.28c.71-.47,1-.95.72-1.42l-.71-.72c-.72.47-1,.94-.72,1.42Z"/><path class="cls-1" d="M95.3,347.07l.71-.71q-.7-1.08-1.41-.72l-.72.71C94.35,347.07,94.83,347.31,95.3,347.07Z"/><path class="cls-1" d="M103,54.6c.24,0,.48-.24.72-.71a.88.88,0,0,0,.24-.72c-.47-.71-.94-1-1.42-.48s-1,1-.48,1.66C102.07,54.59,102.54,54.59,103,54.6Z"/><path class="cls-1" d="M116.6,39.69c-.47-.24-.95,0-1.42.7l.7.72c.48.24,1,0,1.43-.71C117.31,40.17,116.84,39.93,116.6,39.69Z"/><path class="cls-1" d="M119.29,24.48l-.71-.72c-.71.48-1,.95-.72,1.43l.71.71A1.06,1.06,0,0,0,119.29,24.48Z"/><path class="cls-1" d="M122.12,26.87c-.24.48,0,1,.7,1.44l.72-.71c.24-.48,0-1-.71-1.43C122.84,25.93,122.36,26.64,122.12,26.87Z"/><path class="cls-1" d="M131.26,45.47c.48.24,1,0,1.43-.7l-.71-.72c-.47-.24-.94,0-1.42.71C130.56,45,131,45.23,131.26,45.47Z"/><path class="cls-1" d="M138.85.09c-.47-.24-.95,0-1.42.71l.7.71c.48.24,1,0,1.43-.7Z"/><path class="cls-1" d="M155.76,28.48c.72-.47,1-.94.72-1.42l-.7-.72c-.72.47-1,.95-.72,1.42Z"/><path class="cls-1" d="M160.72,32.55c.24-.23.71-.71.71-.71q-.7-1.07-1.41-.72l-.72.71A1,1,0,0,0,160.72,32.55Z"/><path class="cls-1" d="M167.15,25.93l.72-.71c-.47-.72-.94-1-1.42-.72l-.71.71Q166.45,26.28,167.15,25.93Z"/><path class="cls-1" d="M176,19.32l.71-.71c-.47-.72-.94-1-1.42-.72l-.71.7C175,19.31,175.48,19.55,176,19.32Z"/><path class="cls-1" d="M180.42,26.71c-.47-.24-.95,0-1.43.71l.71.72c.48.24,1,0,1.43-.71Z"/><path class="cls-1" d="M214.91,360.61c-.24.48,0,.95.71,1.43l.71-.71c.24-.47,0-.95-.7-1.43Z"/><path class="cls-1" d="M183.24,32c0-.24-.24-.48-.71-.72a.86.86,0,0,0-.71-.24c-.71.47-.95.95-.48,1.42s.94,1,1.65.49C183.47,32.91,183.47,32.2,183.24,32Z"/><path class="cls-1" d="M183.38,5.56q.7,1.08,1.41.72l.72-.71c-.47-.71-.94-1-1.42-.72C183.85,4.85,183.62,5.09,183.38,5.56Z"/><path class="cls-1" d="M184.64,35.06s.71-.47.72-.71a2.38,2.38,0,0,0-1-1.2c-.94-.48-1.42,0-.95,1C183.46,34.34,184.17,34.58,184.64,35.06Z"/><path class="cls-1" d="M214.07,27.84c0-.23-.24-.47-.71-.71a.86.86,0,0,0-.71-.24c-.71.47-1,.94-.48,1.42s.94,1,1.65.48A1.41,1.41,0,0,0,214.07,27.84Z"/><path class="cls-1" d="M216.2,28.81h-2.14c.23,1.66.47,1.9,2.12,2.15C216.19,30.23,216.19,29.52,216.2,28.81Z"/><path class="cls-1" d="M217.14,28.81c.24,0,.48-.23.72-.71a.85.85,0,0,0,.24-.71c-.47-.72-.95-1-1.42-.48s-1,.94-.48,1.66A1.39,1.39,0,0,0,217.14,28.81Z"/><path class="cls-1" d="M220.33,8.14c.24-.48,0-1-.7-1.43l-.72.71c-.23.47,0,.95.71,1.43C219.85,8.85,220.1,8.38,220.33,8.14Z"/><path class="cls-1" d="M222.54,350.85c-.47-.24-.94,0-1.42.7l.7.72c.48.24,1,0,1.43-.71C223.25,351.33,222.78,351.08,222.54,350.85Z"/><path class="cls-1" d="M225.4,348.24v-2.13c-1.66.22-2.14.7-1.9,1.41A1.57,1.57,0,0,0,225.4,348.24Z"/><path class="cls-1" d="M226.81,350.15s.72-.47.72-.7c-.24-.48-.47-1.2-.94-1.2-1-.48-1.43,0-1,.95A2.37,2.37,0,0,0,226.81,350.15Z"/><path class="cls-1" d="M231.32,350.18l.71-.71c-.47-.72-.94-1-1.42-.72l-.71.71C230.37,350.17,230.84,350.41,231.32,350.18Z"/><path class="cls-1" d="M235.17,26.29l.71-.71c-.47-.71-.94-.95-1.42-.72l-.71.71C234.22,26.29,234.69,26.53,235.17,26.29Z"/><path class="cls-1" d="M235.59,348.06s.71-.47.72-.71c-.24-.47-.47-1.19-.94-1.19-1-.48-1.43,0-1,.94A2.39,2.39,0,0,0,235.59,348.06Z"/><path class="cls-1" d="M242.29,23l-.7-.72c-.72.48-1,.95-.72,1.43l.71.71C242.29,24,242.53,23.48,242.29,23Z"/><path class="cls-1" d="M247.72,28.5c.47.24.94,0,1.42-.71l-.71-.71c-.47-.24-.94,0-1.42.7C247,28,247.48,28.26,247.72,28.5Z"/><path class="cls-1" d="M251.94,35.9l-.71.7c.47.72.94,1,1.42.73l.71-.71A1,1,0,0,0,251.94,35.9Z"/><path class="cls-1" d="M257.68,25.94c.24-.48,0-1-.7-1.43l-.72.71c-.24.47,0,1,.71,1.43C257,26.89,257.44,26.17,257.68,25.94Z"/><path class="cls-1" d="M255.32,337.23s.71-.47.71-.71a2.35,2.35,0,0,0-.94-1.2c-.94-.48-1.42,0-1,.95C254.38,336.51,254.85,336.75,255.32,337.23Z"/><path class="cls-1" d="M266.43,342.28c-.47-.24-.95,0-1.42.71l.7.71c.47.25,1,0,1.43-.7C267.38,342.76,266.67,342.52,266.43,342.28Z"/><path class="cls-1" d="M270.68,32.67c.24-.48,0-1-.7-1.43l-.72.71c-.24.47,0,.95.71,1.43C270.2,33.38,270.44,32.9,270.68,32.67Z"/><path class="cls-1" d="M268.83,337.06l.71-.71q-.71-1.07-1.41-.72l-.72.71A1,1,0,0,0,268.83,337.06Z"/><path class="cls-1" d="M281.94,321.91s.72-.47.72-.71c-.24-.47-.47-1.19-.94-1.19-1-.48-1.43,0-1,.94C280.76,321.19,281.47,321.67,281.94,321.91Z"/><path class="cls-1" d="M282.33,338.32l-.71-.71c-.71.47-.95.94-.72,1.42l.71.72C282.33,339.28,282.57,338.8,282.33,338.32Z"/><path class="cls-1" d="M285.69,330.49c.47.24.95,0,1.42-.7l-.7-.72c-.48-.24-1,0-1.43.71C285,330,285.45,330.26,285.69,330.49Z"/><path class="cls-1" d="M286.49,351.41l-.71-.71c-.71.47-.95.94-.71,1.42l.7.72C286.49,352.36,286.73,351.89,286.49,351.41Z"/><path class="cls-1" d="M289.29,322.19c0,.71,0,1.43,0,2.14,1.66-.23,2.13-.7,1.9-1.42A1.49,1.49,0,0,0,289.29,322.19Z"/><path class="cls-1" d="M291.14,329.57l-.7-.71c-.71.47-1,.94-.72,1.42l.71.72C291.14,330.52,291.38,330.05,291.14,329.57Z"/><path class="cls-1" d="M298.55,51.13c.71-.47.95-1,.72-1.42l-.71-.72c-.71.47-.95.94-.72,1.42C297.84,50.65,298.31,50.89,298.55,51.13Z"/><path class="cls-1" d="M303.57,43.07l-.71-.72c-.71.47-.95.95-.72,1.43l.71.71A1.06,1.06,0,0,0,303.57,43.07Z"/><path class="cls-1" d="M307.54,53.32s.72-.47.72-.71c-.24-.48-.47-1.19-.94-1.2-.95-.48-1.43,0-1,1C306.36,52.6,307.07,53.08,307.54,53.32Z"/><path class="cls-1" d="M309.06,303.75c0-.24-.24-.48-.71-.72a.86.86,0,0,0-.71-.24c-.71.47-.95.94-.48,1.42s.94,1,1.65.49A.59.59,0,0,0,309.06,303.75Z"/><path class="cls-1" d="M312.24,61.67c.24-.48,0-1-.71-1.44,0,0-.47.48-.71.71-.24.48,0,1,.7,1.44C311.76,62.38,312,61.9,312.24,61.67Z"/><path class="cls-1" d="M310.46,306.61s.72-.47.72-.71a2.46,2.46,0,0,0-.94-1.2c-.95-.48-1.43,0-1,.95A2.39,2.39,0,0,0,310.46,306.61Z"/><path class="cls-1" d="M313.4,66.43c.47.24,1,0,1.42-.71,0,0-.47-.48-.71-.71-.47-.25-.94,0-1.42.7Z"/><path class="cls-1" d="M324.22,304.07c.24-.48,0-1-.7-1.43l-.72.71c-.24.47,0,.95.71,1.43Z"/><path class="cls-1" d="M325.86,85.76s.47.71.7.72c.48-.24,1.19-.47,1.19-1,.48-1,0-1.43-.94-1C326.57,84.57,326.09,85.28,325.86,85.76Z"/><path class="cls-1" d="M330.14,82.21c-1.66.23-1.9.47-2.15,2.13C329.65,84.11,329.89,83.88,330.14,82.21Z"/><path class="cls-1" d="M331.09,82.22c.23,0,.47-.24.71-.71a.86.86,0,0,0,.24-.71c-.47-.72-.94-1-1.42-.49s-.95,1-.48,1.67C330.14,82.21,330.85,82.22,331.09,82.22Z"/><path class="cls-1" d="M331,91c.24,0,.48-.24.72-.71a1,1,0,0,0,.24-.71c-.47-.72-.95-1-1.42-.49s-1,1-.49,1.67C330.09,91.25,330.8,91,331,91Z"/><path class="cls-1" d="M333.55,317.52c-.24.48,0,1,.7,1.43,0,0,.48-.47.71-.71.24-.47,0-.95-.7-1.43Z"/><path class="cls-1" d="M342.27,320.55c-.47-.24-.95,0-1.43.71l.71.72c.47.24.95,0,1.43-.71C343,321,342.5,320.79,342.27,320.55Z"/><path class="cls-1" d="M346.93,92.54c-.47-.24-.95,0-1.43.7l.71.72c.47.24,1,0,1.43-.71Z"/><path class="cls-1" d="M345.63,245.44c.71-.47.95-.95.71-1.42l-.7-.72c-.72.47-1,.95-.72,1.42C345.15,245,345.39,245,345.63,245.44Z"/><path class="cls-1" d="M345.8,302.28l.71-.71c-.47-.72-.94-1-1.42-.72l-.71.71C344.85,302.27,345.32,302.51,345.8,302.28Z"/><path class="cls-1" d="M347.12,314c.24-.47,0-.95-.71-1.43l-.71.71c-.24.47,0,.95.7,1.43Z"/><path class="cls-1" d="M352.16,130.13l.71.72c.71-.47.95-.95.72-1.42l-.71-.72C352.17,129.18,351.93,129.66,352.16,130.13Z"/><path class="cls-1" d="M351.72,301.2c.47.24.95,0,1.43-.71l-.71-.71c-.47-.24-.95,0-1.42.7C350.78,300.48,351.49,301,351.72,301.2Z"/><path class="cls-1" d="M356.08,151.8c0-.24-.24-.48-.71-.72a.86.86,0,0,0-.71-.24c-.71.47-1,.94-.48,1.42s.94,1,1.65.49C356.07,152.75,356.07,152.27,356.08,151.8Z"/><path class="cls-1" d="M357.48,154.9s.71-.48.72-.71a2.38,2.38,0,0,0-.95-1.2c-.94-.48-1.42,0-.95.95C356.3,154.18,357,154.65,357.48,154.9Z"/><path class="cls-1" d="M355.87,235.74s.47.72.7.72a2.34,2.34,0,0,0,1.19-.94c.48-1,0-1.43-.94-1C356.35,234.56,356.11,235.27,355.87,235.74Z"/><path class="cls-1" d="M348,292.33c-.24.47,0,.95.7,1.43l.72-.71c.23-.47,0-.95-.71-1.43C348.51,291.62,348.27,292.09,348,292.33Z"/><path class="cls-1" d="M358.17,292.43c.47.24.94,0,1.42-.7l-.7-.72c-.48-.24-.95,0-1.43.71Z"/><path class="cls-1" d="M359.12,316.12l-.72.71c.47.72,1,1,1.42.72l.72-.7A1.07,1.07,0,0,0,359.12,316.12Z"/><path class="cls-1" d="M356,303.06l-.72.71c.47.71.95,1,1.42.72l.72-.71C357,303.06,356.5,302.82,356,303.06Z"/><path class="cls-1" d="M364.58,202.5c0-.24-.24-.48-.71-.72a.87.87,0,0,0-.71-.24c-.72.47-1,.94-.48,1.42s.94,1,1.65.49C364.57,203.45,364.57,203,364.58,202.5Z"/><path class="cls-1" d="M334.43,325c-.47-.24-.95,0-1.43.71l.71.71c.47.24,1,0,1.43-.7Z"/><path class="cls-1" d="M365.39,315.07c-.47-.24-.94,0-1.42.7l.7.72c.48.24.95,0,1.43-.71A1.82,1.82,0,0,1,365.39,315.07Z"/><path class="cls-1" d="M344.27,309.38c-.48-.24-.95,0-1.43.7l.71.72c.47.24.95,0,1.42-.7Z"/><path class="cls-1" d="M368,232.48c-.47-.24-1,0-1.42.71l.7.71c.48.24.95,0,1.43-.7C368.92,233.2,368.44,233,368,232.48Z"/><path class="cls-1" d="M369.23,219.73c-.23.47,0,1,.71,1.43l.71-.71c.24-.47,0-.95-.7-1.43Z"/><path class="cls-1" d="M371.49,275.55c.71-.47.95-.95.71-1.43l-.7-.71c-.72.47-1,.94-.72,1.42C371,275.07,371.25,275.07,371.49,275.55Z"/><path class="cls-1" d="M370.21,286.4c.24-.47,0-.95-.7-1.43l-.72.71c-.24.47,0,.95.7,1.43Z"/><path class="cls-1" d="M364,303.9s.47.72.71.72a2.38,2.38,0,0,0,1.19-.94c.48-.95,0-1.43-.94-1A5.3,5.3,0,0,0,364,303.9Z"/><path class="cls-1" d="M352.05,106.15c-.47-.24-.95,0-1.42.71l.7.72c.48.24.95,0,1.43-.71Z"/><path class="cls-1" d="M371.54,200c.23-.24.71-.71.71-.71-.47-.72-.94-1-1.42-.72-.24.23-.71.71-.71.71C370.59,200,371.06,200.27,371.54,200Z"/><path class="cls-1" d="M367.11,302.49c.24,0,.48-.23.72-.7a.92.92,0,0,0,.24-.72c-.47-.71-.95-.95-1.42-.48s-1,1-.49,1.66C366.16,302.73,366.64,302.73,367.11,302.49Z"/><path class="cls-1" d="M351.57,263l-.7-.71c-.72.47-1,.94-.72,1.42l.71.72C351.57,263.92,351.81,263.44,351.57,263Z"/><path class="cls-1" d="M369.05,294.22c-.24.23-.71.71-.71.71.47.71.94.95,1.42.72l.71-.71C370,294.22,369.53,294,369.05,294.22Z"/><path class="cls-1" d="M375.17,303.43l.72-.71c-.47-.71-.95-1-1.42-.72l-.72.71C374.22,303.42,374.7,303.67,375.17,303.43Z"/><path class="cls-1" d="M360.07,248.74l.71-.71c-.47-.72-.94-1-1.42-.72l-.71.71A1.06,1.06,0,0,0,360.07,248.74Z"/><path class="cls-1" d="M363.65,264.22c.48.24,1,0,1.43-.71,0,0-.47-.48-.71-.71-.47-.25-.95,0-1.42.7Z"/><path class="cls-1" d="M368.2,125.18c-.24.48,0,1,.7,1.44l.72-.71c.24-.48,0-1-.7-1.43Z"/><path class="cls-1" d="M375.84,259.16c-.47-.24-.95,0-1.43.7l.71.72c.47.24.95,0,1.43-.7Z"/><path class="cls-1" d="M379.37,228.69l.71-.71q-.7-1.08-1.41-.72L378,228C378.18,228.92,378.66,228.92,379.37,228.69Z"/><path class="cls-1" d="M374.12,161.39l-.7-.72c-.72.47-1,1-.72,1.42l.7.72A1,1,0,0,0,374.12,161.39Z"/><path class="cls-1" d="M379.57,162.61c.47.24.94,0,1.42-.71l-.7-.72c-.48-.24-1,0-1.43.71Z"/><path class="cls-1" d="M382.86,168.09l-.71-.71c-.72.47-.95.94-.72,1.42l.71.72C382.85,169,383.09,168.57,382.86,168.09Z"/><path class="cls-1" d="M332.88,56.78l-.71-.71c-.71.47-.95.94-.72,1.42l.71.72A1,1,0,0,0,332.88,56.78Z"/><path class="cls-1" d="M372.87,187.13c-.24.47,0,1,.71,1.43l.71-.71c.24-.47,0-.95-.7-1.43C373.59,186.18,373.11,186.89,372.87,187.13Z"/><path class="cls-1" d="M386.59,223.44c.48.24,1,0,1.43-.7l-.71-.72c-.47-.24-.95,0-1.42.7C385.65,222.72,386.36,223.2,386.59,223.44Z"/><path class="cls-1" d="M385.45,213.59l.72-.71c-.47-.72-.95-1-1.42-.72l-.72.71C384.27,213.82,384.74,213.82,385.45,213.59Z"/><path class="cls-1" d="M378.88,215.43l.72-.71c-.47-.72-.94-1-1.42-.72-.24.23-.71.71-.71.71Q378.17,215.77,378.88,215.43Z"/><path class="cls-1" d="M355.82,96.39c-.48-.24-.95,0-1.43.71l.71.72c.47.24.95,0,1.42-.71Z"/><path class="cls-1" d="M356.31,263.47c0-.24-.23-.48-.7-.72a.88.88,0,0,0-.72-.24c-.71.47-.95.94-.48,1.42s.95,1,1.66.49C356.31,264.42,356.31,263.7,356.31,263.47Z"/></svg>