<svg xmlns="http://www.w3.org/2000/svg" viewBox="0 0 625 4" preserveAspectRatio="none">
    <defs>
        <style>
            .cls-1 {
                fill: #f4decc;
            }
        </style>
    </defs>
    <path class="cls-1"
        d="M.15,2.23C.2,1.45.87.59,5.16.55,5.85.5,7,.55,7.65.5,36.3.55,37.24.21,40.1.21c3.83-.16,3.83,1,30.4.55,6.08,0,12.2.05,18.27,0L118.65.21c3.88-.15,7.76-.29,11.4-.16C154.15.3,312.85.6,337,1c11.5.1,22.61.09,34.41,0,11.1,0,22.5-.17,33.9-.32,7.87,0,15.78.05,23.7.14,3.58,0,7.27.27,10.9.4,8,.22,16,.69,24.2.5,11.4-.16,21.9-.19,33.23-.29,3.29.15,5.21,0,8.75-.08,4.54.19,8.45-.07,13.29-.12,6.07-.05,13.07-.51,19.29-.17,2.19.11,9.12-.32,10.66,0,2.34.49,2.89-.62,2.14.21-.4.81-8.63-.23-11.32.22a71.37,71.37,0,0,1-9,.08c-6.82,0-12.55.31-19.32.4-8.22.06-16.73.28-25,.34-3.93,0-8.26-.07-12.15.08-11.25.54-22.1.26-33.26.14-8.26-.06-16.62-.38-24.84-.32-23.2.21-46.59-.72-70.09-.35-6.77.09-13.84.33-20,.11-9.51-.49-18.73.18-28.69.37-13.54.17-162.38-.06-175.87.24-6.77.09-13.54.18-20,.25-5.33.11-10.71.1-16,.22-4.63.07-9.26.14-13.59,0C64.78,3,57.56,2.82,50,2.7q-18.83,0-37.34.7a15.59,15.59,0,0,1-4-.24c-2-.63-4.31,1.31-5.25.73C2,2.29,1,4.39,0,2.77l.35,0Z" />
    <path class="cls-1"
        d="M498.89,1.28c6.65-.08,13-.26,19.66-.34h18c2.22.16-6.43.63,21.72.59,8,0,63.9-1.41,66.78.45.11.85-19.12.5-21.12.53-14.15.07-13.3,1.07-27.57.71-25.43-.51-23.22-.1-29.47,0S497.67,2.9,496.38,2C496,1.75,494.2,1.81,498.89,1.28Z" />
</svg>