<svg xmlns="http://www.w3.org/2000/svg" viewBox="0 0 240 6" preserveAspectRatio="none">
    <defs>
        <style>
            .cls-1 {
                fill: #531918;
            }
        </style>
    </defs>
    <path class="cls-1"
        d="M233.36,4.9c0-.47-.29-.57-2.48-.58-.35,0-.92,0-1.27,0-5.64,0-11.32,0-17,0H197.49c-3.1,0-6.24.07-9.34.07L172.91,4.1C170.94,4,169,4,167.09,4c-12.33.23-47.17.23-59.54.53-5.88.1-11.56.13-17.59.14-5.68,0-11.49,0-17.31-.08-4,0-8.07.09-12.13.17-1.83,0-3.73.18-5.6.27-4.08.16-8.23.46-12.4.38-5.82-.06-8.92-.52-14.7-.54-1.69.11-4.94.52-6.74.46-2.33.13-4.31,0-6.78,0-3.1,0-6.65-.26-9.86,0-1.12.07-2.39-.18-3.19,0C0,5.59-.19,4.94.14,5.43c.15.48,2.18-.14,3.53.12a32.2,32.2,0,0,0,4.61,0c3.49,0,6.39.14,9.85.17,4.2,0,8.53.11,12.73.12,2,0,4.23-.07,6.21,0,5.71.28,11.28.08,17,0,4.23-.07,8.52-.28,12.72-.27,11.85,0,20,.19,32,.33,3.45,0,9.74.19,12.91.05,4.89-.33,11.12-.39,16.2-.31,6.91.06,36.29-.27,43.17-.13,3.45,0,6.91.06,10.19.07,2.71,0,5.46,0,8.18.08,2.36,0,4.72,0,6.94,0l11.45-.3q9.63-.07,19.05.29A7.57,7.57,0,0,0,229,5.48c1.08-.39,2.12.76,2.64.41.78-.95,1.18.29,1.79-.68h-.18C233.3,5.05,233.33,5,233.36,4.9Z" />
    <path class="cls-1"
        d="M240,.9c0-.41-.25-.5-2-.51-.29,0-.75,0-1,0-4.63,0-9.28,0-13.9-.08H210.55c-2.55,0-5.12,0-7.66,0L190.4.09C188.77,0,187.15,0,185.63,0c-10.12.18-87.34,1-97.48,1.26-4.82.07-9.47.09-14.41.09-4.66,0-9.43,0-14.2-.1-3.29,0-6.62.06-9.94.12-1.5,0-3.06.15-4.58.23-3.35.13-6.75.39-10.17.31-4.77-.06-9.3,0-13.92.33a41.8,41.8,0,0,1-4.33,0,39.48,39.48,0,0,0-4.89-.14c-2.6.13-5.46.16-8.08.35a17.21,17.21,0,0,0-2.53.33c-1,.26-1.27-.09-1,.34s1.29.51,2.4.74a23.44,23.44,0,0,0,3.79.25c2.86,0,5.7,0,8.53,0,3.44,0,7,.11,10.44.12,1.64,0,3.46,0,5.08,0,4.7.26,9.26.09,13.94,0,3.46,0,7-.24,10.42-.22,9.72.06,19.55.2,29.38.34,2.83,0,5.78.15,8.38,0,4-.27,8.2-.26,12.36-.19,5.67.07,78.4-.4,84-.27l8.35.09c2.23,0,4.49,0,6.71.08,1.94,0,3.88,0,5.7,0L219,3.92q7.89-.06,15.62.28a5.43,5.43,0,0,0,1.7-.13,12.56,12.56,0,0,0,2.19-1A15.89,15.89,0,0,0,240,1.17h-.15C239.91,1,239.93,1,240,.9Z" />
</svg>