<svg id="Layer_1" data-name="Layer 1" xmlns="http://www.w3.org/2000/svg" viewBox="0 0 367 349"><defs><style>.cls-1{fill:#e62f48;}</style></defs><path class="cls-1" d="M327.63,180.61c.64-1.28.86-2.13,1.51-2.13,1.93-.2,3.85-.19,5.36-.4,1.92.44.4,3.15,3.41,1.67,0,0-.64-1.42,0-2.06,1.71.65.87-.64,2.79,0,.87-.85-2.14-1.21-1.28-2.06a7.13,7.13,0,0,1,.57-2.06c.43-1.07-4.6-3.41-3.53-3.19,1.71,0-2.26-5.08-.55-5.07.65,0,1.41,1.66,2.06,1.66l1.5-1.49c1.07,0-5.74-6.36-4-6.36.43.43,1.28,1.08,1.93,1.72,1.93-.41.23-3.2,2.8-3.83.21,0,4.35-1.63,3.46-5.23-.93-.94,3.51-3.22-1-5.53-4.5-1.73-7.08.34-8.8,2.31-.65.42-1.29,1.06-2.16,1.7-.42-.43-1.06-.65-1.06-1.08a14.24,14.24,0,0,1,0-3,1.74,1.74,0,0,0-1.06-1.72l-4.07,0c-1.72.63-.23,3.21-2.16,3.84-.22-.22-.64-.43-.64-.65-.21-1.92-.2-3.85-.4-5.77.65-.85,1.29-1.49,1.94-2.34a6,6,0,0,1,.22-1.93,17.79,17.79,0,0,0,1.94-2.13c-.63-1.71-3.21-.23-3.84-2.16l.65-.63a3.29,3.29,0,0,0,.86-1.28,1.45,1.45,0,0,0-1.5-.87,1.34,1.34,0,0,1-1.71-.64c-.21-.43,0-.86.65-1.5.86-.64,1.08-1.49.88-3.2-1.28-.86-2.78-1.94-3.84-2.8,0-3,0-4.92,0-6.84.44-.86,1.08-1.07,1.51-.64.63.65,1.49,1.51,2.34,2.37,0,.64.21,1.71.2,2.56,0,1.07-.42-1.28.65-.63.64-.64.86,0,1.5-.64.86,0,1.28.58,2.15-.69a26.58,26.58,0,0,1-2.13-2.51c.86-.86-2.34-3.23-1.48-4.08,1.29,0,3.2-1.66,4.7-1.65-4.69-4-6.39-3.76-5.53-3.12-1.28-1-1.91-3.1,1.94-3.08.64.65-.15-1-1.91-2.07,1.28,0-4-2.08-2.69-2.07,1.73-2.7,5.85,3.12,4.84,0-.65.43,1.29-1.66.43-1-1.07,0,.16-3.09-1.13-3.1-.86.64-2.05-2.09-2.91-1.24-1.93,0,1.08-2.77-.85-2.78-.64-.65-1.76.63-2.4,0-3.21,0,4.13-2.75.92-2.77-.86-.65-2.58.84-3.43,0-4.72,0-1.3,2.77-5.8,2.75-1.29-.65-.85-1.72-1.06-2.79a18.53,18.53,0,0,0,1.94-2.12c.21-.22,0-.65,0-1.07l-3,0A18.9,18.9,0,0,1,305.19,87a14.17,14.17,0,0,0-1.92-1.72,19.79,19.79,0,0,0-2.15,1.92c-2.57-.23-2.79-.23-2.77-2.8,1.29-1.28,2.58-2.77,3.88-4,.21-.21,0-.64,0-.86h-3a33.06,33.06,0,0,0-2.77-2.8,9.92,9.92,0,0,0-1.27-3L293.9,75c-.43.42-.86.21-1.5-.44a6.34,6.34,0,0,0-1.5-1.07c-1.07,0-2.35-.23-2.35-1.09s1.51-.84,2.37-1c.43,0,1.29-.85,1.07-1.07a1.43,1.43,0,0,0-1.49-.86c-1.93-.22-1.93-.44-2.13-2.36,0-.22-.21-.65-.21-.86l-2.77-2.79c-.22-.22-.65,0-.86,0a1.44,1.44,0,0,1-.65,1.71c-.65.42-1.07-.22-1.28-2.15v.43a1.35,1.35,0,0,1-1.5-.43c-.42-.44-.42-.86.44-1.29.21,0,.42.22.64.22a2.33,2.33,0,0,1,.64,1.07,3.09,3.09,0,0,0,1.92.44,11.75,11.75,0,0,0,0-2.78c0-.43-.85-1.07-1.28-1.07a33.8,33.8,0,0,0-4.72,0,1.43,1.43,0,0,1-.65,1.71c-.65.42-1.07-.22-1.28-1.72l-3,0c-.85-.86-1.7-1.93-2.77-3,0-1.71,0-3.64,0-5.35a7.11,7.11,0,0,0-3.41-3.23c-1.51,1.28-.23,3.21-.88,4.49a22.58,22.58,0,0,1,2.13,2.36c0,.65,0,1.29,0,1.93-1.72,1.49-3.23,3.19-5,4.68-.42-.43-1.06-.86-1.06-1.29-.2-3.21-.18-6.42-.16-9.63,0-.21-.43-.43-.64-.64a18.9,18.9,0,0,1-2.16,1.91c-.21.22-.64,0-.85,0a1.44,1.44,0,0,1-.66,1.71c-.64.42-1.07-.22-1.27-1.72h-1.93c0,.85,0,1.92,0,2.78,0,.21-.21.42-.43.64s-.43.42-.64.21-.64-.43-.64-.65c-.63-2.14-.2-2.78,1.73-3.2a1.34,1.34,0,0,0-.63-1.71c-1.07-.65-2.58,0-3.21-1.51,0-.65,0-1.29,0-1.72a16.12,16.12,0,0,0,1.73-2.12c-.64-1.29-1.72-.87-3-.88-.86.85-1.73,1.92-3,3.2-.43.85.63,2.56-.45,4.06-.21.21-.43.42-.64.42a1,1,0,0,1-.64-.64,6.48,6.48,0,0,1-.21-2.14,32.27,32.27,0,0,1-2.55-2.8c-1.93-.65-3.86-.23-5.79-.46a10.57,10.57,0,0,1-3.2-2.79c-.42-1.29-.63-2.14-1-3.22-1.51,1.49-3,2.77-4.31,4l-3.41-3.44a1,1,0,0,0-1.29.64c-.22.21,0,.64,0,1.07a1.33,1.33,0,0,1-.65,1.7c-.64.22-1.28-.64-1.27-1.93,0-1.07,0-1.92,0-3a5.8,5.8,0,0,0-.2-1.93l-2.77-2.79c-1.94,1.06-.66,3-1.1,4.48-.43.43-.65,1.07-1.08,1.5-1.51,1.7-3.23,3.19-4.95,4.89-.65.64-.87.85-1.51.63a1.42,1.42,0,0,1-.63-1.71v-.86a5.14,5.14,0,0,0,2.17-4l1.51-1.49a6.48,6.48,0,0,0,0-4.49c-.21-.21-.42-.86-.64-.86l-4.93,0c0,.64,0,1.28,0,1.92a1.34,1.34,0,0,1-.65,1.71c-.43.21-.86-.22-1.5-.87-.21-.21-.42-.43-.64-.64-2.14.42-.44,3-2.16,3.62a19.52,19.52,0,0,0-2.13-1.93l-8.79-.05A1.43,1.43,0,0,1,191,37a2.72,2.72,0,0,1-2.57,0,1.35,1.35,0,0,1-.64-1.71c-.21,0-.64-.22-.85,0a40.7,40.7,0,0,0-3,3c-.21.22,0,.64,0,.86h2.78c1.28,1.29,1.28,1.29,1.06,2.36,0,1.28-.43,1.5-1.72,1.7a2.5,2.5,0,0,1-2.35-1.08c0-.86,0-1.92,0-2.78-.43,0-.86.21-1.07,0a19.52,19.52,0,0,0-2.13-1.93l-2.8,2.76a18.76,18.76,0,0,1,1.91,2.15c-.86,1.07-2.15,1.49-3.21.41A6.74,6.74,0,0,0,173.2,41c-.86,0-1.49-1.08-1.27-2.15a1.78,1.78,0,0,0-1.07-1.72l-5.57,0a.94.94,0,0,0-.86,1.28c0,.22.42.43.64.65l3.86,0c1.27,1.5,1.27,1.5.82,5.35-.43.85-1.07.85-1.28,0-.21-.64,0-1.28-.42-1.93-.21-.42-.85-1.28-1.06-1.28a1.42,1.42,0,0,0-.87,1.49C165.68,45,165.68,45,164,45l-2.78,0-.86-.86c-1.7-1.5-2.34-1.51-4.07-.23-.64.42-.86.85-1.5.63a1.75,1.75,0,0,1-.63-1.71c0-1.29-.42-1.72-1.71-1.94a2,2,0,0,0-2.36,1.27c-.22.64,0,1.29-.23,1.93,0,.21-.43.42-.64.85l-4.08,0A8,8,0,0,1,143.19,43c-1.72.64-.45,3.21-2.17,3.84h-1.93C137.38,46,138.9,43.6,137,43l-5,4.89c0,1.07,0,1.93,0,3a1.11,1.11,0,0,1,1.5.65c1.07-.21,1.07.43,1.06.86a1.43,1.43,0,0,1-.86,1.49c-.22,0-1.07-.65-1.07-1.08a11.76,11.76,0,0,1,0-2.78c-.43,0-.86.21-1.08,0A19.56,19.56,0,0,1,129.44,48l-6,0c-.21.21-.86.64-.65.64.43.43.64,1.07,1.07,1.07a14.19,14.19,0,0,0,3,0,1.44,1.44,0,0,1,1.5.86c-.23,1.5.62,3.21-.67,4.7-1.93-.65-2.77-2.36-4.27-3.65a19.87,19.87,0,0,1-2.15,1.91l-3,0c0,.86,0,1.93,0,2.78,0,.22-.21.43-.43.64s-.43.43-.64.21-.64-.43-.64-.64c-.63-2.15-.2-2.78,1.73-3.2.22-.86,0-1.5-.63-1.72-1.5-.43-3.22-.65-4.06-2.37h-2.79a1.77,1.77,0,0,0-1.72.63,2.29,2.29,0,0,0-.23,2.56c1.07,1.29,2.35,2.37,3.41,3.66-.43.42-.64,1.06-1.07,1.06a20.08,20.08,0,0,1-3.65,0c-.85-.65-1.27-1.93-2.35-1.72-1.28.42-.65,1.7-.65,2.56.64.64,1.28,1.5,1.91,2.15l-2.8,2.76a3.9,3.9,0,0,1-1.06-1.5,13.64,13.64,0,0,1,0-3c0-.43-.64-.86-1.07-1.51l-2.8,2.77a5.74,5.74,0,0,1-.22,1.92,18.59,18.59,0,0,0-1.94,2.13,4.07,4.07,0,0,0,.63,1.93c.21.64-.43.42-.64,0-.43-.85,0-1.28.86-.85a2.14,2.14,0,0,1,.85,1.08s-.43.64-1.07-.22c-.85-.86-1.28-.65-1.5-.86l-1.91-1.94c-.65.64-1.51,1.28-1.94,1.7a19.3,19.3,0,0,1-2.14-1.72c-1.5,1.49-.44,3.2-.88,4.91A32.27,32.27,0,0,1,86,70.26c-1.28-.43-1.91-2.57-4.06-1.73L80,70.44a20.6,20.6,0,0,0-2.13-1.93c-.86,0-2.15-.44-2.58.84-.22.85.85,1.29,1.49,2.15-.44,1.92-3,.41-3.87,2.11,0,.65,0,1.29,0,2.36,1.28,1.07,2.77,2.15,3.84,3.22a7.4,7.4,0,0,1-.23,2.36,14.84,14.84,0,0,0-1.73,2.13l2.78,2.79c.21.21.64,0,.85,0A1.1,1.1,0,0,1,79.09,85c.43-.21,1.08-.21,1.72-.42a1.45,1.45,0,0,1,1.5.87c0,.21-.65,1.06-1.08,1.06a11.84,11.84,0,0,1-2.79,0,1.57,1.57,0,0,1-1.29,1.92,10.61,10.61,0,0,1-2.58,0c0,.85,0,1.92,0,2.78,0,.21-.22.42-.43.64s-.43.42-.65.21-.64-.43-.64-.65c-.63-2.14-.2-2.78,1.74-3.2,0-.42.21-.85,0-1.06a33.42,33.42,0,0,0-2.77-2.8c-.43.43-1.07.64-1.08,1.06a13.6,13.6,0,0,0,0,3,1.43,1.43,0,0,1-.87,1.49c-.64-.64-1.49-1.29-2.13-1.94-1.51,1.28-.66,3.85-2.81,4.69.64.65,1.28,1.51,1.92,2.15l0,3.85c-.64.64-1.29,1.49-1.94,2.13,0,3,0,6,0,9,0,.64-.23,1.5-.87,1.49-.21,0-1.07-.64-1.06-1.07-.21-.86,0-1.93-1.06-2.57a36,36,0,0,0-2.59,3,7.3,7.3,0,0,1,1.49,1.93c-.65,1.92-3,.41-3.87,2.12,0,1.28,0,2.56,0,4.06-1.08.85-1.08.85-3-.87l-2.58,2.55c-.87,2.35,0,4.49-.47,6.41l1.92,1.94c0,2.35.19,4.92,0,7.48,0,1.07-1.08,1.49-2.15,1.27a1.33,1.33,0,0,0-.86.21l-1.5,1.49a6.83,6.83,0,0,1-1.72.42c-1.29,0-2.57-.44-3.65,1,0,.64,0,1.28,0,1.92,1.28,1.51,2.77,2.37,3.62,4.3-.65,1.07-1.72.63-2.79.84-.86.85-1.72,1.92-2.8,3,0,1.07,0,2.35,0,3.63-.65.86-1.3,1.49-1.94,2.35a18.62,18.62,0,0,1,1.91,2.14c0,.86,0,1.93,0,3h2.78c.22,0,.43.22.65.43s.42.43.21.65-.44.64-.65.64c-2.15.63-2.79.19-3.21-1.73H38.61a1.35,1.35,0,0,0-1.72.63c-.22.43.21.86.85,1.5l.64.65a5.45,5.45,0,0,1-2.59,2.76,12.63,12.63,0,0,1-3.44,1.27,14.54,14.54,0,0,1,1.92,2.15,15.24,15.24,0,0,0-1.72,2.12l3.62,3.66c-.22,1.07-1.08,1.28-1.94,1.27a2,2,0,0,0-1.72.85,5.74,5.74,0,0,1-.22,1.92c1.28,1.29,2.56,2.79,3.84,4.08-.65,1.07-1.72.85-2.58,1.06A1.92,1.92,0,0,0,32.26,187a47.08,47.08,0,0,0,0,5.56c2.55,2.58,2.55,2.58,1,4.92-.86.21-2.14-.44-2.57.63-.22.85,1.28,1.29,1.27,2.14a11.62,11.62,0,0,1-.25,6.63c-1.08.85-2.57.41-3.86.41a1.41,1.41,0,0,0-1.5.85c0,.21.85.86,1.28,1.07.64.22,1.28.22,1.92.44.22,0,.43.43.64.64,0,1.07,0,1.93,0,3a1.56,1.56,0,0,1,1.92,1.29,18.43,18.43,0,0,0,.62,3.64c.21.64-.43.42-.64,0-.42-.86,0-1.29.86-.85a2.07,2.07,0,0,1,.85,1.07s-.43.64-1.07-.22a18.87,18.87,0,0,0-6.64-.89c0,.85,0,1.92,0,3.21,1.28,1.07,2.77,2.15,3.62,2.8a19.8,19.8,0,0,0,.84,3.42c.21.64.86.86,1.93.65H32a1.32,1.32,0,0,1,.44-1.49c.43-.43.86-.43,1.28.43,0,.21-.22.43-.22.64a2.28,2.28,0,0,1-1.07.64,2.42,2.42,0,0,1-1.08,1.7c-1.08.64-2.57,0-3.23,1.48,0,1.28,0,2.57,0,3.85.64.65,1.28,1.5,1.92,2.15,0,.64,0,1.28,0,1.92.85,1.29,2.35.87,3.64.88,1.07,0,1.71.22,2.14,1.08-.22.21-.44.64-.65.64a23.78,23.78,0,0,1-3.86.19c-.86,0-1.29,1.06-1.3,2.13a2,2,0,0,0,.85,1.72c.65-.64,1.29-1.07,1.94-1.7a6,6,0,0,1,1.07,1.28,47,47,0,0,1,0,5.35l-3,3-3,0c-.22,1.5-.65,1.92-1.51,1.92-1.29.21-2.57,0-3.86.41-.64.21-.86.85-.65,1.7l6.86,0a1,1,0,0,1,.85,1.29,1,1,0,0,1-.65.64H26.94c-.43.42-1.08,1.06-1.08,1.49,0,1.49-.66,3.2.83,4.49a18.9,18.9,0,0,1,2.16-1.91h1.93c1.5-.64.87-2.35,1.51-3.2a1.36,1.36,0,0,1,1.72-.63c0-.86,0-1.93,0-2.78,0-.22.21-.43.43-.64s.43-.43.64-.21.64.43.64.64c.63,2.14.2,2.78-1.73,3.2,0,.43-.22.86,0,1.07a31.79,31.79,0,0,0,2.77,2.79c.64,0,1.28.22,1.92.23a18.9,18.9,0,0,1,2.16-1.91c1.28.86,1.27,1.93.62,3.21-.21.64-1.07.85-1.29,1.49-.43.64-.44,2.13.2,2.56a1.67,1.67,0,0,0,1.71.44,2.19,2.19,0,0,0,.65-.21,12.68,12.68,0,0,1,2.36-1.7c1.08-.63,2.36.44,2.56,1.94a1.45,1.45,0,0,1,1.72.65c.42.64-.22,1.07-1.73,1.27,0,1.07,0,1.93,0,3a3.83,3.83,0,0,0,1.49,1.08c1.29.22,2.58-.21,3.43.23,1.07,1.07,2.13,1.93,3,2.79,0,1.07,0,2.14,0,3a1.45,1.45,0,0,0,1.72-.64c.65-1.06-.2-2.56,1.73-3.19h1.5a6.32,6.32,0,0,1,1.06,1.51c.21,1.92.2,3.85.4,5.77,0,.22.43.43.64.65a19.79,19.79,0,0,1,2.15-1.92c.22-.21.65,0,.86,0a1.1,1.1,0,0,1,.65-1.49,17.44,17.44,0,0,1,1.72-.42,1.43,1.43,0,0,1,1.49.86c0,.22-.64,1.07-1.07,1.06a12.4,12.4,0,0,1-2.79,0c0,.64,0,1.28,0,1.92a1.43,1.43,0,0,0,.64,1.72c.42.21.85,0,1.28-.64s.87-.85,1.29-.63a1.34,1.34,0,0,1,.64,1.71c0,.64,0,1.29,0,1.93,1.5.22,1.92.65,1.92,1.5.21,1.29,0,2.57.41,3.86.21.64.85.86,1.71.65,0-1.07,0-1.93,0-3.21.44-.43,1.3-1.06,1.94-1.7.22-.21,0-.64,0-1.28V290a1.33,1.33,0,0,1-1.5-.43c-.43-.43-.43-.86.43-1.28.22,0,.43.21.65.21a2.33,2.33,0,0,1,.63,1.08,7.45,7.45,0,0,0,3,.44c1.07,1.08,2.56,1.94,3.2,3.87-.22,1.06-.23,2.35-.45,3.41-.22.65-.86.86-1.72.64,0,1.07,0,1.92,0,3,.86.86,1.92,1.72,3,2.8a12.33,12.33,0,0,0,6.22-.18c.64-.21.86-.85.65-1.71l-3,0a34.57,34.57,0,0,0-2.77-2.79c.65-1.49,1.72-1.27,3.22-.84.42,1.5,2.77,1.73,2.55,3.65l3,0c.21.21.64.43.64.64.21.64.21,1.28.42,1.93.42.43.63,1.07,1.06,1.5,1.07,1.29,2.35,2.36,3.41,3.44,1.07.22,1.29-.85,2.15-1.27,1.71.22,3.65-1.48,4.93.88-.65.64-1.08,1.28-1.73,1.91.43.44.64.86.85.87l7.93,0c1.71.86.41,3.21,2.13,3.86a8.16,8.16,0,0,1,2.15-1.7l2.77,2.79c0,.64,0,1.29,0,1.93,2.35,1.51,2.35,1.51,4.93-.83a8.39,8.39,0,0,0,2.14,1.72c.86-.42,1.08-1.28,1.08-2.35,0-.42.65-1.06,1.08-1.49l2.77,2.8a11.19,11.19,0,0,0,.2,2.35c.86.65,1.93,1.51,3.42,2.8-.22,0,.21-.43.43-1.07.22-.85-.41-1.93.87-2.56a6.79,6.79,0,0,1,2.56,2.37,12.43,12.43,0,0,1,1.27,3.43c1.72-1.28,2.59-3,4.31-3.83,1.07.65.63,1.71.84,2.57a1,1,0,0,0,.64.64c.43.22,1.07,0,1.29-.84a23.57,23.57,0,0,0,0-3.85c1.3-1.71,3-.84,4.72-.83.43,0,.85.64,1.07,1.07-.43.43-1.08.85-1.3,1.49a5.12,5.12,0,0,0-.43,1.71,1.26,1.26,0,0,0,.2.86c1.5.86,1.28,2.78,2.13,4.07a5.47,5.47,0,0,0,2.56,2.37c1.07-.64.86-1.71.87-2.57-.64-.64-1.28-1.5-1.92-2.14,1.3-2.14,3.86,0,5.36-1.26,1.73-1.49-.62-4.06,1.53-5.34,1.28,1.29,2.78,2.58,4.05,3.88h1.93c1.71.65,0,3.2,2.13,3.86l2.8-2.77c.21-.21,0-.64,0-1.5,0-.21,0,.43,0,.43a1.33,1.33,0,0,1-1.5-.43c-.42-.43-.42-.86.44-1.28.21,0,.43.21.64.21a2.33,2.33,0,0,1,.64,1.07c.64.65,1.28.44,1.5-.2.43-1.07.65-2.14,1.09-3.42.85.86,1.49,1.29,2.35,2.16a18.71,18.71,0,0,0,3.43,0,1.91,1.91,0,0,0,1.51-2.34v.43a1.33,1.33,0,0,1-1.5-.44c-.43-.43-.43-.86.43-1.28.22,0,.43.22.64.22a2.2,2.2,0,0,1,.64,1.07c.43.43.86.22,1.07.43,1.49,1.29,2.77,2.8,4.05,3.87,2.58-.2,2.58-.2,3-1.69v-1.07a2.36,2.36,0,0,1,3.22-1.05c.64.43.85.86,1.7,1.5a51.58,51.58,0,0,0,8.15.05c1.07-.64,1.08-1.07.22-1.5-.64-.21-1.28-.22-1.71-.43a3.94,3.94,0,0,1-1.5-1.08l5-4.89a1.59,1.59,0,0,1,.85,2.14c1.49,1.72,2.34,2.79,3.19,3.65,1.72-1.27.67-4.06,3-4.9a7.84,7.84,0,0,1,.22-2.14,31.63,31.63,0,0,0,2.59-2.76c1.29,0,1.29,0,1.28,1.71,0,.64,0,1.29,0,1.93l7.93,0c0-1.07,0-1.92,0-3,0-.22.43-.43.65-.64h.64c1.28,1.08,2.35,2.37,3.41,3.44a3.83,3.83,0,0,0,1.08-1.49,2.26,2.26,0,0,0-.2-1.71c-1.07-1.29-2.35-2.37-3.41-3.44a5.48,5.48,0,0,1,1.29-1.06,3,3,0,0,1,1.93.22c.64.22.85,1.07,1.49,1.29a2.28,2.28,0,0,0,2.57,0l1.51-1.49a20.1,20.1,0,0,0,2.13,1.72h1.72c1.5-.64.87-2.14,1.51-3.2a1.36,1.36,0,0,1,1.72-.63c0-.65,0-1.29,0-1.93,0-1.49.66-2.13,2.16-2.13l1.93,0c0-1.07,0-1.93,0-3,0-.21.43-.42.65-.64h.64a47.9,47.9,0,0,1,3.41,3.44c1.08-.43,1.08-1.28,1.09-2.35,0-.64.65-1.07.86-1.49a19.52,19.52,0,0,0,2.13,1.93c1.51-1.27,2.59-3,4.31-3.82a6.07,6.07,0,0,1,1.93.44c.64.21.85.86.63,1.71a13,13,0,0,0,2.79,0c.64-.22,1.07-.86.86-1.28a8.15,8.15,0,0,1-1.28-1.29c-1.06-1.51-.19-3,1.73-3.2a1.35,1.35,0,0,1,.66-1.71,1.3,1.3,0,0,1,.86-.21l3.21,0c2.37-1.49,4.09-4,6.46-5.95h2.79c0-1.71,0-3.21,0-4.92l2.81-2.76c2.14.44.19,3.21,2.33,3.64.65-.85,1.51-1.7,2.59-3,0-1.5,0-3.43,0-5.14.86-1.7,2.15-2.34,3-3.62,1.7,1.72.62,3.43,1,5.14.64.22,1.5.65,2.14.87a9.39,9.39,0,0,0,3.66-3.4c0-1.07.23-2.14-.84-2.57-.64-.22-1.29,0-1.93-.23-.86-.22-1.07-.86-.85-1.29l.65-.63a17.65,17.65,0,0,0,1.94-1.92l4.07,0,3.62,3.66c1.93.22,3.85,1.3,5.37-.83v-1.71a20.63,20.63,0,0,1,1.94-2.13,1.57,1.57,0,0,0-1.71-.86c-1.92-.23-2.35-.87-2.13-2.36,0-.65.65-1.07.87-1.5h1.93c.64.65,1.49,1.29,2.13,1.94l4.07,0,2.8-2.76c-.64-.65-1.27-1.51-1.91-2.15,0-.64,0-1.29,0-1.93.43-.85,1.07-1.06,1.5-.42,1.06,1.08,2.34,2.37,3.41,3.44.65-.64,1.51-1.27,2.15-1.91,1.07,0,2.15-.2,2.78.87-1.29,1.28-2.58,2.77-3.87,4,.21.22.42.65.63.65,2.58.22,5.15.24,7.72.25.64,0,1.07-.63,1.3-2.13v-.64c1.72-1.92-1.91-4.07,4.74-5.11,1.07,0-.41-3.07-1.71-3.08-.64.64-3.36.22-4.12,1-1.94.63-.79-2-2.72-1.82-1.5,0-3-1.73-4.48-1.31-.64.64-1.28-3.65-1.71-3.23-.22,0-.09-4-.31-4-9,0,3.87-4.1-5.35-4.15-.64-.43,5.73-5.1,4.88-6l-5.79,0a34.82,34.82,0,0,1-2.77-2.79c.22-1.71,2.15-2.13,2.59-3.41l4.29,0a11.3,11.3,0,0,1,.87-2.57,19,19,0,0,1-2.13-2.36c0-1.28,0-2.57,0-4.06.86-.85,1.93-1.7,3-2.77a13.63,13.63,0,0,1,1.92,1.73c1.73-1.92,1.73-2.13-.62-4.5.23-1.49,2.59-2.12,1.74-4,1.29-1.28,2.59-2.77,4.09-4,0-.65,0-1.29,0-2.14-.85-.22-1.71-.65-2.56-.87a20.69,20.69,0,0,0-2.37,2.13l-1.92-1.94c-.64-.64-.85-.86-.63-1.5a1.75,1.75,0,0,1,1.71-.63c1.5.22,1.72-.21,1.73-1.7,0-.65,0-1.29.65-1.71a.79.79,0,0,1,.64-.21c.86.86,1.71,2.15,3.42,1.73a23.18,23.18,0,0,0,5.17-5.11c-.21-.64-.2-1.28-.41-1.92s-.86-.86-1.72-.65a1.09,1.09,0,0,1-.65,1.49c-.43.21-1.07.21-1.71.42a1.44,1.44,0,0,1-1.5-.87c0-.21.65-1.06,1.08-1.06a11.75,11.75,0,0,1,2.78,0,1.11,1.11,0,0,1,.66-1.5c1.07-.42,2.14-.63,3.43-1.05-1.27-2.57-3.64-.45-5.14-1.52l-1.91-1.94c-1.3,1.06-2.15,1.06-4.08,1.69-.65.21-.43-.43,0-.64.86-.42,1.28,0,.85.86a2.14,2.14,0,0,1-1.08.85C327.19,181.68,326.76,181.25,327.63,180.61ZM80.85,76.65l0,5.77c0,.22-.43.43-.64.64-.43.21-.86,0-1.29-.65l0-5.77c0-.21.43-.42.65-.64C80,75.58,80.43,76,80.85,76.65Zm195.73-9.86c-1.28-1.29-1.49-2.57,0-4.06,1.07.22,2.58-.63,2.78,1.3A33.35,33.35,0,0,0,276.58,66.79ZM136.72,49.15c1.3-1.49,2.58-1.48,4.07,0C139.29,50.66,138,50.65,136.72,49.15Zm15.44-1.63c-.21.21-.43.64-.64.64h-1.93c-.22,0-.43-.43-.64-.65a.4.4,0,0,1,0-.64c.44-1.06,2.58-1,3.22,0C152.38,47.1,152.16,47.31,152.16,47.52Zm45.72,268.4c1.49,1.29,1.49,2.57,0,4.06C196.37,318.48,196.37,317.2,197.88,315.92ZM305.17,90.68h-.85l-.64-.64c-.22-.43,0-.86.65-1.28.21-.21.64,0,.85,0a1.44,1.44,0,0,1,1.71.65C307.11,90.05,306.46,90.69,305.17,90.68ZM40.49,169.24c.22.43,0,.86-.65,1.28l-.63-.64c-.22-.43,0-.86.64-1.28C39.86,168.38,40.28,168.81,40.49,169.24Zm4.44,92.62c.43-.21.86,0,1.28.65l-.64.63c-.43.22-.86,0-1.29-.65Zm3-117.17-.64-.65c-.21-.42,0-.85.65-1.28l.64.65C48.77,143.84,48.56,144.26,47.91,144.69ZM72.6,96.07c.22.42,0,.85-.65,1.28l-.63-.65c-.22-.43,0-.85.65-1.28Zm99.72-50.79.65-.64c.43-.21.85,0,1.28.65l-.65.64C173.39,46.35,173,46.14,172.32,45.28Zm.26,273.07c.21.43,0,.86-.65,1.28l-.64-.65c-.21-.42,0-.85.65-1.27C172.15,317.71,172.37,318.14,172.58,318.35ZM207.94,38l-.65.64c-.64-.43-.85-.86-.64-1.29l.65-.63C207.94,37.13,208.15,37.56,207.94,38Zm23.74,8-.64.64c-.64-.43-.86-.86-.64-1.29l.65-.63C231.69,45.17,231.9,45.6,231.68,46Zm18.41,5.45.64-.64c.64.43.86.86.64,1.28l-.65.64C250.08,52.32,249.87,51.89,250.09,51.47Zm17,231.46c.43-.21.86,0,1.28.65l-.65.64c-.43.21-.85,0-1.28-.65ZM270,62.05c-.21-.43,0-.86.65-1.28l.64.65c.21.42,0,.85-.65,1.28Z"/><path class="cls-1" d="M343,188.39c-.85-.86-1.3-.65-1.51-.43l-2.81,2.76c.22.43.64,1.07.86,1.07a48.45,48.45,0,0,0,5.78,0c1.73-1.7.88-3.41.67-5.34-1.06-1.29-2.35-.44-3.63-.66A4.77,4.77,0,0,0,343,188.39Z"/><path class="cls-1" d="M318.18,263.1c0,1.07,0,1.93,0,3-.65.63-1.3,1.49-1.94,2.12a2.9,2.9,0,0,0,1.7,1.08c2.36.44,2.36.44,2.35,2.15,0,.86,0,1.93,0,2.78l.85.86c.21,0,.64-.21.64-.42.87-2.13.46-4.28.25-6.63-1.49-.86-1.7-2.57-2.12-4.07A1.28,1.28,0,0,0,318.18,263.1Z"/><path class="cls-1" d="M23.19,279.28c-1.72.84-.23,3.2-2.16,3.83H19.1a1,1,0,0,0-.65.64c-.22.43,0,1.07.85,1.29a26.17,26.17,0,0,0,4.07,0c.43.65,1.07,1.29,1.71,2.15,1.72-1.28.87-3,1.09-4.49C25.75,281.21,24.25,280.57,23.19,279.28Z"/><path class="cls-1" d="M22.44,259.6c0,.21,0,.64,0,.85,0,2.57,0,2.57-2.37,3A2,2,0,0,0,18.33,266a5.54,5.54,0,0,0,1.07,1.29l2.78,0c-.2-1.5,1.51-1.92,1.95-3.63a12.26,12.26,0,0,0,0-2.78C24.15,260,23.51,259.18,22.44,259.6Z"/><path class="cls-1" d="M338.8,255.3a1.06,1.06,0,0,0-.65,1.07,4,4,0,0,1-1.52,3.41.66.66,0,0,0-.21.43c.85,1.07,1.7,1.93,2.55,3l3-3a7.77,7.77,0,0,1,.22-2.14A17.86,17.86,0,0,1,338.8,255.3Z"/><path class="cls-1" d="M257.86,40.82c-1.07-.22-1.72.41-1.94,1.48a18.68,18.68,0,0,0,0,3.42,15.07,15.07,0,0,1,1.92,2.15c0,1.07,0,1.93,0,2.78h1.93c0-1.71,0-3.21,0-4.92-.64-.64-1.28-1.5-1.92-2.14C257.85,42.74,257.85,41.88,257.86,40.82Z"/><path class="cls-1" d="M261.38,304.28l2.8-2.76c0-.64,0-1.28,0-1.93-.64-.64-1.7-1.29-1.91-2.14s-.21-1.29-1.07-.87c-.22.22-.65.43-.65.64a13.89,13.89,0,0,0,0,6.63A1.64,1.64,0,0,1,261.38,304.28Z"/><path class="cls-1" d="M34.94,287.25a14.28,14.28,0,0,1-1.73,1.92c-.65.63-.86.85-.65,1.28a1.35,1.35,0,0,0,1.71.65h1.07a13.58,13.58,0,0,0,1.73-1.91h2.14c.22,0,.43-.43.65-.64a1,1,0,0,0-.64-1.29Z"/><path class="cls-1" d="M280.36,282.57c0,1.07,0,1.93,0,3-.64.63-1.29,1.49-1.94,2.13,0,1.07-.22,2.13,1.06,2.78l2.58-2.55a6,6,0,0,0,0-4.71A1.35,1.35,0,0,0,280.36,282.57Z"/><path class="cls-1" d="M287.58,54.87c0,1.71,0,3.21,0,4.92,2.13,1.51,2.13,1.51,3.86,0-.64-.64-1.07-1.29-1.71-1.93.43-.43.43-.64.86-.85.65-.43,1.08-.85.87-1.49a1.34,1.34,0,0,0-1.71-.65A7.2,7.2,0,0,1,287.58,54.87Z"/><path class="cls-1" d="M116.81,46.05c0,.86,0,1.92,0,2.78a2,2,0,0,0,2.35,1.08c1.29-.21,1.72-.42,1.73-1.7,0-.86,0-.86-1.06-2.36A15.4,15.4,0,0,1,116.81,46.05Z"/><path class="cls-1" d="M118.26,335.38c-1.51,1.92-1.51,1.92,0,4.07h1.93c1.51-1.91,1.51-1.91,0-4.06Z"/><path class="cls-1" d="M139.61,29.92c-.43,1.07-.87,1.92-1.08,2.56.63,1.93,2.13,2.58,3.19,4.08.43-1.07.87-1.92,1.08-2.56C142.17,32.29,140.67,31.64,139.61,29.92Z"/><path class="cls-1" d="M162.49,39.24l-2.77-2.8c-.64.64-1.29,1.71-2.15,1.7-.86.21-1.29.21-.86,1.07.21.21.42.64.64.64a8.84,8.84,0,0,0,4.71,0A3.2,3.2,0,0,1,162.49,39.24Z"/><path class="cls-1" d="M106.79,326.27c0,1.29,0,2.57,0,3.85,0,.43.85.65,1.07.86l2.8-2.76a33.37,33.37,0,0,0-2.77-2.58C107.65,325.42,107.22,325.64,106.79,326.27Z"/><path class="cls-1" d="M226.17,35.3c.63,1.5,2.13,2.15,2.77,3.44,1.5-.85,1.08-1.92,1.08-2.78a18,18,0,0,1-1.91-2.15c-1.07-1.28-1.28-1.29-1.72-.22A4.23,4.23,0,0,0,226.17,35.3Z"/><path class="cls-1" d="M228.11,32.74l2.79,0A2,2,0,0,0,232,30.41c-.21-1.28-.42-1.71-1.7-1.72-.86,0-.86,0-2.37,1.06A14.6,14.6,0,0,1,228.11,32.74Z"/><path class="cls-1" d="M300.36,270.06c0,.64,0,1.29,0,1.93a18.59,18.59,0,0,0-1.94,2.13c2.13,1.29,2.13,1.29,3.86-.2,0-1.28,0-2.56,0-3.85,0-.21-.43-.43-.64-.64C301.22,269,300.58,269.21,300.36,270.06Z"/><path class="cls-1" d="M325.5,217.59l5.79,0c.21,0,.43-.43.64-.64.22-.43,0-.86-.85-1.29l-5.79,0c-.21,0-.43.42-.64.64C324.43,216.73,324.86,217.16,325.5,217.59Z"/><path class="cls-1" d="M350.37,135.18c-1.06-1.28-2.13-1.5-3.42-.66a15.87,15.87,0,0,0-2.8,2.56c1.06,1.29,2.13,1.5,3.42.66A15.49,15.49,0,0,0,350.37,135.18Z"/><path class="cls-1" d="M18.1,109c1.5-1.27,1.51-2.56,0-4.06-.65.64-1.29,1.49-1.94,2.13s-.86.85-.65,1.28a1.35,1.35,0,0,0,1.71.65C17.46,108.82,17.88,109,18.1,109Z"/><path class="cls-1" d="M20.38,243.55a12.91,12.91,0,0,0,0-2.78c0-.43-.64-.64-1.07-1.07l-2.59,2.55c.43.43.64,1.07,1.07,1.07A5.14,5.14,0,0,0,20.38,243.55Z"/><path class="cls-1" d="M19.49,249.53c-1.51,1.28-1.51,2.56,0,4.07.65-.64,1.29-1.49,1.94-2.13s.86-.85.65-1.28a1.34,1.34,0,0,0-1.71-.65Z"/><path class="cls-1" d="M26.52,217.92a12.3,12.3,0,0,0,0-2.78c0-.43-.64-.64-1.06-1.07l-2.59,2.55c.43.43.64,1.07,1.07,1.08A5.25,5.25,0,0,0,26.52,217.92Z"/><path class="cls-1" d="M30.82,175.39l-2.77-2.79c-1.93.2-1.08,1.7-1.3,2.77C28.24,176.87,29.52,176.67,30.82,175.39Z"/><path class="cls-1" d="M60,89.37c-1.3,1.92-1.3,1.92,0,3.85,1.08-.21,2.57.65,2.8-1.27A31.85,31.85,0,0,1,60,89.37Z"/><path class="cls-1" d="M73.9,295.37a1.47,1.47,0,0,0,1.27,1.93,32.18,32.18,0,0,0,4.5,0,1.48,1.48,0,0,0-1.27-1.94Z"/><path class="cls-1" d="M105,52l-4.72,0c-.43,0-.64.64-1.07,1.06,0,0,.42.65.64.65a8.13,8.13,0,0,0,4.5-.19C105,53.26,105,52.62,105,52Z"/><path class="cls-1" d="M147,340.45c1.27,1.51,2.56,1.3,4.07,0-.64-.65-1.5-1.3-2.13-1.94-.43-.65-.86-.86-1.29-.65a1.35,1.35,0,0,0-.65,1.71C147.17,339.81,147,340,147,340.45Z"/><path class="cls-1" d="M156.5,38.35a12.31,12.31,0,0,0,0-2.78c0-.43-.64-.65-1.06-1.08l-2.59,2.56c.43.43.64,1.07,1.07,1.07A5.25,5.25,0,0,0,156.5,38.35Z"/><path class="cls-1" d="M168.54,31.36l2.77,2.79c1.93-.2,1.08-1.7,1.3-2.77A2.79,2.79,0,0,0,168.54,31.36Z"/><path class="cls-1" d="M183.9,325.68c-1.08.21-2.14-.44-2.58.63s.85,1.29,1.28,1.93l.64.65.64.64A2.4,2.4,0,0,0,183.9,325.68Z"/><path class="cls-1" d="M244.35,41.17c-2.78-.23-4.7-1.31-6.43.61.85,1.29,2.14.86,3.43,1.09A3.24,3.24,0,0,0,244.35,41.17Z"/><path class="cls-1" d="M251.93,28c-1.92-1.29-1.92-1.29-3.86,0,.21,1.07-.66,2.57,1.27,2.79C250.2,29.87,251.07,28.8,251.93,28Z"/><path class="cls-1" d="M278.62,46.91c1.5-1.27,1.3-2.56,0-4.06-.65.64-1.3,1.49-1.94,2.13-.65.42-.86.85-.65,1.28a1.35,1.35,0,0,0,1.71.65Z"/><path class="cls-1" d="M279.62,58.89c0-.21-.21-.64,0-.85l1.94-1.92c-.43-.43-.64-.85-1.07-1.07a12.26,12.26,0,0,0-2.79,0c0,1.29,0,2.57,0,4.07A5.44,5.44,0,0,1,279.62,58.89Z"/><path class="cls-1" d="M284.56,56.78c1.08-.63,1.3-2.13,3-1.91,0-.21.21-.64,0-.85a2.36,2.36,0,0,0-3.21-.87c-.64.21-1.08,1.49-.87,2.34A5.74,5.74,0,0,0,284.56,56.78Z"/><path class="cls-1" d="M298.45,64.77c-1.5,1.27-1.51,2.56,0,4.06.65-.64,1.3-1.49,1.94-2.13s.86-.85.65-1.28a1.35,1.35,0,0,0-1.71-.65C299.09,65,298.67,64.77,298.45,64.77Z"/><path class="cls-1" d="M303.31,78.69a1.44,1.44,0,0,0,1.72-.63,8,8,0,0,0,.23-4.49c0-.21-.64-.64-.64-.64-.43.21-1.07.63-1.07,1.06A17.7,17.7,0,0,0,303.31,78.69Z"/><path class="cls-1" d="M316.2,73c1.5-1.28,1.51-2.56,0-4.06-.65.63-1.3,1.49-1.94,2.12s-.86.85-.65,1.28a1.34,1.34,0,0,0,1.71.65C315.55,72.77,315.77,73,316.2,73Z"/><path class="cls-1" d="M314.1,265a1.45,1.45,0,0,0,1.72-.64c.64-.64,1.08-1.7,2.36-1.27-.2-1.5-.63-1.93-1.49-1.93-1.5-.22-2.36.41-2.36,1.91A5.77,5.77,0,0,0,314.1,265Z"/><path class="cls-1" d="M330.68,129.31c1.28,1.5,2.57,1.51,4.08,0-.64-.65-1.5-1.29-2.14-1.94s-.85-.86-1.28-.65a1.35,1.35,0,0,0-.65,1.71C330.9,128.67,330.69,129.09,330.68,129.31Z"/><path class="cls-1" d="M334.33,209.73c0-.86,0-1.93,0-2.78-1.49-1.72-1.7-1.51-3.64-.45C332.62,208.86,332.62,209.08,334.33,209.73Z"/><path class="cls-1" d="M336.24,213.59c1.5-.21,1.93-.63,1.93-1.49.23-1.71-.41-2.35-1.91-2.36h-1.93c-.22,1.28.63,1.71,1.27,2.36C336.24,212.52,336.45,213,336.24,213.59Z"/><path class="cls-1" d="M333,234.86c-.63-1.71-.63-1.71-3.19-3.65-1.08,1.92-1.08,2.13.41,3.64Z"/><path class="cls-1" d="M335.81,233c-1.07.64-1.3,2.13-3,1.91,0,.21-.22.64,0,.85a2.36,2.36,0,0,0,3.21.88c.64-.21,1.07-1.49.87-2.35C336.66,233.6,336.24,233.38,335.81,233Z"/><path class="cls-1" d="M347.4,227.63l.64.64c.43.22.86,0,1.29-.85,0-1.28,0-2.56,0-3.85l-.64-.64c-.43-.22-.86,0-1.29.85C347.41,225.06,347.41,226.34,347.4,227.63Z"/><path class="cls-1" d="M360.26,229.74c.42.65.85,1.08,1.28.65l.65-.64c0-1.28,0-1.56,0-2.85-.43-.64-.85-.86-1.28-.64l-.65.64C360.27,228.18,360.27,228.46,360.26,229.74Z"/><path class="cls-1" d="M22.8,191.17c-1.27-1.5-2.56-1.51-4.07,0C20,192.65,21.51,192.66,22.8,191.17Z"/><path class="cls-1" d="M22.44,259.6c0-.64,0-1.28,0-1.93a14.33,14.33,0,0,0-3,0c-.86.21-1.08.85-.65,1.28.21.21.42.64.64.64Z"/><path class="cls-1" d="M28.47,253.64a12.3,12.3,0,0,0,0-2.78c0-.42-.86-1.07-1.07-1.07a1.45,1.45,0,0,0-.87,1.49A5.1,5.1,0,0,0,27,253C27,253.64,27.61,253.85,28.47,253.64Z"/><path class="cls-1" d="M46.11,281.32a1.43,1.43,0,0,0,1.72-.63c.43-.64-.42-1.29-1.71-1.29h-.86c-.21.22-.43.43-.64.64q-.33.64.63,1.29C45.47,281.53,45.9,281.32,46.11,281.32Z"/><path class="cls-1" d="M51.47,281.14c1.07-.42,1.09-2.56,0-3.21a.4.4,0,0,0-.65,0c-1.07.42-1.08,2.56,0,3.2Z"/><path class="cls-1" d="M61,101.35c0-1.28-.63-2.14-1.27-1.72a1.35,1.35,0,0,0-.66,1.71v.85c.42.65.85,1.08,1.28.65.22-.21.65-.42.65-.63Z"/><path class="cls-1" d="M72.79,301.35c-1.5,1.28-1.51,2.56,0,4.07C74.28,303.93,74.29,302.64,72.79,301.35Z"/><path class="cls-1" d="M80.93,61.68a1.44,1.44,0,0,0,.64,1.72c.85.43,1.5-.42,1.51-1.71v-.85l-.64-.65c-.43-.21-.86,0-1.29.64A1.3,1.3,0,0,0,80.93,61.68Z"/><path class="cls-1" d="M87,50a12.4,12.4,0,0,0-2.79,0c-.43,0-1.08.85-1.08,1.06a1.46,1.46,0,0,0,1.5.87,5.22,5.22,0,0,0,1.72-.42A1.11,1.11,0,0,0,87,50Z"/><path class="cls-1" d="M89.42,37.35c.42,1.07,2.57,1.08,3.22,0a.4.4,0,0,0,0-.64c-.42-1.08-2.57-1.09-3.22,0Z"/><path class="cls-1" d="M94.88,57.91c1.29,0,2.15-.63,1.72-1.28A1.35,1.35,0,0,0,94.89,56H94c-.65.42-1.08.85-.65,1.28.21.21.42.64.64.64Z"/><path class="cls-1" d="M99,44c0-1.28-.63-2.14-1.28-1.72A1.35,1.35,0,0,0,97.1,44v.86c.42.64.85,1.07,1.28.64.21-.21.64-.42.65-.63Z"/><path class="cls-1" d="M116.81,46.05a12.31,12.31,0,0,0,0-2.78c0-.43-.85-1.07-1.06-1.07a1.42,1.42,0,0,0-.87,1.49,5.1,5.1,0,0,0,.42,1.71A1.11,1.11,0,0,0,116.81,46.05Z"/><path class="cls-1" d="M132.56,25.61c0-.22,0-.43,0-.65a2.15,2.15,0,0,0-3.22,0v.64c.21.21.42.64.64.64h1.93C132.13,26.24,132.35,25.82,132.56,25.61Z"/><path class="cls-1" d="M136.11,344.31c-1.51,1.28-1.51,2.56,0,4.06C137.38,346.88,137.39,345.6,136.11,344.31Z"/><path class="cls-1" d="M179.71,347.47c1.51-1.27,1.51-2.56,0-4.06C178.22,344.9,178.22,346.18,179.71,347.47Z"/><path class="cls-1" d="M192.31,34.69a1.42,1.42,0,0,0-.63-1.71,2.77,2.77,0,0,0-2.58,0,1.35,1.35,0,0,0-.65,1.71Z"/><path class="cls-1" d="M196.28,334.94v-.64a2.15,2.15,0,0,0-3.21,0c0,.22,0,.43,0,.65.22.21.43.64.64.64h1.93C195.85,335.58,196.06,335.16,196.28,334.94Z"/><path class="cls-1" d="M242.92,29c-1.51,1.28-1.51,2.56,0,4.07C244.41,31.55,244.41,30.27,242.92,29Z"/><path class="cls-1" d="M246.4,300.36a12.3,12.3,0,0,0,0,2.78c0,.42.85,1.07,1.06,1.07a1.43,1.43,0,0,0,.87-1.49,5.22,5.22,0,0,0-.42-1.72C247.69,300.36,247.26,300.15,246.4,300.36Z"/><path class="cls-1" d="M257.86,40.82a12.31,12.31,0,0,0,2.78,0c.43,0,1.08-.85,1.08-1.06a1.43,1.43,0,0,0-1.49-.87,5.1,5.1,0,0,0-1.72.42A1.11,1.11,0,0,0,257.86,40.82Z"/><path class="cls-1" d="M274.3,292.59c-.41-1.92-1.06-2.36-3.2-1.73-.22,0-.43.43-.65.64,0,.22.21.43.21.64.22.22.43.43.64.44Z"/><path class="cls-1" d="M274.29,294.52a11.75,11.75,0,0,0-2.78,0c-.43,0-1.08.85-1.08,1.07a1.44,1.44,0,0,0,1.5.86,5.1,5.1,0,0,0,1.71-.42A1.1,1.1,0,0,0,274.29,294.52Z"/><path class="cls-1" d="M277.5,54.82c-.42-1.93-1.06-2.36-3.2-1.73-.22,0-.43.43-.65.64,0,.21.21.43.21.64.21.22.43.43.64.43Z"/><path class="cls-1" d="M284.07,309.32c-1.27-1.5-2.56-1.51-4.07,0C281.49,310.81,282.78,310.81,284.07,309.32Z"/><path class="cls-1" d="M289.54,48.9a12.31,12.31,0,0,0,0-2.78c0-.43-.85-1.08-1.07-1.08a1.43,1.43,0,0,0-.86,1.49,5.16,5.16,0,0,0,.42,1.72C288.25,49.1,288.89,49.11,289.54,48.9Z"/><path class="cls-1" d="M296.17,291.64c1.28,1.5,2.56,1.51,4.07,0C298.75,290.16,297.46,290.15,296.17,291.64Z"/><path class="cls-1" d="M307.86,270.32v-.64a2.15,2.15,0,0,0-3.22,0v.64c.22.22.43.64.64.65h1.93C307.42,271,307.64,270.53,307.86,270.32Z"/><path class="cls-1" d="M314.1,265c-1.93.41-2.36,1.05-1.73,3.19,0,.22.43.43.64.65.21,0,.43-.21.64-.21.22-.22.43-.43.43-.64A13.64,13.64,0,0,0,314.1,265Z"/><path class="cls-1" d="M316.17,277.85c1.28,1.5,2.57,1.51,4.08,0C318.75,276.58,317.47,276.57,316.17,277.85Z"/><path class="cls-1" d="M334.36,203.74a1.44,1.44,0,0,0,1.72-.63c.43-.64-.42-1.29-1.71-1.29h-.86l-.64.64q-.33.65.63,1.29Z"/><path class="cls-1" d="M343.72,248.49a1.42,1.42,0,0,0,.64,1.71c.64.43,1.28-.42,1.29-1.7v-.86L345,247q-.64-.33-1.29.63C343.51,247.84,343.72,248.27,343.72,248.49Z"/><path class="cls-1" d="M334.91,240.64a12.31,12.31,0,0,0,0,2.78c0,.43.85,1.08,1.06,1.08a1.42,1.42,0,0,0,.87-1.49,5.16,5.16,0,0,0-.42-1.72A1.11,1.11,0,0,0,334.91,240.64Z"/><path class="cls-1" d="M349.8,220.16c.42,1.07,2.56,1.08,3.21,0a.4.4,0,0,0,0-.64c-.43-1.07-2.57-1.08-3.22,0C349.58,219.73,349.8,219.94,349.8,220.16Z"/><path class="cls-1" d="M354.24,245.55c1.51-1.28,1.51-2.56,0-4.07C352.75,243,352.75,244.26,354.24,245.55Z"/><path class="cls-1" d="M365.15,236.83c1.51-1.28,1.52-2.56,0-4.07C363.67,234.25,363.66,235.54,365.15,236.83Z"/><path class="cls-1" d="M221.18,328.45c-1.51,1.27-1.52,2.56,0,4.06C222.66,331.23,222.67,330,221.18,328.45Z"/><path class="cls-1" d="M352.67,161.06c-1.28-1.51-2.56-1.52-4.07,0C350.09,162.32,351.38,162.33,352.67,161.06Z"/><path class="cls-1" d="M359.8,189.37c0-1.28-.63-1.14-1.28-.71s-.86-.15-.65.7c0,.22,0,.65,0,.86.43.64.86,1.07,1.29.65.21-.22.64-.43.64-.64C360,190.23,359.8,189.8,359.8,189.37Z"/><path class="cls-1" d="M1.51,205.6c.43.22.86,0,1.29-.64l-.64-.64c-.43-.22-.86,0-1.29.64Z"/><path class="cls-1" d="M12.24,242.87c.22-.43,0-.86-.64-1.29l-.64.64c-.22.42,0,.85.63,1.28Z"/><path class="cls-1" d="M14.55,251.43c-1.5.21-1.72.42-1.94,1.92C14.11,253.35,14.11,253.14,14.55,251.43Z"/><path class="cls-1" d="M15.41,251.44c.21,0,.43-.22.65-.64a.79.79,0,0,0,.21-.64c-.42-.65-.85-.86-1.28-.44s-.86.85-.44,1.5C14.55,251.65,15.19,251.65,15.41,251.44Z"/><path class="cls-1" d="M17.75,213.81c.65-.42.86-.85.65-1.28l-.64-.64c-.64.42-.86.85-.65,1.28C17.11,213.6,17.54,213.6,17.75,213.81Z"/><path class="cls-1" d="M20,280.54c.21-.43,0-.85-.64-1.28l-.64.63q-.33.64.63,1.29Z"/><path class="cls-1" d="M21.66,245.48s.64-.42.64-.64a2.11,2.11,0,0,0-.85-1.07c-.85-.43-1.29,0-.86.85A4.54,4.54,0,0,0,21.66,245.48Z"/><path class="cls-1" d="M24.53,228.82c0-.22-.21-.43-.64-.65a.79.79,0,0,0-.64-.21c-.65.42-.86.85-.44,1.28s.86.86,1.5.43C24.53,229.67,24.53,229.24,24.53,228.82Z"/><path class="cls-1" d="M24.31,269.45c-.2-1.5-.42-1.72-1.91-1.94C22.6,269,22.81,269.22,24.31,269.45Z"/><path class="cls-1" d="M22.58,272.64s.43.65.64.65c.43-.21,1.08-.42,1.08-.85.43-.85,0-1.28-.85-.86C23,271.58,22.8,272.22,22.58,272.64Z"/><path class="cls-1" d="M23.77,291.9l-.64-.65c-.65.42-.87.85-.65,1.28l.64.64C24,292.75,24,292.32,23.77,291.9Z"/><path class="cls-1" d="M26.23,152.27l.64-.64c-.42-.64-.85-.86-1.28-.64l-.65.63C25.37,152.27,25.8,152.48,26.23,152.27Z"/><path class="cls-1" d="M26,196.54q-.64-.33-1.29.63l.64.65c.43.21.86,0,1.29-.64C26.63,197,26.2,196.75,26,196.54Z"/><path class="cls-1" d="M25.8,231.6s.65-.42.65-.63a2.19,2.19,0,0,0-.85-1.08c-.86-.43-1.29,0-.86.85C24.73,231,25.37,231.39,25.8,231.6Z"/><path class="cls-1" d="M25.75,242.08c-.43-.21-.86,0-1.29.64l.64.64q.63.33,1.29-.63C26.39,242.51,26,242.3,25.75,242.08Z"/><path class="cls-1" d="M24.3,271.37c1.51-.21,1.94-.63,1.72-1.27a1.34,1.34,0,0,0-1.71-.65C24.31,270.09,24.31,270.73,24.3,271.37Z"/><path class="cls-1" d="M25.57,275.65c-.43-.21-.86,0-1.29.64l.64.64q.63.33,1.29-.63Z"/><path class="cls-1" d="M28.12,239.1c.22-.43,0-.86-.64-1.29l-.64.64q-.33.65.63,1.29Z"/><path class="cls-1" d="M30.42,169.83c.21-.43,0-.86-.64-1.29l-.64.64q-.33.65.63,1.29C30,170.47,30.2,170,30.42,169.83Z"/><path class="cls-1" d="M30.11,188l.64-.63c-.42-.65-.85-.86-1.28-.65l-.65.63A1,1,0,0,0,30.11,188Z"/><path class="cls-1" d="M30,203.83l.65-.64c-.43-.64-.85-.86-1.28-.65l-.65.64A1,1,0,0,0,30,203.83Z"/><path class="cls-1" d="M28.89,215.15s.43.65.64.65c.43-.21,1.07-.42,1.08-.85.43-.85,0-1.28-.86-.86A2.16,2.16,0,0,0,28.89,215.15Z"/><path class="cls-1" d="M32.27,145c-.43-.21-.86,0-1.29.64l.64.64c.42.22.85,0,1.28-.63C32.91,145.46,32.48,145.25,32.27,145Z"/><path class="cls-1" d="M34.08,166.21l.65-.64c-.43-.64-.86-.86-1.29-.64l-.64.64C33.22,166.21,33.65,166.43,34.08,166.21Z"/><path class="cls-1" d="M33.51,273.77c-.43-.22-.86,0-1.29.64l.64.64q.63.33,1.29-.63Z"/><path class="cls-1" d="M32.62,278.68l.64.65c.65-.42.86-.85.65-1.28l-.64-.65C32.63,277.83,32.41,278.26,32.62,278.68Z"/><path class="cls-1" d="M34.6,268.86l.64.64c.65-.42.87-.85.65-1.28l-.64-.64C34.61,268,34.39,268.43,34.6,268.86Z"/><path class="cls-1" d="M38.32,134.37l.65-.63c-.43-.65-.85-.86-1.28-.65l-.65.64C37.47,134.37,37.89,134.59,38.32,134.37Z"/><path class="cls-1" d="M36.51,272.72l.64.64c.65-.42.86-.85.65-1.28l-.64-.64C36.52,271.86,36.3,272.29,36.51,272.72Z"/><path class="cls-1" d="M41.39,283l.64-.64c-.42-.64-.85-.86-1.28-.65l-.65.64C40.53,283,41,283.22,41.39,283Z"/><path class="cls-1" d="M43.77,77.74l-.65.63c.43.65.86.86,1.29.65l.64-.64A.9.9,0,0,0,43.77,77.74Z"/><path class="cls-1" d="M43.78,276.82c.21-.43,0-.86-.64-1.29l-.64.64q-.33.65.63,1.29Z"/><path class="cls-1" d="M47.46,68.13c-.21.43,0,.86.64,1.29l.65-.64c.21-.43,0-.85-.64-1.29Z"/><path class="cls-1" d="M48.1,269.57c-1.5.21-1.93.63-1.72,1.28a1.35,1.35,0,0,0,1.71.65C48.1,270.86,48.1,270.21,48.1,269.57Z"/><path class="cls-1" d="M50.55,132.3c.22-.43,0-.85-.64-1.29l-.64.64q-.33.65.63,1.29Z"/><path class="cls-1" d="M55.62,25.19l.64.65c.65-.42.86-.85.65-1.28l-.64-.64C55.63,24.34,55.41,24.77,55.62,25.19Z"/><path class="cls-1" d="M54.25,282.65s.42.64.64.64c.43-.21,1.07-.42,1.07-.84.44-.86,0-1.29-.85-.87C54.68,281.58,54.47,282.22,54.25,282.65Z"/><path class="cls-1" d="M59,38.47l-.64-.64c-.64.42-.86.85-.65,1.28l.64.64C59,39.33,59.19,38.9,59,38.47Z"/><path class="cls-1" d="M57.67,83.8l-.65.64c.43.64.85.86,1.28.64l.65-.63A1,1,0,0,0,57.67,83.8Z"/><path class="cls-1" d="M57.54,107.53c-.21.22-.65.64-.65.64.43.65.86.86,1.29.65l.64-.64A1,1,0,0,0,57.54,107.53Z"/><path class="cls-1" d="M60,47.46c.42.21.85,0,1.28-.64l-.64-.64c-.42-.22-.85,0-1.28.63C59.15,46.81,59.79,47.24,60,47.46Z"/><path class="cls-1" d="M63.82,296.39c.42.64.85.86,1.28.65l.65-.64c-.43-.65-.85-.86-1.28-.65Z"/><path class="cls-1" d="M67.23,58.62c.43.64.85.86,1.28.64l.65-.63c-.42-.65-.85-.86-1.28-.65S67.45,58.4,67.23,58.62Z"/><path class="cls-1" d="M67.37,72.3c-.21.43,0,.86.64,1.29l.65-.64c.21-.43,0-.85-.64-1.29Z"/><path class="cls-1" d="M70.58,34.26q-.64-.33-1.29.63l.64.65c.43.21.85,0,1.29-.64Z"/><path class="cls-1" d="M69.83,54.14l-.65.64c.43.64.85.86,1.28.65l.65-.64C70.69,54.14,70.26,53.93,69.83,54.14Z"/><path class="cls-1" d="M69.89,83.43c.64-.42.86-.85.65-1.27l-.64-.65c-.65.42-.87.85-.65,1.28Z"/><path class="cls-1" d="M68.14,290.64s.42.64.64.64c.43-.21,1.07-.42,1.07-.85.44-.85,0-1.28-.85-.86A2.09,2.09,0,0,0,68.14,290.64Z"/><path class="cls-1" d="M78.82,56.54l-.64-.65c-.65.43-.86.85-.65,1.28l.64.65C78.81,57.39,79,57,78.82,56.54Z"/><path class="cls-1" d="M82.46,57.41l.64-.63c-.42-.65-.85-.86-1.28-.65l-.65.64A.9.9,0,0,0,82.46,57.41Z"/><path class="cls-1" d="M87.85,50c.22,0,.43-.21.65-.64a.77.77,0,0,0,.22-.64c-.43-.64-.86-.86-1.29-.43s-.86.85-.43,1.49A1.3,1.3,0,0,0,87.85,50Z"/><path class="cls-1" d="M88.18,330.86l-.64-.65c-.64.43-.86.85-.64,1.28l.63.65C88.18,331.71,88.4,331.29,88.18,330.86Z"/><path class="cls-1" d="M92.68,28.81,92,28.17c-.64.42-.86.85-.65,1.28l.64.64C92.68,29.67,92.89,29.24,92.68,28.81Z"/><path class="cls-1" d="M92.7,328.74q-.33.64.63,1.29l.65-.64c.22-.43,0-.85-.64-1.28A1.55,1.55,0,0,1,92.7,328.74Z"/><path class="cls-1" d="M96.9,1.68c.21-.43,0-.86-.64-1.29L95.62,1q-.33.64.63,1.29Z"/><path class="cls-1" d="M96.22,48.29c-.43-.21-.86,0-1.29.64l.64.64q.65.33,1.29-.63Z"/><path class="cls-1" d="M79.55,317.85c.64-.43.86-.85.65-1.28l-.64-.65c-.65.43-.86.85-.65,1.28Z"/><path class="cls-1" d="M97.79,337.75l.65-.64c-.43-.64-.85-.86-1.28-.65l-.65.64A1,1,0,0,0,97.79,337.75Z"/><path class="cls-1" d="M98.87,315l.65-.63c-.43-.65-.86-.86-1.29-.65l-.64.64C98,315,98.44,315.17,98.87,315Z"/><path class="cls-1" d="M105.85,52c.21,0,.43-.21.64-.64a.77.77,0,0,0,.22-.64c-.42-.64-.85-.86-1.28-.43s-.87.85-.44,1.49C105,52,105.42,52,105.85,52Z"/><path class="cls-1" d="M118.13,38.57c-.42-.21-.85,0-1.29.64l.64.64q.64.33,1.29-.63C118.77,39,118.35,38.79,118.13,38.57Z"/><path class="cls-1" d="M120.56,24.9l-.63-.65c-.65.43-.87.86-.65,1.28l.63.65A.94.94,0,0,0,120.56,24.9Z"/><path class="cls-1" d="M123.12,27.05c-.21.43,0,.86.64,1.29l.65-.64c.21-.43,0-.86-.64-1.29C123.77,26.2,123.34,26.84,123.12,27.05Z"/><path class="cls-1" d="M123.64,332.63c.21.22.64.64.64.64.64-.42.86-.85.65-1.27l-.64-.65C123.64,331.77,123.42,332.2,123.64,332.63Z"/><path class="cls-1" d="M127.5,330.73c.22.21.64.64.64.64.65-.42.87-.85.65-1.28l-.64-.64C127.51,329.87,127.29,330.3,127.5,330.73Z"/><path class="cls-1" d="M131.39,43.78c.43.21.86,0,1.29-.64L132,42.5q-.63-.33-1.29.63C130.75,43.34,131.18,43.56,131.39,43.78Z"/><path class="cls-1" d="M138.26,3q-.64-.33-1.29.63l.64.65c.42.21.85,0,1.29-.64Z"/><path class="cls-1" d="M141.83,337q.64.33,1.29-.63l-.64-.64q-.64-.33-1.29.63C141,336.57,141.62,336.79,141.83,337Z"/><path class="cls-1" d="M153.55,28.5c.65-.43.86-.85.65-1.28l-.64-.65c-.65.43-.86.85-.65,1.28Z"/><path class="cls-1" d="M158,32.16l.65-.64c-.43-.65-.86-.86-1.28-.65l-.65.64A.9.9,0,0,0,158,32.16Z"/><path class="cls-1" d="M163.85,26.2l.65-.64c-.43-.64-.86-.86-1.29-.65l-.64.64C163,26.2,163.42,26.41,163.85,26.2Z"/><path class="cls-1" d="M171.81,20.26l.65-.64c-.43-.65-.86-.86-1.28-.65l-.65.64C171,20.25,171.38,20.47,171.81,20.26Z"/><path class="cls-1" d="M169.48,337.15q.63.33,1.29-.63l-.64-.65c-.43-.21-.86,0-1.29.64C168.84,336.72,169.26,336.94,169.48,337.15Z"/><path class="cls-1" d="M170.1,341.86c-.43-.22-.86,0-1.3.63l.65.65c.42.22.85,0,1.28-.63C170.74,342.29,170.31,342.08,170.1,341.86Z"/><path class="cls-1" d="M175.85,26.91q-.65-.33-1.29.63l.64.65c.43.21.86,0,1.29-.64Z"/><path class="cls-1" d="M207,327.14c-.22.43,0,.85.64,1.29l.64-.64q.33-.65-.63-1.29Z"/><path class="cls-1" d="M178.4,31.62c0-.21-.22-.43-.64-.64a.79.79,0,0,0-.65-.22c-.64.43-.86.85-.43,1.28s.85.86,1.5.44C178.6,32.48,178.61,31.84,178.4,31.62Z"/><path class="cls-1" d="M178.52,7.89c.43.64.85.86,1.28.65l.65-.64c-.43-.65-.85-.86-1.28-.65C179,7.25,178.74,7.46,178.52,7.89Z"/><path class="cls-1" d="M179.67,34.41s.64-.42.64-.64a2.07,2.07,0,0,0-.85-1.07c-.85-.43-1.28,0-.86.85C178.6,33.76,179.24,34,179.67,34.41Z"/><path class="cls-1" d="M206.28,27.92c0-.21-.21-.43-.64-.64a.79.79,0,0,0-.65-.22c-.64.43-.86.85-.43,1.28s.85.86,1.5.44A1.37,1.37,0,0,0,206.28,27.92Z"/><path class="cls-1" d="M208.2,28.79h-1.93c.21,1.5.42,1.71,1.92,1.93C208.19,30.07,208.2,29.43,208.2,28.79Z"/><path class="cls-1" d="M209.06,28.79c.21,0,.43-.21.64-.63a.78.78,0,0,0,.22-.64c-.42-.65-.85-.86-1.28-.44s-.86.85-.44,1.5A1.3,1.3,0,0,0,209.06,28.79Z"/><path class="cls-1" d="M211.94,10.21q.33-.65-.63-1.29l-.65.64c-.22.42,0,.85.64,1.28C211.51,10.84,211.73,10.42,211.94,10.21Z"/><path class="cls-1" d="M213.94,318.36c-.43-.22-.85,0-1.29.63l.64.65c.43.21.86,0,1.29-.64C214.58,318.79,214.15,318.57,213.94,318.36Z"/><path class="cls-1" d="M216.53,316c0-.64,0-1.28,0-1.92-1.5.2-1.94.63-1.72,1.27A1.44,1.44,0,0,0,216.53,316Z"/><path class="cls-1" d="M217.8,317.74s.65-.43.65-.64c-.21-.43-.42-1.07-.85-1.08-.86-.43-1.29,0-.86.86A2.21,2.21,0,0,0,217.8,317.74Z"/><path class="cls-1" d="M221.88,317.76l.64-.64c-.42-.64-.85-.86-1.28-.65l-.65.64C221,317.75,221.45,318,221.88,317.76Z"/><path class="cls-1" d="M225.36,26.53l.65-.64c-.43-.64-.86-.86-1.29-.65l-.64.64C224.5,26.52,224.93,26.74,225.36,26.53Z"/><path class="cls-1" d="M225.74,315.86s.65-.43.65-.64c-.21-.43-.42-1.08-.85-1.08-.86-.43-1.29,0-.86.85A2.18,2.18,0,0,0,225.74,315.86Z"/><path class="cls-1" d="M231.8,23.57l-.64-.65c-.64.43-.86.86-.65,1.28l.64.65C231.8,24.42,232,24,231.8,23.57Z"/><path class="cls-1" d="M236.71,28.51q.63.33,1.29-.63l-.64-.65c-.43-.21-.86,0-1.29.64C236.07,28.08,236.49,28.3,236.71,28.51Z"/><path class="cls-1" d="M240.53,35.16l-.65.64c.43.64.86.86,1.28.65l.65-.64A.9.9,0,0,0,240.53,35.16Z"/><path class="cls-1" d="M245.72,26.21q.33-.64-.63-1.29l-.65.64q-.33.64.63,1.29C245.07,27.06,245.51,26.42,245.72,26.21Z"/><path class="cls-1" d="M243.58,306.11s.65-.42.65-.63a2.14,2.14,0,0,0-.85-1.08c-.86-.43-1.29,0-.86.85C242.73,305.47,243.16,305.68,243.58,306.11Z"/><path class="cls-1" d="M247.12,325.81c.43.21.86,0,1.29-.64l-.64-.64q-.65-.33-1.29.63C246.27,325.16,246.69,325.59,247.12,325.81Z"/><path class="cls-1" d="M247.74,330.3c-.43-.22-.86,0-1.29.63l.64.65c.43.22.86,0,1.29-.64Z"/><path class="cls-1" d="M253.63,310.66c-.42-.22-.86,0-1.29.63l.64.65c.43.21.86,0,1.29-.64C254.49,311.09,253.85,310.87,253.63,310.66Z"/><path class="cls-1" d="M257.48,32.26c.21-.43,0-.86-.64-1.29l-.65.64c-.21.43,0,.86.64,1.29C257,32.9,257.26,32.47,257.48,32.26Z"/><path class="cls-1" d="M255.8,306l.65-.63c-.43-.65-.86-.86-1.29-.65l-.64.64A.94.94,0,0,0,255.8,306Z"/><path class="cls-1" d="M267.66,292.34s.65-.42.65-.64c-.21-.42-.43-1.07-.85-1.07-.86-.43-1.29,0-.87.85C266.59,291.7,267.23,292.13,267.66,292.34Z"/><path class="cls-1" d="M268,307.1l-.64-.65c-.64.43-.86.85-.65,1.28l.64.65C268,308,268.22,307.53,268,307.1Z"/><path class="cls-1" d="M271.05,300.06c.43.21.86,0,1.29-.64l-.64-.64q-.65-.33-1.29.63C270.41,299.63,270.84,299.84,271.05,300.06Z"/><path class="cls-1" d="M271.77,318.87l-.64-.65c-.64.43-.86.85-.65,1.28l.64.65C271.77,319.72,272,319.3,271.77,318.87Z"/><path class="cls-1" d="M274.3,292.59c0,.64,0,1.29,0,1.93,1.51-.21,1.94-.63,1.73-1.28A1.37,1.37,0,0,0,274.3,292.59Z"/><path class="cls-1" d="M276,299.23l-.64-.65c-.64.43-.86.85-.65,1.28l.64.65C276,300.08,276.2,299.66,276,299.23Z"/><path class="cls-1" d="M282.68,48.86c.64-.42.86-.85.65-1.28l-.64-.64c-.65.42-.86.85-.65,1.28C282,48.43,282.46,48.65,282.68,48.86Z"/><path class="cls-1" d="M287.22,41.61c-.22-.21-.64-.64-.64-.64-.65.42-.86.85-.65,1.28l.64.64A1,1,0,0,0,287.22,41.61Z"/><path class="cls-1" d="M290.81,50.83s.65-.43.65-.64c-.21-.43-.42-1.07-.85-1.07-.86-.44-1.29,0-.87.85C289.74,50.18,290.38,50.61,290.81,50.83Z"/><path class="cls-1" d="M292.18,276c0-.22-.21-.43-.64-.65a.79.79,0,0,0-.64-.21c-.65.42-.86.85-.44,1.28s.86.86,1.5.43A.53.53,0,0,0,292.18,276Z"/><path class="cls-1" d="M295.06,58.33c.21-.42,0-.85-.64-1.28l-.65.64c-.21.42,0,.85.64,1.28C294.63,59,294.84,58.55,295.06,58.33Z"/><path class="cls-1" d="M293.45,278.58s.65-.42.65-.64a2.12,2.12,0,0,0-.85-1.07c-.86-.43-1.29,0-.86.85A2.16,2.16,0,0,0,293.45,278.58Z"/><path class="cls-1" d="M296.11,62.62c.42.21.85,0,1.29-.64l-.64-.64q-.64-.33-1.29.63Z"/><path class="cls-1" d="M305.9,276.3c.21-.43,0-.86-.64-1.29l-.65.64c-.21.42,0,.85.64,1.28Z"/><path class="cls-1" d="M307.37,80s.43.64.64.64c.43-.21,1.08-.42,1.08-.85.43-.85,0-1.28-.85-.86C308,78.93,307.59,79.57,307.37,80Z"/><path class="cls-1" d="M311.25,76.81c-1.5.21-1.72.42-1.94,1.92C310.81,78.52,311,78.31,311.25,76.81Z"/><path class="cls-1" d="M312.11,76.82c.21,0,.42-.22.64-.64a.77.77,0,0,0,.22-.64c-.43-.65-.85-.86-1.29-.44s-.86.85-.43,1.5C311.25,76.81,311.89,76.82,312.11,76.82Z"/><path class="cls-1" d="M312.06,84.73c.22,0,.43-.21.65-.64a.84.84,0,0,0,.22-.64c-.43-.64-.86-.86-1.29-.43s-.86.85-.43,1.49C311.2,84.94,311.85,84.73,312.06,84.73Z"/><path class="cls-1" d="M314.33,288.39q-.33.64.63,1.29l.65-.64c.22-.42,0-.85-.64-1.28Z"/><path class="cls-1" d="M322.22,291.12q-.64-.33-1.29.63l.64.65c.42.21.85,0,1.29-.64C322.86,291.55,322.43,291.33,322.22,291.12Z"/><path class="cls-1" d="M326.43,86.09c-.43-.21-.86,0-1.29.64l.64.64q.64.33,1.29-.63Z"/><path class="cls-1" d="M325.25,223.58c.65-.42.86-.85.65-1.28l-.64-.65c-.64.43-.86.86-.65,1.28C324.83,223.15,325,223.15,325.25,223.58Z"/><path class="cls-1" d="M325.41,274.69l.64-.64c-.42-.64-.85-.86-1.28-.65l-.64.64C324.55,274.68,325,274.9,325.41,274.69Z"/><path class="cls-1" d="M326.6,285.24c.22-.42,0-.85-.64-1.28,0,0-.43.42-.64.64-.22.42,0,.85.63,1.28C326,285.88,326.39,285.46,326.6,285.24Z"/><path class="cls-1" d="M331.16,119.9l.64.64c.65-.42.87-.85.65-1.28l-.64-.64C331.17,119,331,119.47,331.16,119.9Z"/><path class="cls-1" d="M330.77,273.72c.42.21.85,0,1.28-.64l-.63-.64q-.65-.33-1.29.63C329.91,273.07,330.55,273.5,330.77,273.72Z"/><path class="cls-1" d="M334.7,139.38c0-.22-.21-.43-.64-.65a.78.78,0,0,0-.64-.21c-.64.42-.86.85-.43,1.28s.85.86,1.49.43C334.7,140.23,334.7,139.8,334.7,139.38Z"/><path class="cls-1" d="M336,142.16s.65-.42.65-.63a2.14,2.14,0,0,0-.85-1.08c-.86-.43-1.29,0-.86.85C334.91,141.52,335.55,142,336,142.16Z"/><path class="cls-1" d="M334.51,214.86s.43.65.64.65a2.25,2.25,0,0,0,1.08-.85c.43-.86,0-1.29-.85-.86C335,213.79,334.73,214.43,334.51,214.86Z"/><path class="cls-1" d="M327.42,265.74c-.21.43,0,.86.64,1.29l.65-.64c.21-.43,0-.85-.64-1.28C327.86,265.1,327.64,265.53,327.42,265.74Z"/><path class="cls-1" d="M336.59,265.84c.43.21.86,0,1.29-.64l-.64-.64q-.63-.33-1.29.63Z"/><path class="cls-1" d="M337.45,287.14l-.64.63c.42.65.85.87,1.28.65l.65-.63A1,1,0,0,0,337.45,287.14Z"/><path class="cls-1" d="M334.66,275.39,334,276c.43.64.86.86,1.29.64l.64-.63C335.52,275.39,335.09,275.18,334.66,275.39Z"/><path class="cls-1" d="M342.39,185c0-.22-.21-.43-.64-.65a.8.8,0,0,0-.64-.22c-.65.43-.86.86-.44,1.28s.85.86,1.5.44C342.39,185.82,342.39,185.39,342.39,185Z"/><path class="cls-1" d="M315.13,295.07c-.43-.21-.86,0-1.29.64l.64.64q.63.33,1.29-.63Z"/><path class="cls-1" d="M343.13,286.18c-.43-.21-.86,0-1.29.64l.64.64q.64.33,1.29-.63A1.61,1.61,0,0,1,343.13,286.18Z"/><path class="cls-1" d="M324,281.07c-.42-.21-.85,0-1.29.64l.64.64q.64.33,1.29-.63Z"/><path class="cls-1" d="M345.46,211.93q-.65-.33-1.29.63l.64.65c.43.21.86,0,1.29-.64C346.31,212.57,345.89,212.36,345.46,211.93Z"/><path class="cls-1" d="M346.6,200.46c-.21.43,0,.86.64,1.29l.65-.64c.21-.43,0-.86-.64-1.29Z"/><path class="cls-1" d="M348.64,250.65c.65-.42.86-.85.65-1.28l-.64-.64c-.64.42-.86.85-.65,1.28C348.21,250.22,348.43,250.22,348.64,250.65Z"/><path class="cls-1" d="M347.48,260.41q.33-.65-.63-1.29l-.65.64c-.21.43,0,.86.64,1.29Z"/><path class="cls-1" d="M341.89,276.15s.43.64.64.65a2.25,2.25,0,0,0,1.08-.85c.43-.86,0-1.29-.86-.86A4.73,4.73,0,0,0,341.89,276.15Z"/><path class="cls-1" d="M332.06,108.34q-.63-.33-1.29.63l.65.65c.42.21.85,0,1.28-.64Z"/><path class="cls-1" d="M348.68,182.76l.65-.64c-.43-.65-.85-.86-1.28-.65l-.65.64C347.83,182.75,348.25,183,348.68,182.76Z"/><path class="cls-1" d="M344.68,274.88c.22,0,.43-.21.65-.64a.76.76,0,0,0,.22-.64c-.43-.64-.85-.86-1.29-.43s-.86.85-.43,1.49C343.83,275.09,344.25,275.09,344.68,274.88Z"/><path class="cls-1" d="M330.63,239.34l-.64-.65c-.64.43-.86.85-.65,1.28l.64.65C330.63,240.19,330.85,239.77,330.63,239.34Z"/><path class="cls-1" d="M346.44,267.44l-.65.64c.43.64.85.86,1.29.65l.64-.64C347.3,267.44,346.87,267.23,346.44,267.44Z"/><path class="cls-1" d="M352,275.72l.65-.64c-.43-.64-.85-.85-1.29-.64l-.64.64C351.11,275.72,351.54,275.93,352,275.72Z"/><path class="cls-1" d="M338.31,226.55l.65-.64c-.43-.65-.85-.86-1.28-.65l-.65.64A1,1,0,0,0,338.31,226.55Z"/><path class="cls-1" d="M341.56,240.46q.63.33,1.29-.63l-.64-.64q-.65-.33-1.29.63S341.34,240.25,341.56,240.46Z"/><path class="cls-1" d="M339.67,114.45q-.33.64.63,1.29l.65-.64q.33-.64-.63-1.29Z"/><path class="cls-1" d="M352.58,235.91c-.43-.21-.86,0-1.29.64l.64.64q.63.33,1.29-.63Z"/><path class="cls-1" d="M355.77,208.52c.21-.22.65-.64.65-.64-.43-.65-.86-.86-1.29-.65l-.64.64C354.7,208.72,355.12,208.73,355.77,208.52Z"/><path class="cls-1" d="M351,148l-.64-.64c-.64.42-.86.85-.65,1.28l.64.64A.89.89,0,0,0,351,148Z"/><path class="cls-1" d="M356,149.1c.43.21.85,0,1.29-.64l-.64-.64q-.64-.33-1.29.63Z"/><path class="cls-1" d="M358.92,154l-.64-.64c-.64.42-.86.85-.65,1.28.22.21.64.64.64.64C358.92,154.89,359.13,154.46,358.92,154Z"/><path class="cls-1" d="M313.73,53.94c-.22-.21-.64-.64-.64-.64-.65.42-.86.85-.65,1.28l.64.64A.9.9,0,0,0,313.73,53.94Z"/><path class="cls-1" d="M349.89,171.15c-.21.43,0,.86.64,1.29l.65-.64c.21-.43,0-.86-.64-1.29C350.54,170.3,350.11,170.94,349.89,171.15Z"/><path class="cls-1" d="M362.3,203.8c.43.21.86,0,1.29-.64l-.64-.64q-.65-.33-1.29.63C361.45,203.15,362.09,203.58,362.3,203.8Z"/><path class="cls-1" d="M361.27,194.94l.65-.64c-.43-.64-.86-.86-1.29-.65-.21.22-.64.64-.64.64C360.2,195.15,360.63,195.15,361.27,194.94Z"/><path class="cls-1" d="M355.33,196.59,356,196c-.43-.65-.86-.86-1.29-.65l-.64.64C354.47,196.59,354.9,196.8,355.33,196.59Z"/><path class="cls-1" d="M335.47,99.56c-.43-.21-.86,0-1.29.64l.64.64q.65.33,1.29-.63Z"/><path class="cls-1" d="M334.92,239.79c0-.22-.22-.43-.64-.65a.8.8,0,0,0-.64-.21c-.65.42-.87.85-.44,1.28s.85.86,1.5.43C334.91,240.64,334.92,240,334.92,239.79Z"/></svg>