<svg id="Layer_1" data-name="Layer 1" xmlns="http://www.w3.org/2000/svg" viewBox="0 0 372.54 393.03"><defs><style>.cls-1{fill:#e62f48;}</style></defs><path class="cls-1" d="M247,314.87c1.52.18,2.45.08,2.68.73.91,1.85,1.61,3.78,2.37,5.21.26,2.08-3,1.55-.42,4,0,0,1.19-1.16,2.06-.75,0,1.95,1,.64,1,2.8,1.17.55.43-2.59,1.6-2a8,8,0,0,1,2.27-.19c1.22.05,1.72-5.85,1.89-4.7.62,1.72,4.26-4.12,4.88-2.4.23.64-1.15,2-.91,2.66l2,1c.39,1.07,4.26-8.08,4.88-6.36-.27.58-.61,1.67-1,2.55,1.13,1.78,3.3-.95,4.87,1.4,1.93,5.36-3.8-.57-1.71,5.22-.41.88,3.17.31,2.76,1.19.47,1.28-2.67,1.2-2.28,2.28.95.62,2.41.09,3.29.51-1.57,3.71,1.88-2.23,5.68-.44,2.17-.44-1-3.66-1.24-7.23.27-.58,3.09,1.45,3.51.58-.08-.22,1.35-1.21,1.63-3.65.09-5.14-2.92-7-5.53-8-.66-.49-1.53-.9-2.48-1.53.27-.58.25-1.3.68-1.45a14.73,14.73,0,0,1,3-1.09,1.88,1.88,0,0,0,1.33-1.69c-.47-1.29-.93-2.58-1.47-4.08-1.26-1.48-3.29.95-4.63-.75.13-.29.19-.8.41-.88,1.85-.91,3.78-1.6,5.63-2.51,1.09.33,2,.74,3.05,1.07a6.5,6.5,0,0,1,2-.48,19.28,19.28,0,0,0,2.84,1.16c1.48-1.26-1-3.3.75-4.64l.88.42a3.45,3.45,0,0,0,1.59.39,1.53,1.53,0,0,0,.32-1.81,1.43,1.43,0,0,1,0-1.95c.35-.37.86-.31,1.73.1,1,.63,1.89.53,3.53-.3.39-1.6.92-3.49,1.39-4.87l6.86-2.47c1,.12,1.46.68,1.18,1.27l-1.5,3.21c-.65.23-1.64.83-2.5,1.14-1.07.39,1.13-.89.88.41.87.41.31.86,1.18,1.27.31.86-.11,1.5,1.49,1.89a27,27,0,0,1,1.73-3.05c1.16.55,2.36-3.52,3.53-3,.46,1.29,2.83,2.59,3.37,4.09,2.3-6.17,1.43-7.76,1.1-6.67.5-1.64,2.4-3.05,3.79.81-.41.88,1-.53,1.37-2.68.46,1.29.63-4.73,1.09-3.44,3.33.74-1,7,1.75,4.84-.66-.48,2.14.69,1.19.06-.39-1.07,3.14-1,2.68-2.26-.95-.63,1.33-2.83.17-3.38-.7-1.93,3.17.07,2.47-1.86.42-.88-1.27-1.53-.86-2.4-1.16-3.22,4.27,3.11,3.11-.11.33-1.09-1.79-2.26-1.24-3.43-1.7-4.72-3.25-.29-4.87-4.79.17-1.52,1.4-1.48,2.39-2.08a21.74,21.74,0,0,0,2.84,1.16c.3.14.65-.24,1.08-.39l-1.09-3a22.62,22.62,0,0,1-2.7-1.45,15.56,15.56,0,0,0,1-2.55,20.07,20.07,0,0,0-2.7-1.45c-.72-2.66-.8-2.87,1.78-3.8,1.75.82,3.71,1.57,5.46,2.39.29.14.64-.23.86-.31l-1.09-3a37.44,37.44,0,0,0,1.79-3.8,10.41,10.41,0,0,0,2.53-2.37l-1.75-.82c-.58-.27-.52-.78-.11-1.66a7,7,0,0,0,.53-1.89c-.39-1.07-.64-2.44.22-2.74s1.4,1.19,1.92,2c.16.43,1.32,1,1.46.69a1.54,1.54,0,0,0,.32-1.82c-.49-2-.27-2.08,1.58-3,.21-.08.57-.45.78-.53.55-1.16,1.23-2.63,1.78-3.79.14-.29-.23-.65-.31-.86a1.53,1.53,0,0,1-1.95,0c-.66-.48-.17-1.15,1.68-2.06.22-.07-.43.16-.43.16a1.43,1.43,0,0,1-.11-1.66c.27-.58.7-.74,1.44,0,.08.21-.06.5,0,.72a2.46,2.46,0,0,1-.84,1,3.36,3.36,0,0,0,.27,2.08,13.19,13.19,0,0,0,2.78-1,1.77,1.77,0,0,0,.61-1.68,37.38,37.38,0,0,0-1.7-4.72,1.52,1.52,0,0,1-1.95,0c-.66-.49-.17-1.15,1.25-1.91-.38-1.07-.69-1.93-1.08-3,.55-1.17,1.31-2.42,2-3.88l5.36-1.93a7.57,7.57,0,0,0,2-4.6c-1.83-1-3.29.95-4.81.77a22.74,22.74,0,0,1-1.59,3l-1.92.69c-2.12-1.17-4.38-2-6.5-3.23.27-.58.47-1.38.9-1.54,3.14-1.37,6.35-2.53,9.57-3.69.21-.08.27-.59.41-.88a19.48,19.48,0,0,1-2.7-1.45c-.3-.14-.24-.64-.31-.86a1.52,1.52,0,0,1-1.95,0c-.66-.49-.17-1.15,1.25-1.91l-.7-1.93-2.78,1a1.24,1.24,0,0,1-.8-.2c-.29-.14-.58-.28-.45-.57s.2-.8.41-.87c1.91-1.42,2.71-1.22,3.84.55a1.43,1.43,0,0,0,1.48-1.26c.26-1.31-.93-2.58.34-3.76l1.71-.62a15.63,15.63,0,0,0,2.77.94c1-1.1.23-2-.23-3.31-1.17-.55-2.55-1-4.3-1.84-1-.12-2.34,1.57-4.23,1-.29-.14-.58-.28-.66-.49a1.06,1.06,0,0,1,.41-.88,7.25,7.25,0,0,1,2.07-1,36.29,36.29,0,0,1,1.86-3.58c0-2.16-1.18-3.94-1.66-6,.1-1.73,1.08-3,1.62-4.22,1.13-.9,1.91-1.42,2.83-2.24-2-1-3.87-2-5.62-2.82l2.19-4.67a1,1,0,0,0-1.1-1.06c-.3-.13-.65.24-1.08.39a1.42,1.42,0,0,1-1.94,0c-.45-.57.18-1.52,1.46-2l3-1.08a6,6,0,0,0,1.85-.91l1.78-3.8c-1.76-1.54-3.23.44-4.88.55-.59-.27-1.31-.25-1.89-.53-2.26-.88-4.38-2-6.71-3.15-.88-.41-1.17-.55-1.18-1.27a1.53,1.53,0,0,1,1.48-1.27l.86-.31a5.49,5.49,0,0,0,4.84.68l2,1a6.89,6.89,0,0,0,4.5-1.62c.14-.29.71-.74.63-1l-1.78-4.93-1.93.69a1.43,1.43,0,0,1-1.95,0c-.37-.35-.09-.94.32-1.81l.41-.88c-1.2-2-3.16.65-4.42-.83a21.74,21.74,0,0,0,1.16-2.84c-1.09-3-2.17-6-3.17-8.8a1.53,1.53,0,0,1-1.95,0,2.9,2.9,0,0,1-.93-2.57,1.43,1.43,0,0,1,1.48-1.26c-.07-.22,0-.72-.31-.86a41.08,41.08,0,0,0-4.08-1.92c-.29-.14-.64.23-.86.31l1,2.79c-.82,1.75-.82,1.75-2,1.92-1.29.46-1.66.11-2.34-1.1a2.71,2.71,0,0,1,.22-2.75l2.79-1c-.15-.43-.52-.78-.39-1.07a21.91,21.91,0,0,0,1.16-2.85l-3.79-1.78a20.61,20.61,0,0,1-1.45,2.7c-1.38-.47-2.27-1.6-1.59-3.06a7.18,7.18,0,0,0,.55-3.84c-.31-.86.53-1.89,1.68-2.06a1.87,1.87,0,0,0,1.33-1.69c-.62-1.72-1.31-3.65-2-5.58a1,1,0,0,0-1.6-.4c-.21.08-.27.59-.41.88.47,1.29.93,2.58,1.4,3.86-1,1.83-1,1.83-5.05,2.8-1-.12-1.25-.77-.47-1.29.57-.45,1.29-.47,1.78-1.13.35-.37,1-1.32.9-1.53a1.53,1.53,0,0,0-1.81-.32c-2.52.42-2.52.42-3.14-1.3-.31-.85-.69-1.93-1-2.79.27-.58.41-.87.55-1.16.88-2.26.65-2.91-1.26-4.16-.66-.49-1.17-.55-1.18-1.27.19-.8.84-1,1.48-1.26,1.28-.47,1.56-1,1.31-2.42a2.14,2.14,0,0,0-2.14-1.89c-.72,0-1.28.46-2,.48-.21.08-.58-.27-1.08-.33-.47-1.29-.93-2.58-1.47-4.08A8.39,8.39,0,0,1,317.14,80c-1.26-1.48-3.37.73-4.63-.75-.24-.65-.47-1.29-.7-1.93.24-2,3.14-1.38,3.08-3.54l-6.71-3.16-3,1.08a1.18,1.18,0,0,1-.1,1.74c.6,1,0,1.23-.47,1.38a1.53,1.53,0,0,1-1.81-.32c-.08-.21.26-1.3.69-1.46a13.19,13.19,0,0,1,2.78-1c-.15-.43-.52-.78-.38-1.08A20.45,20.45,0,0,1,307,68.13l-2.17-6c-.29-.13-.95-.62-.87-.41-.27.59-.84,1-.69,1.46a15.18,15.18,0,0,0,1.09,3,1.53,1.53,0,0,1-.32,1.81c-1.58.32-3,1.8-4.94,1.06-.06-2.17,1.35-3.65,2.09-5.61a21.27,21.27,0,0,1-2.7-1.45c-.31-.86-.7-1.93-1.08-3l-2.79,1a1.18,1.18,0,0,1-.8-.2c-.29-.13-.58-.27-.45-.56s.2-.8.42-.88c1.91-1.42,2.7-1.22,3.83.56.93-.1,1.5-.55,1.48-1.27-.11-1.65-.52-3.45.89-4.92l-1-2.79c-.23-.65-.46-1.29-1.26-1.49a2.45,2.45,0,0,0-2.65.71c-.9,1.54-1.5,3.22-2.4,4.75-.59-.27-1.31-.25-1.46-.68a22.31,22.31,0,0,1-1.32-3.65c.34-1.09,1.47-2,.87-3-.9-1.13-1.95,0-2.81.28-.41.88-1,1.83-1.44,2.71l-3.8-1.79a4.16,4.16,0,0,1,1.12-1.61,14.74,14.74,0,0,1,3-1.08c.43-.16.62-1,1.11-1.62l-3.79-1.78a6.43,6.43,0,0,1-2,.48A21.19,21.19,0,0,0,279.34,41c-.21.08-.64.23-1.69,1.34-.57.45-.59-.27-.24-.64.71-.74,1.29-.47,1.17.55a2.3,2.3,0,0,1-.76,1.24s-.8-.19-.17-1.15c.54-1.17.17-1.52.31-1.81l1.23-2.63c-.87-.41-1.82-1-2.41-1.31a20.63,20.63,0,0,1,.94-2.76c-2-1-3.37.73-5.24.92a34.31,34.31,0,0,1-3.57-1.87c0-1.44,1.87-2.86.24-4.69L266.53,27a20,20,0,0,0,1.15-2.84c-.31-.86-.34-2.3-1.79-2.27-.93.1-1,1.33-1.6,2.28-2.08.27-1.51-2.85-3.53-3.09l-2.36.85c-.61,1.68-1.14,3.57-1.82,5a8,8,0,0,1-2.44.63,16.09,16.09,0,0,0-2.76-.94c-.68,1.46-1.23,2.63-1.78,3.79-.14.3.23.65.31.86a1.18,1.18,0,0,1,1.73.11c.37.35.6,1,1.05,1.56a1.53,1.53,0,0,1-.32,1.81c-.21.08-1.3-.26-1.45-.69a12.58,12.58,0,0,1-1-2.79,1.66,1.66,0,0,1-2.39-.59,10.84,10.84,0,0,1-.93-2.57l-2.79,1c-.21.08-.5-.06-.8-.2s-.58-.27-.44-.56.19-.8.41-.88c1.91-1.41,2.71-1.22,3.83.56.43-.16.94-.1,1.07-.39a33.56,33.56,0,0,0,1.78-3.79c-.58-.28-1-.84-1.45-.69a15.1,15.1,0,0,0-3,1.08,1.52,1.52,0,0,1-1.81-.31c.42-.88.75-2,1.16-2.85-1.83-1-4.09.75-5.72-1.08-.41.87-1,1.83-1.45,2.7l-3.86,1.39c-.87-.41-2-.74-2.84-1.15l-9,3.25c-.64.23-1.58.32-1.81-.32-.07-.22.26-1.31.69-1.46.78-.53,1.93-.7,2.18-2a38.53,38.53,0,0,0-3.93-1.49,8,8,0,0,1-1.38,2.19c-2.16.06-1.52-2.85-3.54-3.09l-4.07,1.47c-1.25-.76-1.25-.76-.23-3.31l-3.5-1.65c-2.67,0-4.5,1.63-6.58,1.89-.55,1.17-.82,1.76-1.24,2.63-2.35.85-4.85,2-7.5,2.71-1.07.39-1.88-.53-2.06-1.68-.07-.22-.23-.65-.52-.78l-2-1a6.88,6.88,0,0,1-1-1.57c-.46-1.28-.5-2.73-2.39-3.26l-1.93.7c-1,1.83-1.35,3.64-3,5.2-1.3-.26-1.26-1.49-1.86-2.49-1.17-.54-2.55-1-4-1.7l-3.64,1.31c-1.09-.33-2-.74-3.06-1.08a21.22,21.22,0,0,1-1.44,2.71l-3,1.08,1,2.79c.08.22-.06.51-.19.8s-.28.58-.57.45-.8-.2-.87-.42c-1.42-1.91-1.22-2.71.55-3.83-.23-.65-.46-1.29-.7-1.94a1.43,1.43,0,0,0-1.26-1.48c-.5-.06-.78.52-1.19,1.4-.14.29-.27.58-.41.88a5.81,5.81,0,0,1-3.71-1.57,13.46,13.46,0,0,1-2.53-3,16.85,16.85,0,0,1-1.45,2.7,16.09,16.09,0,0,0-2.76-.94c-.82,1.75-1.5,3.21-2.33,5-1.15.17-1.67-.61-2-1.47a2.06,2.06,0,0,0-1.47-1.4,6.5,6.5,0,0,1-2,.48c-.82,1.75-1.86,3.58-2.68,5.33-1.3-.25-1.48-1.41-2-2.19a2.07,2.07,0,0,0-1.75-.82,50.05,50.05,0,0,0-5.57,2c-1.65,3.51-1.65,3.51-4.55,2.85-.52-.78-.34-2.3-1.57-2.34-.93.1-.82,1.75-1.68,2.06a12.42,12.42,0,0,1-6.72,2.19c-1.24-.77-1.36-2.42-1.82-3.71a1.54,1.54,0,0,0-1.4-1.2,3.68,3.68,0,0,0-.61,1.68c0,.72.25,1.36.27,2.09.08.21-.27.58-.41.87l-3,1.08a1.67,1.67,0,0,1-.59,2.4,19.4,19.4,0,0,0-3.41,2c-.57.45-.58-.28-.23-.64.7-.74,1.28-.47,1.16.54a2.29,2.29,0,0,1-.76,1.25s-.8-.2-.17-1.15a20.12,20.12,0,0,0-1.54-7l-3.22,1.16c-.6,1.67-1.13,3.56-1.47,4.65a20.52,20.52,0,0,0-3.12,2.1c-.56.44-.55,1.17.06,2.16.07.22-.16-.43-.16-.43a1.43,1.43,0,0,1,1.66-.11c.58.27.73.7,0,1.44-.21.08-.5-.06-.72,0a2.46,2.46,0,0,1-1-.84,2.58,2.58,0,0,1-2.1-.46c-1-.84-.93-2.57-2.66-2.67l-3.86,1.39c-.41.88-1,1.83-1.45,2.7l-1.92.7c-1,1.32,0,2.67.45,4a2.13,2.13,0,0,1-.29,2.53c-.3-.14-.8-.2-.88-.41a25.21,25.21,0,0,1-1.61-3.79c-.31-.85-1.53-.9-2.6-.51a2.07,2.07,0,0,0-1.41,1.48c.88.41,1.54.9,2.41,1.31a6.07,6.07,0,0,1-.9,1.54,47,47,0,0,1-5.36,1.93l-4.08-1.92c-.39-1.07-.77-2.15-1.08-3-1.58.32-2.16.05-2.47-.81-.68-1.21-.93-2.58-1.82-3.71-.45-.56-1.17-.55-2,0l2.47,6.86a1,1,0,0,1-1,1.33,1.06,1.06,0,0,1-.88-.41l-.69-1.94c-.59-.27-1.46-.68-1.89-.53-1.5.54-3.45.52-4.19,2.49a21.13,21.13,0,0,1,2.7,1.44c.23.65.46,1.29.7,1.94,1.18,1.27,2.66,0,3.75.34a1.45,1.45,0,0,1,1.27,1.48l2.78-1c.22-.08.51.06.8.19s.58.28.45.57-.2.8-.41.88c-1.92,1.41-2.71,1.22-3.84-.56-.43.15-.93.1-1.07.39a36.46,36.46,0,0,0-1.78,3.79c.23.65.25,1.37.48,2a20.61,20.61,0,0,1,2.7,1.45c-.39,1.6-1.46,2-3,1.81-.72,0-1.24-.77-2-.75-.8-.2-2.3.34-2.5,1.14a1.79,1.79,0,0,0,.19,1.87,2.28,2.28,0,0,0,.45.57,13.83,13.83,0,0,1,2.56,1.74c1,.84.43,2.52-1,3.27a1.52,1.52,0,0,1,0,2c-.49.66-1.15.18-1.9-1.25l-3,1.08A4,4,0,0,0,50,71.41c.25,1.37,1.14,2.5,1,3.51-.69,1.46-1.16,2.85-1.7,4l-3,1.09A1.52,1.52,0,0,0,47.6,81.5c1.3.26,2.49-1.14,3.83.56.08.21.31.86.54,1.5a7,7,0,0,1-1.11,1.62c-1.85.91-3.78,1.6-5.63,2.51-.22.08-.28.59-.41.88A20.07,20.07,0,0,1,47.52,90c.29.14.23.64.31.86a1.17,1.17,0,0,1,1.73.1c.37.35.6,1,1,1.56a1.52,1.52,0,0,1-.32,1.81c-.21.08-1.3-.25-1.46-.68a13.07,13.07,0,0,1-1-2.79l-1.93.69a1.53,1.53,0,0,0-1.48,1.27c-.06.5.31.85,1.1,1s1.17.55,1.11,1.06a1.42,1.42,0,0,1-1.48,1.26l-1.93.7c.33,1.58.05,2.16-.8,2.47-1.21.68-2.58.93-3.71,1.82-.56.45-.54,1.17,0,2L41.9,102c.59.27,1.54.9,2.42,1.31.29.14.64-.23,1.28-.46l-.43.15a1.42,1.42,0,0,1-.11-1.65c.27-.59.7-.74,1.44,0,.08.21-.06.51,0,.72a2.48,2.48,0,0,1-.84,1,7.9,7.9,0,0,0,.65,3.16c-.68,1.46-1,3.27-2.69,4.61-1.15.18-2.44.64-3.59.81-.72,0-1.16-.55-1.26-1.48l-3,1.08c-.55,1.17-1,2.55-1.7,4a13,13,0,0,0,2.46,6.15c.44.56,1.16.55,1.94,0-.38-1.07-.69-1.93-1.08-3a36.34,36.34,0,0,0,1.78-3.8c1.73.1,1.9,1.25,2,2.91-1.35,1-.71,3.41-2.72,3.89l1.09,3c-.14.29-.2.79-.42.87-.56.45-1.2.68-1.77,1.13-.27.58-.84,1-1.11,1.61-.9,1.54-1.51,3.21-2.19,4.67.17,1.15,1.32,1,2.06,1.69.4,1.79,2.81,3.1.92,5.24-.88-.41-1.67-.61-2.55-1-.27.59-.63.95-.55,1.17l2.87,7.94c-.24,2-3.06,1.59-3.09,3.54a8.72,8.72,0,0,1,2.49,1.53c-.69,1.45-1.23,2.62-1.78,3.79l-1.93.7c-.65,2.9-.65,2.9,2.64,4.62a9,9,0,0,0-.94,2.77c.73.7,1.67.61,2.74.22.43-.15,1.3.26,1.89.53l-1.78,3.8a10.79,10.79,0,0,0-2.28,1.06c-.34,1.09-.81,2.48-1.55,4.44-.08-.21.51.06,1.23,0,.93-.09,1.77-1.12,2.88-.06a7.28,7.28,0,0,1-1.43,3.42,14,14,0,0,1-3,2.53c1.91,1.25,3.93,1.49,5.41,2.9-.26,1.3-1.48,1.26-2.26,1.78a1,1,0,0,0-.41.88c-.06.51.38,1.07,1.32,1a24.4,24.4,0,0,0,3.86-1.4c2.17.67,1.94,2.7,2.55,4.42.16.43-.33,1.09-.68,1.46a4.51,4.51,0,0,0-2-.75,5.44,5.44,0,0,0-1.87.19c-.22.08-.65.23-.78.52-.32,1.82-2.33,2.3-3.3,3.62a5.8,5.8,0,0,0-1.43,3.43c1,.84,2,.24,2.88-.07.41-.88,1-1.83,1.45-2.71,2.6.52,1.39,3.86,3.22,4.9,2.12,1.18,3.84-2.11,5.9-.43-.82,1.75-1.57,3.72-2.39,5.47.23.65.46,1.29.7,1.93,0,1.95-3.22,1.16-3.09,3.54l3.79,1.79c.3.13.65-.24,1.5-.55a4.45,4.45,0,0,1-.42.16,1.42,1.42,0,0,1-.12-1.66c.28-.58.71-.74,1.44,0,.08.21-.06.5,0,.72a2.46,2.46,0,0,1-.84,1c-.41.87,0,1.44.76,1.42,1.22.05,2.37-.13,3.81-.16-.54,1.17-.74,2-1.29,3.13A19.88,19.88,0,0,0,52,220.6a2,2,0,0,0,2.9.65l-.43.15a1.4,1.4,0,0,1-.11-1.66c.27-.58.7-.73,1.44,0,.08.22-.06.51,0,.72a2.48,2.48,0,0,1-.84,1c-.28.59.09.94-.05,1.23-.74,2-1.78,3.8-2.38,5.47,1.14,2.5,1.14,2.5,2.79,2.39l1.08-.39A2.52,2.52,0,0,1,58.62,233c-.2.8-.55,1.17-.88,2.26a54.63,54.63,0,0,0,2.94,8.15c1,.85,1.46.69,1.58-.32,0-.72-.25-1.37-.19-1.87a4,4,0,0,1,.53-1.89l6.7,3.15a1.7,1.7,0,0,1-1.83,1.64c-1.17,2.12-1.93,3.36-2.48,4.53,1.9,1.25,4.3-.83,6,1.23a8.06,8.06,0,0,1,2.22-.56,39.67,39.67,0,0,0,3.72,1.57c.46,1.28.46,1.28-1.25,1.9l-1.93.7c.93,2.57,1.93,5.36,2.86,7.94l3-1.08c.21-.08.58.27.88.41.07.21.15.43.23.64-.61,1.68-1.51,3.21-2.19,4.67a4.08,4.08,0,0,0,1.88.54,2.44,2.44,0,0,0,1.64-.84c.9-1.54,1.51-3.21,2.19-4.67a5.9,5.9,0,0,1,1.54.9,3.29,3.29,0,0,1,.48,2c0,.72-.76,1.24-.74,2a2.39,2.39,0,0,0,.92,2.57l2,1a19.9,19.9,0,0,0-.94,2.77l.61,1.71c1.19,1.27,2.46.09,3.76.35a1.42,1.42,0,0,1,1.26,1.48l1.93-.7c1.5-.54,2.38-.13,2.92,1.38.23.64.46,1.28.7,1.93l3-1.09c.21-.07.58.28.87.42.08.21.23.64.23.64a50.71,50.71,0,0,1-2.19,4.67c.82.92,1.68.61,2.75.22.64-.23,1.3.26,1.81.32a21.74,21.74,0,0,0-1.16,2.84c1.83,1,3.93,1.49,5.41,2.9a6.85,6.85,0,0,1,.27,2.09c0,.72-.55,1.17-1.49,1.26a12.58,12.58,0,0,0,1,2.79c.45.57,1.24.76,1.59.4a7.6,7.6,0,0,1,.83-1.76c1.11-1.61,2.92-1.29,3.83.56a1.45,1.45,0,0,1,2,0c.29.14.44.57.52.79l1.16,3.21c2.35,1.82,5.54,2.61,8.32,4.28l1,2.79,4.93-1.78,3.79,1.78c.35,2.3-3.14,1.38-2.79,3.68,1.09.33,2.26.88,3.93,1.49l5.14-1.86c2,.24,3.13,1.3,4.73,1.69-1.1,2.34-3.2,1.88-4.76,2.93,0,.72-.1,1.74-.08,2.46a10,10,0,0,0,4.74,2.41c1.07-.39,2.22-.56,2.27-1.79,0-.72-.47-1.29-.49-2-.09-.93.47-1.38,1-1.32l.87.41a18.08,18.08,0,0,0,2.63,1.24l1.47,4.07c-.82,1.76-1.51,3.22-2.33,5,.48,2,.11,4.32,2.79,5.05l1.72-.61a20.45,20.45,0,0,1,2.84,1.15,1.68,1.68,0,0,0,.24-2c-.49-2,0-2.67,1.58-3,.64-.23,1.3.26,1.81.32l.7,1.93c-.41.87-.75,2-1.16,2.84.54,1.5,1,2.79,1.47,4.08l3.79,1.78c.41-.87,1-1.83,1.45-2.7l1.93-.7c1,.12,1.46.69,1,1.35l-2.19,4.67c.87.41,1.83,1,2.7,1.45.39,1.07,1,2.07.15,3.1-1.75-.82-3.71-1.57-5.46-2.39-.14.29-.49.66-.42.87.72,2.65,1.65,5.23,2.58,7.8.23.65,1,.85,2.6.52l.65-.23c2.54,1,3.37-3.4,6.84,2.86.39,1.07,2.93-1.54,2.46-2.84-.87-.41-1.45-3.28-2.52-3.75-1.34-1.7,1.73-1.53.82-3.38-.54-1.51.64-3.61-.33-5-.87-.41,3.19-2.62,2.61-2.9-.08-.21,3.95-1.56,3.88-1.77-3.25-9,5.52,2.36,2.19-6.87.19-.8,7.2,3.85,7.75,2.68l-2.09-5.79a37.57,37.57,0,0,1,1.78-3.8c1.79-.4,2.92,1.37,4.36,1.34l1.54,4.29a13.18,13.18,0,0,1,2.89-.07,21.6,21.6,0,0,1,1.58-3l4.07-1.47c1.17.55,2.41,1.32,3.87,2a14.11,14.11,0,0,1-1,2.55c2.55,1,2.77,1,4.27-2.26,1.58-.33,3.07,1.8,4.69.24,1.75.83,3.72,1.57,5.55,2.61l2.14-.77c-.1-.94,0-1.95-.07-2.89a23.31,23.31,0,0,0-3-1.59l1.24-2.62c.41-.88.54-1.17,1.26-1.19.8.2,1,.84,1.27,1.49.32,1.58.83,1.63,2.33,1.09a1.9,1.9,0,0,1,1.95,0,.81.81,0,0,1,.44.57c-.54,1.16-1.52,2.49-.47,4a24.89,24.89,0,0,0,7,3.29c.56-.44,1.21-.68,1.77-1.12s.55-1.17,0-1.95a1.19,1.19,0,0,1-1.74-.11,18.24,18.24,0,0,1-1-1.56,1.52,1.52,0,0,1,.31-1.81c.22-.08,1.3.26,1.46.69a13.1,13.1,0,0,1,1,2.79,1.17,1.17,0,0,1,1.73.1c.81.92,1.41,1.91,2.31,3,2.11-2.22-.89-3.81-.36-5.7l1.23-2.62c-1.53-.9-1.84-1.76-3.18-3.46-.45-.57.27-.59.64-.23.74.7.47,1.28-.55,1.16a2.3,2.3,0,0,1-1.24-.76C245.81,314.83,246.09,314.24,247,314.87Zm13.58-284.8-5.79,2.09c-.21.08-.58-.27-.87-.41-.37-.35-.31-.86.18-1.52l5.78-2.09c.22-.07.59.28.88.42C261.38,28.83,261.11,29.41,260.62,30.07Zm81.58,192c.82-1.75,2-2.43,4.07-1.47.17,1.15,1.57,2.34-.28,3.25A37.44,37.44,0,0,0,342.2,222.07ZM308.6,75.82c2,.74,2.43,2,1.47,4.07C308,78.93,307.56,77.64,308.6,75.82Zm7.29,14.83c-.3-.14-.8-.2-.88-.41l-.69-1.93c-.08-.22.27-.59.41-.88a.42.42,0,0,1,.64-.23c1.23,0,2,2.19,1.16,3.22C316.39,90.71,316.1,90.57,315.89,90.65ZM64.14,234.88c-.74,2-2,2.43-4.07,1.47C61,234.3,62.32,233.84,64.14,234.88Zm264.64,24.53c-.08-.21-.24-.64-.31-.86.13-.29.27-.58.41-.87.35-.37.86-.31,1.52.18.29.13.23.64.31.85a1.54,1.54,0,0,1,0,2C330.12,261.11,329.24,260.7,328.78,259.41ZM153.21,23.73c-.35.37-.86.31-1.52-.18l.41-.87c.35-.37.86-.31,1.52.18C153.83,22.78,153.56,23.36,153.21,23.73Zm-91,38.44c.37.35.31.86-.17,1.52l-.88-.41c-.37-.35-.31-.86.18-1.52Zm118.31-40,.41-.87c.35-.37.86-.31,1.52.18l-.41.87C181.65,22.68,181.15,22.62,180.49,22.13ZM238.18,29c-.36.37-.86.31-1.52-.18l.41-.88c.35-.37.86-.31,1.52.18Zm87.34,81,.87.41c.37.35.31.86-.18,1.52l-.87-.41C324.83,111.43,324.89,110.92,325.52,110ZM52.44,210.48c-.35.37-.86.31-1.52-.18,0,0,.28-.58.41-.87.35-.37.86-.31,1.52.18C52.93,209.82,52.58,210.19,52.44,210.48Zm293.42-67.59-.87-.41q.3-1.2,1.05-1.11l.88.41C346.72,142.58,346.37,143,345.86,142.89Zm.66,26.68-.87-.41c.19-.8.55-1.17,1.05-1.11l.88.41C347.38,169.26,347,169.63,346.52,169.57Zm1.3,20.39.88.41c-.2.8-.55,1.17-1.06,1.11l-.87-.41Q347.05,189.87,347.82,190Zm-225.32,102c.36.35.3.86-.18,1.52l-.88-.41c-.37-.35-.31-.86.18-1.52Zm222-78.2c.36-.37.86-.31,1.52.18l-.41.88c-.35.37-.86.31-1.52-.18C344.1,214.59,344.38,214,344.51,213.71Z"/><path class="cls-1" d="M244.47,333.26c.54-1.17.6-1.68.31-1.81L241,329.66c-.35.37-.84,1-.76,1.25a54,54,0,0,0,2.09,5.79c2.33,1.1,3.73-.38,5.59-1.29.9-1.53-.43-2.51-.68-3.88a6.57,6.57,0,0,0-2.76,1.73c-.57.45-.59-.28-.24-.64.71-.74,1.29-.47,1.17.55a2.3,2.3,0,0,1-.76,1.24C244.42,334.49,243.84,334.21,244.47,333.26Z"/><path class="cls-1" d="M161.06,335.72l-3,1.08c-.88-.41-2-.75-2.84-1.16a3.12,3.12,0,0,0-.45,2.11c.42,2.51.42,2.51-1.3,3.13l-2.78,1-.55,1.16c.08.22.45.57.66.49,2.45.09,4.44-1.12,6.72-2.18.32-1.81,1.95-2.65,3.3-3.62A1.36,1.36,0,0,0,161.06,335.72Z"/><path class="cls-1" d="M36.79,46.84c-1.47-1.41-3.29.94-4.63-.76l-.69-1.93a1,1,0,0,0-.88-.41c-.51-.06-1.07.39-1,1.32a27.41,27.41,0,0,0,1.47,4.08c-.48.66-.89,1.54-1.52,2.49,1.91,1.25,3.31-.22,4.89-.55C35.79,50.11,35.9,48.37,36.79,46.84Z"/><path class="cls-1" d="M56.2,38.86l-.85.31c-2.58.93-2.58.93-3.86-1.28a2.08,2.08,0,0,0-3.19-.79,6.38,6.38,0,0,0-.9,1.54l1,2.79c1.42-.75,2.47.81,4.34.62a13,13,0,0,0,2.79-1A1.31,1.31,0,0,0,56.2,38.86Z"/><path class="cls-1" d="M176.42,353.46a1.14,1.14,0,0,0-1.31-.26,4.26,4.26,0,0,1-4-.26.67.67,0,0,0-.5-.06c-.77,1.24-1.31,2.41-2.08,3.65l4.09,1.93a8,8,0,0,1,2.22-.56A18.65,18.65,0,0,1,176.42,353.46Z"/><path class="cls-1" d="M361.32,193.82c-.17-1.15-1.05-1.56-2.19-1.39a19,19,0,0,0-3.43,1.24,16.42,16.42,0,0,1-1.45,2.7l-2.79,1c.24.64.47,1.29.7,1.93l4.93-1.78c.41-.88,1-1.83,1.45-2.7Z"/><path class="cls-1" d="M99.05,294.07l3.79,1.78,1.93-.69c.41-.88.67-2.18,1.45-2.71s1.21-.68.47-1.38c-.29-.14-.66-.49-.88-.41a14.73,14.73,0,0,0-6.64,2.4A1.68,1.68,0,0,1,99.05,294.07Z"/><path class="cls-1" d="M33.12,61.5a14.41,14.41,0,0,1-2.55-1c-.87-.41-1.16-.55-1.52-.18a1.45,1.45,0,0,0,0,2c.08.22.23.65.39,1.08a15.13,15.13,0,0,0,2.54,1l.78,2.14c.08.22.58.28.87.41a1,1,0,0,0,1.06-1.1C34.13,64.29,33.66,63,33.12,61.5Z"/><path class="cls-1" d="M127.72,305.06l-3,1.09c-.87-.42-2-.75-2.84-1.16-1.07.39-2.22.56-2.4,2.08l3.5,1.64a6.34,6.34,0,0,0,4.72-1.7A1.44,1.44,0,0,0,127.72,305.06Z"/><path class="cls-1" d="M358.15,228.68l-4.93,1.78c-.73,2.69-.73,2.69,1.39,3.86.41-.87.9-1.54,1.31-2.41.58.27.8.2,1.17.55.66.49,1.24.76,1.81.31a1.45,1.45,0,0,0,0-2A7.65,7.65,0,0,1,358.15,228.68Z"/><path class="cls-1" d="M304.41,54.77l-2.79,1a2.17,2.17,0,0,0-.22,2.75c.68,1.21,1.05,1.56,2.33,1.1.86-.31.86-.31,2-1.93A15.37,15.37,0,0,1,304.41,54.77Z"/><path class="cls-1" d="M15.5,162.45c-2.47-.8-2.47-.8-4.07,1.47.23.65.47,1.29.7,1.93,2.47.81,2.47.81,4.07-1.47C16,163.74,15.74,163.1,15.5,162.45Z"/><path class="cls-1" d="M328.9,71.64c-1.23,0-2.24-.16-3-.14-1.7,1.34-1.8,3.07-2.91,4.69,1.22,0,2.23.16,3,.14C327.47,75.07,327.57,73.33,328.9,71.64Z"/><path class="cls-1" d="M328,97.93c.55-1.17,1.23-2.63,1.78-3.79-.88-.42-2.18-.67-2.49-1.53-.52-.78-.68-1.21-1.38-.47-.14.29-.49.66-.41.87a9.46,9.46,0,0,0,1.7,4.73A3.5,3.5,0,0,1,328,97.93Z"/><path class="cls-1" d="M8.18,213.36l-3.85,1.39c-.43.16-.34,1.09-.48,1.39l3.8,1.78a37.2,37.2,0,0,0,1.56-3.72C9.35,213.91,9,213.56,8.18,213.36Z"/><path class="cls-1" d="M355.23,160.12c-1.27,1.19-1.37,2.92-2.43,4,1.4,1.19,2.32.38,3.18.07a21.22,21.22,0,0,1,1.44-2.71c.9-1.53.83-1.75-.4-1.79A4.42,4.42,0,0,0,355.23,160.12Z"/><path class="cls-1" d="M358.5,161.13l1,2.79a2.17,2.17,0,0,0,2.75.22c1.21-.68,1.56-1,1.09-2.34-.31-.85-.31-.85-1.92-2A16.36,16.36,0,0,1,358.5,161.13Z"/><path class="cls-1" d="M147.56,320.46l-1.93.69a20,20,0,0,0-2.84-1.15c-.51,2.61-.51,2.61,1.61,3.78l3.86-1.39c.21-.08.27-.59.41-.88C148.94,320.93,148.5,320.36,147.56,320.46Z"/><path class="cls-1" d="M209.26,326.32q1.05,2.9,2.09,5.79c.08.22.59.28.88.42.5.06.86-.31,1-1.33l-2.08-5.79c-.08-.21-.59-.27-.88-.41C209.73,324.94,209.46,325.52,209.26,326.32Z"/><path class="cls-1" d="M300.82,320.92c.89-1.53.72-2.69-.6-3.66a16.92,16.92,0,0,0-3.58-1.86c-.9,1.53-.72,2.68.6,3.66A16.92,16.92,0,0,0,300.82,320.92Z"/><path class="cls-1" d="M208.6,3.7c1.83,1,3.11.58,4.07-1.47-.88-.41-2-.74-2.84-1.15S208.66.53,208.31.9a1.43,1.43,0,0,0,0,2C208.58,3,208.52,3.49,208.6,3.7Z"/><path class="cls-1" d="M71.5,30.91a13.07,13.07,0,0,0,2.79-1c.43-.16.41-.88.68-1.46l-3.5-1.65c-.27.58-.84,1-.68,1.46A5.61,5.61,0,0,0,71.5,30.91Z"/><path class="cls-1" d="M65.19,32.22c-1.82-1-3.11-.57-4.07,1.47.88.41,2,.75,2.84,1.16s1.17.55,1.52.18a1.43,1.43,0,0,0,0-2Z"/><path class="cls-1" d="M99.39,27.64a12.58,12.58,0,0,0,2.79-1c.42-.15.41-.87.68-1.46l-3.5-1.64c-.27.58-.84,1-.68,1.46A5.61,5.61,0,0,0,99.39,27.64Z"/><path class="cls-1" d="M143.51,16.32l1.78-3.8c-.91-1.85-2.1-.45-3.25-.28C141.08,14.29,141.76,15.5,143.51,16.32Z"/><path class="cls-1" d="M240.25,13.9c-2.39-.59-2.39-.59-3.85,1.39.6,1,.28,2.81,2.29,2.33A37.2,37.2,0,0,1,240.25,13.9Z"/><path class="cls-1" d="M39.27,103.43a1.56,1.56,0,0,0-1.46,2,34.63,34.63,0,0,0,1.62,4.51,1.58,1.58,0,0,0,1.47-2Z"/><path class="cls-1" d="M294.15,45.14c-.54-1.51-1.16-3.22-1.7-4.72-.16-.43-.88-.42-1.46-.69,0,0-.49.66-.41.87A8.49,8.49,0,0,0,292.42,45C292.86,45.6,293.5,45.37,294.15,45.14Z"/><path class="cls-1" d="M20.94,193c-1,1.83-.35,3,1.47,4.08.41-.88.75-2,1.16-2.84.49-.67.55-1.17.18-1.52a1.44,1.44,0,0,0-1.95,0C21.66,193,21.37,192.84,20.94,193Z"/><path class="cls-1" d="M326.65,91.61a13.07,13.07,0,0,0,2.79-1c.43-.16.41-.88.68-1.46l-3.5-1.65c-.27.59-.84,1-.68,1.46A5.58,5.58,0,0,0,326.65,91.61Z"/><path class="cls-1" d="M338.06,101.08c-.55,1.17-1.24,2.63-1.78,3.8.91,1.85,2.1.45,3.25.28A3,3,0,0,0,338.06,101.08Z"/><path class="cls-1" d="M49.25,224.49c-.6-1-.34-2.3-1.57-2.35s-1,1.33-1.46,2c-.14.29-.28.58-.41.87s-.28.59-.41.88A2.56,2.56,0,0,0,49.25,224.49Z"/><path class="cls-1" d="M356,180.45c-.79-2.86-.42-5.18-3-6.2-1,1.32-.08,2.45.17,3.82C353.61,179.14,354.13,179.92,356,180.45Z"/><path class="cls-1" d="M372,183.17c.58-2.4.58-2.4-1.4-3.86-1,.6-2.8.28-2.32,2.29C369.47,182.15,370.85,182.62,372,183.17Z"/><path class="cls-1" d="M362.83,216.8c1.82,1,3,.36,4.07-1.47-.88-.41-2-.74-2.84-1.15-.66-.49-1.17-.55-1.52-.18a1.43,1.43,0,0,0,0,1.95C362.59,216.16,362.75,216.59,362.83,216.8Z"/><path class="cls-1" d="M351.21,222.21c.22-.08.57-.45.86-.31l2.62,1.23a5.15,5.15,0,0,0,.69-1.46,13.24,13.24,0,0,0-1-2.79l-4.07,1.47A5.76,5.76,0,0,1,351.21,222.21Z"/><path class="cls-1" d="M355.13,226.37c1,.84,2.61.51,3,2.31.21-.08.72,0,.85-.31a2.52,2.52,0,0,0-.3-3.53c-.45-.57-1.89-.53-2.67,0A6.38,6.38,0,0,0,355.13,226.37Z"/><path class="cls-1" d="M352.23,243.18c-1.82-1-3.11-.57-4.07,1.47.88.41,2,.75,2.84,1.16s1.17.55,1.52.18a1.43,1.43,0,0,0,0-2C352.25,243.9,352.31,243.4,352.23,243.18Z"/><path class="cls-1" d="M340.08,253.15a1.54,1.54,0,0,0,1.26,1.48,8.44,8.44,0,0,0,4.58-1.41c.22-.07.41-.87.41-.87-.37-.36-1-.84-1.46-.69A19.07,19.07,0,0,0,340.08,253.15Z"/><path class="cls-1" d="M350.51,263.93c1.83,1,3.12.58,4.07-1.47-.87-.41-2-.74-2.84-1.15s-1.16-.55-1.51-.18a1.44,1.44,0,0,0,0,1.95C350.49,263.21,350.36,263.51,350.51,263.93Z"/><path class="cls-1" d="M157.66,332.34a1.53,1.53,0,0,0,1.26,1.48c.88.41,2.1.45,2.14,1.9,1.42-.76,1.7-1.34,1.39-2.2-.33-1.58-1.28-2.21-2.78-1.67A6.17,6.17,0,0,0,157.66,332.34Z"/><path class="cls-1" d="M299.48,299.09c-1,1.83-.57,3.12,1.47,4.08.41-.88.75-2,1.16-2.84s.55-1.17.18-1.52a1.44,1.44,0,0,0-2,0C300.2,299.07,299.7,299,299.48,299.09Z"/><path class="cls-1" d="M220.37,332.26l2.78-1c1.18-2.12.88-2.26-.88-3.8C220.6,330.23,220.39,330.31,220.37,332.26Z"/><path class="cls-1" d="M217.2,335.58c.76,1.43,1.34,1.7,2.2,1.39,1.79-.4,2.2-1.28,1.66-2.78l-.69-1.93c-1.37.25-1.49,1.26-1.9,2.14C218.28,335.19,217.93,335.56,217.2,335.58Z"/><path class="cls-1" d="M194.75,340.17c1.48-1.26,1.48-1.26,2.48-4.53-2.32-.38-2.53-.3-3.49,1.74Z"/><path class="cls-1" d="M197.68,342.26c-1-.84-2.61-.51-3-2.3-.22.07-.72,0-.86.31a2.51,2.51,0,0,0,.3,3.52c.45.57,1.89.54,2.67,0C197.35,343.36,197.41,342.85,197.68,342.26Z"/><path class="cls-1" d="M207,354.26l-.41.88c-.06.5.31.85,1.32,1l3.86-1.39c.14-.29.28-.58.41-.87.06-.51-.31-.86-1.32-1Z"/><path class="cls-1" d="M214.88,376.15c-.49.66-.77,1.24-.18,1.52l.87.41,3.86-1.39c.49-.66.55-1.17.18-1.52l-.88-.41Z"/><path class="cls-1" d="M124.79,14.1c1-1.82.57-3.11-1.47-4.07C122.28,11.86,122.82,13.36,124.79,14.1Z"/><path class="cls-1" d="M56.2,38.86l1.93-.69a15.21,15.21,0,0,0-1.08-3c-.53-.78-1.25-.76-1.52-.18-.14.29-.49.66-.41.88C55.51,36.93,55.82,37.79,56.2,38.86Z"/><path class="cls-1" d="M64.37,42.7a13.07,13.07,0,0,0,2.79-1c.43-.16.76-1.25.68-1.46A1.52,1.52,0,0,0,66,39.92a5.36,5.36,0,0,0-1.56,1C63.83,41.2,63.85,41.92,64.37,42.7Z"/><path class="cls-1" d="M43.14,70.5A1.53,1.53,0,0,0,44.41,72c.79.2,1.13-.89.66-2.18-.07-.21-.23-.64-.31-.86l-.87-.41q-.77-.09-1,1.11C42.7,69.93,43.07,70.28,43.14,70.5Z"/><path class="cls-1" d="M45.29,75.78c.82.92,3,.15,3.22-1.16a.42.42,0,0,0-.23-.64c-.82-.92-3-.14-3.22,1.16Z"/><path class="cls-1" d="M228.64,19.31c1.28-.47,1.91-1.42,1.25-1.91a1.44,1.44,0,0,0-1.95,0l-.86.31c-.48.66-.76,1.25-.17,1.52.29.14.66.49.87.41Z"/><path class="cls-1" d="M32.89,104.52c-1.83-1-3.12-.58-4.08,1.47C30.85,107,32.14,106.48,32.89,104.52Z"/><path class="cls-1" d="M275.62,24.66a1.53,1.53,0,0,0-1.48,1.26c-.12,1,1,1.35,2.26.89l.85-.31c.14-.3.28-.59.41-.88.06-.51-.31-.86-1.1-1.06A1.42,1.42,0,0,0,275.62,24.66Z"/><path class="cls-1" d="M289.58,26.41a13.1,13.1,0,0,0-1-2.79c-.15-.43-1.24-.76-1.46-.68a1.52,1.52,0,0,0-.31,1.81,5.52,5.52,0,0,0,1,1.56A1.18,1.18,0,0,0,289.58,26.41Z"/><path class="cls-1" d="M303.07,24.21c-.91.82-.14,3,1.16,3.22a.43.43,0,0,0,.65-.23c.91-.82.14-3-1.16-3.22Z"/><path class="cls-1" d="M284.51,37.22c.46,1.28,1.42,1.91,1.9,1.25a1.44,1.44,0,0,0,0-1.95c-.08-.21-.23-.64-.31-.86-.66-.49-1.24-.76-1.52-.18-.14.29-.49.66-.41.88S284.43,37,284.51,37.22Z"/><path class="cls-1" d="M299.91,36.27c1.29-.47,1.91-1.42,1.25-1.91a1.43,1.43,0,0,0-1.94,0l-.86.31c-.49.66-.76,1.25-.18,1.52.29.14.66.49.87.41Z"/><path class="cls-1" d="M304.41,54.77a13.19,13.19,0,0,0,2.78-1c.43-.16.76-1.25.69-1.46a1.53,1.53,0,0,0-1.81-.32,5.11,5.11,0,0,0-1.56,1A1.17,1.17,0,0,0,304.41,54.77Z"/><path class="cls-1" d="M330.63,63l.64-.23a2.29,2.29,0,0,0-1.16-3.22l-.64.23c-.14.3-.49.67-.41.88l.69,1.93C329.83,62.82,330.34,62.88,330.63,63Z"/><path class="cls-1" d="M6.84,188.14c-1.83-1-3.11-.58-4.07,1.47C4.73,190.35,6,189.89,6.84,188.14Z"/><path class="cls-1" d="M25.92,228.3c1.83,1,3.12.58,4.08-1.47C28,225.87,26.67,226.33,25.92,228.3Z"/><path class="cls-1" d="M343.43,126.06a1.52,1.52,0,0,0,1.48-1.26,2.92,2.92,0,0,0-.93-2.58,1.42,1.42,0,0,0-1.94,0C342.5,123.49,343,124.77,343.43,126.06Z"/><path class="cls-1" d="M44.53,240.26l.64-.23A2.29,2.29,0,0,0,44,236.81l-.64.23c-.14.29-.49.66-.41.88l.69,1.93C43.73,240.06,44.24,240.12,44.53,240.26Z"/><path class="cls-1" d="M367.69,174.54c-1.82-1-3.11-.57-4.07,1.47C365.66,177,367,176.51,367.69,174.54Z"/><path class="cls-1" d="M97.49,277.65a13,13,0,0,0-2.78,1c-.43.16-.77,1.24-.69,1.46a1.53,1.53,0,0,0,1.81.32,5.79,5.79,0,0,0,1.56-1.05C98,278.94,98,278.43,97.49,277.65Z"/><path class="cls-1" d="M361.32,193.82a12.58,12.58,0,0,0,1,2.79c.15.43,1.24.76,1.46.69a1.55,1.55,0,0,0,.31-1.82,5.36,5.36,0,0,0-1.05-1.56A1.18,1.18,0,0,0,361.32,193.82Z"/><path class="cls-1" d="M115.48,302.69c1.78-1.12,2-1.92.56-3.84-.08-.21-.59-.27-.88-.41-.21.08-.35.37-.57.45-.13.29-.27.58-.19.8C114.79,300.76,115.17,301.83,115.48,302.69Z"/><path class="cls-1" d="M113.55,303.39a13.07,13.07,0,0,0-1-2.79c-.16-.43-1.25-.77-1.46-.69a1.53,1.53,0,0,0-.32,1.81,5.27,5.27,0,0,0,1,1.57A1.18,1.18,0,0,0,113.55,303.39Z"/><path class="cls-1" d="M354.51,218.59c1.77-1.12,2-1.92.55-3.83-.07-.22-.58-.28-.87-.42-.22.08-.35.37-.57.45-.13.29-.27.58-.19.8C353.89,216.88,354.2,217.73,354.51,218.59Z"/><path class="cls-1" d="M102.32,318.6c1-1.83.58-3.12-1.47-4.08C99.89,316.56,100.36,317.85,102.32,318.6Z"/><path class="cls-1" d="M364.84,228.44a13.07,13.07,0,0,0,2.79-1c.43-.16.76-1.25.69-1.46a1.53,1.53,0,0,0-1.81-.32,5.11,5.11,0,0,0-1.56,1.05C364.17,227.23,364.4,227.88,364.84,228.44Z"/><path class="cls-1" d="M124.45,324.19c-1,1.83-.58,3.12,1.47,4.08C126.87,326.23,126.41,324.94,124.45,324.19Z"/><path class="cls-1" d="M150.06,328.05l.64-.24c.84-1-.15-3.1-1.16-3.21l-.64.23c-.14.29-.49.66-.41.87l.69,1.94C149.26,327.85,149.77,327.91,150.06,328.05Z"/><path class="cls-1" d="M157.66,332.34c-1.13-1.78-1.92-2-3.83-.56-.22.08-.28.58-.42.87.08.22.37.36.45.57a1.18,1.18,0,0,0,.8.2A15.36,15.36,0,0,0,157.66,332.34Z"/><path class="cls-1" d="M145.57,339.12c-1,1.83-.57,3.12,1.47,4.08C147.79,341.23,147.32,340,145.57,339.12Z"/><path class="cls-1" d="M226.37,330.09a1.54,1.54,0,0,0,1.26,1.49c.8.19,1.13-.9.67-2.19-.08-.21-.24-.64-.31-.85l-.88-.42c-.5-.05-.86.31-1.05,1.11C226.14,329.45,226.29,329.88,226.37,330.09Z"/><path class="cls-1" d="M185,355.88a1.53,1.53,0,0,0-1.49,1.26c-.19.8.9,1.13,2.18.67l.86-.31.41-.88q.09-.76-1.11-1.05C185.6,355.43,185.25,355.8,185,355.88Z"/><path class="cls-1" d="M189.65,344.19a12.68,12.68,0,0,0-2.78,1c-.43.15-.76,1.24-.69,1.46A1.52,1.52,0,0,0,188,347a5.26,5.26,0,0,0,1.56-1A1.18,1.18,0,0,0,189.65,344.19Z"/><path class="cls-1" d="M215.34,353.91c-.92.82-.15,3,1.16,3.22a.42.42,0,0,0,.64-.23c.92-.82.14-3-1.16-3.22C215.69,353.54,215.55,353.83,215.34,353.91Z"/><path class="cls-1" d="M191.83,365.31c1.83,1,3.12.57,4.07-1.47C193.86,362.88,192.58,363.34,191.83,365.31Z"/><path class="cls-1" d="M209.58,383.64c1.83,1,3.12.57,4.08-1.47C211.61,381.21,210.33,381.67,209.58,383.64Z"/><path class="cls-1" d="M60.15,262.76c-1.83-1-3.12-.58-4.08,1.47C57.9,265.27,59.19,264.8,60.15,262.76Z"/><path class="cls-1" d="M280.44,342.35c1-1.83.57-3.12-1.47-4.08C278.23,340.23,278.69,341.52,280.44,342.35Z"/><path class="cls-1" d="M252.63,357.24c1.28-.47,1.91-1.42,1.25-1.91a1.44,1.44,0,0,0-1.95,0l-.86.31c-.49.66-.76,1.25-.18,1.52.3.14.66.49.88.42C251.85,357.76,252.2,357.39,252.63,357.24Z"/><path class="cls-1" d="M131.55,3.12q-.09.76,1.11,1l.41-.87c.06-.51-.31-.86-1.11-1.06C132,2.24,131.69,2.83,131.55,3.12Z"/><path class="cls-1" d="M69.21,22.53q.75.09,1.05-1.11L69.38,21c-.5-.06-.85.31-1,1.1Z"/><path class="cls-1" d="M61.48,28c-.75-1.42-1-1.56-2.62-1.23C59.4,28.25,59.61,28.17,61.48,28Z"/><path class="cls-1" d="M61.79,28.84c.08.21.37.35.88.41a.82.82,0,0,0,.72,0c.49-.66.55-1.16,0-1.44s-1.16-.55-1.65.11C61.27,28.06,61.5,28.7,61.79,28.84Z"/><path class="cls-1" d="M100.29,17.37c.66.49,1.17.55,1.52.18l.41-.88c-.66-.49-1.17-.55-1.52-.18C100.27,16.65,100.43,17.08,100.29,17.37Z"/><path class="cls-1" d="M34.35,44.08q.75.09,1-1.11l-.87-.41c-.51-.06-.86.31-1.06,1.11Z"/><path class="cls-1" d="M70,32.9s.66.49.87.41a2.25,2.25,0,0,0,.77-1.25c.12-1-.47-1.28-1.17-.55A5,5,0,0,0,70,32.9Z"/><path class="cls-1" d="M87.76,29.65c.22-.07.35-.37.41-.87a.85.85,0,0,0,0-.72c-.67-.49-1.17-.55-1.45,0s-.54,1.17.12,1.66C86.9,30,87.33,29.81,87.76,29.65Z"/><path class="cls-1" d="M47,44.35c1.42-.75,1.56-1.05,1.23-2.63C46.85,42.48,46.71,42.77,47,44.35Z"/><path class="cls-1" d="M43.21,43.8s-.49.66-.41.87c.36.35.81.92,1.24.76,1,.12,1.29-.46.55-1.16C44.43,43.84,43.71,43.86,43.21,43.8Z"/><path class="cls-1" d="M24.38,52.05l.41-.88c-.66-.49-1.16-.55-1.52-.18-.13.29-.41.88-.41.88C23.6,52.57,24,52.42,24.38,52.05Z"/><path class="cls-1" d="M163.77,5l.88.42c.48-.67.54-1.17.17-1.52L164,3.45C163.46,4.12,163.4,4.62,163.77,5Z"/><path class="cls-1" d="M120.59,19.26c.06-.51-.31-.86-1.11-1.06,0,0-.27.59-.41.88-.06.5.31.86,1.11,1.05C120.39,20.06,120.45,19.55,120.59,19.26Z"/><path class="cls-1" d="M85.44,32s.66.48.88.41a2.29,2.29,0,0,0,.76-1.25c.12-1-.47-1.29-1.17-.55C85.7,30.64,85.5,31.44,85.44,32Z"/><path class="cls-1" d="M74.94,35.74c.06-.51-.31-.86-1.11-1.06l-.41.88c-.06.5.31.86,1.11,1C74.74,36.54,74.8,36,74.94,35.74Z"/><path class="cls-1" d="M45.11,45.05c.76,1.42,1.34,1.7,1.91,1.25a1.45,1.45,0,0,0,0-1.95Z"/><path class="cls-1" d="M41.29,47.88c.06-.5-.31-.86-1.11-1.05l-.41.87c-.06.51.31.86,1.11,1.06Z"/><path class="cls-1" d="M78.79,37c.51.06.86-.31,1-1.1L79,35.49c-.51-.06-.86.31-1.06,1.11Z"/><path class="cls-1" d="M148.93,13.88c.5.06.86-.31,1-1.11l-.87-.41c-.51-.06-.86.31-1.06,1.11C148.13,13.68,148.64,13.74,148.93,13.88Z"/><path class="cls-1" d="M130.63,20.24l.88.41c.49-.66.55-1.17.18-1.52l-.88-.41A1,1,0,0,0,130.63,20.24Z"/><path class="cls-1" d="M114.77,26l.88.41c.49-.66.55-1.17.18-1.52l-.88-.41A1,1,0,0,0,114.77,26Z"/><path class="cls-1" d="M103,29s-.49.66-.41.88c.37.35.81.92,1.24.76,1,.12,1.29-.46.55-1.17A2.3,2.3,0,0,0,103,29Z"/><path class="cls-1" d="M174.41,6.62c.06-.5-.31-.86-1.11-1l-.41.87c-.06.51.31.86,1.11,1.06C174.21,7.42,174.27,6.91,174.41,6.62Z"/><path class="cls-1" d="M153.89,16.21l.87.41c.49-.66.55-1.16.18-1.52l-.87-.41C153.58,15.35,153.52,15.86,153.89,16.21Z"/><path class="cls-1" d="M46.08,55.13c.06-.51-.31-.86-1.11-1.06l-.41.88c-.06.5.31.86,1.11,1Z"/><path class="cls-1" d="M40.84,56.05l-.41.87c.66.49,1.17.55,1.52.18l.41-.87C41.7,55.74,41.19,55.68,40.84,56.05Z"/><path class="cls-1" d="M51.4,54.42c-.14.29-.41.88-.41.88.66.49,1.16.55,1.51.18l.42-.88C52.25,54.11,51.75,54.05,51.4,54.42Z"/><path class="cls-1" d="M187.29,8.76l.88.41c.49-.66.55-1.16.18-1.52l-.88-.41C187,7.9,186.92,8.41,187.29,8.76Z"/><path class="cls-1" d="M48.24,57.74l-.42.88c.67.49,1.17.55,1.52.18.14-.29.41-.88.41-.88C49.09,57.44,48.59,57.38,48.24,57.74Z"/><path class="cls-1" d="M39.73,66.39l.87.42c.49-.67.55-1.17.18-1.52l-.87-.42C39.42,65.54,39.36,66,39.73,66.39Z"/><path class="cls-1" d="M236,.41,235.07,0c-.49.66-.55,1.17-.18,1.52l.88.41A1,1,0,0,0,236,.41Z"/><path class="cls-1" d="M46.79,66.51c.51.06.86-.31,1.06-1.11L47,65q-.75-.09-1,1.11Z"/><path class="cls-1" d="M246.91.58c-.51-.06-.86.31-1.06,1.11l.88.41c.5.06.86-.31,1.05-1.11Z"/><path class="cls-1" d="M55.63,68.17c-.76-1.42-1.34-1.7-1.91-1.25a1.45,1.45,0,0,0,0,2Z"/><path class="cls-1" d="M193.85,20.22q.75.09,1.05-1.11L194,18.7c-.51-.06-.86.31-1.06,1.11Z"/><path class="cls-1" d="M44.8,79.12s-.49.66-.41.87c.37.35.81.92,1.24.77,1,.12,1.29-.47.55-1.17C46,79.16,45.31,79.18,44.8,79.12Z"/><path class="cls-1" d="M263.8,9.67c.14-.29.41-.88.41-.88-.66-.49-1.17-.55-1.52-.18l-.41.88C262.94,10,263.45,10,263.8,9.67Z"/><path class="cls-1" d="M245,9.53l-.88-.41c-.49.66-.55,1.16-.18,1.52l.88.41A1,1,0,0,0,245,9.53Z"/><path class="cls-1" d="M221.18,18.12l-.87-.42c-.49.66-.55,1.17-.18,1.52l.88.41A1,1,0,0,0,221.18,18.12Z"/><path class="cls-1" d="M277.26,1.26q-.09.75,1.11,1.05l.41-.88q.09-.75-1.11-1C277.6.16,277.4,1,277.26,1.26Z"/><path class="cls-1" d="M34.56,93.72c-.48.67-.54,1.17-.17,1.52l.87.42c.49-.66.55-1.17.18-1.52Z"/><path class="cls-1" d="M273.67,9.84c-.49.66-.55,1.17-.18,1.52l.88.41c.49-.66.54-1.17.18-1.52S274,10,273.67,9.84Z"/><path class="cls-1" d="M260,15q-.76-.09-1,1.11l.87.41c.51.06.86-.31,1.06-1.11Z"/><path class="cls-1" d="M294.61,13.26c.06-.51-.31-.86-1.11-1.06l-.41.88q-.09.76,1.11,1.05Z"/><path class="cls-1" d="M279.1,10.79l-.88-.41c-.48.66-.54,1.17-.17,1.52l.87.41C279.41,11.65,279.47,11.14,279.1,10.79Z"/><path class="cls-1" d="M249.81,21.61c.67.48,1.17.54,1.52.18l.41-.88c-.66-.49-1.16-.55-1.51-.18Z"/><path class="cls-1" d="M41.9,95.93s-.49.66-.41.87c.37.36.81.92,1.24.77,1,.12,1.29-.47.55-1.17A2.3,2.3,0,0,0,41.9,95.93Z"/><path class="cls-1" d="M280,20.66l.41-.88c-.66-.49-1.16-.55-1.51-.18l-.42.88C279.14,21,279.64,21,280,20.66Z"/><path class="cls-1" d="M280.45,24.61l.88.42c.48-.67.54-1.17.17-1.52l-.87-.42A1,1,0,0,0,280.45,24.61Z"/><path class="cls-1" d="M289.89,27.27c.07.22.37.35.87.41a.85.85,0,0,0,.72,0c.49-.67.55-1.17,0-1.45s-1.17-.55-1.66.12A1.32,1.32,0,0,0,289.89,27.27Z"/><path class="cls-1" d="M3.64,131.57l.41-.88c-.66-.49-1.17-.55-1.52-.18l-.41.88C2.78,131.88,3.29,131.94,3.64,131.57Z"/><path class="cls-1" d="M315.81,30.33c.13-.29.41-.87.41-.87-.66-.49-1.17-.55-1.52-.18l-.41.87C315,30.64,315.46,30.7,315.81,30.33Z"/><path class="cls-1" d="M7.41,135.3c-.51-.06-.86.31-1.06,1.11l.88.41q.76.09,1-1.11A1.7,1.7,0,0,1,7.41,135.3Z"/><path class="cls-1" d="M294.62,35c.06-.5-.31-.86-1.11-1.05l-.41.87c-.06.51.31.86,1.11,1.06C294.21,35.9,294.48,35.31,294.62,35Z"/><path class="cls-1" d="M15.86,118.43c.66.49,1.16.54,1.52.18.13-.3.41-.88.41-.88-.66-.49-1.17-.55-1.52-.18C16.13,117.84,16,118.13,15.86,118.43Z"/><path class="cls-1" d="M.26,143.7l.88.41c.49-.66.55-1.17.18-1.52l-.88-.41A1,1,0,0,0,.26,143.7Z"/><path class="cls-1" d="M28.82,135.57l.88.42c.49-.67.55-1.17.18-1.52l-.88-.42C28.51,134.72,28.45,135.22,28.82,135.57Z"/><path class="cls-1" d="M294.46,46c.07.21.37.35.87.41a.85.85,0,0,0,.72,0c.49-.66.55-1.17,0-1.44s-1.17-.55-1.66.11C294.15,45.14,294.3,45.57,294.46,46Z"/><path class="cls-1" d="M312.37,53.35q.09-.75-1.11-1.05l-.41.87c-.06.51.31.86,1.11,1.06C312.17,54.15,312.23,53.65,312.37,53.35Z"/><path class="cls-1" d="M326.94,50.76l.41-.87c-.66-.49-1.17-.55-1.52-.18l-.41.87A1,1,0,0,0,326.94,50.76Z"/><path class="cls-1" d="M325.72,54.11q-.75-.09-1.05,1.11l.88.41q.75.09,1.05-1.11C326.81,54.45,326,54.25,325.72,54.11Z"/><path class="cls-1" d="M20.22,166.81c-.13.29-.41.88-.41.88.66.49,1.17.55,1.52.18.14-.29.41-.88.41-.88C21.08,166.5,20.58,166.44,20.22,166.81Z"/><path class="cls-1" d="M23.55,170l-.42.87c.67.49,1.17.55,1.52.19l.41-.88C24.4,169.67,23.9,169.61,23.55,170Z"/><path class="cls-1" d="M312,68.52q-.09.75,1.11,1l.41-.87c.06-.51-.31-.86-1.1-1.06C312.22,67.72,312.16,68.22,312,68.52Z"/><path class="cls-1" d="M22.51,186.6c-.05.51.31.86,1.11,1.06,0,0,.28-.59.41-.88.06-.51-.31-.86-1.1-1.05C22.63,185.59,22.65,186.31,22.51,186.6Z"/><path class="cls-1" d="M335.43,85.05c.66.49,1.16.55,1.51.18.14-.29.41-.88.41-.88-.66-.48-1.16-.54-1.51-.18C335.7,84.47,335.56,84.76,335.43,85.05Z"/><path class="cls-1" d="M333.41,90.87l.87.41c.49-.66.55-1.16.18-1.52l-.87-.41A1,1,0,0,0,333.41,90.87Z"/><path class="cls-1" d="M341.5,94.5l.87.41c.49-.66.55-1.17.18-1.52l-.87-.41C341.19,93.64,341.13,94.15,341.5,94.5Z"/><path class="cls-1" d="M350.36,100.28l.88.41c.49-.66.55-1.17.18-1.52l-.88-.41C350.05,99.42,350,99.92,350.36,100.28Z"/><path class="cls-1" d="M32.5,214.29c-.06.5.31.85,1.1,1.05,0,0,.28-.58.41-.87.06-.51-.3-.86-1.1-1.06C32.69,213.49,32.63,214,32.5,214.29Z"/><path class="cls-1" d="M28,216.63c.06-.5-.31-.86-1.1-1,0,0-.28.58-.41.87-.06.51.31.86,1.1,1.06C27.82,217.43,27.88,216.92,28,216.63Z"/><path class="cls-1" d="M345.19,106.75c.06-.51-.31-.86-1.11-1.06l-.41.88c-.06.51.31.86,1.11,1.06Z"/><path class="cls-1" d="M18.81,223.35q-.76-.09-1,1.11l.87.41q.77.09,1.05-1.11Z"/><path class="cls-1" d="M341.4,111c.22-.08.35-.37.41-.88a.82.82,0,0,0,0-.72c-.66-.49-1.16-.55-1.44,0s-.54,1.16.12,1.65C340.62,111.55,341.26,111.32,341.4,111Z"/><path class="cls-1" d="M355.53,112.1c-.49.66-.55,1.16-.18,1.52l.87.41c.49-.66.55-1.17.18-1.52C356.32,112.29,356,112.16,355.53,112.1Z"/><path class="cls-1" d="M339.08,113.32s.66.49.87.41a2.22,2.22,0,0,0,.77-1.24c.12-1-.47-1.29-1.17-.55C339.34,112,339.35,112.74,339.08,113.32Z"/><path class="cls-1" d="M355.32,137.54c.21-.08.35-.38.41-.88a.82.82,0,0,0,0-.72c-.66-.49-1.16-.55-1.44,0s-.55,1.17.11,1.66A1.41,1.41,0,0,0,355.32,137.54Z"/><path class="cls-1" d="M355.16,139.78c-.23-.65-.47-1.29-.7-1.94-1.42.76-1.56,1-1.23,2.63Z"/><path class="cls-1" d="M355.47,140.63c.07.22.37.36.87.42a.85.85,0,0,0,.72,0c.49-.66.55-1.17,0-1.44s-1.17-.55-1.66.11A1.38,1.38,0,0,0,355.47,140.63Z"/><path class="cls-1" d="M359.18,127.32c.5.06.86-.31,1.05-1.11l-.87-.41c-.51-.06-.86.31-1.06,1.1C358.38,127.12,358.89,127.18,359.18,127.32Z"/><path class="cls-1" d="M67.59,251.82q.09-.75-1.11-1l-.41.88q-.09.75,1.11,1C67.39,252.62,67.45,252.12,67.59,251.82Z"/><path class="cls-1" d="M70.88,253.55l1.92-.7c-.75-1.42-1.33-1.7-1.9-1.25A1.52,1.52,0,0,0,70.88,253.55Z"/><path class="cls-1" d="M69.63,255.46s.66.48.87.41c.35-.37.92-.82.76-1.25.12-1-.46-1.29-1.16-.55A2.18,2.18,0,0,0,69.63,255.46Z"/><path class="cls-1" d="M71.1,259.53l.87.41c.49-.66.55-1.16.18-1.52l-.88-.41C70.79,258.67,70.73,259.18,71.1,259.53Z"/><path class="cls-1" d="M363.71,156.09l.87.42c.49-.67.55-1.17.18-1.52l-.88-.42C363.4,155.24,363.34,155.74,363.71,156.09Z"/><path class="cls-1" d="M74.42,262.7s.66.49.87.41c.35-.37.92-.81.76-1.24.12-1-.46-1.29-1.16-.55A2.28,2.28,0,0,0,74.42,262.7Z"/><path class="cls-1" d="M369,161.45c.13-.29.41-.88.41-.88-.66-.49-1.17-.55-1.52-.18l-.41.88C368.17,161.76,368.68,161.82,369,161.45Z"/><path class="cls-1" d="M365.88,168.16c-.06.51.31.86,1.11,1.06,0,0,.27-.59.41-.88q.09-.75-1.11-1.05C366.07,167.37,366,167.87,365.88,168.16Z"/><path class="cls-1" d="M360.63,174.43l-.88-.42c-.49.67-.55,1.17-.18,1.52l.88.42A1,1,0,0,0,360.63,174.43Z"/><path class="cls-1" d="M371.49,176.33q.75.09,1.05-1.11l-.88-.41c-.5-.06-.85.31-1.05,1.1C370.4,176,371.19,176.19,371.49,176.33Z"/><path class="cls-1" d="M90.7,277s.66.49.87.41a2.19,2.19,0,0,0,.77-1.24c.12-1-.47-1.29-1.17-.55C91,275.86,91,276.37,90.7,277Z"/><path class="cls-1" d="M72.3,287.72c-.06.51.31.86,1.1,1l.41-.87c.06-.51-.31-.86-1.1-1.06C72.63,286.63,72.36,287.21,72.3,287.72Z"/><path class="cls-1" d="M68,290c.06-.51-.31-.86-1.11-1.06,0,0-.27.59-.41.88q-.09.76,1.11,1.05Z"/><path class="cls-1" d="M89.83,288.66c.06-.5-.3-.85-1.1-1.05,0,0-.28.58-.41.87-.06.51.31.86,1.1,1.06C89.72,289.68,89.7,289,89.83,288.66Z"/><path class="cls-1" d="M369.74,190.3q.76.09,1.05-1.11l-.87-.41c-.51-.06-.86.31-1.05,1.1C368.94,190.1,369.45,190.16,369.74,190.3Z"/><path class="cls-1" d="M95.32,289.11l.88.41c.49-.66.55-1.17.18-1.52l-.88-.41A1,1,0,0,0,95.32,289.11Z"/><path class="cls-1" d="M113.3,296s.66.49.87.41c.35-.37.92-.81.76-1.24.12-1-.46-1.29-1.16-.55C113.55,294.65,113.36,295.45,113.3,296Z"/><path class="cls-1" d="M98.66,301.73c.14-.29.41-.88.41-.88-.66-.49-1.16-.55-1.51-.18l-.42.88C97.81,302,98.31,302.1,98.66,301.73Z"/><path class="cls-1" d="M106.82,302.18q-.09.76,1.11,1.05l.41-.87c.06-.51-.31-.86-1.11-1.06C107,301.38,107,301.89,106.82,302.18Z"/><path class="cls-1" d="M82.27,312c.13-.29.41-.87.41-.87-.66-.49-1.17-.55-1.52-.18l-.41.87C81.41,312.32,81.92,312.38,82.27,312Z"/><path class="cls-1" d="M115.48,302.69l-1.93.7c.76,1.42,1.34,1.7,1.91,1.25A1.43,1.43,0,0,0,115.48,302.69Z"/><path class="cls-1" d="M109.46,306.81l.41-.88c-.66-.49-1.17-.55-1.52-.18l-.41.88C108.6,307.11,109.11,307.17,109.46,306.81Z"/><path class="cls-1" d="M362.37,221.58c.66.49,1.16.55,1.52.18.13-.3.41-.88.41-.88-.66-.49-1.17-.55-1.52-.18C362.56,220.78,362.5,221.29,362.37,221.58Z"/><path class="cls-1" d="M371.28,223.45l.41-.87c-.66-.49-1.17-.55-1.52-.18-.13.29-.41.87-.41.87A1,1,0,0,0,371.28,223.45Z"/><path class="cls-1" d="M363.38,230.43s.66.49.87.41c.36-.37.92-.82.77-1.24.12-1-.47-1.29-1.17-.55C363.64,229.12,363.44,229.92,363.38,230.43Z"/><path class="cls-1" d="M138.62,314.47c.22-.08.35-.37.41-.88a.82.82,0,0,0,0-.72c-.66-.49-1.16-.55-1.44,0s-.54,1.17.12,1.65A.56.56,0,0,0,138.62,314.47Z"/><path class="cls-1" d="M357.43,237.43q.75.09,1.05-1.11l-.88-.41q-.75-.09-1.05,1.11C356.63,237.23,357.13,237.29,357.43,237.43Z"/><path class="cls-1" d="M136.51,316.68s.66.49.88.42a2.29,2.29,0,0,0,.76-1.25c.12-1-.46-1.29-1.17-.55A2.3,2.3,0,0,0,136.51,316.68Z"/><path class="cls-1" d="M353.53,240.05c-.06.5.31.86,1.1,1l.41-.87c.06-.51-.31-.86-1.1-1.06Z"/><path class="cls-1" d="M143.36,328.28q.76.09,1-1.11l-.87-.41c-.51-.06-.86.31-1.06,1.11Z"/><path class="cls-1" d="M340.27,257.69s-.49.66-.41.88c.36.35.81.91,1.24.76,1,.12,1.29-.47.55-1.17C341.57,258,340.77,257.75,340.27,257.69Z"/><path class="cls-1" d="M344.87,260.39c-.75-1.42-1-1.56-2.62-1.23C343,260.58,343.3,260.72,344.87,260.39Z"/><path class="cls-1" d="M345.18,261.25c.08.21.37.35.88.41a.82.82,0,0,0,.72,0c.49-.66.55-1.16,0-1.44s-1.16-.55-1.65.12C344.87,260.39,345.11,261,345.18,261.25Z"/><path class="cls-1" d="M337.25,264.11c.08.22.37.35.88.41a.86.86,0,0,0,.72,0c.49-.66.55-1.17,0-1.44s-1.16-.55-1.65.11C336.73,263.33,337.18,263.9,337.25,264.11Z"/><path class="cls-1" d="M134.08,343.52c-.51-.06-.86.31-1.06,1.1l.88.42c.5.06.86-.31,1-1.11Z"/><path class="cls-1" d="M128.14,351.24c.06-.51-.31-.86-1.11-1.06l-.41.88c-.06.5.31.86,1.11,1.05C127.94,352,128,351.53,128.14,351.24Z"/><path class="cls-1" d="M344.15,277.87c.06-.5-.31-.86-1.1-1.05l-.42.87c-.05.51.31.86,1.11,1.06Z"/><path class="cls-1" d="M203.19,328.27c.66.49,1.16.55,1.51.18l.41-.87c-.66-.49-1.16-.55-1.51-.18C203.46,327.69,203.54,327.9,203.19,328.27Z"/><path class="cls-1" d="M152.12,347.19l.87.41c.49-.66.55-1.17.18-1.52l-.88-.41C151.81,346.33,151.75,346.84,152.12,347.19Z"/><path class="cls-1" d="M136.09,357.83c.5.06.86-.31,1-1.11l-.87-.41c-.51-.06-.86.31-1.06,1.11Z"/><path class="cls-1" d="M309.07,296.11l-.41.88c.66.49,1.16.55,1.52.18l.41-.87C309.93,295.81,309.42,295.75,309.07,296.11Z"/><path class="cls-1" d="M154.05,352.56c-.06.5.31.86,1.11,1.05l.41-.87c.06-.51-.31-.86-1.11-1.06C154.38,351.47,154.19,352.27,154.05,352.56Z"/><path class="cls-1" d="M290.88,306.8c.21-.07.35-.37.41-.87a.82.82,0,0,0,0-.72c-.66-.49-1.16-.55-1.44,0s-.55,1.17.12,1.66C290,307.11,290.45,307,290.88,306.8Z"/><path class="cls-1" d="M288.56,309.1s.66.49.87.41a2.3,2.3,0,0,0,.77-1.25c.11-1-.47-1.28-1.17-.55C288.81,307.79,288.62,308.59,288.56,309.1Z"/><path class="cls-1" d="M215.3,334.33s-.49.66-.41.87a2.26,2.26,0,0,0,1.24.77c1,.12,1.29-.47.55-1.17C216.53,334.37,215.81,334.39,215.3,334.33Z"/><path class="cls-1" d="M158.37,355.12c-.51-.06-.86.31-1.06,1.11l.88.41q.75.09,1.05-1.11C159.16,355.32,158.66,355.26,158.37,355.12Z"/><path class="cls-1" d="M164.07,355.49c-.06.5.31.86,1.11,1.05l.41-.87c.06-.51-.31-.86-1.11-1.06Z"/><path class="cls-1" d="M137.71,365l-.88-.42c-.49.66-.55,1.17-.18,1.52l.88.41A1,1,0,0,0,137.71,365Z"/><path class="cls-1" d="M150.27,362.9l-.88-.42c-.48.66-.54,1.17-.17,1.52l.87.42C150.58,363.75,150.64,363.25,150.27,362.9Z"/><path class="cls-1" d="M248.09,331.22c.22-.07.35-.37.41-.87a.81.81,0,0,0,0-.72c-.66-.49-1.16-.55-1.44,0s-.54,1.17.12,1.66C247.23,331.53,247.66,331.38,248.09,331.22Z"/><path class="cls-1" d="M131.48,372.59c.06-.51-.31-.86-1.11-1.06l-.41.88q-.09.76,1.11,1Z"/><path class="cls-1" d="M146.11,369.49q.09-.76-1.11-1.05l-.41.87c-.06.51.31.86,1.11,1.06A1.72,1.72,0,0,1,146.11,369.49Z"/><path class="cls-1" d="M126.17,376.69c.06-.51-.3-.86-1.1-1.06l-.41.88c-.06.5.31.85,1.1,1.05Z"/><path class="cls-1" d="M222.25,344.19q.09-.76-1.11-1.05l-.41.87c-.06.51.31.86,1.11,1.06C221.91,345.28,222,344.77,222.25,344.19Z"/><path class="cls-1" d="M236.14,340.39c-.51-.06-.86.31-1.06,1.11l.88.41q.75.09,1-1.11Z"/><path class="cls-1" d="M184.67,361.58c.66.49,1.17.55,1.52.18l.41-.87c-.66-.49-1.16-.55-1.52-.18C185,361,185,361.21,184.67,361.58Z"/><path class="cls-1" d="M162.68,375.15q.76.09,1-1.11l-.87-.41q-.77-.09-1.05,1.11Z"/><path class="cls-1" d="M144.35,380.07s-.49.66-.41.88a2.3,2.3,0,0,0,1.24.76c1,.12,1.29-.47.55-1.17A4.82,4.82,0,0,0,144.35,380.07Z"/><path class="cls-1" d="M330.6,288.1c.06-.51-.31-.86-1.11-1.06l-.41.88c-.06.51.31.86,1.11,1.06C330.19,289,330.46,288.39,330.6,288.1Z"/><path class="cls-1" d="M254.17,344.07l.88.41c.49-.66.55-1.17.18-1.52l-.88-.41C253.87,343.21,253.81,343.71,254.17,344.07Z"/><path class="cls-1" d="M146.64,382.39c.08.22.37.36.88.42a.85.85,0,0,0,.72,0c.49-.66.55-1.17,0-1.44s-1.16-.55-1.65.11C146.12,381.61,146.27,382,146.64,382.39Z"/><path class="cls-1" d="M189.39,339.43l.41-.87c-.66-.49-1.16-.55-1.51-.18-.14.29-.41.88-.41.88C188.54,339.74,189,339.8,189.39,339.43Z"/><path class="cls-1" d="M156.93,387.41l-.88-.41c-.48.66-.54,1.17-.17,1.52l.87.41C157.24,388.27,157.3,387.77,156.93,387.41Z"/><path class="cls-1" d="M150.57,392.62l.88.41c.48-.66.54-1.17.17-1.52l-.87-.41C150.26,391.76,150.2,392.27,150.57,392.62Z"/><path class="cls-1" d="M199.73,346.62l.88.41c.49-.66.55-1.17.18-1.52l-.88-.41A1,1,0,0,0,199.73,346.62Z"/><path class="cls-1" d="M192.27,350.77c-.06.5.31.86,1.11,1.05l.41-.87c.06-.51-.31-.86-1.11-1.06Z"/><path class="cls-1" d="M324.67,312.51c-.51-.06-.86.31-1.06,1.1l.88.42c.5.06.86-.31,1.05-1.11Z"/><path class="cls-1" d="M200.86,360.11c.06-.51-.31-.86-1.11-1.06l-.41.88c-.06.5.31.86,1.11,1.05Z"/><path class="cls-1" d="M251.51,379c.5.06.85-.31,1.05-1.1l-.88-.42q-.75-.09-1.05,1.11C250.71,378.79,251.21,378.85,251.51,379Z"/><path class="cls-1" d="M227.21,387.51l.87.41c.49-.66.55-1.16.18-1.52l-.87-.41C226.9,386.65,226.84,387.16,227.21,387.51Z"/><path class="cls-1" d="M227,362.07l.87.41c.49-.66.55-1.16.18-1.52l-.87-.41C226.4,361.08,226.55,361.51,227,362.07Z"/><path class="cls-1" d="M292.9,335.91c.13-.29.41-.88.41-.88-.66-.49-1.17-.55-1.52-.18-.14.29-.41.88-.41.88A1,1,0,0,0,292.9,335.91Z"/><path class="cls-1" d="M293.6,341.23c-.06.51.31.86,1.11,1.06l.41-.88c.06-.51-.31-.86-1.1-1.05Z"/><path class="cls-1" d="M289.76,346l.41-.88c-.66-.49-1.17-.55-1.52-.18l-.41.88C288.9,346.33,289.41,346.39,289.76,346Z"/><path class="cls-1" d="M368.66,254.48l.41-.88c-.66-.49-1.17-.55-1.52-.18l-.41.87A1,1,0,0,0,368.66,254.48Z"/><path class="cls-1" d="M267.59,341.65c-.5-.06-.85.31-1,1.1l.88.42q.75.09,1.05-1.11C268.68,342,267.89,341.78,267.59,341.65Z"/><path class="cls-1" d="M236.58,370.5c-.06.51.31.86,1.1,1.05l.42-.87c.05-.51-.31-.86-1.11-1.06C236.91,369.41,236.71,370.21,236.58,370.5Z"/><path class="cls-1" d="M247.6,360.75l.87.41c.49-.66.55-1.17.18-1.52l-.88-.41C247,359.75,247.15,360.18,247.6,360.75Z"/><path class="cls-1" d="M241.93,350.42l.88.41c.49-.66.55-1.16.18-1.51l-.88-.42C241.62,349.57,241.57,350.07,241.93,350.42Z"/><path class="cls-1" d="M341.36,290.28c.06-.51-.31-.86-1.11-1.06l-.41.88c-.06.51.31.86,1.11,1.06Z"/><path class="cls-1" d="M190.51,343.88c.22-.08.35-.37.41-.87a.85.85,0,0,0,0-.72c-.67-.49-1.17-.55-1.45,0s-.54,1.17.12,1.66C189.65,344.19,190.3,344,190.51,343.88Z"/></svg>