<svg id="Layer_1" data-name="Layer 1" xmlns="http://www.w3.org/2000/svg" viewBox="0 0 129 5"><defs><style>.cls-1{fill:#feefd3;}</style></defs><path class="cls-1" d="M129,2.5c0-.31-.2-.38-1.16-.41-.16,0-.41,0-.57,0-2.49-.09-5-.12-7.49-.21L113,1.72c-1.37,0-2.74,0-4.11-.05l-6.76-.3a20.58,20.58,0,0,0-2.57-.1C94.16,1.3,52.68.09,47.26.17c-2.59,0-5.09,1-7.75,1C37,1.09,34.43,1,31.86.9c-1.78,0-3.56,0-5.34,0-.81,0-1.63.09-2.44.13-1.79.06-3.59.22-5.44.13a65.72,65.72,0,0,0-7.45.11,17,17,0,0,1-2.34-.07C8,1.13,7.1-.08,6.2,0,4.82.07,3.29,1.1,1.9,1.22a5.8,5.8,0,0,0-1.33.23c-.51.18-.69-.09-.49.24s.76.41,1.38.6a9.66,9.66,0,0,0,2.07.23c1.54,0,3.07.06,4.6.11,1.85.05,3.8-.87,5.65-.83.89,0,1.84,1,2.72,1.11,2.56.24,5,.16,7.5.15,1.87,0,3.74-.11,5.59-.06,5.24.15,10.57-.67,15.88-.46,1.53,0,3.11,1.2,4.5,1.14,2.12-.18,4.39-1.16,6.64-1.06,3.06.11,42.15,1.56,45.2,1.72,1.53,0,3.08-.93,4.52-.88,1.21.06,2.41,1.1,3.61,1.17,1,0,2.09.08,3.07,0,1.7,0,3.34-1.09,5-1.11,2.82,0,5.62,1.19,8.42,1.41a1.91,1.91,0,0,0,.9-.08,4.37,4.37,0,0,0,1.06-.72A9.38,9.38,0,0,0,129,2.72h-.08C128.93,2.61,128.94,2.56,129,2.5Z"/></svg>