<svg id="Layer_1" data-name="Layer 1" xmlns="http://www.w3.org/2000/svg" viewBox="0 0 142.45 7.75"><defs><style>.cls-1{fill:#feefd3;}</style></defs><path class="cls-1" d="M142.4,3.27c0-.44-.2-.54-1.27-.58-.18,0-.45,0-.62,0-2.76-.11-5.52-.15-8.27-.26l-7.39-.18c-1.51,0-3,0-4.55-.05l-7.45-.41A18.35,18.35,0,0,0,110,1.64c-6,.06-51.79,0-57.79.1-2.86,0-5.62,0-8.56-.09C40.9,1.61,38.11.13,35.27,0c-2,0-4,1.34-6,1.36-.89,0-1.8.13-2.7.19a52,52,0,0,1-6,.2,59.22,59.22,0,0,0-8.24.18,14.13,14.13,0,0,1-2.58-.08,14.21,14.21,0,0,0-2.92-.21c-1.53.1-3.22.1-4.76.27a5.52,5.52,0,0,0-1.47.33c-.57.26-.77-.12-.56.35s.82.57,1.5.83a8,8,0,0,0,2.28.32c1.7,0,3.39.07,5.07.14,2.05.06,4.17.21,6.22.27,1,0,2.06,0,3,.08a62,62,0,0,0,8.28.19c2.05,0,4.12-.16,6.17-.1,5.78.19,11.64.47,17.49.75,1.69.07,3.46.23,5,.13C57.46,5,59.9,6.37,62.38,6.51c3.37.14,12.95-2.4,16.31-2.18,1.69.07,37,1.76,38.63,1.81,1.33.09,2.67.1,4,.18,1.15,0,2.25,1.46,3.33,1.43,1.88,0,3.72-1.45,5.6-1.49,3.13,0,6.23.2,9.32.51a1.89,1.89,0,0,0,1-.12,5.41,5.41,0,0,0,1.2-1,19.92,19.92,0,0,0,.69-2.06l-.09,0Z"/></svg>