<svg id="Layer_1" data-name="Layer 1" xmlns="http://www.w3.org/2000/svg" viewBox="0 0 434 389"><defs><style>.cls-1{fill:#e62f48;}</style></defs><path class="cls-1" d="M371.4,212.82c1-1.33,1.35-2.25,2.07-2.13,2.2.11,4.36.46,6.08.49,2.09.83-.1,3.61,3.53,2.47,0,0-.46-1.7.38-2.31,1.8,1,1.09-.56,3.13.51,1.12-.8-2.19-1.74-1.07-2.54a8.07,8.07,0,0,1,1-2.21c.67-1.12-4.57-4.63-3.41-4.19,1.92.31-1.64-6.11.28-5.79.72.11,1.29,2.11,2,2.22l2-1.4c1.2.19-5.33-8.15-3.41-7.84.41.55,1.25,1.43,1.86,2.27,2.24-.13.82-3.56,3.82-3.81,6,1-2.5,3.24,4,4.29.6.83,1.93-2.8,2.53-2,1.44.23-.26,3.11,1,3.3,1.07-.56,1.34-2.19,2.17-2.79,2.66,3.38-1.09-2.91,2.54-5.52.72-2.25-3.91-1-7.39-2.59-.4-.55,3-2.13,2.36-3-.24,0-.43-1.89-2.55-3.42-4.75-2.73-8-.86-10.28,1-.8.37-1.63,1-2.71,1.53-.41-.56-1.09-.91-1-1.39a15.78,15.78,0,0,1,.54-3.36,2,2,0,0,0-.89-2.11l-4.56-.74c-2,.41-.82,3.56-3.1,3.93-.2-.28-.64-.6-.61-.84.11-2.2.46-4.35.57-6.55.88-.84,1.71-1.44,2.59-2.28a6.72,6.72,0,0,1,.59-2.12,22.24,22.24,0,0,0,2.55-2.05c-.41-2-3.56-.82-3.93-3.1l.83-.6A3.7,3.7,0,0,0,376,157a1.64,1.64,0,0,0-1.53-1.23,1.54,1.54,0,0,1-1.8-1c-.17-.52.15-1,1-1.56,1.07-.57,1.47-1.49,1.54-3.44-1.28-1.19-2.77-2.67-3.82-3.82.55-3.36.9-5.51,1.25-7.67.63-.88,1.39-1,1.79-.45l2.22,3.07c-.12.72-.07,2-.23,2.91-.19,1.2-.25-1.51.84-.6.84-.6,1,.16,1.8-.44,1,.15,1.33.87,2.53-.41a29.24,29.24,0,0,1-1.95-3.19c1.12-.8-2.06-4-.94-4.83,1.44.24,3.88-1.3,5.56-1-4.56-5.32-6.5-5.34-5.66-4.47-1.27-1.31-1.6-3.81,2.73-3.11.6.84,0-1.18-1.79-2.66,1.44.23-4.09-3-2.65-2.8,2.41-2.72,6,4.53,5.42.88-.79.36,1.75-1.64.67-1.07-1.2-.2.72-3.44-.72-3.68-1.08.57-1.94-2.7-3.06-1.9-2.16-.35,1.71-2.92-.46-3.27-.6-.83-2.08.4-2.68-.44-3.61-.58,5.11-2.36,1.51-3-.85-.87-3,.49-3.85-.62-5.28-.86-1.94,2.88-7,2.06-1.32-.95-.65-2.07-.69-3.31a22.75,22.75,0,0,0,2.55-2c.28-.2.11-.72.19-1.2l-3.36-.55a21.41,21.41,0,0,1-2.75,1.77,17,17,0,0,0-1.85-2.27,23.13,23.13,0,0,0-2.76,1.77c-2.84-.7-3.08-.74-2.61-3.62,1.67-1.2,3.38-2.65,5.06-3.85.28-.2.11-.72.15-1l-3.36-.55a40.31,40.31,0,0,0-2.62-3.62,10.72,10.72,0,0,0-.9-3.59l-1.67,1.21c-.56.4-1,.08-1.6-.75A7.7,7.7,0,0,0,349,86.2c-1.2-.19-2.6-.66-2.45-1.62s1.84-.69,2.84-.77c.48.08,1.59-.73,1.39-1a1.63,1.63,0,0,0-1.52-1.23c-2.13-.59-2.09-.83-2-3,0-.24-.12-.76-.08-1l-2.62-3.62c-.2-.28-.72-.12-1-.16a1.63,1.63,0,0,1-1,1.8c-.8.37-1.17-.43-1.06-2.63,0-.24-.07.48-.07.48a1.5,1.5,0,0,1-1.61-.75c-.4-.56-.32-1,.71-1.36.25,0,.45.32.69.36a2.56,2.56,0,0,1,.52,1.31,3.66,3.66,0,0,0,2.09.83,13.73,13.73,0,0,0,.5-3.11c.08-.48-.76-1.36-1.24-1.44a39.63,39.63,0,0,0-5.29-.85,1.62,1.62,0,0,1-1,1.8c-.8.36-1.16-.44-1.13-2.15l-3.36-.55c-.81-1.11-1.58-2.47-2.58-3.86l1-6a8.11,8.11,0,0,0-3.26-4.22c-1.92,1.17-.83,3.56-1.78,4.88a23.12,23.12,0,0,1,2,3c-.11.72-.23,1.44-.34,2.16-2.2,1.37-4.19,3-6.38,4.38-.41-.56-1.05-1.15-1-1.63.34-3.64.92-7.23,1.51-10.83,0-.24-.41-.56-.61-.83a21.78,21.78,0,0,1-2.75,1.76c-.28.2-.72-.11-1-.15a1.62,1.62,0,0,1-1,1.8c-.8.36-1.17-.44-1.13-2.15l-2.16-.35c-.16,1-.35,2.15-.51,3.11,0,.24-.32.44-.6.64s-.55.41-.76.13-.64-.6-.6-.84c-.33-2.51.26-3.15,2.5-3.28a1.52,1.52,0,0,0-.41-2c-1.08-.91-2.88-.46-3.33-2.26.12-.72.24-1.44.31-1.92A16.36,16.36,0,0,0,311.74,47c-.48-1.56-1.76-1.27-3.2-1.5-1.12.8-2.28,1.84-4,3-.64.88.26,3-1.22,4.47-.28.2-.56.4-.8.36a1.06,1.06,0,0,1-.6-.83,7.47,7.47,0,0,1,.15-2.44,37.07,37.07,0,0,1-2.38-3.58c-2.05-1.07-4.29-.94-6.41-1.53-1.56-1-2.29-2.58-3.1-3.7-.24-1.52-.33-2.51-.62-3.79-1.95,1.41-3.86,2.57-5.54,3.78l-3.22-4.46a1.08,1.08,0,0,0-1.56.48c-.28.2-.11.72-.19,1.2a1.54,1.54,0,0,1-1,1.8c-.76.13-1.33-1-1.09-2.39.19-1.2.35-2.15.54-3.35a6.74,6.74,0,0,0,.11-2.2L275,28.71c-2.36.85-1.26,3.24-2,4.84-.55.4-.91,1.08-1.47,1.48-2,1.65-4.19,3-6.42,4.62-.83.6-1.11.8-1.8.44a1.63,1.63,0,0,1-.41-2l.16-1a5.85,5.85,0,0,0,3.14-4.16l1.95-1.41a7.3,7.3,0,0,0,.82-5c-.2-.28-.33-1-.57-1.08l-5.52-.89c-.12.72-.23,1.44-.35,2.16a1.54,1.54,0,0,1-1,1.8c-.52.16-.92-.4-1.53-1.24l-.6-.83c-2.48.09-1,3.28-3.06,3.68a22.11,22.11,0,0,0-2.06-2.54L244.39,26a1.61,1.61,0,0,1-1,1.8,3.1,3.1,0,0,1-2.88-.46,1.53,1.53,0,0,1-.41-2c-.24,0-.68-.35-1-.15a42.78,42.78,0,0,0-3.91,2.81c-.28.2-.11.72-.15,1l3.12.5c1.21,1.67,1.21,1.67.77,2.83-.23,1.44-.75,1.6-2.23,1.61a2.87,2.87,0,0,1-2.45-1.63c.16-1,.35-2.16.51-3.11-.48-.08-1,.08-1.2-.2a23.06,23.06,0,0,0-2.06-2.55l-3.62,2.61a22.54,22.54,0,0,1,1.77,2.75c-1.15,1-2.67,1.29-3.68-.1a7.62,7.62,0,0,0-3.29-2.5c-1-.16-1.49-1.47-1.06-2.63a2,2,0,0,0-.89-2.12l-6.24-1a1.08,1.08,0,0,0-1.2,1.28c0,.24.41.56.61.84l4.32.7c1.17,1.91,1.17,1.91,0,6.15-.63.88-1.35.76-1.44-.24-.12-.75.23-1.43-.13-2.23-.16-.52-.73-1.59-1-1.63a1.62,1.62,0,0,0-1.23,1.52c-.91,2.56-.91,2.56-2.83,2.25l-3.12-.51-.81-1.11c-1.65-2-2.37-2.11-4.52-1-.8.36-1.12.8-1.8.44a2,2,0,0,1-.41-2c.23-1.44-.17-2-1.57-2.47a2.31,2.31,0,0,0-2.88,1c-.36.68-.23,1.44-.59,2.12,0,.24-.56.4-.88.84l-4.56-.74A9.24,9.24,0,0,1,188.67,26c-2,.41-1.07,3.52-3.1,3.93l-2.17-.35c-1.76-1.27.35-3.64-1.7-4.7l-6.42,4.61c-.19,1.2-.35,2.16-.54,3.36a1.24,1.24,0,0,1,1.56,1c1.24,0,1.13.67,1,1.15a1.62,1.62,0,0,1-1.23,1.52c-.24,0-1.09-.91-1-1.39a13.56,13.56,0,0,1,.51-3.11c-.48-.08-1,.08-1.21-.2a22.24,22.24,0,0,1-2-2.55l-6.72-1.09c-.28.21-1.08.57-.84.61.4.55.53,1.31,1,1.39a15.93,15.93,0,0,0,3.36.55A1.63,1.63,0,0,1,170.7,32c-.52,1.64.13,3.71-1.58,5.15-2.05-1.07-2.69-3.14-4.14-4.85a23.13,23.13,0,0,1-2.76,1.77l-3.36-.55c-.15,1-.35,2.16-.5,3.12,0,.24-.32.44-.6.64s-.56.4-.76.12-.64-.59-.6-.83c-.34-2.52.26-3.16,2.5-3.29.4-.92.27-1.68-.41-2-1.6-.75-3.49-1.3-4.14-3.38l-3.12-.5a2,2,0,0,0-2,.4,2.6,2.6,0,0,0-.7,2.84c1,1.63,2.21,3.07,3.18,4.7-.56.4-.91,1.08-1.4,1a22.6,22.6,0,0,1-4.08-.66c-.84-.87-1.09-2.39-2.33-2.34-1.52.24-1,1.8-1.19,2.75.61.84,1.17,1.92,1.78,2.75l-3.63,2.61a4.23,4.23,0,0,1-.93-1.87,15.78,15.78,0,0,1,.54-3.36c.08-.48-.56-1.07-.93-1.87l-3.62,2.61a7,7,0,0,1-.59,2.12,20.27,20.27,0,0,0-2.55,2,4.6,4.6,0,0,0,.37,2.27c.12.76-.56.4-.72-.12-.33-1,.23-1.44,1.11-.8a2.45,2.45,0,0,1,.77,1.35s-.6.64-1.16-.43c-.81-1.11-1.33-1-1.53-1.23l-1.81-2.51c-.84.6-1.92,1.17-2.47,1.57a21.54,21.54,0,0,1-2.1-2.31c-2,1.41-1.06,3.52-1.85,5.36a39.21,39.21,0,0,1-3.59,2.37c-1.36-.71-1.69-3.23-4.25-2.66L113,45.75a22.16,22.16,0,0,0-2.06-2.55c-1-.15-2.32-.87-3,.49-.4.92.72,1.6,1.29,2.67-.83,2.08-3.44-.06-4.71,1.7-.12.72-.24,1.44-.43,2.64,1.25,1.43,2.73,2.9,3.74,4.29a8.08,8.08,0,0,1-.67,2.6,17.55,17.55,0,0,0-2.31,2.08c1,1.4,1.82,2.51,2.62,3.63.2.27.72.11,1,.15a1.26,1.26,0,0,1,1-1.56c.52-.16,1.25,0,2-.17A1.64,1.64,0,0,1,112.92,63c0,.24-.92,1.09-1.39,1a13.82,13.82,0,0,1-3.13-.51,1.76,1.76,0,0,1-1.79,1.92,11.7,11.7,0,0,1-2.88-.46c-.16,1-.35,2.15-.51,3.11,0,.24-.31.44-.59.64s-.56.41-.76.13-.65-.6-.61-.84c-.33-2.51.27-3.15,2.51-3.28.08-.48.39-.92.19-1.2a38.45,38.45,0,0,0-2.62-3.62c-.55.4-1.31.52-1.39,1a15.93,15.93,0,0,0-.55,3.36,1.61,1.61,0,0,1-1.23,1.52c-.6-.84-1.45-1.71-2-2.55-1.91,1.17-1.42,4.2-4,4.77.61.84,1.17,1.91,1.78,2.75-.24,1.43-.47,2.87-.7,4.31-.84.6-1.72,1.45-2.55,2-.55,3.35-1.09,6.71-1.63,10.06-.12.72-.52,1.64-1.24,1.53-.24,0-1.08-.92-1-1.4-.09-1,.35-2.15-.74-3.07a44.66,44.66,0,0,0-3.43,2.89A8.47,8.47,0,0,1,84,89.5c-1.07,2-3.44-.07-4.72,1.7l-.73,4.55c-1.36.76-1.36.76-3.21-1.5L72,96.66c-1.39,2.48-.82,5-1.65,7.11l1.82,2.51c-.43,2.63-.66,5.55-1.36,8.38-.2,1.2-1.47,1.49-2.64,1a1.47,1.47,0,0,0-1,.09l-1.95,1.4a7.59,7.59,0,0,1-2,.17c-1.44-.23-2.8-1-4.28.54l-.35,2.15c1.17,1.91,2.7,3.15,3.31,5.46-.91,1.08-2,.41-3.28.45-1.11.81-2.27,1.85-3.66,2.85-.2,1.2-.43,2.64-.66,4.08-.88.84-1.72,1.44-2.59,2.28a23,23,0,0,1,1.77,2.75c-.16,1-.35,2.16-.54,3.35l3.12.51c.24,0,.44.32.64.6s.4.55.13.75-.6.65-.84.61c-2.52.33-3.16-.27-3.29-2.51l-2.17-.34a1.52,1.52,0,0,0-2,.4c-.32.44.08,1,.68,1.84.21.27.41.55.61.83a6.14,6.14,0,0,1-3.39,2.65,14.79,14.79,0,0,1-4.08.82,18.07,18.07,0,0,1,1.78,2.74,17.66,17.66,0,0,0-2.31,2.09L45.17,157c-.43,1.16-1.43,1.25-2.39,1.09a2.24,2.24,0,0,0-2.08.65,6.72,6.72,0,0,1-.59,2.12c1.21,1.67,2.38,3.58,3.59,5.25-.92,1.08-2.08.65-3.08.73A2.17,2.17,0,0,0,39,168.05a54.33,54.33,0,0,0-1,6.23c2.41,3.34,2.41,3.34.3,5.71-1,.08-2.32-.87-3,.25-.39.92,1.21,1.67,1.06,2.63a13.25,13.25,0,0,1-1.45,7.39c-1.35.76-3,0-4.4-.22a1.62,1.62,0,0,0-1.84.69c0,.23.81,1.11,1.25,1.43.68.35,1.4.47,2.09.83.24,0,.4.55.6.83-.19,1.2-.35,2.16-.54,3.36A1.78,1.78,0,0,1,33.94,199a19.74,19.74,0,0,0,.06,4.19c.12.75-.56.4-.72-.12-.33-1,.23-1.44,1.11-.8a2.38,2.38,0,0,1,.77,1.35s-.6.64-1.16-.43A21.44,21.44,0,0,0,26.7,201c-.15,1-.34,2.16-.58,3.6,1.25,1.43,2.74,2.9,3.58,3.77a22.37,22.37,0,0,0,.34,4c.12.76.81,1.12,2.05,1.07l-.48-.07a1.48,1.48,0,0,1,.75-1.6c.56-.4,1-.33,1.36.71,0,.24-.32.44-.36.68a2.51,2.51,0,0,1-1.31.52,2.8,2.8,0,0,1-1.51,1.73c-1.32.52-2.89-.47-3.88,1.09-.23,1.44-.47,2.88-.7,4.31.61.84,1.17,1.92,1.77,2.75l-.34,2.16c.72,1.59,2.48,1.39,3.92,1.62,1.2.19,1.89.55,2.21,1.59-.28.2-.6.64-.84.6a27.55,27.55,0,0,1-4.36-.46c-1-.16-1.63,1-1.83,2.16a2.22,2.22,0,0,0,.65,2.07c.84-.6,1.64-1,2.47-1.56a6,6,0,0,1,1,1.63,50.77,50.77,0,0,1-1,6l-3.9,2.81-3.37-.54c-.51,1.64-1.07,2-2,1.88-1.48,0-2.88-.47-4.4-.22-.76.12-1.12.8-1,1.8l7.69,1.25a1.06,1.06,0,0,1,.72,1.59,1.08,1.08,0,0,1-.83.6l-2.17-.35c-.55.4-1.39,1-1.47,1.49-.27,1.67-1.3,3.47.15,5.18a21.09,21.09,0,0,1,2.75-1.76l2.16.35c1.8-.45,1.39-2.48,2.26-3.33a1.53,1.53,0,0,1,2-.4c.16-1,.35-2.16.51-3.12,0-.24.32-.44.59-.64s.56-.4.76-.12.65.59.61.83c.33,2.52-.27,3.16-2.51,3.29-.07.48-.39.92-.19,1.2a39.8,39.8,0,0,0,2.62,3.62c.72.11,1.4.47,2.12.59a20.73,20.73,0,0,1,2.75-1.77c1.29,1.19,1.09,2.39.14,3.71-.36.68-1.36.76-1.71,1.45-.6.64-.87,2.31-.23,2.91a1.9,1.9,0,0,0,1.85.79,2.37,2.37,0,0,0,.75-.12,14.06,14.06,0,0,1,3-1.49c1.32-.53,2.56.91,2.53,2.62a1.65,1.65,0,0,1,1.81,1c.36.8-.44,1.16-2.16,1.13-.19,1.2-.35,2.16-.54,3.35a4.31,4.31,0,0,0,1.49,1.48c1.4.47,2.92.22,3.8.86,1,1.39,2,2.54,2.86,3.66-.2,1.2-.39,2.4-.55,3.35a1.63,1.63,0,0,0,2-.4c.92-1.08.23-2.92,2.51-3.29l1.68.28a7.57,7.57,0,0,1,.93,1.87c-.11,2.19-.46,4.35-.57,6.55,0,.24.4.55.6.83a22.53,22.53,0,0,1,2.75-1.76c.28-.21.73.11,1,.15a1.24,1.24,0,0,1,1-1.56c.52-.16,1.24-.05,2-.17A1.62,1.62,0,0,1,63.86,282c0,.24-.91,1.08-1.39,1a13.74,13.74,0,0,1-3.12-.51L59,284.69a1.61,1.61,0,0,0,.41,2c.44.32,1,.16,1.55-.48s1.12-.81,1.56-.49a1.53,1.53,0,0,1,.41,2l-.35,2.15c1.65.51,2,1.07,1.89,2,0,1.48-.46,2.88-.22,4.39.13.76.81,1.12,1.81,1,.19-1.2.35-2.16.58-3.59.56-.4,1.64-1,2.47-1.57.28-.2.12-.72.24-1.44l-.08.48a1.5,1.5,0,0,1-1.6-.75c-.41-.56-.33-1,.71-1.36.24,0,.44.32.68.36a2.59,2.59,0,0,1,.53,1.31,8.26,8.26,0,0,0,3.28,1c1,1.39,2.54,2.62,2.91,4.89-.44,1.16-.67,2.6-1.1,3.76-.36.68-1.12.8-2,.41-.2,1.2-.35,2.16-.55,3.35.81,1.12,1.85,2.27,2.86,3.66a14,14,0,0,0,7,.89c.76-.12,1.11-.8,1-1.8l-3.37-.54A37.48,37.48,0,0,0,77,302.86c1-1.56,2.15-1.13,3.76-.38.2,1.76,2.81,2.42,2.22,4.54l3.36.55c.2.28.64.59.61.83.12.76,0,1.48.13,2.24.4.56.52,1.31.93,1.87,1,1.63,2.21,3.07,3.22,4.46,1.16.43,1.59-.73,2.63-1.05,1.89.55,4.36-1,5.37,1.85-.84.61-1.43,1.25-2.27,1.85.4.56.57,1.07.81,1.11l8.88,1.44c1.77,1.27-.1,3.68,1.71,4.71a9.27,9.27,0,0,1,2.71-1.53L113.7,329c-.12.72-.24,1.44-.35,2.16,2.37,2.1,2.37,2.1,5.68-.07a9.53,9.53,0,0,0,2.09,2.31c1-.32,1.44-1.24,1.63-2.44.08-.48.91-1.08,1.47-1.48l2.62,3.62a12,12,0,0,0-.19,2.67c.85.88,1.89,2,3.34,3.74-.24,0,.32-.44.68-1.12.39-.92-.13-2.23,1.42-2.72a7.72,7.72,0,0,1,2.46,3.1,14.79,14.79,0,0,1,.82,4.07c2.15-1.13,3.42-2.89,5.5-3.53,1.09.91.41,2,.5,3a1.06,1.06,0,0,0,.6.83c.44.32,1.2.2,1.6-.72a27.39,27.39,0,0,0,.7-4.32c1.75-1.68,3.51-.41,5.44-.1.48.08.84.88,1,1.39-.56.41-1.35.77-1.71,1.45a5.7,5.7,0,0,0-.79,1.84,1.46,1.46,0,0,0,.08,1c1.53,1.23.94,3.35,1.67,4.94a6.16,6.16,0,0,0,2.45,3.1c1.32-.52,1.27-1.76,1.43-2.72-.6-.83-1.17-1.91-1.77-2.74,1.83-2.17,4.32.7,6.23-.47,2.2-1.37,0-4.67,2.66-5.72,1.21,1.67,2.65,3.38,3.86,5.06l2.16.35c1.81,1-.58,3.59,1.71,4.7l3.63-2.61c.27-.2.11-.72.27-1.68l-.08.48a1.5,1.5,0,0,1-1.6-.75c-.41-.56-.33-1,.71-1.36.24,0,.44.32.68.35a2.68,2.68,0,0,1,.53,1.32c.6.84,1.36.71,1.72,0,.67-1.12,1.11-2.28,1.82-3.64.81,1.12,1.45,1.71,2.25,2.83a20.88,20.88,0,0,0,3.85.62,2.17,2.17,0,0,0,2.11-2.36l-.08.48a1.5,1.5,0,0,1-1.6-.76c-.41-.55-.33-1,.71-1.36.24,0,.44.32.68.36a2.68,2.68,0,0,1,.53,1.32c.4.55.92.39,1.12.67,1.45,1.71,2.62,3.62,3.86,5.05,2.93.23,2.93.23,3.68-1.37,0-.24.12-.72.19-1.2a2.7,2.7,0,0,1,3.8-.61c.64.59.81,1.11,1.65,2a58.67,58.67,0,0,0,9.13,1.47c1.32-.52,1.39-1,.51-1.63-.68-.36-1.4-.48-1.84-.79a4.31,4.31,0,0,1-1.49-1.48l6.42-4.61a1.81,1.81,0,0,1,.57,2.55c1.37,2.19,2.14,3.54,2.94,4.66,2.16-1.13,1.46-4.44,4.26-5a9.07,9.07,0,0,1,.63-2.36,35.73,35.73,0,0,0,3.38-2.65c1.45.24,1.45.24,1.13,2.16-.11.71-.23,1.43-.34,2.15l8.88,1.44c.2-1.2.35-2.15.55-3.35,0-.24.56-.4.83-.61l.72.12c1.25,1.43,2.22,3.07,3.23,4.46a4.34,4.34,0,0,0,1.47-1.48,2.58,2.58,0,0,0,.07-2c-1-1.63-2.21-3.06-3.22-4.46a6.58,6.58,0,0,1,1.63-1,3.41,3.41,0,0,1,2.13.59c.68.35.76,1.35,1.45,1.71a2.58,2.58,0,0,0,2.88.47l2-1.41a22.49,22.49,0,0,0,2.09,2.31l1.93.31c1.79-.45,1.34-2.24,2.26-3.33a1.53,1.53,0,0,1,2-.4c.11-.72.23-1.44.35-2.16.27-1.68,1.11-2.28,2.79-2l2.16.35c.19-1.19.35-2.15.54-3.35,0-.24.56-.4.84-.61l.72.12c1.25,1.43,2.22,3.07,3.22,4.46,1.28-.28,1.44-1.24,1.63-2.44.12-.72.92-1.08,1.23-1.52a22.11,22.11,0,0,0,2.06,2.54c1.91-1.16,3.42-2.89,5.5-3.53a6.81,6.81,0,0,1,2.08.83c.69.35.81,1.11.41,2a13.82,13.82,0,0,0,3.13.51c.76-.13,1.35-.77,1.19-1.29a8,8,0,0,1-1.21-1.67c-.93-1.87.31-3.39,2.51-3.28a1.52,1.52,0,0,1,1-1.8,1.47,1.47,0,0,1,1-.09l3.6.59c2.92-1.25,5.3-3.82,8.3-5.55l3.12.51.89-5.51,3.63-2.61c2.32.87-.34,3.63,2,4.5.88-.84,2-1.64,3.43-2.89l.93-5.75c1.27-1.76,2.83-2.25,4-3.53,1.61,2.23.1,4,.27,6,.68.35,1.57,1,2.25,1.35a10.74,10.74,0,0,0,4.7-3.18c.2-1.2.63-2.36-.49-3-.68-.36-1.44-.23-2.13-.59-.92-.39-1-1.15-.72-1.59.28-.2.56-.4.83-.61a18.58,18.58,0,0,0,2.52-1.8l4.56.74,3.42,4.73c2.13.59,4.09,2.14,6.16,0l.32-1.92a22.24,22.24,0,0,1,2.55-2.05c-.33-1-1.05-1.15-1.77-1.27-2.13-.59-2.49-1.38-2-3,.12-.72.92-1.08,1.24-1.52l2.16.35c.6.83,1.45,1.71,2.05,2.54l4.56.74c1.4-1,2.52-1.8,3.63-2.61-.6-.83-1.17-1.91-1.77-2.74.11-.72.23-1.44.35-2.16.63-.88,1.39-1,1.76-.21,1,1.4,2.21,3.07,3.22,4.46.84-.6,1.91-1.17,2.75-1.77,1.2.2,2.44.15,3,1.47-1.67,1.2-3.39,2.64-5.06,3.85.2.28.36.8.6.83,2.84.71,5.73,1.18,8.61,1.65.72.11,1.32-.53,1.83-2.17l.12-.72c2.27-1.84-1.43-4.9,6.21-4.89,1.2.19.08-3.53-1.37-3.76-.84.6-3.81-.35-4.81.41-2.28.36-.53-2.41-2.73-2.52-1.68-.27-3-2.46-4.79-2.26-.84.6-.8-4.32-1.36-3.92-.23,0,.6-4.49.36-4.53-10.09-1.64,5.06-3.92-5.27-5.6-.64-.59,7.32-4.72,6.51-5.83l-6.48-1.05a39.8,39.8,0,0,1-2.62-3.62c.55-1.88,2.79-2,3.5-3.37l4.81.78a13.66,13.66,0,0,1,1.43-2.72,24.4,24.4,0,0,1-2-3c.23-1.44.47-2.87.74-4.55,1.12-.8,2.47-1.57,3.87-2.57a15.78,15.78,0,0,1,1.85,2.27c2.27-1.85,2.31-2.09.09-5.15.52-1.64,3.27-1.93,2.66-4.25,1.68-1.2,3.39-2.65,5.31-3.81.11-.72.23-1.44.38-2.4-.92-.39-1.8-1-2.72-1.42a23.27,23.27,0,0,0-3,2c-.6-.84-1.2-1.68-1.81-2.51s-.8-1.12-.45-1.8a2,2,0,0,1,2-.41c1.65.52,2,.08,2.23-1.6.12-.72.24-1.44,1-1.8a.89.89,0,0,1,.76-.12c.8,1.11,1.53,2.7,3.53,2.54a26.77,26.77,0,0,0,6.69-4.82c-.12-.76,0-1.48-.13-2.24s-.8-1.11-1.8-1a1.25,1.25,0,0,1-1,1.56,19,19,0,0,1-2,.17,1.62,1.62,0,0,1-1.53-1.23c0-.24.92-1.08,1.4-1a13.72,13.72,0,0,1,3.12.5,1.26,1.26,0,0,1,1-1.56c1.28-.28,2.52-.33,4-.57-1-3.11-4-1.14-5.49-2.62l-1.82-2.5c-1.63,1-2.59.81-4.87,1.18-.76.12-.4-.56.12-.72,1-.33,1.44.23.8,1.11A2.43,2.43,0,0,1,371,214C370.72,213.93,370.32,213.38,371.4,212.82Zm-258.57-160-1,6.48c0,.24-.56.4-.84.6-.51.16-1-.16-1.32-1l1-6.48c0-.24.56-.4.84-.6C112.06,51.5,112.47,52.06,112.83,52.85Zm221.3,23.32c-1.21-1.67-1.22-3.15.74-4.56,1.16.44,3-.25,2.89,2A35.72,35.72,0,0,0,334.13,76.17ZM180.34,31.82c1.71-1.45,3.15-1.21,4.56.74C183,34,181.51,33.73,180.34,31.82Zm17.6.88c-.28.2-.59.64-.84.6L194.94,33c-.24,0-.4-.55-.6-.83a.46.46,0,0,1,.12-.72c.67-1.12,3.07-.73,3.6.58C198.26,32.26,198,32.46,197.94,32.7Zm4.15,309.12c1.45,1.71,1.22,3.14-.74,4.55C199.94,344.42,200.18,343,202.09,341.82ZM362,108l-1-.16-.61-.83c-.16-.52.16-1,.95-1.33.28-.2.73.12,1,.16a1.63,1.63,0,0,1,1.8,1C364.29,107.62,363.45,108.22,362,108ZM51.3,149.63c.16.52-.16,1-1,1.33l-.6-.84c-.16-.52.15-1,.95-1.32C50.73,148.56,51.13,149.12,51.3,149.63ZM40,254.31c.52-.16,1,.15,1.32.95l-.84.6c-.52.16-1-.15-1.32-1ZM63.93,123.39l-.6-.83c-.17-.52.15-1,1-1.32l.6.83C65.05,122.59,64.73,123,63.93,123.39Zm36.24-50.2c.16.51-.16,1-1,1.32l-.61-.84c-.16-.52.16-1,1-1.32ZM221,33.72l.84-.6c.52-.16,1,.16,1.32,1l-.84.61C222,35.12,221.51,34.8,221,33.72ZM173.28,340.1q.24.78-1,1.32l-.6-.84q-.24-.76,1-1.32C172.91,339.3,173.08,339.82,173.28,340.1Zm88.9-308.3-.83.6c-.65-.6-.81-1.12-.49-1.56l.84-.6Q262.66,31.14,262.18,31.8ZM287.41,45l-.84.61q-1-.9-.48-1.56l.83-.6C287.57,44,287.73,44.54,287.41,45Zm19.69,9.34.84-.6q1,.9.48,1.56l-.83.6C306.94,55.28,306.78,54.76,307.1,54.32ZM285.5,317c.52-.16,1,.16,1.32,1l-.83.61c-.52.16-1-.16-1.33-1Zm42-247.27c-.17-.52.15-1,.95-1.32l.6.83c.17.52-.15,1-.95,1.32Z"/><path class="cls-1" d="M387.22,224.73c-.81-1.12-1.25-1.44-1.53-1.24l-3.62,2.61c.16.52.52,1.32.76,1.36a58.87,58.87,0,0,0,6.49,1c2.23-1.61,1.58-3.68,1.69-5.88-1-1.63-2.57-.9-4-1.38a7.14,7.14,0,0,0,.18,3.48c.12.75-.56.4-.72-.12-.33-1,.23-1.44,1.11-.81a2.39,2.39,0,0,1,.77,1.36C388.34,225.4,387.78,225.8,387.22,224.73Z"/><path class="cls-1" d="M346.32,303.7c-.19,1.19-.35,2.15-.54,3.35-.84.6-1.72,1.44-2.55,2.05a3.37,3.37,0,0,0,1.72,1.51c2.57.9,2.57.9,2.26,2.82-.16,1-.35,2.16-.51,3.12.41.55.61.83.81,1.11.24,0,.76-.12.8-.36,1.34-2.24,1.25-4.72,1.44-7.39-1.53-1.23-1.45-3.19-1.66-5A1.45,1.45,0,0,0,346.32,303.7Z"/><path class="cls-1" d="M12.56,270c-2.08.65-.82,3.56-3.1,3.92l-2.16-.34a1.1,1.1,0,0,0-.84.6c-.32.44-.19,1.2.73,1.59a29.36,29.36,0,0,0,4.56.74c.37.8,1,1.63,1.54,2.71,2.15-1.13,1.5-3.2,2-4.84C15.09,272.65,13.53,271.66,12.56,270Z"/><path class="cls-1" d="M15.17,247.82c0,.24-.11.72-.15,1-.47,2.88-.47,2.88-3.19,2.93a2.22,2.22,0,0,0-2.39,2.56,6.82,6.82,0,0,0,1,1.64l3.12.5c0-1.71,2-1.88,2.83-3.72a13.57,13.57,0,0,0,.5-3.12C17,248.62,16.45,247.54,15.17,247.82Z"/><path class="cls-1" d="M370.82,298.56a1.23,1.23,0,0,0-.92,1.08,4.53,4.53,0,0,1-2.3,3.57.75.75,0,0,0-.32.44c.77,1.35,1.57,2.47,2.34,3.82l3.91-2.81a8.68,8.68,0,0,1,.63-2.36A20,20,0,0,1,370.82,298.56Z"/><path class="cls-1" d="M317.69,43.74c-1.16-.43-2,.17-2.43,1.33a20.73,20.73,0,0,0-.63,3.83,18.09,18.09,0,0,1,1.78,2.75c-.2,1.2-.35,2.16-.51,3.12l2.16.35c.32-1.92.59-3.6.9-5.52-.61-.83-1.17-1.91-1.78-2.74C317.34,45.9,317.49,44.94,317.69,43.74Z"/><path class="cls-1" d="M275.37,339.92c1.11-.81,2.51-1.81,3.63-2.61.11-.72.23-1.44.35-2.16-.61-.84-1.69-1.75-1.78-2.75s0-1.48-1-1.15c-.28.2-.8.36-.84.6a15.65,15.65,0,0,0-1.2,7.43A1.84,1.84,0,0,1,275.37,339.92Z"/><path class="cls-1" d="M24.33,281a15.11,15.11,0,0,1-2.27,1.84c-.83.61-1.11.81-.95,1.33a1.55,1.55,0,0,0,1.81,1l1.2.19a15.54,15.54,0,0,0,2.27-1.85l2.4.39c.24,0,.56-.4.84-.6a1.08,1.08,0,0,0-.49-1.55Z"/><path class="cls-1" d="M300.47,318.89c-.2,1.2-.35,2.16-.55,3.36-.83.6-1.71,1.44-2.54,2.05-.2,1.19-.63,2.35.69,3.31l3.35-2.41a6.8,6.8,0,0,0,.85-5.28A1.54,1.54,0,0,0,300.47,318.89Z"/><path class="cls-1" d="M348.55,64.73l-.89,5.51c2.13,2.07,2.13,2.07,4.32.7-.6-.83-1-1.63-1.57-2.46.56-.41.6-.65,1.12-.81.8-.36,1.36-.76,1.23-1.52a1.53,1.53,0,0,0-1.8-1A8.2,8.2,0,0,1,348.55,64.73Z"/><path class="cls-1" d="M158.54,24.84c-.16,1-.35,2.16-.51,3.12a2.31,2.31,0,0,0,2.45,1.62c1.48,0,2-.16,2.23-1.6.16-1,.16-1-.77-2.83A17.28,17.28,0,0,1,158.54,24.84Z"/><path class="cls-1" d="M109.36,349.67c-2,1.88-2,1.88-.74,4.55l2.16.35c2-1.88,2-1.89.74-4.55Z"/><path class="cls-1" d="M187,10.75c-.67,1.12-1.31,2-1.66,2.68.37,2.28,1.93,3.27,2.86,5.14.68-1.12,1.31-2,1.67-2.68C189.41,13.86,187.84,12.86,187,10.75Z"/><path class="cls-1" d="M211,25.22c-.81-1.11-1.82-2.5-2.62-3.62-.84.6-1.75,1.68-2.71,1.53-1,.08-1.48,0-1.16,1,.2.28.37.8.6.84a10,10,0,0,0,5.29.85A3.5,3.5,0,0,1,211,25.22Z"/><path class="cls-1" d="M153,382.82l-.69,4.31c-.08.48.84.88,1,1.15l3.63-2.61a39.1,39.1,0,0,0-2.66-3.38C154.16,382,153.64,382.18,153,382.82Z"/><path class="cls-1" d="M283.11,32c.45,1.79,2,2.79,2.5,4.34,1.84-.69,1.55-2,1.71-2.92a21.81,21.81,0,0,1-1.78-2.75c-1-1.63-1.21-1.67-1.88-.55A4.59,4.59,0,0,0,283.11,32Z"/><path class="cls-1" d="M285.73,29.46l3.13.51a2.31,2.31,0,0,0,1.63-2.44c0-1.48-.17-2-1.61-2.23-1-.16-1-.16-2.84.77A17.18,17.18,0,0,1,285.73,29.46Z"/><path class="cls-1" d="M325.1,308.37c-.12.72-.23,1.44-.35,2.16a21,21,0,0,0-2.55,2.05c2.17,1.82,2.17,1.82,4.36.46l.7-4.32c0-.24-.4-.55-.6-.83C326.26,307.33,325.5,307.45,325.1,308.37Z"/><path class="cls-1" d="M362.52,253.93l6.48,1c.24,0,.56-.4.84-.6.32-.44.16-1-.73-1.6l-6.48-1.05c-.24,0-.56.4-.84.61C361.47,252.77,361.88,253.33,362.52,253.93Z"/><path class="cls-1" d="M404.89,165.85c-1-1.63-2.13-2.07-3.72-1.34a17.72,17.72,0,0,0-3.59,2.37c1,1.63,2.13,2.07,3.72,1.34A17.72,17.72,0,0,0,404.89,165.85Z"/><path class="cls-1" d="M39.75,78.16c1.91-1.17,2.14-2.6.73-4.55-.83.6-1.71,1.44-2.55,2s-1.11.81-1,1.32a1.53,1.53,0,0,0,1.81,1C39.06,77.8,39.51,78.12,39.75,78.16Z"/><path class="cls-1" d="M15.68,229.46a13.74,13.74,0,0,0,.51-3.12c.07-.47-.61-.83-1-1.39l-3.35,2.41c.4.56.53,1.32,1,1.39A6,6,0,0,0,15.68,229.46Z"/><path class="cls-1" d="M13.63,236c-1.91,1.17-2.14,2.61-.73,4.56.83-.6,1.71-1.44,2.55-2s1.11-.8.95-1.32a1.54,1.54,0,0,0-1.81-1Z"/><path class="cls-1" d="M27.07,201.79a13.72,13.72,0,0,0,.5-3.12c.08-.48-.6-.83-1-1.39l-3.35,2.41c.4.56.52,1.31,1,1.39A6,6,0,0,0,27.07,201.79Z"/><path class="cls-1" d="M39.36,154.83l-2.62-3.62c-2.2-.11-1.51,1.72-1.94,2.88C36.21,156,37.69,156,39.36,154.83Z"/><path class="cls-1" d="M87.2,63.46c-1.79,1.92-1.79,1.92-.7,4.31,1.24,0,2.77,1.19,3.36-.93A37.63,37.63,0,0,1,87.2,63.46Z"/><path class="cls-1" d="M66.62,297a1.67,1.67,0,0,0,1.09,2.39,35.77,35.77,0,0,0,5,.82,1.67,1.67,0,0,0-1.09-2.39Z"/><path class="cls-1" d="M144.24,29.41,139,28.56c-.48-.08-.84.6-1.4,1,0,0,.36.8.6.83a9.1,9.1,0,0,0,5.09.58C144,30.85,144.12,30.13,144.24,29.41Z"/><path class="cls-1" d="M140.65,360.39c1.17,1.91,2.65,1.91,4.57.74-.61-.83-1.45-1.71-2.05-2.54-.37-.8-.81-1.12-1.33-.95a1.52,1.52,0,0,0-1,1.79C141,359.71,140.73,359.92,140.65,360.39Z"/><path class="cls-1" d="M204.42,23.17a13.55,13.55,0,0,0,.5-3.11c.08-.48-.6-.84-1-1.39l-3.34,2.4c.4.56.52,1.32,1,1.4A6,6,0,0,0,204.42,23.17Z"/><path class="cls-1" d="M219.15,17.44l2.62,3.63c2.2.11,1.51-1.73,1.94-2.89A3.17,3.17,0,0,0,219.15,17.44Z"/><path class="cls-1" d="M184.69,350.31c-1.24.05-2.32-.87-3,.25s.73,1.6,1.09,2.39l.61.84.6.84C185.66,353.42,185.9,352,184.69,350.31Z"/><path class="cls-1" d="M302.48,41.77c-3.09-.75-5.06-2.3-7.33-.45.73,1.59,2.25,1.35,3.65,1.82C300,43.34,301,43.25,302.48,41.77Z"/><path class="cls-1" d="M313.29,28.27c-1.93-1.79-1.93-1.79-4.32-.7,0,1.24-1.19,2.76.93,3.35C311,30.12,312.18,29.07,313.29,28.27Z"/><path class="cls-1" d="M339.9,54.23c1.92-1.17,1.91-2.64.74-4.56-.84.61-1.71,1.45-2.55,2-.8.36-1.12.8-.95,1.32a1.52,1.52,0,0,0,1.8,1Z"/><path class="cls-1" d="M338.93,67.84c0-.24-.13-.75.15-1l2.52-1.81c-.41-.56-.57-1.08-1-1.39a13.2,13.2,0,0,0-3.13-.51c-.23,1.44-.46,2.88-.73,4.55A6.24,6.24,0,0,1,338.93,67.84Z"/><path class="cls-1" d="M344.84,66.34c1.32-.52,1.83-2.16,3.71-1.61,0-.24.36-.68.16-1a2.69,2.69,0,0,0-3.45-1.54c-.76.12-1.47,1.48-1.39,2.48A6.59,6.59,0,0,0,344.84,66.34Z"/><path class="cls-1" d="M359,77.74c-1.92,1.17-2.15,2.6-.74,4.55.84-.6,1.71-1.44,2.55-2s1.12-.81,1-1.32a1.53,1.53,0,0,0-1.81-1C359.7,78.1,359.26,77.78,359,77.74Z"/><path class="cls-1" d="M362,94.21a1.63,1.63,0,0,0,2-.4,9.13,9.13,0,0,0,1.05-5c0-.24-.6-.83-.6-.83-.52.16-1.32.52-1.4,1A20.11,20.11,0,0,0,362,94.21Z"/><path class="cls-1" d="M377.48,90.08c1.91-1.17,2.15-2.61.74-4.56-.84.61-1.71,1.45-2.55,2s-1.12.8-1,1.32a1.53,1.53,0,0,0,1.81,1C376.8,89.72,377,90,377.48,90.08Z"/><path class="cls-1" d="M341.41,305.11a1.61,1.61,0,0,0,2-.41c.84-.6,1.52-1.72,2.88-1,0-1.72-.37-2.28-1.33-2.43-1.64-.52-2.72.05-3,1.72A6.46,6.46,0,0,0,341.41,305.11Z"/><path class="cls-1" d="M383.84,155.8c1.17,1.91,2.61,2.14,4.57.74-.61-.84-1.45-1.71-2.06-2.55s-.8-1.11-1.32-1a1.52,1.52,0,0,0-1,1.8C384.2,155.12,383.88,155.56,383.84,155.8Z"/><path class="cls-1" d="M373.8,246.66c.16-1,.35-2.16.51-3.12-1.37-2.19-1.65-2-4-1.14C372,245.39,372,245.63,373.8,246.66Z"/><path class="cls-1" d="M375.27,251.32c1.72,0,2.28-.37,2.43-1.33.55-1.87-.05-2.71-1.73-3l-2.17-.35c-.47,1.39.41,2,1,2.87A1.34,1.34,0,0,1,375.27,251.32Z"/><path class="cls-1" d="M367.92,274.62c-.41-2-.41-2-2.95-4.66-1.55,2-1.58,2.2-.17,4.15Z"/><path class="cls-1" d="M371.39,273c-1.32.52-1.83,2.16-3.71,1.61,0,.24-.36.68-.16,1a2.69,2.69,0,0,0,3.45,1.54c.76-.12,1.47-1.48,1.39-2.48A3.6,3.6,0,0,0,371.39,273Z"/><path class="cls-1" d="M387.39,270.5l.61.84c.44.32,1,.15,1.59-.73.24-1.43.47-2.87.7-4.31l-.6-.84c-.44-.31-1-.15-1.6.73C387.86,267.63,387.63,269.07,387.39,270.5Z"/><path class="cls-1" d="M411.9,274.47c.36.8.76,1.36,1.32,1l.84-.61c.23-1.43.46-2.87.7-4.31-.37-.8-.81-1.12-1.33-.95l-.83.6Z"/><path class="cls-1" d="M27.6,171.13C26.43,169.22,25,169,23,170.39,24.2,172.3,25.89,172.57,27.6,171.13Z"/><path class="cls-1" d="M15.17,247.82c.12-.72.23-1.43.35-2.15a15.93,15.93,0,0,0-3.36-.55c-1,.09-1.36.77-1,1.32.21.28.37.8.61.84Z"/><path class="cls-1" d="M23,242.2a14.21,14.21,0,0,0,.5-3.11c.08-.48-.77-1.36-1-1.39a1.62,1.62,0,0,0-1.23,1.52,5.68,5.68,0,0,0,.17,2C21.3,241.93,22,242.29,23,242.2Z"/><path class="cls-1" d="M37.91,276.35a1.62,1.62,0,0,0,2-.41c.6-.64-.25-1.51-1.69-1.74l-1-.16-.83.6q-.48.66.48,1.56C37.15,276.48,37.67,276.31,37.91,276.35Z"/><path class="cls-1" d="M44,277.08c1.28-.28,1.66-2.68.58-3.59a.46.46,0,0,0-.72-.12c-1.28.29-1.67,2.68-.58,3.6Z"/><path class="cls-1" d="M86.23,77.08c.23-1.44-.34-2.52-1.13-2.15a1.53,1.53,0,0,0-1,1.8c0,.24-.11.71-.15,1,.36.8.77,1.36,1.32,1,.28-.2.8-.37.84-.61Z"/><path class="cls-1" d="M64.33,303.51c-1.92,1.16-2.15,2.6-.74,4.55C65.54,306.65,65.78,305.22,64.33,303.51Z"/><path class="cls-1" d="M115.55,36.08a1.62,1.62,0,0,0,.41,2c.88.64,1.76-.21,2-1.64l.16-1-.61-.84c-.44-.32-1-.15-1.56.49A1.5,1.5,0,0,0,115.55,36.08Z"/><path class="cls-1" d="M124.41,24a13.74,13.74,0,0,0-3.12-.51c-.48-.08-1.36.76-1.4,1a1.63,1.63,0,0,0,1.53,1.23,5.73,5.73,0,0,0,2-.16A1.25,1.25,0,0,0,124.41,24Z"/><path class="cls-1" d="M132.35,12.27c.28,1.28,2.68,1.67,3.6.59a.46.46,0,0,0,.12-.72c-.29-1.28-2.69-1.67-3.61-.59Z"/><path class="cls-1" d="M131.86,34.29c1.44.24,2.52-.33,2.16-1.12a1.53,1.53,0,0,0-1.81-1l-1-.16c-.8.36-1.35.76-.95,1.32.2.28.36.8.6.84Z"/><path class="cls-1" d="M139,19.45c.23-1.43-.33-2.51-1.13-2.15a1.53,1.53,0,0,0-1,1.8l-.16,1c.37.8.77,1.36,1.33,1,.28-.2.8-.36.84-.6S138.87,19.93,139,19.45Z"/><path class="cls-1" d="M158.54,24.84a13.19,13.19,0,0,0,.5-3.11c.08-.48-.76-1.36-1-1.4a1.65,1.65,0,0,0-1.24,1.52,6,6,0,0,0,.17,2A1.26,1.26,0,0,0,158.54,24.84Z"/><path class="cls-1" d="M179.8,4.67l.12-.72c-.53-1.31-3-1.46-3.6-.58l-.12.72c.2.28.36.8.6.84l2.17.35C179.21,5.32,179.52,4.87,179.8,4.67Z"/><path class="cls-1" d="M128.82,371c-1.91,1.17-2.14,2.61-.73,4.56C129.8,374.13,130,372.69,128.82,371Z"/><path class="cls-1" d="M176.16,374c1.92-1.17,2.15-2.6.74-4.56C175,370.87,174.72,372.31,176.16,374Z"/><path class="cls-1" d="M245.23,25.36a1.62,1.62,0,0,0-.41-2,3.1,3.1,0,0,0-2.88-.47,1.52,1.52,0,0,0-1,1.8Z"/><path class="cls-1" d="M197,362.88l.12-.72c-.53-1.32-3-1.47-3.6-.59l-.12.72c.2.28.36.8.6.84l2.17.35C196.36,363.52,196.67,363.08,197,362.88Z"/><path class="cls-1" d="M303,27.83c-1.92,1.17-2.15,2.61-.74,4.56C304.22,31,304.46,29.55,303,27.83Z"/><path class="cls-1" d="M259.25,332.88a13.64,13.64,0,0,0-.5,3.11c-.08.48.77,1.36,1,1.4a1.65,1.65,0,0,0,1.23-1.53,5.93,5.93,0,0,0-.17-2C260.69,333.11,260.25,332.79,259.25,332.88Z"/><path class="cls-1" d="M317.69,43.74a13.74,13.74,0,0,0,3.12.51c.48.08,1.36-.77,1.4-1A1.65,1.65,0,0,0,320.68,42a6,6,0,0,0-2,.17A1.25,1.25,0,0,0,317.69,43.74Z"/><path class="cls-1" d="M291.92,329.07c-.13-2.24-.78-2.83-3.29-2.5-.24,0-.56.4-.84.6,0,.24.16.52.12.76.2.28.4.55.64.59Z"/><path class="cls-1" d="M291.57,331.23a13.74,13.74,0,0,0-3.12-.51c-.49-.08-1.36.76-1.4,1a1.62,1.62,0,0,0,1.53,1.23,5.73,5.73,0,0,0,2-.16A1.27,1.27,0,0,0,291.57,331.23Z"/><path class="cls-1" d="M337.26,62.9c-.13-2.23-.77-2.83-3.29-2.5-.24,0-.56.4-.84.6,0,.24.17.52.13.76.2.28.4.56.64.6Z"/><path class="cls-1" d="M299.94,349.55c-1.17-1.91-2.61-2.14-4.57-.73C296.78,350.77,298.23,351,299.94,349.55Z"/><path class="cls-1" d="M351.8,58.37a13.74,13.74,0,0,0,.51-3.12c.08-.48-.77-1.35-1-1.39a1.61,1.61,0,0,0-1.23,1.52,5.51,5.51,0,0,0,.17,2C350.32,58.38,351,58.49,351.8,58.37Z"/><path class="cls-1" d="M316.61,331.84c1.17,1.91,2.62,2.14,4.57.74C319.77,330.63,318.33,330.4,316.61,331.84Z"/><path class="cls-1" d="M333.47,310c0-.25.08-.48.11-.72-.52-1.32-3-1.47-3.6-.59,0,.24-.08.48-.11.72.2.28.36.8.6.84l2.16.35C332.87,310.62,333.19,310.18,333.47,310Z"/><path class="cls-1" d="M341.41,305.11c-2.24.13-2.84.77-2.51,3.29,0,.24.4.55.61.83.24,0,.51-.16.76-.12.27-.2.55-.4.59-.64A15.84,15.84,0,0,0,341.41,305.11Z"/><path class="cls-1" d="M341.48,319.88c1.17,1.91,2.61,2.15,4.56.74C344.59,318.91,343.15,318.68,341.48,319.88Z"/><path class="cls-1" d="M374.89,240a1.65,1.65,0,0,0,2-.41c.6-.64-.25-1.52-1.69-1.75l-1-.16-.84.61c-.31.44-.15.95.49,1.55Z"/><path class="cls-1" d="M377.54,291.78a1.62,1.62,0,0,0,.41,2c.64.59,1.51-.25,1.75-1.69,0-.24.11-.71.15-.95l-.6-.84c-.44-.32-1-.16-1.56.49C377.41,291,377.58,291.54,377.54,291.78Z"/><path class="cls-1" d="M369,281.44a13.73,13.73,0,0,0-.5,3.11c-.08.48.76,1.36,1,1.4a1.65,1.65,0,0,0,1.24-1.53,6,6,0,0,0-.17-2A1.26,1.26,0,0,0,369,281.44Z"/><path class="cls-1" d="M391.39,262.54c.29,1.28,2.69,1.67,3.61.59a.45.45,0,0,0,.11-.72c-.28-1.28-2.68-1.67-3.6-.59C391.23,262,391.43,262.3,391.39,262.54Z"/><path class="cls-1" d="M389.85,290.33c1.92-1.16,2.15-2.6.74-4.55C388.64,287.18,388.4,288.62,389.85,290.33Z"/><path class="cls-1" d="M416.14,283.28c1.91-1.17,2.15-2.61.74-4.56C414.92,280.13,414.69,281.57,416.14,283.28Z"/><path class="cls-1" d="M226,360c-1.91,1.17-2.15,2.6-.74,4.55C227.2,363.35,227.43,361.91,226,360Z"/><path class="cls-1" d="M414.32,195.91c-1.17-1.91-2.61-2.14-4.56-.74C411.21,196.88,412.65,197.12,414.32,195.91Z"/><path class="cls-1" d="M413.8,229.52c.24-1.43-.33-2.51-1.13-2.15a1.55,1.55,0,0,0-1,1.8c0,.24-.11.72-.15,1,.36.8.76,1.36,1.32,1,.28-.21.8-.37.84-.61C413.89,230.52,413.73,230,413.8,229.52Z"/><path class="cls-1" d="M1.18,183.57c.44.32,1,.16,1.55-.48l-.6-.84c-.44-.32-1-.15-1.56.49Z"/><path class="cls-1" d="M6.67,227.26c.32-.44.16-1-.49-1.55l-.83.6c-.32.44-.16,1,.48,1.55Z"/><path class="cls-1" d="M7.76,237.28c-1.72,0-2,.17-2.51,1.8C6.93,239.36,7,239.12,7.76,237.28Z"/><path class="cls-1" d="M8.72,237.43q.36.06.84-.6a.85.85,0,0,0,.35-.68c-.36-.8-.8-1.11-1.36-.71s-1.12.8-.75,1.6C7.72,237.52,8.44,237.63,8.72,237.43Z"/><path class="cls-1" d="M18,195.64c.8-.36,1.11-.8.95-1.32l-.6-.84q-1.2.56-1,1.32C17.28,195.28,17.76,195.36,18,195.64Z"/><path class="cls-1" d="M8.72,270.89c.32-.45.16-1-.48-1.56l-.84.6c-.32.44-.16,1,.49,1.56C7.89,271.49,8.44,271.08,8.72,270.89Z"/><path class="cls-1" d="M16.77,231.85s.8-.36.84-.6a2.39,2.39,0,0,0-.77-1.36c-.88-.63-1.44-.23-1.11.81A5.28,5.28,0,0,0,16.77,231.85Z"/><path class="cls-1" d="M22.93,213.66c0-.24-.17-.52-.61-.83a.89.89,0,0,0-.68-.36c-.8.36-1.12.8-.71,1.36s.8,1.11,1.6.75C22.77,214.62,22.85,214.14,22.93,213.66Z"/><path class="cls-1" d="M15.55,259.2c0-1.72-.17-2-1.82-2.51C13.7,258.41,13.9,258.69,15.55,259.2Z"/><path class="cls-1" d="M13,262.48s.37.8.61.84c.52-.16,1.28-.28,1.35-.77.64-.88.24-1.43-.8-1.11C13.72,261.36,13.36,262,13,262.48Z"/><path class="cls-1" d="M11,284.29l-.6-.84q-1.2.56-1,1.32l.61.84C11.07,285.29,11.15,284.81,11,284.29Z"/><path class="cls-1" d="M39.27,130.09l.84-.6c-.37-.8-.81-1.11-1.33-1l-.83.6C38.31,129.94,38.75,130.25,39.27,130.09Z"/><path class="cls-1" d="M30.23,177.7c-.44-.31-1-.15-1.56.49l.61.84c.44.31,1,.15,1.56-.49C30.87,178.3,30.43,178,30.23,177.7Z"/><path class="cls-1" d="M23.86,217s.8-.36.84-.6a2.44,2.44,0,0,0-.77-1.36c-.88-.63-1.44-.23-1.11.81C22.78,216.1,23.42,216.69,23.86,217Z"/><path class="cls-1" d="M22,228.76q-.66-.48-1.56.48l.61.84c.44.31,1,.15,1.55-.49C22.6,229.35,22.16,229,22,228.76Z"/><path class="cls-1" d="M15.2,261.36c1.72,0,2.28-.37,2.15-1.13a1.53,1.53,0,0,0-1.8-1Z"/><path class="cls-1" d="M15.86,266.38c-.44-.31-1-.15-1.56.49l.61.83q.66.48,1.56-.48Z"/><path class="cls-1" d="M25.15,225.83c.31-.44.15-1-.49-1.56l-.84.61c-.32.44-.15,1,.49,1.55Z"/><path class="cls-1" d="M39.89,148.52c.32-.44.16-1-.49-1.55l-.83.6q-.48.66.48,1.56C39.29,149.16,39.61,148.72,39.89,148.52Z"/><path class="cls-1" d="M36.35,168.86l.84-.6c-.37-.8-.81-1.12-1.33-1l-.84.6A1.1,1.1,0,0,0,36.35,168.86Z"/><path class="cls-1" d="M33.48,186.59l.83-.6c-.36-.8-.8-1.11-1.32-1l-.84.6A1.08,1.08,0,0,0,33.48,186.59Z"/><path class="cls-1" d="M30.22,199.1s.36.8.6.84c.52-.17,1.28-.29,1.36-.77.63-.88.23-1.43-.81-1.11A2.36,2.36,0,0,0,30.22,199.1Z"/><path class="cls-1" d="M46.32,121c-.44-.32-1-.15-1.56.49l.6.83q.66.48,1.56-.48C47,121.63,46.52,121.31,46.32,121Z"/><path class="cls-1" d="M44.63,145.11l.84-.6c-.36-.8-.8-1.12-1.32-.95l-.84.6C43.67,145,44.11,145.27,44.63,145.11Z"/><path class="cls-1" d="M25.1,265.67q-.66-.48-1.56.48l.61.84c.44.32,1,.15,1.55-.49Z"/><path class="cls-1" d="M23.25,271l.6.84c.8-.36,1.12-.8.95-1.32l-.6-.84C23.4,270.07,23.08,270.51,23.25,271Z"/><path class="cls-1" d="M27.19,260.35l.61.83c.8-.36,1.11-.8.95-1.32l-.6-.83Q27,259.57,27.19,260.35Z"/><path class="cls-1" d="M55,110.14l.84-.6q-.54-1.2-1.32-1l-.84.61C54,110,54.47,110.3,55,110.14Z"/><path class="cls-1" d="M28.66,265l.6.84c.8-.36,1.12-.8.95-1.32l-.6-.84C28.81,264.05,28.49,264.49,28.66,265Z"/><path class="cls-1" d="M32.32,277.41l.84-.6c-.37-.8-.81-1.11-1.33-.95l-.84.6C31.36,277.26,31.8,277.58,32.32,277.41Z"/><path class="cls-1" d="M71,47.56l-.84.6c.37.8.81,1.12,1.33,1l.84-.6A1,1,0,0,0,71,47.56Z"/><path class="cls-1" d="M36.09,270.89c.31-.44.15-1-.49-1.55l-.84.6c-.32.44-.15,1,.49,1.55Z"/><path class="cls-1" d="M76.87,37.44c-.32.44-.15,1,.49,1.55l.84-.6c.31-.44.15-1-.49-1.56Z"/><path class="cls-1" d="M42.21,263.52c-1.72,0-2.28.37-2.15,1.13a1.54,1.54,0,0,0,1.8,1Z"/><path class="cls-1" d="M69.07,110c.31-.44.15-1-.49-1.55l-.84.6c-.32.44-.16,1,.49,1.55Z"/><path class="cls-1" d="M46.81,279.27s.36.8.6.84c.52-.17,1.28-.29,1.36-.77.63-.88.23-1.44-.81-1.11C47.48,278.15,47.13,278.83,46.81,279.27Z"/><path class="cls-1" d="M92,36.18l-.6-.83q-1.2.54-1,1.32l.61.83C91.85,37.14,92.16,36.7,92,36.18Z"/><path class="cls-1" d="M85.57,56.8l-.84.6c.36.8.81,1.12,1.33,1l.83-.6A1.08,1.08,0,0,0,85.57,56.8Z"/><path class="cls-1" d="M81.26,83.4l-.84.61c.36.79.81,1.11,1.32.95l.84-.6A1.08,1.08,0,0,0,81.26,83.4Z"/><path class="cls-1" d="M94.57,22.44q.66.48,1.56-.48l-.6-.84c-.45-.31-1-.15-1.56.49C93.73,21.57,94.37,22.17,94.57,22.44Z"/><path class="cls-1" d="M55.13,296.36c.37.8.81,1.11,1.33.95l.83-.6c-.36-.8-.8-1.11-1.32-.95Z"/><path class="cls-1" d="M100.72,30.23c.36.8.81,1.12,1.32.95l.84-.6c-.36-.8-.8-1.11-1.32-.95S101,30,100.72,30.23Z"/><path class="cls-1" d="M98.47,45.61c-.31.44-.15,1,.49,1.55l.84-.6c.32-.44.15-1-.49-1.55Z"/><path class="cls-1" d="M114.75,12.49c-.44-.32-1-.15-1.56.49l.61.83c.44.32,1,.16,1.55-.48Z"/><path class="cls-1" d="M104.42,25.66l-.84.61c.36.79.81,1.11,1.32.95l.84-.6Q105.2,25.42,104.42,25.66Z"/><path class="cls-1" d="M99.34,58.54c.8-.36,1.11-.8,1-1.32l-.6-.84c-.8.36-1.12.81-1,1.32Z"/><path class="cls-1" d="M61,290.67s.36.79.6.83c.52-.16,1.28-.28,1.36-.76.63-.88.23-1.44-.81-1.12A2.43,2.43,0,0,0,61,290.67Z"/><path class="cls-1" d="M114.08,29.94l-.61-.84c-.79.36-1.11.8-1,1.32l.61.84C113.92,30.89,114.24,30.45,114.08,29.94Z"/><path class="cls-1" d="M118,31.56l.84-.61c-.37-.79-.81-1.11-1.33-.95l-.84.6A1,1,0,0,0,118,31.56Z"/><path class="cls-1" d="M125.37,24.14q.36.06.84-.6a.89.89,0,0,0,.36-.68c-.37-.8-.81-1.12-1.37-.71s-1.11.8-.75,1.6A1.5,1.5,0,0,0,125.37,24.14Z"/><path class="cls-1" d="M74.41,344.74l-.6-.84c-.8.37-1.12.81-1,1.33l.61.83C74.26,345.7,74.57,345.26,74.41,344.74Z"/><path class="cls-1" d="M149.5,15.27l-.6-.84q-1.2.56-1,1.32l.61.84C149.35,16.23,149.66,15.79,149.5,15.27Z"/><path class="cls-1" d="M79.84,343.16c-.31.44-.15,1,.49,1.56l.84-.61c.32-.44.15-.95-.49-1.55A1.82,1.82,0,0,1,79.84,343.16Z"/><path class="cls-1" d="M135.05,23.74c-.44-.32-1-.15-1.56.49l.61.83q.66.48,1.56-.48Z"/><path class="cls-1" d="M68.48,326.56q1.2-.54,1-1.32l-.61-.83c-.8.36-1.11.8-1,1.32Z"/><path class="cls-1" d="M84,354.16l.84-.6c-.37-.8-.81-1.11-1.33-.95l-.84.6A1.09,1.09,0,0,0,84,354.16Z"/><path class="cls-1" d="M91.19,323.36l.84-.61c-.37-.79-.81-1.11-1.33-.95l-.84.6C90.23,323.2,90.67,323.52,91.19,323.36Z"/><path class="cls-1" d="M145.2,29.57q.36.06.84-.6a.93.93,0,0,0,.36-.69c-.37-.79-.81-1.11-1.37-.71s-1.12.81-.75,1.6C144.24,29.41,144.72,29.49,145.2,29.57Z"/><path class="cls-1" d="M161.34,16.69q-.66-.48-1.56.48l.61.84c.44.32,1,.15,1.55-.49C162,17.28,161.54,17,161.34,16.69Z"/><path class="cls-1" d="M166.47,1.78l-.61-.84c-.79.36-1.11.8-1,1.32l.6.84A1.09,1.09,0,0,0,166.47,1.78Z"/><path class="cls-1" d="M169,4.64c-.32.44-.15,1,.49,1.55l.84-.6c.31-.44.15-1-.49-1.55C169.84,3.8,169.24,4.44,169,4.64Z"/><path class="cls-1" d="M115.87,347.52l.6.84q1.2-.54,1-1.32l-.61-.84C116,346.57,115.71,347,115.87,347.52Z"/><path class="cls-1" d="M120.54,346.07l.61.83c.79-.36,1.11-.8.95-1.32l-.6-.84C120.7,345.11,120.38,345.55,120.54,346.07Z"/><path class="cls-1" d="M175.3,24.85q.66.48,1.56-.48l-.6-.84c-.45-.32-1-.16-1.56.49C174.66,24.26,175.1,24.57,175.3,24.85Z"/><path class="cls-1" d="M135.51,355.63c.44.31,1,.15,1.56-.49l-.61-.84c-.44-.31-1-.15-1.55.49C134.63,355,135.31,355.35,135.51,355.63Z"/><path class="cls-1" d="M202.84,11.6c.8-.36,1.12-.8.95-1.32l-.6-.83c-.8.36-1.12.8-.95,1.32Z"/><path class="cls-1" d="M207.22,16.5l.84-.61c-.36-.79-.8-1.11-1.32-1l-.84.6A1,1,0,0,0,207.22,16.5Z"/><path class="cls-1" d="M214.8,10.84l.83-.61c-.36-.79-.8-1.11-1.32-1l-.84.6C213.84,10.68,214.28,11,214.8,10.84Z"/><path class="cls-1" d="M224.77,5.57l.84-.61c-.37-.79-.81-1.11-1.32-1l-.84.6Q224,5.81,224.77,5.57Z"/><path class="cls-1" d="M166.5,360.65c.44.31,1,.15,1.56-.49l-.61-.83q-.66-.48-1.56.48C165.85,360.05,166.3,360.37,166.5,360.65Z"/><path class="cls-1" d="M166.37,366q-.68-.48-1.56.48l.6.84c.44.31,1,.15,1.56-.49C167,366.63,166.57,366.31,166.37,366Z"/><path class="cls-1" d="M228.13,13.73c-.44-.31-1-.15-1.56.49l.61.84c.44.31,1,.15,1.56-.49Z"/><path class="cls-1" d="M167.86,378.08c-.31.44-.15,1,.49,1.56l.84-.6c.32-.44.15-1-.49-1.56Z"/><path class="cls-1" d="M230.16,19.47c0-.23-.16-.51-.6-.83a.91.91,0,0,0-.68-.36c-.8.37-1.12.81-.72,1.36s.81,1.12,1.6.75C230.25,20.47,230.36,19.75,230.16,19.47Z"/><path class="cls-1" d="M238.47,6.87c.37.8.81,1.12,1.33,1l.83-.6c-.36-.8-.8-1.11-1.32-1Q239,6.21,238.47,6.87Z"/><path class="cls-1" d="M231.1,22.82s.8-.36.83-.6a2.37,2.37,0,0,0-.76-1.35c-.89-.64-1.44-.24-1.12.8C230,21.91,230.69,22.27,231.1,22.82Z"/><path class="cls-1" d="M262.09,20.22c0-.24-.17-.52-.61-.84a.91.91,0,0,0-.68-.35c-.8.36-1.11.8-.71,1.36s.8,1.11,1.6.75A1.46,1.46,0,0,0,262.09,20.22Z"/><path class="cls-1" d="M264.09,21.53l-2.16-.35c0,1.72.17,2,1.81,2.51C263.86,23,264,22.25,264.09,21.53Z"/><path class="cls-1" d="M265.05,21.68c.25,0,.52-.16.84-.6a.89.89,0,0,0,.36-.68c-.36-.79-.81-1.11-1.36-.71s-1.12.8-.76,1.6A1.42,1.42,0,0,0,265.05,21.68Z"/><path class="cls-1" d="M254.56,11.34c.31-.44.15-1-.49-1.56l-.84.61c-.32.44-.15,1,.49,1.55C254,12,254.28,11.54,254.56,11.34Z"/><path class="cls-1" d="M219.68,347.37c-.44-.32-1-.15-1.56.49,0,0,.4.56.61.83.44.32,1,.16,1.55-.48C220.32,348,219.88,347.65,219.68,347.37Z"/><path class="cls-1" d="M223,345.2c.12-.72.23-1.43.35-2.15-1.72,0-2.28.36-2.16,1.12A1.63,1.63,0,0,0,223,345.2Z"/><path class="cls-1" d="M224.12,347.35s.8-.36.84-.6c-.17-.52-.29-1.27-.77-1.35-.88-.64-1.44-.24-1.12.8A2.43,2.43,0,0,0,224.12,347.35Z"/><path class="cls-1" d="M228.68,348.09l.84-.6c-.36-.8-.81-1.11-1.32-.95l-.84.6C227.72,347.94,228.16,348.26,228.68,348.09Z"/><path class="cls-1" d="M283.74,22l.84-.61c-.37-.79-.81-1.11-1.33-.95l-.84.6C282.78,21.85,283.22,22.17,283.74,22Z"/><path class="cls-1" d="M233.36,346.64s.79-.37.83-.61c-.16-.51-.28-1.27-.76-1.35-.89-.63-1.44-.23-1.12.8A2.45,2.45,0,0,0,233.36,346.64Z"/><path class="cls-1" d="M291.49,19.82l-.6-.84q-1.2.56-1,1.32l.61.84C291.33,20.78,291.65,20.34,291.49,19.82Z"/><path class="cls-1" d="M296.12,26.23c.44.31,1,.15,1.56-.49,0,0-.4-.56-.61-.83-.44-.32-1-.16-1.55.48C295.48,25.63,295.92,26,296.12,26.23Z"/><path class="cls-1" d="M299.24,34.36l-.84.6c.37.8.81,1.11,1.33.95l.84-.6A1,1,0,0,0,299.24,34.36Z"/><path class="cls-1" d="M306.64,25.23c.31-.45.15-1-.49-1.56l-.84.6c-.32.44-.15,1,.49,1.56C305.76,26.07,306.36,25.43,306.64,25.23Z"/><path class="cls-1" d="M255.08,338.84s.8-.36.84-.6a2.38,2.38,0,0,0-.77-1.35c-.88-.64-1.44-.24-1.11.8C254.24,338,254.68,338.29,255.08,338.84Z"/><path class="cls-1" d="M255.59,361.55q.66.48,1.56-.48l-.6-.84c-.45-.31-1-.15-1.56.49C254.75,360.68,255.15,361.24,255.59,361.55Z"/><path class="cls-1" d="M255.5,366.7c-.44-.31-1-.15-1.56.49l.6.83q.68.48,1.56-.48Z"/><path class="cls-1" d="M265.56,345.7c-.45-.31-1-.15-1.56.49l.6.84c.44.31,1,.15,1.56-.49C266.44,346.34,265.76,346,265.56,345.7Z"/><path class="cls-1" d="M318.76,34.08c.32-.44.16-1-.49-1.56l-.83.6q-.48.66.48,1.56C318.16,34.72,318.48,34.28,318.76,34.08Z"/><path class="cls-1" d="M268.81,340.82l.84-.6c-.36-.8-.81-1.12-1.32-1l-.84.6A1.08,1.08,0,0,0,268.81,340.82Z"/><path class="cls-1" d="M284.51,327.62s.8-.36.84-.6c-.17-.52-.29-1.28-.77-1.35-.88-.64-1.44-.24-1.12.8C283.42,326.71,284.07,327.3,284.51,327.62Z"/><path class="cls-1" d="M282.31,344.24l-.6-.84c-.8.37-1.12.8-1,1.32l.61.84C282.15,345.2,282.47,344.76,282.31,344.24Z"/><path class="cls-1" d="M287,336.87q.68.48,1.56-.48l-.6-.84c-.44-.32-1-.15-1.56.49C286.31,336.28,286.75,336.6,287,336.87Z"/><path class="cls-1" d="M283.41,364.83l-.6-.83q-1.2.54-1,1.32l.61.83C283.26,365.79,283.57,365.35,283.41,364.83Z"/><path class="cls-1" d="M291.92,329.07c-.12.72-.24,1.44-.35,2.16,1.72,0,2.28-.37,2.15-1.13A1.52,1.52,0,0,0,291.92,329.07Z"/><path class="cls-1" d="M292.64,336.81,292,336c-.8.37-1.11.81-.95,1.33l.6.83Q292.88,337.59,292.64,336.81Z"/><path class="cls-1" d="M344.12,57.12c.8-.36,1.11-.8.95-1.32l-.6-.83q-1.2.54-1,1.32C343.47,56.53,343.92,56.85,344.12,57.12Z"/><path class="cls-1" d="M350.48,49.79l-.6-.83q-1.2.54-1,1.32l.61.83A1.08,1.08,0,0,0,350.48,49.79Z"/><path class="cls-1" d="M352.89,60.76s.8-.36.84-.6c-.16-.52-.28-1.28-.76-1.36-.89-.63-1.45-.23-1.12.81C351.81,59.85,352.45,60.44,352.89,60.76Z"/><path class="cls-1" d="M314.89,313.61c0-.25-.17-.52-.61-.84a.89.89,0,0,0-.68-.36c-.8.36-1.12.81-.71,1.36s.8,1.12,1.6.75A.59.59,0,0,0,314.89,313.61Z"/><path class="cls-1" d="M356.34,69.93c.32-.44.16-1-.49-1.56L355,69c-.32.45-.16,1,.48,1.56C355.74,70.57,356.06,70.13,356.34,69.93Z"/><path class="cls-1" d="M315.86,316.71s.8-.36.84-.6a2.42,2.42,0,0,0-.77-1.35c-.88-.64-1.44-.24-1.12.8A2.43,2.43,0,0,0,315.86,316.71Z"/><path class="cls-1" d="M356.76,74.92c.45.31,1,.15,1.56-.49l-.6-.84c-.44-.31-1-.15-1.56.49Z"/><path class="cls-1" d="M330.22,316.34c.32-.45.16-1-.49-1.56l-.84.6c-.31.44-.15,1,.49,1.56Z"/><path class="cls-1" d="M366.35,96.39s.36.8.6.84c.52-.16,1.28-.29,1.36-.77.64-.88.23-1.43-.8-1.11C367.27,95.31,366.67,96,366.35,96.39Z"/><path class="cls-1" d="M371.26,93.5c-1.72,0-2,.17-2.52,1.8C370.47,95.34,370.74,95.14,371.26,93.5Z"/><path class="cls-1" d="M372.22,93.65c.24,0,.52-.16.83-.6a.89.89,0,0,0,.36-.68c-.36-.8-.8-1.11-1.36-.71s-1.12.8-.75,1.6C371.26,93.5,372,93.61,372.22,93.65Z"/><path class="cls-1" d="M370.78,102.52q.36.06.84-.6a.89.89,0,0,0,.36-.68c-.37-.8-.81-1.11-1.37-.71s-1.12.8-.75,1.6C369.78,102.61,370.54,102.48,370.78,102.52Z"/><path class="cls-1" d="M339.62,332.86c-.32.44-.15,1,.49,1.56l.84-.6c.31-.44.15-1-.49-1.56Z"/><path class="cls-1" d="M343.75,342.39q-.66-.48-1.56.48l.6.84c.45.31,1,.15,1.56-.49C344.39,343,344,342.67,343.75,342.39Z"/><path class="cls-1" d="M387.19,103.21c-.45-.32-1-.15-1.56.49l.6.83q.66.48,1.56-.48Z"/><path class="cls-1" d="M361.19,260.6c.8-.36,1.12-.8.95-1.32l-.6-.84c-.8.37-1.12.81-1,1.32C360.79,260,361,260.08,361.19,260.6Z"/><path class="cls-1" d="M352.39,318l.84-.6c-.37-.8-.81-1.12-1.33-1l-.83.61C351.43,317.8,351.87,318.12,352.39,318Z"/><path class="cls-1" d="M354,338.39c.32-.44.16-1-.49-1.55l-.84.6c-.31.44-.15,1,.49,1.55Z"/><path class="cls-1" d="M386,145.33l.61.84c.79-.37,1.11-.81.95-1.32L387,144C386.19,144.37,385.87,144.81,386,145.33Z"/><path class="cls-1" d="M358.39,318.93q.67.48,1.56-.48l-.6-.84c-.44-.32-1-.15-1.56.49C357.55,318.06,358.19,318.65,358.39,318.93Z"/><path class="cls-1" d="M386.58,167.8c0-.24-.16-.51-.6-.83a.91.91,0,0,0-.68-.36c-.8.36-1.12.8-.72,1.36s.81,1.12,1.6.75C386.43,168.76,386.5,168.28,386.58,167.8Z"/><path class="cls-1" d="M387.52,171.15s.8-.36.83-.6a2.37,2.37,0,0,0-.76-1.35c-.89-.64-1.44-.24-1.12.8C386.43,170.24,387.08,170.84,387.52,171.15Z"/><path class="cls-1" d="M373.11,252.45s.37.79.61.83a2.37,2.37,0,0,0,1.35-.76c.64-.88.24-1.44-.8-1.12C373.79,251.33,373.43,252,373.11,252.45Z"/><path class="cls-1" d="M363,316.24c-.32.44-.15,1,.49,1.55l.84-.6c.32-.44.15-1-.49-1.55C363.62,315.6,363.3,316,363,316.24Z"/><path class="cls-1" d="M366.32,311.12c.44.31,1,.15,1.56-.49l-.61-.83q-.66-.48-1.56.48Z"/><path class="cls-1" d="M361.54,340.6l-.84.6c.37.79.81,1.11,1.33.95l.84-.6A1.08,1.08,0,0,0,361.54,340.6Z"/><path class="cls-1" d="M366.08,327.8l-.84.61c.37.79.81,1.11,1.33.95l.83-.6Q366.86,327.56,366.08,327.8Z"/><path class="cls-1" d="M387.2,220.29c0-.24-.16-.51-.61-.83a.89.89,0,0,0-.68-.36c-.8.36-1.11.8-.71,1.36s.8,1.12,1.6.75C387,221.25,387.12,220.77,387.2,220.29Z"/><path class="cls-1" d="M365.39,350.32c-.44-.32-1-.15-1.56.49l.61.83c.44.32,1,.16,1.55-.48Z"/><path class="cls-1" d="M370.08,335.09c-.45-.32-1-.15-1.56.49l.6.83q.66.48,1.56-.48A1.82,1.82,0,0,1,370.08,335.09Z"/><path class="cls-1" d="M366.46,357.38c-.44-.32-1-.15-1.55.49l.6.83q.66.48,1.56-.48Z"/><path class="cls-1" d="M385.91,251.08q-.66-.48-1.56.48l.6.84c.44.32,1,.15,1.56-.49C386.75,252,386.31,251.63,385.91,251.08Z"/><path class="cls-1" d="M389.55,236.17c-.31.44-.15,1,.49,1.56l.84-.61c.32-.44.16-1-.49-1.55Z"/><path class="cls-1" d="M382.67,295.08q1.2-.56,1-1.32l-.61-.84c-.8.36-1.11.8-.95,1.32C382.27,294.52,382.51,294.56,382.67,295.08Z"/><path class="cls-1" d="M383.94,322.58c.31-.44.15-1-.49-1.56l-.84.61c-.32.44-.15,1,.49,1.55Z"/><path class="cls-1" d="M379,342.2s.36.8.61.84a2.51,2.51,0,0,0,1.35-.77c.64-.88.24-1.44-.8-1.11A5.31,5.31,0,0,0,379,342.2Z"/><path class="cls-1" d="M389.71,121.13q-.66-.48-1.56.48l.6.84c.45.31,1,.15,1.56-.49Z"/><path class="cls-1" d="M402.32,221.27l.84-.6q-.54-1.2-1.32-1l-.84.61C401.36,221.11,401.8,221.43,402.32,221.27Z"/><path class="cls-1" d="M382.39,341.27c.24,0,.52-.16.83-.6a.91.91,0,0,0,.36-.68c-.36-.8-.81-1.12-1.36-.72s-1.12.81-.76,1.6C381.39,341.35,381.87,341.43,382.39,341.27Z"/><path class="cls-1" d="M364.46,279.22l-.6-.83q-1.2.54-1,1.32l.61.83C364.3,280.18,364.62,279.74,364.46,279.22Z"/><path class="cls-1" d="M392.39,334.28l-.83.6q.54,1.2,1.32,1l.84-.61C393.36,334.44,392.91,334.12,392.39,334.28Z"/><path class="cls-1" d="M394,342.9l.83-.6q-.54-1.2-1.32-1l-.84.6C393,342.74,393.44,343.06,394,342.9Z"/><path class="cls-1" d="M376.51,273.3l.84-.6c-.37-.8-.81-1.11-1.33-.95l-.83.6A1.07,1.07,0,0,0,376.51,273.3Z"/><path class="cls-1" d="M376.52,282.4c.44.32,1,.16,1.55-.48l-.6-.84c-.44-.31-1-.15-1.56.49Z"/><path class="cls-1" d="M409.4,139.28c-.32.44-.16,1,.48,1.55l.84-.6c.32-.44.16-1-.49-1.55Z"/><path class="cls-1" d="M389.68,279.24c-.45-.32-1-.16-1.56.48l.6.84c.44.32,1,.15,1.56-.49Z"/><path class="cls-1" d="M433.51,241.82c.32-.44.15-1-.49-1.56l-.84.61c-.32.44-.15.95.49,1.55C432.91,242.46,433.23,242,433.51,241.82Z"/><path class="cls-1" d="M428.88,268.86l.83-.6c-.36-.8-.8-1.12-1.32-.95l-.84.6C427.92,268.71,428.36,269,428.88,268.86Z"/><path class="cls-1" d="M405,255.9l.84-.6c-.36-.8-.8-1.12-1.32-1-.28.19-.84.6-.84.6C403.8,255.94,404.29,256,405,255.9Z"/><path class="cls-1" d="M414.77,181l-.61-.84c-.79.37-1.11.81-1,1.32l.6.84A1,1,0,0,0,414.77,181Z"/><path class="cls-1" d="M420.1,183.07q.66.48,1.56-.48l-.61-.84c-.44-.32-1-.15-1.56.49Z"/><path class="cls-1" d="M422.57,189.13l-.61-.84c-.79.37-1.11.81-.95,1.33l.6.83Q422.81,189.91,422.57,189.13Z"/><path class="cls-1" d="M378.05,68.28l-.6-.84c-.8.37-1.12.81-.95,1.33l.6.83A1,1,0,0,0,378.05,68.28Z"/><path class="cls-1" d="M407,207.52c-.32.44-.16,1,.49,1.55l.83-.6c.32-.44.16-1-.49-1.56C407.89,206.68,407.3,207.32,407,207.52Z"/><path class="cls-1" d="M417.86,251.34c.44.31,1,.15,1.56-.49l-.6-.84c-.44-.31-1-.15-1.56.49C417,250.46,417.66,251.06,417.86,251.34Z"/><path class="cls-1" d="M414.48,236l.83-.6q-.54-1.2-1.32-1l-.84.61C413.24,236.07,413.72,236.15,414.48,236Z"/><path class="cls-1" d="M401.92,236l.83-.6c-.36-.8-.8-1.12-1.32-1l-.84.6C401,235.8,401.4,236.12,401.92,236Z"/><path class="cls-1" d="M397.31,112.23c-.44-.32-1-.15-1.56.49l.61.83q.66.48,1.56-.48Z"/><path class="cls-1" d="M369.19,280.48c0-.24-.17-.52-.61-.84a.88.88,0,0,0-.68-.35c-.8.36-1.12.8-.71,1.36s.8,1.11,1.6.75C369,281.44,369.15,280.72,369.19,280.48Z"/></svg>