<svg id="Layer_1" data-name="Layer 1" xmlns="http://www.w3.org/2000/svg" viewBox="0 0 83.96 58.47"><defs><style>.cls-1{fill:#fff;}</style></defs><path class="cls-1" d="M83.7,0c-.13-.09-.25,0-.89.38l-.37.25C80.79,1.78,79.16,2.9,77.52,4L73.14,7,70.46,8.87l-4.47,3c-.59.37-1.19.75-1.7,1.13C60.8,15.45,33.92,34.29,30.44,36.79c-1.67,1.18-3.3,2.31-5,3.5s-3.65,1.92-5.35,3.06c-1.16.79-2,2-3.13,2.77-.52.37-1,.78-1.53,1.16-1.14.84-2.24,1.72-3.47,2.52-1.7,1.14-3.26,2.26-4.78,3.44-.46.35-1,.7-1.53,1a19.16,19.16,0,0,0-1.77,1.15c-.87.66-1.87,1.35-2.72,2a6.42,6.42,0,0,0-.78.68c-.26.3-.48.29-.23.32s.63-.2,1.1-.42a12.77,12.77,0,0,0,1.42-.86c1-.7,2-1.38,3-2,1.22-.83,2.5-1.67,3.71-2.5.58-.4,1.21-.85,1.8-1.22,1.74-1.08,3.29-2.22,4.9-3.37,1.2-.84,2.38-1.73,3.59-2.56,3.44-2.33,7-4.68,10.46-7,1-.68,2.08-1.37,2.95-2,1.31-1,3.12-1.69,4.61-2.68,2-1.35,7-5.91,9-7.24,1-.68,22.17-14.82,23.12-15.46l2.39-1.61c.69-.46,1.71-.57,2.33-1,1.09-.78,1.8-1.89,2.89-2.67,1.84-1.28,3.7-2.51,5.59-3.71a2.28,2.28,0,0,0,.55-.44A3.34,3.34,0,0,0,84,.87a3.85,3.85,0,0,0-.15-.78l0,0Z"/><path class="cls-1" d="M83.74,16c-.09-.05-.18,0-.64.29l-.28.18-3.6,2.4L76,21l-2,1.33-3.27,2.14c-.44.27-.87.54-1.25.81C67,27,47.22,40.5,44.66,42.29c-1.23.84-2.42,1.65-3.7,2.5S38.31,46.21,37.07,47c-.85.57-1.49,1.37-2.33,1.95-.39.26-.75.55-1.13.82-.84.6-1.65,1.22-2.55,1.8-1.25.82-2.39,1.61-3.52,2.45-.33.25-.73.49-1.12.74s-.89.52-1.29.83c-.65.47-1.38,1-2,1.44-.22.17-.44.35-.58.48s-.35.21-.18.21a2.1,2.1,0,0,0,.79-.32c.37-.2.69-.39,1-.62.73-.5,1.47-1,2.21-1.47.89-.6,1.83-1.2,2.72-1.79.42-.29.88-.61,1.31-.88,1.27-.78,2.41-1.59,3.6-2.41.88-.61,1.75-1.24,2.64-1.83,2.52-1.67,5.09-3.36,7.66-5,.74-.48,1.53-1,2.17-1.45,1-.72,2.26-1.24,3.35-2,1.48-1,5.17-4.15,6.65-5.11l16.94-11.1,1.75-1.15c.51-.33,1.22-.45,1.68-.77.8-.56,1.35-1.31,2.16-1.87q2-1.36,4.09-2.66a2.38,2.38,0,0,0,.41-.31,2.94,2.94,0,0,0,.34-.5,1.6,1.6,0,0,0-.06-.5l0,0Z"/></svg>