<svg id="Layer_1" data-name="Layer 1" xmlns="http://www.w3.org/2000/svg" viewBox="0 0 374 394"><defs><style>.cls-1{fill:#e62f48;}</style></defs><path class="cls-1" d="M247.73,315.68c1.52.18,2.45.09,2.68.73.91,1.85,1.61,3.78,2.37,5.21.26,2.08-3,1.56-.42,4,0,0,1.19-1.16,2.06-.75,0,1.95,1,.64,1,2.8,1.17.55.43-2.59,1.6-2a7.7,7.7,0,0,1,2.27-.18c1.22,0,1.72-5.86,1.89-4.7.62,1.71,4.26-4.13,4.88-2.41.23.64-1.15,2-.92,2.66l2.05,1c.38,1.07,4.26-8.08,4.88-6.36-.27.58-.61,1.68-1,2.55,1.13,1.78,3.3-.94,4.87,1.4,1.93,5.36-3.8-.57-1.71,5.22-.41.88,3.17.31,2.76,1.19.47,1.29-2.67,1.2-2.28,2.28.95.62,2.41.1,3.29.51-1.57,3.72,1.88-2.22,5.68-.44,2.17-.43-.95-3.66-1.24-7.23.27-.58,3.09,1.46,3.5.58a7.64,7.64,0,0,0,1.64-3.65c.09-5.13-2.93-6.95-5.53-7.95-.66-.48-1.53-.9-2.49-1.52.28-.59.26-1.31.69-1.46a14.73,14.73,0,0,1,3-1.09,1.88,1.88,0,0,0,1.33-1.69c-.47-1.28-.93-2.57-1.47-4.08-1.26-1.48-3.3.95-4.63-.75.13-.29.19-.8.41-.88,1.85-.91,3.78-1.6,5.63-2.51,1.09.33,2,.74,3.05,1.08a6.23,6.23,0,0,1,2-.48,20,20,0,0,0,2.84,1.15c1.48-1.26-1-3.29.75-4.63l.87.41a3.51,3.51,0,0,0,1.6.39,1.52,1.52,0,0,0,.32-1.81,1.43,1.43,0,0,1,0-1.95c.35-.37.86-.31,1.73.1.95.63,1.89.54,3.53-.3.39-1.59.92-3.48,1.39-4.87l6.86-2.47c1,.12,1.46.68,1.18,1.27-.41.87-1,2-1.5,3.21-.65.23-1.64.83-2.5,1.14-1.07.39,1.13-.89.88.42.87.41.31.85,1.18,1.26.31.86-.11,1.5,1.48,1.9a27.91,27.91,0,0,1,1.74-3.06c1.16.55,2.36-3.52,3.53-3,.46,1.29,2.83,2.59,3.37,4.09,2.3-6.16,1.43-7.76,1.1-6.67.5-1.64,2.4-3.05,3.79.81-.41.88,1-.53,1.37-2.67.46,1.28.63-4.74,1.09-3.45,3.33.74-1,7,1.75,4.85-.66-.49,2.14.68,1.18,0-.38-1.07,3.15-1,2.69-2.26-.95-.63,1.33-2.83.17-3.37-.7-1.94,3.17.06,2.47-1.87.41-.88-1.27-1.52-.86-2.4-1.16-3.22,4.27,3.11,3.11-.11.33-1.09-1.79-2.26-1.24-3.43-1.7-4.72-3.25-.28-4.88-4.79.18-1.52,1.41-1.48,2.4-2.08a20.44,20.44,0,0,0,2.84,1.16c.29.14.65-.23,1.07-.39-.38-1.07-.69-1.93-1.08-3a20.07,20.07,0,0,1-2.7-1.45,15.22,15.22,0,0,0,1-2.55,20.15,20.15,0,0,0-2.71-1.45c-.71-2.65-.79-2.87,1.78-3.8,1.75.83,3.72,1.57,5.47,2.4.29.13.64-.24.86-.31l-1.09-3a36.15,36.15,0,0,0,1.78-3.79,10.31,10.31,0,0,0,2.54-2.38L341,243.2c-.58-.27-.52-.78-.11-1.66a7.06,7.06,0,0,0,.53-1.88c-.39-1.08-.64-2.44.22-2.75s1.4,1.19,1.92,2c.16.43,1.32,1,1.46.69a1.53,1.53,0,0,0,.32-1.81c-.49-2-.27-2.09,1.58-3,.21-.08.56-.45.78-.52l1.78-3.8c.14-.29-.23-.64-.31-.86a1.52,1.52,0,0,1-1.95,0c-.66-.49-.17-1.15,1.68-2.07.22-.07-.43.16-.43.16a1.43,1.43,0,0,1-.11-1.66c.27-.58.7-.74,1.44,0,.08.21-.06.5,0,.72a2.54,2.54,0,0,1-.84,1,3.33,3.33,0,0,0,.27,2.09,13.22,13.22,0,0,0,2.78-1c.43-.15.76-1.25.61-1.67a38.09,38.09,0,0,0-1.7-4.73,1.52,1.52,0,0,1-1.95,0c-.66-.49-.17-1.15,1.25-1.91-.39-1.07-.7-1.93-1.08-3,.55-1.17,1.31-2.42,2-3.87l5.36-1.94a7.57,7.57,0,0,0,2-4.59c-1.83-1-3.3.94-4.81.76a22.13,22.13,0,0,1-1.59,3l-1.93.7c-2.12-1.18-4.37-2.06-6.49-3.24.27-.58.47-1.38.9-1.53,3.14-1.38,6.35-2.54,9.57-3.7.21-.08.27-.58.41-.88a20.15,20.15,0,0,1-2.71-1.45c-.29-.13-.23-.64-.3-.85a1.54,1.54,0,0,1-1.95,0c-.66-.49-.18-1.15,1.25-1.91l-.7-1.93-2.78,1a1.18,1.18,0,0,1-.8-.2c-.29-.14-.59-.27-.45-.57s.2-.79.41-.87c1.91-1.42,2.71-1.22,3.84.56a1.45,1.45,0,0,0,1.48-1.27c.26-1.3-.93-2.57.34-3.76l1.71-.62a16.56,16.56,0,0,0,2.77.95c1.05-1.11.23-2-.23-3.32-1.17-.55-2.55-1-4.3-1.84-1-.12-2.34,1.57-4.23,1-.29-.14-.58-.28-.66-.49a1.06,1.06,0,0,1,.41-.88,7.25,7.25,0,0,1,2.07-1,36.4,36.4,0,0,1,1.86-3.59c-.06-2.16-1.18-3.94-1.66-5.94.1-1.74,1.08-3.06,1.62-4.23,1.13-.89,1.91-1.42,2.83-2.23-2-1-3.87-2-5.62-2.82l2.19-4.68a1,1,0,0,0-1.1-1.05c-.3-.14-.65.23-1.08.38a1.42,1.42,0,0,1-1.94,0c-.45-.57.18-1.52,1.46-2l3-1.09a6.13,6.13,0,0,0,1.85-.91c.55-1.17,1.24-2.63,1.78-3.79-1.77-1.55-3.23.43-4.88.55-.59-.28-1.31-.26-1.89-.53-2.26-.89-4.38-2.06-6.71-3.16-.88-.41-1.17-.55-1.19-1.27a1.53,1.53,0,0,1,1.49-1.26l.85-.31a5.51,5.51,0,0,0,4.85.67l2,1a6.86,6.86,0,0,0,4.5-1.62c.14-.29.71-.74.63-1L352.83,141l-1.93.7a1.44,1.44,0,0,1-1.95,0c-.37-.35-.09-.94.32-1.81.13-.29.27-.58.41-.88-1.2-2-3.16.66-4.42-.83a21.19,21.19,0,0,0,1.16-2.84c-1.09-3-2.17-6-3.18-8.8a1.51,1.51,0,0,1-1.94,0,2.92,2.92,0,0,1-.93-2.58,1.43,1.43,0,0,1,1.48-1.26c-.08-.22,0-.72-.31-.86a41.08,41.08,0,0,0-4.08-1.92c-.29-.14-.64.23-.86.31l1,2.79c-.82,1.75-.82,1.75-2,1.92-1.29.47-1.66.11-2.34-1.1a2.69,2.69,0,0,1,.22-2.74l2.79-1c-.16-.43-.52-.78-.39-1.07a21.35,21.35,0,0,0,1.16-2.85l-3.79-1.78a22.71,22.71,0,0,1-1.45,2.71c-1.38-.47-2.28-1.61-1.59-3.07a7.18,7.18,0,0,0,.55-3.84c-.31-.85.53-1.88,1.68-2.06a1.87,1.87,0,0,0,1.33-1.69c-.62-1.72-1.32-3.65-2-5.58a1,1,0,0,0-1.6-.39c-.21.07-.27.58-.41.87.47,1.29.93,2.58,1.39,3.87-1,1.82-1,1.82-5,2.79-1-.12-1.25-.77-.47-1.29.57-.45,1.29-.46,1.78-1.12.35-.37,1-1.33.9-1.54a1.53,1.53,0,0,0-1.81-.32c-2.52.42-2.52.42-3.14-1.29-.31-.86-.69-1.94-1-2.79.27-.59.41-.88.55-1.17.88-2.26.64-2.9-1.26-4.16-.66-.49-1.17-.55-1.18-1.27.19-.8.83-1,1.48-1.26,1.28-.46,1.56-1,1.31-2.41a2.16,2.16,0,0,0-2.14-1.9c-.72,0-1.29.46-2,.48-.21.08-.58-.27-1.09-.33-.46-1.29-.92-2.58-1.47-4.08a8.79,8.79,0,0,1,1.24-2.63c-1.26-1.48-3.37.73-4.63-.75-.24-.64-.47-1.29-.7-1.93.24-2,3.14-1.38,3.08-3.54l-6.71-3.16-3,1.09a1.17,1.17,0,0,1-.1,1.73c.6,1,0,1.23-.47,1.38a1.54,1.54,0,0,1-1.81-.31c-.08-.22.26-1.31.69-1.46a12.68,12.68,0,0,1,2.78-1c-.15-.43-.52-.78-.38-1.07a20.6,20.6,0,0,1,1.15-2.85c-.77-2.14-1.47-4.07-2.17-6-.29-.14-.95-.63-.87-.42-.27.59-.84,1-.69,1.46a15.18,15.18,0,0,0,1.09,3,1.53,1.53,0,0,1-.32,1.81c-1.58.33-3,1.8-4.95,1.06-.05-2.17,1.36-3.64,2.1-5.61a20.07,20.07,0,0,1-2.7-1.45l-1.09-3-2.78,1a1.18,1.18,0,0,1-.8-.2c-.29-.13-.58-.27-.45-.56s.2-.8.42-.88c1.91-1.42,2.7-1.22,3.83.56.93-.1,1.5-.54,1.48-1.26-.11-1.66-.52-3.46.89-4.93l-1-2.79c-.23-.65-.46-1.29-1.26-1.49a2.45,2.45,0,0,0-2.65.72c-.9,1.53-1.5,3.21-2.4,4.75-.59-.28-1.31-.26-1.46-.69a22.31,22.31,0,0,1-1.32-3.65c.33-1.09,1.47-2,.86-3-.89-1.13-1.94,0-2.8.29-.41.87-1,1.83-1.45,2.7l-3.79-1.78A4.2,4.2,0,0,1,284.55,47a15.23,15.23,0,0,1,3-1.08c.42-.16.62-.95,1.11-1.62l-3.79-1.78a6.5,6.5,0,0,1-2,.48A21.19,21.19,0,0,0,280,41.83a4.61,4.61,0,0,0-1.7,1.34c-.56.45-.58-.27-.23-.64.7-.74,1.29-.46,1.17.55a2.23,2.23,0,0,1-.76,1.24s-.8-.19-.18-1.15c.55-1.16.18-1.52.32-1.81l1.23-2.63c-.87-.41-1.83-1-2.41-1.31a19.31,19.31,0,0,1,.94-2.76c-2-1-3.37.73-5.24.92a36.18,36.18,0,0,1-3.57-1.86c0-1.45,1.87-2.86.24-4.7l-2.63-1.24a18.84,18.84,0,0,0,1.16-2.84c-.31-.86-.35-2.3-1.79-2.26-.93.09-1,1.32-1.6,2.27-2.08.27-1.51-2.85-3.53-3.09l-2.36.85c-.61,1.68-1.14,3.57-1.82,5a7.74,7.74,0,0,1-2.44.63,16.09,16.09,0,0,0-2.76-.94c-.69,1.46-1.23,2.63-1.78,3.8-.14.29.23.64.31.86a1.17,1.17,0,0,1,1.73.1c.37.35.6,1,1,1.56a1.53,1.53,0,0,1-.32,1.81c-.21.08-1.3-.26-1.46-.68a13.48,13.48,0,0,1-1-2.79,1.66,1.66,0,0,1-2.39-.6,10.68,10.68,0,0,1-.93-2.57l-2.79,1c-.21.08-.51-.06-.8-.19s-.58-.28-.44-.57.19-.8.41-.88c1.91-1.41,2.71-1.22,3.83.56.43-.15.94-.09,1.07-.39a36.46,36.46,0,0,0,1.78-3.79c-.58-.28-1-.84-1.46-.69a15.34,15.34,0,0,0-3,1.09,1.53,1.53,0,0,1-1.81-.32c.42-.88.75-2,1.16-2.84-1.83-1-4.09.75-5.72-1.09-.41.87-1,1.83-1.45,2.7l-3.86,1.4c-.87-.42-2-.75-2.84-1.16l-9,3.25c-.64.23-1.58.32-1.81-.32-.08-.21.26-1.3.69-1.46.78-.52,1.92-.7,2.18-2a38.53,38.53,0,0,0-3.93-1.49,7.84,7.84,0,0,1-1.39,2.2c-2.16.05-1.51-2.85-3.53-3.09l-4.07,1.47c-1.25-.77-1.25-.77-.23-3.32l-3.5-1.64c-2.67,0-4.5,1.62-6.58,1.89L199,21.86c-2.35.86-4.85,2-7.5,2.71-1.07.39-1.89-.53-2.06-1.68a1.36,1.36,0,0,0-.52-.78l-2-1a6.85,6.85,0,0,1-1.05-1.56c-.47-1.29-.5-2.73-2.39-3.26l-1.93.69c-1,1.83-1.35,3.64-3,5.2-1.3-.26-1.26-1.49-1.86-2.48-1.17-.55-2.55-1-4-1.71L169,19.35c-1.09-.34-2-.75-3.06-1.09A20.57,20.57,0,0,1,164.48,21l-3,1.08,1,2.79c.08.22-.06.51-.19.8s-.28.59-.57.45-.8-.2-.87-.41c-1.42-1.92-1.22-2.72.55-3.84-.23-.65-.47-1.29-.7-1.93a1.43,1.43,0,0,0-1.26-1.49c-.51-.06-.78.53-1.19,1.4-.14.29-.27.59-.41.88a5.84,5.84,0,0,1-3.72-1.57,13.71,13.71,0,0,1-2.52-3,16.42,16.42,0,0,1-1.45,2.7,16.09,16.09,0,0,0-2.76-.94l-2.33,5c-1.15.18-1.67-.6-2-1.46A2.07,2.07,0,0,0,141.6,20a6.37,6.37,0,0,1-2,.48c-.82,1.75-1.86,3.58-2.68,5.33-1.3-.25-1.48-1.4-2-2.18a2.07,2.07,0,0,0-1.75-.83,50.05,50.05,0,0,0-5.57,2c-1.65,3.51-1.65,3.51-4.55,2.86-.52-.78-.34-2.3-1.57-2.35-.93.1-.82,1.75-1.68,2.06a12.42,12.42,0,0,1-6.72,2.19c-1.24-.77-1.36-2.42-1.82-3.71a1.53,1.53,0,0,0-1.4-1.19c-.21.07-.55,1.16-.61,1.67,0,.72.25,1.37.27,2.09.08.21-.27.58-.41.87l-3,1.09a1.66,1.66,0,0,1-.59,2.39,20.09,20.09,0,0,0-3.41,2c-.57.45-.58-.27-.23-.64.7-.74,1.28-.47,1.16.55a2.3,2.3,0,0,1-.76,1.24s-.8-.2-.17-1.15a20.22,20.22,0,0,0-1.54-7L97.35,29c-.61,1.67-1.14,3.56-1.47,4.65a20.52,20.52,0,0,0-3.12,2.1c-.56.45-.55,1.17.06,2.16.07.22-.16-.43-.16-.43a1.43,1.43,0,0,1,1.66-.11c.58.28.73.71,0,1.44-.21.08-.5-.06-.72,0a2.46,2.46,0,0,1-1-.84,2.54,2.54,0,0,1-2.1-.45c-1-.84-.93-2.58-2.66-2.68L84,36.2c-.41.88-1,1.83-1.45,2.71l-1.93.69c-1,1.33,0,2.67.46,4a2.12,2.12,0,0,1-.3,2.53c-.29-.13-.79-.19-.87-.41a25.54,25.54,0,0,1-1.61-3.78c-.31-.86-1.53-.9-2.6-.52a2.07,2.07,0,0,0-1.41,1.48c.88.41,1.54.9,2.41,1.31a5.9,5.9,0,0,1-.9,1.54,47,47,0,0,1-5.36,1.93l-4.08-1.92c-.39-1.07-.77-2.14-1.08-3-1.58.32-2.16.05-2.47-.81-.68-1.21-.93-2.57-1.83-3.71-.44-.56-1.16-.55-1.94,0l2.47,6.87a1,1,0,0,1-1,1.32,1,1,0,0,1-.88-.41L59,44c-.59-.28-1.46-.69-1.89-.54-1.5.55-3.45.52-4.19,2.49a20.07,20.07,0,0,1,2.7,1.45c.23.64.46,1.28.7,1.93,1.18,1.27,2.66,0,3.75.34a1.45,1.45,0,0,1,1.27,1.49l2.78-1a1.18,1.18,0,0,1,.8.2c.29.13.58.27.45.56s-.2.8-.42.88C63,53.24,62.2,53,61.07,51.26c-.43.16-.93.1-1.07.39a37.44,37.44,0,0,0-1.78,3.79c.23.65.25,1.37.48,2a21.88,21.88,0,0,1,2.7,1.45c-.39,1.6-1.46,2-3,1.81-.72,0-1.24-.77-2-.75-.8-.2-2.3.35-2.5,1.14A1.81,1.81,0,0,0,54.15,63a2.38,2.38,0,0,0,.45.56,13.83,13.83,0,0,1,2.56,1.74c1,.85.43,2.52-1,3.28a1.52,1.52,0,0,1,0,2c-.49.66-1.15.17-1.9-1.26l-3,1.09a4.19,4.19,0,0,0-.53,1.88c.25,1.37,1.15,2.5,1,3.52-.69,1.46-1.16,2.84-1.7,4l-3,1.08a1.53,1.53,0,0,0,1.27,1.48c1.3.26,2.49-1.14,3.83.56.08.21.31.86.54,1.5A6.77,6.77,0,0,1,51.55,86c-1.85.91-3.78,1.6-5.63,2.52-.22.07-.28.58-.41.87a20.07,20.07,0,0,1,2.7,1.45c.29.14.23.64.31.86a1.18,1.18,0,0,1,1.73.1c.37.35.6,1,1,1.56A1.54,1.54,0,0,1,51,95.17c-.21.07-1.3-.26-1.46-.69a13.07,13.07,0,0,1-1-2.79l-1.93.7a1.51,1.51,0,0,0-1.48,1.26c-.06.51.31.86,1.1,1s1.17.55,1.11,1.06A1.43,1.43,0,0,1,45.84,97l-1.93.7c.33,1.58.05,2.16-.8,2.47-1.21.68-2.58.93-3.71,1.82-.56.45-.54,1.17,0,1.95l3.21-1.16c.59.28,1.54.9,2.42,1.31.29.14.64-.23,1.28-.46l-.43.16a1.43,1.43,0,0,1-.11-1.66c.27-.59.7-.74,1.44,0,.08.22-.06.51,0,.72a2.42,2.42,0,0,1-.84,1A7.9,7.9,0,0,0,47,107c-.68,1.46-1,3.28-2.69,4.62-1.15.17-2.44.63-3.59.8-.72,0-1.16-.55-1.26-1.48l-3,1.08c-.55,1.17-1,2.55-1.7,4a13.07,13.07,0,0,0,2.45,6.15c.45.57,1.17.55,2,0-.39-1.07-.69-1.93-1.08-3a35.41,35.41,0,0,0,1.78-3.8c1.73.11,1.9,1.26,2,2.91-1.35,1-.71,3.41-2.72,3.89.39,1.08.7,1.94,1.08,3-.13.29-.19.8-.41.88-.56.44-1.2.67-1.77,1.12-.27.58-.84,1-1.11,1.62-.9,1.53-1.51,3.21-2.19,4.67.17,1.15,1.32,1,2,1.68.41,1.79,2.82,3.1.93,5.24-.88-.41-1.68-.6-2.55-1-.27.59-.63,1-.55,1.17.93,2.58,1.94,5.37,2.86,7.94-.23,2-3.06,1.59-3.08,3.54a8.72,8.72,0,0,1,2.49,1.53c-.69,1.46-1.23,2.63-1.78,3.79l-1.93.7c-.65,2.9-.65,2.9,2.64,4.63a8.67,8.67,0,0,0-.94,2.76c.73.7,1.67.61,2.74.22.43-.15,1.3.26,1.89.53L37.77,170a10.43,10.43,0,0,0-2.28,1.07c-.34,1.09-.81,2.47-1.55,4.44-.08-.22.5.06,1.23,0,.93-.1,1.77-1.13,2.88-.07a7.34,7.34,0,0,1-1.43,3.42,13.46,13.46,0,0,1-3,2.53c1.91,1.25,3.93,1.49,5.41,2.9-.26,1.3-1.48,1.26-2.26,1.79a1,1,0,0,0-.42.87c-.05.51.39,1.08,1.33,1a24.9,24.9,0,0,0,3.85-1.39c2.18.67,1.95,2.69,2.56,4.41.16.43-.33,1.09-.68,1.46a4.5,4.5,0,0,0-2-.75,5.41,5.41,0,0,0-1.86.19c-.22.08-.65.23-.78.53-.32,1.81-2.33,2.29-3.3,3.61a5.8,5.8,0,0,0-1.43,3.43c1,.84,2,.24,2.88-.07.41-.88,1-1.83,1.45-2.71,2.6.52,1.39,3.87,3.22,4.91,2.12,1.17,3.84-2.12,5.9-.44-.83,1.75-1.57,3.72-2.39,5.47.23.65.46,1.29.7,1.94,0,1.94-3.22,1.15-3.09,3.53l3.79,1.79c.3.13.65-.23,1.5-.54l-.42.15a1.42,1.42,0,0,1-.12-1.66c.28-.58.7-.73,1.44,0,.08.21-.06.51,0,.72a2.46,2.46,0,0,1-.84,1c-.41.88,0,1.44.76,1.43,1.22,0,2.37-.13,3.81-.17-.54,1.17-.74,2-1.29,3.14a20.08,20.08,0,0,0,1.24,3.43,2,2,0,0,0,2.9.65l-.43.15a1.39,1.39,0,0,1-.11-1.65c.27-.59.7-.74,1.44,0,.07.22-.06.51,0,.72a2.42,2.42,0,0,1-.84,1c-.28.59.09.94,0,1.23-.74,2-1.78,3.8-2.38,5.47,1.14,2.5,1.14,2.5,2.79,2.39l1.08-.39a2.52,2.52,0,0,1,2.23,2.83c-.2.8-.55,1.17-.88,2.26a54,54,0,0,0,2.94,8.16c1,.84,1.46.68,1.58-.33,0-.72-.25-1.37-.2-1.87a4.23,4.23,0,0,1,.53-1.89L70,243.29a1.7,1.7,0,0,1-1.83,1.63c-1.17,2.12-1.93,3.37-2.48,4.53,1.9,1.26,4.3-.82,6,1.23a8.44,8.44,0,0,1,2.22-.56,34.12,34.12,0,0,0,3.72,1.57c.46,1.29.46,1.29-1.25,1.91l-1.93.69c.93,2.58,1.93,5.37,2.86,7.94l3-1.08c.21-.08.58.27.88.41.07.21.15.43.23.64-.61,1.68-1.51,3.22-2.19,4.68a4.19,4.19,0,0,0,1.88.53,2.44,2.44,0,0,0,1.64-.84c.9-1.53,1.51-3.21,2.19-4.67a6.19,6.19,0,0,1,1.54.9,3.29,3.29,0,0,1,.48,2c0,.72-.76,1.25-.74,2a2.39,2.39,0,0,0,.92,2.57l2,1a19.9,19.9,0,0,0-.94,2.77l.61,1.72c1.19,1.27,2.46.08,3.76.34a1.42,1.42,0,0,1,1.26,1.48l1.93-.69c1.5-.54,2.38-.13,2.92,1.37.23.64.46,1.29.7,1.93l3-1.08c.21-.08.58.27.87.41.08.21.23.64.23.64a50.71,50.71,0,0,1-2.19,4.67c.82.92,1.67.61,2.75.23.64-.24,1.3.25,1.81.31a20.59,20.59,0,0,0-1.16,2.85c1.83,1,3.93,1.49,5.41,2.89a6.56,6.56,0,0,1,.26,2.09c0,.72-.54,1.17-1.48,1.26a12.58,12.58,0,0,0,1,2.79c.44.57,1.24.77,1.59.4a7.32,7.32,0,0,1,.83-1.75c1.11-1.62,2.92-1.3,3.83.55a1.44,1.44,0,0,1,2,0c.29.13.44.56.52.78.39,1.07.7,1.93,1.16,3.22,2.35,1.82,5.54,2.61,8.32,4.27l1,2.79,4.93-1.78,3.79,1.78c.34,2.31-3.14,1.38-2.79,3.68,1.09.34,2.25.88,3.93,1.49l5.14-1.85c2,.24,3.13,1.29,4.73,1.68-1.1,2.34-3.2,1.89-4.76,2.94,0,.72-.1,1.73-.08,2.45a9.94,9.94,0,0,0,4.74,2.41c1.07-.39,2.22-.56,2.26-1.79,0-.72-.46-1.28-.48-2-.09-.93.47-1.38,1-1.32l.87.41a17.09,17.09,0,0,0,2.63,1.24c.54,1.5,1,2.79,1.47,4.08l-2.33,5c.48,2,.11,4.33,2.79,5.06l1.72-.62a19.28,19.28,0,0,1,2.84,1.16,1.69,1.69,0,0,0,.24-2c-.49-2,0-2.67,1.58-3,.64-.23,1.3.26,1.81.32.23.64.46,1.29.7,1.93-.41.88-.75,2-1.16,2.84.54,1.5,1,2.79,1.47,4.08l3.79,1.78c.41-.87,1-1.83,1.45-2.7l1.93-.7c1,.12,1.46.69,1,1.35-.69,1.46-1.51,3.21-2.19,4.67.87.41,1.83,1,2.7,1.45.39,1.07,1,2.07.15,3.1-1.75-.82-3.71-1.57-5.47-2.39-.13.29-.48.66-.41.87.72,2.66,1.65,5.23,2.57,7.81.24.64,1,.84,2.61.51l.64-.23c2.55,1,3.38-3.4,6.85,2.86.39,1.08,2.93-1.54,2.46-2.84-.87-.41-1.45-3.27-2.52-3.75-1.34-1.7,1.73-1.53.82-3.38-.54-1.5.64-3.61-.33-5-.87-.41,3.19-2.62,2.6-2.9-.07-.21,4-1.56,3.89-1.77-3.25-9,5.51,2.36,2.19-6.87.19-.8,7.2,3.85,7.75,2.68q-.93-2.56-2.09-5.79a37.57,37.57,0,0,1,1.78-3.8c1.79-.4,2.92,1.38,4.36,1.34l1.54,4.29a13.18,13.18,0,0,1,2.89-.07,21.47,21.47,0,0,1,1.58-3l4.07-1.47c1.17.55,2.41,1.31,3.87,2a15.56,15.56,0,0,1-1,2.55c2.55,1,2.77.94,4.27-2.27,1.58-.33,3.07,1.8,4.69.24,1.75.83,3.72,1.57,5.54,2.61l2.15-.77c-.1-.94,0-1.95-.07-2.89a24,24,0,0,0-3-1.58l1.23-2.63c.42-.88.55-1.17,1.27-1.19.8.2,1,.84,1.27,1.49.32,1.58.83,1.64,2.33,1.1a1.87,1.87,0,0,1,1.95,0,.81.81,0,0,1,.44.57c-.55,1.16-1.52,2.49-.47,4a24.62,24.62,0,0,0,7,3.29c.56-.44,1.2-.68,1.77-1.12s.55-1.17,0-1.95a1.18,1.18,0,0,1-1.73-.1c-.37-.35-.6-1-1-1.57a1.53,1.53,0,0,1,.32-1.81c.21-.07,1.3.26,1.46.69a13.07,13.07,0,0,1,1,2.79,1.19,1.19,0,0,1,1.74.1c.81.92,1.41,1.92,2.31,3,2.1-2.22-.89-3.8-.36-5.69l1.23-2.63c-1.53-.9-1.84-1.76-3.18-3.46-.45-.57.27-.58.64-.23.74.7.47,1.29-.55,1.17a2.31,2.31,0,0,1-1.24-.77C246.5,315.64,246.77,315.05,247.73,315.68ZM261.31,30.89,255.52,33c-.21.07-.58-.28-.87-.42-.37-.35-.31-.85.17-1.52L260.61,29c.22-.08.59.27.88.41C262.07,29.64,261.8,30.23,261.31,30.89Zm81.58,192c.82-1.75,2-2.43,4.07-1.47.17,1.15,1.57,2.34-.28,3.25A38.49,38.49,0,0,0,342.89,222.88ZM309.29,76.63c2,.74,2.43,2,1.47,4.08C308.72,79.74,308.25,78.46,309.29,76.63Zm7.29,14.83c-.3-.14-.8-.2-.88-.41-.23-.64-.46-1.29-.7-1.93-.07-.22.28-.59.42-.88a.42.42,0,0,1,.64-.23c1.22,0,2,2.19,1.16,3.22C317.08,91.52,316.79,91.38,316.58,91.46ZM64.83,235.69c-.74,2-2,2.43-4.07,1.47C61.72,235.12,63,234.65,64.83,235.69Zm264.63,24.53c-.07-.21-.23-.64-.3-.86l.41-.87c.35-.37.85-.31,1.51.18.3.14.24.64.31.86a1.52,1.52,0,0,1,0,2C330.8,261.92,329.93,261.51,329.46,260.22ZM153.9,24.55c-.35.37-.86.31-1.52-.18,0,0,.27-.59.41-.88.35-.37.86-.31,1.52.18C154.52,23.59,154.25,24.18,153.9,24.55ZM62.87,63c.37.35.31.86-.17,1.52l-.88-.41c-.37-.35-.31-.86.18-1.52ZM181.18,23l.41-.88c.35-.37.85-.31,1.51.18l-.41.88C182.34,23.5,181.84,23.44,181.18,23Zm57.68,6.82c-.35.37-.85.31-1.51-.18l.41-.87c.35-.37.85-.31,1.51.18Zm87.35,81,.87.41c.37.36.31.86-.18,1.52l-.87-.41C325.52,112.24,325.58,111.74,326.21,110.78ZM53.13,211.29c-.35.37-.86.31-1.52-.17,0,0,.28-.59.41-.88.35-.37.86-.31,1.52.18C53.62,210.63,53.27,211,53.13,211.29ZM346.55,143.7l-.87-.41q.3-1.2,1.05-1.11l.88.41C347.41,143.39,347.06,143.76,346.55,143.7Zm.66,26.68-.87-.41c.19-.8.55-1.17,1.05-1.11l.88.42C348.07,170.07,347.72,170.44,347.21,170.38Zm1.3,20.39.87.42c-.19.8-.54,1.16-1.05,1.1l-.88-.41C347.65,191.08,348,190.71,348.51,190.77Zm-225.33,102c.37.35.31.85-.17,1.51l-.88-.41c-.37-.35-.31-.86.18-1.52Zm222-78.21c.35-.37.86-.31,1.52.18,0,0-.27.59-.41.88-.35.37-.86.31-1.52-.18Z"/><path class="cls-1" d="M245.15,334.07c.55-1.17.61-1.67.32-1.81l-3.79-1.78c-.35.37-.84,1-.76,1.24a55,55,0,0,0,2.09,5.8c2.33,1.09,3.73-.38,5.59-1.29.89-1.54-.43-2.52-.68-3.88a6.6,6.6,0,0,0-2.77,1.72c-.56.45-.58-.27-.23-.64.71-.74,1.29-.47,1.17.55a2.3,2.3,0,0,1-.76,1.24C245.11,335.3,244.53,335,245.15,334.07Z"/><path class="cls-1" d="M161.75,336.53l-3,1.08c-.88-.41-2-.74-2.84-1.16a3.21,3.21,0,0,0-.46,2.11c.43,2.51.43,2.51-1.29,3.13l-2.78,1c-.28.58-.42.87-.55,1.17.08.21.44.56.66.49,2.45.08,4.44-1.12,6.72-2.19.32-1.81,1.95-2.64,3.3-3.61A1.37,1.37,0,0,0,161.75,336.53Z"/><path class="cls-1" d="M37.48,47.65c-1.47-1.41-3.29,1-4.63-.75L32.16,45a1.08,1.08,0,0,0-.88-.41c-.51-.06-1.07.39-1,1.33A27.72,27.72,0,0,0,31.77,50c-.48.66-.89,1.54-1.52,2.49,1.9,1.26,3.31-.22,4.89-.55C36.48,50.92,36.58,49.19,37.48,47.65Z"/><path class="cls-1" d="M56.89,39.67,56,40c-2.57.93-2.57.93-3.85-1.27A2.07,2.07,0,0,0,49,37.92a6.3,6.3,0,0,0-.9,1.53l1,2.79c1.42-.75,2.47.81,4.34.62a12,12,0,0,0,2.79-1A1.31,1.31,0,0,0,56.89,39.67Z"/><path class="cls-1" d="M177.11,354.27a1.14,1.14,0,0,0-1.31-.26,4.26,4.26,0,0,1-4-.26.7.7,0,0,0-.51-.06c-.76,1.24-1.31,2.41-2.07,3.66l4.09,1.92a8.34,8.34,0,0,1,2.22-.56A18.22,18.22,0,0,1,177.11,354.27Z"/><path class="cls-1" d="M362,194.63c-.17-1.15-1.05-1.56-2.2-1.39a19.14,19.14,0,0,0-3.42,1.24,16.42,16.42,0,0,1-1.45,2.7l-2.79,1c.23.65.47,1.29.7,1.93l4.93-1.78c.41-.87,1-1.83,1.45-2.7Z"/><path class="cls-1" d="M99.74,294.88l3.79,1.79,1.93-.7c.41-.88.67-2.18,1.45-2.71s1.21-.67.47-1.38c-.29-.14-.66-.49-.88-.41a14.85,14.85,0,0,0-6.64,2.4A1.68,1.68,0,0,1,99.74,294.88Z"/><path class="cls-1" d="M33.81,62.32a15.22,15.22,0,0,1-2.55-1c-.87-.42-1.17-.55-1.52-.18a1.44,1.44,0,0,0,0,1.94c.08.22.23.65.39,1.08a15.13,15.13,0,0,0,2.54,1l.78,2.14c.08.22.58.28.87.42a1,1,0,0,0,1.06-1.11Z"/><path class="cls-1" d="M128.41,305.88l-3,1.08c-.87-.41-2-.75-2.84-1.16-1.07.39-2.22.56-2.4,2.08l3.5,1.65a6.42,6.42,0,0,0,4.72-1.7A1.44,1.44,0,0,0,128.41,305.88Z"/><path class="cls-1" d="M358.84,229.49l-4.93,1.78c-.73,2.69-.73,2.69,1.39,3.86.41-.87.9-1.53,1.31-2.41.58.27.8.2,1.17.55.66.49,1.24.76,1.8.32a1.44,1.44,0,0,0,0-2A7.39,7.39,0,0,1,358.84,229.49Z"/><path class="cls-1" d="M305.09,55.59l-2.78,1a2.17,2.17,0,0,0-.22,2.75c.68,1.21,1.05,1.56,2.33,1.1.86-.31.86-.31,2-1.93A16.36,16.36,0,0,1,305.09,55.59Z"/><path class="cls-1" d="M16.19,163.26c-2.47-.8-2.47-.8-4.07,1.48.23.64.46,1.28.7,1.93,2.47.8,2.47.8,4.07-1.47C16.66,164.55,16.42,163.91,16.19,163.26Z"/><path class="cls-1" d="M329.58,72.45c-1.22,0-2.23-.16-2.95-.14-1.7,1.34-1.8,3.07-2.92,4.69,1.23,0,2.24.16,3,.14C328.16,75.88,328.26,74.15,329.58,72.45Z"/><path class="cls-1" d="M328.65,98.74c.55-1.16,1.23-2.62,1.78-3.79-.88-.41-2.18-.67-2.49-1.53-.52-.78-.68-1.21-1.38-.47-.14.29-.49.66-.41.88a9.42,9.42,0,0,0,1.7,4.72A3.5,3.5,0,0,1,328.65,98.74Z"/><path class="cls-1" d="M8.87,214.17,5,215.57c-.42.15-.33,1.09-.47,1.38l3.8,1.78A36.24,36.24,0,0,0,9.9,215C10,214.72,9.67,214.37,8.87,214.17Z"/><path class="cls-1" d="M355.92,160.94c-1.27,1.18-1.37,2.92-2.43,4,1.4,1.2,2.32.38,3.18.07a20.48,20.48,0,0,1,1.44-2.7c.9-1.54.82-1.76-.4-1.8A4.29,4.29,0,0,0,355.92,160.94Z"/><path class="cls-1" d="M359.18,161.94l1,2.79a2.17,2.17,0,0,0,2.75.22c1.2-.68,1.56-1,1.09-2.33-.31-.86-.31-.86-1.92-2A16.43,16.43,0,0,1,359.18,161.94Z"/><path class="cls-1" d="M148.25,321.27l-1.93.7a18.84,18.84,0,0,0-2.84-1.16c-.51,2.61-.51,2.61,1.61,3.78L149,323.2c.21-.08.27-.58.41-.87C149.63,321.74,149.19,321.17,148.25,321.27Z"/><path class="cls-1" d="M210,327.13c.7,1.93,1.4,3.87,2.09,5.8.08.21.59.27.88.41.5.06.85-.31,1-1.32q-1-2.91-2.09-5.8c-.07-.21-.58-.27-.87-.41C210.42,325.75,210.15,326.33,210,327.13Z"/><path class="cls-1" d="M301.5,321.73c.9-1.53.73-2.68-.59-3.66a16.92,16.92,0,0,0-3.58-1.86c-.9,1.53-.72,2.69.6,3.66A16.62,16.62,0,0,0,301.5,321.73Z"/><path class="cls-1" d="M209.29,4.52c1.82,1,3.11.57,4.07-1.47-.88-.41-2-.75-2.84-1.16s-1.17-.55-1.52-.18a1.43,1.43,0,0,0,0,2C209.27,3.8,209.21,4.3,209.29,4.52Z"/><path class="cls-1" d="M72.19,31.73a13.1,13.1,0,0,0,2.79-1c.43-.16.41-.88.68-1.46l-3.5-1.65c-.27.59-.84,1-.68,1.46A5.62,5.62,0,0,0,72.19,31.73Z"/><path class="cls-1" d="M65.88,33c-1.83-1-3.11-.57-4.07,1.47.88.41,2,.75,2.84,1.16s1.17.55,1.52.18a1.43,1.43,0,0,0,0-2C66.11,33.68,66,33.25,65.88,33Z"/><path class="cls-1" d="M100.08,28.45a12.5,12.5,0,0,0,2.78-1c.43-.15.42-.87.69-1.45l-3.5-1.65c-.27.58-.84,1-.69,1.46A5.74,5.74,0,0,0,100.08,28.45Z"/><path class="cls-1" d="M144.2,17.13c.55-1.17,1.23-2.63,1.78-3.79-.91-1.86-2.1-.46-3.25-.28C141.77,15.1,142.45,16.31,144.2,17.13Z"/><path class="cls-1" d="M240.94,14.71c-2.39-.59-2.39-.59-3.85,1.39.6,1,.28,2.81,2.29,2.33A37.2,37.2,0,0,1,240.94,14.71Z"/><path class="cls-1" d="M40,104.24a1.56,1.56,0,0,0-1.46,2,34.63,34.63,0,0,0,1.62,4.51,1.58,1.58,0,0,0,1.47-2Z"/><path class="cls-1" d="M294.84,46c-.54-1.5-1.16-3.22-1.71-4.72-.15-.43-.87-.41-1.45-.69,0,0-.49.66-.41.88a8.56,8.56,0,0,0,1.83,4.43C293.55,46.41,294.19,46.18,294.84,46Z"/><path class="cls-1" d="M21.63,193.8c-1,1.83-.36,3,1.47,4.08.41-.88.75-2,1.16-2.84.49-.66.55-1.17.18-1.52a1.44,1.44,0,0,0-2,0C22.35,193.79,22.06,193.65,21.63,193.8Z"/><path class="cls-1" d="M327.34,92.43a13.1,13.1,0,0,0,2.79-1c.42-.15.41-.88.68-1.46l-3.5-1.65c-.27.59-.84,1-.68,1.46A5.62,5.62,0,0,0,327.34,92.43Z"/><path class="cls-1" d="M338.74,101.89c-.54,1.17-1.23,2.63-1.78,3.8.92,1.85,2.11.45,3.26.28A3,3,0,0,0,338.74,101.89Z"/><path class="cls-1" d="M49.94,225.3c-.6-1-.34-2.3-1.57-2.34s-1,1.32-1.46,2c-.14.29-.28.58-.41.88s-.28.58-.41.87A2.56,2.56,0,0,0,49.94,225.3Z"/><path class="cls-1" d="M356.71,181.27c-.79-2.87-.42-5.19-3-6.21-1,1.32-.08,2.46.17,3.82A3.45,3.45,0,0,0,356.71,181.27Z"/><path class="cls-1" d="M372.7,184c.59-2.39.59-2.39-1.39-3.86-1,.6-2.8.28-2.32,2.29C370.16,183,371.54,183.43,372.7,184Z"/><path class="cls-1" d="M363.52,217.62c1.82,1,3,.36,4.07-1.47-.88-.42-2-.75-2.84-1.16-.66-.49-1.17-.55-1.52-.18a1.43,1.43,0,0,0,0,1.95C363.28,217,363.44,217.4,363.52,217.62Z"/><path class="cls-1" d="M351.9,223c.21-.08.57-.45.86-.31l2.62,1.24a5.41,5.41,0,0,0,.69-1.46,12.85,12.85,0,0,0-1-2.79L351,221.17A5.61,5.61,0,0,1,351.9,223Z"/><path class="cls-1" d="M355.82,227.18c1,.84,2.61.52,3,2.31.21-.08.72,0,.85-.31a2.52,2.52,0,0,0-.3-3.53c-.45-.56-1.89-.53-2.67,0A6.12,6.12,0,0,0,355.82,227.18Z"/><path class="cls-1" d="M352.92,244c-1.82-1-3.11-.57-4.07,1.47.88.42,2,.75,2.84,1.16s1.17.55,1.52.18a1.43,1.43,0,0,0,0-2C352.94,244.72,353,244.21,352.92,244Z"/><path class="cls-1" d="M340.77,254a1.55,1.55,0,0,0,1.26,1.49,8.61,8.61,0,0,0,4.58-1.41c.22-.08.41-.88.41-.88-.37-.35-1-.84-1.46-.69A19.07,19.07,0,0,0,340.77,254Z"/><path class="cls-1" d="M351.2,264.75c1.83,1,3.12.57,4.07-1.47-.87-.41-2-.75-2.84-1.16s-1.16-.55-1.51-.18a1.44,1.44,0,0,0,0,1.95C351.18,264,351.05,264.32,351.2,264.75Z"/><path class="cls-1" d="M158.35,333.15a1.52,1.52,0,0,0,1.26,1.48c.88.42,2.1.46,2.14,1.9,1.42-.76,1.69-1.34,1.38-2.2-.32-1.58-1.28-2.2-2.78-1.66A6.11,6.11,0,0,0,158.35,333.15Z"/><path class="cls-1" d="M300.17,299.9c-1,1.83-.57,3.12,1.47,4.08.41-.88.75-2,1.16-2.84s.55-1.17.18-1.52a1.44,1.44,0,0,0-2,0C300.89,299.89,300.39,299.83,300.17,299.9Z"/><path class="cls-1" d="M221.05,333.07l2.79-1c1.17-2.12.88-2.26-.88-3.8C221.29,331,221.08,331.12,221.05,333.07Z"/><path class="cls-1" d="M217.89,336.39c.76,1.43,1.34,1.7,2.2,1.39,1.79-.4,2.2-1.28,1.66-2.78-.23-.64-.46-1.29-.7-1.93-1.36.25-1.48,1.26-1.89,2.14C219,336,218.61,336.38,217.89,336.39Z"/><path class="cls-1" d="M195.43,341c1.49-1.26,1.49-1.26,2.49-4.53-2.32-.38-2.53-.3-3.49,1.74Z"/><path class="cls-1" d="M198.37,343.08c-1-.84-2.61-.52-3-2.31-.22.08-.72,0-.86.31a2.53,2.53,0,0,0,.3,3.53c.45.56,1.89.53,2.67,0C198,344.17,198.1,343.66,198.37,343.08Z"/><path class="cls-1" d="M207.67,355.07l-.41.88c-.06.5.31.86,1.32,1l3.86-1.39.41-.87c.06-.51-.31-.86-1.32-1Z"/><path class="cls-1" d="M215.57,377c-.49.66-.77,1.25-.18,1.52l.87.41,3.86-1.39c.49-.66.55-1.17.18-1.52l-.88-.41Z"/><path class="cls-1" d="M125.48,14.92c1-1.83.57-3.12-1.47-4.08C123,12.67,123.51,14.17,125.48,14.92Z"/><path class="cls-1" d="M56.89,39.67,58.82,39a15.21,15.21,0,0,0-1.08-3c-.53-.78-1.25-.76-1.52-.18-.14.3-.49.66-.41.88C56.2,37.74,56.51,38.6,56.89,39.67Z"/><path class="cls-1" d="M65.06,43.52a13.1,13.1,0,0,0,2.79-1c.42-.15.76-1.24.68-1.46a1.53,1.53,0,0,0-1.81-.32,5.79,5.79,0,0,0-1.56,1.05C64.52,42,64.54,42.74,65.06,43.52Z"/><path class="cls-1" d="M43.83,71.31a1.53,1.53,0,0,0,1.27,1.48c.79.2,1.13-.89.66-2.18-.07-.21-.23-.64-.31-.86l-.87-.41c-.51-.06-.86.31-1.06,1.11C43.39,70.74,43.76,71.09,43.83,71.31Z"/><path class="cls-1" d="M46,76.6c.82.92,3,.14,3.22-1.16a.44.44,0,0,0-.23-.65c-.82-.92-3-.14-3.22,1.16Z"/><path class="cls-1" d="M229.33,20.12c1.28-.47,1.91-1.42,1.25-1.91a1.43,1.43,0,0,0-2,0l-.86.31c-.48.66-.76,1.24-.17,1.52.29.13.66.48.87.41Z"/><path class="cls-1" d="M33.57,105.33c-1.82-1-3.11-.57-4.07,1.47C31.54,107.76,32.83,107.3,33.57,105.33Z"/><path class="cls-1" d="M276.31,25.47a1.53,1.53,0,0,0-1.48,1.26c-.12,1,1,1.35,2.25.89l.86-.31c.14-.29.28-.59.41-.88.06-.5-.31-.86-1.1-1.05A1.35,1.35,0,0,0,276.31,25.47Z"/><path class="cls-1" d="M290.27,27.23a13.1,13.1,0,0,0-1-2.79c-.15-.43-1.24-.77-1.46-.69a1.52,1.52,0,0,0-.31,1.81,5.39,5.39,0,0,0,1,1.56A1.19,1.19,0,0,0,290.27,27.23Z"/><path class="cls-1" d="M303.76,25c-.91.82-.14,3,1.16,3.22a.43.43,0,0,0,.65-.23c.91-.82.14-3-1.17-3.22Z"/><path class="cls-1" d="M285.2,38c.46,1.29,1.42,1.91,1.9,1.25a1.44,1.44,0,0,0,0-2c-.08-.21-.23-.64-.31-.86-.66-.49-1.25-.76-1.52-.18-.14.3-.49.67-.41.88S285.12,37.81,285.2,38Z"/><path class="cls-1" d="M300.6,37.08c1.29-.47,1.91-1.42,1.25-1.91a1.43,1.43,0,0,0-2,0l-.85.31c-.49.66-.76,1.24-.18,1.52.29.13.66.48.87.41Z"/><path class="cls-1" d="M305.09,55.59a13.1,13.1,0,0,0,2.79-1c.43-.15.76-1.24.69-1.46a1.53,1.53,0,0,0-1.81-.32,5.29,5.29,0,0,0-1.56,1.05A1.19,1.19,0,0,0,305.09,55.59Z"/><path class="cls-1" d="M331.32,63.83l.64-.24a2.29,2.29,0,0,0-1.16-3.22l-.64.24c-.14.29-.49.66-.41.87l.69,1.93C330.52,63.63,331,63.69,331.32,63.83Z"/><path class="cls-1" d="M7.53,189c-1.83-1-3.11-.57-4.07,1.47C5.42,191.16,6.71,190.7,7.53,189Z"/><path class="cls-1" d="M26.61,229.11c1.83,1,3.12.58,4.07-1.47C28.64,226.68,27.36,227.15,26.61,229.11Z"/><path class="cls-1" d="M344.12,126.87a1.51,1.51,0,0,0,1.48-1.26,2.9,2.9,0,0,0-.93-2.57,1.43,1.43,0,0,0-1.94,0C343.19,124.3,343.65,125.59,344.12,126.87Z"/><path class="cls-1" d="M45.22,241.07l.64-.23a2.29,2.29,0,0,0-1.16-3.22l-.64.23c-.14.3-.49.66-.42.88.24.64.47,1.29.7,1.93C44.42,240.88,44.92,240.94,45.22,241.07Z"/><path class="cls-1" d="M368.38,175.35c-1.83-1-3.11-.57-4.07,1.47C366.35,177.79,367.64,177.32,368.38,175.35Z"/><path class="cls-1" d="M98.18,278.47a13.07,13.07,0,0,0-2.79,1c-.42.16-.76,1.25-.68,1.46a1.53,1.53,0,0,0,1.81.32,5.36,5.36,0,0,0,1.56-1.05C98.65,279.75,98.7,279.25,98.18,278.47Z"/><path class="cls-1" d="M362,194.63a12.58,12.58,0,0,0,1,2.79c.15.43,1.24.77,1.46.69a1.54,1.54,0,0,0,.31-1.81,5.27,5.27,0,0,0-1.05-1.57A1.18,1.18,0,0,0,362,194.63Z"/><path class="cls-1" d="M116.17,303.5c1.77-1.12,2-1.92.55-3.83-.07-.22-.58-.28-.87-.42-.21.08-.35.37-.57.45-.13.29-.27.58-.19.8C115.47,301.57,115.86,302.64,116.17,303.5Z"/><path class="cls-1" d="M114.24,304.2a13.07,13.07,0,0,0-1-2.79c-.16-.43-1.25-.76-1.46-.69a1.54,1.54,0,0,0-.32,1.82,5.36,5.36,0,0,0,1.05,1.56A1.18,1.18,0,0,0,114.24,304.2Z"/><path class="cls-1" d="M355.2,219.4c1.77-1.12,2-1.92.55-3.83-.08-.22-.58-.28-.87-.42-.22.08-.35.37-.57.45a1.25,1.25,0,0,0-.2.8Z"/><path class="cls-1" d="M103,319.41c1-1.83.57-3.12-1.47-4.08C100.58,317.38,101.05,318.66,103,319.41Z"/><path class="cls-1" d="M365.53,229.26a13.1,13.1,0,0,0,2.79-1c.43-.15.76-1.24.68-1.46a1.53,1.53,0,0,0-1.81-.32,5.79,5.79,0,0,0-1.56,1.05C364.86,228.05,365.09,228.69,365.53,229.26Z"/><path class="cls-1" d="M125.14,325c-1,1.82-.58,3.11,1.47,4.07C127.56,327,127.1,325.75,125.14,325Z"/><path class="cls-1" d="M150.75,328.86l.64-.23a2.29,2.29,0,0,0-1.16-3.22l-.64.23c-.14.29-.49.66-.42.88.24.64.47,1.28.7,1.93C150,328.66,150.45,328.72,150.75,328.86Z"/><path class="cls-1" d="M158.35,333.15c-1.13-1.78-1.92-2-3.84-.56-.21.08-.27.59-.41.88.08.21.37.35.45.56a1.18,1.18,0,0,0,.8.2A14.74,14.74,0,0,0,158.35,333.15Z"/><path class="cls-1" d="M146.26,339.94c-1,1.83-.57,3.11,1.47,4.07C148.48,342.05,148,340.76,146.26,339.94Z"/><path class="cls-1" d="M227.06,330.9a1.53,1.53,0,0,0,1.26,1.49c.8.19,1.13-.9.67-2.18-.08-.22-.24-.65-.31-.86l-.88-.41q-.77-.09-1.05,1.11C226.82,330.26,227,330.69,227.06,330.9Z"/><path class="cls-1" d="M185.73,356.69a1.53,1.53,0,0,0-1.49,1.26c-.19.8.9,1.13,2.18.67l.86-.31.41-.88q.09-.75-1.11-1.05C186.29,356.24,185.94,356.61,185.73,356.69Z"/><path class="cls-1" d="M190.34,345a12.68,12.68,0,0,0-2.78,1c-.43.15-.77,1.24-.69,1.46a1.53,1.53,0,0,0,1.81.32,5.49,5.49,0,0,0,1.56-1.05A1.18,1.18,0,0,0,190.34,345Z"/><path class="cls-1" d="M216,354.72c-.91.82-.14,3,1.17,3.22a.42.42,0,0,0,.64-.23c.92-.82.14-3-1.16-3.22C216.38,354.36,216.24,354.65,216,354.72Z"/><path class="cls-1" d="M192.52,366.12c1.83,1,3.11.57,4.07-1.47C194.55,363.69,193.26,364.15,192.52,366.12Z"/><path class="cls-1" d="M210.27,384.45c1.83,1,3.12.57,4.08-1.47C212.3,382,211,382.48,210.27,384.45Z"/><path class="cls-1" d="M60.84,263.57c-1.83-1-3.12-.58-4.08,1.47C58.59,266.08,59.88,265.61,60.84,263.57Z"/><path class="cls-1" d="M281.13,343.16c1-1.83.57-3.12-1.47-4.08C278.92,341.05,279.38,342.33,281.13,343.16Z"/><path class="cls-1" d="M253.32,358.05c1.28-.47,1.91-1.42,1.25-1.91a1.43,1.43,0,0,0-1.95,0l-.86.31c-.49.66-.76,1.24-.18,1.52.29.13.66.48.88.41C252.54,358.57,252.89,358.2,253.32,358.05Z"/><path class="cls-1" d="M132.24,3.93c-.06.51.31.86,1.11,1.06l.41-.88q.09-.77-1.11-1.05Z"/><path class="cls-1" d="M69.9,23.34q.75.09,1-1.11l-.88-.41q-.75-.09-1,1.11Z"/><path class="cls-1" d="M62.17,28.79c-.75-1.42-1-1.56-2.62-1.23C60.09,29.06,60.3,29,62.17,28.79Z"/><path class="cls-1" d="M62.48,29.65c.08.22.37.35.88.41a.86.86,0,0,0,.72,0c.49-.67.55-1.17,0-1.45s-1.16-.55-1.65.12C62,28.87,62.19,29.51,62.48,29.65Z"/><path class="cls-1" d="M101,18.18c.66.49,1.16.55,1.52.18.13-.29.41-.87.41-.87-.66-.49-1.17-.55-1.52-.18C101,17.46,101.11,17.89,101,18.18Z"/><path class="cls-1" d="M35,44.89c.5.06.85-.3,1.05-1.1l-.87-.41c-.51-.06-.86.3-1.06,1.1Z"/><path class="cls-1" d="M70.73,33.71s.66.49.87.41a2.31,2.31,0,0,0,.77-1.24c.11-1-.47-1.29-1.17-.55A4.82,4.82,0,0,0,70.73,33.71Z"/><path class="cls-1" d="M88.45,30.46c.22-.07.35-.36.41-.87a.82.82,0,0,0,0-.72c-.66-.49-1.16-.55-1.44,0s-.54,1.17.12,1.66C87.59,30.77,88,30.62,88.45,30.46Z"/><path class="cls-1" d="M47.73,45.16c1.42-.75,1.56-1,1.23-2.62C47.54,43.29,47.4,43.58,47.73,45.16Z"/><path class="cls-1" d="M43.9,44.61s-.49.66-.42.87c.37.36.82.92,1.25.77,1,.12,1.28-.47.55-1.17C45.12,44.65,44.4,44.67,43.9,44.61Z"/><path class="cls-1" d="M25.07,52.86c.14-.29.41-.88.41-.88-.66-.49-1.17-.55-1.52-.18-.13.29-.41.88-.41.88C24.29,53.38,24.72,53.23,25.07,52.86Z"/><path class="cls-1" d="M164.46,5.79l.87.41c.49-.66.55-1.17.18-1.52l-.87-.41C164.15,4.93,164.09,5.43,164.46,5.79Z"/><path class="cls-1" d="M121.28,20.07c.06-.51-.31-.86-1.11-1.06l-.41.88c-.06.51.31.86,1.11,1.06C121.08,20.87,121.14,20.36,121.28,20.07Z"/><path class="cls-1" d="M86.13,32.76s.66.49.87.41a2.25,2.25,0,0,0,.77-1.25c.12-1-.47-1.28-1.17-.54C86.39,31.45,86.19,32.25,86.13,32.76Z"/><path class="cls-1" d="M75.63,36.55c.06-.51-.31-.86-1.11-1.06,0,0-.27.59-.41.88q-.09.77,1.11,1.05C75.43,37.35,75.49,36.84,75.63,36.55Z"/><path class="cls-1" d="M45.8,45.86c.76,1.43,1.34,1.7,1.91,1.25a1.45,1.45,0,0,0,0-2Z"/><path class="cls-1" d="M42,48.7c.06-.51-.31-.86-1.11-1.06l-.41.88q-.09.75,1.11,1Z"/><path class="cls-1" d="M79.48,37.83q.76.09,1-1.11l-.87-.41c-.51-.06-.86.31-1.06,1.1Z"/><path class="cls-1" d="M149.62,14.69c.5.06.86-.31,1-1.11l-.87-.41c-.51-.06-.86.31-1.06,1.11C148.82,14.49,149.33,14.55,149.62,14.69Z"/><path class="cls-1" d="M131.32,21.05l.88.41c.49-.66.55-1.16.18-1.51l-.88-.42A1,1,0,0,0,131.32,21.05Z"/><path class="cls-1" d="M115.46,26.78l.88.41c.49-.66.55-1.17.18-1.52l-.88-.41A1,1,0,0,0,115.46,26.78Z"/><path class="cls-1" d="M103.72,29.81s-.49.66-.41.87c.37.35.81.92,1.24.76,1,.12,1.29-.46.55-1.16A2.3,2.3,0,0,0,103.72,29.81Z"/><path class="cls-1" d="M175.1,7.43q.09-.75-1.11-1l-.41.87c-.06.51.31.86,1.11,1.06C174.9,8.23,175,7.73,175.1,7.43Z"/><path class="cls-1" d="M154.58,17l.87.42c.49-.66.55-1.17.18-1.52l-.87-.41C154.27,16.17,154.21,16.67,154.58,17Z"/><path class="cls-1" d="M46.77,55.94c.06-.51-.31-.86-1.11-1.06l-.41.88c-.06.51.31.86,1.11,1.06C46.36,56.82,46.63,56.23,46.77,55.94Z"/><path class="cls-1" d="M41.53,56.86c-.14.29-.41.88-.41.88.66.49,1.17.55,1.52.18l.41-.88C42.39,56.55,41.88,56.49,41.53,56.86Z"/><path class="cls-1" d="M52.09,55.23l-.41.88c.66.49,1.16.55,1.51.18.14-.29.41-.88.41-.88C52.94,54.92,52.44,54.86,52.09,55.23Z"/><path class="cls-1" d="M188,9.58l.88.41c.49-.66.54-1.17.18-1.52l-.88-.41C187.67,8.72,187.61,9.22,188,9.58Z"/><path class="cls-1" d="M48.93,58.56l-.42.87c.67.49,1.17.55,1.52.18l.41-.87C49.78,58.25,49.28,58.19,48.93,58.56Z"/><path class="cls-1" d="M40.42,67.21l.87.41c.49-.66.55-1.17.18-1.52l-.87-.41C40.11,66.35,40.05,66.85,40.42,67.21Z"/><path class="cls-1" d="M236.64,1.22l-.88-.41c-.49.66-.55,1.17-.18,1.52l.88.41A1,1,0,0,0,236.64,1.22Z"/><path class="cls-1" d="M47.48,67.32c.51.06.86-.31,1.06-1.1l-.88-.42q-.75-.09-1,1.11Z"/><path class="cls-1" d="M247.6,1.39c-.51-.06-.86.31-1.06,1.11l.88.41q.75.09,1.05-1.11Z"/><path class="cls-1" d="M56.32,69c-.76-1.43-1.34-1.7-1.91-1.26a1.45,1.45,0,0,0,0,2Z"/><path class="cls-1" d="M194.54,21c.5.06.85-.31,1.05-1.1l-.88-.42q-.75-.09-1.05,1.11Z"/><path class="cls-1" d="M45.49,79.93s-.49.66-.41.87c.37.36.81.92,1.24.77,1,.12,1.29-.47.55-1.17C46.72,80,46,80,45.49,79.93Z"/><path class="cls-1" d="M264.49,10.48l.41-.88c-.66-.49-1.17-.55-1.52-.18l-.41.88C263.63,10.79,264.14,10.85,264.49,10.48Z"/><path class="cls-1" d="M245.66,10.34l-.87-.41c-.49.66-.55,1.17-.18,1.52l.88.41A1,1,0,0,0,245.66,10.34Z"/><path class="cls-1" d="M221.87,18.93l-.87-.41c-.49.66-.55,1.16-.18,1.52l.88.41A1,1,0,0,0,221.87,18.93Z"/><path class="cls-1" d="M278,2.07c-.06.5.31.86,1.11,1.05l.41-.87c.06-.51-.31-.86-1.11-1.06C278.28,1,278.09,1.78,278,2.07Z"/><path class="cls-1" d="M35.25,94.54c-.48.66-.54,1.17-.17,1.52l.87.41c.49-.66.55-1.17.18-1.52Z"/><path class="cls-1" d="M274.36,10.65c-.49.66-.55,1.17-.18,1.52l.88.42c.48-.67.54-1.17.17-1.52S274.65,10.79,274.36,10.65Z"/><path class="cls-1" d="M260.72,15.82q-.77-.09-1.05,1.11l.87.41c.51.06.86-.31,1.06-1.11Z"/><path class="cls-1" d="M295.3,14.07q.09-.77-1.11-1.05l-.41.87c-.06.51.31.86,1.11,1.06Z"/><path class="cls-1" d="M279.79,11.6l-.88-.41c-.48.66-.54,1.17-.18,1.52l.88.41C280.1,12.46,280.16,12,279.79,11.6Z"/><path class="cls-1" d="M250.5,22.42c.66.49,1.17.55,1.52.18l.41-.88c-.66-.49-1.16-.55-1.52-.18C250.78,21.83,250.64,22.13,250.5,22.42Z"/><path class="cls-1" d="M42.59,96.74s-.49.66-.41.88c.37.35.81.91,1.24.76,1,.12,1.29-.46.55-1.17A2.3,2.3,0,0,0,42.59,96.74Z"/><path class="cls-1" d="M280.68,21.47c.14-.29.41-.88.41-.88-.66-.49-1.17-.55-1.52-.18l-.41.88C279.82,21.78,280.33,21.84,280.68,21.47Z"/><path class="cls-1" d="M281.14,25.43l.88.41c.48-.66.54-1.17.17-1.52l-.87-.41A1,1,0,0,0,281.14,25.43Z"/><path class="cls-1" d="M290.58,28.08c.07.22.37.36.87.42a.85.85,0,0,0,.72,0c.49-.66.55-1.17,0-1.44s-1.17-.55-1.66.11A1.32,1.32,0,0,0,290.58,28.08Z"/><path class="cls-1" d="M4.33,132.38l.41-.88c-.66-.49-1.17-.55-1.52-.18-.13.3-.41.88-.41.88C3.47,132.69,4,132.75,4.33,132.38Z"/><path class="cls-1" d="M316.5,31.15l.41-.88c-.66-.49-1.17-.55-1.52-.18-.14.29-.41.88-.41.88C315.64,31.46,316.14,31.52,316.5,31.15Z"/><path class="cls-1" d="M8.1,136.11c-.51-.06-.86.31-1.06,1.11l.88.41q.76.09,1.05-1.11A1.7,1.7,0,0,1,8.1,136.11Z"/><path class="cls-1" d="M295.31,35.83q.09-.75-1.11-1l-.41.88q-.09.75,1.11,1.05Z"/><path class="cls-1" d="M16.55,119.24c.66.49,1.16.55,1.52.18.13-.29.41-.88.41-.88-.66-.49-1.17-.55-1.52-.18C16.82,118.65,16.68,119,16.55,119.24Z"/><path class="cls-1" d="M1,144.51l.88.41c.49-.66.55-1.16.18-1.52L1.13,143A1,1,0,0,0,1,144.51Z"/><path class="cls-1" d="M29.51,136.39l.88.41c.49-.66.55-1.17.18-1.52l-.88-.41C29.2,135.53,29.14,136,29.51,136.39Z"/><path class="cls-1" d="M295.15,46.81c.07.21.37.35.87.41a.82.82,0,0,0,.72,0c.49-.66.55-1.17,0-1.44s-1.17-.55-1.66.11C294.84,46,295,46.38,295.15,46.81Z"/><path class="cls-1" d="M313.06,54.17c.06-.51-.31-.86-1.11-1.06l-.41.88q-.09.75,1.11,1C312.86,55,312.92,54.46,313.06,54.17Z"/><path class="cls-1" d="M327.63,51.58l.41-.88c-.66-.49-1.17-.55-1.52-.18-.14.29-.41.88-.41.88A1,1,0,0,0,327.63,51.58Z"/><path class="cls-1" d="M326.41,54.92q-.75-.09-1.05,1.11l.87.41c.51.06.86-.31,1.06-1.1C327.5,55.26,326.7,55.06,326.41,54.92Z"/><path class="cls-1" d="M20.91,167.63c-.13.29-.41.87-.41.87.66.49,1.17.55,1.52.18.14-.29.41-.88.41-.88C21.77,167.32,21.26,167.26,20.91,167.63Z"/><path class="cls-1" d="M24.24,170.79l-.42.88c.67.49,1.17.55,1.52.18l.41-.88C25.09,170.48,24.59,170.42,24.24,170.79Z"/><path class="cls-1" d="M312.71,69.33q-.09.77,1.11,1l.41-.87c.06-.51-.31-.86-1.11-1.06C312.91,68.53,312.85,69,312.71,69.33Z"/><path class="cls-1" d="M23.2,187.41c-.06.51.31.86,1.11,1.06,0,0,.28-.59.41-.88q.09-.75-1.11-1.05C23.32,186.4,23.34,187.12,23.2,187.41Z"/><path class="cls-1" d="M336.11,85.86c.67.49,1.17.55,1.52.18l.41-.87c-.66-.49-1.16-.55-1.51-.18Z"/><path class="cls-1" d="M334.1,91.68l.87.42c.49-.66.55-1.17.18-1.52l-.88-.41A1,1,0,0,0,334.1,91.68Z"/><path class="cls-1" d="M342.19,95.31l.87.41c.49-.66.55-1.16.18-1.51l-.87-.42C341.88,94.45,341.82,95,342.19,95.31Z"/><path class="cls-1" d="M351.05,101.09l.88.41c.48-.66.54-1.17.18-1.52l-.88-.41C350.74,100.23,350.68,100.74,351.05,101.09Z"/><path class="cls-1" d="M33.19,215.1c-.06.5.31.86,1.1,1.05,0,0,.28-.58.41-.87.06-.51-.31-.86-1.1-1.06C33.38,214.3,33.32,214.81,33.19,215.1Z"/><path class="cls-1" d="M28.7,217.44c.06-.5-.31-.85-1.1-1.05l-.42.87c-.05.51.31.86,1.11,1.06C28.51,218.24,28.57,217.74,28.7,217.44Z"/><path class="cls-1" d="M345.88,107.56q.09-.75-1.11-1l-.41.87c-.06.51.31.86,1.11,1.06Z"/><path class="cls-1" d="M19.5,224.16c-.51-.06-.86.31-1.06,1.11l.88.41q.76.09,1.05-1.11Z"/><path class="cls-1" d="M342.09,111.84c.21-.08.35-.37.41-.88a.82.82,0,0,0,0-.72c-.66-.49-1.16-.55-1.44,0s-.55,1.17.12,1.65C341.31,112.36,342,112.13,342.09,111.84Z"/><path class="cls-1" d="M356.21,112.91c-.48.66-.54,1.17-.17,1.52l.87.41c.49-.66.55-1.17.18-1.52C357,113.11,356.72,113,356.21,112.91Z"/><path class="cls-1" d="M339.77,114.13s.66.49.87.42a2.3,2.3,0,0,0,.77-1.25c.11-1-.47-1.29-1.17-.55C340,112.83,340,113.55,339.77,114.13Z"/><path class="cls-1" d="M356,138.35c.21-.08.35-.37.41-.88a.82.82,0,0,0,0-.72c-.66-.49-1.17-.55-1.44,0s-.55,1.16.11,1.65A1.42,1.42,0,0,0,356,138.35Z"/><path class="cls-1" d="M355.85,140.59c-.24-.65-.47-1.29-.7-1.93-1.42.75-1.56,1.05-1.23,2.62Z"/><path class="cls-1" d="M356.16,141.45c.07.21.37.35.87.41a.85.85,0,0,0,.72,0c.49-.66.55-1.17,0-1.44s-1.17-.55-1.66.11A1.36,1.36,0,0,0,356.16,141.45Z"/><path class="cls-1" d="M359.87,128.13c.5.06.86-.31,1.05-1.11l-.87-.41c-.51-.06-.86.31-1.06,1.11C359.07,127.93,359.58,128,359.87,128.13Z"/><path class="cls-1" d="M68.28,252.64c.06-.51-.31-.86-1.11-1.06l-.41.88c-.06.5.31.86,1.11,1C68.08,253.43,68.14,252.93,68.28,252.64Z"/><path class="cls-1" d="M71.57,254.36l1.92-.7c-.75-1.42-1.34-1.7-1.9-1.25A1.52,1.52,0,0,0,71.57,254.36Z"/><path class="cls-1" d="M70.31,256.27s.67.49.88.41c.35-.37.92-.82.76-1.25.12-1-.46-1.28-1.16-.55A2.25,2.25,0,0,0,70.31,256.27Z"/><path class="cls-1" d="M71.78,260.35l.88.41c.49-.66.55-1.17.18-1.52l-.88-.41C71.48,259.49,71.42,260,71.78,260.35Z"/><path class="cls-1" d="M364.39,156.91l.88.41c.49-.66.55-1.17.18-1.52l-.88-.41C364.08,156.05,364,156.55,364.39,156.91Z"/><path class="cls-1" d="M75.11,263.51s.66.49.87.41c.35-.37.92-.81.76-1.24.12-1-.46-1.29-1.16-.55A2.3,2.3,0,0,0,75.11,263.51Z"/><path class="cls-1" d="M369.72,162.26l.41-.88c-.66-.48-1.17-.54-1.52-.17l-.41.87C368.86,162.57,369.37,162.63,369.72,162.26Z"/><path class="cls-1" d="M366.57,169c-.06.5.31.86,1.1,1.05l.41-.87c.06-.51-.3-.86-1.1-1.06C366.76,168.18,366.7,168.68,366.57,169Z"/><path class="cls-1" d="M361.32,175.24l-.88-.41c-.49.66-.55,1.16-.18,1.52l.88.41A1,1,0,0,0,361.32,175.24Z"/><path class="cls-1" d="M372.17,177.14c.51.06.86-.31,1.06-1.11l-.88-.41q-.75-.09-1.05,1.11C371.08,176.8,371.88,177,372.17,177.14Z"/><path class="cls-1" d="M91.39,277.77s.66.48.87.41a2.3,2.3,0,0,0,.77-1.25c.11-1-.47-1.29-1.17-.55C91.72,276.67,91.66,277.18,91.39,277.77Z"/><path class="cls-1" d="M73,288.53c-.06.51.31.86,1.1,1.06,0,0,.28-.59.41-.88.06-.51-.31-.86-1.1-1.06C73.32,287.44,73.05,288,73,288.53Z"/><path class="cls-1" d="M68.72,290.8c.06-.51-.31-.86-1.11-1.06,0,0-.27.59-.41.88-.06.51.31.86,1.11,1.06C68.31,291.68,68.58,291.09,68.72,290.8Z"/><path class="cls-1" d="M90.52,289.48c.06-.51-.31-.86-1.1-1.06,0,0-.28.59-.41.88-.06.5.31.85,1.1,1.05C90.4,290.49,90.39,289.77,90.52,289.48Z"/><path class="cls-1" d="M370.43,191.11c.5.06.86-.31,1.05-1.11l-.87-.41c-.51-.06-.86.31-1.06,1.11C369.63,190.91,370.14,191,370.43,191.11Z"/><path class="cls-1" d="M96,289.92l.88.41c.49-.66.55-1.17.18-1.52l-.88-.41A1,1,0,0,0,96,289.92Z"/><path class="cls-1" d="M114,296.77s.66.49.87.41c.35-.36.92-.81.76-1.24.12-1-.46-1.29-1.16-.55C114.24,295.47,114.05,296.27,114,296.77Z"/><path class="cls-1" d="M99.35,302.54c.14-.29.41-.88.41-.88-.66-.49-1.16-.55-1.52-.18-.13.3-.41.88-.41.88C98.49,302.85,99,302.91,99.35,302.54Z"/><path class="cls-1" d="M107.51,303c-.06.51.31.86,1.11,1.06,0,0,.27-.59.41-.88.06-.5-.31-.86-1.11-1.05C107.71,302.19,107.64,302.7,107.51,303Z"/><path class="cls-1" d="M83,312.82c.13-.29.41-.87.41-.87-.66-.49-1.17-.55-1.52-.18l-.41.87C82.1,313.13,82.6,313.19,83,312.82Z"/><path class="cls-1" d="M116.17,303.5l-1.93.7c.76,1.42,1.34,1.7,1.91,1.25A1.44,1.44,0,0,0,116.17,303.5Z"/><path class="cls-1" d="M110.14,307.62l.42-.88c-.67-.49-1.17-.55-1.52-.18l-.41.88C109.29,307.93,109.79,308,110.14,307.62Z"/><path class="cls-1" d="M363.06,222.39c.66.49,1.16.55,1.52.18l.41-.88c-.66-.49-1.17-.55-1.52-.18C363.25,221.59,363.19,222.1,363.06,222.39Z"/><path class="cls-1" d="M372,224.27l.41-.88c-.66-.49-1.17-.55-1.52-.18l-.41.88A1,1,0,0,0,372,224.27Z"/><path class="cls-1" d="M364.07,231.24s.66.49.87.41c.36-.37.92-.81.77-1.24.12-1-.47-1.29-1.17-.55C364.33,229.93,364.13,230.73,364.07,231.24Z"/><path class="cls-1" d="M139.31,315.28c.21-.08.35-.37.41-.88a.82.82,0,0,0,0-.72c-.66-.48-1.16-.54-1.44,0s-.55,1.17.12,1.66A.56.56,0,0,0,139.31,315.28Z"/><path class="cls-1" d="M358.11,238.24c.51.06.86-.31,1.06-1.11l-.88-.41q-.75-.09-1.05,1.11C357.32,238,357.82,238.1,358.11,238.24Z"/><path class="cls-1" d="M137.2,317.5s.66.49.88.41a2.29,2.29,0,0,0,.76-1.25c.12-1-.46-1.28-1.17-.55A2.3,2.3,0,0,0,137.2,317.5Z"/><path class="cls-1" d="M354.21,240.86c-.06.51.31.86,1.11,1.06l.41-.88c.06-.51-.31-.86-1.1-1Z"/><path class="cls-1" d="M144.05,329.09c.5.06.86-.31,1-1.11l-.87-.41c-.51-.06-.86.31-1.06,1.11Z"/><path class="cls-1" d="M341,258.5s-.49.66-.41.88c.36.35.81.92,1.24.76,1,.12,1.29-.46.55-1.17C342.26,258.76,341.46,258.56,341,258.5Z"/><path class="cls-1" d="M345.56,261.2c-.75-1.42-1-1.56-2.62-1.23C343.69,261.39,344,261.53,345.56,261.2Z"/><path class="cls-1" d="M345.87,262.06c.08.22.37.35.88.41a.86.86,0,0,0,.72,0c.49-.66.55-1.17,0-1.45s-1.16-.55-1.65.12C345.56,261.2,345.8,261.85,345.87,262.06Z"/><path class="cls-1" d="M337.94,264.92c.08.22.37.36.88.42a.85.85,0,0,0,.72,0c.49-.66.55-1.17,0-1.44s-1.16-.55-1.65.11C337.42,264.14,337.86,264.71,337.94,264.92Z"/><path class="cls-1" d="M134.77,344.33c-.51-.06-.86.31-1.06,1.11l.88.41c.5.06.86-.31,1-1.11Z"/><path class="cls-1" d="M128.83,352.05c.06-.51-.31-.86-1.11-1.06l-.41.88c-.06.51.31.86,1.11,1.06C128.63,352.85,128.69,352.34,128.83,352.05Z"/><path class="cls-1" d="M344.84,278.68q.09-.75-1.11-1.05l-.41.88q-.09.75,1.11,1.05Z"/><path class="cls-1" d="M203.87,329.08c.67.49,1.17.55,1.52.18l.41-.87c-.66-.49-1.16-.55-1.51-.18C204.15,328.5,204.23,328.71,203.87,329.08Z"/><path class="cls-1" d="M152.8,348l.88.42c.49-.67.55-1.17.18-1.52l-.88-.42C152.49,347.14,152.44,347.65,152.8,348Z"/><path class="cls-1" d="M136.78,358.64q.75.09,1.05-1.11l-.87-.41c-.51-.06-.86.31-1.06,1.11Z"/><path class="cls-1" d="M309.76,296.93l-.41.87c.66.49,1.16.55,1.51.18l.41-.87C310.61,296.62,310.11,296.56,309.76,296.93Z"/><path class="cls-1" d="M154.74,353.37q-.09.76,1.11,1.05l.41-.87c.06-.51-.31-.86-1.11-1.06C155.07,352.28,154.88,353.08,154.74,353.37Z"/><path class="cls-1" d="M291.57,307.62c.21-.08.35-.37.41-.88a.82.82,0,0,0,0-.72c-.66-.49-1.16-.55-1.44,0s-.55,1.17.11,1.66C290.71,307.93,291.14,307.77,291.57,307.62Z"/><path class="cls-1" d="M289.25,309.91s.66.49.87.41a2.24,2.24,0,0,0,.76-1.24c.12-1-.46-1.29-1.16-.55C289.5,308.6,289.31,309.4,289.25,309.91Z"/><path class="cls-1" d="M216,335.14s-.49.66-.41.88a2.3,2.3,0,0,0,1.24.76c1,.12,1.29-.46.55-1.17C217.21,335.18,216.49,335.2,216,335.14Z"/><path class="cls-1" d="M159.05,355.93q-.75-.09-1.05,1.11l.88.41c.5.06.85-.31,1.05-1.1C159.85,356.13,159.35,356.07,159.05,355.93Z"/><path class="cls-1" d="M164.76,356.3c-.06.51.31.86,1.11,1.06,0,0,.27-.59.41-.88.06-.51-.31-.86-1.11-1.06C165.17,355.42,164.9,356,164.76,356.3Z"/><path class="cls-1" d="M138.4,365.82l-.88-.42c-.49.67-.55,1.17-.18,1.52l.88.42A1,1,0,0,0,138.4,365.82Z"/><path class="cls-1" d="M151,363.71l-.88-.41c-.48.66-.54,1.16-.18,1.52l.88.41C151.27,364.57,151.33,364.06,151,363.71Z"/><path class="cls-1" d="M248.78,332c.21-.08.35-.37.41-.88a.82.82,0,0,0,0-.72c-.66-.49-1.16-.55-1.44,0s-.55,1.17.12,1.66C247.92,332.35,248.35,332.19,248.78,332Z"/><path class="cls-1" d="M132.17,373.4q.09-.76-1.11-1l-.41.87c-.06.51.31.86,1.11,1.06Z"/><path class="cls-1" d="M146.8,370.3q.09-.75-1.11-1.05l-.41.87c-.06.51.31.86,1.1,1.06A1.78,1.78,0,0,1,146.8,370.3Z"/><path class="cls-1" d="M126.86,377.5c.06-.51-.31-.86-1.1-1.06l-.41.88c-.06.51.3.86,1.1,1.05Z"/><path class="cls-1" d="M222.94,345c.05-.5-.31-.86-1.11-1.05l-.41.87c-.06.51.31.86,1.1,1.06C222.6,346.09,222.66,345.59,222.94,345Z"/><path class="cls-1" d="M236.82,341.2q-.75-.09-1,1.11l.88.41q.75.09,1-1.11Z"/><path class="cls-1" d="M185.36,362.4c.66.49,1.17.55,1.52.18l.41-.88c-.66-.49-1.17-.55-1.52-.18C185.64,361.81,185.71,362,185.36,362.4Z"/><path class="cls-1" d="M163.37,376c.51.06.86-.31,1-1.1l-.87-.42c-.51-.06-.86.31-1.06,1.11Z"/><path class="cls-1" d="M145,380.88s-.49.66-.41.88a2.3,2.3,0,0,0,1.24.76c1,.12,1.29-.46.55-1.17A5.27,5.27,0,0,0,145,380.88Z"/><path class="cls-1" d="M331.29,288.91c.06-.5-.31-.86-1.11-1.05l-.41.87c-.06.51.31.86,1.11,1.06Z"/><path class="cls-1" d="M254.86,344.88l.88.41c.49-.66.55-1.17.18-1.52l-.88-.41C254.55,344,254.49,344.52,254.86,344.88Z"/><path class="cls-1" d="M147.33,383.21c.08.21.37.35.88.41a.82.82,0,0,0,.72,0c.48-.66.54-1.17,0-1.44s-1.17-.55-1.65.11C146.81,382.43,147,382.86,147.33,383.21Z"/><path class="cls-1" d="M190.08,340.25l.41-.88c-.66-.49-1.16-.55-1.51-.18l-.42.88C189.23,340.56,189.73,340.62,190.08,340.25Z"/><path class="cls-1" d="M157.62,388.23l-.88-.42c-.48.67-.54,1.17-.18,1.52l.88.41C157.93,389.08,158,388.58,157.62,388.23Z"/><path class="cls-1" d="M151.26,393.43l.87.41c.49-.66.55-1.17.18-1.52l-.87-.41C151,392.57,150.89,393.08,151.26,393.43Z"/><path class="cls-1" d="M200.42,347.43l.88.41c.49-.66.55-1.17.18-1.52l-.88-.41A1,1,0,0,0,200.42,347.43Z"/><path class="cls-1" d="M193,351.58c-.06.5.31.86,1.1,1.05l.42-.87c.06-.51-.31-.86-1.11-1.06Z"/><path class="cls-1" d="M325.36,313.32c-.51-.06-.86.31-1.06,1.11l.88.41c.5.06.86-.31,1.05-1.11Z"/><path class="cls-1" d="M201.55,360.92c.06-.51-.31-.86-1.11-1.06l-.41.88c-.06.51.31.86,1.11,1.06C201.14,361.8,201.41,361.21,201.55,360.92Z"/><path class="cls-1" d="M252.19,379.8c.51.06.86-.31,1.06-1.11l-.88-.41c-.5-.06-.85.31-1.05,1.1C251.4,379.6,251.9,379.66,252.19,379.8Z"/><path class="cls-1" d="M227.9,388.32l.87.41c.49-.66.55-1.16.18-1.51l-.87-.42C227.59,387.46,227.53,388,227.9,388.32Z"/><path class="cls-1" d="M227.69,362.88l.87.42c.49-.67.55-1.17.18-1.52l-.87-.42C227.09,361.89,227.24,362.32,227.69,362.88Z"/><path class="cls-1" d="M293.58,336.72l.42-.87c-.67-.49-1.17-.55-1.52-.18l-.41.87A.94.94,0,0,0,293.58,336.72Z"/><path class="cls-1" d="M294.29,342c-.06.51.31.86,1.11,1.06l.41-.88c.06-.5-.31-.86-1.11-1.05Z"/><path class="cls-1" d="M290.45,346.83c.13-.29.41-.88.41-.88-.66-.49-1.17-.55-1.52-.18l-.41.88C289.59,347.14,290.1,347.2,290.45,346.83Z"/><path class="cls-1" d="M369.35,255.29l.41-.88c-.66-.49-1.17-.55-1.52-.18l-.41.88A1,1,0,0,0,369.35,255.29Z"/><path class="cls-1" d="M268.28,342.46q-.75-.09-1,1.11l.87.41c.51.06.86-.31,1.06-1.11C269.37,342.79,268.58,342.6,268.28,342.46Z"/><path class="cls-1" d="M237.27,371.31c-.06.51.31.86,1.1,1.06l.41-.88c.06-.51-.3-.86-1.1-1.06C237.6,370.22,237.4,371,237.27,371.31Z"/><path class="cls-1" d="M248.28,361.56l.88.41c.49-.66.55-1.16.18-1.52l-.88-.41C247.68,360.57,247.84,361,248.28,361.56Z"/><path class="cls-1" d="M242.62,351.24l.88.41c.49-.66.55-1.17.18-1.52l-.88-.41C242.31,350.38,242.25,350.88,242.62,351.24Z"/><path class="cls-1" d="M342.05,291.09c.06-.5-.31-.86-1.11-1l-.41.87c-.06.51.31.86,1.11,1.06Z"/><path class="cls-1" d="M191.2,344.69c.21-.07.35-.36.41-.87a.82.82,0,0,0,0-.72c-.66-.49-1.16-.55-1.44,0s-.54,1.17.12,1.66C190.34,345,191,344.77,191.2,344.69Z"/></svg>