<svg id="Layer_1" data-name="Layer 1" xmlns="http://www.w3.org/2000/svg" viewBox="0 0 109.88 4.83"><defs><style>.cls-1{fill:#e62f48;}</style></defs><path class="cls-1" d="M109.83,2.42c0-.3-.16-.37-1-.4-.13,0-.34,0-.48,0-2.12-.08-4.25-.12-6.38-.2l-5.7-.14c-1.17,0-2.34,0-3.51,0L87,1.32a15,15,0,0,0-2.2-.09C80.21,1.26,44.87.09,40.25.17c-2.2,0-4.33,1-6.6.92S29.33,1,27.13.87c-1.51,0-3,0-4.54,0-.69,0-1.39.08-2.08.12a44.35,44.35,0,0,1-4.63.13,49.53,49.53,0,0,0-6.35.11,13.47,13.47,0,0,1-2-.06C6.79,1.09,6.05-.08,5.28,0,4.1.07,2.8,1.07,1.61,1.18A4.72,4.72,0,0,0,.49,1.4c-.44.18-.59-.08-.42.24s.64.39,1.17.57A7.11,7.11,0,0,0,3,2.44c1.31,0,2.61.05,3.91.11,1.58,0,3.24-.85,4.82-.81.75,0,1.57,1,2.32,1.07A54.69,54.69,0,0,0,20.45,3c1.58,0,3.18-.11,4.76-.06,4.46.15,9-.65,13.52-.45,1.3.06,2.65,1.17,3.83,1.1,1.81-.16,3.74-1.11,5.66-1,2.61.1,35.9,1.5,38.5,1.65,1.3.06,2.62-.89,3.85-.85,1,.06,2.05,1.07,3.07,1.13s1.79.08,2.61.06c1.45,0,2.85-1.06,4.3-1.08,2.41,0,4.79,1.15,7.17,1.37a1.51,1.51,0,0,0,.77-.08,4.11,4.11,0,0,0,.91-.7,12.33,12.33,0,0,0,.48-1.41h-.07C109.82,2.52,109.83,2.47,109.83,2.42Z"/></svg>