<svg id="Layer_1" data-name="Layer 1" xmlns="http://www.w3.org/2000/svg" viewBox="0 0 165 4"><defs><style>.cls-1{fill:#feefd3;}</style></defs><path class="cls-1" d="M164.93.64c-.06-.29-.26-.36-1.5-.37-.2,0-.51,0-.72,0-3.19,0-6.39,0-9.59-.05h-8.56c-1.75,0-3.51,0-5.27,0L130.65.07c-1.13,0-2.26-.1-3.3,0-6.93.13-60,.75-66.91.93C57.13,1,53.92,1,50.52,1c-3.2,0-6.5-.93-9.79-1-2.27,0-4.55,1-6.83,1-1,0-2.08.11-3.12.16-2.28.1-4.58.28-6.94.23-3.3,0-6.41,0-9.53.24a29.89,29.89,0,0,1-3,0,25.65,25.65,0,0,0-3.4-.1c-1.76.09-3.73.11-5.5.25a9.92,9.92,0,0,0-1.69.24C.08,2.24-.16,2,.1,2.29s1,.37,1.78.54A15.72,15.72,0,0,0,4.54,3c2,0,3.92,0,5.88,0,2.37,0,4.84.08,7.21.09,1.13,0,2.38,0,3.5,0,3.28.18,6.39.06,9.6,0,2.38,0,4.77-.17,7.14-.16,6.7,0,13.5.15,20.3.25,1.95,0,4,.1,5.77,0,2.72-.2,5.6.72,8.49.77,3.91,0,14.88-1.8,18.78-1.71,2,0,43,.64,44.82.65,1.54,0,3.09,0,4.63.06,1.34,0,2.68,1,3.93.91,2.17-.05,4.24-1,6.42-1.08,3.62,0,7.22,0,10.8.2a3.5,3.5,0,0,0,1.15-.1,6.07,6.07,0,0,0,1.35-.7A8.55,8.55,0,0,0,165,.84h-.1Z"/></svg>