<svg id="Layer_1" data-name="Layer 1" xmlns="http://www.w3.org/2000/svg" viewBox="0 0 113 56"><defs><style>.cls-1{fill:#faefe6;}</style></defs><path class="cls-1" d="M106.13,12.3c5.32,3.39,3.65,5.45,2.51,5a3.5,3.5,0,0,0-.73-.35c-.46-.1-.89.33-1,.81a1.08,1.08,0,0,0,.08.77,2,2,0,0,1,.13.34,1.28,1.28,0,0,0,.61.77,4.5,4.5,0,0,1,1.68,1.46,4.63,4.63,0,0,0,1.51,1.73,2.42,2.42,0,0,1,.9.81,5.05,5.05,0,0,1,.62,2.28c0,.63.22,1.66-.36,1.82l-2.79.79a1.39,1.39,0,0,1-1.71-1,2.32,2.32,0,0,1,0-.38,1.07,1.07,0,0,0-.89-1.07c-.41-.08-.68.38-1.08,1.06-.26.43-.73.8-1.16.56a2.17,2.17,0,0,1-.74-1.29c-.33-1-1.35-.57-1.93.27a2.45,2.45,0,0,1-1.35,1l-5,1.41c-.77.22-1.72-.58-2.48-.82a2.43,2.43,0,0,0-2.16.61,1.3,1.3,0,0,0-.4.8c0,.41-.16,1.16-.5,1a31.84,31.84,0,0,1-3.15-1.77c-.36-.2.13-.8.52-.91l1-.27a1.73,1.73,0,0,0,1-.81c.31-.56.37-.78.25-1.12s-.23-.64-.37-.95c-.24-.5-.58-.61-1.22-.57a2.85,2.85,0,0,0-.82.17,2.09,2.09,0,0,0-1.07.78,1.41,1.41,0,0,0-.13,1.14L86,27c.14.54-.37.75-.65,1.23-.17.29-.35.59-.54.89a1.57,1.57,0,0,1-2.12.5l-.46-.26a1.38,1.38,0,0,1-.52-1.86c.29-.57.13-1.36-.47-1.49a1.62,1.62,0,0,0-1.83.85A8.91,8.91,0,0,1,78,28.51c-.53.42-1.31.58-1.56,1.22a1.83,1.83,0,0,0-.1.81,6.08,6.08,0,0,1,.23,1.11c0,.84-1,1.25-1.77,1.47l-3.51,1a.77.77,0,0,1-1-.61.61.61,0,0,1,0-.44,1.52,1.52,0,0,1,.89-.64l1-.29c1.08-.3,2.33-1,2.23-2.22A6.74,6.74,0,0,0,74,28.39c-.33-.91-1.39-2.27-1.57-1.31a.88.88,0,0,0,0,.24c0,.58.28,1.06,0,1.7a3.52,3.52,0,0,1-.15.47c-.23.62-.91.92-1.27.38a9,9,0,0,1-.51-1.14c-.61-1.28-.76-1.24-2-.88l-1.35.38a2.63,2.63,0,0,0-1.53,1.19c-1.12,1.65-1.66,1.8-3.38,1.15-.93-.31-1.85.28-1.6,1.28l0,.11c.27,1.07,0,1.52-1,2a1.72,1.72,0,0,1-2.25-.5,9.3,9.3,0,0,1-.49-1.37.68.68,0,0,0-.18-.29,1.55,1.55,0,0,0-1.32-.25l-2.1.59a1.71,1.71,0,0,0-1,.66c-.58.84-1.61,1.46-2,.52A3.64,3.64,0,0,0,49.5,32a1.47,1.47,0,0,0-1.37-.07c-.61.17-1.29.46-1.39,1.11,0,0,0,.09,0,.13-.13,1.84-1.46,2.19-3,1.32l-2.16-1.22a1.4,1.4,0,0,1-.68-.89c-.08-.31-.15-.61-.23-.91-.12-.48.32-.94.65-1.3a5,5,0,0,1,.8-.73c.3-.2.21-.54.15-.79a1.78,1.78,0,0,0-.39-.76.74.74,0,0,0-1.14.25,2,2,0,0,0-.16.33,1.32,1.32,0,0,0,0,.56,5.42,5.42,0,0,0,.27,1.07c.17.53-.32.74-.6,1.21A7.6,7.6,0,0,1,36.48,34l-2.28.64a1.52,1.52,0,0,1-.89-.11c-.25-.1-.11-.29,0-.55a2.78,2.78,0,0,1,.25-.57,1.15,1.15,0,0,1,.51-.31,20.94,20.94,0,0,1,2.25-.58,2.41,2.41,0,0,0,.42-.16c.66-.35.5-1.28.37-2.06,0-.28-.09-.57-.15-.86a1.32,1.32,0,0,0-2.5-.21c-.18.29-.34.59-.51.9a1.88,1.88,0,0,1-2.52.77h0a1.58,1.58,0,0,0-1.13-.09,2,2,0,0,1-2.49-1.46c0-.1-.05-.19-.07-.29s-.27-.3-.5-.43-.45-.25-.58,0l0,0a2.36,2.36,0,0,0-.39,1.44,1.59,1.59,0,0,0,.48,1.19c.83.65,2.33,1.27,1.46,1.85-.5.3-1,.58-1.51.92-1.23.88-1.74.79-3.18,1.2-.54.15-1.08.31-1.57-.13a1.92,1.92,0,0,1-.73-2.07c.45-.94,1-1.81,1.53-2.71.34-.61.21-1.81-.46-1.77l-.18,0a4.71,4.71,0,0,0-.52.09c-1.62.35-2.37,2.53-4,2.73h0c-.82,0-.93-.65-1-1.25a2.53,2.53,0,0,1,.25-1.36,1.9,1.9,0,0,0-.69-2.46l0,0c-.77-.43-1.88-.19-1.95.73a11.43,11.43,0,0,0,.63,2.48c.21.84-1.23,1.13-2,.72L12,29.86a2.54,2.54,0,0,1-1.07-1.37.42.42,0,0,1,0-.1,1.75,1.75,0,0,0-.78-.81l-.37-.22c-.8-.48-.39-1.89-.2-2.84,0-.09-1.36-1.21-1.44-.16.05-.59.12.18,0,.59-.18.81.27,1.06.9.51l0,0c.5-.49-.69-1.72-1-1.06a4.65,4.65,0,0,0-.51,1.5c-.2.34-.39.68-.59,1a1.41,1.41,0,0,1-1.77.48,1.22,1.22,0,0,0-1.49.42l0,.05c-.45.57-1.29.81-1.63.17a7.72,7.72,0,0,1-.53-2C5.5,8.54,63.9-14.63,106.13,12.3Zm-59.65,19c-1,.2-1.48-1.48-.47-1.85S47.66,31,46.48,31.25Zm11.75-2.34c0-.29-.3-.49-.53-.65a.45.45,0,0,0-.32-.13l-1.62.46c-.18.05-.27.46-.4.69s.25.75.64.86a2,2,0,0,0,2.15-1A.87.87,0,0,0,58.23,28.91Zm17.55-3.82a.67.67,0,0,0,.27.93.58.58,0,0,0,.21.07.68.68,0,0,0,.52-.26.6.6,0,0,0-.24-.9c-.07,0-.14-.11-.21-.15S76,24.78,75.78,25.09ZM107,23.59a.67.67,0,0,0-.22-.19.62.62,0,0,0-.9.24.64.64,0,0,0,0,.56.57.57,0,0,0,.22.19.61.61,0,0,0,.9-.24A.64.64,0,0,0,107,23.59Z"/><path class="cls-1" d="M28.63,38c-.39-1.51-.44-3.54,1-3.73l.13,0c1.13-.13,1.53-.05,1.8,1,.35,1.37-1.25,2.27-2.56,2.63Z"/><path class="cls-1" d="M52,44.26a1.34,1.34,0,0,1-2.14.16.7.7,0,0,1-.12-.63,5.38,5.38,0,0,1,.86-2,1.37,1.37,0,0,1,2.18-.11.79.79,0,0,1,.12.7A6.82,6.82,0,0,1,52,44.26Z"/><path class="cls-1" d="M68,32.64c.17.18.32.54.19.75l-.7,1.19a1.63,1.63,0,0,1-2.16.57A1.39,1.39,0,0,0,64.8,35c-.17,0-.34,0-.52,0-.39,0-.63,0-.7-.19a1.37,1.37,0,0,1,.25-1c.1-.19.26-.24.44-.33a7.48,7.48,0,0,1,3.49-1C67.89,32.57,67.94,32.55,68,32.64Z"/><path class="cls-1" d="M17.18,33.24c.81,0,.22,1.26-.56,1.48s-.59-.23-1.4,0a.62.62,0,0,1-.49-.16c-.36-.27-.66-1-.23-1.16C15.72,32.86,15.78,33.06,17.18,33.24Z"/><path class="cls-1" d="M61.82,35.67A1.7,1.7,0,0,1,64.15,37l0,.27a1,1,0,0,1,0,.3c-.07.68-1.12.77-1.69.44-.25-.13-.49-.27-.73-.41-.52-.29-.89-1.17-.45-1.58a2.62,2.62,0,0,1,.34-.24Z"/><path class="cls-1" d="M77.48,38.23c-1.12.59-1.7-1.12-1-2.24.32-.53.87-1,1.4-.73a.9.9,0,0,1,.41.55,2.07,2.07,0,0,1-.63,2.34Z"/><path class="cls-1" d="M2.46,39.1c.91,0,.29,1.31-.59,1.58a5.47,5.47,0,0,1-.55.13,1.31,1.31,0,0,1-.68,0l-.17-.08A.75.75,0,0,1,.23,39.5a1.71,1.71,0,0,1,.7-.35A4.12,4.12,0,0,1,2.46,39.1Z"/><path class="cls-1" d="M8.6,50.31a.63.63,0,0,1,0-.43,1.25,1.25,0,0,1,1.88-.69,1,1,0,0,1,.36.3c.13.23,0,.53-.18.75a1.24,1.24,0,0,1-1.73.57A.74.74,0,0,1,8.6,50.31Z"/><path class="cls-1" d="M8.31,31.74c1.08-.3,1.93,0,1.71.66a1.16,1.16,0,0,1-1.09.92,2.93,2.93,0,0,0-.41.07,1.38,1.38,0,0,1-1,0c-.34-.18-.51-.4-.32-.72s.23-.63.41-.68Z"/><path class="cls-1" d="M14.66,42.31c.28,1.06-.08,1.93-.71,1.72a1.07,1.07,0,0,1-.9-1.05,2.57,2.57,0,0,0-.05-.4,1.43,1.43,0,0,1,.06-1c.19-.36.42-.54.75-.36s.63.2.67.38S14.57,42,14.66,42.31Z"/><path class="cls-1" d="M28.63,38c.13.52.37,1.1.5,1.67A1.69,1.69,0,0,1,29,40.89a.71.71,0,0,1-1.12.22,1.59,1.59,0,0,1-.39-.75,4.56,4.56,0,0,1,0-1.52A1,1,0,0,1,28.63,38Z"/><path class="cls-1" d="M45.84,51.09a.9.9,0,0,1,.34.51.53.53,0,0,1,0,.41,2,2,0,0,1-2.46.69.49.49,0,0,1-.2-.32,1,1,0,0,1,.06-.65c.07-.18.15-.34.26-.37l1.62-.46C45.54,50.87,45.69,51,45.84,51.09Z"/><path class="cls-1" d="M92.92,30.28c.93-.26,2,.36,1.4,1.11l0,0a2.46,2.46,0,0,1-2.16.61c-.94-.3-.25-1.46.69-1.72Z"/><path class="cls-1" d="M100.74,34.27a.66.66,0,0,1,.09-.28.62.62,0,0,1,.89-.27.57.57,0,0,1,.26.49.66.66,0,0,1-.09.28.62.62,0,0,1-.89.27A.57.57,0,0,1,100.74,34.27Z"/><path class="cls-1" d="M23.86,44.61a.94.94,0,0,1-.1.28.61.61,0,0,1-.89.26.56.56,0,0,1-.26-.49.59.59,0,0,1,.1-.28.6.6,0,0,1,.89-.26A.62.62,0,0,1,23.86,44.61Z"/><path class="cls-1" d="M4,40c.15,0,.33,0,.53.24a2.21,2.21,0,0,1,.32.29.62.62,0,0,1,0,.7c-.21.36-.48.49-.83.29a2.23,2.23,0,0,1-.55-.38C3.13,40.73,3.54,40.12,4,40Z"/><path class="cls-1" d="M97.7,37.9a.56.56,0,0,1-.1.28.61.61,0,0,1-.89.27.64.64,0,0,1-.26-.49.77.77,0,0,1,.1-.29.61.61,0,0,1,.89-.26A.59.59,0,0,1,97.7,37.9Z"/><path class="cls-1" d="M100.14,43.28a.45.45,0,0,1,.22.19.58.58,0,0,1,0,.56.61.61,0,0,1-.9.24.64.64,0,0,1-.21-.19.63.63,0,0,1,0-.57A.6.6,0,0,1,100.14,43.28Z"/><path class="cls-1" d="M11.49,39.3a.6.6,0,0,1-.16.19.63.63,0,0,1-.57,0,.61.61,0,0,1-.22-.91.52.52,0,0,1,.17-.19.59.59,0,0,1,.78.86Z"/><path class="cls-1" d="M18.75,34.12q.22-.06.54.24a2.13,2.13,0,0,1,.31.29.62.62,0,0,1,0,.7c-.2.36-.47.49-.82.29a2.32,2.32,0,0,1-.53-.35C17.84,34.91,18.24,34.27,18.75,34.12Z"/><path class="cls-1" d="M31.41,43.68a.83.83,0,0,1-.3.29.64.64,0,0,1-.49,0,.62.62,0,0,1-.21-.92.58.58,0,0,1,.16-.19.68.68,0,0,1,.68,0,.49.49,0,0,1,.19.77Z"/><path class="cls-1" d="M36.17,54.51a.66.66,0,0,1-.09.28.63.63,0,0,1-.9.27.59.59,0,0,1-.25-.46.67.67,0,0,1,.12-.35c.19-.33.56-.55.85-.3A.73.73,0,0,1,36.17,54.51Z"/><path class="cls-1" d="M38.05,52.39a.78.78,0,0,1-.29-.28.63.63,0,0,1,0-.52.6.6,0,0,1,.89-.23.51.51,0,0,1,.22.19.59.59,0,0,1,0,.55A.53.53,0,0,1,38.05,52.39Z"/><path class="cls-1" d="M41.24,36.63a.83.83,0,0,1,.3-.29.59.59,0,0,1,.7.91.49.49,0,0,1-.16.19.69.69,0,0,1-.68,0,.49.49,0,0,1-.19-.77Z"/><path class="cls-1" d="M55.64,49.65a.74.74,0,0,1-.16.19.63.63,0,0,1-.57,0,.61.61,0,0,1-.22-.91.52.52,0,0,1,.17-.19.64.64,0,0,1,.56-.05A.61.61,0,0,1,55.64,49.65Z"/><path class="cls-1" d="M62.82,44.56a.63.63,0,0,1,.91-.28.58.58,0,0,1,.25.49.71.71,0,0,1-.09.28.63.63,0,0,1-.9.27.6.6,0,0,1-.25-.49A.61.61,0,0,1,62.82,44.56Z"/><path class="cls-1" d="M66,39.92a.62.62,0,0,1,.32.09.58.58,0,0,1,.23.85.71.71,0,0,1-.51.29.67.67,0,0,1-.3-.1c-.33-.19-.57-.6-.31-.89A.76.76,0,0,1,66,39.92Z"/><path class="cls-1" d="M72.18,43.5a.49.49,0,0,1,.23.08.62.62,0,0,1,.25.91.64.64,0,0,1-.52.25.49.49,0,0,1-.23-.08.61.61,0,0,1-.25-.9A.65.65,0,0,1,72.18,43.5Z"/><path class="cls-1" d="M80.1,46.59a.53.53,0,0,1,.24.08.62.62,0,0,1,.24.91.63.63,0,0,1-.51.25.53.53,0,0,1-.24-.08.61.61,0,0,1-.24-.9A.64.64,0,0,1,80.1,46.59Z"/><path class="cls-1" d="M82.31,40a.52.52,0,0,1-.17.19.59.59,0,0,1-.78-.86.6.6,0,0,1,.16-.19.63.63,0,0,1,.57,0A.61.61,0,0,1,82.31,40Z"/><path class="cls-1" d="M83.37,35.09a.93.93,0,0,1-.18,1l0,0a2.58,2.58,0,0,1-.32.34.62.62,0,0,1-.69,0c-.37-.19-.48-.46-.27-.81s.42-.72.81-.76S83.23,34.89,83.37,35.09Z"/><path class="cls-1" d="M88.94,39.7c-.35-.07-.47-.63-.24-.92a.66.66,0,0,1,.55-.31.49.49,0,0,1,.23.08.62.62,0,0,1,.25.91.78.78,0,0,1-.42.25A.92.92,0,0,1,88.94,39.7Z"/><path class="cls-1" d="M83.52,33.49a.77.77,0,0,1,.93-.23.29.29,0,0,1,.08.33,1.68,1.68,0,0,1-.45.9c-.54.48-1,.36-.94-.21a.85.85,0,0,1,.17-.56C83.37,33.65,83.45,33.58,83.52,33.49Z"/><path class="cls-1" d="M107.62,32.22c0,.15,0,.32-.24.54s-.21.24-.32.33a.64.64,0,0,1-.7,0c-.36-.2-.48-.46-.27-.82a2.44,2.44,0,0,1,.46-.61C107,31.35,107.49,31.72,107.62,32.22Z"/><path class="cls-1" d="M108.87,30.31a.78.78,0,0,1-.52,1h0a.67.67,0,0,1-.89-.7,1,1,0,0,1,.48-.73A.66.66,0,0,1,108.87,30.31Z"/><path class="cls-1" d="M109.78,30.85q.23-.06.54.24a2.81,2.81,0,0,1,.31.29.62.62,0,0,1,0,.7c-.21.37-.47.49-.83.29a2.23,2.23,0,0,1-.55-.38C108.87,31.61,109.28,31,109.78,30.85Z"/></svg>