<svg id="Layer_1" data-name="Layer 1" xmlns="http://www.w3.org/2000/svg" viewBox="0 0 24.75 18"><path d="M1.7,5.68h8.84a3.93,3.93,0,1,0-.06-3.37H1.68A1.68,1.68,0,0,0,0,4,1.7,1.7,0,0,0,1.7,5.68ZM14.05,2.25a1.69,1.69,0,1,1-1.68,1.69A1.69,1.69,0,0,1,14.05,2.25Z"/><path d="M23,12.43H14.25a3.94,3.94,0,1,0-.06,3.38H23a1.7,1.7,0,0,0,1.7-1.69A1.67,1.67,0,0,0,23,12.43Zm-12.3,3.32a1.69,1.69,0,1,1,1.69-1.69A1.69,1.69,0,0,1,10.68,15.75Z"/><path d="M20.82,5.68h2.25A1.67,1.67,0,0,0,24.75,4a1.71,1.71,0,0,0-1.7-1.69H20.8a1.69,1.69,0,0,0,0,3.37Z"/><path d="M4,12.43H1.7A1.71,1.71,0,0,0,0,14.12a1.68,1.68,0,0,0,1.68,1.69H3.93a1.71,1.71,0,0,0,1.7-1.69A1.69,1.69,0,0,0,4,12.43Z"/></svg>