<svg id="Layer_1" data-name="Layer 1" xmlns="http://www.w3.org/2000/svg" viewBox="0 0 41.95 61.67"><defs><style>.cls-1{fill-rule:evenodd;}</style></defs><path class="cls-1" d="M24.31.1l1,5.6.48,3.55v1.5l0,1-.17.83-.24.49-.31.73-.86,1-1.09.76-.83.27.07,2-.06,1.14,0,.34a.54.54,0,0,1,.12.34c0,.06,0,.16,0,.28a11.63,11.63,0,0,1,0,1.32h0v.6c0,.1,0,.21,0,.3h0c0,.19,0,.33,0,.39.06,1.6.13,2.86.19,3.87h0c.06,1,.1,1.81.1,2.42a8.26,8.26,0,0,0,.05,1.06c0,.39.09.92.12,2.73,0,.21.12,8.23.19,8.67a.77.77,0,0,1-.08.53A.55.55,0,0,0,23,42c0,.22-.15.17-.37.1a1.71,1.71,0,0,0-.46-.1c-.39,0-.59-.18-.59-.54l-.06-15.74-.09-.27c-.07.63-.11,2.15-.1,4.56,0-.1.05,9.11,0,11.68-.14.08-.42-.06-.69-.19a1.7,1.7,0,0,0-.5-.18.29.29,0,0,1-.09-.3.24.24,0,0,1-.2.07s0,.09,0,.18.05.45-.25.06c0,.42,0,.38-.13.33s-.1-.06-.13,0-.1,0-.19-.16S19,41.3,19,41.31l-.15.13h-.25c-.32,0-.49,0-.49-.84,0-.33.11-2.27.21-4.31s.23-4.27.25-5,0-1.19.06-1.71,0-1,0-1.42l.23-3.59c0-.17,0-.69.08-1.22.1-1.43.2-2.86.28-4.3-.09-.08-.17-.16,0-.16h0l.1-1.32,0-1.59-1.11-.37L17.08,15,16,14l-.43-.6-.27-.69-.22-1-.1-.77.14-2.06.62-3.7L16,3.66l.12-.92.39-1.49.14-1.1.53-.06.08,1.45V3l-.11,1V6.52l0,1.25c0,.17,0,.45.16.45l1.08-.1.19-2.55.05-1.52,0-1.29.12-1.44.2-1.26.51.05.07,1.32.11,1.35-.06,1.27.1,1.28.2,2.79h.68A.36.36,0,0,0,20.72,8a.32.32,0,0,0,.09-.17l.12-1.77,0-1.31L21,3.68l.09-.91.05-1.2L21.24,0h.49l.14,1.31L22,2.7,22.11,4l.1,1.26,0,.77L22.47,8a.25.25,0,0,0,.11.17.22.22,0,0,0,.19.06l.43,0a.42.42,0,0,0,.26-.12.46.46,0,0,0,.11-.27l.08-1.73v-1l0-.9V2.9l.06-1.57-.06,1.26L23.79,0Zm-1,13.64a5.82,5.82,0,0,1-1,1.13,2.16,2.16,0,0,0,.61-.47,3.48,3.48,0,0,0,.58-.57,4.36,4.36,0,0,0,.28-.79,5,5,0,0,0,.19-.87,5,5,0,0,0-.27.71A3.53,3.53,0,0,1,23.28,13.74Zm.94-.53a5.88,5.88,0,0,0,.65-2,10.23,10.23,0,0,0,0-2.07c0-.18,0-.38,0-.58A7.49,7.49,0,0,0,24.76,7c0,.3,0,.61,0,.93s.05.86,0,1.24a17.16,17.16,0,0,1-.14,2,7.14,7.14,0,0,1-.63,1.91,1.92,1.92,0,0,1-.37.48,3.48,3.48,0,0,0-.26.3c-.07.1-.13.22-.2.34a2,2,0,0,1-.38.55A4,4,0,0,0,24.22,13.21Z"/><path d="M40.19,58.82h-.31v-.35h.31l.06,0a.21.21,0,0,1,0,.06.19.19,0,0,1,0,.07.14.14,0,0,1,0,.07.09.09,0,0,1,0,.06Z"/><path class="cls-1" d="M41.58,58.28a1.71,1.71,0,0,0-.89-.92,1.56,1.56,0,0,0-.63-.14,1.68,1.68,0,0,0-1.17.51,1.71,1.71,0,0,0-.48,1.19,1.74,1.74,0,0,0,.48,1.21,1.6,1.6,0,0,0,1.16.5,1.64,1.64,0,0,0,1.16-.49,1.77,1.77,0,0,0,.49-1.21A1.75,1.75,0,0,0,41.58,58.28Zm-1.19,1.36L40,59.15h-.16v.49h-.39v-1.5h.61c.29,0,.59.11.59.5a.42.42,0,0,1-.06.27.43.43,0,0,1-.22.18l.4.55Z"/><path class="cls-1" d="M15.68,21.63c0-.17-.16-.26-.29-.32h0l-.21-.12q-.6-.06-1.2-.06a4.67,4.67,0,0,0,1-.33c-.06,0-.11,0-.14-.13s0-.06.11-.13.32-.28.15-.31v-.43s0,0,0-.05-.08-.14,0-.19l.19-.15-.55-.4a7,7,0,0,0-1.51-.14L4.88,19c-.14,0-.28-.08-.42-.12a1.93,1.93,0,0,0-.41-.12,2.71,2.71,0,0,1-.41.09c0,.06-.08.05-.19,0a.58.58,0,0,0-.55.1L0,19v.24S.43,21,.43,21s.47.67.47.67a1.61,1.61,0,0,0-.81.15c0,.05,0,.21.07.49a1,1,0,0,0,.19.5c.31,0,.49.09.54.19a.43.43,0,0,0,0,.16,6.75,6.75,0,0,0,0,1.89c0,.47,0,3.09,0,3.1a1.74,1.74,0,0,0-.45.17V29c0,.14-.13.62-.13.75a3,3,0,0,0,.17.5c0,.23,0,.46,0,.69v.29c0,2.41.07,9.62,0,9.59s0,0,.16.14c.32.52.58.78.77.78l.24,0,.21,0A.94.94,0,0,1,2,41.41c-.05-2.1.17-1.69.22-.26a.46.46,0,0,0,.15.3c.11.11.19.17.25.17a.25.25,0,0,0,.13,0l.08,0h.07a.31.31,0,0,0,.2-.07.34.34,0,0,0,.11-.17c0-.19.18-.2.26.34,0,0,0,0,.07-.06s.14-.2.2-.14.09-.06.13-.16.05-.14.07-.14.15.14.18.27,0,.25.15.18c-.19-1.61.07-10,.14-10.15,1,0,1.73-.06,2.25-.1A31,31,0,0,0,10.25,31l.5-.07c.3-.08.44-.17.44-.28v-.22c-1.39-.13-1.6-.79-1.66-1a.75.75,0,0,1-.33-.07.77.77,0,0,0-.26-.07H7.42q-.63,0-1.26.09c-.41.05-.83.08-1.25.09a2.08,2.08,0,0,1-.54-.11l2-.15C7.69,29,8.6,29,9.08,28.88a.47.47,0,0,1,.24,0h.12s.08,0,.13,0a.25.25,0,0,0,.15,0s.1,0,.15.06.07.05.07,0a1.6,1.6,0,0,1,.08-.36c.06-.19.1-.34,0-.45a.71.71,0,0,0-.54-.18c-.7,0-1.75,0-2.39,0a8.15,8.15,0,0,1-1,.15c-1.12,0-1.7,0-1.76,0V23.78a2.92,2.92,0,0,1,.18-1A14.92,14.92,0,0,1,7,22.61l.35,0,.33,0,4.44-.31h1.39a4.38,4.38,0,0,0,.51,0,4,4,0,0,1,.5,0,2.26,2.26,0,0,0,.43-.11l.55-.15A.34.34,0,0,0,15.68,21.63ZM2.06,22.87l.07.69v2.09l-.08,0a.13.13,0,0,0-.06.07A13.92,13.92,0,0,1,2.06,22.87Z"/><path class="cls-1" d="M41.69,20.64a.3.3,0,0,1-.1.22.23.23,0,0,1-.2.11,1.62,1.62,0,0,1-.58-.07L40.7,21a.55.55,0,0,0,.25,0,1,1,0,0,0,.11.29q.11.21.18.21a.17.17,0,0,0,.13-.07l.09.16c-.43.45-.76.67-1,.67a5,5,0,0,0-1,.11,2.38,2.38,0,0,1-.68.07l-.12.13-4.22-.18s0,0,0,.07a.14.14,0,0,1,0,.18c0,.21,0,.65,0,1.11a2,2,0,0,1-.11.52,1.07,1.07,0,0,0-.06.3,1.14,1.14,0,0,0,0,.37.65.65,0,0,1,.13.16.47.47,0,0,1,.06.19c0-.08-.11-.14-.11,1,0,.63,0,1.69,0,3-.07,4-.16,10.29.11,12.26a1,1,0,0,1-.36.22,1,1,0,0,1-.41.06c-.25,0-.42-.27-.49-.8a4,4,0,0,1,0-.5,3.68,3.68,0,0,0,0-.49L33,24.67c-.09,1.08-.14,2.06-.14,2.94,0,.31,0,.78,0,1.41s0,1.1,0,1.41V40.79c0,.05,0,.08,0,.08l.11,0a.71.71,0,0,0-.13.43.36.36,0,0,1,0,.1.27.27,0,0,1-.25.14.31.31,0,0,0-.16.06.61.61,0,0,1-.17.07,1.61,1.61,0,0,1-.29-.09l-.31-.17q-.15.35-.18.39a.56.56,0,0,1-.2.11.6.6,0,0,1-.23,0,.76.76,0,0,1-.45-.17.49.49,0,0,1-.22-.41,6.68,6.68,0,0,1,.11-1c.07-.43.1-8.28.1-8.49l.07-9.1,0,0c0-.05-.05-.06-.46-.06-2.48.22-4.24.33-4.5.33h-.75a2.56,2.56,0,0,1-.55-.92.64.64,0,0,1,0-.2,1,1,0,0,0,0-.17h1.61a.9.9,0,0,0,.22-.06.69.69,0,0,1,.24-.05l.1,0a.27.27,0,0,0,.12,0,15.64,15.64,0,0,0,2.57-.42l-.91,0H25a.92.92,0,0,1-.35-.38,1,1,0,0,1-.17-.51A.39.39,0,0,1,24.8,20,.93.93,0,0,1,25,20a2,2,0,0,0,.24,0c.14,0,.65-.14.3-.14a.53.53,0,0,0-.12,0,.33.33,0,0,1-.13,0c-.11,0-.24-.12-.4-.35a1,1,0,0,1-.24-.52c0-.18.09-.16.22-.15l.16,0,6.21-.23.06,0a.1.1,0,0,1,0,.05,1.47,1.47,0,0,0,.6,0,4.31,4.31,0,0,1,.88,0,9.08,9.08,0,0,0,1.38,0c.38,0,4.64.05,6.13.08h.5c.19,0,.21.14.23.3a1,1,0,0,1,0,.12c0,.17.1.4,0,.48a.48.48,0,0,1,.15.2.42.42,0,0,0,.16.22.66.66,0,0,1,.18.19A.55.55,0,0,1,41.69,20.64ZM31.77,41.1v-.3h-.18v.3ZM33.1,23.7v-.16H33v.16ZM40.66,21a3.33,3.33,0,0,1-.54-.07,2.79,2.79,0,0,0-.58-.07.41.41,0,0,0-.19,0,.66.66,0,0,1-.2.06h-.32a2.12,2.12,0,0,0-.3,0C36.46,20.94,40.66,21,40.66,21Zm-5.25-1.26H34v.11h1.37Z"/><path class="cls-1" d="M23.74,56.23c0-.64,0-1.41,0-2.26a44.69,44.69,0,0,0-.34-6.25,5.35,5.35,0,0,1,0-1,2.44,2.44,0,0,0,0-.67c0-.1,0-.19,0-.26h0c0-.15,0-.68-.19-.8a.28.28,0,0,0-.29-.05l-.14,0c-.07,0-.26-.08-.38,0A1.33,1.33,0,0,1,22,45s0,0,0,.07-.06.15-.13.09-.08,0-.1.08a.24.24,0,0,0-.23-.1l-.21,0a10.54,10.54,0,0,0-1.1-.08L20,45a.69.69,0,0,0-.67-.09.41.41,0,0,1-.19.05c0-.06-.07,0-.11,0s-.07,0-.11,0a1.82,1.82,0,0,0-.67-.51c-.22,0-.24.43-.26.8a1.36,1.36,0,0,1-.09.56.36.36,0,0,0,0,.18c0,.08.08.17,0,.25.06-.51-.16.69-.18,1.3,0,.15,0,.34,0,.55,0,.4-.06.89-.05,1.34l-.36,3.12c0,.39,0,1.33-.09,2.34s-.11,2.2-.11,2.85a2,2,0,0,0,.05.48,4.14,4.14,0,0,0,.3,1.88,3.32,3.32,0,0,0,3,1.64,3.43,3.43,0,0,0,2.42-1.05,3.53,3.53,0,0,0,1-2.48A7.92,7.92,0,0,0,23.74,56.23Zm-2-1.62h-.27l0-2c.1-2.73.18-4.77.25-6.14a1.78,1.78,0,0,1,0-.3,2.78,2.78,0,0,0,0-.81h0C21.66,47.79,21.68,50.76,21.76,54.61Zm.06-9.19v.06C22,45.45,21.91,45.43,21.82,45.42Z"/><path class="cls-1" d="M41.67,46.65a1.62,1.62,0,0,0,0,.29c0,.1-.13.12-.21.12a1.66,1.66,0,0,1-.58-.08l-.1.11a4,4,0,0,0,.6,0s0,0,.06.06a.41.41,0,0,1,.14.15c0,.11-.08.17-.13.19s0,0,0,0l.09.17c-.43.44-.75.67-1,.67a17.47,17.47,0,0,1-1.77-.08l-.12.13-4,.08a.81.81,0,0,0-.27.11c0,.22,0,.55-.06,1s-.06.82-.06,1.07c0,.06,0,.09,0,.1s0,0,0,0V52.5a56.59,56.59,0,0,0,.54,7.8,1,1,0,0,1-.77.28c-.25,0-.41-.27-.48-.8,0-.36,0-.54,0-.9l-.56.47s0,.08,0,.08l.11,0c-.06,0-.1.19-.13.43a.25.25,0,0,1-.27.24.23.23,0,0,0-.16.06.36.36,0,0,1-.17.07,1.11,1.11,0,0,1-.29-.1l-.3-.16-.18.39a.58.58,0,0,1-.44.13.67.67,0,0,1-.67-.57,6.39,6.39,0,0,1,.11-1,6.51,6.51,0,0,0,.1-1l.08-9.1c-.06,0-.08,0-.13,0a.31.31,0,0,1-.19.08c-1.41,0-2.48.07-3.28.11a8.69,8.69,0,0,1-1.47,0H25a2.56,2.56,0,0,1-.55-.92.69.69,0,0,1,0-.2.85.85,0,0,0,0-.17c.14,0,.08-.75.05-1.14,0-.22,0-.54.3-.57s.31.07.47.07a3.33,3.33,0,0,0,.63,0c2.21,0,1.61-.15,1.3-.23l-.12,0a1.8,1.8,0,0,0-.52,0s0,0,0,0,0,.06-.09.06,0-.1,0-.1l-.06,0s-.07,0-.14.11l-.63,0a.27.27,0,0,0-.12,0,.28.28,0,0,1-.13,0c-.1,0-.24-.12-.4-.35a1.13,1.13,0,0,1-.24-.52.32.32,0,0,1,.34-.36h6.26c.11,0,.09.13.18.13a4.38,4.38,0,0,0,.52,0,2.42,2.42,0,0,1,.89,0,2.2,2.2,0,0,0,.36,0q.34,0,1-.06c.44,0,.78-.07,1-.07a2,2,0,0,1,.43.07,1.82,1.82,0,0,0,.46.06.1.1,0,0,1,.08,0l0,0h.05a3.47,3.47,0,0,0,.55-.08,2.62,2.62,0,0,1,.56-.09s.09,0,.12.11.15.18.19,0,0,0,0,0A.11.11,0,0,1,38,45c.06,0,.06.12.15.12a.13.13,0,0,0,.09-.07.12.12,0,0,1,.05,0l.07,0a3.68,3.68,0,0,1,.58.07,3.7,3.7,0,0,0,.57.07,1.46,1.46,0,0,1,.5.12.58.58,0,0,0,.39,0l.12,0a2.64,2.64,0,0,0,.63,0,4.41,4.41,0,0,1,.85,0c0,.16-.44.47-.66.62a.65.65,0,0,0-.11.09.19.19,0,0,0,.19,0,.19.19,0,0,1,.21,0C41.74,46.08,41.7,46.39,41.67,46.65ZM31.89,59.16v-7.7c-.13,1.87-.19,2.92-.18,3.17Zm0,.5v-.3h-.18v.3Zm1.32-9.88v-.17l-.12.17Zm7.5-2.71a3.33,3.33,0,0,1-.54-.07,3.68,3.68,0,0,0-.58-.08.7.7,0,0,0-.19.06,12.5,12.5,0,0,0,1.31.1Zm-5.24-1.15v-.1H34.09v.11Z"/><path class="cls-1" d="M11.7,53.51c.66,1.14,1.26,2.12,1.79,2.94l2.15,3.23c0,.2-.25.39-.75.58-.1,0-.22-.1-.36-.28l0,0,0-.07h0l-.22-.32c0,.17,0,.33-.05.5a1.56,1.56,0,0,1-.8.47c-.15,0-.28-.11-.39-.34a.6.6,0,0,0-.21.14.32.32,0,0,1-.2.12h-.32L7.49,53.55,11,59.9c-.1.2-.4.3-.89.3C10,60.2,10,60.13,10,60a4,4,0,0,0-.38-.76c-.13-.24-.31-.49-.48-.75s-.32-.47-.45-.68l-.54-1c-.38-.7-.86-1.55-1.52-2.64a10.76,10.76,0,0,0-1.18,1c-.21.2-.37.33-.49.43s-.29.24-.34.4l-.14,3.4s0,0,0,0-.06,0-.18.07l-.32.33a1.12,1.12,0,0,1-.26.08,3.18,3.18,0,0,1-.32-.16c-.2-.11-.88,0-.9.27a.53.53,0,0,1-.19.33.49.49,0,0,1-.31.21,1.5,1.5,0,0,1-.5-.18c-.23-.11-.34-.22-.34-.31s0-.2,0-.28A.1.1,0,0,0,1,59.68a5.73,5.73,0,0,0-.7.13l.24-4.62-.17-.63.17-.45.23-.33L4.24,51l1-.8,6.54-6.12a.5.5,0,0,0,.25,0,2.2,2.2,0,0,0,.2.23c.11.13.21.2.27.2s.14,0,.12-.06l.16.13a.58.58,0,0,1,.5.25.77.77,0,0,1,.24.51,2.25,2.25,0,0,0,.35-.45,1.4,1.4,0,0,1,.6.35.64.64,0,0,1,.21.25.8.8,0,0,1,.09.31c0,.2-.72,1-2.17,2.29-.87.79-1.74,1.58-2.63,2.37ZM8.11,49.15l.06.1L8.51,49l-.06-.09Zm2.57,5.07.08.22h.08l-.07-.26Zm.36.57.14.36h.1l-.15-.39Zm.31.45.07.22h.1l-.08-.26Zm.64.85-.09.06.19.35.09,0Zm.16.43.26.47h.1l-.28-.5Zm.43.67.44.71.1,0-.45-.74Zm.74,1.14.09.09.05-.06-.09-.09Zm.23.37.07.15h.09l-.07-.2Zm.27.39.19.29.09-.05-.21-.3Z"/><path class="cls-1" d="M.37,45.55a1,1,0,0,1,.11.37v.51c0,.1,0,.15.09.16v1.7l-.09.29.09.3.58.27.43-.24.34.2.63-.17.5.18L3.52,49h.63l.24,0,.3-.11a3.28,3.28,0,0,0,0-.7,3.09,3.09,0,0,1,0-.86c0-.21,0-.41,0-.6a3.54,3.54,0,0,1,0-.7,2,2,0,0,1,.09-.27.19.19,0,0,0,0-.2.26.26,0,0,1,0-.19v0a.5.5,0,0,0,0-.36.45.45,0,0,0-.25,0c-.06-.08-.3-.12-.73-.12a1.5,1.5,0,0,0-.75.17c-.2-.18-.28-.16-.42-.13a.58.58,0,0,1-.48,0c-.09-.06-.19-.11-.24,0a.13.13,0,0,1-.15,0H1.58a.47.47,0,0,0-.36-.06H.9c-.2,0-.65.11-.65.37A1,1,0,0,0,.37,45.55Zm2.73.51v.16H3v-.16Zm-1.46.18h.11v.17H1.64Zm.07.26h.11l-.07.35H1.64Zm-.12.82h.1v.5H1.58Z"/></svg>