<svg id="Layer_1" data-name="Layer 1" xmlns="http://www.w3.org/2000/svg" viewBox="0 0 19.02 2.45"><path d="M18.8.44,17.39.3,16,.26c-.28,0-.58,0-.86,0L13.85.1a1,1,0,0,0-.51,0c-1.17.08-2.92-.13-4.11,0-.55,0-1.07,0-1.61,0S6.52,0,6,0,4.78.4,4.17.3,3.2,0,2.61.14,1.24.33.57.53c-.39.11-.7.41-.52.85.1.1.37.46.52.45.33,0,.63,0,.94,0A26.54,26.54,0,0,0,4.72,2c.39,0,.83-.12,1.21-.1C7,2,7,2.1,8.07,2.21c.8.06,1.54-.16,2.34-.06.61.06,1.76,0,2.35.05s1.08,0,1.61.14a2.66,2.66,0,0,0,.63,0,7.08,7.08,0,0,1,2.75.09c.21.13,1.16-.91,1.27-1.1C19,1.32,19.1.62,18.8.44Z"/></svg>