<svg xmlns="http://www.w3.org/2000/svg" viewBox="0 0 179.07 115.76">
    
    <path class="cls-1"
        d="M93.92,69a.44.44,0,0,0-.18-.61c-.57-.84-1.36-1.28-1.93-2.11-.17-.61-.13-1.62-.3-2.24a1.67,1.67,0,0,1-1-1,3,3,0,0,1-3.2-.75l-3-.13c-.22.4-.84.57-1.27,1.36,1,1.06,1.93,2.11,1.66,3.51a1.59,1.59,0,0,0,1,0A26.71,26.71,0,0,0,88,64.66c2.15,1.71,3.29,3.38,4.87,4.26C93.48,69.75,93.7,69.36,93.92,69Z" />
    <path class="cls-1"
        d="M49,96.76c.83-.57,1.22-.35,2,.09s1.19.66,2,.09,1.06-1,.49-1.8c-1.23.35-2.24.3-2.81-.53-.4-.22-.57-.83-1-1s-1,0-1.4-.27a1.66,1.66,0,0,1-1.06,1c-.61.18-1.62.13-2.23.31-1.5,1.75-1.5,1.75-.13,3,1,0,1.62-.13,2,.09C47.89,97.73,48.33,96.94,49,96.76Z" />
    <path class="cls-1"
        d="M18,48.48a9.57,9.57,0,0,0,3.24-.27,15.66,15.66,0,0,1,.13-3c-1,0-1.22.35-1.62.13l-1.58-.88c-1,0-1.62.13-2.63.09a9.34,9.34,0,0,0,.26,3.25,3.39,3.39,0,0,1,2,.08C17.17,48,17.56,48.26,18,48.48Z" />
    <path class="cls-1"
        d="M46.09,71.34a1.57,1.57,0,0,0,0,1,5.77,5.77,0,0,0,2.15,1.71,41.28,41.28,0,0,0,5.26-.18l.44-.79c-1-1-1.76-1.49-2.72-2.54A10,10,0,0,1,46.09,71.34Z" />
    <path class="cls-1"
        d="M36.08,45.62c-.62.18-.22.4-.44.79a3.38,3.38,0,0,1-.09,2,29.82,29.82,0,0,0,2.33,2.33,2.36,2.36,0,0,1,2,.08c.61-.17,1,0,.83-.57l-.17-.61-4.09-3.82C36.69,45.45,36.08,45.62,36.08,45.62Z" />
    <path class="cls-1"
        d="M76.5,74.27a1.67,1.67,0,0,1-1-1,9.53,9.53,0,0,0-3.24.26c-.05,1-.09,2-.13,3,.39.22.57.83,1,1a.45.45,0,0,0,.62-.17,8.42,8.42,0,0,0,2.32-2.33C76.68,74.89,76.28,74.67,76.5,74.27Z" />
    <path class="cls-1"
        d="M75.71,55.23c.61-.18,1.4.26,2,.09a26.65,26.65,0,0,1,0,3.64c1.18.66,1.62-.13,2.06-.92,0-1,.09-2,.13-3-.57-.84-1.36-1.27-1.93-2.11C76,53.82,76,53.82,75.71,55.23Z" />
    <path class="cls-1"
        d="M78.08,65.85c-1.36-1.28-2.33-2.33-3.69-3.6-.44.79-1,1-1.49,1.75.53,1.85.53,1.85,3.16,1.76A6.44,6.44,0,0,1,76.37,68C78,67.87,78,67.87,78.08,65.85Z" />
    <path class="cls-1"
        d="M45.21,77.57a3.4,3.4,0,0,1,1.36,1.27c.18.61,0,1-.08,2l.39.22a1,1,0,0,1,1.23-.35c.61-.18,1.4.26,1.84-.53l.4.22c.39.22.61-.18,1.23-.35l-.18-.62c-.39-.22-.79-.44-1,0s-.61.17-.22.39c-1-1-1.75-1.49-2.72-2.54-.18-.61-.13-1.62-.31-2.24C45.69,75.77,45.69,75.77,45.21,77.57Z" />
    <path class="cls-1"
        d="M61.19,82.3a1.65,1.65,0,0,1-1-1c-.61.18-1,0-1.23.35l-.22.4c-.61.17-.83.57-1.23.35-.61.17-1,0-1.22.35a.44.44,0,0,0,.17.61c.4.22.57.84,1,1.06a2.36,2.36,0,0,1,2,.08C60.48,84.5,60.7,84.1,61.19,82.3Z" />
    <path class="cls-1"
        d="M126.53,68c-1.23.35-2.07.92-1.72,2.15.79.44,1,1.05,1.76,1.49l1.19.66c.61-.18.21-.4.43-.79a3.46,3.46,0,0,1,.09-2C127.1,68.78,126.7,68.56,126.53,68Z" />
    <path class="cls-1"
        d="M37.09,36.36c1,0,1.22-.35,2.06-.92.44-.79,1.27-1.36,1.31-2.37-.79-.44-1.36-1.27-2.15-1.71a1,1,0,0,0-1.22.35.45.45,0,0,0,.17.62c.4.22.57.83,1,1.05A8.74,8.74,0,0,0,37.09,36.36Z" />
    <path class="cls-1"
        d="M62.94,55.89c-.57-.84-1.36-1.27-1.93-2.11a1,1,0,0,0-1.23.35,10,10,0,0,0,.08,2.64l3,.13S63.33,56.11,62.94,55.89Z" />
    <path class="cls-1"
        d="M93.3,50.53c.22-.39.84-.57,1.06-1-.53-1.85-.53-1.85-2.16-1.72-.21.4-.83.57-1,1C91.5,50.05,91.5,50.05,93.3,50.53Z" />
    <path class="cls-1"
        d="M97,58.78c-1.84.53-1.84.53-2.11,1.93.4.22.57.84,1,1,1.84-.52,1.84-.52,2.11-1.93A1.67,1.67,0,0,1,97,58.78Z" />
    <path class="cls-1"
        d="M41.74,64.27c.4.22.57.84,1,1a.44.44,0,0,0,.61-.17c.62-.18.44-.79,0-1C42.8,63.31,42,62.87,41.43,62c-1.84.53-1.84.53-2.1,1.93A4.7,4.7,0,0,0,41.74,64.27Z" />
    <path class="cls-1"
        d="M11.43,91.88c-.18-.62-.36-1.23-.75-1.45s-.57-.84-1.19-.66a7.73,7.73,0,0,0-2.41-.31c.18.62,0,1,.13,1.63.4.22.57.83,1.19.65Z" />
    <path class="cls-1"
        d="M27.65,30.09c-.44.79-1.67,1.14-.7,2.19a9.86,9.86,0,0,0,2.63-.08C29.84,30.79,29.05,30.35,27.65,30.09Z" />
    <path class="cls-1"
        d="M56.79,53l-.17-.61c-.57-.84-1.36-1.27-1.93-2.11a1,1,0,0,0-1.23.35l.17.62A5.77,5.77,0,0,0,55.78,53C56.18,53.17,56.57,53.39,56.79,53Z" />
    <path class="cls-1"
        d="M45.3,84.85a8.33,8.33,0,0,0,2.33-2.33,1,1,0,0,0-.35-1.22,13.2,13.2,0,0,0-3,3.51C44.07,85.2,44.69,85,45.3,84.85Z" />
    <path class="cls-1"
        d="M80.36,45.93a5.77,5.77,0,0,0,2.15,1.71.44.44,0,0,0,.61-.18c.62-.17.22-.39,0-1A5.77,5.77,0,0,0,81,44.74a.44.44,0,0,0-.61.18A1.38,1.38,0,0,0,80.36,45.93Z" />
    <path class="cls-1"
        d="M103.57,23.68a10.34,10.34,0,0,0-.09-2.64c-1.23.35-2.06.92-2.11,1.93C102.16,23.41,102.51,24.64,103.57,23.68Z" />
    <path class="cls-1"
        d="M77.94,50.27c-.66,1.18.35,1.23.92,2.06,1.23-.35,2.07-.92,1.72-2.15A9.9,9.9,0,0,0,77.94,50.27Z" />
    <path class="cls-1"
        d="M66.58,65.15c-1.84.52-1.84.52-2.11,1.93A10.34,10.34,0,0,0,67.11,67C68.16,66,67.15,66,66.58,65.15Z" />
    <path class="cls-1"
        d="M39.6,104.42l.4.22c.39.22.61-.17,1.22-.35l-.17-.61c-.4-.22-.79-.44-1-.05l-.44.79c-.39-.22-1-1-1.36-1.27-1.62.13-1.62.13-2.11,1.93C38.15,105.17,38.15,105.17,39.6,104.42Z" />
    <path class="cls-1"
        d="M113.54,73.65c.79.44.83-.57,1.66-1.14-.35-1.23-.92-2.06-2.15-1.71l.18.62a.44.44,0,0,0,.18.61C113,72.82,112.53,73.61,113.54,73.65Z" />
    <path class="cls-1"
        d="M26.47,57.34c-.44.79-1.67,1.14-.7,2.19a9.86,9.86,0,0,0,2.63-.08C28.66,58,28.09,57.21,26.47,57.34Z" />
    <path class="cls-1"
        d="M33.76,57.25,33,56.81c-.18-.61-.79-.44-1.19-.66-.61.18-.22.4-.44.79.18.62-.26,1.41-.09,2C33.45,59.66,34.11,58.48,33.76,57.25Z" />
    <path class="cls-1"
        d="M55.6,38.38a.45.45,0,0,0,.62-.17c.61-.18,1.4.26,1.84-.53s-.35-1.23-1.14-1.67c-1.62.13-1.62.13-2.11,1.93C55.39,38.78,55.6,38.38,55.6,38.38Z" />
    <path class="cls-1"
        d="M43.71,42.11l-.79-.44c-.17-.61-.79-.44-1.18-.66-.62.18-.22.4-.44.79a3.38,3.38,0,0,1-.09,2C43,44.31,43.85,43.73,43.71,42.11Z" />
    <path class="cls-1"
        d="M34.76,34a9.8,9.8,0,0,0-2.63.09c.35,1.23.92,2.06,1.93,2.1C34.5,35.44,35.72,35.09,34.76,34Z" />
    <path class="cls-1" d="M80.53,18.63c.13,1.63.92,2.06,1.93,2.11C82.72,19.33,82.15,18.5,80.53,18.63Z" />
    <path class="cls-1"
        d="M32.14,85.29a.44.44,0,0,0,.61-.17l.44-.79c.44-.79.88-1.58.26-1.41a1,1,0,0,0-1.23.35l-.43.79C31.74,85.07,31.92,85.69,32.14,85.29Z" />
    <path class="cls-1" d="M57,57.25c.13,1.62.92,2.06,1.93,2.11C59.21,58,58.64,57.12,57,57.25Z" />
    <path class="cls-1" d="M65.88,48.74c1.62-.14,2.06-.93,2.1-1.94C66.58,46.54,65.74,47.11,65.88,48.74Z" />
    <path class="cls-1" d="M74.21,43c-.13-1.62-.92-2.06-1.93-2.11C72,42.33,72.59,43.16,74.21,43Z" />
    <path class="cls-1"
        d="M55,66.46a.44.44,0,0,0,.61-.17l.61-.18a.44.44,0,0,0-.17-.61c-.75-1.45-1.36-1.27-2.81-.53A4.81,4.81,0,0,0,55,66.46Z" />
    <path class="cls-1" d="M82.33,37.72l-.4-.22c-1,0-2.06.92-1.49,1.76l.4.22C81.63,39.91,82.5,38.33,82.33,37.72Z" />
    <path class="cls-1"
        d="M98,21.61c.44-.79.88-1.58.26-1.4a1,1,0,0,0-1.22.35l-.44.79a1,1,0,0,0,.35,1.23.44.44,0,0,0,.61-.18Z" />
    <path class="cls-1" d="M68.42,60c-.13-1.62-.92-2.06-1.93-2.11C66.23,59.27,67.19,60.32,68.42,60Z" />
    <path class="cls-1" d="M55.83,75.2h0a.62.62,0,0,0,.44-.79c-.75-1.45-1.36-1.28-2.81-.53.4.22,1,1.05,1.36,1.27Z" />
    <path class="cls-1"
        d="M75.05,61.06a1.67,1.67,0,0,0-1-1.05,1.63,1.63,0,0,0-1.4-.26l0,1c.17.61,1,1.05,1.36,1.27C75,62.07,75.22,61.68,75.05,61.06Z" />
    <path class="cls-1"
        d="M65.27,72.17l.79.44c1.4.26,2.5-1.72,3.68-1.06l.62-.17.43-.79c.22-.4,0-1,.27-1.41l-1.58-.87c-2.06.92-2.55,2.72-4.21,3.86a.85.85,0,0,0-1.19-.66,1.66,1.66,0,0,0-1,1,1.69,1.69,0,0,0-.27,1.41l1,0A4.92,4.92,0,0,0,65.27,72.17Z" />
    <path class="cls-1"
        d="M80.27,75.85l.44-.79a.44.44,0,0,0-.17-.61c-.18-.62-.79-.44-1,0l-.44.79c-.62.18-.44.79-.66,1.19C78.83,76.6,79.44,76.42,80.27,75.85Z" />
    <path class="cls-1"
        d="M97.34,74A2.24,2.24,0,0,0,95,72.65l0,1c.18.61,1,1,1.36,1.27C97.52,74.58,97.74,74.18,97.34,74Z" />
    <path class="cls-1"
        d="M135.65,67.33a.44.44,0,0,0-.17-.61c-.4-.22-.57-.84-1-1a.44.44,0,0,0-.61.17l-.22.4c-.44.79.92,2.06,1.75,1.49Z" />
    <path class="cls-1"
        d="M139.25,73c-.44.79.92,2.06,1.76,1.49l.22-.39a.45.45,0,0,0-.18-.62c-.39-.22-.57-.83-1-1.05a.45.45,0,0,0-.62.17Z" />
    <path class="cls-1"
        d="M9.89,71.38l-.79-.44a.46.46,0,0,0-.62.18c-.61.18-.44.79,0,1l.79.44c.17.61.79.44,1.18.66A1.45,1.45,0,0,0,9.89,71.38Z" />
    <path class="cls-1"
        d="M42.44,34.17c-.44.79.92,2.06,1.75,1.49l.22-.39a.45.45,0,0,0-.17-.62c-.4-.22-.57-.83-1-1a.44.44,0,0,0-.61.17Z" />
    <path class="cls-1"
        d="M47.88,43.91c.4.22.79.44,1,0,.62-.17,1-1,1.49-1.75l.4.22c.39.22.61-.18,1.23-.35l-.18-.62c-.39-.22-.79-.44-1,0s-.61.17-.22.39c-.39-.22-.57-.83-1-1-.44.79-1.06,1-1.49,1.76S48.1,43.52,47.88,43.91Z" />
    <path class="cls-1"
        d="M49.94,38.34a1.65,1.65,0,0,0-1-1.06A1.69,1.69,0,0,0,47.57,37l0,1a4.11,4.11,0,0,1,1.76,1.49C50.12,39,49.94,38.34,49.94,38.34Z" />
    <path class="cls-1"
        d="M52.61,6.68a1,1,0,0,0-.35-1.23L51.47,5a1,1,0,0,0-1.23.36.44.44,0,0,0,.18.61l.79.44C51.78,7.25,52.39,7.08,52.61,6.68Z" />
    <path class="cls-1"
        d="M40.2,25.17c.44-.79.88-1.58.26-1.4a1,1,0,0,0-1.23.35l-.44.79a1,1,0,0,0,.36,1.23.44.44,0,0,0,.61-.18Z" />
    <path class="cls-1"
        d="M31.39,65.24l.44-.79a.46.46,0,0,0-.18-.62c-.18-.61-.79-.44-1,0l-.44.79c-.61.18-.44.79-.66,1.18A1.2,1.2,0,0,0,31.39,65.24Z" />
    <path class="cls-1" d="M61.57,17.41c.13,1.62.92,2.06,1.93,2.1C63.76,18.11,63.19,17.27,61.57,17.41Z" />
    <path class="cls-1" d="M33.53,25.09l-.4-.22c-1-.05-2.06.92-1.49,1.75l.4.22C32.83,27.28,34.1,25.92,33.53,25.09Z" />
    <path class="cls-1" d="M31.51,29.65,31.34,29a1,1,0,0,0-1.23.35l.17.61C31.29,30.05,31.69,30.27,31.51,29.65Z" />
    <path class="cls-1"
        d="M16.9,49.44a.44.44,0,0,0-.61.18c-.62.17-.22.39-.05,1a.45.45,0,0,0,.62-.18A1.38,1.38,0,0,0,16.9,49.44Z" />
    <path class="cls-1" d="M37.26,27.68l.61-.18a1,1,0,0,0-.35-1.23l-.61.18C36.86,27.46,36.64,27.85,37.26,27.68Z" />
    <path class="cls-1" d="M26.86,43.61,26.69,43a1,1,0,0,0-1.23.35l.17.62C26.64,44,26.64,44,26.86,43.61Z" />
    <path class="cls-1" d="M41.56,26.45l-.61.17a1,1,0,0,0,.35,1.23l.61-.17C42.35,26.89,42,26.67,41.56,26.45Z" />
    <path class="cls-1"
        d="M23,49.71c-.18-.62-.4-.22-1-.05a.45.45,0,0,0,.17.62c.18.61.4.22,1,0A.44.44,0,0,0,23,49.71Z" />
    <path class="cls-1" d="M26.12,46.81l-.18-.62a1,1,0,0,0-1.23.36l.18.61C25.9,47.2,25.9,47.2,26.12,46.81Z" />
    <path class="cls-1" d="M5,71.78l-.17-.62a1,1,0,0,0-1.23.36l.18.61C4.8,72.17,5,71.78,5,71.78Z" />
    <path class="cls-1" d="M27.43,49.09a1,1,0,0,0-1.22.35l.17.62a1,1,0,0,0,1.23-.36A.44.44,0,0,1,27.43,49.09Z" />
    <path class="cls-1"
        d="M33.18,42.46l-.61.18c-.22.39-.44.79,0,1,.18.61.79.44,1,0C33.14,43.47,33.36,43.08,33.18,42.46Z" />
    <path class="cls-1"
        d="M17.17,62a.45.45,0,0,0-.62.18c-.61.17-.22.39,0,1a.44.44,0,0,0,.61-.18C17.52,63.22,17.34,62.61,17.17,62Z" />
    <path class="cls-1"
        d="M33.27,45.1a.45.45,0,0,0-.18-.62l-.39-.22c-.61.18-.44.79-.66,1.19.18.61.18.61.79.44S33.45,45.71,33.27,45.1Z" />
    <path class="cls-1" d="M37.48,41.23l-.17-.61a1,1,0,0,0-1.23.35l.17.62Z" />
    <path class="cls-1" d="M51.3,25.66,51.13,25a1,1,0,0,0-1.23.35l.17.62C50.86,26.45,51.48,26.27,51.3,25.66Z" />
    <path class="cls-1" d="M67.62,8.37l-.17-.62a1,1,0,0,0-1.23.35l.17.62A1,1,0,0,0,67.62,8.37Z" />
    <path class="cls-1" d="M80,0,79.4.22a.44.44,0,0,0,.17.61l.62-.17C80.41.26,80.63-.13,80,0Z" />
    <path class="cls-1" d="M45.51,37.94a1,1,0,0,0-1.23.35l.18.62a1,1,0,0,0,1.23-.35Z" />
    <path class="cls-1" d="M20.37,67.39l-.61.18a1,1,0,0,0,.35,1.22l.61-.17C20.77,67.61,21,67.21,20.37,67.39Z" />
    <path class="cls-1" d="M25,67.39c-.17-.62-.39-.22-1,0a.46.46,0,0,0,.18.62c.18.61.4.22,1,0Z" />
    <path class="cls-1" d="M49.29,39.52c-.66,1.19-.66,1.19-.09,2C50.25,40.57,49.86,40.36,49.29,39.52Z" />
    <path class="cls-1"
        d="M1.07,97.49c-.18-.61-.39-.22-1,0a.44.44,0,0,0,.18.61c-.22.4.17.62.79.44A1.56,1.56,0,0,1,1.07,97.49Z" />
    <path class="cls-1" d="M16.6,79.76l-.61.18a1,1,0,0,0,.35,1.23L17,81A1,1,0,0,0,16.6,79.76Z" />
    <path class="cls-1"
        d="M54.29,45.4c.18.62.39.22,1,.05a.45.45,0,0,0-.18-.62c-.17-.61-.39-.22-1,0A.44.44,0,0,1,54.29,45.4Z" />
    <path class="cls-1" d="M61.92,37.24l-.61.17a1,1,0,0,0,.35,1.23l.61-.17C62.71,37.68,62.32,37.46,61.92,37.24Z" />
    <path class="cls-1"
        d="M64.25,34.91a.45.45,0,0,0-.62.18c-.61.17-.22.39,0,1a.44.44,0,0,0,.61-.18A1.41,1.41,0,0,0,64.25,34.91Z" />
    <path class="cls-1"
        d="M45.25,58a.44.44,0,0,0-.61.18c-.62.17-.22.39,0,1a.45.45,0,0,0,.62-.18C45.43,58.57,45.65,58.17,45.25,58Z" />
    <path class="cls-1"
        d="M34.07,73.44c.21-.39.83-.57,1-1,.79.44,1,1,1.75,1.49l3,.13c.66-1.18-.13-1.62-.92-2.06-1.62.13-3.2-.75-3.86.44a.85.85,0,0,0-1.19-.66C33.32,72,33.49,72.61,34.07,73.44Z" />
    <path class="cls-1" d="M34.42,74.67a.44.44,0,0,0-.18-.61l-.39-.22c-.62.17-.44.79-.66,1.18.17.62.17.62.79.44Z" />
    <path class="cls-1"
        d="M61.62,44.3l.39.22a.45.45,0,0,0,.62-.17l.22-.4c-.18-.61-.79-.44-1.19-.66C61.44,43.69,61.44,43.69,61.62,44.3Z" />
    <path class="cls-1"
        d="M63.64,44.39c.39.22.61-.17,1.23-.35l-.18-.61c-.4-.22-.79-.44-1,0C62.85,44,63.24,44.17,63.64,44.39Z" />
    <path class="cls-1"
        d="M43.59,68.4a.44.44,0,0,0,.61-.18c.62-.18.22-.39,0-1a.44.44,0,0,0-.61.18A1.38,1.38,0,0,0,43.59,68.4Z" />
    <path class="cls-1"
        d="M14.94,104.16a.45.45,0,0,0-.62.18c-.61.17-.22.39,0,1a.44.44,0,0,0,.61-.18A1.41,1.41,0,0,0,14.94,104.16Z" />
    <path class="cls-1" d="M54.16,62.38,54,61.77a1,1,0,0,0-1.23.35l.17.61A1,1,0,0,0,54.16,62.38Z" />
    <path class="cls-1"
        d="M82.85,30.26a.44.44,0,0,0-.61.17c-.61.18-.22.4,0,1a.44.44,0,0,0,.61-.17C83,30.87,83.25,30.48,82.85,30.26Z" />
    <path class="cls-1"
        d="M26.08,94.33a.44.44,0,0,0-.61.18c-.62.17-.22.39,0,1a.46.46,0,0,0,.62-.18A1.39,1.39,0,0,0,26.08,94.33Z" />
    <path class="cls-1" d="M52.58,66.16A.45.45,0,0,0,53.2,66l.22-.39c-.18-.62-.79-.44-1.19-.66-.61.17-.61.17-.44.79Z" />
    <path class="cls-1" d="M40.3,83.62c-.18-.61-.4-.22-1,0a.44.44,0,0,0,.18.61c.17.62.39.22,1,0Z" />
    <path class="cls-1" d="M91.24,28.2l-.18-.62a1,1,0,0,0-1.23.35l.18.62C90.8,29,91,28.59,91.24,28.2Z" />
    <path class="cls-1" d="M19,115l-.61.17c-.22.4-.22.4.17.62l.62-.18C19.4,115.19,19.22,114.57,19,115Z" />
    <path class="cls-1" d="M72.24,51.24l-.18-.62a1,1,0,0,0-1.23.35l.18.62C72,51.63,72.24,51.24,72.24,51.24Z" />
    <path class="cls-1" d="M42.67,84.94a.44.44,0,0,0,.61-.18l.22-.39c-.17-.62-.79-.44-1.18-.66-.62.18-.62.18-.44.79Z" />
    <path class="cls-1" d="M78.51,46.45c-.17-.61-.39-.22-1,0a.44.44,0,0,0,.18.61c.17.62.39.22,1,0Z" />
    <path class="cls-1"
        d="M61.62,67.56a.44.44,0,0,0,.18.61c.17.62.39.22,1,0a.45.45,0,0,0-.18-.62A1.38,1.38,0,0,0,61.62,67.56Z" />
    <path class="cls-1"
        d="M45.74,88.71c-.17-.61-.39-.22-1,0a.44.44,0,0,0,.18.61c.17.62.39.22,1,0A.45.45,0,0,1,45.74,88.71Z" />
    <path class="cls-1"
        d="M87.9,44.43a.44.44,0,0,0-.61.18c-.62.17-.22.39,0,1a.44.44,0,0,0,.61-.18A1.38,1.38,0,0,0,87.9,44.43Z" />
    <path class="cls-1" d="M33.15,113.24c-.17-.61-.39-.22-1,0a.44.44,0,0,0,.18.61c.17.62.39.22,1,0Z" />
    <path class="cls-1"
        d="M82.2,59.35a.44.44,0,0,0-.61.18c-.62.17-.22.39,0,1a.45.45,0,0,0,.62-.18A1.38,1.38,0,0,0,82.2,59.35Z" />
    <path class="cls-1"
        d="M94.14,45.31a.44.44,0,0,0,.17.61c.18.62.4.22,1,0a.45.45,0,0,0-.18-.62A1.36,1.36,0,0,0,94.14,45.31Z" />
    <path class="cls-1"
        d="M75.27,70a.44.44,0,0,0-.18-.61c-.17-.62-.39-.22-1,0a.45.45,0,0,0,.17.62A1.39,1.39,0,0,0,75.27,70Z" />
    <path class="cls-1" d="M87.2,55.93a1,1,0,0,0,1.23-.35L88.26,55a1,1,0,0,0-1.23.36A.44.44,0,0,1,87.2,55.93Z" />
    <path class="cls-1" d="M100.32,42.54l-.17-.61a1,1,0,0,0-1.23.35l.17.62C99.88,43.33,100.1,42.94,100.32,42.54Z" />
    <path class="cls-1"
        d="M60.4,86.52c-.62.17-.62.17-.44.79l.39.22a.45.45,0,0,0,.62-.18l.22-.39C61.41,86.56,61,86.34,60.4,86.52Z" />
    <path class="cls-1"
        d="M67.2,78.92c-.22.4-.62.18-.22.4-.4-.22-1-1-1.36-1.27a.45.45,0,0,0-.62.17l-.61.18a.44.44,0,0,0,.17.61c.75,1.45,1.37,1.27,2.81.53l.4.22c.39.22.61-.18,1.23-.35l-.18-.62C67.81,78.75,67.42,78.53,67.2,78.92Z" />
    <path class="cls-1"
        d="M63.21,87,63,86.43c-.39-.22-.79-.44-1-.05-.61.18-.44.79,0,1C62.59,87.22,63,87.44,63.21,87Z" />
    <path class="cls-1" d="M59.61,93.38c-.18-.61-.4-.22-1,0a.44.44,0,0,0,.18.61c.17.62.39.22,1,0Z" />
    <path class="cls-1" d="M81.9,71.07l.61-.18a1,1,0,0,0-.35-1.23l-.61.18A1,1,0,0,0,81.9,71.07Z" />
    <path class="cls-1"
        d="M71.67,83a.46.46,0,0,0,.18.62c.18.61.4.21,1,0a.45.45,0,0,0-.18-.62C72.29,82.79,72.29,82.79,71.67,83Z" />
    <path class="cls-1" d="M76.9,79.14l-.18-.61a1,1,0,0,0-1.23.35l.18.61A1,1,0,0,0,76.9,79.14Z" />
    <path class="cls-1"
        d="M75.58,81.51l-.61.18c-.22.39-.44.79,0,1,.18.61.79.44,1,0C75.54,82.52,75.76,82.13,75.58,81.51Z" />
    <path class="cls-1"
        d="M75.67,84.15a.45.45,0,0,0-.18-.62l-.39-.22c-.62.18-.44.79-.66,1.19.18.61.18.61.79.44S75.84,84.76,75.67,84.15Z" />
    <path class="cls-1"
        d="M116.87,43.46a.45.45,0,0,0-.62.18c-.61.18-.22.39,0,1a.44.44,0,0,0,.61-.18C117,44.08,117.26,43.68,116.87,43.46Z" />
    <path class="cls-1"
        d="M97,67.07a.44.44,0,0,0,.61-.17c.61-.18.22-.4,0-1a.44.44,0,0,0-.61.17A1.39,1.39,0,0,0,97,67.07Z" />
    <path class="cls-1"
        d="M101.91,62c-.18-.62-.4-.22-1-.05a.45.45,0,0,0,.17.62c.18.61.4.22,1,0A.44.44,0,0,0,101.91,62Z" />
    <path class="cls-1" d="M120.47,49.08l-.18-.61a1,1,0,0,0-1.23.35l.18.61C120,49.87,120.25,49.47,120.47,49.08Z" />
    <path class="cls-1" d="M107,66.9c-.61.17-.22.39,0,1a.44.44,0,0,0,.61-.18c.62-.17.22-.39,0-1Z" />
    <path class="cls-1" d="M121.74,66.32l-.61.18a1,1,0,0,0,.35,1.23l.61-.18C122.14,66.54,122.36,66.15,121.74,66.32Z" />
    <path class="cls-1" d="M128.28,64.79a1,1,0,0,0-.35-1.23l-.62.18a1,1,0,0,0,.36,1.22A.44.44,0,0,1,128.28,64.79Z" />
    <path class="cls-1" d="M141.05,54.83l.61-.18a1,1,0,0,0-.35-1.23l-.61.18C140.26,54.39,140.43,55,141.05,54.83Z" />
    <path class="cls-1"
        d="M131.53,69.18c-.18-.62-.4-.22-1-.05a.45.45,0,0,0,.17.62c.18.61.4.22,1,0A.44.44,0,0,0,131.53,69.18Z" />
    <path class="cls-1"
        d="M133.94,74.13a.44.44,0,0,0-.17-.61c-.18-.61-.4-.22-1,0a.44.44,0,0,0,.17.61A1.39,1.39,0,0,0,133.94,74.13Z" />
    <path class="cls-1"
        d="M146.45,70.23a.45.45,0,0,0-.62.17c-.61.18-.22.4,0,1a.44.44,0,0,0,.61-.17A1.42,1.42,0,0,0,146.45,70.23Z" />
    <path class="cls-1"
        d="M163,67.51a.45.45,0,0,0,.61-.18c.62-.18.22-.4.05-1a.45.45,0,0,0-.62.18A1.38,1.38,0,0,0,163,67.51Z" />
    <path class="cls-1"
        d="M164.13,72.81a.44.44,0,0,0-.61.18c-.61.18-.22.39,0,1a.44.44,0,0,0,.61-.18C164.31,73.43,164.31,73.43,164.13,72.81Z" />
    <path class="cls-1"
        d="M167.73,78.43c-.17-.61-.39-.22-1,0a.44.44,0,0,0,.18.61c.17.62.39.22,1,0A.45.45,0,0,1,167.73,78.43Z" />
    <path class="cls-1" d="M178,74.83c.18.62.4.22,1,0a.45.45,0,0,0-.18-.62c-.17-.61-.39-.22-1,0Z" />
</svg>