<svg id="Layer_1" data-name="Layer 1" xmlns="http://www.w3.org/2000/svg" viewBox="0 0 62.29 42.21"><path d="M14.39,4.73c.62-.64,1.21-1.27,1.8-1.91l-.55.55-1,1-2,2.05C13.28,5.87,13.84,5.31,14.39,4.73Z"/><path d="M17.66,35.62c.64.63,1.27,1.22,1.91,1.81L19,36.88l-1-1-2.05-2C16.52,34.52,17.08,35.08,17.66,35.62Z"/><path d="M62.23,21.14l.05-.26c0-.41-.11-.5-.91-.52-.13,0-.34,0-.46,0-2.08-.07-4.16-.08-6.23-.15-1.88,0-1.69-.05-3.57-.08-1.14,0-2.29,0-3.43,0l-5.59-.3A11.07,11.07,0,0,0,40,19.73c-4.53.12-3.07.31-7.61.49-2.17.05.58-.13-1.64-.17s-1.22-.08-3.36-.17c-1.47,0-3,0-4.45.07-.67,0-1.37.13-2.06.2a32.79,32.79,0,0,1-4.55.25,36.94,36.94,0,0,0-6.24.26,9.76,9.76,0,0,1-1.94-.05,8,8,0,0,0-2.19-.16c-.74.07-1.52.1-2.3.16l.73-.71c.71-.71,1.5-1.39,2.21-2.11a11.69,11.69,0,0,1,1-1.06,17,17,0,0,0,2.85-3c.68-.77,1.3-1.66,2-2.37,1.71-1.7,3.47-3.37,5.24-5-4,4.15-10.78,11.53-10.15,11C8.75,16.19,10,15.1,11.21,14L13,12.31c.48-.44.93-.93,1.42-1.36a12,12,0,0,0,1.16-1.21c.61-.73,1.18-1.44,1.78-2.17A27,27,0,0,1,20.7,4.49.69.69,0,0,0,21,4a6.25,6.25,0,0,0-.12-1.23C20.49,2,20,1.21,19.64.45l0,0L19.47.24c-.24-.32-.34-.33-.72,0-.07,0-.15.16-.22.2C17.74,1.25,17,2,16.19,2.82c-.59.64-1.18,1.27-1.8,1.91s-1.11,1.14-1.69,1.7l2-2c-.52.54-1,1.07-1.56,1.6-.23.23-.45.48-.67.72l-1,1-.53.58c-.68.62-1.36,1.24-2,1.87a4.4,4.4,0,0,0-1,1c-1.48,1.71-2.93,3.45,2.06-1.73l-.45.52A12.31,12.31,0,0,0,8.66,11a16,16,0,0,1-1.9,2.39A17.6,17.6,0,0,0,4.1,16.61a3.84,3.84,0,0,1-.9.9,3.64,3.64,0,0,0-1.08.93c-.45.65-1,1.28-1.45,2a2.49,2.49,0,0,0-.32.8,1.07,1.07,0,0,0,.05.54A2.19,2.19,0,0,0,.17,22c-.3.27-.13.56-.07.92a2,2,0,0,0,.61.93c.63.56,1.2,1.16,1.78,1.76s1.39,1.49,2.11,2.21a11.69,11.69,0,0,1,1.06,1.05,17,17,0,0,0,2.95,2.85c.77.68,1.66,1.3,2.38,2,1.69,1.71,3.36,3.47,5,5.24-4.15-4-11.53-10.78-11-10.15C6.2,30,7.29,31.21,8.38,32.45,9,33,9.53,33.64,10.09,34.2s.92.94,1.35,1.43a12,12,0,0,0,1.21,1.16c.73.61,1.44,1.18,2.17,1.78a27.68,27.68,0,0,1,3.08,3.36.67.67,0,0,0,.46.28,6.25,6.25,0,0,0,1.23-.12c.79-.36,1.59-.82,2.35-1.21l0,0,.23-.13c.32-.24.33-.34,0-.72-.05-.07-.17-.15-.21-.22-.76-.79-1.56-1.56-2.34-2.34-.64-.59-1.27-1.18-1.91-1.81s-1.14-1.1-1.7-1.68l2.05,2c-.53-.52-1.07-1-1.6-1.56-.23-.23-.48-.45-.72-.67l-1-1c-.18-.18-.38-.35-.57-.53l-1.87-2a4.9,4.9,0,0,0-1-1c-1.71-1.47-3.45-2.93,1.73,2.07l-.52-.45a9.76,9.76,0,0,0-1.15-.8A16,16,0,0,1,9,28a17.6,17.6,0,0,0-3.21-2.66,3.84,3.84,0,0,1-.9-.9c-.16-.2-.29-.42-.45-.63.92,0,1.82,0,2.73.07,1.54,0,3.13.15,4.67.18.74,0,1.56,0,2.28,0a39.41,39.41,0,0,0,6.24.09c1.55,0,3.13-.2,4.67-.16,4.35.11,1.28.09,5.68.28a25.68,25.68,0,0,0,3.51,0,6.18,6.18,0,0,1,2.54-.12c2.54.09,2.06,0,4.59.12l3.74.13c1,.06,2,.06,3,.12s1.74.07,2.56,0c1.42-.06.78-.13,2.2-.19a64.65,64.65,0,0,1,7,.37,1.26,1.26,0,0,0,.77-.12,5,5,0,0,0,1-.95c.29-.82.47-1.72.7-2.55Z"/><path d="M19.57,37.43l1.21,1.09L18,35.89l1,1Z"/><path d="M16.19,2.82c.37-.4.73-.8,1.09-1.21-1,1-1.82,1.93-2.63,2.77l1-1Z"/></svg>