<svg id="Layer_1" data-name="Layer 1" xmlns="http://www.w3.org/2000/svg" viewBox="0 0 62.29 42.21"><defs><style>.cls-1{fill:none;}</style></defs><path class="cls-1" d="M46.33,33.94c-.62.6-1.31,1.25-2,2l-1,1-.55.55c.64-.59,1.27-1.18,1.91-1.81S45.77,34.52,46.33,33.94Z"/><path class="cls-1" d="M49.59,6.43l-2-2-1-1-.55-.55c.59.64,1.18,1.27,1.81,1.91S49,5.87,49.59,6.43Z"/><path d="M44.28,35.89c-.84.81-1.76,1.68-2.77,2.63.42-.36.81-.73,1.21-1.09l.55-.55Z"/><path d="M62.12,22a1.51,1.51,0,0,0-.23-.21,1.07,1.07,0,0,0,0-.54,2.28,2.28,0,0,0-.32-.8c-.43-.7-1-1.33-1.45-2a3.52,3.52,0,0,0-1.08-.93,3.84,3.84,0,0,1-.9-.9,17.16,17.16,0,0,0-2.65-3.21A15.35,15.35,0,0,1,53.64,11a12.38,12.38,0,0,0-.81-1.15c-.15-.17-.3-.34-.44-.52,5,5.18,3.53,3.44,2.06,1.73a4.85,4.85,0,0,0-1-1l-2-1.87-.53-.58-1-1c-.22-.24-.44-.49-.67-.72l-1.56-1.6,2,2.05c-.57-.56-1.14-1.12-1.68-1.7S46.69,3.46,46.1,2.82C45.32,2,44.55,1.25,43.76.48c-.07,0-.15-.16-.22-.2-.37-.37-.48-.36-.72,0l-.13.23,0,0c-.4.76-.86,1.56-1.21,2.35A5.52,5.52,0,0,0,41.32,4a.67.67,0,0,0,.28.46A27.68,27.68,0,0,1,45,7.57c.6.73,1.17,1.44,1.78,2.17A11.08,11.08,0,0,0,47.91,11c.48.43.93.92,1.42,1.36L51.09,14c1.23,1.09,2.46,2.18,3.66,3.33.62.57-6.2-6.81-10.16-11,1.77,1.66,3.53,3.33,5.24,5,.72.71,1.33,1.6,2,2.37a17.34,17.34,0,0,0,2.85,3,10.52,10.52,0,0,1,1.05,1.06c.72.72,1.5,1.4,2.21,2.11l.73.71c-.78-.06-1.56-.09-2.3-.16a8,8,0,0,0-2.19.16,9.76,9.76,0,0,1-1.94.05A36.94,36.94,0,0,0,46,20.4a32.88,32.88,0,0,1-4.55-.25c-.69-.07-1.39-.2-2.06-.2-1.49,0-3-.09-4.45-.07-2.14.09-1.27.17-3.36.17s.53.22-1.63.17c-4.55-.18-3.09-.37-7.62-.49a11,11,0,0,0-2.13.08l-5.6.3c-1.14,0-2.29,0-3.43,0-1.88,0-1.69.05-3.57.08-2.07.07-4.15.08-6.22.15-.13,0-.34,0-.47,0-.8,0-.92.11-.91.52l0,.26H0c.23.83.41,1.73.7,2.55a5.44,5.44,0,0,0,1,.95,1.22,1.22,0,0,0,.76.12,64.78,64.78,0,0,1,7-.37c1.43.06.78.13,2.21.19.81,0,1.68,0,2.55,0s2-.06,3-.12L21,24.31c2.53-.16,2.05,0,4.59-.12a6.18,6.18,0,0,1,2.54.12,25.69,25.69,0,0,0,3.51,0c4.4-.19,1.33-.17,5.68-.28,1.54,0,3.12.12,4.67.16a39.41,39.41,0,0,0,6.24-.09c.73-.07,1.54,0,2.28,0,1.54,0,3.13-.14,4.67-.18.91,0,1.82-.06,2.73-.07-.16.21-.29.43-.45.63a3.66,3.66,0,0,1-.9.9A18,18,0,0,0,53.3,28a15.47,15.47,0,0,1-2.39,1.9,10.67,10.67,0,0,0-1.15.8l-.51.45c5.17-5,3.43-3.54,1.72-2.07a4.85,4.85,0,0,0-1,1l-1.87,2-.58.53-1,1c-.24.22-.48.44-.71.67l-1.61,1.56c.74-.7,1.43-1.35,2-2-.56.58-1.12,1.14-1.7,1.68s-1.27,1.22-1.91,1.81c-.78.78-1.57,1.55-2.34,2.34,0,.07-.16.15-.2.22-.37.38-.36.48,0,.72l.22.13,0,0c.77.39,1.57.85,2.35,1.21a6.25,6.25,0,0,0,1.23.12.63.63,0,0,0,.46-.28,27.68,27.68,0,0,1,3.08-3.36c.74-.6,1.45-1.17,2.18-1.78a13.06,13.06,0,0,0,1.2-1.16c.44-.49.92-.94,1.36-1.43l1.7-1.75C55,31.21,56.09,30,57.24,28.79c.58-.63-6.81,6.19-11,10.15,1.66-1.77,3.33-3.53,5-5.24.71-.71,1.6-1.33,2.38-2a16.91,16.91,0,0,0,2.94-2.85,13.14,13.14,0,0,1,1.06-1.05c.72-.72,1.4-1.5,2.12-2.21s1.15-1.2,1.78-1.76a2.22,2.22,0,0,0,.61-.93C62.25,22.53,62.42,22.24,62.12,22Z"/><path d="M47.64,4.38,45,1.61c.36.41.73.81,1.09,1.21l.55.55Z"/></svg>