<svg id="Layer_1" data-name="Layer 1" xmlns="http://www.w3.org/2000/svg" viewBox="0 0 20 16"><defs><style>.cls-1{fill-rule:evenodd;}</style></defs><path class="cls-1" d="M17.94,4a4.52,4.52,0,0,1,0,.52A11.5,11.5,0,0,1,6.29,16,11.69,11.69,0,0,1,0,14.19a8.1,8.1,0,0,0,1,.05,8.28,8.28,0,0,0,5.09-1.73,4.09,4.09,0,0,1-3.83-2.8A4.72,4.72,0,0,0,4.1,9.64a4.06,4.06,0,0,1-3.29-4v0a4.25,4.25,0,0,0,1.85.51A4,4,0,0,1,.84,2.77a3.89,3.89,0,0,1,.56-2A11.67,11.67,0,0,0,9.85,5a4.06,4.06,0,0,1,4-5,4.13,4.13,0,0,1,3,1.27,8.07,8.07,0,0,0,2.6-1,4,4,0,0,1-1.8,2.22A8.22,8.22,0,0,0,20,1.9,8.88,8.88,0,0,1,17.94,4Z"/></svg>