<svg id="Layer_1" data-name="Layer 1" xmlns="http://www.w3.org/2000/svg" viewBox="0 0 143 6"><defs><style>.cls-1{fill:#faefe6;}</style></defs><path class="cls-1" d="M143,2.53c0-.34-.2-.42-1.27-.45-.18,0-.45,0-.63,0-2.76-.09-5.53-.12-8.3-.2l-7.42-.14c-1.51,0-3,0-4.56,0l-7.48-.31a21.23,21.23,0,0,0-2.85-.1c-6,.05-52,0-58,.07-2.87,0-5.64,0-8.59-.07C41.05,1.24,38.26.1,35.4,0c-2,0-4,1-6,1.06-.89,0-1.81.09-2.71.14-2,.07-4,.26-6,.16a75.52,75.52,0,0,0-8.27.14,18.92,18.92,0,0,1-2.59-.06A16.78,16.78,0,0,0,6.9,1.27c-1.54.08-3.24.08-4.79.21a7.71,7.71,0,0,0-1.47.25C.07,1.94-.13,1.64.08,2s.82.45,1.51.65a10.29,10.29,0,0,0,2.29.24C5.58,2.89,7.28,3,9,3c2,0,4.19.16,6.24.2,1,0,2.06,0,3,.07a79.65,79.65,0,0,0,8.31.14c2.06,0,4.14-.12,6.2-.08,5.8.15,11.68.37,17.56.58,1.69.06,3.46.18,5,.1,2.36-.19,4.81.91,7.3,1C66,5.15,75.62,3.18,79,3.35c1.69,0,37.17,1.36,38.78,1.41,1.33.06,2.68.07,4,.13C123,4.93,124.05,6,125.13,6c1.89,0,3.74-1.12,5.63-1.16q4.69,0,9.35.4a2.53,2.53,0,0,0,1-.09,5.49,5.49,0,0,0,1.2-.8A11.08,11.08,0,0,0,143,2.76h-.09Z"/></svg>