<svg id="Layer_1" data-name="Layer 1" xmlns="http://www.w3.org/2000/svg" viewBox="0 0 183 184"><defs><style>.cls-1{opacity:0.3;}.cls-2{fill:#f2c94c;}.cls-3{fill:#f591bf;}</style></defs><g class="cls-1"><path class="cls-2" d="M119.87,163.15c.45.23.75.3.75.53.08.68.08,1.35.15,1.88-.15.68-1.1.15-.58,1.21,0,0,.5-.23.73,0-.23.6.22.3,0,1,.29.3.42-.76.72-.46a2.88,2.88,0,0,1,.72.2c.37.15,1.18-1.63,1.1-1.25,0,.61,1.78-.8,1.78-.2,0,.23-.58.5-.58.73l.53.52c0,.38,2.21-2,2.21-1.43-.15.15-.37.46-.6.68.15.68,1.13.08,1.35,1,0,1.89-1.11-.6-1.11,1.44-.22.22.95.45.72.67,0,.46-1,.08-1,.46.23.3.74.3,1,.53-.9,1,.83-.48,1.81.5.72.11.11-1.25.42-2.39.15-.15.79.8,1,.57a2.48,2.48,0,0,0,.91-1,2.52,2.52,0,0,0-.82-3.09c-.15-.23-.38-.45-.6-.75.15-.15.22-.38.37-.38a4.6,4.6,0,0,1,1,0,.63.63,0,0,0,.6-.38v-1.43c-.23-.6-1.12-.08-1.35-.75.08-.08.15-.23.23-.23.67-.08,1.34-.08,2-.15.29.22.52.45.82.68a2.19,2.19,0,0,1,.67.07,6.28,6.28,0,0,0,.75.68c.6-.22.08-1.13.75-1.36l.22.23a1.18,1.18,0,0,0,.45.3.5.5,0,0,0,.3-.53.47.47,0,0,1,.23-.6c.15-.08.3,0,.52.23s.52.37,1.12.3c.3-.45.68-1,1-1.36h2.39c.3.15.37.38.22.53l-.82.83c-.22,0-.6.07-.9.07s.45-.15.23.23c.22.23,0,.3.22.53,0,.3-.2.45.25.75a9.62,9.62,0,0,1,.87-.75c.3.3,1.13-.83,1.43-.53,0,.45.58,1.12.58,1.65,1.4-1.66,1.31-2.25,1.08-1.95.34-.45,1.09-.68,1.09.68-.23.22.36-.06.72-.68,0,.45.72-1.4.72-.95.94.6-1.08,2.06,0,1.7-.15-.22.58.46.36.15,0-.37,1.08,0,1.08-.4-.23-.3.73-.73.43-1,0-.68,1,.38,1-.3.22-.23-.22-.62,0-.85,0-1.13,1,1.45,1,.32.23-.3-.3-.9,0-1.21,0-1.66-1-.45-1-2,.22-.46.6-.3,1-.38a7.26,7.26,0,0,0,.75.68c.08.07.23,0,.37,0v-1.06a6.32,6.32,0,0,1-.67-.75,5.22,5.22,0,0,0,.6-.68,6.32,6.32,0,0,0-.67-.75c.07-.91.07-1,1-1,.45.46,1,.91,1.42,1.36.07.08.23,0,.3,0V153c.3-.31.67-.61,1-1a3.42,3.42,0,0,0,1.05-.46l-.45-.45c-.15-.15-.07-.3.15-.53a2.27,2.27,0,0,0,.38-.53c0-.37.07-.82.37-.82s.3.52.37.82.3.46.38.38a.51.51,0,0,0,.3-.53c.07-.67.15-.67.82-.75.07,0,.22-.08.3-.08l1-1c.08-.07,0-.22,0-.3a.5.5,0,0,1-.6-.22c-.15-.23.08-.38.75-.46h-.15a.47.47,0,0,1,.15-.52c.15-.16.3-.16.45.15,0,.07-.08.15-.08.22a.73.73,0,0,1-.37.23,1.11,1.11,0,0,0-.15.68,4.49,4.49,0,0,0,1,0c.15,0,.38-.3.38-.46a13,13,0,0,0,0-1.65.5.5,0,0,1-.6-.23c-.15-.23.07-.38.6-.45V144c.3-.3.67-.6,1-1h1.87a2.52,2.52,0,0,0,1.12-1.21c-.45-.52-1.12-.07-1.57-.3a8.18,8.18,0,0,1-.83.76h-.67c-.52-.61-1.12-1.13-1.64-1.74.14-.15.29-.37.44-.37,1.13-.08,2.25-.08,3.37-.08.08,0,.15-.15.22-.23a7.35,7.35,0,0,1-.67-.75c-.07-.08,0-.23,0-.3a.51.51,0,0,1-.6-.23c-.15-.23.08-.38.6-.45v-.68h-1c-.08,0-.15-.08-.22-.15s-.16-.15-.08-.23.15-.22.22-.22c.75-.23,1-.08,1.13.6a.45.45,0,0,0,.59-.23c.23-.37,0-.9.53-1.13h.6a5.15,5.15,0,0,0,.75.61c.45-.23.29-.61.29-1.06-.29-.3-.67-.6-1.12-1.06-.3-.15-.9.23-1.42-.15-.07-.07-.15-.15-.15-.22a.33.33,0,0,1,.23-.23,2.1,2.1,0,0,1,.74-.08,10.9,10.9,0,0,1,1-.9,10,10,0,0,0,.15-2,3.54,3.54,0,0,1,1-1.13c.45-.15.75-.22,1.12-.38-.52-.52-1-1.05-1.42-1.5l1.2-1.21a.34.34,0,0,0-.23-.45c-.07-.08-.22,0-.37,0a.47.47,0,0,1-.6-.23c-.08-.23.22-.45.67-.45h1a1.9,1.9,0,0,0,.67-.08l1-1c-.38-.68-1-.22-1.57-.38-.15-.15-.38-.22-.53-.37-.6-.53-1.12-1.13-1.72-1.74-.22-.22-.3-.3-.22-.53a.49.49,0,0,1,.59-.22h.3a1.83,1.83,0,0,0,1.43.75l.52.53a2.23,2.23,0,0,0,1.57,0c.08-.07.3-.15.3-.22v-1.74h-.67a.47.47,0,0,1-.6-.23c-.08-.15.07-.3.3-.52l.22-.23c-.15-.75-1-.15-1.27-.75a6.36,6.36,0,0,0,.67-.76V115a.51.51,0,0,1-.6-.23,1,1,0,0,1,0-.9.48.48,0,0,1,.6-.23c0-.07.08-.23,0-.3a13.12,13.12,0,0,0-1-1.06c-.08-.07-.23,0-.3,0v1c-.45.46-.45.46-.83.38s-.52-.15-.6-.6a.88.88,0,0,1,.38-.83h1c0-.15-.07-.3,0-.38a7.26,7.26,0,0,0,.68-.75l-1-1a7.37,7.37,0,0,1-.75.68.73.73,0,0,1-.14-1.14,2.33,2.33,0,0,0,.59-1.13c0-.3.38-.53.75-.45a.62.62,0,0,0,.6-.38v-2a.33.33,0,0,0-.45-.3c-.07,0-.15.15-.22.23V107c-.53.46-.53.46-1.87.3-.3-.15-.3-.37,0-.45s.44,0,.67-.15.45-.3.45-.37a.5.5,0,0,0-.52-.31c-.83-.15-.83-.15-.83-.75v-1l.3-.3c.53-.61.53-.83.08-1.44-.15-.22-.3-.3-.23-.52a.62.62,0,0,1,.6-.23c.45,0,.6-.15.67-.6a.7.7,0,0,0-.45-.83c-.22-.08-.44,0-.67-.08-.07,0-.15-.15-.3-.22V98.66a3.27,3.27,0,0,1,.67-.68c-.22-.6-1.12-.15-1.34-.75v-.68c.3-.6,1.12-.08,1.34-.75-.59-.61-1.12-1.14-1.72-1.74h-1a.39.39,0,0,1-.23.53c.08.38-.15.38-.3.38a.5.5,0,0,1-.52-.31c0-.07.22-.37.37-.37a4,4,0,0,1,1,0c0-.15-.08-.3,0-.38a5.55,5.55,0,0,1,.67-.75V91c-.08-.07-.23-.3-.23-.22-.15.15-.37.22-.37.37a5.35,5.35,0,0,0,0,1.06.5.5,0,0,1-.3.53c-.52-.08-1.12.22-1.64-.23.22-.68.82-1,1.27-1.51a6.36,6.36,0,0,1-.68-.75V89.23h-1c-.07,0-.15-.07-.22-.15s-.15-.15-.08-.22.15-.23.23-.23c.75-.23,1-.08,1.12.6.3.08.52,0,.6-.22.15-.53.22-1.13.82-1.44v-1a.63.63,0,0,0-.22-.6.78.78,0,0,0-.9-.07c-.45.37-.83.82-1.27,1.2-.15-.15-.38-.22-.38-.38a7.8,7.8,0,0,1,0-1.28c.23-.3.68-.45.6-.83s-.6-.22-.9-.22c-.22.22-.52.45-.75.68l-1-1a1.27,1.27,0,0,1,.53-.37,4.51,4.51,0,0,1,1,0c.15,0,.3-.23.53-.38l-1-1a1.93,1.93,0,0,1-.67-.08,6.32,6.32,0,0,0-.75-.67,1.48,1.48,0,0,0-.67.22c-.22.08-.15-.15,0-.22s.45,0,.3.3a.81.81,0,0,1-.38.3s-.22-.15.08-.38.22-.45.3-.53l.67-.67c-.22-.23-.45-.53-.6-.68a7.48,7.48,0,0,1,.6-.76c-.52-.53-1.12-.15-1.72-.3a10.9,10.9,0,0,1-.9-1c.15-.45.9-.68.6-1.43l-.67-.68a6.46,6.46,0,0,0,.67-.76c0-.3.15-.75-.3-.9s-.45.3-.75.53c-.67-.15-.15-1.06-.74-1.36H156c-.37.45-.75,1-1.12,1.36a2.38,2.38,0,0,1-.82-.08,6.35,6.35,0,0,0-.75-.6l-1,1c-.08.07,0,.22,0,.3a.38.38,0,0,1,.52.23,4.35,4.35,0,0,1,.15.6.5.5,0,0,1-.3.53c-.07,0-.37-.23-.37-.38a4,4,0,0,1,0-1,.55.55,0,0,1-.68-.45,4,4,0,0,1,0-.91h-1c-.07,0-.15-.07-.22-.15s-.15-.15-.08-.22.15-.23.23-.23c.74-.23,1-.08,1.12.6.15,0,.3.08.37,0a12.94,12.94,0,0,0,1-1c-.15-.15-.23-.37-.38-.37a4.59,4.59,0,0,0-1.05,0,.5.5,0,0,1-.52-.31c.22-.22.45-.52.67-.75-.45-.53-1.34-.23-1.64-1-.23.22-.53.45-.75.68h-1.35c-.22-.23-.52-.46-.75-.68h-3.14c-.22,0-.52-.08-.52-.3s.22-.38.37-.38c.3-.08.67,0,.9-.38-.3-.3-.68-.6-1.05-.9a2.84,2.84,0,0,1-.67.53c-.68-.23-.15-1.06-.75-1.36h-1.42c-.3-.38-.3-.38.3-1.06l-.9-.9c-.82-.3-1.57,0-2.24-.15l-.68.67c-.82,0-1.72.08-2.62,0-.37,0-.52-.37-.45-.75a.48.48,0,0,0-.07-.3l-.52-.53a2.25,2.25,0,0,1-.16-.6c0-.45.16-.91-.37-1.28h-.67c-.53.45-.82,1-1.5,1.28-.37-.23-.22-.61-.3-1-.3-.3-.67-.61-1.05-1h-1.27c-.3-.23-.52-.46-.82-.68a8.62,8.62,0,0,1-.75.68h-1v1c0,.07-.07.15-.15.22s-.14.15-.22.08-.23-.15-.23-.23c-.22-.75-.07-1,.6-1.13V61.4a.47.47,0,0,0-.22-.6c-.15-.08-.3.07-.52.3l-.23.23a1.87,1.87,0,0,1-1-.91,4.3,4.3,0,0,1-.45-1.2,5.11,5.11,0,0,1-.75.67,5.06,5.06,0,0,0-.75-.6l-1.27,1.28c-.37-.07-.45-.37-.45-.68a.68.68,0,0,0-.3-.6,2.19,2.19,0,0,1-.67-.07c-.45.45-1,.9-1.42,1.35-.38-.22-.3-.6-.38-.9a.68.68,0,0,0-.44-.45,15.84,15.84,0,0,0-2,0c-.9.9-.9.9-1.72.37-.08-.3.15-.75-.23-.9s-.45.45-.74.45a4,4,0,0,1-2.32-.08c-.3-.37-.15-.9-.15-1.35a.51.51,0,0,0-.3-.53c-.08,0-.3.3-.38.45s-.07.45-.15.68c0,.08-.15.15-.22.23h-1a.55.55,0,0,1-.45.68,6.22,6.22,0,0,0-1.27.22c-.22.08-.15-.15,0-.22s.45,0,.3.3a.84.84,0,0,1-.37.3s-.23-.15.07-.38a6.66,6.66,0,0,0,.3-2.34h-1.12c-.38.46-.75,1-1,1.29a6.81,6.81,0,0,0-1.2.3c-.23.07-.3.3-.23.68v-.15a.46.46,0,0,1,.53.15c.15.15.15.3-.15.45-.08,0-.15-.08-.23-.08a.78.78,0,0,1-.22-.37.85.85,0,0,1-.6-.38c-.22-.38,0-.91-.52-1.13h-1.35c-.23.22-.52.45-.75.68H99c-.45.3-.3.83-.3,1.28s-.08.6-.38.75c-.07-.07-.22-.15-.22-.22A7.82,7.82,0,0,1,98,59c0-.3-.37-.45-.74-.45a.67.67,0,0,0-.6.3c.22.22.37.45.6.68a1.83,1.83,0,0,1-.45.37,14.53,14.53,0,0,1-1.87,0l-1-1V57.78c-.52-.07-.67-.22-.67-.53a8.85,8.85,0,0,0-.15-1.35c-.08-.23-.3-.31-.6-.23v2.41a.34.34,0,0,1-.45.31c-.08,0-.23-.16-.23-.23v-.68c-.15-.15-.37-.38-.52-.38-.52,0-1.12-.22-1.57.3a7.39,7.39,0,0,1,.67.76v.68c.23.53.83.3,1.13.53a.48.48,0,0,1,.22.6h1c.08,0,.15.07.23.15s.15.15.07.23-.15.22-.22.22c-.75.23-1,.08-1.13-.6-.14,0-.29-.08-.37,0a12.74,12.74,0,0,0-1,1c0,.23-.08.45-.08.68a6.36,6.36,0,0,1,.68.75.76.76,0,0,1-1.13.23c-.22-.08-.29-.38-.52-.45s-.75-.15-.9.07a.61.61,0,0,0-.15.61.73.73,0,0,0,.08.22,5.2,5.2,0,0,1,.6.83c.22.38-.15.83-.68.91a.5.5,0,0,1-.22.6c-.23.15-.38-.08-.45-.6h-1a1.3,1.3,0,0,0-.37.52c-.08.46.07.91-.08,1.21-.37.38-.67.76-1,1.06H84a.51.51,0,0,0,.23.6c.37.23.9-.08,1.12.6v.53a2.45,2.45,0,0,1-.52.38c-.68.07-1.35.07-2,.15-.08,0-.15.15-.23.23a5.55,5.55,0,0,1,.67.75c.08.08,0,.23,0,.3a.39.39,0,0,1,.53.23c.07.15.07.38.15.6a.52.52,0,0,1-.3.53c-.08,0-.38-.23-.38-.38a4.59,4.59,0,0,1,0-1h-.67a.51.51,0,0,0-.6.23c-.07.15,0,.3.23.45s.3.3.22.45a.47.47,0,0,1-.6.23h-.67c-.08.53-.22.68-.52.68a7.75,7.75,0,0,0-1.35.15c-.23.07-.3.3-.23.6h1.13c.15.15.37.46.6.68.07.08.22,0,.44,0h-.15a.48.48,0,0,1,.15-.53c.15-.15.3-.15.45.15,0,.08-.07.16-.07.23a.82.82,0,0,1-.38.23,2.55,2.55,0,0,0-.15,1,3.29,3.29,0,0,1-1.34,1.13c-.38-.07-.82-.07-1.2-.15-.22-.07-.3-.3-.22-.6h-1c-.3.3-.6.68-1,1.06a4.38,4.38,0,0,0,.07,2.18c.08.23.3.3.6.23V78.52a11.26,11.26,0,0,0,1-1c.53.23.45.61.3,1.13-.52.16-.6,1-1.27.91v1.06c-.08.07-.15.22-.22.22-.23.08-.45.08-.68.15s-.37.23-.52.38c-.45.38-.83.83-1.2,1.21-.07.37.3.45.45.75-.08.6.52,1.28-.3,1.74-.22-.23-.45-.38-.67-.61-.15.15-.3.23-.3.3v2.79c-.3.61-1.12.16-1.35.76a2.76,2.76,0,0,1,.6.75l-1,1h-.68c-.52.83-.52.83.3,1.74a3,3,0,0,0-.6.75c.15.3.45.38.83.38.15,0,.37.23.52.38l-1,1a3.85,3.85,0,0,0-.82.07c-.23.3-.53.68-1,1.21,0-.08.15.07.38.15s.67-.15.89.3a2.4,2.4,0,0,1-.82.91,4.63,4.63,0,0,1-1.2.45c.45.6,1,.9,1.35,1.51-.22.37-.6.22-.9.3a.34.34,0,0,0-.22.23c-.08.15,0,.37.3.45a8.56,8.56,0,0,0,1.34,0c.6.45.3,1,.3,1.66,0,.15-.22.3-.37.37a1.61,1.61,0,0,0-.52-.45,1.89,1.89,0,0,0-.6-.15.42.42,0,0,0-.3.08c-.3.52-1,.45-1.42.75a1.92,1.92,0,0,0-.83.91c.23.37.6.3.9.3.23-.23.53-.45.75-.68.75.45,0,1.36.45,1.88s1.42-.22,1.87.53c-.45.46-.9,1-1.35,1.44v.67c-.22.61-1.12,0-1.34.76l1,1c.07.08.22,0,.52,0h-.15a.48.48,0,0,1,.15-.53c.15-.15.3-.15.45.15,0,.08-.07.15-.07.23a.92.92,0,0,1-.38.23c-.22.22-.15.45.08.52s.75.23,1.19.38c-.3.3-.44.53-.74.83a6.12,6.12,0,0,0,0,1.21.66.66,0,0,0,.82.52h-.15a.45.45,0,0,1,.15-.52c.15-.15.3-.15.45.15,0,.07-.08.15-.08.22a.78.78,0,0,1-.37.23c-.15.15-.08.3-.15.38-.45.52-1,1-1.35,1.43.08.9.08.9.6,1.06h.38a.84.84,0,0,1,.37,1.13c-.15.22-.3.3-.52.6a17.19,17.19,0,0,0,0,2.87c.22.37.37.37.52.07a4.75,4.75,0,0,1,.15-.6,1.27,1.27,0,0,1,.37-.53L73,120.68a.55.55,0,0,1-.74.31c-.6.52-1,.83-1.28,1.13.45.6,1.43.23,1.72,1a2.63,2.63,0,0,1,.75.08,10.9,10.9,0,0,0,1,.9c0,.46,0,.46-.6.46h-.68v2.79h1c.08,0,.15.15.23.22v.23c-.38.45-.83.83-1.2,1.21a1.3,1.3,0,0,0,.52.37.79.79,0,0,0,.6-.07c.45-.38.82-.83,1.2-1.21a1.83,1.83,0,0,1,.37.45,1.06,1.06,0,0,1-.07.68c-.08.23-.38.31-.45.53a.8.8,0,0,0,0,.91l.52.52a8.78,8.78,0,0,0-.6.76v.6c.23.53.75.3,1.13.53a.47.47,0,0,1,.22.6h.67c.53,0,.75.23.75.76v.68h1c.07,0,.15.15.22.22v.23c-.37.45-.82.83-1.19,1.21.15.37.45.37.82.37s.37.23.52.31a6.32,6.32,0,0,0-.67.75,8.31,8.31,0,0,1,1.35,1.51,2.45,2.45,0,0,1-.15.68c-.08.22-.3.3-.6.22a4,4,0,0,0,0,1c.07.23.3.38.45.31a2.47,2.47,0,0,1,.45-.46c.52-.37,1-.07,1.12.61a.47.47,0,0,1,.6.22.49.49,0,0,1,.07.3v1.13a27.28,27.28,0,0,0,2.1,2.27v1H86l1,1c-.15.75-1.12.07-1.27.83.3.22.6.53,1,.9h1.79c.6.3.83.76,1.27,1.06-.59.6-1.19.23-1.79.38-.08.22-.23.52-.3.75a3.31,3.31,0,0,0,1.2,1.28c.37,0,.74.08.89-.3.08-.23,0-.45.08-.68s.3-.37.45-.3l.22.23a7.27,7.27,0,0,0,.68.68v1.43l-1.28,1.28c-.07.68-.44,1.36.3,1.89h.6a5.59,5.59,0,0,1,.75.68.56.56,0,0,0,.3-.61c.07-.68.3-.83.82-.75.23,0,.38.22.53.3v.68c-.23.23-.45.53-.68.75v1.44l1,1c.22-.23.52-.46.74-.68H95c.3.15.37.37.15.53l-1.2,1.2c.22.23.45.53.67.76,0,.37.08.75-.3,1-.45-.46-1-.91-1.42-1.36-.07.08-.22.15-.22.22-.08.91-.08,1.82-.08,2.72,0,.23.23.38.75.45h.23c.67.61,1.42-.68,1.79,1.66,0,.38,1.08-.15,1.08-.6-.23-.23-.09-1.19-.36-1.45-.23-.68.7-.29.63-1s.6-1.06.45-1.58c-.23-.23,1.27-.46,1.12-.61,0-.08,1.4,0,1.4-.12,0-3.17,1.44,1.36,1.44-1.89.15-.22,1.8,2,2.1,1.71v-2a12.74,12.74,0,0,1,1-1c.6.08.75.75,1.2.91v1.5a3.77,3.77,0,0,1,.89.31,8.08,8.08,0,0,1,.83-.76h1.42c.3.3.6.68,1,1.06a4.53,4.53,0,0,1-.6.67c.68.61.75.61,1.57-.22.53.08.75.9,1.43.6.45.46,1,.91,1.42,1.44H114c.07-.31.22-.61.3-.91a8,8,0,0,0-.75-.83l.67-.68c.23-.22.3-.3.53-.22s.22.37.22.6c-.08.53.07.6.6.6a.62.62,0,0,1,.6.23.29.29,0,0,1,.07.23c-.3.3-.75.6-.6,1.2a8.35,8.35,0,0,0,1.8,1.81c.22-.07.45-.07.67-.15s.3-.3.23-.6a.39.39,0,0,1-.53-.23c-.07-.15-.07-.38-.15-.6a.52.52,0,0,1,.3-.53c.08,0,.38.23.38.38a4.59,4.59,0,0,1,0,1,.38.38,0,0,1,.52.22c.15.38.23.76.38,1.21.89-.45.14-1.28.52-1.81l.67-.68a3.7,3.7,0,0,1-.6-1.43c-.07-.23.15-.15.23,0s0,.45-.3.3a.72.72,0,0,1-.3-.38C119.5,163,119.65,162.85,119.87,163.15Zm35.92-87h-2c-.08,0-.15-.15-.23-.23s0-.3.23-.45h2c.07,0,.15.15.22.23S156,76,155.79,76.11ZM159.6,145a.88.88,0,0,1,1.43,0c-.08.38.22.91-.45,1A11.32,11.32,0,0,0,159.6,145Zm5.91-49.25c.53.45.53.91,0,1.43C165,96.63,165,96.17,165.51,95.72Zm.6,5.43c-.07-.08-.22-.15-.22-.23v-.67c0-.08.15-.15.22-.23a.14.14,0,0,1,.23,0c.37.15.37.9,0,1.13C166.26,101.23,166.19,101.15,166.11,101.15ZM72.29,117.74c-.45.53-.9.53-1.43,0C71.39,117.22,71.84,117.22,72.29,117.74Zm79,37.34v-.3l.22-.23c.15-.07.3,0,.45.23.08.07,0,.22,0,.3a.5.5,0,0,1-.22.6C151.52,155.76,151.3,155.53,151.3,155.08Zm-28-93c-.15.08-.3,0-.45-.23l.22-.22c.15-.08.3,0,.45.22C123.61,61.85,123.46,62,123.32,62.08Zm-32.4,1.74c.07.15,0,.3-.23.45L90.47,64c-.08-.15,0-.3.22-.45Zm41,.83.22-.23c.15-.08.3,0,.45.23l-.22.22C132.22,65,132.07,64.87,131.92,64.65ZM149,73.24c-.15.08-.3,0-.45-.22l.23-.23c.14-.07.29,0,.44.23Zm18,35,.22.23c.08.15,0,.3-.22.45l-.23-.23C166.56,108.62,166.64,108.47,166.94,108.24Zm-95.55.6c-.15.08-.3,0-.45-.22l.22-.23c.15-.07.3,0,.45.23C71.61,108.69,71.46,108.77,71.39,108.84Zm98.17,11.92-.23-.23c.15-.22.3-.3.45-.22l.23.22C169.85,120.76,169.71,120.84,169.56,120.76Zm-2.77,8.37-.23-.22c.15-.23.3-.31.45-.23l.23.23C167.09,129.13,166.94,129.21,166.79,129.13Zm-1.87,6.49.22.23c-.15.22-.3.3-.45.22l-.22-.22C164.62,135.62,164.77,135.54,164.92,135.62ZM84,142c.07.15,0,.3-.23.45l-.22-.22c-.08-.15,0-.3.22-.46C83.73,141.8,83.88,142,84,142Zm77.29.6c.15-.07.3,0,.45.23l-.22.23c-.16.07-.3,0-.45-.23Z"/><path class="cls-2" d="M117,168.58c.3-.3.37-.45.3-.53l-1-1c-.15.08-.38.23-.38.3a19.83,19.83,0,0,0,0,2c.6.6,1.2.3,1.87.22.45-.37.15-.82.23-1.28a2.13,2.13,0,0,0-1,.23c-.22.07-.15-.15,0-.23s.45,0,.3.3a.75.75,0,0,1-.37.31C116.88,169,116.73,168.81,117,168.58Z"/><path class="cls-2" d="M91,160h-1c-.22-.22-.52-.45-.74-.68a1,1,0,0,0-.38.61c-.15.83-.15.83-.75.83h-1l-.3.3c0,.07.08.22.15.22a4.77,4.77,0,0,0,2.32.08c.3-.53.9-.6,1.42-.76A.44.44,0,0,0,91,160Z"/><path class="cls-2" d="M84.78,56.2c-.3-.61-1.12-.08-1.35-.76v-.68a.34.34,0,0,0-.22-.22c-.15-.08-.37,0-.45.3a9.74,9.74,0,0,0,0,1.43c-.22.15-.45.38-.75.61.45.6,1,.3,1.57.37C84.11,57.1,84.33,56.58,84.78,56.2Z"/><path class="cls-2" d="M91.66,55.9h-.29c-.9,0-.9,0-1.05-.83a.69.69,0,0,0-.9-.61,2.17,2.17,0,0,0-.45.38v1c.53-.07.67.53,1.27.68a3.89,3.89,0,0,0,1,0A.43.43,0,0,0,91.66,55.9Z"/><path class="cls-2" d="M93.76,167.22a.36.36,0,0,0-.37-.22,1.38,1.38,0,0,1-1.2-.53.24.24,0,0,0-.15-.08c-.38.3-.67.61-1.05.91.38.37.67.68,1.05,1a2.66,2.66,0,0,1,.75.08A5.88,5.88,0,0,1,93.76,167.22Z"/><path class="cls-2" d="M168.66,138.33c.07-.37-.15-.6-.53-.67a5.9,5.9,0,0,0-1.19,0,5.69,5.69,0,0,1-.75.67h-1V139h1.72c.22-.22.52-.45.74-.68Z"/><path class="cls-2" d="M76.48,140.07l1,1h.67c.23-.23.45-.6.75-.68s.45-.07.3-.38c-.08-.07-.15-.22-.22-.22a4.79,4.79,0,0,0-2.32,0A.65.65,0,0,1,76.48,140.07Z"/><path class="cls-2" d="M82,60.35a4.63,4.63,0,0,1-.67-.61c-.23-.22-.3-.3-.45-.22a.47.47,0,0,0-.22.6v.38a4.59,4.59,0,0,0,.67.6v.75c0,.08.15.16.22.23a.33.33,0,0,0,.45-.23Z"/><path class="cls-2" d="M84.11,146.71h-1c-.22-.23-.52-.46-.75-.68-.37,0-.75-.08-1,.37l.9.91a2,2,0,0,0,1.64,0A.48.48,0,0,0,84.11,146.71Z"/><path class="cls-2" d="M163.79,148.82h-1.72c-.52.75-.52.75,0,1.36.23-.23.45-.38.68-.61.15.15.22.15.3.3s.3.38.52.31a.49.49,0,0,0,.22-.61A2.67,2.67,0,0,1,163.79,148.82Z"/><path class="cls-2" d="M166.56,88.71h-1a.71.71,0,0,0-.37.83c.07.45.15.6.59.6s.3,0,.83-.38A5,5,0,0,1,166.56,88.71Z"/><path class="cls-2" d="M65.33,89.76c-.68-.53-.68-.53-1.42,0v.68c.67.53.67.53,1.42,0Z"/><path class="cls-2" d="M172.25,96.7c-.37-.15-.67-.3-.9-.38-.67.23-.9.76-1.42,1.13.37.16.67.31.9.38C171.43,97.61,171.65,97.08,172.25,96.7Z"/><path class="cls-2" d="M169,104.77l1-1c-.23-.23-.6-.45-.6-.75s-.08-.46-.38-.31c-.07.08-.22.16-.22.23a3.12,3.12,0,0,0,0,1.66A.82.82,0,0,1,169,104.77Z"/><path class="cls-2" d="M57.4,104.77H56.05c-.15,0-.23.3-.3.38l1,1a10.9,10.9,0,0,0,.9-1C57.7,105.07,57.62,104.92,57.4,104.77Z"/><path class="cls-2" d="M170.53,127.17c-.52.23-.75.76-1.2,1,.3.53.68.38,1,.38a7.26,7.26,0,0,1,.75-.68c.45-.38.45-.45.08-.6A1.39,1.39,0,0,0,170.53,127.17Z"/><path class="cls-2" d="M171.43,127.85v1a.72.72,0,0,0,.82.38c.45-.08.6-.15.6-.61,0-.3,0-.3-.38-.82A5.56,5.56,0,0,1,171.43,127.85Z"/><path class="cls-2" d="M88.52,153.72h-.67a7.26,7.26,0,0,0-.75-.68c-.45.76-.45.76.08,1.36h1.34c.08,0,.15-.15.23-.23S88.82,153.8,88.52,153.72Z"/><path class="cls-2" d="M106.93,162.47v2c0,.07.15.15.22.22s.3,0,.45-.3v-2c0-.08-.15-.16-.22-.23S107.08,162.24,106.93,162.47Z"/><path class="cls-2" d="M135.81,171.07a.82.82,0,0,0,.23-1.21,5.6,5.6,0,0,0-.9-1,.81.81,0,0,0-.23,1.21A6,6,0,0,0,135.81,171.07Z"/><path class="cls-2" d="M144.34,54.09c.45.52.9.52,1.42,0-.22-.23-.52-.46-.75-.68s-.3-.3-.44-.23a.47.47,0,0,0-.23.6C144.41,53.86,144.34,54,144.34,54.09Z"/><path class="cls-2" d="M97.28,55.14a3.94,3.94,0,0,0,1,0c.15,0,.22-.22.37-.38l-.89-.9c-.15.15-.38.23-.38.38A1.84,1.84,0,0,0,97.28,55.14Z"/><path class="cls-2" d="M95.18,54.84c-.45-.53-.9-.53-1.42,0,.22.23.52.45.75.68s.3.3.45.23a.49.49,0,0,0,.22-.61Z"/><path class="cls-2" d="M106.25,57.25a4,4,0,0,0,1,0c.15,0,.22-.22.37-.37l-.9-.91c-.14.15-.37.23-.37.38A1.85,1.85,0,0,0,106.25,57.25Z"/><path class="cls-2" d="M121.14,58.69l1-1c-.08-.68-.6-.38-1-.46A.9.9,0,0,0,121.14,58.69Z"/><path class="cls-2" d="M151.3,68.79c-.67-.45-.67-.45-1.35,0,.08.38-.22.91.45,1C150.7,69.4,151,69.1,151.3,68.79Z"/><path class="cls-2" d="M79.24,74.07a.52.52,0,0,0-.67.46,11.9,11.9,0,0,0,0,1.58.51.51,0,0,0,.67-.45Z"/><path class="cls-2" d="M164.47,84.56V82.9c0-.15-.23-.23-.38-.38,0,0-.22.15-.22.23a2.84,2.84,0,0,0,.07,1.58C164,84.56,164.24,84.56,164.47,84.56Z"/><path class="cls-2" d="M63.61,99.87c-.53.45-.45.9,0,1.43.22-.23.45-.53.67-.75s.3-.3.22-.45a.46.46,0,0,0-.59-.23C63.83,99.94,63.76,99.87,63.61,99.87Z"/><path class="cls-2" d="M169.33,102.66a4.49,4.49,0,0,0,1,0c.15,0,.23-.23.38-.38l-.9-.9c-.15.15-.37.22-.37.37A1.9,1.9,0,0,0,169.33,102.66Z"/><path class="cls-2" d="M171.8,106.88l-1,1c.07.68.6.38,1,.46A1,1,0,0,0,171.8,106.88Z"/><path class="cls-2" d="M68.84,112.84c-.07-.38.15-.75-.22-.9s-.45.3-.67.45l-.23.22-.22.23A.83.83,0,0,0,68.84,112.84Z"/><path class="cls-2" d="M168.51,133.58c.07-1,.45-1.66-.23-2.26-.44.3-.3.75-.37,1.21A1.12,1.12,0,0,0,168.51,133.58Z"/><path class="cls-2" d="M173.15,136.22c.45-.68.45-.68,0-1.35-.38.07-.9-.23-1,.45C172.47,135.62,172.85,135.92,173.15,136.22Z"/><path class="cls-2" d="M166.56,145.65c.45.53.9.45,1.42,0-.22-.23-.52-.45-.74-.68s-.3-.3-.45-.22a.47.47,0,0,0-.23.6Z"/><path class="cls-2" d="M162.37,146c.08,0,.23-.08.3,0,.23.22.45.45.68.68.14-.15.3-.23.37-.38a4.57,4.57,0,0,0,0-1H162.3A2,2,0,0,1,162.37,146Z"/><path class="cls-2" d="M163.12,147.76c.23.38.75.45.67,1.06.08,0,.23.07.3,0a.83.83,0,0,0,.3-1.13c-.07-.23-.52-.38-.82-.31A2.17,2.17,0,0,0,163.12,147.76Z"/><path class="cls-2" d="M160.35,152.66c-.45-.52-.89-.52-1.42,0,.22.23.53.46.75.68s.3.31.45.23a.47.47,0,0,0,.22-.6C160.28,152.89,160.35,152.74,160.35,152.66Z"/><path class="cls-2" d="M155.49,154.4a.5.5,0,0,0,.22.6,2.84,2.84,0,0,0,1.58.08c.07,0,.22-.23.22-.23-.08-.15-.22-.37-.38-.37A5.77,5.77,0,0,0,155.49,154.4Z"/><path class="cls-2" d="M157.51,158.93c.45.52.9.52,1.42,0-.22-.23-.52-.46-.75-.68s-.3-.3-.45-.23a.47.47,0,0,0-.22.6C157.58,158.7,157.51,158.77,157.51,158.93Z"/><path class="cls-2" d="M90.32,158.55a.5.5,0,0,0,.22.6c.23.23.6.38.45.83.53-.07.67-.22.67-.53.08-.52-.14-.83-.67-.83A2.19,2.19,0,0,0,90.32,158.55Z"/><path class="cls-2" d="M137.83,164.13c-.52.45-.52.9,0,1.43.22-.22.45-.53.67-.75s.3-.3.23-.45a.47.47,0,0,0-.6-.23C138.05,164.21,137.91,164.13,137.83,164.13Z"/><path class="cls-2" d="M109.7,165.56h1c.6-.52.52-.6.15-1.28C110,165,109.92,165,109.7,165.56Z"/><path class="cls-2" d="M108.35,166.24c.08.53.22.68.52.68.6.08.83-.15.83-.68v-.68c-.45-.07-.6.23-.83.45S108.57,166.32,108.35,166.24Z"/><path class="cls-2" d="M100.9,165.15c.6-.23.6-.23,1.27-1.13-.67-.38-.74-.38-1.27.15Z"/><path class="cls-2" d="M101.57,166.13c-.22-.38-.74-.45-.67-1.06-.07,0-.22-.07-.3,0a.84.84,0,0,0-.3,1.13c.08.23.53.38.83.31S101.43,166.28,101.57,166.13Z"/><path class="cls-2" d="M103.11,170.9l-.22.23c-.08.15,0,.3.3.45h1.34l.23-.23c.07-.15,0-.3-.3-.45Z"/><path class="cls-2" d="M103.11,178.6c-.22.15-.37.3-.22.45l.22.22h1.35c.22-.15.3-.3.22-.45s-.14-.15-.22-.22Z"/><path class="cls-2" d="M115.61,55.9c.52-.46.52-.91,0-1.44A.85.85,0,0,0,115.61,55.9Z"/><path class="cls-2" d="M91.66,55.9h.68a5.36,5.36,0,0,0,0-1.06c-.08-.3-.3-.38-.45-.23s-.23.15-.23.23Z"/><path class="cls-2" d="M93.76,58a4.49,4.49,0,0,0,1,0c.15,0,.38-.3.38-.38a.5.5,0,0,0-.53-.3,1.71,1.71,0,0,0-.6.15C93.76,57.48,93.69,57.71,93.76,58Z"/><path class="cls-2" d="M84.11,64.27a.5.5,0,0,0,.22.6c.23.15.45-.15.45-.6V64l-.22-.23c-.15-.07-.3,0-.45.23C84,64,84.11,64.19,84.11,64.27Z"/><path class="cls-2" d="M84.18,66.15c.15.38.9.38,1.12,0a.13.13,0,0,0,0-.22c-.14-.38-.89-.38-1.12,0Z"/><path class="cls-2" d="M147.11,69.17c.45,0,.75-.23.6-.45a.47.47,0,0,0-.6-.23h-.3c-.22.15-.38.3-.22.45s.15.23.22.23Z"/><path class="cls-2" d="M77.15,73.7c-.45-.53-.9-.53-1.42,0C76.25,74.22,76.7,74.22,77.15,73.7Z"/><path class="cls-2" d="M161,76.11a.49.49,0,0,0-.6.23c-.15.3.15.52.6.52h.29l.23-.22c.07-.15,0-.3-.23-.45A.4.4,0,0,0,161,76.11Z"/><path class="cls-2" d="M165.14,78.22a4,4,0,0,0,0-1c0-.15-.3-.38-.37-.38a.51.51,0,0,0-.3.53,1.71,1.71,0,0,0,.15.61A.38.38,0,0,0,165.14,78.22Z"/><path class="cls-2" d="M169.56,79.05c-.38.15-.38.91,0,1.13a.13.13,0,0,0,.22,0c.37-.15.37-.9,0-1.13Z"/><path class="cls-2" d="M162.37,81c0,.45.23.76.45.61a.49.49,0,0,0,.23-.61v-.3c-.15-.23-.3-.38-.45-.23s-.23.16-.23.23Z"/><path class="cls-2" d="M167.24,82.45c.44,0,.74-.23.6-.46a.47.47,0,0,0-.6-.22h-.3c-.23.15-.38.3-.23.45s.15.23.23.23Z"/><path class="cls-2" d="M166.56,88.71a4.59,4.59,0,0,0,1,0c.14,0,.37-.31.37-.38a.49.49,0,0,0-.52-.3,1.61,1.61,0,0,0-.6.15A.39.39,0,0,0,166.56,88.71Z"/><path class="cls-2" d="M173.75,94.21H174a.76.76,0,0,0,0-1.13h-.22c-.08.08-.23.15-.23.23V94C173.52,94.06,173.67,94.14,173.75,94.21Z"/><path class="cls-2" d="M59.79,96.78c-.45-.53-.9-.53-1.42,0A.91.91,0,0,0,59.79,96.78Z"/><path class="cls-2" d="M61.21,111.41c.45.53.9.53,1.42,0C62.11,110.88,61.66,110.88,61.21,111.41Z"/><path class="cls-2" d="M170.68,115.25a.5.5,0,0,0,.6-.22,1,1,0,0,0,0-.91.47.47,0,0,0-.6-.22Z"/><path class="cls-2" d="M65.63,117.22h.22a.76.76,0,0,0,0-1.14h-.22c-.08.08-.23.16-.23.23V117C65.4,117.07,65.55,117.14,65.63,117.22Z"/><path class="cls-2" d="M172.77,133.05c-.45-.52-.89-.52-1.42,0C171.88,133.58,172.32,133.58,172.77,133.05Z"/><path class="cls-2" d="M77.82,134.79a3.94,3.94,0,0,0-1,0c-.15,0-.37.3-.37.38a.5.5,0,0,0,.52.3,2,2,0,0,0,.6-.15C77.82,135.24,77.9,135.09,77.82,134.79Z"/><path class="cls-2" d="M168.66,138.33a4.1,4.1,0,0,0,0,1c0,.15.3.37.37.37a.5.5,0,0,0,.3-.53,1.71,1.71,0,0,0-.15-.6A.38.38,0,0,0,168.66,138.33Z"/><path class="cls-2" d="M80.59,144.6c.67-.16.82-.38.6-1.14,0-.07-.15-.15-.22-.22s-.15.07-.23.07-.15.15-.15.23Z"/><path class="cls-2" d="M79.92,144.6a4.68,4.68,0,0,0,0-1c0-.15-.3-.37-.38-.37a.5.5,0,0,0-.3.52,2,2,0,0,0,.15.61A.39.39,0,0,0,79.92,144.6Z"/><path class="cls-2" d="M163.79,145.27c.68-.15.83-.37.6-1.13,0-.07-.15-.15-.22-.22s-.15.07-.23.07-.15.15-.15.23Z"/><path class="cls-2" d="M74.75,148.06c.53-.45.53-.9,0-1.43C74.23,147.16,74.23,147.61,74.75,148.06Z"/><path class="cls-2" d="M165.89,149.5a4.49,4.49,0,0,0,1,0c.15,0,.38-.3.38-.38a.5.5,0,0,0-.53-.3,1.71,1.71,0,0,0-.6.15C165.81,149,165.81,149.27,165.89,149.5Z"/><path class="cls-2" d="M81,152.29c-.53.45-.53.9,0,1.43C81.49,153.19,81.49,152.74,81,152.29Z"/><path class="cls-2" d="M88.45,156.36h.22a.75.75,0,0,0,0-1.13h-.22c-.08.07-.23.15-.23.23v.67C88.22,156.21,88.37,156.29,88.45,156.36Z"/><path class="cls-2" d="M90.32,158.55c-.15-.68-.38-.83-1.12-.6-.08,0-.15.15-.23.22s.08.15.08.23.15.15.22.15A5.25,5.25,0,0,0,90.32,158.55Z"/><path class="cls-2" d="M85.83,159.3c-.52.46-.52.91,0,1.44A.94.94,0,0,0,85.83,159.3Z"/><path class="cls-2" d="M111.79,165.56a.52.52,0,0,0,.23.61c.22.15.45-.16.45-.61v-.3l-.23-.23c-.15-.07-.3,0-.45.23Z"/><path class="cls-2" d="M96.15,168.94a.51.51,0,0,0-.6.23c-.14.22.15.45.6.45h.3l.23-.23c.07-.15,0-.3-.23-.45C96.38,168.87,96.23,168.94,96.15,168.94Z"/><path class="cls-2" d="M98.88,165.83a3.94,3.94,0,0,0-1,0c-.15,0-.38.3-.38.37a.51.51,0,0,0,.53.31,1.73,1.73,0,0,0,.6-.16A.38.38,0,0,0,98.88,165.83Z"/><path class="cls-2" d="M105.73,171.73c-.37.15-.37.91,0,1.13a.14.14,0,0,0,.23,0c.37-.15.37-.9,0-1.13C105.88,171.66,105.81,171.73,105.73,171.73Z"/><path class="cls-2" d="M97.2,172.64c.45.52.9.52,1.42,0C98.1,172.11,97.65,172.11,97.2,172.64Z"/><path class="cls-2" d="M100.64,180.33c.45.53.9.53,1.43,0C101.54,179.8,101.09,179.8,100.64,180.33Z"/><path class="cls-2" d="M68,126c-.45-.52-.9-.52-1.43,0C67,126.49,67.42,126.49,68,126Z"/><path class="cls-2" d="M127.13,175.44c.52-.45.52-.9,0-1.43A.93.93,0,0,0,127.13,175.44Z"/><path class="cls-2" d="M116.88,177c.45,0,.75-.22.6-.45a.47.47,0,0,0-.6-.23h-.3c-.22.15-.37.3-.22.46s.15.22.22.22S116.73,177,116.88,177Z"/><path class="cls-2" d="M110.52,48.43c-.08.15,0,.3.23.45l.22-.22c.07-.16,0-.31-.22-.46Z"/><path class="cls-2" d="M97.5,52.28c.15.07.3,0,.45-.23l-.22-.23c-.15-.07-.3,0-.45.23Z"/><path class="cls-2" d="M94.51,53.11c-.08-.53-.15-.61-.68-.68C93.83,53,93.91,53,94.51,53.11Z"/><path class="cls-2" d="M94.51,53.41c0,.07.07.15.22.22a.27.27,0,0,0,.23.08c.22-.15.3-.3.15-.45s-.3-.31-.53-.15C94.43,53.11,94.43,53.33,94.51,53.41Z"/><path class="cls-2" d="M107.68,54.16c.15.23.3.3.45.23l.22-.23c-.15-.22-.3-.3-.45-.22S107.75,54.09,107.68,54.16Z"/><path class="cls-2" d="M84.33,55.07c.15.07.3,0,.45-.23l-.22-.23c-.15-.07-.3,0-.45.23Z"/><path class="cls-2" d="M96.6,55.59s.15.23.23.23a.69.69,0,0,0,.37-.3c.15-.3,0-.45-.3-.3A1.76,1.76,0,0,0,96.6,55.59Z"/><path class="cls-2" d="M102.44,56.58c.07,0,.15-.08.22-.23a.27.27,0,0,0,.08-.23c-.15-.22-.3-.3-.45-.15s-.3.3-.15.53C102.14,56.58,102.29,56.58,102.44,56.58Z"/><path class="cls-2" d="M88.22,56.58c.53-.08.6-.16.68-.68C88.37,56,88.3,56.05,88.22,56.58Z"/><path class="cls-2" d="M87.1,56s-.22.15-.22.23.15.38.3.38.44,0,.29-.31C87.47,56.12,87.25,56.05,87.1,56Z"/><path class="cls-2" d="M80.37,56.42l.22-.22c-.15-.23-.3-.3-.45-.23l-.22.23C80.07,56.5,80.22,56.5,80.37,56.42Z"/><path class="cls-2" d="M129.23,57l.22.22c.23-.15.3-.3.23-.45l-.23-.22C129.23,56.73,129.15,56.88,129.23,57Z"/><path class="cls-2" d="M113.74,57c.07-.15,0-.3-.23-.45l-.22.22c-.08.15,0,.3.22.45S113.66,57.1,113.74,57Z"/><path class="cls-2" d="M101.47,57s.15.22.22.22a.76.76,0,0,0,.38-.3c.14-.3,0-.45-.3-.3C101.69,56.65,101.54,56.88,101.47,57Z"/><path class="cls-2" d="M97.8,57c.08-.15,0-.3-.22-.45l-.23.22c-.07.15,0,.3.23.45C97.65,57.25,97.73,57.1,97.8,57Z"/><path class="cls-2" d="M87.55,56.58c.07.52.22.67.45.6a.47.47,0,0,0,.22-.6Z"/><path class="cls-2" d="M86.05,57c.08-.15,0-.3-.22-.45l-.23.22c-.07.15,0,.3.23.45Z"/><path class="cls-2" d="M98.85,57.86c.15.07.3,0,.45-.23l-.23-.23c-.15-.07-.3,0-.45.23Z"/><path class="cls-2" d="M123.09,58.54c.15.07.3,0,.45-.23l-.22-.23c-.15-.07-.3,0-.45.23C122.87,58.39,123,58.46,123.09,58.54Z"/><path class="cls-2" d="M116.73,58.46l.23.23c.22-.15.29-.3.22-.46L117,58A.34.34,0,0,0,116.73,58.46Z"/><path class="cls-2" d="M111.19,58.46l.23.23c.22-.15.3-.3.22-.46l-.22-.22A.34.34,0,0,0,111.19,58.46Z"/><path class="cls-2" d="M107.23,58.08s-.23.15-.23.23.15.38.3.38c.3.15.45,0,.3-.3A.71.71,0,0,0,107.23,58.08Z"/><path class="cls-2" d="M131.77,59.14c.08-.15,0-.3-.22-.45l-.23.22c-.07.15,0,.31.23.46C131.62,59.37,131.7,59.22,131.77,59.14Z"/><path class="cls-2" d="M124.36,59.82l.23.22c.22-.15.3-.3.22-.45l-.22-.22C124.36,59.52,124.29,59.67,124.36,59.82Z"/><path class="cls-2" d="M86.73,59.82c.07-.15,0-.3-.23-.45l-.22.22c-.08.15,0,.3.22.45Z"/><path class="cls-2" d="M85,59.52l-.23.22c.15.23.3.3.45.23l.22-.23C85.31,59.52,85.16,59.44,85,59.52Z"/><path class="cls-2" d="M88.45,60.2l-.23.22c.15.23.3.3.45.23l.23-.23C88.75,60.2,88.6,60.12,88.45,60.2Z"/><path class="cls-2" d="M135.51,61.25l.23.23c.22-.15.3-.3.22-.45l-.22-.23C135.51,61,135.44,61.1,135.51,61.25Z"/><path class="cls-2" d="M87.1,60.87l-.22.23c.15.23.3.3.45.23l.22-.23C87.4,60.87,87.25,60.8,87.1,60.87Z"/><path class="cls-2" d="M83.51,62.61l.22.23c.23-.16.3-.31.23-.46l-.23-.22C83.51,62.31,83.43,62.46,83.51,62.61Z"/><path class="cls-2" d="M155.34,63.06c-.08-.07-.22-.22-.22-.22-.23.15-.3.3-.23.45l.23.22A.31.31,0,0,0,155.34,63.06Z"/><path class="cls-2" d="M85.68,63.44c.15.07.3,0,.45-.23L85.9,63c-.15-.08-.3,0-.45.22Z"/><path class="cls-2" d="M158.71,64.34c-.15-.07-.3,0-.45.23l.22.23c.15.07.3,0,.45-.23Z"/><path class="cls-2" d="M88.22,65c-.07-.53-.22-.68-.45-.61a.48.48,0,0,0-.22.61Z"/><path class="cls-2" d="M136.26,65.55c.15.08.3,0,.45-.23l-.23-.22c-.15-.08-.3,0-.44.22C136,65.32,136.18,65.48,136.26,65.55Z"/><path class="cls-2" d="M173.75,67.13l-.23.23c.15.23.3.3.45.23l.23-.23C174,67.13,173.9,67.06,173.75,67.13Z"/><path class="cls-2" d="M83.66,67.13s-.23.16-.23.23.15.38.3.38c.3.15.45,0,.3-.3C84,67.29,83.81,67.21,83.66,67.13Z"/><path class="cls-2" d="M169.11,68.34l.22-.23c-.15-.22-.3-.3-.45-.22l-.22.22C168.81,68.34,169,68.42,169.11,68.34Z"/><path class="cls-2" d="M153.24,68l-.22-.22c-.23.15-.3.3-.23.45l.23.23A.34.34,0,0,0,153.24,68Z"/><path class="cls-2" d="M144.94,68l-.23-.22c-.22.15-.3.3-.22.45l.22.23A.35.35,0,0,0,144.94,68Z"/><path class="cls-2" d="M166,68.72c-.07.15,0,.3.23.45l.22-.23c.08-.15,0-.3-.22-.45C166.19,68.42,166,68.64,166,68.72Z"/><path class="cls-2" d="M78.87,70.53c-.22.15-.3.3-.22.45l.22.23c.22-.15.3-.3.22-.46Z"/><path class="cls-2" d="M162.07,71.28c-.22.15-.3.3-.22.46l.22.22c.23-.15.3-.3.23-.45S162.15,71.36,162.07,71.28Z"/><path class="cls-2" d="M157.29,71.36c-.16-.08-.3,0-.45.22l.22.23c.15.08.3,0,.45-.23Z"/><path class="cls-2" d="M170.6,72.41c.08-.15,0-.3-.22-.45l-.23.23c-.07.15,0,.3.23.45Z"/><path class="cls-2" d="M163.65,72.19l-.23-.23c-.22.15-.3.3-.22.45l.22.23C163.65,72.49,163.72,72.34,163.65,72.19Z"/><path class="cls-2" d="M153.39,72.26c.15.23.3.31.45.23l.23-.23c-.15-.22-.3-.3-.45-.22Z"/><path class="cls-2" d="M80.89,72s-.22.15-.22.22.15.38.3.38c.29.15.44,0,.29-.3A.69.69,0,0,0,80.89,72Z"/><path class="cls-2" d="M162.82,75.36l.23-.23c-.15-.23-.3-.3-.45-.23l-.23.23C162.52,75.36,162.67,75.43,162.82,75.36Z"/><path class="cls-2" d="M162.52,76.64l.23.22c.22-.15.3-.3.22-.45l-.22-.22A.31.31,0,0,0,162.52,76.64Z"/><path class="cls-2" d="M165.14,78.52c0,.08.08.15.23.23a.25.25,0,0,0,.22.08c.22-.16.3-.31.15-.46s-.3-.3-.52-.15A.44.44,0,0,0,165.14,78.52Z"/><path class="cls-2" d="M65.1,78.83l.23-.23c-.15-.23-.3-.3-.45-.23l-.23.23C64.8,78.83,65,78.9,65.1,78.83Z"/><path class="cls-2" d="M172.55,80.18l.22-.22c-.15-.23-.3-.31-.45-.23l-.22.23C172.25,80.18,172.4,80.26,172.55,80.18Z"/><path class="cls-2" d="M65.85,80.41c-.15-.08-.3,0-.45.23l.23.22c.15.08.3,0,.45-.22A.62.62,0,0,1,65.85,80.41Z"/><path class="cls-2" d="M182.05,81.62c.15.07.3,0,.45-.23l-.22-.23c-.15-.07-.3,0-.45.23Z"/><path class="cls-2" d="M165.74,81.46c.07-.15,0-.3-.23-.45l-.22.23c-.07.15,0,.3.22.45Z"/><path class="cls-2" d="M70.34,76.11c.15.23.3.3.45.23l.22-.23c-.15-.23-.3-.3-.45-.23Z"/><path class="cls-2" d="M62.71,82.22l.22.23c.23-.16.3-.31.23-.46l-.23-.22A.33.33,0,0,0,62.71,82.22Z"/><path class="cls-2" d="M72.44,82.9l.22.22c.22-.15.3-.3.22-.45l-.22-.22C72.44,82.6,72.36,82.75,72.44,82.9Z"/><path class="cls-2" d="M164.47,84.86c0,.07.07.15.22.23a.3.3,0,0,0,.23.07c.22-.15.3-.3.15-.45s-.3-.3-.53-.15C164.47,84.56,164.47,84.71,164.47,84.86Z"/><path class="cls-2" d="M169.18,89.16c.08-.15,0-.3-.22-.45l-.23.22c-.07.15,0,.3.23.45C169,89.38,169.11,89.23,169.18,89.16Z"/><path class="cls-2" d="M174,90l.23-.23c-.16-.22-.3-.3-.45-.22l-.23.22A.34.34,0,0,0,174,90Z"/><path class="cls-2" d="M173.22,90.89c-.15-.07-.3,0-.45.23l.23.23c.15.07.3,0,.45-.23C173.52,91.12,173.3,91,173.22,90.89Z"/><path class="cls-2" d="M66.3,91.65l-.22.22c.15.23.29.31.44.23l.23-.23C66.6,91.65,66.45,91.57,66.3,91.65Z"/><path class="cls-2" d="M67,93l-.22.23c.15.23.3.3.45.23l.22-.23C67.27,93,67.12,92.93,67,93Z"/><path class="cls-2" d="M167.39,93.83c-.08.16,0,.31.22.46l.23-.23c.07-.15,0-.3-.23-.45C167.54,93.61,167.46,93.76,167.39,93.83Z"/><path class="cls-2" d="M181.68,96.17c.07-.15,0-.3-.23-.45l-.22.23c-.08.15,0,.3.22.45Z"/><path class="cls-2" d="M64.8,98.06c-.07.15,0,.3.23.45l.22-.23c.08-.15,0-.3-.22-.45S64.88,98,64.8,98.06Z"/><path class="cls-2" d="M172.77,101.6c.15.23.3.3.45.23l.23-.23c-.15-.22-.3-.3-.45-.22Z"/><path class="cls-2" d="M171.5,103.19l.23.22c.22-.15.29-.3.22-.45l-.22-.23A.33.33,0,0,0,171.5,103.19Z"/><path class="cls-2" d="M173.6,105.22l.22.23c.22-.15.3-.3.22-.45l-.22-.23C173.6,104.92,173.52,105.07,173.6,105.22Z"/><path class="cls-2" d="M175.69,108l.23.23c.22-.15.29-.3.22-.45l-.22-.23C175.69,107.71,175.62,107.86,175.69,108Z"/><path class="cls-2" d="M64.8,107.79c-.07.15,0,.3.23.45l.22-.23c.08-.15,0-.3-.22-.45S64.88,107.71,64.8,107.79Z"/><path class="cls-2" d="M63.16,108c.07-.15,0-.3-.23-.45l-.22.23c-.08.15,0,.3.22.45S63.08,108.09,63.16,108Z"/><path class="cls-2" d="M173.37,109.45c.08-.15,0-.31-.22-.45l-.23.22c-.07.15,0,.3.23.45Z"/><path class="cls-2" d="M59.57,109.07c-.15-.07-.3,0-.45.23l.22.22c.15.08.3,0,.45-.22Z"/><path class="cls-2" d="M171.73,110.35c.07,0,.15-.07.22-.22a.31.31,0,0,0,.07-.23c-.14-.23-.29-.3-.44-.15s-.3.3-.15.53C171.43,110.43,171.65,110.43,171.73,110.35Z"/><path class="cls-2" d="M180,110.35c-.22.15-.3.3-.22.46l.22.22c.23-.15.3-.3.23-.45S180.18,110.43,180,110.35Z"/><path class="cls-2" d="M170.75,110.81s.15.22.23.22a.69.69,0,0,0,.37-.3c.15-.3,0-.45-.3-.3C171,110.43,170.9,110.65,170.75,110.81Z"/><path class="cls-2" d="M173.07,120.16c.08,0,.15-.08.23-.23a.28.28,0,0,0,.07-.22c-.15-.23-.3-.31-.45-.16s-.3.31-.15.53A.44.44,0,0,0,173.07,120.16Z"/><path class="cls-2" d="M172.77,120.84v-.68c-.52.07-.6.15-.67.68Z"/><path class="cls-2" d="M172.77,121.14c0,.07.08.15.23.22a.26.26,0,0,0,.22.08c.23-.15.3-.3.15-.45s-.3-.31-.52-.15A.42.42,0,0,0,172.77,121.14Z"/><path class="cls-2" d="M179.28,122.12c.15.07.3,0,.45-.23l-.22-.22c-.15-.08-.3,0-.45.22C179.06,122,179.21,122,179.28,122.12Z"/><path class="cls-2" d="M71.46,123.4c.08-.15,0-.3-.22-.45l-.23.22c-.07.15,0,.31.23.46C71.31,123.63,71.39,123.48,71.46,123.4Z"/><path class="cls-2" d="M72.29,124.31H73c-.08-.53-.23-.68-.45-.61A.51.51,0,0,0,72.29,124.31Z"/><path class="cls-2" d="M71.69,124.76s.15.22.22.22.38-.15.38-.3c.15-.3,0-.45-.3-.3A.76.76,0,0,0,71.69,124.76Z"/><path class="cls-2" d="M71.69,126.19l.22.23c.23-.15.3-.3.23-.46l-.23-.22C71.69,125.89,71.61,126,71.69,126.19Z"/><path class="cls-2" d="M173.6,126.87l.22.23c.22-.15.3-.31.22-.46l-.22-.22C173.6,126.57,173.52,126.72,173.6,126.87Z"/><path class="cls-2" d="M72.36,127.55s.15.23.23.23.37-.16.37-.31c.15-.3,0-.45-.3-.3A.81.81,0,0,0,72.36,127.55Z"/><path class="cls-2" d="M174.64,129.13l.23-.22c-.15-.23-.3-.31-.45-.23l-.22.23C174.34,129.13,174.49,129.21,174.64,129.13Z"/><path class="cls-2" d="M172.92,130.87c-.07.15,0,.3.23.45l.22-.23c.08-.15,0-.3-.22-.45C173.07,130.64,173,130.79,172.92,130.87Z"/><path class="cls-2" d="M170.6,132.23l-.22-.23c-.23.15-.3.3-.23.45l.23.23A.31.31,0,0,0,170.6,132.23Z"/><path class="cls-2" d="M173.75,134c.15.07.29,0,.45-.23l-.23-.23c-.15-.07-.3,0-.45.23C173.45,133.81,173.67,134,173.75,134Z"/><path class="cls-2" d="M75.8,133.81s.15.23.23.23a.76.76,0,0,0,.37-.31c.15-.3,0-.45-.3-.3A3.92,3.92,0,0,1,75.8,133.81Z"/><path class="cls-2" d="M68.92,135.09c-.08.15,0,.3.22.45l.23-.22c.07-.15,0-.3-.23-.45C69.14,134.79,69,134.94,68.92,135.09Z"/><path class="cls-2" d="M67.35,135.32c.07-.15,0-.3-.23-.45l-.22.22c-.08.15,0,.3.22.45Z"/><path class="cls-2" d="M74.23,137.35c.08-.15,0-.3-.22-.45l-.23.23c-.07.15,0,.3.23.45C74.08,137.66,74.16,137.43,74.23,137.35Z"/><path class="cls-2" d="M171.65,138.18c.15.08.3,0,.45-.22l-.22-.23c-.15-.07-.3,0-.45.23C171.43,138,171.58,138.11,171.65,138.18Z"/><path class="cls-2" d="M75.88,138.11l.22.22c.23-.15.3-.3.23-.45l-.23-.22A.33.33,0,0,0,75.88,138.11Z"/><path class="cls-2" d="M80.67,142.26s.15.22.22.22.37-.15.37-.3c.15-.3,0-.45-.29-.3C80.89,141.88,80.74,142.11,80.67,142.26Z"/><path class="cls-2" d="M75.5,142.41l.23-.23c-.15-.22-.3-.3-.45-.22l-.23.22C75.2,142.41,75.35,142.48,75.5,142.41Z"/><path class="cls-2" d="M78,143.46c-.07.15,0,.3.23.46l.22-.23c.08-.15,0-.3-.22-.45S78.05,143.39,78,143.46Z"/><path class="cls-2" d="M69.29,143.76l.23-.22c-.15-.23-.3-.3-.45-.23l-.23.23C69,143.76,69.14,143.84,69.29,143.76Z"/><path class="cls-2" d="M80.59,144.6h-.67c.07.52.22.67.45.6A.47.47,0,0,0,80.59,144.6Z"/><path class="cls-2" d="M78.27,145.2l.23-.23c-.15-.22-.3-.3-.45-.22l-.23.22C78,145.2,78.12,145.27,78.27,145.2Z"/><path class="cls-2" d="M165.89,147.08c.15.23.3.3.45.23l.22-.23c-.15-.22-.3-.3-.45-.22S166,147,165.89,147.08Z"/><path class="cls-2" d="M168.43,148.67l.23-.23c-.15-.23-.3-.3-.45-.23l-.23.23A.34.34,0,0,0,168.43,148.67Z"/><path class="cls-2" d="M165.22,150s.15.23.22.23.37-.16.37-.31c.15-.3,0-.45-.3-.3C165.44,149.57,165.29,149.8,165.22,150Z"/><path class="cls-2" d="M86.43,150.85c.07,0,.15-.07.22-.22a.27.27,0,0,0,.08-.23c-.15-.22-.3-.3-.45-.15s-.3.3-.15.53A.18.18,0,0,0,86.43,150.85Z"/><path class="cls-2" d="M162.6,151.46c.15.07.3,0,.45-.23l-.23-.22c-.15-.08-.3,0-.45.22C162.37,151.31,162.52,151.38,162.6,151.46Z"/><path class="cls-2" d="M85.53,151.31s.15.22.22.22a.76.76,0,0,0,.38-.3c.15-.3,0-.45-.3-.3A.76.76,0,0,0,85.53,151.31Z"/><path class="cls-2" d="M161.1,151.84c-.07.15,0,.3.22.45l.23-.23c.07-.15,0-.3-.23-.45Z"/><path class="cls-2" d="M86.35,155.68c.15.08.3,0,.45-.22l-.22-.23c-.15-.08-.3,0-.45.23Z"/><path class="cls-2" d="M155,155.83s-.22.15-.22.23.14.38.3.38c.29.15.44,0,.29-.31C155.41,156.06,155.19,155.91,155,155.83Z"/><path class="cls-2" d="M156.16,157.19c-.07-.53-.15-.6-.67-.68C155.56,157,155.64,157.12,156.16,157.19Z"/><path class="cls-2" d="M156.16,157.49c0,.08.08.15.23.23a.28.28,0,0,0,.22.07c.23-.15.3-.3.15-.45s-.3-.3-.52-.15C156.16,157.19,156.16,157.42,156.16,157.49Z"/><path class="cls-2" d="M153.39,157.49c0,.08.08.15.23.23a.28.28,0,0,0,.22.07c.23-.15.3-.3.15-.45s-.3-.3-.52-.15C153.32,157.19,153.39,157.42,153.39,157.49Z"/><path class="cls-2" d="M81.79,159.38c-.15-.08-.3,0-.45.22l.22.23c.15.08.3,0,.45-.23Z"/><path class="cls-2" d="M79.09,161.11c.08-.15,0-.3-.22-.45l-.22.23c-.08.15,0,.3.22.45C78.94,161.34,79,161.19,79.09,161.11Z"/><path class="cls-2" d="M154,162.54c.08-.14,0-.3-.22-.45l-.23.23c-.07.15,0,.3.23.45Z"/><path class="cls-2" d="M104.83,162.4c.15.22.3.3.45.22l.23-.22c-.15-.23-.3-.31-.45-.23S105,162.32,104.83,162.4Z"/><path class="cls-2" d="M87,162.54l.23.23c.22-.15.29-.3.22-.45l-.22-.23C87,162.24,86.88,162.4,87,162.54Z"/><path class="cls-2" d="M80.82,164.05c.15.08.29,0,.44-.22L81,163.6c-.15-.07-.3,0-.45.23Z"/><path class="cls-2" d="M141.12,164.28l-.22.23c.15.22.3.3.45.22l.22-.22C141.42,164.28,141.27,164.21,141.12,164.28Z"/><path class="cls-2" d="M87,164.43c-.07.15,0,.3.23.45l.22-.22c.07-.15,0-.3-.22-.45C87.18,164.13,87,164.36,87,164.43Z"/><path class="cls-2" d="M134.31,165.56c.08,0,.15-.07.23-.22a.31.31,0,0,0,.07-.23c-.15-.23-.3-.3-.45-.15s-.29.3-.15.53C134,165.56,134.16,165.56,134.31,165.56Z"/><path class="cls-2" d="M133.34,166s.15.23.23.23a.73.73,0,0,0,.37-.3c.15-.3,0-.45-.3-.3C133.57,165.64,133.42,165.86,133.34,166Z"/><path class="cls-2" d="M107.9,165.64s-.22.15-.22.22a.72.72,0,0,0,.3.38c.3.15.45,0,.3-.3C108.28,165.79,108.05,165.71,107.9,165.64Z"/><path class="cls-2" d="M88,165.71c-.15-.07-.3,0-.45.23l.22.23c.15.07.3,0,.45-.23C88.22,165.86,88.07,165.79,88,165.71Z"/><path class="cls-2" d="M89.72,166.47c-.08.15,0,.3.22.45l.23-.23c.07-.15,0-.3-.23-.45Z"/><path class="cls-2" d="M80.52,166.47l-.23-.23c-.22.15-.3.3-.22.45l.22.23A.34.34,0,0,0,80.52,166.47Z"/><path class="cls-2" d="M84.63,167.22l-.22-.23c-.23.16-.3.31-.23.46l.23.22C84.63,167.52,84.71,167.37,84.63,167.22Z"/><path class="cls-2" d="M118.38,168.35c.07,0,.15-.07.22-.22a.27.27,0,0,0,.08-.23c-.15-.23-.3-.3-.45-.15s-.3.3-.15.53C118.08,168.35,118.23,168.35,118.38,168.35Z"/><path class="cls-2" d="M77.75,168.13c.07-.15,0-.31-.23-.46l-.22.23c-.08.15,0,.3.22.45Z"/><path class="cls-2" d="M82.61,168.81c.08-.16,0-.31-.22-.46l-.23.23c-.07.15,0,.3.23.45A.5.5,0,0,1,82.61,168.81Z"/><path class="cls-2" d="M75.65,168.81c.08-.16,0-.31-.22-.46l-.23.23c-.07.15,0,.3.23.45Z"/><path class="cls-2" d="M109,169.49c.07-.16,0-.31-.23-.46l-.22.23c-.07.15,0,.3.22.45C108.72,169.79,108.8,169.63,109,169.49Z"/><path class="cls-2" d="M113.66,169.86c-.15-.07-.3,0-.45.23l.23.22c.15.08.3,0,.45-.22Z"/><path class="cls-2" d="M95.41,170.68c.14.22.29.3.44.22l.23-.22c-.15-.23-.3-.31-.45-.23S95.55,170.6,95.41,170.68Z"/><path class="cls-2" d="M87.1,172.43c.15.07.3,0,.45-.23l-.22-.23c-.15-.07-.3,0-.45.23Z"/><path class="cls-2" d="M80.89,171.9s-.22.15-.22.22a.72.72,0,0,0,.3.38c.29.15.44,0,.29-.3A1.3,1.3,0,0,0,80.89,171.9Z"/><path class="cls-2" d="M148.67,164.21c.07-.16,0-.31-.23-.46l-.22.23c-.08.15,0,.3.22.45Z"/><path class="cls-2" d="M118.83,173l.22.23c.23-.16.3-.31.23-.46l-.23-.22C118.83,172.73,118.75,172.88,118.83,173Z"/><path class="cls-2" d="M81.34,172.88c0,.07.07.15.22.22a.27.27,0,0,0,.23.08c.22-.15.3-.3.15-.45s-.3-.3-.53-.15C81.26,172.58,81.26,172.73,81.34,172.88Z"/><path class="cls-2" d="M99.33,164.32l.22-.23c-.15-.22-.29-.3-.44-.22l-.23.22C99,164.32,99.18,164.39,99.33,164.32Z"/><path class="cls-2" d="M84,175.59l-.23-.22c-.22.15-.3.3-.22.45l.22.23C84,175.9,84,175.74,84,175.59Z"/><path class="cls-2" d="M81.41,176.5l.23.23c.22-.16.3-.31.22-.46l-.22-.22C81.41,176.2,81.34,176.35,81.41,176.5Z"/><path class="cls-2" d="M101.72,167.71l.23.23c.22-.15.3-.3.22-.45l-.22-.23A.34.34,0,0,0,101.72,167.71Z"/><path class="cls-2" d="M99,168.16c-.08.16,0,.31.22.46l.22-.23c.08-.15,0-.3-.22-.45Z"/><path class="cls-2" d="M144.12,171.13c-.15-.08-.3,0-.45.22l.22.23c.15.08.3,0,.45-.23Z"/><path class="cls-2" d="M100.57,172c.07-.15,0-.3-.23-.45l-.22.23c-.08.15,0,.3.22.45Z"/><path class="cls-2" d="M114.11,183.59c.15.07.3,0,.45-.23l-.22-.22c-.15-.08-.3,0-.45.22C113.89,183.44,114,183.51,114.11,183.59Z"/><path class="cls-2" d="M105.66,183.51l.22.23c.23-.15.3-.3.23-.45l-.23-.23C105.66,183.21,105.58,183.36,105.66,183.51Z"/><path class="cls-2" d="M108.43,175.58l.22.22c.22-.15.3-.3.22-.45l-.22-.22C108.35,175.2,108.35,175.35,108.43,175.58Z"/><path class="cls-2" d="M131.7,174.84l.22-.23c-.15-.22-.3-.3-.45-.22l-.22.22A.31.31,0,0,0,131.7,174.84Z"/><path class="cls-2" d="M131.32,176.57c-.07.16,0,.31.23.46l.22-.23c.08-.15,0-.3-.22-.45Z"/><path class="cls-2" d="M129.6,177.63l.22-.23c-.14-.22-.3-.3-.44-.22l-.23.22C129.3,177.63,129.45,177.71,129.6,177.63Z"/><path class="cls-2" d="M164.17,158l.22-.23c-.15-.22-.3-.3-.45-.22l-.22.22A.31.31,0,0,0,164.17,158Z"/><path class="cls-2" d="M123.24,173.78c-.15-.07-.3,0-.45.23l.23.23c.15.07.3,0,.44-.23C123.54,174,123.32,173.86,123.24,173.78Z"/><path class="cls-2" d="M110.44,179.27c-.07.16,0,.31.23.46l.22-.23c.08-.15,0-.3-.22-.45C110.67,179,110.52,179.2,110.44,179.27Z"/><path class="cls-2" d="M114.93,177.48l.23.23c.22-.16.3-.31.22-.46l-.22-.22C114.86,177.1,114.86,177.25,114.93,177.48Z"/><path class="cls-2" d="M114.34,173.63l.22.23c.23-.15.3-.3.23-.45l-.23-.23C114.34,173.33,114.26,173.48,114.34,173.63Z"/><path class="cls-2" d="M151.75,166.09c.07-.15,0-.3-.23-.45l-.22.22c-.08.15,0,.31.22.46Z"/><path class="cls-2" d="M99.18,165.83c.08,0,.15-.08.22-.23a.27.27,0,0,0,.08-.23c-.15-.22-.3-.3-.45-.15s-.3.3-.15.53S99.11,165.83,99.18,165.83Z"/></g><g class="cls-1"><path class="cls-3" d="M56.4,99.81c.39.19.65.26.65.45.07.59.07,1.18.14,1.63-.14.59-1,.13-.51,1,0,0,.44-.19.63,0-.19.52.2.27,0,.85.26.26.37-.65.63-.39a2.19,2.19,0,0,1,.63.17c.32.13,1-1.41,1-1.08,0,.52,1.55-.7,1.55-.17,0,.19-.5.43-.5.62l.45.46c0,.32,1.94-1.76,1.94-1.24-.13.13-.33.39-.53.59.14.59,1,.07,1.18.85,0,1.63-1-.52-1,1.23-.19.2.83.4.63.59,0,.39-.84.07-.84.39.2.26.64.26.84.46-.78.85.72-.42,1.57.43.63.1.1-1.07.37-2.06.13-.13.69.69.89.5a2.31,2.31,0,0,0,.79-.83,2.16,2.16,0,0,0-.71-2.67c-.13-.19-.33-.39-.52-.65.13-.13.19-.33.32-.33a4.6,4.6,0,0,1,.91,0,.54.54,0,0,0,.53-.32V99.09c-.2-.52-1-.06-1.18-.65.07-.07.13-.2.2-.2.58-.06,1.17-.06,1.76-.13.26.2.46.39.72.59a1.91,1.91,0,0,1,.58.06,4.83,4.83,0,0,0,.66.59c.52-.19.06-1,.65-1.17l.19.19a1,1,0,0,0,.4.26.44.44,0,0,0,.26-.45.41.41,0,0,1,.19-.52c.13-.07.26,0,.46.19s.46.33,1,.26c.26-.39.58-.84.84-1.17h2.09c.26.13.33.33.2.46l-.72.71c-.2,0-.52.07-.78.07s.39-.13.19.19c.2.2,0,.26.2.46,0,.26-.18.39.21.65a8.74,8.74,0,0,1,.77-.65c.26.26,1-.72,1.24-.46,0,.39.51,1,.51,1.43,1.22-1.43,1.14-2,.94-1.69.3-.39.94-.58.94.59-.19.19.32,0,.63-.59,0,.39.63-1.21.63-.82.83.52-.94,1.79,0,1.47-.13-.19.51.4.31.13,0-.32,1,0,1-.34-.2-.26.63-.63.37-.89,0-.59.85.32.85-.26.19-.2-.2-.54,0-.73,0-1,.85,1.25.85.27.19-.26-.26-.78,0-1,0-1.44-.85-.39-.85-1.76.19-.39.52-.26.85-.33a5.46,5.46,0,0,0,.65.59c.06.06.19,0,.33,0v-.91a4.83,4.83,0,0,1-.59-.66,4.53,4.53,0,0,0,.52-.58,5.46,5.46,0,0,0-.59-.65c.07-.79.07-.85.85-.85.39.39.85.78,1.24,1.17.07.07.2,0,.26,0V91a9.73,9.73,0,0,0,.85-.85,2.74,2.74,0,0,0,.91-.39l-.39-.39c-.13-.13-.06-.26.13-.46a2.15,2.15,0,0,0,.33-.45c0-.33.06-.72.32-.72s.26.46.33.72.26.39.33.32a.44.44,0,0,0,.26-.45c.06-.59.13-.59.71-.65.07,0,.2-.07.27-.07l.84-.85c.07-.06,0-.19,0-.26a.43.43,0,0,1-.52-.19c-.13-.2.07-.33.65-.39h-.13a.41.41,0,0,1,.13-.46c.13-.13.26-.13.4.13,0,.07-.07.13-.07.2a.72.72,0,0,1-.33.19,1,1,0,0,0-.13.59,4,4,0,0,0,.85,0c.13,0,.33-.26.33-.39a11.53,11.53,0,0,0,0-1.44.43.43,0,0,1-.52-.19c-.13-.2.06-.33.52-.39v-.91c.26-.27.58-.53.91-.85H95.8a2.19,2.19,0,0,0,1-1c-.39-.46-1-.07-1.37-.27a6.16,6.16,0,0,1-.72.66h-.58c-.46-.53-1-1-1.44-1.5.13-.13.26-.33.39-.33,1-.06,2-.06,2.94-.06.06,0,.13-.13.19-.2a5.43,5.43,0,0,1-.58-.65c-.07-.07,0-.2,0-.26a.45.45,0,0,1-.53-.2c-.13-.19.07-.32.53-.39v-.58h-.85c-.07,0-.13-.07-.2-.13s-.13-.14-.06-.2.13-.2.19-.2c.65-.19.85-.06,1,.53a.41.41,0,0,0,.52-.2c.2-.33,0-.78.46-1h.52a4.77,4.77,0,0,0,.65.52c.39-.19.26-.52.26-.91-.26-.26-.58-.52-1-.91-.26-.13-.79.19-1.24-.13-.07-.07-.13-.13-.13-.2a.3.3,0,0,1,.19-.19,1.88,1.88,0,0,1,.65-.07c.27-.26.53-.52.85-.78A7.46,7.46,0,0,0,97.56,72a3.32,3.32,0,0,1,.85-1c.39-.13.65-.19,1-.32-.46-.46-.85-.91-1.24-1.31.39-.39.72-.71,1-1a.29.29,0,0,0-.19-.39c-.07-.06-.2,0-.33,0a.41.41,0,0,1-.52-.19c-.07-.2.2-.4.59-.4h.91a2,2,0,0,0,.59-.06l.84-.85c-.32-.58-.91-.19-1.36-.32-.14-.13-.33-.2-.46-.33-.52-.46-1-1-1.5-1.5-.2-.19-.26-.26-.2-.45a.43.43,0,0,1,.52-.2h.27a1.55,1.55,0,0,0,1.23.65c.14.13.27.26.46.46a2,2,0,0,0,1.37,0c.07-.07.26-.13.26-.2v-1.5h-.59a.41.41,0,0,1-.52-.19c-.06-.13.07-.26.26-.46l.2-.19c-.13-.66-.91-.13-1.11-.66a5.46,5.46,0,0,0,.59-.65V58.23A.43.43,0,0,1,100,58a.85.85,0,0,1,0-.79.41.41,0,0,1,.52-.19c0-.07.06-.2,0-.26a11.22,11.22,0,0,0-.92-.91c-.06-.07-.19,0-.26,0v.84c-.39.39-.39.39-.71.33s-.46-.13-.53-.52a.77.77,0,0,1,.33-.72h.85c0-.13-.07-.26,0-.33a6.47,6.47,0,0,0,.59-.65L99,54a6.33,6.33,0,0,1-.65.58.62.62,0,0,1-.14-1,2,2,0,0,0,.53-1c0-.26.32-.46.65-.39a.54.54,0,0,0,.52-.33V50.22a.28.28,0,0,0-.39-.26c-.07,0-.13.13-.2.19v1.17c-.45.39-.45.39-1.63.26-.26-.13-.26-.32,0-.39s.39,0,.59-.13.39-.26.39-.32a.43.43,0,0,0-.46-.26c-.71-.13-.71-.13-.71-.66V49l.26-.26c.45-.52.45-.72.06-1.24-.13-.2-.26-.26-.19-.46s.32-.19.52-.19c.39,0,.52-.13.59-.52a.62.62,0,0,0-.39-.72c-.2-.07-.4,0-.59-.07s-.13-.13-.26-.19V44.09a2.46,2.46,0,0,1,.58-.59c-.19-.52-1-.13-1.17-.65v-.58c.26-.53,1-.07,1.17-.66l-1.5-1.49h-.91a.33.33,0,0,1-.19.45c.06.33-.14.33-.27.33a.44.44,0,0,1-.45-.26c0-.07.19-.33.32-.33a4,4,0,0,1,.85,0c0-.13-.06-.26,0-.33a6.37,6.37,0,0,1,.59-.65V37.51c-.07-.07-.2-.26-.2-.2s-.32.2-.32.33a4,4,0,0,0,0,.91.45.45,0,0,1-.26.46c-.46-.07-1,.19-1.44-.2.2-.58.72-.85,1.11-1.3a6.37,6.37,0,0,1-.59-.65v-.92H94a.31.31,0,0,1-.19-.13c-.07-.06-.13-.13-.07-.19s.13-.2.2-.2c.65-.19.85-.06,1,.52.26.07.45,0,.52-.19.13-.46.2-1,.72-1.24v-.85a.54.54,0,0,0-.2-.52.7.7,0,0,0-.78-.06c-.39.32-.72.71-1.11,1-.13-.13-.33-.2-.33-.33a6.72,6.72,0,0,1,0-1.1c.2-.26.59-.39.53-.72s-.53-.2-.79-.2c-.19.2-.45.39-.65.59L92,31.51a1.09,1.09,0,0,1,.46-.32,4,4,0,0,1,.91,0c.13,0,.26-.2.46-.33L92.93,30a2,2,0,0,1-.59-.06,5.46,5.46,0,0,0-.65-.59,1.29,1.29,0,0,0-.59.2c-.19.06-.13-.13,0-.2s.4,0,.27.26a.66.66,0,0,1-.33.26s-.2-.13.06-.32.2-.39.27-.46l.58-.58c-.19-.2-.39-.46-.52-.59a6.42,6.42,0,0,1,.52-.65c-.45-.46-1-.13-1.5-.26a9.37,9.37,0,0,1-.78-.85c.13-.39.78-.59.52-1.24l-.59-.59a4.72,4.72,0,0,0,.59-.65c0-.26.13-.65-.26-.78s-.39.26-.65.46c-.59-.13-.13-.91-.65-1.18h-.72c-.33.4-.65.85-1,1.18a2.1,2.1,0,0,1-.72-.07,4.36,4.36,0,0,0-.65-.52l-.85.85c-.06.06,0,.19,0,.26a.34.34,0,0,1,.46.19c.06.13.06.33.13.53a.44.44,0,0,1-.26.45c-.07,0-.33-.19-.33-.32a4,4,0,0,1,0-.85.47.47,0,0,1-.58-.39,2.91,2.91,0,0,1,0-.78h-.85c-.07,0-.13-.07-.2-.13s-.13-.13-.06-.2.13-.2.19-.2c.65-.19.85-.06,1,.53.13,0,.26.06.33,0a11.15,11.15,0,0,0,.84-.85c-.13-.13-.19-.33-.32-.33a4.6,4.6,0,0,0-.91,0,.43.43,0,0,1-.46-.26c.19-.19.39-.45.59-.65-.4-.46-1.18-.2-1.44-.85-.2.2-.46.39-.65.59H81c-.19-.2-.45-.39-.65-.59H77.6c-.19,0-.45-.06-.45-.26s.19-.32.32-.32.59,0,.78-.33a10.51,10.51,0,0,0-.91-.78,2.57,2.57,0,0,1-.59.46c-.58-.2-.13-.92-.65-1.18H74.86c-.26-.32-.26-.32.26-.91l-.78-.78c-.72-.26-1.37,0-2-.13l-.58.58c-.72,0-1.5.07-2.29,0-.32,0-.45-.32-.39-.65a.43.43,0,0,0-.06-.26l-.46-.45a2.36,2.36,0,0,1-.13-.53c0-.39.13-.78-.33-1.1h-.58c-.46.39-.72.84-1.31,1.1-.32-.19-.19-.52-.26-.84-.26-.26-.59-.52-.91-.85H64c-.26-.2-.46-.39-.72-.59a5.46,5.46,0,0,1-.65.59h-.91v.85c0,.06-.07.13-.13.19s-.14.13-.2.07-.2-.13-.2-.2c-.19-.65-.06-.85.53-1V11.9a.41.41,0,0,0-.2-.52c-.13-.07-.26.06-.46.26l-.19.19a1.66,1.66,0,0,1-.85-.78,3.7,3.7,0,0,1-.39-1,5,5,0,0,1-.65.58,5,5,0,0,0-.66-.52l-1.1,1.11c-.33-.06-.4-.32-.4-.59a.59.59,0,0,0-.26-.52A1.91,1.91,0,0,1,56,10c-.4.39-.85.78-1.24,1.17-.33-.19-.26-.52-.33-.78A.59.59,0,0,0,54,10a13.76,13.76,0,0,0-1.7,0c-.78.78-.78.78-1.5.32-.06-.26.13-.65-.19-.78s-.39.39-.66.39a3.57,3.57,0,0,1-2-.06c-.26-.33-.13-.78-.13-1.17a.43.43,0,0,0-.26-.46c-.06,0-.26.26-.33.39s-.06.39-.13.59-.13.13-.19.19H46a.49.49,0,0,1-.4.59,5.37,5.37,0,0,0-1.1.19c-.2.07-.14-.13,0-.19s.39,0,.26.26a.71.71,0,0,1-.33.26s-.2-.13.07-.33a5.73,5.73,0,0,0,.26-2h-1c-.33.39-.65.85-.85,1.11a5.9,5.9,0,0,0-1,.26c-.2.07-.26.26-.2.59V10a.4.4,0,0,1,.46.13c.13.13.13.26-.13.39-.07,0-.13-.07-.2-.07a.67.67,0,0,1-.19-.32.74.74,0,0,1-.53-.33c-.19-.32,0-.78-.45-1H39.44c-.19.19-.45.39-.65.58H38.2c-.39.26-.26.72-.26,1.11s-.06.52-.32.65c-.07-.06-.2-.13-.2-.19a6.73,6.73,0,0,1-.07-1.18c0-.26-.32-.39-.65-.39a.61.61,0,0,0-.52.26c.2.2.33.39.52.59a1.57,1.57,0,0,1-.39.32,12.62,12.62,0,0,1-1.63,0l-.91-.91V8.77c-.46-.06-.59-.2-.59-.46a6.65,6.65,0,0,0-.13-1.17C33,7,32.79,6.88,32.53,7V9a.28.28,0,0,1-.39.26.29.29,0,0,1-.2-.19V8.51c-.13-.13-.33-.33-.46-.33-.45,0-1-.19-1.37.26a5.51,5.51,0,0,1,.59.66v.58c.2.46.72.26,1,.46a.41.41,0,0,1,.2.52h.84c.07,0,.13.07.2.13s.13.13.06.2-.13.19-.19.19c-.65.2-.85.07-1-.52-.13,0-.26-.07-.33,0a11.15,11.15,0,0,0-.84.85c0,.19-.07.39-.07.58a5.6,5.6,0,0,1,.59.66.66.66,0,0,1-1,.19c-.2-.06-.26-.33-.46-.39s-.65-.13-.78.06a.52.52,0,0,0-.13.53.63.63,0,0,0,.07.19,4.2,4.2,0,0,1,.52.72c.19.32-.13.72-.59.78a.42.42,0,0,1-.2.52c-.19.13-.32-.06-.39-.52h-.91a1.21,1.21,0,0,0-.33.46c-.06.39.07.78-.06,1-.33.33-.59.65-.85.91h-.91a.43.43,0,0,0,.19.52c.33.2.79-.06,1,.52v.46a2.2,2.2,0,0,1-.46.33c-.58.06-1.17.06-1.76.13-.06,0-.13.13-.19.19a6.33,6.33,0,0,1,.58.65c.07.07,0,.2,0,.26a.34.34,0,0,1,.46.2,3.93,3.93,0,0,1,.13.52.44.44,0,0,1-.26.46c-.06,0-.33-.2-.33-.33a4,4,0,0,1,0-.85h-.58a.44.44,0,0,0-.52.2c-.07.13,0,.26.19.39s.26.26.2.39a.41.41,0,0,1-.52.2h-.59c-.07.45-.2.58-.46.58a7.76,7.76,0,0,0-1.17.13c-.2.07-.26.27-.2.53h1c.13.13.33.39.52.58s.2,0,.39,0h-.13a.4.4,0,0,1,.13-.45c.13-.13.26-.13.39.13,0,.06-.06.13-.06.19a.72.72,0,0,1-.33.2,2.19,2.19,0,0,0-.13.91,2.88,2.88,0,0,1-1.17,1c-.33-.07-.72-.07-1-.13s-.27-.26-.2-.52h-.91c-.26.26-.53.58-.85.91a3.81,3.81,0,0,0,.06,1.89c.07.19.26.26.53.19v-.91a9.67,9.67,0,0,0,.84-.85c.46.2.39.53.26,1-.45.13-.52.85-1.1.78v.92c-.07.06-.14.19-.2.19s-.39.07-.59.13-.32.2-.45.33a12.92,12.92,0,0,0-1.05,1c-.06.33.26.39.39.65-.06.52.46,1.11-.26,1.5-.19-.2-.39-.33-.58-.52-.13.13-.27.19-.27.26v2.41c-.26.52-1,.13-1.17.65a2.52,2.52,0,0,1,.52.65c-.32.33-.58.59-.85.85h-.58c-.46.72-.46.72.26,1.5a2.52,2.52,0,0,0-.52.65.7.7,0,0,0,.71.33c.13,0,.33.19.46.32l-.85.85a2.93,2.93,0,0,0-.71.07c-.2.26-.46.58-.85,1,0-.07.13.06.32.13s.59-.13.79.26a2,2,0,0,1-.72.78,3.66,3.66,0,0,1-1.05.39c.4.52.92.78,1.18,1.31-.2.32-.52.19-.78.26a.29.29,0,0,0-.2.19c-.06.13,0,.33.26.39a6.64,6.64,0,0,0,1.18,0c.52.39.26.92.26,1.44,0,.13-.2.26-.33.32a1.35,1.35,0,0,0-.46-.39,1.66,1.66,0,0,0-.52-.13.38.38,0,0,0-.26.07c-.26.45-.85.39-1.24.65a1.64,1.64,0,0,0-.72.78c.2.33.53.26.79.26.19-.19.45-.39.65-.59.65.4,0,1.18.39,1.63s1.24-.19,1.63.46c-.39.39-.78.85-1.17,1.24v.58c-.2.53-1,0-1.18.66l.85.84c.07.07.2,0,.46,0h-.13a.39.39,0,0,1,.13-.45c.13-.13.26-.13.39.13,0,.06-.07.13-.07.19a.67.67,0,0,1-.32.2c-.2.19-.13.39.06.45s.66.2,1,.33c-.26.26-.39.46-.66.72a6,6,0,0,0,0,1,.6.6,0,0,0,.72.46h-.13a.41.41,0,0,1,.13-.46c.13-.13.26-.13.39.13,0,.07-.06.13-.06.2a.72.72,0,0,1-.33.19c-.13.13-.06.26-.13.33-.39.45-.85.84-1.17,1.23.06.79.06.79.52.92h.33a.71.71,0,0,1,.32,1c-.13.2-.26.27-.46.53a17,17,0,0,0,0,2.47c.2.33.33.33.46.07s.07-.39.13-.52a1.21,1.21,0,0,1,.33-.46l1.5,1.5a.49.49,0,0,1-.65.26c-.53.46-.85.72-1.11,1,.39.52,1.24.19,1.5.91a2.65,2.65,0,0,1,.65.06,8.17,8.17,0,0,0,.85.79c0,.39,0,.39-.52.39H15.7v2.41h.91c.07,0,.13.13.2.19v.2a14.64,14.64,0,0,1-1,1,1.21,1.21,0,0,0,.46.33.69.69,0,0,0,.52-.07,14.76,14.76,0,0,0,1.05-1,1.57,1.57,0,0,1,.32.39.93.93,0,0,1-.06.59c-.07.19-.33.26-.39.45a.69.69,0,0,0,0,.79l.45.45a7.77,7.77,0,0,0-.52.65v.53c.2.45.65.26,1,.45a.41.41,0,0,1,.19.52h.59c.46,0,.65.2.65.65v.59h.92c.06,0,.13.13.19.2V76a12.75,12.75,0,0,1-1,1c.13.33.39.33.72.33s.32.2.45.26a6.33,6.33,0,0,0-.58.65,7.19,7.19,0,0,1,1.17,1.31,2,2,0,0,1-.13.58c-.07.2-.26.26-.52.2a3.37,3.37,0,0,0,0,.84c.06.2.26.33.39.27a2.48,2.48,0,0,1,.39-.4c.46-.32.91-.06,1,.53a.41.41,0,0,1,.52.19.38.38,0,0,1,.07.26v1a23.29,23.29,0,0,0,1.82,2v.85h1.5l.85.85c-.13.65-1,.06-1.11.72.26.19.52.45.92.78h1.56c.52.26.72.65,1.11.91-.52.52-1,.2-1.57.33-.06.19-.19.45-.26.65a3,3,0,0,0,1,1.11c.32,0,.65.06.78-.27s0-.39.07-.58.26-.33.39-.26l.19.19a4.69,4.69,0,0,0,.59.59v1.24l-1.11,1.11c-.06.58-.39,1.17.26,1.62h.52a8,8,0,0,1,.66.59.47.47,0,0,0,.26-.52c.06-.59.26-.72.71-.65.2,0,.33.19.46.26v.59c-.2.19-.39.45-.59.65V97l.85.84c.2-.19.46-.39.65-.58h.59c.26.13.33.32.13.45l-1,1c.19.2.39.46.58.66,0,.32.07.65-.26.84-.39-.39-.84-.78-1.24-1.17-.06.07-.19.13-.19.2-.07.78-.07,1.56-.07,2.34,0,.2.2.33.66.39h.19c.59.52,1.24-.58,1.57,1.44,0,.32.93-.13.93-.53-.19-.19-.07-1-.31-1.25-.2-.59.62-.24.55-.83s.52-.91.39-1.36c-.19-.2,1.12-.4,1-.53s1.22,0,1.22-.1c0-2.74,1.26,1.17,1.26-1.63.13-.2,1.57,1.73,1.83,1.47V96.94a11.15,11.15,0,0,1,.84-.85c.53.07.66.65,1,.78v1.31a3.4,3.4,0,0,1,.78.26,6,6,0,0,1,.72-.65h1.24c.26.26.52.58.85.91a5.52,5.52,0,0,1-.53.59c.59.52.66.52,1.37-.2.46.07.66.78,1.24.52.39.39.85.78,1.24,1.24h.65c.07-.26.2-.52.27-.78a7.19,7.19,0,0,0-.66-.72l.59-.59c.2-.19.26-.26.46-.19s.19.32.19.52c-.06.46.07.52.52.52.2,0,.4,0,.53.2a.24.24,0,0,1,.06.19c-.26.26-.65.52-.52,1a7.25,7.25,0,0,0,1.56,1.57c.2-.07.4-.07.59-.13s.26-.26.2-.52a.34.34,0,0,1-.46-.2c-.06-.13-.06-.32-.13-.52a.43.43,0,0,1,.26-.45c.07,0,.33.19.33.32a4,4,0,0,1,0,.85.33.33,0,0,1,.45.19c.13.33.2.66.33,1,.78-.39.13-1.11.46-1.57l.58-.59a3.24,3.24,0,0,1-.52-1.23c-.06-.2.13-.13.2,0s0,.39-.26.26a.66.66,0,0,1-.26-.33C56.08,99.68,56.21,99.55,56.4,99.81Zm31.31-75.2H86c-.06,0-.13-.13-.19-.2s0-.26.19-.39h1.76c.07,0,.13.13.2.19S87.91,24.48,87.71,24.61ZM91,84.1a.77.77,0,0,1,1.24,0c-.07.33.19.78-.39.85A9.73,9.73,0,0,0,91,84.1Zm5.15-42.55c.46.39.46.78,0,1.24C95.74,42.33,95.74,41.94,96.19,41.55Zm.52,4.69c-.06-.06-.19-.13-.19-.19v-.59c0-.07.13-.13.19-.2a.13.13,0,0,1,.2,0c.33.13.33.79,0,1C96.85,46.31,96.78,46.24,96.71,46.24ZM14.92,60.58c-.4.45-.79.45-1.24,0C14.13,60.12,14.52,60.12,14.92,60.58ZM83.8,92.83v-.26l.19-.19c.14-.07.27,0,.4.19s0,.2,0,.26a.45.45,0,0,1-.2.53C84,93.42,83.8,93.23,83.8,92.83ZM59.4,12.48c-.13.07-.26,0-.39-.19l.2-.2c.13-.06.26,0,.39.2C59.66,12.29,59.53,12.42,59.4,12.48ZM31.16,14c.06.13,0,.26-.2.39l-.19-.19c-.07-.13,0-.26.19-.39Zm35.74.72.2-.2c.13-.06.26,0,.39.2l-.19.2C67.17,15,67,14.9,66.9,14.7Zm14.88,7.43c-.13.06-.26,0-.39-.2l.19-.19c.13-.07.26,0,.39.19ZM97.43,52.37l.2.19c.06.13,0,.26-.2.39l-.19-.19C97.11,52.69,97.17,52.56,97.43,52.37Zm-83.3.52c-.13.06-.26,0-.39-.2l.2-.19c.13-.07.26,0,.39.19S14.2,52.82,14.13,52.89ZM99.72,63.18l-.2-.19c.13-.2.26-.26.39-.2l.2.2C100,63.18,99.85,63.25,99.72,63.18ZM97.3,70.42l-.19-.2c.13-.19.26-.26.39-.19l.19.19C97.56,70.42,97.43,70.48,97.3,70.42ZM95.67,76l.2.2c-.13.19-.26.26-.39.19l-.2-.19C95.41,76,95.54,76,95.67,76ZM25.09,81.56c.07.13,0,.26-.19.39l-.2-.19c-.06-.13,0-.26.2-.39Zm67.38.52c.14-.06.27,0,.4.2l-.2.19c-.13.07-.26,0-.39-.19Z"/><path class="cls-3" d="M53.92,104.5c.26-.26.33-.39.26-.46l-.84-.84c-.13.06-.33.19-.33.26a17.22,17.22,0,0,0,0,1.76c.52.52,1,.26,1.63.19.39-.32.13-.72.2-1.11a1.89,1.89,0,0,0-.92.2c-.19.06-.13-.13,0-.2s.39,0,.26.26a.59.59,0,0,1-.32.26C53.79,104.82,53.66,104.69,53.92,104.5Z"/><path class="cls-3" d="M31.22,97.07h-.91c-.2-.2-.46-.39-.65-.59a.91.91,0,0,0-.33.53c-.13.71-.13.71-.65.71h-.85l-.26.26c0,.07.07.2.13.2a4.17,4.17,0,0,0,2,.06c.26-.45.79-.52,1.24-.65A.38.38,0,0,0,31.22,97.07Z"/><path class="cls-3" d="M25.81,7.4c-.26-.52-1-.06-1.17-.65V6.16c0-.06-.14-.19-.2-.19s-.33,0-.39.26a7.32,7.32,0,0,0,0,1.24c-.2.13-.39.32-.65.52.39.52.91.26,1.37.32C25.22,8.18,25.42,7.73,25.81,7.4Z"/><path class="cls-3" d="M31.81,7.14h-.26c-.78,0-.78,0-.91-.72a.6.6,0,0,0-.79-.52,1.9,1.9,0,0,0-.39.33v.85c.46-.07.59.45,1.11.58a3.35,3.35,0,0,0,.85,0C31.68,7.66,31.94,7.47,31.81,7.14Z"/><path class="cls-3" d="M33.64,103.33a.34.34,0,0,0-.33-.2,1.22,1.22,0,0,1-1-.45.2.2,0,0,0-.13-.07c-.33.26-.59.52-.92.78l.92.91a2.29,2.29,0,0,1,.65.07A5.12,5.12,0,0,1,33.64,103.33Z"/><path class="cls-3" d="M98.93,78.37c.07-.33-.13-.52-.45-.59a6.12,6.12,0,0,0-1,0,4.54,4.54,0,0,1-.65.59h-.85V79h1.5c.2-.19.46-.39.65-.58Z"/><path class="cls-3" d="M18.57,79.87l.85.84H20c.2-.19.4-.52.66-.58s.39-.07.26-.33c-.07-.06-.13-.19-.2-.19a4.18,4.18,0,0,0-2,0A.58.58,0,0,1,18.57,79.87Z"/><path class="cls-3" d="M23.4,11a3.57,3.57,0,0,1-.59-.53c-.2-.19-.26-.26-.39-.19a.41.41,0,0,0-.2.52v.33a4.58,4.58,0,0,0,.59.52v.65c0,.06.13.13.19.19a.3.3,0,0,0,.4-.19Z"/><path class="cls-3" d="M25.22,85.6h-.91c-.2-.19-.46-.39-.65-.59-.33,0-.66-.06-.85.33l.78.78a1.8,1.8,0,0,0,1.44,0A.4.4,0,0,0,25.22,85.6Z"/><path class="cls-3" d="M94.69,87.43h-1.5c-.45.65-.45.65,0,1.17.2-.2.39-.33.59-.52.13.13.19.13.26.26s.26.32.46.26a.41.41,0,0,0,.19-.52A2.34,2.34,0,0,1,94.69,87.43Z"/><path class="cls-3" d="M97.11,35.49h-.85a.63.63,0,0,0-.33.72c.07.39.13.52.52.52s.26,0,.72-.33A5,5,0,0,1,97.11,35.49Z"/><path class="cls-3" d="M8.85,36.4c-.59-.46-.59-.46-1.24,0V37c.59.45.59.45,1.24,0Z"/><path class="cls-3" d="M102.06,42.4c-.32-.13-.58-.26-.78-.33-.59.2-.78.65-1.24,1,.33.13.59.26.78.32C101.35,43.18,101.54,42.72,102.06,42.4Z"/><path class="cls-3" d="M99.26,49.37l.85-.85c-.2-.19-.53-.39-.53-.65s-.06-.39-.32-.26c-.07.06-.2.13-.2.19a2.7,2.7,0,0,0,0,1.44A.84.84,0,0,1,99.26,49.37Z"/><path class="cls-3" d="M1.94,49.37H.76c-.13,0-.19.26-.26.32.26.27.59.59.85.85a9.37,9.37,0,0,0,.78-.85C2.2,49.63,2.13,49.5,1.94,49.37Z"/><path class="cls-3" d="M100.56,68.72c-.45.2-.65.65-1,.85.26.46.59.33.85.33a5.46,5.46,0,0,1,.65-.59c.39-.33.39-.39.06-.52A1.15,1.15,0,0,0,100.56,68.72Z"/><path class="cls-3" d="M101.35,69.31v.85a.6.6,0,0,0,.71.32c.4-.06.52-.13.52-.52s0-.26-.32-.72A4.31,4.31,0,0,1,101.35,69.31Z"/><path class="cls-3" d="M29.07,91.66h-.59a6.47,6.47,0,0,0-.65-.59c-.39.66-.39.66.07,1.18h1.17c.07,0,.13-.13.2-.2S29.33,91.73,29.07,91.66Z"/><path class="cls-3" d="M45.12,99.22V101c0,.06.13.13.19.2s.26,0,.39-.26V99.16c0-.07-.13-.13-.19-.2S45.25,99,45.12,99.22Z"/><path class="cls-3" d="M70.3,106.65a.69.69,0,0,0,.19-1,4.5,4.5,0,0,0-.78-.85.7.7,0,0,0-.2,1A4.92,4.92,0,0,0,70.3,106.65Z"/><path class="cls-3" d="M77.73,5.58c.39.45.79.45,1.24,0-.19-.2-.45-.39-.65-.59s-.26-.26-.39-.19a.41.41,0,0,0-.2.52C77.8,5.38,77.73,5.51,77.73,5.58Z"/><path class="cls-3" d="M36.7,6.49a4,4,0,0,0,.85,0c.13,0,.2-.2.33-.33l-.79-.78c-.13.13-.32.2-.32.33A1.6,1.6,0,0,0,36.7,6.49Z"/><path class="cls-3" d="M34.88,6.23c-.4-.46-.79-.46-1.24,0,.19.19.45.39.65.59s.26.26.39.19a.41.41,0,0,0,.2-.52Z"/><path class="cls-3" d="M44.53,8.31a3.45,3.45,0,0,0,.85,0c.13,0,.19-.19.32-.32l-.78-.78c-.13.13-.32.19-.32.32A1.6,1.6,0,0,0,44.53,8.31Z"/><path class="cls-3" d="M57.51,9.55l.85-.84c-.07-.59-.52-.33-.85-.4A.76.76,0,0,0,57.51,9.55Z"/><path class="cls-3" d="M83.8,18.28c-.59-.39-.59-.39-1.18,0,.07.33-.19.79.4.85C83.28,18.81,83.54,18.55,83.8,18.28Z"/><path class="cls-3" d="M21,22.85a.44.44,0,0,0-.58.39,9,9,0,0,0,0,1.37.45.45,0,0,0,.58-.4Z"/><path class="cls-3" d="M95.28,31.9V30.47c0-.13-.2-.19-.33-.33s-.19.14-.19.2a2.46,2.46,0,0,0,.06,1.37C94.89,31.9,95.08,31.9,95.28,31.9Z"/><path class="cls-3" d="M7.35,45.13c-.46.39-.39.78,0,1.24.19-.19.39-.46.59-.65s.26-.26.19-.39a.41.41,0,0,0-.52-.2C7.54,45.2,7.48,45.13,7.35,45.13Z"/><path class="cls-3" d="M99.52,47.54a3.45,3.45,0,0,0,.85,0c.13,0,.19-.19.32-.32l-.78-.78c-.13.13-.33.19-.33.32A1.6,1.6,0,0,0,99.52,47.54Z"/><path class="cls-3" d="M101.67,51.19l-.85.85c.07.59.53.33.85.39A.85.85,0,0,0,101.67,51.19Z"/><path class="cls-3" d="M11.92,56.34c-.07-.32.13-.65-.2-.78s-.39.26-.59.39l-.19.2-.2.19A.74.74,0,0,0,11.92,56.34Z"/><path class="cls-3" d="M98.8,74.26c.07-.84.39-1.43-.19-2-.4.26-.26.65-.33,1A1,1,0,0,0,98.8,74.26Z"/><path class="cls-3" d="M102.85,76.54c.39-.58.39-.58,0-1.17-.33.07-.79-.2-.85.39C102.26,76,102.58,76.28,102.85,76.54Z"/><path class="cls-3" d="M97.11,84.69c.39.45.78.39,1.24,0-.2-.2-.46-.39-.66-.59s-.26-.26-.39-.19a.41.41,0,0,0-.19.52Z"/><path class="cls-3" d="M93.45,85c.07,0,.2-.06.26,0l.59.59c.13-.13.26-.19.33-.32a4,4,0,0,0,0-.85H93.39A1.73,1.73,0,0,1,93.45,85Z"/><path class="cls-3" d="M94.11,86.51c.19.33.65.39.58.92.07,0,.2.06.26,0a.72.72,0,0,0,.26-1c-.06-.2-.45-.33-.71-.26A1.57,1.57,0,0,0,94.11,86.51Z"/><path class="cls-3" d="M91.69,90.75c-.39-.46-.78-.46-1.24,0,.2.19.46.39.65.59s.27.26.4.19a.41.41,0,0,0,.19-.52C91.63,90.94,91.69,90.81,91.69,90.75Z"/><path class="cls-3" d="M87.45,92.25a.44.44,0,0,0,.2.52,2.46,2.46,0,0,0,1.37.06c.06,0,.19-.19.19-.19s-.19-.33-.32-.33A5.45,5.45,0,0,0,87.45,92.25Z"/><path class="cls-3" d="M89.21,96.16c.39.45.79.45,1.24,0-.19-.2-.45-.39-.65-.59s-.26-.26-.39-.19a.41.41,0,0,0-.2.52C89.28,96,89.21,96,89.21,96.16Z"/><path class="cls-3" d="M30.64,95.83a.43.43,0,0,0,.19.52c.2.2.52.33.39.72.46-.06.59-.2.59-.46.07-.45-.13-.71-.59-.71A1.65,1.65,0,0,0,30.64,95.83Z"/><path class="cls-3" d="M72.06,100.65c-.46.39-.46.79,0,1.24.19-.19.39-.45.58-.65s.27-.26.2-.39a.41.41,0,0,0-.52-.2C72.25,100.72,72.12,100.65,72.06,100.65Z"/><path class="cls-3" d="M47.53,101.89h.85c.52-.45.46-.52.13-1.1C47.79,101.37,47.73,101.37,47.53,101.89Z"/><path class="cls-3" d="M46.36,102.48c.06.45.19.59.45.59.53.06.72-.14.72-.59v-.59c-.39-.06-.52.2-.72.39S46.55,102.54,46.36,102.48Z"/><path class="cls-3" d="M39.86,101.53c.52-.19.52-.19,1.11-1-.59-.33-.65-.33-1.11.13Z"/><path class="cls-3" d="M40.45,102.38c-.2-.32-.65-.39-.59-.91-.06,0-.19-.07-.26,0a.73.73,0,0,0-.26,1c.07.19.46.32.72.26S40.32,102.51,40.45,102.38Z"/><path class="cls-3" d="M41.79,106.51l-.19.19c-.07.13,0,.26.26.39H43l.2-.19c.06-.13,0-.26-.27-.39Z"/><path class="cls-3" d="M41.79,113.15c-.19.13-.33.26-.19.39l.19.2H43c.2-.13.27-.26.2-.39s-.13-.13-.2-.2Z"/><path class="cls-3" d="M52.68,7.14c.46-.39.46-.78,0-1.24A.74.74,0,0,0,52.68,7.14Z"/><path class="cls-3" d="M31.81,7.14h.59a4.61,4.61,0,0,0,0-.91C32.33,6,32.14,5.9,32,6s-.2.13-.2.2Z"/><path class="cls-3" d="M33.64,9a3.93,3.93,0,0,0,.84,0c.14,0,.33-.26.33-.33a.43.43,0,0,0-.46-.26,1.47,1.47,0,0,0-.52.13C33.64,8.51,33.57,8.71,33.64,9Z"/><path class="cls-3" d="M25.22,14.37a.45.45,0,0,0,.2.53c.19.13.39-.13.39-.53v-.26l-.2-.19c-.13-.07-.26,0-.39.19S25.22,14.31,25.22,14.37Z"/><path class="cls-3" d="M25.29,16c.13.33.78.33,1,0a.12.12,0,0,0,0-.19c-.13-.33-.79-.33-1,0Z"/><path class="cls-3" d="M80.15,18.61c.39,0,.65-.2.52-.39a.41.41,0,0,0-.52-.2h-.26c-.2.13-.33.26-.2.39s.13.2.2.2Z"/><path class="cls-3" d="M19.16,22.52c-.4-.46-.79-.46-1.24,0C18.37,23,18.76,23,19.16,22.52Z"/><path class="cls-3" d="M92.28,24.61a.43.43,0,0,0-.52.19c-.13.26.13.46.52.46h.26l.2-.2c.06-.13,0-.26-.2-.39A.43.43,0,0,0,92.28,24.61Z"/><path class="cls-3" d="M95.87,26.43a4,4,0,0,0,0-.85c0-.13-.26-.32-.33-.32a.42.42,0,0,0-.26.45,1.37,1.37,0,0,0,.13.52A.34.34,0,0,0,95.87,26.43Z"/><path class="cls-3" d="M99.72,27.15c-.33.13-.33.78,0,1a.11.11,0,0,0,.19,0c.33-.13.33-.78,0-1Z"/><path class="cls-3" d="M93.45,28.84c0,.39.2.65.39.52a.4.4,0,0,0,.2-.52v-.26c-.13-.19-.26-.33-.39-.19s-.2.13-.2.19Z"/><path class="cls-3" d="M97.69,30.08c.39,0,.66-.2.52-.39a.41.41,0,0,0-.52-.2h-.26c-.19.13-.32.26-.19.39s.13.2.19.2Z"/><path class="cls-3" d="M97.11,35.49a3.93,3.93,0,0,0,.84,0c.13,0,.33-.26.33-.33a.45.45,0,0,0-.46-.26,1.73,1.73,0,0,0-.52.13A.34.34,0,0,0,97.11,35.49Z"/><path class="cls-3" d="M103.37,40.25h.19a.65.65,0,0,0,0-1h-.19c-.07.06-.2.13-.2.19v.59C103.17,40.12,103.3,40.18,103.37,40.25Z"/><path class="cls-3" d="M4,42.46c-.39-.45-.78-.45-1.24,0A.8.8,0,0,0,4,42.46Z"/><path class="cls-3" d="M5.26,55.1c.39.46.78.46,1.24,0C6,54.65,5.65,54.65,5.26,55.1Z"/><path class="cls-3" d="M100.69,58.43a.44.44,0,0,0,.52-.2.78.78,0,0,0,0-.78.41.41,0,0,0-.52-.2Z"/><path class="cls-3" d="M9.11,60.12h.2a.66.66,0,0,0,0-1h-.2c-.06.07-.2.13-.2.2v.59C8.91,60,9.05,60.06,9.11,60.12Z"/><path class="cls-3" d="M102.52,73.81c-.39-.46-.78-.46-1.24,0C101.74,74.26,102.13,74.26,102.52,73.81Z"/><path class="cls-3" d="M19.74,75.3a4,4,0,0,0-.85,0c-.13,0-.32.27-.32.33a.43.43,0,0,0,.46.26,1.47,1.47,0,0,0,.52-.13C19.74,75.7,19.81,75.57,19.74,75.3Z"/><path class="cls-3" d="M98.93,78.37a3.93,3.93,0,0,0,0,.84c0,.14.26.33.33.33a.44.44,0,0,0,.26-.46,1.73,1.73,0,0,0-.13-.52A.34.34,0,0,0,98.93,78.37Z"/><path class="cls-3" d="M22.16,83.78c.58-.13.71-.33.52-1,0-.07-.13-.13-.2-.2s-.13.07-.19.07a.31.31,0,0,0-.13.19Z"/><path class="cls-3" d="M21.57,83.78a4,4,0,0,0,0-.85c0-.13-.26-.33-.33-.33a.45.45,0,0,0-.26.46,1.59,1.59,0,0,0,.13.52A.34.34,0,0,0,21.57,83.78Z"/><path class="cls-3" d="M94.69,84.36c.59-.13.72-.32.52-1,0-.07-.13-.13-.19-.2s-.13.07-.2.07-.13.13-.13.19Z"/><path class="cls-3" d="M17.07,86.77c.46-.39.46-.78,0-1.23C16.61,86,16.61,86.38,17.07,86.77Z"/><path class="cls-3" d="M96.52,88a3.45,3.45,0,0,0,.85,0c.13,0,.32-.26.32-.32a.42.42,0,0,0-.45-.26,1.47,1.47,0,0,0-.53.13C96.45,87.62,96.45,87.82,96.52,88Z"/><path class="cls-3" d="M22.48,90.42c-.45.39-.45.79,0,1.24C22.94,91.21,22.94,90.81,22.48,90.42Z"/><path class="cls-3" d="M29,93.94h.19a.65.65,0,0,0,0-1H29c-.07.07-.2.14-.2.2v.59C28.81,93.81,28.94,93.88,29,93.94Z"/><path class="cls-3" d="M30.64,95.83c-.13-.58-.33-.71-1-.52-.07,0-.13.13-.2.2s.07.13.07.19a.31.31,0,0,0,.19.13A4,4,0,0,0,30.64,95.83Z"/><path class="cls-3" d="M26.72,96.48c-.45.39-.45.79,0,1.24A.8.8,0,0,0,26.72,96.48Z"/><path class="cls-3" d="M49.36,101.89a.43.43,0,0,0,.19.52c.2.13.39-.13.39-.52v-.26l-.19-.19c-.13-.07-.26,0-.39.19Z"/><path class="cls-3" d="M35.72,104.81a.44.44,0,0,0-.52.2c-.13.19.13.39.52.39H36l.2-.2c.07-.13,0-.26-.2-.39S35.79,104.81,35.72,104.81Z"/><path class="cls-3" d="M38.1,102.12a4,4,0,0,0-.85,0c-.13,0-.32.26-.32.33a.44.44,0,0,0,.45.26,1.71,1.71,0,0,0,.53-.13A.34.34,0,0,0,38.1,102.12Z"/><path class="cls-3" d="M44.07,107.22c-.32.13-.32.78,0,1a.12.12,0,0,0,.2,0c.33-.13.33-.78,0-1C44.2,107.16,44.14,107.22,44.07,107.22Z"/><path class="cls-3" d="M36.64,108c.39.46.78.46,1.24,0C37.42,107.55,37,107.55,36.64,108Z"/><path class="cls-3" d="M39.64,114.65c.39.46.78.46,1.24,0C40.42,114.2,40,114.2,39.64,114.65Z"/><path class="cls-3" d="M11.13,67.68c-.39-.46-.78-.46-1.24,0C10.28,68.14,10.68,68.14,11.13,67.68Z"/><path class="cls-3" d="M62.73,110.43c.46-.39.46-.78,0-1.24A.8.8,0,0,0,62.73,110.43Z"/><path class="cls-3" d="M53.79,111.73c.39,0,.66-.19.52-.39a.41.41,0,0,0-.52-.19h-.26c-.19.13-.32.26-.19.39s.13.19.19.19S53.66,111.73,53.79,111.73Z"/><path class="cls-3" d="M48.25.69c-.07.13,0,.26.19.39l.2-.19c.07-.14,0-.27-.2-.4Z"/><path class="cls-3" d="M36.9,4c.13.07.26,0,.39-.19l-.2-.2c-.13-.06-.26,0-.39.2Z"/><path class="cls-3" d="M34.29,4.73c-.07-.46-.13-.52-.59-.59C33.7,4.6,33.77,4.6,34.29,4.73Z"/><path class="cls-3" d="M34.29,5c0,.07.06.13.19.2a.27.27,0,0,0,.2.06c.2-.13.26-.26.13-.39s-.26-.26-.46-.13S34.22,4.93,34.29,5Z"/><path class="cls-3" d="M45.77,5.64c.13.2.26.26.39.2l.2-.2c-.13-.19-.26-.26-.39-.19S45.83,5.58,45.77,5.64Z"/><path class="cls-3" d="M25.42,6.42c.13.07.26,0,.39-.19l-.2-.2c-.13-.06-.26,0-.39.2Z"/><path class="cls-3" d="M36.12,6.88s.13.2.19.2a.71.71,0,0,0,.33-.26c.13-.27,0-.4-.26-.27A1.31,1.31,0,0,0,36.12,6.88Z"/><path class="cls-3" d="M41.2,7.73c.07,0,.13-.07.2-.2a.24.24,0,0,0,.06-.19c-.13-.2-.26-.26-.39-.13s-.26.26-.13.45S41.07,7.73,41.2,7.73Z"/><path class="cls-3" d="M28.81,7.73c.46-.07.52-.13.59-.59C28.94,7.21,28.88,7.27,28.81,7.73Z"/><path class="cls-3" d="M27.83,7.21s-.19.13-.19.19.13.33.26.33.39,0,.26-.26S28,7.27,27.83,7.21Z"/><path class="cls-3" d="M22,7.6l.2-.2c-.13-.19-.26-.26-.4-.19l-.19.19C21.7,7.66,21.83,7.66,22,7.6Z"/><path class="cls-3" d="M64.56,8.12l.19.19c.2-.13.26-.26.2-.39l-.2-.19C64.56,7.86,64.49,8,64.56,8.12Z"/><path class="cls-3" d="M51.05,8.12c.07-.13,0-.26-.19-.39l-.2.19c-.06.13,0,.26.2.39S51,8.18,51.05,8.12Z"/><path class="cls-3" d="M40.36,8.12s.13.19.19.19a.66.66,0,0,0,.33-.26c.13-.26,0-.39-.26-.26C40.55,7.79,40.42,8,40.36,8.12Z"/><path class="cls-3" d="M37.16,8.12c.06-.13,0-.26-.2-.39l-.19.19c-.07.13,0,.26.19.39S37.09,8.18,37.16,8.12Z"/><path class="cls-3" d="M28.22,7.73c.07.45.2.58.39.52a.4.4,0,0,0,.2-.52Z"/><path class="cls-3" d="M26.92,8.12c.06-.13,0-.26-.2-.39l-.19.19c-.07.13,0,.26.19.39Z"/><path class="cls-3" d="M38.07,8.84c.13.06.26,0,.39-.2l-.19-.2c-.13-.06-.26,0-.39.2Z"/><path class="cls-3" d="M59.21,9.42c.13.07.26,0,.39-.19L59.4,9c-.13-.06-.26,0-.39.2S59.14,9.36,59.21,9.42Z"/><path class="cls-3" d="M53.66,9.36l.2.19c.19-.13.26-.26.19-.39L53.86,9A.29.29,0,0,0,53.66,9.36Z"/><path class="cls-3" d="M48.84,9.36l.19.19c.2-.13.26-.26.2-.39L49,9A.29.29,0,0,0,48.84,9.36Z"/><path class="cls-3" d="M45.38,9s-.2.13-.2.2.13.32.26.32.39,0,.26-.26A.64.64,0,0,0,45.38,9Z"/><path class="cls-3" d="M66.77,9.94c.07-.13,0-.26-.19-.39l-.2.2c-.06.13,0,.26.2.39S66.71,10,66.77,9.94Z"/><path class="cls-3" d="M60.32,10.53l.19.2c.2-.14.26-.27.2-.4l-.2-.19C60.32,10.27,60.25,10.4,60.32,10.53Z"/><path class="cls-3" d="M27.51,10.53c.06-.13,0-.26-.2-.39l-.2.19c-.06.13,0,.26.2.4Z"/><path class="cls-3" d="M26,10.27l-.19.19c.13.2.26.27.39.2l.2-.2C26.27,10.27,26.14,10.2,26,10.27Z"/><path class="cls-3" d="M29,10.86l-.2.19c.13.2.26.26.39.2l.2-.2C29.27,10.86,29.14,10.79,29,10.86Z"/><path class="cls-3" d="M70,11.77l.19.19c.2-.13.26-.26.2-.39l-.2-.19C70,11.51,70,11.64,70,11.77Z"/><path class="cls-3" d="M27.83,11.44l-.19.2c.13.19.26.26.39.19l.19-.19C28.09,11.44,28,11.38,27.83,11.44Z"/><path class="cls-3" d="M24.7,12.94l.2.2c.19-.13.26-.26.19-.39l-.19-.2C24.7,12.68,24.64,12.81,24.7,12.94Z"/><path class="cls-3" d="M87.32,13.33l-.19-.19c-.2.13-.27.26-.2.39l.2.19A.27.27,0,0,0,87.32,13.33Z"/><path class="cls-3" d="M26.59,13.66c.13.06.26,0,.39-.2l-.19-.19c-.13-.07-.26,0-.39.19Z"/><path class="cls-3" d="M90.26,14.44c-.13-.07-.26,0-.39.2l.19.19c.13.07.26,0,.39-.19Z"/><path class="cls-3" d="M28.81,15c-.07-.46-.2-.59-.39-.52a.41.41,0,0,0-.2.52Z"/><path class="cls-3" d="M70.69,15.48c.13.07.26,0,.39-.19l-.2-.2c-.13-.06-.26,0-.39.2Z"/><path class="cls-3" d="M103.37,16.85l-.2.2c.13.19.26.26.39.19l.2-.19C103.63,16.85,103.5,16.79,103.37,16.85Z"/><path class="cls-3" d="M24.83,16.85s-.19.13-.19.2.13.32.26.32.39,0,.26-.26S25,16.92,24.83,16.85Z"/><path class="cls-3" d="M99.32,17.89l.2-.19c-.13-.2-.26-.26-.39-.2l-.2.2C99.06,17.89,99.19,18,99.32,17.89Z"/><path class="cls-3" d="M85.5,17.57l-.2-.2c-.2.13-.26.26-.2.39l.2.2A.29.29,0,0,0,85.5,17.57Z"/><path class="cls-3" d="M78.25,17.57l-.19-.2c-.2.13-.26.26-.2.39l.2.2A.29.29,0,0,0,78.25,17.57Z"/><path class="cls-3" d="M96.58,18.22c-.06.13,0,.26.2.39l.2-.2c.06-.13,0-.26-.2-.39C96.78,18,96.65,18.15,96.58,18.22Z"/><path class="cls-3" d="M20.66,19.78c-.2.13-.26.26-.2.39l.2.2c.19-.13.26-.26.19-.39Z"/><path class="cls-3" d="M93.19,20.43c-.19.14-.26.27-.19.4l.19.19c.2-.13.26-.26.2-.39S93.26,20.5,93.19,20.43Z"/><path class="cls-3" d="M89,20.5c-.13-.07-.26,0-.39.2l.19.19c.13.07.26,0,.39-.19Z"/><path class="cls-3" d="M100.63,21.41c.06-.13,0-.26-.2-.39l-.19.2c-.07.13,0,.26.19.39Z"/><path class="cls-3" d="M94.56,21.22l-.19-.2c-.2.13-.26.26-.2.39l.2.2C94.56,21.48,94.63,21.35,94.56,21.22Z"/><path class="cls-3" d="M85.63,21.28c.13.2.26.26.39.2l.19-.2c-.13-.19-.26-.26-.39-.19Z"/><path class="cls-3" d="M22.42,21.09s-.2.13-.2.19.13.33.26.33.39,0,.26-.26A.59.59,0,0,0,22.42,21.09Z"/><path class="cls-3" d="M93.84,24l.2-.19c-.13-.2-.26-.26-.39-.2l-.2.2C93.58,24,93.71,24,93.84,24Z"/><path class="cls-3" d="M93.58,25.06l.2.2c.19-.13.26-.26.19-.39l-.19-.2A.28.28,0,0,0,93.58,25.06Z"/><path class="cls-3" d="M95.87,26.69c0,.07.06.13.19.2a.26.26,0,0,0,.2.06c.19-.13.26-.26.13-.39s-.26-.26-.46-.13A.43.43,0,0,0,95.87,26.69Z"/><path class="cls-3" d="M8.65,27l.2-.19c-.13-.2-.26-.26-.39-.2l-.2.2C8.39,27,8.52,27,8.65,27Z"/><path class="cls-3" d="M102.32,28.12l.2-.19c-.13-.2-.26-.26-.39-.2l-.2.2C102.06,28.12,102.19,28.19,102.32,28.12Z"/><path class="cls-3" d="M9.31,28.32c-.13-.07-.26,0-.4.2l.2.19c.13.07.26,0,.39-.19A.49.49,0,0,1,9.31,28.32Z"/><path class="cls-3" d="M110.61,29.36c.13.07.26,0,.39-.19l-.2-.2c-.13-.06-.26,0-.39.2Z"/><path class="cls-3" d="M96.39,29.23c.06-.13,0-.26-.2-.39L96,29c-.07.13,0,.26.19.39Z"/><path class="cls-3" d="M13.22,24.61c.13.19.26.26.39.19l.2-.19c-.13-.2-.26-.27-.39-.2Z"/><path class="cls-3" d="M6.57,29.88l.19.2c.2-.13.26-.26.2-.39l-.2-.2A.29.29,0,0,0,6.57,29.88Z"/><path class="cls-3" d="M15.05,30.47l.19.2c.2-.13.26-.26.2-.39l-.2-.2C15.05,30.21,15,30.34,15.05,30.47Z"/><path class="cls-3" d="M95.28,32.16c0,.07.06.14.2.2a.22.22,0,0,0,.19.07c.2-.13.26-.27.13-.4s-.26-.26-.46-.13S95.28,32,95.28,32.16Z"/><path class="cls-3" d="M99.39,35.88c.06-.13,0-.26-.2-.39l-.19.19c-.07.13,0,.26.19.39S99.32,35.94,99.39,35.88Z"/><path class="cls-3" d="M103.56,36.6l.2-.2c-.13-.19-.26-.26-.39-.19l-.2.19A.29.29,0,0,0,103.56,36.6Z"/><path class="cls-3" d="M102.91,37.38c-.13-.07-.26,0-.39.19l.2.2c.13.06.26,0,.39-.2C103.17,37.57,103,37.44,102.91,37.38Z"/><path class="cls-3" d="M9.7,38l-.2.2c.13.19.26.26.39.19l.2-.19C10,38,9.83,38,9.7,38Z"/><path class="cls-3" d="M10.28,39.2l-.19.2c.13.19.26.26.39.19l.2-.19C10.55,39.2,10.41,39.14,10.28,39.2Z"/><path class="cls-3" d="M97.82,39.92c-.06.13,0,.26.2.39l.19-.19c.07-.14,0-.27-.19-.4S97.89,39.85,97.82,39.92Z"/><path class="cls-3" d="M110.28,41.94c.07-.13,0-.26-.19-.39l-.2.19c-.06.13,0,.27.2.4Z"/><path class="cls-3" d="M8.39,43.57c-.06.13,0,.26.2.39l.19-.2c.07-.13,0-.26-.19-.39S8.46,43.5,8.39,43.57Z"/><path class="cls-3" d="M102.52,46.63c.13.2.26.26.39.2l.2-.2c-.13-.19-.26-.26-.39-.19Z"/><path class="cls-3" d="M101.41,48l.2.2c.19-.13.26-.26.19-.4l-.19-.19A.27.27,0,0,0,101.41,48Z"/><path class="cls-3" d="M103.24,49.76l.19.2c.2-.14.26-.27.2-.4l-.2-.19C103.24,49.5,103.17,49.63,103.24,49.76Z"/><path class="cls-3" d="M105.06,52.17l.2.2c.2-.13.26-.26.2-.39l-.2-.2C105.06,51.91,105,52,105.06,52.17Z"/><path class="cls-3" d="M8.39,52c-.06.13,0,.26.2.39l.19-.2c.07-.13,0-.26-.19-.39S8.46,51.91,8.39,52Z"/><path class="cls-3" d="M7,52.17c.06-.13,0-.26-.2-.39l-.19.2c-.07.13,0,.26.19.39S6.89,52.24,7,52.17Z"/><path class="cls-3" d="M103,53.41c.07-.13,0-.26-.19-.39l-.2.19c-.07.13,0,.26.2.39Z"/><path class="cls-3" d="M3.83,53.08c-.13-.06-.26,0-.39.2l.19.19c.13.07.26,0,.39-.19Z"/><path class="cls-3" d="M101.61,54.19c.06,0,.13-.06.19-.19a.24.24,0,0,0,.07-.2c-.13-.2-.26-.26-.39-.13s-.27.26-.13.46S101.54,54.26,101.61,54.19Z"/><path class="cls-3" d="M108.85,54.19c-.2.13-.26.26-.2.39l.2.2c.19-.13.26-.26.19-.39S109,54.26,108.85,54.19Z"/><path class="cls-3" d="M100.76,54.58s.13.2.2.2a.74.74,0,0,0,.32-.26c.13-.26,0-.39-.26-.26C101,54.26,100.89,54.45,100.76,54.58Z"/><path class="cls-3" d="M102.78,62.66c.07,0,.13-.06.2-.19a.26.26,0,0,0,.06-.2c-.13-.19-.26-.26-.39-.13s-.26.26-.13.46A.42.42,0,0,0,102.78,62.66Z"/><path class="cls-3" d="M102.52,63.25v-.59c-.46.07-.52.13-.59.59Z"/><path class="cls-3" d="M102.52,63.51c0,.06.06.13.2.2a.24.24,0,0,0,.19.06c.2-.13.26-.26.13-.39s-.26-.26-.46-.13A.4.4,0,0,0,102.52,63.51Z"/><path class="cls-3" d="M108.19,64.36c.14.06.27,0,.4-.2l-.2-.19c-.13-.07-.26,0-.39.19S108.13,64.29,108.19,64.36Z"/><path class="cls-3" d="M14.2,65.46c.06-.13,0-.26-.2-.39l-.19.2c-.07.13,0,.26.19.39S14.13,65.53,14.2,65.46Z"/><path class="cls-3" d="M14.92,66.25h.58c-.06-.46-.19-.59-.39-.52A.43.43,0,0,0,14.92,66.25Z"/><path class="cls-3" d="M14.39,66.64s.13.19.2.19.33-.13.33-.26,0-.39-.27-.26A.71.71,0,0,0,14.39,66.64Z"/><path class="cls-3" d="M14.39,67.88l.2.19c.2-.13.26-.26.2-.39l-.2-.2C14.39,67.62,14.33,67.75,14.39,67.88Z"/><path class="cls-3" d="M103.24,68.46l.19.2c.2-.13.26-.26.2-.39l-.2-.2C103.24,68.2,103.17,68.33,103.24,68.46Z"/><path class="cls-3" d="M15,69.05s.13.19.2.19.32-.13.32-.26,0-.39-.26-.26A.71.71,0,0,0,15,69.05Z"/><path class="cls-3" d="M104.15,70.42l.2-.2c-.13-.19-.26-.26-.39-.19l-.2.19C103.89,70.42,104,70.48,104.15,70.42Z"/><path class="cls-3" d="M102.65,71.92c-.07.13,0,.26.2.39l.19-.2c.07-.13,0-.26-.19-.39S102.72,71.85,102.65,71.92Z"/><path class="cls-3" d="M100.63,73.09l-.2-.2c-.19.13-.26.26-.19.39l.19.2A.27.27,0,0,0,100.63,73.09Z"/><path class="cls-3" d="M103.37,74.65c.13.07.26,0,.39-.19l-.2-.2c-.13-.06-.26,0-.39.2C103.11,74.46,103.3,74.59,103.37,74.65Z"/><path class="cls-3" d="M18,74.46s.13.19.2.19a.59.59,0,0,0,.32-.26c.13-.26,0-.39-.26-.26A3.21,3.21,0,0,1,18,74.46Z"/><path class="cls-3" d="M12,75.57c-.06.13,0,.26.2.39l.19-.2c.07-.13,0-.26-.19-.39C12.18,75.3,12.05,75.44,12,75.57Z"/><path class="cls-3" d="M10.61,75.76c.07-.13,0-.26-.2-.39l-.19.2c-.07.13,0,.26.19.39Z"/><path class="cls-3" d="M16.61,77.52c.07-.13,0-.26-.19-.39l-.2.19c-.06.14,0,.27.2.4S16.55,77.59,16.61,77.52Z"/><path class="cls-3" d="M101.54,78.24c.13.06.26,0,.39-.2l-.19-.19c-.13-.07-.26,0-.39.19S101.48,78.17,101.54,78.24Z"/><path class="cls-3" d="M18.05,78.17l.19.2c.2-.13.26-.26.2-.39l-.2-.2A.29.29,0,0,0,18.05,78.17Z"/><path class="cls-3" d="M22.22,81.76s.13.19.2.19.32-.13.32-.26,0-.39-.26-.26C22.42,81.43,22.29,81.63,22.22,81.76Z"/><path class="cls-3" d="M17.72,81.89l.2-.2c-.13-.19-.26-.26-.4-.19l-.19.19C17.46,81.89,17.59,82,17.72,81.89Z"/><path class="cls-3" d="M19.87,82.8c-.06.13,0,.26.2.39l.19-.2c.07-.13,0-.26-.19-.39S19.94,82.73,19.87,82.8Z"/><path class="cls-3" d="M12.31,83.06l.19-.2c-.13-.19-.26-.26-.39-.19l-.19.19C12.05,83.06,12.18,83.12,12.31,83.06Z"/><path class="cls-3" d="M22.16,83.78h-.59c.06.45.19.58.39.52A.41.41,0,0,0,22.16,83.78Z"/><path class="cls-3" d="M20.13,84.3l.2-.2c-.13-.19-.26-.26-.39-.19l-.2.19C19.87,84.3,20,84.36,20.13,84.3Z"/><path class="cls-3" d="M96.52,85.93c.13.19.26.26.39.19l.2-.19c-.13-.2-.26-.26-.4-.2S96.58,85.86,96.52,85.93Z"/><path class="cls-3" d="M98.74,87.3l.19-.2c-.13-.2-.26-.26-.39-.2l-.19.2A.29.29,0,0,0,98.74,87.3Z"/><path class="cls-3" d="M95.93,88.4s.13.2.2.2.32-.13.32-.26,0-.39-.26-.26C96.13,88.08,96,88.27,95.93,88.4Z"/><path class="cls-3" d="M27.24,89.19c.07,0,.13-.07.2-.2a.24.24,0,0,0,.07-.2c-.14-.19-.27-.26-.4-.13s-.26.26-.13.46A.17.17,0,0,0,27.24,89.19Z"/><path class="cls-3" d="M93.65,89.71c.13.06.26,0,.39-.2l-.2-.19c-.13-.07-.26,0-.39.19S93.58,89.64,93.65,89.71Z"/><path class="cls-3" d="M26.46,89.58s.13.19.2.19a.59.59,0,0,0,.32-.26c.13-.26,0-.39-.26-.26A.71.71,0,0,0,26.46,89.58Z"/><path class="cls-3" d="M92.34,90c-.06.13,0,.26.2.39l.2-.19c.06-.13,0-.26-.2-.39Z"/><path class="cls-3" d="M27.18,93.36c.13.06.26,0,.39-.2l-.2-.2c-.13-.06-.26,0-.39.2Z"/><path class="cls-3" d="M87.06,93.49s-.2.13-.2.19.14.33.27.33.39,0,.26-.26C87.39,93.68,87.19,93.55,87.06,93.49Z"/><path class="cls-3" d="M88,94.66c-.07-.46-.13-.52-.59-.59C87.52,94.53,87.58,94.59,88,94.66Z"/><path class="cls-3" d="M88,94.92c0,.07.06.13.19.2a.27.27,0,0,0,.2.06c.2-.13.26-.26.13-.39s-.26-.26-.46-.13S88,94.85,88,94.92Z"/><path class="cls-3" d="M85.63,94.92c0,.07.06.13.19.2a.26.26,0,0,0,.2.06c.19-.13.26-.26.13-.39s-.26-.26-.46-.13S85.63,94.85,85.63,94.92Z"/><path class="cls-3" d="M23.2,96.55c-.13-.07-.26,0-.39.19l.19.2c.13.07.27,0,.4-.2Z"/><path class="cls-3" d="M20.85,98.05c.07-.13,0-.26-.19-.39l-.2.19c-.06.13,0,.26.2.39S20.79,98.11,20.85,98.05Z"/><path class="cls-3" d="M86.15,99.29c.06-.13,0-.26-.2-.4l-.19.2c-.07.13,0,.26.19.39Z"/><path class="cls-3" d="M43.29,99.16c.13.19.26.26.39.19l.2-.19c-.13-.2-.26-.27-.39-.2S43.42,99.09,43.29,99.16Z"/><path class="cls-3" d="M27.7,99.29l.2.19c.19-.13.26-.26.19-.39l-.19-.2C27.7,99,27.64,99.16,27.7,99.29Z"/><path class="cls-3" d="M22.35,100.59c.13.06.26,0,.39-.2l-.19-.19c-.13-.07-.26,0-.39.19Z"/><path class="cls-3" d="M74.93,100.79l-.2.19c.13.2.26.26.39.2l.2-.2C75.19,100.79,75.06,100.72,74.93,100.79Z"/><path class="cls-3" d="M27.7,100.92c-.06.12,0,.26.2.39l.19-.2c.07-.13,0-.26-.19-.39C27.9,100.65,27.77,100.85,27.7,100.92Z"/><path class="cls-3" d="M69,101.89c.07,0,.13-.06.2-.19a.26.26,0,0,0,.06-.2c-.13-.19-.26-.26-.39-.13s-.26.26-.13.46S68.86,101.89,69,101.89Z"/><path class="cls-3" d="M68.14,102.28s.13.2.2.2a.71.71,0,0,0,.33-.26c.13-.26,0-.39-.27-.26C68.34,102,68.21,102.15,68.14,102.28Z"/><path class="cls-3" d="M46,102s-.2.13-.2.19a.66.66,0,0,0,.26.33c.26.13.39,0,.26-.26S46.1,102,46,102Z"/><path class="cls-3" d="M28.61,102c-.13-.06-.26,0-.39.2l.2.19c.13.07.26,0,.39-.19S28.68,102.09,28.61,102Z"/><path class="cls-3" d="M30.11,102.68c-.06.13,0,.25.2.39l.2-.2c.06-.13,0-.26-.2-.39Z"/><path class="cls-3" d="M22.09,102.68l-.19-.2c-.2.13-.27.26-.2.39l.2.2A.29.29,0,0,0,22.09,102.68Z"/><path class="cls-3" d="M25.68,103.33l-.2-.2c-.19.13-.26.26-.19.39l.19.2C25.68,103.59,25.74,103.46,25.68,103.33Z"/><path class="cls-3" d="M55.1,104.3c.06,0,.13-.06.19-.19a.24.24,0,0,0,.07-.2c-.13-.19-.26-.26-.39-.13s-.26.26-.13.46S55,104.3,55.1,104.3Z"/><path class="cls-3" d="M19.68,104.11c.06-.13,0-.26-.2-.39l-.19.19c-.07.13,0,.26.19.39Z"/><path class="cls-3" d="M23.92,104.69c.06-.13,0-.26-.2-.39l-.19.2c-.07.13,0,.26.19.39A.55.55,0,0,1,23.92,104.69Z"/><path class="cls-3" d="M17.85,104.69c.07-.13,0-.26-.19-.39l-.2.2c-.07.13,0,.26.2.39Z"/><path class="cls-3" d="M46.88,105.28c.06-.13,0-.26-.2-.39l-.19.2c-.07.13,0,.26.19.39C46.68,105.54,46.75,105.41,46.88,105.28Z"/><path class="cls-3" d="M51,105.61c-.13-.07-.26,0-.39.19l.19.2c.13.06.26,0,.39-.2Z"/><path class="cls-3" d="M35.07,106.31c.13.2.26.26.39.2l.2-.2c-.13-.2-.26-.26-.39-.2S35.2,106.25,35.07,106.31Z"/><path class="cls-3" d="M27.83,107.82c.13.07.26,0,.39-.19l-.19-.2c-.13-.06-.26,0-.39.2Z"/><path class="cls-3" d="M22.42,107.37s-.2.13-.2.19a.71.71,0,0,0,.26.33c.26.13.39,0,.26-.26A1.09,1.09,0,0,0,22.42,107.37Z"/><path class="cls-3" d="M81.5,100.72c.07-.13,0-.26-.19-.39l-.2.19c-.06.13,0,.27.2.4Z"/><path class="cls-3" d="M55.49,108.34l.19.2c.2-.13.27-.26.2-.39s-.2-.2-.2-.2C55.49,108.08,55.42,108.21,55.49,108.34Z"/><path class="cls-3" d="M22.81,108.21c0,.07.06.13.19.2a.26.26,0,0,0,.2.06c.2-.13.26-.26.13-.39s-.26-.26-.46-.13S22.74,108.08,22.81,108.21Z"/><path class="cls-3" d="M38.49,100.82l.2-.2c-.13-.19-.26-.26-.39-.19l-.2.19C38.23,100.82,38.36,100.88,38.49,100.82Z"/><path class="cls-3" d="M25.09,110.56l-.19-.2c-.2.14-.26.27-.2.39l.2.2C25.09,110.82,25.16,110.69,25.09,110.56Z"/><path class="cls-3" d="M22.87,111.34l.2.2c.2-.13.26-.26.2-.39l-.2-.2C22.87,111.08,22.81,111.21,22.87,111.34Z"/><path class="cls-3" d="M40.58,103.75l.2.19c.19-.12.26-.26.19-.39l-.19-.19A.29.29,0,0,0,40.58,103.75Z"/><path class="cls-3" d="M38.17,104.14c-.07.13,0,.26.19.39l.2-.19c.06-.13,0-.26-.2-.4Z"/><path class="cls-3" d="M77.54,106.7c-.13-.06-.26,0-.39.2l.19.19c.13.07.26,0,.39-.19Z"/><path class="cls-3" d="M39.57,107.48c.07-.13,0-.26-.19-.39l-.2.2c-.06.13,0,.26.2.39Z"/><path class="cls-3" d="M51.38,117.47c.13.06.26,0,.39-.2l-.19-.19c-.14-.07-.27,0-.4.19S51.31,117.4,51.38,117.47Z"/><path class="cls-3" d="M44,117.4l.19.2c.2-.13.27-.26.2-.39l-.2-.2C44,117.14,43.94,117.27,44,117.4Z"/><path class="cls-3" d="M46.42,110.55l.2.19c.19-.13.26-.26.19-.39l-.19-.19C46.36,110.22,46.36,110.35,46.42,110.55Z"/><path class="cls-3" d="M66.71,109.91l.19-.2c-.13-.19-.26-.26-.39-.19l-.19.19A.27.27,0,0,0,66.71,109.91Z"/><path class="cls-3" d="M66.38,111.41c-.06.13,0,.26.2.39l.19-.2c.07-.13,0-.26-.19-.39Z"/><path class="cls-3" d="M64.88,112.32l.2-.2c-.13-.19-.26-.26-.39-.19l-.2.19C64.62,112.32,64.75,112.38,64.88,112.32Z"/><path class="cls-3" d="M95,95.38l.19-.2c-.13-.19-.26-.26-.39-.19l-.19.19A.27.27,0,0,0,95,95.38Z"/><path class="cls-3" d="M59.34,109c-.13-.07-.26,0-.39.19l.19.2c.13.06.26,0,.39-.2C59.6,109.19,59.4,109.06,59.34,109Z"/><path class="cls-3" d="M48.18,113.74c-.06.13,0,.26.2.39l.19-.2c.07-.12,0-.25-.19-.39C48.38,113.48,48.25,113.68,48.18,113.74Z"/><path class="cls-3" d="M52.1,112.19l.19.19c.2-.13.26-.26.2-.39l-.2-.19C52,111.86,52,112,52.1,112.19Z"/><path class="cls-3" d="M51.58,108.86l.19.2c.2-.13.26-.26.2-.39s-.2-.2-.2-.2C51.58,108.61,51.51,108.74,51.58,108.86Z"/><path class="cls-3" d="M84.19,102.35c.07-.13,0-.26-.2-.39l-.19.19c-.07.13,0,.26.19.39Z"/><path class="cls-3" d="M38.36,102.12c.07,0,.13-.06.2-.19a.27.27,0,0,0,.06-.2c-.13-.2-.26-.26-.39-.13s-.26.26-.13.46S38.3,102.12,38.36,102.12Z"/></g></svg>