<svg id="Layer_1" data-name="Layer 1" xmlns="http://www.w3.org/2000/svg" viewBox="0 0 495 121"><defs><style>.cls-1{opacity:0.2;}.cls-2{fill:#6d3926;}</style></defs><g class="cls-1"><path class="cls-2" d="M472.2.33c.26.82,1.34.43.79,1.16-1,1.34,1.35.54.43,1.77-.44.59-2.48-1.21-3-1.77-.33-.39-.56-.35-1.27-.52-1.39-.36-2.17-.59-1.67,2.29.14.45-.59-.66-1.12-.54a2.74,2.74,0,0,0-1.67,1.17c-.54.72-.42,1.3.94,1.6a1.11,1.11,0,0,0,.86-.11,2.86,2.86,0,0,0,1.09-1,4,4,0,0,0,.15-.39,2.25,2.25,0,0,1,1-1.39A2.59,2.59,0,0,1,472.2,4a7,7,0,0,1,.36,1.3,1.83,1.83,0,0,1,0,1,3.31,3.31,0,0,1-1.83,1.61,37,37,0,0,1-5.23,1.26c-1.72.33-3.83-1.09-5.53-1.52a1.46,1.46,0,0,0-.8,0c-2.15.63-2.38,3.39-4.57,3.88a4.42,4.42,0,0,0-2.71,1.7L451,14.5a7,7,0,0,0-1,6.08l.72,2.23a5.5,5.5,0,0,1-.3,4.59,10.43,10.43,0,0,1-1.2,1.64c-1.37,1.54-4.29,1.72-4.9-.13-.07-.23-.13-.45-.18-.68a8.23,8.23,0,0,1,.83-6.08l.18-.28a2.73,2.73,0,0,0,.25-2.31,3.89,3.89,0,0,0-2.32-2.31c-2.26-.94-4.46-2-6.7-2.93-1.62-.69-4.72-.3-4.25,1.16,1.1,4.74,2.6,9.4,4.1,14.06.26.79-1.56.9-2.43.53a34.17,34.17,0,0,0-3.35-1.24c-.73-.32-1.53-.42-2-1A3.05,3.05,0,0,0,426.9,27c-1.07-.27-1.61.31-1.67,1.59a2,2,0,0,1-1.58,1.8,2.07,2.07,0,0,1-2.45-1.18c-.27-.83-.54-1.68-.78-2.43-.1-.31-.6-.53-1.09-.75s-1-.45-1.3-.05l0,.06a3.43,3.43,0,0,0-.85,2.52,2.47,2.47,0,0,0,1.12,2.12c1.85,1.06,4.7,1.84,3.17,3.2-1.48,1.2-4,1.12-5,2.69a2.15,2.15,0,0,0,0,1.74,4.71,4.71,0,0,0,2.34,2.49c1.52.86,2.21,2.73.5,3.29a6.81,6.81,0,0,1-.89.22,7.22,7.22,0,0,1-4.61-.59c-.86-.43-1.77-.9-2.8-1.4-1.38-.67-2.6-1.55-2.79-2.87a5.69,5.69,0,0,0-1-2.93,2.68,2.68,0,0,0-2.41-1.26,1.18,1.18,0,0,0-.5.36,2.07,2.07,0,0,0-.39,1.7,6.15,6.15,0,0,1-.86,4.32c-.24.34-.48.68-.72,1a7.47,7.47,0,0,1-3.82,3.12c-1.71.54-3.48.86-5.24,1.25a9.25,9.25,0,0,0-4.86,2.46,24.74,24.74,0,0,0-2.16,3,3.27,3.27,0,0,0-.53,1.49c-.17,2.12-2.81,3.21-5.11,2.28l-1.27-.51a5.4,5.4,0,0,0-6.21,1.45l-1.83,2.44a2.28,2.28,0,0,1-1.76,1.17,2.08,2.08,0,0,1-.55-.07,1.81,1.81,0,0,1-1.41-1.53c0-.39-.08-.86-.15-1.24a1.73,1.73,0,0,0-.42-.88c-.73-.8-2.41-.85-2.92.06a3.21,3.21,0,0,0-.1,2.51l1.4,4.35c.14.44.28.88.38,1.33a3.51,3.51,0,0,1-.84,2.84c-1.73,2.32-5.57,3.32-6.1.63-.05-.29-.1-.58-.16-.87A5.77,5.77,0,0,0,356,64.71a5.4,5.4,0,0,0-.78-.44c-3.59-1.87-7.48-3.33-11.46-5.1a7.46,7.46,0,0,0-1.63-.61A2.08,2.08,0,0,0,339.9,60a1.6,1.6,0,0,0,.17,1.36,3.55,3.55,0,0,1,.3.58,2.31,2.31,0,0,0,1.34,1.35,9.64,9.64,0,0,1,3.72,2.56,9.24,9.24,0,0,0,3.34,3,5.19,5.19,0,0,1,2,1.4,7.49,7.49,0,0,1,1.37,4c.08,1.1.5,2.9-.78,3.19l-6.2,1.38A3.18,3.18,0,0,1,341.39,77a3.06,3.06,0,0,1-.12-.66c-.1-1.09-.71-1.56-2-1.88-.9-.14-1.49.66-2.39,1.86a2.24,2.24,0,0,1-2.54,1c-1-.43-1.28-1.37-1.65-2.26-.73-1.71-3-1-4.26.49a5.73,5.73,0,0,1-3,1.69l-11,2.46c-1.71.38-3.8-1-5.5-1.43a6.41,6.41,0,0,0-4.78,1.06,2.16,2.16,0,0,0-.88,1.41c-.05.72-.35,2-1.11,1.7-2.49-1.11-4.88-1.91-7-3.1-.79-.35.3-1.4,1.16-1.59l2.15-.49a3.72,3.72,0,0,0,2.26-1.4c.7-1,.83-1.37.56-2a18.25,18.25,0,0,0-.82-1.66c-.52-.88-1.28-1.06-2.7-1a8,8,0,0,0-1.82.29,4.66,4.66,0,0,0-2.35,1.36,2,2,0,0,0-.3,2c.13.42.27.86.41,1.29.3.94-.83,1.32-1.44,2.15-.39.51-.78,1-1.2,1.56a4,4,0,0,1-4.69.87l-1-.45A2.18,2.18,0,0,1,284.21,77a1.63,1.63,0,0,0-1-2.61,4,4,0,0,0-4,1.49,17,17,0,0,1-3.28,2.9c-1.17.73-2.9,1-3.45,2.14a2.48,2.48,0,0,0-.21,1.41c.1.7.54,1.23.51,1.93-.08,1.47-2.22,2.21-3.92,2.59L261,88.61a1.76,1.76,0,0,1-2.16-1.07.82.82,0,0,1,.07-.76,3.37,3.37,0,0,1,2-1.14l2.22-.49c2.41-.54,5.17-1.84,4.94-3.9a9.82,9.82,0,0,0-.93-2.66c-.72-1.6-3.08-4-3.48-2.29a1.76,1.76,0,0,0,0,.42c-.1,1,.6,1.86.1,3a5.24,5.24,0,0,1-.33.83c-.51,1.08-2,1.6-2.82.66a15.59,15.59,0,0,1-1.12-2c-1.35-2.24-1.68-2.17-4.5-1.54l-3,.67a5.76,5.76,0,0,0-3.38,2.08c-2.49,2.89-3.68,3.15-7.47,2-2.07-.53-4.1.5-3.55,2.24,0,.07.05.14.07.2.6,1.87,0,2.67-2.29,3.51-1.89.75-4.18.27-5-.89-.61-.73-.61-1.61-1.07-2.38a1.17,1.17,0,0,0-.4-.51,4.21,4.21,0,0,0-2.93-.45l-4.64,1A4,4,0,0,0,219,86.31c-1.28,1.47-3.57,2.56-4.47.91a6.1,6.1,0,0,0-1.68-2.39,4,4,0,0,0-3-.12c-1.34.3-2.85.79-3.07,1.93a1,1,0,0,0,0,.24c-.29,3.21-3.23,3.82-6.64,2.31l-4.79-2.13a2.7,2.7,0,0,1-1.49-1.57l-.51-1.59c-.27-.84.7-1.65,1.42-2.29a10.53,10.53,0,0,1,1.8-1.26c.64-.36.45-1,.31-1.4a2.77,2.77,0,0,0-.86-1.32,1.87,1.87,0,0,0-2.52.45,2.74,2.74,0,0,0-.35.57,2,2,0,0,0,0,1,7.6,7.6,0,0,0,.6,1.88c.38.92-.71,1.29-1.33,2.11a17,17,0,0,1-8.3,4.85l-5,1.13a4.13,4.13,0,0,1-2-.19c-.54-.19-.23-.51,0-1a4.37,4.37,0,0,1,.57-1,2.62,2.62,0,0,1,1.12-.55c1.42-.47,3.24-.62,5-1a5.48,5.48,0,0,0,.92-.29c1.48-.6,1.11-2.24.84-3.6-.11-.5-.2-1-.34-1.5-.64-2.23-4-2.29-5.54-.37-.4.5-.75,1-1.11,1.57-1.1,1.65-3.5,2.1-5.59,1.35l0,0a4.43,4.43,0,0,0-2.5-.15c-2.34.52-4.87-.61-5.5-2.55-.06-.18-.11-.35-.16-.51-.1-.32-.6-.54-1.1-.76s-1-.44-1.29,0l0,0a3.44,3.44,0,0,0-.84,2.52,2.43,2.43,0,0,0,1.06,2.08c1.83,1.14,5.16,2.23,3.22,3.25-1.1.52-2.28,1-3.35,1.61-2.72,1.55-3.84,1.39-7,2.1-1.19.27-2.39.53-3.48-.22-1.6-1-2.1-2.53-1.6-3.64,1-1.64,2.23-3.17,3.37-4.74.77-1.07.48-3.16-1-3.09-.15,0-.25,0-.39,0-.39,0-.78.1-1.15.16-3.6.63-5.25,4.44-8.9,4.79h-.09c-1.82-.07-2.07-1.13-2.19-2.19a3.56,3.56,0,0,1,.55-2.38,3,3,0,0,0-1.53-4.3l-.09,0c-1.7-.75-4.17-.33-4.32,1.27,0,1.34.9,2.8,1.4,4.35s-2.72,2-4.33,1.27l-1.66-.74a4.81,4.81,0,0,1-2.38-2.39l-.09-.19a3.55,3.55,0,0,0-1.72-1.42l-.81-.37c-1.78-.85-.87-3.32-.45-5,0-.14-3-2.11-3.18-.28.1-1,.26.33.07,1-.4,1.42.6,1.86,2,.89l.08-.06c1.12-.86-1.53-3-2.14-1.87-1.19,1.6-.83,2.24-1.13,2.64l-1.32,1.77a3.65,3.65,0,0,1-3.91.84,3.12,3.12,0,0,0-3.29.73l-.1.09c-1,1-2.84,1.42-3.61.29a11.2,11.2,0,0,1-1.15-3.52c1.41-4.91,1.58-7,.31-7.58l-.31-.13c-2.55-1.09,0-4.27-1.88-2.47a4.42,4.42,0,0,1-3,1.26,3.72,3.72,0,0,1-1.68-.37L100,65c-2-.89-5.19-1.2-6.55.32a5,5,0,0,1-2.2,1.32c-1.35.39-2.84.72-3.89-.54-1.59-2.3,1-3.86-2.2-3.44a6.44,6.44,0,0,1-2.44,0c-.9-.24-2.54,1.69-2.79.93-.45-1.43-.16-.59.94-1.75.82-.85.95-1.22,1.69-2.06,1.06-1.17-1.9-1-2.54-2.37,0-.11-.11-.22-.17-.33a3.37,3.37,0,0,0-1.52-1.27c-1.94-1-4.85-.59-3.64-2.2l1.77-2.38c.3-.4,1.2-.26,1.6-.35A1.75,1.75,0,0,0,80,52.78a8.68,8.68,0,0,0,1.75,0,7.08,7.08,0,0,0,3.12-.63l.08,0c.91-.61.57-1.69-.47-2.13a4.29,4.29,0,0,0-2.36-.1c-1.37.24-2.78.75-4,1-.1-1.64-1.6-2.31-3.29-2.26-2.74.07-6.63.55-7.34-1.66v0c-.1-.31-.6-.54-1.1-.76s-1-.44-1.29,0a3.08,3.08,0,0,1-.25.27,2.6,2.6,0,0,0-.66,2c.09,1.87.85,2.64,2.7,2.82,1.16.12,3.11.76,2.5,1.58-.7,1.22-1.61,1.07-2.48,2.15s-2.91,1.82-3.77.87a1.93,1.93,0,0,1-.29-.47,10.76,10.76,0,0,1-1.23-2.82,2.84,2.84,0,0,0-.5-.94c-.74-.93-2.23-.3-3,.6-1.09,1.25-3.18,1.7-4.19.41-.55-.69-1-1.45-1.56-2.12-1.13-1.32-2.4-3.45-1.46-4.87a1.94,1.94,0,0,0,.26-1.71l-.81-2.52a6,6,0,0,0-3-3.31,5.9,5.9,0,0,1-3-3.31L40.79,23.88c-.3-.93-1.09-2.08-2.29-1.81a3.38,3.38,0,0,0-1.35,1.34,2.06,2.06,0,0,0-.08,1.32c0,.36.13.73.16,1.09.15,1.58-2.15,1.91-3.75,1.06l-.88-.48a2.6,2.6,0,0,1-1.17-3.59,1.48,1.48,0,0,0-.56-2.07c-1.44-.61-3.27.11-4.93.07s-2.4-1.46-2.82-2.75c-.2-.63-.4-1.27-.62-1.93-.4-1.26-1-2.56-2.54-2.44-2.51.2-5,2.18-7.16,1.2l-.87-.39A4.57,4.57,0,0,1,10,13C8.66,11,8.43,9,7.88,7.09a5.16,5.16,0,0,1,.65-4.46c.74-1,.69-1.18.37-2.3ZM86.31,59.77c1.81.81,2.42-1.4,1.88-3.05-.62-1.95-.68-1.52-1.31-3.47,0-.15-.28-.26-.57-.36a2.58,2.58,0,0,0-1.75-.23c-1.19.43-1.08,2-.74,3,.72,2.26.27,1.19,1,3.45C84.91,59.42,85.81,59.55,86.31,59.77ZM458.42,2c-2.25-1-5.63-.27-4.78,1.74a2.84,2.84,0,0,0,.48.76c1.11,1.28,3.44,1.39,5.26.93a4.06,4.06,0,0,0,.83-.3C461.67,4.35,459.94,2.69,458.42,2ZM206.2,83.6c-2.32.35-3.27-2.58-1-3.24C207.65,79.62,208.8,83.2,206.2,83.6Zm26-4.1c0-.51-.68-.85-1.19-1.14a1.12,1.12,0,0,0-.7-.22l-3.59.8c-.39.09-.59.8-.89,1.2-.47.63.57,1.33,1.43,1.52,1.62.35,4-.4,4.74-1.7A1.1,1.1,0,0,0,232.21,79.5ZM61.35,40.81a1,1,0,0,0,.22-.49,1,1,0,0,0-.58-.87,1.54,1.54,0,0,0-2,.47,1.08,1.08,0,0,0-.22.49,1,1,0,0,0,.58.86A1.53,1.53,0,0,0,61.35,40.81ZM271,72.81c-.45.56-.12,1.31.61,1.63a1,1,0,0,0,.46.12,1.57,1.57,0,0,0,1.15-.45c.55-.51.19-1.26-.53-1.58-.16-.07-.33-.19-.48-.26C271.87,72.09,271.47,72.27,271,72.81Zm69.13-2.62a1.21,1.21,0,0,0-.48-.33,1.54,1.54,0,0,0-2,.42.89.89,0,0,0,0,1,1.15,1.15,0,0,0,.49.33,1.52,1.52,0,0,0,2-.41A.91.91,0,0,0,340.16,70.19Zm40.52-21.35a1.31,1.31,0,0,0-.48-.34,1.54,1.54,0,0,0-2,.42.89.89,0,0,0,0,1,1.2,1.2,0,0,0,.48.34,1.54,1.54,0,0,0,2-.42A.89.89,0,0,0,380.68,48.84ZM412.08,33a1.2,1.2,0,0,0,.48.34,1.54,1.54,0,0,0,2-.42.89.89,0,0,0,0-1,1.2,1.2,0,0,0-.48-.34,1.54,1.54,0,0,0-2,.42A.89.89,0,0,0,412.08,33ZM444.59,9.51a.87.87,0,0,0-.22.49,1,1,0,0,0,.58.86,1.54,1.54,0,0,0,2-.47,1,1,0,0,0,.22-.49,1,1,0,0,0-.58-.86A1.54,1.54,0,0,0,444.59,9.51Z"/><path class="cls-2" d="M431.6,45.56a3.25,3.25,0,0,1-4.29-1.37,10.35,10.35,0,0,1-.95-2.46,5.77,5.77,0,0,1,.95-4.71c.18-.27.35-.53.5-.78a2.31,2.31,0,0,0,.18-1.9l-.51-1.57a1.54,1.54,0,0,1,1.31-1.89A1.93,1.93,0,0,1,431.07,32c.38,1.19.74,2.33,1.12,3.5a4.87,4.87,0,0,1-.6,4.1,4.9,4.9,0,0,0-.6,4.11Z"/><path class="cls-2" d="M480.47,13c-.55-1.72-1.06-3.29-1.58-4.92a3.51,3.51,0,0,1,1.16-3.9,2.86,2.86,0,0,1,3-.71,1.74,1.74,0,0,1,1.1,2.61c-.56.92-.33,2.39.89,2.57,2.2.56,2,3.3-.28,3.45h-.32A17.72,17.72,0,0,0,480.47,13Z"/><path class="cls-2" d="M166.69,95.34c-.86-2.66-1-6.21,2.3-6.55l.28,0c2.49-.22,3.38-.09,4,1.77.77,2.4-2.79,4-5.67,4.6Z"/><path class="cls-2" d="M218.44,106.38a3.49,3.49,0,0,1-4.75.28,1.09,1.09,0,0,1-.27-1.1,8.73,8.73,0,0,1,1.91-3.56,3.56,3.56,0,0,1,4.83-.19,1.13,1.13,0,0,1,.26,1.23A10.92,10.92,0,0,1,218.44,106.38Z"/><path class="cls-2" d="M253.89,86c.38.31.71,1,.42,1.32-.49.67-1,1.37-1.54,2.07-1,1.37-3,1.62-4.79,1a3.83,3.83,0,0,0-1.23-.24c-.39,0-.77.07-1.16.08-.86,0-1.4,0-1.56-.34-.24-.55.21-1.23.56-1.75.21-.32.58-.4,1-.57a20,20,0,0,1,7.72-1.68C253.57,85.91,253.69,85.87,253.89,86Z"/><path class="cls-2" d="M375.56,67.66a2.82,2.82,0,0,1,0-2.36,10.45,10.45,0,0,1,1.28-1.91c1.25-1.59,4.41-2.52,4.9-.66a2.84,2.84,0,0,1-.65,2.49,20.75,20.75,0,0,0-1.65,2.63c-1.39,2.31-1.79,2.4-3.09,1A3.25,3.25,0,0,1,375.56,67.66Z"/><path class="cls-2" d="M380.64,71.91a2.77,2.77,0,0,1,2.42-3.2l1.1-.25a3.43,3.43,0,0,1,1.88,0,3,3,0,0,1,2.16,2.74c.2,2,0,2.67-2.39,3.2a4.53,4.53,0,0,1-2.8,0A3.36,3.36,0,0,1,380.64,71.91Z"/><path class="cls-2" d="M15.58,39.12a2.37,2.37,0,0,1,1.74,0,4.54,4.54,0,0,1,1.81,1.36c1.55,2.15-2.7,3.06-5.36,1.87-1.49-.66-2-.88-1.79-1.59a2.41,2.41,0,0,1,2.15-1.59A7.7,7.7,0,0,0,15.58,39.12Z"/><path class="cls-2" d="M43.63,52.22c-1.43,1.71-5.44,2.29-5.25.22a2.33,2.33,0,0,1,.06-.33c.33-1.43,2-2.53,3.64-2.9a3.56,3.56,0,0,1,1.48-.06C45,49.47,44.47,51.22,43.63,52.22Z"/><path class="cls-2" d="M141.35,87.08c1.79.06.5,2.21-1.23,2.6-1.9.42-1.31-.41-3.09,0a1.5,1.5,0,0,1-1.09-.28c-.81-.47-1.46-1.82-.51-2C138.12,86.43,138.27,86.77,141.35,87.08Z"/><path class="cls-2" d="M240.15,91.33c2-.92,4.74.46,5.14,2.32,0,.16.06.32.08.48a2.3,2.3,0,0,1,0,.52c-.18,1.19-2.5,1.34-3.76.77L240,94.71c-1.15-.51-2-2.06-1-2.78a7.85,7.85,0,0,1,.76-.42Z"/><path class="cls-2" d="M274.79,95.82c-2.48,1-3.75-2-2.29-3.93.69-.92,1.93-1.79,3.09-1.28a1.76,1.76,0,0,1,.91,1,3.18,3.18,0,0,1-1.39,4.09Z"/><path class="cls-2" d="M400.17,49.25c2.74-.57,2.71,2.59.05,3.37a10.61,10.61,0,0,1-2.35.46c-2.32.16-3.13-2.3-.94-2.94.87-.26,1.83-.44,2.74-.75A2.85,2.85,0,0,1,400.17,49.25Z"/><path class="cls-2" d="M421.93,64.46c2.27,1.12,2.93,4.72.31,4.47l-.16,0a4.31,4.31,0,0,1-3.57-3,1.4,1.4,0,0,1,.32-1.44C419.57,63.78,420.93,64,421.93,64.46Z"/><path class="cls-2" d="M454.47,39.55a3.43,3.43,0,0,1,2.33.2,3.51,3.51,0,0,1,1.62,1.53c1,2.09-2.66,2.87-5,1.77a6,6,0,0,0-.84-.31q-1.62-.52-1.35-1.47a2.5,2.5,0,0,1,2.48-1.62C454,39.62,454.21,39.6,454.47,39.55Z"/><path class="cls-2" d="M462.32,10.73c.79-.15,1.21.38,1.79.85l.12.07,2.2,1c1.24.55,1.95,2,1,2.88a1.44,1.44,0,0,1-.4.23,10.52,10.52,0,0,1-2.16.56,3.13,3.13,0,0,1-3.53-1.79c-.18-.58-.37-1.16-.57-1.76C460.46,11.89,461.28,10.92,462.32,10.73Z"/><path class="cls-2" d="M472.7,13.49a2.62,2.62,0,0,1,3.66-1,4.56,4.56,0,0,0,4.11.5,2.28,2.28,0,0,1-.34,2.43,5.45,5.45,0,0,1-4.83,1.39,3.4,3.4,0,0,1-2.67-2.71A1.17,1.17,0,0,1,472.7,13.49Z"/><path class="cls-2" d="M446.2,48.81c-.59.19.07.23-.47,0a4.53,4.53,0,0,1-1.81-1.35c-1.54-2.16,1.43-3.06,4.09-1.88,1.49.66,2,.89,1.79,1.6a2.41,2.41,0,0,1-2.15,1.58A9.84,9.84,0,0,0,446.2,48.81Z"/><path class="cls-2" d="M37.52,40.14c.6,1.86-.19,3.37-1.59,3s-1.86-.79-2-1.85a3.54,3.54,0,0,0-.13-.71A2,2,0,0,1,34,38.86c.42-.62.93-1,1.65-.63.5.22,1.39.36,1.49.67Z"/><path class="cls-2" d="M94.71,78.05a4.69,4.69,0,0,1-.77-1.57,2,2,0,0,1,.81-2c1.39-1,3,0,3.59,1.86l.08.25a2.05,2.05,0,0,1-.34,1.87,1.44,1.44,0,0,1-.62.52,2.24,2.24,0,0,1-1.82-.3A2.68,2.68,0,0,1,94.71,78.05Z"/><path class="cls-2" d="M108.79,97.34c2,.06.64,2.3-1.3,2.76a10.63,10.63,0,0,1-1.23.23,3.56,3.56,0,0,1-1.49,0,3,3,0,0,1-.39-.13c-1-.43-1.44-1.55-.53-2.16a4.64,4.64,0,0,1,1.56-.62A12.25,12.25,0,0,1,108.79,97.34Z"/><path class="cls-2" d="M122.36,117a1,1,0,0,1,0-.76,3.08,3.08,0,0,1,4.17-1.2,2,2,0,0,1,.79.53c.29.4-.08.91-.39,1.3a3.1,3.1,0,0,1-3.84,1A1.36,1.36,0,0,1,122.36,117Z"/><path class="cls-2" d="M121.73,84.46c2.39-.53,4.28.05,3.78,1.16a2.49,2.49,0,0,1-2.41,1.61,6.57,6.57,0,0,0-.89.12,3.92,3.92,0,0,1-2.28-.08c-.74-.3-1.11-.69-.69-1.25.3-.4.5-1.11.9-1.2Z"/><path class="cls-2" d="M135.79,103c.6,1.87-.19,3.37-1.58,3s-1.87-.78-2-1.84a3.42,3.42,0,0,0-.13-.71,2,2,0,0,1,.15-1.74c.42-.63.93-1,1.65-.63.5.22,1.39.35,1.49.66Z"/><path class="cls-2" d="M166.69,95.34c.29.9.84,1.91,1.12,2.91a2.48,2.48,0,0,1-.27,2.23,1.8,1.8,0,0,1-2.47.39,2.67,2.67,0,0,1-.87-1.32,6,6,0,0,1,0-2.66C164.3,95.87,165.39,95.29,166.69,95.34Z"/><path class="cls-2" d="M204.79,108.17a1.64,1.64,0,0,1,.75.88.82.82,0,0,1-.06.73c-1,1.41-4.09,1.89-5.46,1.2a.9.9,0,0,1-.44-.56,1.47,1.47,0,0,1,.13-1.14c.16-.31.33-.6.57-.65l3.59-.8A1.46,1.46,0,0,1,204.79,108.17Z"/><path class="cls-2" d="M309,81.91c2.06-.46,4.51.62,3.09,1.94l-.05,0A6.42,6.42,0,0,1,307.23,85c-2.07-.53-.55-2.54,1.54-3Z"/><path class="cls-2" d="M406.29,66.72c.82,1.85,4.56,1,4.16-.93C410,63.61,405.37,64.64,406.29,66.72Z"/><path class="cls-2" d="M431.6,45.56c1.23-.27,2.65-.79,4-1a4.48,4.48,0,0,1,2.36.1c1,.45,1.38,1.53.47,2.14a4.84,4.84,0,0,1-1.56.61,11.93,11.93,0,0,1-3.39.09A1.74,1.74,0,0,1,431.6,45.56Z"/><path class="cls-2" d="M456.17,18.44c2.85-.63,5.83,2,2.94,2.43A13.83,13.83,0,0,1,457,21a2.23,2.23,0,0,1-.82-.06,4.75,4.75,0,0,1-.57-.32c-.33-.2-.56-.48-.47-.8a2.22,2.22,0,0,1,.39-.94A1.31,1.31,0,0,1,456.17,18.44Z"/><path class="cls-2" d="M472.64,33.5c0-1.79,3.08-.44,3.59,1.29a5.66,5.66,0,0,1,.13.56,1.91,1.91,0,0,1-.06,1.25A3.19,3.19,0,0,1,476,37a1.88,1.88,0,0,1-2.52.44,2.77,2.77,0,0,1-.86-1.32A6,6,0,0,1,472.64,33.5Z"/><path class="cls-2" d="M28.07,42.5a1.53,1.53,0,0,1,.52.13c.72.33,1.09,1.08.54,1.59a1.64,1.64,0,0,1-1.14.45,1.39,1.39,0,0,1-.52-.14c-.72-.32-1.08-1.07-.54-1.58A1.56,1.56,0,0,1,28.07,42.5Z"/><path class="cls-2" d="M2.47,42.65a1.87,1.87,0,0,1-.67.51,1.69,1.69,0,0,1-1.07,0,1,1,0,0,1-.49-1.6,1.07,1.07,0,0,1,.37-.33,1.8,1.8,0,0,1,1.51,0c.69.26.9.86.42,1.34Z"/><path class="cls-2" d="M20.63,43.27a1.53,1.53,0,0,1,.52.13c.72.33,1.09,1.08.54,1.59a1.64,1.64,0,0,1-1.14.45A1.39,1.39,0,0,1,20,45.3c-.72-.32-1.08-1.07-.54-1.58A1.56,1.56,0,0,1,20.63,43.27Z"/><path class="cls-2" d="M16.59,52.09a1.76,1.76,0,0,1-.72-.16c-.68-.3-1-1-.5-1.49a1.63,1.63,0,0,1,1.13-.5,1.58,1.58,0,0,1,.67.17c.73.32,1.24,1,.67,1.55A2,2,0,0,1,16.59,52.09Z"/><path class="cls-2" d="M452.71,59.28a8.3,8.3,0,0,1-1.33-.46c-.2-.29.45-.82.64-1.19a1.53,1.53,0,0,1,2-.42,1.28,1.28,0,0,1,.48.33.91.91,0,0,1,0,1A1.42,1.42,0,0,1,452.71,59.28Z"/><path class="cls-2" d="M3.6,33.57a1.15,1.15,0,0,1,.49.33.91.91,0,0,1,0,1,1.55,1.55,0,0,1-2,.42A1.21,1.21,0,0,1,1.64,35a.89.89,0,0,1,0-1A1.52,1.52,0,0,1,3.6,33.57Z"/><path class="cls-2" d="M326.26,88.88a.91.91,0,0,1,.22-.49,1.52,1.52,0,0,1,2-.46,1,1,0,0,1,.57.86.91.91,0,0,1-.22.49,1.52,1.52,0,0,1-2,.46A1,1,0,0,1,326.26,88.88Z"/><path class="cls-2" d="M156.13,107a.91.91,0,0,1-.22.49,1.52,1.52,0,0,1-2,.46,1,1,0,0,1-.57-.86.91.91,0,0,1,.22-.49,1.52,1.52,0,0,1,2-.46A1,1,0,0,1,156.13,107Z"/><path class="cls-2" d="M464.18,56.7a1.28,1.28,0,0,1-.51-.13c-.73-.32-1.09-1.08-.54-1.59a1.61,1.61,0,0,1,1.06-.45,1.71,1.71,0,0,1,.67.18c.73.32,1.19,1,.61,1.53A2,2,0,0,1,464.18,56.7Z"/><path class="cls-2" d="M43.77,41.47a1.29,1.29,0,0,1-.52-.13c-.73-.32-1.09-1.08-.54-1.59a1.56,1.56,0,0,1,1.06-.45,1.89,1.89,0,0,1,.67.17c.73.33,1.19,1,.61,1.54A2,2,0,0,1,43.77,41.47Z"/><path class="cls-2" d="M360.27,88a1.94,1.94,0,0,1,.66-.54,1.78,1.78,0,0,1,1.1,0,1,1,0,0,1,.48,1.6,1.18,1.18,0,0,1-.36.34,1.74,1.74,0,0,1-1.28.07C360,89.22,359.72,88.58,360.27,88Z"/><path class="cls-2" d="M71.44,95.35a1.06,1.06,0,0,1-.6-1.87,1.42,1.42,0,0,1,1.45-.15c.73.33,1.09,1.08.54,1.59A1.59,1.59,0,0,1,71.44,95.35Z"/><path class="cls-2" d="M64.24,74.85a1.28,1.28,0,0,1-.48-.33.91.91,0,0,1,0-1,1.53,1.53,0,0,1,2-.41,1.28,1.28,0,0,1,.48.33.89.89,0,0,1,0,1A1.53,1.53,0,0,1,64.24,74.85Z"/><path class="cls-2" d="M79.7,71.2a1.07,1.07,0,0,1-.37.33,1.72,1.72,0,0,1-1.25.09,1,1,0,0,1-.49-1.6,1.21,1.21,0,0,1,.37-.34,1.71,1.71,0,0,1,1.25-.08A1,1,0,0,1,79.7,71.2Z"/><path class="cls-2" d="M77.08,100.16a1.34,1.34,0,0,1-.52-.14c-.72-.32-1.09-1.07-.54-1.58A1.56,1.56,0,0,1,77.16,98a1.29,1.29,0,0,1,.51.14c.73.32,1.09,1.07.55,1.58A1.56,1.56,0,0,1,77.08,100.16Z"/><path class="cls-2" d="M61.52,59.76a1.57,1.57,0,0,1,2-.5,1,1,0,0,1,.57.86.93.93,0,0,1-.21.49,1.55,1.55,0,0,1-2,.47,1,1,0,0,1-.57-.86A.76.76,0,0,1,61.52,59.76Z"/><path class="cls-2" d="M92.81,85.36a1,1,0,0,1-.22.49,1.53,1.53,0,0,1-2,.47,1,1,0,0,1-.58-.86,1,1,0,0,1,.22-.49,1.54,1.54,0,0,1,2-.47A1,1,0,0,1,92.81,85.36Z"/><path class="cls-2" d="M98.79,82.86a1.71,1.71,0,0,1,.71.16c.68.3,1,1,.5,1.48a1.58,1.58,0,0,1-1.13.51,1.7,1.7,0,0,1-.66-.17c-.73-.33-1.25-1.06-.68-1.56A2.06,2.06,0,0,1,98.79,82.86Z"/><path class="cls-2" d="M112.28,98.89a1.5,1.5,0,0,1,1.19.41,5.86,5.86,0,0,1,.69.51.91.91,0,0,1,0,1.22,1.36,1.36,0,0,1-1.83.52,4.85,4.85,0,0,1-1.22-.67C110.26,100.2,111.17,99.14,112.28,98.89Z"/><path class="cls-2" d="M305.56,101.64a.91.91,0,0,1-.22.49,1.54,1.54,0,0,1-2,.47,1,1,0,0,1-.57-.86,1,1,0,0,1,.21-.5,1.54,1.54,0,0,1,2-.46A1,1,0,0,1,305.56,101.64Z"/><path class="cls-2" d="M319.86,93.21a1.25,1.25,0,0,1,.49.33.91.91,0,0,1,0,1,1.53,1.53,0,0,1-2,.41,1.18,1.18,0,0,1-.48-.33.89.89,0,0,1,0-1A1.53,1.53,0,0,1,319.86,93.21Z"/><path class="cls-2" d="M128.77,97.7a1.07,1.07,0,0,1-.37.33,1.76,1.76,0,0,1-1.25.09,1,1,0,0,1-.48-1.6,1.3,1.3,0,0,1,.36-.34,1.74,1.74,0,0,1,1.26-.08A1,1,0,0,1,128.77,97.7Z"/><path class="cls-2" d="M144.84,88.63A1.49,1.49,0,0,1,146,89a7,7,0,0,1,.7.51.92.92,0,0,1,0,1.22,1.36,1.36,0,0,1-1.83.52,5.83,5.83,0,0,1-1.17-.62C142.83,90,143.71,88.88,144.84,88.63Z"/><path class="cls-2" d="M172.85,105.36a1.66,1.66,0,0,1-.66.51,1.73,1.73,0,0,1-1.08,0,1,1,0,0,1-.48-1.6A1,1,0,0,1,171,104a1.8,1.8,0,0,1,1.51,0c.69.26.91.86.42,1.34A.23.23,0,0,1,172.85,105.36Z"/><path class="cls-2" d="M183.39,114.15a.87.87,0,0,1-.22.49,1.54,1.54,0,0,1-2,.47,1,1,0,0,1-.57-.8,1.14,1.14,0,0,1,.27-.62,1.44,1.44,0,0,1,1.88-.53A1.25,1.25,0,0,1,183.39,114.15Z"/><path class="cls-2" d="M187.55,110.45a1.68,1.68,0,0,1-.65-.51.91.91,0,0,1,0-.89,1.55,1.55,0,0,1,2-.42,1.25,1.25,0,0,1,.49.33.89.89,0,0,1,0,1A1.32,1.32,0,0,1,187.55,110.45Z"/><path class="cls-2" d="M194.6,93a1.75,1.75,0,0,1,.66-.51,1.8,1.8,0,0,1,1.08,0,1,1,0,0,1,.48,1.6,1,1,0,0,1-.36.33,1.8,1.8,0,0,1-1.51,0c-.69-.26-.91-.86-.42-1.34Z"/><path class="cls-2" d="M226.47,119.82a1.06,1.06,0,0,1-.36.34,1.74,1.74,0,0,1-1.26.08,1,1,0,0,1-.48-1.6,1.14,1.14,0,0,1,.36-.33,1.74,1.74,0,0,1,1.26-.08A1,1,0,0,1,226.47,119.82Z"/><path class="cls-2" d="M242.36,106.9a1.58,1.58,0,0,1,2-.49,1,1,0,0,1,.57.86.91.91,0,0,1-.22.49,1.52,1.52,0,0,1-2,.46,1,1,0,0,1-.57-.85A.87.87,0,0,1,242.36,106.9Z"/><path class="cls-2" d="M249.42,98.78a1.59,1.59,0,0,1,.71.15c.68.31,1,1,.5,1.49a1.63,1.63,0,0,1-1.13.5,1.58,1.58,0,0,1-.67-.17c-.73-.32-1.24-1-.67-1.55A1.94,1.94,0,0,1,249.42,98.78Z"/><path class="cls-2" d="M263.06,105.05a1.34,1.34,0,0,1,.52.14c.73.32,1.09,1.07.54,1.58a1.56,1.56,0,0,1-1.14.45,1.29,1.29,0,0,1-.51-.14c-.73-.32-1.09-1.07-.54-1.58A1.54,1.54,0,0,1,263.06,105.05Z"/><path class="cls-2" d="M280.6,110.46a1.34,1.34,0,0,1,.52.14c.72.32,1.09,1.07.54,1.58a1.56,1.56,0,0,1-1.14.45,1.29,1.29,0,0,1-.51-.14c-.73-.32-1.09-1.07-.55-1.58A1.56,1.56,0,0,1,280.6,110.46Z"/><path class="cls-2" d="M285.48,99a1.07,1.07,0,0,1-.36.34,1.74,1.74,0,0,1-1.26.08,1,1,0,0,1-.48-1.6,1.14,1.14,0,0,1,.36-.33,1.74,1.74,0,0,1,1.26-.08A1,1,0,0,1,285.48,99Z"/><path class="cls-2" d="M287.82,90.32a1.37,1.37,0,0,1-.39,1.82l-.06.06a6.64,6.64,0,0,1-.71.58,1.7,1.7,0,0,1-1.54,0c-.8-.34-1.06-.8-.6-1.43A2.53,2.53,0,0,1,286.33,90C286.85,90,287.52,90,287.82,90.32Z"/><path class="cls-2" d="M295.08,115a1,1,0,0,1-.55-1.63,1.61,1.61,0,0,1,1.22-.53,1.34,1.34,0,0,1,.52.14c.72.32,1.09,1.07.54,1.58a1.56,1.56,0,0,1-.93.44A2.39,2.39,0,0,1,295.08,115Z"/><path class="cls-2" d="M288.17,87.53a2,2,0,0,1,2.06-.4c.23.12.23.35.17.57a2.69,2.69,0,0,1-1,1.57c-1.2.84-2.11.63-2.08-.36a1.33,1.33,0,0,1,.38-1Z"/><path class="cls-2" d="M341.49,85.3c.09.26-.1.57-.54.93a5.61,5.61,0,0,1-.7.59,1.73,1.73,0,0,1-1.55,0c-.8-.34-1.06-.8-.59-1.43a3.87,3.87,0,0,1,1-1.07A1.7,1.7,0,0,1,341.49,85.3Z"/><path class="cls-2" d="M344.26,82a1.34,1.34,0,0,1-1.15,1.65l-.09,0c-1,.23-2.14-.36-2-1.23a1.72,1.72,0,0,1,1.06-1.26A1.55,1.55,0,0,1,344.26,82Z"/><path class="cls-2" d="M346.27,82.91a1.49,1.49,0,0,1,1.19.41,5.86,5.86,0,0,1,.69.51.9.9,0,0,1,0,1.22,1.36,1.36,0,0,1-1.83.52,5,5,0,0,1-1.22-.67C344.25,84.22,345.16,83.15,346.27,82.91Z"/><path class="cls-2" d="M352.09,102.18c.28.17.59.33.7.6a.93.93,0,0,1-.07.82,1.53,1.53,0,0,1-2,.41,1.28,1.28,0,0,1-.48-.33,1,1,0,0,1,.11-1.21,1.21,1.21,0,0,1,1.64-.35Z"/><path class="cls-2" d="M377.39,79.55a1.53,1.53,0,0,1,.52.13c.72.33,1.08,1.08.54,1.59a1.56,1.56,0,0,1-1.14.45,1.39,1.39,0,0,1-.52-.14c-.72-.32-1.09-1.07-.54-1.58A1.56,1.56,0,0,1,377.39,79.55Z"/><path class="cls-2" d="M391,81a1,1,0,0,1-.22.49,1.54,1.54,0,0,1-2,.47,1,1,0,0,1-.57-.86.87.87,0,0,1,.22-.49,1.54,1.54,0,0,1,2-.47A1,1,0,0,1,391,81Z"/><path class="cls-2" d="M397.59,72.37a1.5,1.5,0,0,1,1.73-.52,1,1,0,0,1,.49,1.6,1.21,1.21,0,0,1-.37.34,1.88,1.88,0,0,1-1.51,0c-.68-.26-.9-.86-.42-1.35Z"/><path class="cls-2" d="M402.28,60.83a1.56,1.56,0,0,1-.71-.15c-.68-.31-1-1-.5-1.49a1.63,1.63,0,0,1,1.13-.5,1.5,1.5,0,0,1,.66.17c.74.32,1.25,1,.68,1.55A1.94,1.94,0,0,1,402.28,60.83Z"/><path class="cls-2" d="M415.27,71.53a1.72,1.72,0,0,1,.66.51.92.92,0,0,1,0,.89,1.54,1.54,0,0,1-2,.42,1.2,1.2,0,0,1-.48-.34.87.87,0,0,1,0-1A1.31,1.31,0,0,1,415.27,71.53Z"/><path class="cls-2" d="M434.37,57.93a1.63,1.63,0,0,1,.71.6,1,1,0,0,1-.08.82,1.53,1.53,0,0,1-2,.42,1.27,1.27,0,0,1-.49-.34,1,1,0,0,1,.11-1.2,1.22,1.22,0,0,1,1.64-.36Z"/><path class="cls-2" d="M461.53,35.73a1.65,1.65,0,0,1,2-.5,1.07,1.07,0,0,1,.65.91,1.08,1.08,0,0,1-.22.49,1.54,1.54,0,0,1-2,.46,1.06,1.06,0,0,1-.57-.75A.86.86,0,0,1,461.53,35.73Z"/><path class="cls-2" d="M471.63,40.69a1,1,0,0,1-.21.49,1.55,1.55,0,0,1-2,.47,1.06,1.06,0,0,1-.57-.8,1.08,1.08,0,0,1,.27-.62A1.44,1.44,0,0,1,471,39.7,1.23,1.23,0,0,1,471.63,40.69Z"/><path class="cls-2" d="M487.49,18.27a1.88,1.88,0,0,1,2-.31.59.59,0,0,1,.28.74,5.17,5.17,0,0,1-.21.7,2.47,2.47,0,0,1-1.86,1.27.75.75,0,0,1-1-.71,1.73,1.73,0,0,1,.42-1.29C487.21,18.54,487.35,18.41,487.49,18.27Z"/><path class="cls-2" d="M492.38,4.71a1.63,1.63,0,0,1,.71.6,1,1,0,0,1-.07.82,1.53,1.53,0,0,1-2,.41,1.15,1.15,0,0,1-.49-.33A1,1,0,0,1,490.66,5a1.21,1.21,0,0,1,1.63-.35Z"/><path class="cls-2" d="M492.65-1.5a1.1,1.1,0,0,1,.37-.34,1.71,1.71,0,0,1,1.25-.08,1,1,0,0,1,.49,1.6,1.07,1.07,0,0,1-.37.33,1.72,1.72,0,0,1-1.25.08A1,1,0,0,1,492.65-1.5Z"/><path class="cls-2" d="M464.72,44.35a1.13,1.13,0,0,1-.26.68,1.41,1.41,0,0,1-1.81.42,1.1,1.1,0,0,1-.66-.85,1.08,1.08,0,0,1,.27-.62,1.5,1.5,0,0,1,1.91-.58A1.15,1.15,0,0,1,464.72,44.35Z"/></g></svg>