<svg id="Layer_1" data-name="Layer 1" xmlns="http://www.w3.org/2000/svg" viewBox="0 0 625 101"><defs><style>.cls-1{fill:#fcebce;}</style></defs><path class="cls-1" d="M19,98.74c-.22-.69-1.12-.36-.67-1,.84-1.13-1.12-.46-.35-1.49.37-.49,2.07,1,2.48,1.49.28.32.47.28,1.06.43,1.16.3,1.81.49,1.39-1.92-.12-.37.49.56.93.46a2.29,2.29,0,0,0,1.39-1c.46-.6.36-1.08-.78-1.33a.87.87,0,0,0-.71.09,1.8,1.8,0,0,0-1,1.15,1.87,1.87,0,0,1-.8,1.17A2.15,2.15,0,0,1,19,95.67a4.84,4.84,0,0,1-.3-1.08,1.45,1.45,0,0,1,0-.8,2.8,2.8,0,0,1,1.53-1.35,31.58,31.58,0,0,1,4.36-1c1.44-.27,3.2.92,4.61,1.27a1.22,1.22,0,0,0,.68,0c1.78-.53,2-2.83,3.81-3.24A3.68,3.68,0,0,0,36,88l.73-1.1a5.9,5.9,0,0,0,.79-5.07c-.2-.62-.4-1.25-.6-1.86a4.58,4.58,0,0,1,.25-3.83,8.81,8.81,0,0,1,1-1.36c1.14-1.29,3.58-1.44,4.09.11.06.18.1.37.15.56a6.86,6.86,0,0,1-.7,5.07c-.05.08-.1.16-.14.24a2.25,2.25,0,0,0-.21,1.92,3.25,3.25,0,0,0,1.93,1.93c1.89.78,3.72,1.64,5.59,2.44,1.35.57,3.94.25,3.54-1-.92-4-2.17-7.85-3.42-11.74-.21-.65,1.31-.74,2-.44a26.08,26.08,0,0,0,2.79,1c.62.27,1.28.35,1.69.82a2.54,2.54,0,0,0,1.31.73c.88.22,1.33-.26,1.39-1.33a1.63,1.63,0,0,1,1.31-1.5,1.72,1.72,0,0,1,2,1l.66,2c.08.26.5.45.91.63s.83.37,1.08,0l0-.05a2.87,2.87,0,0,0,.7-2.1A2,2,0,0,0,64,73.45c-1.54-.88-3.92-1.53-2.64-2.67s3.34-.93,4.14-2.24a1.81,1.81,0,0,0,0-1.46A3.91,3.91,0,0,0,63.57,65c-1.27-.72-1.84-2.27-.42-2.74a5.33,5.33,0,0,1,.74-.19,6.05,6.05,0,0,1,3.85.5c.71.36,1.48.75,2.33,1.16,1.16.56,2.17,1.3,2.33,2.4a4.65,4.65,0,0,0,.84,2.44,2.21,2.21,0,0,0,2,1,.92.92,0,0,0,.42-.3A1.71,1.71,0,0,0,76,67.91a5.13,5.13,0,0,1,.72-3.6q.3-.42.6-.87a6.2,6.2,0,0,1,3.18-2.6c1.43-.45,2.91-.72,4.37-1a7.62,7.62,0,0,0,4-2.06,20.22,20.22,0,0,0,1.81-2.5A2.69,2.69,0,0,0,91.16,54c.14-1.77,2.35-2.68,4.26-1.9l1.06.43a4.52,4.52,0,0,0,5.18-1.22l1.52-2a1.92,1.92,0,0,1,1.48-1,1.88,1.88,0,0,1,.46.06,1.51,1.51,0,0,1,1.17,1.28c0,.32.07.71.13,1a1.39,1.39,0,0,0,.35.74,1.66,1.66,0,0,0,2.43,0,2.65,2.65,0,0,0,.09-2.1l-1.17-3.62c-.12-.37-.24-.74-.32-1.11a2.9,2.9,0,0,1,.7-2.37c1.45-1.94,4.64-2.78,5.09-.53,0,.24.09.48.13.72A4.84,4.84,0,0,0,115.94,45a4.18,4.18,0,0,0,.65.37c3,1.55,6.24,2.78,9.56,4.25a6.13,6.13,0,0,0,1.36.51A1.74,1.74,0,0,0,129.37,49a1.37,1.37,0,0,0-.14-1.13,2.52,2.52,0,0,1-.25-.49,2,2,0,0,0-1.12-1.12,8,8,0,0,1-3.1-2.14A7.74,7.74,0,0,0,122,41.59a4.49,4.49,0,0,1-1.66-1.17,6.29,6.29,0,0,1-1.14-3.34c-.06-.92-.41-2.42.65-2.66L125,33.27a2.36,2.36,0,0,1,3.24,2c.08.91.59,1.3,1.65,1.57.75.12,1.24-.55,2-1.55a1.87,1.87,0,0,1,2.13-.81c.81.36,1.06,1.15,1.37,1.88.61,1.43,2.49.83,3.56-.4a4.65,4.65,0,0,1,2.49-1.41l9.21-2.06c1.42-.31,3.18.84,4.59,1.2a5.3,5.3,0,0,0,4-.89,1.78,1.78,0,0,0,.74-1.17c0-.6.29-1.7.92-1.42,2.08.93,4.08,1.59,5.82,2.59.66.29-.25,1.17-1,1.33l-1.8.4A3.13,3.13,0,0,0,162,35.75c-.58.82-.68,1.15-.46,1.64a14.87,14.87,0,0,0,.68,1.39c.43.73,1.07.88,2.25.83a7,7,0,0,0,1.52-.25,3.91,3.91,0,0,0,2-1.13,1.66,1.66,0,0,0,.25-1.67c-.11-.35-.23-.71-.34-1.07-.25-.78.69-1.1,1.2-1.79.33-.43.65-.86,1-1.3a3.35,3.35,0,0,1,3.91-.73l.85.37a1.82,1.82,0,0,1,1,2.73,1.36,1.36,0,0,0,.87,2.17,3.32,3.32,0,0,0,3.37-1.24,13.92,13.92,0,0,1,2.73-2.42c1-.61,2.42-.84,2.88-1.78a2.07,2.07,0,0,0,.18-1.18c-.09-.58-.45-1-.42-1.61.06-1.23,1.84-1.84,3.27-2.16l6.47-1.44A1.47,1.47,0,0,1,197,26a.69.69,0,0,1-.06.64,2.83,2.83,0,0,1-1.64.94l-1.85.42c-2,.44-4.32,1.52-4.12,3.25a8.34,8.34,0,0,0,.77,2.22c.61,1.33,2.57,3.3,2.91,1.9a1.79,1.79,0,0,0,0-.34c.09-.85-.5-1.56-.08-2.48a4.65,4.65,0,0,1,.27-.7,1.47,1.47,0,0,1,2.35-.55A12.39,12.39,0,0,1,196.5,33c1.13,1.87,1.4,1.81,3.75,1.29l2.5-.56A4.78,4.78,0,0,0,205.57,32c2.07-2.41,3.07-2.63,6.23-1.67,1.73.44,3.41-.41,3-1.87l-.06-.16c-.5-1.56,0-2.22,1.91-2.93,1.58-.63,3.49-.22,4.15.74.51.62.51,1.35.9,2a1,1,0,0,0,.33.43,3.53,3.53,0,0,0,2.44.37L228.3,28a3.31,3.31,0,0,0,1.89-1c1.07-1.22,3-2.13,3.73-.76a5.1,5.1,0,0,0,1.4,2,3.33,3.33,0,0,0,2.53.1c1.12-.25,2.38-.66,2.56-1.61a1.36,1.36,0,0,0,0-.2c.25-2.68,2.69-3.19,5.54-1.92l4,1.77a2.23,2.23,0,0,1,1.25,1.31c.14.45.28.88.42,1.32.23.71-.58,1.38-1.18,1.91A9,9,0,0,1,249,32c-.54.29-.38.79-.26,1.16a2.26,2.26,0,0,0,.72,1.1,1.54,1.54,0,0,0,2.1-.37,2,2,0,0,0,.29-.48,1.67,1.67,0,0,0,0-.8,6.81,6.81,0,0,0-.5-1.57c-.32-.77.59-1.08,1.1-1.77a14.32,14.32,0,0,1,6.93-4l4.21-.94a3.38,3.38,0,0,1,1.64.15c.46.16.2.43,0,.81a3.78,3.78,0,0,1-.47.83,2.18,2.18,0,0,1-.94.46c-1.19.39-2.7.52-4.15.84a4.61,4.61,0,0,0-.77.24c-1.23.51-.93,1.87-.69,3,.08.42.16.85.28,1.26.53,1.86,3.37,1.91,4.62.31.33-.42.63-.86.92-1.31a4,4,0,0,1,4.66-1.13l.05,0a3.6,3.6,0,0,0,2.08.12c1.95-.43,4.07.51,4.59,2.13.05.15.09.29.14.43s.5.44.91.63.83.37,1.08,0l0,0a2.87,2.87,0,0,0,.7-2.1,2.08,2.08,0,0,0-.88-1.74c-1.53-.95-4.3-1.85-2.69-2.7.91-.44,1.9-.85,2.79-1.35,2.28-1.29,3.2-1.16,5.86-1.75a3.48,3.48,0,0,1,2.91.18,2.51,2.51,0,0,1,1.33,3c-.82,1.37-1.86,2.64-2.8,4-.64.89-.41,2.63.84,2.57a1.75,1.75,0,0,0,.32,0,9.66,9.66,0,0,0,1-.13c3-.52,4.38-3.7,7.42-4h.08c1.51.06,1.72.94,1.83,1.83a3,3,0,0,1-.46,2,2.47,2.47,0,0,0,1.28,3.59l.07,0c1.42.63,3.47.27,3.6-1.06,0-1.11-.75-2.33-1.17-3.63s2.28-1.65,3.62-1.05l1.38.61a4,4,0,0,1,2,2l.07.15a2.89,2.89,0,0,0,1.44,1.18l.67.32c1.49.71.73,2.76.37,4.16,0,.12,2.51,1.76,2.66.23-.09.85-.22-.27-.06-.87.33-1.18-.5-1.55-1.66-.74l-.07.06c-.93.71,1.28,2.51,1.79,1.55,1-1.33.69-1.87.94-2.2l1.1-1.47a3,3,0,0,1,3.26-.71,2.61,2.61,0,0,0,2.75-.6.3.3,0,0,1,.08-.08c.82-.83,2.37-1.18,3-.24a9.51,9.51,0,0,1,1,2.94c-1.18,4.09-1.33,5.86-.27,6.32l.27.11c2.12.9,0,3.56,1.56,2.06A3.63,3.63,0,0,1,328,44.42a3.18,3.18,0,0,1,1.4.31l.11.05c1.67.75,4.33,1,5.46-.26a4.13,4.13,0,0,1,1.84-1.1c1.13-.33,2.37-.61,3.24.45,1.33,1.91-.78,3.21,1.84,2.87a5.37,5.37,0,0,1,2,0c.75.2,2.12-1.41,2.32-.78.38,1.19.14.5-.78,1.46-.68.71-.79,1-1.41,1.72-.88,1,1.59.84,2.12,2a2.44,2.44,0,0,0,.14.28,2.94,2.94,0,0,0,1.27,1.07c1.62.83,4,.48,3,1.83-.52.68-1,1.33-1.48,2-.25.33-1,.22-1.33.3A1.45,1.45,0,0,0,346.2,55a6.55,6.55,0,0,0-1.46,0,5.86,5.86,0,0,0-2.61.52l-.06,0c-.76.51-.48,1.41.39,1.78a3.64,3.64,0,0,0,2,.09c1.14-.2,2.32-.63,3.35-.86.08,1.37,1.33,1.92,2.74,1.88,2.29-.06,5.53-.46,6.12,1.38v0c.08.26.5.45.92.63s.83.37,1.08,0a1.37,1.37,0,0,1,.2-.23,2.16,2.16,0,0,0,.55-1.69c-.07-1.56-.7-2.2-2.25-2.36-1-.09-2.59-.63-2.08-1.31.58-1,1.33-.9,2.06-1.79s2.43-1.52,3.15-.73a2,2,0,0,1,.24.39,9.25,9.25,0,0,1,1,2.35A2.48,2.48,0,0,0,362,56c.62.77,1.86.25,2.52-.5.91-1,2.66-1.42,3.5-.35.45.58.83,1.22,1.3,1.77.94,1.1,2,2.88,1.22,4.06a1.6,1.6,0,0,0-.22,1.43c.22.7.45,1.4.67,2.1a5,5,0,0,0,2.49,2.76A4.91,4.91,0,0,1,375.93,70q1.47,4.55,2.93,9.08c.25.78.91,1.74,1.91,1.52a2.81,2.81,0,0,0,1.13-1.12,1.79,1.79,0,0,0,.07-1.1c-.05-.3-.11-.61-.14-.91-.12-1.32,1.8-1.6,3.13-.88l.73.39a2.16,2.16,0,0,1,1,3,1.24,1.24,0,0,0,.46,1.73c1.21.51,2.73-.1,4.12-.06s2,1.21,2.35,2.29l.52,1.61c.33,1,.82,2.14,2.12,2,2.09-.17,4.12-1.82,6-1l.73.32a3.83,3.83,0,0,1,1.64,1.27,16,16,0,0,1,1.73,4.92,4.29,4.29,0,0,1-.54,3.71c-.62.82-.58,1-.31,1.92ZM340.89,49.16c-1.51-.67-2,1.17-1.57,2.55.52,1.62.57,1.27,1.1,2.89,0,.13.23.22.47.3a2.1,2.1,0,0,0,1.46.19c1-.36.91-1.63.62-2.5-.6-1.88-.22-1-.83-2.87C342.06,49.46,341.31,49.35,340.89,49.16ZM30.51,97.35c1.87.85,4.7.22,4-1.45a2.34,2.34,0,0,0-.4-.64c-.93-1.07-2.87-1.15-4.38-.77a2.89,2.89,0,0,0-.7.25C27.8,95.39,29.24,96.77,30.51,97.35ZM240.89,29.29c1.94-.3,2.73,2.15.87,2.7C239.68,32.61,238.72,29.62,240.89,29.29ZM219.2,32.71c0,.42.56.71,1,.95a.89.89,0,0,0,.58.17l3-.66c.34-.08.5-.67.75-1,.39-.53-.47-1.11-1.19-1.26-1.35-.3-3.37.33-4,1.41A.88.88,0,0,0,219.2,32.71ZM361.71,65a.84.84,0,0,0-.18.41.88.88,0,0,0,.48.72,1.28,1.28,0,0,0,1.64-.39.76.76,0,0,0,.18-.41.82.82,0,0,0-.47-.72A1.3,1.3,0,0,0,361.71,65ZM186.81,38.29c.39-.47.1-1.1-.5-1.37a1.24,1.24,0,0,0-.39-.1,1.36,1.36,0,0,0-1,.38c-.45.43-.15,1,.45,1.32.13.06.27.16.4.22C186.11,38.89,186.45,38.74,186.81,38.29Zm-57.66,2.18a1.15,1.15,0,0,0,.4.28,1.29,1.29,0,0,0,1.66-.35.76.76,0,0,0,0-.82,1,1,0,0,0-.41-.28,1.28,1.28,0,0,0-1.66.35A.76.76,0,0,0,129.15,40.47ZM95.35,58.28a1.11,1.11,0,0,0,.41.28,1.28,1.28,0,0,0,1.66-.35.76.76,0,0,0,0-.82,1.15,1.15,0,0,0-.4-.28,1.28,1.28,0,0,0-1.66.35A.76.76,0,0,0,95.35,58.28ZM69.17,71.46a1.11,1.11,0,0,0-.41-.28,1.29,1.29,0,0,0-1.66.35.76.76,0,0,0,0,.82,1,1,0,0,0,.4.28,1.28,1.28,0,0,0,1.66-.35A.76.76,0,0,0,69.17,71.46ZM42.05,91.09a.76.76,0,0,0,.18-.41.86.86,0,0,0-.48-.72,1.26,1.26,0,0,0-1.64.39.68.68,0,0,0,.29,1.12A1.28,1.28,0,0,0,42.05,91.09Z"/><path class="cls-1" d="M52.88,61a2.71,2.71,0,0,1,3.58,1.15,8.5,8.5,0,0,1,.8,2,4.82,4.82,0,0,1-.8,3.93c-.15.22-.29.44-.42.65a1.93,1.93,0,0,0-.14,1.59c.15.46.28.89.42,1.3a1.28,1.28,0,0,1-1.1,1.58,1.59,1.59,0,0,1-1.89-.91c-.32-1-.63-1.94-.94-2.92a4.05,4.05,0,0,1,.5-3.42,4.07,4.07,0,0,0,.5-3.43C53.23,62.09,53.07,61.58,52.88,61Z"/><path class="cls-1" d="M12.12,88.15c.46,1.44.88,2.75,1.32,4.11a2.94,2.94,0,0,1-1,3.26,2.4,2.4,0,0,1-2.51.59A1.46,1.46,0,0,1,9,93.92c.47-.76.27-2-.74-2.14a1.44,1.44,0,0,1,.23-2.87l.27,0A13.53,13.53,0,0,0,12.12,88.15Z"/><path class="cls-1" d="M273.85,19.5c.71,2.21.81,5.17-1.92,5.45l-.23,0c-2.08.19-2.83.08-3.33-1.47-.64-2,2.32-3.32,4.73-3.84Z"/><path class="cls-1" d="M233.86,13.47a2.9,2.9,0,0,1,4-.24.91.91,0,0,1,.23.92,7.44,7.44,0,0,1-1.59,3,3,3,0,0,1-4,.16,1,1,0,0,1-.22-1A9.13,9.13,0,0,1,233.86,13.47Z"/><path class="cls-1" d="M201.11,27.26c-.31-.26-.59-.79-.35-1.11l1.29-1.72a3.49,3.49,0,0,1,4-.84,3.12,3.12,0,0,0,1,.19c.32,0,.64-.05,1-.06.71,0,1.17,0,1.3.28.2.46-.18,1-.47,1.46-.18.27-.49.34-.82.48a16.46,16.46,0,0,1-6.44,1.4C201.38,27.35,201.28,27.39,201.11,27.26Z"/><path class="cls-1" d="M99.63,42.58a2.42,2.42,0,0,1,0,2,8.86,8.86,0,0,1-1.07,1.59c-1,1.33-3.69,2.1-4.09.55A2.37,2.37,0,0,1,95,44.62a18.43,18.43,0,0,0,1.38-2.2c1.16-1.93,1.49-2,2.58-.85A2.8,2.8,0,0,1,99.63,42.58Z"/><path class="cls-1" d="M95.39,39a2.31,2.31,0,0,1-2,2.68l-.92.2a2.85,2.85,0,0,1-1.56,0,2.52,2.52,0,0,1-1.8-2.29c-.17-1.63,0-2.22,2-2.67a3.78,3.78,0,0,1,2.33,0A2.8,2.8,0,0,1,95.39,39Z"/><path class="cls-1" d="M399.89,66.38a1.94,1.94,0,0,1-1.46,0,3.83,3.83,0,0,1-1.5-1.13c-1.29-1.8,2.25-2.55,4.47-1.57,1.24.56,1.66.74,1.49,1.33a2,2,0,0,1-1.79,1.33A6.91,6.91,0,0,0,399.89,66.38Z"/><path class="cls-1" d="M376.5,55.46c1.18-1.42,4.53-1.91,4.37-.19,0,.09,0,.18,0,.28A3.88,3.88,0,0,1,377.78,58a2.87,2.87,0,0,1-1.23.05C375.37,57.76,375.8,56.3,376.5,55.46Z"/><path class="cls-1" d="M295,26.39c-1.49-.05-.41-1.86,1-2.18,1.59-.35,1.09.35,2.58,0a1.27,1.27,0,0,1,.9.23c.68.4,1.23,1.52.43,1.7C297.68,26.93,297.56,26.64,295,26.39Z"/><path class="cls-1" d="M212.57,22.83a3.26,3.26,0,0,1-4.28-1.93c0-.13,0-.27-.07-.4a1.61,1.61,0,0,1,0-.44c.14-1,2.08-1.11,3.13-.64l1.35.6c.95.43,1.63,1.72.82,2.32a5.49,5.49,0,0,1-.63.34A2.1,2.1,0,0,1,212.57,22.83Z"/><path class="cls-1" d="M183.68,19.09c2.07-.85,3.13,1.64,1.91,3.28A2.32,2.32,0,0,1,183,23.44a1.44,1.44,0,0,1-.75-.81,2.63,2.63,0,0,1,1.15-3.41Z"/><path class="cls-1" d="M79.1,57.94c-2.28.47-2.26-2.16,0-2.82a10,10,0,0,1,2-.38c1.93-.13,2.61,1.92.78,2.46-.73.21-1.52.36-2.29.62A2.77,2.77,0,0,1,79.1,57.94Z"/><path class="cls-1" d="M61,45.25c-1.89-.94-2.45-3.94-.26-3.73l.14,0a3.58,3.58,0,0,1,3,2.46,1.16,1.16,0,0,1-.27,1.2A2.34,2.34,0,0,1,61,45.25Z"/><path class="cls-1" d="M33.81,66a2.88,2.88,0,0,1-2-.17,3,3,0,0,1-1.35-1.28c-.81-1.74,2.22-2.39,4.17-1.47a5.44,5.44,0,0,0,.71.26c.89.29,1.27.7,1.12,1.22A2.1,2.1,0,0,1,34.44,66,4.52,4.52,0,0,0,33.81,66Z"/><path class="cls-1" d="M27.26,90.07c-.66.12-1-.32-1.49-.71a.24.24,0,0,0-.11-.06l-1.83-.82c-1-.46-1.62-1.7-.81-2.4a1.25,1.25,0,0,1,.34-.19,8.49,8.49,0,0,1,1.8-.47,2.59,2.59,0,0,1,2.94,1.5c.16.47.31,1,.48,1.47C28.81,89.1,28.13,89.91,27.26,90.07Z"/><path class="cls-1" d="M18.6,87.77a2.2,2.2,0,0,1-3.05.81,3.82,3.82,0,0,0-3.43-.43,1.91,1.91,0,0,1,.29-2,4.53,4.53,0,0,1,4-1.16,2.84,2.84,0,0,1,2.22,2.26A1,1,0,0,1,18.6,87.77Z"/><path class="cls-1" d="M40.71,58.3c.48-.15-.07-.19.39,0a3.81,3.81,0,0,1,1.51,1.14C43.9,61.25,41.41,62,39.2,61c-1.25-.55-1.67-.74-1.5-1.33a2,2,0,0,1,1.8-1.32A8.11,8.11,0,0,0,40.71,58.3Z"/><path class="cls-1" d="M381.59,65.54c-.5-1.56.16-2.82,1.32-2.52s1.56.65,1.65,1.54a2.45,2.45,0,0,0,.11.59,1.68,1.68,0,0,1-.13,1.45,1,1,0,0,1-1.37.53c-.42-.19-1.17-.3-1.25-.56S381.67,65.8,381.59,65.54Z"/><path class="cls-1" d="M333.88,33.91a3.63,3.63,0,0,1,.64,1.31,1.66,1.66,0,0,1-.67,1.64c-1.16.81-2.49,0-3-1.55q0-.09-.06-.21a1.7,1.7,0,0,1,.27-1.56,1.24,1.24,0,0,1,.52-.44,1.9,1.9,0,0,1,1.52.25A2.36,2.36,0,0,1,333.88,33.91Z"/><path class="cls-1" d="M322.14,17.83c-1.68-.06-.53-1.92,1.09-2.31a9.13,9.13,0,0,1,1-.19,2.93,2.93,0,0,1,1.25,0l.32.11c.88.36,1.2,1.29.44,1.8a3.68,3.68,0,0,1-1.3.51A10.15,10.15,0,0,1,322.14,17.83Z"/><path class="cls-1" d="M310.82,1.45a.84.84,0,0,1,0,.64,2.57,2.57,0,0,1-3.48,1,1.8,1.8,0,0,1-.67-.45c-.23-.33.08-.76.34-1.08A2.55,2.55,0,0,1,310.2.73,1.06,1.06,0,0,1,310.82,1.45Z"/><path class="cls-1" d="M311.35,28.57c-2,.44-3.57,0-3.16-1a2.1,2.1,0,0,1,2-1.34c.26,0,.49-.05.74-.1a3.32,3.32,0,0,1,1.9.06c.62.26.93.58.58,1.05s-.42.92-.75,1Z"/><path class="cls-1" d="M299.62,13.13c-.5-1.55.16-2.81,1.32-2.51s1.56.65,1.65,1.54a2.45,2.45,0,0,0,.11.59,1.68,1.68,0,0,1-.13,1.45,1,1,0,0,1-1.37.52c-.42-.18-1.17-.29-1.25-.55S299.78,13.65,299.62,13.13Z"/><path class="cls-1" d="M273.85,19.5c-.24-.75-.7-1.6-.94-2.43a2.07,2.07,0,0,1,.23-1.86,1.5,1.5,0,0,1,2.06-.33,2.19,2.19,0,0,1,.72,1.1,4.89,4.89,0,0,1,0,2.22C275.84,19.05,274.93,19.53,273.85,19.5Z"/><path class="cls-1" d="M155.17,30.7c-1.72.38-3.77-.52-2.58-1.62l0,0a5.35,5.35,0,0,1,4-.89c1.72.44.46,2.12-1.28,2.51Z"/><path class="cls-1" d="M74,43.37c-.68-1.55-3.8-.85-3.47.77C70.9,46,74.76,45.1,74,43.37Z"/><path class="cls-1" d="M52.88,61c-1,.23-2.2.66-3.34.86a3.64,3.64,0,0,1-2-.08c-.87-.37-1.15-1.27-.39-1.78a4,4,0,0,1,1.3-.52,10.16,10.16,0,0,1,2.82-.07A1.45,1.45,0,0,1,52.88,61Z"/><path class="cls-1" d="M32.39,83.63c-2.38.53-4.86-1.63-2.45-2a12.1,12.1,0,0,1,1.76-.13,1.77,1.77,0,0,1,.69.06,3.87,3.87,0,0,1,.48.26c.26.16.46.4.39.67a1.92,1.92,0,0,1-.33.78A1,1,0,0,1,32.39,83.63Z"/><path class="cls-1" d="M18.66,71.08c0,1.48-2.58.36-3-1.08a2.66,2.66,0,0,1-.11-.47,1.55,1.55,0,0,1,0-1,3.13,3.13,0,0,1,.23-.37,1.55,1.55,0,0,1,2.1-.36,2.19,2.19,0,0,1,.72,1.1A5,5,0,0,1,18.66,71.08Z"/><path class="cls-1" d="M389.47,63.57a1.3,1.3,0,0,1-.43-.11c-.61-.27-.91-.9-.45-1.33a1.31,1.31,0,0,1,1-.37,1.09,1.09,0,0,1,.43.11c.6.27.91.9.45,1.32A1.34,1.34,0,0,1,389.47,63.57Z"/><path class="cls-1" d="M410.83,63.44a1.55,1.55,0,0,1,.55-.43,1.53,1.53,0,0,1,.9,0,.81.81,0,0,1,.4,1.33.9.9,0,0,1-.3.28,1.56,1.56,0,0,1-1.27,0c-.57-.22-.75-.72-.34-1.12Z"/><path class="cls-1" d="M395.68,62.93a1.11,1.11,0,0,1-.44-.12c-.6-.27-.9-.9-.44-1.32a1.3,1.3,0,0,1,.94-.37,1,1,0,0,1,.43.11c.61.27.91.9.45,1.32A1.3,1.3,0,0,1,395.68,62.93Z"/><path class="cls-1" d="M399.05,55.57a1.45,1.45,0,0,1,.59.13c.57.25.83.83.42,1.24a1.34,1.34,0,0,1-.94.42,1.32,1.32,0,0,1-.55-.14c-.61-.27-1.05-.88-.57-1.3A1.67,1.67,0,0,1,399.05,55.57Z"/><path class="cls-1" d="M35.27,49.57a6.56,6.56,0,0,1,1.11.39c.17.23-.37.68-.53,1a1.28,1.28,0,0,1-1.66.35,1.07,1.07,0,0,1-.4-.28.76.76,0,0,1,0-.82A1.18,1.18,0,0,1,35.27,49.57Z"/><path class="cls-1" d="M409.88,71a1,1,0,0,1-.4-.28.74.74,0,0,1,0-.82,1.28,1.28,0,0,1,1.66-.35,1.07,1.07,0,0,1,.4.28.74.74,0,0,1,0,.82A1.28,1.28,0,0,1,409.88,71Z"/><path class="cls-1" d="M140.75,24.88a.76.76,0,0,1-.18.41,1.29,1.29,0,0,1-1.64.39.84.84,0,0,1-.48-.72.76.76,0,0,1,.18-.41,1.27,1.27,0,0,1,1.64-.39A.84.84,0,0,1,140.75,24.88Z"/><path class="cls-1" d="M282.65,9.78a.77.77,0,0,1,.19-.41A1.27,1.27,0,0,1,284.48,9a.86.86,0,0,1,.48.72.84.84,0,0,1-.18.41,1.3,1.3,0,0,1-1.65.39A.88.88,0,0,1,282.65,9.78Z"/><path class="cls-1" d="M25.7,51.72a1.29,1.29,0,0,1,.44.11c.6.27.9.9.45,1.32a1.35,1.35,0,0,1-.89.38,1.49,1.49,0,0,1-.56-.14c-.61-.28-1-.87-.51-1.28A1.7,1.7,0,0,1,25.7,51.72Z"/><path class="cls-1" d="M376.38,64.42a1.3,1.3,0,0,1,.43.11c.61.27.91.9.45,1.33a1.22,1.22,0,0,1-1.44.23c-.61-.27-1-.87-.51-1.28A1.68,1.68,0,0,1,376.38,64.42Z"/><path class="cls-1" d="M109.2,26.68a1.6,1.6,0,0,1-.55.44,1.44,1.44,0,0,1-.92,0,.9.9,0,0,1-.1-1.61,1.44,1.44,0,0,1,1.07-.07C109.39,25.66,109.65,26.19,109.2,26.68Z"/><path class="cls-1" d="M353.3,19.48a.88.88,0,0,1,.5,1.56,1.38,1.38,0,0,1-.78.24,1.24,1.24,0,0,1-.43-.11c-.61-.27-.91-.9-.45-1.33A1.36,1.36,0,0,1,353.3,19.48Z"/><path class="cls-1" d="M359.3,36.58a1.07,1.07,0,0,1,.4.28.74.74,0,0,1,0,.82,1.28,1.28,0,0,1-1.66.35,1,1,0,0,1-.4-.28.74.74,0,0,1,0-.82A1.28,1.28,0,0,1,359.3,36.58Z"/><path class="cls-1" d="M346.41,39.63a.84.84,0,0,1,.31-.28,1.41,1.41,0,0,1,1-.07.81.81,0,0,1,.41,1.33,1,1,0,0,1-.31.28,1.44,1.44,0,0,1-1.05.07A.81.81,0,0,1,346.41,39.63Z"/><path class="cls-1" d="M348.59,15.47a1.06,1.06,0,0,1,.43.12c.61.26.91.89.45,1.32a1.3,1.3,0,0,1-.94.37,1,1,0,0,1-.43-.11c-.61-.27-.91-.9-.46-1.32A1.34,1.34,0,0,1,348.59,15.47Z"/><path class="cls-1" d="M361.57,49.17a1.31,1.31,0,0,1-1.66.42.88.88,0,0,1-.48-.72.84.84,0,0,1,.18-.41,1.3,1.3,0,0,1,1.65-.39.86.86,0,0,1,.48.72A.66.66,0,0,1,361.57,49.17Z"/><path class="cls-1" d="M335.47,27.81a.9.9,0,0,1,.19-.41A1.27,1.27,0,0,1,337.3,27a.85.85,0,0,1,.48.71.8.8,0,0,1-.18.41,1.28,1.28,0,0,1-1.65.39A.86.86,0,0,1,335.47,27.81Z"/><path class="cls-1" d="M330.48,29.9a1.49,1.49,0,0,1-.59-.13c-.57-.25-.82-.83-.42-1.24a1.36,1.36,0,0,1,.94-.42,1.32,1.32,0,0,1,.56.14c.61.27,1,.88.56,1.3A1.67,1.67,0,0,1,330.48,29.9Z"/><path class="cls-1" d="M319.23,16.53a1.28,1.28,0,0,1-1-.34,6.13,6.13,0,0,1-.58-.42.76.76,0,0,1,0-1,1.13,1.13,0,0,1,1.53-.44,4.59,4.59,0,0,1,1,.56C320.92,15.44,320.16,16.33,319.23,16.53Z"/><path class="cls-1" d="M141.84,11.72a1,1,0,0,1-.4-.27.74.74,0,0,1,0-.82,1.28,1.28,0,0,1,1.66-.35,1,1,0,0,1,.4.28.75.75,0,0,1,0,.82A1.29,1.29,0,0,1,141.84,11.72Z"/><path class="cls-1" d="M305.48,17.53a.81.81,0,0,1,.3-.28,1.39,1.39,0,0,1,1.05-.07.81.81,0,0,1,.4,1.33.93.93,0,0,1-.31.28,1.46,1.46,0,0,1-1,.07A.8.8,0,0,1,305.48,17.53Z"/><path class="cls-1" d="M292.07,25.09a1.28,1.28,0,0,1-1-.34,5.13,5.13,0,0,1-.58-.43.76.76,0,0,1,0-1,1.14,1.14,0,0,1,1.53-.43,5.2,5.2,0,0,1,1,.52C293.75,24,293,24.88,292.07,25.09Z"/><path class="cls-1" d="M268.71,11.13a1.52,1.52,0,0,1,.55-.42,1.45,1.45,0,0,1,.9,0,.81.81,0,0,1,.41,1.33,1,1,0,0,1-.31.28,1.53,1.53,0,0,1-1.26,0c-.57-.22-.76-.72-.35-1.12Z"/><path class="cls-1" d="M250.57,21.43a1.56,1.56,0,0,1-.56.42,1.42,1.42,0,0,1-.89,0,.81.81,0,0,1-.41-1.33.93.93,0,0,1,.31-.28,1.53,1.53,0,0,1,1.26,0c.57.22.75.72.35,1.12Z"/><path class="cls-1" d="M222.39,14.09a1.3,1.3,0,0,1-1.66.41.86.86,0,0,1-.48-.72.8.8,0,0,1,.18-.4,1.27,1.27,0,0,1,1.65-.39.82.82,0,0,1,.47.71A.67.67,0,0,1,222.39,14.09Z"/><path class="cls-1" d="M204.85,16.63a1.36,1.36,0,0,1-.6-.14c-.57-.25-.82-.82-.41-1.23a1.31,1.31,0,0,1,.93-.43,1.33,1.33,0,0,1,.56.15c.61.27,1,.88.57,1.29A1.71,1.71,0,0,1,204.85,16.63Z"/><path class="cls-1" d="M193.46,11.39a1.09,1.09,0,0,1-.43-.11c-.6-.27-.91-.9-.45-1.32a1.32,1.32,0,0,1,.95-.38,1.11,1.11,0,0,1,.43.12c.6.26.91.89.45,1.32A1.33,1.33,0,0,1,193.46,11.39Z"/><path class="cls-1" d="M155.5,16.43a1.11,1.11,0,0,1-.43-.12c-.61-.27-.91-.9-.45-1.32a1.31,1.31,0,0,1,.95-.37,1.09,1.09,0,0,1,.43.11c.6.27.9.9.45,1.32A1.34,1.34,0,0,1,155.5,16.43Z"/><path class="cls-1" d="M174.76,16.48a.93.93,0,0,1,.31-.28,1.41,1.41,0,0,1,1-.07.81.81,0,0,1,.41,1.33,1,1,0,0,1-.31.28,1.44,1.44,0,0,1-1.05.07A.81.81,0,0,1,174.76,16.48Z"/><path class="cls-1" d="M172.81,23.68a1.15,1.15,0,0,1,.32-1.52l.06-.05a5.68,5.68,0,0,1,.59-.49,1.41,1.41,0,0,1,1.28,0c.67.28.89.67.5,1.19a2.14,2.14,0,0,1-1.5,1.1C173.62,24,173.06,24,172.81,23.68Z"/><path class="cls-1" d="M172.52,26a1.64,1.64,0,0,1-1.72.33.36.36,0,0,1-.14-.48,2.23,2.23,0,0,1,.83-1.3c1-.7,1.76-.53,1.74.3a1.12,1.12,0,0,1-.32.82Z"/><path class="cls-1" d="M128,27.86c-.07-.21.08-.47.45-.77a4.51,4.51,0,0,1,.59-.49,1.4,1.4,0,0,1,1.29,0c.67.28.88.67.5,1.19a3.48,3.48,0,0,1-.86.89A1.41,1.41,0,0,1,128,27.86Z"/><path class="cls-1" d="M125.73,30.66a1.12,1.12,0,0,1,1-1.38l.07,0c.85-.19,1.79.3,1.66,1a1.46,1.46,0,0,1-.9,1.06A1.3,1.3,0,0,1,125.73,30.66Z"/><path class="cls-1" d="M124.05,29.86a1.24,1.24,0,0,1-1-.34,5.06,5.06,0,0,1-.58-.42.75.75,0,0,1,0-1,1.13,1.13,0,0,1,1.53-.44,4.45,4.45,0,0,1,1,.56C125.74,28.77,125,29.66,124.05,29.86Z"/><path class="cls-1" d="M117.08,11.67a1.4,1.4,0,0,1-.59-.5.82.82,0,0,1,.07-.69,1.28,1.28,0,0,1,1.65-.34,1,1,0,0,1,.41.28.81.81,0,0,1-.1,1,1,1,0,0,1-1.36.3Z"/><path class="cls-1" d="M98.1,32.66a1.09,1.09,0,0,1-.43-.11c-.61-.27-.91-.9-.45-1.32a1.32,1.32,0,0,1,1-.38,1.11,1.11,0,0,1,.43.12c.6.27.91.9.45,1.32A1.33,1.33,0,0,1,98.1,32.66Z"/><path class="cls-1" d="M86.72,31.45A.76.76,0,0,1,86.9,31a1.3,1.3,0,0,1,1.65-.39.82.82,0,0,1,.47.72.76.76,0,0,1-.18.41,1.29,1.29,0,0,1-1.64.39A.85.85,0,0,1,86.72,31.45Z"/><path class="cls-1" d="M81.25,38.65a1.52,1.52,0,0,1-.55.42,1.45,1.45,0,0,1-.9,0,.81.81,0,0,1-.4-1.33.9.9,0,0,1,.3-.28,1.56,1.56,0,0,1,1.27,0c.57.22.75.72.35,1.12Z"/><path class="cls-1" d="M77.34,48.27a1.35,1.35,0,0,1,.59.14c.57.25.83.82.42,1.23a1.2,1.2,0,0,1-1.5.28c-.61-.27-1-.88-.56-1.29A1.67,1.67,0,0,1,77.34,48.27Z"/><path class="cls-1" d="M66.5,39.35a1.36,1.36,0,0,1-.54-.42.73.73,0,0,1,0-.75,1.28,1.28,0,0,1,1.65-.34,1.09,1.09,0,0,1,.41.27.78.78,0,0,1,0,.82A1.1,1.1,0,0,1,66.5,39.35Z"/><path class="cls-1" d="M50.57,50.7a1.4,1.4,0,0,1-.59-.5.82.82,0,0,1,.07-.69,1.28,1.28,0,0,1,1.65-.34,1.09,1.09,0,0,1,.41.27.83.83,0,0,1-.1,1,1,1,0,0,1-1.36.29Z"/><path class="cls-1" d="M27.91,69.22a1.37,1.37,0,0,1-1.69.41.89.89,0,0,1-.54-.75.81.81,0,0,1,.19-.41,1.26,1.26,0,0,1,1.64-.39.9.9,0,0,1,.48.63A.76.76,0,0,1,27.91,69.22Z"/><path class="cls-1" d="M19.49,65.08a.76.76,0,0,1,.18-.41,1.27,1.27,0,0,1,1.65-.39.85.85,0,0,1,.47.66.81.81,0,0,1-.22.52A1.2,1.2,0,0,1,20,65.9,1,1,0,0,1,19.49,65.08Z"/><path class="cls-1" d="M6.26,83.77A1.53,1.53,0,0,1,4.63,84a.48.48,0,0,1-.23-.61,3.06,3.06,0,0,1,.17-.59,2.05,2.05,0,0,1,1.55-1,.62.62,0,0,1,.83.58,1.47,1.47,0,0,1-.35,1.09Z"/><path class="cls-1" d="M2.18,95.09a1.4,1.4,0,0,1-.59-.5.8.8,0,0,1,.07-.68,1.27,1.27,0,0,1,1.65-.35,1,1,0,0,1,.41.28.81.81,0,0,1-.1,1,1,1,0,0,1-1.36.3Z"/><path class="cls-1" d="M2,100.27a.93.93,0,0,1-.31.28,1.46,1.46,0,0,1-1,.07A.81.81,0,0,1,.2,99.29.92.92,0,0,1,.51,99a1.37,1.37,0,0,1,1-.07A.81.81,0,0,1,2,100.27Z"/><path class="cls-1" d="M25.25,62a1,1,0,0,1,.22-.56A1.18,1.18,0,0,1,27,61.11a.92.92,0,0,1,.55.7.87.87,0,0,1-.22.52,1.26,1.26,0,0,1-1.59.49A1,1,0,0,1,25.25,62Z"/><path class="cls-1" d="M231.13,94.5c-.22-.69-1.11-.36-.66-1,.84-1.12-1.12-.45-.35-1.48.37-.49,2.07,1,2.47,1.48s.47.29,1.06.44c1.17.29,1.81.49,1.39-1.92-.11-.37.5.56.94.46a2.29,2.29,0,0,0,1.39-1c.45-.6.36-1.09-.78-1.34a1,1,0,0,0-.72.09,2.47,2.47,0,0,0-.91.84c0,.09-.08.2-.12.32a1.89,1.89,0,0,1-.8,1.16,2.17,2.17,0,0,1-2.91-1.17,5.59,5.59,0,0,1-.29-1.08,1.59,1.59,0,0,1,0-.81,2.85,2.85,0,0,1,1.53-1.34,31.38,31.38,0,0,1,4.37-1c1.43-.27,3.19.91,4.61,1.27a1.28,1.28,0,0,0,.67,0c1.79-.53,2-2.83,3.81-3.24a3.68,3.68,0,0,0,2.26-1.42l.73-1.1a5.92,5.92,0,0,0,.8-5.08l-.6-1.85a4.61,4.61,0,0,1,.24-3.83,9.4,9.4,0,0,1,1-1.37c1.15-1.28,3.58-1.43,4.09.11q.09.28.15.57a6.81,6.81,0,0,1-.69,5.07l-.15.23a2.3,2.3,0,0,0-.21,1.93,3.27,3.27,0,0,0,1.94,1.93c1.89.78,3.71,1.64,5.59,2.44,1.34.57,3.93.25,3.54-1-.92-4-2.17-7.84-3.42-11.73-.21-.65,1.3-.75,2-.44a27.8,27.8,0,0,0,2.8,1c.61.28,1.28.36,1.68.83a2.54,2.54,0,0,0,1.31.73c.89.22,1.34-.26,1.39-1.33a1.63,1.63,0,0,1,1.32-1.5,1.72,1.72,0,0,1,2,1c.22.7.45,1.41.65,2,.09.26.5.44.92.63s.83.37,1.08,0l0,0a2.88,2.88,0,0,0,.71-2.1,2.05,2.05,0,0,0-.94-1.77c-1.54-.89-3.91-1.53-2.64-2.67s3.35-.94,4.14-2.25a1.78,1.78,0,0,0,0-1.45,4,4,0,0,0-1.95-2.08c-1.27-.71-1.85-2.27-.43-2.74a7.29,7.29,0,0,1,.74-.18,6,6,0,0,1,3.85.5c.72.35,1.48.75,2.34,1.16,1.15.56,2.17,1.29,2.32,2.4a4.77,4.77,0,0,0,.84,2.44c.46.57,1.21,1.23,2,1a1,1,0,0,0,.42-.3,1.72,1.72,0,0,0,.32-1.42,5.13,5.13,0,0,1,.72-3.6c.2-.29.4-.57.6-.87a6.22,6.22,0,0,1,3.19-2.6c1.42-.46,2.9-.72,4.37-1.05a7.58,7.58,0,0,0,4-2,20.09,20.09,0,0,0,1.8-2.5,2.58,2.58,0,0,0,.44-1.24c.15-1.77,2.35-2.68,4.27-1.9l1.06.42a4.5,4.5,0,0,0,5.18-1.21l1.52-2a1.9,1.9,0,0,1,1.47-1,1.82,1.82,0,0,1,.46.06,1.49,1.49,0,0,1,1.17,1.27c0,.33.08.72.13,1a1.5,1.5,0,0,0,.35.74,1.66,1.66,0,0,0,2.44-.06A2.67,2.67,0,0,0,321.4,45l-1.17-3.63c-.11-.36-.23-.73-.31-1.11a2.92,2.92,0,0,1,.7-2.37c1.44-1.93,4.64-2.77,5.08-.52.05.24.09.48.14.72a4.74,4.74,0,0,0,2.22,2.68,3.25,3.25,0,0,0,.65.38c3,1.55,6.24,2.77,9.56,4.25a6,6,0,0,0,1.36.51,1.74,1.74,0,0,0,1.86-1.17,1.37,1.37,0,0,0-.14-1.13,2.06,2.06,0,0,1-.25-.49A2,2,0,0,0,340,42a8,8,0,0,1-3.1-2.14,7.76,7.76,0,0,0-2.8-2.53,4.37,4.37,0,0,1-1.65-1.17,6.13,6.13,0,0,1-1.14-3.34c-.07-.92-.42-2.43.65-2.66L337.1,29a2.65,2.65,0,0,1,3.14,1.51,2.13,2.13,0,0,1,.1.55c.08.91.59,1.3,1.65,1.57.75.11,1.25-.55,2-1.55a1.86,1.86,0,0,1,2.12-.81c.81.36,1.06,1.14,1.37,1.88.61,1.43,2.5.83,3.56-.4a4.72,4.72,0,0,1,2.5-1.41l9.2-2.06c1.43-.32,3.18.84,4.59,1.2a5.36,5.36,0,0,0,4-.89,1.82,1.82,0,0,0,.74-1.18c0-.59.28-1.69.92-1.41,2.08.92,4.07,1.59,5.82,2.59.65.29-.25,1.16-1,1.32l-1.8.4a3.12,3.12,0,0,0-1.88,1.18c-.59.82-.69,1.14-.47,1.64a15,15,0,0,0,.69,1.39c.43.73,1.06.88,2.25.82a6.51,6.51,0,0,0,1.52-.24,4,4,0,0,0,2-1.14,1.68,1.68,0,0,0,.25-1.66c-.11-.35-.23-.71-.35-1.07-.25-.79.69-1.1,1.21-1.79.32-.43.64-.87,1-1.3a3.38,3.38,0,0,1,3.92-.74l.84.38a1.82,1.82,0,0,1,1,2.73,1.36,1.36,0,0,0,.86,2.17,3.35,3.35,0,0,0,3.38-1.25A13.89,13.89,0,0,1,394.91,29c1-.61,2.42-.84,2.88-1.78a2.06,2.06,0,0,0,.17-1.18c-.08-.59-.45-1-.42-1.62.06-1.22,1.85-1.83,3.27-2.15l6.48-1.45a1.47,1.47,0,0,1,1.8.9.7.7,0,0,1,0,.63,2.86,2.86,0,0,1-1.64.95l-1.86.41c-2,.45-4.31,1.53-4.11,3.26a7.84,7.84,0,0,0,.77,2.21c.6,1.33,2.57,3.31,2.9,1.91a1.25,1.25,0,0,0,0-.35c.08-.85-.5-1.55-.09-2.48a7.18,7.18,0,0,1,.28-.69,1.46,1.46,0,0,1,2.35-.55,12.32,12.32,0,0,1,.93,1.66c1.13,1.87,1.4,1.81,3.76,1.28l2.49-.55a4.8,4.8,0,0,0,2.82-1.74c2.08-2.41,3.07-2.63,6.23-1.67,1.73.44,3.42-.41,3-1.87l-.05-.17c-.5-1.55,0-2.22,1.9-2.92,1.58-.63,3.49-.22,4.16.74.51.61.51,1.34.89,2,.11.18.14.3.34.42a3.52,3.52,0,0,0,2.44.38l3.87-.86a3.31,3.31,0,0,0,1.88-1c1.08-1.22,3-2.14,3.74-.76a5.08,5.08,0,0,0,1.39,2,3.4,3.4,0,0,0,2.54.1c1.11-.25,2.37-.66,2.55-1.61a.75.75,0,0,0,0-.2c.24-2.68,2.69-3.19,5.53-1.93l4,1.78a2.21,2.21,0,0,1,1.24,1.31c.15.45.29.88.43,1.32.23.71-.58,1.38-1.19,1.91a8.32,8.32,0,0,1-1.49,1.05c-.54.3-.38.8-.27,1.17a2.32,2.32,0,0,0,.73,1.1,1.55,1.55,0,0,0,2.09-.37,2.35,2.35,0,0,0,.3-.48,1.59,1.59,0,0,0,0-.81,6.92,6.92,0,0,0-.49-1.57c-.32-.76.58-1.07,1.1-1.76a14.26,14.26,0,0,1,6.92-4l4.21-.94a3.43,3.43,0,0,1,1.65.15c.45.16.19.43,0,.81a3.78,3.78,0,0,1-.48.83,2.08,2.08,0,0,1-.93.45c-1.19.4-2.7.53-4.15.85a4.61,4.61,0,0,0-.77.24c-1.24.51-.93,1.87-.7,3,.09.42.17.84.28,1.26.54,1.86,3.37,1.91,4.62.31.33-.42.63-.87.93-1.31a4,4,0,0,1,4.66-1.13h0a3.63,3.63,0,0,0,2.09.13c1.95-.43,4.06.51,4.59,2.13,0,.15.09.29.13.43s.5.44.92.63.83.37,1.08,0l0,0a2.9,2.9,0,0,0,.71-2.11,2.06,2.06,0,0,0-.89-1.73c-1.53-.95-4.3-1.85-2.69-2.7.92-.44,1.91-.85,2.8-1.35,2.27-1.29,3.2-1.16,5.86-1.75a3.44,3.44,0,0,1,2.91.18,2.51,2.51,0,0,1,1.33,3c-.83,1.37-1.86,2.65-2.81,4-.64.89-.4,2.63.84,2.58l.33,0c.32,0,.64-.08,1-.13,3-.52,4.37-3.71,7.42-4h.08c1.51.05,1.72.94,1.82,1.82a3,3,0,0,1-.46,2,2.46,2.46,0,0,0,1.28,3.58l.08,0c1.42.63,3.47.27,3.6-1.06,0-1.11-.75-2.34-1.17-3.63s2.27-1.65,3.61-1.06l1.39.62a4.05,4.05,0,0,1,2,2l.08.15a2.82,2.82,0,0,0,1.43,1.18l.68.32c1.48.71.72,2.76.37,4.16,0,.11,2.5,1.76,2.65.23-.08.85-.22-.28-.05-.87.33-1.18-.5-1.55-1.66-.74l-.07,0c-.93.72,1.27,2.52,1.78,1.56,1-1.34.7-1.87.94-2.2l1.11-1.48a3,3,0,0,1,3.26-.7,2.61,2.61,0,0,0,2.74-.6L532,30c.83-.83,2.38-1.17,3-.24a9.32,9.32,0,0,1,1,2.94c-1.18,4.1-1.32,5.87-.26,6.32l.26.11c2.12.91,0,3.56,1.57,2.06a3.65,3.65,0,0,1,2.53-1,3.26,3.26,0,0,1,1.41.31l.11,0c1.67.74,4.33,1,5.46-.26a4.09,4.09,0,0,1,1.84-1.11c1.12-.32,2.37-.6,3.24.45,1.33,1.92-.79,3.22,1.84,2.88a5.12,5.12,0,0,1,2,0c.75.2,2.12-1.41,2.33-.78.38,1.19.13.5-.79,1.46-.67.71-.78,1-1.41,1.72-.87,1,1.59.84,2.12,2l.14.28a2.91,2.91,0,0,0,1.27,1.06c1.62.83,4.05.49,3,1.83l-1.48,2c-.25.33-1,.22-1.33.29a1.46,1.46,0,0,0-1.58-1.59,6.61,6.61,0,0,0-1.46,0,5.82,5.82,0,0,0-2.6.52l-.06,0c-.76.51-.48,1.41.39,1.78a3.55,3.55,0,0,0,2,.08c1.13-.2,2.31-.63,3.34-.86.09,1.37,1.33,1.93,2.75,1.89,2.28-.06,5.52-.46,6.12,1.38a.06.06,0,0,0,0,0c.08.26.5.44.91.63s.83.37,1.08,0l.21-.23a2.15,2.15,0,0,0,.55-1.68A2.12,2.12,0,0,0,569.26,52c-1-.1-2.59-.63-2.08-1.31.59-1,1.34-.9,2.06-1.8s2.43-1.52,3.16-.72a2,2,0,0,1,.24.39,8.76,8.76,0,0,1,1,2.35,2.73,2.73,0,0,0,.42.79c.61.77,1.86.24,2.51-.51.92-1,2.66-1.42,3.5-.34.46.58.83,1.21,1.31,1.77.94,1.1,2,2.88,1.21,4.06a1.63,1.63,0,0,0-.22,1.43c.23.7.45,1.4.68,2.1A5,5,0,0,0,585.56,63a5,5,0,0,1,2.49,2.76c1,3,2,6,2.92,9.08.25.78.92,1.74,1.92,1.52A2.91,2.91,0,0,0,594,75.24a1.72,1.72,0,0,0,.06-1.1c0-.29-.11-.6-.13-.91-.13-1.31,1.79-1.59,3.12-.88l.73.4a2.17,2.17,0,0,1,1,3,1.24,1.24,0,0,0,.46,1.73c1.2.5,2.73-.1,4.11-.07s2,1.22,2.35,2.3l.52,1.61c.34,1.05.82,2.14,2.12,2,2.09-.16,4.13-1.82,6-1l.72.32A3.73,3.73,0,0,1,616.7,84c1.08,1.63,1.27,3.36,1.72,4.91a4.27,4.27,0,0,1-.54,3.72c-.61.82-.57,1-.3,1.92ZM553,44.92c-1.51-.68-2,1.16-1.57,2.54.52,1.63.57,1.27,1.09,2.9,0,.12.24.21.48.3a2.1,2.1,0,0,0,1.46.19c1-.36.9-1.63.62-2.5-.61-1.89-.23-1-.83-2.88C554.17,45.21,553.42,45.1,553,44.92ZM242.63,93.11c1.87.85,4.7.22,4-1.46a2.34,2.34,0,0,0-.41-.63c-.93-1.07-2.86-1.16-4.38-.77a2.81,2.81,0,0,0-.69.25C239.92,91.15,241.36,92.53,242.63,93.11ZM453,25c1.95-.29,2.73,2.16.87,2.71C451.8,28.37,450.84,25.37,453,25Zm-21.69,3.42c0,.43.57.71,1,1a.91.91,0,0,0,.59.17l3-.66c.33-.08.5-.67.75-1,.39-.53-.48-1.11-1.2-1.27-1.35-.29-3.36.33-4,1.42A1,1,0,0,0,431.31,28.46ZM573.83,60.74a.73.73,0,0,0-.18.41.82.82,0,0,0,.47.71,1.27,1.27,0,0,0,1.65-.39.8.8,0,0,0,.18-.4.86.86,0,0,0-.48-.72A1.26,1.26,0,0,0,573.83,60.74ZM398.93,34c.38-.47.1-1.09-.5-1.36a1.07,1.07,0,0,0-.39-.1,1.33,1.33,0,0,0-1,.38c-.46.42-.16,1,.44,1.32.13.06.27.15.4.22C398.23,34.64,398.57,34.49,398.93,34Zm-57.66,2.18a.91.91,0,0,0,.4.28,1.29,1.29,0,0,0,1.66-.34.77.77,0,0,0,0-.83,1,1,0,0,0-.4-.27,1.29,1.29,0,0,0-1.66.34A.74.74,0,0,0,341.27,36.22ZM307.47,54a1.07,1.07,0,0,0,.4.28,1.29,1.29,0,0,0,1.66-.35.74.74,0,0,0,0-.82.91.91,0,0,0-.4-.28,1.28,1.28,0,0,0-1.66.35A.76.76,0,0,0,307.47,54ZM281.28,67.22a1.07,1.07,0,0,0-.4-.28,1.28,1.28,0,0,0-1.66.35.74.74,0,0,0,0,.82,1,1,0,0,0,.4.28A1.28,1.28,0,0,0,281.3,68,.76.76,0,0,0,281.28,67.22ZM254.16,86.84a.81.81,0,0,0,.19-.41.85.85,0,0,0-.48-.71,1.27,1.27,0,0,0-1.65.39.73.73,0,0,0-.18.41.85.85,0,0,0,.48.71A1.26,1.26,0,0,0,254.16,86.84Z"/><path class="cls-1" d="M265,56.77a2.69,2.69,0,0,1,3.57,1.15,8,8,0,0,1,.8,2,4.84,4.84,0,0,1-.8,3.94c-.15.22-.29.44-.41.65a1.87,1.87,0,0,0-.15,1.58l.42,1.31A1.28,1.28,0,0,1,267.34,69a1.6,1.6,0,0,1-1.9-.91c-.31-1-.62-1.94-.93-2.92a4.08,4.08,0,0,1,.49-3.42,4.07,4.07,0,0,0,.5-3.43C265.35,57.85,265.18,57.33,265,56.77Z"/><path class="cls-1" d="M224.23,83.91c.47,1.44.89,2.75,1.32,4.11a2.92,2.92,0,0,1-1,3.25,2.41,2.41,0,0,1-2.51.6,1.46,1.46,0,0,1-.92-2.19c.46-.76.27-2-.75-2.14a1.45,1.45,0,0,1,.24-2.88h.26A14.4,14.4,0,0,0,224.23,83.91Z"/><path class="cls-1" d="M486,15.25c.72,2.21.81,5.18-1.91,5.46l-.24,0c-2.08.19-2.82.08-3.32-1.48-.65-2,2.32-3.31,4.72-3.83Z"/><path class="cls-1" d="M442.8,9.23a2.9,2.9,0,0,1,4-.24.9.9,0,0,1,.22.92,7.28,7.28,0,0,1-1.59,3,3,3,0,0,1-4,.17,1,1,0,0,1-.22-1A9,9,0,0,1,442.8,9.23Z"/><path class="cls-1" d="M413.23,23c-.32-.26-.59-.79-.36-1.1l1.3-1.73a3.49,3.49,0,0,1,4-.83,3.23,3.23,0,0,0,1,.19c.32,0,.64-.05,1-.06.72,0,1.17,0,1.3.28s-.17,1-.46,1.46c-.18.27-.49.34-.82.47a16.65,16.65,0,0,1-6.45,1.41C413.49,23.11,413.4,23.15,413.23,23Z"/><path class="cls-1" d="M311.74,38.34a2.35,2.35,0,0,1,0,2,9.06,9.06,0,0,1-1.06,1.6c-1.05,1.33-3.69,2.1-4.09.55a2.36,2.36,0,0,1,.54-2.08,20.59,20.59,0,0,0,1.38-2.19c1.16-1.93,1.49-2,2.57-.85A2.67,2.67,0,0,1,311.74,38.34Z"/><path class="cls-1" d="M307.5,34.79a2.3,2.3,0,0,1-2,2.67l-.92.21a2.88,2.88,0,0,1-1.57,0,2.52,2.52,0,0,1-1.8-2.28c-.17-1.63,0-2.22,2-2.67a3.85,3.85,0,0,1,2.33,0A2.81,2.81,0,0,1,307.5,34.79Z"/><path class="cls-1" d="M612,62.14a2,2,0,0,1-1.45,0A3.9,3.9,0,0,1,609,61c-1.29-1.8,2.26-2.56,4.47-1.57,1.25.55,1.66.74,1.5,1.33a2,2,0,0,1-1.8,1.33A7,7,0,0,0,612,62.14Z"/><path class="cls-1" d="M588.61,51.22c1.19-1.43,4.54-1.92,4.38-.19,0,.09,0,.18,0,.28a3.86,3.86,0,0,1-3,2.42,3,3,0,0,1-1.23.05C587.48,53.51,587.91,52.05,588.61,51.22Z"/><path class="cls-1" d="M507.1,22.14c-1.5-.05-.42-1.85,1-2.17s1.09.34,2.58,0a1.25,1.25,0,0,1,.91.23c.67.39,1.22,1.52.42,1.7C509.79,22.68,509.67,22.4,507.1,22.14Z"/><path class="cls-1" d="M424.69,18.59a3.27,3.27,0,0,1-4.29-1.93,3,3,0,0,1-.06-.4,1.6,1.6,0,0,1,0-.44c.15-1,2.08-1.11,3.14-.64l1.34.6c1,.42,1.63,1.72.82,2.32a6.31,6.31,0,0,1-.63.34Z"/><path class="cls-1" d="M395.79,14.85c2.07-.86,3.14,1.64,1.91,3.28a2.28,2.28,0,0,1-2.57,1.06,1.4,1.4,0,0,1-.76-.81A2.64,2.64,0,0,1,395.53,15Z"/><path class="cls-1" d="M291.22,53.7c-2.29.47-2.27-2.16-.05-2.82a8.8,8.8,0,0,1,2-.38c1.94-.13,2.61,1.92.78,2.46-.72.21-1.52.36-2.28.62Z"/><path class="cls-1" d="M273.06,41c-1.89-.94-2.44-3.94-.26-3.73h.14a3.61,3.61,0,0,1,3,2.46,1.15,1.15,0,0,1-.27,1.2A2.33,2.33,0,0,1,273.06,41Z"/><path class="cls-1" d="M245.92,61.79a2.92,2.92,0,0,1-3.29-1.45c-.82-1.74,2.22-2.4,4.17-1.47a5.89,5.89,0,0,0,.7.26c.9.29,1.27.7,1.13,1.22a2.1,2.1,0,0,1-2.07,1.35A4.48,4.48,0,0,0,245.92,61.79Z"/><path class="cls-1" d="M239.37,85.83c-.66.12-1-.32-1.49-.71l-.1-.07-1.84-.81c-1-.46-1.62-1.7-.8-2.4a1.08,1.08,0,0,1,.33-.2,10.1,10.1,0,0,1,1.8-.47,2.62,2.62,0,0,1,2.95,1.5c.15.48.31,1,.47,1.47C240.92,84.86,240.24,85.66,239.37,85.83Z"/><path class="cls-1" d="M230.71,83.53a2.18,2.18,0,0,1-3.05.8,3.82,3.82,0,0,0-3.43-.42,1.9,1.9,0,0,1,.29-2,4.52,4.52,0,0,1,4-1.16A2.81,2.81,0,0,1,230.77,83,.92.92,0,0,1,230.71,83.53Z"/><path class="cls-1" d="M252.82,54.06c.49-.16-.06-.19.39,0a3.81,3.81,0,0,1,1.51,1.14c1.29,1.79-1.19,2.55-3.41,1.56-1.24-.55-1.66-.74-1.49-1.33a2,2,0,0,1,1.79-1.33A6.86,6.86,0,0,0,252.82,54.06Z"/><path class="cls-1" d="M593.7,61.29c-.5-1.55.16-2.81,1.33-2.51s1.56.65,1.65,1.53a3,3,0,0,0,.1.6,1.68,1.68,0,0,1-.12,1.45c-.35.52-.78.79-1.38.52-.41-.18-1.16-.29-1.24-.55S593.79,61.55,593.7,61.29Z"/><path class="cls-1" d="M546,29.67a3.63,3.63,0,0,1,.64,1.31,1.68,1.68,0,0,1-.67,1.64c-1.16.81-2.49,0-3-1.56a1.5,1.5,0,0,1-.07-.2,1.7,1.7,0,0,1,.28-1.56,1.12,1.12,0,0,1,.52-.44,1.86,1.86,0,0,1,1.52.25A2.22,2.22,0,0,1,546,29.67Z"/><path class="cls-1" d="M534.26,13.59c-1.69-.06-.53-1.93,1.08-2.31.35-.08.69-.15,1-.2a3.23,3.23,0,0,1,1.24,0l.33.12c.88.36,1.2,1.29.44,1.8a4,4,0,0,1-1.3.51A10.56,10.56,0,0,1,534.26,13.59Z"/><path class="cls-1" d="M525.06,1.45a.77.77,0,0,1,0,.63,2.57,2.57,0,0,1-3.48,1,1.76,1.76,0,0,1-.66-.45c-.23-.33.07-.76.33-1.08a2.58,2.58,0,0,1,3.2-.84A1.15,1.15,0,0,1,525.06,1.45Z"/><path class="cls-1" d="M523.47,24.32c-2,.45-3.58,0-3.16-1a2.08,2.08,0,0,1,2-1.35,4.82,4.82,0,0,0,.75-.1A3.28,3.28,0,0,1,525,22c.62.25.93.58.58,1.05s-.41.92-.75,1Z"/><path class="cls-1" d="M511.73,8.89c-.5-1.55.16-2.81,1.33-2.52s1.56.66,1.65,1.54a2.91,2.91,0,0,0,.1.59,1.7,1.7,0,0,1-.12,1.46c-.35.52-.78.79-1.38.52-.41-.18-1.16-.29-1.24-.55S511.9,9.41,511.73,8.89Z"/><path class="cls-1" d="M486,15.25c-.24-.75-.7-1.59-.93-2.43a2.08,2.08,0,0,1,.22-1.86,1.52,1.52,0,0,1,2.07-.32,2.33,2.33,0,0,1,.72,1.1A5,5,0,0,1,488,14C488,14.81,487.05,15.29,486,15.25Z"/><path class="cls-1" d="M367.29,26.46c-1.72.38-3.77-.52-2.58-1.62l0,0a5.32,5.32,0,0,1,4-.89c1.72.44.45,2.12-1.29,2.51Z"/><path class="cls-1" d="M286.11,39.12c-.69-1.54-3.81-.84-3.47.78C283,41.72,286.88,40.86,286.11,39.12Z"/><path class="cls-1" d="M265,56.77c-1,.23-2.21.66-3.35.86a3.65,3.65,0,0,1-2-.09c-.87-.37-1.14-1.27-.38-1.77a3.84,3.84,0,0,1,1.29-.52,10.24,10.24,0,0,1,2.83-.07A1.45,1.45,0,0,1,265,56.77Z"/><path class="cls-1" d="M244.5,79.39c-2.37.53-4.86-1.63-2.45-2a12.41,12.41,0,0,1,1.77-.12,1.92,1.92,0,0,1,.68.05,4.76,4.76,0,0,1,.48.27c.27.16.47.4.39.66a1.89,1.89,0,0,1-.32.79A1.1,1.1,0,0,1,244.5,79.39Z"/><path class="cls-1" d="M230.77,66.83c0,1.49-2.57.37-3-1.08,0-.15-.08-.31-.11-.46a1.61,1.61,0,0,1,.05-1,1.94,1.94,0,0,1,.24-.37,1.56,1.56,0,0,1,2.1-.37,2.38,2.38,0,0,1,.72,1.1A5,5,0,0,1,230.77,66.83Z"/><path class="cls-1" d="M601.59,59.33a1.11,1.11,0,0,1-.44-.12c-.6-.27-.9-.9-.45-1.32a1.38,1.38,0,0,1,.95-.38,1.25,1.25,0,0,1,.43.12c.61.27.91.9.45,1.32A1.31,1.31,0,0,1,601.59,59.33Z"/><path class="cls-1" d="M622.94,59.2a1.45,1.45,0,0,1,.55-.43,1.61,1.61,0,0,1,.9,0,.82.82,0,0,1,.41,1.34,1,1,0,0,1-.31.28,1.53,1.53,0,0,1-1.26,0c-.57-.22-.75-.72-.35-1.12Z"/><path class="cls-1" d="M607.79,58.68a1.09,1.09,0,0,1-.43-.11c-.6-.27-.91-.9-.45-1.32a1.16,1.16,0,0,1,1.38-.26c.6.27.91.9.45,1.32A1.31,1.31,0,0,1,607.79,58.68Z"/><path class="cls-1" d="M611.17,51.33a1.34,1.34,0,0,1,.59.13c.57.25.83.83.42,1.24a1.36,1.36,0,0,1-.94.42,1.49,1.49,0,0,1-.56-.14c-.61-.27-1-.88-.56-1.3A1.67,1.67,0,0,1,611.17,51.33Z"/><path class="cls-1" d="M247.39,45.33a6.88,6.88,0,0,1,1.11.38c.17.24-.38.69-.53,1a1.31,1.31,0,0,1-1.66.35,1.11,1.11,0,0,1-.41-.28.76.76,0,0,1,0-.82A1.17,1.17,0,0,1,247.39,45.33Z"/><path class="cls-1" d="M622,66.78a1.15,1.15,0,0,1-.4-.28.74.74,0,0,1,0-.82,1.27,1.27,0,0,1,1.65-.35,1,1,0,0,1,.41.28.76.76,0,0,1,0,.82A1.28,1.28,0,0,1,622,66.78Z"/><path class="cls-1" d="M352.87,20.64a.82.82,0,0,1-.19.4,1.26,1.26,0,0,1-1.64.39.85.85,0,0,1-.48-.71.8.8,0,0,1,.18-.41,1.28,1.28,0,0,1,1.65-.39A.86.86,0,0,1,352.87,20.64Z"/><path class="cls-1" d="M494.77,5.54a.73.73,0,0,1,.18-.41,1.27,1.27,0,0,1,1.65-.39.82.82,0,0,1,.47.72.79.79,0,0,1-.18.41,1.27,1.27,0,0,1-1.64.38A.83.83,0,0,1,494.77,5.54Z"/><path class="cls-1" d="M237.82,47.48a1.05,1.05,0,0,1,.43.11c.61.27.91.9.45,1.32a1.17,1.17,0,0,1-1.44.23c-.61-.27-1-.86-.51-1.27A1.68,1.68,0,0,1,237.82,47.48Z"/><path class="cls-1" d="M588.49,60.18a1.29,1.29,0,0,1,.44.11c.6.27.9.9.45,1.33a1.34,1.34,0,0,1-.89.37,1.32,1.32,0,0,1-.56-.14c-.61-.27-1-.87-.51-1.28A1.7,1.7,0,0,1,588.49,60.18Z"/><path class="cls-1" d="M321.32,22.43a1.64,1.64,0,0,1-.56.45,1.48,1.48,0,0,1-.91,0,.82.82,0,0,1-.41-1.34,1.05,1.05,0,0,1,.31-.28,1.47,1.47,0,0,1,1.06-.06C321.51,21.42,321.77,22,321.32,22.43Z"/><path class="cls-1" d="M565.41,15.24a.88.88,0,0,1,.5,1.56,1.33,1.33,0,0,1-.78.24,1.11,1.11,0,0,1-.43-.12c-.6-.27-.91-.9-.45-1.32A1.38,1.38,0,0,1,565.41,15.24Z"/><path class="cls-1" d="M571.41,32.34a1,1,0,0,1,.41.28.76.76,0,0,1,0,.82,1.28,1.28,0,0,1-1.65.35,1.11,1.11,0,0,1-.41-.28.74.74,0,0,1,0-.82A1.27,1.27,0,0,1,571.41,32.34Z"/><path class="cls-1" d="M558.52,35.39a.92.92,0,0,1,.31-.28,1.39,1.39,0,0,1,1-.07.81.81,0,0,1,.4,1.33.84.84,0,0,1-.31.28,1.46,1.46,0,0,1-1,.07A.81.81,0,0,1,558.52,35.39Z"/><path class="cls-1" d="M560.71,11.23a1.3,1.3,0,0,1,.43.11c.6.27.91.9.45,1.33a1.21,1.21,0,0,1-1.38.26c-.6-.27-.91-.9-.45-1.33A1.31,1.31,0,0,1,560.71,11.23Z"/><path class="cls-1" d="M573.69,44.93a1.31,1.31,0,0,1-1.66.41.81.81,0,0,1-.48-.71.73.73,0,0,1,.18-.41,1.26,1.26,0,0,1,1.64-.39.84.84,0,0,1,.48.72A.67.67,0,0,1,573.69,44.93Z"/><path class="cls-1" d="M547.59,23.57a.76.76,0,0,1,.18-.41,1.3,1.3,0,0,1,1.65-.39.87.87,0,0,1,.48.72.86.86,0,0,1-.19.41,1.29,1.29,0,0,1-1.64.39A.86.86,0,0,1,547.59,23.57Z"/><path class="cls-1" d="M542.6,25.66a1.54,1.54,0,0,1-.6-.13c-.56-.26-.82-.83-.41-1.24a1.34,1.34,0,0,1,.94-.42,1.32,1.32,0,0,1,.55.14c.61.27,1,.88.57,1.3A1.67,1.67,0,0,1,542.6,25.66Z"/><path class="cls-1" d="M531.34,12.29a1.24,1.24,0,0,1-1-.34,5.13,5.13,0,0,1-.58-.43.74.74,0,0,1,0-1,1.13,1.13,0,0,1,1.53-.44,4.67,4.67,0,0,1,1,.56C533,11.19,532.27,12.08,531.34,12.29Z"/><path class="cls-1" d="M354,7.48a1,1,0,0,1-.4-.28.74.74,0,0,1,0-.82A1.29,1.29,0,0,1,355.19,6a1.11,1.11,0,0,1,.41.28.74.74,0,0,1,0,.82A1.28,1.28,0,0,1,354,7.48Z"/><path class="cls-1" d="M517.59,13.28a1.05,1.05,0,0,1,.31-.28,1.46,1.46,0,0,1,1-.07.82.82,0,0,1,.41,1.34,1.19,1.19,0,0,1-.31.28,1.49,1.49,0,0,1-1,.07A.82.82,0,0,1,517.59,13.28Z"/><path class="cls-1" d="M504.19,20.85a1.25,1.25,0,0,1-1-.34c-.18-.14-.43-.28-.59-.43a.77.77,0,0,1,0-1,1.13,1.13,0,0,1,1.53-.43,4.43,4.43,0,0,1,1,.52C505.87,19.7,505.13,20.64,504.19,20.85Z"/><path class="cls-1" d="M480.82,6.89a1.24,1.24,0,0,1,1.45-.43.8.8,0,0,1,.41,1.33.93.93,0,0,1-.31.28,1.53,1.53,0,0,1-1.26,0c-.57-.22-.75-.72-.35-1.12Z"/><path class="cls-1" d="M462.68,17.19a1.52,1.52,0,0,1-.55.42,1.45,1.45,0,0,1-.9,0,.9.9,0,0,1-.1-1.61,1.53,1.53,0,0,1,1.26,0c.57.21.76.72.35,1.12Z"/><path class="cls-1" d="M422.84,5.6a1.31,1.31,0,0,1-1.66.42.88.88,0,0,1-.48-.72.76.76,0,0,1,.18-.41,1.3,1.3,0,0,1,1.65-.39.82.82,0,0,1,.47.72A.62.62,0,0,1,422.84,5.6Z"/><path class="cls-1" d="M417,12.38a1.41,1.41,0,0,1-.6-.13c-.56-.25-.82-.83-.41-1.24a1.34,1.34,0,0,1,.94-.42,1.59,1.59,0,0,1,.56.14c.6.28,1,.88.56,1.3A1.67,1.67,0,0,1,417,12.38Z"/><path class="cls-1" d="M405.58,7.15a1.29,1.29,0,0,1-.44-.11c-.6-.27-.9-.9-.44-1.33a1.29,1.29,0,0,1,.94-.37,1.18,1.18,0,0,1,.43.11c.61.27.91.9.45,1.33A1.35,1.35,0,0,1,405.58,7.15Z"/><path class="cls-1" d="M369.74,16.43a1.11,1.11,0,0,1-.44-.12c-.6-.27-.9-.9-.45-1.32a1.38,1.38,0,0,1,.95-.38,1.19,1.19,0,0,1,.43.12c.61.27.91.9.45,1.32A1.31,1.31,0,0,1,369.74,16.43Z"/><path class="cls-1" d="M386.87,12.23a1,1,0,0,1,.31-.27,1.39,1.39,0,0,1,1.05-.07.81.81,0,0,1,.4,1.33,1,1,0,0,1-.3.28,1.49,1.49,0,0,1-1.05.07A.82.82,0,0,1,386.87,12.23Z"/><path class="cls-1" d="M384.93,19.43c-.38-.43-.12-1.12.32-1.51,0,0,0,0,.05-.05a7,7,0,0,1,.59-.49,1.43,1.43,0,0,1,1.29,0c.67.28.88.67.5,1.19s-.79,1.05-1.51,1.1C385.74,19.71,385.18,19.73,384.93,19.43Z"/><path class="cls-1" d="M384.63,21.77a1.62,1.62,0,0,1-1.71.33c-.2-.11-.2-.29-.14-.48a2.18,2.18,0,0,1,.83-1.3c1-.71,1.76-.53,1.73.29a1.09,1.09,0,0,1-.32.82Z"/><path class="cls-1" d="M340.15,23.62c-.06-.21.09-.47.46-.78a5.68,5.68,0,0,1,.59-.49,1.41,1.41,0,0,1,1.28,0c.67.28.89.67.5,1.19a3.29,3.29,0,0,1-.85.89A1.43,1.43,0,0,1,340.15,23.62Z"/><path class="cls-1" d="M337.85,26.41a1.12,1.12,0,0,1,1-1.38h.07c.85-.19,1.79.3,1.65,1a1.47,1.47,0,0,1-.89,1.06A1.3,1.3,0,0,1,337.85,26.41Z"/><path class="cls-1" d="M336.17,25.62a1.28,1.28,0,0,1-1-.34,6.22,6.22,0,0,1-.58-.43.76.76,0,0,1,0-1,1.14,1.14,0,0,1,1.53-.43,5,5,0,0,1,1,.55C337.86,24.52,337.1,25.41,336.17,25.62Z"/><path class="cls-1" d="M329.2,7.43a1.4,1.4,0,0,1-.59-.5.78.78,0,0,1,.06-.69,1.29,1.29,0,0,1,1.66-.35,1,1,0,0,1,.4.28.84.84,0,0,1-.09,1,1,1,0,0,1-1.36.29Z"/><path class="cls-1" d="M310.22,28.42a1.29,1.29,0,0,1-.44-.11c-.6-.27-.9-.9-.45-1.32a1.34,1.34,0,0,1,.95-.38,1.24,1.24,0,0,1,.43.11c.61.27.91.9.45,1.33A1.3,1.3,0,0,1,310.22,28.42Z"/><path class="cls-1" d="M298.83,27.21a.77.77,0,0,1,.19-.41,1.27,1.27,0,0,1,1.64-.39.86.86,0,0,1,.48.72.76.76,0,0,1-.18.41,1.28,1.28,0,0,1-1.65.38A.85.85,0,0,1,298.83,27.21Z"/><path class="cls-1" d="M293.37,34.41a1.52,1.52,0,0,1-.55.42,1.45,1.45,0,0,1-.9,0,.81.81,0,0,1-.41-1.33.92.92,0,0,1,.31-.28,1.53,1.53,0,0,1,1.26,0c.57.21.75.72.35,1.12Z"/><path class="cls-1" d="M289.45,44a1.54,1.54,0,0,1,.6.13c.56.26.82.83.41,1.24a1.34,1.34,0,0,1-.94.42,1.32,1.32,0,0,1-.55-.14c-.61-.27-1-.88-.57-1.3A1.67,1.67,0,0,1,289.45,44Z"/><path class="cls-1" d="M278.61,35.11a1.54,1.54,0,0,1-.54-.42.77.77,0,0,1,0-.75,1.29,1.29,0,0,1,1.66-.35,1.07,1.07,0,0,1,.4.28.74.74,0,0,1,0,.81A1.1,1.1,0,0,1,278.61,35.11Z"/><path class="cls-1" d="M262.69,46.46a1.4,1.4,0,0,1-.59-.5.78.78,0,0,1,.06-.69,1.28,1.28,0,0,1,1.66-.35,1.07,1.07,0,0,1,.4.28.84.84,0,0,1-.09,1,1,1,0,0,1-1.36.29Z"/><path class="cls-1" d="M240,65a1.38,1.38,0,0,1-1.69.42.91.91,0,0,1-.54-.76.84.84,0,0,1,.18-.41,1.28,1.28,0,0,1,1.65-.38.91.91,0,0,1,.47.63A.72.72,0,0,1,240,65Z"/><path class="cls-1" d="M231.61,60.83a.73.73,0,0,1,.18-.4,1.26,1.26,0,0,1,1.64-.39.89.89,0,0,1,.48.66,1,1,0,0,1-.22.52,1.21,1.21,0,0,1-1.58.44A1,1,0,0,1,231.61,60.83Z"/><path class="cls-1" d="M218.38,79.53a1.54,1.54,0,0,1-1.63.26.49.49,0,0,1-.24-.62,5.54,5.54,0,0,1,.17-.58,2.06,2.06,0,0,1,1.56-1.06c.47-.08.79.13.82.59a1.4,1.4,0,0,1-.35,1.08Q218.56,79.37,218.38,79.53Z"/><path class="cls-1" d="M214.3,90.85a1.4,1.4,0,0,1-.59-.5.78.78,0,0,1,.06-.69,1.29,1.29,0,0,1,1.66-.34,1,1,0,0,1,.4.27.84.84,0,0,1-.09,1,1,1,0,0,1-1.36.29Z"/><path class="cls-1" d="M214.07,96a.9.9,0,0,1-.3.28,1.49,1.49,0,0,1-1.05.07.82.82,0,0,1-.4-1.34.94.94,0,0,1,.31-.28,1.46,1.46,0,0,1,1-.07A.81.81,0,0,1,214.07,96Z"/><path class="cls-1" d="M237.37,57.78a.94.94,0,0,1,.22-.56,1.19,1.19,0,0,1,1.51-.36.93.93,0,0,1,.55.71,1,1,0,0,1-.22.52,1.27,1.27,0,0,1-1.6.49A1,1,0,0,1,237.37,57.78Z"/></svg>