<svg id="Layer_1" data-name="Layer 1" xmlns="http://www.w3.org/2000/svg" viewBox="0 0 172 228"><defs><style>.cls-1{fill:#fff;}</style></defs><path class="cls-1" d="M85.32,166.9c-.68.34-1.13.46-1.13.79-.12,1-.12,2-.23,2.83.23,1,1.59,1.24.79,2.83a8.9,8.9,0,0,1-.68.79c.34.9,1.7.11,2,1.13l-1.47,1.47a3.23,3.23,0,0,0-1,.11,1,1,0,0,0-.57,1.24v2.6c0,.34-.11.68-.11,1l-.8.79v2.15c.23.23.57.68.91,1-.23,1-1.7.11-2,1.47v3.67c.34.34.68.79,1,1.13v2a10.48,10.48,0,0,1-1,1.13c1.36,1.47,1.36,1.59-.11,3.06v8.25a10.48,10.48,0,0,0-1,1.13,3,3,0,0,1-.12,1c.68.67,1.36,1.47,2,2.14v7.35l-.79.79a7.08,7.08,0,0,0-.23,3.06v2.48c-.34.34-.79.57-.79.91A4,4,0,0,1,78.18,228H74.09c-.56-.34-.9-.79-1.36-1-.22-.11-.79,0-.91-.22-1.13-1-2.26-2.15-3.51-3.39a14.12,14.12,0,0,0-.11-2c-.12-.68-1.36-1-1-2.15a7.31,7.31,0,0,1,1-1.13V214a10.94,10.94,0,0,1,1.13-1.13v-4.18a10.48,10.48,0,0,1,1-1.13v-4.18l-.79-.8c-.46-1-.12-2-.23-3.05a20.64,20.64,0,0,0-.11-2.6l-.8-.79c0-.11-.11-.34-.11-.45v-25.6c.23-.34.57-.68.91-1.13-.23-.23-.34-.57-.57-.57a7.66,7.66,0,0,0-1.59,0,.94.94,0,0,1-.91-.56v-2.15c.35-.91,1.71-.11,2-1.13-.12-.11-.23-.34-.34-.34-1-.11-2-.11-3.07-.23-.45.34-.79.68-1.24,1a3.23,3.23,0,0,0-1,.11,9.74,9.74,0,0,1-1.14,1c-.91-.34-.11-1.69-1.13-2l-.34.34a1.84,1.84,0,0,1-.68.45.76.76,0,0,1-.46-.79.71.71,0,0,0-.34-.91c-.22-.11-.45,0-.79.34s-.79.57-1.7.45c-.45-.67-1-1.47-1.48-2H50.85c-.46.22-.57.56-.34.79L51.75,164c.34,0,.91.12,1.36.12s1,0,1.36.56c-.34.34-.68.79-1,1.13,0,.45.12,1-.56,1.47-.68-.68-1.36-1.35-2.16-2l-1.47,1.47v2.14a9.74,9.74,0,0,1,1,1.14v4.53a12,12,0,0,0,1.13,1.13v2l.8.79a1.26,1.26,0,0,1,.22.91V184a2.4,2.4,0,0,1,1.14,2.26,2.51,2.51,0,0,1-1,1.81v5.09c-.34.45-.68.79-1,1.24a4,4,0,0,1-.12,1.13c-.79.79-1.7,1.59-2.72,2.49H42.57c-.34-.23-.68-.68-1.14-1h-1c-.56-.34-.45-.79-.56-1.35s-.57-.8-.91-1.36v-5c-.34-.45-.68-.79-1-1.24a10.48,10.48,0,0,0,1-1.13v-3a10.48,10.48,0,0,0-1-1.13,1.78,1.78,0,0,1,.45-1.47,3.46,3.46,0,0,0,.57-.79v-1.7c-.23-.34-.57-.68-.91-1.24.23-.34.57-.68.91-1.13v-1.92a10.73,10.73,0,0,1,1.13-1.25v-1.36c-.34-.34-.68-.79-1-1.13v-5.2a10.73,10.73,0,0,0-1.13-1.25v-7.23c-.34-.68-.91-.45-1.48-.57a10.48,10.48,0,0,1-1.13,1c-.11.11-.34,0-.57,0v-1.58a10.48,10.48,0,0,0,1-1.13,6.86,6.86,0,0,1-.9-1,10.48,10.48,0,0,1,1-1.13c-.12-1.36-.12-1.47-1.48-1.47-.68.68-1.47,1.36-2.15,2-.12.12-.34,0-.46,0v-1.58a17,17,0,0,1-1.47-1.47,5,5,0,0,1-1.59-.68l.68-.67c.23-.23.12-.46-.22-.8a3.08,3.08,0,0,1-.57-.79c0-.56-.11-1.24-.57-1.24s-.45.79-.56,1.24c0,.23-.46.68-.57.57a.76.76,0,0,1-.46-.79c-.11-1-.22-1-1.24-1.13-.12,0-.34-.12-.46-.12l-1.47-1.47c-.11-.11,0-.34,0-.45a.77.77,0,0,0,.91-.34c.22-.34-.12-.56-1.14-.68h.23a.7.7,0,0,0-.23-.79c-.22-.22-.45-.22-.68.23,0,.11.12.22.12.34a1.25,1.25,0,0,0,.56.34,1.63,1.63,0,0,1,.23,1,6,6,0,0,1-1.47,0c-.23,0-.57-.45-.57-.67a18.81,18.81,0,0,1,0-2.49.77.77,0,0,0,.91-.34c.22-.34-.12-.57-.91-.68v-1.58c-.46-.45-1-.91-1.59-1.47H16.83a3.79,3.79,0,0,1-1.71-1.81c.69-.79,1.71-.11,2.39-.45a11.54,11.54,0,0,0,1.24,1.13h1c.8-.91,1.71-1.7,2.5-2.6-.23-.23-.45-.57-.68-.57-1.7-.11-3.4-.11-5.1-.11-.12,0-.23-.23-.34-.34a10.48,10.48,0,0,0,1-1.13c.11-.11,0-.34,0-.45a.75.75,0,0,0,.9-.34c.23-.34-.11-.57-.9-.68v-1h1.47c.11,0,.23-.11.34-.22s.23-.23.11-.34-.22-.34-.34-.34c-1.13-.34-1.47-.11-1.7.9a.7.7,0,0,1-.9-.34c-.34-.56,0-1.35-.8-1.69h-.91a7.42,7.42,0,0,1-1.13.9c-.68-.34-.45-.9-.45-1.58.45-.45,1-.9,1.7-1.58.45-.23,1.36.34,2.15-.23.12-.11.23-.22.23-.34a.52.52,0,0,0-.34-.34,3.58,3.58,0,0,0-1.13-.11A20.07,20.07,0,0,0,14,121.68a14.21,14.21,0,0,1-.23-3.05,5.5,5.5,0,0,0-1.47-1.69c-.68-.23-1.13-.34-1.7-.57.79-.79,1.47-1.58,2.15-2.26l-1.81-1.81a.51.51,0,0,1,.34-.68c.11-.11.34,0,.57,0a.71.71,0,0,0,.9-.34c.12-.34-.34-.68-1-.68H10.14a3.26,3.26,0,0,1-1-.11L7.64,109c.57-1,1.59-.34,2.38-.56.23-.23.57-.34.8-.57.9-.79,1.7-1.69,2.6-2.6.34-.34.46-.45.34-.79a.75.75,0,0,0-.9-.34H12.4a2.71,2.71,0,0,1-2.15,1.13l-.8.79a3.42,3.42,0,0,1-2.38,0c-.11-.11-.45-.22-.45-.34v-2.6h1a.71.71,0,0,0,.91-.34c.11-.22-.12-.45-.46-.79l-.34-.34c.23-1.13,1.59-.22,1.93-1.13a10.48,10.48,0,0,1-1-1.13V94.78a.77.77,0,0,0,.91-.34,1.48,1.48,0,0,0,0-1.36.72.72,0,0,0-.91-.34c0-.11-.11-.34,0-.45a21.47,21.47,0,0,1,1.59-1.58c.11-.12.34,0,.45,0v1.47c.68.68.68.68,1.25.56s.79-.22.91-.9a1.34,1.34,0,0,0-.57-1.25H10.82c0-.22.11-.45,0-.56a11.67,11.67,0,0,1-1-1.13l1.48-1.47a10.48,10.48,0,0,0,1.13,1,1.07,1.07,0,0,0,.23-1.7,3.65,3.65,0,0,1-.91-1.69c0-.46-.56-.8-1.13-.68a1,1,0,0,1-.91-.57V80.87a.5.5,0,0,1,.68-.45c.12,0,.23.23.34.34v2c.8.68.8.68,2.84.46.45-.23.45-.57,0-.68s-.68,0-1-.23-.68-.45-.68-.56a.76.76,0,0,1,.79-.46c1.25-.22,1.25-.22,1.25-1.13V78.72l-.46-.45c-.79-.9-.79-1.24-.11-2.15.23-.33.45-.45.34-.79a1,1,0,0,0-.91-.34c-.68,0-.9-.22-1-.9a1.07,1.07,0,0,1,.68-1.24c.34-.12.68,0,1-.12.12,0,.23-.22.46-.34V70.25a4.46,4.46,0,0,0-1-1c.34-.91,1.7-.23,2-1.13v-1c-.46-.9-1.7-.11-2-1.13l2.61-2.6h1.58a.58.58,0,0,0,.34.79c-.11.57.23.57.46.57a.76.76,0,0,0,.79-.46c0-.11-.34-.56-.57-.56a6.57,6.57,0,0,0-1.47,0c0-.23.11-.45,0-.57a10.48,10.48,0,0,0-1-1.13V58.83c.11-.12.34-.45.34-.34.23.22.57.34.57.56a7.66,7.66,0,0,1,0,1.59.76.76,0,0,0,.45.79c.79-.12,1.7.34,2.49-.34-.34-1-1.24-1.47-1.92-2.26a10.48,10.48,0,0,0,1-1.13V56.11H20c.11,0,.23-.11.34-.22s.23-.23.11-.34-.22-.34-.34-.34c-1.13-.34-1.47-.11-1.7.9-.45.12-.79,0-.9-.33-.23-.8-.34-1.7-1.25-2.15V52.16a1,1,0,0,1,.34-.91A1.21,1.21,0,0,1,18,51.14c.68.57,1.25,1.24,1.93,1.81.22-.23.56-.34.56-.57a10.25,10.25,0,0,0,0-1.92c-.34-.45-1-.68-.9-1.24s.9-.34,1.36-.34c.34.34.79.68,1.13,1l1.48-1.47a2.12,2.12,0,0,0-.8-.57,7.56,7.56,0,0,0-1.58,0c-.23,0-.46-.34-.8-.56.45-.46,1-1,1.48-1.47a3,3,0,0,0,1-.12,11.62,11.62,0,0,1,1.13-1A2.19,2.19,0,0,1,25,45c.34.11.23-.23,0-.34-.45-.23-.68,0-.45.45a1.09,1.09,0,0,0,.56.45s.34-.22-.11-.56-.34-.68-.45-.8l-1-1c.34-.34.68-.79.9-1a10.14,10.14,0,0,0-.9-1.13c.79-.79,1.7-.23,2.6-.45a19.74,19.74,0,0,0,1.37-1.47c-.23-.68-1.37-1-.91-2.15l1-1a10.48,10.48,0,0,1-1-1.13c0-.45-.23-1.13.45-1.36.46-.11.68.46,1.14.8,1-.23.22-1.59,1.13-2h1.25c.56.68,1.13,1.47,1.7,2a3.68,3.68,0,0,0,1.25-.12,7.42,7.42,0,0,1,1.13-.9l1.47,1.47c.12.11,0,.34,0,.45a.58.58,0,0,0-.79.34c-.11.23-.11.57-.23.9a.78.78,0,0,0,.46.8c.11,0,.56-.34.56-.57a6,6,0,0,0,0-1.47.83.83,0,0,0,1-.68,5.09,5.09,0,0,0,0-1.35H38.6c.11,0,.23-.12.34-.23s.23-.23.11-.34-.22-.34-.34-.34c-1.13-.34-1.47-.11-1.7.91-.23,0-.45.11-.57,0A20.37,20.37,0,0,1,35,31.7c.23-.23.34-.57.57-.57a7.56,7.56,0,0,1,1.58,0,.77.77,0,0,0,.8-.45c-.34-.34-.68-.79-1-1.13.68-.79,2-.34,2.49-1.47.34.34.8.68,1.14,1h2c.34-.34.79-.68,1.13-1h4.76c.34,0,.8-.11.8-.45,0-.12-.34-.57-.57-.57-.45-.11-1,0-1.36-.56a17,17,0,0,1,1.59-1.36,3.92,3.92,0,0,0,1,.79c1-.34.23-1.58,1.13-2h2.16c.45-.57.45-.57-.46-1.59L54.13,21c1.25-.46,2.39,0,3.41-.23l1,1c1.24,0,2.61.11,4,0,.56,0,.79-.57.68-1.13a.67.67,0,0,1,.11-.45l.79-.8a3.21,3.21,0,0,0,.23-.9c0-.68-.23-1.36.57-1.92h1a9.15,9.15,0,0,0,2.27,1.92c.56-.34.34-.91.45-1.47.45-.45,1-.9,1.59-1.47h1.93c.45-.34.79-.68,1.24-1a9.74,9.74,0,0,0,1.14,1h1.58V17c0,.11.12.23.23.34s.23.22.34.11.34-.22.34-.34c.34-1.13.11-1.47-.91-1.69v-1a.71.71,0,0,1,.34-.9c.23-.12.46.11.8.45l.34.34a2.87,2.87,0,0,0,1.47-1.36,6.46,6.46,0,0,0,.68-1.81,9.18,9.18,0,0,0,1.14,1A8.2,8.2,0,0,1,82,11.23L84,13.16c.57-.12.68-.57.68-1a1,1,0,0,1,.45-.91,3.23,3.23,0,0,0,1-.11c.68.68,1.48,1.36,2.16,2,.56-.34.45-.91.56-1.36a1,1,0,0,1,.69-.68,26.19,26.19,0,0,1,2.94,0c1.36,1.36,1.36,1.36,2.61.57.12-.46-.22-1.13.34-1.36s.68.68,1.14.68a6.26,6.26,0,0,0,3.51-.11c.45-.57.23-1.36.23-2a.75.75,0,0,1,.45-.79c.12,0,.46.45.57.68s.11.68.23,1c0,.12.22.23.34.34h1.58a.83.83,0,0,0,.68,1,9.42,9.42,0,0,1,1.93.34c.34.11.23-.23,0-.34-.45-.22-.68,0-.45.45a1.16,1.16,0,0,0,.56.46s.35-.23-.11-.57a10,10,0,0,1-.45-3.5h1.7c.57.67,1.13,1.47,1.47,1.92a9.68,9.68,0,0,1,1.82.45c.34.11.45.45.34,1v-.23a.71.71,0,0,0-.8.23c-.22.22-.22.45.23.68.11,0,.23-.12.34-.12a1.16,1.16,0,0,0,.34-.56,1.32,1.32,0,0,0,.91-.57c.34-.56,0-1.35.79-1.69h2c.34.34.8.67,1.14,1h1c.68.46.45,1.25.45,1.93a1.07,1.07,0,0,0,.57,1.13c.11-.12.34-.23.34-.34a12.69,12.69,0,0,0,.11-2c0-.45.57-.68,1.14-.68a1,1,0,0,1,.9.46c-.34.34-.56.67-.9,1a2.68,2.68,0,0,0,.68.57,24.2,24.2,0,0,0,2.83,0l1.59-1.58V9c.79-.11,1-.34,1-.79a11.69,11.69,0,0,1,.23-2c.11-.34.45-.46.9-.34V9.43a.5.5,0,0,0,.68.45.52.52,0,0,0,.35-.34v-1c.22-.23.56-.56.79-.56.79,0,1.7-.34,2.38.45a10.48,10.48,0,0,0-1,1.13v1c-.34.79-1.25.45-1.7.79a.71.71,0,0,0-.34.9h-1.48c-.11,0-.22.11-.34.23s-.22.22-.11.34.23.34.34.34c1.13.34,1.48.11,1.7-.91.23,0,.45-.11.57,0a17,17,0,0,1,1.47,1.47c0,.34.12.68.12,1a10.48,10.48,0,0,0-1,1.13,1.15,1.15,0,0,0,1.7.34c.34-.11.45-.57.79-.68a1.18,1.18,0,0,1,1.36.11.89.89,0,0,1,.23.91,1.2,1.2,0,0,1-.11.34,6.09,6.09,0,0,0-.91,1.24c-.34.57.22,1.24,1,1.36a.75.75,0,0,0,.34.9c.34.23.57-.11.68-.9h1.59a2,2,0,0,1,.56.79c.12.68-.11,1.35.12,1.81.56.56,1,1.13,1.47,1.58h1.59a.75.75,0,0,1-.34.9c-.57.34-1.36-.11-1.7.91v.79a3.34,3.34,0,0,0,.79.57c1,.11,2,.11,3.06.22.12,0,.23.23.34.34a10.48,10.48,0,0,0-1,1.13c-.11.11,0,.34,0,.45a.58.58,0,0,0-.79.34c-.11.23-.11.57-.23.91a.76.76,0,0,0,.46.79c.11,0,.56-.34.56-.57a6,6,0,0,0,0-1.47h1a.77.77,0,0,1,.91.34c.11.23,0,.45-.34.68s-.45.45-.34.68a.72.72,0,0,0,.91.34h1c.11.79.34,1,.79,1a12.85,12.85,0,0,1,2,.22c.34.11.46.45.34.91h-1.7c-.22.22-.57.67-.91,1-.11.12-.34,0-.68,0h.23a.7.7,0,0,0-.23-.79c-.22-.22-.45-.22-.68.23,0,.11.12.22.12.34a1.25,1.25,0,0,0,.56.34,3.75,3.75,0,0,1,.23,1.58,5.11,5.11,0,0,0,2,1.69c.57-.11,1.25-.11,1.82-.22.34-.11.45-.45.34-.91h1.58c.46.46.91,1,1.48,1.59a6.68,6.68,0,0,1-.11,3.28c-.12.33-.46.45-.91.33V40.06a17,17,0,0,1-1.48-1.47c-.79.34-.68.91-.45,1.7.79.22.91,1.47,1.93,1.35v1.59c.11.11.22.34.34.34.34.11.68.11,1,.22s.57.34.79.57c.68.56,1.25,1.24,1.82,1.81.11.56-.46.67-.68,1.13.11.9-.8,1.92.45,2.6.34-.34.68-.57,1-.91.23.23.45.34.45.45v4.19c.46.9,1.7.22,2.05,1.13a4.35,4.35,0,0,0-.91,1.13l1.47,1.47h1c.8,1.24.8,1.24-.45,2.6a4.57,4.57,0,0,1,.91,1.13c-.23.45-.68.56-1.25.56-.23,0-.57.34-.79.57L159,63.69a5.77,5.77,0,0,1,1.25.11c.34.45.79,1,1.47,1.81,0-.11-.23.11-.57.23s-1-.23-1.36.45a3.72,3.72,0,0,0,1.25,1.36,6.92,6.92,0,0,0,1.81.67c-.67.91-1.58,1.36-2,2.26.34.57.91.34,1.37.46a.49.49,0,0,1,.33.34c.12.22,0,.56-.45.67a11.58,11.58,0,0,1-2,0c-.91.68-.45,1.59-.45,2.49,0,.23.34.45.56.57.23-.23.46-.57.8-.68a2.71,2.71,0,0,1,.91-.23.64.64,0,0,1,.45.12c.45.79,1.47.67,2.15,1.13a2.9,2.9,0,0,1,1.25,1.35c-.34.57-.91.45-1.36.45-.34-.33-.79-.67-1.13-1-1.14.68,0,2-.69,2.82s-2.15-.34-2.83.79c.68.68,1.36,1.47,2,2.15v1c.34.9,1.7,0,2,1.13l-1.47,1.47c-.11.11-.34,0-.8,0h.23a.68.68,0,0,0-.23-.79c-.22-.23-.45-.23-.68.23,0,.11.12.22.12.33a1.09,1.09,0,0,0,.56.34c.35.34.23.68-.11.79-.57.23-1.13.34-1.81.57.45.45.68.79,1.13,1.24a10,10,0,0,1,0,1.81,1,1,0,0,1-1.25.79h.23a.7.7,0,0,0-.23-.79c-.22-.22-.45-.22-.68.23,0,.11.12.22.12.34a1.25,1.25,0,0,0,.56.34c.23.22.12.45.23.56.68.79,1.47,1.47,2,2.15-.11,1.36-.11,1.36-.91,1.58h-.56a1.25,1.25,0,0,0-.57,1.7c.23.34.45.45.79.9a25.73,25.73,0,0,1,0,4.3c-.34.56-.56.56-.79.11a7.25,7.25,0,0,0-.23-.9,2,2,0,0,0-.56-.79c-.91.9-1.71,1.69-2.61,2.6a.84.84,0,0,0,1.13.45c.91.79,1.48,1.24,1.93,1.69-.68.91-2.16.34-2.61,1.59a4.34,4.34,0,0,0-1.13.11,20.07,20.07,0,0,1-1.48,1.36c0,.67,0,.67.91.67h1v4.19h-1.59c-.11,0-.22.22-.34.34V114c.57.67,1.25,1.24,1.82,1.8a2,2,0,0,1-.8.57,1.21,1.21,0,0,1-.9-.11c-.68-.57-1.25-1.25-1.82-1.81a2.84,2.84,0,0,0-.56.68,1.55,1.55,0,0,0,.11,1c.11.34.57.46.68.8a1.17,1.17,0,0,1,0,1.35l-.79.79a10.14,10.14,0,0,1,.9,1.13v.91c-.34.79-1.13.45-1.7.79a.71.71,0,0,0-.34.9h-1c-.79,0-1.13.34-1.13,1.13v1H147c-.11,0-.23.23-.34.34v.34c.57.68,1.25,1.24,1.81,1.81-.22.56-.68.56-1.24.56-.34,0-.57.34-.8.46a9.6,9.6,0,0,1,1,1.13,12.72,12.72,0,0,0-2,2.26,3.42,3.42,0,0,0,.23,1c.11.33.45.45.91.33a6.57,6.57,0,0,1,0,1.47c-.12.34-.46.57-.68.46s-.46-.57-.68-.68c-.8-.57-1.59-.12-1.71.9a.71.71,0,0,0-.9.34.64.64,0,0,0-.12.45v1.7c-.79,1.24-2.15,2.15-3.17,3.39v1.47h-2.61l-1.47,1.47c.22,1.13,1.7.11,1.92,1.24-.45.34-.9.79-1.58,1.36h-2.73c-.9.45-1.24,1.13-1.92,1.58.9.91,1.81.34,2.72.57.11.34.34.79.45,1.13a5,5,0,0,1-1.81,1.92c-.57,0-1.14.11-1.36-.45-.12-.34,0-.68-.12-1s-.45-.56-.68-.45l-.34.34a8.92,8.92,0,0,1-1,1v2.14l1.93,1.92c.11,1,.68,2-.45,2.83h-.91a10.63,10.63,0,0,0-1.14,1,.84.84,0,0,1-.45-.91c-.11-1-.45-1.24-1.25-1.13-.34,0-.56.34-.79.46v1c.34.34.68.79,1,1.13V162l-1.47,1.47c-.34-.34-.8-.68-1.14-1h-1c-.45.23-.57.57-.22.8l1.81,1.8c-.34.34-.68.8-1,1.13,0,.57-.11,1.14.45,1.47.68-.67,1.48-1.35,2.16-2,.11.11.34.23.34.34.11,1.36.11,2.71.11,4.07,0,.34-.34.56-1.13.68h-.34c-1,.9-1.93,1.81-2.73,2.48v1.13a8,8,0,0,1,.91,1.13l-.79.8c-.12.22,0,.45.34.79.79.79.79,1.24-.11,2.15l-.46.45v2.49c.23.34.68.68,1,1.13v1a10.48,10.48,0,0,0-1,1.13c.34.91,1.7,0,1.93,1.13-1,.68-1.25,1.58-.57,3.39-.11-.22.12.23.46.57-.34.9-1.25,1.35-1.93,2.15v1a10.48,10.48,0,0,1,1,1.13c-.34.34-.68.8-1,1.13-.11.8.11,1.47.79,1.7a4.36,4.36,0,0,1,.23,1c.11,1.24-.12,2.37.11,3.62l.8.79c-.23.34-.57.67-.91,1.13v2.15c-.8.67-1.82,1.46-3,2.48h-1.81c-.57-.22-.91-1.35-1.93-1l-6-6a2.65,2.65,0,0,0-.12-.9l-.79-.79a3.66,3.66,0,0,1-.23-.91V186.36l.91-.91a14.26,14.26,0,0,0,.23-3,9.05,9.05,0,0,1,.11-2.49l.79-.79c0-.11.12-.34.12-.45V166.11a8.53,8.53,0,0,0-1-1.13v-3a18.71,18.71,0,0,0-1.48-1.47c-.9.11-1.13,1.13-1.81,1.36v2.26a6,6,0,0,0-1.36.45,11.6,11.6,0,0,0-1.25-1.13h-2.15c-.46.45-.91,1-1.48,1.58a7.59,7.59,0,0,0,.91,1c-1,.9-1.13.9-2.38-.34-.8.11-1.14,1.36-2.16.9-.68.68-1.47,1.36-2.15,2.15H94.16c-.11-.45-.34-.9-.45-1.35a10,10,0,0,1,1.14-1.25l-1-1c-.34-.34-.45-.45-.79-.34a1,1,0,0,0-.34.91c.11.79-.11.9-.91.9-.34,0-.68,0-.9.34a.41.41,0,0,0-.12.34c.46.45,1.14.91.91,1.81A12.27,12.27,0,0,1,89,171.76c-.34-.11-.68-.11-1-.22s-.46-.45-.34-.91a.58.58,0,0,0,.79-.34c.11-.22.11-.56.23-.9a.76.76,0,0,0-.46-.79c-.11,0-.56.34-.56.56a6,6,0,0,0,0,1.47.6.6,0,0,0-.8.34c-.22.57-.34,1.13-.56,1.81-1.36-.68-.23-1.92-.8-2.71l-1-1a5.31,5.31,0,0,0,.91-2.15c.11-.34-.23-.22-.34,0-.23.46,0,.68.45.46a1.18,1.18,0,0,0,.46-.57C85.89,166.68,85.66,166.45,85.32,166.9ZM30.89,36.44H34c.11,0,.23-.22.34-.33s0-.46-.34-.68H30.89c-.12,0-.23.22-.34.34S30.55,36.22,30.89,36.44ZM25.1,139.66a1.32,1.32,0,0,0-2.15,0c.11.56-.34,1.35.68,1.47A17,17,0,0,1,25.1,139.66Zm-9-73.82c-.8.68-.8,1.35,0,2.14C16.94,67.19,16.94,66.52,16.15,65.84ZM15.24,74c.11-.12.34-.23.34-.34v-1c0-.11-.23-.23-.34-.34a.22.22,0,0,0-.34,0c-.57.23-.57,1.36,0,1.7C15,74.09,15.12,74,15.24,74Zm142.2,24.87c.68.79,1.36.79,2.16,0C158.8,98.06,158.12,98.06,157.44,98.85Zm-119.75,56v-.46l-.34-.33c-.23-.12-.45,0-.68.33-.11.12,0,.34,0,.46a.76.76,0,0,0,.34.9C37.35,155.82,37.69,155.48,37.69,154.81ZM80.1,15.42c.23.11.46,0,.68-.34l-.34-.34c-.22-.11-.45,0-.68.34C79.65,15.08,79.88,15.3,80.1,15.42ZM129.21,18c-.12.22,0,.45.34.68l.34-.34c.11-.23,0-.46-.34-.68C129.55,17.68,129.32,17.9,129.21,18ZM67.06,19.26c-.11-.11-.22-.23-.34-.34s-.45,0-.68.34l.34.34C66.61,19.71,66.84,19.6,67.06,19.26ZM41.21,32.15c.22.11.45,0,.68-.34l-.34-.34c-.23-.11-.46,0-.68.34ZM14,84.6l-.34.34c-.11.23,0,.45.34.68l.34-.34C14.56,85.17,14.44,84.94,14,84.6Zm144.81.91c.23.11.46,0,.68-.34,0,0-.22-.23-.34-.34s-.45,0-.68.34C158.46,85.28,158.69,85.39,158.8,85.51ZM10,103.37l.34-.34c-.22-.34-.45-.45-.68-.34l-.34.34C9.57,103.37,9.79,103.48,10,103.37Zm4.2,12.55.34-.34c-.23-.34-.46-.45-.68-.34l-.34.34C13.76,115.92,14,116,14.22,115.92Zm2.83,9.72-.34.34c.23.34.46.45.68.34l.34-.34C17.51,125.64,17.28,125.53,17.05,125.64Zm122.7,9.61c-.11.23,0,.45.34.68l.34-.34c.12-.23,0-.45-.34-.68Zm-117.14.9c-.23-.11-.45,0-.68.34l.34.34c.23.11.45,0,.68-.34ZM124,168.82c-.11.23,0,.46.34.68,0,0,.23-.22.34-.34s0-.45-.34-.67C124.33,168.37,124.1,168.71,124,168.82Z"/><path class="cls-1" d="M89.63,175c-.45-.45-.57-.68-.45-.79l1.47-1.47c.23.11.57.34.57.45a28.4,28.4,0,0,1,0,3.06c-.91.9-1.82.45-2.84.34-.68-.57-.23-1.25-.34-1.93a3.31,3.31,0,0,1,1.59.34c.34.12.23-.22,0-.34-.45-.22-.68,0-.45.46a1.2,1.2,0,0,0,.56.45C89.86,175.61,90.08,175.38,89.63,175Z"/><path class="cls-1" d="M129.09,162.15h1.59c.34-.33.79-.67,1.13-1a1.51,1.51,0,0,1,.57.9c.23,1.25.23,1.25,1.13,1.25H135c.23.22.34.33.45.45s-.11.34-.22.34a7.44,7.44,0,0,1-3.52.11c-.45-.79-1.36-.9-2.15-1.13A.68.68,0,0,1,129.09,162.15Z"/><path class="cls-1" d="M138.5,6.6c.46-.91,1.71-.11,2.05-1.13v-1a.5.5,0,0,1,.34-.34c.22-.11.56,0,.68.45a14,14,0,0,1,0,2.15c.34.23.68.57,1.13.91-.68.9-1.59.45-2.38.56C139.52,8,139.18,7.16,138.5,6.6Z"/><path class="cls-1" d="M128.07,6.15h.45c1.37,0,1.37,0,1.59-1.25a1,1,0,0,1,1.36-.9,2.84,2.84,0,0,1,.68.56V6c-.79-.11-1,.8-1.92,1a6.46,6.46,0,0,1-1.48,0C128.3,7.05,127.85,6.71,128.07,6.15Z"/><path class="cls-1" d="M124.9,173a.56.56,0,0,1,.56-.34,2.14,2.14,0,0,0,1.82-.79.33.33,0,0,1,.22-.12c.57.46,1,.91,1.59,1.36l-1.59,1.58a4,4,0,0,0-1.13.12A9.26,9.26,0,0,0,124.9,173Z"/><path class="cls-1" d="M11.38,129.71c-.11-.57.23-.9.8-1a9.93,9.93,0,0,1,1.81,0,8.53,8.53,0,0,0,1.13,1H16.6v1H14c-.34-.34-.79-.68-1.13-1Z"/><path class="cls-1" d="M151.09,132.31l-1.47,1.47h-1c-.34-.34-.68-.9-1.14-1s-.68-.11-.45-.56c.11-.12.23-.34.34-.34a7.35,7.35,0,0,1,3.52,0A.86.86,0,0,0,151.09,132.31Z"/><path class="cls-1" d="M142.7,12.82a7.59,7.59,0,0,0,1-.91c.34-.34.45-.45.68-.34a.72.72,0,0,1,.34.91V13a7.59,7.59,0,0,1-1,.91v1.13c0,.11-.23.22-.34.34a.51.51,0,0,1-.68-.34Z"/><path class="cls-1" d="M139.52,142.26h1.59c.34-.34.8-.68,1.14-1,.56,0,1.13-.11,1.47.57l-1.36,1.35a3.17,3.17,0,0,1-2.49,0A.7.7,0,0,1,139.52,142.26Z"/><path class="cls-1" d="M18.75,145.42h2.61c.8,1.13.8,1.13,0,2-.34-.34-.68-.57-1-.91-.23.23-.34.23-.45.46s-.46.56-.8.45a.72.72,0,0,1-.34-.91A3.55,3.55,0,0,0,18.75,145.42Z"/><path class="cls-1" d="M14.56,55.32H16a1.08,1.08,0,0,1,.57,1.25c-.11.68-.23.9-.91.9-.45,0-.45,0-1.25-.56A7.61,7.61,0,0,0,14.56,55.32Z"/><path class="cls-1" d="M168,56.91c1-.8,1-.8,2.15,0v1c-1,.79-1,.79-2.15,0Z"/><path class="cls-1" d="M5.94,67.31c.57-.23,1-.46,1.36-.57,1,.34,1.36,1.13,2.15,1.7-.56.22-1,.45-1.36.56C7.19,68.66,6.85,67.87,5.94,67.31Z"/><path class="cls-1" d="M10.82,79.4,9.34,77.93c.34-.34.91-.68.91-1.13s.11-.68.57-.45c.11.11.34.23.34.34a4.77,4.77,0,0,1,0,2.49A1.55,1.55,0,0,0,10.82,79.4Z"/><path class="cls-1" d="M8.55,113c.79.34,1.13,1.13,1.81,1.47-.45.79-1,.56-1.47.56a9.71,9.71,0,0,0-1.14-1c-.68-.57-.68-.68-.11-.91A2.3,2.3,0,0,1,8.55,113Z"/><path class="cls-1" d="M7.19,114v1.47a1.08,1.08,0,0,1-1.25.56c-.68-.11-.91-.23-.91-.9,0-.46,0-.46.57-1.25A7.61,7.61,0,0,0,7.19,114Z"/><path class="cls-1" d="M132.83,152.77h1a11.69,11.69,0,0,1,1.14-1c.68,1.13.68,1.13-.11,2h-2c-.11,0-.22-.23-.34-.34S132.38,152.88,132.83,152.77Z"/><path class="cls-1" d="M104.94,165.89v3.05c0,.11-.23.22-.34.34s-.46,0-.68-.46v-3c0-.11.22-.22.34-.34S104.71,165.55,104.94,165.89Z"/><path class="cls-1" d="M68.3,207.54a1.21,1.21,0,0,1-.34-1.81,8.63,8.63,0,0,1,1.36-1.47,1.21,1.21,0,0,1,.34,1.81A8.27,8.27,0,0,1,68.3,207.54Z"/><path class="cls-1" d="M119.57,5a6.66,6.66,0,0,1-1.48,0c-.22,0-.34-.34-.56-.57l1.36-1.36c.22.23.56.34.56.57A2.74,2.74,0,0,1,119.57,5Z"/><path class="cls-1" d="M122.74,4.56c.68-.79,1.36-.79,2.16,0-.34.34-.8.68-1.14,1s-.45.45-.68.34a.71.71,0,0,1-.34-.9Z"/><path class="cls-1" d="M106,8.18a6.11,6.11,0,0,1-1.48,0c-.22,0-.34-.34-.56-.56.45-.46.9-.91,1.36-1.36.22.23.57.34.57.57A2.83,2.83,0,0,1,106,8.18Z"/><path class="cls-1" d="M83.39,10.33,81.92,8.86c.11-1,.9-.57,1.47-.68A1.32,1.32,0,0,1,83.39,10.33Z"/><path class="cls-1" d="M37.69,25.48c1-.68,1-.68,2,0-.11.56.34,1.35-.68,1.47A15.05,15.05,0,0,0,37.69,25.48Z"/><path class="cls-1" d="M146.9,33.39a.79.79,0,0,1,1,.68,17,17,0,0,1,0,2.37.77.77,0,0,1-1-.67Z"/><path class="cls-1" d="M17.73,49.11V46.62c0-.23.34-.34.57-.57,0,0,.34.23.34.34a4.29,4.29,0,0,1-.11,2.38C18.41,49.11,18.07,49.11,17.73,49.11Z"/><path class="cls-1" d="M170.6,72.05c.79.68.68,1.36,0,2.15-.34-.34-.68-.79-1-1.13s-.46-.45-.34-.68a.71.71,0,0,1,.9-.34C170.26,72.17,170.37,72.05,170.6,72.05Z"/><path class="cls-1" d="M10.36,76.24a6.57,6.57,0,0,1-1.47,0c-.23,0-.34-.34-.57-.57l1.36-1.35c.23.22.57.33.57.56A2.75,2.75,0,0,1,10.36,76.24Z"/><path class="cls-1" d="M6.62,82.57,8.09,84c-.11,1-.9.56-1.47.68A1.47,1.47,0,0,1,6.62,82.57Z"/><path class="cls-1" d="M162.66,91.5c.11-.57-.23-1.13.34-1.36s.68.45,1,.68l.34.34.34.34A1.27,1.27,0,0,1,162.66,91.5Z"/><path class="cls-1" d="M11.61,122.59c-.11-1.47-.68-2.49.34-3.39.68.45.45,1.13.57,1.81A1.72,1.72,0,0,1,11.61,122.59Z"/><path class="cls-1" d="M4.58,126.54c-.68-1-.68-1,0-2,.57.11,1.36-.34,1.47.68C5.6,125.64,5,126.09,4.58,126.54Z"/><path class="cls-1" d="M14.56,140.68c-.68.79-1.36.67-2.16,0,.34-.34.8-.68,1.14-1s.45-.45.68-.34a.71.71,0,0,1,.34.9Z"/><path class="cls-1" d="M20.91,141.24c-.12,0-.34-.11-.46,0l-1,1c-.22-.23-.45-.34-.56-.57a6,6,0,0,1,0-1.47H21A2.9,2.9,0,0,0,20.91,141.24Z"/><path class="cls-1" d="M19.77,143.84c-.34.57-1.13.68-1,1.58-.11,0-.34.12-.45,0a1.23,1.23,0,0,1-.45-1.69c.11-.34.79-.57,1.24-.45A2.62,2.62,0,0,1,19.77,143.84Z"/><path class="cls-1" d="M24,151.19c.68-.79,1.36-.79,2.15,0-.34.34-.79.68-1.13,1s-.45.45-.68.34a.72.72,0,0,1-.34-.91C24.08,151.53,24,151.3,24,151.19Z"/><path class="cls-1" d="M31.34,153.79a.75.75,0,0,1-.34.9,4.3,4.3,0,0,1-2.38.12c-.11,0-.34-.34-.34-.34.11-.23.34-.57.57-.57A9.66,9.66,0,0,1,31.34,153.79Z"/><path class="cls-1" d="M28.28,160.57c-.68.79-1.36.79-2.16,0,.34-.34.8-.68,1.14-1s.45-.45.68-.33a.71.71,0,0,1,.34.9C28.17,160.23,28.28,160.35,28.28,160.57Z"/><path class="cls-1" d="M130.11,160a.74.74,0,0,1-.34.9c-.34.34-.9.57-.68,1.24-.79-.11-1-.33-1-.79-.11-.79.23-1.24,1-1.24A3.23,3.23,0,0,1,130.11,160Z"/><path class="cls-1" d="M58.1,168.37c.8.68.8,1.36,0,2.15-.34-.34-.68-.79-1-1.13s-.45-.45-.34-.68a.72.72,0,0,1,.91-.34C57.76,168.49,58,168.37,58.1,168.37Z"/><path class="cls-1" d="M100.74,170.52H99.27c-.91-.79-.8-.9-.23-1.92C100.29,169.62,100.4,169.62,100.74,170.52Z"/><path class="cls-1" d="M102.78,171.54c-.11.79-.34,1-.79,1-.91.11-1.25-.23-1.25-1v-1c.68-.11.91.34,1.25.68S102.44,171.65,102.78,171.54Z"/><path class="cls-1" d="M128.07,185.22c-.91-.34-.91-.34-1.93-1.7,1-.56,1.14-.56,1.93.23Z"/><path class="cls-1" d="M127.05,186.69c.34-.57,1.13-.68,1-1.59.11,0,.34-.11.45,0a1.25,1.25,0,0,1,.46,1.7c-.11.34-.8.56-1.25.45S127.28,186.91,127.05,186.69Z"/><path class="cls-1" d="M133.74,193.58l.34.34c.12.23,0,.45-.45.68h-2c-.12-.11-.23-.23-.34-.34s0-.45.45-.68Z"/><path class="cls-1" d="M133.74,203.43c.34.22.57.45.34.67l-.34.34h-2c-.34-.22-.45-.45-.34-.67s.23-.23.34-.34Z"/><path class="cls-1" d="M91.78,6.15C91,5.47,91,4.79,91.78,4A1.26,1.26,0,0,1,91.78,6.15Z"/><path class="cls-1" d="M128.07,6.15h-1a7.68,7.68,0,0,1,0-1.59c.11-.45.45-.56.68-.33s.34.22.34.33Z"/><path class="cls-1" d="M124.9,9.31a6.11,6.11,0,0,1-1.48,0c-.23,0-.56-.45-.56-.56a.76.76,0,0,1,.79-.46,2.77,2.77,0,0,1,.91.23C124.9,8.52,125,8.86,124.9,9.31Z"/><path class="cls-1" d="M139.52,18.7a.75.75,0,0,1-.34.9c-.33.23-.68-.23-.68-.9v-.46l.35-.34c.22-.11.45,0,.67.34C139.64,18.36,139.52,18.58,139.52,18.7Z"/><path class="cls-1" d="M139.41,21.52c-.23.57-1.36.57-1.7,0a.22.22,0,0,1,0-.34c.23-.56,1.36-.56,1.7,0Z"/><path class="cls-1" d="M44,26c-.68,0-1.13-.34-.91-.67A.71.71,0,0,1,44,25h.46c.34.22.56.45.34.67s-.23.34-.34.34Z"/><path class="cls-1" d="M150.07,32.83c.68-.79,1.36-.79,2.16,0C151.43,33.62,150.75,33.62,150.07,32.83Z"/><path class="cls-1" d="M23,36.44a.77.77,0,0,1,.91.34c.22.46-.23.79-.91.79H22.5l-.34-.33c-.12-.23,0-.46.34-.68A.64.64,0,0,1,23,36.44Z"/><path class="cls-1" d="M16.71,39.61a6.57,6.57,0,0,1,0-1.47c0-.23.46-.57.57-.57a.77.77,0,0,1,.45.8,2.7,2.7,0,0,1-.22.9A.6.6,0,0,1,16.71,39.61Z"/><path class="cls-1" d="M10,40.85c.57.23.57,1.36,0,1.7a.22.22,0,0,1-.34,0c-.57-.23-.57-1.36,0-1.7Z"/><path class="cls-1" d="M20.91,43.79c0,.68-.34,1.13-.68.91a.71.71,0,0,1-.34-.91v-.45c.22-.34.45-.57.68-.34s.34.23.34.34Z"/><path class="cls-1" d="M13.54,45.94c-.68,0-1.14-.34-.91-.68a.72.72,0,0,1,.91-.34H14c.34.23.57.46.34.68s-.23.34-.34.34Z"/><path class="cls-1" d="M14.56,55.32a6.11,6.11,0,0,1-1.48,0c-.22,0-.56-.45-.56-.56a.75.75,0,0,1,.79-.45,2.75,2.75,0,0,1,.91.22A.59.59,0,0,1,14.56,55.32Z"/><path class="cls-1" d="M3.67,63.58H3.33a1.13,1.13,0,0,1,0-1.7h.34c.11.11.34.23.34.34v1C4,63.35,3.78,63.46,3.67,63.58Z"/><path class="cls-1" d="M167.46,80.91c-.68.79-1.36.79-2.16,0C166.1,80.12,166.78,80.12,167.46,80.91Z"/><path class="cls-1" d="M8.32,95.12a.77.77,0,0,1-.91-.34,1.48,1.48,0,0,1,0-1.36.72.72,0,0,1,.91-.34Z"/><path class="cls-1" d="M167.54,98.06h-.34a1.13,1.13,0,0,1,0-1.7h.34c.11.11.34.23.34.34v1C167.88,97.83,167.65,97.94,167.54,98.06Z"/><path class="cls-1" d="M5.15,121.8c.68-.79,1.36-.79,2.15,0C6.51,122.59,5.83,122.59,5.15,121.8Z"/><path class="cls-1" d="M149.05,124.4a6,6,0,0,1,1.47,0c.23,0,.57.45.57.56a.75.75,0,0,1-.79.45,2.75,2.75,0,0,1-.91-.22C149.05,125.07,148.94,124.85,149.05,124.4Z"/><path class="cls-1" d="M11.38,129.71a6,6,0,0,1,0,1.47c0,.23-.45.56-.56.56a.76.76,0,0,1-.46-.79,2.72,2.72,0,0,1,.23-.9A.58.58,0,0,1,11.38,129.71Z"/><path class="cls-1" d="M144.85,139.09c-1-.22-1.24-.56-.9-1.69,0-.12.22-.23.34-.34s.22.11.34.11.22.23.22.34Z"/><path class="cls-1" d="M145.88,139.09a6,6,0,0,1,0-1.47c0-.22.45-.56.56-.56a.76.76,0,0,1,.46.79,2.72,2.72,0,0,1-.23.9A.58.58,0,0,1,145.88,139.09Z"/><path class="cls-1" d="M18.75,140.11c-1-.23-1.24-.56-.9-1.7,0-.11.22-.22.34-.33s.22.11.34.11.22.22.22.34Z"/><path class="cls-1" d="M153.7,144.29c-.79-.68-.79-1.35,0-2.14C154.49,142.94,154.49,143.61,153.7,144.29Z"/><path class="cls-1" d="M15.58,146.44a6.66,6.66,0,0,1-1.48,0c-.22,0-.56-.45-.56-.56a.76.76,0,0,1,.79-.46,2.77,2.77,0,0,1,.91.23C15.69,145.76,15.69,146.1,15.58,146.44Z"/><path class="cls-1" d="M144.29,150.62c.79.68.79,1.36,0,2.15C143.49,152,143.49,151.3,144.29,150.62Z"/><path class="cls-1" d="M133,156.73h-.34a1.13,1.13,0,0,1,0-1.7H133c.11.12.34.23.34.34v1C133.29,156.5,133.06,156.62,133,156.73Z"/><path class="cls-1" d="M130.11,160c.23-1,.57-1.25,1.7-.91.12,0,.23.23.34.34s-.11.23-.11.34-.23.23-.34.23A7.66,7.66,0,0,1,130.11,160Z"/><path class="cls-1" d="M136.92,161.14c.79.68.79,1.35,0,2.15A1.39,1.39,0,0,1,136.92,161.14Z"/><path class="cls-1" d="M97.57,170.52a.75.75,0,0,1-.34.9c-.34.23-.68-.22-.68-.9v-.45l.34-.34c.22-.11.45,0,.68.34Z"/><path class="cls-1" d="M126.94,177.87a.77.77,0,0,1,.91.34c.22.34-.23.68-.91.68h-.46c-.11-.12-.22-.23-.34-.34s0-.46.34-.68C126.6,177.76,126.82,177.87,126.94,177.87Z"/><path class="cls-1" d="M131.13,186.23a6.66,6.66,0,0,1,1.48,0c.22,0,.57.46.57.57a.77.77,0,0,1-.8.45,2.75,2.75,0,0,1-.91-.22A.6.6,0,0,1,131.13,186.23Z"/><path class="cls-1" d="M129.77,194.83c.57.22.57,1.35,0,1.69a.22.22,0,0,1-.34,0c-.56-.22-.56-1.35,0-1.69C129.55,194.71,129.66,194.83,129.77,194.83Z"/><path class="cls-1" d="M142.7,196.18c-.68.79-1.36.79-2.15,0C141.34,195.39,142,195.39,142.7,196.18Z"/><path class="cls-1" d="M125.64,206c-.68.79-1.36.79-2.15,0C124.28,205.23,125,205.23,125.64,206Z"/><path class="cls-1" d="M108.6,168c.68-.79,1.36-.79,2.16,0C110.08,168.74,109.4,168.74,108.6,168Z"/><path class="cls-1" d="M83.25,223.08c-.79-.68-.79-1.36,0-2.15A1.39,1.39,0,0,1,83.25,223.08Z"/><path class="cls-1" d="M107.86,172.09c-.68,0-1.14-.34-.91-.68a.72.72,0,0,1,.91-.34h.45c.34.23.57.46.34.68s-.22.34-.34.34S108.09,172.09,107.86,172.09Z"/><path class="cls-1" d="M119.23.72c-.23.11-.46,0-.68-.34l.34-.34c.22-.11.45,0,.68.34Z"/><path class="cls-1" d="M123.76,2c.12-.79.23-.9,1-1C124.78,1.74,124.67,1.74,123.76,2Z"/><path class="cls-1" d="M123.76,2.42c0,.11-.11.22-.34.34a.42.42,0,0,1-.34.11c-.34-.23-.45-.45-.22-.68s.45-.45.79-.23C123.88,2,123.88,2.3,123.76,2.42Z"/><path class="cls-1" d="M103.8,3.55c-.22.34-.45.45-.68.34s-.34-.34-.34-.34c.23-.34.46-.46.68-.34S103.69,3.43,103.8,3.55Z"/><path class="cls-1" d="M139.18,4.9c-.22.12-.45,0-.68-.34l.35-.33c.22-.12.45,0,.67.33C139.52,4.56,139.3,4.79,139.18,4.9Z"/><path class="cls-1" d="M120.59,5.69s-.23.34-.34.34a1.07,1.07,0,0,1-.57-.45c-.23-.45,0-.68.45-.45A2.5,2.5,0,0,1,120.59,5.69Z"/><path class="cls-1" d="M111.74,7.16c-.11,0-.23-.11-.34-.33a.43.43,0,0,1-.11-.34c.22-.34.45-.46.68-.23s.45.45.23.79C112.2,7.16,112,7.16,111.74,7.16Z"/><path class="cls-1" d="M133.29,7.16c-.8-.11-.91-.22-1-1C133.06,6.26,133.18,6.37,133.29,7.16Z"/><path class="cls-1" d="M135,6.26s.34.23.34.34-.23.56-.45.56c-.46.23-.68,0-.46-.45C134.42,6.49,134.76,6.37,135,6.26Z"/><path class="cls-1" d="M145.2,6.94l-.35-.34c.23-.34.46-.45.69-.34l.34.34C145.65,7.05,145.42,7.05,145.2,6.94Z"/><path class="cls-1" d="M71.14,7.84l-.34.34c-.34-.22-.45-.45-.34-.68l.34-.34C71.14,7.39,71.26,7.62,71.14,7.84Z"/><path class="cls-1" d="M94.62,7.84c-.12-.22,0-.45.34-.68l.34.34c.11.23,0,.46-.34.68C94.85,8.18,94.73,8,94.62,7.84Z"/><path class="cls-1" d="M113.22,7.84s-.23.34-.34.34a1.07,1.07,0,0,1-.57-.45c-.23-.45,0-.68.45-.45C112.88,7.28,113.1,7.62,113.22,7.84Z"/><path class="cls-1" d="M118.77,7.84c-.11-.22,0-.45.34-.68l.34.34c.12.23,0,.46-.34.68C119,8.18,118.89,8,118.77,7.84Z"/><path class="cls-1" d="M134.31,7.16c-.11.8-.34,1-.68.91a.72.72,0,0,1-.34-.91Z"/><path class="cls-1" d="M136.58,7.84c-.12-.22,0-.45.34-.68,0,0,.22.23.34.34s0,.46-.34.68C136.92,8.18,136.69,8,136.58,7.84Z"/><path class="cls-1" d="M117.18,9.09c-.22.11-.45,0-.68-.34l.35-.34c.22-.12.45,0,.68.34Z"/><path class="cls-1" d="M80.44,10.1c-.22.12-.45,0-.68-.34l.34-.33c.23-.12.46,0,.68.33C80.78,9.88,80.56,10,80.44,10.1Z"/><path class="cls-1" d="M90.08,10l-.34.34c-.34-.23-.45-.45-.34-.68l.34-.34A.5.5,0,0,1,90.08,10Z"/><path class="cls-1" d="M98.47,10l-.34.34c-.34-.23-.45-.45-.34-.68l.34-.34A.5.5,0,0,1,98.47,10Z"/><path class="cls-1" d="M104.48,9.43s.34.22.34.33-.22.57-.45.57c-.45.23-.68,0-.45-.45A1.09,1.09,0,0,1,104.48,9.43Z"/><path class="cls-1" d="M67.29,11c-.11-.23,0-.45.34-.68l.34.34c.11.23,0,.45-.34.68C67.52,11.35,67.4,11.12,67.29,11Z"/><path class="cls-1" d="M78.52,12l-.34.33c-.34-.22-.46-.45-.34-.67l.34-.34C78.52,11.57,78.63,11.8,78.52,12Z"/><path class="cls-1" d="M135.56,12c-.12-.23,0-.46.34-.68l.34.34c.11.22,0,.45-.34.67Z"/><path class="cls-1" d="M138.16,11.57l.34.34c-.22.34-.45.45-.68.34l-.34-.34C137.71,11.57,137.94,11.46,138.16,11.57Z"/><path class="cls-1" d="M133,12.59l.34.34c-.23.34-.46.45-.68.34s-.34-.34-.34-.34C132.49,12.59,132.72,12.48,133,12.59Z"/><path class="cls-1" d="M61.62,14.17l-.34.34c-.34-.22-.45-.45-.34-.68l.34-.33C61.62,13.72,61.73,14,61.62,14.17Z"/><path class="cls-1" d="M135,13.61l.34.34c-.23.34-.45.45-.68.34l-.34-.34C134.54,13.61,134.76,13.5,135,13.61Z"/><path class="cls-1" d="M140.43,16.21l-.34.34c-.34-.23-.45-.45-.34-.68s.34-.34.34-.34C140.43,15.76,140.55,16,140.43,16.21Z"/><path class="cls-1" d="M31.57,16.89l.34-.34c.34.22.45.45.34.68l-.34.33A.46.46,0,0,1,31.57,16.89Z"/><path class="cls-1" d="M137.14,17.45c-.22.11-.45,0-.68-.34l.34-.34c.23-.11.46,0,.68.34C137.48,17.11,137.26,17.34,137.14,17.45Z"/><path class="cls-1" d="M26.46,18.81c.23-.11.46,0,.69.34l-.34.34c-.23.11-.46,0-.69-.34Z"/><path class="cls-1" d="M133.29,19.71c.11-.79.34-1,.68-.9a.71.71,0,0,1,.34.9Z"/><path class="cls-1" d="M60.49,20.62c-.23.11-.46,0-.69-.34l.34-.34c.23-.11.46,0,.69.34Z"/><path class="cls-1" d="M140.21,23s.34.23.34.34-.23.57-.46.57c-.45.22-.68,0-.45-.46C139.64,23.22,140,23.1,140.21,23Z"/><path class="cls-1" d="M10.7,24.8l-.34-.34c.23-.34.46-.45.68-.34l.34.34C11.16,24.8,10.93,24.91,10.7,24.8Z"/><path class="cls-1" d="M34.74,24.23l.34-.33c.34.22.46.45.34.67l-.34.34A.51.51,0,0,1,34.74,24.23Z"/><path class="cls-1" d="M47.33,24.23l.34-.33c.34.22.45.45.34.67l-.34.34A.51.51,0,0,1,47.33,24.23Z"/><path class="cls-1" d="M15.47,25.37c.11.22,0,.45-.35.67l-.34-.34c-.11-.22,0-.45.34-.67C15.12,24.91,15.35,25.25,15.47,25.37Z"/><path class="cls-1" d="M147.46,28.08c.34.22.46.45.34.68l-.34.34c-.34-.23-.45-.46-.34-.68Z"/><path class="cls-1" d="M21.36,29.21c.34.23.46.45.34.68l-.34.34c-.34-.23-.45-.46-.34-.68S21.25,29.32,21.36,29.21Z"/><path class="cls-1" d="M28.62,29.32c.23-.11.45,0,.68.34L29,30c-.23.11-.45,0-.68-.34Z"/><path class="cls-1" d="M8.43,30.9c-.11-.22,0-.45.34-.67l.34.34c.12.22,0,.45-.34.67Z"/><path class="cls-1" d="M19,30.57l.34-.34c.34.22.45.45.34.67l-.34.34C19,31,18.87,30.79,19,30.57Z"/><path class="cls-1" d="M34.52,30.68c-.23.34-.46.45-.68.34l-.34-.34c.22-.34.45-.45.68-.34S34.4,30.57,34.52,30.68Z"/><path class="cls-1" d="M144.4,30.34s.34.23.34.34-.23.56-.45.56c-.46.23-.68,0-.46-.45A1.17,1.17,0,0,1,144.4,30.34Z"/><path class="cls-1" d="M20.23,35.31,19.89,35c.22-.33.45-.45.68-.33l.34.33C20.68,35.31,20.45,35.43,20.23,35.31Z"/><path class="cls-1" d="M20.68,37.24l-.34.33c-.34-.22-.45-.45-.34-.67l.34-.34A.48.48,0,0,1,20.68,37.24Z"/><path class="cls-1" d="M16.71,40.06c0,.11-.11.23-.34.34a.41.41,0,0,1-.34.11c-.34-.22-.45-.45-.22-.67s.45-.46.79-.23A.69.69,0,0,1,16.71,40.06Z"/><path class="cls-1" d="M156.49,40.51c-.12-.11-.34-.34-.34-.34.22-.33.45-.45.68-.33l.34.33C156.94,40.51,156.71,40.63,156.49,40.51Z"/><path class="cls-1" d="M5.49,42.55l-.34-.34c.22-.34.45-.45.68-.34l.34.34C5.94,42.55,5.71,42.66,5.49,42.55Z"/><path class="cls-1" d="M155.35,42.89c.23-.12.45,0,.68.34l-.34.34c-.23.11-.45,0-.68-.34A.88.88,0,0,0,155.35,42.89Z"/><path class="cls-1" d="M15.81,44.47c-.12-.23,0-.45.34-.68l.34.34c.11.23,0,.45-.34.68Z"/><path class="cls-1" d="M160.12,45.6l-.35.34c-.34-.23-.45-.45-.34-.68s.34-.34.34-.34A.51.51,0,0,1,160.12,45.6Z"/><path class="cls-1" d="M157.21,46.62l-.33.34c-.34-.23-.46-.45-.34-.68l.34-.34C157.21,46.17,157.33,46.39,157.21,46.62Z"/><path class="cls-1" d="M17.73,49.56c0,.11-.11.22-.34.34a.41.41,0,0,1-.34.11c-.34-.23-.45-.45-.22-.68s.45-.45.79-.22C17.73,49.11,17.73,49.33,17.73,49.56Z"/><path class="cls-1" d="M10.59,56c-.11-.22,0-.45.34-.68l.34.34c.11.23,0,.45-.34.68C10.82,56.34,10.7,56.11,10.59,56Z"/><path class="cls-1" d="M3.33,57.25,3,56.91c.23-.34.45-.46.68-.34l.34.34A.51.51,0,0,1,3.33,57.25Z"/><path class="cls-1" d="M4.47,58.6c.22-.11.45,0,.68.34l-.34.34c-.23.11-.46,0-.69-.34C4,58.94,4.35,58.71,4.47,58.6Z"/><path class="cls-1" d="M166.51,59.73l.34.34c-.22.34-.45.45-.68.34l-.34-.34C166.06,59.73,166.29,59.62,166.51,59.73Z"/><path class="cls-1" d="M165.49,61.77c.12.11.34.34.34.34-.22.34-.45.45-.68.34l-.34-.34C165,61.77,165.27,61.65,165.49,61.77Z"/><path class="cls-1" d="M13.31,63c.11.23,0,.45-.34.68l-.34-.34c-.11-.23,0-.45.34-.68C13.08,62.67,13.2,62.9,13.31,63Z"/><path class="cls-1" d="M168.78,69.34c.12.23,0,.45-.34.68l-.34-.34c-.11-.23,0-.45.34-.68C168.55,68.89,168.67,69.23,168.78,69.34Z"/><path class="cls-1" d="M5.15,74.65c-.23.34-.46.46-.68.34l-.35-.34c.23-.33.46-.45.69-.33Z"/><path class="cls-1" d="M7.07,77l-.34.34c-.34-.23-.45-.45-.34-.68l.34-.34A.47.47,0,0,1,7.07,77Z"/><path class="cls-1" d="M3.9,80.08l-.34.34c-.34-.23-.46-.45-.34-.68l.34-.34C3.9,79.63,4,79.85,3.9,80.08Z"/><path class="cls-1" d="M.72,84.26l-.34.34c-.34-.22-.45-.45-.34-.68l.34-.33C.72,83.81.84,84,.72,84.26Z"/><path class="cls-1" d="M168.78,83.92c.12.23,0,.46-.34.68l-.34-.34c-.11-.22,0-.45.34-.67C168.55,83.59,168.67,83.81,168.78,83.92Z"/><path class="cls-1" d="M171.28,84.26c-.12-.22,0-.45.34-.67l.34.33c.11.23,0,.46-.34.68C171.5,84.6,171.39,84.38,171.28,84.26Z"/><path class="cls-1" d="M4.24,86.41c-.11-.22,0-.45.34-.68l.34.34c.11.23,0,.45-.34.68Z"/><path class="cls-1" d="M166.57,87.53c.23-.11.45,0,.68.34l-.34.34c-.23.12-.45,0-.68-.34C166.23,87.87,166.46,87.65,166.57,87.53Z"/><path class="cls-1" d="M6.73,87.77c-.11,0-.22-.11-.34-.34a.42.42,0,0,1-.11-.34c.23-.34.45-.45.68-.23s.45.46.23.8C7.19,87.88,6.85,87.88,6.73,87.77Z"/><path class="cls-1" d="M.91,89.46c.34.22.46.45.34.67l-.34.34C.57,90.25.46,90,.57,89.8S.69,89.57.91,89.46Z"/><path class="cls-1" d="M8.21,88.45s-.23.34-.34.34a1.14,1.14,0,0,1-.57-.46c-.23-.45,0-.67.45-.45C7.87,87.88,8,88.22,8.21,88.45Z"/><path class="cls-1" d="M4.69,102.46c-.11,0-.22-.11-.34-.33a.43.43,0,0,1-.11-.34c.23-.34.45-.46.68-.23s.45.45.23.79A.72.72,0,0,1,4.69,102.46Z"/><path class="cls-1" d="M5.15,103.48v-1c.79.12.9.23,1,1Z"/><path class="cls-1" d="M5.15,103.93c0,.12-.12.23-.34.34a.41.41,0,0,1-.34.12c-.35-.23-.46-.46-.23-.68s.45-.45.79-.23A.66.66,0,0,1,5.15,103.93Z"/><path class="cls-1" d="M2.05,93.59c-.23.11-.46,0-.68-.34l.34-.34c.22-.11.45,0,.68.34C2.39,93.36,2.16,93.48,2.05,93.59Z"/><path class="cls-1" d="M158.69,107.33c-.11-.23,0-.46.34-.68l.34.34c.11.22,0,.45-.34.67C158.92,107.66,158.8,107.44,158.69,107.33Z"/><path class="cls-1" d="M5.83,91c.23-.12.45,0,.68.33l-.34.34c-.23.12-.45,0-.68-.34C5.49,91.24,5.72,91.13,5.83,91Z"/><path class="cls-1" d="M157.44,108.68h-1c.12-.79.34-1,.68-.9A.74.74,0,0,1,157.44,108.68Z"/><path class="cls-1" d="M158.35,109.36s-.23.34-.34.34-.57-.23-.57-.45c-.23-.45,0-.68.46-.45A1.1,1.1,0,0,1,158.35,109.36Z"/><path class="cls-1" d="M158.35,111.51l-.34.34c-.34-.23-.45-.45-.34-.68l.34-.34C158.35,111.06,158.46,111.28,158.35,111.51Z"/><path class="cls-1" d="M3.9,112.53l-.34.34c-.34-.23-.46-.46-.34-.68s.34-.34.34-.34C3.9,112.07,4,112.3,3.9,112.53Z"/><path class="cls-1" d="M157.33,113.54s-.23.34-.34.34-.57-.22-.57-.45c-.22-.45,0-.68.46-.45A1.2,1.2,0,0,1,157.33,113.54Z"/><path class="cls-1" d="M2.31,115.92,2,115.58c.23-.34.45-.45.68-.34l.34.34C2.76,115.92,2.54,116,2.31,115.92Z"/><path class="cls-1" d="M4.92,118.52c.11.22,0,.45-.34.68l-.34-.34c-.11-.23,0-.46.34-.68C4.69,118.18,4.81,118.4,4.92,118.52Z"/><path class="cls-1" d="M8.43,120.55l.34-.34c.34.23.46.46.34.68l-.34.34A.48.48,0,0,1,8.43,120.55Z"/><path class="cls-1" d="M3.67,123.27c-.23.11-.45,0-.68-.34l.34-.34c.23-.12.45,0,.68.34C4.12,122.93,3.78,123.15,3.67,123.27Z"/><path class="cls-1" d="M152.11,122.93s-.22.34-.34.34a1.12,1.12,0,0,1-.56-.46c-.23-.45,0-.67.45-.45C151.77,122.47,151.89,122.7,152.11,122.93Z"/><path class="cls-1" d="M162.54,124.85c.12.22,0,.45-.33.68l-.34-.34c-.12-.23,0-.45.34-.68C162.21,124.4,162.43,124.62,162.54,124.85Z"/><path class="cls-1" d="M164.93,125.19c-.12-.23,0-.45.34-.68,0,0,.22.23.34.34s0,.45-.34.68Z"/><path class="cls-1" d="M154.49,128.24c-.11-.23,0-.45.34-.68l.34.34c.12.23,0,.45-.34.68C154.72,128.69,154.61,128.35,154.49,128.24Z"/><path class="cls-1" d="M6.85,129.48c-.23.12-.46,0-.68-.34l.34-.33c.22-.12.45,0,.68.33C7.19,129.26,7,129.37,6.85,129.48Z"/><path class="cls-1" d="M152,129.37l-.34.34c-.34-.23-.45-.45-.34-.68l.34-.34A.51.51,0,0,1,152,129.37Z"/><path class="cls-1" d="M144.74,135.59s-.23.34-.34.34-.57-.23-.57-.45c-.22-.46,0-.68.46-.46C144.4,135,144.63,135.36,144.74,135.59Z"/><path class="cls-1" d="M152.57,135.81l-.34-.33c.22-.34.45-.46.68-.34l.34.34C153,135.81,152.79,135.93,152.57,135.81Z"/><path class="cls-1" d="M148.82,137.4c.12.22,0,.45-.34.68,0,0-.22-.23-.34-.34s0-.46.34-.68C148.6,137.06,148.71,137.28,148.82,137.4Z"/><path class="cls-1" d="M162,137.85l-.34-.34c.23-.34.45-.45.68-.34l.34.34C162.43,137.85,162.21,138,162,137.85Z"/><path class="cls-1" d="M144.85,139.09h1c-.12.79-.34,1-.68.91A.71.71,0,0,1,144.85,139.09Z"/><path class="cls-1" d="M148.37,140l-.34-.34c.23-.34.45-.45.68-.34l.34.34C148.82,140,148.6,140.11,148.37,140Z"/><path class="cls-1" d="M15.58,142.82c-.23.34-.46.46-.68.34l-.34-.34c.22-.34.45-.45.68-.34S15.47,142.71,15.58,142.82Z"/><path class="cls-1" d="M11.72,145.2l-.34-.34c.23-.34.46-.45.68-.34l.34.34A.51.51,0,0,1,11.72,145.2Z"/><path class="cls-1" d="M16.6,147.12s-.23.34-.34.34-.57-.23-.57-.45c-.22-.46,0-.68.46-.46C16.26,146.55,16.49,146.89,16.6,147.12Z"/><path class="cls-1" d="M136,148.48c-.11,0-.23-.12-.34-.34a.43.43,0,0,1-.11-.34c.22-.34.45-.45.68-.23s.45.45.22.79A.28.28,0,0,1,136,148.48Z"/><path class="cls-1" d="M20.57,149.38c-.23.11-.46,0-.68-.34l.34-.34c.22-.11.45,0,.68.34C20.91,149.15,20.68,149.27,20.57,149.38Z"/><path class="cls-1" d="M137.37,149.15s-.23.34-.34.34a1.11,1.11,0,0,1-.57-.45c-.22-.45,0-.68.46-.45A1.14,1.14,0,0,1,137.37,149.15Z"/><path class="cls-1" d="M22.84,150c.11.22,0,.45-.34.67l-.34-.34c-.12-.22,0-.45.34-.67Z"/><path class="cls-1" d="M136.12,155.71c-.22.11-.45,0-.68-.34l.34-.34c.23-.11.46,0,.68.34Z"/><path class="cls-1" d="M32,155.94s.34.22.34.34-.23.56-.45.56c-.46.23-.68,0-.46-.45C31.45,156.28,31.79,156.05,32,155.94Z"/><path class="cls-1" d="M30.32,158c.11-.79.23-.9,1-1C31.23,157.75,31.11,157.86,30.32,158Z"/><path class="cls-1" d="M30.32,158.42c0,.12-.11.23-.34.34a.4.4,0,0,1-.34.12c-.34-.23-.45-.46-.23-.68s.46-.45.8-.23C30.32,158,30.32,158.31,30.32,158.42Z"/><path class="cls-1" d="M34.52,158.42c0,.12-.12.23-.34.34a.41.41,0,0,1-.34.12c-.34-.23-.46-.46-.23-.68s.45-.45.79-.23C34.63,158,34.52,158.31,34.52,158.42Z"/><path class="cls-1" d="M143,161.25c.23-.11.45,0,.68.34l-.34.34c-.23.11-.45,0-.68-.34Z"/><path class="cls-1" d="M147.12,163.85c-.11-.23,0-.45.34-.68l.34.34c.12.23,0,.45-.34.68C147.35,164.19,147.24,164,147.12,163.85Z"/><path class="cls-1" d="M33.61,166c-.11-.23,0-.45.34-.68l.34.34c.11.23,0,.45-.34.68Z"/><path class="cls-1" d="M108.11,165.77c-.22.34-.45.45-.68.34l-.34-.34c.23-.34.46-.45.68-.34S107.89,165.66,108.11,165.77Z"/><path class="cls-1" d="M135.22,166l-.34.34c-.34-.23-.46-.45-.34-.68l.34-.34C135.22,165.55,135.33,165.77,135.22,166Z"/><path class="cls-1" d="M144.51,168.26c-.22.11-.45,0-.68-.34l.34-.34c.23-.11.46,0,.68.34C144.85,167.92,144.63,168.15,144.51,168.26Z"/><path class="cls-1" d="M53.11,168.6l.34.34c-.22.34-.45.45-.68.34l-.34-.34C52.66,168.6,52.89,168.49,53.11,168.6Z"/><path class="cls-1" d="M135.22,168.82c.11.23,0,.46-.34.68l-.34-.34c-.12-.22,0-.45.34-.67C134.88,168.37,135.1,168.71,135.22,168.82Z"/><path class="cls-1" d="M63.43,170.52c-.11,0-.22-.11-.34-.34a.41.41,0,0,1-.11-.34c.23-.34.45-.45.68-.22s.45.45.23.79C63.89,170.52,63.66,170.52,63.43,170.52Z"/><path class="cls-1" d="M64.91,171.2s-.23.34-.34.34a1.18,1.18,0,0,1-.57-.45c-.23-.46,0-.68.45-.46C64.57,170.63,64.79,171,64.91,171.2Z"/><path class="cls-1" d="M103.46,170.63s.34.23.34.34a1.11,1.11,0,0,1-.45.57c-.45.22-.68,0-.45-.45C102.9,170.86,103.24,170.75,103.46,170.63Z"/><path class="cls-1" d="M133.63,170.75c.22-.12.45,0,.68.34l-.34.33c-.23.12-.46,0-.68-.33C133.29,171,133.51,170.86,133.63,170.75Z"/><path class="cls-1" d="M131,171.88c.11.22,0,.45-.34.68l-.34-.34c-.11-.23,0-.46.34-.68Z"/><path class="cls-1" d="M145,171.88l.34-.34c.34.22.45.45.34.68l-.34.34A.5.5,0,0,1,145,171.88Z"/><path class="cls-1" d="M138.73,173l.34-.34c.34.22.45.45.34.68l-.34.34C138.73,173.46,138.62,173.23,138.73,173Z"/><path class="cls-1" d="M87.59,174.7c-.12,0-.23-.11-.34-.34a.39.39,0,0,1-.12-.34c.23-.33.46-.45.68-.22s.46.45.23.79C88,174.7,87.81,174.7,87.59,174.7Z"/><path class="cls-1" d="M149.16,174.36c-.11-.22,0-.45.34-.67l.34.34c.12.22,0,.45-.34.67Z"/><path class="cls-1" d="M141.79,175.38c-.11-.22,0-.45.34-.68l.34.34c.12.23,0,.45-.34.68A.8.8,0,0,0,141.79,175.38Z"/><path class="cls-1" d="M152.34,175.38c-.11-.22,0-.45.34-.68l.34.34c.11.23,0,.45-.34.68Z"/><path class="cls-1" d="M101.88,176.4c-.12-.23,0-.45.34-.68l.34.34c.11.23,0,.45-.34.68C102.22,176.85,102.1,176.63,101.88,176.4Z"/><path class="cls-1" d="M94.73,177c.23-.11.46,0,.68.34l-.34.34c-.22.12-.45,0-.68-.34Z"/><path class="cls-1" d="M128.07,180.47c-.22.34-.45.45-.68.34l-.34-.34c.23-.34.45-.45.68-.34S127.85,180.36,128.07,180.47Z"/><path class="cls-1" d="M135,180.81c-.23.11-.45,0-.68-.34l.34-.34c.23-.11.45,0,.68.34C135.33,180.47,135.1,180.69,135,180.81Z"/><path class="cls-1" d="M144.4,180s.34.22.34.34a1.14,1.14,0,0,1-.45.56c-.46.23-.68,0-.46-.45A2.57,2.57,0,0,1,144.4,180Z"/><path class="cls-1" d="M31,163.15c-.11-.23,0-.45.34-.68l.34.34c.12.23,0,.45-.34.68Z"/><path class="cls-1" d="M86.91,181.71l-.34.34c-.34-.22-.46-.45-.34-.68l.34-.34C86.91,181.26,87,181.49,86.91,181.71Z"/><path class="cls-1" d="M143.72,181.49c0,.11-.11.22-.34.34a.42.42,0,0,1-.34.11c-.34-.23-.45-.45-.23-.68s.46-.45.8-.23C143.83,181,143.83,181.26,143.72,181.49Z"/><path class="cls-1" d="M130.45,184l-.34-.34c.23-.33.46-.45.68-.34l.34.34C130.91,184,130.68,184.09,130.45,184Z"/><path class="cls-1" d="M139.75,185.56l.34-.34c.34.22.46.45.34.68l-.34.33C139.75,186,139.64,185.78,139.75,185.56Z"/><path class="cls-1" d="M143.61,186.91l-.34.34c-.34-.22-.46-.45-.34-.68l.34-.34C143.61,186.46,143.72,186.69,143.61,186.91Z"/><path class="cls-1" d="M126.82,189.06l-.34.34c-.34-.23-.45-.45-.34-.68s.34-.34.34-.34A.5.5,0,0,1,126.82,189.06Z"/><path class="cls-1" d="M131,189.74c.11.22,0,.45-.34.68l-.34-.34c-.11-.23,0-.45.34-.68Z"/><path class="cls-1" d="M37.64,171.76c.22-.12.45,0,.68.34l-.34.34c-.23.11-.46,0-.68-.34Z"/><path class="cls-1" d="M137.6,195.28c-.12-.23,0-.45.34-.68,0,0,.22.23.34.34s0,.45-.34.68Z"/><path class="cls-1" d="M94.05,197.54c-.23.11-.45,0-.68-.34l.34-.34c.23-.11.45,0,.68.34C94.39,197.31,94.16,197.43,94.05,197.54Z"/><path class="cls-1" d="M106.87,195.74c-.12.11-.34.34-.34.34-.35-.23-.46-.45-.35-.68l.35-.34C106.87,195.29,107,195.51,106.87,195.74Z"/><path class="cls-1" d="M125.69,198.9l-.34.34c-.34-.22-.45-.45-.34-.68l.34-.33C125.8,198.34,125.8,198.56,125.69,198.9Z"/><path class="cls-1" d="M95.75,202.85l-.34-.34c.23-.34.46-.45.68-.34l.34.34A.47.47,0,0,1,95.75,202.85Z"/><path class="cls-1" d="M96.32,205.45c.11.23,0,.45-.34.68l-.34-.34c-.11-.22,0-.45.34-.68Z"/><path class="cls-1" d="M98.93,207l-.34-.34c.22-.34.45-.46.68-.34l.34.34C99.38,207,99.15,207.15,98.93,207Z"/><path class="cls-1" d="M84.3,212.4c.23-.11.45,0,.68.34l-.34.34c-.23.11-.45,0-.68-.34C83.85,212.74,84.19,212.51,84.3,212.4Z"/><path class="cls-1" d="M82.44,202.89c.11.22,0,.45-.34.68l-.35-.34c-.11-.23,0-.45.35-.68C82.1,202.44,82.32,202.78,82.44,202.89Z"/><path class="cls-1" d="M110.81,172.88l-.34.34c-.34-.22-.46-.45-.34-.68l.34-.34C110.92,172.32,110.92,172.54,110.81,172.88Z"/><path class="cls-1" d="M67.16,176.61l-.34.33c-.34-.22-.46-.45-.34-.67l.34-.34C67.16,176.15,67.27,176.38,67.16,176.61Z"/><path class="cls-1" d="M84.07,188c-.11-.22,0-.45.34-.67l.34.33c.12.23,0,.46-.34.68Z"/><path class="cls-1" d="M130.68,186.23c-.11,0-.23-.11-.34-.33a.43.43,0,0,1-.11-.34c.22-.34.45-.46.68-.23s.45.45.22.79C131.13,186.23,130.79,186.23,130.68,186.23Z"/></svg>