<svg id="Layer_1" data-name="Layer 1" xmlns="http://www.w3.org/2000/svg" viewBox="0 0 143 9"><defs><style>.cls-1{fill:#f2994a;}</style></defs><path class="cls-1" d="M142.8,3.7c0-.44-.2-.54-1.27-.58-.17,0-.44,0-.62,0-2.75-.11-5.52-.15-8.27-.26l-7.39-.18c-1.51,0-3,0-4.54,0l-7.45-.41a18.35,18.35,0,0,0-2.84-.12c-6,.06-51.8,0-57.8.1-2.86,0-5.62,0-8.56-.09C41.3,2,38.51.56,35.67.43c-2,0-4,1.34-6,1.36-.89,0-1.8.13-2.7.19a52,52,0,0,1-6,.2,59.26,59.26,0,0,0-8.24.18,14.13,14.13,0,0,1-2.58-.08,14.16,14.16,0,0,0-2.91-.21c-1.54.1-3.23.1-4.77.27A5.7,5.7,0,0,0,1,2.67C.47,2.93.28,2.55.48,3s.82.57,1.5.83a8.07,8.07,0,0,0,2.29.32c1.69,0,3.38.07,5.07.14,2,.06,4.17.21,6.21.27,1,0,2.06,0,3,.08a62,62,0,0,0,8.28.19c2.05,0,4.13-.16,6.17-.1,5.78.19,11.64.47,17.5.75,1.68.07,3.45.23,5,.13,2.35-.25,4.79,1.17,7.27,1.31,3.38.14,13-2.4,16.32-2.18,1.68.07,37,1.76,38.62,1.81,1.33.09,2.67.1,4,.18,1.16,0,2.25,1.46,3.33,1.43,1.88,0,3.73-1.45,5.61-1.49q4.68,0,9.31.51a1.88,1.88,0,0,0,1-.12,5.26,5.26,0,0,0,1.21-1A17.72,17.72,0,0,0,142.85,4l-.09,0Z"/></svg>