<svg id="Layer_1" data-name="Layer 1" xmlns="http://www.w3.org/2000/svg" viewBox="0 0 409.2 391"><defs><style>.cls-1{fill:#e62f48;}</style></defs><path class="cls-1" d="M252.13,309.6c1.87.41,3.05.41,3.26,1.24.91,2.42,1.54,4.92,2.31,6.79.08,2.63-3.93,1.57-1,5,0,0,1.63-1.3,2.67-.68-.27,2.43,1.11.91.92,3.62,1.38.82.85-3.18,2.23-2.36a10.12,10.12,0,0,1,2.85.05c1.52.2,2.85-7.08,2.93-5.63.56,2.22,5.81-4.62,6.37-2.4.21.83-1.67,2.37-1.46,3.2l2.43,1.45c.35,1.39,6.29-9.55,6.86-7.33-.42.69-1,2-1.58,3.05,1.18,2.36,4.21-.77,5.89,2.34,1.76,6.93-4.66-1.18-2.76,6.3-.62,1.05,3.92.78,3.3,1.82.42,1.66-3.47,1.18-3.12,2.56,1.11.9,3,.42,4,1-2.4,4.45,2.62-2.54,7.13.15,2.77-.27-.73-4.68-.66-9.16.41-.7,3.68,2.19,4.29,1.15-.07-.28,1.83-1.35,2.49-4.35.73-6.39-2.81-9-5.93-10.59-.76-.69-1.81-1.31-2.92-2.21.42-.69.48-1.59,1-1.73a18.49,18.49,0,0,1,3.87-1,2.35,2.35,0,0,0,1.86-1.95l-1.33-5.26c-1.4-2-4.22.78-5.68-1.51.2-.34.34-1,.61-1,2.42-.91,4.91-1.54,7.33-2.45,1.31.55,2.35,1.17,3.67,1.72a7.81,7.81,0,0,1,2.56-.35,25.57,25.57,0,0,0,3.4,1.79c2-1.4-.78-4.23,1.49-5.69l1.05.62a4.33,4.33,0,0,0,1.94.68,1.92,1.92,0,0,0,.61-2.22,1.8,1.8,0,0,1,.26-2.42c.49-.42,1.11-.29,2.15.33,1.11.9,2.29.9,4.43.06.68-1.94,1.57-4.24,2.33-5.9l8.84-2.25c1.25.27,1.74,1,1.32,1.73l-2.26,3.82c-.83.21-2.14.84-3.25,1.12-1.38.35,1.52-1,1,.62,1,.62.28,1.11,1.32,1.73.29,1.11-.32,1.85,1.62,2.54a34.54,34.54,0,0,1,2.53-3.59c1.39.82,3.37-4.11,4.76-3.28.42,1.66,3.22,3.57,3.71,5.51,3.61-7.4,2.72-9.5,2.17-8.18.82-2,3.36-3.51,4.63,1.47-.62,1,1.28-.54,2-3.17.42,1.67,1.36-5.82,1.78-4.16,4.06,1.33-2.07,8.6,1.59,6.26-.77-.69,2.58,1.11,1.47.21-.35-1.38,4-.83,3.62-2.49-1.11-.9,2-3.36.62-4.19-.64-2.49,3.94.47,3.31-2,.62-1-1.41-2.06-.79-3.1-1.06-4.16,4.95,4.4,3.89.25.55-1.32-1.95-3.05-1.13-4.44-1.55-6.09-4-.75-5.49-6.56.4-1.88,1.93-1.67,3.24-2.3a25.57,25.57,0,0,0,3.4,1.79c.34.2.83-.21,1.38-.35-.35-1.39-.63-2.5-1-3.88a25.41,25.41,0,0,1-3.19-2.14,18.25,18.25,0,0,0,1.58-3.06,26.55,26.55,0,0,0-3.19-2.14c-.57-3.39-.64-3.67,2.68-4.51,2.08,1.24,4.43,2.41,6.52,3.65.34.21.82-.21,1.1-.28l-1-3.88a46.3,46.3,0,0,0,2.67-4.51,13,13,0,0,0,3.45-2.65l-2.08-1.24c-.69-.42-.56-1,.06-2.08a9.05,9.05,0,0,0,.89-2.29c-.35-1.39-.5-3.12.61-3.4s1.6,1.66,2.15,2.69c.14.56,1.53,1.39,1.74,1a1.91,1.91,0,0,0,.61-2.22c-.36-2.57-.08-2.64,2.34-3.55.27-.07.76-.48,1-.55l2.68-4.52c.21-.35-.21-.83-.28-1.11a1.9,1.9,0,0,1-2.42-.27c-.77-.69-.08-1.45,2.34-2.36l-.55.14a1.75,1.75,0,0,1,.06-2.08c.41-.7,1-.84,1.8.13.07.28-.14.63-.07.9a3.07,3.07,0,0,1-1.17,1.19,4.26,4.26,0,0,0,.08,2.63,16.3,16.3,0,0,0,3.59-.91c.56-.14,1.1-1.46,1-2a44.18,44.18,0,0,0-1.55-6.09,1.92,1.92,0,0,1-2.42-.27c-.76-.69-.07-1.46,1.79-2.23-.35-1.38-.63-2.49-1-3.88.83-1.39,1.93-2.84,3-4.58l6.91-1.76a9.49,9.49,0,0,0,3-5.49c-2.15-1.51-4.22.78-6.09.37a28.19,28.19,0,0,1-2.33,3.54l-2.49.64c-2.5-1.73-5.2-3.1-7.7-4.83.41-.69.75-1.67,1.3-1.81,4.08-1.33,8.23,93.76,12.37,92.71.28-.07.41-.7.62-1a27.79,27.79,0,0,1-3.19-2.14c-.35-.21-.21-.83-.28-1.11a1.92,1.92,0,0,1-2.43-.27c-.76-.69-.07-1.46,1.79-2.23l-.63-2.49-3.59.92c-.28.07-.63-.14-1-.35s-.7-.41-.49-.76.34-1,.62-1c2.55-1.54,3.52-1.19,4.71,1.16a1.8,1.8,0,0,0,2-1.39c.47-1.6-.85-3.33.87-4.65l2.22-.56a19.64,19.64,0,0,0,3.32,1.51c1.45-1.25.55-2.5.12-4.16-1.38-.83-3.05-1.58-5.13-2.82-1.25-.28-3.1,1.67-5.39.78-.35-.21-.7-.42-.77-.69a1.32,1.32,0,0,1,.62-1.05,9.24,9.24,0,0,1,2.7-1,44.2,44.2,0,0,1,2.74-4.23c.2-2.71-1-5.06-1.34-7.63.33-2.15,1.71-3.68,2.53-5.07,1.52-1,2.56-1.53,3.8-2.43-2.43-1.45-4.58-3-6.66-4.21,1.23-2.09,2.26-3.82,3.29-5.56a1.27,1.27,0,0,0-1.25-1.45c-.35-.21-.83.21-1.38.35a1.79,1.79,0,0,1-2.42-.27c-.49-.76.4-1.87,2.06-2.29l3.87-1a7.82,7.82,0,0,0,2.42-.91l2.68-4.51c-2-2.14-4.08.15-6.16.09-.69-.41-1.59-.48-2.29-.89-2.7-1.38-5.2-3.11-8-4.76-1-.62-1.39-.83-1.33-1.73a1.9,1.9,0,0,1,2-1.39l1.11-.28a6.89,6.89,0,0,0,6,1.43l2.42,1.45a8.63,8.63,0,0,0,5.81-1.48c.21-.34,1-.83.89-1.11-.56-2.22-1.05-4.15-1.62-6.37l-2.48.63a1.8,1.8,0,0,1-2.43-.27c-.41-.48,0-1.18.62-2.22l.61-1c-1.25-2.63-4,.43-5.4-1.58a24.45,24.45,0,0,0,1.78-3.4c-1-3.88-2-7.76-2.88-11.36a1.92,1.92,0,0,1-2.43-.27,3.66,3.66,0,0,1-.84-3.32,1.79,1.79,0,0,1,2-1.4c-.07-.27.06-.9-.28-1.11a55.74,55.74,0,0,0-4.86-2.89c-.35-.21-.83.21-1.11.28.29,1.11.64,2.49.92,3.6-1.24,2.09-1.24,2.09-2.69,2.16-1.66.42-2.07-.06-2.77-1.65a3.34,3.34,0,0,1,.6-3.4l3.6-.92c-.14-.55-.56-1-.35-1.38a27,27,0,0,0,1.78-3.41l-4.51-2.69a25.72,25.72,0,0,1-2.13,3.2c-1.66-.76-2.64-2.28-1.61-4a9.12,9.12,0,0,0,1.16-4.72c-.29-1.11.88-2.29,2.34-2.37a2.35,2.35,0,0,0,1.86-1.94c-.57-2.22-1.2-4.72-1.83-7.21a1.26,1.26,0,0,0-1.94-.68c-.28.06-.42.69-.62,1l1.26,5c-1.51,2.16-1.51,2.16-6.62,2.87-1.25-.27-1.46-1.1-.43-1.66.76-.49,1.66-.42,2.35-1.19.48-.42,1.38-1.53,1.31-1.81A1.91,1.91,0,0,0,376,151c-3.18.22-3.18.22-3.75-2l-.91-3.6c.41-.7.62-1,.82-1.39,1.37-2.71,1.16-3.54-1.06-5.34-.76-.69-1.39-.83-1.32-1.73.34-1,1.17-1.18,2-1.39,1.66-.42,2.07-1.12,1.92-2.85a2.69,2.69,0,0,0-2.43-2.62c-.9-.07-1.66.42-2.56.35-.27.07-.69-.41-1.31-.55-.43-1.66-.85-3.32-1.34-5.26a10.82,10.82,0,0,1,1.85-3.13c-1.39-2-4.29.5-5.68-1.51l-.63-2.49c.54-2.5,4.07-1.33,4.27-4l-8-4.76-3.87,1a1.48,1.48,0,0,1-.34,2.15c.63,1.32-.2,1.53-.75,1.67a1.92,1.92,0,0,1-2.22-.62c-.07-.27.48-1.59,1-1.73a16,16,0,0,1,3.6-.92c-.14-.55-.56-1-.35-1.38a25.18,25.18,0,0,1,1.78-3.41c-.7-2.77-1.34-5.26-2-7.75-.35-.21-1.11-.9-1-.63-.42.7-1.17,1.19-1,1.74a18.54,18.54,0,0,0,1,3.88,1.91,1.91,0,0,1-.61,2.22c-2,.22-3.94,1.89-6.29.72.19-2.71,2.12-4.38,3.29-6.74a25.41,25.41,0,0,1-3.19-2.14c-.29-1.11-.64-2.49-1-3.88l-3.59.92c-.28.07-.63-.14-1-.35s-.7-.41-.49-.76.34-1,.62-1c2.55-1.53,3.52-1.19,4.71,1.16,1.17,0,1.93-.49,2-1.39.06-2.08-.23-4.37,1.7-6-.28-1.11-.63-2.49-.92-3.6-.21-.83-.42-1.66-1.39-2a3,3,0,0,0-3.39.57c-1.3,1.81-2.26,3.82-3.57,5.63-.69-.42-1.59-.48-1.73-1a27.18,27.18,0,0,1-1.2-4.71c.55-1.32,2.06-2.29,1.44-3.61-1-1.52-2.43-.27-3.53,0-.62,1-1.52,2.15-2.13,3.19L329,77.07a5,5,0,0,1,1.58-1.87,18.49,18.49,0,0,1,3.87-1c.55-.14.89-1.11,1.58-1.88l-4.51-2.68A7.75,7.75,0,0,1,329,70a26.88,26.88,0,0,0-3.4-1.79,5.48,5.48,0,0,0-2.28,1.46c-.76.49-.69-.41-.21-.83,1-.83,1.66-.42,1.39.83a2.91,2.91,0,0,1-1.1,1.46s-1-.34-.08-1.46c.82-1.38.41-1.87.61-2.22l1.86-3.12c-1-.62-2.15-1.52-2.85-1.93a25.57,25.57,0,0,1,1.51-3.34c-2.43-1.44-4.29.5-6.64.51a42.16,42.16,0,0,1-4.23-2.76c.13-1.8,2.68-3.33.87-5.82l-3.12-1.87a25.58,25.58,0,0,0,1.78-3.4c-.28-1.11-.15-2.91-1.95-3-1.18,0-1.38,1.53-2.27,2.64-2.63.08-1.54-3.74-4-4.29l-3,.78c-1,2-1.85,4.3-2.88,6a10,10,0,0,1-3.11.5,19,19,0,0,0-3.33-1.52l-2.68,4.52c-.21.34.21.83.28,1.11a1.47,1.47,0,0,1,2.15.33c.42.49.63,1.32,1.11,2.08a1.9,1.9,0,0,1-.61,2.22c-.28.07-1.59-.48-1.73-1a16.14,16.14,0,0,1-.92-3.6,2.1,2.1,0,0,1-2.91-1,13.68,13.68,0,0,1-.84-3.33l-3.6.91a1.5,1.5,0,0,1-1-.34c-.35-.21-.69-.41-.49-.76s.35-1,.62-1c2.56-1.54,3.53-1.19,4.71,1.16.56-.14,1.18,0,1.38-.35a44.87,44.87,0,0,0,2.68-4.52c-.69-.41-1.18-1.17-1.73-1a18.31,18.31,0,0,0-3.87,1,1.91,1.91,0,0,1-2.22-.61c.62-1,1.17-2.36,1.79-3.41-2.16-1.51-5.19.44-7-2.05-.62,1-1.51,2.15-2.13,3.19l-5,1.27c-1-.62-2.36-1.17-3.4-1.79l-11.61,2.95c-.83.21-2,.21-2.21-.62-.08-.27.47-1.59,1-1.73,1-.56,2.48-.64,3-2.23a48.07,48.07,0,0,0-4.71-2.34,10.29,10.29,0,0,1-2,2.57c-2.7-.2-1.54-3.74-4-4.29l-5.25,1.34c-1.46-1.11-1.46-1.11.12-4.16l-4.17-2.48c-3.32-.34-5.8,1.47-8.43,1.55l-1.86,3.13c-3,.77-6.28,1.89-9.67,2.46-1.38.35-2.29-.9-2.36-2.35a1.76,1.76,0,0,0-.56-1L211.92,31a8.66,8.66,0,0,1-1.12-2.08c-.42-1.66-.29-3.46-2.58-4.35l-2.48.63c-1.52,2.15-2.13,4.37-4.34,6.11-1.59-.48-1.39-2-2-3.32-1.38-.82-3-1.58-4.78-2.62l-4.7,1.2c-1.32-.55-2.36-1.17-3.68-1.72a26.08,26.08,0,0,1-2.13,3.2l-3.87,1c.28,1.11.64,2.49.92,3.6.07.28-.14.63-.34,1s-.42.7-.76.49-1-.34-1-.62c-1.54-2.56-1.2-3.53,1.15-4.72l-.63-2.49a1.82,1.82,0,0,0-1.4-2c-.62-.13-1,.56-1.65,1.6-.2.35-.41.7-.62,1a7.24,7.24,0,0,1-4.44-2.41c-1.11-.89-1.81-2.49-2.78-4a21.45,21.45,0,0,1-2.13,3.2,20.64,20.64,0,0,0-3.33-1.52c-1.24,2.09-2.27,3.82-3.5,5.91-1.45.07-2-1-2.29-2.07a2.62,2.62,0,0,0-1.67-1.94,8.09,8.09,0,0,1-2.56.36c-1.24,2.08-2.75,4.23-4,6.32-1.59-.48-1.67-1.94-2.22-3a2.57,2.57,0,0,0-2.09-1.25,65.88,65.88,0,0,0-7.18,1.83c-2.48,4.17-2.48,4.17-6,3-.56-1-.15-2.91-1.67-3.11-1.18,0-1.24,2.08-2.35,2.36-2.62,1.26-5.59,2.31-8.64,1.91-1.45-1.11-1.39-3.19-1.82-4.85a1.92,1.92,0,0,0-1.6-1.66c-.27.07-.82,1.39-1,2-.06.91.15,1.74.09,2.64.07.28-.42.69-.62,1l-3.87,1a2.09,2.09,0,0,1-1,2.92c-1,.56-2.21.56-4.49,2-.75.48-.69-.42-.21-.84,1-.83,1.66-.42,1.39.83a2.87,2.87,0,0,1-1.1,1.46s-1-.34-.08-1.45a25.45,25.45,0,0,0-1.07-8.88l-4.15,1.06c-1,2-1.85,4.3-2.4,5.62-2.07,1.12-3.17,1.4-4.14,2.24-.76.48-.82,1.38-.19,2.7l-.14-.55a1.74,1.74,0,0,1,2.07.06c.7.41.84,1-.13,1.8-.27.07-.62-.14-.9-.07a3.05,3.05,0,0,1-1.18-1.17,3.21,3.21,0,0,1-2.56-.82c-1.18-1.18-.85-3.33-3-3.67l-5,1.27c-.62,1-1.51,2.15-2.13,3.19l-2.49.64c-1.38,1.53-.33,3.33.09,5,.35,1.38.29,2.28-.68,3.12-.34-.21-1-.34-1-.62a30.8,30.8,0,0,1-1.54-4.92c-.28-1.11-1.81-1.31-3.19-1A2.59,2.59,0,0,0,69,44.33c1,.62,1.81,1.31,2.85,1.93a7.55,7.55,0,0,1-1.31,1.81,58.59,58.59,0,0,1-6.91,1.76l-4.86-2.9-1-3.88c-2,.22-2.7-.2-3-1.3-.7-1.6-.85-3.33-1.82-4.85-.49-.76-1.39-.83-2.43-.27.78,3,1.48,5.82,2.26,8.87A1.26,1.26,0,0,1,51.47,47a1.3,1.3,0,0,1-1-.62l-.63-2.5c-.7-.41-1.74-1-2.29-.89-1.94.49-4.36.22-5.53,2.58a24.77,24.77,0,0,1,3.2,2.14l.63,2.5c1.32,1.72,3.32.33,4.64.88a1.8,1.8,0,0,1,1.39,2l3.6-.92c.27-.07.62.14,1,.35s.69.41.48.76-.34,1-.61,1c-2.56,1.53-3.53,1.19-4.71-1.16-.56.14-1.18,0-1.39.35a44.6,44.6,0,0,0-2.67,4.51c.21.84.14,1.74.35,2.57a26.22,26.22,0,0,1,3.2,2.14c-.69,1.94-2.07,2.29-3.94,1.88-.9-.07-1.46-1.1-2.36-1.17-1-.34-2.9.15-3.24,1.12a2.21,2.21,0,0,0,0,2.36,2.84,2.84,0,0,0,.48.76,16.93,16.93,0,0,1,3,2.48c1.18,1.18.22,3.19-1.64,4a1.92,1.92,0,0,1-.27,2.43c-.69.76-1.45.07-2.22-1.8l-3.87,1a5.19,5.19,0,0,0-.89,2.29c.15,1.73,1.12,3.25.85,4.5-1,1.74-1.78,3.41-2.61,4.8l-3.87,1a1.91,1.91,0,0,0,1.39,2c1.6.48,3.25-1.12,4.72,1.17l.49,1.94a8.55,8.55,0,0,1-1.58,1.87c-2.42.91-4.91,1.55-7.33,2.46-.27.07-.41.69-.62,1a25.48,25.48,0,0,1,3.2,2.14c.34.2.21.83.28,1.1a1.47,1.47,0,0,1,2.14.34c.42.49.63,1.32,1.12,2.08a1.91,1.91,0,0,1-.61,2.22c-.28.07-1.6-.48-1.74-1a16.62,16.62,0,0,1-.91-3.61l-2.49.64a1.9,1.9,0,0,0-2,1.39c-.14.62.28,1.11,1.25,1.45s1.39.83,1.25,1.45a1.8,1.8,0,0,1-2,1.4l-2.48.63c.21,2-.2,2.7-1.31,3-1.58.7-3.31.85-4.83,1.82-.76.49-.83,1.39-.27,2.43l4.15-1.05c.69.41,1.8,1.31,2.84,1.93.35.21.83-.21,1.66-.42l-.55.14a1.77,1.77,0,0,1,.06-2.08c.41-.7,1-.84,1.8.13.07.28-.14.63-.07.9A2.92,2.92,0,0,1,26.87,117a9.62,9.62,0,0,0,.44,4c-1,1.74-1.65,4-3.92,5.42-1.46.08-3.11.5-4.57.57-.9-.06-1.38-.82-1.39-2l-3.87,1c-.82,1.39-1.58,3.06-2.61,4.8a16.48,16.48,0,0,0,2.32,8c.49.76,1.39.83,2.42.27l-1-3.88a48.41,48.41,0,0,0,2.68-4.51c2.14.33,2.22,1.79,2.16,3.87-1.8,1-1.3,4.16-3.86,4.52.36,1.39.64,2.49,1,3.88-.21.35-.34,1-.62,1-.76.49-1.59.7-2.35,1.19-.41.69-1.17,1.18-1.58,1.87-1.3,1.81-2.26,3.83-3.29,5.56.07,1.46,1.52,1.38,2.36,2.35.29,2.29,3.13,4.22.51,6.65-1-.62-2-1-3.05-1.58-.41.69-.89,1.11-.82,1.39l2.6,10.25c-.54,2.5-4,1.61-4.27,4a11.26,11.26,0,0,1,2.92,2.21c-1,1.73-1.86,3.12-2.68,4.51L3.92,183c-1.16,3.54-1.16,3.54,2.73,6.1a11.07,11.07,0,0,0-1.51,3.33c.83,1,2,1,3.39.61.55-.14,1.6.48,2.29.89l-2.68,4.52a13.78,13.78,0,0,0-3,1.05c-.55,1.32-1.3,3-2.47,5.35-.07-.28.63.13,1.53.2,1.17,0,2.34-1.19,3.6.27a9.21,9.21,0,0,1-2.2,4.09c-.89,1.11-2.48,1.81-4,2.79C3.85,214,6.34,214.54,8,216.48c-.47,1.59-2,1.39-3,2a1.27,1.27,0,0,0-.62,1c-.14.62.35,1.38,1.53,1.38a30.16,30.16,0,0,0,5-1.26c2.64,1.1,2.1,3.59,2.66,5.81.14.56-.55,1.32-1,1.74A5.64,5.64,0,0,0,10.13,226a6.39,6.39,0,0,0-2.35,0,1.7,1.7,0,0,0-1,.55c-.61,2.22-3.17,2.58-4.54,4.11a7.2,7.2,0,0,0-2.2,4.1c1.18,1.17,2.49.54,3.6.26.62-1,1.51-2.15,2.13-3.19,3.19.95,1.27,5,3.42,6.5,2.5,1.73,5-2.16,7.4.18-1.23,2.09-2.4,4.45-3.63,6.53l.63,2.5c-.27,2.42-4.15,1-4.27,4l4.51,2.69c.34.21.83-.21,1.93-.49l-.55.14a1.77,1.77,0,0,1,.06-2.08c.41-.69,1-.84,1.8.13.07.28-.14.63-.07.9A3,3,0,0,1,15.79,254c-.62,1-.13,1.8.77,1.87,1.52.2,3,.12,4.78.26-.83,1.39-1.17,2.36-2,3.75a25.23,25.23,0,0,0,1.12,4.43A2.55,2.55,0,0,0,24,265.51l-.56.14a1.79,1.79,0,0,1,.06-2.08c.42-.7,1-.84,1.8.13.07.28-.13.62-.06.9a3,3,0,0,1-1.17,1.18c-.41.7,0,1.18-.2,1.53-1.17,2.36-2.68,4.52-3.64,6.53,1.12,3.25,1.12,3.25,3.2,3.32l1.38-.36a3.18,3.18,0,0,1,2.44,3.81c-.34,1-.83-94.75-1.37-93.43a68.13,68.13,0,0,0,2.67,10.52c1.18,1.18,1.74,1,2-.21a23.39,23.39,0,0,1,0-2.36,5,5,0,0,1,.89-2.29l8,4.76a2.12,2.12,0,0,1-2.48,1.81c-1.72,2.5-2.82,4-3.64,5.35,2.22,1.79,5.46-.5,7.34,2.26a10.59,10.59,0,0,1,2.84-.42A44.51,44.51,0,0,0,47.92,209c.42,1.66.42,1.66-1.79,2.22l-2.49.64c.84,3.32,1.76,6.92,2.6,10.25l3.87-1c.28-.07.7.42,1,.62l.21.84c-1,2-2.27,3.82-3.3,5.55a5.09,5.09,0,0,0,2.29.9,3,3,0,0,0,2.14-.84c1.31-1.81,2.27-3.82,3.3-5.56A7.68,7.68,0,0,1,57.6,224a4.05,4.05,0,0,1,.36,2.56c-.07.91-1.1,1.46-1.17,2.37a3,3,0,0,0,.85,3.32l2.42,1.45a26.17,26.17,0,0,0-1.5,3.33l.56,2.22c1.32,1.73,3.05.4,4.64.88a1.8,1.8,0,0,1,1.39,2l2.49-.63c1.94-.5,3,.13,3.47,2.06l.63,2.5,3.87-1c.28-.08.7.41,1,.61.08.28.22.84.22.84-1,2-2.27,3.82-3.3,5.55.91,1.25,2,1,3.39.62.83-.21,1.6.48,2.22.61a25.18,25.18,0,0,0-1.78,3.41c2.15,1.51,4.71,2.34,6.38,4.27a8.29,8.29,0,0,1,.08,2.64c-.06.9-.82,1.39-2,1.39a16,16,0,0,0,.92,3.6c.48.76,1.45,1.11,1.94.69A9.69,9.69,0,0,1,86,267.18c1.59-1.87,3.8-1.26,4.71,1.17a1.8,1.8,0,0,1,2.43.27c.34.2.48.76.55,1,.36,1.39.64,2.5,1.06,4.16,2.71,2.56,6.59,3.93,9.85,6.34.29,1.11.64,2.5.92,3.61l6.36-1.62,4.51,2.69c.15,2.91-4.08,1.33-3.93,4.24,1.32.55,2.71,1.38,4.72,2.34l6.63-1.68c2.5.54,3.75,2,5.69,2.68-1.65,2.78-4.21,2-6.28,3.07-.07.91-.34,2.15-.41,3.06a12.62,12.62,0,0,0,5.62,3.58c1.39-.35,2.84-.42,3-1.95.07-.9-.42-1.66-.36-2.56,0-1.18.76-1.67,1.38-1.53l1,.62a22.43,22.43,0,0,0,3.12,1.86c.5,1.94.92,3.6,1.34,5.26-1.24,2.09-2.27,3.82-3.5,5.91.36,2.56-.39,5.41,2.86,6.64l2.22-.56a26.05,26.05,0,0,1,3.39,1.79,2.1,2.1,0,0,0,.55-2.5c-.36-2.56.33-3.33,2.33-3.54.83-.21,1.6.48,2.22.62l.63,2.49c-.61,1-1.16,2.36-1.78,3.4.49,1.94.92,3.6,1.34,5.27l4.51,2.69c.62-1,1.51-2.16,2.13-3.2l2.49-.63c1.24.27,1.73,1,1,1.8l-3.29,5.55c1,.62,2.15,1.52,3.19,2.14.35,1.39,1,2.7-.19,3.89-2.08-1.25-4.44-2.42-6.52-3.66-.21.35-.69.77-.62,1,.57,3.4,1.41,6.72,2.26,10.05.21.83,1.18,1.17,3.19,1l.83-.21c3.05,1.58,4.61-3.83,8.18,4.41.35,1.38,3.83-1.57,3.41-3.24-1-.62-1.41-4.27-2.69-5-1.46-2.28,2.34-1.7,1.43-4.12-.49-1.94,1.24-4.42.2-6.22-1.05-.62,4.28-2.88,3.59-3.3-.07-.27,5.12-1.46,5-1.73-3-11.64,6.59,3.62,3.56-8.3.34-1,8.51,5.68,9.33,4.29-.56-2.21-1.19-4.71-1.9-7.48a46.72,46.72,0,0,1,2.68-4.51c2.28-.29,3.47,2.07,5.27,2.2.49,1.94.92,3.6,1.41,5.54a15.92,15.92,0,0,1,3.6.26,28.19,28.19,0,0,1,2.33-3.54l5.26-1.33c1.38.82,2.84,1.93,4.58,3a19.46,19.46,0,0,1-1.58,3.06c3,1.58,3.33,1.51,5.59-2.31,2-.21,3.61,2.62,5.82.88,2.08,1.24,4.44,2.41,6.59,3.93l2.76-.7c0-1.18.27-2.43.26-3.61a27.71,27.71,0,0,0-3.53-2.34c.61-1.05,1.23-2.09,1.85-3.13s.82-1.39,1.72-1.32c1,.34,1.18,1.17,1.4,2,.21,2,.84,2.15,2.77,1.66a2.36,2.36,0,0,1,2.42.27,1,1,0,0,1,.49.76c-.82,1.39-2.2,2.92-1.08,5a31,31,0,0,0,8.32,5c.76-.49,1.59-.7,2.35-1.19s.82-1.39.26-2.43a1.47,1.47,0,0,1-2.14-.34c-.42-.48-.63-1.31-1.12-2.07a1.91,1.91,0,0,1,.62-2.22c.27-.07,1.59.48,1.73,1a16,16,0,0,1,.91,3.6,1.48,1.48,0,0,1,2.15.34c.91,1.25,1.53,2.56,2.51,4.08,2.89-2.5-.64-4.85.25-7.14l1.85-3.12c-1.81-1.32-2.09-2.42-3.55-4.71-.49-.76.41-.69.83-.21.83,1,.42,1.66-.83,1.39a2.8,2.8,0,0,1-1.45-1.1C250.61,309.4,251,308.71,252.13,309.6ZM303.55,52.27l-7.46,1.9c-.28.07-.7-.42-1-.62-.42-.49-.28-1.11.4-1.88l7.47-1.89c.28-.07.69.41,1,.62C304.65,50.81,304.24,51.51,303.55,52.27ZM382,205.51c1.24-2.08,2.82-2.78,5.25-1.33.08,1.46,1.68,3.11-.74,4A46.89,46.89,0,0,0,382,205.51ZM357.8,115.18c2.36,1.17,2.78,2.83,1.34,5.26C356.71,119,356.29,117.33,357.8,115.18Zm7.28,19.38c-.34-.2-1-.34-1-.62l-.63-2.49c-.07-.28.41-.7.62-1a.53.53,0,0,1,.83-.21c1.52.2,2.22,3,1.05,4.15C365.71,134.7,365.36,134.49,365.08,134.56ZM33.91,187.49c-1.16,2.37-2.82,2.79-5.25,1.34C30.1,186.4,31.76,186,33.91,187.49ZM360.7,250.44l-.28-1.1.62-1.05c.48-.41,1.1-.28,1.87.41.35.21.21.83.28,1.11a1.92,1.92,0,0,1-.27,2.43C362.17,252.73,361.12,252.11,360.7,250.44ZM170.48,31.23c-.49.42-1.11.28-1.87-.41l.61-1c.49-.42,1.11-.28,1.87.41C171.37,30.12,171,30.81,170.48,31.23ZM52.39,68c.42.48.29,1.11-.4,1.87l-1-.62c-.42-.48-.29-1.1.4-1.87ZM204.66,32.57l.62-1c.48-.42,1.11-.28,1.87.41l-.62,1C206.05,33.4,205.43,33.26,204.66,32.57Zm71.06,15.57c-.48.41-1.11.28-1.87-.41l.62-1c.48-.41,1.1-.28,1.87.41Zm99,111.7,1.05.62c.41.48.28,1.1-.41,1.87l-1-.62C373.71,161.57,373.85,161,374.74,159.84ZM22.29,251.79c-.49.41-1.11.28-1.87-.41l.61-1c.49-.41,1.11-.28,1.87.41C23,251,22.49,251.44,22.29,251.79Zm373.82-48.42-1-.62c.34-1,.82-1.39,1.45-1.25l1,.62C397.22,203.09,396.73,203.51,396.11,203.37Zm-2.41,33.36-1-.63c.34-1,.82-1.38,1.45-1.25l1,.62C394.81,236.45,394.32,236.86,393.7,236.73Zm-.85,25.58,1,.62c-.35,1-.83,1.39-1.45,1.25l-1-.62C391.74,262.59,392.22,262.17,392.85,262.31ZM99.72,265.75c.41.48.28,1.11-.41,1.88l-1-.63c-.42-.48-.28-1.1.41-1.87Zm286.13-70.37c.48-.42,1.1-.28,1.87.41l-.62,1c-.48.42-1.1.28-1.87-.41Z"/><path class="cls-1" d="M246.7,332.22c.82-1.39,1-2,.61-2.22l-4.51-2.69c-.48.42-1.17,1.19-1.1,1.46a71.41,71.41,0,0,0,1.9,7.49c2.77,1.65,4.7,0,7.12-.93,1.31-1.81-.22-3.19-.37-4.92a8.27,8.27,0,0,0-3.65,1.81c-.76.49-.7-.41-.22-.83,1-.83,1.66-.42,1.39.83a2.86,2.86,0,0,1-1.1,1.46C246.49,333.75,245.8,333.34,246.7,332.22Z"/><path class="cls-1" d="M142.46,325.09l-3.87,1c-1-.62-2.35-1.17-3.4-1.79a4,4,0,0,0-.81,2.57c.22,3.19.22,3.19-2,3.75l-3.6.92L128,332.9c.07.28.49.77.76.7,3.05.4,5.67-.86,8.64-1.91.62-2.22,2.76-3.06,4.55-4.1A1.71,1.71,0,0,0,142.46,325.09Z"/><path class="cls-1" d="M22.61,45.81c-1.67-1.94-4.21.77-5.68-1.51l-.63-2.49a1.29,1.29,0,0,0-1-.62c-.63-.14-1.38.35-1.38,1.53A35.37,35.37,0,0,0,15.22,48c-.69.77-1.31,1.81-2.2,2.92,2.22,1.8,4.15.13,6.16-.09C21,49.77,21.31,47.62,22.61,45.81Z"/><path class="cls-1" d="M47.76,38.23l-1.1.29c-3.32.84-3.32.84-4.65-2.07a2.6,2.6,0,0,0-3.88-1.37,7.53,7.53,0,0,0-1.3,1.81l.91,3.6c1.87-.77,3,1.3,5.33,1.3a15.51,15.51,0,0,0,3.6-.92A1.64,1.64,0,0,0,47.76,38.23Z"/><path class="cls-1" d="M159.45,349.09a1.41,1.41,0,0,0-1.59-.48,5.34,5.34,0,0,1-4.92-.81.87.87,0,0,0-.62-.14c-1.1,1.46-1.92,2.85-3,4.31l4.86,2.89a10.59,10.59,0,0,1,2.84-.42A23.47,23.47,0,0,1,159.45,349.09Z"/><path class="cls-1" d="M409.2,268.77c-.07-1.45-1.11-2.07-2.57-2a25,25,0,0,0-4.42,1.12,20.22,20.22,0,0,1-2.13,3.2l-3.59.92.63,2.49,6.36-1.62c.62-1,1.51-2.15,2.13-3.19Z"/><path class="cls-1" d="M70.24,265.58l4.51,2.68,2.49-.63c.62-1,1.09-2.64,2.13-3.2s1.59-.69.75-1.66c-.35-.21-.76-.69-1-.62a18.45,18.45,0,0,0-8.57,2.18A2.16,2.16,0,0,1,70.24,265.58Z"/><path class="cls-1" d="M33.26,60.65a19.05,19.05,0,0,1-3-1.59c-1-.62-1.39-.82-1.87-.41a1.8,1.8,0,0,0-.27,2.43l.35,1.39a18.18,18.18,0,0,0,3,1.58c.29,1.11.5,1.94.71,2.77.07.28.69.41,1,.62a1.27,1.27,0,0,0,1.45-1.25C34.17,64.25,33.75,62.59,33.26,60.65Z"/><path class="cls-1" d="M104.63,282.79l-3.87,1c-1-.62-2.35-1.17-3.39-1.79-1.39.35-2.84.43-3.25,2.3l4.17,2.48a8,8,0,0,0,6.08-1.54A1.8,1.8,0,0,0,104.63,282.79Z"/><path class="cls-1" d="M401,215.71l-6.35,1.62c-1.24,3.26-1.24,3.26,1.26,5,.62-1,1.31-1.81,1.93-2.85.69.41,1,.34,1.38.82.77.69,1.46,1.11,2.22.62a1.8,1.8,0,0,0,.27-2.43A9.5,9.5,0,0,1,401,215.71Z"/><path class="cls-1" d="M355.12,88.42l-3.59.92a2.7,2.7,0,0,0-.61,3.4c.7,1.59,1.12,2.07,2.78,1.65,1.1-.28,1.1-.28,2.68-2.16A20.63,20.63,0,0,1,355.12,88.42Z"/><path class="cls-1" d="M373.6,59.45c-1.53-.2-2.77-.47-3.67-.54-2.28,1.46-2.62,3.62-4.2,5.49,1.52.21,2.77.48,3.67.54C371.4,63.55,371.74,61.4,373.6,59.45Z"/><path class="cls-1" d="M379.25,145.12l2.67-4.51c-1-.62-2.63-1.1-2.91-2.21-.56-1-.7-1.59-1.67-.76-.2.35-.68.77-.61,1a11.72,11.72,0,0,0,1.55,6.1A3.93,3.93,0,0,1,379.25,145.12Z"/><path class="cls-1" d="M127.5,304.41,125,305a25.57,25.57,0,0,0-3.4-1.79c-1,3.2-1,3.2,1.54,4.92l5-1.26c.28-.08.41-.7.62-1.05C129.16,305.17,128.67,304.41,127.5,304.41Z"/><path class="cls-1" d="M203.67,319.27c.63,2.49,1.27,5,1.9,7.48.07.27.7.41,1,.62.63.14,1.11-.28,1.38-1.53-.63-2.5-1.27-5-1.9-7.48-.07-.28-.7-.42-1-.62C204.42,317.6,204,318.3,203.67,319.27Z"/><path class="cls-1" d="M318.41,323.73c1.31-1.81,1.23-3.26-.3-4.65a20.88,20.88,0,0,0-4.23-2.75c-1.31,1.8-1.23,3.26.3,4.64A21.36,21.36,0,0,0,318.41,323.73Z"/><path class="cls-1" d="M236.72,6c2.15,1.52,3.81,1.1,5.25-1.33-1-.62-2.36-1.17-3.4-1.79s-1.38-.83-1.87-.41a1.79,1.79,0,0,0-.26,2.42C236.78,5.05,236.65,5.68,236.72,6Z"/><path class="cls-1" d="M67.79,30.19a16,16,0,0,0,3.6-.91c.55-.14.61-1,1-1.74l-4.17-2.48c-.41.7-1.17,1.18-1,1.74C67,28.05,67.51,29.09,67.79,30.19Z"/><path class="cls-1" d="M59.77,31.05C57.62,29.54,56,30,54.52,32.39c1,.62,2.36,1.17,3.4,1.79s1.38.83,1.87.41a1.81,1.81,0,0,0,.26-2.43Z"/><path class="cls-1" d="M102.94,29.52a16.44,16.44,0,0,0,3.59-.91c.56-.14.62-1.05,1-1.74l-4.16-2.48c-.41.69-1.17,1.18-1,1.73C102.1,27.37,102.66,28.41,102.94,29.52Z"/><path class="cls-1" d="M159.29,20.8c.82-1.39,1.85-3.13,2.68-4.51-.91-2.43-2.57-.83-4-.75C156.51,18,157.21,19.56,159.29,20.8Z"/><path class="cls-1" d="M280.13,29.61c-2.91-1-2.91-1-5,1.27.63,1.31,0,3.53,2.57,3.18A45.87,45.87,0,0,1,280.13,29.61Z"/><path class="cls-1" d="M18.85,116.68A2,2,0,0,0,16.78,119a43.15,43.15,0,0,0,1.48,5.82,2,2,0,0,0,2.07-2.3Q19.58,119.58,18.85,116.68Z"/><path class="cls-1" d="M343.51,75.15C343,73.21,342.45,71,342,69.06c-.14-.56-1-.62-1.74-1,0,0-.68.77-.61,1,.21,2,.43,4,1.75,5.75C341.85,75.57,342.68,75.36,343.51,75.15Z"/><path class="cls-1" d="M378.38,137.08a15.76,15.76,0,0,0,3.59-.91c.56-.14.62-1,1-1.74L378.84,132c-.41.7-1.17,1.18-1,1.74C377.54,134.94,378.1,136,378.38,137.08Z"/><path class="cls-1" d="M16.62,268.86c-.63-1.32-.15-2.91-1.68-3.12s-1.37,1.53-2.06,2.3l-.62,1c-.2.35-.41.7-.62,1Q14.76,272,16.62,268.86Z"/><path class="cls-1" d="M393.17,206.79c.27-.07.75-.48,1.1-.28l3.12,1.86c.41-.69.9-1.11,1-1.73a15.84,15.84,0,0,0-.91-3.6l-5.26,1.33A7.2,7.2,0,0,1,393.17,206.79Z"/><path class="cls-1" d="M397.55,212.46c1.18,1.18,3.19,1,3.47,3.25.28-.07.9.07,1.11-.28a3.16,3.16,0,0,0,.05-4.44c-.49-.76-2.29-.89-3.32-.33A7.22,7.22,0,0,0,397.55,212.46Z"/><path class="cls-1" d="M391.9,233.07c-2.15-1.51-3.81-1.09-5.25,1.34,1,.62,2.35,1.17,3.39,1.79s1.39.83,1.87.41a1.8,1.8,0,0,0,.27-2.43C391.83,234,392,233.35,391.9,233.07Z"/><path class="cls-1" d="M375.55,244a1.91,1.91,0,0,0,1.39,2c2.15.34,4-.43,5.88-1.2.27-.07.62-1,.62-1-.42-.48-1.19-1.18-1.74-1A23.35,23.35,0,0,0,375.55,244Z"/><path class="cls-1" d="M387.24,258.74c2.15,1.52,3.81,1.1,5.25-1.33-1-.62-2.36-1.17-3.4-1.79s-1.38-.83-1.87-.41a1.79,1.79,0,0,0-.26,2.42C387.3,257.84,387.1,258.19,387.24,258.74Z"/><path class="cls-1" d="M138.64,320.46a1.9,1.9,0,0,0,1.39,2c1,.62,2.56.83,2.43,2.63,1.87-.77,2.28-1.46,2-2.57-.22-2-1.33-2.91-3.26-2.42A8.09,8.09,0,0,0,138.64,320.46Z"/><path class="cls-1" d="M319.39,296.34c-1.51,2.15-1.09,3.82,1.34,5.27.62-1.05,1.17-2.37,1.79-3.41s.82-1.39.4-1.87a1.79,1.79,0,0,0-2.42-.27C320.29,296.41,319.67,296.27,319.39,296.34Z"/><path class="cls-1" d="M216.79,328l3.59-.92c1.72-2.5,1.37-2.71-.64-4.85C217.33,325.53,217.05,325.6,216.79,328Z"/><path class="cls-1" d="M212.44,331.79c.77,1.86,1.47,2.28,2.57,2,2.29-.29,2.9-1.33,2.41-3.27l-.63-2.49c-1.73.14-2,1.39-2.62,2.43C213.83,331.43,213.34,331.85,212.44,331.79Z"/><path class="cls-1" d="M183.9,334.76c2-1.39,2-1.39,3.64-5.35-2.84-.75-3.11-.68-4.55,1.75Z"/><path class="cls-1" d="M187.31,337.73c-1.19-1.17-3.19-1-3.48-3.24-.28.07-.9-.07-1.1.28a3.13,3.13,0,0,0,0,4.43c.48.76,2.28.9,3.32.34C186.76,339.05,186.89,338.43,187.31,337.73Z"/><path class="cls-1" d="M197.45,353.83c-.21.34-.42.69-.62,1-.14.62.28,1.11,1.53,1.38l5-1.27c.21-.34.41-.69.62-1,.14-.62-.28-1.11-1.53-1.38Z"/><path class="cls-1" d="M201.42,374.7c-.69.77-1.1,1.46-.4,1.88l1,.62,5-1.27c.69-.76.83-1.39.41-1.87l-1-.62Z"/><path class="cls-1" d="M136.23,15.75c1.51-2.16,1.09-3.82-1.34-5.27C133.38,12.64,133.87,14.58,136.23,15.75Z"/><path class="cls-1" d="M47.76,38.23l2.49-.63a19.36,19.36,0,0,0-1-3.88c-.56-1-1.46-1.1-1.87-.41-.21.35-.69.77-.62,1Z"/><path class="cls-1" d="M57.48,44a16.61,16.61,0,0,0,3.59-.92c.55-.14,1.1-1.46,1-1.73a1.9,1.9,0,0,0-2.22-.62,6.83,6.83,0,0,0-2.07,1.11C57,42.09,56.92,43,57.48,44Z"/><path class="cls-1" d="M27.66,76.09a1.9,1.9,0,0,0,1.39,2c1,.35,1.52-1,1.1-2.63l-.28-1.11-1-.62c-.63-.14-1.11.28-1.45,1.25C27.17,75.33,27.59,75.81,27.66,76.09Z"/><path class="cls-1" d="M29.7,82.94c.9,1.25,3.67.55,4.14-1a.53.53,0,0,0-.21-.83c-.9-1.25-3.67-.54-4.14,1Z"/><path class="cls-1" d="M265,34.93c1.65-.42,2.55-1.53,1.78-2.22a1.79,1.79,0,0,0-2.42-.27l-1.1.28c-.69.76-1.1,1.46-.41,1.87.35.21.76.69,1,.62Z"/><path class="cls-1" d="M322.9,47.35a1.92,1.92,0,0,0-2,1.4c-.27,1.24,1.05,1.79,2.71,1.37l1.1-.28c.21-.35.42-.69.62-1,.14-.62-.28-1.11-1.25-1.45A1.71,1.71,0,0,0,322.9,47.35Z"/><path class="cls-1" d="M340.08,51.24a16.14,16.14,0,0,0-.92-3.6c-.14-.55-1.45-1.1-1.73-1a1.91,1.91,0,0,0-.61,2.22,7,7,0,0,0,1.11,2.08A1.47,1.47,0,0,0,340.08,51.24Z"/><path class="cls-1" d="M357.17,50.15c-1.25.9-.54,3.67,1.05,4.15a.53.53,0,0,0,.83-.21c1.24-.9.54-3.67-1.06-4.15Z"/><path class="cls-1" d="M332.46,62.1c.42,1.66,1.53,2.56,2.22,1.79a1.81,1.81,0,0,0,.27-2.43l-.29-1.1c-.76-.69-1.45-1.11-1.87-.41-.2.34-.68.76-.61,1Z"/><path class="cls-1" d="M351.76,63.79c1.66-.42,2.56-1.53,1.79-2.22a1.79,1.79,0,0,0-2.42-.27l-1.1.28c-.69.77-1.11,1.46-.41,1.87.35.21.76.7,1,.62Z"/><path class="cls-1" d="M355.12,88.42a16,16,0,0,0,3.6-.91c.55-.14,1.1-1.46,1-1.74a1.91,1.91,0,0,0-2.22-.61,6.83,6.83,0,0,0-2.07,1.11A1.48,1.48,0,0,0,355.12,88.42Z"/><path class="cls-1" d="M387.12,72.12l.83-.21c1.17-1.18.19-3.89-1.06-4.16l-.83.21c-.2.35-.69.77-.62,1,.22.84.43,1.67.64,2.5C386.15,71.78,386.77,71.91,387.12,72.12Z"/><path class="cls-1" d="M395.12,182.09a1.9,1.9,0,0,0,2-1.39,3.65,3.65,0,0,0-.85-3.33,1.79,1.79,0,0,0-2.42-.27C394.27,178.76,394.69,180.43,395.12,182.09Z"/><path class="cls-1" d="M8.82,191.81l.83-.21c1.17-1.18.19-3.89-1.06-4.16l-.83.21c-.21.35-.69.77-.62,1,.21.83.42,1.66.64,2.49C7.85,191.47,8.47,191.6,8.82,191.81Z"/><path class="cls-1" d="M70.29,244.91a16.55,16.55,0,0,0-3.6.92c-.55.14-1.1,1.46-1,1.74a1.93,1.93,0,0,0,2.22.61A6.83,6.83,0,0,0,70,247.07C70.71,246.58,70.84,246,70.29,244.91Z"/><path class="cls-1" d="M89.67,278.33c2.35-1.18,2.69-2.15,1.16-4.71-.08-.28-.7-.42-1-.62-.27.07-.48.41-.75.48-.21.35-.42.7-.35,1C89,275.84,89.39,277.23,89.67,278.33Z"/><path class="cls-1" d="M87.18,279a16.62,16.62,0,0,0-.91-3.61c-.14-.55-1.46-1.1-1.74-1a1.91,1.91,0,0,0-.61,2.22A6.7,6.7,0,0,0,85,278.63,1.47,1.47,0,0,0,87.18,279Z"/><path class="cls-1" d="M397.71,202.69c2.35-1.19,2.69-2.16,1.16-4.72-.07-.28-.7-.41-1-.62-.28.07-.48.42-.76.49a1.47,1.47,0,0,0-.34,1Z"/><path class="cls-1" d="M71.35,296.56c1.51-2.15,1.09-3.82-1.34-5.26C68.57,293.73,69,295.39,71.35,296.56Z"/><path class="cls-1" d="M98.24,306.24c-1.52,2.16-1.09,3.82,1.33,5.27C101,309.08,100.59,307.42,98.24,306.24Z"/><path class="cls-1" d="M129.68,314.18l.83-.21c1.17-1.18.19-3.88-1-4.16l-.83.21c-.21.35-.69.77-.62,1.05l.63,2.49C128.71,313.84,129.34,314,129.68,314.18Z"/><path class="cls-1" d="M138.64,320.46c-1.19-2.35-2.16-2.7-4.71-1.16-.28.07-.41.69-.62,1,.07.27.42.48.49.76a1.47,1.47,0,0,0,1,.34A18.51,18.51,0,0,0,138.64,320.46Z"/><path class="cls-1" d="M122.75,327.45c-1.51,2.15-1.09,3.81,1.34,5.26C125.26,330.35,124.84,328.69,122.75,327.45Z"/><path class="cls-1" d="M224.53,326.06a1.92,1.92,0,0,0,1.39,2c1,.34,1.52-1,1.09-2.64l-.28-1.11-1-.62c-.62-.14-1.1.28-1.44,1.25Z"/><path class="cls-1" d="M169.9,353.16a1.9,1.9,0,0,0-2,1.39c-.34,1,1,1.52,2.63,1.1l1.11-.28.62-1c.13-.63-.28-1.11-1.25-1.45C170.66,352.67,170.18,353.09,169.9,353.16Z"/><path class="cls-1" d="M177.07,339.15a15.92,15.92,0,0,0-3.59.92c-.56.14-1.1,1.46-1,1.73a1.89,1.89,0,0,0,2.21.62,6.54,6.54,0,0,0,2.07-1.12A1.47,1.47,0,0,0,177.07,339.15Z"/><path class="cls-1" d="M207.9,354.42c-1.25.9-.54,3.67,1,4.15a.53.53,0,0,0,.83-.21c1.24-.91.54-3.68-1.06-4.16C208.38,354,208.17,354.35,207.9,354.42Z"/><path class="cls-1" d="M177.23,365.75c2.15,1.52,3.81,1.1,5.25-1.33C180.05,363,178.39,363.39,177.23,365.75Z"/><path class="cls-1" d="M193.92,383.39c2.15,1.52,3.81,1.1,5.25-1.33C196.74,380.61,195.09,381,193.92,383.39Z"/><path class="cls-1" d="M25.56,221.77c-2.16-1.52-3.82-1.09-5.26,1.34C22.45,224.63,24.11,224.2,25.56,221.77Z"/><path class="cls-1" d="M289.36,345.49c1.51-2.16,1.09-3.82-1.34-5.27C286.85,342.59,287.28,344.25,289.36,345.49Z"/><path class="cls-1" d="M254,363.12c1.66-.42,2.55-1.53,1.79-2.23a1.79,1.79,0,0,0-2.42-.26l-1.11.28c-.69.76-1.1,1.46-.41,1.87.35.21.77.69,1,.62C252.92,363.68,253.41,363.26,254,363.12Z"/><path class="cls-1" d="M115.22,1c-.13.63.29,1.11,1.26,1.45l.61-1c.14-.62-.28-1.11-1.25-1.45Z"/><path class="cls-1" d="M66,19.45c.62.14,1.1-.28,1.44-1.25l-1-.62c-.62-.14-1.1.28-1.44,1.25Z"/><path class="cls-1" d="M55.66,25.31c-.77-1.87-1.11-2.07-3.12-1.86C53,25.39,53.31,25.32,55.66,25.31Z"/><path class="cls-1" d="M55.94,26.42c.07.28.42.49,1.05.62a1,1,0,0,0,.89.07c.69-.77.83-1.39.14-1.81s-1.39-.82-2.08-.06C55.39,25.38,55.6,26.21,55.94,26.42Z"/><path class="cls-1" d="M105.3,16.82c.77.7,1.39.83,1.87.41.21-.34.62-1,.62-1-.76-.69-1.39-.83-1.87-.41C105.37,15.92,105.51,16.48,105.3,16.82Z"/><path class="cls-1" d="M19.9,42.07c.62.14,1.1-.28,1.44-1.25l-1-.62c-.62-.14-1.1.28-1.44,1.25Z"/><path class="cls-1" d="M65.73,32.49s.76.69,1,.62a2.91,2.91,0,0,0,1.1-1.46c.27-1.25-.42-1.66-1.39-.83A5.94,5.94,0,0,0,65.73,32.49Z"/><path class="cls-1" d="M88.21,30.61c.27-.07.48-.42.61-1a1,1,0,0,0,.07-.9c-.77-.69-1.39-.83-1.8-.14s-.82,1.39-.06,2.08C87.1,30.89,87.65,30.75,88.21,30.61Z"/><path class="cls-1" d="M35.68,44c1.87-.77,2.07-1.12,1.85-3.13C35.67,41.6,35.46,42,35.68,44Z"/><path class="cls-1" d="M31,42.8s-.69.76-.62,1c.42.48.91,1.25,1.46,1.1,1.25.28,1.66-.42.82-1.38C32.49,43,31.59,42.93,31,42.8Z"/><path class="cls-1" d="M6.51,50.78l.62-1c-.76-.69-1.39-.82-1.87-.41-.2.35-.62,1.05-.62,1.05C5.48,51.34,6,51.2,6.51,50.78Z"/><path class="cls-1" d="M187.6,7.12l1,.62c.69-.77.82-1.39.4-1.88l-1-.62C187.31,6,187.18,6.63,187.6,7.12Z"/><path class="cls-1" d="M130.37,21.66c.14-.62-.28-1.11-1.25-1.45l-.62,1c-.13.63.28,1.11,1.25,1.45C130,22.63,130.17,22,130.37,21.66Z"/><path class="cls-1" d="M85,33.19s.77.69,1,.62a2.91,2.91,0,0,0,1.1-1.46c.27-1.25-.43-1.67-1.39-.83C85.51,31.59,85.17,32.56,85,33.19Z"/><path class="cls-1" d="M71.49,36.63c.13-.63-.28-1.11-1.25-1.45,0,0-.42.69-.62,1-.14.62.28,1.11,1.25,1.45C71.15,37.6,71.28,37,71.49,36.63Z"/><path class="cls-1" d="M33.19,44.59c.77,1.87,1.47,2.29,2.22,1.8A1.8,1.8,0,0,0,35.68,44Z"/><path class="cls-1" d="M28.09,47.66c.13-.62-.29-1.11-1.26-1.45l-.61,1c-.14.63.28,1.11,1.25,1.45Z"/><path class="cls-1" d="M76.13,38.69c.63.14,1.11-.28,1.45-1.25l-1-.62c-.62-.14-1.11.28-1.45,1.25Z"/><path class="cls-1" d="M166.34,18.42c.62.14,1.1-.28,1.44-1.25l-1-.62c-.62-.14-1.1.28-1.44,1.25C165.37,18.08,166,18.21,166.34,18.42Z"/><path class="cls-1" d="M142.77,24.12l1,.62c.69-.77.82-1.39.41-1.88l-1.05-.62A1.28,1.28,0,0,0,142.77,24.12Z"/><path class="cls-1" d="M122.31,29.32l1,.62c.69-.77.83-1.39.41-1.88l-1-.62A1.28,1.28,0,0,0,122.31,29.32Z"/><path class="cls-1" d="M107.31,31.65s-.69.77-.62,1.05c.42.48.9,1.24,1.46,1.1,1.24.27,1.66-.42.82-1.39A2.9,2.9,0,0,0,107.31,31.65Z"/><path class="cls-1" d="M199,12.48c.13-.62-.28-1.1-1.25-1.45,0,0-.42.7-.62,1.05-.14.62.28,1.1,1.25,1.45C198.63,13.46,198.76,12.83,199,12.48Z"/><path class="cls-1" d="M172.23,21.94l1,.62c.69-.77.83-1.39.41-1.88l-1-.62C172,20.83,171.82,21.45,172.23,21.94Z"/><path class="cls-1" d="M33.18,53.28c.14-.62-.28-1.11-1.25-1.45l-.62,1c-.14.63.28,1.11,1.25,1.45Z"/><path class="cls-1" d="M26.54,53.79l-.62,1c.77.69,1.39.83,1.87.41l.62-1C27.65,53.51,27,53.37,26.54,53.79Z"/><path class="cls-1" d="M39.89,53.05l-.62,1c.77.69,1.39.83,1.87.41l.62-1C41,52.77,40.37,52.63,39.89,53.05Z"/><path class="cls-1" d="M214.76,16.73l1,.62c.69-.77.83-1.39.41-1.87l-1-.62C214.48,15.62,214.34,16.25,214.76,16.73Z"/><path class="cls-1" d="M35.55,56.81l-.62,1c.76.69,1.39.83,1.87.41l.62-1C36.65,56.53,36,56.39,35.55,56.81Z"/><path class="cls-1" d="M23.9,70.55l1,.62c.69-.76.82-1.38.41-1.87l-1-.62C23.62,69.45,23.48,70.07,23.9,70.55Z"/><path class="cls-1" d="M259.52,11.11l-1-.62c-.69.77-.83,1.39-.41,1.88l1,.62A1.2,1.2,0,0,0,259.52,11.11Z"/><path class="cls-1" d="M32.69,71.56c.62.14,1.11-.28,1.45-1.25l-1-.62c-.63-.14-1.11.28-1.45,1.25Z"/><path class="cls-1" d="M273.15,12.66c-.62-.13-1.1.28-1.44,1.26l1,.62c.62.13,1.1-.28,1.45-1.26Z"/><path class="cls-1" d="M43.5,74.72c-.77-1.87-1.46-2.29-2.22-1.8A1.8,1.8,0,0,0,41,75.35Z"/><path class="cls-1" d="M221.54,31.82c.62.14,1.11-.28,1.45-1.25L222,30c-.63-.14-1.11.28-1.45,1.25Z"/><path class="cls-1" d="M334.5,16.74l-.61,1c.76.69,1.38.83,1.87.41l.61-1C335.61,16.46,335,16.32,334.5,16.74Z"/><path class="cls-1" d="M28.68,87s-.69.76-.62,1c.42.48.9,1.24,1.46,1.1,1.24.28,1.66-.42.82-1.39C30.2,87.24,29.3,87.17,28.68,87Z"/><path class="cls-1" d="M317.7,13.61l.61-1c-.76-.7-1.38-.83-1.87-.41l-.61,1C316.59,13.89,317.21,14,317.7,13.61Z"/><path class="cls-1" d="M286.55,24.74l-1-.62c-.69.76-.83,1.38-.41,1.87l1,.62A1.28,1.28,0,0,0,286.55,24.74Z"/><path class="cls-1" d="M255.86,32.54l-1-.62c-.69.76-.82,1.38-.41,1.87l1.05.62A1.27,1.27,0,0,0,255.86,32.54Z"/><path class="cls-1" d="M303.26,17.15c-.14.62.28,1.11,1.25,1.45l.62-1c.14-.63-.28-1.11-1.25-1.45C303.81,15.83,303.47,16.8,303.26,17.15Z"/><path class="cls-1" d="M322.27,28.64c-.69.76-.83,1.38-.41,1.87l1,.62c.69-.77.82-1.39.41-1.87S322.61,28.84,322.27,28.64Z"/><path class="cls-1" d="M304.64,33.41c-.62-.14-1.1.28-1.44,1.25l1,.62c.62.14,1.1-.28,1.45-1.25Z"/><path class="cls-1" d="M349.28,26.37c.13-.62-.29-1.11-1.26-1.45l-.61,1c-.14.62.28,1.11,1.25,1.45Z"/><path class="cls-1" d="M328.92,30.48l-1-.62c-.69.77-.83,1.39-.41,1.88l1,.62C329.2,31.59,329.33,31,328.92,30.48Z"/><path class="cls-1" d="M291.11,40.39c.77.69,1.39.83,1.87.41l.62-1c-.76-.69-1.38-.83-1.87-.41Z"/><path class="cls-1" d="M23,107.65s-.69.76-.62,1c.42.48.9,1.24,1.46,1.1,1.24.28,1.66-.42.82-1.39A2.83,2.83,0,0,0,23,107.65Z"/><path class="cls-1" d="M328.83,42.89l.62-1c-.76-.69-1.38-.82-1.87-.41-.2.35-.62,1-.62,1C327.73,43.18,328.35,43.31,328.83,42.89Z"/><path class="cls-1" d="M328.93,47.89l1,.62c.69-.77.82-1.39.4-1.88l-1-.62A1.2,1.2,0,0,0,328.93,47.89Z"/><path class="cls-1" d="M340.36,52.35c.07.28.42.49,1,.62a1,1,0,0,0,.9.07c.69-.76.83-1.39.13-1.8s-1.38-.83-2.07-.07A1.71,1.71,0,0,0,340.36,52.35Z"/><path class="cls-1" d="M369.28,51.49c.21-.34.62-1,.62-1-.77-.69-1.39-.83-1.87-.41l-.62,1C368.17,51.77,368.8,51.91,369.28,51.49Z"/><path class="cls-1" d="M387.47,60.58c.62.14,1.1-.28,1.44-1.25l-1-.62c-.62-.14-1.1.28-1.44,1.25Z"/><path class="cls-1" d="M345.32,61.6c.14-.63-.28-1.11-1.25-1.45l-.62,1c-.14.62.28,1.11,1.25,1.45C344.7,62.64,345.11,61.94,345.32,61.6Z"/><path class="cls-1" d="M343.79,76.26c.07.28.42.48,1,.62a1,1,0,0,0,.9.07c.69-.77.82-1.39.13-1.81s-1.39-.82-2.08-.06C343.51,75.15,343.65,75.71,343.79,76.26Z"/><path class="cls-1" d="M365.22,87.63c.14-.63-.28-1.11-1.25-1.45l-.62,1c-.14.62.28,1.11,1.25,1.45C364.88,88.6,365,88,365.22,87.63Z"/><path class="cls-1" d="M384,56.39l.62-1c-.76-.69-1.38-.83-1.87-.41-.2.35-.62,1-.62,1A1.27,1.27,0,0,0,384,56.39Z"/><path class="cls-1" d="M382.09,60.42c-.63-.14-1.11.28-1.45,1.25l1,.62c.62.14,1.1-.28,1.45-1.25C383.4,61,382.43,60.63,382.09,60.42Z"/><path class="cls-1" d="M363,106.49c-.13.63.28,1.11,1.25,1.45,0,0,.42-.69.62-1,.14-.62-.28-1.11-1.25-1.45C363.29,105.52,363.16,106.14,363,106.49Z"/><path class="cls-1" d="M352.22,54.69c.14-.62-.28-1.11-1.25-1.45l-.62,1c-.13.63.29,1.11,1.26,1.46Z"/><path class="cls-1" d="M36.15,209.05c.14-.63-.28-1.11-1.25-1.45l-.62,1c-.13.62.29,1.11,1.26,1.45C35.81,210,36,209.4,36.15,209.05Z"/><path class="cls-1" d="M40,211.6l2.49-.63c-.77-1.87-1.47-2.29-2.22-1.8A1.92,1.92,0,0,0,40,211.6Z"/><path class="cls-1" d="M38.25,213.82s.76.7,1,.63c.48-.42,1.24-.91,1.1-1.46.27-1.25-.42-1.67-1.39-.83A2.89,2.89,0,0,0,38.25,213.82Z"/><path class="cls-1" d="M39.59,219.09l1,.62c.69-.76.82-1.39.41-1.87l-1-.62C39.31,218,39.17,218.61,39.59,219.09Z"/><path class="cls-1" d="M43.34,223.44s.77.69,1,.63c.48-.42,1.24-.91,1.1-1.47.27-1.24-.43-1.66-1.39-.82A2.9,2.9,0,0,0,43.34,223.44Z"/><path class="cls-1" d="M61.91,243.21s.76.69,1,.62a2.91,2.91,0,0,0,1.1-1.46c.27-1.25-.42-1.66-1.39-.83C62.45,241.89,62.32,242.51,61.91,243.21Z"/><path class="cls-1" d="M37.67,254.38c-.13.63.28,1.11,1.25,1.46l.62-1.05c.14-.62-.28-1.1-1.25-1.45C38.22,253.07,37.81,253.76,37.67,254.38Z"/><path class="cls-1" d="M32.08,256.69c.13-.62-.29-1.11-1.26-1.45l-.61,1c-.14.63.28,1.11,1.25,1.45Z"/><path class="cls-1" d="M59.41,257.71c.14-.63-.28-1.11-1.25-1.45l-.62,1c-.13.62.28,1.11,1.25,1.45C59.14,259,59.21,258.05,59.41,257.71Z"/><path class="cls-1" d="M66.2,258.93l1,.62c.69-.76.82-1.39.4-1.87l-1-.62A1.27,1.27,0,0,0,66.2,258.93Z"/><path class="cls-1" d="M87.76,269.67s.77.69,1,.63c.49-.42,1.25-.91,1.1-1.47.28-1.24-.42-1.66-1.38-.82C88.24,268.08,87.9,269.05,87.76,269.67Z"/><path class="cls-1" d="M68.83,275.08l.62-1c-.77-.69-1.39-.83-1.87-.41-.21.34-.62,1-.62,1C67.72,275.36,68.35,275.49,68.83,275.08Z"/><path class="cls-1" d="M78.94,276.64c-.14.62.28,1.11,1.25,1.45,0,0,.41-.7.62-1,.13-.63-.28-1.11-1.25-1.45C79.28,275.67,79.14,276.29,78.94,276.64Z"/><path class="cls-1" d="M47.15,285.9l.62-1c-.76-.7-1.39-.83-1.87-.41-.21.34-.62,1-.62,1C46.05,286.18,46.67,286.32,47.15,285.9Z"/><path class="cls-1" d="M89.67,278.33l-2.49.64c.77,1.87,1.47,2.28,2.22,1.79A1.8,1.8,0,0,0,89.67,278.33Z"/><path class="cls-1" d="M81.66,282.73l.62-1c-.76-.69-1.39-.83-1.87-.41-.2.35-.62,1-.62,1C80.56,283,81.18,283.15,81.66,282.73Z"/><path class="cls-1" d="M117.08,295.85c.27-.07.48-.42.62-1a1.07,1.07,0,0,0,.06-.9c-.76-.69-1.39-.83-1.8-.14s-.82,1.39-.06,2.09A.71.71,0,0,0,117.08,295.85Z"/><path class="cls-1" d="M399.07,226.53c.62.14,1.1-.28,1.44-1.25l-1-.62c-.62-.14-1.1.28-1.45,1.25C398.1,226.19,398.72,226.33,399.07,226.53Z"/><path class="cls-1" d="M114.18,298.36s.77.69,1,.62a2.81,2.81,0,0,0,1.1-1.46c.28-1.25-.42-1.66-1.38-.83A2.84,2.84,0,0,0,114.18,298.36Z"/><path class="cls-1" d="M393.89,229.32c-.14.63.28,1.11,1.25,1.45l.62-1c.13-.62-.28-1.1-1.25-1.45Z"/><path class="cls-1" d="M121.31,313.65c.62.14,1.11-.28,1.45-1.25l-1-.62c-.63-.14-1.11.28-1.45,1.25Z"/><path class="cls-1" d="M375.23,249.7s-.69.77-.62,1c.42.49.91,1.25,1.46,1.11,1.25.27,1.66-.42.82-1.39C376.82,250.18,375.85,249.84,375.23,249.7Z"/><path class="cls-1" d="M380.64,253.63c-.77-1.87-1.11-2.07-3.12-1.86C378.29,253.64,378.64,253.85,380.64,253.63Z"/><path class="cls-1" d="M380.92,254.74c.08.28.42.49,1.05.62a1,1,0,0,0,.9.07c.68-.77.82-1.39.13-1.8s-1.39-.83-2.08-.07C380.64,253.63,380.85,254.46,380.92,254.74Z"/><path class="cls-1" d="M370.7,257.34c.07.28.41.49,1,.62a1,1,0,0,0,.9.07c.69-.77.82-1.39.13-1.8s-1.39-.83-2.08-.07C370.14,256.3,370.63,257.07,370.7,257.34Z"/><path class="cls-1" d="M107.9,331.52c-.63-.14-1.11.28-1.45,1.25l1,.62c.62.14,1.11-.28,1.45-1.25Z"/><path class="cls-1" d="M99.56,340.42c.14-.62-.28-1.11-1.25-1.45l-.62,1c-.13.62.29,1.11,1.26,1.45C99.22,341.39,99.36,340.77,99.56,340.42Z"/><path class="cls-1" d="M377.63,275.34c.13-.62-.29-1.1-1.26-1.45l-.61,1c-.14.63.28,1.11,1.25,1.46Z"/><path class="cls-1" d="M195.86,321c.76.69,1.39.82,1.87.41l.62-1c-.77-.7-1.39-.83-1.87-.41C196.27,320.26,196.34,320.54,195.86,321Z"/><path class="cls-1" d="M129.93,338.31l1,.62c.69-.77.82-1.39.41-1.88l-1-.62C129.65,337.2,129.51,337.82,129.93,338.31Z"/><path class="cls-1" d="M108.66,346.79c.62.14,1.11-.28,1.45-1.25l-1-.62c-.63-.14-1.11.28-1.45,1.25Z"/><path class="cls-1" d="M331.7,293.8l-.62,1.05c.76.69,1.39.82,1.87.41l.62-1.05C332.8,293.52,332.18,293.39,331.7,293.8Z"/><path class="cls-1" d="M131.69,345.23c-.14.63.28,1.11,1.25,1.45l.62-1c.14-.62-.28-1.11-1.25-1.45C132.24,343.91,131.9,344.89,131.69,345.23Z"/><path class="cls-1" d="M307.74,304.91c.28-.07.48-.42.62-1a1.09,1.09,0,0,0,.06-.91c-.76-.69-1.39-.82-1.8-.13s-.82,1.39-.06,2.08C306.63,305.19,307.19,305.05,307.74,304.91Z"/><path class="cls-1" d="M304.57,307.48s.76.69,1,.62a2.83,2.83,0,0,0,1.1-1.46c.27-1.24-.42-1.66-1.39-.82C305,305.89,304.7,306.86,304.57,307.48Z"/><path class="cls-1" d="M210.22,330s-.69.77-.62,1a2.88,2.88,0,0,0,1.46,1.11c1.25.27,1.66-.43.83-1.39C211.75,330.19,210.85,330.13,210.22,330Z"/><path class="cls-1" d="M136.76,349c-.63-.14-1.11.28-1.45,1.25l1,.62c.62.14,1.11-.28,1.45-1.25C137.73,349.3,137.1,349.17,136.76,349Z"/><path class="cls-1" d="M143.82,350.11c-.14.63.28,1.11,1.25,1.46l.62-1.05c.14-.62-.28-1.1-1.25-1.45C144.44,349.07,144,349.77,143.82,350.11Z"/><path class="cls-1" d="M109.81,355.94l-1-.62c-.69.76-.83,1.39-.41,1.87l1,.62A1.27,1.27,0,0,0,109.81,355.94Z"/><path class="cls-1" d="M125.7,349.21l-1-.62c-.69.77-.82,1.39-.41,1.87l1,.63C126,350.32,126.12,349.7,125.7,349.21Z"/><path class="cls-1" d="M251.46,330.13c.28-.07.48-.42.62-1.05a1.07,1.07,0,0,0,.06-.9c-.76-.69-1.38-.82-1.8-.13s-.82,1.39-.06,2.08C250.35,330.41,250.91,330.27,251.46,330.13Z"/><path class="cls-1" d="M101.12,361.82c.14-.62-.28-1.11-1.25-1.45l-.62,1c-.13.62.28,1.11,1.25,1.45C100.5,362.86,100.92,362.17,101.12,361.82Z"/><path class="cls-1" d="M119.72,356.93c.13-.63-.29-1.11-1.26-1.45l-.61,1c-.14.62.28,1.11,1.25,1.45A2.08,2.08,0,0,1,119.72,356.93Z"/><path class="cls-1" d="M93,350.32c.14-.62-.28-1.11-1.25-1.45,0,0-.41.7-.62,1-.13.63.28,1.11,1.25,1.45Z"/><path class="cls-1" d="M217.68,343.14c.14-.63-.28-1.11-1.25-1.45l-.62,1c-.13.62.29,1.11,1.26,1.45C217.14,344.46,217.27,343.83,217.68,343.14Z"/><path class="cls-1" d="M235.45,340.1c-.62-.14-1.1.28-1.44,1.25l1,.62c.62.14,1.1-.28,1.44-1.25Z"/><path class="cls-1" d="M168.76,360.23c.76.69,1.38.83,1.87.41l.61-1c-.76-.69-1.38-.83-1.87-.41C169.17,359.54,169.24,359.82,168.76,360.23Z"/><path class="cls-1" d="M156.57,362.21c.63.13,1.11-.28,1.45-1.26l-1-.62c-.62-.13-1.11.28-1.45,1.26Z"/><path class="cls-1" d="M135.94,360.46s-.69.76-.62,1a2.89,2.89,0,0,0,1.46,1.11c1.24.27,1.65-.43.82-1.39A6.3,6.3,0,0,0,135.94,360.46Z"/><path class="cls-1" d="M359.5,286.44c.14-.62-.28-1.11-1.25-1.45l-.62,1c-.13.63.28,1.11,1.25,1.45C358.88,287.48,359.3,286.79,359.5,286.44Z"/><path class="cls-1" d="M257.49,346.89l1,.62c.68-.77.82-1.39.4-1.88l-1-.62C257.2,345.78,257.07,346.4,257.49,346.89Z"/><path class="cls-1" d="M138.51,363.64c.07.28.42.48,1,.62a1,1,0,0,0,.9.07c.69-.77.82-1.39.13-1.81s-1.39-.82-2.07-.06C138,362.6,138.09,363.15,138.51,363.64Z"/><path class="cls-1" d="M177.32,333.19l.62-1c-.76-.69-1.39-.83-1.87-.41l-.62,1C176.22,333.47,176.84,333.61,177.32,333.19Z"/><path class="cls-1" d="M150.72,371.15l-1-.62c-.69.77-.82,1.39-.41,1.88l1,.62C151,372.26,151.14,371.64,150.72,371.15Z"/><path class="cls-1" d="M142.17,376.87l1,.62c.69-.77.82-1.39.4-1.88l-1-.62C141.89,375.76,141.75,376.38,142.17,376.87Z"/><path class="cls-1" d="M189.34,343.41l1,.62c.69-.76.82-1.39.4-1.87l-1-.62A1.27,1.27,0,0,0,189.34,343.41Z"/><path class="cls-1" d="M179.53,347.67c-.13.63.28,1.11,1.25,1.45l.62-1c.14-.62-.28-1.11-1.25-1.45C180.15,346.63,179.74,347.33,179.53,347.67Z"/><path class="cls-1" d="M347.37,312.05c-.62-.14-1.11.28-1.45,1.25l1,.62c.63.14,1.11-.28,1.45-1.25Z"/><path class="cls-1" d="M189.1,360.37c.14-.62-.28-1.11-1.25-1.45l-.62,1c-.13.63.28,1.11,1.25,1.45C188.48,361.41,188.9,360.72,189.1,360.37Z"/><path class="cls-1" d="M246,381.08c.62.13,1.11-.29,1.45-1.26l-1-.62c-.63-.13-1.11.28-1.45,1.25C245,380.73,245.66,380.87,246,381.08Z"/><path class="cls-1" d="M215.41,390.38l1,.62c.69-.77.83-1.39.41-1.87l-1-.62C215.13,389.27,215,389.9,215.41,390.38Z"/><path class="cls-1" d="M218.23,358.63l1,.62c.69-.76.83-1.39.41-1.87l-1-.62C217.6,357.32,217.75,357.87,218.23,358.63Z"/><path class="cls-1" d="M305.66,339l.61-1.05c-.76-.69-1.38-.82-1.87-.41l-.61,1.05A1.2,1.2,0,0,0,305.66,339Z"/><path class="cls-1" d="M305.89,345.71c-.13.62.29,1.11,1.26,1.45l.61-1c.14-.63-.28-1.11-1.25-1.45Z"/><path class="cls-1" d="M300.52,351.2c.21-.34.62-1,.62-1-.76-.69-1.39-.82-1.87-.41l-.62,1.05C299.42,351.49,300,351.62,300.52,351.2Z"/><path class="cls-1" d="M274.5,345.51c-.62-.14-1.11.28-1.45,1.25l1,.62c.63.14,1.11-.28,1.45-1.25C275.82,346.06,274.85,345.72,274.5,345.51Z"/><path class="cls-1" d="M229.15,370.31c-.14.62.28,1.11,1.25,1.45l.62-1c.13-.62-.28-1.11-1.25-1.45C229.7,369,229.35,370,229.15,370.31Z"/><path class="cls-1" d="M247.27,366.89l1,.62c.68-.77.82-1.39.4-1.88l-1-.62C246.64,365.57,246.78,366.13,247.27,366.89Z"/><path class="cls-1" d="M241.46,353.32l1,.62c.69-.77.83-1.39.41-1.88l-1-.62C241.18,352.21,241,352.83,241.46,353.32Z"/><path class="cls-1" d="M372.64,290.48c.14-.63-.28-1.11-1.25-1.46l-.62,1.05c-.13.62.28,1.1,1.26,1.45Z"/><path class="cls-1" d="M178.18,338.87c.27-.07.48-.42.62-1a1.07,1.07,0,0,0,.06-.9c-.76-.69-1.39-.83-1.8-.13s-.82,1.39-.06,2.08C177.07,339.15,177.9,338.94,178.18,338.87Z"/></svg>