<svg xmlns="http://www.w3.org/2000/svg" viewBox="0 0 394 3" preserveAspectRatio="none">
    <defs>
        <style>
            .cls-1 {
                fill: #ececec;
            }
        </style>
    </defs>
    <path class="cls-1"
        d="M.09,1.67C.13,1.08.55.44,3.25.41c.44,0,1.13,0,1.57,0C22.89.41,23.47.16,25.28.16,27.69,0,27.69.89,44.44.57c3.83,0,7.69,0,11.52,0L74.8.16C77.24.05,79.69-.06,82,0,97.17.22,197.22.45,212.44.73c7.25.07,14.25.07,21.69,0,7,0,14.18-.12,21.37-.24,5,0,9.95,0,14.94.11,2.26,0,4.58.2,6.87.3,5,.16,10.11.52,15.26.38,7.19-.12,13.81-.15,20.95-.22A48.62,48.62,0,0,0,319,1c2.86.14,5.33-.06,8.38-.09,3.83,0,8.24-.38,12.16-.12,1.38.07,5.75-.25,6.72,0,1.48.37,1.82-.46,1.35.16-.25.61-5.44-.17-7.14.17a38.47,38.47,0,0,1-5.69.06c-4.3,0-7.91.23-12.18.3-5.18,0-10.55.2-15.73.25-2.48,0-5.2-.05-7.65.06-7.1.4-13.94.2-21,.11-5.21,0-10.48-.29-15.66-.25-14.63.16-29.37-.53-44.18-.26-4.27.07-8.73.25-12.62.09-6-.38-11.81.13-18.08.27-8.54.13-102.37-.05-110.87.18-4.27.07-8.54.14-12.59.19-3.36.09-6.75.08-10.11.17-2.92,0-5.83.1-8.57,0-4.77-.09-9.32-.2-14.09-.28Q19.65,2,8,2.55a8.39,8.39,0,0,1-2.54-.18c-1.29-.48-2.71,1-3.31.55C1.28,1.72.63,3.29,0,2.07H.22Z" />
    <path class="cls-1"
        d="M314.5,1c4.19-.06,8.2-.19,12.39-.25h11.32c1.4.12-4,.47,13.69.44,5.05,0,40.28-1.06,42.1.34.07.64-12.05.38-13.31.4-8.92.05-8.39.79-17.39.53-16-.38-14.63-.08-18.57,0s-31-.23-31.81-.91C312.69,1.32,311.54,1.36,314.5,1Z" />
</svg>