<svg id="Layer_1" data-name="Layer 1" xmlns="http://www.w3.org/2000/svg" viewBox="0 0 482 507"><defs><style>.cls-1{opacity:0.3;}.cls-2{fill:#f2c94c;}</style></defs><g class="cls-1"><path class="cls-2" d="M243.85,432.3c1.7.85,2.84,1.14,2.84,2,.29,2.55.29,5.1.57,7.09-.57,2.55-4.19.55-2.19,4.52,0,0,1.88-.85,2.74,0-.86,2.27.85,1.15,0,3.71,1.14,1.13,1.6-2.85,2.74-1.72a10,10,0,0,1,2.74.74c1.42.57,4.5-6.12,4.21-4.7,0,2.27,6.76-3,6.76-.75,0,.85-2.2,1.87-2.2,2.72.57.57,1.13,1.14,2,2,0,1.42,8.43-7.65,8.43-5.38-.57.57-1.42,1.71-2.28,2.56.57,2.55,4.27.28,5.12,3.69,0,7.09-4.21-2.28-4.21,5.38-.86.85,3.59,1.71,2.74,2.56,0,1.7-3.65.28-3.65,1.7.86,1.13,2.79,1.13,3.65,2-3.42,3.68,3.15-1.81,6.85,1.88,2.74.41.44-4.68,1.61-9,.57-.56,3,3,3.87,2.16,0-.28,2.11-.85,3.47-3.57,2.28-6-.49-9.37-3.13-11.64-.56-.85-1.42-1.7-2.27-2.83.57-.57.85-1.42,1.42-1.42a18.86,18.86,0,0,1,4,0,2.34,2.34,0,0,0,2.28-1.42v-5.39c-.85-2.27-4.27-.28-5.12-2.83.28-.29.57-.86.85-.86,2.56-.28,5.13-.28,7.69-.56,1.13.85,2,1.7,3.13,2.55a8,8,0,0,1,2.56.28,26.08,26.08,0,0,0,2.84,2.56c2.28-.86.29-4.26,2.85-5.11l.85.85a4.3,4.3,0,0,0,1.71,1.14,1.92,1.92,0,0,0,1.14-2,1.78,1.78,0,0,1,.85-2.27c.57-.28,1.14,0,2,.85.86,1.14,2,1.42,4.27,1.14,1.14-1.7,2.56-3.69,3.7-5.11h9.1c1.14.57,1.43,1.42.86,2-.86.85-2,2-3.13,3.12-.86,0-2.28.28-3.42.28-1.42,0,1.71-.57.86.85.85.85,0,1.14.85,2,0,1.13-.77,1.7.94,2.83a35.1,35.1,0,0,1,3.33-2.83c1.14,1.13,4.27-3.12,5.4-2,0,1.7,2.24,4.22,2.24,6.21,5.31-6.24,5-8.48,4.11-7.34,1.28-1.71,4.11-2.56,4.11,2.55-.85.85,1.37-.21,2.74-2.55,0,1.7,2.74-5.27,2.74-3.57,3.6,2.27-4.11,7.77,0,6.4-.57-.85,2.23,1.71,1.37.57,0-1.42,4.11.19,4.11-1.52-.85-1.13,2.77-2.73,1.63-3.87,0-2.55,3.7,1.42,3.7-1.13.85-.85-.85-2.33,0-3.18,0-4.25,3.7,5.45,3.7,1.19.85-1.13-1.14-3.4,0-4.54,0-6.24-3.7-1.7-3.7-7.66.85-1.7,2.28-1.13,3.7-1.42a24.31,24.31,0,0,0,2.85,2.56c.28.28.85,0,1.42,0v-4a25,25,0,0,1-2.56-2.84,18.59,18.59,0,0,0,2.27-2.55,24.17,24.17,0,0,0-2.56-2.84c.29-3.4.29-3.69,3.7-3.69,1.71,1.71,3.7,3.41,5.41,5.11.28.28.85,0,1.13,0v-4a44.34,44.34,0,0,0,3.7-3.69,13.06,13.06,0,0,0,4-1.7l-1.71-1.7c-.57-.57-.28-1.14.57-2a8.63,8.63,0,0,0,1.42-2c0-1.42.29-3.13,1.43-3.13s1.13,2,1.42,3.13c0,.56,1.14,1.7,1.42,1.41a1.89,1.89,0,0,0,1.14-2c.28-2.56.57-2.56,3.13-2.84.28,0,.85-.28,1.14-.28l3.69-3.69c.29-.28,0-.85,0-1.14a1.9,1.9,0,0,1-2.27-.85c-.57-.85.28-1.41,2.84-1.7h-.57a1.75,1.75,0,0,1,.57-2c.57-.57,1.14-.57,1.71.56,0,.29-.28.57-.28.86a3.16,3.16,0,0,1-1.43.85,4.19,4.19,0,0,0-.57,2.55,16.35,16.35,0,0,0,3.7,0c.57,0,1.43-1.14,1.43-1.7a46.41,46.41,0,0,0,0-6.24,1.91,1.91,0,0,1-2.28-.86c-.57-.85.28-1.41,2.28-1.7v-4c1.13-1.13,2.56-2.27,4-3.69h7.11A9.36,9.36,0,0,0,420,352c-1.71-2-4.27-.29-6-1.14a28.72,28.72,0,0,1-3.13,2.84h-2.56c-2-2.27-4.27-4.26-6.26-6.53.56-.56,1.13-1.41,1.7-1.41,4.27-.29,8.54-.29,12.81-.29.28,0,.57-.57.85-.85a25.09,25.09,0,0,1-2.56-2.84c-.28-.28,0-.85,0-1.13a1.92,1.92,0,0,1-2.28-.85c-.56-.85.29-1.42,2.28-1.7v-2.56h-3.7c-.28,0-.57-.28-.85-.56s-.57-.57-.29-.86.57-.85.86-.85c2.84-.85,3.7-.28,4.27,2.27a1.78,1.78,0,0,0,2.27-.85c.85-1.42,0-3.4,2-4.25h2.28a20.16,20.16,0,0,0,2.84,2.27c1.71-.85,1.14-2.27,1.14-4-1.14-1.14-2.56-2.27-4.27-4-1.13-.56-3.41.85-5.4-.56-.29-.29-.57-.57-.57-.85a1.28,1.28,0,0,1,.85-.86,9,9,0,0,1,2.85-.28,42.89,42.89,0,0,1,3.7-3.4c.85-2.56.28-5.11.57-7.66.85-2,2.56-3.12,3.69-4.26,1.71-.56,2.85-.85,4.27-1.41-2-2-3.7-4-5.4-5.68l4.55-4.54a1.27,1.27,0,0,0-.85-1.7c-.29-.28-.86,0-1.43,0a1.78,1.78,0,0,1-2.27-.85c-.29-.85.85-1.7,2.56-1.7h4a7.7,7.7,0,0,0,2.56-.29l3.7-3.68c-1.42-2.56-4-.85-6-1.42-.57-.57-1.43-.85-2-1.42-2.27-2-4.26-4.25-6.54-6.52-.85-.85-1.14-1.14-.85-2a1.9,1.9,0,0,1,2.27-.85h1.14a6.89,6.89,0,0,0,5.41,2.84l2,2a8.63,8.63,0,0,0,6,0c.29-.28,1.14-.57,1.14-.85v-6.52h-2.56a1.78,1.78,0,0,1-2.27-.86c-.29-.56.28-1.13,1.13-2l.86-.85c-.57-2.84-4-.57-4.84-2.84a25.09,25.09,0,0,0,2.56-2.84V251.32a1.91,1.91,0,0,1-2.28-.85,3.65,3.65,0,0,1,0-3.4,1.8,1.8,0,0,1,2.28-.85c0-.28.29-.85,0-1.13a53.34,53.34,0,0,0-4-4c-.29-.28-.86,0-1.14,0v3.69c-1.71,1.7-1.71,1.7-3.13,1.42-1.71,0-2-.57-2.28-2.27a3.33,3.33,0,0,1,1.42-3.12h3.7c0-.57-.28-1.13,0-1.42a25.12,25.12,0,0,0,2.57-2.84c-1.43-1.41-2.57-2.55-3.7-3.68a26.1,26.1,0,0,1-2.85,2.55c-1.42-1.14-2-2.84-.57-4.26a8.91,8.91,0,0,0,2.28-4.25c0-1.13,1.42-2,2.84-1.7a2.34,2.34,0,0,0,2.28-1.42v-7.38a1.25,1.25,0,0,0-1.71-1.13c-.28,0-.57.57-.85.85v5.11c-2,1.7-2,1.7-7.12,1.13-1.13-.57-1.13-1.42,0-1.7.86-.28,1.71,0,2.57-.57.56-.28,1.7-1.13,1.7-1.42a1.9,1.9,0,0,0-2-1.13c-3.13-.57-3.13-.57-3.13-2.84V211l1.14-1.13c2-2.27,2-3.12.28-5.39-.57-.85-1.13-1.13-.85-2a2.35,2.35,0,0,1,2.28-.86c1.7,0,2.27-.56,2.56-2.27a2.69,2.69,0,0,0-1.71-3.12c-.85-.28-1.71,0-2.56-.28-.29,0-.57-.57-1.14-.85v-5.39a10.82,10.82,0,0,1,2.56-2.55c-.85-2.27-4.27-.57-5.12-2.84v-2.55c1.14-2.27,4.27-.29,5.12-2.84l-6.54-6.52h-4a1.45,1.45,0,0,1-.85,2c.29,1.42-.57,1.42-1.14,1.42a1.91,1.91,0,0,1-2-1.13c0-.29.86-1.42,1.42-1.42a15.79,15.79,0,0,1,3.7,0c0-.57-.28-1.14,0-1.42a26.08,26.08,0,0,1,2.56-2.84v-7.94c-.28-.28-.85-1.13-.85-.85-.57.57-1.42.85-1.42,1.42a18.12,18.12,0,0,0,0,4,1.92,1.92,0,0,1-1.14,2c-2-.29-4.27.85-6.26-.86.85-2.55,3.13-3.68,4.84-5.67a24.17,24.17,0,0,1-2.56-2.84v-4h-3.7c-.29,0-.57-.28-.86-.57s-.57-.56-.28-.85.57-.85.85-.85c2.85-.85,3.7-.28,4.27,2.27,1.14.29,2,0,2.28-.85.57-2,.85-4.25,3.13-5.39v-3.69a2.32,2.32,0,0,0-.86-2.26,3,3,0,0,0-3.41-.29c-1.71,1.42-3.13,3.12-4.84,4.54-.57-.57-1.42-.85-1.42-1.42a26.71,26.71,0,0,1,0-4.82c.85-1.14,2.56-1.7,2.28-3.12-.57-1.7-2.28-.85-3.42-.85-.85.85-2,1.7-2.85,2.55L398.92,135a5.13,5.13,0,0,1,2-1.42,18.86,18.86,0,0,1,4,0c.57,0,1.14-.85,2-1.41l-3.7-3.69a8,8,0,0,1-2.56-.28,24.17,24.17,0,0,0-2.84-2.56,5.46,5.46,0,0,0-2.56.85c-.86.29-.57-.56,0-.85,1.14-.56,1.7,0,1.14,1.14a2.89,2.89,0,0,1-1.43,1.13s-.85-.57.29-1.42c1.14-1.13.85-1.7,1.14-2l2.56-2.56c-.86-.85-1.71-2-2.28-2.55a25,25,0,0,1,2.28-2.84c-2-2-4.27-.56-6.55-1.13a42.75,42.75,0,0,1-3.41-3.69c.57-1.7,3.41-2.55,2.27-5.39l-2.56-2.55a24.17,24.17,0,0,0,2.56-2.84c0-1.13.57-2.83-1.13-3.4-1.14-.28-1.71,1.13-2.85,2-2.56-.57-.57-4-2.85-5.11h-3.13c-1.42,1.7-2.84,3.69-4.26,5.11a9.52,9.52,0,0,1-3.13-.29A20.22,20.22,0,0,0,371,97l-3.7,3.69c-.28.28,0,.85,0,1.13a1.48,1.48,0,0,1,2,.86c.28.56.28,1.41.56,2.27a1.89,1.89,0,0,1-1.13,2c-.29,0-1.43-.85-1.43-1.42a16.26,16.26,0,0,1,0-3.69,2.07,2.07,0,0,1-2.56-1.7,13.81,13.81,0,0,1,0-3.4h-3.7c-.28,0-.57-.28-.85-.57s-.57-.57-.29-.85.57-.85.86-.85c2.84-.85,3.7-.28,4.27,2.27.57,0,1.14.28,1.42,0a46,46,0,0,0,3.7-3.69c-.57-.57-.85-1.42-1.42-1.42a19,19,0,0,0-4,0,1.91,1.91,0,0,1-2-1.13c.85-.85,1.71-2,2.56-2.84-1.71-2-5.12-.85-6.26-3.69-.85.86-2,1.71-2.84,2.56h-5.13c-.85-.85-2-1.7-2.84-2.56H336.32c-.86,0-2-.28-2-1.13,0-.28.85-1.42,1.42-1.42,1.14-.28,2.56,0,3.41-1.42a48.48,48.48,0,0,0-4-3.4,9.75,9.75,0,0,1-2.56,2c-2.56-.85-.57-4-2.85-5.1h-5.4c-1.14-1.42-1.14-1.42,1.14-4l-3.42-3.41c-3.13-1.13-6,0-8.53-.56L311,68.08c-3.13,0-6.54.28-9.95,0-1.43,0-2-1.42-1.71-2.84a1.71,1.71,0,0,0-.28-1.13l-2-2a8.91,8.91,0,0,1-.57-2.27c0-1.7.57-3.4-1.42-4.82H292.5c-2,1.7-3.13,3.69-5.69,4.82-1.42-.85-.85-2.27-1.14-3.68-1.14-1.14-2.56-2.27-4-3.69h-4.84c-1.14-.85-2-1.7-3.13-2.56a25,25,0,0,1-2.84,2.56h-4v3.69c0,.28-.28.56-.57.85s-.57.56-.85.28-.85-.57-.85-.85c-.86-2.84-.29-3.69,2.27-4.26V49.64a1.78,1.78,0,0,0-.85-2.27c-.57-.28-1.14.29-2,1.14l-.86.85a7.29,7.29,0,0,1-3.7-3.41c-.85-1.13-1.13-2.83-1.7-4.54A20.42,20.42,0,0,1,254.94,44a20.16,20.16,0,0,0-2.84-2.27l-4.84,4.82c-1.42-.28-1.71-1.42-1.71-2.55a2.57,2.57,0,0,0-1.14-2.27,7.76,7.76,0,0,1-2.56-.29c-1.7,1.71-3.7,3.41-5.4,5.11-1.43-.85-1.14-2.27-1.43-3.4a2.56,2.56,0,0,0-1.7-1.71,65.19,65.19,0,0,0-7.4,0c-3.41,3.41-3.41,3.41-6.54,1.42-.29-1.13.56-2.83-.86-3.4-1.14-.28-1.71,1.7-2.84,1.7-2.85.57-6,.85-8.82-.28-1.14-1.42-.57-3.41-.57-5.11a1.89,1.89,0,0,0-1.14-2c-.29,0-1.14,1.13-1.42,1.7-.29.85-.29,1.7-.57,2.55,0,.28-.57.57-.86.85h-4a2.07,2.07,0,0,1-1.71,2.55c-1.14.29-2.27,0-4.83.86-.86.28-.57-.57,0-.86,1.13-.56,1.7,0,1.13,1.14a2.77,2.77,0,0,1-1.42,1.13s-.85-.56.29-1.41a25.14,25.14,0,0,0,1.13-8.8h-4.26c-1.43,1.7-2.85,3.69-3.7,4.82-2.28.57-3.42.57-4.56,1.14-.85.28-1.13,1.13-.85,2.55v-.57a1.76,1.76,0,0,1,2,.57c.57.57.57,1.14-.57,1.7-.28,0-.57-.28-.85-.28a3,3,0,0,1-.85-1.42A3.2,3.2,0,0,1,177,40.56c-.85-1.41,0-3.4-2-4.25h-5.12c-.86.85-2,1.7-2.85,2.55h-2.56c-1.71,1.14-1.14,3.12-1.14,4.82,0,1.42-.28,2.27-1.42,2.84-.28-.28-.85-.57-.85-.85a30.15,30.15,0,0,1-.29-5.11c0-1.13-1.42-1.7-2.84-1.7A2.6,2.6,0,0,0,155.64,40c.85.85,1.42,1.7,2.28,2.55A7.66,7.66,0,0,1,156.21,44a60,60,0,0,1-7.11,0l-4-4V36c-2-.29-2.56-.86-2.56-2-.28-1.7,0-3.4-.57-5.11-.28-.85-1.14-1.13-2.27-.85v9.08a1.31,1.31,0,0,1-2.56.28V34.89c-.57-.57-1.43-1.42-2-1.42-2,0-4.27-.85-6,1.14a26.89,26.89,0,0,1,2.56,2.83V40c.85,2,3.13,1.13,4.27,2a1.78,1.78,0,0,1,.85,2.27h3.7c.28,0,.57.29.85.57s.57.57.29.85-.57.85-.86.85c-2.84.85-3.69.28-4.26-2.27-.57,0-1.14-.28-1.43,0a46,46,0,0,0-3.7,3.69c0,.85-.28,1.7-.28,2.55a25.09,25.09,0,0,1,2.56,2.84c-1.14,1.7-2.56,1.7-4.27.85-.85-.28-1.14-1.42-2-1.7-.85-.57-2.84-.57-3.41.28a2.19,2.19,0,0,0-.57,2.27,2.91,2.91,0,0,0,.28.85A17.06,17.06,0,0,1,126.05,59c.85,1.42-.57,3.12-2.56,3.41a1.9,1.9,0,0,1-.86,2.27c-.85.56-1.42-.29-1.7-2.27h-4a5.06,5.06,0,0,0-1.42,2c-.28,1.7.29,3.41-.28,4.54-1.43,1.42-2.56,2.84-3.7,4h-4a1.9,1.9,0,0,0,.86,2.27c1.42.85,3.41-.28,4.27,2.27v2a8.74,8.74,0,0,1-2,1.41c-2.56.29-5.12.29-7.68.57-.28,0-.57.57-.85.85a25.09,25.09,0,0,1,2.56,2.84c.28.28,0,.85,0,1.13a1.47,1.47,0,0,1,2,.85c.29.57.28,1.42.57,2.27a1.91,1.91,0,0,1-1.14,2c-.28,0-1.42-.85-1.42-1.42a15.71,15.71,0,0,1,0-3.69h-2.56a1.92,1.92,0,0,0-2.28.85c-.28.57,0,1.14.85,1.71s1.14,1.13.86,1.7a1.8,1.8,0,0,1-2.28.85H96.74c-.28,2-.85,2.55-2,2.55-1.71.29-3.41,0-5.12.57-.86.28-1.14,1.13-.86,2.27H93c.57.57,1.42,1.7,2.28,2.55.28.29.85,0,1.71,0h-.57a1.73,1.73,0,0,1,.57-2c.56-.57,1.13-.57,1.7.56,0,.29-.28.57-.28.85a3.08,3.08,0,0,1-1.42.86,9.58,9.58,0,0,0-.57,4c-1.43,1.42-2.56,3.4-5.12,4.25-1.43-.28-3.13-.28-4.56-.57-.85-.28-1.14-1.13-.85-2.26H82c-1.14,1.13-2.28,2.55-3.7,4a16.25,16.25,0,0,0,.28,8.22c.29.85,1.14,1.14,2.28.85v-4a45.72,45.72,0,0,0,3.7-3.68c2,.85,1.7,2.26,1.13,4.25-2,.57-2.27,3.69-4.83,3.4v4c-.29.29-.57.86-.86.86-.85.28-1.7.28-2.56.56-.57.57-1.42.85-2,1.42-1.71,1.42-3.13,3.12-4.55,4.54-.29,1.42,1.14,1.7,1.71,2.84-.29,2.27,2,4.82-1.14,6.52-.86-.85-1.71-1.42-2.56-2.27-.57.57-1.14.85-1.14,1.14v10.49c-1.14,2.27-4.27.57-5.12,2.84a11.22,11.22,0,0,1,2.27,2.83l-3.7,3.69H58.61c-2,3.12-2,3.12,1.14,6.53a11,11,0,0,0-2.27,2.83c.56,1.14,1.7,1.42,3.13,1.42.56,0,1.42.85,2,1.42l-3.7,3.69a14.14,14.14,0,0,0-3.13.28c-.86,1.14-2,2.55-3.7,4.54,0-.28.57.28,1.42.57,1.14.28,2.56-.57,3.42,1.13a9.1,9.1,0,0,1-3.13,3.41c-1.14.85-2.85,1.13-4.56,1.7,1.71,2.27,4,3.4,5.13,5.67-.86,1.42-2.28.85-3.42,1.14a1.27,1.27,0,0,0-.85.85c-.29.56,0,1.41,1.14,1.7a31.26,31.26,0,0,0,5.12,0c2.27,1.7,1.14,4,1.14,6.24,0,.57-.86,1.13-1.43,1.42-.57-.57-1.14-1.42-2-1.7a6.59,6.59,0,0,0-2.28-.57,1.71,1.71,0,0,0-1.13.28c-1.14,2-3.7,1.7-5.41,2.84a7.22,7.22,0,0,0-3.13,3.4c.85,1.42,2.28,1.14,3.42,1.14.85-.85,2-1.7,2.84-2.56,2.85,1.71,0,5.11,1.71,7.1,2,2.26,5.4-.86,7.11,2-1.71,1.7-3.41,3.69-5.12,5.39v2.55c-.85,2.27-4.27,0-5.12,2.84l3.7,3.69c.28.28.85,0,2,0h-.57a1.75,1.75,0,0,1,.57-2c.57-.56,1.14-.56,1.71.57,0,.28-.29.57-.29.85a3,3,0,0,1-1.42.85c-.86.85-.57,1.7.28,2,1.43.56,2.85.85,4.56,1.42-1.14,1.13-1.71,2-2.85,3.12a24.59,24.59,0,0,0,0,4.54,2.54,2.54,0,0,0,3.13,2h-.57a1.75,1.75,0,0,1,.57-2c.57-.57,1.14-.57,1.71.56,0,.29-.29.57-.29.85a3,3,0,0,1-1.42.85c-.57.57-.28,1.14-.57,1.42-1.71,2-3.7,3.69-5.12,5.39.28,3.41.28,3.41,2.28,4h1.42A3.14,3.14,0,0,1,57.19,257c-.57.85-1.14,1.13-2,2.27a66.9,66.9,0,0,0,0,10.78c.85,1.41,1.42,1.41,2,.28.29-.85.29-1.7.57-2.27a5,5,0,0,1,1.42-2l6.55,6.52a2.12,2.12,0,0,1-2.85,1.13c-2.27,2-3.7,3.13-4.84,4.26,1.71,2.27,5.41.85,6.55,4a10.79,10.79,0,0,1,2.84.28,44.47,44.47,0,0,0,3.7,3.41c0,1.7,0,1.7-2.27,1.7H66.3v10.5h4c.28,0,.57.56.85.85v.85c-1.42,1.7-3.13,3.12-4.55,4.54a5.28,5.28,0,0,0,2,1.42,3,3,0,0,0,2.28-.29c1.71-1.42,3.13-3.12,4.55-4.54a7.39,7.39,0,0,1,1.42,1.71,4,4,0,0,1-.28,2.55c-.29.85-1.42,1.13-1.71,2a3,3,0,0,0,0,3.41l2,2a25.19,25.19,0,0,0-2.27,2.84v2.27c.85,2,2.84,1.13,4.27,2a1.79,1.79,0,0,1,.85,2.27h2.56c2,0,2.85.85,2.85,2.84v2.55h4c.28,0,.57.57.85.85v.86c-1.42,1.7-3.13,3.12-4.55,4.53.57,1.42,1.71,1.42,3.13,1.42.85,0,1.42.85,2,1.14a25.83,25.83,0,0,0-2.56,2.83c1.71,2,4,3.41,5.12,5.68a8.09,8.09,0,0,1-.57,2.55c-.28.85-1.13,1.13-2.27.85a15.71,15.71,0,0,0,0,3.69c.28.85,1.14,1.42,1.7,1.13.57-.56,1.14-1.42,1.71-1.7,2-1.42,4-.28,4.27,2.27a1.8,1.8,0,0,1,2.28.85,1.74,1.74,0,0,1,.28,1.14v4.25c2,3.12,5.41,5.39,8,8.51v3.69H115l3.7,3.69c-.57,2.83-4.27.28-4.84,3.12,1.14.85,2.28,2,4,3.4h6.83c2.27,1.14,3.12,2.84,4.83,4-2.27,2.27-4.55.85-6.83,1.42-.28.85-.85,2-1.13,2.84a12.43,12.43,0,0,0,4.55,4.82c1.42,0,2.84.28,3.41-1.14.29-.85,0-1.7.29-2.55.28-1.13,1.13-1.42,1.7-1.13l.86.85a21.19,21.19,0,0,0,2.56,2.55v5.39L130,403.65c-.28,2.55-1.71,5.11,1.14,7.09h2.28a27.05,27.05,0,0,1,2.84,2.56,2.09,2.09,0,0,0,1.14-2.27c.28-2.56,1.14-3.12,3.13-2.84.85,0,1.42.85,2,1.14v2.55c-.85.85-1.71,2-2.56,2.83v5.4l3.7,3.68c.85-.85,2-1.7,2.85-2.55h2.56c1.13.57,1.42,1.42.56,2-1.42,1.41-3.12,3.12-4.55,4.53.86.85,1.71,2,2.56,2.84,0,1.42.29,2.84-1.13,3.69-1.71-1.7-3.7-3.41-5.41-5.11-.29.29-.86.57-.86.85-.28,3.41-.28,6.81-.28,10.21,0,.86.85,1.42,2.85,1.71h.85c2.56,2.27,5.41-2.56,6.83,6.24,0,1.42,4.09-.57,4.09-2.29-.86-.85-.32-4.44-1.37-5.45-.86-2.55,2.68-1.06,2.4-3.61,0-2,2.28-3.95,1.71-5.94-.85-.85,4.85-1.72,4.28-2.29,0-.28,5.31-.15,5.31-.43,0-11.92,5.49,5.09,5.49-7.11.56-.85,6.83,7.54,8,6.41v-7.66a47.74,47.74,0,0,1,3.7-3.69c2.28.29,2.85,2.84,4.56,3.41v5.67a15.89,15.89,0,0,1,3.41,1.14,27.73,27.73,0,0,1,3.13-2.84h5.41c1.13,1.13,2.27,2.55,3.69,4A17.94,17.94,0,0,1,202,430c2.56,2.27,2.84,2.27,6-.85,2,.29,2.85,3.41,5.41,2.27,1.71,1.7,3.7,3.41,5.41,5.39h2.84c.29-1.13.86-2.27,1.14-3.4a27,27,0,0,0-2.85-3.12l2.57-2.56c.85-.85,1.13-1.13,2-.85a2.36,2.36,0,0,1,.85,2.27c-.28,2,.28,2.27,2.28,2.27a2.36,2.36,0,0,1,2.27.85,1,1,0,0,1,.29.85c-1.14,1.14-2.85,2.27-2.28,4.54a31.29,31.29,0,0,0,6.83,6.81c.85-.28,1.71-.28,2.56-.57s1.14-1.13.85-2.27a1.47,1.47,0,0,1-2-.85c-.28-.57-.28-1.42-.57-2.27a1.89,1.89,0,0,1,1.14-2c.29,0,1.42.85,1.42,1.42a15.62,15.62,0,0,1,0,3.68,1.48,1.48,0,0,1,2,.85c.56,1.42.85,2.84,1.42,4.54,3.41-1.7.57-4.82,2-6.81l2.56-2.55c-1.42-1.7-1.42-2.83-2.27-5.39-.29-.85.56-.57.85,0,.57,1.14,0,1.7-1.14,1.14a2.88,2.88,0,0,1-1.14-1.42C242.42,431.73,243,431.17,243.85,432.3ZM380.42,105h-7.68c-.29,0-.57-.57-.85-.86-.29-.56,0-1.13.85-1.7h7.68c.29,0,.57.57.85.85C381.84,103.82,381.27,104.39,380.42,105Zm14.51,259c1.71-1.7,3.42-2,5.41,0-.29,1.42.85,3.4-1.71,3.69A44.33,44.33,0,0,0,394.93,363.94Zm22.48-185.23c2,1.7,2,3.4,0,5.39C415.42,182.11,415.42,180.41,417.41,178.71Zm2.28,20.42c-.29-.28-.86-.57-.86-.85v-2.55c0-.29.57-.57.86-.85a.52.52,0,0,1,.85,0c1.42.56,1.42,3.4,0,4.25C420.26,199.41,420,199.13,419.69,199.13ZM62.88,261.54c-1.71,2-3.41,2-5.4,0C59.47,259.55,61.17,259.55,62.88,261.54ZM363.35,402v-1.13l.85-.86c.57-.28,1.14,0,1.71.86.29.28,0,.85,0,1.13a1.9,1.9,0,0,1-.85,2.27C364.2,404.5,363.35,403.65,363.35,402ZM256.93,52.19c-.57.29-1.13,0-1.7-.85,0,0,.57-.56.85-.85.57-.28,1.14,0,1.71.85C258.07,51.34,257.5,51.91,256.93,52.19Zm-123.2,6.53c.28.57,0,1.13-.85,1.7l-.86-.85c-.28-.57,0-1.14.86-1.7Zm155.92,3.12.86-.85c.57-.29,1.14,0,1.71.85l-.86.85C290.79,63,290.22,62.69,289.65,61.84Zm64.88,32.34c-.57.28-1.14,0-1.71-.85l.85-.86c.57-.28,1.14,0,1.71.86ZM422.82,225.8l.85.85c.28.56,0,1.13-.85,1.7l-.86-.85C421.39,227.21,421.68,226.65,422.82,225.8ZM59.47,228.07c-.57.28-1.14,0-1.71-.86l.85-.85c.57-.28,1.14,0,1.71.85C60.32,227.5,59.75,227.78,59.47,228.07Zm373.31,44.81-.86-.85c.57-.85,1.14-1.13,1.71-.85l.85.85C433.91,272.88,433.35,273.17,432.78,272.88Zm-10.53,31.49-.86-.85c.57-.85,1.14-1.13,1.71-.85l.85.85C423.39,304.37,422.82,304.65,422.25,304.37Zm-7.11,24.4.85.85c-.57.85-1.14,1.13-1.71.85l-.85-.85C414,328.77,414.57,328.48,415.14,328.77ZM107.27,352.88c.28.56,0,1.13-.85,1.7l-.86-.85c-.28-.57,0-1.14.86-1.7Zm293.92,2.27c.57-.29,1.14,0,1.71.85,0,0-.57.56-.85.85-.57.28-1.14,0-1.71-.85Z"/><path class="cls-2" d="M233,452.73c1.14-1.14,1.43-1.71,1.14-2l-3.7-3.69c-.57.29-1.42.85-1.42,1.14a67.5,67.5,0,0,0,0,7.66c2.28,2.26,4.55,1.13,7.11.85,1.71-1.42.57-3.12.86-4.82a8.32,8.32,0,0,0-4,.85c-.85.28-.57-.57,0-.85,1.14-.57,1.71,0,1.14,1.13a2.77,2.77,0,0,1-1.42,1.13C232.46,454.14,231.9,453.58,233,452.73Z"/><path class="cls-2" d="M134,420.39h-4c-.85-.85-2-1.7-2.84-2.56a3.91,3.91,0,0,0-1.43,2.28c-.57,3.12-.57,3.12-2.84,3.12h-3.7l-1.14,1.13c0,.28.29.85.57.85,2.85,1.14,5.69.57,8.82.28,1.14-2,3.41-2.26,5.41-2.83A1.69,1.69,0,0,0,134,420.39Z"/><path class="cls-2" d="M110.4,30.07c-1.14-2.27-4.27-.29-5.12-2.84V24.68a1.28,1.28,0,0,0-.86-.85c-.57-.29-1.42,0-1.7,1.13a33.4,33.4,0,0,0,0,5.39c-.86.57-1.71,1.42-2.85,2.27,1.71,2.27,4,1.14,6,1.42C107.84,33.47,108.69,31.49,110.4,30.07Z"/><path class="cls-2" d="M136.58,28.93h-1.14c-3.42,0-3.42,0-4-3.12A2.59,2.59,0,0,0,128,23.54,7.94,7.94,0,0,0,126.33,25v3.69c2-.28,2.56,2,4.84,2.55a15.33,15.33,0,0,0,3.7,0C136,31.2,137.15,30.35,136.58,28.93Z"/><path class="cls-2" d="M144.54,447.62a1.41,1.41,0,0,0-1.42-.85,5.31,5.31,0,0,1-4.55-2,.9.9,0,0,0-.57-.28c-1.42,1.13-2.56,2.27-4,3.4l4,4a10.79,10.79,0,0,1,2.84.28A24,24,0,0,1,144.54,447.62Z"/><path class="cls-2" d="M429.36,339c.29-1.42-.57-2.27-2-2.56a24.64,24.64,0,0,0-4.55,0A20.42,20.42,0,0,1,420,339h-3.7v2.55h6.55c.85-.85,2-1.7,2.84-2.55Z"/><path class="cls-2" d="M78.82,345.5l3.69,3.69h2.57c.85-.85,1.7-2.27,2.84-2.55s1.71-.29,1.14-1.42c-.29-.29-.57-.85-.85-.85a18.57,18.57,0,0,0-8.83,0A2.15,2.15,0,0,1,78.82,345.5Z"/><path class="cls-2" d="M99.87,45.67a18.63,18.63,0,0,1-2.56-2.27c-.85-.85-1.14-1.13-1.71-.85a1.79,1.79,0,0,0-.85,2.27v1.42a18.63,18.63,0,0,0,2.56,2.27v2.83c0,.29.57.57.85.85a1.27,1.27,0,0,0,1.71-.85Z"/><path class="cls-2" d="M107.84,370.46h-4c-.86-.85-2-1.7-2.85-2.55-1.42,0-2.85-.28-3.7,1.42l3.41,3.4a8,8,0,0,0,6.26,0A1.78,1.78,0,0,0,107.84,370.46Z"/><path class="cls-2" d="M410.87,378.41h-6.55c-2,2.83-2,2.83,0,5.1.86-.85,1.71-1.42,2.56-2.27.57.57.86.57,1.14,1.14.57.85,1.14,1.42,2,1.13a1.78,1.78,0,0,0,.86-2.27A9.21,9.21,0,0,1,410.87,378.41Z"/><path class="cls-2" d="M421.39,152.33H417.7a2.69,2.69,0,0,0-1.43,3.12c.29,1.7.57,2.27,2.28,2.27,1.14,0,1.14,0,3.13-1.42A19.68,19.68,0,0,1,421.39,152.33Z"/><path class="cls-2" d="M36.42,156.3c-2.56-2-2.56-2-5.41,0v2.55c2.56,2,2.56,2,5.41,0Z"/><path class="cls-2" d="M443,182.4c-1.42-.57-2.56-1.14-3.42-1.42-2.56.85-3.41,2.83-5.4,4.25,1.42.57,2.56,1.14,3.41,1.42C439.89,185.8,440.74,183.81,443,182.4Z"/><path class="cls-2" d="M430.78,212.75l3.7-3.69c-.85-.85-2.27-1.7-2.27-2.84-.29-1.13-.29-1.7-1.43-1.13-.28.28-.85.57-.85.85a11.59,11.59,0,0,0,0,6.24A3.79,3.79,0,0,1,430.78,212.75Z"/><path class="cls-2" d="M6.26,212.75H1.14c-.57,0-.86,1.13-1.14,1.41l3.7,3.69a41.21,41.21,0,0,0,3.41-3.69C7.4,213.88,7.11,213.31,6.26,212.75Z"/><path class="cls-2" d="M436.48,297c-2,.86-2.85,2.84-4.56,3.69,1.14,2,2.56,1.42,3.7,1.42a26.1,26.1,0,0,1,2.85-2.55c1.7-1.42,1.7-1.7.28-2.27A5.43,5.43,0,0,0,436.48,297Z"/><path class="cls-2" d="M439.89,299.55v3.69a2.69,2.69,0,0,0,3.13,1.41c1.71-.28,2.28-.56,2.28-2.26,0-1.14,0-1.14-1.43-3.13A19.73,19.73,0,0,1,439.89,299.55Z"/><path class="cls-2" d="M124.63,396.84h-2.56a26.1,26.1,0,0,0-2.85-2.55c-1.71,2.84-1.71,2.84.28,5.11h5.13c.28,0,.56-.57.85-.85C126.05,398,125.76,397.13,124.63,396.84Z"/><path class="cls-2" d="M194.62,429.75v7.66c0,.28.57.57.85.85.57.28,1.14,0,1.71-1.14v-7.66c0-.28-.57-.56-.85-.85C195.76,428.33,195.19,428.9,194.62,429.75Z"/><path class="cls-2" d="M304.45,462.09c1.71-1.42,2-2.84.85-4.54a20.61,20.61,0,0,0-3.41-3.69c-1.71,1.42-2,2.84-.85,4.54A21,21,0,0,0,304.45,462.09Z"/><path class="cls-2" d="M336.89,22.13c1.71,2,3.41,2,5.4,0-.85-.86-2-1.71-2.84-2.56s-1.14-1.13-1.71-.85a1.78,1.78,0,0,0-.85,2.27C337.17,21.27,336.89,21.84,336.89,22.13Z"/><path class="cls-2" d="M157.92,26.1a16.35,16.35,0,0,0,3.7,0c.56,0,.85-.85,1.42-1.42l-3.42-3.41c-.57.57-1.42.86-1.42,1.42C157.63,23.83,157.92,25,157.92,26.1Z"/><path class="cls-2" d="M150,25c-1.71-2-3.41-2-5.41,0,.86.85,2,1.7,2.85,2.56s1.14,1.13,1.71.85A1.79,1.79,0,0,0,150,26.1Z"/><path class="cls-2" d="M192.06,34a16.35,16.35,0,0,0,3.7,0c.57,0,.85-.85,1.42-1.42l-3.41-3.4c-.57.56-1.43.85-1.43,1.42C191.77,31.77,192.06,32.9,192.06,34Z"/><path class="cls-2" d="M248.68,39.43l3.7-3.69c-.28-2.55-2.28-1.42-3.7-1.7C246.69,36,247,37.73,248.68,39.43Z"/><path class="cls-2" d="M363.35,77.44c-2.56-1.7-2.56-1.7-5.12,0,.28,1.42-.86,3.4,1.7,3.69A42.8,42.8,0,0,1,363.35,77.44Z"/><path class="cls-2" d="M89.34,97.3A2,2,0,0,0,86.78,99a42.34,42.34,0,0,0,0,6,2,2,0,0,0,2.56-1.71Z"/><path class="cls-2" d="M413.43,136.73v-6.24c0-.57-.86-.86-1.42-1.42,0,0-.86.56-.86.85-.28,2-.57,4,.28,6C411.72,136.73,412.57,136.73,413.43,136.73Z"/><path class="cls-2" d="M29.88,194.31c-2,1.7-1.71,3.4,0,5.39.85-.85,1.7-2,2.56-2.84.85-.57,1.13-1.13.85-1.7a1.79,1.79,0,0,0-2.28-.85C30.73,194.59,30.44,194.31,29.88,194.31Z"/><path class="cls-2" d="M431.92,204.8a15.79,15.79,0,0,0,3.7,0c.57,0,.86-.85,1.42-1.41L433.63,200c-.57.57-1.42.85-1.42,1.42C431.64,202.54,431.92,203.67,431.92,204.8Z"/><path class="cls-2" d="M441.31,220.69l-3.7,3.69c.29,2.55,2.28,1.42,3.7,1.7C443,224.09,442.73,222.39,441.31,220.69Z"/><path class="cls-2" d="M49.79,243.1c-.28-1.42.57-2.84-.85-3.4s-1.71,1.13-2.56,1.7l-.85.85-.86.85Q47.24,245.65,49.79,243.1Z"/><path class="cls-2" d="M428.79,321.11c.29-3.69,1.71-6.24-.85-8.51-1.71,1.13-1.14,2.83-1.42,4.54C426.52,318.55,426.8,319.69,428.79,321.11Z"/><path class="cls-2" d="M446.43,331c1.71-2.56,1.71-2.56,0-5.11-1.42.28-3.41-.85-3.7,1.7C443.87,328.77,445.3,329.9,446.43,331Z"/><path class="cls-2" d="M421.39,366.49c1.71,2,3.42,1.7,5.41,0-.85-.85-2-1.7-2.85-2.55-.56-.85-1.13-1.14-1.7-.85a1.78,1.78,0,0,0-.86,2.27Z"/><path class="cls-2" d="M405.46,367.91c.28,0,.85-.28,1.14,0l2.56,2.55c.57-.56,1.14-.85,1.42-1.41a15.65,15.65,0,0,0,0-3.69h-5.4A7.1,7.1,0,0,1,405.46,367.91Z"/><path class="cls-2" d="M408.31,374.43c.85,1.42,2.84,1.71,2.56,4,.28,0,.85.28,1.14,0a3.13,3.13,0,0,0,1.13-4.26c-.28-.85-2-1.42-3.13-1.13A7.56,7.56,0,0,0,408.31,374.43Z"/><path class="cls-2" d="M397.78,392.87c-1.71-2-3.42-2-5.41,0,.86.85,2,1.71,2.85,2.56s1.14,1.13,1.7.85a1.79,1.79,0,0,0,.86-2.27C397.49,393.72,397.78,393.16,397.78,392.87Z"/><path class="cls-2" d="M379.28,399.4a1.9,1.9,0,0,0,.86,2.27c2,.85,4,.56,6,.28.29,0,.86-.85.86-.85-.29-.57-.86-1.42-1.43-1.42C383.27,399.11,381.27,399.4,379.28,399.4Z"/><path class="cls-2" d="M387,416.42c1.7,2,3.41,2,5.4,0-.85-.85-2-1.71-2.84-2.56s-1.14-1.13-1.71-.85a1.78,1.78,0,0,0-.85,2.27C387.25,415.57,387,415.85,387,416.42Z"/><path class="cls-2" d="M131.45,415a1.9,1.9,0,0,0,.86,2.27c.85.85,2.27,1.42,1.7,3.12,2-.28,2.57-.85,2.57-2,.28-2-.57-3.12-2.57-3.12A8,8,0,0,0,131.45,415Z"/><path class="cls-2" d="M312.13,436c-2,1.7-2,3.4,0,5.39.86-.85,1.71-2,2.56-2.84s1.14-1.13.86-1.7a1.8,1.8,0,0,0-2.28-.85C313,436.27,312.42,436,312.13,436Z"/><path class="cls-2" d="M205.15,441.38h3.7c2.27-2,2-2.27.57-4.82C206.29,439.11,206,439.11,205.15,441.38Z"/><path class="cls-2" d="M200,443.93c.28,2,.85,2.55,2,2.55,2.27.29,3.13-.56,3.13-2.55v-2.55c-1.71-.28-2.28.85-3.13,1.7C201.45,443.93,200.88,444.22,200,443.93Z"/><path class="cls-2" d="M171.7,439.82c2.28-.85,2.28-.85,4.84-4.26-2.56-1.42-2.85-1.42-4.84.57Z"/><path class="cls-2" d="M174.26,443.51c-.85-1.42-2.84-1.71-2.56-4-.28,0-.85-.29-1.14,0a3.12,3.12,0,0,0-1.14,4.25c.29.85,2,1.42,3.13,1.13C173.41,444.64,173.69,444.07,174.26,443.51Z"/><path class="cls-2" d="M180.11,461.46l-.85.85c-.29.57,0,1.14,1.13,1.71h5.13l.85-.86c.28-.56,0-1.13-1.14-1.7Z"/><path class="cls-2" d="M180.11,490.4c-.85.56-1.42,1.13-.85,1.7.28.28.56.57.85.85h5.12c.86-.57,1.14-1.14.86-1.7l-.86-.85Z"/><path class="cls-2" d="M227.63,28.93c2-1.7,2-3.4,0-5.39C225.63,25.25,225.63,27.23,227.63,28.93Z"/><path class="cls-2" d="M136.58,28.93h2.56a18.82,18.82,0,0,0,0-4c-.29-1.13-1.14-1.42-1.71-.85-.28.29-.85.57-.85.85Z"/><path class="cls-2" d="M144.54,36.88a16.35,16.35,0,0,0,3.7,0c.57,0,1.42-1.14,1.42-1.42a1.9,1.9,0,0,0-2-1.14,6.77,6.77,0,0,0-2.27.57C144.54,34.89,144.26,35.74,144.54,36.88Z"/><path class="cls-2" d="M107.84,60.42a1.9,1.9,0,0,0,.85,2.27c.85.57,1.71-.57,1.71-2.27V59.29l-.86-.86c-.56-.28-1.13,0-1.7.86C107.55,59.57,107.84,60.14,107.84,60.42Z"/><path class="cls-2" d="M108.12,67.51c.57,1.42,3.42,1.42,4.27,0a.52.52,0,0,0,0-.85c-.57-1.42-3.41-1.42-4.27,0Z"/><path class="cls-2" d="M347.42,78.86c1.7,0,2.84-.85,2.27-1.7a1.78,1.78,0,0,0-2.27-.85h-1.14c-.86.56-1.42,1.13-.86,1.7.29.28.57.85.86.85Z"/><path class="cls-2" d="M81.38,95.88c-1.71-2-3.42-2-5.41,0C78,97.86,79.67,97.86,81.38,95.88Z"/><path class="cls-2" d="M400.34,105a1.9,1.9,0,0,0-2.28.85c-.57,1.13.57,2,2.28,2h1.14l.85-.85c.28-.57,0-1.13-.85-1.7A1.75,1.75,0,0,0,400.34,105Z"/><path class="cls-2" d="M416,112.9a16.26,16.26,0,0,0,0-3.69c0-.57-1.14-1.42-1.42-1.42a1.9,1.9,0,0,0-1.14,2,6.54,6.54,0,0,0,.57,2.27A1.47,1.47,0,0,0,416,112.9Z"/><path class="cls-2" d="M432.78,116c-1.43.57-1.43,3.4,0,4.25a.52.52,0,0,0,.85,0c1.42-.56,1.42-3.4,0-4.25Z"/><path class="cls-2" d="M405.46,123.39c0,1.71.85,2.84,1.71,2.27a1.78,1.78,0,0,0,.85-2.27v-1.13c-.57-.85-1.14-1.42-1.71-.85-.28.28-.85.56-.85.85Z"/><path class="cls-2" d="M424,128.78c1.71,0,2.85-.85,2.28-1.7a1.8,1.8,0,0,0-2.28-.85h-1.13c-.86.57-1.43,1.13-.86,1.7.29.29.57.85.86.85Z"/><path class="cls-2" d="M421.39,152.33a16.35,16.35,0,0,0,3.7,0c.57,0,1.43-1.14,1.43-1.42a1.92,1.92,0,0,0-2-1.14,6.77,6.77,0,0,0-2.27.57A1.47,1.47,0,0,0,421.39,152.33Z"/><path class="cls-2" d="M448.71,173h.85c1.43-.85,1.14-3.68,0-4.25h-.85c-.29.28-.85.57-.85.85v2.55C447.86,172.47,448.42,172.75,448.71,173Z"/><path class="cls-2" d="M15.36,182.68c-1.7-2-3.41-2-5.4,0C12,184.38,13.66,184.38,15.36,182.68Z"/><path class="cls-2" d="M20.77,237.71c1.71,2,3.42,2,5.41,0C24.19,235.72,22.48,235.72,20.77,237.71Z"/><path class="cls-2" d="M437,252.18a1.91,1.91,0,0,0,2.28-.86,3.59,3.59,0,0,0,0-3.4,1.8,1.8,0,0,0-2.28-.85Z"/><path class="cls-2" d="M37.56,259.55h.85c1.42-.85,1.14-3.69,0-4.25h-.85c-.29.28-.86.56-.86.85v2.55C36.7,259,37.27,259.27,37.56,259.55Z"/><path class="cls-2" d="M445,319.12c-1.71-2-3.41-2-5.41,0C441.6,321.11,443.3,321.11,445,319.12Z"/><path class="cls-2" d="M83.94,325.64a16.35,16.35,0,0,0-3.7,0c-.57,0-1.42,1.14-1.42,1.42a1.9,1.9,0,0,0,2,1.14,6.77,6.77,0,0,0,2.27-.57C83.94,327.35,84.22,326.78,83.94,325.64Z"/><path class="cls-2" d="M429.36,339a16.26,16.26,0,0,0,0,3.69c0,.56,1.14,1.41,1.42,1.41a1.88,1.88,0,0,0,1.14-2,6.54,6.54,0,0,0-.57-2.27A1.46,1.46,0,0,0,429.36,339Z"/><path class="cls-2" d="M94.47,362.52c2.56-.57,3.12-1.42,2.27-4.25,0-.29-.57-.57-.85-.85-.29,0-.57.28-.86.28-.28.28-.56.57-.56.85Z"/><path class="cls-2" d="M91.9,362.52a15.71,15.71,0,0,0,0-3.69c0-.56-1.13-1.41-1.42-1.41a1.89,1.89,0,0,0-1.14,2,6.77,6.77,0,0,0,.57,2.27A1.48,1.48,0,0,0,91.9,362.52Z"/><path class="cls-2" d="M410.87,365.07c2.56-.56,3.13-1.41,2.27-4.25,0-.28-.57-.57-.85-.85-.28,0-.57.28-.85.28-.29.29-.57.57-.57.85Z"/><path class="cls-2" d="M72.27,375.57c2-1.7,2-3.4,0-5.39C70.28,372.17,70.28,373.87,72.27,375.57Z"/><path class="cls-2" d="M418.83,381a16.35,16.35,0,0,0,3.7,0c.57,0,1.42-1.13,1.42-1.42a1.89,1.89,0,0,0-2-1.13,6.75,6.75,0,0,0-2.27.56C418.55,379.26,418.55,380.11,418.83,381Z"/><path class="cls-2" d="M95.89,391.45c-2,1.71-2,3.41,0,5.39C97.88,394.86,97.88,393.16,95.89,391.45Z"/><path class="cls-2" d="M124.34,406.77h.85c1.43-.85,1.14-3.69,0-4.25h-.85c-.28.28-.85.56-.85.85v2.55C123.49,406.2,124.06,406.49,124.34,406.77Z"/><path class="cls-2" d="M131.45,415c-.57-2.55-1.42-3.12-4.26-2.27-.29,0-.57.57-.86.85,0,.28.29.57.29.85.28.28.57.57.85.57A18.85,18.85,0,0,0,131.45,415Z"/><path class="cls-2" d="M114.38,417.83c-2,1.71-2,3.41,0,5.4C116.09,421.24,116.09,419.54,114.38,417.83Z"/><path class="cls-2" d="M213.12,441.38a1.9,1.9,0,0,0,.85,2.27c.85.57,1.71-.57,1.71-2.27v-1.14l-.86-.85c-.57-.28-1.14,0-1.7.85Z"/><path class="cls-2" d="M153.64,454.09a1.9,1.9,0,0,0-2.27.85c-.57.85.57,1.7,2.27,1.7h1.14l.86-.85c.28-.57,0-1.14-.86-1.7C154.5,453.8,153.93,454.09,153.64,454.09Z"/><path class="cls-2" d="M164,442.37a16.35,16.35,0,0,0-3.7,0c-.57,0-1.42,1.14-1.42,1.42a1.89,1.89,0,0,0,2,1.13,6.75,6.75,0,0,0,2.27-.56A1.47,1.47,0,0,0,164,442.37Z"/><path class="cls-2" d="M190.07,464.58c-1.42.57-1.42,3.41,0,4.26a.54.54,0,0,0,.85,0c1.43-.57,1.43-3.41,0-4.26C190.64,464.3,190.35,464.58,190.07,464.58Z"/><path class="cls-2" d="M157.63,468c1.71,2,3.42,2,5.41,0C161.05,466,159.34,466,157.63,468Z"/><path class="cls-2" d="M170.72,496.92c1.71,2,3.41,2,5.41,0C174.13,494.93,172.43,494.93,170.72,496.92Z"/><path class="cls-2" d="M46.38,292.46c-1.71-2-3.42-2-5.41,0C42.68,294.44,44.39,294.44,46.38,292.46Z"/><path class="cls-2" d="M271.45,478.54c2-1.7,2-3.4,0-5.39C269.74,475.14,269.74,476.84,271.45,478.54Z"/><path class="cls-2" d="M232.46,484.21c1.71,0,2.85-.85,2.28-1.7a1.8,1.8,0,0,0-2.28-.85h-1.13c-.86.57-1.43,1.13-.86,1.7.29.28.57.85.86.85C231.33,484.5,231.9,484.21,232.46,484.21Z"/><path class="cls-2" d="M208.28.85c-.29.57,0,1.14.85,1.7L210,1.7c.28-.57,0-1.13-.86-1.7Z"/><path class="cls-2" d="M158.77,15.32c.57.28,1.14,0,1.71-.85l-.86-.85c-.57-.29-1.13,0-1.7.85C157.92,14.47,158.49,15,158.77,15.32Z"/><path class="cls-2" d="M147.39,18.44c-.29-2-.57-2.27-2.56-2.55C144.83,17.87,145.11,17.87,147.39,18.44Z"/><path class="cls-2" d="M147.39,19.57c0,.29.28.57.85.85a1,1,0,0,0,.86.29c.85-.57,1.13-1.14.56-1.7s-1.13-1.14-2-.57C147.1,18.44,147.1,19.29,147.39,19.57Z"/><path class="cls-2" d="M197.47,22.41c.57.85,1.13,1.13,1.7.85l.86-.85c-.57-.85-1.14-1.14-1.71-.85C197.75,21.56,197.75,22.13,197.47,22.41Z"/><path class="cls-2" d="M108.69,25.81c.57.29,1.14,0,1.71-.85l-.86-.85c-.56-.28-1.13,0-1.7.85Z"/><path class="cls-2" d="M155.35,27.8s.57.85.86.85a2.82,2.82,0,0,0,1.42-1.13c.57-1.14,0-1.71-1.14-1.14A6.34,6.34,0,0,0,155.35,27.8Z"/><path class="cls-2" d="M177.55,31.49c.28,0,.57-.29.85-.85a1,1,0,0,0,.29-.86c-.57-.85-1.14-1.13-1.71-.56s-1.14,1.13-.57,2C176.41,31.49,177,31.49,177.55,31.49Z"/><path class="cls-2" d="M123.49,31.49c2-.29,2.27-.57,2.56-2.56C124.06,29.22,123.77,29.5,123.49,31.49Z"/><path class="cls-2" d="M119.22,29.22s-.85.56-.85.85c.28.57.56,1.42,1.13,1.42,1.14.56,1.71,0,1.14-1.14C120.64,29.78,119.79,29.5,119.22,29.22Z"/><path class="cls-2" d="M93.61,30.92c.29-.28.85-.85.85-.85-.56-.85-1.13-1.14-1.7-.85l-.86.85C92.47,31.2,93,31.2,93.61,30.92Z"/><path class="cls-2" d="M279.41,33.19l.86.85c.85-.57,1.13-1.14.85-1.7l-.85-.85C279.41,32.05,279.13,32.62,279.41,33.19Z"/><path class="cls-2" d="M220.51,33.19c.29-.57,0-1.14-.85-1.7,0,0-.57.56-.85.85-.29.56,0,1.13.85,1.7C219.94,34,220.23,33.47,220.51,33.19Z"/><path class="cls-2" d="M173.85,33.19s.57.85.85.85a2.85,2.85,0,0,0,1.43-1.14c.57-1.13,0-1.7-1.14-1.13C174.7,31.77,174.13,32.62,173.85,33.19Z"/><path class="cls-2" d="M159.91,33.19c.28-.57,0-1.14-.86-1.7l-.85.85c-.28.56,0,1.13.85,1.7C159.34,34,159.62,33.47,159.91,33.19Z"/><path class="cls-2" d="M120.93,31.49c.28,2,.85,2.55,1.7,2.27a1.79,1.79,0,0,0,.86-2.27Z"/><path class="cls-2" d="M115.24,33.19c.28-.57,0-1.14-.86-1.7,0,0-.57.56-.85.85-.29.56,0,1.13.85,1.7Z"/><path class="cls-2" d="M163.89,36.31c.57.28,1.14,0,1.71-.85l-.86-.85c-.56-.29-1.13,0-1.7.85Z"/><path class="cls-2" d="M256.08,38.86c.57.29,1.14,0,1.71-.85l-.86-.85c-.57-.28-1.13,0-1.7.85C255.23,38.29,255.8,38.58,256.08,38.86Z"/><path class="cls-2" d="M231.9,38.58l.85.85c.85-.57,1.14-1.14.85-1.7l-.85-.85A1.26,1.26,0,0,0,231.9,38.58Z"/><path class="cls-2" d="M210.84,38.58l.85.85c.86-.57,1.14-1.14.86-1.7l-.86-.85A1.26,1.26,0,0,0,210.84,38.58Z"/><path class="cls-2" d="M195.76,37.16s-.86.57-.86.85c.29.57.57,1.42,1.14,1.42,1.14.57,1.71,0,1.14-1.14A2.82,2.82,0,0,0,195.76,37.16Z"/><path class="cls-2" d="M289.09,41.13c.28-.57,0-1.13-.86-1.7l-.85.85c-.29.57,0,1.13.85,1.7C288.52,42,288.8,41.41,289.09,41.13Z"/><path class="cls-2" d="M260.92,43.68l.85.86c.85-.57,1.14-1.14.85-1.71l-.85-.85C260.92,42.55,260.63,43.12,260.92,43.68Z"/><path class="cls-2" d="M117.8,43.68c.28-.56,0-1.13-.86-1.7l-.85.85c-.28.57,0,1.14.85,1.71Z"/><path class="cls-2" d="M111.25,42.55l-.85.85c.57.85,1.14,1.14,1.71.85l.85-.85C112.39,42.55,111.82,42.27,111.25,42.55Z"/><path class="cls-2" d="M124.34,45.1l-.85.85c.57.85,1.14,1.14,1.7.85l.86-.85C125.48,45.1,124.91,44.82,124.34,45.1Z"/><path class="cls-2" d="M303.31,49.07l.86.85c.85-.56,1.13-1.13.85-1.7l-.85-.85C303.31,47.94,303,48.51,303.31,49.07Z"/><path class="cls-2" d="M119.22,47.66l-.85.85c.56.85,1.13,1.13,1.7.85l.86-.85C120.36,47.66,119.79,47.37,119.22,47.66Z"/><path class="cls-2" d="M105.56,54.18l.86.85c.85-.57,1.13-1.13.85-1.7l-.85-.85C105.56,53,105.28,53.61,105.56,54.18Z"/><path class="cls-2" d="M378.71,55.88l-.85-.85c-.85.57-1.14,1.14-.85,1.7l.85.85A1.18,1.18,0,0,0,378.71,55.88Z"/><path class="cls-2" d="M113.81,57.3c.57.28,1.14,0,1.71-.85l-.85-.85c-.57-.29-1.14,0-1.71.85Z"/><path class="cls-2" d="M391.52,60.7c-.57-.28-1.14,0-1.71.85l.86.86c.56.28,1.13,0,1.7-.86Z"/><path class="cls-2" d="M123.49,63c-.29-2-.86-2.55-1.71-2.27a1.78,1.78,0,0,0-.85,2.27Z"/><path class="cls-2" d="M306.16,65.24c.57.29,1.14,0,1.7-.85,0,0-.56-.57-.85-.85-.57-.28-1.14,0-1.71.85Z"/><path class="cls-2" d="M448.71,71.2l-.85.85c.56.85,1.13,1.13,1.7.85l.86-.85C449.85,71.2,449.28,70.92,448.71,71.2Z"/><path class="cls-2" d="M106.13,71.2s-.85.57-.85.85c.28.57.57,1.42,1.14,1.42,1.13.57,1.7,0,1.13-1.14C107.55,71.77,106.7,71.48,106.13,71.2Z"/><path class="cls-2" d="M431.07,75.74l.85-.85c-.57-.85-1.14-1.14-1.71-.85l-.85.85C429.93,75.74,430.5,76,431.07,75.74Z"/><path class="cls-2" d="M370.75,74.32l-.86-.85c-.85.57-1.13,1.13-.85,1.7l.85.85A1.26,1.26,0,0,0,370.75,74.32Z"/><path class="cls-2" d="M339.16,74.32l-.85-.85c-.85.57-1.14,1.13-.85,1.7l.85.85A1.26,1.26,0,0,0,339.16,74.32Z"/><path class="cls-2" d="M419.12,77.16c-.29.56,0,1.13.85,1.7l.86-.85c.28-.57,0-1.14-.86-1.7C420,76,419.4,76.87,419.12,77.16Z"/><path class="cls-2" d="M87.92,84c-.85.57-1.14,1.14-.85,1.71l.85.85c.85-.57,1.14-1.14.85-1.7Z"/><path class="cls-2" d="M404.32,86.8c-.85.57-1.14,1.14-.85,1.7.28.29.85.85.85.85.86-.56,1.14-1.13.86-1.7S404.61,87.08,404.32,86.8Z"/><path class="cls-2" d="M386.11,87.08c-.57-.28-1.14,0-1.71.86l.86.85c.57.28,1.14,0,1.71-.85Z"/><path class="cls-2" d="M436.76,91.06c.28-.57,0-1.14-.85-1.71l-.86.85c-.28.57,0,1.14.86,1.71Z"/><path class="cls-2" d="M410.3,90.2l-.86-.85c-.85.57-1.13,1.14-.85,1.71.29.28.85.85.85.85C410.3,91.34,410.58,90.77,410.3,90.2Z"/><path class="cls-2" d="M371.32,90.49c.57.85,1.13,1.13,1.7.85l.86-.85c-.57-.85-1.14-1.14-1.71-.85Z"/><path class="cls-2" d="M95.6,89.64s-.85.56-.85.85c.28.57.57,1.42,1.14,1.42,1.14.56,1.7,0,1.14-1.14A2.83,2.83,0,0,0,95.6,89.64Z"/><path class="cls-2" d="M407.17,102.12c.28-.29.85-.85.85-.85-.57-.85-1.14-1.14-1.71-.85l-.85.85C406,102.12,406.6,102.4,407.17,102.12Z"/><path class="cls-2" d="M406,106.94l.85.85c.86-.57,1.14-1.13.86-1.7l-.86-.85A1.18,1.18,0,0,0,406,106.94Z"/><path class="cls-2" d="M416,114c0,.29.28.57.85.85a1,1,0,0,0,.86.29c.85-.57,1.13-1.14.56-1.71s-1.13-1.13-2-.56A1.71,1.71,0,0,0,416,114Z"/><path class="cls-2" d="M35.57,115.17c.28-.29.85-.85.85-.85-.57-.86-1.14-1.14-1.71-.86l-.85.86C34.43,115.17,35,115.45,35.57,115.17Z"/><path class="cls-2" d="M444.16,120.27l.85-.85c-.57-.85-1.14-1.13-1.71-.85l-.85.85C443,120.27,443.59,120.56,444.16,120.27Z"/><path class="cls-2" d="M38.41,121.12c-.57-.28-1.14,0-1.71.85l.86.86c.57.28,1.14,0,1.71-.86A2.13,2.13,0,0,1,38.41,121.12Z"/><path class="cls-2" d="M480.29,125.66c.57.29,1.14,0,1.71-.85l-.85-.85c-.57-.28-1.14,0-1.71.85Z"/><path class="cls-2" d="M418.26,125.1c.29-.57,0-1.14-.85-1.71l-.85.85c-.29.57,0,1.14.85,1.71Z"/><path class="cls-2" d="M55.48,105c.57.85,1.14,1.13,1.71.85L58,105c-.56-.86-1.13-1.14-1.7-.86Z"/><path class="cls-2" d="M26.46,127.93l.86.85c.85-.56,1.13-1.13.85-1.7-.29-.28-.85-.85-.85-.85A1.26,1.26,0,0,0,26.46,127.93Z"/><path class="cls-2" d="M63.45,130.49l.85.85c.86-.57,1.14-1.14.86-1.71l-.86-.85C63.45,129.35,63.17,129.92,63.45,130.49Z"/><path class="cls-2" d="M413.43,137.86c0,.28.28.57.85.85a1.06,1.06,0,0,0,.85.28c.86-.56,1.14-1.13.57-1.7s-1.13-1.13-2-.56C413.43,136.73,413.43,137.29,413.43,137.86Z"/><path class="cls-2" d="M431.35,154c.29-.57,0-1.14-.85-1.7l-.85.85c-.29.56,0,1.13.85,1.7C430.78,154.88,431.07,154.31,431.35,154Z"/><path class="cls-2" d="M449.56,157.15l.86-.85c-.57-.85-1.14-1.14-1.71-.85l-.85.85A1.26,1.26,0,0,0,449.56,157.15Z"/><path class="cls-2" d="M446.72,160.55c-.57-.28-1.14,0-1.71.85l.85.86c.57.28,1.14,0,1.71-.86C447.86,161.4,447,160.84,446.72,160.55Z"/><path class="cls-2" d="M40.12,163.39c-.29.28-.85.85-.85.85.56.85,1.13,1.14,1.7.85l.86-.85C41.26,163.39,40.69,163.11,40.12,163.39Z"/><path class="cls-2" d="M42.68,168.5l-.85.85c.57.85,1.13,1.13,1.7.85l.86-.85C43.82,168.5,43.25,168.21,42.68,168.5Z"/><path class="cls-2" d="M424.52,171.62c-.28.56,0,1.13.86,1.7l.85-.85c.29-.57,0-1.14-.85-1.71C425.09,170.76,424.81,171.33,424.52,171.62Z"/><path class="cls-2" d="M478.87,180.41c.28-.57,0-1.14-.85-1.7l-.86.85c-.28.57,0,1.13.86,1.7Z"/><path class="cls-2" d="M34.43,187.5c-.29.57,0,1.14.85,1.7l.86-.85c.28-.56,0-1.13-.86-1.7C35,186.37,34.71,187.22,34.43,187.5Z"/><path class="cls-2" d="M445,200.83c.57.85,1.14,1.14,1.71.85l.85-.85c-.57-.85-1.14-1.13-1.71-.85C445.58,200.27,445.3,200.55,445,200.83Z"/><path class="cls-2" d="M440.17,206.79l.86.85c.85-.57,1.14-1.13.85-1.7l-.85-.85A1.19,1.19,0,0,0,440.17,206.79Z"/><path class="cls-2" d="M448.14,214.45l.85.85c.86-.57,1.14-1.14.86-1.7l-.86-.85C448.14,213.31,447.86,213.88,448.14,214.45Z"/><path class="cls-2" d="M456.11,225l.85.85c.86-.57,1.14-1.14.86-1.71l-.86-.85C456.11,223.81,455.82,224.38,456.11,225Z"/><path class="cls-2" d="M34.43,224.09c-.29.57,0,1.14.85,1.71l.86-.85c.28-.57,0-1.14-.86-1.71C35,223.24,34.71,223.81,34.43,224.09Z"/><path class="cls-2" d="M28.17,225c.28-.57,0-1.14-.85-1.71l-.86.85c-.28.57,0,1.14.86,1.71C27.6,225.8,27.88,225.23,28.17,225Z"/><path class="cls-2" d="M447.29,230.33c.28-.56,0-1.13-.86-1.7l-.85.85c-.28.57,0,1.14.85,1.7Z"/><path class="cls-2" d="M14.51,228.92c-.57-.29-1.14,0-1.71.85l.86.85c.57.28,1.14,0,1.7-.85C15.36,229.77,14.8,229.2,14.51,228.92Z"/><path class="cls-2" d="M441,233.74c.28,0,.57-.28.85-.85a1,1,0,0,0,.29-.85c-.57-.86-1.14-1.14-1.71-.57s-1.14,1.13-.57,2C439.89,234,440.74,234,441,233.74Z"/><path class="cls-2" d="M472.61,233.74c-.85.57-1.14,1.13-.85,1.7l.85.85c.85-.57,1.14-1.13.85-1.7C473.46,234.31,473.18,234,472.61,233.74Z"/><path class="cls-2" d="M437.33,235.44s.57.85.85.85a2.89,2.89,0,0,0,1.43-1.13c.56-1.14,0-1.71-1.14-1.14C438.18,234,437.9,234.87,437.33,235.44Z"/><path class="cls-2" d="M446.15,270.61c.28,0,.57-.28.85-.85a1,1,0,0,0,.29-.85c-.57-.85-1.14-1.13-1.71-.56s-1.14,1.13-.57,2A1.74,1.74,0,0,0,446.15,270.61Z"/><path class="cls-2" d="M445,273.17v-2.56c-2,.29-2.28.57-2.56,2.56Z"/><path class="cls-2" d="M445,274.3c0,.29.29.57.85.85a1,1,0,0,0,.86.29c.85-.57,1.14-1.14.57-1.71s-1.14-1.13-2-.56A1.66,1.66,0,0,0,445,274.3Z"/><path class="cls-2" d="M469.77,278c.56.28,1.13,0,1.7-.85l-.85-.85c-.57-.29-1.14,0-1.71.85C468.91,277.42,469.48,277.71,469.77,278Z"/><path class="cls-2" d="M59.75,282.81c.29-.57,0-1.13-.85-1.7L58,282c-.28.57,0,1.14.86,1.7C59.18,283.66,59.47,283.1,59.75,282.81Z"/><path class="cls-2" d="M62.88,286.22h2.56c-.28-2-.85-2.56-1.7-2.27A1.89,1.89,0,0,0,62.88,286.22Z"/><path class="cls-2" d="M60.61,287.92s.56.85.85.85c.57-.29,1.42-.57,1.42-1.14.57-1.13,0-1.7-1.14-1.13A2.77,2.77,0,0,0,60.61,287.92Z"/><path class="cls-2" d="M60.61,293.31l.85.85c.85-.57,1.14-1.14.85-1.7l-.85-.85C60.61,292.17,60.32,292.74,60.61,293.31Z"/><path class="cls-2" d="M448.14,295.86l.85.85c.86-.57,1.14-1.13.86-1.7l-.86-.85C448.14,294.73,447.86,295.29,448.14,295.86Z"/><path class="cls-2" d="M63.17,298.41s.57.85.85.85c.57-.28,1.42-.56,1.42-1.13.57-1.14,0-1.7-1.14-1.14A2.91,2.91,0,0,0,63.17,298.41Z"/><path class="cls-2" d="M452.12,304.37l.86-.85c-.57-.85-1.14-1.13-1.71-.85l-.85.85C451,304.37,451.55,304.65,452.12,304.37Z"/><path class="cls-2" d="M445.58,310.89c-.28.57,0,1.14.85,1.71l.86-.86c.28-.56,0-1.13-.86-1.7C446.15,310,445.86,310.61,445.58,310.89Z"/><path class="cls-2" d="M436.76,316l-.85-.85c-.86.57-1.14,1.13-.86,1.7l.86.85A1.19,1.19,0,0,0,436.76,316Z"/><path class="cls-2" d="M448.71,322.81c.57.28,1.14,0,1.71-.85l-.86-.85c-.57-.29-1.14,0-1.7.85C447.57,322,448.42,322.52,448.71,322.81Z"/><path class="cls-2" d="M76.25,322s.57.85.86.85a2.84,2.84,0,0,0,1.42-1.14c.57-1.13,0-1.7-1.14-1.13C77.11,320.82,76.82,321.39,76.25,322Z"/><path class="cls-2" d="M50.08,326.78c-.29.57,0,1.13.85,1.7l.85-.85c.29-.57,0-1.13-.85-1.7C50.93,325.64,50.36,326.21,50.08,326.78Z"/><path class="cls-2" d="M44.1,327.63c.29-.57,0-1.13-.85-1.7l-.85.85c-.29.57,0,1.13.85,1.7Z"/><path class="cls-2" d="M70.28,335.29c.28-.57,0-1.14-.85-1.7l-.86.85c-.28.57,0,1.13.86,1.7C69.71,336.42,70,335.57,70.28,335.29Z"/><path class="cls-2" d="M440.74,338.41c.57.28,1.14,0,1.71-.85l-.85-.85c-.57-.29-1.14,0-1.71.85C439.89,337.84,440.46,338.13,440.74,338.41Z"/><path class="cls-2" d="M76.54,338.13l.85.85c.86-.57,1.14-1.14.86-1.71l-.86-.85A1.27,1.27,0,0,0,76.54,338.13Z"/><path class="cls-2" d="M94.75,353.73s.57.85.85.85c.57-.28,1.43-.57,1.43-1.14.56-1.13,0-1.7-1.14-1.13C95.6,352.31,95,353.16,94.75,353.73Z"/><path class="cls-2" d="M75.12,354.3l.85-.86c-.57-.85-1.14-1.13-1.71-.85l-.85.85C74,354.3,74.55,354.58,75.12,354.3Z"/><path class="cls-2" d="M84.51,358.27c-.29.56,0,1.13.85,1.7l.85-.85c.29-.57,0-1.14-.85-1.7C85.08,357.42,84.79,358,84.51,358.27Z"/><path class="cls-2" d="M51.5,359.4l.85-.85c-.57-.85-1.13-1.13-1.7-.85l-.86.85C50.36,359.4,50.93,359.68,51.5,359.4Z"/><path class="cls-2" d="M94.47,362.52H91.9c.29,2,.86,2.55,1.71,2.27A1.79,1.79,0,0,0,94.47,362.52Z"/><path class="cls-2" d="M85.64,364.79l.86-.85c-.57-.85-1.14-1.14-1.71-.85l-.85.85C84.51,364.79,85.08,365.07,85.64,364.79Z"/><path class="cls-2" d="M418.83,371.88c.57.85,1.14,1.14,1.71.85l.85-.85c-.56-.85-1.13-1.13-1.7-.85C419.4,371,419.12,371.6,418.83,371.88Z"/><path class="cls-2" d="M428.51,377.84l.85-.85c-.57-.85-1.14-1.14-1.71-.85l-.85.85A1.27,1.27,0,0,0,428.51,377.84Z"/><path class="cls-2" d="M416.27,382.66s.57.85.86.85c.57-.28,1.42-.56,1.42-1.13.57-1.14,0-1.7-1.14-1.14C417.13,381.24,416.56,382.09,416.27,382.66Z"/><path class="cls-2" d="M116.66,386.07c.28,0,.57-.29.85-.86a1,1,0,0,0,.29-.85c-.57-.85-1.14-1.13-1.71-.56s-1.14,1.13-.57,2A.71.71,0,0,0,116.66,386.07Z"/><path class="cls-2" d="M406.31,388.33c.57.29,1.14,0,1.71-.85,0,0-.57-.56-.85-.85-.57-.28-1.14,0-1.71.85C405.46,387.77,406,388.05,406.31,388.33Z"/><path class="cls-2" d="M113.24,387.77s.57.85.86.85a2.84,2.84,0,0,0,1.42-1.14c.57-1.13,0-1.7-1.14-1.13A2.84,2.84,0,0,0,113.24,387.77Z"/><path class="cls-2" d="M400.62,389.75c-.28.57,0,1.14.86,1.7l.85-.85c.28-.56,0-1.13-.85-1.7Z"/><path class="cls-2" d="M116.37,404.22c.57.28,1.14,0,1.71-.85l-.85-.85c-.57-.29-1.14,0-1.71.85Z"/><path class="cls-2" d="M377.58,404.79s-.86.56-.86.85c.29.56.57,1.42,1.14,1.42,1.14.56,1.71,0,1.14-1.14C379,405.64,378.14,405.07,377.58,404.79Z"/><path class="cls-2" d="M381.84,409.89c-.28-2-.57-2.27-2.56-2.55C379.57,409.33,379.85,409.61,381.84,409.89Z"/><path class="cls-2" d="M381.84,411c0,.28.29.57.86.85a1,1,0,0,0,.85.28c.85-.56,1.14-1.13.57-1.7s-1.14-1.13-2-.57C381.84,409.89,381.84,410.74,381.84,411Z"/><path class="cls-2" d="M371.32,411c0,.28.28.57.85.85a1,1,0,0,0,.85.28c.86-.56,1.14-1.13.57-1.7s-1.14-1.13-2-.57C371,409.89,371.32,410.74,371.32,411Z"/><path class="cls-2" d="M99,418.12c-.57-.29-1.14,0-1.71.85l.85.85c.57.29,1.14,0,1.71-.85Z"/><path class="cls-2" d="M88.77,424.64c.29-.56,0-1.13-.85-1.7l-.85.85c-.29.57,0,1.14.85,1.7C88.21,425.49,88.49,424.93,88.77,424.64Z"/><path class="cls-2" d="M373.59,430c.29-.57,0-1.13-.85-1.7l-.85.85c-.29.57,0,1.14.85,1.7C372.74,430.88,373.31,430.32,373.59,430Z"/><path class="cls-2" d="M186.65,429.47c.57.85,1.14,1.13,1.71.85l.85-.85c-.56-.86-1.13-1.14-1.7-.86C187.22,428.9,187.22,429.18,186.65,429.47Z"/><path class="cls-2" d="M118.65,430l.85.85c.86-.56,1.14-1.13.86-1.7l-.86-.85C118.65,428.9,118.37,429.47,118.65,430Z"/><path class="cls-2" d="M95.32,435.71c.57.28,1.14,0,1.71-.85l-.86-.86c-.57-.28-1.14,0-1.7.86Z"/><path class="cls-2" d="M324.65,436.56l-.85.85c.57.85,1.14,1.13,1.71.85l.85-.85C325.79,436.56,325.22,436.27,324.65,436.56Z"/><path class="cls-2" d="M118.65,437.13c-.28.56,0,1.13.85,1.7l.86-.85c.28-.57,0-1.14-.86-1.71C119.5,436,118.93,436.84,118.65,437.13Z"/><path class="cls-2" d="M298.76,441.38c.29,0,.57-.28.85-.85a1,1,0,0,0,.29-.85c-.57-.85-1.14-1.14-1.71-.57s-1.14,1.13-.57,2C297.62,441.38,298.19,441.38,298.76,441.38Z"/><path class="cls-2" d="M295.06,443.08s.57.85.86.85a2.91,2.91,0,0,0,1.42-1.13c.57-1.14,0-1.7-1.14-1.14C295.92,441.66,295.35,442.51,295.06,443.08Z"/><path class="cls-2" d="M198.32,441.66s-.85.57-.85.85a2.82,2.82,0,0,0,1.13,1.42c1.14.57,1.71,0,1.14-1.13C199.74,442.23,198.89,442,198.32,441.66Z"/><path class="cls-2" d="M122.63,442c-.56-.29-1.13,0-1.7.85l.85.85c.57.28,1.14,0,1.71-.85C123.49,442.51,122.92,442.23,122.63,442Z"/><path class="cls-2" d="M129.18,444.78c-.29.57,0,1.14.85,1.7l.85-.85c.29-.56,0-1.13-.85-1.7Z"/><path class="cls-2" d="M94.18,444.78l-.85-.85c-.86.57-1.14,1.14-.86,1.7l.86.85A1.26,1.26,0,0,0,94.18,444.78Z"/><path class="cls-2" d="M109.83,447.62l-.85-.85c-.86.57-1.14,1.13-.86,1.7l.86.85C109.83,448.76,110.11,448.19,109.83,447.62Z"/><path class="cls-2" d="M238.15,451.88c.29,0,.57-.29.86-.86a1,1,0,0,0,.28-.85c-.57-.85-1.14-1.13-1.7-.56s-1.14,1.13-.57,2C237,451.88,237.59,451.88,238.15,451.88Z"/><path class="cls-2" d="M83.65,451c.29-.56,0-1.13-.85-1.7l-.85.85c-.29.57,0,1.14.85,1.71Z"/><path class="cls-2" d="M102.15,453.58c.28-.57,0-1.14-.86-1.7l-.85.85c-.28.56,0,1.13.85,1.7A2.13,2.13,0,0,1,102.15,453.58Z"/><path class="cls-2" d="M75.69,453.58c.28-.57,0-1.14-.86-1.7l-.85.85c-.29.56,0,1.13.85,1.7Z"/><path class="cls-2" d="M202.3,456.13c.29-.57,0-1.14-.85-1.7l-.85.85c-.29.57,0,1.13.85,1.7C201.45,457.27,201.73,456.7,202.3,456.13Z"/><path class="cls-2" d="M220.23,457.55c-.57-.28-1.14,0-1.71.85l.86.85c.56.28,1.13,0,1.7-.85Z"/><path class="cls-2" d="M150.8,460.61c.57.85,1.14,1.14,1.71.85l.85-.85c-.57-.85-1.14-1.13-1.71-.85C151.37,460,151.37,460.33,150.8,460.61Z"/><path class="cls-2" d="M119.22,467.19c.57.29,1.14,0,1.71-.85l-.86-.85c-.57-.28-1.14,0-1.7.85C118.37,466.34,118.93,466.91,119.22,467.19Z"/><path class="cls-2" d="M95.6,465.21s-.85.56-.85.85a2.83,2.83,0,0,0,1.14,1.42c1.14.56,1.7,0,1.14-1.14A6.36,6.36,0,0,0,95.6,465.21Z"/><path class="cls-2" d="M353.34,436.27c.29-.56,0-1.13-.85-1.7l-.85.85c-.29.57,0,1.14.85,1.7C352.49,437.12,353.06,436.56,353.34,436.27Z"/><path class="cls-2" d="M239.86,469.46l.85.85c.86-.56,1.14-1.13.86-1.7l-.86-.85C239.86,468.33,239.58,468.89,239.86,469.46Z"/><path class="cls-2" d="M97.31,468.89c0,.29.29.57.85.86A1.07,1.07,0,0,0,99,470c.85-.57,1.14-1.14.57-1.7s-1.14-1.14-2-.57C97,467.76,97,468.33,97.31,468.89Z"/><path class="cls-2" d="M165.73,436.7l.85-.85c-.57-.85-1.14-1.14-1.71-.85l-.85.85C164.59,436.7,165.16,437,165.73,436.7Z"/><path class="cls-2" d="M107.27,479.11l-.85-.85c-.86.56-1.14,1.13-.86,1.7l.86.85C107.27,480.24,107.55,479.67,107.27,479.11Z"/><path class="cls-2" d="M97.59,482.51l.86.85c.85-.57,1.14-1.13.85-1.7l-.85-.85C97.59,481.38,97.31,481.94,97.59,482.51Z"/><path class="cls-2" d="M174.83,449.46l.85.85c.86-.56,1.14-1.13.86-1.7l-.86-.85A1.26,1.26,0,0,0,174.83,449.46Z"/><path class="cls-2" d="M164.3,451.17c-.28.56,0,1.13.86,1.7L166,452c.28-.57,0-1.14-.85-1.71Z"/><path class="cls-2" d="M336,462.31c-.57-.28-1.13,0-1.7.85l.85.86c.57.28,1.14,0,1.71-.86Z"/><path class="cls-2" d="M170.44,465.72c.28-.57,0-1.14-.86-1.7l-.85.85c-.29.56,0,1.13.85,1.7Z"/><path class="cls-2" d="M221.94,506.43c.57.29,1.13,0,1.7-.85l-.85-.85c-.57-.28-1.14,0-1.71.85C221.08,505.87,221.65,506.15,221.94,506.43Z"/><path class="cls-2" d="M189.78,506.15l.86.85c.85-.57,1.14-1.14.85-1.7l-.85-.85C189.78,505,189.5,505.58,189.78,506.15Z"/><path class="cls-2" d="M200.31,479.05l.85.85c.86-.57,1.14-1.13.86-1.7l-.86-.85C200,477.63,200,478.2,200.31,479.05Z"/><path class="cls-2" d="M288.8,476.27l.85-.85c-.56-.85-1.13-1.14-1.7-.85l-.86.85A1.2,1.2,0,0,0,288.8,476.27Z"/><path class="cls-2" d="M287.38,482.79c-.29.57,0,1.14.85,1.71l.86-.86c.28-.56,0-1.13-.86-1.7Z"/><path class="cls-2" d="M280.83,486.77l.86-.86c-.57-.85-1.14-1.13-1.71-.85l-.85.85C279.7,486.77,280.27,487.05,280.83,486.77Z"/><path class="cls-2" d="M412.29,413l.85-.85c-.57-.85-1.13-1.13-1.7-.85l-.86.85A1.2,1.2,0,0,0,412.29,413Z"/><path class="cls-2" d="M256.65,472.3c-.57-.28-1.14,0-1.71.85l.86.85c.56.28,1.13,0,1.7-.85C257.79,473.15,256.93,472.58,256.65,472.3Z"/><path class="cls-2" d="M208,493c-.28.57,0,1.13.86,1.7l.85-.85c.29-.57,0-1.13-.85-1.7C208.85,491.81,208.28,492.67,208,493Z"/><path class="cls-2" d="M225.07,486.2l.85.85c.85-.57,1.14-1.14.85-1.7-.28-.29-.85-.85-.85-.85C224.78,484.78,224.78,485.35,225.07,486.2Z"/><path class="cls-2" d="M222.79,471.73l.85.85c.86-.56,1.14-1.13.86-1.7l-.86-.85C222.79,470.6,222.51,471.16,222.79,471.73Z"/><path class="cls-2" d="M365.06,443.36c.28-.56,0-1.13-.86-1.7l-.85.85c-.28.57,0,1.14.85,1.71Z"/><path class="cls-2" d="M165.16,442.37c.28,0,.57-.28.85-.85a1,1,0,0,0,.28-.85c-.56-.85-1.13-1.13-1.7-.57s-1.14,1.14-.57,2C164,442.37,164.87,442.37,165.16,442.37Z"/></g></svg>