<svg id="Layer_1" data-name="Layer 1" xmlns="http://www.w3.org/2000/svg" viewBox="0 0 122.06 4.65"><defs><style>.cls-1{fill:#feefd3;}</style></defs><path class="cls-1" d="M82.38.76c0-.34-.09-.42-.7-.43-.1,0-.26,0-.36,0-1.59,0-3.19,0-4.78-.07H72.28c-.88,0-1.76,0-2.63,0L65.36.08a7,7,0,0,0-1.64,0c-3.47.15-30,.84-33.46,1.05-1.66.06-3.25.07-5,.07S22.18.05,20.54,0C19.41,0,18.17,1.12,17,1.17c-.52,0-1.05.13-1.58.19A22.59,22.59,0,0,1,12,1.62a25.33,25.33,0,0,0-4.78.28,5.66,5.66,0,0,1-1.48,0A5.9,5.9,0,0,0,4,1.77c-.89.1-1.88.13-2.78.29a2.64,2.64,0,0,0-.86.28C0,2.56-.06,2.26,0,2.62s.44.44.82.63a3.41,3.41,0,0,0,1.3.21c1,0,2,0,2.93,0,1.18,0,2.4.09,3.58.11a17,17,0,0,1,1.75,0,26.32,26.32,0,0,0,4.78,0c1.19-.05,2.4-.2,3.58-.19,3.34.06,6.71.18,10.09.3a21.38,21.38,0,0,0,2.88,0c1.37-.24,2.71.84,4.14.9,1.94.06,7.62-2.1,9.56-2,1,0,21.34.76,22.26.78.76,0,1.54,0,2.3.07s1.23,1.11,1.85,1.07c1.09-.06,2.24-1.2,3.33-1.27a41.48,41.48,0,0,1,5.36.25.87.87,0,0,0,.59-.11,4.56,4.56,0,0,0,.75-.83c.21-.7.33-.91.5-1.62h0Z"/><path class="cls-1" d="M88.3,1.37C88,1,88,1,88.22.94c0,0,.1,0,.12,0,.59-.07,1.22-.08,1.81-.14S91.24.72,91.8.69c.33,0,.71,0,1,0L94.36.42A1,1,0,0,1,95,.34c1.47.09,12.36.31,13.88.45.7,0,1.33,0,2,0s.31.11.91,0c.44,0,1.84-.19,2.33-.16a4.24,4.24,0,0,1,.77.16A5.86,5.86,0,0,0,116.4,1a5.28,5.28,0,0,1,2.09.19.85.85,0,0,0,.56-.05c.17-.06.24-.23.56-.14s.84.1,1.32.24a2.48,2.48,0,0,1,.57.25c.31.21.1-.08.36.27a.67.67,0,0,1,.2.62.29.29,0,0,1-.34.22,7.72,7.72,0,0,0-1.11.08c-.45,0-.86.13-1.31.16a2.84,2.84,0,0,0-.67,0,4,4,0,0,1-1.85.09,14.29,14.29,0,0,0-1.54-.11c-1.26.1-2.47.28-3.69.45a3,3,0,0,1-1.1.06,12.59,12.59,0,0,0-3.25,0c-.71.09-4.31-.14-5,0-.35.05-5.68.28-6,.31s-.58.06-.84.11-.73.56-1,.52c-.48,0-.69-.58-1.17-.62A5.12,5.12,0,0,0,91.3,4s-.19,0-.31-.1c-.35-.26-.7-.53-1-.77-.66-.68-.89-.88-1.54-1.56h0Z"/></svg>