<svg id="Layer_1" data-name="Layer 1" xmlns="http://www.w3.org/2000/svg" viewBox="0 0 285 87"><defs><style>.cls-1{fill:#faefe6;}</style></defs><path class="cls-1" d="M13.13,85.66c-.15-.47-.77-.25-.46-.66.58-.77-.77-.31-.24-1,.25-.34,1.42.7,1.7,1s.33.19.74.3c.8.2,1.25.33,1-1.32-.08-.26.34.38.64.31a1.54,1.54,0,0,0,1-.67c.31-.42.25-.75-.54-.92a.64.64,0,0,0-.49.06,1.77,1.77,0,0,0-.63.58,1.13,1.13,0,0,0-.08.22,1.34,1.34,0,0,1-.56.8,1.49,1.49,0,0,1-2-.81,3.59,3.59,0,0,1-.21-.74,1.06,1.06,0,0,1,0-.56A1.89,1.89,0,0,1,14,81.33a22.08,22.08,0,0,1,3-.73c1-.18,2.21.63,3.18.88a.84.84,0,0,0,.47,0c1.23-.36,1.36-1.95,2.63-2.23a2.51,2.51,0,0,0,1.56-1c.17-.24.33-.49.5-.75A4,4,0,0,0,25.89,74c-.14-.43-.27-.86-.41-1.28a3.14,3.14,0,0,1,.17-2.63,6.39,6.39,0,0,1,.69-.95c.79-.88,2.47-1,2.82.08,0,.13.08.26.11.39a4.78,4.78,0,0,1-.48,3.49l-.11.16a1.58,1.58,0,0,0-.14,1.32A2.24,2.24,0,0,0,29.87,76c1.31.54,2.57,1.13,3.86,1.68.94.4,2.72.18,2.45-.66-.63-2.73-1.5-5.4-2.36-8.08-.15-.45.9-.51,1.4-.3a17.61,17.61,0,0,0,1.93.71c.42.19.88.25,1.16.57a1.73,1.73,0,0,0,.9.5c.61.15.92-.18,1-.91a1.13,1.13,0,0,1,.91-1,1.19,1.19,0,0,1,1.41.67c.15.48.31,1,.45,1.4.06.17.34.3.63.43s.57.25.75,0l0,0a2,2,0,0,0,.49-1.45,1.4,1.4,0,0,0-.65-1.21c-1.06-.61-2.7-1.06-1.82-1.84s2.31-.64,2.86-1.54a1.24,1.24,0,0,0,0-1,2.71,2.71,0,0,0-1.35-1.43c-.87-.49-1.27-1.57-.29-1.89l.51-.13a4.19,4.19,0,0,1,2.66.35l1.61.8c.8.38,1.5.89,1.6,1.65a3.33,3.33,0,0,0,.58,1.68,1.57,1.57,0,0,0,1.39.72.64.64,0,0,0,.29-.21,1.16,1.16,0,0,0,.22-1A3.5,3.5,0,0,1,53,62l.41-.6a4.27,4.27,0,0,1,2.2-1.79c1-.31,2-.5,3-.72a5.27,5.27,0,0,0,2.79-1.41,14.22,14.22,0,0,0,1.25-1.72,1.85,1.85,0,0,0,.3-.86c.1-1.21,1.62-1.84,3-1.31l.73.3A3.11,3.11,0,0,0,70.17,53l1.06-1.4a1.31,1.31,0,0,1,1-.67,1.75,1.75,0,0,1,.32,0,1.06,1.06,0,0,1,.81.88c0,.22,0,.49.09.71a.94.94,0,0,0,.24.51,1.14,1.14,0,0,0,1.68,0,1.83,1.83,0,0,0,.06-1.44l-.81-2.49c-.08-.26-.16-.51-.22-.77a2,2,0,0,1,.49-1.63c1-1.33,3.2-1.91,3.51-.36l.09.5A3.32,3.32,0,0,0,80,48.71a3.25,3.25,0,0,0,.45.25c2.07,1.07,4.31,1.91,6.6,2.93a4.37,4.37,0,0,0,.94.35,1.2,1.2,0,0,0,1.28-.81.94.94,0,0,0-.1-.78,2.06,2.06,0,0,1-.17-.33,1.33,1.33,0,0,0-.77-.77,5.57,5.57,0,0,1-2.14-1.48,5.4,5.4,0,0,0-1.93-1.74,3,3,0,0,1-1.14-.8,4.3,4.3,0,0,1-.79-2.3c-.05-.63-.29-1.67.45-1.83l3.57-.8a1.83,1.83,0,0,1,2.16,1,1.69,1.69,0,0,1,.07.38c.06.63.41.9,1.14,1.08.52.08.86-.38,1.38-1.07a1.3,1.3,0,0,1,1.46-.56c.56.25.73.79,1,1.3.42,1,1.72.57,2.46-.28a3.3,3.3,0,0,1,1.72-1L104,40.11c1-.22,2.2.58,3.17.82a3.7,3.7,0,0,0,2.75-.61,1.2,1.2,0,0,0,.51-.81c0-.41.2-1.17.64-1,1.43.63,2.81,1.09,4,1.78.45.2-.18.8-.67.91l-1.24.28a2.14,2.14,0,0,0-1.3.8c-.41.57-.48.79-.33,1.13s.3.65.48,1c.29.5.73.61,1.55.57a4.61,4.61,0,0,0,1-.17A2.72,2.72,0,0,0,116,44a1.17,1.17,0,0,0,.18-1.15l-.24-.73c-.18-.54.47-.76.83-1.24.22-.29.44-.59.69-.89a2.33,2.33,0,0,1,2.7-.51l.58.26a1.25,1.25,0,0,1,.67,1.88.93.93,0,0,0,.6,1.49,2.3,2.3,0,0,0,2.33-.85,9.38,9.38,0,0,1,1.89-1.66c.67-.42,1.66-.58,2-1.23a1.41,1.41,0,0,0,.13-.81c-.06-.41-.32-.71-.3-1.11,0-.85,1.28-1.27,2.26-1.49l4.47-1a1,1,0,0,1,1.24.61.46.46,0,0,1,0,.44,1.92,1.92,0,0,1-1.13.65l-1.28.29c-1.39.31-3,1.05-2.84,2.24a5.28,5.28,0,0,0,.53,1.52c.41.92,1.77,2.28,2,1.32a1,1,0,0,0,0-.24c0-.59-.35-1.07-.06-1.71a2.36,2.36,0,0,1,.19-.48,1,1,0,0,1,1.62-.38,8.69,8.69,0,0,1,.65,1.15c.77,1.28,1,1.24,2.59.88L140,40.9a3.35,3.35,0,0,0,2-1.2c1.43-1.66,2.12-1.81,4.3-1.15,1.19.31,2.35-.28,2-1.28l0-.12c-.34-1.07,0-1.53,1.32-2a2.57,2.57,0,0,1,2.87.51c.35.42.35.92.61,1.37a.8.8,0,0,0,.23.29,2.45,2.45,0,0,0,1.69.26l2.67-.6a2.28,2.28,0,0,0,1.3-.66c.74-.84,2.06-1.47,2.58-.52a3.51,3.51,0,0,0,1,1.37,2.33,2.33,0,0,0,1.75.07c.77-.17,1.64-.46,1.77-1.11,0,0,0-.09,0-.14.17-1.84,1.86-2.19,3.82-1.32l2.76,1.22a1.52,1.52,0,0,1,.86.9l.3.91c.15.49-.41,1-.83,1.32a5.91,5.91,0,0,1-1,.72c-.37.21-.26.55-.18.8a1.61,1.61,0,0,0,.5.76,1.07,1.07,0,0,0,1.45-.25,2,2,0,0,0,.2-.34,1,1,0,0,0,0-.55,4.5,4.5,0,0,0-.34-1.08c-.22-.53.4-.74.76-1.21A9.89,9.89,0,0,1,179,35.07l2.91-.64a2.29,2.29,0,0,1,1.13.1c.32.11.13.3,0,.56a2.52,2.52,0,0,1-.33.57,1.37,1.37,0,0,1-.64.31c-.83.28-1.87.36-2.87.59a2.74,2.74,0,0,0-.53.16c-.86.35-.64,1.29-.48,2.07.06.28.11.58.19.86.37,1.28,2.33,1.32,3.19.22.23-.3.43-.6.64-.91a2.75,2.75,0,0,1,3.22-.77h0a2.43,2.43,0,0,0,1.44.08,2.69,2.69,0,0,1,3.16,1.47c0,.1.07.2.1.29s.34.31.63.44.57.25.74,0l0,0a2,2,0,0,0,.48-1.45,1.38,1.38,0,0,0-.61-1.19c-1.05-.66-3-1.28-1.85-1.86.63-.3,1.31-.58,1.93-.93,1.57-.89,2.21-.8,4-1.21a2.43,2.43,0,0,1,2,.13,1.72,1.72,0,0,1,.92,2.09c-.57.94-1.28,1.82-1.94,2.72-.44.62-.28,1.81.58,1.78l.23,0,.66-.09c2.07-.36,3-2.55,5.12-2.75h.05c1,0,1.19.64,1.27,1.25a2.1,2.1,0,0,1-.32,1.37,1.7,1.7,0,0,0,.88,2.47l.05,0c1,.43,2.4.19,2.49-.73a9.65,9.65,0,0,0-.81-2.5c-.27-.84,1.57-1.13,2.5-.72l.95.42a2.73,2.73,0,0,1,1.37,1.37.54.54,0,0,1,0,.11,2.06,2.06,0,0,0,1,.81l.47.22c1,.49.5,1.9.26,2.86,0,.08,1.73,1.21,1.83.16-.06.59-.15-.19,0-.59.23-.82-.34-1.07-1.15-.51l0,0c-.65.49.88,1.74,1.23,1.07.69-.92.48-1.28.65-1.51l.76-1a2.09,2.09,0,0,1,2.25-.48,1.79,1.79,0,0,0,1.89-.42l.06,0c.57-.57,1.64-.81,2.08-.17a6.73,6.73,0,0,1,.67,2c-.82,2.81-.92,4-.18,4.34l.18.08c1.46.62,0,2.45,1.08,1.42a2.52,2.52,0,0,1,1.75-.73,2.15,2.15,0,0,1,1,.22l.08,0c1.15.51,3,.69,3.76-.18a2.87,2.87,0,0,1,1.27-.76c.78-.23,1.64-.42,2.24.31.92,1.32-.54,2.21,1.27,2a3.66,3.66,0,0,1,1.4,0c.52.14,1.47-1,1.61-.53.26.82.09.34-.54,1-.47.49-.55.7-1,1.18-.6.67,1.1.58,1.47,1.36l.09.19a2,2,0,0,0,.88.73c1.12.58,2.79.34,2.1,1.26l-1,1.37c-.18.23-.69.15-.92.2A1,1,0,0,0,239,55.56a4.91,4.91,0,0,0-1,0,4,4,0,0,0-1.8.37l0,0c-.52.35-.33,1,.27,1.23a2.5,2.5,0,0,0,1.36.05c.78-.13,1.6-.43,2.31-.59.06,1,.92,1.33,1.89,1.3,1.58,0,3.82-.31,4.23.95v0c.06.18.35.3.64.43s.57.25.74,0a1.07,1.07,0,0,1,.14-.16,1.49,1.49,0,0,0,.38-1.16,1.46,1.46,0,0,0-1.55-1.63c-.67-.06-1.79-.43-1.44-.9.4-.7.92-.62,1.42-1.23s1.68-1.05,2.18-.5a.92.92,0,0,1,.16.27,5.81,5.81,0,0,1,.71,1.61,1.76,1.76,0,0,0,.29.54c.42.54,1.28.18,1.74-.34a1.62,1.62,0,0,1,2.41-.24c.32.4.57.84.9,1.22.65.76,1.38,2,.84,2.79a1.13,1.13,0,0,0-.15,1c.15.48.31,1,.47,1.44a3.43,3.43,0,0,0,1.71,1.9,3.38,3.38,0,0,1,1.72,1.9c.68,2.08,1.35,4.17,2,6.25.17.54.63,1.2,1.32,1a2,2,0,0,0,.78-.78,1.13,1.13,0,0,0,.05-.75c0-.21-.08-.42-.1-.63-.08-.9,1.24-1.1,2.16-.61l.51.28a1.49,1.49,0,0,1,.68,2.06.84.84,0,0,0,.31,1.19c.84.35,1.89-.07,2.85,0s1.38.84,1.62,1.58c.11.36.23.73.35,1.11.24.73.57,1.47,1.47,1.4,1.44-.11,2.85-1.25,4.12-.68l.5.22a2.6,2.6,0,0,1,1.14.87,11.15,11.15,0,0,1,1.19,3.38,3,3,0,0,1-.37,2.56,1.09,1.09,0,0,0-.21,1.32ZM235.31,51.54c-1.05-.46-1.4.81-1.09,1.76.36,1.11.4.87.76,2,0,.08.16.15.33.2a1.48,1.48,0,0,0,1,.14c.69-.25.63-1.13.43-1.73-.42-1.29-.15-.68-.57-2C236.11,51.75,235.59,51.67,235.31,51.54ZM21.06,84.7c1.29.59,3.25.16,2.76-1a1.86,1.86,0,0,0-.28-.43,3.15,3.15,0,0,0-3-.53,2.26,2.26,0,0,0-.48.17C19.19,83.36,20.19,84.31,21.06,84.7ZM166.28,37.87c1.34-.21,1.88,1.48.6,1.86C165.45,40.15,164.78,38.09,166.28,37.87Zm-15,2.35c0,.29.4.49.69.65a.65.65,0,0,0,.4.13l2.07-.46c.23,0,.34-.46.51-.69s-.32-.76-.82-.87a2.81,2.81,0,0,0-2.73,1A.56.56,0,0,0,151.3,40.22Zm98.38,22.21a.55.55,0,0,0-.13.28.58.58,0,0,0,.33.49.89.89,0,0,0,1.14-.26.53.53,0,0,0,.12-.28.58.58,0,0,0-.33-.5A.88.88,0,0,0,249.68,62.43ZM129,44.06c.26-.32.07-.75-.35-.94a.77.77,0,0,0-.26-.07,1,1,0,0,0-.67.26c-.31.3-.1.73.31.91l.28.15C128.47,44.47,128.7,44.37,129,44.06Zm-39.8,1.5a.7.7,0,0,0,.28.19.88.88,0,0,0,1.14-.24.49.49,0,0,0,0-.56.7.7,0,0,0-.28-.19.87.87,0,0,0-1.14.24A.49.49,0,0,0,89.15,45.56ZM65.82,57.82a.7.7,0,0,0,.28.19.88.88,0,0,0,1.14-.24.49.49,0,0,0,0-.56A.72.72,0,0,0,67,57a.89.89,0,0,0-1.14.24A.51.51,0,0,0,65.82,57.82ZM47.74,66.89a.7.7,0,0,0-.28-.19.88.88,0,0,0-1.14.24.51.51,0,0,0,0,.56.7.7,0,0,0,.28.19.87.87,0,0,0,1.14-.24A.49.49,0,0,0,47.74,66.89ZM29,80.39a.52.52,0,0,0,.13-.28.59.59,0,0,0-.33-.49.88.88,0,0,0-1.14.27.5.5,0,0,0-.12.28.59.59,0,0,0,.33.49A.87.87,0,0,0,29,80.39Z"/><path class="cls-1" d="M36.5,59.7a1.87,1.87,0,0,1,2.47.79,5.4,5.4,0,0,1,.55,1.41A3.26,3.26,0,0,1,39,64.6l-.29.45a1.34,1.34,0,0,0-.1,1.09c.11.32.2.62.29.9a.88.88,0,0,1-.75,1.09,1.11,1.11,0,0,1-1.31-.63l-.65-2a2.78,2.78,0,0,1,.35-2.35,2.8,2.8,0,0,0,.34-2.36C36.74,60.44,36.63,60.09,36.5,59.7Z"/><path class="cls-1" d="M8.37,78.38c.31,1,.61,1.89.91,2.82a2,2,0,0,1-.67,2.24,1.64,1.64,0,0,1-1.73.41,1,1,0,0,1-.64-1.5,1,1,0,0,0-.51-1.48,1,1,0,0,1,.16-2h.18A10.25,10.25,0,0,0,8.37,78.38Z"/><path class="cls-1" d="M189,31.13c.49,1.52.56,3.56-1.33,3.75l-.16,0c-1.43.13-1.95.05-2.29-1-.45-1.38,1.6-2.28,3.26-2.64Z"/><path class="cls-1" d="M159.23,24.79a2,2,0,0,1,2.73-.16.62.62,0,0,1,.16.63,5,5,0,0,1-1.1,2,2,2,0,0,1-2.78.11.64.64,0,0,1-.15-.7A6.22,6.22,0,0,1,159.23,24.79Z"/><path class="cls-1" d="M138.82,36.47c-.22-.18-.41-.54-.24-.76l.89-1.19a2.41,2.41,0,0,1,2.75-.57,2.27,2.27,0,0,0,.71.13c.23,0,.45,0,.67,0,.5,0,.81,0,.9.2s-.12.71-.32,1a1.08,1.08,0,0,1-.57.33,11.39,11.39,0,0,1-4.45,1C139,36.54,138.94,36.56,138.82,36.47Z"/><path class="cls-1" d="M68.77,47a1.63,1.63,0,0,1,0,1.35,6.56,6.56,0,0,1-.73,1.1c-.72.91-2.54,1.44-2.82.37a1.61,1.61,0,0,1,.37-1.42,13.66,13.66,0,0,0,1-1.52c.8-1.32,1-1.37,1.78-.58A2,2,0,0,1,68.77,47Z"/><path class="cls-1" d="M65.84,44.57a1.58,1.58,0,0,1-1.39,1.84l-.63.14a2,2,0,0,1-1.09,0A1.74,1.74,0,0,1,61.49,45c-.11-1.12,0-1.53,1.38-1.84a2.68,2.68,0,0,1,1.61,0A1.91,1.91,0,0,1,65.84,44.57Z"/><path class="cls-1" d="M276,63.39a1.33,1.33,0,0,1-1,0,2.62,2.62,0,0,1-1-.78c-.89-1.24,1.55-1.76,3.08-1.08.86.38,1.15.51,1,.92a1.38,1.38,0,0,1-1.24.91A5.7,5.7,0,0,0,276,63.39Z"/><path class="cls-1" d="M259.88,55.88c.82-1,3.13-1.32,3-.13a.68.68,0,0,1,0,.19,2.65,2.65,0,0,1-2.1,1.66,1.91,1.91,0,0,1-.85,0C259.1,57.46,259.4,56.45,259.88,55.88Z"/><path class="cls-1" d="M203.61,35.87c-1,0-.28-1.27.71-1.5s.76.24,1.78,0a.83.83,0,0,1,.63.16c.47.27.84,1,.29,1.17C205.48,36.24,205.39,36.05,203.61,35.87Z"/><path class="cls-1" d="M146.73,33.43a2.27,2.27,0,0,1-3-1.33c0-.1,0-.19,0-.28a1,1,0,0,1,0-.3c.1-.68,1.44-.77,2.17-.44l.92.41c.66.29,1.13,1.18.57,1.59a3.09,3.09,0,0,1-.44.24Z"/><path class="cls-1" d="M126.79,30.85c1.43-.59,2.16,1.13,1.31,2.26a1.57,1.57,0,0,1-1.77.73,1,1,0,0,1-.52-.56,1.8,1.8,0,0,1,.79-2.34Z"/><path class="cls-1" d="M54.6,57.58c-1.58.33-1.56-1.48,0-1.93a6.09,6.09,0,0,1,1.35-.27c1.34-.09,1.81,1.32.54,1.69-.5.15-1.05.25-1.57.43Z"/><path class="cls-1" d="M42.07,48.85c-1.31-.64-1.69-2.71-.18-2.56H42A2.46,2.46,0,0,1,44,48a.78.78,0,0,1-.19.82A1.59,1.59,0,0,1,42.07,48.85Z"/><path class="cls-1" d="M23.34,63.15A2,2,0,0,1,22,63a2,2,0,0,1-.93-.87c-.56-1.2,1.53-1.65,2.88-1a2.88,2.88,0,0,0,.49.18c.61.2.87.48.77.84a1.43,1.43,0,0,1-1.42.93Z"/><path class="cls-1" d="M18.81,79.69c-.45.09-.69-.21-1-.48l-.07,0-1.26-.56c-.71-.31-1.12-1.17-.56-1.65a.65.65,0,0,1,.23-.13,6,6,0,0,1,1.25-.33,1.81,1.81,0,0,1,2,1l.32,1C19.88,79,19.41,79.58,18.81,79.69Z"/><path class="cls-1" d="M12.84,78.11a1.52,1.52,0,0,1-2.11.56,2.61,2.61,0,0,0-2.36-.29A1.32,1.32,0,0,1,8.56,77a3.15,3.15,0,0,1,2.79-.79,1.94,1.94,0,0,1,1.53,1.55A.68.68,0,0,1,12.84,78.11Z"/><path class="cls-1" d="M28.1,57.83c.33-.1,0-.13.27,0a2.6,2.6,0,0,1,1,.78c.89,1.24-.82,1.76-2.35,1.08-.86-.39-1.15-.51-1-.92a1.39,1.39,0,0,1,1.24-.91A4.63,4.63,0,0,0,28.1,57.83Z"/><path class="cls-1" d="M263.4,62.81c-.35-1.07.11-1.93.91-1.73s1.08.45,1.14,1.06a1.76,1.76,0,0,0,.07.4,1.13,1.13,0,0,1-.09,1,.7.7,0,0,1-.94.37c-.29-.13-.81-.21-.86-.39S263.45,63,263.4,62.81Z"/><path class="cls-1" d="M230.47,41.05a2.69,2.69,0,0,1,.44.9,1.16,1.16,0,0,1-.46,1.13c-.8.56-1.72,0-2.07-1.07,0,0,0-.09,0-.14a1.17,1.17,0,0,1,.19-1.08.82.82,0,0,1,.36-.3,1.31,1.31,0,0,1,1.05.18A1.6,1.6,0,0,1,230.47,41.05Z"/><path class="cls-1" d="M222.36,30c-1.16,0-.36-1.32.75-1.59.24-.05.48-.1.71-.13a2.08,2.08,0,0,1,.86,0l.22.08c.61.24.83.89.31,1.24a2.77,2.77,0,0,1-.9.35A7,7,0,0,1,222.36,30Z"/><path class="cls-1" d="M214.55,18.71a.52.52,0,0,1,0,.44,1.77,1.77,0,0,1-2.39.69,1.2,1.2,0,0,1-.46-.31c-.17-.23.05-.52.23-.75a1.77,1.77,0,0,1,2.2-.57A.79.79,0,0,1,214.55,18.71Z"/><path class="cls-1" d="M214.91,37.37c-1.37.31-2.46,0-2.18-.66a1.44,1.44,0,0,1,1.39-.93,4.63,4.63,0,0,0,.52-.07,2.33,2.33,0,0,1,1.31,0c.43.17.64.39.4.72s-.29.63-.52.69Z"/><path class="cls-1" d="M206.82,26.75c-.35-1.07.11-1.94.91-1.73s1.07.45,1.14,1.06a1.76,1.76,0,0,0,.07.4,1.14,1.14,0,0,1-.09,1,.7.7,0,0,1-.94.37c-.29-.13-.81-.21-.86-.39S206.93,27.11,206.82,26.75Z"/><path class="cls-1" d="M189,31.13c-.17-.52-.49-1.1-.65-1.67a1.41,1.41,0,0,1,.16-1.28A1,1,0,0,1,190,28a1.54,1.54,0,0,1,.5.76,3.43,3.43,0,0,1,0,1.53C190.4,30.82,189.77,31.15,189,31.13Z"/><path class="cls-1" d="M167.09,17.92a.9.9,0,0,1-.43-.5.45.45,0,0,1,0-.42,3,3,0,0,1,3.14-.69.5.5,0,0,1,.25.32.85.85,0,0,1-.07.66c-.1.17-.19.34-.34.37l-2.06.46A.88.88,0,0,1,167.09,17.92Z"/><path class="cls-1" d="M107.11,38.84c-1.19.26-2.6-.36-1.78-1.12l0,0a3.65,3.65,0,0,1,2.75-.61c1.19.3.32,1.45-.89,1.72Z"/><path class="cls-1" d="M51.07,47.55c-.47-1.06-2.62-.58-2.39.54S51.61,48.75,51.07,47.55Z"/><path class="cls-1" d="M36.5,59.7c-.71.16-1.52.45-2.3.59a2.54,2.54,0,0,1-1.37-.06c-.6-.25-.79-.87-.26-1.22a2.64,2.64,0,0,1,.89-.36,7.44,7.44,0,0,1,1.95,0A1,1,0,0,1,36.5,59.7Z"/><path class="cls-1" d="M22.36,75.27c-1.64.36-3.36-1.13-1.7-1.4a8.39,8.39,0,0,1,1.22-.08,1.54,1.54,0,0,1,.48,0l.33.18c.18.12.32.28.27.46a1.18,1.18,0,0,1-.23.54A.79.79,0,0,1,22.36,75.27Z"/><path class="cls-1" d="M12.88,66.63c0,1-1.78.25-2.07-.75a3,3,0,0,1-.08-.32,1.08,1.08,0,0,1,0-.71,1.22,1.22,0,0,1,.16-.26,1.07,1.07,0,0,1,1.45-.25,1.64,1.64,0,0,1,.5.76A3.59,3.59,0,0,1,12.88,66.63Z"/><path class="cls-1" d="M268.84,61.46a.79.79,0,0,1-.3-.08c-.42-.18-.63-.62-.31-.91a.91.91,0,0,1,.65-.26.79.79,0,0,1,.3.08c.42.18.63.62.31.91A.91.91,0,0,1,268.84,61.46Z"/><path class="cls-1" d="M283.58,61.37a1,1,0,0,1,.38-.29,1,1,0,0,1,.62,0,.56.56,0,0,1,.28.92.64.64,0,0,1-.21.19,1.05,1.05,0,0,1-.87,0c-.4-.15-.52-.49-.24-.77Z"/><path class="cls-1" d="M273.12,61a.79.79,0,0,1-.3-.08c-.41-.19-.62-.62-.31-.91a.92.92,0,0,1,.66-.26.79.79,0,0,1,.3.08c.41.18.62.62.31.91A1,1,0,0,1,273.12,61Z"/><path class="cls-1" d="M275.45,56a1.16,1.16,0,0,1,.41.09c.39.18.57.57.29.86a1,1,0,0,1-.65.29,1,1,0,0,1-.38-.1c-.42-.19-.72-.61-.39-.89A1.15,1.15,0,0,1,275.45,56Z"/><path class="cls-1" d="M24.35,51.83a4,4,0,0,1,.76.26c.12.16-.26.47-.36.68A.88.88,0,0,1,23.6,53a.7.7,0,0,1-.28-.19.51.51,0,0,1,0-.56A.81.81,0,0,1,24.35,51.83Z"/><path class="cls-1" d="M282.93,66.59a.72.72,0,0,1-.28-.2.49.49,0,0,1,0-.56.88.88,0,0,1,1.14-.24.7.7,0,0,1,.28.19.53.53,0,0,1,0,.57A.89.89,0,0,1,282.93,66.59Z"/><path class="cls-1" d="M97.16,34.83a.6.6,0,0,1-.13.28.87.87,0,0,1-1.13.27.58.58,0,0,1-.34-.49.6.6,0,0,1,.13-.28.88.88,0,0,1,1.14-.27A.59.59,0,0,1,97.16,34.83Z"/><path class="cls-1" d="M195.11,24.44a.53.53,0,0,1,.12-.28.9.9,0,0,1,1.14-.27.6.6,0,0,1,.33.5.55.55,0,0,1-.13.28.89.89,0,0,1-1.13.27A.56.56,0,0,1,195.11,24.44Z"/><path class="cls-1" d="M17.74,53.3a.79.79,0,0,1,.3.08c.42.19.63.62.31.91a.91.91,0,0,1-.61.26,1.07,1.07,0,0,1-.39-.1c-.42-.19-.68-.59-.35-.88A1.2,1.2,0,0,1,17.74,53.3Z"/><path class="cls-1" d="M259.8,62.05a.78.78,0,0,1,.3.07c.42.19.63.62.31.91a.83.83,0,0,1-1,.16c-.42-.18-.68-.59-.35-.88A1.17,1.17,0,0,1,259.8,62.05Z"/><path class="cls-1" d="M75.38,36.07a1.15,1.15,0,0,1-.38.31,1.07,1.07,0,0,1-.64,0,.56.56,0,0,1-.28-.92.76.76,0,0,1,.21-.19,1,1,0,0,1,.74-.05C75.51,35.37,75.69,35.74,75.38,36.07Z"/><path class="cls-1" d="M243.87,31.12a.6.6,0,0,1,.34,1.07.93.93,0,0,1-.53.17,1,1,0,0,1-.3-.08c-.42-.19-.63-.62-.31-.91A.93.93,0,0,1,243.87,31.12Z"/><path class="cls-1" d="M248,42.89a.7.7,0,0,1,.28.19.49.49,0,0,1,0,.56.88.88,0,0,1-1.14.24.7.7,0,0,1-.28-.19.49.49,0,0,1,0-.56A.87.87,0,0,1,248,42.89Z"/><path class="cls-1" d="M239.11,45a.67.67,0,0,1,.22-.19,1,1,0,0,1,.72,0,.56.56,0,0,1,.28.92.76.76,0,0,1-.21.19,1,1,0,0,1-.73,0A.56.56,0,0,1,239.11,45Z"/><path class="cls-1" d="M240.62,28.36a.79.79,0,0,1,.3.08c.42.18.63.62.31.91a1,1,0,0,1-.65.26.79.79,0,0,1-.3-.08c-.42-.19-.63-.62-.31-.91A.9.9,0,0,1,240.62,28.36Z"/><path class="cls-1" d="M249.58,51.55a.92.92,0,0,1-1.15.29.6.6,0,0,1-.33-.5.55.55,0,0,1,.13-.28.89.89,0,0,1,1.13-.27.59.59,0,0,1,.34.5A.56.56,0,0,1,249.58,51.55Z"/><path class="cls-1" d="M231.57,36.85a.53.53,0,0,1,.12-.28.9.9,0,0,1,1.14-.27.6.6,0,0,1,.33.5.55.55,0,0,1-.13.28.89.89,0,0,1-1.13.27A.56.56,0,0,1,231.57,36.85Z"/><path class="cls-1" d="M228.12,38.29a1,1,0,0,1-.41-.09c-.39-.18-.57-.57-.28-.85a.87.87,0,0,1,.64-.29.89.89,0,0,1,.39.09c.42.19.71.61.39.9A1.24,1.24,0,0,1,228.12,38.29Z"/><path class="cls-1" d="M220.35,29.09a.88.88,0,0,1-.68-.24,3.69,3.69,0,0,1-.4-.29.52.52,0,0,1,0-.7.79.79,0,0,1,1.06-.3,3.28,3.28,0,0,1,.7.38C221.52,28.33,221,29,220.35,29.09Z"/><path class="cls-1" d="M101,15.1a.53.53,0,0,1,.12-.28.9.9,0,0,1,1.14-.27.6.6,0,0,1,.33.5.55.55,0,0,1-.13.28.89.89,0,0,1-1.13.27A.6.6,0,0,1,101,15.1Z"/><path class="cls-1" d="M97.91,25.78a.7.7,0,0,1-.28-.19.51.51,0,0,1,0-.57.89.89,0,0,1,1.14-.24A.72.72,0,0,1,99,25a.49.49,0,0,1,0,.56A.88.88,0,0,1,97.91,25.78Z"/><path class="cls-1" d="M210.86,29.77a.64.64,0,0,1,.21-.19,1,1,0,0,1,.72,0,.61.61,0,0,1,.07,1.11,1,1,0,0,1-.72.05A.56.56,0,0,1,210.86,29.77Z"/><path class="cls-1" d="M201.61,35a.9.9,0,0,1-.69-.24,3.69,3.69,0,0,1-.4-.29.52.52,0,0,1,0-.7.77.77,0,0,1,1-.3,3.24,3.24,0,0,1,.67.36C202.77,34.19,202.26,34.83,201.61,35Z"/><path class="cls-1" d="M185.48,25.37a1.1,1.1,0,0,1,.38-.29,1,1,0,0,1,.62,0,.56.56,0,0,1,.28.92.55.55,0,0,1-.21.19,1,1,0,0,1-.87,0c-.39-.14-.52-.49-.24-.77Z"/><path class="cls-1" d="M179.41,14.49a.52.52,0,0,1,.13-.28.87.87,0,0,1,1.13-.27.59.59,0,0,1,.33.46.61.61,0,0,1-.15.35.85.85,0,0,1-1.09.31A.72.72,0,0,1,179.41,14.49Z"/><path class="cls-1" d="M177,16.62a.94.94,0,0,1,.38.29.49.49,0,0,1,0,.51.89.89,0,0,1-1.14.24.82.82,0,0,1-.28-.19.51.51,0,0,1,0-.56A.75.75,0,0,1,177,16.62Z"/><path class="cls-1" d="M173,32.46a1.05,1.05,0,0,1-.39.29,1,1,0,0,1-.61,0,.56.56,0,0,1-.28-.92.55.55,0,0,1,.21-.19,1,1,0,0,1,.87,0c.39.15.52.49.24.77Z"/><path class="cls-1" d="M154.61.28a.65.65,0,0,1,.21-.19,1,1,0,0,1,.72,0,.55.55,0,0,1,.28.91.64.64,0,0,1-.21.19.93.93,0,0,1-.72.05A.56.56,0,0,1,154.61.28Z"/><path class="cls-1" d="M145.46,24.49a.91.91,0,0,1-1.15.28.59.59,0,0,1-.33-.49.5.5,0,0,1,.12-.28.88.88,0,0,1,1.14-.27.59.59,0,0,1,.33.49A.46.46,0,0,1,145.46,24.49Z"/><path class="cls-1" d="M141.4,29.15a.91.91,0,0,1-.41-.09c-.39-.17-.57-.57-.29-.85a.93.93,0,0,1,.65-.29,1,1,0,0,1,.38.1c.42.19.72.6.39.89A1.09,1.09,0,0,1,141.4,29.15Z"/><path class="cls-1" d="M133.54,25.55a.79.79,0,0,1-.3-.08c-.42-.18-.62-.61-.31-.91a.9.9,0,0,1,.65-.25,1,1,0,0,1,.3.07c.42.19.63.62.31.92A.89.89,0,0,1,133.54,25.55Z"/><path class="cls-1" d="M123.44,22.45a.79.79,0,0,1-.3-.08c-.41-.19-.62-.62-.31-.91a.92.92,0,0,1,.66-.26.79.79,0,0,1,.3.08c.41.18.62.62.31.91A.92.92,0,0,1,123.44,22.45Z"/><path class="cls-1" d="M120.63,29.05a.64.64,0,0,1,.21-.19,1,1,0,0,1,.72-.05.61.61,0,0,1,.07,1.11,1,1,0,0,1-.72,0A.56.56,0,0,1,120.63,29.05Z"/><path class="cls-1" d="M119.29,34a.78.78,0,0,1,.22-1l0,0a4.23,4.23,0,0,1,.4-.34,1,1,0,0,1,.89,0c.46.19.61.46.34.81s-.54.73-1,.76C119.85,34.2,119.46,34.21,119.29,34Z"/><path class="cls-1" d="M112.18,13.29a.56.56,0,0,1,.31.93.93.93,0,0,1-.7.31.79.79,0,0,1-.3-.08c-.42-.18-.62-.62-.31-.91a.9.9,0,0,1,.54-.25A1.42,1.42,0,0,1,112.18,13.29Z"/><path class="cls-1" d="M119.08,35.61a1.13,1.13,0,0,1-1.18.23c-.14-.07-.14-.2-.1-.33a1.54,1.54,0,0,1,.58-.9c.69-.48,1.21-.36,1.19.21a.72.72,0,0,1-.22.56A3.53,3.53,0,0,1,119.08,35.61Z"/><path class="cls-1" d="M88.38,36.89c0-.15.06-.33.31-.54A4.62,4.62,0,0,1,89.1,36,1,1,0,0,1,90,36c.46.19.61.46.34.82a2.15,2.15,0,0,1-.59.61A1,1,0,0,1,88.38,36.89Z"/><path class="cls-1" d="M86.79,38.81a.77.77,0,0,1,.66-1h0c.59-.13,1.24.21,1.14.7a1,1,0,0,1-.61.73A.9.9,0,0,1,86.79,38.81Z"/><path class="cls-1" d="M85.63,38.26A.82.82,0,0,1,85,38a3.17,3.17,0,0,1-.4-.29.54.54,0,0,1,0-.71.79.79,0,0,1,1.06-.29,2.89,2.89,0,0,1,.7.38C86.8,37.51,86.27,38.12,85.63,38.26Z"/><path class="cls-1" d="M80.82,25.74a.93.93,0,0,1-.41-.34.57.57,0,0,1,0-.47.89.89,0,0,1,1.15-.24.7.7,0,0,1,.28.19.57.57,0,0,1-.07.69.68.68,0,0,1-.94.2Z"/><path class="cls-1" d="M67.72,40.19a.74.74,0,0,1-.3-.08c-.42-.18-.63-.62-.31-.91a.94.94,0,0,1,.65-.26,1,1,0,0,1,.3.08c.42.19.63.62.31.91A.91.91,0,0,1,67.72,40.19Z"/><path class="cls-1" d="M59.86,39.36a.53.53,0,0,1,.12-.29.89.89,0,0,1,1.14-.26.59.59,0,0,1,.33.49.55.55,0,0,1-.13.28.87.87,0,0,1-1.13.27A.6.6,0,0,1,59.86,39.36Z"/><path class="cls-1" d="M56.09,44.31a1,1,0,0,1-.39.29,1,1,0,0,1-.61,0,.56.56,0,0,1-.28-.92A.55.55,0,0,1,55,43.5a1,1,0,0,1,.87,0c.39.15.52.49.24.77Z"/><path class="cls-1" d="M53.38,50.93a1.07,1.07,0,0,1,.41.09c.39.18.57.57.29.86a1,1,0,0,1-.65.29,1,1,0,0,1-.38-.1c-.42-.19-.72-.61-.39-.9A1.21,1.21,0,0,1,53.38,50.93Z"/><path class="cls-1" d="M45.9,44.79a.91.91,0,0,1-.37-.29.49.49,0,0,1,0-.51.88.88,0,0,1,1.14-.24.7.7,0,0,1,.28.19.49.49,0,0,1,0,.56A.75.75,0,0,1,45.9,44.79Z"/><path class="cls-1" d="M34.91,52.6a1,1,0,0,1-.41-.34.57.57,0,0,1,0-.47.88.88,0,0,1,1.15-.24.7.7,0,0,1,.28.19c.14.19.11.42-.07.69a.68.68,0,0,1-.94.2Z"/><path class="cls-1" d="M19.27,65.34a1,1,0,0,1-1.17.29.62.62,0,0,1-.37-.52.5.5,0,0,1,.12-.28A.88.88,0,0,1,19,64.56a.63.63,0,0,1,.33.44A.5.5,0,0,1,19.27,65.34Z"/><path class="cls-1" d="M13.46,62.5a.49.49,0,0,1,.12-.29A.88.88,0,0,1,14.71,62a.59.59,0,0,1,.33.45.64.64,0,0,1-.15.36.83.83,0,0,1-1.09.3A.7.7,0,0,1,13.46,62.5Z"/><path class="cls-1" d="M4.32,75.36a1.06,1.06,0,0,1-1.12.18A.34.34,0,0,1,3,75.12a3.79,3.79,0,0,1,.12-.4A1.4,1.4,0,0,1,4.23,74a.43.43,0,0,1,.57.4,1,1,0,0,1-.25.75A1.63,1.63,0,0,1,4.32,75.36Z"/><path class="cls-1" d="M1.51,83.15a1,1,0,0,1-.41-.34.55.55,0,0,1,0-.48.89.89,0,0,1,1.15-.23.7.7,0,0,1,.28.19A.58.58,0,0,1,2.5,83a.68.68,0,0,1-.94.2Z"/><path class="cls-1" d="M1.35,86.72a.65.65,0,0,1-.21.19,1,1,0,0,1-.72,0A.56.56,0,0,1,.14,86a.64.64,0,0,1,.21-.19.93.93,0,0,1,.72,0A.56.56,0,0,1,1.35,86.72Z"/><path class="cls-1" d="M17.43,60.39a.63.63,0,0,1,.15-.38.84.84,0,0,1,1.05-.25.62.62,0,0,1,.37.49.58.58,0,0,1-.15.36.86.86,0,0,1-1.1.33A.67.67,0,0,1,17.43,60.39Z"/></svg>