<svg id="Layer_1" data-name="Layer 1" xmlns="http://www.w3.org/2000/svg" viewBox="0 0 151 163"><defs><style>.cls-1{fill:#ececec;}</style></defs><path class="cls-1" d="M99.05,130.58c.63.08,1,0,1.11.31.38.76.66,1.57,1,2.16.11.86-1.24.64-.18,1.66,0,0,.5-.48.86-.31,0,.81.39.27.42,1.17.48.22.18-1.08.66-.85a3.23,3.23,0,0,1,.94-.08c.51,0,.71-2.42.78-1.95.26.71,1.76-1.71,2-1,.1.26-.47.83-.38,1.1l.85.4c.16.44,1.76-3.35,2-2.64-.11.24-.25.69-.42,1.06.46.73,1.36-.39,2,.58.8,2.22-1.57-.24-.71,2.16-.16.37,1.32.13,1.15.49.19.54-1.11.5-1,1,.4.26,1,0,1.36.21-.64,1.54.79-.92,2.35-.18.91-.18-.39-1.52-.51-3,.12-.24,1.28.61,1.45.24a3.23,3.23,0,0,0,.68-1.51,3.15,3.15,0,0,0-2.29-3.3c-.27-.2-.63-.37-1-.63.12-.24.11-.54.29-.61a7.38,7.38,0,0,1,1.24-.45.78.78,0,0,0,.55-.7l-.61-1.69c-.52-.61-1.36.39-1.92-.31.06-.12.08-.33.17-.36.77-.38,1.57-.67,2.33-1.05.45.14.82.31,1.27.45a2.53,2.53,0,0,1,.83-.2,8.61,8.61,0,0,0,1.17.48c.62-.52-.39-1.37.32-1.92l.36.17a1.49,1.49,0,0,0,.66.16.65.65,0,0,0,.13-.75.6.6,0,0,1,0-.81c.14-.15.35-.13.72,0s.78.23,1.45-.12c.17-.66.39-1.45.58-2l2.84-1c.42,0,.6.29.49.53l-.62,1.33c-.27.1-.68.35-1,.48s.47-.37.37.17c.36.17.12.35.49.52.13.36,0,.62.61.79a11.19,11.19,0,0,1,.72-1.27c.48.23,1-1.46,1.46-1.23.19.53,1.17,1.07,1.4,1.7.95-2.56.59-3.22.45-2.77.21-.68,1-1.27,1.57.34-.17.36.4-.22.57-1.11.19.53.26-2,.45-1.43,1.38.3-.41,2.9.72,2-.27-.21.89.28.49,0-.16-.45,1.31-.41,1.11-.94-.39-.26.56-1.17.07-1.4-.29-.8,1.32,0,1-.77.17-.36-.53-.63-.36-1-.48-1.33,1.77,1.29,1.29,0,.14-.45-.74-.94-.51-1.42-.71-2-1.35-.12-2-2,.07-.63.58-.61,1-.86a8.76,8.76,0,0,0,1.18.48c.12,0,.26-.1.44-.16l-.45-1.25a8.9,8.9,0,0,1-1.12-.6,6,6,0,0,0,.42-1.06,8.17,8.17,0,0,0-1.11-.6c-.3-1.1-.33-1.19.73-1.57.73.34,1.54.65,2.26,1,.13.06.27-.1.36-.13l-.45-1.25a15.33,15.33,0,0,0,.74-1.57,4.56,4.56,0,0,0,1-1l-.73-.34c-.24-.12-.21-.33,0-.69a3.25,3.25,0,0,0,.22-.79c-.16-.44-.27-1,.09-1.13s.58.49.79.81.55.41.61.29a.65.65,0,0,0,.13-.75c-.2-.84-.11-.87.65-1.25.09,0,.24-.18.33-.21.22-.49.51-1.09.73-1.58.06-.12-.09-.26-.13-.35a.63.63,0,0,1-.8,0c-.28-.21-.07-.48.69-.86l-.17.07a.59.59,0,0,1,0-.69c.11-.24.29-.31.6,0,0,.09,0,.21,0,.3a.94.94,0,0,1-.34.43,1.34,1.34,0,0,0,.11.87,5.29,5.29,0,0,0,1.15-.42.73.73,0,0,0,.25-.7,15.1,15.1,0,0,0-.7-1.95.65.65,0,0,1-.81,0c-.27-.21-.07-.48.52-.8L141,89.85c.23-.49.54-1,.83-1.61l2.21-.8a3.1,3.1,0,0,0,.82-1.9c-.75-.44-1.36.39-2,.31a11.16,11.16,0,0,1-.65,1.25l-.8.28c-.88-.48-1.81-.85-2.69-1.34.11-.24.19-.57.37-.63,1.3-.57,2.63-1.06,4-1.54.09,0,.11-.24.17-.36a8.9,8.9,0,0,1-1.12-.6c-.12-.06-.09-.27-.13-.36a.62.62,0,0,1-.8,0c-.28-.2-.07-.47.52-.79-.1-.27-.2-.53-.29-.8l-1.16.42c-.08,0-.21,0-.33-.08s-.24-.12-.18-.24.08-.33.17-.36c.79-.59,1.12-.51,1.59.23a.59.59,0,0,0,.61-.53c.11-.54-.39-1.06.14-1.56l.71-.25a6.42,6.42,0,0,0,1.14.39c.44-.46.1-.84-.09-1.37-.48-.23-1.06-.43-1.78-.77-.42,0-1,.65-1.75.43-.12-.05-.24-.11-.27-.2a.4.4,0,0,1,.17-.36,2.59,2.59,0,0,1,.85-.41A16.36,16.36,0,0,1,142,74.8a11.6,11.6,0,0,0-.69-2.47,4.71,4.71,0,0,1,.68-1.75c.46-.37.79-.59,1.17-.93-.85-.39-1.6-.82-2.33-1.17.34-.72.62-1.33.91-1.93a.42.42,0,0,0-.46-.44c-.12-.06-.27.1-.44.16a.6.6,0,0,1-.81,0c-.18-.24.08-.63.61-.82l1.24-.45a3.06,3.06,0,0,0,.77-.38l.73-1.57c-.73-.64-1.34.18-2,.22-.24-.11-.54-.1-.78-.22-.94-.36-1.81-.85-2.78-1.31-.36-.17-.48-.22-.49-.52a.64.64,0,0,1,.61-.53l.36-.12a2.3,2.3,0,0,0,2,.28l.85.39a2.8,2.8,0,0,0,1.86-.67c.06-.12.29-.31.26-.39-.25-.72-.48-1.34-.74-2.05l-.79.29a.61.61,0,0,1-.81,0c-.15-.15,0-.39.13-.75.06-.13.12-.25.17-.37-.5-.82-1.3.27-1.83-.34a9.34,9.34,0,0,0,.48-1.18c-.45-1.25-.9-2.49-1.31-3.65a.63.63,0,0,1-.81,0A1.22,1.22,0,0,1,137.4,51a.59.59,0,0,1,.61-.52c0-.09,0-.3-.13-.36-.6-.28-1.12-.6-1.69-.8-.12-.05-.26.1-.35.13.13.36.29.8.41,1.16-.34.73-.34.73-.81.8s-.69,0-1-.46a1.11,1.11,0,0,1,.09-1.14l1.16-.41c-.07-.18-.22-.33-.16-.45A8.76,8.76,0,0,0,136,47.8l-1.58-.74a7.6,7.6,0,0,1-.59,1.12.89.89,0,0,1-.66-1.27,3.05,3.05,0,0,0,.23-1.59c-.13-.35.22-.78.69-.85a.78.78,0,0,0,.55-.7c-.25-.72-.54-1.52-.83-2.32a.41.41,0,0,0-.66-.16c-.09,0-.11.24-.17.36.19.54.38,1.07.58,1.6-.43.76-.43.76-2.09,1.16-.42,0-.52-.32-.2-.53s.54-.2.74-.47.4-.55.37-.64a.65.65,0,0,0-.75-.13c-1,.18-1,.18-1.29-.54L130,41l.22-.49c.37-.93.27-1.2-.52-1.72-.27-.2-.48-.23-.48-.53s.34-.42.61-.52c.53-.19.64-.44.54-1a.89.89,0,0,0-.88-.79c-.3,0-.54.19-.83.2-.09,0-.25-.11-.46-.14l-.6-1.69a3.62,3.62,0,0,1,.51-1.09c-.53-.61-1.4.31-1.92-.31l-.29-.8c.1-.84,1.3-.57,1.28-1.47l-2.78-1.31-1.24.45a.5.5,0,0,1,0,.72c.24.41,0,.51-.2.57a.62.62,0,0,1-.75-.13c0-.09.11-.54.29-.6a5.1,5.1,0,0,1,1.15-.42c-.07-.18-.22-.32-.16-.45a8.61,8.61,0,0,1,.48-1.17l-.9-2.5c-.12-.05-.39-.26-.36-.17-.12.25-.35.43-.29.61a6.06,6.06,0,0,0,.45,1.24.63.63,0,0,1-.13.76c-.65.13-1.23.74-2,.44,0-.9.56-1.51.87-2.33a8.9,8.9,0,0,1-1.12-.6c-.12-.36-.29-.8-.45-1.25l-1.15.42c-.09,0-.21,0-.33-.08s-.24-.12-.18-.24.08-.33.17-.36c.79-.59,1.12-.51,1.58.23.39,0,.62-.22.62-.52a2.4,2.4,0,0,1,.36-2.05l-.41-1.15c-.1-.27-.19-.54-.53-.62a1,1,0,0,0-1.09.3c-.37.63-.63,1.33-1,2-.24-.11-.54-.1-.6-.28a9.33,9.33,0,0,1-.55-1.51c.14-.45.61-.83.36-1.24s-.8,0-1.16.12c-.17.36-.43.76-.6,1.12l-1.57-.74a1.87,1.87,0,0,1,.46-.67,6.06,6.06,0,0,1,1.25-.45c.17-.06.25-.39.46-.67-.49-.22-1.09-.51-1.57-.74a2.4,2.4,0,0,1-.83.2,9.34,9.34,0,0,0-1.18-.48c-.09,0-.27.1-.7.56-.24.18-.24-.12-.1-.27.29-.3.53-.19.49.23a1.06,1.06,0,0,1-.32.52s-.33-.09-.07-.48.07-.63.13-.75l.51-1.09c-.36-.17-.76-.43-1-.55a8.41,8.41,0,0,1,.39-1.14c-.85-.4-1.39.3-2.17.38a16.24,16.24,0,0,1-1.48-.77c0-.6.78-1.19.1-2l-1.09-.51a7.08,7.08,0,0,0,.48-1.18c-.13-.36-.14-1-.74-.94-.38,0-.4.55-.66.94-.86.11-.62-1.18-1.46-1.28l-1,.35c-.25.7-.47,1.48-.75,2.09a3.32,3.32,0,0,1-1,.26,6.42,6.42,0,0,0-1.14-.39c-.29.6-.52,1.09-.74,1.57-.06.12.09.27.13.36a.48.48,0,0,1,.71,0c.16.15.25.42.44.65a.65.65,0,0,1-.13.75c-.09,0-.54-.11-.61-.28a5.34,5.34,0,0,1-.41-1.16.68.68,0,0,1-1-.25,4.5,4.5,0,0,1-.39-1.06l-1.15.41c-.09,0-.21,0-.33-.08s-.24-.11-.19-.23.08-.33.17-.37c.79-.58,1.12-.5,1.59.23.18-.06.39,0,.44-.16a14.63,14.63,0,0,0,.74-1.57c-.24-.11-.43-.35-.6-.28a5.7,5.7,0,0,0-1.25.44.6.6,0,0,1-.74-.13c.17-.36.3-.81.47-1.18-.75-.43-1.69.31-2.36-.45-.17.37-.43.76-.6,1.12l-1.6.58c-.36-.17-.81-.31-1.18-.48l-3.72,1.35c-.27.1-.66.14-.75-.13,0-.09.1-.54.28-.61s.8-.29.91-.83c-.49-.22-1.06-.42-1.63-.62a3.21,3.21,0,0,1-.57.92c-.9,0-.63-1.19-1.47-1.29l-1.68.61c-.52-.31-.52-.31-.1-1.37l-1.45-.68c-1.1,0-1.86.67-2.72.78l-.51,1.09c-1,.35-2,.83-3.11,1.12-.44.16-.78-.22-.85-.69a.59.59,0,0,0-.22-.33l-.84-.4a3.07,3.07,0,0,1-.44-.64c-.19-.54-.2-1.14-1-1.36l-.8.29a7.88,7.88,0,0,1-1.23,2.16c-.54-.11-.53-.62-.77-1-.49-.23-1.06-.42-1.66-.71l-1.51.55c-.45-.14-.81-.31-1.27-.45a10.24,10.24,0,0,1-.59,1.12l-1.25.45L63.76,10a.49.49,0,0,1-.08.33c-.06.12-.11.24-.24.18s-.33-.08-.36-.17c-.58-.79-.5-1.12.23-1.59-.09-.27-.19-.53-.29-.8a.6.6,0,0,0-.52-.62c-.21,0-.32.22-.49.58l-.17.37A2.42,2.42,0,0,1,60.3,7.6a5.81,5.81,0,0,1-1-1.24,7.49,7.49,0,0,1-.6,1.13,6.79,6.79,0,0,0-1.15-.39l-1,2.05c-.48.08-.69-.25-.82-.6A.86.86,0,0,0,55.12,8a2.59,2.59,0,0,1-.83.2c-.34.73-.77,1.49-1.11,2.21-.54-.1-.61-.58-.83-.9a.86.86,0,0,0-.72-.35,20,20,0,0,0-2.31.84c-.68,1.45-.68,1.45-1.88,1.18-.22-.32-.14-1-.65-1s-.34.73-.7.85a5.06,5.06,0,0,1-2.78.91c-.52-.32-.56-1-.75-1.54-.1-.26-.28-.5-.58-.49-.09,0-.23.48-.25.69s.1.57.11.87c0,.09-.12.24-.17.36l-1.25.45a.69.69,0,0,1-.24,1,8.19,8.19,0,0,0-1.41.82c-.24.18-.24-.12-.1-.27.29-.31.53-.19.48.23a.91.91,0,0,1-.31.51s-.33-.08-.07-.47a8.38,8.38,0,0,0-.64-2.89l-1.33.48c-.25.69-.47,1.48-.61,1.93a7.7,7.7,0,0,0-1.29.87c-.24.18-.23.48,0,.9l-.06-.18a.57.57,0,0,1,.68,0c.24.12.31.29,0,.6-.09,0-.21,0-.3,0a1.13,1.13,0,0,1-.43-.35,1.08,1.08,0,0,1-.87-.19c-.42-.35-.38-1.07-1.1-1.11l-1.6.58c-.17.36-.43.76-.6,1.12l-.79.29c-.41.55,0,1.1.19,1.64a.89.89,0,0,1-.13,1.05c-.12-.06-.33-.08-.36-.17A10.24,10.24,0,0,1,28.91,17c-.13-.36-.64-.37-1.08-.21a.86.86,0,0,0-.59.61c.37.17.64.37,1,.54a2.29,2.29,0,0,1-.37.64,18.57,18.57,0,0,1-2.22.8L24,18.63l-.45-1.25c-.65.13-.89,0-1-.33a10,10,0,0,0-.75-1.54c-.19-.24-.49-.23-.81,0,.35,1,.67,1.87,1,2.84a.42.42,0,0,1-.41.55.4.4,0,0,1-.36-.17l-.29-.8c-.24-.11-.6-.28-.78-.22-.62.23-1.43.22-1.74,1a7.7,7.7,0,0,1,1.12.6l.29.8c.49.53,1.11,0,1.56.15a.59.59,0,0,1,.52.61L23,20.47a.5.5,0,0,1,.33.09c.12.05.24.11.19.23s-.08.33-.17.36c-.79.59-1.12.51-1.59-.23-.18.07-.39,0-.44.16a14.75,14.75,0,0,0-.74,1.58c.1.26.1.56.2.83a8.9,8.9,0,0,1,1.12.6c-.16.66-.61.82-1.24.75-.3,0-.51-.32-.81-.31s-.95.14-1,.47a.72.72,0,0,0,.08.78,1,1,0,0,0,.18.24,5.07,5.07,0,0,1,1.06.72c.43.35.18,1-.41,1.36a.63.63,0,0,1,0,.8c-.2.28-.48.07-.79-.52l-1.24.45a1.64,1.64,0,0,0-.22.79c.1.56.47,1,.42,1.45-.28.61-.48,1.18-.7,1.67L16,33.19a.62.62,0,0,0,.52.61c.54.11,1-.47,1.59.23l.22.62a2.71,2.71,0,0,1-.46.67c-.77.38-1.57.67-2.33,1-.09,0-.12.24-.17.36a8.9,8.9,0,0,1,1.12.6c.12.06.09.27.12.36a.49.49,0,0,1,.72,0c.15.15.25.41.43.65a.62.62,0,0,1-.13.75c-.08,0-.54-.11-.6-.28a5.37,5.37,0,0,1-.42-1.16l-.79.29a.64.64,0,0,0-.62.52c0,.21.13.36.46.44s.48.23.46.44a.6.6,0,0,1-.62.52l-.79.29c.13.65,0,.9-.34,1a10.31,10.31,0,0,0-1.53.75c-.23.19-.23.49,0,.81l1.33-.48c.24.11.64.37,1,.54.12.06.27-.09.53-.19l-.18.06a.57.57,0,0,1,0-.68c.11-.25.29-.31.59,0,0,.09,0,.21,0,.3a1,1,0,0,1-.35.43A3.37,3.37,0,0,0,16,44.05,4.25,4.25,0,0,1,14.85,46c-.48.07-1,.27-1.49.34-.29,0-.48-.23-.52-.62l-1.24.45c-.23.48-.42,1.06-.7,1.66a5.46,5.46,0,0,0,1,2.55c.19.24.49.23.81,0l-.45-1.24A15.53,15.53,0,0,0,13,47.53c.71,0,.79.52.83,1.21-.55.4-.29,1.41-1.12,1.61l.45,1.25c-.06.12-.08.33-.17.36-.24.19-.5.28-.74.47s-.34.43-.46.67c-.37.64-.62,1.33-.91,1.94.08.47.55.4.86.69.16.75,1.16,1.29.38,2.18-.36-.17-.69-.25-1.06-.42-.11.24-.25.39-.22.48L12,61.26c-.1.84-1.26.66-1.27,1.47a3.81,3.81,0,0,1,1,.63l-.74,1.58-.8.29c-.27,1.2-.27,1.2,1.09,1.92A3.66,3.66,0,0,0,11,68.29a1,1,0,0,0,1.14.09c.18-.06.54.11.78.22l-.74,1.58a4.88,4.88,0,0,0-.94.44c-.14.45-.33,1-.64,1.84,0-.09.21,0,.51,0s.73-.47,1.19,0a3,3,0,0,1-.59,1.42,5.48,5.48,0,0,1-1.23,1c.79.52,1.63.62,2.24,1.2-.11.54-.62.53-.94.74a.44.44,0,0,0-.17.37c0,.21.16.44.55.4a9.59,9.59,0,0,0,1.6-.58c.9.28.8,1.12,1,1.83.07.18-.13.46-.28.61a1.9,1.9,0,0,0-.81-.31,2,2,0,0,0-.78.08c-.08,0-.26.09-.32.22-.13.75-1,1-1.36,1.5a2.4,2.4,0,0,0-.6,1.42c.43.35.84.1,1.2,0,.17-.37.43-.76.6-1.12,1.08.21.57,1.6,1.33,2s1.59-.88,2.44-.18c-.34.73-.65,1.54-1,2.27l.29.8c0,.81-1.33.48-1.28,1.47.49.22,1.09.51,1.57.74.13.05.27-.1.63-.23l-.18.07a.59.59,0,0,1,0-.69c.11-.24.29-.31.6,0,0,.09,0,.21,0,.3a1.06,1.06,0,0,1-.35.43c-.17.36,0,.6.31.59.51,0,1,0,1.58-.07-.23.49-.31.82-.53,1.3a8.12,8.12,0,0,0,.51,1.43.84.84,0,0,0,1.2.27c.09,0-.18.06-.18.06a.6.6,0,0,1-.05-.69c.12-.24.29-.3.6,0,0,.09,0,.21,0,.3a1.13,1.13,0,0,1-.35.43c-.11.24,0,.38,0,.51-.31.81-.73,1.57-1,2.26.48,1,.48,1,1.16,1l.45-.16a1.06,1.06,0,0,1,.92,1.18c-.08.33-.23.48-.36.93A22.8,22.8,0,0,0,21.9,101c.43.34.61.28.66-.14a6.44,6.44,0,0,1-.08-.78,1.6,1.6,0,0,1,.22-.78l2.77,1.31a.71.71,0,0,1-.76.68c-.48.88-.8,1.39-1,1.88.79.52,1.78-.34,2.49.51a3.31,3.31,0,0,1,.92-.24,12.79,12.79,0,0,0,1.53.65c.2.54.2.54-.51.79l-.8.29,1.18,3.3,1.24-.45c.09,0,.25.11.37.17l.09.27c-.25.69-.62,1.33-.9,1.93a1.57,1.57,0,0,0,.78.22,1,1,0,0,0,.67-.34,19.68,19.68,0,0,0,.91-1.94,2.76,2.76,0,0,1,.64.37,1.42,1.42,0,0,1,.2.84c0,.3-.32.51-.31.81a1,1,0,0,0,.38,1.07l.85.4a8.11,8.11,0,0,0-.39,1.15c.1.26.19.53.26.71.49.52,1,0,1.55.14a.6.6,0,0,1,.52.62l.8-.29a.81.81,0,0,1,1.21.57l.29.8L38.9,115c.09,0,.24.11.36.17l.1.27c-.25.69-.63,1.33-.91,1.93.34.38.69.25,1.14.1.26-.1.54.1.75.13a8.61,8.61,0,0,0-.48,1.17A11.19,11.19,0,0,1,42.1,120a3,3,0,0,1,.11.86c0,.3-.23.49-.62.53a5.29,5.29,0,0,0,.42,1.15c.18.24.51.32.66.17A2.76,2.76,0,0,1,43,122c.46-.67,1.21-.54,1.59.23a.65.65,0,0,1,1,.34l.48,1.33a34.51,34.51,0,0,0,3.44,1.77l.42,1.16,2-.74,1.57.74c.14,1-1.3.57-1.15,1.53.45.14.93.36,1.62.62l2.13-.78a12.32,12.32,0,0,1,2,.7c-.46,1-1.32.79-2,1.22,0,.3,0,.72,0,1a4.21,4.21,0,0,0,2,1c.44-.16.92-.23.94-.74,0-.3-.2-.54-.2-.84s.19-.57.4-.54l.36.17a7,7,0,0,0,1.09.51c.22.62.42,1.16.61,1.69l-1,2.06c.2.83,0,1.79,1.16,2.09l.71-.25a8.61,8.61,0,0,1,1.17.48.68.68,0,0,0,.1-.84c-.2-.84,0-1.11.66-1.25.27-.09.54.11.75.14l.29.8c-.17.36-.31.81-.48,1.18.22.62.41,1.15.61,1.69l1.57.74c.17-.37.43-.76.6-1.12l.79-.29c.42,0,.61.28.41.56-.29.6-.63,1.33-.91,1.93.36.17.76.43,1.12.61.16.44.41.85.06,1.28-.73-.34-1.54-.65-2.26-1-.06.12-.21.27-.17.36.29,1.1.68,2.17,1.06,3.24.1.26.43.35,1.08.21l.27-.1c1,.43,1.39-1.41,2.83,1.19.16.45,1.21-.64,1-1.18-.36-.17-.6-1.36-1-1.55-.56-.71.71-.64.34-1.4s.26-1.5-.14-2.06c-.36-.17,1.32-1.09,1.08-1.2,0-.09,1.64-.65,1.6-.74-1.34-3.74,2.29,1,.91-2.85.08-.33,3,1.6,3.21,1.12l-.87-2.41a16.86,16.86,0,0,1,.74-1.57c.74-.17,1.21.57,1.8.55l.65,1.78a5.84,5.84,0,0,1,1.19,0,9,9,0,0,1,.65-1.24l1.69-.61c.48.23,1,.55,1.6.83a6,6,0,0,1-.42,1.06c1,.42,1.14.39,1.77-.94.65-.14,1.27.75,1.94.1.72.34,1.54.65,2.29,1.08l.89-.32c0-.39,0-.81,0-1.2a8.47,8.47,0,0,0-1.24-.65l.51-1.09c.17-.37.23-.49.53-.5s.42.35.52.62c.13.66.34.68,1,.46a.76.76,0,0,1,.81,0,.36.36,0,0,1,.19.23c-.23.49-.64,1-.2,1.68a10.33,10.33,0,0,0,2.9,1.37c.23-.19.5-.28.73-.47s.23-.48,0-.81a.49.49,0,0,1-.72,0c-.15-.15-.25-.41-.43-.65a.64.64,0,0,1,.13-.75c.09,0,.54.11.6.29a5.29,5.29,0,0,1,.42,1.15.49.49,0,0,1,.72.05c.34.38.58.79,1,1.26.88-.92-.36-1.58-.14-2.36l.51-1.09c-.64-.37-.77-.73-1.32-1.44-.19-.23.11-.24.26-.09.31.29.2.53-.22.48a.93.93,0,0,1-.52-.32C98.54,130.57,98.65,130.32,99.05,130.58Zm5.62-118.11-2.4.87c-.08,0-.24-.11-.36-.17s-.13-.36.08-.63l2.39-.87c.09,0,.24.12.36.17S104.87,12.2,104.67,12.47ZM138.44,92.1a1.1,1.1,0,0,1,1.69-.61c.07.47.65,1-.12,1.35A13.68,13.68,0,0,0,138.44,92.1ZM124.53,31.44c.82.31,1,.85.61,1.69C124.29,32.74,124.1,32.2,124.53,31.44Zm3,6.15c-.12-.05-.33-.08-.36-.17l-.29-.8c0-.09.11-.24.17-.36a.18.18,0,0,1,.26-.1c.51,0,.83.91.48,1.34C127.76,37.62,127.64,37.56,127.55,37.59ZM23.34,97.41c-.31.82-.84,1-1.69.61C22.05,97.17,22.58,97,23.34,97.41Zm109.54,10.17-.12-.35c.05-.12.11-.24.17-.37s.35-.12.62.08.1.27.13.36a.61.61,0,0,1,0,.8C133.44,108.29,133.08,108.12,132.88,107.58ZM60.21,9.84c-.15.16-.36.13-.63-.07l.17-.36c.14-.16.35-.13.63.07C60.47,9.45,60.35,9.69,60.21,9.84ZM22.53,25.78c.15.15.12.36-.08.63l-.36-.17c-.15-.14-.13-.35.07-.63Zm49-16.6.17-.36c.14-.16.35-.13.63.07l-.17.36C72,9.41,71.77,9.38,71.5,9.18ZM95.38,12c-.15.15-.36.13-.63-.07l.17-.37c.15-.15.36-.13.63.08Zm36.16,33.6.36.17c.15.14.13.35-.08.63l-.36-.17C131.25,46.21,131.28,46,131.54,45.61Zm-113,41.68c-.14.16-.35.13-.63-.07l.17-.37c.15-.15.36-.12.63.08C18.7,87,18.55,87.17,18.49,87.29ZM140,59.26l-.36-.17c.08-.33.22-.49.43-.46l.36.17C140.31,59.13,140.17,59.28,140,59.26Zm.27,11.07-.36-.18c.08-.33.23-.48.43-.45l.37.17C140.59,70.2,140.44,70.35,140.23,70.33Zm.54,8.45.36.17c-.08.33-.23.49-.44.46l-.36-.17C140.41,78.91,140.56,78.76,140.77,78.78ZM47.49,121.06c.16.15.13.36-.07.63l-.36-.17c-.16-.14-.13-.35.07-.63ZM139.4,88.63c.14-.15.35-.13.63.08,0,0-.12.24-.17.36s-.36.13-.63-.08Z"/><path class="cls-1" d="M98,138.21c.23-.48.25-.69.13-.75l-1.57-.74c-.14.15-.34.43-.31.52a22.86,22.86,0,0,0,.86,2.4c1,.46,1.55-.16,2.32-.54.37-.63-.18-1-.28-1.61a2.8,2.8,0,0,0-1.15.72c-.23.19-.24-.11-.09-.27s.53-.19.48.23a.9.9,0,0,1-.32.52C98,138.72,97.72,138.61,98,138.21Z"/><path class="cls-1" d="M63.46,139.23l-1.25.45c-.36-.17-.81-.31-1.17-.48a1.29,1.29,0,0,0-.19.87c.18,1.05.18,1.05-.53,1.3l-1.16.42-.22.48c0,.09.18.24.27.21a6.17,6.17,0,0,0,2.78-.91c.13-.75.81-1.1,1.37-1.5A.57.57,0,0,0,63.46,139.23Z"/><path class="cls-1" d="M12,19.42c-.62-.58-1.37.4-1.92-.31l-.29-.8a.42.42,0,0,0-.36-.17c-.21,0-.45.16-.41.55a12.44,12.44,0,0,0,.61,1.69c-.2.27-.37.64-.63,1,.79.52,1.37-.09,2-.23C11.6,20.78,11.64,20.06,12,19.42Z"/><path class="cls-1" d="M20.05,16.12a3.62,3.62,0,0,0-.35.13c-1.07.38-1.07.38-1.6-.53a.85.85,0,0,0-1.32-.33,2.16,2.16,0,0,0-.37.64c.13.35.29.8.41,1.15.59-.31,1,.34,1.8.26A5.4,5.4,0,0,0,19.77,17,.54.54,0,0,0,20.05,16.12Z"/><path class="cls-1" d="M69.81,146.59a.46.46,0,0,0-.54-.11,1.72,1.72,0,0,1-1.64-.11.32.32,0,0,0-.21,0c-.31.51-.54,1-.86,1.51l1.69.8a4,4,0,0,1,.92-.23A8,8,0,0,1,69.81,146.59Z"/><path class="cls-1" d="M146.36,80.38c-.07-.48-.44-.65-.91-.57a7.56,7.56,0,0,0-1.42.51,7.31,7.31,0,0,1-.6,1.12l-1.16.42c.1.27.2.53.29.8l2-.74c.17-.36.43-.76.6-1.12Z"/><path class="cls-1" d="M37.79,122l1.57.74.8-.29c.17-.36.27-.91.59-1.12s.5-.28.2-.58c-.12,0-.27-.2-.36-.17a6.18,6.18,0,0,0-2.75,1A.8.8,0,0,1,37.79,122Z"/><path class="cls-1" d="M10.49,27.17a6.85,6.85,0,0,1-1.05-.43c-.36-.17-.48-.22-.63-.07a.61.61,0,0,0,0,.81l.16.44a6,6,0,0,0,1.06.42l.32.89c0,.09.24.12.36.18a.43.43,0,0,0,.44-.46Z"/><path class="cls-1" d="M49.66,126.52l-1.25.45c-.36-.17-.81-.31-1.17-.48-.45.16-.92.23-1,.86l1.45.68a2.67,2.67,0,0,0,2-.7A.61.61,0,0,0,49.66,126.52Z"/><path class="cls-1" d="M145,94.84l-2,.74c-.3,1.11-.3,1.11.58,1.6.17-.36.37-.64.54-1,.24.11.33.08.48.23s.52.31.75.13a.6.6,0,0,0,0-.81A3.44,3.44,0,0,1,145,94.84Z"/><path class="cls-1" d="M122.79,22.72l-1.15.41a.9.9,0,0,0-.09,1.14c.28.5.43.65,1,.46.35-.13.35-.13.81-.8A6.87,6.87,0,0,1,122.79,22.72Z"/><path class="cls-1" d="M6.1,63.23c-1-.34-1-.34-1.69.61l.29.8c1,.33,1,.33,1.69-.61Z"/><path class="cls-1" d="M132.93,29.71c-.5,0-.92-.07-1.22-.06-.7.56-.75,1.28-1.21,2,.51,0,.93.06,1.23.06C132.34,31.13,132.38,30.41,132.93,29.71Z"/><path class="cls-1" d="M132.55,40.62c.22-.49.51-1.09.73-1.58-.36-.17-.9-.28-1-.63s-.28-.5-.57-.2c-.06.12-.2.28-.17.37a3.84,3.84,0,0,0,.71,2A1.36,1.36,0,0,1,132.55,40.62Z"/><path class="cls-1" d="M2.24,83.51l-1.6.58c-.17.06-.13.45-.19.57L2,85.4a14.87,14.87,0,0,0,.65-1.54C2.72,83.74,2.57,83.59,2.24,83.51Z"/><path class="cls-1" d="M143.83,66.41c-.52.49-.56,1.21-1,1.67.58.49,1,.15,1.31,0a8.34,8.34,0,0,1,.6-1.13c.38-.63.34-.72-.16-.74A1.75,1.75,0,0,0,143.83,66.41Z"/><path class="cls-1" d="M145.19,66.82c.13.36.29.8.41,1.16a.9.9,0,0,0,1.14.09c.5-.28.64-.43.45-1-.12-.35-.12-.35-.79-.81A6.77,6.77,0,0,1,145.19,66.82Z"/><path class="cls-1" d="M57.87,132.9l-.8.29a8.61,8.61,0,0,0-1.17-.48c-.22,1.08-.22,1.08.66,1.57l1.6-.58c.09,0,.11-.24.17-.36S58.26,132.86,57.87,132.9Z"/><path class="cls-1" d="M83.41,135.33l.87,2.41c0,.09.24.11.36.17s.35-.13.4-.55l-.86-2.4c0-.09-.24-.12-.37-.17S83.49,135,83.41,135.33Z"/><path class="cls-1" d="M121.31,133.1a1,1,0,0,0-.25-1.53,7.17,7.17,0,0,0-1.48-.77,1,1,0,0,0,.25,1.52A7,7,0,0,0,121.31,133.1Z"/><path class="cls-1" d="M83.14,1.54c.75.43,1.28.23,1.68-.61C84.46.76,84,.62,83.65.45S83.16.22,83,.37a.59.59,0,0,0,0,.81C83.13,1.24,83.1,1.45,83.14,1.54Z"/><path class="cls-1" d="M26.38,12.82a5.37,5.37,0,0,0,1.16-.42c.17-.06.17-.36.28-.6l-1.45-.69c-.11.25-.35.43-.28.61A2.43,2.43,0,0,0,26.38,12.82Z"/><path class="cls-1" d="M23.77,13.36c-.75-.43-1.29-.24-1.68.61.36.17.81.31,1.17.48s.48.23.63.08a.6.6,0,0,0,0-.81Z"/><path class="cls-1" d="M37.93,11.46a5.83,5.83,0,0,0,1.15-.41c.18-.07.17-.37.28-.61l-1.44-.68c-.12.24-.35.42-.29.6A2.29,2.29,0,0,0,37.93,11.46Z"/><path class="cls-1" d="M56.19,6.77l.74-1.58c-.38-.76-.87-.18-1.35-.11A1.11,1.11,0,0,0,56.19,6.77Z"/><path class="cls-1" d="M96.24,5.76c-1-.24-1-.24-1.6.58.25.42.12,1.17,1,1A15.07,15.07,0,0,1,96.24,5.76Z"/><path class="cls-1" d="M13,42.89a.65.65,0,0,0-.6.83,12.52,12.52,0,0,0,.67,1.86.65.65,0,0,0,.6-.82C13.49,44.14,13.27,43.52,13,42.89Z"/><path class="cls-1" d="M118.55,18.72l-.7-2c-.07-.18-.37-.17-.61-.28,0,0-.2.27-.17.36a3.61,3.61,0,0,0,.76,1.84C118,18.91,118.28,18.82,118.55,18.72Z"/><path class="cls-1" d="M5.45,80c-.42.76-.14,1.26.61,1.69.17-.36.31-.82.48-1.18s.23-.48.07-.63a.59.59,0,0,0-.8,0C5.75,80,5.63,80,5.45,80Z"/><path class="cls-1" d="M132,38a5.34,5.34,0,0,0,1.16-.41c.18-.07.17-.37.28-.61L132,36.29c-.11.24-.35.43-.28.6A2.4,2.4,0,0,0,132,38Z"/><path class="cls-1" d="M136.73,41.92c-.23.48-.52,1.09-.74,1.57.38.77.87.19,1.34.12A1.23,1.23,0,0,0,136.73,41.92Z"/><path class="cls-1" d="M17.17,93.1c-.24-.41-.14-.95-.65-1s-.4.55-.6.82l-.17.36-.17.37A1.05,1.05,0,0,0,17.17,93.1Z"/><path class="cls-1" d="M144.16,74.84c-.33-1.19-.17-2.15-1.23-2.57-.4.54,0,1,.07,1.58A1.44,1.44,0,0,0,144.16,74.84Z"/><path class="cls-1" d="M150.78,76c.25-1,.25-1-.57-1.6-.42.25-1.16.12-1,1C149.73,75.54,150.3,75.74,150.78,76Z"/><path class="cls-1" d="M147,89.91c.76.43,1.26.15,1.68-.61-.36-.17-.81-.31-1.17-.48s-.48-.22-.63-.07a.6.6,0,0,0,0,.81Z"/><path class="cls-1" d="M142.17,92.16c.09,0,.23-.19.36-.13l1.08.51a2.22,2.22,0,0,0,.29-.61,5.42,5.42,0,0,0-.42-1.15l-1.69.61A2.21,2.21,0,0,1,142.17,92.16Z"/><path class="cls-1" d="M143.79,93.88c.43.35,1.08.22,1.25,1,.09,0,.3,0,.36-.13a1,1,0,0,0-.13-1.46c-.18-.24-.78-.22-1.1,0A2.78,2.78,0,0,0,143.79,93.88Z"/><path class="cls-1" d="M142.59,100.85c-.75-.43-1.28-.23-1.68.61.36.18.81.31,1.17.48s.49.23.63.08a.6.6,0,0,0,0-.81C142.6,101.15,142.63,100.94,142.59,100.85Z"/><path class="cls-1" d="M137.56,105a.64.64,0,0,0,.53.61A3.59,3.59,0,0,0,140,105c.09,0,.17-.37.17-.37-.15-.14-.42-.34-.6-.28A7.61,7.61,0,0,0,137.56,105Z"/><path class="cls-1" d="M141.88,109.46c.76.43,1.29.24,1.69-.61-.36-.17-.82-.31-1.18-.48s-.48-.23-.63-.07a.61.61,0,0,0,0,.81C141.87,109.16,141.82,109.28,141.88,109.46Z"/><path class="cls-1" d="M62.05,137.83a.63.63,0,0,0,.52.61c.36.18.87.19.89.79.58-.31.7-.55.57-.91-.14-.66-.53-.92-1.15-.69A2.53,2.53,0,0,0,62.05,137.83Z"/><path class="cls-1" d="M120.76,124c-.43.76-.24,1.29.61,1.69.17-.36.31-.81.48-1.18s.22-.48.07-.63a.6.6,0,0,0-.81,0C121.06,124,120.85,124,120.76,124Z"/><path class="cls-1" d="M88,137.8l1.15-.42c.49-.88.37-.94-.37-1.58C88.11,137,88,137,88,137.8Z"/><path class="cls-1" d="M86.7,139.17c.31.59.55.71.91.58.74-.17.91-.53.69-1.15l-.29-.8c-.57.1-.62.52-.79.88S87,139.17,86.7,139.17Z"/><path class="cls-1" d="M77.4,141.08c.61-.53.61-.53,1-1.88-1-.16-1.05-.13-1.45.72Z"/><path class="cls-1" d="M78.62,142c-.43-.35-1.08-.22-1.25-1-.09,0-.3,0-.36.13a1,1,0,0,0,.13,1.46c.18.24.78.22,1.1,0S78.5,142.19,78.62,142Z"/><path class="cls-1" d="M82.47,146.92c-.06.12-.12.24-.17.36s.13.36.54.41l1.6-.58.17-.36c0-.21-.13-.36-.55-.41Z"/><path class="cls-1" d="M85.73,156c-.2.27-.31.51-.07.63l.36.17,1.6-.58c.2-.27.23-.48.07-.63l-.36-.17Z"/><path class="cls-1" d="M48.44,5.85c.43-.76.24-1.29-.61-1.69A1.06,1.06,0,0,0,48.44,5.85Z"/><path class="cls-1" d="M20.05,16.12l.8-.29a6,6,0,0,0-.45-1.25c-.22-.32-.51-.31-.63-.07s-.2.27-.17.36Z"/><path class="cls-1" d="M23.43,17.71a5.1,5.1,0,0,0,1.15-.42c.18-.06.32-.51.29-.6a.62.62,0,0,0-.75-.13,2.23,2.23,0,0,0-.65.43C23.21,17.09,23.21,17.39,23.43,17.71Z"/><path class="cls-1" d="M14.64,29.24a.64.64,0,0,0,.53.61c.33.08.47-.37.27-.9l-.12-.36L15,28.42c-.21,0-.35.13-.43.46C14.46,29,14.61,29.15,14.64,29.24Z"/><path class="cls-1" d="M15.53,31.43c.34.38,1.23.06,1.34-.48a.19.19,0,0,0-.1-.27c-.34-.38-1.23-.06-1.33.48Z"/><path class="cls-1" d="M91.43,8c.53-.2.79-.59.52-.79a.59.59,0,0,0-.81,0l-.35.12c-.2.28-.32.52-.08.63s.28.21.37.17Z"/><path class="cls-1" d="M10.4,43.35c-.76-.43-1.29-.24-1.69.61C9.56,44.35,10.09,44.16,10.4,43.35Z"/><path class="cls-1" d="M110.88,10.23a.62.62,0,0,0-.61.52c0,.42.4.56.93.37l.36-.13c0-.12.11-.24.17-.36s-.13-.36-.46-.44A.52.52,0,0,0,110.88,10.23Z"/><path class="cls-1" d="M116.66,11a5.29,5.29,0,0,0-.42-1.15c-.06-.18-.51-.32-.6-.29a.62.62,0,0,0-.13.75,1.94,1.94,0,0,0,.43.65A.48.48,0,0,0,116.66,11Z"/><path class="cls-1" d="M122.24,10c-.38.34-.06,1.23.48,1.34a.18.18,0,0,0,.27-.1c.38-.34.06-1.23-.48-1.34Z"/><path class="cls-1" d="M114.56,15.43c.19.54.59.8.79.52a.6.6,0,0,0,0-.8l-.13-.36c-.27-.2-.52-.32-.63-.07s-.2.27-.17.36Z"/><path class="cls-1" d="M120.93,15c.54-.19.8-.59.52-.79a.59.59,0,0,0-.8,0l-.36.13c-.2.27-.31.51-.07.63s.27.2.36.17Z"/><path class="cls-1" d="M122.79,22.72A5.18,5.18,0,0,0,124,22.3c.18-.07.31-.52.28-.61a.65.65,0,0,0-.75-.13,2.22,2.22,0,0,0-.64.44A.49.49,0,0,0,122.79,22.72Z"/><path class="cls-1" d="M133.65,26.13l.27-.09a1,1,0,0,0-.48-1.34l-.27.1c-.06.12-.2.27-.17.36.1.27.19.54.29.8C133.32,26.05,133.53,26.08,133.65,26.13Z"/><path class="cls-1" d="M1.69,75.54C.93,75.11.4,75.3,0,76.15A1.16,1.16,0,0,0,1.69,75.54Z"/><path class="cls-1" d="M7.52,94.68c.75.43,1.28.24,1.68-.61C8.36,93.67,7.82,93.87,7.52,94.68Z"/><path class="cls-1" d="M139,52.28a.63.63,0,0,0,.61-.52,1.19,1.19,0,0,0-.38-1.07.6.6,0,0,0-.81,0Z"/><path class="cls-1" d="M15.22,99.64l.26-.09A1,1,0,0,0,15,98.21l-.26.1c-.06.12-.21.27-.17.36l.28.8C14.89,99.56,15.1,99.59,15.22,99.64Z"/><path class="cls-1" d="M149,72.39c-.75-.43-1.28-.24-1.68.61C148.15,73.4,148.69,73.2,149,72.39Z"/><path class="cls-1" d="M37.14,115.15a5.29,5.29,0,0,0-1.15.42c-.18.06-.32.51-.28.6a.6.6,0,0,0,.74.13,1.94,1.94,0,0,0,.65-.43C37.33,115.68,37.36,115.47,37.14,115.15Z"/><path class="cls-1" d="M146.36,80.38a5.7,5.7,0,0,0,.41,1.16.76.76,0,0,0,.61.28.65.65,0,0,0,.13-.75,2.41,2.41,0,0,0-.44-.65A.49.49,0,0,0,146.36,80.38Z"/><path class="cls-1" d="M44.59,125.53c.73-.46.81-.79.23-1.59,0-.09-.24-.11-.36-.17s-.15.15-.24.19-.11.24-.08.33Z"/><path class="cls-1" d="M43.79,125.82a5.29,5.29,0,0,0-.42-1.15c-.06-.18-.51-.32-.6-.29a.63.63,0,0,0-.13.75,2.45,2.45,0,0,0,.43.65A.49.49,0,0,0,43.79,125.82Z"/><path class="cls-1" d="M143.54,90.66c.73-.47.81-.8.23-1.6,0-.08-.25-.11-.37-.17s-.14.16-.23.19a.49.49,0,0,0-.08.33Z"/><path class="cls-1" d="M39.14,132.13c.43-.76.24-1.29-.61-1.69C38.14,131.29,38.33,131.82,39.14,132.13Z"/><path class="cls-1" d="M147.82,94.74a5.29,5.29,0,0,0,1.15-.42c.18-.06.31-.51.28-.6a.62.62,0,0,0-.75-.13,2.18,2.18,0,0,0-.64.43C147.53,94.24,147.63,94.51,147.82,94.74Z"/><path class="cls-1" d="M48.3,134.45c-.43.76-.24,1.29.61,1.69C49.31,135.29,49.11,134.76,48.3,134.45Z"/><path class="cls-1" d="M58.9,136.05l.27-.1a.94.94,0,0,0-.48-1.33l-.27.09c-.06.13-.2.28-.17.37l.29.8C58.57,136,58.78,136,58.9,136.05Z"/><path class="cls-1" d="M62.05,137.83c-.47-.74-.8-.82-1.59-.23-.09,0-.11.24-.17.36s.15.15.19.24.24.11.33.08A6.18,6.18,0,0,0,62.05,137.83Z"/><path class="cls-1" d="M57.05,140.64c-.43.76-.24,1.3.6,1.69A1.16,1.16,0,0,0,57.05,140.64Z"/><path class="cls-1" d="M90.49,136.9a.63.63,0,0,0,.52.61c.33.09.47-.37.28-.9l-.13-.36-.36-.17c-.21,0-.36.13-.44.46Z"/><path class="cls-1" d="M73.38,147.59a.63.63,0,0,0-.61.52c-.08.34.37.47.9.28l.36-.13.17-.36c0-.21-.13-.36-.46-.44C73.62,147.4,73.47,147.56,73.38,147.59Z"/><path class="cls-1" d="M75.29,142.74a5.86,5.86,0,0,0-1.15.42.76.76,0,0,0-.28.61.65.65,0,0,0,.75.13,2.22,2.22,0,0,0,.64-.44A.48.48,0,0,0,75.29,142.74Z"/><path class="cls-1" d="M85.92,146.78c-.37.34,0,1.23.49,1.33.12.06.2,0,.26-.1.38-.33.06-1.22-.48-1.33C86.07,146.62,86,146.74,85.92,146.78Z"/><path class="cls-1" d="M76.19,151.5c.76.43,1.29.24,1.69-.61C77,150.49,76.5,150.69,76.19,151.5Z"/><path class="cls-1" d="M83.54,159.1c.76.44,1.29.24,1.69-.61C84.38,158.1,83.85,158.29,83.54,159.1Z"/><path class="cls-1" d="M21.68,109c-.75-.43-1.29-.24-1.68.61C20.75,110,21.29,109.82,21.68,109Z"/><path class="cls-1" d="M112.88,142c.42-.76.23-1.29-.61-1.69A1.16,1.16,0,0,0,112.88,142Z"/><path class="cls-1" d="M101.36,148.15c.53-.19.79-.58.52-.79a.61.61,0,0,0-.81,0l-.35.13c-.2.28-.32.52-.08.63s.28.21.37.17S101.18,148.22,101.36,148.15Z"/><path class="cls-1" d="M51.24,1.29c0,.21.13.36.46.44l.17-.36c0-.21-.13-.36-.46-.44Z"/><path class="cls-1" d="M25.43,9.34c.21,0,.36-.13.44-.46l-.36-.17c-.21,0-.36.13-.44.46Z"/><path class="cls-1" d="M22.24,11.6c-.32-.59-.44-.64-1.09-.51C21.37,11.72,21.46,11.68,22.24,11.6Z"/><path class="cls-1" d="M22.36,12c0,.09.16.15.37.17a.32.32,0,0,0,.3,0c.2-.27.22-.48,0-.59s-.48-.23-.68,0C22.15,11.64,22.24,11.9,22.36,12Z"/><path class="cls-1" d="M38.3,7.2c.27.21.48.23.63.08l.17-.37c-.27-.2-.48-.22-.63-.07S38.36,7.08,38.3,7.2Z"/><path class="cls-1" d="M11,18.28c.21,0,.36-.13.44-.46l-.36-.17c-.21,0-.36.13-.44.46Z"/><path class="cls-1" d="M25.78,13.64s.27.21.36.17a.93.93,0,0,0,.32-.51c0-.42-.2-.54-.49-.23A2.11,2.11,0,0,0,25.78,13.64Z"/><path class="cls-1" d="M33.11,12.3c.09,0,.15-.16.17-.37a.33.33,0,0,0,0-.29c-.28-.21-.49-.23-.6,0s-.23.48,0,.69C32.76,12.43,32.94,12.36,33.11,12.3Z"/><path class="cls-1" d="M16.26,18.39c.59-.31.64-.43.51-1.09C16.18,17.62,16.12,17.74,16.26,18.39Z"/><path class="cls-1" d="M14.67,18.16s-.2.28-.17.37.34.38.52.31c.41.05.53-.19.22-.48C15.18,18.18,14.88,18.19,14.67,18.16Z"/><path class="cls-1" d="M6.88,21.58l.17-.36c-.28-.2-.49-.23-.63-.07l-.17.36C6.55,21.8,6.73,21.74,6.88,21.58Z"/><path class="cls-1" d="M64.58,2.06l.36.17c.2-.27.23-.48.07-.63l-.36-.17C64.45,1.71,64.43,1.92,64.58,2.06Z"/><path class="cls-1" d="M46.7,8c0-.21-.12-.36-.45-.44l-.17.36c0,.21.12.36.45.44C46.62,8.32,46.65,8.11,46.7,8Z"/><path class="cls-1" d="M32.15,13.25s.28.2.37.17a.94.94,0,0,0,.31-.52c.05-.42-.19-.53-.48-.22C32.26,12.71,32.18,13,32.15,13.25Z"/><path class="cls-1" d="M27.81,14.82c0-.21-.13-.36-.46-.44l-.17.37c0,.21.13.35.46.43C27.72,15.15,27.75,14.94,27.81,14.82Z"/><path class="cls-1" d="M15.46,18.68c.31.59.55.71.79.52a.61.61,0,0,0,0-.81Z"/><path class="cls-1" d="M13.88,19.86c0-.21-.13-.36-.46-.44l-.17.36c0,.21.13.36.46.44Z"/><path class="cls-1" d="M29.4,15.35c.21,0,.36-.13.44-.46l-.37-.17c-.21,0-.35.13-.43.46Z"/><path class="cls-1" d="M58.43,5.76c.21,0,.36-.13.44-.46l-.36-.17c-.21,0-.36.12-.44.46C58.1,5.67,58.31,5.7,58.43,5.76Z"/><path class="cls-1" d="M50.86,8.39l.36.18c.21-.28.23-.49.08-.64l-.36-.17A.42.42,0,0,0,50.86,8.39Z"/><path class="cls-1" d="M44.3,10.77l.36.17c.2-.27.22-.48.07-.63l-.36-.17A.42.42,0,0,0,44.3,10.77Z"/><path class="cls-1" d="M39.43,12s-.2.28-.17.37.34.38.52.31c.42.05.53-.19.23-.48A1,1,0,0,0,39.43,12Z"/><path class="cls-1" d="M69,2.75c0-.21-.13-.36-.46-.44l-.17.36c0,.21.13.36.46.44C68.9,3.08,68.93,2.87,69,2.75Z"/><path class="cls-1" d="M60.49,6.72l.36.17c.2-.27.23-.48.07-.63l-.36-.17C60.36,6.37,60.33,6.58,60.49,6.72Z"/><path class="cls-1" d="M15.86,22.86c0-.21-.13-.35-.46-.44l-.17.37c0,.21.13.35.46.44C15.69,23.23,15.8,23,15.86,22.86Z"/><path class="cls-1" d="M13.69,23.24l-.17.37c.28.2.48.23.63.07l.17-.36C14.05,23.12,13.84,23.09,13.69,23.24Z"/><path class="cls-1" d="M18.06,22.57l-.17.36c.27.21.48.23.63.08l.17-.37C18.42,22.44,18.21,22.42,18.06,22.57Z"/><path class="cls-1" d="M74.32,3.63l.36.17c.2-.27.22-.48.07-.63L74.39,3C74.19,3.28,74.16,3.49,74.32,3.63Z"/><path class="cls-1" d="M16.75,24l-.17.36c.28.2.49.23.63.08l.17-.37C17.11,23.82,16.9,23.8,16.75,24Z"/><path class="cls-1" d="M13.23,27.54l.36.17c.2-.28.23-.49.08-.63l-.37-.17C13.1,27.18,13.08,27.39,13.23,27.54Z"/><path class="cls-1" d="M94.46.17,94.09,0c-.2.27-.22.48-.07.63l.36.17A.4.4,0,0,0,94.46.17Z"/><path class="cls-1" d="M16.16,27.58c.21,0,.35-.12.43-.46L16.23,27c-.21,0-.36.13-.44.46Z"/><path class="cls-1" d="M99,.24c-.21,0-.35.13-.43.46l.36.17c.21,0,.35-.13.44-.46Z"/><path class="cls-1" d="M19.81,28.27c-.31-.59-.55-.7-.79-.52a.61.61,0,0,0,0,.81Z"/><path class="cls-1" d="M77,8.39c.21,0,.35-.13.44-.46l-.37-.17c-.21,0-.35.12-.43.46Z"/><path class="cls-1" d="M15.33,32.81s-.2.28-.17.36.34.39.51.32c.42,0,.54-.19.23-.48C15.84,32.83,15.54,32.84,15.33,32.81Z"/><path class="cls-1" d="M106,4c.05-.12.17-.36.17-.36-.28-.21-.49-.23-.63-.08l-.17.36C105.63,4.14,105.84,4.16,106,4Z"/><path class="cls-1" d="M98.19,4l-.36-.17c-.2.27-.23.48-.07.63l.36.17A.42.42,0,0,0,98.19,4Z"/><path class="cls-1" d="M88.35,7.51,88,7.34c-.2.28-.22.49-.07.63l.36.17A.42.42,0,0,0,88.35,7.51Z"/><path class="cls-1" d="M111.56.52c0,.21.13.36.46.44l.17-.36c0-.22-.13-.36-.46-.44C111.7.07,111.62.4,111.56.52Z"/><path class="cls-1" d="M11.09,38.87c-.2.27-.22.48-.07.63l.36.17c.2-.27.23-.48.08-.63Z"/><path class="cls-1" d="M110.07,4.08c-.2.28-.22.49-.07.63l.36.17c.2-.27.23-.48.07-.63S110.19,4.14,110.07,4.08Z"/><path class="cls-1" d="M104.43,6.22c-.21,0-.36.13-.44.46l.36.17c.21,0,.36-.12.44-.46Z"/><path class="cls-1" d="M118.74,5.5c0-.21-.13-.36-.46-.44l-.17.36c0,.21.13.36.46.44Z"/><path class="cls-1" d="M112.32,4.48,112,4.3c-.2.28-.23.49-.08.64l.37.17C112.45,4.83,112.47,4.62,112.32,4.48Z"/><path class="cls-1" d="M100.2,9c.27.2.48.23.63.07s.17-.36.17-.36c-.28-.2-.49-.23-.63-.07S100.25,8.84,100.2,9Z"/><path class="cls-1" d="M14.13,39.78s-.2.28-.17.37.34.38.51.31c.42,0,.54-.19.23-.48A.94.94,0,0,0,14.13,39.78Z"/><path class="cls-1" d="M112.69,8.57c.06-.12.17-.37.17-.37-.27-.2-.48-.22-.63-.07l-.17.36C112.33,8.7,112.54,8.72,112.69,8.57Z"/><path class="cls-1" d="M112.88,10.21l.36.17c.2-.28.23-.49.08-.63L113,9.58A.4.4,0,0,0,112.88,10.21Z"/><path class="cls-1" d="M116.79,11.31c0,.09.15.15.36.17a.32.32,0,0,0,.3,0c.2-.27.22-.48,0-.59s-.48-.23-.68,0A.52.52,0,0,0,116.79,11.31Z"/><path class="cls-1" d="M2,55l.17-.36c-.28-.21-.49-.23-.63-.08l-.17.36C1.66,55.11,1.87,55.13,2,55Z"/><path class="cls-1" d="M127.51,12.58l.17-.36c-.27-.21-.48-.23-.62-.08s-.17.37-.17.37C127.16,12.71,127.37,12.73,127.51,12.58Z"/><path class="cls-1" d="M3.58,56.53c-.21,0-.36.13-.44.46l.36.17c.21,0,.36-.13.44-.46A.75.75,0,0,1,3.58,56.53Z"/><path class="cls-1" d="M118.74,14.52c0-.21-.12-.35-.45-.43,0,0-.12.24-.17.36s.12.36.45.44C118.57,14.89,118.69,14.65,118.74,14.52Z"/><path class="cls-1" d="M3.35,49.11c.27.21.48.23.63.08l.17-.36c-.28-.21-.49-.23-.63-.08Z"/><path class="cls-1" d="M.62,60l.36.17c.2-.27.23-.48.08-.63l-.37-.17A.43.43,0,0,0,.62,60Z"/><path class="cls-1" d="M8.72,56.23l.36.17c.2-.28.23-.49.07-.63l-.36-.17C8.59,55.87,8.56,56.08,8.72,56.23Z"/><path class="cls-1" d="M118.68,19.08c0,.08.15.14.36.17a.38.38,0,0,0,.3,0c.2-.28.23-.49,0-.6s-.48-.23-.68.05C118.55,18.72,118.61,18.9,118.68,19.08Z"/><path class="cls-1" d="M126.09,22.13c0-.21-.13-.36-.46-.44l-.17.36c0,.21.13.36.46.44C126,22.46,126,22.25,126.09,22.13Z"/><path class="cls-1" d="M132.12,21.05l.17-.36c-.27-.2-.48-.23-.63-.08s-.17.37-.17.37A.42.42,0,0,0,132.12,21.05Z"/><path class="cls-1" d="M131.62,22.44c-.21,0-.35.13-.44.46l.37.17c.21,0,.35-.13.43-.46C132.07,22.58,131.74,22.5,131.62,22.44Z"/><path class="cls-1" d="M5.16,69.18,5,69.54c.27.21.48.23.62.08l.18-.36C5.51,69.05,5.3,69,5.16,69.18Z"/><path class="cls-1" d="M6.53,70.49l-.17.37c.28.2.48.23.63.07l.17-.36C6.89,70.37,6.68,70.34,6.53,70.49Z"/><path class="cls-1" d="M126,28.42c0,.21.13.35.46.43l.17-.36c0-.21-.13-.36-.46-.44C126,28.08,126,28.29,126,28.42Z"/><path class="cls-1" d="M6.1,77.39c0,.21.13.35.46.44l.17-.37c0-.21-.12-.35-.46-.43C6.15,77,6.16,77.27,6.1,77.39Z"/><path class="cls-1" d="M135.64,35.27c.27.21.48.23.62.08s.17-.37.17-.37c-.27-.2-.48-.22-.62-.07S135.69,35.15,135.64,35.27Z"/><path class="cls-1" d="M134.8,37.69l.36.17c.21-.28.23-.49.08-.63l-.36-.17A.4.4,0,0,0,134.8,37.69Z"/><path class="cls-1" d="M138.15,39.19l.36.17c.2-.27.23-.48.08-.63l-.37-.17C138,38.84,138,39.05,138.15,39.19Z"/><path class="cls-1" d="M141.82,41.59l.36.17c.2-.28.23-.49.08-.63l-.37-.17C141.69,41.23,141.67,41.44,141.82,41.59Z"/><path class="cls-1" d="M10.24,88.87c0,.21.13.36.46.44l.17-.37c0-.21-.13-.35-.46-.43C10.32,88.54,10.29,88.75,10.24,88.87Z"/><path class="cls-1" d="M8.38,89.84c0-.21-.13-.35-.46-.44l-.17.37c0,.21.13.35.46.44C8.3,90.17,8.32,90,8.38,89.84Z"/><path class="cls-1" d="M139.68,44.27c0-.21-.13-.35-.46-.44,0,0-.11.25-.17.37s.13.35.46.44C139.51,44.64,139.62,44.39,139.68,44.27Z"/><path class="cls-1" d="M4.57,92.63c-.21,0-.35.13-.44.46l.37.17c.21,0,.35-.13.43-.46Z"/><path class="cls-1" d="M138.11,46.05c.09,0,.15-.16.17-.37a.35.35,0,0,0,0-.3c-.27-.2-.48-.22-.59,0s-.23.48,0,.69C137.79,46.26,138.05,46.17,138.11,46.05Z"/><path class="cls-1" d="M144,46.49c-.2.27-.23.48-.08.63l.36.17c.21-.27.23-.48.08-.63S144.17,46.51,144,46.49Z"/><path class="cls-1" d="M137.15,47s.27.2.36.17a1,1,0,0,0,.32-.52c0-.42-.2-.53-.49-.23C137.26,46.46,137.26,46.76,137.15,47Z"/><path class="cls-1" d="M143.87,57c.09,0,.15-.15.17-.36a.31.31,0,0,0,0-.3c-.27-.21-.48-.23-.59,0s-.23.49.05.69C143.6,57.14,143.78,57.07,143.87,57Z"/><path class="cls-1" d="M143.8,58l-.28-.8c-.59.31-.65.43-.51,1.09Z"/><path class="cls-1" d="M143.93,58.32c0,.09.16.15.36.18a.38.38,0,0,0,.3,0c.21-.28.23-.49,0-.6s-.48-.23-.69,0A.59.59,0,0,0,143.93,58.32Z"/><path class="cls-1" d="M145.47,52.8c.21,0,.35-.13.43-.46l-.36-.17c-.21,0-.35.13-.43.46C145.14,52.72,145.35,52.74,145.47,52.8Z"/><path class="cls-1" d="M24.76,104.44c0-.21-.12-.36-.45-.44,0,0-.12.24-.17.36s.12.36.45.44C24.68,104.77,24.71,104.56,24.76,104.44Z"/><path class="cls-1" d="M26.12,105.15l.8-.29c-.31-.59-.55-.7-.79-.51A.63.63,0,0,0,26.12,105.15Z"/><path class="cls-1" d="M25.61,105.94s.27.21.36.17.38-.33.31-.51c0-.42-.19-.54-.48-.23A.93.93,0,0,0,25.61,105.94Z"/><path class="cls-1" d="M26.22,107.64l.36.17c.2-.28.22-.49.07-.63l-.36-.18C26.09,107.28,26.06,107.49,26.22,107.64Z"/><path class="cls-1" d="M147.34,64.74l.37.17c.2-.28.22-.49.07-.63l-.36-.17C147.21,64.38,147.19,64.59,147.34,64.74Z"/><path class="cls-1" d="M27.59,109s.27.2.36.17.38-.34.32-.52c.05-.42-.19-.53-.49-.22A.93.93,0,0,0,27.59,109Z"/><path class="cls-1" d="M149.55,67c0-.12.17-.37.17-.37-.28-.2-.49-.22-.63-.07l-.17.36C149.19,67.09,149.4,67.11,149.55,67Z"/><path class="cls-1" d="M148.24,69.74c0,.21.13.36.46.44l.17-.36c0-.21-.13-.36-.46-.44C148.32,69.41,148.3,69.62,148.24,69.74Z"/><path class="cls-1" d="M146.07,72.34l-.36-.17c-.21.27-.23.48-.08.63L146,73A.4.4,0,0,0,146.07,72.34Z"/><path class="cls-1" d="M150.56,73.13c.21,0,.36-.13.44-.46l-.36-.17c-.21,0-.36.13-.44.46C150.11,73,150.44,73.07,150.56,73.13Z"/><path class="cls-1" d="M34.33,114.86s.27.2.36.17a1,1,0,0,0,.32-.52c.05-.42-.19-.53-.49-.22C34.47,114.41,34.44,114.62,34.33,114.86Z"/><path class="cls-1" d="M26.71,119.32c0,.22.13.36.46.44l.17-.36c0-.21-.13-.36-.46-.44C26.85,118.87,26.74,119.11,26.71,119.32Z"/><path class="cls-1" d="M25,120.26c0-.2-.13-.35-.46-.43l-.17.36c0,.21.12.36.46.44Z"/><path class="cls-1" d="M34,119.72c0-.21-.13-.36-.46-.44l-.17.36c0,.21.13.36.46.44C33.92,120.14,33.92,119.84,34,119.72Z"/><path class="cls-1" d="M149.84,78.92c.21,0,.36-.13.44-.46l-.37-.17c-.2,0-.35.13-.43.46C149.51,78.84,149.72,78.86,149.84,78.92Z"/><path class="cls-1" d="M36.24,119.9l.37.17c.2-.27.22-.48.07-.63l-.36-.17A.42.42,0,0,0,36.24,119.9Z"/><path class="cls-1" d="M43.68,122.74s.28.2.37.17.38-.34.31-.51c0-.42-.19-.54-.48-.23C43.79,122.2,43.71,122.53,43.68,122.74Z"/><path class="cls-1" d="M37.63,125.13l.17-.36c-.28-.2-.49-.23-.63-.07l-.17.36C37.27,125.26,37.48,125.29,37.63,125.13Z"/><path class="cls-1" d="M41,125.32c0,.21.13.36.46.44l.17-.36c0-.21-.13-.36-.46-.44C41.08,125,41.06,125.2,41,125.32Z"/><path class="cls-1" d="M30.84,129.4,31,129c-.27-.21-.48-.23-.63-.08l-.17.36C30.48,129.53,30.69,129.55,30.84,129.4Z"/><path class="cls-1" d="M44.59,125.53l-.8.29c.31.59.55.71.79.52A.6.6,0,0,0,44.59,125.53Z"/><path class="cls-1" d="M42.09,127.24l.17-.36c-.27-.21-.48-.23-.62-.08l-.17.37C41.74,127.37,42,127.39,42.09,127.24Z"/><path class="cls-1" d="M146.79,91.89c.27.21.48.23.63.08s.17-.37.17-.37c-.28-.2-.49-.22-.63-.07S146.85,91.77,146.79,91.89Z"/><path class="cls-1" d="M150.48,92.67l.17-.36c-.27-.2-.48-.23-.63-.08l-.17.37A.43.43,0,0,0,150.48,92.67Z"/><path class="cls-1" d="M147.21,95.56s.27.21.36.18.38-.34.32-.52c0-.42-.2-.54-.49-.23C147.31,95,147.23,95.35,147.21,95.56Z"/><path class="cls-1" d="M54.17,130.42c.09,0,.14-.16.17-.37a.36.36,0,0,0,0-.29c-.27-.21-.48-.23-.6,0s-.22.49.05.69A.24.24,0,0,0,54.17,130.42Z"/><path class="cls-1" d="M144.74,98.47c.21,0,.36-.13.44-.46l-.36-.17c-.21,0-.36.13-.44.46C144.41,98.39,144.62,98.41,144.74,98.47Z"/><path class="cls-1" d="M53.3,131.34s.27.2.36.17A1,1,0,0,0,54,131c.05-.42-.19-.53-.48-.23A.92.92,0,0,0,53.3,131.34Z"/><path class="cls-1" d="M143.13,99.55c0,.21.13.36.46.44l.17-.36c0-.21-.13-.36-.46-.44Z"/><path class="cls-1" d="M56.13,136.15c.21,0,.35-.13.44-.46l-.37-.17c-.21,0-.35.13-.43.46Z"/><path class="cls-1" d="M137.64,106.87s-.2.27-.17.36.34.38.52.32c.41,0,.53-.19.22-.48C138.18,107,137.85,106.89,137.64,106.87Z"/><path class="cls-1" d="M139.55,108c-.31-.59-.44-.65-1.09-.51C138.77,108.07,138.9,108.13,139.55,108Z"/><path class="cls-1" d="M139.68,108.35c0,.09.15.14.36.17a.38.38,0,0,0,.3,0c.2-.27.22-.48,0-.6s-.48-.23-.68,0C139.55,108,139.64,108.26,139.68,108.35Z"/><path class="cls-1" d="M136.39,109.53c0,.09.16.15.37.18a.36.36,0,0,0,.29,0c.21-.28.23-.49,0-.6s-.48-.23-.69.05C136.18,109.21,136.36,109.44,136.39,109.53Z"/><path class="cls-1" d="M52.29,142.46c-.21,0-.36.13-.44.46l.36.18c.21,0,.36-.13.44-.46Z"/><path class="cls-1" d="M49.83,145.67c0-.21-.13-.36-.46-.44l-.17.36c0,.21.13.36.46.44C49.75,146,49.77,145.79,49.83,145.67Z"/><path class="cls-1" d="M139.25,115.24c0-.21-.13-.35-.46-.44l-.17.37c0,.21.13.35.46.43Z"/><path class="cls-1" d="M80.89,136.14c.28.21.49.23.63.08l.17-.37c-.27-.2-.48-.22-.63-.07S81,136,80.89,136.14Z"/><path class="cls-1" d="M59.75,144l.37.17c.2-.27.22-.48.07-.63l-.36-.17C59.63,143.63,59.6,143.84,59.75,144Z"/><path class="cls-1" d="M53.12,148.4c.21,0,.35-.13.44-.46l-.37-.17c-.21,0-.35.13-.43.46Z"/><path class="cls-1" d="M124.73,122.81l-.17.36c.27.2.48.23.62.07l.17-.36C125.08,122.68,124.87,122.65,124.73,122.81Z"/><path class="cls-1" d="M60.55,146.21c0,.21.13.36.46.44l.17-.36c0-.21-.12-.36-.46-.44C60.69,145.76,60.61,146.09,60.55,146.21Z"/><path class="cls-1" d="M117.2,127.24c.09,0,.14-.15.17-.36a.38.38,0,0,0,0-.3c-.27-.21-.48-.23-.6,0s-.22.49,0,.69C116.84,127.37,117,127.3,117.2,127.24Z"/><path class="cls-1" d="M116.24,128.19s.27.2.36.17a1,1,0,0,0,.31-.51c0-.42-.19-.54-.48-.23C116.34,127.65,116.26,128,116.24,128.19Z"/><path class="cls-1" d="M85.91,138.65s-.2.28-.17.37a1,1,0,0,0,.51.32c.42,0,.54-.2.23-.49C86.42,138.67,86.12,138.68,85.91,138.65Z"/><path class="cls-1" d="M62.34,147.28c-.21,0-.35.13-.43.46l.36.17c.21,0,.35-.13.43-.46C62.67,147.36,62.46,147.34,62.34,147.28Z"/><path class="cls-1" d="M64.7,147.43c0,.21.13.36.46.44l.17-.36c0-.22-.13-.36-.46-.44Z"/><path class="cls-1" d="M53.79,151.38l-.36-.17c-.2.27-.23.48-.08.63l.37.17A.43.43,0,0,0,53.79,151.38Z"/><path class="cls-1" d="M59,150.5l-.36-.17c-.2.28-.23.49-.08.63l.37.17C59.12,150.86,59.14,150.65,59,150.5Z"/><path class="cls-1" d="M99.48,137.37c.09,0,.15-.16.17-.37a.35.35,0,0,0,0-.3c-.28-.2-.49-.22-.6,0s-.23.48,0,.69C99.13,137.49,99.31,137.43,99.48,137.37Z"/><path class="cls-1" d="M51.21,154.52c0-.21-.13-.35-.46-.44,0,0-.11.25-.17.37s.13.35.46.43Z"/><path class="cls-1" d="M57.27,153.24c0-.21-.13-.36-.46-.44l-.17.36c0,.21.13.36.46.44A.65.65,0,0,1,57.27,153.24Z"/><path class="cls-1" d="M49,156.22c0-.21-.13-.35-.46-.44l-.17.37c0,.21.13.35.46.44C48.85,156.59,49,156.34,49,156.22Z"/><path class="cls-1" d="M88.79,142.74c0-.21-.13-.35-.46-.43l-.17.36c0,.21.13.36.46.44C88.65,143.2,88.67,143,88.79,142.74Z"/><path class="cls-1" d="M94.53,141.17c-.2,0-.35.13-.43.46l.36.17c.21,0,.36-.13.44-.46Z"/><path class="cls-1" d="M73.23,150c.27.2.48.23.63.07l.17-.36c-.27-.2-.48-.23-.63-.07S73.38,149.8,73.23,150Z"/><path class="cls-1" d="M64.13,155.59c.21,0,.35-.13.43-.46L64.2,155c-.21,0-.35.13-.43.46Z"/><path class="cls-1" d="M56.54,157.63s-.2.27-.17.36a.91.91,0,0,0,.51.31c.42,0,.54-.19.23-.48A1.81,1.81,0,0,0,56.54,157.63Z"/><path class="cls-1" d="M133.64,119.48c0-.21-.13-.35-.46-.44,0,0-.11.25-.17.37s.13.35.46.44Z"/><path class="cls-1" d="M102,142.69l.36.17c.21-.27.23-.48.08-.63l-.36-.17C101.87,142.34,101.85,142.55,102,142.69Z"/><path class="cls-1" d="M57.49,158.59c0,.09.15.15.36.17a.32.32,0,0,0,.3,0c.2-.27.23-.48,0-.6s-.48-.22-.68,0C57.27,158.26,57.34,158.44,57.49,158.59Z"/><path class="cls-1" d="M75.19,140.77l.17-.36c-.28-.2-.49-.23-.63-.07l-.17.36C74.83,140.9,75,140.93,75.19,140.77Z"/><path class="cls-1" d="M61.75,160.67l-.37-.17c-.2.27-.22.48-.07.63l.36.17C61.87,161,61.9,160.82,61.75,160.67Z"/><path class="cls-1" d="M59.11,162.83l.37.17c.2-.27.22-.48.07-.63l-.36-.17C59,162.47,59,162.68,59.11,162.83Z"/><path class="cls-1" d="M79.47,143.75l.36.17c.2-.27.22-.48.07-.63l-.36-.17A.42.42,0,0,0,79.47,143.75Z"/><path class="cls-1" d="M76.38,145.47c0,.21.12.36.45.44,0,0,.12-.24.17-.36s-.12-.36-.45-.44Z"/><path class="cls-1" d="M131.18,129.6c-.21,0-.35.13-.43.46l.36.18c.21,0,.35-.13.43-.47Z"/><path class="cls-1" d="M79.93,149.35c0-.21-.13-.36-.46-.44l-.17.36c0,.21.13.36.46.44Z"/><path class="cls-1" d="M100.9,157.17c.21,0,.35-.12.43-.46l-.36-.17c-.21,0-.35.13-.43.46C100.57,157.09,100.78,157.12,100.9,157.17Z"/><path class="cls-1" d="M90.84,160.71l.36.17c.2-.27.23-.48.08-.63l-.37-.17C90.71,160.35,90.69,160.57,90.84,160.71Z"/><path class="cls-1" d="M90.75,150.16l.36.17c.21-.27.23-.48.08-.63l-.36-.17C90.5,149.75,90.57,149.93,90.75,150.16Z"/><path class="cls-1" d="M118,139.31l.17-.36c-.27-.21-.48-.23-.63-.08s-.17.37-.17.37A.4.4,0,0,0,118,139.31Z"/><path class="cls-1" d="M118.32,141.52c0,.21.13.35.46.44,0,0,.12-.25.17-.37s-.13-.35-.46-.44C118.49,141.15,118.38,141.4,118.32,141.52Z"/><path class="cls-1" d="M116.73,143.5l.17-.36c-.27-.21-.48-.23-.63-.08s-.17.37-.17.37C116.38,143.63,116.59,143.65,116.73,143.5Z"/><path class="cls-1" d="M149.39,105.54l.17-.37c-.27-.2-.48-.22-.63-.07s-.17.36-.17.36A.4.4,0,0,0,149.39,105.54Z"/><path class="cls-1" d="M107.56,141.69c-.21,0-.36.13-.44.46l.36.17c.21,0,.36-.13.44-.46C108,141.83,107.68,141.75,107.56,141.69Z"/><path class="cls-1" d="M94.72,153.65c0,.22.13.36.46.44l.17-.36c0-.21-.13-.36-.46-.44C94.86,153.2,94.77,153.53,94.72,153.65Z"/><path class="cls-1" d="M99.28,149.61l.36.17c.2-.27.23-.48.07-.63l-.36-.17C99,149.2,99.09,149.38,99.28,149.61Z"/><path class="cls-1" d="M96.93,145.33l.37.17c.2-.27.22-.48.07-.63L97,144.7C96.81,145,96.78,145.18,96.93,145.33Z"/><path class="cls-1" d="M138.09,120.39c0-.21-.13-.36-.46-.44l-.17.36c0,.21.13.36.46.44C137.92,120.75,138,120.51,138.09,120.39Z"/><path class="cls-1" d="M75.65,142.62c.09,0,.14-.16.17-.37a.35.35,0,0,0,0-.3c-.27-.2-.48-.22-.6,0s-.22.48.05.69C75.29,142.74,75.56,142.65,75.65,142.62Z"/></svg>