<svg id="Layer_1" data-name="Layer 1" xmlns="http://www.w3.org/2000/svg" viewBox="0 0 456 491"><defs><style>.cls-1{fill:#fff;}</style></defs><path class="cls-1" d="M299.11,393.35c1.9.23,3.07.11,3.36.91,1.14,2.32,2,4.73,2.95,6.51.34,2.61-3.75,2-.52,5,0,0,1.49-1.45,2.58-.94,0,2.44,1.2.8,1.26,3.5,1.46.69.54-3.24,2-2.55a9.74,9.74,0,0,1,2.83-.23c1.54.05,2.15-7.31,2.37-5.87.77,2.14,5.33-5.16,6.1-3,.29.81-1.43,2.52-1.14,3.32l2.55,1.21c.48,1.34,5.33-10.1,6.11-8-.35.73-.76,2.09-1.28,3.18,1.41,2.22,4.12-1.18,6.08,1.75,2.42,6.7-4.74-.71-2.13,6.53-.51,1.09,4,.39,3.45,1.48.58,1.61-3.33,1.51-2.85,2.85,1.19.78,3,.12,4.11.63-2,4.65,2.36-2.77,7.1-.54,2.72-.55-1.18-4.58-1.55-9,.34-.73,3.87,1.82,4.38.72-.09-.27,1.69-1.52,2.05-4.56.11-6.41-3.66-8.68-6.91-9.93-.83-.61-1.92-1.12-3.11-1.91.34-.72.32-1.62.86-1.82a18.56,18.56,0,0,1,3.75-1.35,2.35,2.35,0,0,0,1.66-2.11c-.59-1.61-1.16-3.22-1.84-5.1-1.58-1.85-4.12,1.18-5.79-.94.17-.36.24-1,.51-1.09,2.32-1.14,4.73-2,7-3.15,1.36.42,2.46.93,3.82,1.35a7.82,7.82,0,0,1,2.51-.6,25.19,25.19,0,0,0,3.55,1.44c1.85-1.57-1.18-4.11.94-5.79l1.09.52a4.46,4.46,0,0,0,2,.49,1.9,1.9,0,0,0,.4-2.26,1.8,1.8,0,0,1,0-2.44c.44-.46,1.07-.39,2.16.13,1.2.78,2.36.66,4.41-.38.49-2,1.15-4.35,1.74-6.08l8.58-3.09c1.26.15,1.82.85,1.48,1.58-.52,1.1-1.2,2.56-1.89,4-.8.3-2,1.05-3.11,1.43-1.34.49,1.41-1.11,1.09.52,1.09.51.39,1.07,1.48,1.58.39,1.08-.14,1.87,1.85,2.37a34.69,34.69,0,0,1,2.17-3.82c1.46.69,2.95-4.4,4.41-3.71.58,1.61,3.54,3.23,4.22,5.11,2.87-7.7,1.79-9.7,1.37-8.34.63-2,3-3.81,4.74,1-.51,1.09,1.22-.66,1.71-3.34.58,1.6.79-5.92,1.37-4.31,4.16.93-1.22,8.74,2.18,6.06-.83-.61,2.68.85,1.49.07-.49-1.34,3.93-1.23,3.35-2.83-1.19-.79,1.67-3.53.21-4.22-.87-2.41,4,.09,3.1-2.33.51-1.09-1.6-1.9-1.08-3-1.46-4,5.33,3.88,3.88-.14.42-1.36-2.23-2.83-1.54-4.29-2.13-5.9-4.07-.35-6.1-6,.22-1.9,1.76-1.85,3-2.6a25.17,25.17,0,0,0,3.55,1.45c.37.17.8-.29,1.34-.49l-1.35-3.75a25.06,25.06,0,0,1-3.38-1.81,18.88,18.88,0,0,0,1.27-3.19,26.91,26.91,0,0,0-3.38-1.81c-.89-3.31-1-3.58,2.23-4.74,2.18,1,4.64,2,6.83,3,.36.17.8-.29,1.07-.38-.48-1.35-.87-2.42-1.35-3.76a46.58,46.58,0,0,0,2.22-4.74,13.06,13.06,0,0,0,3.17-3l-2.19-1c-.73-.34-.65-1-.14-2.07a8.61,8.61,0,0,0,.66-2.36c-.48-1.34-.79-3.05.28-3.43s1.75,1.49,2.4,2.46c.2.54,1.66,1.23,1.83.86a1.91,1.91,0,0,0,.39-2.26c-.6-2.51-.33-2.61,2-3.75.27-.09.71-.56,1-.65l2.22-4.74c.17-.37-.29-.81-.38-1.08a1.92,1.92,0,0,1-2.44,0c-.82-.61-.21-1.43,2.1-2.57l-.53.19a1.77,1.77,0,0,1-.15-2.07c.35-.73.88-.92,1.81,0,.09.27-.08.63,0,.9a3.07,3.07,0,0,1-1.05,1.28,4.21,4.21,0,0,0,.33,2.61,16,16,0,0,0,3.49-1.26c.53-.19,1-1.55.75-2.09a45.42,45.42,0,0,0-2.12-5.89,1.93,1.93,0,0,1-2.44,0c-.82-.61-.21-1.43,1.57-2.38-.49-1.34-.87-2.41-1.36-3.75.69-1.46,1.64-3,2.5-4.84l6.69-2.42a9.4,9.4,0,0,0,2.47-5.74c-2.28-1.29-4.11,1.19-6,1a28,28,0,0,1-2,3.75l-2.41.87c-2.65-1.47-5.47-2.58-8.12-4,.34-.73.59-1.73,1.12-1.92,3.93-1.72,7.95-3.17,12-4.62.27-.1.35-.73.52-1.1a25.67,25.67,0,0,1-3.38-1.81c-.36-.17-.29-.8-.39-1.07a1.9,1.9,0,0,1-2.43,0c-.83-.61-.22-1.44,1.56-2.38l-.87-2.42-3.48,1.26a1.46,1.46,0,0,1-1-.25c-.36-.17-.73-.34-.56-.7s.25-1,.52-1.1c2.39-1.77,3.38-1.52,4.79.7a1.79,1.79,0,0,0,1.85-1.58c.32-1.63-1.16-3.22.43-4.7l2.14-.77a20.75,20.75,0,0,0,3.45,1.18c1.32-1.39.3-2.53-.28-4.14-1.46-.69-3.18-1.28-5.37-2.31-1.27-.15-2.93,2-5.29,1.3-.36-.17-.72-.34-.82-.61A1.26,1.26,0,0,1,424,231a8.8,8.8,0,0,1,2.59-1.24,42.72,42.72,0,0,1,2.32-4.47c-.07-2.7-1.48-4.92-2.08-7.43.13-2.17,1.35-3.82,2-5.28,1.42-1.12,2.39-1.77,3.54-2.79-2.55-1.2-4.84-2.5-7-3.53,1-2.18,1.89-4,2.74-5.83a1.26,1.26,0,0,0-1.38-1.32c-.37-.17-.81.29-1.34.48a1.8,1.8,0,0,1-2.44,0c-.55-.71.23-1.9,1.84-2.48l3.75-1.35a7.9,7.9,0,0,0,2.31-1.14l2.23-4.74c-2.21-1.93-4,.55-6.11.69-.73-.34-1.63-.32-2.36-.67-2.82-1.1-5.47-2.57-8.39-3.94-1.09-.51-1.46-.68-1.48-1.58a1.9,1.9,0,0,1,1.85-1.58l1.07-.39a6.89,6.89,0,0,0,6.06.85l2.56,1.2a8.68,8.68,0,0,0,5.62-2c.17-.37.88-.93.78-1.19l-2.22-6.17-2.41.87a1.81,1.81,0,0,1-2.44,0c-.46-.44-.12-1.17.4-2.27l.51-1.09c-1.5-2.49-3.94.82-5.52-1a25.19,25.19,0,0,0,1.44-3.55c-1.35-3.75-2.71-7.51-4-11a1.92,1.92,0,0,1-2.44,0,3.64,3.64,0,0,1-1.16-3.22,1.8,1.8,0,0,1,1.86-1.58c-.1-.26,0-.9-.39-1.07a51.54,51.54,0,0,0-5.11-2.4c-.36-.17-.8.29-1.07.39l1.26,3.48c-1,2.19-1,2.19-2.46,2.41-1.61.58-2.07.14-2.92-1.38a3.35,3.35,0,0,1,.27-3.43l3.49-1.25c-.2-.54-.66-1-.49-1.35a24.69,24.69,0,0,0,1.45-3.55c-1.83-.85-3.28-1.54-4.74-2.23a27,27,0,0,1-1.81,3.39c-1.73-.59-2.84-2-2-3.83a8.89,8.89,0,0,0,.69-4.8c-.38-1.07.67-2.36,2.1-2.57a2.34,2.34,0,0,0,1.66-2.12l-2.51-7a1.26,1.26,0,0,0-2-.49c-.26.1-.34.73-.51,1.09l1.74,4.83c-1.29,2.28-1.29,2.28-6.31,3.49-1.27-.15-1.56-1-.58-1.61.71-.56,1.61-.58,2.22-1.41.44-.46,1.22-1.65,1.12-1.92a1.91,1.91,0,0,0-2.26-.39c-3.14.53-3.14.53-3.92-1.62-.38-1.07-.87-2.41-1.25-3.49l.68-1.45c1.1-2.83.81-3.63-1.57-5.2-.83-.61-1.46-.68-1.48-1.58.25-1,1.05-1.29,1.85-1.58,1.61-.58,1.95-1.31,1.64-3a2.69,2.69,0,0,0-2.67-2.37c-.9,0-1.61.58-2.51.6-.27.1-.73-.35-1.36-.42-.58-1.61-1.16-3.22-1.84-5.09a11,11,0,0,1,1.54-3.29c-1.57-1.85-4.21.92-5.79-.94l-.87-2.41c.3-2.53,3.92-1.72,3.86-4.42l-8.39-3.94-3.75,1.35a1.47,1.47,0,0,1-.13,2.17c.75,1.24-.05,1.53-.59,1.72a1.91,1.91,0,0,1-2.26-.39c-.09-.27.32-1.63.86-1.83A15.88,15.88,0,0,1,373.16,90c-.19-.54-.65-1-.48-1.34a25.34,25.34,0,0,1,1.44-3.56l-2.71-7.5c-.36-.17-1.19-.78-1.09-.52-.34.73-1.05,1.29-.86,1.83a18.3,18.3,0,0,0,1.36,3.75,1.9,1.9,0,0,1-.4,2.26c-2,.41-3.73,2.26-6.18,1.33-.07-2.71,1.69-4.55,2.62-7a25.06,25.06,0,0,1-3.38-1.81c-.39-1.07-.87-2.41-1.35-3.75l-3.49,1.25a1.5,1.5,0,0,1-1-.24c-.36-.17-.72-.35-.55-.71s.24-1,.51-1.1c2.39-1.77,3.39-1.52,4.79.7,1.17-.12,1.88-.68,1.86-1.58-.14-2.07-.65-4.31,1.11-6.15-.39-1.08-.88-2.42-1.26-3.49-.29-.8-.58-1.61-1.58-1.85a3,3,0,0,0-3.31.89c-1.13,1.92-1.88,4-3,5.93-.73-.34-1.63-.32-1.82-.86a27.93,27.93,0,0,1-1.65-4.56c.42-1.36,1.84-2.47,1.08-3.72-1.11-1.41-2.43,0-3.5.36-.52,1.09-1.3,2.28-1.81,3.38l-4.74-2.23a5.07,5.07,0,0,1,1.39-2,18.78,18.78,0,0,1,3.75-1.35c.54-.2.78-1.19,1.39-2l-4.74-2.23a7.76,7.76,0,0,1-2.51.6,25.92,25.92,0,0,0-3.55-1.44c-.26.09-.8.29-2.12,1.67-.7.56-.73-.34-.29-.8.88-.93,1.61-.58,1.46.68a2.79,2.79,0,0,1-1,1.56s-1-.25-.22-1.44c.69-1.46.23-1.9.4-2.26.51-1.1,1-2.19,1.54-3.28-1.1-.52-2.29-1.3-3-1.64a24.52,24.52,0,0,1,1.17-3.46c-2.55-1.2-4.21.91-6.55,1.15a42.66,42.66,0,0,1-4.47-2.32c-.05-1.81,2.34-3.58.3-5.87l-3.28-1.54a25.67,25.67,0,0,0,1.45-3.55c-.39-1.08-.44-2.88-2.24-2.84-1.16.12-1.22,1.66-2,2.85-2.6.33-1.89-3.56-4.42-3.86l-2.95,1.06c-.76,2.09-1.42,4.45-2.27,6.28a9.78,9.78,0,0,1-3.05.79,20.45,20.45,0,0,0-3.45-1.18L302.31,38c-.17.36.29.8.39,1.07a1.47,1.47,0,0,1,2.17.13c.46.44.75,1.24,1.31,1.95a1.9,1.9,0,0,1-.4,2.26c-.27.1-1.63-.32-1.82-.86a15.91,15.91,0,0,1-1.26-3.48,2.08,2.08,0,0,1-3-.74,13.34,13.34,0,0,1-1.16-3.22l-3.48,1.26c-.27.1-.64-.08-1-.25s-.73-.34-.56-.71.25-1,.51-1.09c2.39-1.77,3.39-1.52,4.8.7.53-.2,1.16-.12,1.33-.49a42.54,42.54,0,0,0,2.23-4.74c-.73-.34-1.29-1.05-1.82-.86a18.3,18.3,0,0,0-3.75,1.36,1.91,1.91,0,0,1-2.27-.4c.52-1.09.94-2.46,1.45-3.55-2.29-1.3-5.11.93-7.15-1.36-.52,1.09-1.3,2.29-1.81,3.38L282.2,30.1c-1.09-.51-2.45-.93-3.55-1.45L267.4,32.71c-.8.29-2,.41-2.26-.39-.1-.27.32-1.63.86-1.83,1-.65,2.41-.87,2.73-2.5a52.12,52.12,0,0,0-4.91-1.86,10.12,10.12,0,0,1-1.74,2.74c-2.7.07-1.89-3.56-4.42-3.85l-5.09,1.83c-1.56-1-1.56-1-.28-4.14l-4.38-2.06c-3.33,0-5.62,2-8.23,2.37l-1.54,3.28c-2.95,1.06-6.07,2.49-9.38,3.38-1.34.49-2.36-.66-2.57-2.1-.1-.27-.29-.8-.66-1L223,25.41a8.63,8.63,0,0,1-1.31-2c-.58-1.6-.63-3.41-3-4.07l-2.41.87c-1.29,2.29-1.69,4.55-3.71,6.49-1.63-.32-1.58-1.85-2.33-3.1-1.46-.68-3.19-1.27-5-2.13l-4.55,1.64c-1.37-.41-2.46-.93-3.82-1.35A25.06,25.06,0,0,1,195,25.18l-3.75,1.36L192.55,30a1.58,1.58,0,0,1-.25,1c-.17.36-.34.73-.7.56s-1-.25-1.1-.52c-1.77-2.39-1.52-3.39.69-4.79l-.87-2.42A1.8,1.8,0,0,0,188.74,22c-.63-.08-1,.65-1.48,1.75l-.52,1.09a7.21,7.21,0,0,1-4.64-2c-1.19-.78-2-2.29-3.16-3.71a20.15,20.15,0,0,1-1.81,3.38,20.45,20.45,0,0,0-3.45-1.18c-1,2.19-1.88,4-2.91,6.2-1.43.22-2.09-.76-2.48-1.83A2.6,2.6,0,0,0,166.45,24a7.88,7.88,0,0,1-2.51.6c-1,2.19-2.32,4.48-3.35,6.67-1.63-.32-1.85-1.76-2.5-2.74a2.59,2.59,0,0,0-2.19-1,64.87,64.87,0,0,0-7,2.52c-2.05,4.37-2.05,4.37-5.67,3.56-.66-1-.44-2.87-2-2.93-1.17.12-1,2.19-2.1,2.58-2.48,1.5-5.33,2.83-8.4,2.73-1.55-1-1.7-3-2.28-4.64a1.91,1.91,0,0,0-1.75-1.49,4.67,4.67,0,0,0-.76,2.1c0,.9.32,1.7.34,2.6.1.27-.34.73-.51,1.1L122.08,37a2.08,2.08,0,0,1-.74,3c-1,.66-2.15.77-4.27,2.45-.7.56-.72-.34-.29-.81.88-.92,1.61-.58,1.46.69a2.86,2.86,0,0,1-.95,1.56s-1-.25-.22-1.44a25.13,25.13,0,0,0-1.92-8.7l-4,1.45c-.76,2.09-1.42,4.45-1.84,5.82-2,1.3-3,1.69-3.9,2.61-.71.56-.68,1.46.07,2.71.09.27-.2-.54-.2-.54a1.76,1.76,0,0,1,2.07-.14c.73.34.92.88,0,1.8-.27.1-.64-.07-.9,0a3,3,0,0,1-1.29-1,3.21,3.21,0,0,1-2.63-.56c-1.29-1-1.16-3.22-3.33-3.35l-4.82,1.74c-.51,1.1-1.29,2.29-1.81,3.38l-2.41.87c-1.22,1.65,0,3.34.57,4.94.49,1.35.51,2.25-.37,3.17-.36-.17-1-.25-1.09-.52a31,31,0,0,1-2-4.72c-.39-1.08-1.92-1.13-3.26-.65a2.61,2.61,0,0,0-1.76,1.85c1.1.51,1.92,1.12,3,1.64a7.72,7.72,0,0,1-1.13,1.92,58.88,58.88,0,0,1-6.7,2.42l-5.1-2.41c-.48-1.34-1-2.68-1.35-3.75-2,.41-2.71.07-3.09-1-.85-1.51-1.16-3.21-2.28-4.63-.56-.71-1.46-.68-2.43,0l3.09,8.58A1.31,1.31,0,0,1,64,56.4L63.12,54c-.73-.35-1.83-.86-2.36-.67-1.88.68-4.31.65-5.24,3.1a26.91,26.91,0,0,1,3.38,1.81l.87,2.42c1.48,1.58,3.33,0,4.69.42A1.8,1.8,0,0,1,66,62.93l3.48-1.26a1.56,1.56,0,0,1,1,.25c.37.17.73.34.56.71s-.25,1-.51,1.09c-2.39,1.77-3.39,1.53-4.8-.69-.53.19-1.17.11-1.34.48a44.26,44.26,0,0,0-2.22,4.74c.29.81.31,1.71.6,2.51a25.67,25.67,0,0,1,3.38,1.81c-.49,2-1.83,2.48-3.73,2.26-.9,0-1.56-1-2.46-.94-1-.24-2.87.43-3.11,1.43a2.22,2.22,0,0,0,.23,2.34,2.93,2.93,0,0,0,.56.71,17.31,17.31,0,0,1,3.21,2.17c1.29,1,.53,3.15-1.25,4.09a1.92,1.92,0,0,1,0,2.44c-.61.82-1.44.21-2.38-1.57l-3.75,1.35a5.06,5.06,0,0,0-.67,2.36c.32,1.71,1.43,3.12,1.28,4.39-.85,1.82-1.44,3.55-2.13,5L48.21,100a1.93,1.93,0,0,0,1.58,1.86c1.63.32,3.12-1.43,4.79.69l.68,1.88a8.75,8.75,0,0,1-1.39,2c-2.31,1.13-4.73,2-7,3.14-.27.1-.34.73-.51,1.1a25.59,25.59,0,0,1,3.37,1.81c.37.17.29.8.39,1.07a1.47,1.47,0,0,1,2.17.13c.46.44.75,1.24,1.31,2a1.9,1.9,0,0,1-.4,2.26c-.27.1-1.63-.32-1.82-.86a15.91,15.91,0,0,1-1.26-3.48l-2.41.87A1.9,1.9,0,0,0,45.82,116q-.12.94,1.38,1.32c1,.24,1.46.68,1.38,1.31a1.79,1.79,0,0,1-1.85,1.58l-2.41.87c.41,2,.07,2.7-1,3.09-1.52.85-3.22,1.16-4.63,2.28-.71.56-.69,1.46,0,2.43l4-1.45c.73.34,1.93,1.13,3,1.64.36.17.8-.29,1.61-.58l-.54.19a1.75,1.75,0,0,1-.14-2.06c.34-.73.88-.93,1.8,0,.1.27-.07.63,0,.9a3,3,0,0,1-1,1.29,9.83,9.83,0,0,0,.82,3.95c-.85,1.82-1.25,4.08-3.37,5.76-1.44.21-3,.79-4.48,1-.9,0-1.46-.69-1.58-1.86L35,139c-.68,1.45-1.27,3.18-2.13,5A16.42,16.42,0,0,0,36,151.65c.55.7,1.45.68,2.43,0-.48-1.34-.87-2.42-1.36-3.76a44.53,44.53,0,0,0,2.23-4.74c2.17.13,2.38,1.57,2.52,3.64-1.68,1.21-.88,4.25-3.39,4.86l1.35,3.75c-.17.36-.24,1-.51,1.09-.71.56-1.51.85-2.22,1.41-.34.73-1.05,1.29-1.39,2-1.12,1.92-1.88,4-2.74,5.83.22,1.44,1.65,1.23,2.58,2.1.5,2.25,3.52,3.88,1.15,6.56-1.1-.52-2.09-.76-3.19-1.28-.34.73-.78,1.19-.68,1.46l3.58,9.92c-.3,2.53-3.83,2-3.86,4.42a11.15,11.15,0,0,1,3.11,1.91l-2.22,4.74-2.41.87c-.82,3.63-.82,3.63,3.29,5.78a11.26,11.26,0,0,0-1.17,3.45c.92.88,2.09.77,3.43.28.53-.19,1.63.32,2.36.67l-2.23,4.74a14,14,0,0,0-2.85,1.33c-.42,1.36-1,3.09-1.93,5.54-.1-.26.63.08,1.53.06,1.17-.12,2.22-1.41,3.6-.09a9,9,0,0,1-1.79,4.28c-.78,1.19-2.29,2-3.7,3.16,2.38,1.56,4.91,1.86,6.75,3.62-.32,1.63-1.85,1.58-2.82,2.23a1.31,1.31,0,0,0-.52,1.1c-.07.63.49,1.33,1.66,1.22a30.82,30.82,0,0,0,4.82-1.74c2.72.83,2.42,3.36,3.2,5.51.19.53-.42,1.36-.86,1.82a5.84,5.84,0,0,0-2.45-.93,6.64,6.64,0,0,0-2.34.24,1.73,1.73,0,0,0-1,.65c-.39,2.27-2.9,2.87-4.12,4.52a7.32,7.32,0,0,0-1.79,4.28c1.29,1.05,2.53.3,3.61-.09.51-1.09,1.29-2.28,1.81-3.38,3.25.65,1.74,4.83,4,6.13,2.65,1.46,4.8-2.65,7.38-.54-1,2.19-2,4.64-3,6.83l.87,2.41c0,2.44-4,1.45-3.85,4.42l4.74,2.23c.36.17.8-.29,1.87-.67l-.53.19a1.75,1.75,0,0,1-.14-2.07c.34-.73.87-.92,1.8,0,.09.26-.08.63,0,.9a3,3,0,0,1-1,1.28c-.51,1.1,0,1.81.94,1.78,1.54.06,3-.16,4.78-.2-.69,1.46-.94,2.45-1.62,3.91a24.14,24.14,0,0,0,1.55,4.29,2.53,2.53,0,0,0,3.62.82l-.53.19a1.77,1.77,0,0,1-.15-2.07c.35-.73.88-.92,1.81,0,.09.26-.08.63,0,.9A3.06,3.06,0,0,1,59,276.67c-.34.72.12,1.16,0,1.53-.93,2.46-2.23,4.74-3,6.83,1.43,3.12,1.43,3.12,3.5,3l1.34-.48a3.15,3.15,0,0,1,2.79,3.54c-.25,1-.69,1.46-1.1,2.82a68.41,68.41,0,0,0,3.67,10.19c1.29,1.05,1.83.85,2-.41a22.36,22.36,0,0,1-.24-2.34,5.17,5.17,0,0,1,.66-2.36l8.39,3.94a2.12,2.12,0,0,1-2.29,2c-1.47,2.65-2.42,4.21-3.11,5.67,2.38,1.56,5.38-1,7.52,1.53a10.73,10.73,0,0,1,2.77-.7,43.08,43.08,0,0,0,4.65,2c.58,1.61.58,1.61-1.57,2.38l-2.41.87,3.58,9.92,3.75-1.35c.27-.1.73.34,1.1.51.09.27.19.54.29.81-.76,2.09-1.89,4-2.74,5.83a5.06,5.06,0,0,0,2.36.67,3,3,0,0,0,2-1c1.13-1.92,1.89-4,2.74-5.84a7.43,7.43,0,0,1,1.92,1.13,4,4,0,0,1,.61,2.5c0,.91-1,1.56-.93,2.46a3,3,0,0,0,1.16,3.22l2.55,1.2a25.66,25.66,0,0,0-1.18,3.45c.29.81.58,1.61.78,2.15,1.48,1.58,3.06.1,4.69.42a1.8,1.8,0,0,1,1.58,1.86l2.41-.87c1.88-.68,3-.16,3.65,1.71l.87,2.42,3.75-1.36c.27-.09.73.35,1.1.52.09.27.29.8.29.8-.76,2.1-1.89,4-2.74,5.84,1,1.15,2.09.76,3.43.28.8-.29,1.63.32,2.26.39a25.67,25.67,0,0,0-1.45,3.55c2.29,1.3,4.92,1.87,6.76,3.63a8.51,8.51,0,0,1,.34,2.6c0,.9-.69,1.46-1.86,1.58a16.73,16.73,0,0,0,1.26,3.49c.56.7,1.56.95,2,.49a9.51,9.51,0,0,1,1-2.19c1.39-2,3.66-1.62,4.8.69a1.78,1.78,0,0,1,2.43,0,1.67,1.67,0,0,1,.65,1c.49,1.34.87,2.41,1.45,4,2.94,2.27,6.93,3.26,10.41,5.34l1.26,3.48,6.16-2.22,4.74,2.23c.43,2.87-3.92,1.72-3.49,4.59,1.36.42,2.82,1.11,4.91,1.87l6.43-2.32c2.53.3,3.92,1.61,5.91,2.11-1.37,2.92-4,2.35-5.95,3.66,0,.9-.12,2.16-.1,3.06a12.64,12.64,0,0,0,5.93,3c1.34-.49,2.78-.7,2.83-2.24,0-.9-.58-1.6-.6-2.51-.12-1.16.58-1.72,1.22-1.65l1.09.52a22.21,22.21,0,0,0,3.28,1.54l1.84,5.09c-1,2.19-1.88,4-2.91,6.2.6,2.51.13,5.41,3.49,6.32l2.14-.77a25.19,25.19,0,0,1,3.55,1.44,2.09,2.09,0,0,0,.3-2.53c-.6-2.51,0-3.33,2-3.74.8-.29,1.63.32,2.26.39l.87,2.42c-.51,1.09-.93,2.45-1.44,3.55l1.84,5.09,4.74,2.23c.51-1.09,1.29-2.28,1.81-3.38l2.41-.87c1.26.15,1.82.86,1.21,1.69-.85,1.82-1.88,4-2.74,5.83,1.1.52,2.29,1.3,3.38,1.81.49,1.34,1.24,2.59.19,3.87-2.19-1-4.65-2-6.84-3-.17.36-.61.82-.51,1.09.9,3.31,2.06,6.53,3.22,9.75.29.8,1.28,1.05,3.26.64l.8-.29c3.18,1.28,4.22-4.25,8.56,3.58.48,1.34,3.66-1.93,3.07-3.55-1.09-.51-1.81-4.09-3.15-4.69-1.67-2.12,2.17-1.91,1-4.22-.68-1.88.8-4.51-.41-6.2-1.1-.51,4-3.27,3.25-3.62-.1-.26,4.95-1.94,4.85-2.21-4.06-11.26,6.9,2.95,2.74-8.58.25-1,9,4.81,9.69,3.35-.77-2.15-1.65-4.56-2.61-7.24a44.26,44.26,0,0,1,2.22-4.74c2.24-.51,3.65,1.71,5.45,1.67.68,1.88,1.26,3.48,1.93,5.36a16,16,0,0,1,3.61-.09,28.43,28.43,0,0,1,2-3.74l5.09-1.84c1.46.69,3,1.64,4.84,2.5a18.47,18.47,0,0,1-1.28,3.19c3.19,1.27,3.46,1.18,5.34-2.84,2-.41,3.84,2.25,5.86.31,2.19,1,4.65,2,6.93,3.26l2.68-1c-.12-1.17,0-2.43-.09-3.6a27.81,27.81,0,0,0-3.74-2c.51-1.1,1-2.19,1.54-3.29s.68-1.46,1.58-1.48c1,.25,1.29,1.05,1.58,1.86.41,2,1,2,2.92,1.37a2.36,2.36,0,0,1,2.43,0,1,1,0,0,1,.56.71c-.68,1.46-1.9,3.11-.59,5.06A31.17,31.17,0,0,0,294.7,408c.7-.56,1.51-.85,2.22-1.41s.68-1.46,0-2.44a1.48,1.48,0,0,1-2.17-.12c-.46-.44-.75-1.25-1.31-2a1.91,1.91,0,0,1,.39-2.26c.27-.09,1.63.32,1.83.86a16.45,16.45,0,0,1,1.26,3.48,1.47,1.47,0,0,1,2.16.13c1,1.15,1.77,2.39,2.89,3.81,2.63-2.77-1.11-4.75-.45-7.11.52-1.1,1-2.19,1.54-3.29-1.92-1.12-2.3-2.19-4-4.32-.56-.7.34-.73.81-.29.92.88.58,1.61-.69,1.46a2.8,2.8,0,0,1-1.55-.95C297.58,393.3,297.92,392.57,299.11,393.35Zm17-355.78-7.23,2.61c-.27.1-.73-.34-1.1-.51-.46-.44-.39-1.08.22-1.9l7.24-2.61c.27-.1.73.34,1.09.51C317,36,316.7,36.75,316.09,37.57Zm102,239.85c1-2.19,2.54-3,5.09-1.84.22,1.44,2,2.93-.35,4.07A46.44,46.44,0,0,0,418.07,277.42Zm-42-182.71c2.46.94,3,2.54,1.84,5.1C375.36,98.61,374.77,97,376.07,94.71Zm9.11,18.53c-.37-.17-1-.24-1.1-.51l-.87-2.41c-.09-.27.35-.73.52-1.1a.53.53,0,0,1,.8-.29c1.54.06,2.5,2.74,1.45,4C385.81,113.32,385.45,113.15,385.18,113.24ZM70.48,293.42c-.93,2.46-2.54,3-5.09,1.84C66.58,292.71,68.19,292.13,70.48,293.42Zm330.81,30.65c-.09-.26-.29-.8-.39-1.07.18-.36.35-.73.52-1.09.44-.46,1.07-.39,1.9.22.36.17.29.81.38,1.07a1.92,1.92,0,0,1,0,2.44C403,326.2,401.87,325.68,401.29,324.07ZM181.82,29.65c-.44.46-1.08.39-1.9-.22l.51-1.1c.44-.46,1.07-.39,1.9.23C182.6,28.46,182.26,29.19,181.82,29.65ZM68,77.67c.46.44.38,1.07-.23,1.89l-1.09-.51c-.46-.44-.39-1.07.22-1.9Zm147.89-50,.51-1.09c.44-.46,1.07-.39,1.9.22,0,0-.34.73-.52,1.1C217.38,28.34,216.74,28.26,215.92,27.65ZM288,36.18c-.44.46-1.07.39-1.9-.23l.52-1.09c.44-.46,1.07-.39,1.9.22C288.55,35.08,288.2,35.81,288,36.18Zm109.19,101.2,1.09.52c.46.44.39,1.07-.22,1.89l-1.1-.51C396.36,139.21,396.44,138.57,397.22,137.38ZM55.85,263c-.44.46-1.08.38-1.9-.23l.51-1.09c.44-.46,1.07-.39,1.9.22C56.46,262.12,56,262.58,55.85,263Zm366.8-84.44-1.09-.52q.36-1.5,1.32-1.38l1.09.51C423.73,178.12,423.29,178.58,422.65,178.51Zm.83,33.33-1.1-.51c.25-1,.69-1.46,1.32-1.39l1.1.52Q424.43,211.95,423.48,211.84Zm1.62,25.47,1.09.52c-.24,1-.68,1.46-1.31,1.38l-1.1-.51C424,237.7,424.47,237.24,425.1,237.31ZM143.42,364.68c.46.44.39,1.07-.22,1.9l-1.1-.52c-.46-.44-.38-1.07.23-1.9ZM421,267c.43-.46,1.07-.38,1.89.23l-.51,1.09c-.44.46-1.07.39-1.9-.22C420.45,268.08,420.8,267.35,421,267Z"/><path class="cls-1" d="M295.89,416.33c.69-1.46.76-2.09.4-2.26l-4.74-2.23c-.44.46-1.05,1.29-.95,1.55a68.63,68.63,0,0,0,2.61,7.24c2.92,1.37,4.67-.47,7-1.61,1.12-1.92-.53-3.14-.84-4.85a8.33,8.33,0,0,0-3.47,2.16c-.7.56-.72-.34-.28-.81.87-.92,1.6-.57,1.45.69a2.82,2.82,0,0,1-.95,1.56C295.84,417.86,295.11,417.52,295.89,416.33Z"/><path class="cls-1" d="M191.63,419.4l-3.75,1.35c-1.1-.51-2.46-.93-3.55-1.44a3.91,3.91,0,0,0-.57,2.62c.53,3.15.53,3.15-1.61,3.92l-3.49,1.26-.68,1.46c.09.26.56.7.82.61,3.07.1,5.56-1.4,8.41-2.73.39-2.27,2.44-3.31,4.12-4.52A1.7,1.7,0,0,0,191.63,419.4Z"/><path class="cls-1" d="M36.29,58.51c-1.85-1.76-4.12,1.18-5.79-.94l-.87-2.41a1.31,1.31,0,0,0-1.1-.52c-.63-.07-1.34.49-1.22,1.66a34,34,0,0,0,1.84,5.09c-.61.83-1.12,1.92-1.91,3.11,2.39,1.57,4.14-.28,6.11-.69C35,62.6,35.16,60.43,36.29,58.51Z"/><path class="cls-1" d="M60.55,48.55l-1.07.38c-3.22,1.16-3.22,1.16-4.82-1.59a2.6,2.6,0,0,0-4-1,7.59,7.59,0,0,0-1.12,1.92c.39,1.08.87,2.42,1.26,3.49,1.78-.95,3.09,1,5.42.77a15.64,15.64,0,0,0,3.49-1.26A1.63,1.63,0,0,0,60.55,48.55Z"/><path class="cls-1" d="M210.83,441.56a1.42,1.42,0,0,0-1.63-.32,5.32,5.32,0,0,1-5-.33.87.87,0,0,0-.63-.07c-.95,1.55-1.64,3-2.59,4.57l5.11,2.4a10.63,10.63,0,0,1,2.77-.7A23.6,23.6,0,0,1,210.83,441.56Z"/><path class="cls-1" d="M442,242.13c-.22-1.43-1.31-1.95-2.75-1.73a24.59,24.59,0,0,0-4.29,1.54,20.21,20.21,0,0,1-1.8,3.38l-3.49,1.26.87,2.41,6.17-2.22c.51-1.1,1.29-2.29,1.8-3.38Z"/><path class="cls-1" d="M114.11,367.37l4.74,2.23,2.41-.87c.52-1.09.84-2.72,1.81-3.38s1.51-.85.59-1.73c-.36-.17-.83-.61-1.09-.51a18.39,18.39,0,0,0-8.31,3A2.13,2.13,0,0,1,114.11,367.37Z"/><path class="cls-1" d="M31.69,81.83a18.3,18.3,0,0,1-3.18-1.27c-1.1-.52-1.46-.69-1.9-.23a1.81,1.81,0,0,0,0,2.44c.1.26.29.8.48,1.34a18.38,18.38,0,0,0,3.19,1.27l1,2.68c.09.27.73.35,1.09.52a1.28,1.28,0,0,0,1.32-1.39Z"/><path class="cls-1" d="M150,381.11l-3.75,1.35c-1.09-.52-2.45-.93-3.55-1.45-1.34.48-2.77.7-3,2.6l4.38,2.06a8,8,0,0,0,5.89-2.13A1.78,1.78,0,0,0,150,381.11Z"/><path class="cls-1" d="M438,285.68l-6.16,2.22c-.91,3.36-.91,3.36,1.74,4.83.51-1.09,1.12-1.92,1.63-3,.73.35,1,.25,1.46.69.83.61,1.56,1,2.27.4a1.82,1.82,0,0,0,0-2.44A9.34,9.34,0,0,1,438,285.68Z"/><path class="cls-1" d="M370.83,68.43l-3.49,1.25a2.71,2.71,0,0,0-.27,3.44c.85,1.51,1.31,1.95,2.91,1.37,1.08-.39,1.08-.39,2.47-2.41A19.73,19.73,0,0,1,370.83,68.43Z"/><path class="cls-1" d="M18.42,190.45c-3.09-1-3.09-1-5.09,1.84l.87,2.41c3.09,1,3.09,1,5.09-1.83Z"/><path class="cls-1" d="M401.44,89.5c-1.53,0-2.8-.2-3.7-.18-2.12,1.67-2.25,3.84-3.64,5.86,1.54,0,2.8.2,3.7.18C399.65,93.78,399.78,91.61,401.44,89.5Z"/><path class="cls-1" d="M400.27,122.34l2.23-4.74c-1.1-.51-2.73-.83-3.11-1.91-.66-1-.85-1.51-1.73-.58-.17.36-.61.82-.51,1.09a11.68,11.68,0,0,0,2.12,5.9A4,4,0,0,1,400.27,122.34Z"/><path class="cls-1" d="M6.77,251.55,2,253.29c-.54.2-.42,1.36-.59,1.73l4.74,2.23a43.08,43.08,0,0,0,2-4.65C8.23,252.24,7.77,251.8,6.77,251.55Z"/><path class="cls-1" d="M434.36,200c-1.59,1.48-1.71,3.64-3,5,1.75,1.49,2.9.47,4,.08a24.54,24.54,0,0,1,1.81-3.38c1.12-1.92,1-2.18-.51-2.24A5.64,5.64,0,0,0,434.36,200Z"/><path class="cls-1" d="M438.45,201.29c.38,1.07.87,2.41,1.25,3.49a2.71,2.71,0,0,0,3.43.27c1.51-.84,1.95-1.31,1.37-2.92-.38-1.07-.38-1.07-2.4-2.46A20.42,20.42,0,0,1,438.45,201.29Z"/><path class="cls-1" d="M174.76,400.34l-2.41.87a25.67,25.67,0,0,0-3.55-1.45c-.64,3.26-.64,3.26,2,4.73l4.82-1.74c.27-.1.34-.73.51-1.09C176.48,400.93,175.93,400.22,174.76,400.34Z"/><path class="cls-1" d="M251.89,407.66l2.61,7.24c.1.27.73.34,1.1.51.63.08,1.07-.38,1.22-1.65-.87-2.41-1.75-4.82-2.62-7.24-.09-.26-.72-.34-1.09-.51C252.48,405.93,252.13,406.66,251.89,407.66Z"/><path class="cls-1" d="M366.34,400.92c1.12-1.92.91-3.36-.75-4.58a21.12,21.12,0,0,0-4.47-2.33c-1.12,1.92-.91,3.36.74,4.58A21.44,21.44,0,0,0,366.34,400.92Z"/><path class="cls-1" d="M251.06,4.63c2.28,1.3,3.89.72,5.09-1.84-1.1-.51-2.46-.93-3.55-1.44s-1.46-.69-1.9-.23a1.8,1.8,0,0,0,0,2.44C251,3.73,251,4.36,251.06,4.63Z"/><path class="cls-1" d="M79.68,38.62a16.1,16.1,0,0,0,3.48-1.26c.54-.19.51-1.09.86-1.82l-4.38-2.06c-.34.73-1,1.29-.86,1.82C78.63,36.57,79.29,37.55,79.68,38.62Z"/><path class="cls-1" d="M71.79,40.25C69.5,39,67.9,39.54,66.7,42.09c1.09.51,2.45.93,3.55,1.45s1.46.68,1.89.22a1.8,1.8,0,0,0,0-2.44C72.08,41.06,71.88,40.52,71.79,40.25Z"/><path class="cls-1" d="M114.54,34.53A16.1,16.1,0,0,0,118,33.27c.54-.19.51-1.09.86-1.82l-4.38-2.06c-.34.73-1,1.29-.86,1.82C113.5,32.48,114.15,33.46,114.54,34.53Z"/><path class="cls-1" d="M169.69,20.39l2.23-4.74c-1.14-2.32-2.63-.57-4.07-.36C166.66,17.85,167.51,19.36,169.69,20.39Z"/><path class="cls-1" d="M290.63,17.36c-3-.73-3-.73-4.82,1.74.75,1.25.36,3.51,2.86,2.91A45.19,45.19,0,0,1,290.63,17.36Z"/><path class="cls-1" d="M39.39,129.21a2,2,0,0,0-1.84,2.47,41.08,41.08,0,0,0,2,5.63,2,2,0,0,0,1.83-2.47Q40.4,132,39.39,129.21Z"/><path class="cls-1" d="M358,56.39c-.67-1.88-1.45-4-2.12-5.9-.2-.54-1.1-.51-1.83-.86,0,0-.61.83-.51,1.1.41,2,.82,3.94,2.3,5.53C356.39,57,357.2,56.68,358,56.39Z"/><path class="cls-1" d="M16.47,241.1c-1.29,2.28-.45,3.79,1.84,5.09.51-1.09.93-2.46,1.44-3.55.61-.83.69-1.46.23-1.9a1.8,1.8,0,0,0-2.44,0C17.37,241.07,17,240.9,16.47,241.1Z"/><path class="cls-1" d="M398.63,114.45a16,16,0,0,0,3.49-1.26c.53-.19.51-1.09.85-1.82l-4.37-2.06c-.34.73-1.05,1.29-.86,1.83C397.59,112.4,398.25,113.38,398.63,114.45Z"/><path class="cls-1" d="M412.89,126.27,410.67,131c1.14,2.31,2.62.56,4.06.35C415.66,128.91,414.81,127.4,412.89,126.27Z"/><path class="cls-1" d="M51.86,280.44c-.75-1.24-.43-2.87-2-2.92s-1.22,1.65-1.83,2.47c-.17.37-.34.73-.52,1.1L47,282.18Q50.33,283.72,51.86,280.44Z"/><path class="cls-1" d="M435.35,225.43c-1-3.58-.52-6.47-3.71-7.75-1.22,1.66-.1,3.07.21,4.78C432.33,223.8,433,224.77,435.35,225.43Z"/><path class="cls-1" d="M455.35,228.83c.73-3,.73-3-1.75-4.83-1.24.75-3.5.36-2.9,2.87C452.16,227.55,453.89,228.14,455.35,228.83Z"/><path class="cls-1" d="M443.86,270.85c2.28,1.29,3.79.44,5.09-1.84-1.09-.52-2.46-.93-3.55-1.45-.83-.61-1.46-.68-1.9-.22a1.79,1.79,0,0,0,0,2.43Z"/><path class="cls-1" d="M429.34,277.6c.27-.1.71-.56,1.07-.39l3.28,1.54a7,7,0,0,0,.86-1.82,16.27,16.27,0,0,0-1.26-3.48l-5.09,1.83A7.07,7.07,0,0,1,429.34,277.6Z"/><path class="cls-1" d="M434.24,282.8c1.29,1.05,3.26.64,3.77,2.88.27-.1.9,0,1.07-.39a3.14,3.14,0,0,0-.38-4.4c-.56-.71-2.36-.67-3.33,0A7.43,7.43,0,0,0,434.24,282.8Z"/><path class="cls-1" d="M430.62,303.8c-2.29-1.3-3.9-.72-5.09,1.84,1.09.51,2.45.93,3.55,1.44s1.45.69,1.89.23a1.8,1.8,0,0,0,0-2.44C430.64,304.7,430.71,304.07,430.62,303.8Z"/><path class="cls-1" d="M415.43,316.25A1.9,1.9,0,0,0,417,318.1c2.17.13,3.95-.81,5.73-1.76.26-.1.51-1.09.51-1.09-.46-.44-1.29-1.05-1.82-.86A23.51,23.51,0,0,0,415.43,316.25Z"/><path class="cls-1" d="M428.46,329.73c2.29,1.29,3.9.71,5.09-1.84-1.09-.51-2.45-.93-3.55-1.45s-1.45-.68-1.89-.22a1.78,1.78,0,0,0,0,2.43C428.44,328.82,428.27,329.19,428.46,329.73Z"/><path class="cls-1" d="M187.38,415.18A1.91,1.91,0,0,0,189,417c1.09.52,2.62.57,2.67,2.37,1.78-.95,2.12-1.67,1.73-2.75-.41-2-1.6-2.75-3.47-2.08A8.1,8.1,0,0,0,187.38,415.18Z"/><path class="cls-1" d="M364.67,373.64c-1.29,2.29-.71,3.9,1.84,5.1.51-1.1.93-2.46,1.44-3.55s.69-1.46.23-1.9a1.8,1.8,0,0,0-2.44,0C365.57,373.62,364.94,373.55,364.67,373.64Z"/><path class="cls-1" d="M265.77,415.08l3.48-1.26c1.47-2.65,1.1-2.82-1.11-4.75C266.07,412.55,265.8,412.64,265.77,415.08Z"/><path class="cls-1" d="M261.82,419.23c.94,1.78,1.67,2.12,2.74,1.74,2.24-.51,2.76-1.6,2.08-3.48l-.87-2.41c-1.7.31-1.85,1.57-2.37,2.67C263.16,418.75,262.72,419.21,261.82,419.23Z"/><path class="cls-1" d="M233.74,425c1.85-1.57,1.85-1.57,3.1-5.66-2.89-.47-3.16-.38-4.36,2.18C232.87,422.55,233.26,423.62,233.74,425Z"/><path class="cls-1" d="M237.41,427.58c-1.29-1.05-3.26-.64-3.77-2.88-.26.09-.9,0-1.07.38a3.15,3.15,0,0,0,.38,4.41c.56.71,2.36.66,3.34,0A4.23,4.23,0,0,0,237.41,427.58Z"/><path class="cls-1" d="M249,442.56l-.51,1.1c-.08.63.38,1.07,1.65,1.22l4.82-1.74.51-1.09c.08-.64-.38-1.08-1.65-1.23Z"/><path class="cls-1" d="M258.91,469.91c-.61.83-1,1.56-.23,1.9l1.1.51,4.82-1.74c.61-.82.68-1.46.22-1.9l-1.09-.51Z"/><path class="cls-1" d="M146.29,17.62c1.29-2.28.71-3.89-1.84-5.09C143.15,14.81,143.83,16.69,146.29,17.62Z"/><path class="cls-1" d="M60.55,48.55,63,47.68a18.45,18.45,0,0,0-1.35-3.75c-.66-1-1.56-1-1.9-.23-.17.37-.61.83-.52,1.09C59.68,46.14,60.07,47.21,60.55,48.55Z"/><path class="cls-1" d="M70.76,53.35a15.91,15.91,0,0,0,3.48-1.26c.54-.19,1-1.55.86-1.82a1.9,1.9,0,0,0-2.26-.4,6.5,6.5,0,0,0-2,1.31C70.08,51.47,70.1,52.37,70.76,53.35Z"/><path class="cls-1" d="M44.23,88.07a1.9,1.9,0,0,0,1.57,1.85c1,.25,1.42-1.11.84-2.72l-.39-1.07-1.09-.52c-.64-.07-1.08.39-1.32,1.39C43.67,87.36,44.13,87.8,44.23,88.07Z"/><path class="cls-1" d="M46.91,94.68c1,1.14,3.7.18,4-1.45a.54.54,0,0,0-.29-.81c-1-1.15-3.7-.18-4,1.45Z"/><path class="cls-1" d="M276.11,24.12c1.61-.58,2.39-1.77,1.56-2.38a1.78,1.78,0,0,0-2.43,0l-1.07.39c-.61.83-1,1.56-.23,1.9.37.17.83.61,1.1.51Z"/><path class="cls-1" d="M31.4,130.57c-2.29-1.3-3.89-.72-5.09,1.84C28.86,133.61,30.47,133,31.4,130.57Z"/><path class="cls-1" d="M334.84,30.81A1.91,1.91,0,0,0,333,32.38c-.15,1.27,1.21,1.69,2.82,1.11l1.07-.39L337.4,32c.07-.64-.39-1.08-1.39-1.32A1.71,1.71,0,0,0,334.84,30.81Z"/><path class="cls-1" d="M352.29,33A16,16,0,0,0,351,29.51c-.19-.53-1.55-1-1.82-.86a1.91,1.91,0,0,0-.4,2.27,7,7,0,0,0,1.31,1.95A1.47,1.47,0,0,0,352.29,33Z"/><path class="cls-1" d="M369.16,30.24c-1.14,1-.18,3.7,1.45,4a.54.54,0,0,0,.81-.29c1.14-1,.18-3.7-1.46-4Z"/><path class="cls-1" d="M346,46.49c.59,1.61,1.78,2.39,2.39,1.57a1.81,1.81,0,0,0,0-2.44L348,44.55c-.83-.61-1.56-.95-1.9-.22-.17.36-.61.82-.51,1.09S345.86,46.22,346,46.49Z"/><path class="cls-1" d="M365.21,45.3c1.61-.58,2.39-1.77,1.56-2.38a1.79,1.79,0,0,0-2.43,0l-1.07.39c-.62.82-1,1.55-.23,1.9.37.17.83.61,1.1.51Z"/><path class="cls-1" d="M370.83,68.43a16.1,16.1,0,0,0,3.48-1.26c.53-.19.95-1.56.86-1.82a1.91,1.91,0,0,0-2.27-.4A6.75,6.75,0,0,0,371,66.26,1.47,1.47,0,0,0,370.83,68.43Z"/><path class="cls-1" d="M403.61,78.72l.8-.29c1-1.29-.18-3.87-1.45-4l-.8.29c-.17.36-.61.82-.52,1.09l.87,2.42C402.61,78.47,403.24,78.55,403.61,78.72Z"/><path class="cls-1" d="M5.09,227.54c-2.28-1.3-3.89-.72-5.09,1.83C2.46,230.3,4.06,229.73,5.09,227.54Z"/><path class="cls-1" d="M22.7,285.21c2.28,1.3,3.89.71,5.09-1.84C25.24,282.17,23.63,282.75,22.7,285.21Z"/><path class="cls-1" d="M419.61,157.48a1.9,1.9,0,0,0,1.85-1.57,3.62,3.62,0,0,0-1.16-3.22,1.78,1.78,0,0,0-2.43,0Z"/><path class="cls-1" d="M46,300.15l.81-.29c1.05-1.29-.19-3.87-1.45-4l-.81.29c-.17.36-.61.82-.51,1.09l.87,2.42C45,299.9,45.59,300,46,300.15Z"/><path class="cls-1" d="M449.94,218.05c-2.28-1.3-3.89-.72-5.09,1.84C447.4,221.09,449,220.51,449.94,218.05Z"/><path class="cls-1" d="M112.16,346.86a16.65,16.65,0,0,0-3.48,1.26c-.54.19-1,1.56-.86,1.82a1.91,1.91,0,0,0,2.27.4,6.75,6.75,0,0,0,2-1.31C112.75,348.47,112.82,347.84,112.16,346.86Z"/><path class="cls-1" d="M442,242.13a16,16,0,0,0,1.25,3.49c.2.53,1.56.95,1.83.86a1.91,1.91,0,0,0,.39-2.27,6.75,6.75,0,0,0-1.31-2A1.46,1.46,0,0,0,442,242.13Z"/><path class="cls-1" d="M134.65,378.14c2.22-1.41,2.47-2.4.7-4.79-.1-.27-.73-.35-1.1-.52-.27.1-.44.46-.71.56a1.5,1.5,0,0,0-.24,1C133.78,375.73,134.27,377.07,134.65,378.14Z"/><path class="cls-1" d="M132.24,379a15.91,15.91,0,0,0-1.26-3.48c-.19-.54-1.55-1-1.82-.86a1.9,1.9,0,0,0-.39,2.26,6.5,6.5,0,0,0,1.31,1.95A1.46,1.46,0,0,0,132.24,379Z"/><path class="cls-1" d="M433.46,273.08c2.22-1.41,2.46-2.4.69-4.79-.09-.27-.73-.35-1.09-.52-.27.1-.44.46-.71.56a1.49,1.49,0,0,0-.24,1C432.69,270.93,433.07,272,433.46,273.08Z"/><path class="cls-1" d="M118.2,398c1.3-2.28.72-3.89-1.83-5.09C115.17,395.47,115.75,397.08,118.2,398Z"/><path class="cls-1" d="M446.38,285.39a15.91,15.91,0,0,0,3.48-1.26c.54-.19,1-1.55.86-1.82a1.9,1.9,0,0,0-2.26-.4,6.5,6.5,0,0,0-1.95,1.31C445.53,283.88,445.82,284.68,446.38,285.39Z"/><path class="cls-1" d="M145.86,405c-1.3,2.29-.72,3.9,1.84,5.1C148.9,407.55,148.32,405.94,145.86,405Z"/><path class="cls-1" d="M177.88,409.82l.8-.29c1-1.29-.19-3.88-1.45-4l-.8.29c-.18.36-.62.82-.52,1.09l.87,2.41C176.88,409.57,177.51,409.65,177.88,409.82Z"/><path class="cls-1" d="M187.38,415.18c-1.41-2.22-2.4-2.47-4.79-.7-.27.1-.35.73-.52,1.1.1.26.46.44.56.7.36.17.73.35,1,.25A19.43,19.43,0,0,0,187.38,415.18Z"/><path class="cls-1" d="M172.27,423.66c-1.29,2.28-.71,3.89,1.84,5.09C175,426.29,174.46,424.68,172.27,423.66Z"/><path class="cls-1" d="M273.27,412.37a1.92,1.92,0,0,0,1.58,1.86c1,.24,1.41-1.12.83-2.73-.1-.27-.29-.8-.38-1.07l-1.1-.51q-.94-.12-1.32,1.38Z"/><path class="cls-1" d="M221.6,444.58a1.91,1.91,0,0,0-1.85,1.58c-.25,1,1.12,1.42,2.72.83l1.08-.38.51-1.09q.1-1-1.38-1.32C222.31,444,221.87,444.49,221.6,444.58Z"/><path class="cls-1" d="M227.38,430a16,16,0,0,0-3.49,1.25c-.53.2-.95,1.56-.85,1.83a1.91,1.91,0,0,0,2.26.39,6.75,6.75,0,0,0,1.95-1.31A1.47,1.47,0,0,0,227.38,430Z"/><path class="cls-1" d="M259.48,442.13c-1.15,1-.18,3.7,1.45,4a.54.54,0,0,0,.81-.29c1.14-1,.18-3.7-1.45-4C259.92,441.67,259.75,442,259.48,442.13Z"/><path class="cls-1" d="M230.1,456.36c2.28,1.3,3.89.72,5.09-1.83C232.64,453.33,231,453.91,230.1,456.36Z"/><path class="cls-1" d="M252.29,479.27c2.28,1.29,3.89.71,5.09-1.84C254.83,476.23,253.22,476.81,252.29,479.27Z"/><path class="cls-1" d="M65.48,328.25c-2.29-1.29-3.89-.71-5.09,1.84C62.67,331.39,64.28,330.81,65.48,328.25Z"/><path class="cls-1" d="M340.87,427.68c1.29-2.29.71-3.89-1.84-5.09C338.1,425,338.68,426.65,340.87,427.68Z"/><path class="cls-1" d="M306.1,446.28c1.6-.58,2.39-1.77,1.56-2.38a1.78,1.78,0,0,0-2.43,0l-1.08.39c-.61.82-.95,1.55-.22,1.89.37.18.83.62,1.09.52C305.12,446.94,305.56,446.48,306.1,446.28Z"/><path class="cls-1" d="M154.74,3.9c-.07.63.39,1.07,1.39,1.32l.51-1.1q.12-.94-1.38-1.32Z"/><path class="cls-1" d="M76.8,28.14c.64.08,1.08-.39,1.32-1.38L77,26.24c-.63-.07-1.07.39-1.32,1.39Z"/><path class="cls-1" d="M67.15,35c-.94-1.78-1.31-2-3.28-1.55C64.55,35.29,64.81,35.19,67.15,35Z"/><path class="cls-1" d="M67.54,36c.1.27.46.44,1.09.51a1,1,0,0,0,.9,0c.61-.83.69-1.46,0-1.8S68,34,67.42,34.86C66.88,35.05,67.17,35.86,67.54,36Z"/><path class="cls-1" d="M115.66,21.7c.83.61,1.46.68,1.9.22l.51-1.09c-.82-.61-1.46-.69-1.89-.23C115.64,20.8,115.83,21.33,115.66,21.7Z"/><path class="cls-1" d="M33.23,55.07c.63.08,1.07-.39,1.32-1.38l-1.1-.52c-.63-.07-1.07.39-1.32,1.39Z"/><path class="cls-1" d="M77.85,41.1s.82.61,1.09.51a2.8,2.8,0,0,0,1-1.55c.15-1.27-.58-1.61-1.46-.69A6,6,0,0,0,77.85,41.1Z"/><path class="cls-1" d="M100,37c.27-.09.44-.46.51-1.09a1,1,0,0,0,0-.9c-.82-.61-1.46-.69-1.8,0s-.68,1.46.14,2.07C98.93,37.43,99.47,37.24,100,37Z"/><path class="cls-1" d="M49.09,55.41c1.78-.95,1.95-1.31,1.55-3.29C48.86,53.07,48.69,53.43,49.09,55.41Z"/><path class="cls-1" d="M44.3,54.71s-.61.83-.51,1.1c.46.44,1,1.14,1.55.95,1.27.15,1.61-.58.69-1.46C45.84,54.77,44.93,54.79,44.3,54.71Z"/><path class="cls-1" d="M20.77,65l.51-1.1c-.82-.61-1.46-.68-1.9-.22l-.51,1.09C19.79,65.67,20.33,65.48,20.77,65Z"/><path class="cls-1" d="M195,6.21l1.09.52c.61-.83.69-1.46.23-1.9l-1.1-.51C194.63,5.14,194.56,5.77,195,6.21Z"/><path class="cls-1" d="M141,24.06c.07-.63-.39-1.07-1.39-1.32l-.51,1.09c-.07.64.39,1.08,1.39,1.32C140.79,25.06,140.87,24.42,141,24.06Z"/><path class="cls-1" d="M97.1,39.91s.82.61,1.09.51a2.87,2.87,0,0,0,1-1.55c.14-1.27-.58-1.61-1.46-.69C97.42,38.28,97.17,39.28,97.1,39.91Z"/><path class="cls-1" d="M84,44.64c.07-.63-.39-1.07-1.38-1.31l-.52,1.09c-.07.63.39,1.07,1.39,1.32C83.72,45.64,83.8,45,84,44.64Z"/><path class="cls-1" d="M46.68,56.28c1,1.78,1.68,2.12,2.38,1.56a1.77,1.77,0,0,0,0-2.43Z"/><path class="cls-1" d="M41.91,59.82c.07-.63-.39-1.07-1.39-1.32L40,59.59q-.12,1,1.38,1.32Z"/><path class="cls-1" d="M88.79,46.24c.63.08,1.07-.39,1.31-1.38L89,44.34c-.63-.07-1.07.39-1.32,1.39Z"/><path class="cls-1" d="M176.46,17.34c.64.07,1.08-.39,1.32-1.39l-1.09-.51q-.94-.11-1.32,1.38C175.47,17.09,176.1,17.17,176.46,17.34Z"/><path class="cls-1" d="M153.59,25.29l1.1.51c.61-.83.68-1.46.22-1.9l-1.09-.51A1.27,1.27,0,0,0,153.59,25.29Z"/><path class="cls-1" d="M133.77,32.44l1.09.51c.61-.82.69-1.46.23-1.9l-1.1-.51A1.27,1.27,0,0,0,133.77,32.44Z"/><path class="cls-1" d="M119.08,36.22s-.61.83-.51,1.09c.46.44,1,1.15,1.56,1,1.26.15,1.6-.58.68-1.46A2.8,2.8,0,0,0,119.08,36.22Z"/><path class="cls-1" d="M208.32,8.27c.07-.63-.39-1.07-1.39-1.32l-.51,1.1q-.1.94,1.38,1.32C208.07,9.27,208.15,8.64,208.32,8.27Z"/><path class="cls-1" d="M182.66,20.25l1.1.52c.61-.83.68-1.46.22-1.9l-1.09-.51C182.28,19.18,182.2,19.81,182.66,20.25Z"/><path class="cls-1" d="M47.9,68.87c.07-.63-.39-1.07-1.39-1.32L46,68.64q-.12,1,1.38,1.32S47.72,69.23,47.9,68.87Z"/><path class="cls-1" d="M41.35,70l-.52,1.09c.83.61,1.46.69,1.9.23l.51-1.1C42.42,69.63,41.79,69.56,41.35,70Z"/><path class="cls-1" d="M54.54,68,54,69.08c.82.61,1.46.69,1.9.22l.51-1.09C55.61,67.6,55,67.52,54.54,68Z"/><path class="cls-1" d="M224.42,11l1.1.51c.61-.82.68-1.46.22-1.9l-1.09-.51C224,9.87,224,10.51,224.42,11Z"/><path class="cls-1" d="M50.59,72.14l-.51,1.09c.82.61,1.45.69,1.89.23l.52-1.1C51.66,71.75,51,71.68,50.59,72.14Z"/><path class="cls-1" d="M40,82.94l1.1.52c.61-.83.68-1.46.22-1.9l-1.09-.51C39.57,81.87,39.49,82.5,40,82.94Z"/><path class="cls-1" d="M285.25.51,284.15,0c-.61.83-.68,1.46-.22,1.9l1.09.51A1.2,1.2,0,0,0,285.25.51Z"/><path class="cls-1" d="M48.79,83.09c.63.08,1.07-.39,1.32-1.38L49,81.19c-.63-.07-1.07.39-1.32,1.39Z"/><path class="cls-1" d="M299,.72c-.63-.07-1.07.39-1.32,1.39l1.09.51c.64.08,1.08-.39,1.32-1.38Z"/><path class="cls-1" d="M59.83,85.17c-.94-1.78-1.67-2.13-2.38-1.57a1.81,1.81,0,0,0,0,2.44Z"/><path class="cls-1" d="M232.62,25.26c.63.08,1.07-.38,1.31-1.38l-1.09-.52c-.63-.07-1.07.39-1.32,1.39Z"/><path class="cls-1" d="M46.29,98.84s-.61.82-.51,1.09c.46.44,1,1.15,1.56,1,1.26.15,1.6-.58.68-1.46C47.83,98.89,46.93,98.91,46.29,98.84Z"/><path class="cls-1" d="M320.06,12.08c.17-.37.52-1.1.52-1.1-.83-.61-1.46-.68-1.9-.22l-.51,1.09C319,12.46,319.63,12.54,320.06,12.08Z"/><path class="cls-1" d="M296.53,11.9l-1.09-.51c-.61.82-.69,1.46-.23,1.9l1.1.51A1.27,1.27,0,0,0,296.53,11.9Z"/><path class="cls-1" d="M266.79,22.63l-1.09-.51c-.61.82-.69,1.46-.22,1.89l1.09.52A1.27,1.27,0,0,0,266.79,22.63Z"/><path class="cls-1" d="M336.89,1.57c-.07.63.39,1.07,1.39,1.32l.51-1.1c.08-.63-.39-1.07-1.38-1.32C337.31.21,337.07,1.2,336.89,1.57Z"/><path class="cls-1" d="M33.5,117.09c-.61.82-.69,1.46-.22,1.9l1.09.51c.61-.83.68-1.46.22-1.9Z"/><path class="cls-1" d="M332.4,12.29c-.61.83-.68,1.46-.22,1.9l1.09.52c.62-.83.69-1.46.23-1.9S332.77,12.47,332.4,12.29Z"/><path class="cls-1" d="M315.35,18.75c-.63-.08-1.07.38-1.31,1.38l1.09.52c.63.07,1.07-.39,1.32-1.39Z"/><path class="cls-1" d="M358.58,16.56q.12-.94-1.38-1.32s-.34.73-.52,1.1c-.07.63.39,1.07,1.39,1.32Z"/><path class="cls-1" d="M339.19,13.48,338.1,13c-.61.82-.69,1.46-.23,1.9l1.1.51C339.58,14.55,339.65,13.92,339.19,13.48Z"/><path class="cls-1" d="M302.58,27c.83.61,1.46.69,1.9.23l.51-1.1c-.82-.61-1.45-.68-1.89-.22C302.92,26.26,302.75,26.63,302.58,27Z"/><path class="cls-1" d="M42.67,119.84s-.61.83-.52,1.09c.47.44,1,1.15,1.56,1,1.26.15,1.61-.58.68-1.46A2.86,2.86,0,0,0,42.67,119.84Z"/><path class="cls-1" d="M340.31,25.81l.51-1.1c-.83-.61-1.46-.68-1.9-.22l-.51,1.09C339.24,26.19,339.87,26.27,340.31,25.81Z"/><path class="cls-1" d="M340.88,30.75l1.09.51c.61-.82.69-1.45.23-1.89l-1.1-.52A1.2,1.2,0,0,0,340.88,30.75Z"/><path class="cls-1" d="M352.68,34.07c.09.27.46.44,1.09.51a1,1,0,0,0,.9,0c.61-.82.69-1.46,0-1.8s-1.46-.69-2.07.14A1.7,1.7,0,0,0,352.68,34.07Z"/><path class="cls-1" d="M6.09,165.61l.52-1.09c-.83-.61-1.46-.69-1.9-.23-.17.37-.52,1.1-.52,1.1C5,166,5.65,166.07,6.09,165.61Z"/><path class="cls-1" d="M385.08,37.9l.51-1.1c-.82-.61-1.46-.68-1.89-.22l-.52,1.09C384,38.28,384.64,38.36,385.08,37.9Z"/><path class="cls-1" d="M10.8,170.27c-.63-.07-1.07.39-1.32,1.39l1.1.51q.95.12,1.32-1.38A2.16,2.16,0,0,1,10.8,170.27Z"/><path class="cls-1" d="M358.59,43.75c.08-.63-.39-1.07-1.38-1.32,0,0-.35.73-.52,1.1-.07.63.39,1.07,1.39,1.32Z"/><path class="cls-1" d="M10.11,148c.83.61,1.46.68,1.9.22l.51-1.1c-.82-.61-1.45-.68-1.89-.22C10.46,147.21,10.28,147.58,10.11,148Z"/><path class="cls-1" d="M1.87,180.77l1.09.51c.62-.82.69-1.46.23-1.9l-1.1-.51A1.28,1.28,0,0,0,1.87,180.77Z"/><path class="cls-1" d="M26.32,169.37l1.1.51c.61-.82.68-1.46.22-1.9l-1.1-.51C25.93,168.3,25.86,168.93,26.32,169.37Z"/><path class="cls-1" d="M358.39,57.46c.1.27.46.44,1.09.51a1,1,0,0,0,.91,0c.6-.82.68-1.46-.05-1.8s-1.46-.69-2.07.14C358,56.39,358.2,56.92,358.39,57.46Z"/><path class="cls-1" d="M380.78,66.65q.12-.95-1.38-1.32l-.51,1.1q-.12.94,1.38,1.32C380.54,67.65,380.61,67,380.78,66.65Z"/><path class="cls-1" d="M399,63.42c.18-.37.52-1.1.52-1.1-.83-.61-1.46-.68-1.9-.22l-.51,1.09A1.26,1.26,0,0,0,399,63.42Z"/><path class="cls-1" d="M397.48,67.6q-1-.1-1.32,1.38l1.09.52c.64.07,1.08-.39,1.32-1.39C398.84,68,397.84,67.77,397.48,67.6Z"/><path class="cls-1" d="M15.57,208.39l-.51,1.1c.82.61,1.46.68,1.9.22l.51-1.09C16.64,208,16,207.93,15.57,208.39Z"/><path class="cls-1" d="M19.72,212.35l-.51,1.09c.83.61,1.46.69,1.9.23l.51-1.1C20.8,212,20.16,211.89,19.72,212.35Z"/><path class="cls-1" d="M380.35,85.6c-.07.63.39,1.07,1.38,1.31l.52-1.09c.07-.63-.39-1.07-1.39-1.32C380.6,84.6,380.52,85.23,380.35,85.6Z"/><path class="cls-1" d="M18.44,233.12c-.08.63.38,1.07,1.38,1.31l.51-1.09q.12-.94-1.38-1.32C18.58,231.85,18.61,232.75,18.44,233.12Z"/><path class="cls-1" d="M409.61,106.25c.82.61,1.45.69,1.89.22l.52-1.09c-.83-.61-1.46-.69-1.9-.22Z"/><path class="cls-1" d="M407.08,113.52l1.09.52c.62-.83.69-1.46.23-1.9l-1.1-.51A1.19,1.19,0,0,0,407.08,113.52Z"/><path class="cls-1" d="M417.2,118.06l1.09.51c.61-.82.68-1.46.22-1.9l-1.09-.51C416.81,117,416.73,117.62,417.2,118.06Z"/><path class="cls-1" d="M428.28,125.27l1.09.52c.61-.83.68-1.46.22-1.9l-1.09-.52C427.89,124.2,427.82,124.83,428.28,125.27Z"/><path class="cls-1" d="M30.91,267.7c-.07.63.39,1.07,1.39,1.32l.51-1.1c.08-.63-.39-1.07-1.38-1.31C31.16,266.7,31.09,267.33,30.91,267.7Z"/><path class="cls-1" d="M25.31,270.63q.11-.94-1.38-1.32s-.35.73-.52,1.1c-.07.63.39,1.07,1.39,1.32C25.06,271.63,25.14,271,25.31,270.63Z"/><path class="cls-1" d="M421.81,133.36c.07-.63-.39-1.07-1.39-1.32l-.51,1.1c-.07.63.39,1.07,1.39,1.31Z"/><path class="cls-1" d="M13.8,279c-.63-.07-1.07.39-1.31,1.39l1.09.51q.95.12,1.32-1.38Z"/><path class="cls-1" d="M417.08,138.7c.26-.09.43-.46.51-1.09a1.07,1.07,0,0,0,0-.9c-.83-.61-1.46-.69-1.8,0s-.69,1.46.14,2.07C416.1,139.36,416.9,139.07,417.08,138.7Z"/><path class="cls-1" d="M434.73,140c-.61.83-.68,1.46-.22,1.9l1.09.51c.61-.82.69-1.46.22-1.9C435.73,140.29,435.36,140.11,434.73,140Z"/><path class="cls-1" d="M414.17,141.57s.83.61,1.1.51a2.92,2.92,0,0,0,1-1.55c.15-1.27-.58-1.61-1.46-.69C414.49,139.94,414.51,140.84,414.17,141.57Z"/><path class="cls-1" d="M434.47,171.82c.27-.1.44-.46.52-1.1a1,1,0,0,0,0-.9c-.82-.61-1.45-.68-1.8.05s-.68,1.45.14,2.07A1.76,1.76,0,0,0,434.47,171.82Z"/><path class="cls-1" d="M434.27,174.62l-.87-2.42c-1.78,1-1.95,1.31-1.54,3.29Z"/><path class="cls-1" d="M434.66,175.69c.1.27.46.44,1.09.51a1,1,0,0,0,.9,0c.61-.82.69-1.46,0-1.8s-1.46-.69-2.07.14A1.71,1.71,0,0,0,434.66,175.69Z"/><path class="cls-1" d="M439.3,159.05c.63.08,1.07-.39,1.31-1.38l-1.09-.52c-.63-.07-1.07.39-1.32,1.39C438.3,158.81,438.93,158.88,439.3,159.05Z"/><path class="cls-1" d="M74.78,314.6q.12-1-1.38-1.32l-.51,1.09q-.12.94,1.38,1.32C74.54,315.59,74.61,315,74.78,314.6Z"/><path class="cls-1" d="M78.89,316.75l2.41-.87c-.94-1.78-1.67-2.12-2.38-1.56A1.9,1.9,0,0,0,78.89,316.75Z"/><path class="cls-1" d="M77.33,319.13s.82.61,1.09.52c.44-.47,1.15-1,1-1.56.14-1.27-.59-1.61-1.46-.69A2.85,2.85,0,0,0,77.33,319.13Z"/><path class="cls-1" d="M79.17,324.23l1.09.51c.61-.83.69-1.46.22-1.9l-1.09-.51C78.78,323.15,78.71,323.79,79.17,324.23Z"/><path class="cls-1" d="M445,195l1.09.52c.61-.83.69-1.46.22-1.9l-1.09-.52C444.57,193.93,444.5,194.56,445,195Z"/><path class="cls-1" d="M83.32,328.18s.83.61,1.09.52c.44-.47,1.15-1,1-1.56.14-1.27-.58-1.61-1.46-.69A2.85,2.85,0,0,0,83.32,328.18Z"/><path class="cls-1" d="M451.61,201.69l.51-1.09c-.82-.61-1.45-.69-1.89-.23l-.52,1.1C450.54,202.08,451.17,202.15,451.61,201.69Z"/><path class="cls-1" d="M447.67,210.08c-.07.63.39,1.07,1.39,1.32l.51-1.09q.1-1-1.38-1.32C447.92,209.08,447.84,209.72,447.67,210.08Z"/><path class="cls-1" d="M441.11,217.9l-1.1-.51c-.61.82-.68,1.46-.22,1.9l1.1.51A1.2,1.2,0,0,0,441.11,217.9Z"/><path class="cls-1" d="M454.68,220.28c.64.07,1.07-.39,1.32-1.39l-1.09-.51c-.64-.08-1.08.39-1.32,1.38C453.32,219.86,454.32,220.11,454.68,220.28Z"/><path class="cls-1" d="M103.67,346s.83.61,1.1.51a2.86,2.86,0,0,0,1-1.55c.15-1.27-.58-1.61-1.46-.69C104.09,344.63,104,345.26,103.67,346Z"/><path class="cls-1" d="M80.67,359.44q-.12.94,1.38,1.32s.34-.73.52-1.1c.07-.63-.39-1.07-1.39-1.32C81.08,358.08,80.74,358.8,80.67,359.44Z"/><path class="cls-1" d="M75.33,362.27c.08-.63-.39-1.07-1.38-1.32,0,0-.35.73-.52,1.1-.07.63.39,1.07,1.39,1.32Z"/><path class="cls-1" d="M102.59,360.62q.12-.94-1.38-1.32s-.34.73-.52,1.09c-.07.64.39,1.08,1.39,1.32C102.44,361.88,102.42,361,102.59,360.62Z"/><path class="cls-1" d="M452.5,237.73q.94.11,1.32-1.38l-1.1-.52c-.63-.07-1.07.39-1.31,1.39C451.5,237.48,452.14,237.56,452.5,237.73Z"/><path class="cls-1" d="M109.45,361.17l1.1.52c.61-.83.68-1.46.22-1.9l-1.09-.52A1.27,1.27,0,0,0,109.45,361.17Z"/><path class="cls-1" d="M131.92,369.73s.83.61,1.1.52c.44-.46,1.14-1,.95-1.56.15-1.26-.58-1.61-1.46-.68C132.24,368.1,132,369.1,131.92,369.73Z"/><path class="cls-1" d="M113.63,376.94l.51-1.1c-.82-.61-1.46-.68-1.9-.22l-.51,1.09C112.56,377.33,113.19,377.4,113.63,376.94Z"/><path class="cls-1" d="M123.82,377.5c-.07.64.39,1.08,1.39,1.32l.51-1.09c.08-.64-.39-1.08-1.38-1.32C124.07,376.51,124,377.14,123.82,377.5Z"/><path class="cls-1" d="M93.13,389.79l.51-1.1c-.82-.61-1.45-.68-1.89-.22l-.52,1.09C92.06,390.17,92.69,390.25,93.13,389.79Z"/><path class="cls-1" d="M134.65,378.14l-2.41.87c.95,1.78,1.68,2.12,2.38,1.57A1.8,1.8,0,0,0,134.65,378.14Z"/><path class="cls-1" d="M127.12,383.28l.51-1.09c-.82-.61-1.45-.69-1.89-.23-.17.37-.52,1.1-.52,1.1C126.05,383.67,126.68,383.74,127.12,383.28Z"/><path class="cls-1" d="M443.29,276.81c.82.61,1.45.68,1.89.22l.52-1.09c-.83-.61-1.46-.69-1.9-.23C443.53,275.81,443.46,276.44,443.29,276.81Z"/><path class="cls-1" d="M454.43,279.15l.51-1.09c-.83-.61-1.46-.69-1.9-.23l-.51,1.1A1.27,1.27,0,0,0,454.43,279.15Z"/><path class="cls-1" d="M444.55,287.87s.83.61,1.09.51c.44-.46,1.15-1,1-1.55.14-1.27-.58-1.61-1.46-.69C444.87,286.24,444.62,287.23,444.55,287.87Z"/><path class="cls-1" d="M163.58,392.86c.27-.1.44-.47.51-1.1a1,1,0,0,0,0-.9c-.83-.61-1.46-.69-1.8,0s-.68,1.46.14,2.07A.71.71,0,0,0,163.58,392.86Z"/><path class="cls-1" d="M437.11,296.61c.63.08,1.07-.39,1.31-1.38l-1.09-.52c-.63-.07-1.07.39-1.32,1.39C436.11,296.36,436.74,296.44,437.11,296.61Z"/><path class="cls-1" d="M161,395.62s.82.61,1.09.52a2.82,2.82,0,0,0,1-1.56c.15-1.26-.58-1.61-1.46-.68A2.79,2.79,0,0,0,161,395.62Z"/><path class="cls-1" d="M432.23,299.88c-.07.64.39,1.08,1.39,1.32l.51-1.09c.07-.63-.39-1.07-1.39-1.32Z"/><path class="cls-1" d="M169.5,410.11q.94.11,1.32-1.38l-1.09-.52c-.64-.07-1.08.39-1.32,1.39Z"/><path class="cls-1" d="M415.66,321.92s-.61.83-.52,1.1c.46.44,1,1.14,1.56,1,1.26.15,1.6-.58.68-1.46C417.29,322.24,416.29,322,415.66,321.92Z"/><path class="cls-1" d="M421.42,325.3c-.95-1.78-1.31-1.95-3.29-1.54C419.08,325.54,419.44,325.71,421.42,325.3Z"/><path class="cls-1" d="M421.8,326.37c.1.27.46.44,1.1.52a1,1,0,0,0,.9,0c.61-.82.68-1.46-.05-1.8s-1.46-.68-2.07.14C421.42,325.3,421.71,326.1,421.8,326.37Z"/><path class="cls-1" d="M411.89,330c.1.26.46.44,1.09.51a1,1,0,0,0,.9,0c.61-.83.69-1.46,0-1.8s-1.46-.69-2.07.14C411.23,329,411.79,329.68,411.89,330Z"/><path class="cls-1" d="M157.9,429.14c-.63-.07-1.07.39-1.32,1.39l1.1.51c.63.08,1.07-.39,1.31-1.38Z"/><path class="cls-1" d="M150.48,438.79c.07-.63-.39-1.07-1.39-1.32l-.51,1.09q-.11,1,1.38,1.32C150.23,439.79,150.31,439.15,150.48,438.79Z"/><path class="cls-1" d="M420.51,347.14q.12-1-1.38-1.32l-.51,1.09c-.08.64.38,1.07,1.38,1.32Z"/><path class="cls-1" d="M244.29,410.1c.83.61,1.46.69,1.9.22l.51-1.09c-.82-.61-1.46-.69-1.9-.22C244.63,409.37,244.73,409.64,244.29,410.1Z"/><path class="cls-1" d="M180.45,433.73l1.09.52c.61-.83.69-1.46.23-1.9l-1.1-.51C180.06,432.66,180,433.3,180.45,433.73Z"/><path class="cls-1" d="M160.41,447q1,.12,1.32-1.38l-1.09-.52c-.64-.07-1.07.39-1.32,1.39Z"/><path class="cls-1" d="M376.65,369.93l-.51,1.09c.83.61,1.46.69,1.9.22l.51-1.09C377.73,369.54,377.09,369.46,376.65,369.93Z"/><path class="cls-1" d="M182.87,440.44q-.12.94,1.38,1.32l.51-1.1q.12-.95-1.38-1.32C183.28,439.08,183,440.07,182.87,440.44Z"/><path class="cls-1" d="M353.92,383.28c.27-.1.44-.46.51-1.1a1,1,0,0,0,0-.9c-.83-.61-1.46-.68-1.8.05s-.69,1.46.14,2.07C352.85,383.67,353.38,383.47,353.92,383.28Z"/><path class="cls-1" d="M351,386.14s.82.62,1.09.52a2.79,2.79,0,0,0,.95-1.56c.15-1.26-.58-1.61-1.46-.68C351.33,384.51,351.09,385.51,351,386.14Z"/><path class="cls-1" d="M259.43,417.67s-.6.82-.51,1.09a2.82,2.82,0,0,0,1.56.95c1.26.15,1.6-.58.68-1.46C261,417.72,260.07,417.74,259.43,417.67Z"/><path class="cls-1" d="M188.26,443.64c-.63-.07-1.07.39-1.31,1.39l1.09.51q.94.1,1.32-1.38C189.26,443.89,188.63,443.81,188.26,443.64Z"/><path class="cls-1" d="M195.39,444.1c-.07.63.39,1.07,1.39,1.32l.51-1.1c.08-.63-.39-1.07-1.38-1.31C195.91,443,195.56,443.73,195.39,444.1Z"/><path class="cls-1" d="M162.44,456l-1.1-.52c-.61.83-.68,1.46-.22,1.9l1.09.52A1.27,1.27,0,0,0,162.44,456Z"/><path class="cls-1" d="M178.14,453.35l-1.09-.51c-.61.83-.69,1.46-.23,1.9l1.1.51C178.53,454.42,178.6,453.79,178.14,453.35Z"/><path class="cls-1" d="M300.43,413.79c.27-.1.44-.47.51-1.1a1,1,0,0,0,0-.9c-.83-.61-1.46-.68-1.8,0s-.69,1.46.14,2.07C299.36,414.17,299.89,414,300.43,413.79Z"/><path class="cls-1" d="M154.65,465.46c.08-.63-.39-1.07-1.38-1.32,0,0-.34.73-.52,1.1-.07.63.39,1.07,1.39,1.32Z"/><path class="cls-1" d="M172.94,461.59c.07-.63-.39-1.07-1.39-1.32l-.51,1.1q-.1.94,1.38,1.32A2.16,2.16,0,0,1,172.94,461.59Z"/><path class="cls-1" d="M148,470.58c.08-.63-.39-1.07-1.38-1.32l-.52,1.1c-.07.63.39,1.07,1.39,1.31Z"/><path class="cls-1" d="M268.12,430c.07-.63-.39-1.07-1.38-1.31l-.52,1.09c-.07.63.39,1.07,1.39,1.32C267.7,431.35,267.78,430.71,268.12,430Z"/><path class="cls-1" d="M285.48,425.24c-.63-.08-1.07.38-1.31,1.38l1.09.52c.63.07,1.07-.39,1.32-1.39Z"/><path class="cls-1" d="M221.15,451.71c.83.62,1.46.69,1.9.23l.51-1.09c-.83-.62-1.46-.69-1.9-.23C221.49,451,221.59,451.25,221.15,451.71Z"/><path class="cls-1" d="M193.66,468.66c.63.08,1.07-.38,1.31-1.38l-1.09-.52c-.63-.07-1.07.39-1.32,1.39Z"/><path class="cls-1" d="M170.74,474.81s-.61.82-.51,1.09a2.87,2.87,0,0,0,1.55,1c1.27.15,1.61-.58.69-1.46A6.22,6.22,0,0,0,170.74,474.81Z"/><path class="cls-1" d="M403.57,359.91c.08-.63-.38-1.07-1.38-1.31l-.51,1.09q-.12.94,1.38,1.32Z"/><path class="cls-1" d="M308,429.83l1.1.51c.61-.82.68-1.46.22-1.9l-1.09-.51C307.65,428.76,307.57,429.39,308,429.83Z"/><path class="cls-1" d="M173.61,477.71c.09.27.46.44,1.09.52a1.07,1.07,0,0,0,.9,0c.61-.83.69-1.46,0-1.81s-1.46-.68-2.07.14C173,476.74,173.15,477.27,173.61,477.71Z"/><path class="cls-1" d="M227.05,424l.51-1.09c-.82-.61-1.46-.69-1.9-.22l-.51,1.09C226,424.43,226.61,424.51,227.05,424Z"/><path class="cls-1" d="M186.47,484l-1.1-.51c-.61.82-.68,1.46-.22,1.9l1.09.51C186.85,485.05,186.93,484.42,186.47,484Z"/><path class="cls-1" d="M178.52,490.49l1.09.51c.61-.83.69-1.46.23-1.9l-1.1-.51C178.13,489.41,178.06,490.05,178.52,490.49Z"/><path class="cls-1" d="M240,433l1.09.51c.61-.83.69-1.46.22-1.9l-1.09-.51A1.26,1.26,0,0,0,240,433Z"/><path class="cls-1" d="M230.64,438.2c-.07.63.39,1.07,1.39,1.32l.51-1.1c.08-.63-.39-1.07-1.38-1.31C231.16,437.11,230.82,437.84,230.64,438.2Z"/><path class="cls-1" d="M396.15,390.4c-.63-.07-1.07.39-1.31,1.39l1.09.51c.64.08,1.07-.38,1.32-1.38Z"/><path class="cls-1" d="M241.38,449.87c.08-.63-.39-1.07-1.38-1.32,0,0-.35.73-.52,1.1-.07.63.39,1.07,1.39,1.31Z"/><path class="cls-1" d="M304.7,473.45c.63.08,1.07-.38,1.31-1.38l-1.09-.52c-.63-.07-1.07.39-1.32,1.39C303.7,473.2,304.33,473.28,304.7,473.45Z"/><path class="cls-1" d="M274.32,484.11l1.1.51c.61-.83.68-1.46.22-1.9l-1.09-.51C273.94,483,273.86,483.67,274.32,484.11Z"/><path class="cls-1" d="M274.06,452.32l1.09.52c.61-.83.69-1.46.23-1.9l-1.1-.52C273.31,451.08,273.5,451.62,274.06,452.32Z"/><path class="cls-1" d="M356.44,419.64l.51-1.09c-.82-.62-1.46-.69-1.9-.23l-.51,1.09A1.19,1.19,0,0,0,356.44,419.64Z"/><path class="cls-1" d="M357.32,426.29c-.07.63.39,1.07,1.39,1.32l.51-1.1c.08-.63-.39-1.07-1.38-1.32Z"/><path class="cls-1" d="M352.52,432.27l.51-1.1c-.83-.61-1.46-.69-1.9-.22l-.51,1.09C351.44,432.65,352.08,432.73,352.52,432.27Z"/><path class="cls-1" d="M451.15,317.91l.51-1.1c-.82-.61-1.46-.68-1.9-.22l-.51,1.09A1.2,1.2,0,0,0,451.15,317.91Z"/><path class="cls-1" d="M324.81,426.81q-.94-.12-1.32,1.38l1.09.52c.64.07,1.08-.39,1.32-1.39C326.17,427.23,325.17,427,324.81,426.81Z"/><path class="cls-1" d="M286,462.85c-.07.63.39,1.07,1.39,1.32l.51-1.09q.12-1-1.38-1.32C286.45,461.49,286.2,462.49,286,462.85Z"/><path class="cls-1" d="M299.81,450.67l1.09.52c.61-.83.69-1.46.23-1.9l-1.1-.52C299.06,449.43,299.25,450,299.81,450.67Z"/><path class="cls-1" d="M292.73,437.77l1.1.52c.6-.83.68-1.46.22-1.9l-1.1-.52C292.34,436.7,292.27,437.33,292.73,437.77Z"/><path class="cls-1" d="M417,362.64q.12-1-1.38-1.32l-.51,1.09c-.08.64.38,1.07,1.38,1.32Z"/><path class="cls-1" d="M228.45,429.6c.27-.1.44-.46.51-1.09a1.06,1.06,0,0,0,0-.91c-.83-.61-1.46-.68-1.8,0s-.69,1.46.14,2.07C227.38,430,228.18,429.7,228.45,429.6Z"/></svg>