<svg id="Layer_1" data-name="Layer 1" xmlns="http://www.w3.org/2000/svg" viewBox="0 0 335 81"><defs><style>.cls-1{fill:#fff;}</style></defs><path class="cls-1" d="M319.57,79.43c.18-.56.9-.29.54-.78-.68-.91.91-.37.28-1.2-.29-.4-1.67.82-2,1.2s-.39.23-.86.35c-.95.24-1.47.39-1.13-1.55.09-.3-.4.45-.76.37a1.84,1.84,0,0,1-1.13-.79c-.37-.49-.29-.88.63-1.08a.79.79,0,0,1,.59.07,2,2,0,0,1,.73.68,1.28,1.28,0,0,1,.1.26,1.55,1.55,0,0,0,.65.94,1.76,1.76,0,0,0,2.36-1,4.12,4.12,0,0,0,.24-.88,1.3,1.3,0,0,0,0-.65,2.29,2.29,0,0,0-1.24-1.08,24.09,24.09,0,0,0-3.54-.85c-1.17-.22-2.6.74-3.75,1a1.1,1.1,0,0,1-.54,0c-1.45-.43-1.61-2.29-3.09-2.62a3,3,0,0,1-1.84-1.15l-.59-.89a4.74,4.74,0,0,1-.64-4.1l.48-1.5a3.71,3.71,0,0,0-.2-3.09,7.15,7.15,0,0,0-.81-1.11c-.93-1-2.9-1.16-3.32.09-.05.15-.08.3-.12.46a5.55,5.55,0,0,0,.56,4.1l.12.19a1.81,1.81,0,0,1,.17,1.55A2.6,2.6,0,0,1,299.88,68c-1.53.63-3,1.33-4.53,2-1.1.47-3.19.21-2.88-.77.75-3.21,1.76-6.35,2.78-9.49.17-.53-1.06-.6-1.64-.35a23.4,23.4,0,0,1-2.27.83c-.5.22-1,.29-1.37.67a2.07,2.07,0,0,1-1.06.59c-.72.18-1.08-.21-1.13-1.08a1.32,1.32,0,0,0-1.07-1.21,1.4,1.4,0,0,0-1.65.79c-.18.57-.37,1.14-.53,1.64-.07.21-.41.36-.74.51s-.68.3-.88,0l0,0a2.34,2.34,0,0,1-.57-1.71,1.6,1.6,0,0,1,.76-1.42c1.25-.72,3.17-1.24,2.14-2.16s-2.71-.76-3.36-1.82a1.44,1.44,0,0,1,0-1.17,3.21,3.21,0,0,1,1.58-1.68c1-.58,1.5-1.84.34-2.21a4.34,4.34,0,0,0-.6-.16,4.91,4.91,0,0,0-3.12.41l-1.9.94c-.93.45-1.76,1-1.88,1.93a3.83,3.83,0,0,1-.68,2,1.83,1.83,0,0,1-1.63.85.86.86,0,0,1-.34-.24,1.36,1.36,0,0,1-.26-1.15,4.14,4.14,0,0,0-.59-2.91c-.16-.23-.32-.47-.49-.7a4.94,4.94,0,0,0-2.58-2.11c-1.15-.36-2.36-.58-3.54-.84a6.19,6.19,0,0,1-3.29-1.66,17,17,0,0,1-1.47-2,2.22,2.22,0,0,1-.35-1c-.12-1.43-1.91-2.16-3.46-1.54l-.86.35a3.69,3.69,0,0,1-4.21-1l-1.23-1.65a1.58,1.58,0,0,0-1.19-.79,1.67,1.67,0,0,0-.38.06,1.19,1.19,0,0,0-1,1c0,.26-.06.58-.1.83a1.17,1.17,0,0,1-.29.6,1.34,1.34,0,0,1-2-.05,2.09,2.09,0,0,1-.07-1.69c.34-1,.61-1.88.94-2.93a9.32,9.32,0,0,0,.27-.9,2.36,2.36,0,0,0-.58-1.91c-1.17-1.56-3.76-2.24-4.12-.43,0,.2-.07.39-.11.59a3.88,3.88,0,0,1-1.8,2.17,3.44,3.44,0,0,1-.53.3c-2.43,1.26-5.06,2.24-7.76,3.44a5.39,5.39,0,0,1-1.1.41,1.42,1.42,0,0,1-1.51-1,1.09,1.09,0,0,1,.12-.91,2.14,2.14,0,0,0,.2-.4,1.6,1.6,0,0,1,.91-.91,6.44,6.44,0,0,0,2.51-1.72A6.24,6.24,0,0,1,236,33.23a3.47,3.47,0,0,0,1.34-.95,5,5,0,0,0,.93-2.7c.05-.74.34-1.95-.53-2.15l-4.19-.93A2.15,2.15,0,0,0,231,27.72a3.54,3.54,0,0,0-.08.45c-.07.73-.48,1-1.34,1.26-.61.09-1-.44-1.61-1.25a1.54,1.54,0,0,0-1.73-.66c-.66.29-.86.93-1.11,1.53-.5,1.15-2,.66-2.89-.33a3.8,3.8,0,0,0-2-1.14l-7.48-1.66c-1.15-.26-2.57.68-3.72,1a4.32,4.32,0,0,1-3.23-.72,1.48,1.48,0,0,1-.6-1c0-.49-.23-1.38-.75-1.15-1.68.75-3.3,1.29-4.72,2.1-.53.23.2.94.78,1.07l1.46.32a2.52,2.52,0,0,1,1.53,1c.48.67.56.93.38,1.33a11.69,11.69,0,0,1-.56,1.12c-.34.59-.86.71-1.82.67a5.54,5.54,0,0,1-1.23-.2,3.16,3.16,0,0,1-1.59-.92,1.33,1.33,0,0,1-.21-1.34c.09-.29.19-.58.28-.87.21-.63-.56-.89-1-1.45-.26-.35-.52-.7-.8-1.05a2.75,2.75,0,0,0-3.18-.59l-.68.3a1.47,1.47,0,0,0-.79,2.21,1.1,1.1,0,0,1-.71,1.75,2.7,2.7,0,0,1-2.74-1,11.09,11.09,0,0,0-2.21-1.95c-.8-.5-2-.68-2.34-1.45a1.61,1.61,0,0,1-.14-.95c.07-.47.37-.83.34-1.3-.05-1-1.5-1.49-2.65-1.75l-5.26-1.16a1.19,1.19,0,0,0-1.46.72.54.54,0,0,0,0,.51,2.31,2.31,0,0,0,1.32.77l1.51.33c1.63.36,3.5,1.24,3.34,2.63a6.2,6.2,0,0,1-.63,1.79c-.49,1.08-2.08,2.67-2.35,1.55a1.27,1.27,0,0,1,0-.28c-.07-.69.4-1.26.07-2a5.17,5.17,0,0,0-.23-.56,1.18,1.18,0,0,0-1.9-.44,9.83,9.83,0,0,0-.76,1.34c-.92,1.51-1.14,1.46-3,1l-2-.45a3.9,3.9,0,0,1-2.29-1.4c-1.68-2-2.49-2.13-5.05-1.35-1.41.36-2.78-.33-2.4-1.51a1,1,0,0,1,0-.14c.41-1.25,0-1.79-1.55-2.36a3,3,0,0,0-3.37.6c-.41.5-.41,1.09-.72,1.61a.77.77,0,0,1-.28.34,2.9,2.9,0,0,1-2,.31l-3.15-.7a2.63,2.63,0,0,1-1.52-.79c-.88-1-2.42-1.72-3-.61a4.18,4.18,0,0,1-1.14,1.62,2.77,2.77,0,0,1-2,.08c-.91-.21-1.93-.54-2.08-1.31a.78.78,0,0,1,0-.16c-.2-2.16-2.18-2.58-4.49-1.55L132.19,21a1.81,1.81,0,0,0-1,1.06l-.35,1.07c-.18.57.47,1.12,1,1.54a6.11,6.11,0,0,0,1.21.85c.44.25.31.65.21,1a1.9,1.9,0,0,1-.58.89,1.27,1.27,0,0,1-1.7-.3,1.87,1.87,0,0,1-.24-.39,1.11,1.11,0,0,1,0-.65,5.18,5.18,0,0,1,.4-1.27c.26-.62-.48-.87-.9-1.43A11.57,11.57,0,0,0,124.58,20l-3.42-.76a2.77,2.77,0,0,0-1.34.12c-.37.13-.15.35,0,.66a3,3,0,0,0,.38.67,1.79,1.79,0,0,0,.76.36c1,.32,2.19.43,3.37.69a3,3,0,0,1,.62.19c1,.41.76,1.51.57,2.43-.07.33-.14.68-.23,1-.43,1.5-2.74,1.55-3.75.25-.27-.34-.51-.7-.75-1.06a3.24,3.24,0,0,0-3.78-.91h0a3,3,0,0,1-1.69.11,3.15,3.15,0,0,0-3.72,1.72c0,.12-.08.23-.11.34s-.41.36-.74.51-.68.3-.88,0l0,0a2.36,2.36,0,0,1-.57-1.71,1.65,1.65,0,0,1,.72-1.4c1.24-.77,3.49-1.5,2.18-2.18-.74-.36-1.55-.69-2.27-1.09-1.84-1-2.6-.94-4.76-1.42a2.8,2.8,0,0,0-2.35.15,2,2,0,0,0-1.09,2.45c.67,1.11,1.51,2.14,2.28,3.2.52.72.33,2.13-.68,2.08a2.06,2.06,0,0,1-.26,0c-.27,0-.53-.06-.78-.1-2.44-.42-3.55-3-6-3.23h-.07c-1.22.05-1.39.76-1.48,1.48a2.47,2.47,0,0,0,.37,1.6A2,2,0,0,1,94,29l-.06,0c-1.16.51-2.82.22-2.93-.86a11.69,11.69,0,0,1,1-2.93c.32-1-1.84-1.34-2.93-.86l-1.12.5a3.25,3.25,0,0,0-1.61,1.62l-.06.12a2.45,2.45,0,0,1-1.17,1l-.55.25c-1.2.57-.58,2.23-.3,3.36,0,.1-2,1.42-2.15.19.07.69.18-.22,0-.7-.27-1,.41-1.26,1.35-.6l.06,0c.75.58-1,2-1.45,1.26-.81-1.08-.56-1.51-.76-1.78l-.9-1.19a2.47,2.47,0,0,0-2.64-.57,2.11,2.11,0,0,1-2.23-.49l-.07-.06c-.67-.67-1.92-1-2.44-.2a7.48,7.48,0,0,0-.78,2.38c1,3.31,1.07,4.74.21,5.11l-.21.09c-1.72.73,0,2.87-1.28,1.66a3,3,0,0,0-2-.85,2.47,2.47,0,0,0-1.14.25l-.09,0c-1.36.6-3.52.81-4.43-.21a3.31,3.31,0,0,0-1.49-.89c-.92-.27-1.93-.49-2.63.36-1.08,1.55.63,2.6-1.5,2.32a4.35,4.35,0,0,0-1.65,0c-.61.16-1.72-1.14-1.88-.63-.31,1-.11.4.63,1.18.55.57.64.83,1.15,1.39.71.79-1.29.68-1.72,1.6l-.12.22A2.32,2.32,0,0,1,53,42c-1.31.67-3.28.39-2.46,1.48.41.56.81,1.08,1.2,1.6.2.27.81.18,1.08.24-.07-.69.4-1.25,1.28-1.28a5.25,5.25,0,0,1,1.18,0,4.53,4.53,0,0,1,2.11.42l.05,0c.62.41.39,1.14-.31,1.44a3,3,0,0,1-1.6.07c-.92-.16-1.88-.51-2.71-.7-.07,1.11-1.08,1.56-2.23,1.53-1.85-.05-4.48-.37-5,1.11v0c-.07.21-.41.36-.75.51s-.67.3-.87,0l-.17-.18A1.79,1.79,0,0,1,43.39,47a1.72,1.72,0,0,1,1.83-1.9c.78-.08,2.11-.51,1.69-1.06-.47-.83-1.08-.73-1.67-1.45s-2-1.23-2.56-.59a1.5,1.5,0,0,0-.19.32,7.33,7.33,0,0,0-.84,1.89,2,2,0,0,1-.33.64c-.5.63-1.51.2-2-.41-.73-.84-2.15-1.14-2.84-.27-.36.47-.67,1-1,1.43-.76.89-1.62,2.32-1,3.28A1.29,1.29,0,0,1,34.57,50c-.18.57-.37,1.14-.55,1.7A4,4,0,0,1,32,54a4.08,4.08,0,0,0-2,2.23l-2.37,7.35c-.21.63-.75,1.4-1.55,1.22a2.26,2.26,0,0,1-.92-.9,1.36,1.36,0,0,1-.05-.89c0-.25.08-.49.11-.74.1-1.06-1.46-1.29-2.54-.71l-.59.32a1.74,1.74,0,0,0-.8,2.42,1,1,0,0,1-.38,1.4c-1,.41-2.21-.08-3.34,0s-1.62,1-1.9,1.85l-.42,1.3c-.28.86-.67,1.73-1.72,1.65-1.7-.13-3.35-1.47-4.85-.81l-.59.27a2.94,2.94,0,0,0-1.33,1,12.71,12.71,0,0,0-1.4,4,3.43,3.43,0,0,0,.44,3c.49.66.46.79.24,1.55ZM58.41,39.35c1.23-.54,1.64.94,1.28,2.06-.43,1.31-.47,1-.89,2.34,0,.1-.19.17-.39.24a1.7,1.7,0,0,1-1.18.16c-.81-.3-.73-1.32-.51-2,.5-1.52.19-.8.68-2.32C57.47,39.59,58.07,39.5,58.41,39.35ZM310.24,78.3c-1.51.69-3.81.18-3.23-1.17a1.74,1.74,0,0,1,.32-.51c.76-.87,2.33-.94,3.56-.63a2.17,2.17,0,0,1,.56.21C312.44,76.72,311.27,77.84,310.24,78.3Zm-170.69-55c-1.57-.24-2.21,1.73-.7,2.18C140.53,26,141.31,23.55,139.55,23.29Zm17.6,2.76c0,.34-.46.57-.8.77a.75.75,0,0,1-.48.14l-2.42-.54c-.27-.06-.41-.54-.61-.81s.39-.89,1-1A3.31,3.31,0,0,1,157,25.74.76.76,0,0,1,157.15,26.05ZM41.52,52.14a.62.62,0,0,1,.15.33.71.71,0,0,1-.39.58A1,1,0,0,1,40,52.73a.55.55,0,0,1-.15-.33.67.67,0,0,1,.39-.58A1,1,0,0,1,41.52,52.14ZM183.43,30.56a.83.83,0,0,1,.72-1.18,1.08,1.08,0,0,1,.78.31c.37.34.12.84-.36,1.06l-.33.18C184,31,183.72,30.92,183.43,30.56Zm46.78,1.76a.79.79,0,0,1-.33.23,1,1,0,0,1-1.34-.28.62.62,0,0,1,0-.67.87.87,0,0,1,.33-.22,1,1,0,0,1,1.35.28A.6.6,0,0,1,230.21,32.32Zm27.42,14.4a.85.85,0,0,1-.32.23,1.07,1.07,0,0,1-1.35-.28.62.62,0,0,1,0-.67.87.87,0,0,1,.33-.22,1,1,0,0,1,1.35.28A.6.6,0,0,1,257.63,46.72Zm21.25,10.66a.89.89,0,0,1,.33-.23,1,1,0,0,1,1.34.28.6.6,0,0,1,0,.67.87.87,0,0,1-.33.22,1,1,0,0,1-1.34-.28A.6.6,0,0,1,278.88,57.38Zm22,15.86a.61.61,0,0,1-.14-.33.66.66,0,0,1,.38-.58,1,1,0,0,1,1.34.32.59.59,0,0,1,.15.33.71.71,0,0,1-.39.58A1.06,1.06,0,0,1,300.88,73.24Z"/><path class="cls-1" d="M292.09,48.93a2.2,2.2,0,0,0-2.9.93,7.32,7.32,0,0,0-.65,1.65,3.93,3.93,0,0,0,.65,3.18c.13.18.24.36.34.53a1.51,1.51,0,0,1,.12,1.28c-.12.37-.24.72-.34,1.06a1,1,0,0,0,.88,1.27,1.3,1.3,0,0,0,1.54-.73c.26-.8.51-1.57.76-2.36a3.29,3.29,0,0,0-.4-2.77,3.26,3.26,0,0,1-.41-2.77Z"/><path class="cls-1" d="M325.17,70.87c-.38,1.16-.72,2.22-1.07,3.32a2.35,2.35,0,0,0,.78,2.63,2,2,0,0,0,2,.48,1.17,1.17,0,0,0,.74-1.76c-.37-.62-.22-1.62.61-1.74a1.16,1.16,0,0,0-.19-2.32h-.22A11.57,11.57,0,0,1,325.17,70.87Z"/><path class="cls-1" d="M112.81,15.37c-.58,1.79-.66,4.19,1.56,4.41l.19,0c1.68.15,2.29.06,2.69-1.2.53-1.61-1.88-2.67-3.83-3.09Z"/><path class="cls-1" d="M125.5,11.45a2.35,2.35,0,0,0-3.21-.19.73.73,0,0,0-.19.74,6.08,6.08,0,0,0,1.29,2.4,2.43,2.43,0,0,0,3.27.13.74.74,0,0,0,.18-.83A7.26,7.26,0,0,0,125.5,11.45Z"/><path class="cls-1" d="M171.82,21.64c.26-.21.48-.63.29-.89l-1.05-1.39a2.84,2.84,0,0,0-3.23-.68,2.5,2.5,0,0,1-.84.16c-.26,0-.52-.05-.78-.06-.58,0-1,0-1.06.23s.14.84.38,1.18.39.28.66.39a13.47,13.47,0,0,0,5.23,1.13C171.61,21.72,171.69,21.75,171.82,21.64Z"/><path class="cls-1" d="M254.16,34a1.92,1.92,0,0,0,0,1.59,7.83,7.83,0,0,0,.86,1.29c.85,1.07,3,1.7,3.32.44a1.88,1.88,0,0,0-.44-1.67,15.09,15.09,0,0,1-1.12-1.78c-.94-1.56-1.21-1.61-2.08-.69A2.39,2.39,0,0,0,254.16,34Z"/><path class="cls-1" d="M257.61,31.16a1.86,1.86,0,0,0,1.63,2.16l.75.17a2.38,2.38,0,0,0,1.27,0,2,2,0,0,0,1.46-1.85c.14-1.32,0-1.8-1.62-2.16a3,3,0,0,0-1.89,0A2.23,2.23,0,0,0,257.61,31.16Z"/><path class="cls-1" d="M10.54,53.27a1.55,1.55,0,0,0,1.18,0A3.08,3.08,0,0,0,13,52.34c1-1.45-1.83-2.06-3.63-1.27-1,.45-1.35.6-1.21,1.08a1.63,1.63,0,0,0,1.45,1.07A5.23,5.23,0,0,1,10.54,53.27Z"/><path class="cls-1" d="M29.52,44.44c-1-1.15-3.68-1.55-3.55-.15a2.23,2.23,0,0,0,0,.23,3.14,3.14,0,0,0,2.47,1.95,2.28,2.28,0,0,0,1,0C30.44,46.3,30.09,45.12,29.52,44.44Z"/><path class="cls-1" d="M95.66,20.94c1.21,0,.34-1.5-.83-1.76s-.89.28-2.09,0a1,1,0,0,0-.74.19c-.55.32-1,1.22-.34,1.37C93.48,21.38,93.57,21.15,95.66,20.94Z"/><path class="cls-1" d="M162.53,18.07A2.65,2.65,0,0,0,166,16.51a1.26,1.26,0,0,0,.05-.33,1,1,0,0,0,0-.35c-.12-.8-1.69-.9-2.55-.52l-1.09.49c-.77.34-1.32,1.38-.66,1.87a4.86,4.86,0,0,0,.51.28Z"/><path class="cls-1" d="M186,15.05c-1.68-.7-2.54,1.32-1.55,2.64a1.87,1.87,0,0,0,2.09.87,1.13,1.13,0,0,0,.61-.66,2.13,2.13,0,0,0-.93-2.76Z"/><path class="cls-1" d="M270.82,46.45c1.85.38,1.84-1.75,0-2.28a7.78,7.78,0,0,0-1.6-.31c-1.57-.11-2.11,1.55-.63,2,.59.17,1.23.29,1.85.5Z"/><path class="cls-1" d="M285.55,36.19c1.53-.76,2-3.19.21-3h-.11a2.91,2.91,0,0,0-2.42,2,.94.94,0,0,0,.22,1A1.92,1.92,0,0,0,285.55,36.19Z"/><path class="cls-1" d="M307.57,53a2.43,2.43,0,0,0,1.58-.14,2.38,2.38,0,0,0,1.09-1c.67-1.41-1.8-1.94-3.38-1.19l-.57.21c-.73.23-1,.56-.91,1a1.69,1.69,0,0,0,1.67,1.09A3,3,0,0,1,307.57,53Z"/><path class="cls-1" d="M312.89,72.42c.53.1.81-.26,1.21-.58l.08,0,1.49-.66c.83-.37,1.31-1.37.65-1.94a1.17,1.17,0,0,0-.27-.15,7.44,7.44,0,0,0-1.46-.38,2.12,2.12,0,0,0-2.39,1.21c-.13.39-.25.78-.38,1.19C311.63,71.64,312.18,72.29,312.89,72.42Z"/><path class="cls-1" d="M319.91,70.56a1.78,1.78,0,0,0,2.48.65,3.12,3.12,0,0,1,2.78-.34,1.53,1.53,0,0,0-.23-1.63,3.66,3.66,0,0,0-3.27-.94,2.28,2.28,0,0,0-1.81,1.82A.83.83,0,0,0,319.91,70.56Z"/><path class="cls-1" d="M302,46.74c-.39-.13,0-.16-.32,0a3.11,3.11,0,0,0-1.22.91c-1,1.46,1,2.07,2.77,1.27,1-.45,1.35-.6,1.21-1.08A1.64,1.64,0,0,0,303,46.79,5.32,5.32,0,0,1,302,46.74Z"/><path class="cls-1" d="M25.39,52.59c.41-1.26-.13-2.28-1.07-2s-1.27.53-1.34,1.25a2,2,0,0,1-.09.47A1.36,1.36,0,0,0,23,53.45c.28.42.62.64,1.11.42s.95-.24,1-.45Z"/><path class="cls-1" d="M64.1,27a3.08,3.08,0,0,0-.52,1.06,1.37,1.37,0,0,0,.54,1.33c.95.66,2,0,2.43-1.26a1.56,1.56,0,0,0,0-.16,1.39,1.39,0,0,0-.22-1.27,1,1,0,0,0-.42-.35,1.57,1.57,0,0,0-1.24.2A2.06,2.06,0,0,0,64.1,27Z"/><path class="cls-1" d="M73.63,14c1.36,0,.43-1.55-.89-1.86a7.6,7.6,0,0,0-.83-.16,2.64,2.64,0,0,0-1,0l-.26.09c-.71.29-1,1.05-.36,1.46a3.13,3.13,0,0,0,1.06.41A8.29,8.29,0,0,0,73.63,14Z"/><path class="cls-1" d="M82.81.78a.67.67,0,0,0,0,.52,2.09,2.09,0,0,0,2.82.81,1.6,1.6,0,0,0,.54-.36c.19-.27-.06-.62-.27-.88A2.11,2.11,0,0,0,83.31.2.9.9,0,0,0,82.81.78Z"/><path class="cls-1" d="M82.38,22.7c1.62.36,2.9,0,2.56-.78a1.7,1.7,0,0,0-1.63-1.09,3.19,3.19,0,0,1-.61-.08,2.65,2.65,0,0,0-1.53.06c-.51.2-.76.46-.47.84s.33.75.6.81Z"/><path class="cls-1" d="M91.9,10.23c.41-1.26-.13-2.28-1.07-2s-1.27.53-1.34,1.25a2.6,2.6,0,0,1-.09.47,1.39,1.39,0,0,0,.1,1.18c.29.42.63.64,1.12.42.34-.15.94-.23,1-.44S91.77,10.65,91.9,10.23Z"/><path class="cls-1" d="M112.81,15.37c.19-.61.57-1.29.76-2a1.68,1.68,0,0,0-.18-1.51,1.23,1.23,0,0,0-1.68-.26,1.82,1.82,0,0,0-.58.89,4,4,0,0,0,0,1.79C111.19,15,111.93,15.4,112.81,15.37Z"/><path class="cls-1" d="M143.3,12.78a1.16,1.16,0,0,0,.51-.59.58.58,0,0,0-.05-.5,3.56,3.56,0,0,0-3.69-.8.61.61,0,0,0-.3.37,1,1,0,0,0,.09.77c.11.21.22.4.39.44l2.42.54A1,1,0,0,0,143.3,12.78Z"/><path class="cls-1" d="M209.1,24.43c1.39.31,3.06-.42,2.09-1.31l0,0a4.34,4.34,0,0,0-3.24-.72c-1.4.35-.37,1.71,1,2Z"/><path class="cls-1" d="M275,34.67c.55-1.25,3.08-.69,2.81.62C277.48,36.76,274.34,36.07,275,34.67Z"/><path class="cls-1" d="M292.09,48.93c.84.19,1.79.53,2.71.69a3,3,0,0,0,1.61-.06c.7-.3.93-1,.31-1.44a3.3,3.3,0,0,0-1.05-.42,8.31,8.31,0,0,0-2.29-.06A1.19,1.19,0,0,0,292.09,48.93Z"/><path class="cls-1" d="M308.72,67.22c1.93.42,3.95-1.32,2-1.64a8.34,8.34,0,0,0-1.43-.1,1.49,1.49,0,0,0-.56,0,3.85,3.85,0,0,0-.39.21c-.21.14-.38.33-.31.54a1.5,1.5,0,0,0,.26.64A.87.87,0,0,0,308.72,67.22Z"/><path class="cls-1" d="M319.86,57.07c0,1.2,2.09.29,2.44-.88l.09-.37a1.34,1.34,0,0,0,0-.84,1.74,1.74,0,0,0-.2-.3,1.25,1.25,0,0,0-1.7-.3,1.82,1.82,0,0,0-.58.89A4,4,0,0,0,319.86,57.07Z"/><path class="cls-1" d="M19,51a1.13,1.13,0,0,0,.35-.09c.49-.22.73-.73.36-1.07a1.08,1.08,0,0,0-.77-.31,1.13,1.13,0,0,0-.35.09c-.49.22-.73.73-.36,1.07A1.08,1.08,0,0,0,19,51Z"/><path class="cls-1" d="M1.67,50.89a1.28,1.28,0,0,0-.45-.34,1.2,1.2,0,0,0-.73,0,.66.66,0,0,0-.33,1.08.92.92,0,0,0,.25.23,1.31,1.31,0,0,0,1,0c.46-.18.61-.58.28-.91Z"/><path class="cls-1" d="M14,50.48a1,1,0,0,0,.35-.09c.49-.22.74-.73.37-1.07a1.1,1.1,0,0,0-.77-.31,1,1,0,0,0-.35.1c-.49.21-.74.72-.37,1.07A1.13,1.13,0,0,0,14,50.48Z"/><path class="cls-1" d="M11.22,44.53a1.16,1.16,0,0,0-.48.11c-.46.2-.67.67-.33,1a1.07,1.07,0,0,0,.76.34,1.21,1.21,0,0,0,.45-.12c.49-.21.84-.71.46-1A1.34,1.34,0,0,0,11.22,44.53Z"/><path class="cls-1" d="M306.38,39.68a6.77,6.77,0,0,0-.9.31c-.14.19.31.56.43.81a1.05,1.05,0,0,0,1.35.28.7.7,0,0,0,.32-.23.58.58,0,0,0,0-.66A1,1,0,0,0,306.38,39.68Z"/><path class="cls-1" d="M2.44,57a.87.87,0,0,0,.33-.22.62.62,0,0,0,0-.67,1.05,1.05,0,0,0-1.35-.28.75.75,0,0,0-.32.23.6.6,0,0,0,0,.66A1.05,1.05,0,0,0,2.44,57Z"/><path class="cls-1" d="M220.8,19.72a.62.62,0,0,0,.15.33,1,1,0,0,0,1.33.32.71.71,0,0,0,.39-.58.59.59,0,0,0-.15-.33,1,1,0,0,0-1.33-.32A.71.71,0,0,0,220.8,19.72Z"/><path class="cls-1" d="M105.67,7.52a.74.74,0,0,0-.15-.34,1,1,0,0,0-1.34-.31.69.69,0,0,0-.39.58.71.71,0,0,0,.15.33,1.06,1.06,0,0,0,1.34.32A.71.71,0,0,0,105.67,7.52Z"/><path class="cls-1" d="M314.14,41.42a.91.91,0,0,0-.35.09c-.49.22-.73.73-.36,1.07a1.11,1.11,0,0,0,.72.3,1.15,1.15,0,0,0,.45-.11c.5-.22.81-.7.42-1A1.41,1.41,0,0,0,314.14,41.42Z"/><path class="cls-1" d="M29.62,51.69a.82.82,0,0,0-.35.09c-.49.22-.74.72-.37,1.07a1.11,1.11,0,0,0,.72.3,1.2,1.2,0,0,0,.46-.11c.49-.22.8-.71.41-1A1.38,1.38,0,0,0,29.62,51.69Z"/><path class="cls-1" d="M246.4,21.18a1.46,1.46,0,0,0,.45.36,1.24,1.24,0,0,0,.74,0,.66.66,0,0,0,.33-1.08.76.76,0,0,0-.25-.22,1.14,1.14,0,0,0-.86-.06C246.24,20.35,246,20.78,246.4,21.18Z"/><path class="cls-1" d="M48.35,15.36a.71.71,0,0,0-.41,1.26,1,1,0,0,0,.63.19.82.82,0,0,0,.35-.09c.49-.22.74-.73.37-1.07A1.09,1.09,0,0,0,48.35,15.36Z"/><path class="cls-1" d="M43.48,29.18a.79.79,0,0,0-.33.23.59.59,0,0,0,0,.66,1,1,0,0,0,1.34.28.87.87,0,0,0,.33-.22.6.6,0,0,0,0-.67A1,1,0,0,0,43.48,29.18Z"/><path class="cls-1" d="M53.94,31.64a.88.88,0,0,0-.25-.22,1.22,1.22,0,0,0-.85-.06.66.66,0,0,0-.33,1.08.79.79,0,0,0,.25.23,1.17,1.17,0,0,0,.85,0A.66.66,0,0,0,53.94,31.64Z"/><path class="cls-1" d="M52.17,12.12a.91.91,0,0,0-.36.09c-.49.22-.73.73-.36,1.07a1,1,0,0,0,.77.3.91.91,0,0,0,.35-.09c.49-.22.73-.73.36-1.07A1,1,0,0,0,52.17,12.12Z"/><path class="cls-1" d="M41.63,39.36a1.07,1.07,0,0,0,1.35.33.68.68,0,0,0,.39-.58.66.66,0,0,0-.15-.33,1,1,0,0,0-1.33-.31.69.69,0,0,0-.39.58A.56.56,0,0,0,41.63,39.36Z"/><path class="cls-1" d="M62.81,22.09a.66.66,0,0,0-.15-.33,1,1,0,0,0-1.33-.31.67.67,0,0,0-.39.58.55.55,0,0,0,.15.33,1,1,0,0,0,1.33.31A.68.68,0,0,0,62.81,22.09Z"/><path class="cls-1" d="M66.86,23.78a1,1,0,0,0,.48-.11c.46-.2.67-.66.34-1a1.15,1.15,0,0,0-.76-.34,1.25,1.25,0,0,0-.46.12c-.49.22-.84.71-.45,1.05A1.37,1.37,0,0,0,66.86,23.78Z"/><path class="cls-1" d="M76,13a1.08,1.08,0,0,0,.8-.28,4.37,4.37,0,0,0,.47-.34.62.62,0,0,0,0-.83A.93.93,0,0,0,76,11.18a3.73,3.73,0,0,0-.82.45C74.62,12.09,75.24,12.81,76,13Z"/><path class="cls-1" d="M216.26,16.52a.65.65,0,0,0-.15-.34,1,1,0,0,0-1.33-.31.69.69,0,0,0-.39.58.62.62,0,0,0,.15.33,1,1,0,0,0,1.33.32A.71.71,0,0,0,216.26,16.52Z"/><path class="cls-1" d="M219.92,9.09a.7.7,0,0,0,.32-.23.6.6,0,0,0,0-.66,1,1,0,0,0-1.35-.28.76.76,0,0,0-.32.22.6.6,0,0,0,0,.67A1.05,1.05,0,0,0,219.92,9.09Z"/><path class="cls-1" d="M87.15,13.78a.79.79,0,0,0-.25-.23,1.17,1.17,0,0,0-.85-.05.65.65,0,0,0-.33,1.07.78.78,0,0,0,.25.23,1.22,1.22,0,0,0,.85.06A.66.66,0,0,0,87.15,13.78Z"/><path class="cls-1" d="M98,19.89a1,1,0,0,0,.81-.27,5.2,5.2,0,0,0,.47-.35.6.6,0,0,0,0-.82A.91.91,0,0,0,98,18.1a3.67,3.67,0,0,0-.79.42C96.66,19,97.26,19.72,98,19.89Z"/><path class="cls-1" d="M117,8.61a1.17,1.17,0,0,0-.45-.34,1.2,1.2,0,0,0-.73,0,.66.66,0,0,0-.33,1.08.88.88,0,0,0,.25.22,1.21,1.21,0,0,0,1,0c.47-.17.62-.58.29-.9Z"/><path class="cls-1" d="M152.32,6.4a.58.58,0,0,0-.14-.33,1,1,0,0,0-1.34-.32.69.69,0,0,0-.38.54.72.72,0,0,0,.18.42,1,1,0,0,0,1.27.35A.8.8,0,0,0,152.32,6.4Z"/><path class="cls-1" d="M155.14,8.9a1,1,0,0,0-.44.34.61.61,0,0,0,0,.6,1,1,0,0,0,1.35.28.87.87,0,0,0,.33-.22.6.6,0,0,0,0-.66A.89.89,0,0,0,155.14,8.9Z"/><path class="cls-1" d="M131.7,16.93a1.19,1.19,0,0,0,.45.35,1.29,1.29,0,0,0,.73,0,.66.66,0,0,0,.33-1.08A.88.88,0,0,0,133,16a1.23,1.23,0,0,0-1,0c-.46.17-.61.58-.28.9Z"/><path class="cls-1" d="M150.92,15.55a.76.76,0,0,0-.25-.22,1.22,1.22,0,0,0-.85-.06.66.66,0,0,0-.33,1.08.79.79,0,0,0,.25.23,1.17,1.17,0,0,0,.85.05A.66.66,0,0,0,150.92,15.55Z"/><path class="cls-1" d="M164,7.57a1.07,1.07,0,0,0,1.35.33.65.65,0,0,0,.39-.58.64.64,0,0,0-.14-.33,1,1,0,0,0-1.34-.31.69.69,0,0,0-.39.58A.53.53,0,0,0,164,7.57Z"/><path class="cls-1" d="M168.8,13.05a1,1,0,0,0,.48-.11c.46-.2.67-.66.34-1a1.11,1.11,0,0,0-.77-.34,1.21,1.21,0,0,0-.45.12c-.49.22-.84.71-.46,1A1.42,1.42,0,0,0,168.8,13.05Z"/><path class="cls-1" d="M178,8.82a1,1,0,0,0,.35-.09c.49-.22.74-.73.37-1.07a1,1,0,0,0-.77-.3.82.82,0,0,0-.35.09c-.49.22-.74.73-.37,1.07A1.13,1.13,0,0,0,178,8.82Z"/><path class="cls-1" d="M189.9,5.17a.82.82,0,0,0,.35-.09c.49-.22.74-.72.37-1.07a1.11,1.11,0,0,0-.77-.3,1,1,0,0,0-.35.09c-.49.22-.74.73-.37,1.07A1,1,0,0,0,189.9,5.17Z"/><path class="cls-1" d="M193.21,12.93a.76.76,0,0,0-.25-.22,1.12,1.12,0,0,0-.85-.06.66.66,0,0,0-.33,1.08A.76.76,0,0,0,192,14a1.17,1.17,0,0,0,.85.06A.66.66,0,0,0,193.21,12.93Z"/><path class="cls-1" d="M194.79,18.75c.3-.35.09-.91-.27-1.22l0,0a3.77,3.77,0,0,0-.48-.4,1.15,1.15,0,0,0-1,0c-.54.23-.72.55-.4,1s.63.85,1.22.89C194.13,19,194.58,19,194.79,18.75Z"/><path class="cls-1" d="M203.14,14.39a.66.66,0,0,0-.37,1.09,1.06,1.06,0,0,0,.83.36.86.86,0,0,0,.35-.09c.49-.22.73-.73.36-1.07a1.1,1.1,0,0,0-.62-.3A1.69,1.69,0,0,0,203.14,14.39Z"/><path class="cls-1" d="M195,20.63a1.35,1.35,0,0,0,1.4.28.29.29,0,0,0,.11-.39,1.85,1.85,0,0,0-.67-1.06c-.81-.57-1.43-.42-1.41.24a.94.94,0,0,0,.26.67Z"/><path class="cls-1" d="M231.11,22.14q.09-.26-.36-.63a4.42,4.42,0,0,0-.48-.4,1.15,1.15,0,0,0-1,0c-.55.23-.72.54-.41,1a2.68,2.68,0,0,0,.69.73A1.16,1.16,0,0,0,231.11,22.14Z"/><path class="cls-1" d="M233,24.39a.9.9,0,0,0-.77-1.11l-.06,0c-.69-.15-1.45.25-1.34.83a1.15,1.15,0,0,0,.72.85A1,1,0,0,0,233,24.39Z"/><path class="cls-1" d="M234.35,23.75a1,1,0,0,0,.8-.28,3.12,3.12,0,0,0,.47-.34.6.6,0,0,0,0-.82.91.91,0,0,0-1.24-.35,3.5,3.5,0,0,0-.82.44C233,22.86,233.59,23.58,234.35,23.75Z"/><path class="cls-1" d="M240,9a1.07,1.07,0,0,0,.48-.4.61.61,0,0,0,0-.55,1,1,0,0,0-1.34-.28.77.77,0,0,0-.33.22.67.67,0,0,0,.07.81.82.82,0,0,0,1.11.24Z"/><path class="cls-1" d="M255.4,26a1.14,1.14,0,0,0,.36-.1c.49-.21.73-.72.36-1.07a1.11,1.11,0,0,0-.77-.3,1.13,1.13,0,0,0-.35.09c-.49.22-.73.73-.36,1.07A1.06,1.06,0,0,0,255.4,26Z"/><path class="cls-1" d="M264.64,25a.66.66,0,0,0-.15-.33,1,1,0,0,0-1.33-.31.69.69,0,0,0-.39.58.66.66,0,0,0,.15.33,1,1,0,0,0,1.33.31A.68.68,0,0,0,264.64,25Z"/><path class="cls-1" d="M269.07,30.85a1.19,1.19,0,0,0,.45.35,1.21,1.21,0,0,0,.73,0,.65.65,0,0,0,.33-1.07.69.69,0,0,0-.25-.23,1.21,1.21,0,0,0-1,0c-.47.17-.61.58-.29.91Z"/><path class="cls-1" d="M272.25,38.63a1.34,1.34,0,0,0-.48.11c-.46.2-.67.67-.34,1a1.11,1.11,0,0,0,.76.34,1,1,0,0,0,.46-.11c.49-.22.84-.71.45-1A1.37,1.37,0,0,0,272.25,38.63Z"/><path class="cls-1" d="M281,31.42a1.22,1.22,0,0,0,.45-.34.62.62,0,0,0,0-.6,1,1,0,0,0-1.34-.28.87.87,0,0,0-.33.22.6.6,0,0,0,0,.66A.89.89,0,0,0,281,31.42Z"/><path class="cls-1" d="M294,40.59c.18-.11.4-.22.47-.4a.58.58,0,0,0-.05-.55,1,1,0,0,0-1.34-.29.89.89,0,0,0-.33.23.66.66,0,0,0,.08.81.81.81,0,0,0,1.1.24Z"/><path class="cls-1" d="M312.35,55.56a1.13,1.13,0,0,0,1.37.34.72.72,0,0,0,.44-.61A.62.62,0,0,0,314,55a1,1,0,0,0-1.33-.32.78.78,0,0,0-.39.51A.64.64,0,0,0,312.35,55.56Z"/><path class="cls-1" d="M319.18,52.22a.54.54,0,0,0-.14-.33,1,1,0,0,0-1.34-.32.69.69,0,0,0-.38.54.72.72,0,0,0,.18.42,1,1,0,0,0,1.28.35A.81.81,0,0,0,319.18,52.22Z"/><path class="cls-1" d="M329.92,67.33a1.26,1.26,0,0,0,1.32.21.39.39,0,0,0,.19-.5,3.64,3.64,0,0,0-.14-.47,1.62,1.62,0,0,0-1.26-.85.5.5,0,0,0-.67.47,1.21,1.21,0,0,0,.29.88Z"/><path class="cls-1" d="M333.23,76.48a1.15,1.15,0,0,0,.48-.41.64.64,0,0,0,0-.55,1,1,0,0,0-1.35-.28.87.87,0,0,0-.33.22.69.69,0,0,0,.08.82.83.83,0,0,0,1.11.24Z"/><path class="cls-1" d="M333.41,80.67a.76.76,0,0,0,.25.22,1.22,1.22,0,0,0,.85.06.66.66,0,0,0,.33-1.08.92.92,0,0,0-.25-.23,1.17,1.17,0,0,0-.85,0A.66.66,0,0,0,333.41,80.67Z"/><path class="cls-1" d="M314.51,49.75a.76.76,0,0,0-.18-.46,1,1,0,0,0-1.22-.28.58.58,0,0,0-.27,1,1,1,0,0,0,1.3.39A.79.79,0,0,0,314.51,49.75Z"/></svg>