<svg id="Layer_1" data-name="Layer 1" xmlns="http://www.w3.org/2000/svg" viewBox="0 0 84 86"><defs><style>.cls-1{fill:#f0614a;fill-rule:evenodd;}.cls-2{fill:#f2cd30;}.cls-3,.cls-4{fill:#fff;}.cls-4{opacity:0.5;isolation:isolate;}</style></defs><path class="cls-1" d="M42.66,79.8c19,1.55,37.75-13.7,35.41-35.89C76.8,31.87,72.22,22,65.5,15.45s-15.65-10-26.63-9c-11.72,1-18.61,4.36-23.14,9.72C11,21.75,8.06,30.45,6.34,44c-1.51,12,2.6,20.17,9.23,25.79C22.46,75.65,32.45,79,42.66,79.8Zm-.45,5.54c21.95,1.79,44.14-15.87,41.39-42S63.52-1.35,38.38.9,4.33,15.62.83,43.33,20.26,83.55,42.21,85.34Z"/><path class="cls-2" d="M43,68.17c-33.82,0-18.66-38.73,0-57.08C60.52,28.42,76.85,68.17,43,68.17Z"/><path class="cls-2" d="M16.1,40.5c-11.76,0-6.49-14.09,0-20.76C22.18,26,27.86,40.5,16.1,40.5Z"/><path class="cls-3" d="M36.78,47.54c0,5.66-1,10.25-6.05,10.25-4,0-6.05-4.59-6.05-10.25s5.74-17.42,9.08-17.42S36.78,41.88,36.78,47.54Z"/><path class="cls-3" d="M12.57,33.19c0,2.13-.28,3.85-1.72,3.85-1.16,0-1.73-1.72-1.73-3.85s1.64-6.53,2.59-6.53S12.57,31.07,12.57,33.19Z"/><path class="cls-4" d="M54.43,58.72c-1.19,1.77-1.87,3.41-.42,4.38,1.15.78,2.7-.27,3.89-2.05s2-6.58,1.07-7.22S55.62,56.94,54.43,58.72Z"/><path class="cls-4" d="M19.75,37.06c-.44.65-.68,1.24-.16,1.59s1-.1,1.42-.74.74-2.39.39-2.63S20.18,36.41,19.75,37.06Z"/><path class="cls-1" d="M74,17.22A3.48,3.48,0,0,1,75.08,22c-7.2,11.55-17.55,18.74-27.81,25.83L47,48c-10.27,7.1-20.62,14.25-29.29,25.77a3.47,3.47,0,1,1-5.55-4.18C21.47,57.21,32.61,49.51,42.76,42.5l.56-.39c10.4-7.18,19.54-13.63,25.86-23.78A3.48,3.48,0,0,1,74,17.22Z"/></svg>