<svg id="Layer_1" data-name="Layer 1" xmlns="http://www.w3.org/2000/svg" viewBox="0 0 167 174"><defs><style>.cls-1,.cls-2{fill:#f2cd30;}.cls-2{fill-rule:evenodd;}</style></defs><path class="cls-1" d="M147.57,86.78c4.58,43.81-32.06,76.66-68.69,70.4s-74.51-24-68.69-70.4,21-62.43,62.32-71.09S143,43,147.57,86.78Z"/><path class="cls-1" d="M110.48,24.59c-.4-.52-.71-.79-.58-1.05.31-.84.71-1.64.93-2.3.57-.71,1.39.47,1.39-1.08,0,0-.72,0-.86-.42.62-.57-.08-.49.58-1.15-.18-.53-1,.64-1.12.11a3.28,3.28,0,0,1-.75-.65c-.36-.39-2.36,1.22-2,.82.35-.71-2.59-.09-2.23-.8.13-.26,1-.25,1.11-.51-.09-.27-.18-.53-.31-.93.22-.44-3.83,1.09-3.48.39.27-.09.71-.32,1.11-.45.22-.88-1.29-.74-1-1.94,1.11-2.21,1,1.36,2.16-1,.4-.14-.86-1.08-.46-1.22.27-.53,1.19.47,1.41,0-.09-.48-.7-.78-.83-1.18,1.64-.62-1.27.08-1.85-1.64-.8-.55-.87,1.4-1.91,2.56-.26.08-.47-1.41-.87-1.27a3.47,3.47,0,0,0-1.65.58,3.27,3.27,0,0,0-.83,4.11c0,.35.18.75.27,1.23-.27.09-.49.31-.67.23a7.5,7.5,0,0,1-1.25-.61.8.8,0,0,0-.93.09l-.84,1.68c-.09.84,1.29.74,1.16,1.67-.13,0-.31.18-.4.13-.85-.3-1.65-.69-2.49-1-.23-.44-.36-.83-.59-1.27a3,3,0,0,1-.75-.48,8.7,8.7,0,0,0-.5-1.24c-.84-.08-.75,1.29-1.68,1.16l-.14-.4a1.46,1.46,0,0,0-.36-.61.65.65,0,0,0-.66.44.64.64,0,0,1-.62.58c-.23,0-.36-.18-.49-.57s-.41-.75-1.16-1c-.62.35-1.38.76-2,1l-2.85-1.39c-.27-.36-.22-.66,0-.75L83,14c.27.13.76.26,1.11.44s-.62-.09-.13-.4c-.13-.39.18-.35,0-.75.18-.35.51-.41.15-1a12.73,12.73,0,0,1-1.48.38c-.18-.53-1.83.32-2-.21.27-.53,0-1.66.27-2.28C78.28,11.25,78,12,78.48,11.78c-.67.33-1.69.16-.89-1.43.4-.13-.46-.15-1.26.38.27-.54-1.68,1.22-1.41.69-.77-1.26,2.5-1.79,1-2,0,.35-.43-.87-.34-.39-.22.45-1.26-.69-1.53-.15.09.48-1.29.43-1.11.95-.4.8-.94-1-1.33-.21-.4.13-.1.86-.5,1-.66,1.33-.31-2.26-1-.94-.45.22-.18,1.24-.71,1.42-1,1.94.89,1.1,0,2.95-.53.4-.89,0-1.38-.12a8.49,8.49,0,0,0-.49-1.23c0-.14-.27-.14-.44-.22-.23.44-.4.79-.62,1.24A9.25,9.25,0,0,1,66.81,15a6.75,6.75,0,0,0-1.11.45,9.37,9.37,0,0,0,.36,1.28c-.62,1-.66,1.1-1.73.58-.27-.79-.63-1.63-.9-2.42,0-.13-.26-.13-.35-.18l-.62,1.24a15.55,15.55,0,0,0-1.74.59,4.42,4.42,0,0,0-1.51-.08l.27.79c.09.26-.09.4-.49.53a3.11,3.11,0,0,0-.75.4c-.22.44-.58.93-.94.76s0-.8.05-1.2c.08-.17-.09-.7-.23-.66a.66.66,0,0,0-.66.45c-.49.75-.58.71-1.43.4-.09,0-.31,0-.4-.08l-1.73.58c-.13,0-.13.26-.18.35a.67.67,0,0,1,.58.62c.05.35-.31.4-1.15.09l.17.09a.61.61,0,0,1-.48.53c-.27.09-.45,0-.45-.44,0-.09.18-.13.22-.22a1.15,1.15,0,0,1,.58-.05,1.47,1.47,0,0,0,.58-.71,5.64,5.64,0,0,0-1.16-.56c-.18-.09-.62.13-.71.31a16.16,16.16,0,0,0-1,1.95.65.65,0,0,1,.58.61c0,.35-.31.4-1,.18l-.61,1.24c-.54.18-1.16.32-1.83.54l-2.22-1.09a3.33,3.33,0,0,0-2,.76c.23.88,1.29.74,1.69,1.27a10,10,0,0,1,1.43-.4l.8.39c.27,1,.67,2,.94,3-.27.09-.58.27-.76.18-1.38-.56-2.71-1.22-4-1.87-.09-.05-.26.09-.4.13a8.45,8.45,0,0,1,.36,1.28c0,.13-.13.27-.18.35a.66.66,0,0,1,.58.62c.05.35-.31.4-1,.18l-.4.8,1.16.56a.57.57,0,0,1,.17.31c0,.13.09.27,0,.31s-.31.18-.4.14c-1-.18-1.2-.48-1-1.37a.64.64,0,0,0-.85-.08c-.49.31-.53,1.06-1.29,1l-.71-.35a7.1,7.1,0,0,0-.53-1.14c-.67,0-.71.53-1,1.06.18.53.45,1.1.72,1.89.26.36,1.2.26,1.6,1a.57.57,0,0,1,.05.35.48.48,0,0,1-.4.14,3.12,3.12,0,0,1-.94-.35,14.12,14.12,0,0,1-1.69.49,12.55,12.55,0,0,0-1.37,2.31,4.86,4.86,0,0,1-1.82.75c-.63-.08-1-.17-1.56-.21.31.93.54,1.81.81,2.6l-2.14.72a.44.44,0,0,0,0,.66c.05.13.27.13.45.22a.62.62,0,0,1,.58.61c0,.31-.53.4-1.07.14l-1.25-.61a2.63,2.63,0,0,0-.84-.3L26.79,40c.05,1,1.12.87,1.65,1.36.09.26.32.48.41.75.4,1,.67,2,1,3,.13.4.18.53-.05.75A.66.66,0,0,1,29,45.8l-.36-.17a2.37,2.37,0,0,0-1.25-1.72L27.07,43a3,3,0,0,0-1.87-.92c-.13,0-.45,0-.49.09l-1,2,.8.39a.61.61,0,0,1,.58.61c0,.22-.26.31-.66.45l-.4.13c-.27,1,1.16.79,1.07,1.63a9.16,9.16,0,0,0-1.25.49L22,51.53a.66.66,0,0,1,.58.61,1.26,1.26,0,0,1-.53,1.06.64.64,0,0,1-.85-.08c0,.09-.22.22-.17.35a16.7,16.7,0,0,0,.62,1.85c0,.14.27.14.36.18l.57-1.15c.8-.27.8-.27,1.21,0s.53.48.35,1a1.15,1.15,0,0,1-.93.76l-1.16-.57c-.08.18-.08.4-.22.44a9.92,9.92,0,0,0-1.24.49l.58,1.72a9.53,9.53,0,0,1,1.29-.36A.94.94,0,0,1,22,59.34a3.06,3.06,0,0,0-1.37,1,.79.79,0,0,1-1.16.09.83.83,0,0,0-.93.09l-1.15,2.3a.43.43,0,0,0,.35.62c.09,0,.27-.09.4-.14.27-.53.54-1.06.8-1.59.89-.22.89-.22,2.4.74.27.35.14.62-.26.53s-.54-.26-.89-.22a1.88,1.88,0,0,0-.76.18.66.66,0,0,0,.45.66c.89.66.89.66.54,1.37l-.58,1.15-.53.18c-1,.4-1.11.67-.93,1.64,0,.35.18.52,0,.75a.86.86,0,0,1-.85-.09c-.53-.26-.8-.17-1.16.32a.92.92,0,0,0,.05,1.23c.22.22.54.26.76.48.09,0,.09.27.22.44l-.84,1.68a3.74,3.74,0,0,1-1.2.41c-.09.84,1.25.83,1.16,1.67l-.4.79c-.71.54-1.38-.56-2,.1l1,3,1.25.61a.51.51,0,0,1,.57-.49c.14-.48.4-.35.58-.26a.66.66,0,0,1,.45.66c-.05.08-.49.31-.67.22a5.68,5.68,0,0,1-1.16-.57c-.09.18-.09.4-.22.45a9.92,9.92,0,0,1-1.24.49c-.45.88-.84,1.68-1.24,2.47,0,.14.09.49.13.4.27-.09.58,0,.67-.22a6.82,6.82,0,0,0,.62-1.24.66.66,0,0,1,.66-.45c.58.4,1.47.39,1.83,1.23-.66.66-1.55.67-2.4,1a8,8,0,0,1,.36,1.27l-.62,1.24,1.16.57c.09,0,.13.18.18.31s.09.26-.05.31-.31.17-.4.13c-1-.17-1.2-.48-1-1.36-.31-.26-.62-.31-.84-.08-.49.53-.93,1.19-1.82,1.2l-.58,1.15a.8.8,0,0,0-.09.83,1.09,1.09,0,0,0,1,.62c.75-.18,1.46-.5,2.22-.68.09.27.31.49.22.66a8.85,8.85,0,0,1-.75,1.51c-.44.22-1.07.14-1.2.62s.58.62.94.79c.4-.13.89-.22,1.29-.36l.58,1.72a1.82,1.82,0,0,1-.84.14A6.58,6.58,0,0,1,13.45,93c-.18-.08-.49.1-.85.14l.59,1.72a2.73,2.73,0,0,1,.75.48,8.6,8.6,0,0,0,.5,1.23,1.84,1.84,0,0,0,.93.13c.31,0,.09.26-.13.27-.45,0-.54-.27-.18-.53a1,1,0,0,1,.62-.14s.18.31-.31.4-.53.4-.67.45l-1.2.4c.14.4.23.88.32,1.14a7.84,7.84,0,0,1-1.16.54c.32.92,1.25.83,1.88,1.36.17.53.35,1.05.49,1.67-.44.45-1.47.27-1.55,1.33.13.4.26.8.4,1.19a10.68,10.68,0,0,0-1.25.49c-.17.36-.62.8-.17,1.24.31.26.71-.09,1.2-.18.71.57-.44,1.32.09,2l1,.48c.72-.32,1.47-.72,2.14-.94a3.41,3.41,0,0,1,.93.57,7.54,7.54,0,0,0,.54,1.14l1.73-.58c.14,0,.14-.27.18-.35a.52.52,0,0,1-.49-.58,7.55,7.55,0,0,1,.18-.79.66.66,0,0,1,.66-.45.86.86,0,0,1,.23.67,5.91,5.91,0,0,1-.58,1.15.72.72,0,0,1,.54.92,5,5,0,0,1-.53,1.06l1.15.57c.09,0,.14.17.18.31s.09.26,0,.31-.31.17-.4.13c-1-.17-1.2-.48-1-1.36-.18-.09-.32-.27-.45-.22A14.6,14.6,0,0,0,18,111c.09.27,0,.58.22.66a6.62,6.62,0,0,0,1.25.61.64.64,0,0,1,.44.66c-.4.14-.84.36-1.24.49.23.89,1.47,1.06,1.38,2.12.4-.14.89-.23,1.29-.37l1.61.79c.13.4.36.84.49,1.23l3.74,1.84c.27.13.58.39.45.66-.05.08-.49.31-.67.22-.4-.08-.8-.39-1.29-.08a16.5,16.5,0,0,0,.72,1.67,3.39,3.39,0,0,1,1.11-.22c.67.65-.44,1.32.09,2l1.7.83c.13.62.13.62-1,1.07l.54,1.58c.8.84,1.87.92,2.58,1.49l1.2-.4c1,.48,2.09.91,3.12,1.52.44.22.4.75.09,1.15a.66.66,0,0,0-.09.4c.09.26.18.53.32.92a3.29,3.29,0,0,1-.18.8c-.26.53-.71,1-.31,1.72l.81.39a8.25,8.25,0,0,1,2.53-.63c.31.49-.09.84-.22,1.33.18.53.45,1.1.67,1.76l1.52.74c.22.44.35.84.58,1.28a8.26,8.26,0,0,1,1.29-.36l1.24.61.58-1.15c0-.09.18-.13.31-.18s.27-.09.31,0,.18.31.14.4c-.18,1-.49,1.19-1.38,1-.13.26-.26.53-.4.79a.62.62,0,0,0-.08.84c.13.18.4.09.8-.05l.4-.13a2.49,2.49,0,0,1,.62,1.63,5.76,5.76,0,0,1-.17,1.68,6.64,6.64,0,0,1,1.29-.36,6.69,6.69,0,0,0,.54,1.14l2.26-.76a.76.76,0,0,1,.14,1.06.89.89,0,0,0,0,.88,2.78,2.78,0,0,1,.76.48c.8-.27,1.69-.49,2.49-.76.31.48,0,.88-.09,1.28a.88.88,0,0,0,.27.79,22.49,22.49,0,0,0,2.32,1.14c1.6-.54,1.6-.54,2.27.56-.09.39-.62.79-.27,1.19s.8-.27,1.16-.1A5.48,5.48,0,0,1,61,152.36c.13.61-.36,1.15-.62,1.68a.66.66,0,0,0,0,.79,1.69,1.69,0,0,0,.72-.31c.22-.22.35-.49.57-.71.05-.09.27-.09.4-.14l1.25.62a.72.72,0,0,1,.93-.54,8.54,8.54,0,0,0,1.65.48c.31,0,.09.26-.13.26-.45,0-.54-.26-.18-.53a1,1,0,0,1,.62-.13s.18.31-.31.4a8.61,8.61,0,0,0-1.73,2.57l1.34.65c.71-.31,1.46-.71,1.91-.94a8.77,8.77,0,0,0,1.6.35c.31,0,.53-.18.67-.67l-.09.18a.62.62,0,0,1-.54-.48c-.09-.27,0-.44.45-.45.09.05.13.18.22.22a1.08,1.08,0,0,1,0,.58,1.1,1.1,0,0,1,.5.79c0,.57-.53,1.06,0,1.63l1.6.79c.4-.14.89-.23,1.29-.36l.8.39c.71-.09.84-.8,1.11-1.33s.44-.66.89-.67c0,.14.18.31.13.4a9.56,9.56,0,0,1-.71,1.64c-.17.35.18.75.63,1a.88.88,0,0,0,.89,0c-.14-.4-.18-.75-.32-1.15a2.68,2.68,0,0,1,.76-.18,23.37,23.37,0,0,1,2.23,1.09l.63,1.86c-.23.44-.45.88-.62,1.23.57.4.66.66.49,1a10.78,10.78,0,0,0-.62,1.67c0,.31.18.53.58.62l1.42-2.83a.44.44,0,0,1,.71-.09.41.41,0,0,1,.13.39l-.4.8c.09.26.23.66.41.75.62.3,1.2.92,2,.56a9.37,9.37,0,0,1-.36-1.28c.14-.26.27-.53.4-.79,0-.75-.8-.84-1-1.28a.62.62,0,0,1,.08-.84l-1.16-.56a.57.57,0,0,1-.17-.31c0-.13-.09-.27,0-.31s.31-.18.4-.14c1,.18,1.2.48,1,1.37.18.08.31.26.45.21a14.6,14.6,0,0,0,1.73-.58c.13-.26.36-.48.49-.75a8.13,8.13,0,0,1-.36-1.28,1,1,0,0,1,1.47.39c.22.22.13.62.36.84s.8.61,1.11.43a.76.76,0,0,0,.53-.62.9.9,0,0,0,0-.31,6,6,0,0,1-.23-1.32c0-.57.66-.88,1.33-.67a.66.66,0,0,1,.62-.57c.36,0,.4.3.18,1l1.25.61a1.86,1.86,0,0,0,.76-.4c.35-.49.44-1.11.79-1.38.67-.22,1.25-.49,1.78-.67l1.25.61a.66.66,0,0,0,.09-.83c-.32-.49-1.12-.44-1-1.37,0-.09.18-.35.31-.62a3,3,0,0,1,.85-.13c.84.3,1.65.69,2.49,1,.09,0,.27-.09.4-.14a9.21,9.21,0,0,1-.36-1.27c0-.13.14-.27.18-.36a.51.51,0,0,1-.49-.57,7.55,7.55,0,0,1,.18-.79.66.66,0,0,1,.66-.45c.09.05.31.49.23.66a5.39,5.39,0,0,1-.58,1.15l.8.4a.67.67,0,0,0,.85.08q.25-.19,0-.66c-.18-.31-.18-.53,0-.66a.64.64,0,0,1,.85.08l.8.39c.4-.57.67-.66,1-.49a11,11,0,0,0,1.69.61c.32,0,.54-.18.63-.58l-1.34-.65c-.09-.26-.18-.75-.31-1.15,0-.13-.27-.13-.54-.26l.18.09a.61.61,0,0,1-.49.53c-.27.09-.44,0-.44-.44,0-.09.17-.13.22-.22a1.13,1.13,0,0,1,.58-.05,3.29,3.29,0,0,0,.79-1.15,4.59,4.59,0,0,1,2.27-.54c.4.31.94.57,1.34.88.22.22.18.52-.09.83l1.25.62c.53-.18,1.11-.45,1.78-.68a5.62,5.62,0,0,0,1.19-2.6c0-.31-.18-.53-.58-.62l-.62,1.24a16,16,0,0,0-1.73.58c-.49-.57-.18-1,.3-1.5.72.13,1.29-.8,2-.32.22-.44.4-.79.62-1.24.13,0,.31-.18.4-.13.31,0,.58.17.89.21s.58,0,.85-.13c.75-.18,1.46-.5,2.13-.72.31-.4-.09-.71-.09-1.15.44-.66.13-1.81,1.37-1.86.14.4.31.71.45,1.1.27-.09.49-.09.53-.17l1.64-3.28c.71-.53,1.43.48,2-.1a3.61,3.61,0,0,1-.27-1.23l1.73-.58.8.39c1.11-.67,1.11-.67.66-2.21a3.82,3.82,0,0,0,1.16-.54c0-.44-.31-.7-.76-.92-.18-.09-.31-.48-.4-.75l1.73-.58a5.1,5.1,0,0,0,1,.39c.44-.22,1-.49,1.86-.85,0,.09-.13-.17-.35-.39s-.89-.22-.9-.88a3.26,3.26,0,0,1,1.52-.58,5.86,5.86,0,0,1,1.69.17,14.63,14.63,0,0,1-.72-2.56c.49-.31.84.09,1.24.17a.42.42,0,0,0,.4-.13c.18-.13.22-.44-.09-.71a10.75,10.75,0,0,0-1.6-.78c-.45-.88.26-1.42.62-2.12.09-.18.44-.23.66-.23a2,2,0,0,0,.36.84,2.36,2.36,0,0,0,.63.52.52.52,0,0,0,.4.09c.66-.44,1.42,0,2.13,0a2.54,2.54,0,0,0,1.51-.59c0-.57-.53-.7-.89-.87-.4.13-.89.22-1.29.36-.62-1,.8-1.6.57-2.48s-1.82-.56-1.91-1.71c.8-.27,1.64-.63,2.44-.89.13-.27.27-.53.4-.8.62-.58,1.34.66,2-.1l-.59-1.72c0-.13-.26-.13-.62-.3l.18.09a.63.63,0,0,1-.49.53c-.27.09-.45,0-.45-.44.05-.09.18-.14.23-.22a1,1,0,0,1,.57,0c.4-.13.45-.44.22-.66-.35-.4-.75-.71-1.2-1.14.53-.18.85-.36,1.38-.54a9,9,0,0,0,.71-1.42.89.89,0,0,0-.67-1.1l.17.09a.61.61,0,0,1-.48.53c-.27.09-.45,0-.45-.43,0-.09.18-.14.22-.23a1.08,1.08,0,0,1,.58,0c.27-.09.27-.32.4-.36.84-.36,1.73-.58,2.44-.9.45-1.1.45-1.1-.09-1.58l-.44-.22a1.08,1.08,0,0,1,.22-1.55c.31-.17.53-.18,1-.4a23.41,23.41,0,0,0,1.68-3.36c0-.57-.22-.66-.57-.39s-.36.48-.54.62a1.83,1.83,0,0,1-.75.4c-.36-1.06-.68-2-1-3a.75.75,0,0,1,1.07.08c1-.27,1.64-.4,2.17-.58-.18-1-1.56-1.1-1.43-2.25a3.85,3.85,0,0,1-.84-.52,14.64,14.64,0,0,0-.63-1.63c.27-.53.27-.53,1-.18l.8.39,1.64-3.27-1.25-.61c-.09,0-.09-.27-.13-.4s.08-.18.13-.27c.71-.31,1.47-.49,2.13-.71a1.77,1.77,0,0,0-.4-.75,1.05,1.05,0,0,0-.76-.26c-.75.18-1.46.49-2.13.72a2.62,2.62,0,0,1-.18-.75A1.44,1.44,0,0,1,143,90c.22-.22.62-.13.84-.35a1,1,0,0,0,.53-1.06c-.09-.27-.18-.53-.31-.93a8.87,8.87,0,0,0,1.16-.53c.13-.27.26-.54.35-.71,0-.75-.71-.79-1-1.28a.62.62,0,0,1,.09-.84l-.8-.39a.84.84,0,0,1-.45-1.32l.4-.8-1.25-.61c-.09,0-.09-.26-.13-.39l.13-.27c.71-.31,1.47-.49,2.13-.72,0-.53-.31-.7-.76-.92-.26-.13-.31-.48-.44-.66a8.59,8.59,0,0,0,1.24-.49,11.61,11.61,0,0,1-.72-2.55,3,3,0,0,1,.58-.71c.22-.23.53-.18.85.08a5.87,5.87,0,0,0,.57-1.15c0-.31-.13-.62-.36-.62a3.15,3.15,0,0,1-.8.27c-.84.14-1.29-.52-1-1.36a.63.63,0,0,1-.58-.61.58.58,0,0,1,.09-.4l.66-1.33a36.41,36.41,0,0,0-1.16-3.87c.17-.36.4-.8.57-1.16l-2-1-.58-1.72c.62-.79,1.38.57,2-.23-.22-.44-.4-1-.71-1.67l-2.14-1a12.05,12.05,0,0,1-.9-2c1.07-.36,1.56.43,2.36.61.23-.23.58-.49.8-.71a4.27,4.27,0,0,0-.67-2.21c-.45-.21-.85-.52-1.25-.17-.22.23-.26.53-.48.76s-.58.26-.72.09l-.13-.4a9.74,9.74,0,0,0-.4-1.19l.84-1.68,2.26-.76c.49-.75,1.34-1.33.75-2.39l-.71-.35a8.49,8.49,0,0,1-.49-1.23c-.45,0-.58.27-.71.54-.49.75-.85.79-1.42.4-.27-.13-.32-.48-.45-.66l.4-.8c.4-.13.84-.35,1.24-.49.31-.62.58-1.15.84-1.68l-.58-1.72c-.4.14-.89.23-1.29.36l-.8-.39c-.27-.35-.22-.66.13-.71l2.13-.71c-.13-.4-.22-.88-.35-1.28.22-.44.35-.93.93-1,.27.8.62,1.63.89,2.43.14,0,.36,0,.4-.14.62-1,1.16-2.08,1.69-3.14.13-.27-.05-.57-.63-1l-.27-.13c-.44-1.1-2.09,0-1.16-3,.22-.44-1.37-.45-1.64.08.14.4-.59,1.44-.42,1.91-.13.93-1-.08-1.31.76-.31.62-1.33.88-1.47,1.59.14.4-1.78-.21-1.69.06-.05.09-1.69-.77-1.74-.68-1.86,3.71-.92-2.43-2.82,1.37-.31.18-1-3.4-1.5-3.22l-1.19,2.39a14.6,14.6,0,0,1-1.73.58c-.67-.43-.45-1.32-.9-1.76l.89-1.77a5.66,5.66,0,0,1-.9-.87,9.58,9.58,0,0,1-1.42.4L122.65,34c-.18-.53-.32-1.14-.54-1.8a6,6,0,0,1,1.11-.45c-.44-1.1-.54-1.15-2-.65-.58-.4-.36-1.5-1.34-1.54-.27-.79-.63-1.63-.85-2.51l-.89-.44c-.27.31-.62.58-.89.89a9.82,9.82,0,0,0,.4,1.41l-1.2.4c-.4.14-.53.18-.75,0a.8.8,0,0,1,.09-.84c.39-.57.26-.75-.36-1-.27-.13-.54-.26-.58-.62a.36.36,0,0,1,0-.31c.53-.18,1.25-.27,1.42-1.06a10.51,10.51,0,0,0-1.07-3.17c-.32-.05-.58-.18-.89-.22s-.54.18-.63.58a.5.5,0,0,1,.49.57c0,.22-.13.48-.17.79a.68.68,0,0,1-.67.45c-.09-.05-.31-.49-.22-.66a5.87,5.87,0,0,1,.57-1.15.51.51,0,0,1-.49-.57c0-.53.18-1,.27-1.64-1.34,0-.93,1.42-1.69,1.82l-1.2.4a4.65,4.65,0,0,1-.13,2c0,.31-.27.09-.27-.13,0-.44.27-.53.54-.18a1,1,0,0,1,.13.62C110.84,25,110.57,25.08,110.48,24.59ZM16.64,105.73l2.4,1.18c.09,0,.09.27.14.4s-.18.35-.53.4l-2.41-1.18c-.09,0-.09-.26-.13-.4S16.28,105.78,16.64,105.73Zm35.87-83a1.17,1.17,0,0,1-1.69-.83c.31-.4.26-1.2,1.11-.89A15.06,15.06,0,0,0,52.51,22.74ZM16.57,77.06c-.36-.84-.1-1.37.84-1.68C17.72,76.3,17.46,76.83,16.57,77.06ZM19,70.34c.05.13.18.31.14.39l-.4.8c-.05.09-.27.09-.4.14a.19.19,0,0,1-.27-.14c-.36-.39.09-1.28.66-1.32C18.91,70.16,19,70.29,19,70.34Zm121.45,35.28c.85-.36,1.38-.1,1.69.82C141.25,106.76,140.72,106.5,140.49,105.62ZM68.33,15.73l-.18.35-.4.13c-.22,0-.35-.17-.4-.52,0-.14.13-.27.18-.36a.65.65,0,0,1,.62-.57C68.46,14.8,68.59,15.19,68.33,15.73ZM47.07,141.13c.22,0,.35.18.4.53l-.4.14c-.22,0-.36-.18-.4-.53C46.58,141.23,46.85,141.14,47.07,141.13ZM86.66,158c0-.22.18-.35.53-.4,0,0,.09.27.14.4s-.18.35-.54.4ZM38.33,133.11l-.4.13c-.22,0-.36-.17-.4-.53l.4-.13C38.15,132.58,38.28,132.75,38.33,133.11Zm-15.27-20c.23,0,.36.17.41.53l-.4.13c-.23,0-.36-.17-.41-.53Zm-.84-51.53c0-.13-.09-.26-.13-.39s.17-.36.53-.4l.14.39C22.89,61.32,22.71,61.45,22.22,61.54Zm114.12,55c.22,0,.35.17.4.53l-.4.13c-.22,0-.36-.17-.4-.53C136,116.63,136.2,116.62,136.34,116.58ZM26.45,45.33l.14.39c-.31.18-.54.18-.67,0l-.14-.4C26.1,45.15,26.32,45.15,26.45,45.33Zm8.21-8.21.14.4c-.31.18-.54.18-.67,0L34,37.13C34.31,37,34.53,37,34.66,37.12Zm6-6.51-.14-.4c.31-.18.53-.18.67,0l.13.39C41.05,30.78,40.83,30.78,40.7,30.61ZM140.85,70.32c0-.22.17-.36.53-.4l.13.4c0,.22-.17.35-.53.39ZM49.18,24.52c-.23,0-.36-.18-.4-.53l.4-.13c.22,0,.35.17.4.52Z"/><path class="cls-1" d="M117.05,19.88c-.53.18-.71.32-.66.45l.58,1.72c.22,0,.58-.05.62-.14a23.2,23.2,0,0,0,1.2-2.39c-.36-1.06-1.25-1.05-2.1-1.36-.75.18-.66.89-1,1.38a3,3,0,0,0,1.38.34c.31.05.09.27-.13.27-.44,0-.53-.26-.18-.53a1.09,1.09,0,0,1,.62-.14C117.45,19.53,117.54,19.79,117.05,19.88Z"/><path class="cls-1" d="M143,45.16l1.25.61c.13.4.35.84.49,1.23a1.32,1.32,0,0,0,.8-.49c.66-.88.66-.88,1.38-.53l1.15.56.54-.17c0-.09,0-.31-.05-.36a6.37,6.37,0,0,0-2.72-1.44c-.66.45-1.42.18-2.13.06A.59.59,0,0,0,143,45.16Z"/><path class="cls-1" d="M89.49,170.52c0,.88,1.3.74,1.17,1.67-.14.26-.27.53-.4.79a.42.42,0,0,0,.13.4c.14.18.45.22.71-.09a11.44,11.44,0,0,0,.84-1.68c.36-.05.76-.18,1.25-.27-.18-1-1.07-1-1.65-1.36C90.83,169.85,90.25,170.34,89.49,170.52Z"/><path class="cls-1" d="M81.12,166.85l.36.18c1.07.52,1.07.52.76,1.58a.9.9,0,0,0,.71,1.24,3,3,0,0,0,.76-.19c.18-.35.4-.79.57-1.15-.66-.21-.49-1-1.11-1.53a5.38,5.38,0,0,0-1.16-.57C81.65,166.23,81.16,166.32,81.12,166.85Z"/><path class="cls-1" d="M144,35.05a.49.49,0,0,0,.31.48,1.84,1.84,0,0,1,1.12,1.32.32.32,0,0,0,.13.18c.63-.14,1.16-.32,1.78-.45l-.62-1.85a3.42,3.42,0,0,1-.85-.53A8.49,8.49,0,0,1,144,35.05Z"/><path class="cls-1" d="M37.83,25.24c-.31.4-.17.79.23,1.1a8.52,8.52,0,0,0,1.43.7,7.62,7.62,0,0,1,1.28-.36l1.16.57c.14-.27.27-.53.4-.8l-2-1c-.4.13-.89.22-1.29.36Z"/><path class="cls-1" d="M148.6,77c-.17-.52-.4-1.19-.58-1.71l-.8-.4c-.4.14-.89.45-1.29.36s-.58-.17-.58.27c.05.13.05.35.14.4a6.49,6.49,0,0,0,2.76,1.35A.76.76,0,0,1,148.6,77Z"/><path class="cls-1" d="M95.22,167.27a5.6,5.6,0,0,1,.45,1.1c.14.39.18.53.4.52a.63.63,0,0,0,.63-.57c0-.09.13-.27.22-.44a6.75,6.75,0,0,0-.45-1.11l.44-.88c0-.09-.09-.26-.13-.4a.45.45,0,0,0-.67,0Z"/><path class="cls-1" d="M143.41,64.75l1.25.61c.13.39.36.83.49,1.23.45.22.85.52,1.38.13L146,65.13a2.78,2.78,0,0,0-2-1C143.72,64.13,143.46,64.44,143.41,64.75Z"/><path class="cls-1" d="M49.78,15.78l2,1c1.06-.58,1.06-.58.79-1.59-.4.13-.75.18-1.15.32-.09-.27-.18-.31-.18-.53s-.14-.62-.45-.66a.63.63,0,0,0-.62.57A3.51,3.51,0,0,1,49.78,15.78Z"/><path class="cls-1" d="M11.2,84.67l1.16.57a.94.94,0,0,0,.93-.75c.18-.58.18-.8-.35-1.06-.36-.18-.36-.18-1.21,0A6.41,6.41,0,0,1,11.2,84.67Z"/><path class="cls-1" d="M132.35,142.5c.5,1,.5,1,1.7.83l.4-.8c-.5-1-.5-1-1.7-.83C132.62,142,132.49,142.23,132.35,142.5Z"/><path class="cls-1" d="M9.12,72c.36.39.63.75.85,1,.94.13,1.51-.36,2.36-.49-.36-.4-.63-.75-.85-1C10.64,71.4,10.06,71.89,9.12,72Z"/><path class="cls-1" d="M17.69,64.39,16,65c.13.4.45.88.27,1.24s-.18.57.27.57c.13,0,.35,0,.4-.14a4.05,4.05,0,0,0,1-1.94A1.79,1.79,0,0,1,17.69,64.39Z"/><path class="cls-1" d="M142.85,127.25l1.6.79c.18.09.45-.22.58-.27-.18-.53-.4-1.19-.58-1.71a14.76,14.76,0,0,0-1.65.62C142.67,126.73,142.67,127,142.85,127.25Z"/><path class="cls-1" d="M29.06,37.24c.75,0,1.33-.45,2-.45,0-.79-.58-.84-.94-1a9.53,9.53,0,0,1-1.29.36c-.75.18-.8.27-.44.66A1.82,1.82,0,0,0,29.06,37.24Z"/><path class="cls-1" d="M28.39,35.92c.17-.35.39-.8.57-1.15a.93.93,0,0,0-.76-.92c-.58-.18-.8-.17-1.06.36-.18.35-.18.35-.05,1.19A7.64,7.64,0,0,1,28.39,35.92Z"/><path class="cls-1" d="M142.27,53.94l.81.4a9,9,0,0,0,.49,1.23c1-.62,1-.62.71-1.64l-1.61-.78c-.09,0-.26.09-.4.13S142,53.68,142.27,53.94Z"/><path class="cls-1" d="M125.49,32.94l1.2-2.39c0-.09-.09-.26-.13-.39s-.36-.18-.72.09l-1.19,2.39c-.05.09.09.26.13.39S125.18,33.12,125.49,32.94Z"/><path class="cls-1" d="M96.15,6c-.75.18-1.06.58-1,1.28A6.83,6.83,0,0,0,95.67,9c.76-.18,1.07-.57,1-1.28A7.32,7.32,0,0,0,96.15,6Z"/><path class="cls-1" d="M24,129.86c-.23-.88-.76-1.14-1.7-.82.14.39.36.83.49,1.23s.18.53.41.52a.62.62,0,0,0,.62-.57C23.81,130.09,24,130,24,129.86Z"/><path class="cls-1" d="M74,164.46a5.64,5.64,0,0,0-1.16-.56c-.18-.09-.4.13-.67.22l.54,1.59c.27-.09.58-.05.67-.23A2.45,2.45,0,0,0,74,164.46Z"/><path class="cls-1" d="M76.31,166c.23.88.76,1.14,1.7.83-.14-.4-.36-.83-.5-1.23s-.17-.53-.4-.53a.64.64,0,0,0-.62.58C76.45,165.78,76.36,166,76.31,166Z"/><path class="cls-1" d="M64.55,156.75a5.68,5.68,0,0,0-1.16-.57c-.18-.08-.4.14-.67.23l.54,1.58c.27-.09.58,0,.67-.22A2.58,2.58,0,0,0,64.55,156.75Z"/><path class="cls-1" d="M47.66,146.38l-1.73.58c-.31.84.49.8.89,1.1A1.15,1.15,0,0,0,47.66,146.38Z"/><path class="cls-1" d="M17.69,116.93c.54.93.54.93,1.6.79.14-.48.8-.93,0-1.41A12.91,12.91,0,0,1,17.69,116.93Z"/><path class="cls-1" d="M106.58,152.78a.68.68,0,0,0,1.06-.14,14,14,0,0,0,.93-1.86.69.69,0,0,0-1.06.14Z"/><path class="cls-1" d="M11.26,90.76l-1,1.95c-.09.18.13.39.22.66,0,0,.36-.05.4-.14a3.65,3.65,0,0,0,.84-1.9C11.8,91,11.53,90.89,11.26,90.76Z"/><path class="cls-1" d="M140.33,131.65c.89-.23,1.07-.8.85-1.68-.41.13-.85.35-1.25.49s-.53.18-.53.4a.61.61,0,0,0,.58.61C140.11,131.43,140.16,131.56,140.33,131.65Z"/><path class="cls-1" d="M16.1,66.69a6.24,6.24,0,0,0-1.16-.57c-.18-.08-.4.14-.67.23l.54,1.58c.27-.09.58,0,.67-.22A2.51,2.51,0,0,0,16.1,66.69Z"/><path class="cls-1" d="M15.64,60.3l1.73-.59c.31-.84-.49-.79-.89-1.09A1.27,1.27,0,0,0,15.64,60.3Z"/><path class="cls-1" d="M141.71,113.37c-.13.49-.62.8-.26,1.2s.71-.1,1.06-.14l.4-.14.41-.13A1.13,1.13,0,0,0,141.71,113.37Z"/><path class="cls-1" d="M35.22,30.9c-.66,1.11-1.5,1.68-1.06,2.78.72-.09.8-.71,1.16-1.19A1.47,1.47,0,0,0,35.22,30.9Z"/><path class="cls-1" d="M31.25,25.1c-.93.53-.93.53-.8,1.59.49.13.94.79,1.43,0C31.7,26.2,31.43,25.63,31.25,25.1Z"/><path class="cls-1" d="M44.62,17.88c-.22-.88-.8-1.06-1.69-.83.13.4.36.84.49,1.23s.18.53.4.53a.64.64,0,0,0,.63-.58Z"/><path class="cls-1" d="M49.83,19.88c-.09,0-.31,0-.35-.17-.14-.4-.27-.8-.41-1.19a2.43,2.43,0,0,0-.66.22,5.36,5.36,0,0,0-.58,1.15l1.69.83A2.56,2.56,0,0,1,49.83,19.88Z"/><path class="cls-1" d="M50,17.41c-.05-.57-.63-1-.18-1.63-.09,0-.22-.22-.36-.18a1.1,1.1,0,0,0-1,1.16c0,.31.4.74.8.83A2.6,2.6,0,0,0,50,17.41Z"/><path class="cls-1" d="M56.13,13.27c.23.89.76,1.15,1.7.83-.14-.39-.36-.83-.5-1.23s-.18-.53-.4-.53a.64.64,0,0,0-.62.58C56.36,13.05,56.18,13.19,56.13,13.27Z"/><path class="cls-1" d="M62.94,14.08a.66.66,0,0,0,.09-.84,3.78,3.78,0,0,0-1.83-1c-.09,0-.4.14-.4.14,0,.22.05.57.23.66A8.63,8.63,0,0,0,62.94,14.08Z"/><path class="cls-1" d="M63.19,7.59c-.22-.88-.76-1.14-1.69-.83.13.4.36.84.49,1.23s.18.53.4.53A.63.63,0,0,0,63,7.94C63,7.81,63.1,7.77,63.19,7.59Z"/><path class="cls-1" d="M143,47.23a.66.66,0,0,0,.09-.84c-.14-.39-.49-.79-.05-1.23-.67-.22-.94-.13-1.11.23-.4.57-.31,1.06.31,1.36A2.64,2.64,0,0,0,143,47.23Z"/><path class="cls-1" d="M89.68,13c.89-.23,1.15-.76.84-1.68-.4.13-.85.35-1.25.49s-.53.18-.53.4a.62.62,0,0,0,.58.61C89.45,12.75,89.59,12.92,89.68,13Z"/><path class="cls-1" d="M124,27.7l-1.15-.57c-1,.27-1,.4-.94,1.42C123.3,28.23,123.39,28.28,124,27.7Z"/><path class="cls-1" d="M126,27.69c.23-.66.14-.93-.22-1.1-.67-.44-1.07-.31-1.38.31-.13.27-.26.53-.4.8.49.35.85.08,1.25-.05S125.79,27.47,126,27.69Z"/><path class="cls-1" d="M134.24,33.32c-.84-.09-.84-.09-2.18.58.58.84.67.88,1.61.57C133.84,34.11,134,33.76,134.24,33.32Z"/><path class="cls-1" d="M134,31.77c.05.58.63,1,.19,1.64.09,0,.22.22.35.17a1.09,1.09,0,0,0,1-1.15c.05-.31-.4-.75-.8-.84A1.64,1.64,0,0,0,134,31.77Z"/><path class="cls-1" d="M135,25.28l.4-.14c.17-.13.17-.35-.1-.7l-1.6-.79-.4.14c-.18.13-.17.35.09.7Z"/><path class="cls-1" d="M139.5,16.25c.36,0,.62-.13.53-.4l-.13-.39-1.6-.79c-.36.05-.54.18-.54.4l.14.4Z"/><path class="cls-1" d="M52.61,152.89c-.88.22-1.15.75-.84,1.68A1.11,1.11,0,0,0,52.61,152.89Z"/><path class="cls-1" d="M81.12,166.85l-.8-.39a6.25,6.25,0,0,0-.62,1.24c-.09.4.13.62.4.53s.36,0,.4-.14C80.72,167.65,80.9,167.3,81.12,166.85Z"/><path class="cls-1" d="M79.87,163.15a5.64,5.64,0,0,0-1.16-.56c-.18-.09-.62.13-.67.22a.66.66,0,0,0,.45.66,2.33,2.33,0,0,0,.8.17C79.56,163.77,79.78,163.55,79.87,163.15Z"/><path class="cls-1" d="M95,161.44a.66.66,0,0,0,.09-.84c-.18-.3-.62-.08-.89.45a3.84,3.84,0,0,1-.18.35c0,.14.09.27.14.4s.35.18.67,0C95,161.75,95,161.53,95,161.44Z"/><path class="cls-1" d="M96.05,159.19c0-.53-.85-1-1.34-.66a.19.19,0,0,0-.13.27c0,.53.85,1,1.34.65Z"/><path class="cls-1" d="M22.9,118.94c-.53-.26-1-.17-1,.18a.62.62,0,0,0,.58.61l.36.18c.35,0,.62-.14.53-.4s0-.35-.13-.4Z"/><path class="cls-1" d="M108.85,154.44c.22.89.76,1.15,1.69.83C110.23,154.35,109.69,154.09,108.85,154.44Z"/><path class="cls-1" d="M10.4,102.68a.67.67,0,0,0,.85.08c.35-.26.13-.7-.4-1l-.36-.17-.4.13c-.18.14-.18.36,0,.67A.59.59,0,0,0,10.4,102.68Z"/><path class="cls-1" d="M6.74,97.8A5.87,5.87,0,0,0,6.17,99c-.09.18.13.62.22.66a.68.68,0,0,0,.67-.44,2.33,2.33,0,0,0,.17-.8A.5.5,0,0,0,6.74,97.8Z"/><path class="cls-1" d="M3.36,95.69c.54,0,1-.85.67-1.33a.19.19,0,0,0-.27-.13c-.53,0-1,.84-.66,1.33Z"/><path class="cls-1" d="M11.68,96.14c.26-.53.17-1-.18-1a.62.62,0,0,0-.62.58c-.05.09-.14.26-.18.35,0,.36.13.62.4.53s.36,0,.4-.13Z"/><path class="cls-1" d="M6.73,91.62c-.54-.26-1-.17-1,.19s.18.52.58.61l.36.17c.35,0,.62-.13.53-.4s0-.35-.14-.39Z"/><path class="cls-1" d="M11.2,84.67a5.32,5.32,0,0,0-1.15-.56c-.18-.09-.63.13-.67.22a.65.65,0,0,0,.44.66,2.34,2.34,0,0,0,.81.17A.51.51,0,0,0,11.2,84.67Z"/><path class="cls-1" d="M5.88,74l-.26-.14A1,1,0,0,0,5,75.22l.27.13c.13,0,.35,0,.4-.13.13-.27.26-.53.4-.8C6.06,74.33,5.93,74.16,5.88,74Z"/><path class="cls-1" d="M141.67,136.07c.23.88.76,1.14,1.7.83A1.22,1.22,0,0,0,141.67,136.07Z"/><path class="cls-1" d="M150,119.51c-.23-.88-.76-1.15-1.7-.83C148.58,119.6,149.11,119.86,150,119.51Z"/><path class="cls-1" d="M21.88,51.13a.66.66,0,0,0-.84-.08,1.24,1.24,0,0,0-.53,1.06.61.61,0,0,0,.58.61Z"/><path class="cls-1" d="M148.11,110.12l-.27-.13a1,1,0,0,0-.66,1.33l.27.13c.13,0,.35,0,.4-.14l.39-.79C148.29,110.43,148.15,110.25,148.11,110.12Z"/><path class="cls-1" d="M29.84,29c.22.88.76,1.14,1.69.83C31.22,28.94,30.68,28.67,29.84,29Z"/><path class="cls-1" d="M143.9,82.39a5.68,5.68,0,0,0,1.16.57c.18.09.62-.14.67-.23a.66.66,0,0,0-.45-.65,2.34,2.34,0,0,0-.8-.18C144.17,81.86,144,82,143.9,82.39Z"/><path class="cls-1" d="M37.83,25.24a5.64,5.64,0,0,0,.58-1.15c.09-.18-.13-.62-.22-.66a.67.67,0,0,0-.67.44,2.6,2.6,0,0,0-.18.8A.51.51,0,0,0,37.83,25.24Z"/><path class="cls-1" d="M146.36,69.27c-.89-.21-1.2,0-1.38,1,0,.09.09.27.14.4s.22,0,.31,0,.27-.09.31-.18Z"/><path class="cls-1" d="M147.16,69.67a5.87,5.87,0,0,0-.57,1.15c-.09.17.13.61.22.66a.67.67,0,0,0,.67-.45,2.23,2.23,0,0,0,.17-.79A.5.5,0,0,0,147.16,69.67Z"/><path class="cls-1" d="M47.7,19.94c-.89-.22-1.2,0-1.38,1,0,.09.09.27.14.4s.22,0,.31,0a.57.57,0,0,0,.31-.17C47.34,20.64,47.52,20.29,47.7,19.94Z"/><path class="cls-1" d="M155.35,68.61c-.89.23-1.16.76-.84,1.68C155.44,70,155.7,69.45,155.35,68.61Z"/><path class="cls-1" d="M47.68,13.76a6,6,0,0,0-1.16-.57.84.84,0,0,0-.66.23.65.65,0,0,0,.44.66,2.34,2.34,0,0,0,.81.17C47.51,14.33,47.64,14.07,47.68,13.76Z"/><path class="cls-1" d="M150.43,60c.89-.22,1.16-.75.84-1.68C150.34,58.67,150.07,59.2,150.43,60Z"/><path class="cls-1" d="M143.91,50.89l-.26-.13a1,1,0,0,0-.67,1.33l.27.13c.13,0,.35,0,.4-.14.13-.26.26-.53.4-.79C144.09,51.2,144,51,143.91,50.89Z"/><path class="cls-1" d="M143,47.23c-.22.89,0,1.19,1,1.37.09,0,.27-.09.4-.14s0-.22.05-.31a.65.65,0,0,0-.18-.31A7.5,7.5,0,0,0,143,47.23Z"/><path class="cls-1" d="M148.76,49c.89-.23,1.15-.76.84-1.68A1.2,1.2,0,0,0,148.76,49Z"/><path class="cls-1" d="M121.52,26.48a.67.67,0,0,0,.09-.84c-.18-.31-.63-.09-.89.44,0,.09-.14.27-.18.36s.09.26.13.39.36.18.67,0Z"/><path class="cls-1" d="M142.12,31.64a.67.67,0,0,0,.85.08c.31-.18.08-.62-.45-.88l-.36-.17-.4.13c-.17.13-.17.36,0,.66C141.81,31.6,142,31.59,142.12,31.64Z"/><path class="cls-1" d="M137,33.7a6.24,6.24,0,0,0,1.16.57.84.84,0,0,0,.67-.23.67.67,0,0,0-.45-.66,2.28,2.28,0,0,0-.8-.17A.52.52,0,0,0,137,33.7Z"/><path class="cls-1" d="M132.35,22.78c.54,0,1-.85.67-1.33a.19.19,0,0,0-.27-.13c-.53,0-1,.84-.66,1.33C132.13,22.78,132.27,22.73,132.35,22.78Z"/><path class="cls-1" d="M143,26.69c-.22-.88-.76-1.14-1.69-.83C141.66,26.79,142.2,27.05,143,26.69Z"/><path class="cls-1" d="M143.46,15.66c-.23-.88-.76-1.14-1.69-.83C142.08,15.75,142.62,16,143.46,15.66Z"/><path class="cls-1" d="M150.48,98.5c.23.89.76,1.15,1.7.83C152,98.45,151.42,98.19,150.48,98.5Z"/><path class="cls-1" d="M109.06,5.94c-.89.22-1.16.75-.85,1.68C109.06,7.26,109.32,6.73,109.06,5.94Z"/><path class="cls-1" d="M122.14,10.15c-.53-.26-1-.17-1,.18a.63.63,0,0,0,.58.62l.35.17c.36,0,.62-.13.54-.4s0-.35-.14-.4S122.32,10.24,122.14,10.15Z"/><path class="cls-1" d="M47.11,154.07c.18-.13.18-.36,0-.66l-.4.13q-.27.21,0,.66Z"/><path class="cls-1" d="M72.05,167.7c-.14-.18-.36-.18-.67,0l.14.4c.13.17.35.17.66,0C72.18,168.09,72.09,167.83,72.05,167.7Z"/><path class="cls-1" d="M76.1,168.47c-.22.66-.18.79.4,1.19C76.81,169,76.72,169,76.1,168.47Z"/><path class="cls-1" d="M76.28,168.12c0-.09,0-.22-.14-.4a.34.34,0,0,0-.22-.22c-.36,0-.54.18-.45.44s.18.53.54.49C76.19,168.51,76.32,168.25,76.28,168.12Z"/><path class="cls-1" d="M61,159.55c0-.35-.18-.53-.4-.53l-.4.13c0,.36.18.53.4.53S60.91,159.59,61,159.55Z"/><path class="cls-1" d="M89.36,172.11q-.19-.27-.66,0s.09.26.13.4.36.17.67,0Z"/><path class="cls-1" d="M75.06,164.33s0-.35-.13-.4a1,1,0,0,0-.62.14c-.36.26-.27.53.18.53A2.4,2.4,0,0,0,75.06,164.33Z"/><path class="cls-1" d="M68.69,159.77c-.09,0-.22,0-.4.14a.34.34,0,0,0-.22.22c.05.35.18.53.45.44s.53-.18.48-.53C69.05,160,68.87,159.86,68.69,159.77Z"/><path class="cls-1" d="M85.62,168.07c-.67-.22-.8-.18-1.2.4C85.09,168.69,85.22,168.64,85.62,168.07Z"/><path class="cls-1" d="M86.6,169.43s.36-.05.4-.14,0-.53-.14-.61c-.26-.35-.53-.26-.53.18C86.24,169,86.47,169.25,86.6,169.43Z"/><path class="cls-1" d="M94.88,172.83l-.4.13c0,.35.18.53.4.53l.4-.14C95.28,172.91,95.11,172.83,94.88,172.83Z"/><path class="cls-1" d="M38,143.46l-.14-.39c-.35.05-.53.18-.53.4s.14.4.14.4C37.79,143.82,38,143.69,38,143.46Z"/><path class="cls-1" d="M55.51,152.65q-.27.19,0,.66l.4-.13q.26-.21,0-.66C55.82,152.47,55.64,152.6,55.51,152.65Z"/><path class="cls-1" d="M70.12,159.81s-.05-.35-.14-.4a1,1,0,0,0-.62.14c-.36.27-.27.53.18.53C69.63,160.12,69.94,159.94,70.12,159.81Z"/><path class="cls-1" d="M74.48,162q-.27.2,0,.66l.4-.13c.18-.14.18-.36,0-.67C74.79,161.77,74.61,161.9,74.48,162Z"/><path class="cls-1" d="M86.42,168.46c.22-.66.13-.93-.18-1a.63.63,0,0,0-.62.58Z"/><path class="cls-1" d="M88.47,168.8q-.27.19,0,.66l.4-.13q.27-.2,0-.66Z"/><path class="cls-1" d="M73.72,160.36c-.13-.17-.36-.17-.67,0l.14.39q.19.27.66,0S73.77,160.5,73.72,160.36Z"/><path class="cls-1" d="M45.26,145.42c-.14-.17-.36-.17-.67,0l.13.39c.14.18.36.18.67,0C45.43,145.73,45.3,145.56,45.26,145.42Z"/><path class="cls-1" d="M52.78,149.22l-.13-.39c-.36,0-.53.18-.53.4s.13.39.13.39A.44.44,0,0,0,52.78,149.22Z"/><path class="cls-1" d="M59.38,152.45l-.14-.39c-.35,0-.53.18-.53.4l.13.39A.45.45,0,0,0,59.38,152.45Z"/><path class="cls-1" d="M63.88,155.21s.35-.05.4-.14,0-.53-.14-.61c-.27-.35-.53-.26-.53.18A1,1,0,0,0,63.88,155.21Z"/><path class="cls-1" d="M35.28,139.65q-.27.21,0,.66l.4-.13q.26-.19,0-.66C35.59,139.47,35.41,139.61,35.28,139.65Z"/><path class="cls-1" d="M44.49,143.18l-.13-.4c-.36.05-.53.18-.53.4l.13.4C44.32,143.53,44.49,143.4,44.49,143.18Z"/><path class="cls-1" d="M89.3,165.13c-.17.14-.17.36,0,.67l.4-.14q.27-.19,0-.66Z"/><path class="cls-1" d="M91.17,166.49l.4-.13c0-.35-.17-.53-.4-.53l-.4.14C90.82,166.32,91,166.49,91.17,166.49Z"/><path class="cls-1" d="M87.48,163.69l.4-.14c0-.35-.18-.52-.41-.52l-.4.13C87.12,163.51,87.25,163.69,87.48,163.69Z"/><path class="cls-1" d="M32.06,135l-.13-.39c-.36,0-.54.18-.54.4l.14.39C31.88,135.35,32.06,135.21,32.06,135Z"/><path class="cls-1" d="M89.48,163.68l.4-.14c0-.35-.18-.53-.4-.52l-.4.13C89.12,163.5,89.25,163.68,89.48,163.68Z"/><path class="cls-1" d="M94.77,163.74l-.13-.4c-.36,0-.54.18-.54.4l.14.4C94.59,164.09,94.77,164,94.77,163.74Z"/><path class="cls-1" d="M17.61,121l.13.4c.36-.05.54-.18.53-.4l-.13-.4A.42.42,0,0,0,17.61,121Z"/><path class="cls-1" d="M92.67,161.5q-.19-.27-.66,0l.13.4c.14.17.36.17.67,0C92.81,161.9,92.72,161.63,92.67,161.5Z"/><path class="cls-1" d="M11.48,118.85c.14.18.36.18.67,0,0,0-.09-.26-.13-.4s-.36-.17-.67,0Z"/><path class="cls-1" d="M90.53,158.25c-.22.66-.13.92.18,1a.63.63,0,0,0,.62-.58Z"/><path class="cls-1" d="M33.69,129.51c-.13-.17-.35-.17-.66,0l.13.39c.13.18.36.18.67,0Z"/><path class="cls-1" d="M97.25,158.34s.35,0,.4-.13,0-.53-.14-.62c-.26-.35-.53-.26-.53.18C96.89,158,97.11,158.17,97.25,158.34Z"/><path class="cls-1" d="M9.25,110.86l-.4.14c0,.35.18.52.4.52l.4-.13C9.6,111,9.47,110.86,9.25,110.86Z"/><path class="cls-1" d="M14.89,116.77l.13.4c.36,0,.54-.18.53-.4l-.13-.4A.44.44,0,0,0,14.89,116.77Z"/><path class="cls-1" d="M24.78,121.62l.13.39c.36,0,.53-.17.53-.4l-.13-.39A.44.44,0,0,0,24.78,121.62Z"/><path class="cls-1" d="M13.07,114.32c.17-.14.17-.36,0-.67l-.4.14q-.27.19,0,.66C12.62,114.54,12.93,114.36,13.07,114.32Z"/><path class="cls-1" d="M104.94,157.16c.36,0,.54-.18.53-.4s-.13-.4-.13-.4c-.35,0-.53.18-.53.4S104.9,157,104.94,157.16Z"/><path class="cls-1" d="M6.32,107.73c.36,0,.54-.18.54-.4s-.14-.4-.14-.4c-.35,0-.53.18-.53.4S6.28,107.6,6.32,107.73Z"/><path class="cls-1" d="M12.07,110.43c.13.18.36.18.67,0L12.6,110c-.13-.18-.35-.18-.67,0Z"/><path class="cls-1" d="M1.08,100.17c-.18.14-.18.36,0,.67l.4-.14q.27-.2,0-.66Z"/><path class="cls-1" d="M5,105.75c0,.13.14.4.14.4.35-.05.53-.18.53-.4l-.13-.4C5.16,105.4,5,105.53,5,105.75Z"/><path class="cls-1" d="M17.23,111.64c0-.35-.18-.53-.4-.52l-.4.13c.05.35.18.53.4.53Z"/><path class="cls-1" d="M103.42,154.21s.36-.05.4-.14,0-.53-.13-.61c-.27-.36-.54-.26-.54.18A1,1,0,0,0,103.42,154.21Z"/><path class="cls-1" d="M7.82,102.52l-.4.13c0,.35.18.53.4.53l.4-.14C8.18,102.69,8,102.51,7.82,102.52Z"/><path class="cls-1" d="M8.93,101.19l-.13-.4c-.36,0-.54.18-.54.4l.14.4A.42.42,0,0,0,8.93,101.19Z"/><path class="cls-1" d="M6.92,97.45c0-.09,0-.22-.13-.4a.38.38,0,0,0-.23-.22c-.35,0-.53.18-.44.44s.18.53.53.49A.57.57,0,0,0,6.92,97.45Z"/><path class="cls-1" d="M124.15,151.9l-.4.13c0,.36.18.53.4.53l.4-.13C124.51,152.07,124.37,151.9,124.15,151.9Z"/><path class="cls-1" d="M4.32,88.53l-.41.13c0,.36.18.53.41.53l.4-.13C4.67,88.7,4.54,88.53,4.32,88.53Z"/><path class="cls-1" d="M124.19,149.6c.13.18.35.18.67,0l-.14-.4c-.13-.17-.36-.17-.67,0A.68.68,0,0,1,124.19,149.6Z"/><path class="cls-1" d="M7.93,93.65c-.17.13-.17.35,0,.66l.4-.14c.17-.13.17-.35,0-.66Z"/><path class="cls-1" d="M118.37,155.59c0-.36-.18-.53-.4-.53l-.4.13c.05.36.18.53.4.53Z"/><path class="cls-1" d="M129,149.31l-.13-.39c-.36,0-.54.18-.54.4l.14.39A.43.43,0,0,0,129,149.31Z"/><path class="cls-1" d="M119.86,146.4l-.13-.39c-.36,0-.54.17-.53.39s.13.4.13.4C119.69,146.76,119.86,146.62,119.86,146.4Z"/><path class="cls-1" d="M11.44,90.41c0-.09,0-.22-.13-.4a.41.41,0,0,0-.23-.22c-.35,0-.53.18-.44.45s.18.52.53.48C11.26,90.76,11.35,90.58,11.44,90.41Z"/><path class="cls-1" d="M8.35,82.62q-.27.19,0,.66l.4-.14q.27-.19,0-.66C8.66,82.44,8.48,82.57,8.35,82.62Z"/><path class="cls-1" d="M3.14,78.85l-.4.13c0,.36.18.53.4.53l.4-.13A.44.44,0,0,0,3.14,78.85Z"/><path class="cls-1" d="M4.56,78.22c.13.18.35.18.67,0l-.14-.4c-.13-.17-.36-.17-.67,0C4.33,77.78,4.51,78.09,4.56,78.22Z"/><path class="cls-1" d="M132.3,139.72l.4-.14c0-.35-.18-.53-.4-.52l-.4.13C132,139.54,132.08,139.72,132.3,139.72Z"/><path class="cls-1" d="M132.3,137.73l.4-.13c0-.35-.18-.53-.4-.53l-.4.14C131.94,137.56,132.07,137.73,132.3,137.73Z"/><path class="cls-1" d="M13.23,78.18q.27-.21,0-.66l-.4.13q-.27.19,0,.66C12.92,78.36,13.1,78.22,13.23,78.18Z"/><path class="cls-1" d="M137.85,133.07q.26-.19,0-.66l-.4.13c-.18.14-.18.36,0,.67C137.49,133.34,137.71,133.12,137.85,133.07Z"/><path class="cls-1" d="M11.38,65.92c-.05-.35-.18-.53-.4-.52l-.4.13c0,.35.18.53.4.53Z"/><path class="cls-1" d="M13.82,64.81c0-.14-.13-.4-.13-.4-.36,0-.54.18-.53.4l.13.4A.42.42,0,0,0,13.82,64.81Z"/><path class="cls-1" d="M12.52,61.2c0-.14-.13-.4-.13-.4-.36.05-.53.18-.53.4l.13.4C12.35,61.55,12.52,61.42,12.52,61.2Z"/><path class="cls-1" d="M11.67,56.7l-.14-.4c-.35.05-.53.18-.53.4s.13.4.13.4C11.49,57.05,11.67,56.92,11.67,56.7Z"/><path class="cls-1" d="M143.56,121.66c.17-.13.17-.35,0-.66l-.4.13c-.17.13-.17.36,0,.66C143.25,121.84,143.42,121.7,143.56,121.66Z"/><path class="cls-1" d="M145.65,122.35c-.18.14-.18.36,0,.67l.4-.14q.27-.19,0-.66C146,122.18,145.78,122.31,145.65,122.35Z"/><path class="cls-1" d="M15.27,56.37q-.27.21,0,.66l.4-.13q.27-.19,0-.66Z"/><path class="cls-1" d="M150.54,123.21c.14.18.36.18.67,0l-.13-.4c-.14-.17-.36-.17-.67,0Z"/><path class="cls-1" d="M17.76,56.27c-.09,0-.22,0-.4.14a.34.34,0,0,0-.22.22c0,.35.18.53.44.44s.54-.18.49-.54C18.16,56.36,17.89,56.23,17.76,56.27Z"/><path class="cls-1" d="M13.83,51.55c.36,0,.54-.18.54-.4l-.14-.4c-.35,0-.53.18-.53.4S13.7,51.37,13.83,51.55Z"/><path class="cls-1" d="M19.18,56.31s0-.35-.13-.4a.94.94,0,0,0-.62.14c-.36.26-.27.53.18.53C18.7,56.62,18.92,56.4,19.18,56.31Z"/><path class="cls-1" d="M21.91,44c-.09,0-.22,0-.4.14a.34.34,0,0,0-.22.22c0,.35.18.53.45.44s.53-.18.48-.53C22.18,44.12,22,44,21.91,44Z"/><path class="cls-1" d="M22.67,43.36l-.4.8c.67.22.8.17,1.2-.4Z"/><path class="cls-1" d="M22.84,43c.05-.09,0-.22-.13-.4a.43.43,0,0,0-.22-.22c-.36,0-.54.18-.45.45s.18.53.54.48A.59.59,0,0,0,22.84,43Z"/><path class="cls-1" d="M17.53,45.84c-.14-.17-.36-.17-.67,0l.13.39c.14.18.36.18.67,0C17.7,46.15,17.57,46,17.53,45.84Z"/><path class="cls-1" d="M144.79,99.46q-.27.2,0,.66l.4-.13q.27-.21,0-.66C145.1,99.28,144.92,99.42,144.79,99.46Z"/><path class="cls-1" d="M144.34,97.92l-.8-.39c-.22.66-.13.92.18,1A.66.66,0,0,0,144.34,97.92Z"/><path class="cls-1" d="M145.32,97.74s0-.36-.13-.4-.54,0-.63.14c-.35.26-.26.53.18.52A1,1,0,0,0,145.32,97.74Z"/><path class="cls-1" d="M146.16,96.06l-.13-.4c-.36,0-.54.18-.54.4l.14.4C146,96.41,146.16,96.28,146.16,96.06Z"/><path class="cls-1" d="M25.23,35.8l-.14-.39c-.35,0-.53.18-.53.4l.13.39C25.05,36.16,25.23,36,25.23,35.8Z"/><path class="cls-1" d="M146.16,94.07s0-.35-.14-.4-.53,0-.62.14c-.36.27-.27.53.18.53A1,1,0,0,0,146.16,94.07Z"/><path class="cls-1" d="M25.31,32.54l-.4.13c0,.36.18.53.4.53l.4-.13C25.66,32.71,25.53,32.54,25.31,32.54Z"/><path class="cls-1" d="M28.37,31.51q.27-.2,0-.66L28,31c-.17.13-.17.36,0,.66C28.06,31.69,28.24,31.55,28.37,31.51Z"/><path class="cls-1" d="M31.93,31.27c.05.13.14.4.14.4.35-.05.53-.18.53-.4l-.13-.4A.42.42,0,0,0,31.93,31.27Z"/><path class="cls-1" d="M29.25,27.31c-.13-.17-.35-.17-.66,0,0,0,.09.26.13.39s.36.18.67,0C29.48,27.75,29.3,27.45,29.25,27.31Z"/><path class="cls-1" d="M145.73,84.72s0-.35-.13-.4a1,1,0,0,0-.62.14c-.36.27-.27.53.17.53C145.29,84.94,145.47,84.81,145.73,84.72Z"/><path class="cls-1" d="M154.68,87.23q.27-.2,0-.66l-.4.13c-.18.14-.18.36,0,.67C154.24,87.45,154.5,87.37,154.68,87.23Z"/><path class="cls-1" d="M156.68,87.88c-.17.14-.17.36,0,.66l.4-.13c.17-.13.17-.35,0-.66Z"/><path class="cls-1" d="M149.68,81.48c-.17.13-.17.35,0,.66l.4-.13c.17-.14.17-.36,0-.67C150,81.21,149.82,81.43,149.68,81.48Z"/><path class="cls-1" d="M34.18,23.67q-.2-.27-.66,0l.13.4c.13.18.36.17.67,0C34.36,24,34.23,23.8,34.18,23.67Z"/><path class="cls-1" d="M148.17,79.63l-.14-.39c-.35,0-.53.18-.53.4l.13.39A.44.44,0,0,0,148.17,79.63Z"/><path class="cls-1" d="M144.9,72s-.05-.35-.14-.39-.53,0-.62.13c-.35.27-.26.53.18.53C144.41,72.29,144.72,72.11,144.9,72Z"/><path class="cls-1" d="M151.13,74.81l-.39.13c0,.36.17.53.4.53l.4-.13C151.49,75,151.36,74.81,151.13,74.81Z"/><path class="cls-1" d="M148.82,72.13c.17-.13.17-.35,0-.66l-.4.13q-.25.21,0,.66C148.5,72.31,148.68,72.17,148.82,72.13Z"/><path class="cls-1" d="M159.33,76.84l-.4.13c0,.36.17.53.4.53l.4-.13C159.68,77,159.55,76.84,159.33,76.84Z"/><path class="cls-1" d="M146.36,69.27l.8.4c.22-.67.13-.93-.18-1A.63.63,0,0,0,146.36,69.27Z"/><path class="cls-1" d="M149.48,69.92l-.4.13c0,.36.18.53.4.53l.4-.13C149.83,70.1,149.7,69.92,149.48,69.92Z"/><path class="cls-1" d="M46.27,16.59c-.05-.35-.18-.53-.41-.53l-.4.14c0,.35.18.53.41.53S46.13,16.64,46.27,16.59Z"/><path class="cls-1" d="M44.17,13.25l-.4.13c0,.36.18.53.4.53l.4-.13A.44.44,0,0,0,44.17,13.25Z"/><path class="cls-1" d="M48.75,13.62s0-.35-.13-.39-.54-.05-.63.13c-.35.27-.26.53.18.53C48.26,13.93,48.57,13.76,48.75,13.62Z"/><path class="cls-1" d="M143.09,58.53c-.09-.05-.23,0-.4.13a.39.39,0,0,0-.23.22c0,.36.18.53.45.44s.53-.18.49-.53A.24.24,0,0,0,143.09,58.53Z"/><path class="cls-1" d="M52.75,13.38c-.13-.18-.35-.17-.66,0l.13.4c.13.18.36.18.67,0C52.93,13.69,52.8,13.51,52.75,13.38Z"/><path class="cls-1" d="M144.42,58.52s0-.35-.13-.4a1,1,0,0,0-.63.14c-.35.27-.26.53.18.53A1,1,0,0,0,144.42,58.52Z"/><path class="cls-1" d="M54.76,13.81c.17-.13.17-.35,0-.66l-.4.13c-.17.14-.17.36,0,.67Z"/><path class="cls-1" d="M146,52.91c-.13-.18-.36-.18-.67,0l.14.4q.2.25.66,0Z"/><path class="cls-1" d="M64.32,12.66s.35-.05.4-.14,0-.53-.14-.61c-.27-.35-.53-.26-.53.18C64,12.17,64.18,12.48,64.32,12.66Z"/><path class="cls-1" d="M63.78,10.41c-.22.66-.18.8.4,1.19C64.4,10.94,64.36,10.81,63.78,10.41Z"/><path class="cls-1" d="M64,10.06c0-.09,0-.22-.14-.4s-.13-.17-.22-.22c-.36.05-.54.18-.45.45s.18.52.54.48C63.78,10.41,63.91,10.15,64,10.06Z"/><path class="cls-1" d="M67.25,11.67c0-.09,0-.22-.13-.39a.35.35,0,0,0-.23-.22c-.35,0-.53.18-.44.44s.18.53.54.48C67.16,12.07,67.21,11.76,67.25,11.67Z"/><path class="cls-1" d="M153.61,51.24c.13.17.36.17.67,0l-.14-.39q-.19-.27-.66,0Z"/><path class="cls-1" d="M157.84,50.77q-.27.21,0,.66l.4-.13q.27-.19,0-.66C158.15,50.6,158,50.73,157.84,50.77Z"/><path class="cls-1" d="M69.5,5.4c-.17.13-.17.35,0,.66l.4-.14c.17-.13.17-.35,0-.66Z"/><path class="cls-1" d="M127.94,34.25c0-.35-.18-.53-.4-.52l-.4.13c0,.35.18.53.4.53S127.72,34.25,127.94,34.25Z"/><path class="cls-1" d="M149.32,44.51l-.13-.4c-.36,0-.53.18-.53.4l.13.4C149.15,44.86,149.32,44.73,149.32,44.51Z"/><path class="cls-1" d="M157.51,46.32q-.19-.27-.66,0l.13.4c.14.17.36.17.67,0Z"/><path class="cls-1" d="M85.84,10.87l.41-.14c0-.35-.18-.52-.41-.52l-.4.13C85.49,10.69,85.62,10.87,85.84,10.87Z"/><path class="cls-1" d="M150.43,42.3q.27-.21,0-.66l-.4.13q-.27.19,0,.66C150,42.52,150.3,42.34,150.43,42.3Z"/><path class="cls-1" d="M94.7,13.34c-.08-.05-.22,0-.4.13a.43.43,0,0,0-.22.22c0,.36.18.53.45.44s.53-.18.49-.53C95.06,13.51,94.88,13.43,94.7,13.34Z"/><path class="cls-1" d="M96.13,13.37s0-.35-.14-.39a1,1,0,0,0-.62.13c-.35.27-.26.53.18.53C95.64,13.69,96,13.51,96.13,13.37Z"/><path class="cls-1" d="M126.19,28.66s.36-.05.41-.14a1,1,0,0,0-.14-.61c-.27-.35-.53-.26-.53.18C125.84,28.26,126.06,28.48,126.19,28.66Z"/><path class="cls-1" d="M149.94,40.18q.19.27.66,0l-.13-.4c-.13-.17-.36-.17-.67,0C149.76,39.87,149.89,40.05,149.94,40.18Z"/><path class="cls-1" d="M148.33,38.29q.27-.2,0-.66l-.4.14q-.27.19,0,.66Z"/><path class="cls-1" d="M159.29,43.66l.13.4c.36-.05.54-.18.53-.4l-.13-.4A.44.44,0,0,0,159.29,43.66Z"/><path class="cls-1" d="M154.83,40.38c0,.13.13.39.13.39.36,0,.54-.18.54-.4l-.14-.39C155,40,154.83,40.16,154.83,40.38Z"/><path class="cls-1" d="M115.32,19.36c-.09,0-.23,0-.4.14a.36.36,0,0,0-.23.22c0,.35.18.53.45.44s.53-.18.49-.53C115.67,19.54,115.5,19.45,115.32,19.36Z"/><path class="cls-1" d="M163.56,43.33c-.18.13-.18.36,0,.66l.4-.13c.18-.13.18-.36,0-.66Z"/><path class="cls-1" d="M158.16,39.7c-.17.13-.17.35,0,.66l.4-.14q.26-.19,0-.66A.74.74,0,0,1,158.16,39.7Z"/><path class="cls-1" d="M166.45,43.76q-.27.2,0,.66l.4-.14q.27-.2,0-.66Z"/><path class="cls-1" d="M127.21,23.54q-.27.2,0,.66l.4-.14c.18-.13.17-.35,0-.66C127.65,23.31,127.47,23.45,127.21,23.54Z"/><path class="cls-1" d="M121.81,20.34c.14.18.36.18.67,0l-.13-.4c-.14-.17-.36-.17-.67,0Z"/><path class="cls-1" d="M144,30c0-.35-.18-.53-.4-.53l-.4.14c0,.35.18.53.4.52S143.81,30,144,30Z"/><path class="cls-1" d="M154.94,32.83c-.13-.17-.35-.17-.66,0l.13.39c.13.18.36.18.67,0Z"/><path class="cls-1" d="M162,37.07s.35,0,.4-.13a1,1,0,0,0-.14-.62c-.26-.35-.53-.26-.53.18A2.06,2.06,0,0,0,162,37.07Z"/><path class="cls-1" d="M76.82,6.56q-.27.2,0,.66l.4-.14q.27-.2,0-.66Z"/><path class="cls-1" d="M117.53,13.62l-.14-.4c-.35,0-.53.18-.53.4l.13.4C117.35,14,117.53,13.84,117.53,13.62Z"/><path class="cls-1" d="M162.07,35.66c0-.09,0-.22-.14-.39a.32.32,0,0,0-.22-.22c-.35,0-.53.18-.44.44s.18.53.53.48C162,36.06,162.07,35.88,162.07,35.66Z"/><path class="cls-1" d="M135.63,35.21l-.4.13c0,.35.17.53.4.53l.4-.13C136,35.38,135.85,35.21,135.63,35.21Z"/><path class="cls-1" d="M160.54,31l.14.4c.36-.05.53-.18.53-.4s-.13-.4-.13-.4C160.72,30.6,160.54,30.73,160.54,31Z"/><path class="cls-1" d="M164.1,31.37c0-.13-.13-.39-.13-.39-.35,0-.53.18-.53.4s.13.39.13.39C163.93,31.73,164.11,31.59,164.1,31.37Z"/><path class="cls-1" d="M134.77,29.83l-.14-.4c-.35.05-.53.18-.53.4l.13.4A.45.45,0,0,0,134.77,29.83Z"/><path class="cls-1" d="M138.33,30.91q.27-.19,0-.66l-.4.14q-.27.2,0,.66Z"/><path class="cls-1" d="M86.3,1.09c.13.18.36.17.67,0l-.14-.4c-.13-.18-.35-.17-.66,0Z"/><path class="cls-1" d="M138.68,25.43c-.18.14-.18.36,0,.67l.4-.14q.27-.2,0-.66Z"/><path class="cls-1" d="M129.34,4c-.14-.18-.36-.17-.67,0l.13.4c.14.18.36.17.67,0C129.51,4.29,129.38,4.11,129.34,4Z"/><path class="cls-1" d="M139.36,9c-.05-.13-.14-.4-.14-.4-.35.05-.53.18-.53.4l.14.4C139.18,9.35,139.36,9.22,139.36,9Z"/><path class="cls-1" d="M131.41,16.69l-.14-.39c-.36,0-.53.18-.53.4l.13.39C131.27,17.18,131.36,17,131.41,16.69Z"/><path class="cls-1" d="M103.27,4l-.4.14c0,.35.18.53.4.53l.4-.14A.42.42,0,0,0,103.27,4Z"/><path class="cls-1" d="M104.73,2.17q.27-.21,0-.66l-.4.13q-.27.2,0,.66Z"/><path class="cls-1" d="M107.4,1.93l-.4.14c0,.35.18.53.4.52l.4-.13C107.75,2.11,107.62,1.93,107.4,1.93Z"/><path class="cls-1" d="M54.73,4.77l-.4.13c.05.35.18.53.4.53l.4-.14A.41.41,0,0,0,54.73,4.77Z"/><path class="cls-1" d="M112.71,10.16c.14.17.36.17.67,0l-.13-.39c-.14-.18-.36-.18-.67,0C112.49,9.72,112.67,10,112.71,10.16Z"/><path class="cls-1" d="M131.17,11.18q.27-.19,0-.66l-.4.13q-.27.21,0,.66C130.73,11.4,131,11.22,131.17,11.18Z"/><path class="cls-1" d="M124.77,10.67l-.13-.4c-.36.05-.54.18-.54.4l.14.4C124.64,11.15,124.73,11,124.77,10.67Z"/><path class="cls-1" d="M123.23,15.53l-.14-.4c-.35,0-.53.18-.53.4l.13.4C123.05,15.88,123.23,15.75,123.23,15.53Z"/><path class="cls-1" d="M74.26,2.55q-.27.2,0,.66l.4-.14q.27-.19,0-.66Z"/><path class="cls-1" d="M136.69,33.53c-.09-.05-.22,0-.4.13a.34.34,0,0,0-.22.22c0,.35.18.53.44.44s.54-.18.49-.53C137,33.7,136.78,33.57,136.69,33.53Z"/><path class="cls-2" d="M151.64,108.23c-.9-.63-1.55.09-2.34,1.61v0c0,.14,0,.29-.08.43a21.14,21.14,0,0,1,.25,2.46c-.26,1.15-1.19,1.63-1.74,3.54a66,66,0,0,1-5.35,13.26,48.91,48.91,0,0,1-8.93,11.12c-1.47,1.39-2.79,2.5-3.73,3.26l-1.1.87c-.12.09-.22.17-.29.21l-.06.06h0a1.9,1.9,0,0,0-.43,2.73,2.55,2.55,0,0,0,3.31,0c.29-.21,1.78-2.18,2.28-2.59,1-.81,1.33-.35,2.89-1.83,3.11-2.95,4.33-6,7.06-10.93S149.92,122,151.08,118c.58-2,1.55-4.39,1.82-5.6.14-.6.24-1.08.31-1.41C153.46,109.7,152.79,109,151.64,108.23Z"/><path class="cls-2" d="M45.68,153.56c.62-.77,0-1.4-1.31-2.21h0l-.38-.1a21.29,21.29,0,0,1-2.23.07c-1-.3-1.38-1.17-3.06-1.78-4.78-.33-6.85-4.15-10.55-7-1.16-1.4-2.08-2.65-2.7-3.54-.31-.44-.55-.8-.7-1l-.18-.27,0-.07h0a1.71,1.71,0,0,0-2.42-.55,2.28,2.28,0,0,0-.24,3c.18.27,1.85,1.72,2.18,2.2.67,1,.23,1.21,1.46,2.7,4.28,5.18,5.28,5.23,11.46,7.5,1.76.64,3.84,1.66,4.91,2l1.24.36C44.24,155.09,44.89,154.53,45.68,153.56Z"/><path class="cls-2" d="M73.72,9.69c-.18,1,.88,1.29,2.83,1.39h0L77,11a21.22,21.22,0,0,1,2.37-1.15c1.28-.22,2.25.39,4.46.14,6.67-.9,10.1.48,15.92,1.27,2.15.73,3.94,1.43,5.19,1.94.62.26,1.11.47,1.43.62l.37.16.09,0h0a2.32,2.32,0,0,0,3-.67c.46-1-.36-2.28-1.64-2.85-.36-.16-3.11-.68-3.78-1-1.33-.55-1-1-3.31-1.77C93,5.77,90.39,6,83.9,6.46c-2.32.26-5.24.34-6.6.57l-1.58.28C74.29,7.58,74,8.41,73.72,9.69Z"/><path class="cls-2" d="M151.31,79.56c-.05.67-.1,1.2-.13,1.55,0,.18,0,.31-.05.4v.12h0a2.33,2.33,0,0,0,1.57,2.62c1.12.11,2.05-1.06,2.19-2.45S153.82,77.72,151.31,79.56Z"/><path class="cls-2" d="M16,43.12c.53-1.06,1.53-1.3,2.55-3A67.19,67.19,0,0,1,27,28.38c1.51-1.64.8-4.2-.17-3.15-3.77,4.09-8.88,8.68-11,12.31-1.06,1.82-2.59,3.93-3.15,5.05L12,43.91C9.94,48.25,14.22,46.61,16,43.12Z"/></svg>