<svg id="Layer_1" data-name="Layer 1" xmlns="http://www.w3.org/2000/svg" viewBox="0 0 188 172"><defs><style>.cls-1,.cls-2{fill:#2d9cdb;}.cls-2{fill-rule:evenodd;}</style></defs><path class="cls-1" d="M148.62,56.58c0-.71,0-1.15.26-1.27.84-.47,1.73-.85,2.37-1.23,1-.18.82,1.36,1.9.09,0,0-.58-.53-.41-1,.91,0,.27-.46,1.28-.54.22-.56-1.23-.13-1-.69a3.67,3.67,0,0,1-.16-1.06c0-.57-2.79-.65-2.25-.76.78-.33-2.06-1.89-1.27-2.22.29-.13,1,.48,1.27.36.11-.28.23-.56.39-1,.49-.21-3.9-1.79-3.12-2.12.28.11.8.24,1.23.41.8-.57-.54-1.51.51-2.31,2.46-1-.16,1.79,2.5.67.42.17,0-1.49.47-1.32.59-.25.64,1.22,1.13,1,.27-.46,0-1.13.15-1.55,1.78.64-1.1-.82-.37-2.64-.27-1-1.69.53-3.35.76-.28-.12.59-1.48.17-1.65a3.79,3.79,0,0,0-1.76-.68A3.53,3.53,0,0,0,145,40.69c-.21.32-.37.74-.64,1.2-.28-.11-.62-.08-.7-.28a6.71,6.71,0,0,1-.6-1.37.88.88,0,0,0-.83-.58l-1.87.79c-.65.62.54,1.51-.21,2.18-.14-.06-.38-.07-.43-.17-.48-.84-.86-1.73-1.34-2.57.13-.51.29-.93.42-1.45a3,3,0,0,1-.29-.93,9.64,9.64,0,0,0,.47-1.35c-.64-.66-1.52.52-2.2-.24l.17-.42a1.63,1.63,0,0,0,.14-.75.72.72,0,0,0-.86-.1.68.68,0,0,1-.91,0c-.19-.16-.17-.4,0-.82s.2-.89-.24-1.63c-.76-.15-1.66-.35-2.32-.53-.59-1.38-1-2.26-1.36-3.15,0-.47.28-.69.56-.58l1.55.62c.13.3.44.75.61,1.14s-.45-.51.16-.42c.17-.42.4-.17.57-.58.39-.17.7,0,.84-.74a12.75,12.75,0,0,1-1.48-.74c.22-.56-1.72-1-1.49-1.57.58-.25,1.12-1.39,1.81-1.68-3-.92-3.67-.47-3.15-.34-.79-.2-1.5-1.05.27-1.8.42.17-.28-.44-1.3-.57.59-.25-2.23-.17-1.64-.42.25-1.58,3.3.28,2.22-.94-.21.32.26-1,0-.56-.49.21-.55-1.44-1.14-1.19-.26.46-1.36-.56-1.58,0-.89.38-.06-1.48-1-1.11-.42-.17-.67.64-1.1.47-1.47.62,1.34-2.08-.14-1.45-.52-.13-1,.89-1.57.66-2.16.91,0,1.53-2.1,2.4-.72-.05-.73-.62-1-1.07a11.35,11.35,0,0,0,.46-1.36c0-.14-.13-.29-.22-.49l-1.37.58a10.52,10.52,0,0,1-.6,1.3,6.82,6.82,0,0,0-1.23-.41,10.52,10.52,0,0,0-.6,1.3c-1.22.4-1.31.44-1.82-.74.33-.83.62-1.77,1-2.61,0-.14-.13-.29-.17-.39l-1.38.58a17.42,17.42,0,0,0-1.83-.74A4.88,4.88,0,0,0,112.31,14c-.11.28-.22.56-.34.84s-.34.26-.77.09a3.19,3.19,0,0,0-.9-.2c-.49.21-1.12.36-1.29,0s.52-.69.87-.95c.19-.08.42-.64.28-.7a.72.72,0,0,0-.86-.1c-.93.27-1,.17-1.45-.67,0-.1-.22-.25-.27-.35l-1.83-.73c-.14-.06-.29.12-.39.16a.71.71,0,0,1,0,.91c-.2.32-.53.11-1-.73a1.89,1.89,0,0,1,.09.19.67.67,0,0,1-.78.1c-.28-.11-.36-.31,0-.67.09,0,.24,0,.33,0a1.17,1.17,0,0,1,.51.37,1.65,1.65,0,0,0,1-.18,6,6,0,0,0-.55-1.28.86.86,0,0,0-.8-.24,17.16,17.16,0,0,0-2.17.91.71.71,0,0,1,0,.91c-.21.33-.53.11-.93-.53l-1.38.58c-.56-.23-1.16-.55-1.87-.84L96.75,8.37a3.62,3.62,0,0,0-2.21-.81c-.43.88.54,1.52.5,2.23a12.31,12.31,0,0,1,1.45.66c.13.3.26.59.38.89-.49,1-.83,2.09-1.32,3.11-.28-.11-.66-.18-.75-.38-.73-1.43-1.37-2.9-2-4.37,0-.1-.28-.12-.42-.17a9.69,9.69,0,0,1-.6,1.29c0,.14-.29.13-.39.17a.72.72,0,0,1,0,.91c-.21.32-.53.11-.93-.54l-.88.38L90.16,13a.56.56,0,0,1-.07.38c0,.14-.11.28-.25.22s-.38-.07-.42-.17c-.72-.85-.65-1.23.15-1.8a.68.68,0,0,0-.64-.66c-.62-.09-1.18.5-1.77-.07-.12-.29-.25-.59-.34-.78a6.54,6.54,0,0,0,.36-1.32c-.54-.46-1-.06-1.54.19-.22.56-.4,1.22-.74,2.06,0,.47.8,1,.61,1.94-.06.14-.11.28-.21.33a.51.51,0,0,1-.42-.17,3.34,3.34,0,0,1-.52-.94,17.22,17.22,0,0,1-1.73-.78,13.18,13.18,0,0,0-2.74.92,5.17,5.17,0,0,1-2-.65c-.45-.51-.72-.86-1.13-1.27-.39,1-.82,1.86-1.15,2.7l-2.25-.91a.48.48,0,0,0-.47.55c0,.14.13.29.22.49a.68.68,0,0,1,0,.91c-.25.22-.72,0-1-.64s-.38-.88-.6-1.37a2.62,2.62,0,0,0-.48-.84l-1.82-.74c-.68.86.3,1.5.4,2.27-.12.28-.09.61-.2.89-.35,1.08-.84,2.1-1.28,3.22-.17.41-.22.55-.56.58a.72.72,0,0,1-.64-.66l-.17-.39A2.55,2.55,0,0,0,67,14.22l.39-1a3.25,3.25,0,0,0-.89-2.06c-.14-.06-.37-.31-.47-.27l-2.25.95c.12.3.25.59.38.89a.67.67,0,0,1,0,.91c-.15.18-.43.07-.86-.1l-.42-.17c-.89.61.4,1.45-.26,2.08A9.79,9.79,0,0,0,61.28,15l-4,1.7a.72.72,0,0,1,0,.91,1.32,1.32,0,0,1-1.17.5.68.68,0,0,1-.64-.66c-.1,0-.34,0-.39.17a18,18,0,0,0-.78,1.95c-.06.14.12.3.17.39l1.27-.54c.85.34.85.34,1,.88s.1.77-.44,1.11a1.26,1.26,0,0,1-1.3,0l-.55-1.28c-.2.09-.35.27-.49.21a9.79,9.79,0,0,0-1.36-.47l-.73,1.82a10,10,0,0,1,1.31.61c-.18.65-.69,1.1-1.39.82A3.34,3.34,0,0,0,50,22.92c-.4.17-.9-.2-1-.73a.89.89,0,0,0-.83-.58l-2.55,1.08a.47.47,0,0,0-.14.76c0,.1.28.11.42.17l1.77-.75c.89.44.89.44,1.45,2.29,0,.47-.32.6-.59.25s-.25-.59-.57-.8-.65-.43-.75-.38a.72.72,0,0,0-.1.85c.27,1.16.27,1.16-.51,1.49l-1.28.54-.56-.22c-1.08-.36-1.38-.23-1.91.69-.21.32-.22.56-.56.58s-.51-.36-.63-.66c-.26-.59-.54-.7-1.17-.55A1,1,0,0,0,39.59,28c0,.33.26.58.29.92,0,.1-.12.28-.13.52l-1.87.79a4.5,4.5,0,0,1-1.26-.51c-.66.62.44,1.55-.22,2.18l-.88.37c-1-.06-.74-1.43-1.75-1.35l-1.28,3.21.59,1.38a.55.55,0,0,1,.81,0c.45-.3.58,0,.67.19a.72.72,0,0,1-.1.85c-.1,0-.62-.09-.7-.28A6.06,6.06,0,0,1,33.2,35c-.19.08-.35.26-.49.21a9.79,9.79,0,0,1-1.36-.47L28.6,35.89c-.06.14-.27.46-.17.42.28.11.51.37.7.28A6.29,6.29,0,0,0,30.51,36a.74.74,0,0,1,.86.1c.2.73.93,1.35.64,2.29-1,.08-1.75-.54-2.69-.84a9.23,9.23,0,0,1-.6,1.3l-1.38.58c.17.39.39.88.56,1.28,0,.09,0,.23-.07.37s-.11.28-.26.23-.38-.08-.42-.17c-.72-.86-.65-1.24.15-1.81-.07-.43-.3-.69-.63-.66a2.71,2.71,0,0,1-2.34-.29l-1.27.54c-.3.12-.59.25-.66.63a1.16,1.16,0,0,0,.41,1.22c.75.38,1.55.62,2.29,1-.11.28-.08.62-.28.7a9.19,9.19,0,0,1-1.67.7c-.52-.12-1-.63-1.42-.32s.05.91.22,1.3c.42.17.88.44,1.31.61-.28.69-.51,1.25-.73,1.81a1.88,1.88,0,0,1-.79-.48,6.72,6.72,0,0,1-.59-1.37c-.09-.2-.47-.27-.79-.48l-.72,1.81a3.24,3.24,0,0,1,.28.93,8.88,8.88,0,0,0-.46,1.35c0,.1.13.3.68.76.22.26-.12.28-.3.13-.37-.31-.25-.59.22-.56a1.07,1.07,0,0,1,.61.32s-.07.38-.53.11-.72,0-.86-.1L18,48.49c-.17.42-.43.88-.54,1.16a9.55,9.55,0,0,1-1.32-.37c-.39,1,.44,1.56.58,2.42A15.8,15.8,0,0,1,16,53.42c-.67,0-1.39-.8-2.21,0l-.5,1.25a9.79,9.79,0,0,0-1.36-.47c-.39.17-1.07.22-1,.89.07.44.65.43,1.11.7.19,1-1.29.77-1.34,1.72.12.3.25.59.46,1.08.81.25,1.71.45,2.41.73a3.8,3.8,0,0,1,.37,1.12,7.27,7.27,0,0,0-.36,1.32l1.83.73c.14.06.29-.12.39-.16a.55.55,0,0,1,0-.82,7.51,7.51,0,0,1,.7-.52.69.69,0,0,1,.85.1.86.86,0,0,1-.27.7,6.82,6.82,0,0,1-1.28.54.77.77,0,0,1-.21,1.13,5.58,5.58,0,0,1-1.18.5l.55,1.27c.05.1,0,.24-.07.38s-.11.28-.25.22-.38-.07-.42-.17c-.72-.85-.65-1.23.15-1.8-.09-.2-.07-.44-.21-.49a17.56,17.56,0,0,0-1.83-.74c-.11.28-.37.5-.28.7a7.07,7.07,0,0,0,.59,1.37.72.72,0,0,1-.09.86c-.42-.17-.94-.3-1.37-.47-.43.88.47,1.89-.34,2.7.42.17.89.44,1.31.61.25.58.51,1.17.76,1.76-.16.42-.29.94-.46,1.36.6,1.37,1.19,2.75,1.79,4.12.12.3.19.73-.1.85-.1,0-.62-.08-.7-.28-.27-.35-.39-.88-1-1a17.14,17.14,0,0,0-.59,1.87,4.1,4.1,0,0,1,1.07.6c.09,1-1.29.77-1.34,1.72.25.59.51,1.18.8,1.87-.32.6-.32.6-1.54.19l-.67,1.67c.07,1.25.89,2.07,1.08,3l1.26.51c.47,1.08,1.08,2.22,1.49,3.44.21.49-.2.89-.73,1-.1,0-.3.13-.35.27s-.22.56-.39,1a3.06,3.06,0,0,1-.7.53c-.59.25-1.27.31-1.46,1.2l.38.88a8.76,8.76,0,0,1,2.52,1.26c-.08.62-.66.63-1.11.93-.22.56-.4,1.22-.68,1.92.21.49.47,1.08.72,1.67-.12.51-.29.93-.42,1.45a8.93,8.93,0,0,1,1.31.61c.17.39.38.88.6,1.37l1.27-.54a.62.62,0,0,1,.38.07c.14.06.28.12.23.26s-.07.38-.17.42c-.85.71-1.23.63-1.81-.17l-.89.38a.65.65,0,0,0-.65.62c0,.24.26.36.69.53l.42.16a2.69,2.69,0,0,1-.63,1.78A5.92,5.92,0,0,1,11.16,109a7.86,7.86,0,0,1,1.31.61,7.4,7.4,0,0,0-.36,1.31l2.39,1c.12.53-.23.79-.63,1a1,1,0,0,0-.61.72,3.24,3.24,0,0,1,.28.93c.84.34,1.73.78,2.58,1.12-.09.61-.62.72-1,1a1,1,0,0,0-.34.84A26.38,26.38,0,0,0,15.92,120c1.69.68,1.69.68,1.46,2-.35.26-1.06.22-1.05.79s.85.34,1,.73a5.85,5.85,0,0,1,1.21,3.09c-.32.6-1.09.69-1.68.94-.29.13-.55.35-.52.68a1.79,1.79,0,0,0,.8.25c.34,0,.64-.15,1-.18.1,0,.29.11.43.17l.59,1.37a.79.79,0,0,1,1.14.22,9.35,9.35,0,0,0,1,1.54c.22.26-.12.28-.3.13-.37-.31-.25-.59.22-.56a1.07,1.07,0,0,1,.61.32s-.07.38-.53.11a9.4,9.4,0,0,0-3.22.9l.64,1.47c.8.24,1.7.44,2.22.57A9.17,9.17,0,0,0,22,136c.23.26.56.23,1-.07l-.19.08a.66.66,0,0,1-.11-.77c.12-.28.31-.36.68,0,0,.09,0,.23,0,.33a1.11,1.11,0,0,1-.37.5,1.17,1.17,0,0,1-.15,1c-.36.5-1.18.5-1.17,1.31.25.59.51,1.17.76,1.76.42.17.89.44,1.31.61.13.3.25.59.38.88.65.43,1.25-.06,1.84-.31a1,1,0,0,1,1.2.08c-.06.14-.07.38-.17.42a12.54,12.54,0,0,1-1.73.84c-.39.17-.38.74-.16,1.23a1,1,0,0,0,.73.62c.17-.42.38-.74.54-1.16a2.76,2.76,0,0,1,.75.39,22.43,22.43,0,0,1,1.06,2.45c-.33.84-.56,1.4-.78,2l-1.38.59c.2.73.09,1-.3,1.17a12,12,0,0,0-1.68.94c-.26.23-.23.56,0,.91l3.14-1.32a.47.47,0,0,1,.65.42.48.48,0,0,1-.17.42l-.88.37c-.11.28-.28.7-.19.9.29.68.34,1.59,1.28,1.89a9.23,9.23,0,0,1,.6-1.3l.88-.37c.56-.59-.07-1.25.06-1.76a.66.66,0,0,1,.65-.63L29.63,149a.58.58,0,0,1,.07-.37c.06-.14.11-.28.25-.23s.38.07.43.17c.71.86.65,1.24-.15,1.81.08.19.07.43.21.49a15.83,15.83,0,0,0,1.83.73c.29-.12.63-.15.92-.27a10.52,10.52,0,0,1,.6-1.3c.76.14,1,.63.94,1.35,0,.33-.33.6-.3.94s.23,1.06.61,1.13a.82.82,0,0,0,.87-.13,1.18,1.18,0,0,0,.25-.23,6,6,0,0,1,.75-1.24c.36-.5,1.16-.26,1.56.39a.71.71,0,0,1,.91,0c.32.21.11.53-.53.92l.59,1.37a1.83,1.83,0,0,0,.9.2c.63-.15,1.14-.59,1.62-.56.7.28,1.36.47,1.92.69.22.49.43,1,.6,1.38a.71.71,0,0,0,.66-.63c.08-.61-.61-1.14.15-1.8l.68-.29a3,3,0,0,1,.79.48c.48.84.86,1.72,1.34,2.56,0,.1.29.12.43.17a7.75,7.75,0,0,1,.6-1.29c0-.14.29-.13.39-.17a.54.54,0,0,1,0-.81c.15-.18.45-.31.7-.53a.72.72,0,0,1,.86.1c0,.1-.09.62-.28.7a6.55,6.55,0,0,1-1.28.54c.13.29.25.59.38.88a.72.72,0,0,0,.64.66c.23,0,.39-.16.46-.54s.22-.56.46-.54a.67.67,0,0,1,.63.66l.39.88c.73-.19,1-.08,1.18.31a11.82,11.82,0,0,0,1,1.69c.22.25.56.22.91,0l-.64-1.47c.12-.28.38-.74.55-1.16.06-.14-.13-.3-.26-.59,0-.1.09.2.09.2a.67.67,0,0,1-.77.09c-.28-.11-.37-.31-.06-.67.1,0,.24,0,.34,0a1.19,1.19,0,0,1,.5.37,3.56,3.56,0,0,0,1.46-.39A5,5,0,0,1,59,156.69c.11.53.37,1.12.48,1.65,0,.34-.22.56-.66.63.22.49.39.88.6,1.37.56.23,1.22.41,1.93.7a6.12,6.12,0,0,0,2.8-1.3c.25-.23.23-.56,0-.91l-1.38.58a15.49,15.49,0,0,0-1.83-.74c0-.81.53-.92,1.31-1,.49.61,1.61.25,1.9,1.18l1.37-.59c.14.06.38.08.43.17.22.26.35.55.57.8s.51.37.79.49c.75.38,1.55.62,2.25.9.54-.11.42-.64.73-1,.83-.24,1.37-1.4,2.43-.56-.17.41-.24.79-.4,1.21.28.11.46.27.56.23l3.63-1.54c1,.06.84,1.39,1.75,1.35a4.22,4.22,0,0,1,.64-1.2l1.83.74c.13.29.26.59.38.88,1.38.23,1.38.23,2.09-1.34a4.31,4.31,0,0,0,1.33.37,1.18,1.18,0,0,0,0-1.29c-.09-.2.08-.62.19-.9l1.83.74a5.38,5.38,0,0,0,.57,1c.52.13,1.18.31,2.12.61-.1,0,0-.24,0-.57s-.58-.8-.12-1.35a3.48,3.48,0,0,1,1.64.58A6.26,6.26,0,0,1,92,159.93c.53-.92.59-1.88,1.2-2.6.62.09.64.66.91,1a.48.48,0,0,0,.42.17c.24,0,.49-.21.42-.64a11.56,11.56,0,0,0-.77-1.77c.25-1,1.21-1,2-1.3.19-.09.52.12.7.28a2.16,2.16,0,0,0-.29.93,2.44,2.44,0,0,0,.14.87.67.67,0,0,0,.27.36c.86.1,1.14,1,1.79,1.44a2.73,2.73,0,0,0,1.64.59c.37-.51.06-1-.11-1.35-.43-.17-.89-.43-1.31-.6.16-1.24,1.77-.75,2.2-1.63s-1.1-1.74-.37-2.75c.84.34,1.78.64,2.63,1l.88-.37c.91,0,.64,1.47,1.75,1.35l.72-1.82c.06-.14-.12-.29-.3-.68a1.89,1.89,0,0,1,.09.19.65.65,0,0,1-.77.1c-.28-.12-.37-.31-.06-.68.1,0,.24,0,.34,0a1.15,1.15,0,0,1,.5.36c.43.17.68,0,.65-.38,0-.58-.13-1.11-.19-1.78.56.22.94.3,1.51.52a9,9,0,0,0,1.57-.66,1,1,0,0,0,.22-1.37l.08.2a.67.67,0,0,1-.77.09c-.28-.11-.37-.31-.06-.67.1,0,.24,0,.34,0a1.17,1.17,0,0,1,.51.37c.28.11.43-.07.57,0,.94.29,1.83.73,2.63,1,1.14-.59,1.14-.59,1-1.36l-.21-.49a1.17,1.17,0,0,1,1.26-1.12c.38.08.56.23,1.08.36a25,25,0,0,0,3.73-1.58c.37-.5.28-.7-.2-.73-.33,0-.63.15-.87.14a2,2,0,0,1-.9-.2l1.29-3.22a.8.8,0,0,1,.81.82c1,.5,1.64.82,2.2,1.05.53-.92-.51-2,.4-2.84a4.3,4.3,0,0,1-.33-1,14,14,0,0,0,.63-1.77c.59-.25.59-.25.93.54.13.29.25.59.38.88l3.64-1.54c-.22-.49-.39-.88-.6-1.37,0-.1.11-.28.17-.42l.29-.12c.81.24,1.55.62,2.25.9a1.77,1.77,0,0,0,.2-.89,1.09,1.09,0,0,0-.44-.74,22.58,22.58,0,0,0-2.25-.91,2.57,2.57,0,0,1,.38-.74,1.54,1.54,0,0,1,.92-.28c.34,0,.61.33.95.3a1.13,1.13,0,0,0,1.18-.5l.39-1a9.51,9.51,0,0,0,1.32.38l.78-.34c.56-.58,0-1.14,0-1.76a.67.67,0,0,1,.66-.63c-.12-.29-.25-.59-.38-.88a.91.91,0,0,1,.56-1.4l.88-.37-.59-1.37c0-.1.11-.28.17-.42l.29-.13a23.42,23.42,0,0,1,2.25.91c.41-.4.24-.8,0-1.29-.13-.29.08-.61.09-.85a9.94,9.94,0,0,0,1.37.47,11.45,11.45,0,0,1,1.2-2.6,3.34,3.34,0,0,1,1-.18c.33,0,.56.23.63.66a5.53,5.53,0,0,0,1.28-.54c.25-.22.32-.6.14-.75a4,4,0,0,1-.85-.34c-.79-.48-.69-1.33.15-1.81a.67.67,0,0,1,0-.91c.05-.14.25-.22.35-.26l1.47-.62c.78-1.15,1.06-2.66,1.76-4l1.28-.54-1-2.26c.22-.55.5-1.25.73-1.81,1.06-.22.73,1.43,1.8,1.21.12-.52.35-1.07.58-1.87-.29-.69-.68-1.57-1-2.36a14.06,14.06,0,0,1,.66-2.25c1.12.46,1,1.45,1.51,2.15.33,0,.81,0,1.15,0a4.63,4.63,0,0,0,1-2.28c-.21-.49-.32-1-.9-1-.34,0-.59.25-.93.28s-.66-.19-.65-.43.12-.28.17-.42a6.93,6.93,0,0,0,.5-1.25l1.87-.79,2.39,1c.93-.27,2-.16,2.29-1.43l-.34-.78a8.65,8.65,0,0,1,.46-1.36.8.8,0,0,0-1-.06c-.92.28-1.25.06-1.45-.66-.12-.3.09-.62.1-.86l.88-.37c.43.17.95.3,1.37.47l1.86-.79c.28-.7.51-1.26.73-1.82-.42-.17-.89-.44-1.31-.61-.13-.29-.25-.58-.38-.88,0-.48.28-.7.6-.49l2.25.91c.17-.42.44-.88.6-1.3.5-.21.94-.51,1.45-.15-.33.84-.63,1.78-1,2.62.14,0,.32.21.42.17,1.22-.4,2.4-.9,3.58-1.4.29-.12.36-.5.16-1.23l-.12-.29c.4-1.22-1.69-1.5,1.14-3.27.49-.21-.81-1.33-1.4-1.08-.17.42-1.49.76-1.68,1.27-.76.67-.77-.77-1.61-.3-.69.29-1.71-.21-2.31.28-.17.42-1.32-1.42-1.44-1.14-.09,0-.84-1.81-.94-1.77-4.13,1.74,1-2.64-3.28-.85-.38-.08,1.6-3.46,1-3.69l-2.65,1.12a17.56,17.56,0,0,1-1.83-.74c-.24-.82.56-1.39.5-2.07l2-.83a5.31,5.31,0,0,1-.12-1.34,12.31,12.31,0,0,1-1.45-.66c-.26-.59-.51-1.18-.81-1.87.23-.56.55-1.16.83-1.86a6.73,6.73,0,0,1,1.22.41c.41-1.21.36-1.31-1.19-1.93-.19-.73.76-1.48,0-2.2.34-.84.63-1.77,1.06-2.65-.12-.3-.25-.59-.42-1-.43.07-.91,0-1.35.11a12.13,12.13,0,0,0-.66,1.44l-1.26-.51c-.42-.17-.56-.23-.59-.56s.36-.51.66-.63c.73-.19.74-.43.44-1.12a.9.9,0,0,1,0-.91.36.36,0,0,1,.25-.22c.56.23,1.21.65,1.91.12a11.64,11.64,0,0,0,1.34-3.35c-.22-.26-.35-.55-.58-.8s-.56-.23-.91,0a.56.56,0,0,1,0,.82c-.15.18-.45.3-.7.53a.72.72,0,0,1-.86-.11.91.91,0,0,1,.28-.7,6.55,6.55,0,0,1,1.28-.54.54.54,0,0,1,0-.81c.4-.4.85-.71,1.36-1.15-1.1-.93-1.76.51-2.66.31L150.15,55c-.38.74-.78.9-1.53,1.57-.25.22-.28-.11-.13-.29.31-.37.59-.25.56.22a1,1,0,0,1-.32.6C148.63,57.16,148.35,57,148.62,56.58Zm-133.74.78L16,60c0,.1-.11.28-.16.42s-.4.17-.72,0c-.38-.89-.77-1.77-1.15-2.65,0-.1.11-.28.17-.42S14.55,57.15,14.88,57.36Zm87.52-42.9a1.26,1.26,0,0,1-.8-1.87c.53-.11,1.05-.79,1.53.05A18.67,18.67,0,0,0,102.4,14.46ZM34.9,33.81c.29-.94.88-1.19,1.87-.79C36.38,34,35.79,34.25,34.9,33.81ZM41.63,30c-.05.14-.06.38-.16.42l-.89.38c-.09,0-.28-.12-.42-.17a.21.21,0,0,1-.13-.3c0-.57,1-1,1.48-.62C41.65,29.8,41.59,29.94,41.63,30Zm74.84,114c.94.29,1.2.88.81,1.86C116.29,145.48,116,144.89,116.47,144Zm3.81-124.22-.39.17-.43-.17c-.18-.16-.17-.39,0-.72.06-.14.3-.12.4-.16a.72.72,0,0,1,.91,0C121,19.12,120.87,19.54,120.28,19.79ZM15,107.69c.19.15.17.39,0,.71l-.42-.17c-.18-.15-.17-.39,0-.71C14.56,107.42,14.84,107.54,15,107.69Zm20.64,41.55c.16-.18.39-.16.72,0l-.17.42c-.15.18-.39.16-.72-.05C35.49,149.66,35.61,149.38,35.66,149.24ZM13.48,95l-.42-.17c-.18-.16-.17-.39,0-.71l.42.17C13.71,94.43,13.69,94.67,13.48,95ZM15,67.87c.18.16.17.4,0,.72l-.43-.17c-.18-.16-.17-.39,0-.72ZM50.4,25.05l.17-.42c.15-.18.39-.16.72.05l-.17.42C51.11,25.34,50.87,25.32,50.4,25.05Zm55,125c.18.16.17.4,0,.72l-.42-.17c-.19-.16-.17-.4,0-.72C105.06,149.87,105.25,150,105.39,150.08ZM65.22,14.73l-.16.42c-.38-.08-.57-.23-.55-.47l.17-.42C65.06,14.33,65.24,14.49,65.22,14.73Zm12.48-1-.17.42c-.38-.07-.56-.23-.55-.46l.17-.42C77.53,13.36,77.71,13.51,77.7,13.75Zm9.51-1.11.17-.42c.38.07.56.22.55.46l-.17.42C87.38,13,87.2,12.87,87.21,12.64Zm54.27,102.68c.16-.18.4-.16.72.05l-.17.42c-.15.18-.39.17-.71-.05Zm-43-101.74c-.19-.15-.17-.39,0-.71l.42.17c.18.16.17.39,0,.71Z"/><path class="cls-1" d="M157.3,57.32c-.56-.22-.8-.24-.85-.1-.23.56-.51,1.26-.73,1.82.18.15.51.36.61.32A26.6,26.6,0,0,0,159,58.24c.45-1.12-.29-1.74-.77-2.58-.74-.38-1.16.26-1.8.41a3.2,3.2,0,0,0,.89,1.25c.23.26-.11.28-.29.13-.37-.31-.26-.59.22-.56a1.1,1.1,0,0,1,.61.32C157.88,57.31,157.77,57.59,157.3,57.32Z"/><path class="cls-1" d="M160.87,96.22c.22.49.39.88.6,1.37-.17.42-.29.94-.46,1.36a1.53,1.53,0,0,0,1,.16c1.16-.26,1.16-.26,1.5.52l.55,1.28.57.22c.1,0,.25-.22.21-.32a7.13,7.13,0,0,0-1.22-3.08c-.86-.1-1.3-.85-1.79-1.45A.65.65,0,0,0,160.87,96.22Z"/><path class="cls-1" d="M29.22,161.48c-.62.73.54,1.52-.22,2.19l-.88.37a.48.48,0,0,0-.17.42c0,.24.21.49.65.42a12.46,12.46,0,0,0,1.86-.79c.33.21.75.39,1.21.65.54-.92-.2-1.54-.4-2.27C30.78,161.87,30,161.87,29.22,161.48Z"/><path class="cls-1" d="M24.92,152.62l.17.39c.51,1.18.51,1.18-.49,1.83a1,1,0,0,0-.27,1.51,2.57,2.57,0,0,0,.74.38l1.28-.54c-.39-.64.31-1.17.16-2a5.57,5.57,0,0,0-.55-1.27A.61.61,0,0,0,24.92,152.62Z"/><path class="cls-1" d="M168.74,88.6a.53.53,0,0,0-.09.62,2,2,0,0,1,0,1.86.36.36,0,0,0,0,.24c.61.32,1.17.55,1.77.87.28-.7.51-1.26.78-2a4.33,4.33,0,0,1-.32-1A8.54,8.54,0,0,1,168.74,88.6Z"/><path class="cls-1" d="M88.62,6.23c-.53.11-.7.53-.58,1.06a8.15,8.15,0,0,0,.68,1.57,8.1,8.1,0,0,1,1.3.61c.22.49.39.89.56,1.28l.88-.38-1-2.25c-.42-.17-.88-.44-1.3-.61C89,7.12,88.84,6.72,88.62,6.23Z"/><path class="cls-1" d="M143.17,126.22c.23-.56.51-1.26.73-1.81-.13-.3-.26-.59-.38-.89-.43-.17-1-.26-1.31-.61s-.36-.54-.66-.18c-.06.14-.21.32-.17.42a7,7,0,0,0,1.32,3A.86.86,0,0,1,143.17,126.22Z"/><path class="cls-1" d="M36.19,162.83a6.66,6.66,0,0,1-.4,1.22c-.17.42-.22.56,0,.71a.68.68,0,0,0,.91,0l.49-.21a6.73,6.73,0,0,0,.41-1.22l1-.41c.1,0,.11-.28.17-.42a.49.49,0,0,0-.55-.47Z"/><path class="cls-1" d="M147.49,112.56l.59,1.37c-.16.42-.29.94-.46,1.36.22.49.33,1,1,1.06.22-.56.44-1.11.67-1.67a3,3,0,0,0-.94-2.16A.66.66,0,0,0,147.49,112.56Z"/><path class="cls-1" d="M105,6.84c.34.79.64,1.48,1,2.26,1.28.27,1.28.27,1.77-.75-.42-.17-.74-.38-1.17-.55.12-.28.07-.37.23-.56s.32-.6.09-.85a.67.67,0,0,0-.91,0A3.55,3.55,0,0,1,105,6.84Z"/><path class="cls-1" d="M25.17,36.29l.55,1.28a1,1,0,0,0,1.3,0c.54-.35.7-.53.44-1.12-.17-.39-.17-.39-1-.87A7.21,7.21,0,0,1,25.17,36.29Z"/><path class="cls-1" d="M84,168.54c-.3,1.17-.3,1.17.81,1.86l.88-.37c.31-1.18.31-1.18-.8-1.87Z"/><path class="cls-1" d="M32.36,24.43c0,.58,0,1.05,0,1.39.67.76,1.49.76,2.28,1.24,0-.57,0-1,0-1.38C34,25,33.19,25,32.36,24.43Z"/><path class="cls-1" d="M44.7,24.21l-1.83-.73c-.17.42-.25,1-.65,1.2s-.54.34-.18.65c.14.06.33.22.42.17a4.34,4.34,0,0,0,2.17-.91A1.36,1.36,0,0,1,44.7,24.21Z"/><path class="cls-1" d="M103.25,163.39l.76,1.77c.09.2.52.13.66.19.23-.56.51-1.26.73-1.82a16.88,16.88,0,0,0-1.79-.64C103.47,162.83,103.32,163,103.25,163.39Z"/><path class="cls-1" d="M73,9.92c.6.56,1.41.57,2,1,.52-.68.11-1.09-.06-1.48a10,10,0,0,1-1.31-.61c-.75-.38-.84-.34-.83.23A2.25,2.25,0,0,0,73,9.92Z"/><path class="cls-1" d="M73.4,8.37l1.28-.54a1,1,0,0,0,0-1.29c-.35-.54-.54-.7-1.13-.45-.39.17-.39.17-.86,1A7.73,7.73,0,0,1,73.4,8.37Z"/><path class="cls-1" d="M154.12,102.9c.13.3.26.59.38.89a11.8,11.8,0,0,0-.46,1.35c1.24.18,1.24.18,1.73-.84-.26-.59-.51-1.18-.76-1.77,0-.1-.29-.11-.43-.17S154.05,102.47,154.12,102.9Z"/><path class="cls-1" d="M155.08,73.94l2.65-1.12c.1,0,.11-.28.17-.42s-.17-.39-.65-.42L154.6,73.1c-.1,0-.12.28-.17.42S154.7,73.87,155.08,73.94Z"/><path class="cls-1" d="M149.89,31.31a1.15,1.15,0,0,0-1.7.37,7.77,7.77,0,0,0-.76,1.72,1.15,1.15,0,0,0,1.7-.37A7.77,7.77,0,0,0,149.89,31.31Z"/><path class="cls-1" d="M4,82.32c.43-.88.18-1.47-.81-1.86-.16.41-.29.93-.46,1.35s-.22.56,0,.71a.68.68,0,0,0,.92,0C3.7,82.35,3.94,82.36,4,82.32Z"/><path class="cls-1" d="M20.76,145.67a6,6,0,0,0-.56-1.27c-.08-.2-.42-.17-.7-.29l-.67,1.68c.28.11.51.36.7.28A2.63,2.63,0,0,0,20.76,145.67Z"/><path class="cls-1" d="M21.55,148.59c-.43.88-.18,1.46.81,1.86.17-.42.29-.94.46-1.35s.22-.56,0-.72a.69.69,0,0,0-.92,0Z"/><path class="cls-1" d="M18.41,132.73a6,6,0,0,0-.55-1.28c-.08-.19-.42-.17-.7-.28l-.67,1.68c.28.11.51.36.7.28A2.56,2.56,0,0,0,18.41,132.73Z"/><path class="cls-1" d="M11.83,112.4,10,111.67c-.85.47-.16,1,0,1.52A1.24,1.24,0,0,0,11.83,112.4Z"/><path class="cls-1" d="M7.89,67.28c-.2,1.13-.2,1.13.77,1.77.45-.31,1.3-.21,1-1.13A17.72,17.72,0,0,1,7.89,67.28Z"/><path class="cls-1" d="M55.64,158.91a.74.74,0,0,0,1,.63,15.63,15.63,0,0,0,2.07-.87.74.74,0,0,0-1-.63Z"/><path class="cls-1" d="M21,41.33l-2.17.91c-.19.08-.16.42-.27.7,0,0,.32.21.42.17a4,4,0,0,0,2-1C21.21,41.92,21.08,41.62,21,41.33Z"/><path class="cls-1" d="M98.11,165.23c.89.44,1.43.09,1.87-.79-.42-.17-.94-.3-1.37-.47s-.56-.22-.71,0a.67.67,0,0,0,0,.91C98.08,164.9,98,165,98.11,165.23Z"/><path class="cls-1" d="M41.77,25a6,6,0,0,0-.55-1.27c-.08-.2-.42-.17-.7-.29l-.67,1.68c.28.11.51.37.7.28A2.56,2.56,0,0,0,41.77,25Z"/><path class="cls-1" d="M45.88,19.42l1.82.74c.85-.48.16-1,0-1.53A1.37,1.37,0,0,0,45.88,19.42Z"/><path class="cls-1" d="M112,151.22c-.45.31-1.07.22-1.05.79s.64.43,1,.64l.42.17.42.17A1.21,1.21,0,0,0,112,151.22Z"/><path class="cls-1" d="M82.52,9c-1.32.45-2.42.33-2.82,1.54.65.43,1.15,0,1.78-.17A1.58,1.58,0,0,0,82.52,9Z"/><path class="cls-1" d="M83.33,1.5c-1.14-.21-1.14-.21-1.77.75.31.45.21,1.3,1.14,1C82.92,2.72,83.1,2.06,83.33,1.5Z"/><path class="cls-1" d="M99.34,5c.43-.88.08-1.42-.8-1.86-.17.42-.3.94-.46,1.35s-.23.56,0,.72a.68.68,0,0,0,.91,0Z"/><path class="cls-1" d="M102.21,10.24c0-.09-.23-.25-.17-.39.17-.42.34-.84.5-1.26a2.76,2.76,0,0,0-.7-.28,5.88,5.88,0,0,0-1.28.54c.26.59.51,1.18.81,1.87A2.58,2.58,0,0,1,102.21,10.24Z"/><path class="cls-1" d="M104,8.31c.37-.5.17-1.23,1-1.47,0-.09,0-.33-.17-.39a1.19,1.19,0,0,0-1.65.23c-.25.22-.19.9.08,1.25A3.19,3.19,0,0,0,104,8.31Z"/><path class="cls-1" d="M112,9.24c-.43.88-.18,1.47.81,1.87.16-.42.29-.94.46-1.36s.22-.56,0-.71a.68.68,0,0,0-.92,0C112.34,9.22,112.1,9.2,112,9.24Z"/><path class="cls-1" d="M117,14.67a.71.71,0,0,0,.66-.63,4,4,0,0,0-.79-2.1c0-.1-.43-.17-.43-.17-.15.18-.36.5-.28.7A9.07,9.07,0,0,0,117,14.67Z"/><path class="cls-1" d="M121.77,9.53c.43-.88.18-1.47-.81-1.87-.17.42-.29.94-.46,1.36s-.22.56,0,.71a.68.68,0,0,0,.92,0C121.43,9.55,121.57,9.61,121.77,9.53Z"/><path class="cls-1" d="M159.39,97.89a.71.71,0,0,0,.66-.63c.17-.42.15-1,.82-1-.39-.65-.67-.76-1.07-.59-.73.19-1,.65-.69,1.34A2.66,2.66,0,0,0,159.39,97.89Z"/><path class="cls-1" d="M139.71,32.48c.89.44,1.47.19,1.86-.79-.42-.17-.94-.3-1.36-.47s-.56-.22-.72,0a.67.67,0,0,0,0,.91C139.68,32.15,139.67,32.38,139.71,32.48Z"/><path class="cls-1" d="M157.53,68.6,157,67.33c-1-.5-1.08-.36-1.75.51C156.58,68.54,156.62,68.64,157.53,68.6Z"/><path class="cls-1" d="M159.18,70c.65-.39.76-.67.59-1.06-.24-.83-.67-1-1.35-.71l-.89.37c.16.63.64.66,1.06.83S159.15,69.66,159.18,70Z"/><path class="cls-1" d="M162,80.37c-.63-.66-.63-.66-2.19-1-.11,1.09-.07,1.19.92,1.58Z"/><path class="cls-1" d="M162.88,79c-.37.5-.17,1.23-1,1.46.05.1,0,.34.17.4a1.2,1.2,0,0,0,1.65-.23,1.11,1.11,0,0,0-.08-1.25A1.55,1.55,0,0,0,162.88,79Z"/><path class="cls-1" d="M168.22,74.3l.43.17c.23,0,.39-.16.42-.64-.26-.59-.51-1.18-.77-1.76l-.42-.17c-.24,0-.39.16-.42.64C167.71,73.13,168,73.71,168.22,74.3Z"/><path class="cls-1" d="M178.24,70.07c.33.21.61.32.72.05l.17-.42-.77-1.77c-.32-.21-.56-.23-.71-.05l-.17.42C177.74,68.89,178,69.48,178.24,70.07Z"/><path class="cls-1" d="M11.34,121.21c-.89-.44-1.48-.19-1.87.78A1.2,1.2,0,0,0,11.34,121.21Z"/><path class="cls-1" d="M24.92,152.62c-.13-.3-.25-.59-.38-.88a6.41,6.41,0,0,0-1.38.58c-.35.26-.32.6,0,.71s.33.21.43.17Z"/><path class="cls-1" d="M26.48,148.71a6,6,0,0,0-.55-1.28c-.08-.19-.6-.32-.7-.28a.72.72,0,0,0-.1.85,2.39,2.39,0,0,0,.54.7C25.8,149,26.13,149,26.48,148.71Z"/><path class="cls-1" d="M40.11,157.93a.71.71,0,0,0,.66-.63c.07-.38-.45-.51-1-.26l-.39.17-.17.42c0,.24.17.39.55.46C39.86,158.15,40,158,40.11,157.93Z"/><path class="cls-1" d="M42.53,156.79c.4-.4,0-1.39-.64-1.47a.19.19,0,0,0-.29.12c-.41.41,0,1.39.63,1.47Z"/><path class="cls-1" d="M10.76,72.57c-.25-.59-.72-.86-.93-.54a.67.67,0,0,0,.05.91l.17.4c.32.21.6.32.71,0s.21-.32.17-.42Z"/><path class="cls-1" d="M56.34,161.87c-.43.88-.18,1.47.81,1.86C57.54,162.75,57.28,162.16,56.34,161.87Z"/><path class="cls-1" d="M11.91,50.49a.7.7,0,0,0,.63.66c.48,0,.6-.48.35-1.07l-.17-.4-.42-.17c-.24,0-.4.17-.47.55A.62.62,0,0,0,11.91,50.49Z"/><path class="cls-1" d="M12.32,43.93a6.82,6.82,0,0,0-1.28.54c-.19.08-.32.6-.27.7a.72.72,0,0,0,.85.1,2.36,2.36,0,0,0,.7-.53A.54.54,0,0,0,12.32,43.93Z"/><path class="cls-1" d="M11,39.83c.41.41,1.39,0,1.48-.62a.21.21,0,0,0-.13-.3c-.41-.41-1.39,0-1.48.62Z"/><path class="cls-1" d="M17.53,46c.59-.25.85-.71.53-.92a.67.67,0,0,0-.91,0l-.4.17c-.21.32-.32.6,0,.71s.33.21.42.17Z"/><path class="cls-1" d="M16.64,38.86c-.26-.59-.72-.86-.93-.54a.67.67,0,0,0,0,.91l.17.39c.32.21.61.33.72.05s.21-.32.16-.42Z"/><path class="cls-1" d="M25.17,36.29A6,6,0,0,0,24.62,35a.85.85,0,0,0-.7-.28.69.69,0,0,0-.1.85,2.53,2.53,0,0,0,.54.7A.55.55,0,0,0,25.17,36.29Z"/><path class="cls-1" d="M28.27,23.84c0-.1-.09-.2-.13-.29a1.05,1.05,0,0,0-1.47.62l.12.29c.14.06.33.21.43.17l.88-.37C28.2,24.22,28.21,24,28.27,23.84Z"/><path class="cls-1" d="M96.11,169.79c-.43.88-.17,1.47.81,1.87A1.32,1.32,0,0,0,96.11,169.79Z"/><path class="cls-1" d="M114.5,162c.43-.88.18-1.47-.81-1.86C113.3,161.13,113.56,161.72,114.5,162Z"/><path class="cls-1" d="M57.42,16.28a.73.73,0,0,0-.64-.66,1.37,1.37,0,0,0-1.18.5.67.67,0,0,0,0,.91Z"/><path class="cls-1" d="M119.56,153c0-.1-.08-.19-.13-.29a1.06,1.06,0,0,0-1.47.62c0,.1.08.2.13.3s.32.21.42.17l.88-.38C119.49,153.41,119.5,153.17,119.56,153Z"/><path class="cls-1" d="M79.41,3.74c-.43.88-.18,1.47.81,1.86C80.61,4.63,80.36,4,79.41,3.74Z"/><path class="cls-1" d="M135.53,127.36a6.59,6.59,0,0,0,.55,1.28c.09.19.61.32.71.28a.7.7,0,0,0,.09-.85,2.53,2.53,0,0,0-.53-.71C136.12,127.11,135.88,127.1,135.53,127.36Z"/><path class="cls-1" d="M88.62,6.23a5.35,5.35,0,0,0,1.28-.54c.2-.08.32-.6.28-.7a.74.74,0,0,0-.86-.1,2.7,2.7,0,0,0-.7.53A.55.55,0,0,0,88.62,6.23Z"/><path class="cls-1" d="M146.73,118.33c-.58-.8-1-.87-1.81-.16-.1,0-.11.28-.17.42s.19.15.23.25a.56.56,0,0,0,.38.07Z"/><path class="cls-1" d="M147.12,119.21a6.3,6.3,0,0,0-1.28.54c-.2.09-.32.61-.28.7a.72.72,0,0,0,.86.11,2.7,2.7,0,0,0,.7-.53A.56.56,0,0,0,147.12,119.21Z"/><path class="cls-1" d="M100.42,8.79c-.58-.8-1-.87-1.81-.16-.1,0-.11.28-.17.42s.18.16.23.25a.57.57,0,0,0,.38.08Z"/><path class="cls-1" d="M154.56,124.08c-.88-.44-1.47-.19-1.86.79C153.68,125.26,154.27,125,154.56,124.08Z"/><path class="cls-1" d="M104.73,3.72a6.26,6.26,0,0,0-.55-1.28c-.08-.19-.6-.32-.7-.28a.72.72,0,0,0-.1.85,2.57,2.57,0,0,0,.54.71C104.19,4.07,104.48,3.94,104.73,3.72Z"/><path class="cls-1" d="M156.54,113.61c.89.43,1.48.19,1.87-.79C157.42,112.42,156.83,112.67,156.54,113.61Z"/><path class="cls-1" d="M157.6,101.55l-.12-.3a1.08,1.08,0,0,0-1.48.63c0,.09.09.19.13.29s.32.21.42.17l.88-.37C157.53,101.93,157.55,101.69,157.6,101.55Z"/><path class="cls-1" d="M159.39,97.89c-.8.57-.87,1-.15,1.8,0,.1.28.12.42.17s.16-.18.25-.22.12-.28.07-.38A6.72,6.72,0,0,0,159.39,97.89Z"/><path class="cls-1" d="M162.92,103.36c.88.44,1.48.19,1.87-.78C163.84,102.28,163.25,102.53,162.92,103.36Z"/><path class="cls-1" d="M156.35,65.86a.71.71,0,0,0,.65-.63c.07-.38-.45-.51-1-.26l-.39.17-.17.42c0,.23.17.39.55.46Z"/><path class="cls-1" d="M169.62,84.51a.73.73,0,0,0,.63.67c.38.07.51-.45.25-1l-.17-.39-.42-.17c-.24,0-.39.16-.46.54C169.39,84.26,169.57,84.42,169.62,84.51Z"/><path class="cls-1" d="M164,82.65a6.86,6.86,0,0,0,.55,1.28c.09.19.61.32.71.28a.7.7,0,0,0,.09-.85,2.53,2.53,0,0,0-.53-.71A.56.56,0,0,0,164,82.65Z"/><path class="cls-1" d="M167.82,70.41c.41.41,1.39,0,1.47-.62a.2.2,0,0,0-.13-.3c-.4-.4-1.39,0-1.47.63C167.64,70.26,167.78,70.31,167.82,70.41Z"/><path class="cls-1" d="M173.84,81.1c.43-.88.17-1.46-.81-1.86C172.64,80.22,172.89,80.81,173.84,81.1Z"/><path class="cls-1" d="M181.9,72.35c.44-.87.18-1.46-.8-1.86C180.71,71.47,181,72.06,181.9,72.35Z"/><path class="cls-1" d="M129.64,145.18c-.43.87-.18,1.46.81,1.86C130.88,146.16,130.63,145.57,129.64,145.18Z"/><path class="cls-1" d="M160.51,40.29c-.88-.44-1.47-.19-1.86.79A1.3,1.3,0,0,0,160.51,40.29Z"/><path class="cls-1" d="M168.29,52.91c-.25-.59-.72-.86-.93-.53a.67.67,0,0,0,0,.91l.17.39c.32.21.6.32.72,0s.21-.32.16-.42S168.38,53.11,168.29,52.91Z"/><path class="cls-1" d="M6,118.32c.24,0,.39-.17.46-.54L6,117.61c-.24,0-.39.16-.46.54Z"/><path class="cls-1" d="M16.9,147c0-.23-.17-.39-.55-.46,0,0-.12.28-.17.42s.17.39.55.46Z"/><path class="cls-1" d="M19.67,150.42c-.64.39-.7.53-.5,1.26C19.86,151.39,19.82,151.29,19.67,150.42Z"/><path class="cls-1" d="M20.07,150.26c.1,0,.15-.18.16-.42a.4.4,0,0,0,0-.34c-.33-.21-.57-.22-.68.06s-.22.56.1.77C19.72,150.52,20,150.4,20.07,150.26Z"/><path class="cls-1" d="M13.58,132.57c.21-.33.22-.56,0-.72l-.42-.17c-.21.32-.23.56,0,.72S13.44,132.51,13.58,132.57Z"/><path class="cls-1" d="M28,162.7c0-.24-.17-.4-.55-.47l-.17.42c0,.24.17.39.55.47Z"/><path class="cls-1" d="M21.73,146.31s.21-.32.16-.42a1.06,1.06,0,0,0-.6-.33c-.48,0-.59.25-.22.56A2.37,2.37,0,0,0,21.73,146.31Z"/><path class="cls-1" d="M19.69,138.11c0-.1-.18-.16-.42-.17a.4.4,0,0,0-.34,0c-.2.33-.22.56.06.68s.57.22.78-.1C19.86,138.5,19.78,138.3,19.69,138.11Z"/><path class="cls-1" d="M27.76,156.76c-.4-.64-.54-.7-1.27-.51C26.89,156.9,27,157,27.76,156.76Z"/><path class="cls-1" d="M27.61,158.57s.32.21.42.17c.16-.19.41-.41.32-.61,0-.47-.25-.58-.56-.22C27.59,158,27.62,158.33,27.61,158.57Z"/><path class="cls-1" d="M32,167.15,31.6,167c-.21.32-.23.56,0,.72l.42.17C32.29,167.5,32.2,167.31,32,167.15Z"/><path class="cls-1" d="M5.93,103.23l.17-.42c-.32-.21-.56-.23-.72,0l-.16.42C5.54,103.39,5.78,103.41,5.93,103.23Z"/><path class="cls-1" d="M13.87,123c-.23,0-.39.16-.46.54l.42.17c.24,0,.4-.17.47-.54C14.25,123.11,14,123.09,13.87,123Z"/><path class="cls-1" d="M20.84,139.14s.21-.32.16-.42a1.06,1.06,0,0,0-.6-.33c-.48,0-.59.25-.23.56C20.22,139.05,20.6,139.12,20.84,139.14Z"/><path class="cls-1" d="M22.92,144c-.24,0-.4.16-.47.54l.42.17c.24,0,.4-.17.47-.54C23.29,144,23.06,144,22.92,144Z"/><path class="cls-1" d="M28.14,157.64c.65-.38.76-.66.53-.92a.68.68,0,0,0-.91,0C27.89,157.05,28,157.35,28.14,157.64Z"/><path class="cls-1" d="M29.58,159.36c-.24,0-.39.16-.46.54l.42.17c.24,0,.39-.16.46-.54Z"/><path class="cls-1" d="M23.4,142.12c0-.24-.17-.4-.55-.47l-.17.42c0,.24.17.39.55.46C23.23,142.53,23.35,142.26,23.4,142.12Z"/><path class="cls-1" d="M10.53,109.93c0-.23-.17-.39-.55-.46l-.16.42c0,.24.17.39.55.46C10.47,110.31,10.48,110.07,10.53,109.93Z"/><path class="cls-1" d="M14,118.32l.17-.42c-.32-.21-.56-.22-.72,0l-.16.42A.47.47,0,0,0,14,118.32Z"/><path class="cls-1" d="M17.18,125.58c.06-.13.17-.41.17-.41-.32-.21-.56-.23-.72,0l-.16.42A.47.47,0,0,0,17.18,125.58Z"/><path class="cls-1" d="M18.94,131s.33.21.42.17.41-.41.33-.6c0-.48-.26-.59-.57-.23A1.13,1.13,0,0,0,18.94,131Z"/><path class="cls-1" d="M6.4,98.22c-.24,0-.4.16-.47.54l.43.17c.24,0,.39-.17.46-.54C6.78,98.29,6.54,98.27,6.4,98.22Z"/><path class="cls-1" d="M11.48,107.56l.17-.42c-.32-.21-.56-.22-.72,0s-.16.41-.16.41C11.09,107.73,11.33,107.74,11.48,107.56Z"/><path class="cls-1" d="M32.83,156.94c-.24,0-.39.16-.46.54l.42.17c.24,0,.39-.16.46-.54Z"/><path class="cls-1" d="M33.41,159.36l.43.17c.21-.32.22-.55,0-.71l-.43-.17C33.24,159,33.23,159.21,33.41,159.36Z"/><path class="cls-1" d="M32.35,154.47l.42.17c.21-.32.22-.55,0-.71l-.42-.17C32.18,154.08,32.16,154.32,32.35,154.47Z"/><path class="cls-1" d="M7,92.14l.16-.41c-.32-.22-.56-.23-.71,0l-.17.42C6.63,92.31,6.87,92.33,7,92.14Z"/><path class="cls-1" d="M34,155.87l.43.17c.21-.32.22-.56,0-.72l-.43-.17C33.82,155.48,33.81,155.71,34,155.87Z"/><path class="cls-1" d="M38.29,159.63l.17-.42c-.33-.22-.56-.23-.72-.05s-.17.42-.17.42C37.9,159.79,38.14,159.81,38.29,159.63Z"/><path class="cls-1" d="M5,70.53,4.83,71c.33.21.56.23.72,0l.17-.42A.45.45,0,0,0,5,70.53Z"/><path class="cls-1" d="M38.14,156.32c0-.24-.17-.39-.55-.46l-.17.42c0,.23.17.39.55.46C38,156.74,38.09,156.46,38.14,156.32Z"/><path class="cls-1" d="M1.46,64.51c0,.23.17.39.55.46l.17-.42c0-.24-.17-.39-.55-.46Z"/><path class="cls-1" d="M38.66,152.15c-.64.39-.75.67-.53.92a.67.67,0,0,0,.91,0C38.92,152.74,38.79,152.45,38.66,152.15Z"/><path class="cls-1" d="M12.2,88.8c0-.24-.17-.4-.55-.47l-.17.42c0,.24.17.39.55.47Z"/><path class="cls-1" d="M44.1,156.94s.32.21.42.17.41-.41.32-.6c0-.48-.25-.59-.56-.23C44.08,156.36,44.11,156.7,44.1,156.94Z"/><path class="cls-1" d="M5.23,56.39l-.42-.17c-.21.32-.23.56,0,.71l.42.17C5.4,56.78,5.41,56.54,5.23,56.39Z"/><path class="cls-1" d="M5.71,65.18l-.17.42c.33.21.57.23.72.05l.17-.42A.49.49,0,0,0,5.71,65.18Z"/><path class="cls-1" d="M10.42,76.08c-.05.14-.17.42-.17.42.33.21.57.23.72,0l.17-.42A.48.48,0,0,0,10.42,76.08Z"/><path class="cls-1" d="M5.94,61.9c.24,0,.39-.17.46-.55L6,61.18c-.24,0-.39.17-.46.55C5.42,61.77,5.8,61.84,5.94,61.9Z"/><path class="cls-1" d="M51.24,161.35c.32.21.56.23.71.05l.17-.42c-.32-.21-.56-.23-.71,0S51.29,161.21,51.24,161.35Z"/><path class="cls-1" d="M5,51.77c.33.22.57.23.72,0l.17-.42c-.33-.21-.56-.23-.72,0S5.08,51.63,5,51.77Z"/><path class="cls-1" d="M7.84,58c0,.23.17.39.55.46l.17-.42c0-.24-.17-.39-.55-.46Z"/><path class="cls-1" d="M6,41.91c-.24,0-.4.16-.47.54l.43.17c.24,0,.39-.16.46-.54Z"/><path class="cls-1" d="M5.31,49.21l-.17.42c.33.21.57.23.72,0L6,49.26C5.7,49.05,5.47,49,5.31,49.21Z"/><path class="cls-1" d="M11.22,62.62c.21-.32.23-.56,0-.71l-.42-.17c-.21.32-.22.56,0,.71Z"/><path class="cls-1" d="M52.06,157.87s.32.21.42.17.4-.4.32-.6c0-.47-.25-.59-.56-.23A1,1,0,0,0,52.06,157.87Z"/><path class="cls-1" d="M9.9,48.55l-.42-.17c-.21.32-.22.56,0,.71l.42.17C10.07,48.94,10.09,48.71,9.9,48.55Z"/><path class="cls-1" d="M11.74,48.24l.17-.42c-.32-.21-.56-.23-.72,0l-.16.42A.44.44,0,0,0,11.74,48.24Z"/><path class="cls-1" d="M12.71,43.76c.1,0,.16-.18.17-.42a.35.35,0,0,0,0-.33c-.32-.21-.56-.23-.67.05s-.22.56.1.77A.56.56,0,0,0,12.71,43.76Z"/><path class="cls-1" d="M70.66,170.5l-.42-.17c-.21.32-.22.55,0,.71l.42.17C70.83,170.89,70.85,170.65,70.66,170.5Z"/><path class="cls-1" d="M16.83,34.63l-.43-.17c-.21.32-.22.56,0,.71l.43.17C17,35,17,34.79,16.83,34.63Z"/><path class="cls-1" d="M72.3,168.64c0,.24.17.4.55.47l.17-.42c0-.24-.17-.4-.55-.47A.75.75,0,0,1,72.3,168.64Z"/><path class="cls-1" d="M16.21,41.36c-.24,0-.4.17-.47.54l.43.17c.24,0,.39-.16.46-.54Z"/><path class="cls-1" d="M63.35,169.47c.21-.32.22-.56,0-.71l-.43-.17c-.21.32-.22.56,0,.71Z"/><path class="cls-1" d="M76.44,171.77l.17-.42c-.32-.21-.56-.23-.72,0l-.16.42A.47.47,0,0,0,76.44,171.77Z"/><path class="cls-1" d="M71,163l.17-.42c-.33-.21-.57-.23-.72,0l-.17.42C70.61,163.15,70.85,163.17,71,163Z"/><path class="cls-1" d="M21.35,41.16c.1,0,.15-.18.17-.42a.4.4,0,0,0,0-.33c-.33-.22-.57-.23-.68.05s-.22.56.1.77C21,41.33,21.15,41.24,21.35,41.16Z"/><path class="cls-1" d="M24.27,32.61c-.23,0-.39.17-.46.54l.42.17c.24,0,.4-.16.47-.54C24.65,32.68,24.42,32.67,24.27,32.61Z"/><path class="cls-1" d="M22.64,25.87l-.42-.17c-.21.32-.23.56,0,.71l.42.17A.47.47,0,0,0,22.64,25.87Z"/><path class="cls-1" d="M24.24,26.35c0,.24.17.4.55.47L25,26.4c0-.24-.17-.39-.55-.47C24.37,25.84,24.3,26.21,24.24,26.35Z"/><path class="cls-1" d="M85.88,166.22l.42.17c.21-.32.22-.56,0-.71l-.42-.17C85.71,165.83,85.69,166.07,85.88,166.22Z"/><path class="cls-1" d="M87.26,164.59l.42.17c.21-.32.23-.56,0-.71l-.42-.17C87.09,164.2,87.08,164.44,87.26,164.59Z"/><path class="cls-1" d="M31.38,32.39c.24,0,.4-.16.47-.54l-.43-.17c-.23,0-.39.16-.46.54C31,32.32,31.24,32.34,31.38,32.39Z"/><path class="cls-1" d="M95.07,164.66c.24,0,.4-.17.47-.55l-.43-.17c-.23,0-.39.17-.46.55C94.6,164.63,94.93,164.6,95.07,164.66Z"/><path class="cls-1" d="M38.45,21.05c.21-.32.22-.56,0-.72l-.42-.16c-.21.32-.23.55,0,.71Z"/><path class="cls-1" d="M41.23,21.85l.17-.42c-.32-.21-.56-.23-.72-.05l-.17.42A.46.46,0,0,0,41.23,21.85Z"/><path class="cls-1" d="M42.7,18l.16-.42c-.32-.21-.56-.23-.71,0l-.17.42C42.3,18.14,42.54,18.16,42.7,18Z"/><path class="cls-1" d="M45.14,13.69l.17-.42c-.32-.21-.56-.22-.72,0l-.16.42C44.75,13.86,45,13.87,45.14,13.69Z"/><path class="cls-1" d="M107.75,159.3c.24,0,.39-.16.46-.54l-.42-.17c-.24,0-.4.17-.47.54C107.37,159.23,107.61,159.25,107.75,159.3Z"/><path class="cls-1" d="M109,161.34c-.24,0-.4.16-.47.54l.43.17c.24,0,.39-.17.46-.54C109.36,161.41,109.12,161.39,109,161.34Z"/><path class="cls-1" d="M48.32,16c-.23,0-.39.16-.46.54l.42.17c.24,0,.4-.17.47-.54Z"/><path class="cls-1" d="M112.39,165.47c0,.24.17.39.55.46l.17-.42c0-.23-.17-.39-.55-.46C112.56,165.05,112.44,165.33,112.39,165.47Z"/><path class="cls-1" d="M50.44,17.61c0-.1-.19-.16-.42-.17a.39.39,0,0,0-.34,0c-.21.32-.23.56.06.68s.56.22.77-.1C50.71,18,50.58,17.66,50.44,17.61Z"/><path class="cls-1" d="M50.53,11c.32.22.56.23.71,0l.17-.42c-.32-.21-.56-.23-.71,0C50.6,10.61,50.54,10.75,50.53,11Z"/><path class="cls-1" d="M51.58,18.63s.21-.32.17-.41a1.12,1.12,0,0,0-.61-.33c-.48,0-.59.25-.22.56C51,18.55,51.3,18.52,51.58,18.63Z"/><path class="cls-1" d="M62.44,10.44c0-.09-.18-.15-.42-.17a.4.4,0,0,0-.33,0c-.21.32-.23.56.05.67s.57.23.78-.09A.65.65,0,0,0,62.44,10.44Z"/><path class="cls-1" d="M63.5,10.46l-.89.38c.4.64.54.7,1.27.51Z"/><path class="cls-1" d="M63.89,10.3c.1,0,.16-.18.17-.42a.43.43,0,0,0,0-.34c-.32-.21-.56-.22-.67.06s-.23.55.1.77A.68.68,0,0,0,63.89,10.3Z"/><path class="cls-1" d="M57.55,8.9c0-.24-.17-.4-.55-.47l-.17.42c0,.24.17.39.55.47C57.48,9.27,57.49,9,57.55,8.9Z"/><path class="cls-1" d="M124.31,142c-.24,0-.4.17-.47.55l.43.17c.23,0,.39-.17.46-.55C124.68,142,124.45,142,124.31,142Z"/><path class="cls-1" d="M125,140.4c-.13-.3-.26-.59-.38-.89-.65.39-.76.67-.53.92A.72.72,0,0,0,125,140.4Z"/><path class="cls-1" d="M126,140.93s.21-.32.16-.42-.4-.41-.6-.32c-.48,0-.59.25-.22.56A1.06,1.06,0,0,0,126,140.93Z"/><path class="cls-1" d="M127.81,140.14l.17-.42c-.32-.21-.56-.22-.72,0l-.16.42C127.42,140.31,127.66,140.32,127.81,140.14Z"/><path class="cls-1" d="M70.89,6.06l.17-.42c-.33-.21-.56-.22-.72,0L70.17,6C70.5,6.23,70.74,6.24,70.89,6.06Z"/><path class="cls-1" d="M129.2,138.51s.21-.32.17-.42c-.19-.15-.41-.41-.61-.32-.48,0-.59.25-.22.56A1.06,1.06,0,0,0,129.2,138.51Z"/><path class="cls-1" d="M73.24,3.44l-.42-.17c-.21.32-.22.56,0,.72l.42.17C73.41,3.84,73.43,3.6,73.24,3.44Z"/><path class="cls-1" d="M76.48,4.75c.24,0,.39-.17.46-.55L76.52,4c-.24,0-.39.17-.46.55C76.1,4.67,76.34,4.69,76.48,4.75Z"/><path class="cls-1" d="M79.56,7l-.16.42c.32.21.56.23.71,0l.17-.42A.45.45,0,0,0,79.56,7Z"/><path class="cls-1" d="M80.14,1.92c0-.23-.17-.39-.55-.46l-.17.42c0,.24.17.39.55.46C80,2.44,80.08,2.06,80.14,1.92Z"/><path class="cls-1" d="M135.4,130.55s.21-.32.17-.42a1.1,1.1,0,0,0-.61-.32c-.47,0-.59.25-.22.56C134.88,130.42,135.12,130.44,135.4,130.55Z"/><path class="cls-1" d="M141,138.88c.23,0,.39-.17.46-.55l-.42-.17c-.24,0-.4.17-.47.55C140.46,138.75,140.74,138.86,141,138.88Z"/><path class="cls-1" d="M142.16,140.81c-.24,0-.39.17-.46.55l.42.17c.24,0,.39-.17.46-.55Z"/><path class="cls-1" d="M140.91,130.66c-.24,0-.39.17-.46.54l.42.17c.24,0,.39-.16.46-.54C141.39,130.69,141.05,130.72,140.91,130.66Z"/><path class="cls-1" d="M86.73,2.39c0-.24-.17-.39-.55-.47L86,2.34c0,.24.17.4.55.47C86.66,2.77,86.67,2.53,86.73,2.39Z"/><path class="cls-1" d="M141,128.09c0-.14.17-.42.17-.42-.33-.21-.57-.23-.72,0l-.17.42A.49.49,0,0,0,141,128.09Z"/><path class="cls-1" d="M143.65,119.52s.2-.32.16-.42-.41-.41-.6-.32c-.48,0-.59.25-.23.55C143,119.43,143.41,119.5,143.65,119.52Z"/><path class="cls-1" d="M146.77,126.21l-.42-.17c-.21.32-.22.56,0,.71l.42.17C146.94,126.6,147,126.37,146.77,126.21Z"/><path class="cls-1" d="M146.74,122.39c.24,0,.4-.17.47-.54l-.42-.17c-.24,0-.4.16-.47.54C146.37,122.32,146.6,122.33,146.74,122.39Z"/><path class="cls-1" d="M152.06,133.61l-.42-.17c-.21.32-.22.56,0,.71l.42.17C152.23,134,152.24,133.77,152.06,133.61Z"/><path class="cls-1" d="M146.73,118.33l.39.88c.64-.38.75-.66.53-.92A.69.69,0,0,0,146.73,118.33Z"/><path class="cls-1" d="M148.84,121l-.43-.17c-.21.32-.22.56,0,.72l.42.17C149,121.43,149,121.2,148.84,121Z"/><path class="cls-1" d="M101.59,5.05c.21-.32.22-.56,0-.71l-.42-.17c-.21.32-.22.55,0,.71S101.45,5,101.59,5.05Z"/><path class="cls-1" d="M102.21.84l-.42-.17c-.21.32-.22.56,0,.71l.42.17A.47.47,0,0,0,102.21.84Z"/><path class="cls-1" d="M105.71,4.36s.21-.33.16-.42-.41-.41-.6-.33c-.48,0-.59.25-.23.56C105.09,4.27,105.47,4.34,105.71,4.36Z"/><path class="cls-1" d="M151.58,107.23c-.05-.1-.19-.16-.43-.17a.37.37,0,0,0-.33,0c-.21.33-.23.56.06.68s.56.22.77-.1A.26.26,0,0,0,151.58,107.23Z"/><path class="cls-1" d="M109.16,7c0-.24-.17-.39-.55-.46l-.17.42c0,.23.17.39.55.46C109.09,7.34,109.1,7.1,109.16,7Z"/><path class="cls-1" d="M152.68,108.16s.2-.32.16-.42a1.06,1.06,0,0,0-.6-.33c-.48,0-.59.25-.23.56A1.12,1.12,0,0,0,152.68,108.16Z"/><path class="cls-1" d="M110.5,8.72c.24,0,.39-.17.46-.55L110.54,8c-.24,0-.4.17-.47.55Z"/><path class="cls-1" d="M157.91,104.67c0-.24-.17-.39-.55-.46,0,0-.12.28-.17.42s.17.39.55.46Z"/><path class="cls-1" d="M119.14,14.47s.32.21.42.17.41-.41.32-.6c0-.48-.25-.59-.56-.23C119.22,13.85,119.15,14.23,119.14,14.47Z"/><path class="cls-1" d="M120.27,12.25c-.64.39-.7.53-.5,1.26C120.42,13.12,120.47,13,120.27,12.25Z"/><path class="cls-1" d="M120.67,12.08c.09,0,.15-.18.16-.42a.34.34,0,0,0,0-.33c-.32-.21-.56-.23-.67.05s-.22.56.1.77C120.27,12.25,120.57,12.12,120.67,12.08Z"/><path class="cls-1" d="M122.24,15.72c.09-.05.15-.19.16-.42a.36.36,0,0,0,0-.34c-.32-.21-.56-.23-.67,0s-.22.56.1.77C121.89,16,122.14,15.76,122.24,15.72Z"/><path class="cls-1" d="M165.31,108.63c0,.23.17.39.55.46l.17-.42c0-.24-.17-.39-.55-.46Z"/><path class="cls-1" d="M169.1,111.2c-.24,0-.4.17-.47.55l.43.17c.23,0,.39-.17.46-.55C169.48,111.28,169.24,111.26,169.1,111.2Z"/><path class="cls-1" d="M128.48,12.15c-.24,0-.39.16-.46.54l.42.17c.24,0,.39-.16.46-.54Z"/><path class="cls-1" d="M156.17,76.73c.21-.32.22-.56,0-.72l-.43-.16c-.21.32-.22.55,0,.71S156,76.57,156.17,76.73Z"/><path class="cls-1" d="M166.51,100.11l.16-.42c-.32-.21-.56-.23-.71,0l-.17.42C166.11,100.27,166.35,100.29,166.51,100.11Z"/><path class="cls-1" d="M172,107.33c0-.24-.17-.4-.55-.47l-.16.42c0,.24.16.4.54.47C171.78,107.75,171.9,107.47,172,107.33Z"/><path class="cls-1" d="M138,28.08l.42.17c.21-.32.22-.56,0-.71l-.42-.17C137.87,27.69,137.85,27.92,138,28.08Z"/><path class="cls-1" d="M169,99.07c.24,0,.39-.17.47-.54l-.43-.17c-.24,0-.39.16-.46.54C168.44,98.94,168.82,99,169,99.07Z"/><path class="cls-1" d="M143.57,36.31c0-.1-.18-.16-.42-.17a.4.4,0,0,0-.34,0c-.21.32-.22.56.06.67s.56.23.77-.09C143.74,36.7,143.65,36.5,143.57,36.31Z"/><path class="cls-1" d="M144.71,37.33s.21-.32.17-.42a1.07,1.07,0,0,0-.61-.32c-.48,0-.59.25-.22.56C144.09,37.25,144.47,37.32,144.71,37.33Z"/><path class="cls-1" d="M158.65,70.92s.32.21.42.17a1,1,0,0,0,.32-.6c0-.48-.25-.59-.56-.23C158.63,70.34,158.66,70.68,158.65,70.92Z"/><path class="cls-1" d="M170,97c0,.24.17.39.55.46l.17-.41c0-.24-.17-.4-.55-.47C170.11,96.61,170.09,96.85,170,97Z"/><path class="cls-1" d="M170,94.32c.24,0,.4-.17.47-.55l-.42-.17c-.24,0-.4.17-.47.55Z"/><path class="cls-1" d="M175.26,106.39l-.16.42c.32.21.56.23.71,0l.17-.42A.48.48,0,0,0,175.26,106.39Z"/><path class="cls-1" d="M173.91,100.58l-.16.42c.32.21.56.22.71,0l.17-.42C174.31,100.41,174.07,100.4,173.91,100.58Z"/><path class="cls-1" d="M156.24,55.68c0-.1-.18-.15-.42-.17a.37.37,0,0,0-.33,0c-.21.32-.23.56,0,.67s.57.23.78-.1C156.41,56.07,156.33,55.88,156.24,55.68Z"/><path class="cls-1" d="M179,109.11c-.24,0-.4.17-.46.54l.42.17c.24,0,.39-.16.46-.54Z"/><path class="cls-1" d="M177.12,102.36c-.24,0-.39.16-.46.54l.42.17c.24,0,.4-.17.46-.54A.84.84,0,0,1,177.12,102.36Z"/><path class="cls-1" d="M181.07,111.49c-.24,0-.39.16-.46.54l.42.17c.24,0,.39-.17.46-.54Z"/><path class="cls-1" d="M163.07,67.43c-.24,0-.4.16-.47.54l.43.17c.23,0,.39-.17.46-.54C163.59,67.56,163.35,67.54,163.07,67.43Z"/><path class="cls-1" d="M160.88,61c0,.24.17.4.55.47l.17-.42c0-.24-.17-.39-.55-.46C161.05,60.62,160.94,60.9,160.88,61Z"/><path class="cls-1" d="M172.3,84.54c.21-.32.22-.56,0-.71l-.42-.17c-.21.32-.22.56,0,.71S172.12,84.39,172.3,84.54Z"/><path class="cls-1" d="M179.29,94.47c0-.23-.17-.39-.55-.46l-.17.42c0,.24.17.39.55.46C179.12,94.89,179.24,94.61,179.29,94.47Z"/><path class="cls-1" d="M182.13,102.91s.32.21.42.17a1,1,0,0,0,.32-.6c0-.47-.25-.59-.56-.23A2.09,2.09,0,0,0,182.13,102.91Z"/><path class="cls-1" d="M133.66,18.22c-.24,0-.39.17-.46.55l.42.17c.24,0,.39-.17.46-.55Z"/><path class="cls-1" d="M162.08,52.52l.17-.42c-.32-.21-.56-.23-.72-.05l-.16.42C161.69,52.68,161.93,52.7,162.08,52.52Z"/><path class="cls-1" d="M183.15,101.78c.1,0,.15-.18.17-.42a.41.41,0,0,0,0-.33c-.33-.21-.57-.23-.68,0s-.22.56.1.77C182.8,102.05,183,102,183.15,101.78Z"/><path class="cls-1" d="M161.79,82.89l-.42-.17c-.21.32-.22.56,0,.71l.42.17C162,83.28,162,83.05,161.79,82.89Z"/><path class="cls-1" d="M185.2,96.85l-.17.42c.33.21.57.23.72,0l.17-.42C185.59,96.69,185.35,96.67,185.2,96.85Z"/><path class="cls-1" d="M187.82,99.69l.17-.42c-.33-.21-.56-.22-.72,0s-.17.42-.17.42C187.43,99.86,187.67,99.87,187.82,99.69Z"/><path class="cls-1" d="M164.86,77.88l.16-.42c-.32-.21-.56-.22-.71,0l-.17.42A.48.48,0,0,0,164.86,77.88Z"/><path class="cls-1" d="M167,81.26c.24,0,.4-.16.47-.54l-.42-.17c-.24,0-.4.17-.47.54Z"/><path class="cls-1" d="M145.26,20.38c0,.24.17.4.55.47l.17-.42c0-.24-.17-.39-.55-.47Z"/><path class="cls-1" d="M171.14,77c-.24,0-.39.17-.46.54l.42.17c.24,0,.39-.16.46-.54Z"/><path class="cls-1" d="M178.51,52.89c0-.24-.17-.39-.55-.46l-.17.42c0,.23.17.39.55.46C178.44,53.27,178.45,53,178.51,52.89Z"/><path class="cls-1" d="M183.21,64l.16-.42c-.32-.21-.56-.23-.71,0l-.17.42C182.81,64.19,183.05,64.21,183.21,64Z"/><path class="cls-1" d="M171.3,64.76l.17-.42c-.32-.21-.56-.23-.72,0l-.17.41C170.85,65.07,171.05,65,171.3,64.76Z"/><path class="cls-1" d="M157.14,34.64l-.42-.17c-.21.32-.23.56,0,.71l.42.17A.45.45,0,0,0,157.14,34.64Z"/><path class="cls-1" d="M159.61,34.17c.24,0,.39-.16.46-.54l-.42-.17c-.24,0-.39.17-.46.54Z"/><path class="cls-1" d="M162,35.85l-.42-.17c-.21.32-.22.56,0,.71l.42.17C162.13,36.24,162.15,36,162,35.85Z"/><path class="cls-1" d="M116.81,1.29l-.42-.17c-.21.32-.22.56,0,.71l.42.17A.44.44,0,0,0,116.81,1.29Z"/><path class="cls-1" d="M160.56,46.31c0,.24.17.39.55.47l.17-.42c0-.24-.17-.4-.55-.47C160.68,45.79,160.62,46.17,160.56,46.31Z"/><path class="cls-1" d="M175,60.08c.24,0,.39-.17.46-.55l-.42-.17c-.24,0-.39.17-.46.55C174.45,60,174.83,60,175,60.08Z"/><path class="cls-1" d="M170.08,55.17l.17-.42c-.32-.21-.56-.22-.71,0l-.17.42C169.64,55.48,169.83,55.4,170.08,55.17Z"/><path class="cls-1" d="M165.41,58.08l.17-.42c-.32-.21-.56-.23-.72,0l-.16.42C165,58.24,165.26,58.26,165.41,58.08Z"/><path class="cls-1" d="M134.37,13.14c-.24,0-.39.17-.46.55l.42.17c.24,0,.39-.17.46-.55Z"/><path class="cls-1" d="M163.84,82.26c0-.1-.18-.16-.42-.17a.4.4,0,0,0-.34,0c-.21.32-.22.56.06.68s.56.22.77-.1C164,82.65,163.88,82.36,163.84,82.26Z"/><path class="cls-1" d="M150.77,85.33c4.58,43.81-32.05,76.66-68.69,70.41s-74.5-24-68.69-70.41,21-62.43,62.33-71.09S146.2,41.52,150.77,85.33Z"/><path class="cls-2" d="M48.83,12.61c.72.83.06,1.55-1.37,2.5h0l-.42.13a20.39,20.39,0,0,0-2.48,0c-1.11.37-1.5,1.35-3.34,2.09A65.72,65.72,0,0,0,28.56,24,48.33,48.33,0,0,0,18.4,34c-1.24,1.61-2.21,3-2.87,4-.33.5-.58.91-.75,1.18s-.14.24-.19.31l0,.07v0h0a1.89,1.89,0,0,1-2.67.7A2.53,2.53,0,0,1,11.5,37c.18-.3,2-2,2.34-2.53.71-1.08,2.83-2.56,4.15-4.27,2.62-3.39,2.31-4.57,6.92-7.78a87.09,87.09,0,0,1,14.25-8.3c1.93-.78,4.21-2,5.38-2.38l1.38-.45C47.17,11,47.91,11.55,48.83,12.61Z"/><path class="cls-2" d="M122,152.86c-.86-.68-.35-1.51.89-2.7h0l.39-.2a24.07,24.07,0,0,0,2.43-.45c1-.57,1.23-1.6,2.91-2.67A65.12,65.12,0,0,0,139.82,138a48.2,48.2,0,0,0,8.16-11.7c.93-1.8,1.63-3.37,2.09-4.49.24-.55.41-1,.52-1.3l.13-.33,0-.09h0a1.9,1.9,0,0,1,2.5-1.17,2.55,2.55,0,0,1,1,3.17c-.13.33-1.6,2.31-1.85,2.91-.5,1.2-2.31,3-3.3,5-1.95,3.81-1.44,4.92-5.38,8.92s-9,8.52-12.51,10.75c-1.75,1.12-3.78,2.72-4.86,3.32l-1.27.69C123.89,154.2,123.05,153.74,122,152.86Z"/><path class="cls-2" d="M6.5,108.52c.8-.49,1.32.16,1.91,1.5v0c0,.12,0,.25,0,.37S8,112,8.11,112.49c.16,1,.93,1.46,1.3,3.11,1.81,8.16,3.45,10.21,7.25,16.81,1.18,1.27,2.23,2.28,3,3,.38.35.69.62.9.8l.23.2.06.05h0a1.62,1.62,0,0,1,.21,2.35,2.18,2.18,0,0,1-2.82-.15c-.23-.2-1.39-2-1.8-2.33-.81-.75-1.76-2.75-3-4.1-1.43-1.54-5.24-7.5-7-15.34-.39-1.74-1.09-3.83-1.25-4.87-.08-.52-.14-.94-.18-1.22C4.87,109.68,5.48,109.14,6.5,108.52Z"/></svg>