<svg id="Layer_1" data-name="Layer 1" xmlns="http://www.w3.org/2000/svg" viewBox="0 0 184 171"><defs><style>.cls-1,.cls-2{fill:#f2994a;}.cls-2{fill-rule:evenodd;}</style></defs><path class="cls-1" d="M158.9,108.51c.48-.52.69-.89,1-.8.93.16,1.83.43,2.56.54.84.46-.23,1.53,1.37,1.24,0,0-.11-.75.28-1,.72.54.49-.18,1.3.39.52-.29-.84-.87-.32-1.15a3.31,3.31,0,0,1,.54-.89c.34-.44-1.71-2.23-1.24-2,.8.24-.38-2.7.42-2.46.3.08.44,1,.74,1.06l.9-.5c.5.15-1.84-3.78-1-3.54.14.26.45.68.67,1.07,1,.07.53-1.48,1.82-1.43,2.5.74-1.23,1.26,1.47,2,.21.4,1-1.09,1.18-.7.6.18-.27,1.32.23,1.47.49-.19.68-.87,1.07-1.08.95,1.59-.32-1.31,1.36-2.23.42-.93-1.61-.64-3-1.5-.14-.26,1.37-.76,1.16-1.15a3.69,3.69,0,0,0-.91-1.6,3.46,3.46,0,0,0-4.42-.1c-.36.11-.75.33-1.23.51-.14-.26-.42-.45-.36-.65a7.43,7.43,0,0,1,.4-1.41.85.85,0,0,0-.27-1l-1.9-.56c-.88.06-.53,1.48-1.51,1.51-.08-.13-.25-.29-.22-.39.16-.93.42-1.84.58-2.77.41-.31.8-.53,1.22-.84a3,3,0,0,1,.35-.88,7.9,7.9,0,0,0,1.19-.74c-.07-.89-1.47-.54-1.51-1.53l.39-.22a1.62,1.62,0,0,0,.57-.48.72.72,0,0,0-.59-.61.66.66,0,0,1-.71-.54c0-.23.11-.4.5-.61s.7-.56.83-1.39c-.48-.58-1-1.29-1.43-1.84.41-1.41.67-2.31.92-3.22.32-.34.65-.35.79-.09l.79,1.43c-.09.3-.14.83-.25,1.23s0-.66.39-.21c.38-.21.4.12.78-.1.4.12.53.45,1.1,0a11.18,11.18,0,0,1-.66-1.47c.51-.29-.67-1.84-.16-2.12.6.18,1.72-.35,2.42-.14-1.67-2.53-2.49-2.64-2.18-2.22-.47-.63-.48-1.72,1.32-1.19.21.39.06-.51-.62-1.23.59.17-1.59-1.52-1-1.34,1.17-1,2.33,2.26,2.26.66-.35.12.83-.61.34-.42-.5-.15.48-1.44-.12-1.61-.49.18-.69-1.27-1.2-1-.9-.27.87-1.16,0-1.43-.21-.39-.9.06-1.12-.33-1.5-.44,2.3-.74.8-1.18-.32-.42-1.32.05-1.6-.47-2.2-.65-1,1.13-3.08.51-.51-.48-.17-.92-.12-1.46a8.37,8.37,0,0,0,1.18-.74c.13-.07.09-.3.15-.5L162,60.8a10.6,10.6,0,0,1-1.26.61,7.59,7.59,0,0,0-.67-1.07,8.21,8.21,0,0,0-1.26.61c-1.17-.46-1.27-.49-.93-1.69.77-.43,1.58-1,2.35-1.38.13-.07.09-.3.12-.41L159,57.06a16.79,16.79,0,0,0-.92-1.69,5,5,0,0,0-.2-1.58l-.77.42c-.26.14-.43,0-.65-.41a2.89,2.89,0,0,0-.55-.7c-.5-.15-1.07-.43-1-.83s.82-.2,1.25-.18c.2.06.71-.23.64-.36a.69.69,0,0,0-.58-.6c-.88-.37-.85-.47-.69-1.41,0-.1,0-.33,0-.43-.29-.52-.65-1.17-.93-1.69-.07-.13-.3-.09-.4-.12a.7.7,0,0,1-.53.72c-.36.11-.47-.25-.31-1.18,0-.1-.06.2-.06.2a.65.65,0,0,1-.64-.41c-.15-.26-.09-.46.37-.54.1,0,.17.16.27.19a1.2,1.2,0,0,1,.16.59,1.53,1.53,0,0,0,.84.46,5.85,5.85,0,0,0,.37-1.3c.06-.21-.25-.62-.45-.68a15.8,15.8,0,0,0-2.2-.65.7.7,0,0,1-.53.71c-.36.12-.48-.25-.37-1l-1.41-.41c-.28-.52-.54-1.14-.89-1.79l.72-2.52a3.55,3.55,0,0,0-1.17-2c-.88.4-.53,1.48-1,2a10.63,10.63,0,0,1,.69,1.4c-.09.3-.18.6-.26.9-1,.47-1.93,1.07-2.94,1.54-.14-.26-.38-.55-.32-.76.33-1.53.76-3,1.19-4.55,0-.1-.14-.26-.21-.39a9.86,9.86,0,0,1-1.26.61c-.13.07-.3-.09-.4-.12a.7.7,0,0,1-.53.72c-.36.11-.47-.25-.37-1l-.9-.27c-.12.4-.26.91-.38,1.31,0,.1-.15.17-.28.24s-.26.14-.33,0-.24-.29-.21-.39c0-1.09.27-1.33,1.23-1.27A.67.67,0,0,0,142,37c-.42-.45-1.2-.36-1.3-1.15.08-.3.17-.6.23-.8a7.89,7.89,0,0,0,1.08-.77c-.12-.7-.68-.64-1.28-.82-.51.29-1.06.67-1.83,1.1-.32.34-.05,1.29-.75,1.85-.13.07-.26.14-.36.11a.47.47,0,0,1-.21-.39,3.18,3.18,0,0,1,.19-1,15.29,15.29,0,0,1-.83-1.67,12.76,12.76,0,0,0-2.64-1,5.15,5.15,0,0,1-1.13-1.75c0-.67,0-1.1-.07-1.66-.9.5-1.77.89-2.54,1.32-.43-.78-.79-1.43-1.14-2.08a.46.46,0,0,0-.69.12c-.13.08-.09.31-.14.51a.66.66,0,0,1-.53.71c-.33,0-.52-.48-.35-1.08s.26-.9.41-1.41a3.18,3.18,0,0,0,.16-.93c-.29-.52-.65-1.17-.93-1.69-1,.24-.7,1.32-1.11,2-.25.14-.44.42-.7.56-.93.6-1.93,1.06-3,1.63-.39.22-.51.29-.79.1a.73.73,0,0,1-.07-.9l.12-.4a2.51,2.51,0,0,0,1.55-1.61c.25-.15.51-.29.9-.5a3.19,3.19,0,0,0,.6-2.11c-.07-.13-.08-.46-.18-.49l-2.3-.68c-.09.3-.18.6-.26.9a.66.66,0,0,1-.53.72c-.23,0-.37-.22-.59-.61l-.21-.39c-1.06-.09-.61,1.35-1.49,1.41a10.88,10.88,0,0,0-.74-1.2l-4.1-1.21a.7.7,0,0,1-.53.72,1.35,1.35,0,0,1-1.21-.35.68.68,0,0,1-.07-.9c-.09,0-.27-.19-.4-.11a20.2,20.2,0,0,0-1.8,1c-.13.07-.08.3-.11.4l1.3.39c.43.78.43.78.18,1.25s-.4.64-1,.57a1.25,1.25,0,0,1-1-.83c.12-.4.26-.9.38-1.31-.2-.06-.43,0-.5-.14a10.88,10.88,0,0,0-.74-1.2l-1.68.92a8.34,8.34,0,0,1,.61,1.27,1,1,0,0,1-1.55-.24,3.38,3.38,0,0,0-1.27-1.25.83.83,0,0,1-.32-1.18.85.85,0,0,0-.27-.95L102,19a.46.46,0,0,0-.57.49c0,.1.14.26.21.39l1.8.53c.4.88.4.88-.31,2.63-.32.34-.62.25-.6-.18s.17-.6.05-1-.22-.72-.32-.75a.7.7,0,0,0-.61.58c-.51,1.05-.51,1.05-1.31.81L99,22.14l-.29-.52c-.6-.94-.9-1-1.87-.66-.36.11-.51.28-.79.09a.89.89,0,0,1-.07-.89c.18-.6,0-.86-.54-1.14a1,1,0,0,0-1.27.28c-.19.27-.17.6-.36.87,0,.1-.26.15-.41.32l-1.9-.56a4,4,0,0,1-.65-1.17c-.88.06-.63,1.45-1.51,1.51l-.9-.26c-.69-.64.33-1.54-.49-2.11l-3,1.63c-.14.51-.26.91-.4,1.41a.54.54,0,0,1,.61.51c.53.05.45.35.39.55s-.27.57-.6.59c-.1,0-.42-.45-.36-.65A5.79,5.79,0,0,1,85,20.63c-.2-.06-.43,0-.5-.15a10.88,10.88,0,0,1-.74-1.2L81,18.45c-.13.08-.49.19-.39.22.15.26.16.59.36.65a6.84,6.84,0,0,0,1.4.41.72.72,0,0,1,.59.61c-.3.67-.13,1.6-.94,2.12-.81-.56-1-1.49-1.51-2.3a7.78,7.78,0,0,1-1.26.61l-1.4-.41c-.11.4-.26.91-.37,1.31,0,.1-.16.17-.29.24s-.26.14-.33,0-.24-.29-.21-.39c0-1.09.27-1.33,1.23-1.27.22-.37.2-.7-.07-.89-.64-.41-1.41-.75-1.58-1.67l-1.3-.38a.87.87,0,0,0-.89.06,1.12,1.12,0,0,0-.44,1.18c.32.75.78,1.43,1.11,2.18-.26.14-.45.42-.65.36a10.06,10.06,0,0,1-1.7-.51c-.31-.42-.34-1.08-.87-1.12s-.53.71-.64,1.11c.21.39.4.88.61,1.27l-1.67.93a1.77,1.77,0,0,1-.3-.85,6.76,6.76,0,0,1,.4-1.41c.06-.2-.19-.49-.3-.85l-1.67.92a3.33,3.33,0,0,1-.36.88,7.9,7.9,0,0,0-1.19.74,2,2,0,0,0,0,1c0,.33-.26.14-.3-.09-.08-.46.17-.6.52-.28a1,1,0,0,1,.25.62s-.28.24-.47-.25-.51-.48-.58-.61l-.65-1.17c-.38.21-.87.4-1.13.54a10.62,10.62,0,0,1-.77-1.1c-.9.5-.63,1.45-1.06,2.19a15.66,15.66,0,0,1-1.64.83c-.55-.38-.56-1.47-1.67-1.37l-1.16.64A9.68,9.68,0,0,0,57,22c-.4-.12-.94-.49-1.31.05-.22.37.23.72.41,1.21-.46.85-1.46-.21-2.09.48-.08.3-.17.6-.31,1.1.45.68,1,1.39,1.37,2a3.67,3.67,0,0,1-.42,1.08,7.23,7.23,0,0,0-1.09.77l.93,1.69c.07.13.3.09.4.12a.54.54,0,0,1,.5-.62c.23,0,.53.05.86,0s.57.27.58.61c0,.1-.44.41-.64.35a5.88,5.88,0,0,1-1.3-.38.76.76,0,0,1-.86.73,5,5,0,0,1-1.2-.36c-.12.4-.26.91-.37,1.31,0,.1-.16.17-.29.24s-.26.14-.33,0-.24-.29-.21-.39c0-1.09.27-1.33,1.23-1.27.06-.2.21-.37.14-.5A16.64,16.64,0,0,0,52,28.57c-.26.14-.59.15-.65.35a7,7,0,0,0-.4,1.41c-.09.3-.27.57-.6.59-.22-.39-.53-.81-.74-1.2-.88.39-.82,1.72-1.94,1.82.22.39.4.88.62,1.28-.18.6-.35,1.2-.52,1.81-.39.21-.8.52-1.19.74-.4,1.4-.81,2.81-1.21,4.22-.08.3-.3.67-.6.58-.1,0-.41-.44-.36-.65,0-.43.26-.9-.15-1.35a16.81,16.81,0,0,0-1.6,1,3.93,3.93,0,0,1,.44,1.11c-.56.82-1.46-.21-2.09.48l-.55,1.91c-.61.25-.61.25-1.28-.82l-1.55.86c-.71,1-.6,2.11-1.06,3,.28.53.43.79.64,1.18-.32,1.1-.56,2.34-1,3.51-.14.51-.7.56-1.17.31a.58.58,0,0,0-.43,0l-.9.49a3.29,3.29,0,0,1-.86,0c-.6-.18-1.14-.56-1.84,0l-.26.9a8.84,8.84,0,0,1,1.13,2.52c-.45.41-.89.06-1.42,0-.52.28-1.06.66-1.7,1-.15.5-.32,1.11-.49,1.71-.42.31-.8.53-1.22.84a9.4,9.4,0,0,1,.61,1.27c-.11.4-.26.91-.4,1.41l1.3.38c.1,0,.17.16.24.29s.15.26,0,.33-.29.25-.39.22c-1.09,0-1.33-.29-1.27-1.25l-.9-.27a.66.66,0,0,0-.89.07c-.15.17,0,.43.2.82l.22.39a2.6,2.6,0,0,1-1.58,1,6.05,6.05,0,0,1-1.77.14,7.79,7.79,0,0,1,.61,1.27A7,7,0,0,0,22,65l1.22,2.21a.81.81,0,0,1-1.08.33,1,1,0,0,0-.91.17,3,3,0,0,1-.36.88c.43.78.83,1.66,1.25,2.44-.44.41-.91.16-1.34.15a.91.91,0,0,0-.77.42,23.42,23.42,0,0,0-.75,2.62c.85,1.56.85,1.56-.16,2.46-.43,0-.95-.5-1.29,0s.43.78.31,1.18a5.66,5.66,0,0,1-1,3.09c-.61.25-1.26-.16-1.86-.33a.68.68,0,0,0-.81.19c0,.1.28.52.45.68s.58.28.85.47c.1,0,.14.26.21.39l-.4,1.41a.76.76,0,0,1,.73.86,8.86,8.86,0,0,0-.19,1.8c0,.33-.26.14-.3-.09-.09-.46.17-.6.51-.28a1.05,1.05,0,0,1,.26.62s-.29.24-.47-.25a9.26,9.26,0,0,0-3-1.31c-.11.4-.26.9-.43,1.5.46.68,1,1.39,1.33,1.81A9.17,9.17,0,0,0,14,90.06q0,.5.81.57l-.2-.06a.66.66,0,0,1,.4-.65c.26-.14.46-.08.54.38,0,.1-.15.17-.18.27a1.1,1.1,0,0,1-.59.16,1.14,1.14,0,0,1-.73.65c-.59.16-1.2-.35-1.7.27-.17.6-.35,1.2-.52,1.81.22.39.4.88.61,1.27-.08.3-.17.6-.25.9.22.72,1,.73,1.58.91s.77.33.86.79c-.13.07-.29.25-.39.22a12.49,12.49,0,0,1-1.83-.43c-.4-.12-.74.32-.89.82a1,1,0,0,0,.17.93c.39-.22.75-.33,1.13-.54a2.53,2.53,0,0,1,.33.75,22.25,22.25,0,0,1-.72,2.51l-1.8,1-1.4-.41c-.3.67-.56.81-1,.69a12.69,12.69,0,0,0-1.86-.33c-.33,0-.51.29-.53.72l3.2.94a.49.49,0,0,1-.16.94l-.9-.27c-.25.14-.64.36-.7.56-.2.7-.73,1.42-.2,2.23a7.78,7.78,0,0,1,1.26-.61l.9.26c.78-.09.71-1,1.13-1.3a.66.66,0,0,1,.89-.06c.11-.41.26-.91.37-1.31,0-.1.16-.17.29-.24s.25-.15.33,0,.24.28.21.39c0,1.09-.27,1.33-1.23,1.27-.06.2-.22.37-.15.5a18.86,18.86,0,0,0,.93,1.69c.3.09.57.28.87.37a8.21,8.21,0,0,1,1.26-.61,1.06,1.06,0,0,1-.13,1.59c-.19.28-.62.26-.8.53a1.11,1.11,0,0,0-.25,1.24.81.81,0,0,0,.75.43,1,1,0,0,0,.32,0,6.45,6.45,0,0,1,1.33-.48c.59-.15,1,.53,1,1.26a.7.7,0,0,1,.71.54c.11.36-.24.47-1,.37-.15.5-.26.9-.41,1.4a2,2,0,0,0,.56.71c.57.28,1.23.26,1.57.58.36.65.74,1.2,1,1.72-.14.5-.29,1-.4,1.4a.69.69,0,0,0,.88-.06c.45-.42.25-1.24,1.24-1.27l.7.2a3.17,3.17,0,0,1,.29.85c-.15.94-.41,1.84-.57,2.78,0,.1.14.26.21.39a9.25,9.25,0,0,1,1.26-.61c.13-.07.3.09.4.12a.54.54,0,0,1,.5-.62c.23,0,.53,0,.86,0a.7.7,0,0,1,.59.61c0,.1-.45.41-.65.35a6.47,6.47,0,0,1-1.3-.38c-.09.3-.17.6-.26.9a.71.71,0,0,0,.07.89q.26.24.69-.12c.28-.24.51-.28.68-.12a.65.65,0,0,1,.07.89c-.08.3-.17.6-.25.9.67.31.81.57.69,1a11.77,11.77,0,0,0-.31,1.87c0,.33.28.52.71.54.14-.5.26-.9.43-1.51.26-.14.75-.32,1.13-.54.13-.07.09-.3.18-.6,0-.1-.06.2-.06.2a.65.65,0,0,1-.64-.41c-.15-.26-.09-.46.37-.54.1,0,.17.16.27.19a1.2,1.2,0,0,1,.16.59,3.39,3.39,0,0,0,1.34.61,4.84,4.84,0,0,1,1,2.26c-.24.47-.42,1.07-.66,1.55-.19.27-.51.28-.89.06-.14.5-.25.91-.4,1.41.29.52.67,1.07,1,1.72a6,6,0,0,0,2.93.76c.33,0,.51-.29.53-.72l-1.4-.42a17,17,0,0,0-.93-1.69c.5-.61,1-.36,1.62.05,0,.76,1.07,1.18.71,2.06l1.4.41c.07.13.24.29.21.39,0,.33-.07.64-.06,1s.16.59.3.85c.33.75.79,1.43,1.14,2.08.47.25.72-.23,1.18-.31.77.34,1.9-.2,2.18,1.08-.38.21-.67.46-1.06.67.14.26.19.49.29.52l3.7,1.09c.68.64-.23,1.57.48,2.11a3.81,3.81,0,0,1,1.23-.51l.93,1.69c-.09.3-.17.6-.26.9.9,1,.9,1,2.42.28a3.91,3.91,0,0,0,.77,1.1c.45-.08.67-.46.81-1,.06-.2.45-.41.7-.55l.93,1.69a5.22,5.22,0,0,0-.22,1.13c.32.42.7,1,1.23,1.78-.1,0,.16-.17.34-.44s.06-1,.75-1.09a3.34,3.34,0,0,1,.88,1.46,5.82,5.82,0,0,1,.14,1.78c1-.36,1.61-1.05,2.52-1.21.42.44.07.89.06,1.32a.47.47,0,0,0,.21.39c.17.16.5.15.72-.23A11,11,0,0,0,56,150c.83-.62,1.52,0,2.32.25.2.06.31.42.36.65a2.15,2.15,0,0,0-.81.53,2.65,2.65,0,0,0-.43.74.66.66,0,0,0,0,.44c.58.61.22,1.48.45,2.2a2.68,2.68,0,0,0,.89,1.46c.58-.15.63-.68.74-1.09-.21-.39-.4-.88-.61-1.27.89-.83,1.8.53,2.67.14s.25-2,1.42-2.31c.43.78,1,1.59,1.38,2.37l.9.27c.72.53-.43,1.5.49,2.1l1.67-.92c.13-.07.09-.31.2-.71,0-.1-.05.2-.05.2a.65.65,0,0,1-.65-.4c-.14-.26-.08-.46.38-.55.1,0,.17.16.27.19a1.12,1.12,0,0,1,.15.59c.22.39.55.38.73.11.35-.45.59-.92,1-1.46.29.52.53.81.82,1.33a9.8,9.8,0,0,0,1.6.47.92.92,0,0,0,1-.9l-.06.2a.65.65,0,0,1-.64-.41c-.14-.26-.08-.46.37-.54.1,0,.18.16.28.19a1.12,1.12,0,0,1,.15.59c.14.26.37.22.44.35.53.81.93,1.69,1.39,2.37,1.23.25,1.23.25,1.63-.39l.14-.51a1.15,1.15,0,0,1,1.65,0c.24.28.28.52.6.94a26.3,26.3,0,0,0,3.8,1.12c.58-.16.64-.36.3-.68s-.57-.28-.74-.44a1.71,1.71,0,0,1-.56-.7l3-1.64a.78.78,0,0,1,.11,1.12c.47,1,.73,1.64,1,2.16,1-.37.84-1.83,2.06-1.9a3.83,3.83,0,0,1,.38-1,16.13,16.13,0,0,0,1.58-1c.6.17.6.17.37,1-.09.3-.17.6-.26.91l3.7,1.09c.15-.51.26-.91.4-1.41,0-.1.26-.14.39-.21l.3.08c.46.68.78,1.43,1.14,2.09a1.89,1.89,0,0,0,.7-.56,1.1,1.1,0,0,0,.13-.83c-.33-.76-.78-1.44-1.14-2.09a2.77,2.77,0,0,1,.75-.32,1.55,1.55,0,0,1,.87.36c.27.19.25.63.53.81a1.1,1.1,0,0,0,1.2.36l.9-.5a8.24,8.24,0,0,0,.77,1.1l.8.24c.78-.1.68-.89,1.13-1.3a.65.65,0,0,1,.89-.07c.08-.3.17-.6.26-.91a.89.89,0,0,1,1.28-.71l.9.27c.15-.5.26-.91.4-1.41,0-.1.26-.14.39-.21l.3.09a22.86,22.86,0,0,1,1.14,2.08c.56-.06.67-.46.82-1,.09-.3.44-.41.6-.59a9.55,9.55,0,0,0,.74,1.2,12.17,12.17,0,0,1,2.52-1.22,3,3,0,0,1,.84.47c.27.19.29.52.07.89a5.9,5.9,0,0,0,1.3.39c.33,0,.62-.26.58-.49a3.23,3.23,0,0,1-.43-.78c-.3-.85.3-1.44,1.23-1.27a.66.66,0,0,1,.53-.72.63.63,0,0,1,.43,0l1.5.44c1.3-.38,2.45-1.35,3.81-1.93l1.3.39.66-2.32,1.67-.92c.94.5-.33,1.54.61,2,.42-.31.93-.59,1.61-1l.69-2.41c.63-.69,1.31-.81,1.89-1.3.57,1-.16,1.7-.19,2.56.27.19.61.51.88.7a4.49,4.49,0,0,0,2.16-1.11c.15-.5.39-1,0-1.32-.28-.19-.6-.18-.87-.37s-.39-.55-.23-.72l.38-.21a8.27,8.27,0,0,0,1.16-.64l1.9.56c.43.78.79,1.43,1.21,2.21.88.37,1.63,1.13,2.62.34.09-.31.17-.61.23-.81a9.47,9.47,0,0,1,1.19-.74c-.09-.46-.39-.55-.69-.64-.87-.36-1-.72-.68-1.4.09-.3.44-.41.6-.59l.9.27c.22.39.53.81.74,1.2l1.9.56,1.68-.92c-.22-.39-.4-.88-.62-1.27.09-.3.18-.61.26-.91.32-.34.65-.35.76,0,.36.65.79,1.43,1.14,2.08.39-.22.88-.4,1.26-.61.5.15,1,.19,1.19.78-.78.43-1.58,1-2.35,1.38.07.13.11.36.21.39,1.17.46,2.38.81,3.58,1.17.3.09.58-.16.88-.83l.09-.3c1.06-.67-.35-2.18,2.89-1.77.5.15.22-1.5-.39-1.68-.39.21-1.6-.35-2.06-.08-1,0-.1-1.06-1-1.23-.7-.2-1.16-1.21-1.92-1.22-.39.21-.12-1.89-.38-1.75-.1,0,.48-1.89.39-1.92-4.21-1.24,2.34-1.41-2-2.68-.24-.29,3.35-1.63,3.07-2.15l-2.7-.8a16.65,16.65,0,0,1-.93-1.69c.33-.77,1.29-.71,1.66-1.25l2,.59a5.57,5.57,0,0,1,.75-1.09,10.63,10.63,0,0,1-.69-1.4c.18-.61.35-1.21.55-1.91.52-.29,1.13-.54,1.78-.9a7.59,7.59,0,0,1,.67,1.07c1.05-.67,1.08-.77.3-2.2.3-.67,1.49-.65,1.34-1.67.78-.43,1.58-1,2.45-1.35.09-.3.18-.61.29-1-.37-.21-.71-.53-1.08-.75a8.87,8.87,0,0,0-1.39.68c-.22-.39-.43-.78-.64-1.17s-.29-.52-.1-.79a.83.83,0,0,1,.88-.07c.67.31.83.14,1-.57.09-.3.18-.6.53-.72a.38.38,0,0,1,.33,0c.29.52.52,1.25,1.37,1.28a11.21,11.21,0,0,0,3.09-1.71c0-.33.08-.63.06-1s-.28-.52-.71-.54a.54.54,0,0,1-.5.62c-.23,0-.53,0-.86,0a.71.71,0,0,1-.59-.61c0-.1.45-.41.65-.35a6.47,6.47,0,0,1,1.3.38.53.53,0,0,1,.5-.61c.56-.06,1.09,0,1.75,0-.26-1.39-1.65-.71-2.2-1.42l-.65-1.17a4.87,4.87,0,0,1-2.13.25c-.33,0-.14-.26.09-.3.46-.09.6.17.28.52a1,1,0,0,1-.61.25C158.56,109,158.42,108.69,158.9,108.51ZM57.27,26.19c-.26.9-.52,1.81-.77,2.71,0,.1-.26.14-.39.21s-.4-.11-.51-.47c.25-.91.51-1.81.77-2.72,0-.1.26-.14.39-.21S57.16,25.83,57.27,26.19ZM150.07,48a1.22,1.22,0,0,1,.54-1.91c.48.25,1.29,0,1.13,1A16.26,16.26,0,0,0,150.07,48ZM87,20.79c.8-.53,1.4-.35,1.9.56C88,21.84,87.42,21.67,87,20.79Zm7.43,1.32c-.13.07-.28.24-.38.21l-.9-.27c-.1,0-.15-.26-.22-.39a.2.2,0,0,1,.09-.3c.34-.44,1.34-.15,1.5.45C94.61,21.94,94.48,22,94.45,22.11ZM80.39,154.7c.53.81.36,1.41-.54,1.91C79.35,155.7,79.52,155.09,80.39,154.7Zm79.89-91.58-.4-.12c-.07-.13-.14-.26-.22-.39s.12-.4.48-.52c.13-.07.3.09.4.12a.7.7,0,0,1,.71.54C161.27,63.08,160.88,63.29,160.28,63.12ZM26.18,64.34c.05.23-.11.4-.47.51l-.21-.39c0-.23.11-.4.47-.51C26,63.85,26.14,64.11,26.18,64.34ZM16,108.56c.23,0,.4.12.52.48l-.39.21q-.35.06-.51-.48ZM32.89,53.78l-.21-.39c0-.23.11-.4.47-.52l.22.39C33.41,53.49,33.25,53.67,32.89,53.78Zm18-19.56c0,.23-.11.4-.47.51l-.21-.39c-.05-.23.11-.4.47-.51Zm53.32-10.45.39-.21q.34-.06.51.48l-.39.21Q104.46,24.52,104.17,23.77ZM68.24,152.42c.05.23-.11.4-.47.51l-.21-.39c0-.23.11-.4.47-.51C68.13,152.06,68.17,152.29,68.24,152.42ZM121.78,25.15l-.38.22c-.25-.29-.29-.52-.13-.69l.38-.22C121.9,24.75,121.94,25,121.78,25.15Zm10,7-.38.21c-.25-.29-.29-.52-.13-.69l.39-.21Q132.06,31.9,131.82,32.15Zm7.89,5.05.38-.21c.25.29.29.52.13.69l-.39.21Q139.47,37.46,139.71,37.2ZM117.09,148.51q.34-.06.51.48l-.38.21c-.23,0-.4-.11-.52-.47ZM147.6,44.87c0-.23.11-.4.47-.51,0,0,.14.26.22.39s-.12.4-.48.51Z"/><path class="cls-1" d="M165,114.45c-.28-.52-.45-.68-.58-.6l-1.68.92c0,.23.16.59.26.62a27.9,27.9,0,0,0,2.7.8c1-.57.86-1.5,1-2.43-.33-.75-1-.52-1.61-.8a2.94,2.94,0,0,0-.11,1.49c0,.34-.25.15-.3-.09-.08-.46.17-.6.52-.28a1,1,0,0,1,.25.62C165.46,114.8,165.2,114.94,165,114.45Z"/><path class="cls-1" d="M143.6,146.08c-.14.51-.26.91-.4,1.41-.39.21-.8.53-1.19.74a1.45,1.45,0,0,0,.66.74c1,.52,1,.52.81,1.33-.12.4-.26.91-.38,1.31l.29.52c.1,0,.33,0,.36-.12a6.87,6.87,0,0,0,1-3.08,2.86,2.86,0,0,1-.45-2.21A.64.64,0,0,0,143.6,146.08Z"/><path class="cls-1" d="M3.57,113.82c-.92.17-.53,1.48-1.52,1.52l-.9-.27a.43.43,0,0,0-.38.22c-.16.17-.15.5.22.72a13.86,13.86,0,0,0,1.9.56c.12.36.33.75.52,1.24,1-.37.8-1.29,1.1-2C4.51,115.08,3.9,114.57,3.57,113.82Z"/><path class="cls-1" d="M5.82,104.45l-.12.41c-.34,1.2-.34,1.2-1.5,1.08a1,1,0,0,0-1.15,1,2.82,2.82,0,0,0,.33.75l1.3.38c.1-.73,1-.69,1.39-1.44a5.52,5.52,0,0,0,.37-1.31A.6.6,0,0,0,5.82,104.45Z"/><path class="cls-1" d="M154.27,145.2a.52.52,0,0,0-.45.41,1.92,1.92,0,0,1-1.16,1.4.28.28,0,0,0-.15.17c.25.62.54,1.14.79,1.77l1.81-1a3.78,3.78,0,0,1,.38-1A9.39,9.39,0,0,1,154.27,145.2Z"/><path class="cls-1" d="M144.74,33.24c-.47-.25-.85,0-1.1.43a10,10,0,0,0-.46,1.61,8,8,0,0,1,.62,1.27c-.15.51-.26.91-.38,1.31l.9.27.66-2.32c-.21-.39-.39-.88-.61-1.27C144.49,34.14,144.6,33.74,144.74,33.24Z"/><path class="cls-1" d="M111.61,157.8l1.68-.92c.08-.31.17-.61.25-.91-.21-.39-.62-.84-.61-1.27s.07-.63-.38-.55c-.13.07-.36.11-.39.21a6.86,6.86,0,0,0-.89,3.12A.79.79,0,0,1,111.61,157.8Z"/><path class="cls-1" d="M8,119.17a7.12,7.12,0,0,1-1.06.66c-.39.22-.52.29-.47.52a.66.66,0,0,0,.71.54l.5.15a7.45,7.45,0,0,0,1.06-.67l1,.29c.1,0,.26-.14.39-.21a.48.48,0,0,0-.13-.69Z"/><path class="cls-1" d="M123.35,150.14c-.14.5-.26.9-.4,1.41-.39.21-.81.52-1.19.74-.15.5-.39,1,.12,1.45l1.55-.85a2.94,2.94,0,0,0,.63-2.21A.66.66,0,0,0,123.35,150.14Z"/><path class="cls-1" d="M156.78,43.87l-.66,2.32c.8,1,.8,1,1.8.53-.21-.39-.33-.75-.54-1.14.25-.14.28-.25.51-.29s.62-.25.6-.58a.66.66,0,0,0-.71-.54A3.48,3.48,0,0,1,156.78,43.87Z"/><path class="cls-1" d="M78.12,16.63c-.12.41-.26.91-.37,1.31a1,1,0,0,0,1,.83c.63.08.86,0,1-.57.12-.4.12-.4-.18-1.25A7.4,7.4,0,0,1,78.12,16.63Z"/><path class="cls-1" d="M40.61,153.1c-1,.7-1,.7-.55,1.91l.9.26c1-.69,1-.69.55-1.9Z"/><path class="cls-1" d="M90.91,12.12c-.35.44-.66.79-.85,1.06,0,1,.66,1.5,1,2.35.34-.44.66-.78.84-1.06C91.79,13.58,91.18,13.07,90.91,12.12Z"/><path class="cls-1" d="M100.38,19.6c-.29-.52-.65-1.17-.93-1.69-.39.21-.83.63-1.23.51s-.63-.08-.55.38c.08.13.12.37.22.4a4.27,4.27,0,0,0,2.2.64A1.5,1.5,0,0,1,100.38,19.6Z"/><path class="cls-1" d="M58.37,161.16,57.86,163c-.06.2.31.42.38.55l1.67-.92A16.23,16.23,0,0,0,59,161C58.89,160.88,58.66,160.92,58.37,161.16Z"/><path class="cls-1" d="M130.66,26.36c.1.79.71,1.3.84,2,.82-.2.76-.76.87-1.16a10.78,10.78,0,0,1-.61-1.27c-.33-.75-.43-.78-.77-.34A2,2,0,0,0,130.66,26.36Z"/><path class="cls-1" d="M131.9,25.41l1.31.39a1,1,0,0,0,.81-1c.07-.63,0-.86-.57-1-.4-.12-.4-.12-1.24.18A7.43,7.43,0,0,1,131.9,25.41Z"/><path class="cls-1" d="M134.35,147c-.09.3-.17.6-.26.91a8.44,8.44,0,0,0-1.19.74c.83.89.83.89,1.83.43.17-.61.35-1.21.52-1.81,0-.1-.14-.26-.21-.39S134.56,146.58,134.35,147Z"/><path class="cls-1" d="M153,125.64l2.7.79c.1,0,.26-.14.38-.21s.12-.4-.22-.72l-2.7-.8c-.1,0-.26.15-.39.22S152.78,125.35,153,125.64Z"/><path class="cls-1" d="M175.53,90.19a1.12,1.12,0,0,0-1.51-.78,7.73,7.73,0,0,0-1.65.83c.33.75.8,1,1.52.77A7.62,7.62,0,0,0,175.53,90.19Z"/><path class="cls-1" d="M33.6,38.34c.88-.39,1-1,.55-1.91-.39.21-.8.53-1.19.74s-.51.29-.47.52a.64.64,0,0,0,.71.53C33.33,38.15,33.5,38.31,33.6,38.34Z"/><path class="cls-1" d="M7,96.62a6.12,6.12,0,0,0,.38-1.31c.05-.2-.22-.39-.36-.65l-1.55.85c.15.26.16.59.36.65A2.57,2.57,0,0,0,7,96.62Z"/><path class="cls-1" d="M5.77,99.31c-.88.4-1,1-.55,1.91.39-.21.8-.52,1.19-.73s.51-.29.47-.52a.66.66,0,0,0-.71-.54Z"/><path class="cls-1" d="M13.22,85.38a6.12,6.12,0,0,0,.38-1.31c.06-.2-.22-.39-.36-.65l-1.54.85c.14.26.15.59.35.65A2.61,2.61,0,0,0,13.22,85.38Z"/><path class="cls-1" d="M20.85,65.93l-.93-1.69c-.93-.17-.73.65-1,1.13A1.22,1.22,0,0,0,20.85,65.93Z"/><path class="cls-1" d="M45.84,29.36c-.86.72-.86.72-.51,1.81.52,0,1.11.65,1.47-.22A16.4,16.4,0,0,1,45.84,29.36Z"/><path class="cls-1" d="M25.15,128.26a.73.73,0,0,0,.34,1.08,15.33,15.33,0,0,0,2.1.62.73.73,0,0,0-.34-1.08Z"/><path class="cls-1" d="M71.81,17.83l-2.2-.65c-.2-.06-.38.21-.64.35,0,0,.11.36.21.39a3.83,3.83,0,0,0,2.13.52C71.64,18.43,71.73,18.13,71.81,17.83Z"/><path class="cls-1" d="M53.35,159.37c.4.88,1,.95,1.9.56-.21-.39-.53-.81-.74-1.2s-.29-.52-.52-.48a.66.66,0,0,0-.53.71C53.53,159.09,53.41,159.16,53.35,159.37Z"/><path class="cls-1" d="M97.69,18.37a5.85,5.85,0,0,0,.37-1.3c.06-.21-.21-.39-.35-.65l-1.55.85c.14.26.16.59.36.65A2.45,2.45,0,0,0,97.69,18.37Z"/><path class="cls-1" d="M104.24,16.71l.93,1.69c.93.16.73-.66,1-1.13A1.35,1.35,0,0,0,104.24,16.71Z"/><path class="cls-1" d="M72.57,157.4c-.53,0-.95-.49-1.29-.05s.23.72.34,1.08c.07.13.14.26.22.39l.21.39A1.18,1.18,0,0,0,72.57,157.4Z"/><path class="cls-1" d="M138.39,31.58c-1.28-.49-2-1.25-3.09-.59.23.73.88.7,1.46,1A1.57,1.57,0,0,0,138.39,31.58Z"/><path class="cls-1" d="M143.67,26.38c-.73-.87-.73-.87-1.8-.53,0,.53-.65,1.11.23,1.48C142.61,27.05,143.15,26.66,143.67,26.38Z"/><path class="cls-1" d="M153.64,38.91c.88-.39,1-1,.55-1.91-.39.22-.8.53-1.19.74s-.51.29-.47.52a.66.66,0,0,0,.71.54Z"/><path class="cls-1" d="M152.53,44.69c0-.1,0-.33.12-.4l1.16-.64a2.79,2.79,0,0,0-.36-.65,5.9,5.9,0,0,0-1.3-.38c-.17.6-.35,1.2-.55,1.91A2.56,2.56,0,0,1,152.53,44.69Z"/><path class="cls-1" d="M155.12,44.37c.59-.16.89-.83,1.66-.5,0-.1.19-.27.12-.4a1.15,1.15,0,0,0-1.39-.84c-.33,0-.7.55-.72,1A3.19,3.19,0,0,0,155.12,44.37Z"/><path class="cls-1" d="M160.56,50c-.87.39-1.05,1-.55,1.91.39-.22.8-.53,1.19-.74s.51-.29.47-.52a.66.66,0,0,0-.71-.54C160.83,50.19,160.66,50,160.56,50Z"/><path class="cls-1" d="M161,57.22a.69.69,0,0,0,.89-.07,3.9,3.9,0,0,0,.7-2.08c0-.1-.21-.39-.21-.39-.23,0-.59.16-.65.36A8.6,8.6,0,0,0,161,57.22Z"/><path class="cls-1" d="M167.77,56.28c.87-.4,1-1,.55-1.91-.39.21-.81.52-1.19.74s-.52.28-.48.51a.67.67,0,0,0,.72.54C167.5,56.09,167.57,56.22,167.77,56.28Z"/><path class="cls-1" d="M141.44,146.43a.7.7,0,0,0,.89-.07c.38-.21.73-.65,1.27-.28.1-.73,0-1-.44-1.11-.67-.31-1.16-.12-1.36.58A2.92,2.92,0,0,0,141.44,146.43Z"/><path class="cls-1" d="M167.11,84.76c.4.88,1,1.06,1.9.56-.22-.39-.53-.81-.75-1.2s-.28-.52-.51-.48a.65.65,0,0,0-.53.72C167.29,84.49,167.13,84.66,167.11,84.76Z"/><path class="cls-1" d="M158.19,123.13c.12-.41.26-.91.38-1.31-.47-1-.6-.94-1.65-.7C157.51,122.49,157.48,122.59,158.19,123.13Z"/><path class="cls-1" d="M158.57,125.2c.73.11,1,0,1.11-.44.33-.77.11-1.16-.59-1.37l-.9-.26c-.27.57.07.89.29,1.28S158.76,124.93,158.57,125.2Z"/><path class="cls-1" d="M154.26,134.79c-.07-.9-.07-.9-1-2.16-.76.76-.79.86-.29,1.77Z"/><path class="cls-1" d="M155.82,134.26c-.59.16-.89.83-1.66.5,0,.1-.18.27-.11.4a1.14,1.14,0,0,0,1.38.84c.33,0,.7-.55.72-1A1.64,1.64,0,0,0,155.82,134.26Z"/><path class="cls-1" d="M162.74,134.07l.22.39c.17.16.4.11.71-.23.18-.6.35-1.21.52-1.81L164,132c-.18-.16-.4-.12-.72.23C163.09,132.86,162.92,133.46,162.74,134.07Z"/><path class="cls-1" d="M173,137.08c.11.36.25.62.51.47l.39-.21c.17-.6.34-1.21.52-1.81-.12-.36-.29-.52-.52-.48l-.39.22Z"/><path class="cls-1" d="M15,72.28c-.4-.89-1-1.06-1.9-.56A1.17,1.17,0,0,0,15,72.28Z"/><path class="cls-1" d="M5.82,104.45c.08-.3.17-.6.25-.9a6.24,6.24,0,0,0-1.4-.41c-.42,0-.61.25-.47.51s.12.36.22.39Z"/><path class="cls-1" d="M9.42,102.46a5.88,5.88,0,0,0,.38-1.3c0-.2-.26-.62-.36-.65a.68.68,0,0,0-.6.58,2.3,2.3,0,0,0,0,.87C8.72,102.26,9,102.45,9.42,102.46Z"/><path class="cls-1" d="M14,117.89a.71.71,0,0,0,.89-.07c.29-.24,0-.66-.63-.84l-.4-.12-.38.21c-.16.18-.12.41.12.7C13.69,117.9,13.91,117.86,14,117.89Z"/><path class="cls-1" d="M16.54,118.52c.56,0,.85-1.06.44-1.51a.2.2,0,0,0-.3-.08c-.56,0-.85,1.06-.44,1.5Z"/><path class="cls-1" d="M44.73,35.14c.18-.61,0-1.1-.37-1a.68.68,0,0,0-.53.72l-.11.4c.11.36.25.62.51.48s.36-.11.39-.21Z"/><path class="cls-1" d="M23.84,130.93c-.87.39-1,1-.54,1.91C24.2,132.34,24.37,131.74,23.84,130.93Z"/><path class="cls-1" d="M59.29,19.15a.69.69,0,0,0,.07.89c.34.32.75,0,.93-.6,0-.1.08-.3.11-.4l-.21-.39q-.25-.24-.69.12A.61.61,0,0,0,59.29,19.15Z"/><path class="cls-1" d="M63.67,14.44a5.88,5.88,0,0,0-1.3-.38c-.2-.06-.62.25-.65.35a.71.71,0,0,0,.59.61,2.46,2.46,0,0,0,.86,0A.54.54,0,0,0,63.67,14.44Z"/><path class="cls-1" d="M65.23,10.54c.06.56,1.06.86,1.51.44a.2.2,0,0,0,.08-.3c0-.56-1-.85-1.5-.44Z"/><path class="cls-1" d="M66.31,19.26c.6.17,1.08,0,1-.37a.67.67,0,0,0-.72-.54l-.4-.12c-.35.11-.61.26-.47.52s.12.36.22.39Z"/><path class="cls-1" d="M70.08,13.28c.17-.6,0-1.09-.37-1a.64.64,0,0,0-.53.71l-.12.41c.11.36.26.62.51.48s.36-.12.39-.22Z"/><path class="cls-1" d="M78.12,16.63a5.85,5.85,0,0,0,.37-1.3c.06-.2-.25-.62-.35-.65a.68.68,0,0,0-.6.58,2.29,2.29,0,0,0,0,.87A.53.53,0,0,0,78.12,16.63Z"/><path class="cls-1" d="M88.18,9.14l.09-.31a1,1,0,0,0-1.5-.44l-.09.3c.07.13.12.36.22.39l.9.27C87.9,9.38,88.05,9.21,88.18,9.14Z"/><path class="cls-1" d="M49,161.58c-.87.39-1,1-.55,1.91A1.28,1.28,0,0,0,49,161.58Z"/><path class="cls-1" d="M67.73,167.1c.88-.4,1-1,.55-1.91C67.38,165.69,67.21,166.29,67.73,167.1Z"/><path class="cls-1" d="M114.91,21.49a.7.7,0,0,0-.07-.89,1.33,1.33,0,0,0-1.2-.36.67.67,0,0,0-.53.72Z"/><path class="cls-1" d="M77.13,163.44l.09-.3a1,1,0,0,0-1.5-.45l-.09.31c.07.13.12.36.22.39l.9.26C76.85,163.68,77,163.51,77.13,163.44Z"/><path class="cls-1" d="M139.32,25.64c-.87.4-1,1-.54,1.91C139.68,27.05,139.85,26.45,139.32,25.64Z"/><path class="cls-1" d="M105.13,153.92a6.12,6.12,0,0,0-.38,1.31c0,.2.26.62.36.65a.68.68,0,0,0,.6-.58,2.53,2.53,0,0,0,0-.87C105.73,154.1,105.56,153.94,105.13,153.92Z"/><path class="cls-1" d="M144.74,33.24a6.87,6.87,0,0,0,1.3.38c.21.06.62-.25.65-.36a.69.69,0,0,0-.59-.6,2.41,2.41,0,0,0-.85,0A.55.55,0,0,0,144.74,33.24Z"/><path class="cls-1" d="M119.2,154c0-1-.19-1.25-1.27-1.25-.11,0-.26.14-.39.22s0,.23,0,.33.14.26.24.29Z"/><path class="cls-1" d="M118.94,155a5.9,5.9,0,0,0-1.3-.39c-.2-.06-.62.26-.65.36a.7.7,0,0,0,.59.6,2.46,2.46,0,0,0,.86,0A.54.54,0,0,0,118.94,155Z"/><path class="cls-1" d="M152.08,42.49c.06-1-.18-1.26-1.27-1.25-.1,0-.26.14-.39.21s0,.23,0,.33.14.26.24.29Z"/><path class="cls-1" d="M121.55,163.24c-.4-.88-1-1.06-1.9-.56C120.15,163.59,120.75,163.77,121.55,163.24Z"/><path class="cls-1" d="M158.49,41.32a6.44,6.44,0,0,0,.37-1.3c.06-.2-.26-.62-.36-.65-.33,0-.51.28-.6.58a2.79,2.79,0,0,0,0,.87C157.86,41.25,158.16,41.34,158.49,41.32Z"/><path class="cls-1" d="M129.54,156.55c.4.88,1,1,1.9.56C130.94,156.2,130.34,156,129.54,156.55Z"/><path class="cls-1" d="M137.82,148.09l.09-.31a1,1,0,0,0-1.5-.44l-.09.3c.07.13.11.36.21.39l.9.27C137.53,148.33,137.69,148.16,137.82,148.09Z"/><path class="cls-1" d="M141.44,146.43c-1-.07-1.24.17-1.23,1.27,0,.1.14.26.21.39s.23,0,.33,0,.26-.15.29-.24A7.64,7.64,0,0,0,141.44,146.43Z"/><path class="cls-1" d="M140.71,152.76c.4.88,1,1.05,1.91.56A1.28,1.28,0,0,0,140.71,152.76Z"/><path class="cls-1" d="M159,120.31a.69.69,0,0,0,.88-.06c.29-.25,0-.67-.62-.84l-.4-.12-.39.21c-.16.17-.12.4.13.69Z"/><path class="cls-1" d="M157.47,142.65a.69.69,0,0,0,.07.89c.24.29.66,0,.83-.62,0-.1.08-.3.11-.41l-.21-.38c-.17-.17-.4-.12-.69.12C157.45,142.32,157.5,142.55,157.47,142.65Z"/><path class="cls-1" d="M154.38,137.77a6.44,6.44,0,0,0-.37,1.3c-.06.2.26.63.36.65.33,0,.51-.28.6-.58a2.78,2.78,0,0,0,0-.87A.54.54,0,0,0,154.38,137.77Z"/><path class="cls-1" d="M164.85,130.87c.06.56,1.06.86,1.5.44a.2.2,0,0,0,.09-.3c-.06-.56-1.06-.86-1.5-.44C164.81,130.64,164.88,130.77,164.85,130.87Z"/><path class="cls-1" d="M162.77,142.69c.88-.4,1-1,.55-1.91C162.42,141.27,162.24,141.88,162.77,142.69Z"/><path class="cls-1" d="M174.3,141.07c.87-.39,1-1,.55-1.91C173.94,139.66,173.77,140.26,174.3,141.07Z"/><path class="cls-1" d="M89.63,163.74c-.88.4-1,1-.55,1.91C90,165.26,90.13,164.65,89.63,163.74Z"/><path class="cls-1" d="M178,103.56c-.4-.88-1-1-1.9-.56A1.27,1.27,0,0,0,178,103.56Z"/><path class="cls-1" d="M176.06,117.93c.17-.6,0-1.09-.37-1a.65.65,0,0,0-.53.72l-.12.4c.12.36.26.62.52.48s.35-.12.38-.22S176,118.13,176.06,117.93Z"/><path class="cls-1" d="M12.77,66.78q.25.24.69-.12l-.22-.39c-.17-.16-.4-.12-.68.12Z"/><path class="cls-1" d="M3.26,95.19c.16-.17.11-.4-.13-.69l-.39.21c-.15.18-.11.41.13.7Z"/><path class="cls-1" d="M3.21,99.54c-.73-.11-.86,0-1.16.64C2.75,100.39,2.78,100.29,3.21,99.54Z"/><path class="cls-1" d="M3.61,99.66c.1,0,.23,0,.38-.21a.42.42,0,0,0,.19-.28c-.11-.36-.28-.52-.54-.37s-.52.28-.4.64C3.18,99.64,3.48,99.73,3.61,99.66Z"/><path class="cls-1" d="M9.67,82.26c.36-.12.52-.29.47-.52l-.21-.39c-.36.11-.52.29-.47.52S9.6,82.13,9.67,82.26Z"/><path class="cls-1" d="M1.9,114c.15-.17.11-.4-.13-.69l-.39.21c-.15.18-.11.41.13.7Z"/><path class="cls-1" d="M7.31,97.7s.36-.11.39-.21a1,1,0,0,0-.26-.63c-.34-.31-.6-.17-.51.29A2.28,2.28,0,0,0,7.31,97.7Z"/><path class="cls-1" d="M10.86,90.24c0-.1,0-.23-.22-.39a.38.38,0,0,0-.27-.19c-.36.11-.51.28-.37.54s.28.52.64.41C10.74,90.64,10.8,90.44,10.86,90.24Z"/><path class="cls-1" d="M5.39,109.35c.1-.74,0-.87-.64-1.18C4.65,108.91,4.72,109,5.39,109.35Z"/><path class="cls-1" d="M4.16,110.62s.12.36.22.39.55-.06.61-.26c.32-.34.17-.6-.28-.52C4.51,110.17,4.32,110.44,4.16,110.62Z"/><path class="cls-1" d="M2.17,119.84,2,119.45c-.36.12-.52.29-.47.52l.21.39C2.16,120.28,2.22,120.07,2.17,119.84Z"/><path class="cls-1" d="M22.08,55.33l.38-.22c-.11-.36-.28-.52-.51-.47l-.39.21C21.68,55.21,21.85,55.37,22.08,55.33Z"/><path class="cls-1" d="M15.8,75.23c-.17-.16-.4-.12-.69.13l.22.39c.17.16.4.12.68-.13C16,75.52,15.87,75.36,15.8,75.23Z"/><path class="cls-1" d="M11.08,91.72s.36-.11.39-.21a1,1,0,0,0-.26-.62c-.34-.32-.6-.18-.51.28C10.67,91.27,10.91,91.56,11.08,91.72Z"/><path class="cls-1" d="M9.67,96.65c-.17-.16-.4-.12-.68.13l.21.39c.17.16.4.11.69-.13C9.92,96.94,9.75,96.78,9.67,96.65Z"/><path class="cls-1" d="M5.13,110.25c.73.11,1,0,1-.37a.66.66,0,0,0-.72-.53C5.31,109.65,5.22,110,5.13,110.25Z"/><path class="cls-1" d="M5.16,112.44q-.25-.24-.69.12l.22.39c.17.16.4.12.68-.12Z"/><path class="cls-1" d="M11.18,95.57c.16-.17.11-.4-.13-.69l-.39.21c-.15.17-.11.4.13.69Z"/><path class="cls-1" d="M21.4,63.25c.15-.17.11-.4-.13-.69l-.39.21c-.15.18-.11.41.13.7C21.11,63.5,21.27,63.32,21.4,63.25Z"/><path class="cls-1" d="M18.85,71.77l.39-.21c-.12-.36-.29-.52-.52-.48l-.38.21A.47.47,0,0,0,18.85,71.77Z"/><path class="cls-1" d="M16.72,79.21l.39-.21c-.11-.36-.29-.52-.51-.48l-.39.21A.47.47,0,0,0,16.72,79.21Z"/><path class="cls-1" d="M14.7,84.39s.11.36.21.39.56,0,.62-.25c.31-.34.17-.6-.29-.52A1,1,0,0,0,14.7,84.39Z"/><path class="cls-1" d="M25.53,51.82c-.17-.15-.4-.11-.68.13l.21.39c.17.16.4.12.69-.13C25.78,52.11,25.6,52,25.53,51.82Z"/><path class="cls-1" d="M23.59,62.05l.38-.22q-.16-.54-.51-.48l-.39.22C23.19,61.93,23.36,62.09,23.59,62.05Z"/><path class="cls-1" d="M9.12,112.63c-.17-.17-.4-.12-.69.12l.22.39c.17.16.4.12.68-.13Z"/><path class="cls-1" d="M8.06,114.82l.21.39c.36-.11.52-.28.47-.52l-.21-.38C8.17,114.42,8,114.59,8.06,114.82Z"/><path class="cls-1" d="M10.28,110.46l.21.39c.36-.11.52-.28.48-.52l-.22-.39C10.4,110.06,10.24,110.23,10.28,110.46Z"/><path class="cls-1" d="M29.77,47.62l.39-.21c-.12-.36-.29-.52-.52-.48l-.38.21C29.37,47.51,29.54,47.66,29.77,47.62Z"/><path class="cls-1" d="M10.66,112.54l.22.39c.35-.12.51-.29.47-.52l-.21-.39C10.78,112.13,10.62,112.31,10.66,112.54Z"/><path class="cls-1" d="M11.58,118l.39-.21c-.11-.36-.29-.52-.51-.48l-.39.21Q11.24,118.1,11.58,118Z"/><path class="cls-1" d="M41.64,30l-.39.21c.12.36.29.52.52.48l.38-.21A.44.44,0,0,0,41.64,30Z"/><path class="cls-1" d="M13.52,115.45c.16-.17.11-.4-.13-.69L13,115c-.15.17-.11.4.13.69Z"/><path class="cls-1" d="M42.7,23.27c-.16.17-.11.4.13.69l.38-.21q.24-.26-.12-.69Z"/><path class="cls-1" d="M16.5,112.62c-.73-.11-1,0-1,.37a.67.67,0,0,0,.72.54C16.32,113.22,16.41,112.92,16.5,112.62Z"/><path class="cls-1" d="M35.76,48.3c.16-.17.12-.4-.13-.69l-.38.21q-.24.26.12.69Z"/><path class="cls-1" d="M17.64,119.61s.12.36.22.39.55,0,.61-.25c.32-.35.17-.61-.28-.53C18,119.17,17.8,119.44,17.64,119.61Z"/><path class="cls-1" d="M50.58,19.47l-.21-.39q-.54.17-.48.51c.08.13.22.39.22.39C50.47,19.87,50.62,19.7,50.58,19.47Z"/><path class="cls-1" d="M45.49,26.42l-.39.21c.12.36.29.52.52.48L46,26.9A.48.48,0,0,0,45.49,26.42Z"/><path class="cls-1" d="M42.3,37.58l-.39.21c.12.36.29.52.52.48l.38-.21A.47.47,0,0,0,42.3,37.58Z"/><path class="cls-1" d="M47.7,24.07q.25.24.69-.12l-.21-.39c-.18-.16-.4-.12-.69.12C47.39,23.65,47.63,23.94,47.7,24.07Z"/><path class="cls-1" d="M20.3,127.37c.12.36.29.52.52.48l.38-.21q-.16-.54-.51-.48Z"/><path class="cls-1" d="M53.29,15.85q.16.54.51.48l.39-.21c-.12-.36-.29-.52-.52-.48S53.42,15.78,53.29,15.85Z"/><path class="cls-1" d="M51.55,22.32q-.24.25.12.69l.39-.22c.16-.17.11-.4-.13-.69C51.93,22.1,51.67,22.24,51.55,22.32Z"/><path class="cls-1" d="M60.15,9c-.17-.15-.4-.11-.68.13l.21.39q.26.24.69-.12Z"/><path class="cls-1" d="M55.09,14.09l-.39.22c.12.36.29.52.52.48l.38-.22Q55.44,14,55.09,14.09Z"/><path class="cls-1" d="M51.25,27.9c.36-.11.52-.29.47-.52L51.51,27c-.36.12-.52.29-.47.52Z"/><path class="cls-1" d="M23.08,125.25s.11.36.21.39.56-.06.62-.26c.31-.34.17-.6-.29-.52A1.14,1.14,0,0,0,23.08,125.25Z"/><path class="cls-1" d="M59,16.44l-.22-.39c-.36.11-.51.28-.47.51l.21.39Q59,16.79,59,16.44Z"/><path class="cls-1" d="M60.56,17.34l.39-.21c-.12-.36-.29-.52-.52-.48l-.38.21A.43.43,0,0,0,60.56,17.34Z"/><path class="cls-1" d="M64.07,14.56c.1,0,.23,0,.38-.21a.38.38,0,0,0,.19-.27c-.11-.36-.28-.52-.54-.38s-.52.28-.4.64A.63.63,0,0,0,64.07,14.56Z"/><path class="cls-1" d="M29.33,146.33c-.08-.13-.22-.39-.22-.39-.36.11-.51.29-.47.52l.21.39C29.21,146.73,29.37,146.56,29.33,146.33Z"/><path class="cls-1" d="M72.84,10.2l-.21-.39c-.36.11-.52.29-.48.52l.22.39C72.72,10.6,72.88,10.43,72.84,10.2Z"/><path class="cls-1" d="M31.71,146c-.15.17-.11.4.13.69l.39-.22c.16-.17.11-.4-.13-.69A.84.84,0,0,1,31.71,146Z"/><path class="cls-1" d="M68.2,14.91q-.26-.24-.69.12l.22.39c.17.16.4.12.68-.12Z"/><path class="cls-1" d="M24.43,141c.35-.11.51-.28.47-.51l-.21-.39q-.54.16-.48.51Z"/><path class="cls-1" d="M32.91,150.88l.38-.22q-.16-.54-.51-.48l-.39.22A.48.48,0,0,0,32.91,150.88Z"/><path class="cls-1" d="M34.24,140.86l.38-.21q-.16-.54-.51-.48l-.39.21C33.84,140.74,34,140.9,34.24,140.86Z"/><path class="cls-1" d="M72.21,17.94q.15,0,.39-.21a.38.38,0,0,0,.19-.27c-.12-.36-.29-.52-.55-.38s-.51.29-.4.65C71.81,17.83,72,17.89,72.21,17.94Z"/><path class="cls-1" d="M79.73,13.29c-.18-.16-.4-.12-.69.13l.21.39c.17.16.4.11.69-.13C80,13.58,79.8,13.42,79.73,13.29Z"/><path class="cls-1" d="M82.67,7.18l-.22-.39c-.35.11-.51.29-.47.52l.21.39A.48.48,0,0,0,82.67,7.18Z"/><path class="cls-1" d="M83.58,8.54c-.16.17-.12.4.13.69L84.09,9q.24-.25-.12-.69C84,8.23,83.71,8.47,83.58,8.54Z"/><path class="cls-1" d="M43.48,152.53l.21.39c.36-.11.52-.28.48-.52L44,152C43.6,152.13,43.44,152.3,43.48,152.53Z"/><path class="cls-1" d="M45.54,152.16l.21.39c.36-.12.52-.29.48-.52l-.22-.39C45.65,151.75,45.5,151.93,45.54,152.16Z"/><path class="cls-1" d="M85.24,17.53c.17.16.4.12.68-.12L85.71,17q-.25-.24-.69.12C85,17.25,85.17,17.4,85.24,17.53Z"/><path class="cls-1" d="M51.41,157.05c.17.16.4.12.68-.12l-.21-.4c-.17-.15-.4-.11-.69.13C51.07,156.73,51.34,156.92,51.41,157.05Z"/><path class="cls-1" d="M97.61,13.33c.36-.11.52-.28.47-.51l-.21-.39c-.36.11-.51.28-.47.51Z"/><path class="cls-1" d="M99.22,15.66l.39-.21c-.11-.36-.29-.52-.51-.48l-.39.21Q98.73,15.69,99.22,15.66Z"/><path class="cls-1" d="M102.73,13.64l.39-.21c-.12-.36-.29-.52-.52-.48l-.38.22C102.33,13.53,102.5,13.69,102.73,13.64Z"/><path class="cls-1" d="M107.24,11.92l.38-.21q-.16-.54-.51-.48l-.39.21C106.84,11.8,107,12,107.24,11.92Z"/><path class="cls-1" d="M64.31,160.86c.17.16.4.11.69-.13,0,0-.14-.26-.22-.39s-.4-.12-.68.13C64.07,160.57,64.24,160.73,64.31,160.86Z"/><path class="cls-1" d="M64,163.16q-.25-.24-.69.12l.22.39c.17.16.4.12.68-.12C64.22,163.45,64.05,163.29,64,163.16Z"/><path class="cls-1" d="M108.25,15.6c-.18-.16-.4-.12-.69.12l.21.39q.26.24.69-.12Z"/><path class="cls-1" d="M64,168.4c-.16.17-.12.4.13.69l.38-.21c.16-.18.12-.41-.12-.7Z"/><path class="cls-1" d="M108.81,18.17c0-.1,0-.24-.21-.39a.38.38,0,0,0-.27-.19c-.36.11-.52.28-.37.54s.28.52.64.41C108.8,18.6,108.88,18.3,108.81,18.17Z"/><path class="cls-1" d="M113,13.21q.17.54.51.48l.39-.21c-.12-.36-.29-.52-.52-.48S113.14,13,113,13.21Z"/><path class="cls-1" d="M109,19.65s.36-.11.39-.21a1.12,1.12,0,0,0-.26-.62c-.34-.32-.6-.18-.52.28C108.63,19.2,108.9,19.39,109,19.65Z"/><path class="cls-1" d="M122.33,20.19q0-.15-.21-.39a.38.38,0,0,0-.27-.19c-.36.12-.52.29-.37.55s.28.52.64.4A.57.57,0,0,0,122.33,20.19Z"/><path class="cls-1" d="M123.12,20.86l-.9-.27c-.1.74,0,.87.64,1.17C123,21.46,123,21.16,123.12,20.86Z"/><path class="cls-1" d="M123.52,21c.1,0,.23,0,.39-.22a.37.37,0,0,0,.18-.27c-.11-.36-.28-.52-.54-.38s-.51.29-.4.65A.63.63,0,0,0,123.52,21Z"/><path class="cls-1" d="M119.59,16c.16-.18.12-.41-.13-.7l-.38.22q-.24.26.12.69C119.3,16.23,119.46,16.06,119.59,16Z"/><path class="cls-1" d="M87.58,158c-.17-.15-.4-.11-.69.13l.22.39c.17.16.4.12.68-.13C87.82,158.3,87.65,158.15,87.58,158Z"/><path class="cls-1" d="M89.09,157.26c.09-.3.18-.6.26-.9-.73-.11-1,0-1,.37A.7.7,0,0,0,89.09,157.26Z"/><path class="cls-1" d="M89.46,158.24s.36-.11.39-.21-.06-.56-.25-.62c-.35-.32-.61-.18-.52.29A1,1,0,0,0,89.46,158.24Z"/><path class="cls-1" d="M91.37,158.8l.38-.21q-.16-.54-.51-.48l-.39.22C91,158.69,91.14,158.85,91.37,158.8Z"/><path class="cls-1" d="M131.44,22.11l.38-.21q-.16-.54-.51-.48l-.38.22C131,22,131.21,22.16,131.44,22.11Z"/><path class="cls-1" d="M93.42,158.43s.36-.11.39-.21,0-.56-.25-.62c-.35-.32-.61-.18-.52.28A1,1,0,0,0,93.42,158.43Z"/><path class="cls-1" d="M134.84,21.59l-.21-.39c-.36.11-.52.29-.47.52l.21.39C134.73,22,134.88,21.82,134.84,21.59Z"/><path class="cls-1" d="M136.48,24.58q.26.24.69-.12l-.22-.39c-.17-.16-.4-.12-.68.12C136.24,24.29,136.41,24.45,136.48,24.58Z"/><path class="cls-1" d="M137.39,28.23l-.39.21c.12.37.29.53.52.48l.38-.21A.44.44,0,0,0,137.39,28.23Z"/><path class="cls-1" d="M141,24.72c.16-.17.11-.41-.13-.7l-.38.22q-.24.26.12.69C140.58,25,140.87,24.79,141,24.72Z"/><path class="cls-1" d="M103.05,156.26s.36-.12.39-.22a1.12,1.12,0,0,0-.26-.62c-.34-.32-.6-.18-.51.29A6.57,6.57,0,0,1,103.05,156.26Z"/><path class="cls-1" d="M102.11,166c.17.16.39.12.68-.13l-.21-.39c-.17-.16-.4-.11-.69.13C101.79,165.59,101.93,165.85,102.11,166Z"/><path class="cls-1" d="M101.8,168.21q-.26-.24-.69.12l.22.39c.17.16.4.12.68-.12Z"/><path class="cls-1" d="M107.15,159.75c-.17-.15-.4-.11-.69.13l.22.39c.17.16.4.12.68-.13C107.49,160.07,107.22,159.88,107.15,159.75Z"/><path class="cls-1" d="M145.7,29.16c.15-.18.11-.41-.13-.7l-.39.22c-.16.17-.11.4.13.69C145.41,29.4,145.57,29.23,145.7,29.16Z"/><path class="cls-1" d="M108.78,157.84l.39-.22c-.12-.36-.29-.52-.52-.47l-.38.21A.47.47,0,0,0,108.78,157.84Z"/><path class="cls-1" d="M116.12,153s.36-.11.39-.21-.06-.56-.26-.62c-.34-.32-.6-.18-.51.29C115.71,152.57,116,152.87,116.12,153Z"/><path class="cls-1" d="M114.34,160l-.21-.39c-.36.11-.52.29-.48.52l.22.39C114.22,160.42,114.38,160.25,114.34,160Z"/><path class="cls-1" d="M116.69,157.12c.17.16.4.12.69-.13l-.22-.39c-.17-.16-.4-.12-.69.13C116.45,156.83,116.62,157,116.69,157.12Z"/><path class="cls-1" d="M113.75,168.9l-.21-.39c-.36.11-.52.28-.47.51l.21.39C113.64,169.3,113.79,169.13,113.75,168.9Z"/><path class="cls-1" d="M119.2,154c-.09.3-.18.6-.26.91.73.1,1,0,1-.37A.66.66,0,0,0,119.2,154Z"/><path class="cls-1" d="M119.1,157.39l-.21-.39c-.36.12-.51.29-.47.52l.21.39C119,157.79,119.15,157.62,119.1,157.39Z"/><path class="cls-1" d="M155.29,40.38c.35-.11.51-.28.47-.51l-.22-.39c-.35.11-.51.28-.47.51S155.21,40.25,155.29,40.38Z"/><path class="cls-1" d="M158.36,37.58l-.21-.39c-.36.11-.52.29-.47.52l.21.39A.46.46,0,0,0,158.36,37.58Z"/><path class="cls-1" d="M158.83,42.41s.35-.12.38-.22-.05-.56-.25-.62c-.35-.32-.6-.17-.52.29C158.41,42,158.66,42.25,158.83,42.41Z"/><path class="cls-1" d="M129.74,148.65q0-.17-.21-.39a.38.38,0,0,0-.27-.19c-.36.11-.52.28-.38.54s.29.52.65.41A.25.25,0,0,0,129.74,148.65Z"/><path class="cls-1" d="M159.82,46.52c.16-.18.12-.41-.13-.7l-.38.22q-.24.26.12.69C159.54,46.76,159.69,46.59,159.82,46.52Z"/><path class="cls-1" d="M130,150s.35-.11.38-.21a1,1,0,0,0-.25-.62c-.35-.32-.6-.18-.52.28A1.06,1.06,0,0,0,130,150Z"/><path class="cls-1" d="M159.75,48.67c.17.16.4.12.68-.12l-.21-.39q-.25-.24-.69.12S159.67,48.54,159.75,48.67Z"/><path class="cls-1" d="M136.12,150.63c.15-.17.11-.4-.13-.69l-.39.22c-.16.17-.11.4.13.69Z"/><path class="cls-1" d="M162.72,58.38s.11.36.21.39.56-.05.62-.25c.31-.34.17-.6-.29-.52C163.16,58,162.88,58.21,162.72,58.38Z"/><path class="cls-1" d="M165,57.41c-.73-.11-.86,0-1.16.64C164.52,58.15,164.65,58.08,165,57.41Z"/><path class="cls-1" d="M165.35,57.53c.1,0,.23-.05.39-.22a.37.37,0,0,0,.18-.27c-.11-.36-.28-.52-.54-.38s-.51.29-.4.65C165,57.41,165.25,57.5,165.35,57.53Z"/><path class="cls-1" d="M164.29,61.25c.1,0,.22,0,.38-.22a.38.38,0,0,0,.19-.27c-.12-.36-.29-.52-.54-.38s-.52.29-.41.65C163.86,61.23,164.19,61.22,164.29,61.25Z"/><path class="cls-1" d="M139.26,158.21c-.16.18-.11.41.13.7l.39-.22c.15-.17.11-.4-.13-.69Z"/><path class="cls-1" d="M140.53,162.51c-.17-.16-.4-.11-.69.13l.21.39c.18.16.41.12.69-.13C140.77,162.8,140.6,162.64,140.53,162.51Z"/><path class="cls-1" d="M171.22,62.42q-.25-.24-.69.12l.21.39q.27.24.69-.12Z"/><path class="cls-1" d="M152.12,128.42c.36-.11.52-.28.47-.51l-.21-.39c-.36.11-.51.28-.47.51S152.08,128.19,152.12,128.42Z"/><path class="cls-1" d="M145.45,152.52l.38-.22q-.17-.54-.51-.48l-.39.22C145.05,152.4,145.22,152.56,145.45,152.52Z"/><path class="cls-1" d="M145.09,161.35c.16-.17.12-.4-.13-.69l-.38.21c-.16.17-.12.4.12.7Z"/><path class="cls-1" d="M168.57,80.39l.22.39c.35-.11.51-.28.47-.51l-.22-.39C168.69,80,168.53,80.16,168.57,80.39Z"/><path class="cls-1" d="M148,153.25c.17.16.4.12.68-.12l-.21-.39c-.17-.16-.4-.12-.68.12C147.63,152.83,147.88,153.12,148,153.25Z"/><path class="cls-1" d="M167.65,90q0-.15-.21-.39a.37.37,0,0,0-.27-.18c-.36.11-.52.28-.37.54s.28.52.64.41C167.54,90.45,167.6,90.25,167.65,90Z"/><path class="cls-1" d="M167.88,91.53s.36-.11.39-.21a1,1,0,0,0-.26-.62c-.34-.32-.6-.18-.51.28C167.47,91.08,167.71,91.37,167.88,91.53Z"/><path class="cls-1" d="M157.6,125.57s.12.36.22.39a1,1,0,0,0,.61-.25c.32-.35.17-.61-.28-.52C158,125.13,157.76,125.4,157.6,125.57Z"/><path class="cls-1" d="M150.05,152.35c-.16.17-.11.4.13.69l.39-.21c.15-.18.11-.41-.13-.7C150.34,152.1,150.18,152.28,150.05,152.35Z"/><path class="cls-1" d="M151.71,150.33q.25.24.69-.12l-.21-.39c-.18-.16-.4-.12-.69.12Z"/><path class="cls-1" d="M148.18,162.7l-.39.21q.17.54.51.48l.39-.21A.47.47,0,0,0,148.18,162.7Z"/><path class="cls-1" d="M150.76,157.46l-.39.22c.12.36.29.52.52.47l.38-.21Q151.1,157.4,150.76,157.46Z"/><path class="cls-1" d="M165.23,112.56c0-.1,0-.24-.21-.39a.36.36,0,0,0-.28-.19c-.35.11-.51.28-.37.54s.29.52.64.41C165.12,113,165.17,112.76,165.23,112.56Z"/><path class="cls-1" d="M149.31,167.07c-.17-.16-.4-.12-.68.12l.21.39q.25.24.69-.12Z"/><path class="cls-1" d="M152.08,160.8c-.17-.16-.4-.12-.68.12l.21.39q.25.24.69-.12A.84.84,0,0,1,152.08,160.8Z"/><path class="cls-1" d="M149.41,170.15q-.25-.24-.69.12l.21.39q.27.24.69-.12Z"/><path class="cls-1" d="M163.11,125.67c-.18-.16-.4-.12-.69.12l.21.39q.26.24.69-.12C163.42,126.09,163.25,125.93,163.11,125.67Z"/><path class="cls-1" d="M165.42,119.48c-.16.17-.12.4.13.69l.38-.21c.16-.17.12-.4-.13-.69Z"/><path class="cls-1" d="M159.48,144.34c.36-.12.52-.29.47-.52l-.21-.39c-.36.11-.52.28-.47.52S159.44,144.1,159.48,144.34Z"/><path class="cls-1" d="M158.61,156.18c.16-.17.12-.4-.13-.69l-.38.21q-.24.26.12.69Z"/><path class="cls-1" d="M155.52,164.32s.12.36.22.39a1,1,0,0,0,.61-.25c.32-.35.17-.61-.28-.52A2.28,2.28,0,0,0,155.52,164.32Z"/><path class="cls-1" d="M171.37,70.22c-.17-.16-.4-.11-.69.13l.22.39c.17.16.4.12.69-.13Z"/><path class="cls-1" d="M171.6,113.78l.39-.21q-.17-.54-.51-.48l-.39.21C171.2,113.66,171.38,113.82,171.6,113.78Z"/><path class="cls-1" d="M157,164.1c.11,0,.23,0,.39-.21a.38.38,0,0,0,.19-.27c-.12-.36-.29-.52-.55-.38s-.51.28-.4.64C156.57,164.08,156.77,164.14,157,164.1Z"/><path class="cls-1" d="M152.56,136.57l-.22-.39c-.35.12-.51.29-.47.52l.21.39C152.44,137,152.6,136.8,152.56,136.57Z"/><path class="cls-1" d="M161.6,161.64l-.38.22q.17.54.51.48l.39-.22C162,161.76,161.83,161.6,161.6,161.64Z"/><path class="cls-1" d="M161.82,165.42l.39-.22c-.11-.36-.28-.52-.51-.47l-.39.21Q161.49,165.48,161.82,165.42Z"/><path class="cls-1" d="M158,134.68l.39-.21c-.12-.36-.29-.52-.52-.48l-.39.22A.46.46,0,0,0,158,134.68Z"/><path class="cls-1" d="M157.51,138.58c.18.16.4.12.69-.12l-.21-.39q-.26-.24-.69.12Z"/><path class="cls-1" d="M178.8,79.05c-.15.17-.11.4.13.69l.39-.21c.16-.17.11-.4-.13-.69Z"/><path class="cls-1" d="M163.27,137.93q-.26-.24-.69.12l.21.39q.26.24.69-.12Z"/><path class="cls-1" d="M183.8,124.25c.15-.17.11-.4-.13-.69l-.39.21c-.15.17-.11.4.13.69C183.51,124.49,183.67,124.32,183.8,124.25Z"/><path class="cls-1" d="M180.45,135.58l.38-.21q-.17-.54-.51-.48l-.39.21C180.05,135.46,180.22,135.62,180.45,135.58Z"/><path class="cls-1" d="M171,128.76l.38-.22q-.17-.54-.51-.48l-.39.22C170.46,128.71,170.66,128.77,171,128.76Z"/><path class="cls-1" d="M179,97.19l-.21-.39c-.36.12-.52.29-.47.52l.21.39A.43.43,0,0,0,179,97.19Z"/><path class="cls-1" d="M181.11,98.38c.17.16.4.11.69-.13l-.22-.39c-.17-.16-.4-.12-.68.13Z"/><path class="cls-1" d="M181.85,101.1l-.22-.39c-.35.11-.51.29-.47.52l.22.39C181.73,101.5,181.89,101.33,181.85,101.1Z"/><path class="cls-1" d="M169.13,47l-.22-.39c-.35.11-.51.29-.47.52l.21.39A.45.45,0,0,0,169.13,47Z"/><path class="cls-1" d="M174.3,108.14c-.16.18-.11.41.13.7l.39-.22c.15-.17.11-.4-.13-.69C174.72,107.83,174.43,108.07,174.3,108.14Z"/><path class="cls-1" d="M176.67,127.49c.17.16.4.12.68-.13l-.21-.39c-.17-.16-.4-.12-.69.13C176.35,127.07,176.59,127.36,176.67,127.49Z"/><path class="cls-1" d="M176,120.75l.39-.21c-.12-.36-.29-.52-.52-.48l-.38.21C175.48,120.7,175.68,120.76,176,120.75Z"/><path class="cls-1" d="M170.68,120.05l.39-.21c-.12-.36-.29-.52-.52-.48l-.39.21C170.28,119.93,170.45,120.09,170.68,120.05Z"/><path class="cls-1" d="M175.06,66.82c-.18-.16-.4-.12-.69.13l.21.39c.18.16.4.11.69-.13Z"/><path class="cls-1" d="M154.5,137.36q0-.15-.21-.39a.39.39,0,0,0-.28-.18c-.35.11-.51.28-.37.54s.29.52.65.41C154.38,137.77,154.47,137.46,154.5,137.36Z"/><path class="cls-1" d="M161.77,87c4.58,43.81-32.05,76.66-68.69,70.4S18.57,133.4,24.39,87s21-62.43,62.33-71.09S157.19,43.16,161.77,87Z"/><path class="cls-2" d="M152.89,37.4c-.6.92-1.47.49-2.78-.62v0l-.24-.37a21.93,21.93,0,0,0-.69-2.37c-.67-1-1.71-1.07-2.94-2.63A65.6,65.6,0,0,0,136.3,21.1a48.82,48.82,0,0,0-12.45-7c-1.88-.74-3.52-1.28-4.67-1.63-.58-.18-1-.31-1.35-.39l-.35-.09-.08,0h0A1.91,1.91,0,0,1,116,9.63,2.55,2.55,0,0,1,119,8.36c.34.09,2.46,1.36,3.08,1.55,1.24.37,3.25,2,5.26,2.79,4,1.57,5,.94,9.4,4.47s9.38,8.12,11.94,11.37c1.29,1.64,3.09,3.5,3.79,4.51.35.51.63.92.81,1.2C154,35.35,153.65,36.22,152.89,37.4Z"/><path class="cls-2" d="M54,19.47c.89.64.42,1.49-.76,2.74h0l-.38.22a22.4,22.4,0,0,0-2.41.57c-1,.61-1.15,1.65-2.77,2.8A65.82,65.82,0,0,0,36.83,35.2a48.77,48.77,0,0,0-7.59,12.07c-.84,1.85-1.46,3.45-1.87,4.59-.2.57-.36,1-.46,1.32s-.08.27-.11.35l0,.08v0h0a1.9,1.9,0,0,1-2.44,1.29,2.54,2.54,0,0,1-1.12-3.11c.12-.34,1.49-2.39,1.71-3,.44-1.22,2.16-3.15,3.06-5.11,1.77-3.9,1.19-5,4.94-9.16a87.45,87.45,0,0,1,12-11.35c1.7-1.2,3.65-2.9,4.7-3.55.52-.33.95-.58,1.24-.75C52,18.23,52.82,18.65,54,19.47Z"/><path class="cls-2" d="M36.94,146.07c-1-.64-1.13-1.66-2.76-2.85a68.93,68.93,0,0,1-10.75-9.6c-1.48-1.69-4.1-1.24-3.15-.17,3.67,4.18,7.71,9.74,11.1,12.21,1.7,1.24,3.64,3,4.69,3.66.53.34,1,.61,1.24.78C41.42,152.61,40.23,148.18,36.94,146.07Z"/></svg>