<svg id="Layer_1" data-name="Layer 1" xmlns="http://www.w3.org/2000/svg" viewBox="0 0 414 429"><defs><style>.cls-1{fill:#f4decc;}</style></defs><path class="cls-1" d="M284.84,61c-1-1.33-1.85-2-1.51-2.67.81-2.13,1.84-4.15,2.42-5.84,1.49-1.8,3.63,1.19,3.62-2.72,0,0-1.88-.07-2.23-1.07,1.61-1.46-.23-1.24,1.5-2.93-.47-1.34-2.46,1.63-2.93.29a9,9,0,0,1-1.93-1.65c-.93-1-6.14,3.09-5.34,2.08.92-1.8-6.72-.24-5.8-2,.34-.68,2.55-.63,2.9-1.31-.24-.67-.47-1.34-.82-2.34.58-1.13-10,2.77-9.05,1,.7-.23,1.85-.79,2.89-1.13.58-2.25-3.36-1.89-2.67-4.92,2.88-5.61,2.51,3.44,5.62-2.62,1-.34-2.24-2.74-1.2-3.09.69-1.34,3.09,1.2,3.66.08-.23-1.23-1.81-2-2.16-3,4.28-1.59-3.3.2-4.82-4.16-2.06-1.39-2.25,3.53-4.95,6.47-.69.23-1.24-3.55-2.27-3.21-.12.22-2.06-.15-4.28,1.48-4.28,3.84-3.4,7.6-2.17,10.42.11.89.46,1.9.7,3.13-.7.23-1.27.79-1.73.57A17.26,17.26,0,0,1,249,40.23a2.19,2.19,0,0,0-2.43.23l-2.18,4.27c-.23,2.13,3.36,1.88,3,4.24-.34.11-.8.45-1,.34-2.2-.78-4.28-1.77-6.48-2.55-.58-1.11-.93-2.12-1.51-3.23a7.45,7.45,0,0,1-2-1.22,21.78,21.78,0,0,0-1.28-3.13c-2.2-.21-2,3.25-4.39,2.93-.12-.33-.23-.67-.35-1a3.83,3.83,0,0,0-.93-1.57,1.75,1.75,0,0,0-1.73,1.13,1.61,1.61,0,0,1-1.62,1.46c-.58,0-.93-.44-1.28-1.44-.23-1.23-1-1.9-3-2.56-1.62.9-3.58,1.92-5.08,2.6l-7.42-3.55c-.69-.89-.58-1.67.11-1.9L213.28,34c.69.33,2,.66,2.89,1.1,1.16.56-1.62-.21-.35-1-.35-1,.46-.9.11-1.91.47-.89,1.32-1,.39-2.61a30.71,30.71,0,0,1-3.86.95c-.47-1.34-4.74.81-5.21-.53.69-1.35-.1-4.21.7-5.78-6.85,2.87-7.48,4.77-6.32,4.21-1.74.85-4.39.42-2.31-3.62,1-.34-1.2-.37-3.27.95.69-1.34-4.37,3.1-3.68,1.76-2-3.2,6.5-4.55,2.6-5.07.11.9-1.12-2.21-.89-1-.57,1.12-3.27-1.75-4-.4.23,1.23-3.36,1.09-2.9,2.43-1,2-2.43-2.56-3.47-.54-1,.34-.25,2.17-1.29,2.51-1.72,3.37-.8-5.75-2.53-2.38-1.15.56-.45,3.13-1.84,3.59-2.53,4.94,2.32,2.79-.1,7.5-1.38,1-2.31,0-3.58-.32a22.75,22.75,0,0,0-1.28-3.13c-.12-.33-.7-.33-1.16-.55-.58,1.12-1,2-1.61,3.14a21.51,21.51,0,0,1,.93,3.24,18.13,18.13,0,0,0-2.89,1.14,22.72,22.72,0,0,0,.94,3.24c-1.62,2.58-1.73,2.81-4.51,1.48-.7-2-1.63-4.14-2.33-6.15-.12-.33-.7-.33-.93-.44-.58,1.12-1,2-1.61,3.14a43,43,0,0,0-4.51,1.48,12,12,0,0,0-3.93-.2c.23.67.46,1.34.7,2s-.23,1-1.27,1.35a8.44,8.44,0,0,0-2,1c-.57,1.13-1.49,2.36-2.42,1.92s-.12-2,.11-3c.23-.45-.24-1.79-.59-1.68A1.74,1.74,0,0,0,144.35,43c-1.27,1.91-1.5,1.8-3.7,1-.23-.11-.81-.11-1-.22l-4.51,1.48c-.34.11-.34.67-.46.89a1.71,1.71,0,0,1,1.51,1.56c.12.9-.81,1-3,.24l.47.22a1.57,1.57,0,0,1-1.27,1.35c-.7.23-1.16,0-1.16-1.11.11-.22.46-.34.58-.56a2.74,2.74,0,0,1,1.5-.12,3.79,3.79,0,0,0,1.5-1.8,15.14,15.14,0,0,0-3-1.44,2,2,0,0,0-1.85.79,40.41,40.41,0,0,0-2.54,4.94,1.68,1.68,0,0,1,1.51,1.56c.12.89-.8,1-2.54.46-.58,1.12-1,2-1.61,3.14-1.39.46-3,.8-4.74,1.37L114.19,54a8.74,8.74,0,0,0-5.32,1.93c.58,2.24,3.36,1.89,4.4,3.22a27.25,27.25,0,0,1,3.7-1l2.09,1c.7,2.58,1.75,5,2.45,7.6-.7.23-1.51.68-2,.46-3.59-1.44-7.06-3.1-10.54-4.76-.23-.11-.69.23-1,.34a21.51,21.51,0,0,1,.93,3.24c.12.34-.34.68-.46.9a1.7,1.7,0,0,1,1.51,1.56c.12.9-.8,1-2.54.46l-1,2,3,1.44c.23.11.34.45.46.78s.23.67-.11.79-.81.45-1,.34c-2.66-.44-3.12-1.22-2.55-3.46a1.67,1.67,0,0,0-2.2-.21c-1.27.79-1.38,2.69-3.35,2.59l-1.85-.89a17.76,17.76,0,0,0-1.39-2.9c-1.74,0-1.85,1.35-2.54,2.7.46,1.34,1.16,2.79,1.86,4.8.7.9,3.13.66,4.17,2.56.12.33.24.67.12.89a1.18,1.18,0,0,1-1,.34,8.18,8.18,0,0,1-2.43-.88,41.82,41.82,0,0,1-4.39,1.25c-1.74,1.69-2.31,3.93-3.58,5.84-1.5,1.24-3.35,1.47-4.73,1.93-1.62-.22-2.67-.44-4-.54.81,2.35,1.4,4.58,2.09,6.59l-5.54,1.82a1.09,1.09,0,0,0,0,1.68c.12.34.7.33,1.16.55A1.6,1.6,0,0,1,80,100.52c-.12.79-1.39,1-2.78.35l-3.24-1.55a7.47,7.47,0,0,0-2.2-.77L67.22,100c.12,2.57,2.9,2.22,4.29,3.45.23.67.81,1.22,1,1.9,1,2.45,1.74,5,2.68,7.7.35,1,.46,1.35-.11,1.91a1.79,1.79,0,0,1-2.2-.21l-.93-.45A6.07,6.07,0,0,0,68.75,110c-.23-.67-.47-1.34-.82-2.34a7.92,7.92,0,0,0-4.86-2.33c-.35.12-1.16,0-1.27.23l-2.65,5.16,2.08,1a1.59,1.59,0,0,1,1.51,1.56c0,.56-.69.79-1.73,1.13l-1,.34c-.69,2.46,3,2,2.79,4.13a24.66,24.66,0,0,0-3.24,1.24l-4.72,9.21a1.69,1.69,0,0,1,1.51,1.56,3.18,3.18,0,0,1-1.38,2.69,1.68,1.68,0,0,1-2.2-.21c-.12.22-.58.56-.46.89a43.71,43.71,0,0,0,1.63,4.7c.12.33.7.33.93.44l1.49-2.92c2.08-.68,2.08-.68,3.13.1,1.39.66,1.39,1.22.93,2.68A3,3,0,0,1,58,141.15l-3-1.44c-.23.45-.22,1-.57,1.13a23.45,23.45,0,0,0-3.24,1.25c.59,1.67,1,3,1.52,4.35a24.12,24.12,0,0,1,3.35-.91c.7,1.45.47,3-1.26,3.59a8.08,8.08,0,0,0-3.58,2.48c-.46.9-2,1-3,.24a2.2,2.2,0,0,0-2.43.23l-3,5.84a1.1,1.1,0,0,0,.93,1.56c.23.11.69-.23,1-.34l2.07-4c2.31-.57,2.31-.57,6.25,1.87.7.89.35,1.57-.69,1.35-.81-.11-1.39-.67-2.31-.55a4.13,4.13,0,0,0-2,.46,1.68,1.68,0,0,0,1.16,1.67c2.32,1.67,2.32,1.67,1.4,3.46l-1.5,2.92-1.38.46c-2.55,1-2.89,1.69-2.42,4.15.11.89.46,1.34-.11,1.9a2.19,2.19,0,0,1-2.2-.21c-1.39-.66-2.09-.44-3,.8a2.29,2.29,0,0,0,.13,3.13c.58.56,1.39.67,2,1.22.24.12.24.68.59,1.12l-2.19,4.26a9.92,9.92,0,0,1-3.12,1c-.23,2.13,3.24,2.11,3,4.24l-1,2c-1.85,1.35-3.59-1.44-5.32.25.93,2.68,1.75,5,2.68,7.71l3.24,1.55a1.33,1.33,0,0,1,1.5-1.24c.35-1.23,1-.9,1.51-.68a1.68,1.68,0,0,1,1.16,1.67,2.17,2.17,0,0,1-1.74.57,15.14,15.14,0,0,1-3-1.44c-.23.45-.23,1-.57,1.12a23.45,23.45,0,0,1-3.24,1.25c-1.15,2.25-2.19,4.26-3.22,6.28.11.34.23,1.23.35,1,.69-.23,1.5-.12,1.73-.57A15.85,15.85,0,0,0,36,204.73a1.76,1.76,0,0,1,1.74-1.13c1.5,1,3.82,1,4.75,3.11-1.73,1.69-4,1.7-6.24,2.61a21.18,21.18,0,0,1,.93,3.24l-1.61,3.14,3,1.44c.23.11.35.45.47.78s.23.67-.12.79-.81.45-1,.34c-2.66-.44-3.13-1.22-2.55-3.46-.81-.67-1.62-.77-2.2-.21-1.27,1.35-2.42,3-4.74,3l-1.49,2.92a2,2,0,0,0-.23,2.13A2.77,2.77,0,0,0,29.37,225c2-.45,3.81-1.25,5.78-1.7.23.67.81,1.22.58,1.67a23.88,23.88,0,0,1-2,3.82c-1.15.56-2.77.35-3.12,1.58-.23,1.57,1.51,1.56,2.44,2,1-.34,2.31-.57,3.35-.91.58,1.67,1.05,3,1.51,4.36a4.81,4.81,0,0,1-2.19.34,16.93,16.93,0,0,1-3.25-1.55c-.46-.22-1.27.23-2.19.35.46,1.34,1.05,3,1.51,4.36a7,7,0,0,1,2,1.22,22.75,22.75,0,0,0,1.28,3.13,5.16,5.16,0,0,0,2.43.32c.81.11.24.67-.34.67-1.16,0-1.39-.66-.47-1.34a2.62,2.62,0,0,1,1.62-.34s.46.78-.81,1c-1.38.45-1.38,1-1.73,1.13l-3.12,1c.35,1,.58,2.24.82,2.91a24.05,24.05,0,0,1-3,1.36c.82,2.34,3.25,2.11,4.87,3.44a36.23,36.23,0,0,1,1.28,4.25c-1.15,1.12-3.81.69-4,3.38l1.05,3a24.16,24.16,0,0,0-3.23,1.25c-.46.9-1.62,2-.46,3.14.81.66,1.85-.24,3.12-.47,1.86,1.45-1.14,3.37.25,5.15l2.55,1.22c1.85-.79,3.81-1.81,5.54-2.38a9,9,0,0,1,2.44,1.44,17.88,17.88,0,0,0,1.39,2.91l4.51-1.48c.35-.12.35-.68.46-.9a1.31,1.31,0,0,1-1.28-1.45c0-.56.35-1.23.46-2a1.73,1.73,0,0,1,1.73-1.12c.24.11.82,1.22.59,1.67a14.14,14.14,0,0,1-1.5,2.92,1.83,1.83,0,0,1,1.4,2.34,12.11,12.11,0,0,1-1.39,2.7l3,1.44c.23.11.34.44.46.78s.23.67-.11.78-.81.45-1,.34c-2.67-.43-3.13-1.21-2.56-3.45-.46-.23-.81-.67-1.16-.56a44.82,44.82,0,0,0-4.5,1.48c.23.67.12,1.45.58,1.68a17.81,17.81,0,0,0,3.24,1.55,1.65,1.65,0,0,1,1.16,1.67c-1,.34-2.19.91-3.23,1.25.58,2.23,3.82,2.66,3.6,5.35,1-.34,2.31-.57,3.35-.91l4.17,2c.35,1,.93,2.12,1.28,3.13l9.73,4.65c.7.33,1.51,1,1.16,1.67a2.15,2.15,0,0,1-1.73.57c-1-.22-2.09-1-3.36-.2a45.42,45.42,0,0,0,1.86,4.24A9.48,9.48,0,0,1,69,306.3c1.74,1.68-1.14,3.37.25,5.15l4.4,2.11c.35,1.56.35,1.56-2.54,2.7.47,1.34.94,2.68,1.4,4,2.09,2.11,4.87,2.32,6.72,3.77l3.12-1c2.55,1.21,5.45,2.32,8.11,3.87,1.16.56,1,1.9.24,2.91a1.43,1.43,0,0,0-.23,1c.23.67.47,1.34.82,2.35a7.78,7.78,0,0,1-.46,2c-.69,1.35-1.85,2.47-.8,4.37l2.08,1c2.32-.57,4.05-1.7,6.59-1.6.82,1.23-.22,2.13-.56,3.36.46,1.34,1.16,2.79,1.74,4.47l3.94,1.88c.58,1.12.93,2.12,1.51,3.24a23.9,23.9,0,0,1,3.36-.91l3.24,1.55,1.49-2.92c.12-.23.47-.34.81-.45s.7-.23.81.1.47.79.35,1c-.45,2.58-1.26,3-3.58,2.48l-1,2a1.55,1.55,0,0,0-.23,2.13c.35.45,1,.22,2.08-.12l1-.34a6.2,6.2,0,0,1,1.63,4.13c.24,1.23-.22,2.69-.45,4.25a20.33,20.33,0,0,1,3.35-.91,17.38,17.38,0,0,0,1.4,2.9l5.89-1.93c1,.78.82,1.79.36,2.69a2.17,2.17,0,0,0,0,2.23,7.55,7.55,0,0,1,2,1.23c2.08-.69,4.39-1.26,6.47-1.94.81,1.23,0,2.24-.22,3.25a2.21,2.21,0,0,0,.69,2,59.46,59.46,0,0,0,6,2.88c4.16-1.37,4.16-1.37,5.9,1.42-.23,1-1.61,2-.68,3,.81.67,2.08-.68,3-.24a14.22,14.22,0,0,1,7.07,3.66c.35,1.56-.92,2.91-1.61,4.26a1.62,1.62,0,0,0,.12,2,4.15,4.15,0,0,0,1.85-.79c.58-.56.92-1.24,1.5-1.8.11-.22.69-.23,1-.34l3.24,1.55a1.92,1.92,0,0,1,2.43-1.36,22.21,22.21,0,0,0,4.28,1.21c.81.11.24.67-.34.68-1.16,0-1.39-.67-.47-1.34a2.7,2.7,0,0,1,1.62-.35s.46.78-.81,1a22,22,0,0,0-4.49,6.52l3.47,1.66c1.85-.79,3.82-1.81,5-2.38a24.45,24.45,0,0,0,4.17.88c.81.11,1.38-.46,1.73-1.69.11-.23-.23.45-.23.45a1.58,1.58,0,0,1-1.39-1.22c-.24-.68,0-1.12,1.15-1.13.23.11.35.45.58.56A2.57,2.57,0,0,1,179,395a2.81,2.81,0,0,1,1.28,2c.12,1.45-1.38,2.69-.11,4.14l4.17,2c1-.34,2.32-.57,3.36-.91l2.08,1c1.85-.23,2.19-2,2.88-3.37.58-1.13,1.16-1.69,2.31-1.7.12.34.47.79.35,1a27,27,0,0,1-1.84,4.15c-.46.9.47,1.9,1.63,2.46a2.4,2.4,0,0,0,2.31,0c-.35-1-.47-1.9-.81-2.9a6.81,6.81,0,0,1,2-.46,52.81,52.81,0,0,1,5.79,2.77c.7,2,1.17,3.35,1.63,4.69L204.42,413c1.51,1,1.74,1.67,1.28,2.57-.46,1.46-1.38,2.69-1.61,4.26-.11.79.47,1.34,1.51,1.56,1.27-2.47,2.42-4.71,3.68-7.18a1.16,1.16,0,0,1,1.85-.23,1.07,1.07,0,0,1,.35,1c-.34.68-.69,1.35-1,2,.23.67.58,1.68,1,1.9,1.63.78,3.13,2.33,5.33,1.43a21.51,21.51,0,0,1-.93-3.24c.34-.68.69-1.35,1-2,.11-1.91-2.09-2.12-2.67-3.24a1.54,1.54,0,0,1,.23-2.12l-3-1.44c-.23-.11-.35-.45-.47-.79s-.23-.66.12-.78.8-.45,1-.34c2.66.43,3.12,1.21,2.55,3.46.46.22.81.66,1.16.55a40.44,40.44,0,0,0,4.51-1.48c.34-.67.92-1.23,1.26-1.91a22.38,22.38,0,0,1-.93-3.24c1.62-.9,2.78-.35,3.82,1,.58.56.35,1.56.93,2.12.47.78,2.09,1.56,2.9,1.11a2,2,0,0,0,1.38-1.58,2.25,2.25,0,0,0,.11-.78,14.23,14.23,0,0,1-.58-3.36c-.12-1.45,1.73-2.24,3.46-1.69a1.73,1.73,0,0,1,1.62-1.47c.92-.11,1,.78.47,2.46l3.24,1.55a4.64,4.64,0,0,0,2-1c.92-1.24,1.15-2.81,2.07-3.48,1.73-.57,3.24-1.25,4.62-1.71l3.24,1.55a1.62,1.62,0,0,0,.23-2.12c-.81-1.23-2.89-1.11-2.55-3.46.11-.23.46-.9.8-1.57a8,8,0,0,1,2.2-.35c2.2.77,4.29,1.77,6.49,2.54.23.11.69-.23,1-.34a22.34,22.34,0,0,1-.94-3.24c-.12-.33.35-.67.46-.9a1.29,1.29,0,0,1-1.27-1.45,20.34,20.34,0,0,1,.45-2,1.74,1.74,0,0,1,1.74-1.13c.23.11.81,1.23.58,1.68a14.32,14.32,0,0,1-1.5,2.91l2.09,1a1.77,1.77,0,0,0,2.2.21c.46-.34.46-.9,0-1.68s-.46-1.34,0-1.68a1.67,1.67,0,0,1,2.2.22l2.08,1c1-1.46,1.73-1.68,2.66-1.24,1.5.44,2.78,1.33,4.4,1.54.81.11,1.39-.45,1.61-1.46l-3.47-1.66c-.23-.67-.47-1.9-.82-2.91-.11-.33-.69-.33-1.39-.66l.46.22a1.57,1.57,0,0,1-1.26,1.35c-.7.23-1.16,0-1.16-1.11.11-.23.46-.34.57-.57a3,3,0,0,1,1.51-.12,8.36,8.36,0,0,0,2.07-2.92c1.74-.57,3.47-1.69,5.9-1.37,1,.78,2.43,1.44,3.47,2.22.58.56.47,1.34-.22,2.13l3.24,1.55c1.39-.46,2.89-1.14,4.63-1.7a14.27,14.27,0,0,0,3.1-6.62c.12-.79-.47-1.34-1.51-1.56-.57,1.12-1,2-1.61,3.14a42.19,42.19,0,0,0-4.51,1.48c-1.27-1.45-.47-2.46.8-3.81,1.86.32,3.35-2,5.32-.81l1.61-3.14c.35-.12.81-.46,1.05-.35.81.11,1.5.44,2.31.55.69-.23,1.5-.12,2.2-.35,2-.45,3.81-1.25,5.55-1.81.8-1-.24-1.79-.24-2.91,1.15-1.69.33-4.59,3.57-4.72.35,1,.81,1.78,1.17,2.79.69-.23,1.27-.23,1.38-.45l4.26-8.31c1.85-1.35,3.71,1.21,5.32-.25a9.45,9.45,0,0,1-.7-3.13l4.51-1.48,2.08,1c2.89-1.7,2.89-1.7,1.72-5.61a10.31,10.31,0,0,0,3-1.36c0-1.11-.82-1.78-2-2.34-.46-.22-.81-1.22-1-1.89l4.51-1.48a13,13,0,0,0,2.66,1c1.16-.56,2.66-1.24,4.85-2.15-.11.23-.34-.45-.92-1-.82-.67-2.32-.55-2.32-2.23a8.38,8.38,0,0,1,3.93-1.47c1.27-.23,2.77.21,4.39.42-.47-2.46-1.86-4.24-1.87-6.48,1.28-.79,2.2.21,3.25.43a1.21,1.21,0,0,0,1-.34c.46-.34.57-1.12-.24-1.79a27.5,27.5,0,0,0-4.17-2c-1.16-2.24.68-3.59,1.61-5.38.23-.45,1.15-.57,1.73-.57a5,5,0,0,0,.93,2.12,6.15,6.15,0,0,0,1.62,1.33,1.56,1.56,0,0,0,1,.22c1.74-1.13,3.71.09,5.56-.14a6.74,6.74,0,0,0,3.93-1.47c-.12-1.46-1.4-1.79-2.32-2.23-1,.34-2.31.57-3.35.91-1.63-2.45,2.07-4,1.48-6.27-.7-2.57-4.74-1.43-5-4.34,2.08-.68,4.27-1.59,6.35-2.27l1-2c1.62-1.47,3.48,1.66,5.32-.26-.47-1.34-1.05-3-1.51-4.35-.12-.34-.7-.34-1.62-.78l.46.22a1.57,1.57,0,0,1-1.27,1.35c-.69.23-1.16,0-1.16-1.11.11-.22.46-.34.58-.56a2.74,2.74,0,0,1,1.5-.12c1-.34,1.15-1.13.57-1.68-.92-1-2-1.79-3.13-2.9,1.39-.45,2.2-.9,3.59-1.36a22.1,22.1,0,0,0,1.84-3.59,2.22,2.22,0,0,0-1.75-2.79l.47.22a1.58,1.58,0,0,1-1.27,1.35c-.69.23-1.16,0-1.16-1.11.11-.23.46-.34.58-.56a2.74,2.74,0,0,1,1.5-.12c.69-.23.69-.79,1-.91,2.2-.9,4.51-1.47,6.36-2.27,1.14-2.8,1.14-2.8-.25-4l-1.15-.55a2.71,2.71,0,0,1,.56-3.92c.81-.45,1.39-.45,2.55-1a59.64,59.64,0,0,0,4.37-8.53c-.12-1.45-.58-1.67-1.51-1-.57.57-.92,1.24-1.38,1.58a4.66,4.66,0,0,1-2,1c-.94-2.68-1.75-5-2.69-7.71a2,2,0,0,1,2.78.21c2.66-.68,4.28-1,5.67-1.48-.47-2.46-4.06-2.78-3.72-5.69a9.4,9.4,0,0,1-2.2-1.33,37.86,37.86,0,0,0-1.63-4.13c.69-1.35.69-1.35,2.54-.47l2.09,1c1.38-2.69,2.87-5.61,4.26-8.3l-3.25-1.55c-.23-.11-.23-.67-.35-1l.35-.67c1.85-.79,3.81-1.25,5.55-1.82a4.54,4.54,0,0,0-1.05-1.9,2.8,2.8,0,0,0-2-.66c-2,.46-3.81,1.25-5.55,1.82a6.46,6.46,0,0,1-.46-1.9,3.51,3.51,0,0,1,1.26-1.91c.58-.56,1.62-.35,2.2-.91a2.61,2.61,0,0,0,1.38-2.69c-.23-.67-.47-1.34-.81-2.35a22.59,22.59,0,0,0,3-1.36l.92-1.79c.11-1.9-1.86-2-2.67-3.23a1.54,1.54,0,0,1,.23-2.13l-2.09-1c-1.62-.77-2-1.78-1.16-3.35l1-2-3.24-1.55c-.23-.11-.23-.67-.35-1l.34-.67C370,202,372,201.56,373.7,201c.12-1.34-.81-1.78-2-2.34-.69-.33-.81-1.23-1.16-1.67a23.45,23.45,0,0,0,3.24-1.25c-.59-2.24-1.87-4.24-1.87-6.48a7.05,7.05,0,0,1,1.5-1.8c.57-.56,1.39-.46,2.2.21a14.1,14.1,0,0,0,1.49-2.92c.12-.78-.35-1.56-.93-1.56a8.66,8.66,0,0,1-2.08.68c-2.2.35-3.36-1.32-2.55-3.45a1.6,1.6,0,0,1-1.51-1.56,1.42,1.42,0,0,1,.23-1l1.73-3.37c-.36-3.24-2.22-6.37-3-9.83l1.5-2.92-5.33-2.55c-.47-1.34-1-3-1.51-4.35,1.61-2,3.59,1.43,5.2-.59-.58-1.12-1-2.46-1.86-4.24l-5.56-2.66c-1.4-1.79-1.4-3.46-2.33-5,2.78-.91,4.05,1.1,6.14,1.54.57-.56,1.5-1.24,2.07-1.8a10.67,10.67,0,0,0-1.75-5.59c-1.15-.55-2.2-1.33-3.23-.43-.58.56-.7,1.35-1.27,1.91-.69.78-1.5.68-1.85.23-.12-.33-.24-.67-.35-1a19,19,0,0,0-1.05-3l2.18-4.26,5.9-1.94c1.27-1.91,3.46-3.37,1.95-6L366,121a21.78,21.78,0,0,1-1.28-3.13c-1.16,0-1.5.68-1.85,1.36-1.27,1.91-2.19,2-3.7,1-.7-.33-.81-1.22-1.16-1.67l1-2c1.05-.34,2.2-.91,3.24-1.25l2.19-4.26c-.58-1.68-1.05-3-1.52-4.36-1,.34-2.31.57-3.35.91l-2.08-1c-.7-.9-.59-1.68.34-1.8l5.55-1.82c-.35-1-.59-2.23-.94-3.24.58-1.12.92-2.35,2.43-2.47.7,2,1.63,4.13,2.32,6.14.35-.11.93-.11,1-.34,1.62-2.58,3-5.27,4.38-8,.35-.67-.12-1.45-1.63-2.45l-.69-.33c-1.16-2.8-5.44-.09-3-7.6.58-1.12-3.56-1.14-4.25.21.35,1-1.55,3.64-1.1,4.85-.34,2.36-2.61-.2-3.42,1.93-.8,1.57-3.46,2.23-3.8,4,.35,1-4.65-.53-4.42.14-.11.23-4.39-2-4.5-1.72-4.83,9.43-2.4-6.16-7.35,3.49-.8.45-2.5-8.63-3.88-8.17l-3.11,6.06A42.65,42.65,0,0,1,326.93,97c-1.74-1.11-1.17-3.35-2.33-4.46l2.31-4.49a13.91,13.91,0,0,1-2.32-2.23,26,26,0,0,1-3.7,1l-4.4-2.1c-.47-1.34-.82-2.91-1.4-4.59A16.59,16.59,0,0,1,318,79.05c-1.17-2.79-1.4-2.9-5.21-1.65-1.51-1-.94-3.8-3.49-3.9-.7-2-1.63-4.14-2.21-6.37L304.75,66c-.69.79-1.61,1.46-2.3,2.25a23.28,23.28,0,0,0,1.05,3.58l-3.12,1c-1.05.34-1.39.46-2-.1-.47-.78-.12-1.45.22-2.13,1-1.46.69-1.9-.93-2.68-.69-.33-1.39-.66-1.51-1.56a.89.89,0,0,1,.12-.78c1.38-.46,3.24-.69,3.69-2.71a26.58,26.58,0,0,0-2.8-8c-.81-.11-1.5-.44-2.31-.55s-1.39.45-1.62,1.46a1.31,1.31,0,0,1,1.28,1.45c0,.56-.34,1.23-.46,2a1.75,1.75,0,0,1-1.73,1.13c-.23-.11-.81-1.23-.58-1.68a14.1,14.1,0,0,1,1.49-2.92A1.29,1.29,0,0,1,292,54.33c.11-1.34.45-2.57.68-4.14-3.47,0-2.42,3.59-4.38,4.61l-3.12,1c.46,1.9,0,2.8-.34,5.15-.11.79-.69.23-.69-.33,0-1.12.69-1.34,1.38-.45a2.45,2.45,0,0,1,.36,1.56C285.77,62,285.08,62.2,284.84,61Zm-244,205.86,6.26,3c.23.11.23.67.35,1,0,.56-.46.9-1.39,1l-6.25-3c-.24-.11-.24-.67-.35-1C39.19,267.17,39.89,266.94,40.81,266.83ZM134.09,56.26c-2.08.68-3.59.24-4.4-2.1.81-1,.69-3,2.88-2.26A39.57,39.57,0,0,0,134.09,56.26ZM40.62,194.07c-.93-2.12-.24-3.47,2.19-4.26C43.63,192.15,42.94,193.5,40.62,194.07Zm6.44-17c.11.33.46.78.35,1l-1,2c-.11.23-.69.23-1,.34a.47.47,0,0,1-.69-.33c-.93-1,.22-3.24,1.72-3.36C46.71,176.58,46.83,176.92,47.06,177Zm315.82,89.49c2.2-.9,3.59-.24,4.4,2.11C364.86,269.42,363.47,268.76,362.88,266.52Zm-187.65-228c-.12.22-.35.67-.46.89l-1,.35c-.58,0-.93-.45-1-1.34-.11-.34.35-.68.46-.9A1.72,1.72,0,0,1,174.76,36C175.57,36.12,175.92,37.13,175.23,38.48ZM119.94,356.64c.58,0,.93.44,1,1.34l-1,.34c-.57,0-.92-.45-1-1.34C118.67,356.87,119.36,356.64,119.94,356.64Zm103,42.79q0-.84,1.38-1s.24.67.35,1c0,.56-.46.9-1.38,1C223.25,400.43,223,399.76,222.9,399.43ZM97.21,336.27l-1,.34c-.57,0-.92-.44-1-1.34l1-.34C96.75,334.93,97.1,335.38,97.21,336.27ZM57.52,285.43c.58,0,.92.45,1,1.34l-1,.34c-.58,0-.92-.44-1-1.34ZM55.33,154.71c-.12-.33-.23-.67-.35-1,0-.56.46-.9,1.39-1l.35,1C57.06,154.14,56.6,154.48,55.33,154.71ZM352.08,294.34c.58,0,.93.44,1,1.34l-1,.34c-.57,0-.92-.44-1-1.34C351.15,294.45,351.73,294.45,352.08,294.34ZM66.33,113.58c.12.33.35,1,.35,1-.81.46-1.39.46-1.74,0-.11-.33-.35-1-.35-1C65.4,113.13,66,113.13,66.33,113.58ZM87.68,92.76c.11.34.35,1,.35,1-.81.45-1.39.45-1.74,0-.11-.34-.35-1-.35-1C86.75,92.32,87.33,92.32,87.68,92.76Zm15.69-16.53-.35-1c.81-.45,1.39-.45,1.73,0l.35,1C104.29,76.67,103.72,76.67,103.37,76.23ZM363.81,177q0-.84,1.38-1s.24.67.35,1c0,.56-.46.9-1.38,1C364.16,178,363.92,177.31,363.81,177ZM125.43,60.78c-.58,0-.93-.44-1.05-1.34l1-.34c.58,0,.93.45,1,1.34Z"/><path class="cls-1" d="M301.93,49c-1.38.46-1.85.8-1.73,1.13l1.52,4.36c.57,0,1.5-.12,1.61-.35a57.69,57.69,0,0,0,3.11-6.06c-.93-2.68-3.24-2.67-5.44-3.44-2,.46-1.73,2.25-2.65,3.49a7.69,7.69,0,0,0,3.58.87c.81.11.24.67-.34.68-1.16,0-1.39-.67-.47-1.34a2.63,2.63,0,0,1,1.62-.35C303,48.12,303.2,48.79,301.93,49Z"/><path class="cls-1" d="M369.43,113.15l3.24,1.55c.35,1,.93,2.12,1.28,3.13a3.57,3.57,0,0,0,2.08-1.25c1.73-2.24,1.73-2.24,3.58-1.36l3,1.44,1.38-.45c.12-.23.12-.78-.12-.9-1.85-2-4.4-2.66-7.06-3.65-1.73,1.12-3.7.46-5.55.14A1.53,1.53,0,0,0,369.43,113.15Z"/><path class="cls-1" d="M161.93,408.3c0,2.24,3.36,1.89,3,4.24l-1,2a1.1,1.1,0,0,0,.35,1c.35.44,1.16.55,1.85-.24a29.17,29.17,0,0,0,2.18-4.26c.93-.12,2-.46,3.24-.69-.47-2.46-2.78-2.45-4.29-3.45C165.39,406.61,163.89,407.85,161.93,408.3Z"/><path class="cls-1" d="M257.84,401.15l.93.44c2.78,1.33,2.78,1.33,2,4a2.27,2.27,0,0,0,1.86,3.12,6.83,6.83,0,0,0,2-.45c.46-.9,1-2,1.5-2.92-1.74-.55-1.28-2.57-2.91-3.9a13.93,13.93,0,0,0-3-1.44C259.22,399.57,258,399.8,257.84,401.15Z"/><path class="cls-1" d="M371.91,87.5a1.23,1.23,0,0,0,.81,1.23,4.7,4.7,0,0,1,2.9,3.34.79.79,0,0,0,.35.45c1.62-.34,3-.8,4.62-1.14-.58-1.68-1-3-1.63-4.69a10.06,10.06,0,0,1-2.2-1.34A21.75,21.75,0,0,1,371.91,87.5Z"/><path class="cls-1" d="M95.93,62.61c-.81,1-.46,2,.59,2.8a23.25,23.25,0,0,0,3.7,1.77,18.5,18.5,0,0,1,3.35-.91l3,1.43c.34-.67.69-1.34,1-2l-5.33-2.54c-1,.34-2.31.57-3.35.91Z"/><path class="cls-1" d="M384,193.89c-.46-1.34-1.05-3-1.51-4.36l-2.09-1c-1,.34-2.31,1.13-3.35.92s-1.51-.44-1.5.68c.11.33.11.89.35,1a16.86,16.86,0,0,0,7.18,3.43A2,2,0,0,1,384,193.89Z"/><path class="cls-1" d="M245.17,422.93a16.37,16.37,0,0,1,1.16,2.79c.35,1,.47,1.34,1,1.34A1.61,1.61,0,0,0,249,425.6l.58-1.12a16.15,16.15,0,0,0-1.16-2.8c.46-.89.8-1.57,1.15-2.24.11-.23-.24-.67-.35-1a1.19,1.19,0,0,0-1.74,0C246.67,420,246,421.36,245.17,422.93Z"/><path class="cls-1" d="M370.48,162.84l3.25,1.55c.35,1,.93,2.12,1.28,3.13,1.15.55,2.2,1.33,3.58.32-.46-1.35-.93-2.69-1.4-4a7.3,7.3,0,0,0-5.09-2.43A1.62,1.62,0,0,0,370.48,162.84Z"/><path class="cls-1" d="M127,38.61l5.33,2.55c2.77-1.47,2.77-1.47,2.07-4-1,.34-2,.46-3,.8-.23-.67-.46-.78-.46-1.34-.12-.9-.35-1.57-1.17-1.68a1.62,1.62,0,0,0-1.61,1.47A8.35,8.35,0,0,1,127,38.61Z"/><path class="cls-1" d="M26.67,213.4l3,1.44a2.45,2.45,0,0,0,2.42-1.92c.46-1.46.46-2-.93-2.68-.93-.44-.93-.44-3.13-.1A16.56,16.56,0,0,1,26.67,213.4Z"/><path class="cls-1" d="M341.72,360.09c1.28,2.57,1.28,2.57,4.4,2.11l1-2c-1.28-2.57-1.28-2.57-4.4-2.11Z"/><path class="cls-1" d="M21.27,181.19c.93,1,1.62,1.89,2.2,2.45,2.44.32,3.94-.92,6.13-1.26-.93-1-1.62-1.9-2.2-2.45C25.2,179.71,23.7,181,21.27,181.19Z"/><path class="cls-1" d="M43.55,161.93,39,163.41c.35,1,1.16,2.24.7,3.13-.23,1-.46,1.46.7,1.45.35-.11.93-.11,1-.34A10.11,10.11,0,0,0,44,162.72,3.38,3.38,0,0,1,43.55,161.93Z"/><path class="cls-1" d="M369,321.42l4.17,2c.47.22,1.16-.57,1.5-.68-.46-1.34-1-3-1.51-4.36a39.19,39.19,0,0,0-4.28,1.59C368.55,320.08,368.55,320.64,369,321.42Z"/><path class="cls-1" d="M73.1,93.06c2,.1,3.47-1.14,5.21-1.15-.13-2-1.51-2.12-2.44-2.56a24.12,24.12,0,0,1-3.35.91c-2,.46-2.08.69-1.16,1.69A5,5,0,0,0,73.1,93.06Z"/><path class="cls-1" d="M71.36,89.71l1.49-2.92a2.37,2.37,0,0,0-2-2.34c-1.5-.44-2.08-.43-2.77.91-.46.9-.46.9-.11,3A19.12,19.12,0,0,1,71.36,89.71Z"/><path class="cls-1" d="M367.52,135.43l2.08,1a21.68,21.68,0,0,0,1.29,3.13c2.54-1.58,2.54-1.58,1.84-4.15l-4.18-2c-.23-.11-.69.23-1,.34C366.82,134,366.71,134.76,367.52,135.43Z"/><path class="cls-1" d="M323.88,82.15,327,76.09c.12-.22-.23-.67-.35-1-.35-.45-.93-.45-1.85.23q-1.55,3-3.11,6.06c-.11.23.24.67.35,1C322.38,82.83,323.08,82.61,323.88,82.15Z"/><path class="cls-1" d="M247.59,13.82c-2,.46-2.78,1.47-2.54,3.26a18.37,18.37,0,0,0,1.28,4.24c2-.45,2.77-1.46,2.54-3.25A18.3,18.3,0,0,0,247.59,13.82Z"/><path class="cls-1" d="M60,328c-.58-2.23-2-2.9-4.4-2.1.35,1,.93,2.12,1.28,3.13s.47,1.34,1,1.33a1.6,1.6,0,0,0,1.61-1.46C59.47,328.61,59.93,328.27,60,328Z"/><path class="cls-1" d="M190,415.83a14.6,14.6,0,0,0-3-1.44c-.47-.23-1,.34-1.74.56.47,1.35.94,2.69,1.4,4,.7-.23,1.51-.12,1.74-.57A6.24,6.24,0,0,0,190,415.83Z"/><path class="cls-1" d="M196,419.82c.59,2.24,2,2.9,4.41,2.11-.35-1-.94-2.12-1.28-3.13s-.47-1.34-1.05-1.34a1.61,1.61,0,0,0-1.61,1.47Z"/><path class="cls-1" d="M165.39,396.25a14.88,14.88,0,0,0-3-1.44c-.46-.22-1,.34-1.73.57.46,1.34.93,2.68,1.4,4,.69-.23,1.5-.12,1.73-.57A6.12,6.12,0,0,0,165.39,396.25Z"/><path class="cls-1" d="M121.48,370,117,371.43c-.8,2.13,1.28,2,2.32,2.78C121.72,373.42,122.18,372,121.48,370Z"/><path class="cls-1" d="M43.54,295.24c1.4,2.35,1.4,2.35,4.17,2,.35-1.24,2.08-2.36.11-3.59A39.19,39.19,0,0,1,43.54,295.24Z"/><path class="cls-1" d="M274.69,386.18a1.82,1.82,0,0,0,2.78-.35,36.66,36.66,0,0,0,2.41-4.71,1.81,1.81,0,0,0-2.77.35Z"/><path class="cls-1" d="M26.83,228.84c-.81,1.57-1.73,3.37-2.53,4.94-.23.45.35,1,.58,1.68,0,0,.93-.12,1-.34,1-1.47,2.08-2.93,2.19-4.83C28.22,229.51,27.53,229.17,26.83,228.84Z"/><path class="cls-1" d="M362.47,332.57c2.32-.58,2.78-2,2.19-4.27-1,.34-2.19.91-3.23,1.25-.93.12-1.39.45-1.39,1a1.6,1.6,0,0,0,1.51,1.56C361.89,332,362,332.34,362.47,332.57Z"/><path class="cls-1" d="M39.4,167.78a14.11,14.11,0,0,0-3-1.44c-.47-.22-1,.34-1.74.56l1.4,4c.7-.23,1.51-.12,1.74-.57A6.24,6.24,0,0,0,39.4,167.78Z"/><path class="cls-1" d="M38.2,151.55l4.51-1.48c.8-2.13-1.28-2-2.32-2.78C38.19,148.2,37.73,149.65,38.2,151.55Z"/><path class="cls-1" d="M366.06,286.21c-.35,1.23-1.62,2-.69,3s1.85-.23,2.78-.35l1-.34,1-.34Q369.18,285.19,366.06,286.21Z"/><path class="cls-1" d="M89.14,77c-1.73,2.81-3.92,4.28-2.76,7.07,1.85-.24,2.08-1.8,3-3C90,79.88,90.19,78.87,89.14,77Z"/><path class="cls-1" d="M78.81,62.25c-2.43,1.36-2.43,1.36-2.07,4,1.27.33,2.43,2,3.7.09C80,65,79.27,63.59,78.81,62.25Z"/><path class="cls-1" d="M113.58,43.94c-.58-2.24-2.09-2.68-4.4-2.1.35,1,.93,2.12,1.28,3.12.12.9.47,1.34,1,1.34a1.61,1.61,0,0,0,1.62-1.46Z"/><path class="cls-1" d="M127.13,49c-.23-.11-.81-.11-.93-.44l-1-3a6.27,6.27,0,0,0-1.73.57,14.19,14.19,0,0,0-1.5,2.92l4.41,2.1A6,6,0,0,1,127.13,49Z"/><path class="cls-1" d="M127.46,42.75c-.12-1.45-1.63-2.45-.47-4.14-.23-.11-.58-.56-.93-.44a2.8,2.8,0,0,0-2.65,2.92c-.12.79,1,1.9,2.09,2.12A7.24,7.24,0,0,0,127.46,42.75Z"/><path class="cls-1" d="M143.51,32.26c.59,2.23,2,2.9,4.41,2.1-.35-1-.93-2.12-1.29-3.12s-.46-1.35-1-1.34A1.59,1.59,0,0,0,144,31.36C144.09,31.7,143.63,32,143.51,32.26Z"/><path class="cls-1" d="M161.22,34.29a1.63,1.63,0,0,0,.23-2.12,9.82,9.82,0,0,0-4.75-2.55c-.24-.11-1,.34-1,.34,0,.56.11,1.45.58,1.67A21.2,21.2,0,0,0,161.22,34.29Z"/><path class="cls-1" d="M161.87,17.84c-.58-2.24-2-2.9-4.4-2.11.35,1,.93,2.13,1.28,3.13s.47,1.34,1,1.34a1.62,1.62,0,0,0,1.62-1.46C161.29,18.4,161.64,18.29,161.87,17.84Z"/><path class="cls-1" d="M369.33,118.41a1.64,1.64,0,0,0,.22-2.13c-.35-1-1.28-2-.12-3.13-1.74-.55-2.43-.32-2.89.57-1,1.46-.81,2.69.82,3.47A7,7,0,0,0,369.33,118.41Z"/><path class="cls-1" d="M230.74,31.48c2.31-.57,3-1.92,2.19-4.27-1,.34-2.2.91-3.24,1.25s-1.39.46-1.38,1a1.57,1.57,0,0,0,1.5,1.55C230.16,30.92,230.51,31.37,230.74,31.48Z"/><path class="cls-1" d="M320,68.85l-3-1.44c-2.66.69-2.54,1-2.42,3.6C318.18,70.21,318.42,70.32,320,68.85Z"/><path class="cls-1" d="M325.24,68.83c.57-1.68.34-2.36-.59-2.8-1.74-1.11-2.78-.77-3.58.8l-1,2c1.28.89,2.2.22,3.24-.12A1.45,1.45,0,0,1,325.24,68.83Z"/><path class="cls-1" d="M346.63,83.11c-2.2-.22-2.2-.22-5.66,1.48,1.51,2.12,1.74,2.23,4.17,1.44C345.6,85.13,346.05,84.23,346.63,83.11Z"/><path class="cls-1" d="M346,79.19c.12,1.46,1.63,2.46.48,4.14.23.11.58.56.92.44a2.8,2.8,0,0,0,2.66-2.92c.11-.78-1.05-1.9-2.09-2.11A4,4,0,0,0,346,79.19Z"/><path class="cls-1" d="M348.57,62.71l1-.34c.46-.34.46-.9-.24-1.79l-4.17-2-1,.35c-.46.33-.46.89.24,1.79Z"/><path class="cls-1" d="M360.31,39.82c.92-.12,1.62-.35,1.38-1-.11-.33-.23-.67-.35-1l-4.17-2q-1.38.18-1.38,1c.11.33.23.67.35,1Z"/><path class="cls-1" d="M134.36,386.45c-2.31.57-3,1.92-2.18,4.26C134.49,390.14,135.29,388.57,134.36,386.45Z"/><path class="cls-1" d="M257.84,401.15l-2.08-1a16.38,16.38,0,0,0-1.62,3.14c-.23,1,.35,1.57,1.05,1.34.35-.11.92-.11,1-.34Z"/><path class="cls-1" d="M205.23,412.5a15.14,15.14,0,0,0-3-1.44c-.46-.22-1.62.35-1.73.57a1.65,1.65,0,0,0,1.16,1.67,6.07,6.07,0,0,0,2.08.44C204.43,414.07,205,413.51,205.23,412.5Z"/><path class="cls-1" d="M244.67,408.16a1.64,1.64,0,0,0,.23-2.13c-.47-.78-1.63-.21-2.32,1.13-.11.23-.34.68-.46.9.12.33.24.67.35,1,.35.44.93.44,1.74,0C244.55,408.94,244.55,408.38,244.67,408.16Z"/><path class="cls-1" d="M247.32,402.44c.11-1.35-2.21-2.45-3.48-1.66a.47.47,0,0,0-.35.67c-.11,1.34,2.21,2.45,3.48,1.66Z"/><path class="cls-1" d="M57.09,300.32c-1.39-.66-2.66-.43-2.54.46a1.6,1.6,0,0,0,1.51,1.56l.92.45c.93-.12,1.62-.35,1.39-1-.12-.34-.12-.89-.35-1Z"/><path class="cls-1" d="M280.6,390.4c.59,2.24,2,2.9,4.4,2.11C284.19,390.16,282.8,389.5,280.6,390.4Z"/><path class="cls-1" d="M24.59,259.07a1.78,1.78,0,0,0,2.2.22c.93-.68.35-1.8-1-2.46l-.93-.44-1,.34q-.69.51,0,1.68C23.9,258.74,24.36,259,24.59,259.07Z"/><path class="cls-1" d="M15.08,246.7a14.14,14.14,0,0,0-1.5,2.92c-.23.45.35,1.56.58,1.67a1.74,1.74,0,0,0,1.74-1.13,5.74,5.74,0,0,0,.45-2A1.29,1.29,0,0,0,15.08,246.7Z"/><path class="cls-1" d="M6.29,241.34c1.38.1,2.54-2.14,1.72-3.37a.48.48,0,0,0-.69-.33c-1.39-.11-2.54,2.13-1.73,3.36Z"/><path class="cls-1" d="M27.91,242.49c.69-1.34.45-2.58-.47-2.46a1.62,1.62,0,0,0-1.62,1.46c-.11.23-.34.68-.46.9.12.9.35,1.57,1.05,1.34.34-.11.92-.12,1-.34S27.79,242.72,27.91,242.49Z"/><path class="cls-1" d="M15,231c-1.39-.67-2.67-.43-2.55.46A1.6,1.6,0,0,0,14,233.05l.93.44c.92-.11,1.62-.34,1.38-1-.11-.34-.12-.9-.35-1Z"/><path class="cls-1" d="M26.67,213.4a14.13,14.13,0,0,0-3-1.44,2.18,2.18,0,0,0-1.73.56,1.68,1.68,0,0,0,1.16,1.68,6.12,6.12,0,0,0,2.08.43A1.32,1.32,0,0,0,26.67,213.4Z"/><path class="cls-1" d="M12.84,186.38l-.7-.33c-1.5.12-2.42,2.47-1.72,3.36l.69.34c.35-.12.93-.12,1-.34l1-2C13.3,187.16,13,186.72,12.84,186.38Z"/><path class="cls-1" d="M366,343.78c.58,2.23,2,2.9,4.4,2.1C369.43,343.76,368,343.09,366,343.78Z"/><path class="cls-1" d="M387.5,301.77c-.58-2.24-2-2.9-4.4-2.1C383.91,302,385.3,302.67,387.5,301.77Z"/><path class="cls-1" d="M54.45,128.3a1.77,1.77,0,0,0-2.2-.21,3.17,3.17,0,0,0-1.38,2.69,1.6,1.6,0,0,0,1.51,1.56Z"/><path class="cls-1" d="M382.7,278l-.7-.33c-1.5.12-2.42,2.48-1.73,3.37l.7.33c.35-.12.92-.12,1-.34.34-.68.69-1.35,1-2C383.16,278.73,382.81,278.29,382.7,278Z"/><path class="cls-1" d="M75.13,72.23c.58,2.24,2,2.9,4.4,2.1C78.72,72,77.33,71.32,75.13,72.23Z"/><path class="cls-1" d="M371.75,207.6a14,14,0,0,0,3,1.44c.46.23,1.61-.34,1.73-.56a1.69,1.69,0,0,0-1.16-1.68,6.12,6.12,0,0,0-2.08-.43C372.45,206.26,372,206.6,371.75,207.6Z"/><path class="cls-1" d="M95.93,62.61a14.14,14.14,0,0,0,1.5-2.92c.23-.45-.36-1.56-.59-1.67a1.73,1.73,0,0,0-1.73,1.13,6,6,0,0,0-.46,2A1.31,1.31,0,0,0,95.93,62.61Z"/><path class="cls-1" d="M378.15,174.33c-2.32-.55-3.13-.1-3.58,2.48-.12.23.23.67.35,1,.23.11.57,0,.81.1.34-.11.69-.22.81-.45Z"/><path class="cls-1" d="M380.23,175.33a14.07,14.07,0,0,0-1.5,2.91c-.22.45.36,1.57.59,1.68a1.74,1.74,0,0,0,1.73-1.13,5.75,5.75,0,0,0,.46-2A1.3,1.3,0,0,0,380.23,175.33Z"/><path class="cls-1" d="M121.58,49.16c-2.32-.55-3.13-.1-3.58,2.48-.12.23.23.67.35,1,.23.11.58,0,.81.1.34-.11.69-.22.81-.45Z"/><path class="cls-1" d="M401.51,172.64c-2.31.57-3,1.92-2.19,4.27C401.75,176.11,402.44,174.76,401.51,172.64Z"/><path class="cls-1" d="M121.54,33.49a15.14,15.14,0,0,0-3-1.44,2.17,2.17,0,0,0-1.74.57A1.68,1.68,0,0,0,118,34.29a6.43,6.43,0,0,0,2.09.44C121.08,35,121.42,34.27,121.54,33.49Z"/><path class="cls-1" d="M388.73,150.88c2.31-.57,3-1.92,2.19-4.26C388.49,147.41,387.8,148.76,388.73,150.88Z"/><path class="cls-1" d="M371.78,127.69l-.7-.33c-1.5.11-2.42,2.47-1.72,3.36l.69.33c.35-.11.93-.11,1-.34l1-2C372.24,128.47,371.9,128,371.78,127.69Z"/><path class="cls-1" d="M369.33,118.41c-.58,2.24-.11,3,2.55,3.46.23.11.69-.23,1-.34.12-.23,0-.56.11-.79-.11-.33-.23-.67-.46-.78A16.87,16.87,0,0,0,369.33,118.41Z"/><path class="cls-1" d="M384.38,122.81c2.31-.57,3-1.92,2.18-4.26C384.37,119.45,383.68,120.8,384.38,122.81Z"/><path class="cls-1" d="M313.55,65.75a1.63,1.63,0,0,0,.22-2.12c-.46-.79-1.62-.22-2.31,1.13l-.46.89.35,1c.35.45.93.44,1.73,0Z"/><path class="cls-1" d="M367.12,78.85a1.79,1.79,0,0,0,2.2.21c.81-.45.23-1.57-1.16-2.23l-.93-.45-1,.34c-.46.34-.46.9,0,1.68C366.31,78.74,366.89,78.73,367.12,78.85Z"/><path class="cls-1" d="M353.92,84.08a15.14,15.14,0,0,0,3,1.44c.47.22,1.62-.35,1.74-.57a1.67,1.67,0,0,0-1.16-1.67,6.18,6.18,0,0,0-2.09-.44A1.33,1.33,0,0,0,353.92,84.08Z"/><path class="cls-1" d="M341.73,56.36c1.38.11,2.54-2.14,1.72-3.36a.48.48,0,0,0-.69-.33c-1.39-.11-2.54,2.13-1.73,3.36C341.15,56.37,341.49,56.25,341.73,56.36Z"/><path class="cls-1" d="M369.52,66.3c-.59-2.24-2-2.9-4.41-2.11C365.93,66.54,367.32,67.2,369.52,66.3Z"/><path class="cls-1" d="M370.6,38.31c-.58-2.24-2-2.9-4.4-2.11C367,38.55,368.4,39.21,370.6,38.31Z"/><path class="cls-1" d="M388.87,248.48c.58,2.24,2,2.9,4.4,2.11C392.68,248.35,391.29,247.69,388.87,248.48Z"/><path class="cls-1" d="M281.13,13.65c-2.31.57-3,1.92-2.18,4.26C281.14,17,281.83,15.66,281.13,13.65Z"/><path class="cls-1" d="M315.17,24.33c-1.39-.66-2.66-.43-2.54.46a1.6,1.6,0,0,0,1.51,1.56l.92.44c.93-.11,1.62-.34,1.39-1-.12-.34-.12-.9-.35-1C316.21,24.55,315.64,24.55,315.17,24.33Z"/><path class="cls-1" d="M120.05,389.45q.69-.51,0-1.68l-1,.34q-.7.51,0,1.68Z"/><path class="cls-1" d="M184.9,424c-.35-.44-.93-.44-1.74,0,0,0,.24.67.35,1,.35.44.93.44,1.74,0Z"/><path class="cls-1" d="M195.43,426c-.57,1.69-.45,2,1,3C197.29,427.43,197.05,427.32,195.43,426Z"/><path class="cls-1" d="M195.89,425.08c.12-.22,0-.55-.35-1a.89.89,0,0,0-.58-.56c-.92.12-1.38.46-1.15,1.13s.46,1.34,1.39,1.22C195.66,426.09,196,425.42,195.89,425.08Z"/><path class="cls-1" d="M156.27,403.35c-.12-.9-.46-1.34-1-1.34l-1,.34c.11.9.46,1.34,1,1.34C155.7,403.91,155.93,403.46,156.27,403.35Z"/><path class="cls-1" d="M161.59,412.33c-.35-.44-.93-.44-1.74,0,0,0,.24.67.35,1,.35.45.93.44,1.74,0Z"/><path class="cls-1" d="M192.74,415.48s-.11-.9-.34-1a2.69,2.69,0,0,0-1.62.34c-.93.68-.69,1.35.46,1.34A5.75,5.75,0,0,0,192.74,415.48Z"/><path class="cls-1" d="M176.17,403.92c-.23-.11-.58,0-1,.34a1,1,0,0,0-.58.56c.12.9.47,1.34,1.16,1.12s1.39-.46,1.27-1.35C177.1,404.36,176.63,404.14,176.17,403.92Z"/><path class="cls-1" d="M269.53,404.22c-1.73-.55-2.08-.43-3.12,1C268.15,405.8,268.49,405.68,269.53,404.22Z"/><path class="cls-1" d="M272.09,407.68s.92-.12,1-.34c0-.56.11-1.35-.35-1.57-.7-.89-1.39-.66-1.39.46C271.16,406.68,271.74,407.23,272.09,407.68Z"/><path class="cls-1" d="M175.94,414.16l-1,.35c.12.89.46,1.34,1,1.33l1-.34C177,414.38,176.52,414.16,175.94,414.16Z"/><path class="cls-1" d="M96.28,362.55l-.35-1c-.93.12-1.39.46-1.39,1,.12.33.35,1,.35,1C95.82,363.45,96.28,363.11,96.28,362.55Z"/><path class="cls-1" d="M141.88,385.85c-.46.34-.46.9,0,1.68l1-.34c.46-.34.46-.9,0-1.68C142.69,385.4,142.23,385.74,141.88,385.85Z"/><path class="cls-1" d="M179.87,404s-.11-.89-.35-1a2.65,2.65,0,0,0-1.62.34c-.92.68-.69,1.35.47,1.34C178.6,404.8,179.41,404.35,179.87,404Z"/><path class="cls-1" d="M191.23,409.44q-.71.51,0,1.68l1-.34c.46-.34.46-.9,0-1.68C192,409,191.57,409.33,191.23,409.44Z"/><path class="cls-1" d="M271.62,405.22c.57-1.68.34-2.35-.47-2.46a1.61,1.61,0,0,0-1.62,1.46Z"/><path class="cls-1" d="M276.94,406.09c-.46.34-.46.89,0,1.68l1-.34c.46-.34.46-.9,0-1.68Z"/><path class="cls-1" d="M189.25,405.42c-.35-.45-.93-.44-1.74,0,0,0,.24.67.35,1,.35.45.93.45,1.74,0C189.6,406.42,189.36,405.76,189.25,405.42Z"/><path class="cls-1" d="M115.23,367.52c-.35-.45-.93-.44-1.74,0,0,0,.23.67.35,1,.35.45.93.45,1.74,0C115.69,368.3,115.34,367.85,115.23,367.52Z"/><path class="cls-1" d="M134.8,377.16l-.35-1q-1.38.18-1.38,1c.11.33.35,1,.35,1A1.14,1.14,0,0,0,134.8,377.16Z"/><path class="cls-1" d="M152,385.35c-.12-.33-.35-1-.35-1-.93.11-1.39.45-1.39,1l.35,1A1.16,1.16,0,0,0,152,385.35Z"/><path class="cls-1" d="M163.65,392.34s.92-.11,1-.34c0-.56.11-1.34-.35-1.56-.7-.89-1.39-.67-1.39.45A2.42,2.42,0,0,0,163.65,392.34Z"/><path class="cls-1" d="M89.27,352.88c-.46.33-.46.89,0,1.67l1-.34c.46-.33.46-.89,0-1.67C90.08,352.42,89.62,352.76,89.27,352.88Z"/><path class="cls-1" d="M113.25,361.82l-.36-1q-1.38.18-1.38,1c.12.33.35,1,.35,1C112.78,362.72,113.25,362.38,113.25,361.82Z"/><path class="cls-1" d="M229.77,417.52q-.69.51,0,1.68l1-.34c.47-.34.46-.9,0-1.68Z"/><path class="cls-1" d="M234.64,421l1-.34c-.12-.9-.47-1.34-1.05-1.34l-1,.34C233.71,420.53,234.06,421,234.64,421Z"/><path class="cls-1" d="M225,413.86l1-.34c-.12-.9-.47-1.35-1.05-1.34l-1,.34C224.09,413.41,224.44,413.86,225,413.86Z"/><path class="cls-1" d="M80.91,341.05c-.11-.33-.35-1-.35-1-.92.12-1.38.45-1.38,1l.35,1C80.45,342,80.92,341.61,80.91,341.05Z"/><path class="cls-1" d="M230.22,413.83l1-.34c-.11-.9-.46-1.34-1-1.34l-1,.34C229.3,413.39,229.64,413.83,230.22,413.83Z"/><path class="cls-1" d="M244,414c-.12-.33-.35-1-.35-1-.93.11-1.39.45-1.38,1,.11.34.34,1,.34,1C243.53,414.88,244,414.54,244,414Z"/><path class="cls-1" d="M43.33,305.48l.35,1c.92-.12,1.39-.45,1.38-1-.11-.34-.34-1-.34-1A1.08,1.08,0,0,0,43.33,305.48Z"/><path class="cls-1" d="M238.54,408.3c-.35-.44-.93-.44-1.74,0,0,0,.24.67.35,1,.35.44.93.44,1.74,0C238.89,409.31,238.65,408.64,238.54,408.3Z"/><path class="cls-1" d="M27.41,300.11c.34.44.92.44,1.73,0,0,0-.23-.67-.35-1-.35-.45-.92-.45-1.73,0Z"/><path class="cls-1" d="M233,400.05c-.57,1.68-.34,2.35.47,2.46a1.62,1.62,0,0,0,1.62-1.46Z"/><path class="cls-1" d="M85.16,327.15c-.35-.44-.93-.44-1.74,0,0,0,.24.67.35,1,.35.44.93.44,1.74,0Z"/><path class="cls-1" d="M250.43,400.3s.93-.12,1-.35c0-.56.12-1.34-.35-1.56-.69-.89-1.39-.67-1.38.45C249.51,399.29,250.09,399.85,250.43,400.3Z"/><path class="cls-1" d="M21.59,279.83l-1,.34c.12.9.47,1.34,1.05,1.34l1-.34C22.52,280.27,22.17,279.83,21.59,279.83Z"/><path class="cls-1" d="M36.26,294.83c.11.34.35,1,.35,1q1.38-.18,1.38-1c-.12-.33-.35-1-.35-1A1.13,1.13,0,0,0,36.26,294.83Z"/><path class="cls-1" d="M62,307.13c.12.33.35,1,.35,1,.92-.12,1.39-.46,1.39-1l-.35-1A1.16,1.16,0,0,0,62,307.13Z"/><path class="cls-1" d="M31.52,288.6q.69-.51,0-1.68l-1,.34q-.69.51,0,1.68C30.37,289.17,31.18,288.71,31.52,288.6Z"/><path class="cls-1" d="M270.44,397.28c.92-.11,1.39-.45,1.39-1l-.35-1c-.93.12-1.39.46-1.39,1C270.21,396.61,270.32,397,270.44,397.28Z"/><path class="cls-1" d="M14,271.89c.93-.12,1.39-.46,1.39-1-.12-.33-.35-1-.35-1-.92.11-1.39.45-1.38,1S13.87,271.55,14,271.89Z"/><path class="cls-1" d="M28.93,278.75c.34.45.92.45,1.73,0,0,0-.23-.67-.35-1-.35-.45-.93-.45-1.73,0C28.58,277.75,28.81,278.42,28.93,278.75Z"/><path class="cls-1" d="M.35,252.72q-.7.51,0,1.68l1-.34q.69-.51,0-1.68Z"/><path class="cls-1" d="M10.5,266.87c.12.33.35,1,.35,1,.93-.12,1.39-.46,1.39-1l-.35-1C11,266,10.5,266.31,10.5,266.87Z"/><path class="cls-1" d="M42.35,281.82c-.11-.9-.46-1.34-1-1.34l-1,.34c.12.89.46,1.34,1,1.34Z"/><path class="cls-1" d="M266.49,389.8s.92-.11,1-.34c0-.56.11-1.34-.35-1.56-.7-.89-1.39-.67-1.39.45A2.42,2.42,0,0,0,266.49,389.8Z"/><path class="cls-1" d="M17.88,258.66l-1,.34c.12.9.47,1.34,1.05,1.34l1-.34C18.81,259.1,18.46,258.66,17.88,258.66Z"/><path class="cls-1" d="M20.77,255.29l-.35-1c-.93.12-1.39.46-1.39,1,.12.33.35,1,.35,1A1.09,1.09,0,0,0,20.77,255.29Z"/><path class="cls-1" d="M15.54,245.8c.11-.22,0-.56-.35-1a1,1,0,0,0-.58-.55c-.93.11-1.39.45-1.16,1.12s.47,1.35,1.39,1.23C15.19,246.47,15.42,246,15.54,245.8Z"/><path class="cls-1" d="M320.39,383.94l-1,.35c.12.89.46,1.34,1,1.33l1-.34C321.32,384.39,321,383.94,320.39,383.94Z"/><path class="cls-1" d="M8.76,223.18l-1,.34c.12.89.47,1.34,1,1.34l1-.35C9.69,223.62,9.34,223.17,8.76,223.18Z"/><path class="cls-1" d="M320.49,378.12c.35.45.93.45,1.73,0,0,0-.23-.67-.35-1-.34-.45-.92-.44-1.73,0A1.79,1.79,0,0,1,320.49,378.12Z"/><path class="cls-1" d="M18.17,236.16c-.46.34-.46.9,0,1.68l1-.34c.46-.34.46-.9,0-1.68Z"/><path class="cls-1" d="M305.37,393.3c-.12-.9-.47-1.34-1.05-1.34l-1,.34c.12.9.47,1.34,1.05,1.34Z"/><path class="cls-1" d="M333,377.39l-.35-1c-.92.12-1.39.46-1.38,1,.11.33.35,1,.35,1A1.14,1.14,0,0,0,333,377.39Z"/><path class="cls-1" d="M309.24,370l-.35-1c-.93.12-1.39.46-1.39,1,.12.33.35,1,.35,1C308.78,370.89,309.24,370.56,309.24,370Z"/><path class="cls-1" d="M27.29,227.94c.12-.22,0-.56-.35-1a.94.94,0,0,0-.58-.56c-.92.12-1.39.46-1.15,1.13s.46,1.34,1.39,1.22C26.83,228.84,27.06,228.39,27.29,227.94Z"/><path class="cls-1" d="M19.26,208.17q-.69.51,0,1.68l1-.34q.69-.51,0-1.68C20.07,207.72,19.6,208.06,19.26,208.17Z"/><path class="cls-1" d="M5.7,198.62l-1,.34c.12.89.46,1.34,1,1.34l1-.34A1.11,1.11,0,0,0,5.7,198.62Z"/><path class="cls-1" d="M9.4,197c.34.45.92.44,1.73,0,0,0-.23-.67-.35-1-.35-.45-.93-.45-1.73,0C8.81,195.91,9.28,196.7,9.4,197Z"/><path class="cls-1" d="M341.59,353l1-.34c-.12-.89-.47-1.34-1.05-1.34l-1,.34C340.66,352.6,341,353.05,341.59,353Z"/><path class="cls-1" d="M341.58,348l1-.34c-.11-.9-.46-1.35-1-1.34l-1,.34C340.65,347.56,341,348,341.58,348Z"/><path class="cls-1" d="M32,196.92c.47-.34.46-.9,0-1.68l-1,.34q-.69.51,0,1.68C31.15,197.37,31.61,197,32,196.92Z"/><path class="cls-1" d="M356,336.18c.46-.34.46-.9,0-1.68l-1,.34q-.69.51,0,1.68C355.08,336.86,355.66,336.29,356,336.18Z"/><path class="cls-1" d="M27.13,165.82c-.12-.89-.47-1.34-1-1.33l-1,.34c.11.89.46,1.34,1,1.34Z"/><path class="cls-1" d="M33.49,163c-.12-.33-.35-1-.35-1-.93.11-1.39.45-1.39,1l.35,1A1.09,1.09,0,0,0,33.49,163Z"/><path class="cls-1" d="M30.11,153.83c-.12-.33-.35-1-.35-1-.93.11-1.39.45-1.39,1l.35,1C29.65,154.73,30.11,154.39,30.11,153.83Z"/><path class="cls-1" d="M27.88,142.43l-.35-1c-.92.12-1.39.46-1.39,1,.12.33.35,1,.35,1C27.42,143.32,27.88,143,27.88,142.43Z"/><path class="cls-1" d="M370.85,307.23q.7-.51,0-1.68l-1,.34q-.69.51,0,1.68C370.05,307.68,370.51,307.34,370.85,307.23Z"/><path class="cls-1" d="M376.3,309c-.47.34-.46.9,0,1.68l1-.34q.69-.51,0-1.68C377.11,308.54,376.64,308.88,376.3,309Z"/><path class="cls-1" d="M37.25,141.6c-.46.33-.46.89,0,1.67l1-.34c.47-.33.46-.89,0-1.67Z"/><path class="cls-1" d="M389,311.16c.35.45.92.45,1.73,0,0,0-.23-.67-.35-1-.34-.45-.92-.44-1.73,0C388.68,310.16,388.91,310.83,389,311.16Z"/><path class="cls-1" d="M43.73,141.34c-.24-.11-.58,0-1,.34a.92.92,0,0,0-.58.56c.12.9.47,1.34,1.16,1.12s1.39-.46,1.27-1.35C44.77,141.56,44.07,141.23,43.73,141.34Z"/><path class="cls-1" d="M33.51,129.35c.93-.12,1.39-.45,1.39-1l-.35-1c-.92.12-1.39.46-1.39,1C33.05,128.57,33.17,128.9,33.51,129.35Z"/><path class="cls-1" d="M47.43,141.43s-.12-.89-.35-1a2.62,2.62,0,0,0-1.62.34c-.92.68-.69,1.35.47,1.34C46.16,142.22,46.74,141.66,47.43,141.43Z"/><path class="cls-1" d="M54.52,110.17c-.23-.11-.58,0-1,.34a1,1,0,0,0-.58.56c.12.9.47,1.34,1.16,1.11s1.39-.45,1.27-1.35C55.22,110.5,54.75,110.28,54.52,110.17Z"/><path class="cls-1" d="M56.48,108.59l-1,2c1.73.55,2.08.44,3.12-1Z"/><path class="cls-1" d="M56.94,107.69c.12-.22,0-.56-.35-1a.89.89,0,0,0-.58-.56c-.92.12-1.38.46-1.15,1.13s.47,1.34,1.39,1.22C56.6,108.37,56.83,107.92,56.94,107.69Z"/><path class="cls-1" d="M43.12,114.89q-.52-.67-1.74,0s.24.68.35,1c.35.45.93.44,1.74,0C43.58,115.67,43.23,115.22,43.12,114.89Z"/><path class="cls-1" d="M374.06,250.91c-.46.34-.46.9,0,1.68l1-.34c.46-.34.46-.9,0-1.68C374.87,250.46,374.41,250.8,374.06,250.91Z"/><path class="cls-1" d="M372.9,247l-2.09-1c-.57,1.68-.34,2.35.47,2.46A1.72,1.72,0,0,0,372.9,247Z"/><path class="cls-1" d="M375.44,246.54s-.12-.9-.35-1c-.58,0-1.39-.1-1.62.35-.92.67-.69,1.34.47,1.34A2.65,2.65,0,0,0,375.44,246.54Z"/><path class="cls-1" d="M377.63,242.27c-.12-.33-.35-1-.35-1-.93.11-1.39.45-1.39,1l.35,1C377.17,243.17,377.63,242.83,377.63,242.27Z"/><path class="cls-1" d="M63.14,89.42c-.11-.34-.35-1-.35-1q-1.38.18-1.38,1c.12.33.35,1,.35,1C62.68,90.31,63.15,90,63.14,89.42Z"/><path class="cls-1" d="M377.61,237.24s-.11-.9-.34-1c-.58,0-1.39-.1-1.62.34-.93.68-.69,1.35.46,1.35A2.72,2.72,0,0,0,377.61,237.24Z"/><path class="cls-1" d="M63.35,81.13l-1,.34c.12.9.47,1.35,1,1.34l1-.34C64.28,81.58,63.93,81.13,63.35,81.13Z"/><path class="cls-1" d="M71.33,78.52q.69-.51,0-1.68l-1,.34c-.46.34-.46.9,0,1.68C70.52,79,71,78.63,71.33,78.52Z"/><path class="cls-1" d="M80.58,77.91l.35,1c.93-.12,1.39-.46,1.39-1-.12-.33-.35-1-.35-1A1.09,1.09,0,0,0,80.58,77.91Z"/><path class="cls-1" d="M73.62,67.87c-.35-.44-.93-.44-1.74,0l.35,1c.35.44.93.44,1.74,0C74.2,69,73.73,68.21,73.62,67.87Z"/><path class="cls-1" d="M376.51,213.51s-.12-.89-.35-1a2.64,2.64,0,0,0-1.62.34c-.92.68-.69,1.35.47,1.34C375.36,214.08,375.82,213.74,376.51,213.51Z"/><path class="cls-1" d="M399.78,219.89q.69-.51,0-1.68l-1,.34q-.69.51,0,1.68C398.63,220.45,399.32,220.22,399.78,219.89Z"/><path class="cls-1" d="M405,221.54c-.46.34-.46.9,0,1.68l1-.34c.46-.34.46-.9,0-1.68Z"/><path class="cls-1" d="M386.79,205.29q-.69.51,0,1.68l1-.34q.69-.51,0-1.68C387.71,204.61,387.13,205.18,386.79,205.29Z"/><path class="cls-1" d="M86.43,58.63c-.35-.45-.92-.44-1.73,0,0,0,.23.67.35,1,.35.45.92.45,1.73,0C86.9,59.41,86.55,59,86.43,58.63Z"/><path class="cls-1" d="M382.84,200.61c-.11-.34-.35-1-.35-1q-1.38.18-1.38,1c.11.33.35,1,.35,1A1.14,1.14,0,0,0,382.84,200.61Z"/><path class="cls-1" d="M374.35,181.18s-.12-.9-.35-1c-.58,0-1.39-.1-1.62.34-.93.68-.69,1.35.47,1.35C373.08,182,373.89,181.51,374.35,181.18Z"/><path class="cls-1" d="M390.56,188.37l-1,.34c.12.89.47,1.34,1.05,1.34l1-.34C391.49,188.81,391.14,188.37,390.56,188.37Z"/><path class="cls-1" d="M384.53,181.57c.46-.34.46-.89,0-1.68l-1,.35c-.46.33-.46.89,0,1.67C383.72,182,384.18,181.69,384.53,181.57Z"/><path class="cls-1" d="M411.86,193.52l-1,.34c.12.9.47,1.34,1.05,1.34l1-.34C412.79,194,412.44,193.52,411.86,193.52Z"/><path class="cls-1" d="M378.15,174.33l2.08,1c.58-1.69.34-2.36-.47-2.46A1.6,1.6,0,0,0,378.15,174.33Z"/><path class="cls-1" d="M386.25,176l-1,.34c.12.89.46,1.34,1,1.34l1-.35C387.18,176.41,386.83,176,386.25,176Z"/><path class="cls-1" d="M117.85,40.67c-.11-.89-.46-1.34-1-1.34l-1,.35c.12.89.47,1.34,1,1.33C117,41.12,117.51,40.79,117.85,40.67Z"/><path class="cls-1" d="M112.39,32.19l-1,.34c.12.9.47,1.35,1.05,1.34l1-.34A1.13,1.13,0,0,0,112.39,32.19Z"/><path class="cls-1" d="M124.31,33.14s-.12-.89-.35-1c-.57,0-1.39-.1-1.62.35-.92.67-.69,1.35.47,1.34C123,33.93,123.85,33.48,124.31,33.14Z"/><path class="cls-1" d="M369.63,147.06c-.23-.11-.58,0-1,.34a1,1,0,0,0-.58.57c.12.89.47,1.34,1.16,1.11s1.39-.45,1.27-1.35A.63.63,0,0,0,369.63,147.06Z"/><path class="cls-1" d="M134.72,32.53c-.34-.45-.92-.45-1.73,0,0,0,.23.67.35,1,.34.45.92.44,1.73,0C135.19,33.31,134.84,32.86,134.72,32.53Z"/><path class="cls-1" d="M373.1,147s-.12-.89-.35-1a2.64,2.64,0,0,0-1.62.34c-.92.68-.69,1.35.47,1.34A2.58,2.58,0,0,0,373.1,147Z"/><path class="cls-1" d="M139.93,33.62q.69-.51,0-1.68l-1,.34q-.69.51,0,1.68Z"/><path class="cls-1" d="M377.23,132.81c-.35-.45-.93-.44-1.74,0,0,0,.24.67.35,1,.35.45.93.45,1.74,0C377.58,133.81,377.35,133.14,377.23,132.81Z"/><path class="cls-1" d="M164.8,30.69s.92-.11,1-.34c0-.56.11-1.34-.35-1.56-.7-.89-1.39-.67-1.39.45C164,29.47,164.45,30.25,164.8,30.69Z"/><path class="cls-1" d="M163.39,25c-.57,1.69-.45,2,1.05,3C165,26.33,164.9,26,163.39,25Z"/><path class="cls-1" d="M163.85,24.1c.12-.23,0-.56-.35-1a.92.92,0,0,0-.57-.56c-.93.12-1.39.46-1.16,1.13s.47,1.34,1.39,1.22C163.39,25,163.74,24.32,163.85,24.1Z"/><path class="cls-1" d="M172.43,28.19c.11-.22,0-.56-.35-1a.94.94,0,0,0-.58-.56c-.93.12-1.39.46-1.16,1.13s.47,1.34,1.39,1.22C172.2,29.2,172.31,28.42,172.43,28.19Z"/><path class="cls-1" d="M397,128.57c.35.44.93.44,1.74,0,0,0-.24-.67-.35-1-.35-.44-.93-.44-1.74,0C396.65,127.56,396.89,128.23,397,128.57Z"/><path class="cls-1" d="M408,127.39q-.69.51,0,1.68l1-.34q.69-.51,0-1.68C408.8,126.94,408.33,127.28,408,127.39Z"/><path class="cls-1" d="M178.29,12.27q-.71.51,0,1.68l1-.34c.46-.34.46-.9,0-1.68Z"/><path class="cls-1" d="M330.26,85.48c-.12-.9-.47-1.34-1.05-1.34l-1,.34c.12.9.47,1.34,1,1.34C329.56,85.71,329.68,85.48,330.26,85.48Z"/><path class="cls-1" d="M385.85,111.5l-.35-1c-.92.12-1.39.46-1.38,1,.11.33.35,1,.35,1C385.39,112.4,385.85,112.06,385.85,111.5Z"/><path class="cls-1" d="M407.15,116.09c-.35-.45-.93-.44-1.74,0,0,0,.24.67.35,1,.35.44.93.44,1.74,0Z"/><path class="cls-1" d="M220.78,26.16l1-.35c-.12-.89-.47-1.34-1-1.33l-1,.34C219.85,25.71,220.2,26.16,220.78,26.16Z"/><path class="cls-1" d="M388.73,105.89q.69-.51,0-1.68l-1.05.34c-.46.34-.46.9,0,1.68C387.57,106.45,388.38,106,388.73,105.89Z"/><path class="cls-1" d="M243.82,32.42c-.24-.11-.58,0-1,.34a.93.93,0,0,0-.57.56c.12.9.46,1.34,1.16,1.12s1.38-.46,1.27-1.35C244.74,32.86,244.28,32.64,243.82,32.42Z"/><path class="cls-1" d="M247.52,32.51s-.12-.89-.35-1a2.62,2.62,0,0,0-1.62.34c-.92.68-.69,1.35.46,1.34C246.25,33.3,247.06,32.85,247.52,32.51Z"/><path class="cls-1" d="M325.71,71.29s.92-.12,1-.34a2.56,2.56,0,0,0-.35-1.57c-.7-.89-1.39-.66-1.39.46C324.78,70.28,325.36,70.84,325.71,71.29Z"/><path class="cls-1" d="M387.44,100.52c.35.45.93.44,1.74,0,0,0-.23-.67-.35-1-.35-.45-.93-.45-1.74,0C387,99.74,387.33,100.19,387.44,100.52Z"/><path class="cls-1" d="M383.27,95.73c.46-.34.46-.9,0-1.68l-1,.34c-.46.34-.46.9,0,1.68Z"/><path class="cls-1" d="M411.76,109.35l.35,1q1.39-.18,1.38-1c-.11-.33-.35-1-.35-1A1.14,1.14,0,0,0,411.76,109.35Z"/><path class="cls-1" d="M400.17,101c.12.33.35,1,.35,1,.93-.12,1.39-.45,1.38-1-.11-.34-.35-1-.35-1Q400.17,100.18,400.17,101Z"/><path class="cls-1" d="M297.42,47.7c-.23-.11-.58,0-1,.34a1,1,0,0,0-.58.57c.12.89.47,1.34,1.16,1.11s1.39-.46,1.27-1.35C298.34,48.15,297.88,47.92,297.42,47.7Z"/><path class="cls-1" d="M367.93,53.65q-.69.51,0,1.68L369,55c.46-.34.45-.9,0-1.68Z"/><path class="cls-1" d="M408.84,99.29c-.46.34-.46.9,0,1.68l1-.34c.46-.34.46-.9,0-1.68A1.94,1.94,0,0,1,408.84,99.29Z"/><path class="cls-1" d="M375.45,54.73c-.46.34-.46.9,0,1.68l1-.34c.46-.34.46-.9,0-1.68Z"/><path class="cls-1" d="M328.33,58.29c-.46.34-.46.9,0,1.68l1-.34c.46-.34.46-.9,0-1.68C329.49,57.72,329,58.06,328.33,58.29Z"/><path class="cls-1" d="M314.32,50.19c.34.45.92.44,1.73,0,0,0-.23-.67-.35-1-.35-.45-.93-.45-1.74,0Z"/><path class="cls-1" d="M372.08,74.79c-.11-.89-.46-1.34-1-1.34l-1,.34c.12.9.47,1.34,1.05,1.34C371.39,75,371.51,74.79,372.08,74.79Z"/><path class="cls-1" d="M400.47,81.87c-.35-.44-.93-.44-1.74,0l.35,1c.35.44.93.44,1.74,0C400.82,82.88,400.58,82.21,400.47,81.87Z"/><path class="cls-1" d="M331,48.75s.92-.12,1-.34a2.43,2.43,0,0,0-.36-1.57c-.69-.89-1.38-.66-1.38.46A5.55,5.55,0,0,0,331,48.75Z"/><path class="cls-1" d="M197.3,15.21c-.46.34-.46.9,0,1.68l1-.34c.46-.34.46-.9,0-1.68Z"/><path class="cls-1" d="M303.17,33.12c-.12-.33-.35-1-.35-1-.93.11-1.39.45-1.39,1l.35,1C302.7,34,303.17,33.68,303.17,33.12Z"/><path class="cls-1" d="M331.1,45.17c.12-.23,0-.56-.35-1a.92.92,0,0,0-.58-.55c-.92.11-1.38.45-1.15,1.12s.46,1.34,1.39,1.22C330.87,46.18,331.1,45.73,331.1,45.17Z"/><path class="cls-1" d="M350.23,87.9l-1,.34c.12.9.46,1.34,1,1.34l1-.34C351.16,88.35,350.81,87.9,350.23,87.9Z"/><path class="cls-1" d="M382.07,77.1c.12.33.35,1,.35,1,.93-.11,1.39-.45,1.39-1-.12-.33-.35-1-.35-1C382.53,76.2,382.07,76.54,382.07,77.1Z"/><path class="cls-1" d="M391.33,78.17c-.12-.33-.35-1-.35-1-.93.11-1.39.45-1.39,1l.35,1C390.87,79.07,391.33,78.73,391.33,78.17Z"/><path class="cls-1" d="M348,74.26l-.35-1c-.93.12-1.39.46-1.39,1,.12.33.35,1,.35,1A1.15,1.15,0,0,0,348,74.26Z"/><path class="cls-1" d="M357.26,77c.46-.34.46-.9,0-1.68l-1,.34c-.46.34-.46.9,0,1.68Z"/><path class="cls-1" d="M222,1.35c.35.44.93.44,1.74,0,0,0-.24-.67-.35-1-.35-.44-.93-.44-1.74,0C221.61.34,221.85,1,222,1.35Z"/><path class="cls-1" d="M358.17,63.11q-.69.51,0,1.68l1-.34c.47-.34.46-.9,0-1.68Z"/><path class="cls-1" d="M333.87,8.68c-.34-.45-.92-.45-1.73,0,0,0,.23.67.35,1,.35.45.93.44,1.73,0C334.34,9.46,334,9,333.87,8.68Z"/><path class="cls-1" d="M359.94,21.42l-.35-1c-.93.12-1.39.46-1.39,1l.35,1C359.48,22.31,359.94,22,359.94,21.42Z"/><path class="cls-1" d="M339.26,40.93c-.12-.33-.35-1-.35-1-.93.12-1.39.46-1.39,1,.12.33.35,1,.35,1C338.91,42.16,339.14,41.71,339.26,40.93Z"/><path class="cls-1" d="M266.08,8.69,265,9c.12.89.47,1.34,1,1.34l1-.34A1.06,1.06,0,0,0,266.08,8.69Z"/><path class="cls-1" d="M269.89,4.08c.46-.34.46-.9,0-1.68l-1,.34c-.46.34-.46.9,0,1.68Z"/><path class="cls-1" d="M276.83,3.48l-1,.35c.11.89.46,1.34,1,1.33l1-.34C277.75,3.93,277.41,3.48,276.83,3.48Z"/><path class="cls-1" d="M139.87,10.68l-1,.34c.12.89.47,1.34,1,1.33l1-.34A1.05,1.05,0,0,0,139.87,10.68Z"/><path class="cls-1" d="M290.65,24.34c.35.45.92.45,1.73,0,0,0-.23-.68-.35-1-.35-.45-.92-.44-1.73,0C290.07,23.23,290.53,24,290.65,24.34Z"/><path class="cls-1" d="M338.64,26.94q.69-.51,0-1.68l-1,.34q-.69.51,0,1.68C337.49,27.51,338.29,27.06,338.64,26.94Z"/><path class="cls-1" d="M322,25.64c-.11-.34-.35-1-.35-1q-1.38.18-1.38,1c.11.33.35,1,.35,1C321.66,26.87,321.89,26.42,322,25.64Z"/><path class="cls-1" d="M318,38l-.34-1c-.93.11-1.39.45-1.39,1l.35,1C317.52,38.87,318,38.53,318,38Z"/><path class="cls-1" d="M190.64,5c-.46.34-.46.9,0,1.68l1-.34c.46-.34.46-.9,0-1.68Z"/><path class="cls-1" d="M353,83.63c-.23-.11-.57,0-1,.35a.9.9,0,0,0-.57.56c.12.89.46,1.34,1.16,1.11s1.38-.45,1.27-1.35C353.92,84.08,353.23,83.75,353,83.63Z"/></svg>