<svg id="Layer_1" data-name="Layer 1" xmlns="http://www.w3.org/2000/svg" viewBox="0 0 184 165"><defs><style>.cls-1,.cls-2{fill:#f4decc;}.cls-2{fill-rule:evenodd;}</style></defs><path class="cls-1" d="M158.57,81.33c4.58,43.81-32.06,76.66-68.69,70.41s-74.51-24-68.69-70.41,21-62.43,62.32-71.09S154,37.52,158.57,81.33Z"/><path class="cls-1" d="M158.23,102.43c.48-.51.69-.89,1-.8.93.17,1.83.43,2.56.54.84.47-.23,1.54,1.37,1.24,0,0-.11-.75.28-1,.72.54.49-.18,1.31.39.51-.28-.85-.86-.33-1.15a3.31,3.31,0,0,1,.54-.89c.34-.44-1.71-2.22-1.24-2,.8.24-.38-2.7.42-2.46.3.09.44,1,.74,1.06l.9-.5c.5.15-1.84-3.77-1-3.54.14.26.45.68.67,1.07,1,.07.53-1.48,1.82-1.42,2.5.74-1.23,1.25,1.47,2,.21.39,1-1.1,1.18-.71.6.18-.27,1.32.23,1.47.49-.18.68-.87,1.07-1.08,1,1.59-.32-1.3,1.36-2.23.42-.92-1.61-.64-3-1.5-.14-.26,1.37-.75,1.16-1.14a3.69,3.69,0,0,0-.91-1.6,3.45,3.45,0,0,0-4.42-.11c-.36.12-.75.33-1.23.51-.14-.26-.42-.45-.36-.65a7.64,7.64,0,0,1,.4-1.41.85.85,0,0,0-.27-1l-1.9-.56c-.88.07-.53,1.48-1.51,1.52-.08-.13-.25-.29-.22-.39.16-.94.42-1.84.58-2.78.41-.31.8-.52,1.21-.84a3.14,3.14,0,0,1,.36-.87A9.94,9.94,0,0,0,163.6,81c-.07-.9-1.47-.55-1.51-1.54l.39-.21a1.74,1.74,0,0,0,.57-.49.72.72,0,0,0-.59-.61.64.64,0,0,1-.71-.54c0-.23.11-.4.5-.61s.7-.56.83-1.39c-.48-.58-1-1.29-1.43-1.84.41-1.41.67-2.31.92-3.22.32-.34.65-.35.79-.09l.79,1.43c-.09.3-.13.83-.25,1.23s0-.66.39-.21c.38-.21.4.12.78-.09.4.11.53.44,1.1,0a11.18,11.18,0,0,1-.66-1.47c.51-.29-.67-1.83-.16-2.12.6.18,1.72-.35,2.42-.14-1.67-2.53-2.49-2.64-2.18-2.22-.47-.63-.48-1.72,1.32-1.19.21.39.06-.5-.62-1.23.59.18-1.59-1.52-1-1.34,1.17-1,2.33,2.26,2.26.67-.35.11.83-.61.34-.43-.5-.15.48-1.43-.12-1.61-.49.18-.68-1.26-1.2-1-.9-.26.87-1.16,0-1.42-.21-.39-.9.06-1.12-.33-1.5-.45,2.3-.74.8-1.19-.32-.42-1.32.05-1.6-.47-2.2-.65-1,1.13-3.08.51-.51-.48-.17-.92-.12-1.45a10.72,10.72,0,0,0,1.18-.74c.13-.08.09-.31.15-.51l-1.4-.41a9.25,9.25,0,0,1-1.26.61,7.59,7.59,0,0,0-.67-1.07,8.71,8.71,0,0,0-1.26.61c-1.17-.45-1.27-.48-.93-1.69.77-.43,1.58-1,2.35-1.38.13-.07.09-.3.12-.4L158.3,51a16.79,16.79,0,0,0-.92-1.69,5,5,0,0,0-.2-1.58l-.77.42c-.26.15-.43,0-.65-.4a3.17,3.17,0,0,0-.55-.71c-.5-.15-1.07-.43-1-.83s.82-.2,1.25-.18c.2.06.71-.22.64-.35,0-.33-.29-.52-.59-.61-.87-.37-.84-.47-.68-1.4,0-.1,0-.33,0-.43l-.93-1.7c-.07-.13-.3-.08-.4-.11a.69.69,0,0,1-.53.71c-.36.11-.47-.25-.31-1.18,0-.1-.06.2-.06.2a.65.65,0,0,1-.64-.41c-.15-.26-.09-.46.37-.54.1,0,.17.16.27.19a1.2,1.2,0,0,1,.16.59,1.55,1.55,0,0,0,.84.47,6.09,6.09,0,0,0,.37-1.31c.06-.2-.25-.62-.45-.68a17.29,17.29,0,0,0-2.2-.65.72.72,0,0,1-.53.72c-.36.11-.48-.25-.37-1l-1.41-.41c-.28-.52-.54-1.14-.89-1.79l.72-2.51a3.54,3.54,0,0,0-1.17-2c-.88.4-.53,1.48-1,2a10.63,10.63,0,0,1,.69,1.4c-.09.3-.17.6-.26.9-1,.47-1.93,1.07-2.94,1.54-.14-.26-.38-.55-.32-.75.33-1.54.76-3.05,1.19-4.56,0-.1-.14-.26-.21-.39a8.21,8.21,0,0,1-1.26.61c-.13.07-.3-.09-.4-.12a.69.69,0,0,1-.53.72c-.36.11-.47-.25-.37-1l-.9-.27c-.12.41-.26.91-.38,1.31,0,.1-.15.17-.28.24s-.26.15-.33,0-.24-.29-.21-.39c0-1.1.27-1.34,1.23-1.28a.67.67,0,0,0-.07-.89c-.42-.45-1.2-.35-1.3-1.15.08-.3.17-.6.23-.8a7.12,7.12,0,0,0,1.08-.77c-.12-.69-.68-.64-1.28-.82-.51.29-1.06.67-1.83,1.1-.32.34-.05,1.29-.75,1.85-.13.07-.26.14-.36.11a.47.47,0,0,1-.21-.39,3.18,3.18,0,0,1,.19-1,16,16,0,0,1-.83-1.66,12.79,12.79,0,0,0-2.64-1,5.15,5.15,0,0,1-1.13-1.75c0-.66,0-1.1-.07-1.66-.9.5-1.77.9-2.54,1.32-.43-.78-.79-1.43-1.14-2.08a.46.46,0,0,0-.69.13c-.13.07-.09.3-.14.5a.68.68,0,0,1-.53.72c-.33,0-.52-.48-.35-1.09s.26-.9.41-1.4a3,3,0,0,0,.15-.94l-.92-1.69c-1,.24-.7,1.32-1.11,2-.25.15-.44.42-.7.56-.93.6-1.93,1.07-3,1.63-.39.22-.51.29-.79.1a.71.71,0,0,1-.07-.89l.12-.41a2.51,2.51,0,0,0,1.55-1.61l.9-.5a3.17,3.17,0,0,0,.6-2.11c-.07-.13-.08-.46-.18-.49l-2.3-.68c-.09.3-.18.6-.26.91a.66.66,0,0,1-.53.71c-.23,0-.38-.22-.59-.61l-.21-.39c-1.06-.09-.61,1.35-1.49,1.42a9.55,9.55,0,0,0-.74-1.2l-4.1-1.21a.7.7,0,0,1-.53.71,1.3,1.3,0,0,1-1.2-.35.65.65,0,0,1-.07-.89c-.1,0-.28-.19-.41-.12a20.2,20.2,0,0,0-1.8,1c-.13.07-.08.3-.11.4l1.3.39c.42.78.42.78.18,1.25s-.4.65-1,.57a1.25,1.25,0,0,1-1-.83c.12-.4.26-.9.38-1.3-.2-.06-.43,0-.5-.15a10.88,10.88,0,0,0-.74-1.2l-1.68.92a9.4,9.4,0,0,1,.62,1.27,1,1,0,0,1-1.56-.24,3.38,3.38,0,0,0-1.27-1.25c-.4-.11-.56-.71-.32-1.18a.85.85,0,0,0-.27-.95l-2.6-.77a.46.46,0,0,0-.57.49c0,.1.14.26.21.39l1.81.53c.39.88.39.88-.32,2.63-.32.34-.62.26-.6-.18s.17-.6.05-1-.22-.72-.32-.75a.7.7,0,0,0-.61.58c-.51,1-.51,1-1.31.82l-1.3-.39L98,15.54c-.6-.94-.9-1-1.87-.66-.36.11-.51.28-.79.1a.91.91,0,0,1-.07-.9c.18-.6,0-.86-.54-1.14a1,1,0,0,0-1.27.28c-.19.27-.17.6-.36.88,0,.1-.26.14-.41.31l-1.9-.56a4,4,0,0,1-.65-1.17c-.88.06-.63,1.45-1.51,1.51l-.9-.26c-.69-.64.33-1.54-.49-2.11l-3,1.64-.4,1.4a.54.54,0,0,1,.61.51c.53.05.45.35.39.55s-.27.58-.6.59c-.1,0-.42-.45-.36-.65a5.94,5.94,0,0,1,.37-1.31c-.2-.06-.43,0-.5-.15a10.88,10.88,0,0,1-.74-1.2l-2.8-.82c-.13.07-.48.18-.39.21.15.26.16.59.36.65a6.26,6.26,0,0,0,1.4.41.72.72,0,0,1,.59.61c-.3.68-.13,1.6-.94,2.13-.81-.57-1-1.49-1.51-2.3a9.9,9.9,0,0,1-1.26.61l-1.4-.42-.37,1.31c0,.1-.16.17-.29.24s-.26.15-.33,0-.24-.28-.21-.39c0-1.09.27-1.33,1.23-1.27.22-.37.2-.7-.07-.89-.64-.41-1.41-.74-1.58-1.67l-1.3-.38a.87.87,0,0,0-.89.06,1.12,1.12,0,0,0-.44,1.18c.32.75.78,1.43,1.11,2.18-.26.15-.45.42-.65.36a11.1,11.1,0,0,1-1.7-.5c-.31-.42-.34-1.09-.87-1.13s-.53.71-.64,1.12c.21.39.4.88.61,1.27l-1.67.92a1.77,1.77,0,0,1-.3-.85,6.76,6.76,0,0,1,.4-1.41c.06-.2-.19-.49-.3-.85l-1.67.92a3.08,3.08,0,0,1-.36.88,8.8,8.8,0,0,0-1.19.74,2,2,0,0,0,0,1c0,.33-.26.14-.3-.09-.08-.46.17-.6.52-.28a1,1,0,0,1,.25.62s-.28.24-.47-.25-.51-.48-.58-.61l-.65-1.17c-.38.22-.87.4-1.13.54a10.62,10.62,0,0,1-.77-1.1c-.9.5-.63,1.45-1.06,2.2a15.66,15.66,0,0,1-1.64.82c-.55-.38-.56-1.47-1.67-1.36L57,17.07a9.68,9.68,0,0,0-.75-1.2c-.4-.11-.94-.49-1.31.05-.22.38.23.72.41,1.21-.46.85-1.46-.21-2.09.48-.08.3-.17.6-.31,1.11.45.68,1,1.38,1.37,2a3.56,3.56,0,0,1-.42,1.08,7.23,7.23,0,0,0-1.09.77l.93,1.69c.07.13.3.09.4.12a.55.55,0,0,1,.5-.62c.23,0,.53.05.86,0a.7.7,0,0,1,.58.61c0,.1-.44.41-.64.35a5.39,5.39,0,0,1-1.3-.38.76.76,0,0,1-.86.73,5,5,0,0,1-1.2-.36c-.12.41-.26.91-.37,1.31,0,.1-.16.17-.29.24s-.26.15-.33,0-.24-.29-.21-.39c0-1.1.27-1.34,1.23-1.28.06-.2.21-.37.14-.5a16.64,16.64,0,0,0-.92-1.69c-.26.14-.59.15-.65.35a7.16,7.16,0,0,0-.4,1.41c-.09.3-.27.58-.6.59-.22-.39-.53-.81-.74-1.2-.88.39-.82,1.72-1.94,1.83.22.39.4.88.62,1.27-.18.6-.35,1.2-.52,1.81-.39.21-.8.52-1.19.74-.4,1.41-.81,2.81-1.21,4.22-.08.3-.3.68-.6.59-.1,0-.41-.45-.36-.65,0-.44.26-.91-.15-1.36A17,17,0,0,0,42,33.15a3.93,3.93,0,0,1,.44,1.11c-.56.81-1.46-.21-2.09.47-.17.61-.35,1.21-.55,1.91-.61.26-.61.26-1.28-.81L37,36.68c-.71,1-.6,2.11-1.06,3l.64,1.17c-.32,1.1-.56,2.34-1,3.52-.14.5-.7.55-1.17.31a.63.63,0,0,0-.43,0l-.9.5a3.23,3.23,0,0,1-.86,0c-.6-.18-1.14-.55-1.84,0l-.26.91a8.9,8.9,0,0,1,1.13,2.51c-.45.41-.89.06-1.42,0-.52.28-1.06.67-1.7,1-.15.5-.32,1.11-.49,1.71-.42.32-.8.53-1.22.84A9.4,9.4,0,0,1,27,53.36c-.11.41-.26.91-.4,1.41l1.3.38c.1,0,.17.16.24.29s.15.26,0,.34-.29.24-.39.21c-1.09,0-1.33-.28-1.27-1.25l-.9-.26a.66.66,0,0,0-.89.06c-.15.17,0,.43.2.82l.22.39a2.66,2.66,0,0,1-1.58,1,6.45,6.45,0,0,1-1.77.13,7.79,7.79,0,0,1,.61,1.27,7.77,7.77,0,0,0-1.09.77l1.22,2.21a.82.82,0,0,1-1.08.34.93.93,0,0,0-.91.16,2.82,2.82,0,0,1-.36.88c.43.78.83,1.66,1.25,2.44-.44.41-.91.17-1.34.15a.9.9,0,0,0-.77.43,23.28,23.28,0,0,0-.75,2.61c.85,1.56.85,1.56-.16,2.46-.43,0-1-.5-1.29,0s.43.78.31,1.18a5.64,5.64,0,0,1-1,3.09c-.61.25-1.26-.15-1.86-.33a.68.68,0,0,0-.81.19c0,.1.28.52.45.68s.58.28.85.47c.1,0,.14.26.21.39l-.4,1.41a.78.78,0,0,1,.73.87,8.67,8.67,0,0,0-.19,1.8c0,.33-.26.14-.3-.09-.09-.46.17-.61.51-.29a1.05,1.05,0,0,1,.26.62s-.29.25-.47-.24a9.09,9.09,0,0,0-3-1.32c-.11.4-.26.9-.43,1.51.46.68,1,1.39,1.33,1.81A9,9,0,0,0,13.28,84q0,.49.81.57l-.2-.06a.64.64,0,0,1,.4-.64c.26-.15.46-.09.54.37,0,.1-.15.18-.18.28a1.12,1.12,0,0,1-.59.15,1.18,1.18,0,0,1-.73.66c-.59.15-1.2-.36-1.7.26l-.52,1.81c.22.39.4.88.61,1.27l-.25.9c.22.73,1,.73,1.58.91s.77.34.86.8c-.13.07-.29.24-.39.21A11.32,11.32,0,0,1,11.69,91c-.4-.12-.74.32-.89.83a1,1,0,0,0,.17.92c.39-.21.75-.33,1.13-.54a2.53,2.53,0,0,1,.33.75,22.46,22.46,0,0,1-.72,2.52l-1.8,1-1.4-.41c-.3.67-.56.81-1,.7a10.5,10.5,0,0,0-1.86-.33c-.33,0-.51.28-.53.71l3.2.95a.46.46,0,0,1,.23.72.47.47,0,0,1-.39.21l-.9-.27c-.25.15-.64.36-.7.56-.2.71-.73,1.42-.2,2.23A8.71,8.71,0,0,1,7.66,101l.9.27c.78-.1.71-1,1.13-1.31a.66.66,0,0,1,.89-.06c.11-.4.26-.91.37-1.31,0-.1.16-.17.29-.24s.25-.14.33,0,.24.29.21.39c0,1.09-.27,1.33-1.23,1.27-.06.2-.22.37-.15.5a18.86,18.86,0,0,0,.93,1.69c.3.09.57.28.87.37a9.25,9.25,0,0,1,1.26-.61,1.07,1.07,0,0,1-.13,1.6c-.19.27-.62.25-.8.52s-.49.95-.25,1.24a.84.84,0,0,0,.75.44,1,1,0,0,0,.32,0,6.58,6.58,0,0,1,1.33-.49c.59-.15,1.05.53,1,1.26a.7.7,0,0,1,.71.54c.11.36-.24.48-1,.37-.15.5-.26.9-.41,1.41a2,2,0,0,0,.56.71c.57.27,1.23.25,1.57.57.36.65.74,1.2,1,1.72-.14.5-.29,1-.4,1.41a.69.69,0,0,0,.88-.07c.45-.41.25-1.24,1.24-1.27l.7.21a3.17,3.17,0,0,1,.29.85c-.15.93-.41,1.84-.57,2.77,0,.1.14.26.21.39a10.6,10.6,0,0,1,1.26-.61c.13-.07.3.09.4.12a.55.55,0,0,1,.5-.62c.23,0,.53,0,.86,0a.72.72,0,0,1,.59.61c0,.1-.45.41-.65.35a5.39,5.39,0,0,1-1.3-.38c-.09.3-.17.6-.26.9a.73.73,0,0,0,.07.9c.17.16.4.11.69-.13s.51-.28.68-.12a.65.65,0,0,1,.07.89c-.08.3-.17.6-.25.91.67.3.81.56.7,1a10.44,10.44,0,0,0-.32,1.87c0,.33.28.52.71.53.15-.5.26-.9.43-1.51.26-.14.75-.32,1.13-.53.13-.08.09-.31.18-.61,0-.1-.06.2-.06.2a.63.63,0,0,1-.64-.41c-.15-.25-.09-.46.37-.54.1,0,.17.16.27.19a1.2,1.2,0,0,1,.16.59,3.55,3.55,0,0,0,1.34.62,4.8,4.8,0,0,1,1,2.25c-.24.47-.41,1.07-.66,1.55-.19.27-.51.28-.89.06-.14.51-.25.91-.4,1.41.29.52.67,1.07,1,1.72a6,6,0,0,0,2.93.76c.33,0,.51-.29.53-.72l-1.4-.41a17,17,0,0,0-.93-1.69c.5-.62,1-.37,1.62,0,0,.76,1.07,1.19.71,2.06l1.4.41c.07.13.24.29.21.39,0,.34-.07.64-.06,1s.16.59.3.85c.33.75.79,1.43,1.14,2.08.47.25.72-.22,1.18-.31.77.34,1.9-.2,2.18,1.08-.38.22-.67.46-1.06.67.14.26.19.49.29.52l3.7,1.09c.68.64-.23,1.57.48,2.11a4.05,4.05,0,0,1,1.23-.51l.93,1.69c-.09.3-.17.6-.26.91.9,1,.9,1,2.42.27a3.91,3.91,0,0,0,.77,1.1c.45-.08.67-.45.81-1,.06-.2.45-.41.7-.55l.93,1.69A5.22,5.22,0,0,0,48,142c.32.42.7,1,1.23,1.78-.1,0,.16-.17.34-.44s.06-1,.75-1.09a3.34,3.34,0,0,1,.88,1.46,5.89,5.89,0,0,1,.14,1.79c1-.37,1.61-1.06,2.52-1.22.42.45.07.89.06,1.32a.47.47,0,0,0,.21.39c.17.16.5.15.72-.22a11.61,11.61,0,0,0,.51-1.81c.83-.63,1.52,0,2.32.24.2.06.31.42.36.66a2.13,2.13,0,0,0-.81.52,2.7,2.7,0,0,0-.43.75.63.63,0,0,0,0,.43c.58.61.23,1.48.45,2.2a2.61,2.61,0,0,0,.89,1.46c.58-.15.63-.68.74-1.08-.21-.39-.4-.88-.61-1.27.89-.83,1.8.53,2.67.13s.25-2,1.42-2.31c.43.78,1,1.59,1.38,2.37l.9.27c.72.54-.43,1.51.49,2.1l1.67-.92c.13-.07.09-.3.2-.7,0-.11,0,.2,0,.2a.67.67,0,0,1-.65-.41c-.14-.26-.08-.46.38-.54.1,0,.17.15.27.18a1.13,1.13,0,0,1,.15.6c.22.39.55.37.73.1.35-.44.59-.92,1-1.46.29.52.53.81.82,1.33a8.9,8.9,0,0,0,1.6.47.92.92,0,0,0,1-.9l-.06.2a.63.63,0,0,1-.64-.4c-.14-.26-.08-.46.37-.55.1,0,.18.16.28.19a1.12,1.12,0,0,1,.15.59c.14.26.37.22.45.35.52.81.92,1.69,1.38,2.37,1.23.26,1.23.26,1.63-.39,0-.1.08-.3.14-.5a1.14,1.14,0,0,1,1.65-.06c.24.29.28.52.6.94a26.3,26.3,0,0,0,3.8,1.12c.58-.15.64-.36.3-.68s-.57-.27-.74-.43a1.81,1.81,0,0,1-.56-.71l3-1.64a.79.79,0,0,1,.11,1.13c.47,1,.73,1.63,1,2.15,1-.37.84-1.82,2.06-1.9a4,4,0,0,1,.38-1,14.37,14.37,0,0,0,1.58-.95c.6.18.6.18.37,1-.09.3-.17.61-.26.91l3.7,1.09c.15-.5.26-.91.4-1.41,0-.1.26-.14.39-.21l.3.09c.46.68.78,1.43,1.14,2.08a1.8,1.8,0,0,0,.7-.56,1.1,1.1,0,0,0,.13-.83c-.33-.75-.78-1.43-1.14-2.08a2.53,2.53,0,0,1,.75-.33,1.5,1.5,0,0,1,.87.37c.27.19.25.62.53.81a1.1,1.1,0,0,0,1.2.35l.9-.5a8.24,8.24,0,0,0,.77,1.1l.8.24c.78-.1.68-.89,1.13-1.3a.65.65,0,0,1,.89-.07c.08-.3.17-.6.26-.9a.88.88,0,0,1,1.28-.71l.9.26c.15-.5.26-.9.4-1.41,0-.1.26-.14.39-.21l.3.09a22.86,22.86,0,0,1,1.14,2.08c.56,0,.67-.46.82-1,.09-.3.44-.41.6-.58a9.55,9.55,0,0,0,.74,1.2,11.23,11.23,0,0,1,2.52-1.22,2.78,2.78,0,0,1,.84.46c.27.19.29.52.07.9a6.47,6.47,0,0,0,1.3.38c.33,0,.62-.25.58-.48a3.28,3.28,0,0,1-.43-.79c-.3-.85.3-1.43,1.23-1.27a.64.64,0,0,1,.53-.71.58.58,0,0,1,.43,0l1.5.45c1.3-.38,2.45-1.35,3.81-1.93l1.3.38.66-2.31,1.67-.93c1,.5-.33,1.54.61,2,.42-.32.93-.6,1.61-1.06l.69-2.41c.63-.69,1.31-.81,1.89-1.3.57,1-.16,1.7-.19,2.56.27.19.61.51.88.7a4.41,4.41,0,0,0,2.16-1.11c.15-.5.39-1-.05-1.32-.27-.19-.6-.18-.87-.37s-.39-.55-.23-.72l.38-.21a7.37,7.37,0,0,0,1.16-.64l1.9.56,1.22,2.21c.87.37,1.62,1.14,2.61.34.09-.3.17-.61.23-.81a10.8,10.8,0,0,1,1.19-.74c-.09-.46-.39-.55-.69-.64-.87-.36-1-.72-.68-1.4.09-.3.44-.41.6-.58l.9.26c.22.39.53.81.74,1.2l1.9.56,1.68-.92c-.22-.39-.4-.88-.61-1.27.08-.3.17-.6.25-.91.32-.34.65-.35.76,0,.36.65.79,1.43,1.14,2.08.39-.21.87-.4,1.26-.61.5.15,1,.2,1.19.79-.78.42-1.58.95-2.35,1.38.07.13.11.36.21.39,1.17.45,2.38.8,3.58,1.16.3.09.58-.16.88-.83l.09-.3c1.06-.67-.35-2.18,2.89-1.76.5.14.22-1.51-.39-1.69-.39.22-1.6-.35-2.06-.08-1,0-.1-1.06-1-1.22-.7-.21-1.16-1.22-1.92-1.23-.39.22-.12-1.89-.38-1.75-.1,0,.48-1.89.39-1.92-4.21-1.24,2.34-1.41-2-2.68-.24-.29,3.35-1.63,3.07-2.15l-2.7-.79a15.82,15.82,0,0,1-.93-1.7c.33-.77,1.29-.71,1.66-1.25l2,.59a6.24,6.24,0,0,1,.75-1.09,10.63,10.63,0,0,1-.69-1.4c.18-.6.35-1.21.55-1.91.52-.28,1.13-.54,1.78-.89a7.59,7.59,0,0,1,.67,1.07c1-.67,1.08-.77.3-2.2.3-.68,1.49-.66,1.35-1.68.77-.42,1.57-.95,2.44-1.35.09-.3.18-.6.29-1-.37-.22-.71-.54-1.08-.76a9.86,9.86,0,0,0-1.39.68c-.22-.39-.43-.78-.64-1.17s-.29-.52-.1-.79a.83.83,0,0,1,.88-.07c.67.31.83.14,1-.57.09-.3.18-.6.53-.71a.38.38,0,0,1,.33,0c.29.52.51,1.24,1.37,1.27a11.44,11.44,0,0,0,3.09-1.7c0-.33.08-.64.06-1s-.28-.52-.71-.53a.53.53,0,0,1-.5.61c-.23,0-.53,0-.86,0a.72.72,0,0,1-.59-.61c0-.1.45-.42.65-.36a5.9,5.9,0,0,1,1.3.39.54.54,0,0,1,.5-.62c.56,0,1.09,0,1.75,0-.26-1.38-1.65-.7-2.2-1.41l-.65-1.17a5,5,0,0,1-2.13.24c-.33,0-.14-.26.09-.3.46-.08.6.18.28.52a1,1,0,0,1-.61.25C157.89,102.87,157.75,102.61,158.23,102.43ZM56.6,20.11c-.26.9-.52,1.81-.77,2.71,0,.1-.26.15-.39.22s-.4-.12-.51-.48c.25-.91.51-1.81.77-2.72,0-.1.26-.14.39-.21S56.49,19.75,56.6,20.11Zm92.8,21.81a1.22,1.22,0,0,1,.54-1.91c.48.25,1.29.06,1.13,1A16.26,16.26,0,0,0,149.4,41.92ZM86.35,14.71c.8-.53,1.4-.35,1.9.56C87.35,15.77,86.75,15.59,86.35,14.71ZM93.78,16c-.13.07-.28.24-.38.21L92.5,16c-.1,0-.15-.26-.22-.39a.2.2,0,0,1,.09-.3c.34-.45,1.34-.15,1.5.44C93.94,15.86,93.81,15.93,93.78,16ZM79.72,148.62c.53.81.36,1.41-.54,1.91C78.68,149.62,78.85,149,79.72,148.62ZM159.61,57l-.4-.12-.21-.39c-.05-.23.11-.4.47-.51.13-.07.3.08.4.11a.7.7,0,0,1,.71.54C160.6,57,160.21,57.22,159.61,57ZM25.51,58.26c0,.23-.11.4-.47.52l-.21-.39c0-.24.11-.41.47-.52C25.33,57.77,25.47,58,25.51,58.26ZM15.36,102.48c.23,0,.4.12.52.48l-.39.21q-.35.06-.51-.48ZM32.22,47.7,32,47.31c0-.23.11-.4.47-.51,0,0,.14.26.22.39S32.58,47.59,32.22,47.7Zm18-19.56c0,.23-.11.4-.47.51l-.21-.39c0-.23.11-.4.47-.51ZM103.5,17.7l.39-.22q.35-.06.51.48l-.39.22Q103.79,18.44,103.5,17.7ZM67.57,146.34c.05.23-.11.4-.47.52l-.21-.39c0-.23.11-.4.47-.52C67.46,146,67.5,146.21,67.57,146.34ZM121.11,19.08l-.38.21c-.25-.29-.29-.52-.13-.69l.39-.22C121.23,18.67,121.27,18.91,121.11,19.08Zm10,7-.38.22c-.25-.29-.29-.52-.13-.7l.38-.21C131.27,25.67,131.31,25.9,131.15,26.07ZM139,31.12l.38-.21c.24.29.29.52.13.69l-.39.22C138.92,31.53,138.88,31.3,139,31.12ZM116.42,142.43q.35-.06.51.48l-.38.22c-.23,0-.4-.12-.52-.48ZM146.93,38.8c0-.23.11-.41.47-.52,0,0,.14.26.22.39s-.12.4-.48.52Z"/><path class="cls-1" d="M164.34,108.38c-.28-.52-.45-.68-.58-.61l-1.68.92c0,.23.16.59.26.62a25.34,25.34,0,0,0,2.7.8c1-.57.86-1.49,1-2.43-.33-.75-1-.52-1.61-.8a3,3,0,0,0-.11,1.5c0,.33-.25.14-.3-.09-.08-.46.17-.61.52-.29a1,1,0,0,1,.25.62C164.79,108.72,164.53,108.87,164.34,108.38Z"/><path class="cls-1" d="M142.93,140c-.14.5-.26.9-.4,1.4-.39.22-.8.53-1.19.74a1.45,1.45,0,0,0,.66.74c1,.53,1,.53.81,1.33-.12.4-.26.91-.38,1.31l.29.52c.1,0,.33,0,.36-.11a6.92,6.92,0,0,0,1-3.09,2.85,2.85,0,0,1-.45-2.21A.62.62,0,0,0,142.93,140Z"/><path class="cls-1" d="M2.9,107.75c-.92.16-.53,1.47-1.52,1.51L.48,109a.42.42,0,0,0-.38.21c-.16.17-.15.5.22.72a12.59,12.59,0,0,0,1.9.56c.12.36.33.75.52,1.24,1-.37.8-1.29,1.1-2C3.84,109,3.23,108.5,2.9,107.75Z"/><path class="cls-1" d="M5.15,98.38l-.12.4c-.34,1.21-.34,1.21-1.5,1.08a1,1,0,0,0-1.15,1,2.82,2.82,0,0,0,.33.75L4,102c.1-.74,1-.7,1.39-1.45a5.41,5.41,0,0,0,.37-1.3C5.89,98.81,5.7,98.32,5.15,98.38Z"/><path class="cls-1" d="M153.6,139.12a.52.52,0,0,0-.45.41,1.9,1.9,0,0,1-1.16,1.4.31.31,0,0,0-.15.18c.25.62.54,1.14.79,1.76l1.81-1a3.78,3.78,0,0,1,.38-1A8.66,8.66,0,0,1,153.6,139.12Z"/><path class="cls-1" d="M144.07,27.16c-.47-.25-.85,0-1.1.44a9.45,9.45,0,0,0-.46,1.61,8,8,0,0,1,.62,1.27c-.15.5-.26.9-.38,1.3l.9.27.66-2.31c-.21-.39-.4-.88-.61-1.27C143.82,28.06,143.93,27.66,144.07,27.16Z"/><path class="cls-1" d="M110.94,151.72l1.68-.92c.08-.3.17-.6.26-.91-.22-.39-.63-.84-.62-1.27s.07-.63-.38-.55c-.13.07-.36.11-.39.22a6.78,6.78,0,0,0-.89,3.11A.79.79,0,0,1,110.94,151.72Z"/><path class="cls-1" d="M7.34,113.09a8.06,8.06,0,0,1-1.06.67c-.39.21-.52.28-.47.51a.66.66,0,0,0,.71.54L7,115a6.66,6.66,0,0,0,1.06-.67l1,.29c.1,0,.26-.14.39-.21a.48.48,0,0,0-.13-.69Z"/><path class="cls-1" d="M122.68,144.06c-.14.51-.26.91-.4,1.41-.39.21-.81.53-1.19.74-.15.5-.39,1,.12,1.45.52-.28,1-.56,1.55-.85a2.93,2.93,0,0,0,.63-2.21A.66.66,0,0,0,122.68,144.06Z"/><path class="cls-1" d="M156.11,37.8l-.66,2.31c.8,1,.8,1,1.8.53-.21-.39-.33-.75-.54-1.14.25-.14.28-.24.51-.28s.62-.26.6-.59a.66.66,0,0,0-.71-.54A3.49,3.49,0,0,1,156.11,37.8Z"/><path class="cls-1" d="M77.45,10.56c-.12.4-.26.9-.37,1.3a1,1,0,0,0,1,.83c.63.08.86,0,1-.57.12-.4.12-.4-.18-1.25A7.43,7.43,0,0,1,77.45,10.56Z"/><path class="cls-1" d="M39.94,147c-1,.7-1,.7-.55,1.91l.9.27c1-.7,1-.7.55-1.91Z"/><path class="cls-1" d="M90.24,6c-.35.45-.66.79-.85,1.06,0,1,.66,1.5,1,2.36.34-.45.66-.79.84-1.06C91.12,7.5,90.51,7,90.24,6Z"/><path class="cls-1" d="M99.71,13.52c-.29-.52-.65-1.17-.93-1.69-.39.22-.83.63-1.23.51s-.63-.07-.55.39c.08.13.12.36.22.39a4.37,4.37,0,0,0,2.2.65A1.84,1.84,0,0,1,99.71,13.52Z"/><path class="cls-1" d="M57.7,155.08l-.51,1.81c-.06.2.31.42.38.55l1.67-.92a16.23,16.23,0,0,0-1-1.59C58.22,154.8,58,154.84,57.7,155.08Z"/><path class="cls-1" d="M130,20.28c.1.79.71,1.3.84,2,.82-.2.76-.76.87-1.16a10.78,10.78,0,0,1-.61-1.27c-.33-.75-.43-.78-.77-.34A2.08,2.08,0,0,0,130,20.28Z"/><path class="cls-1" d="M131.24,19.34l1.3.38a1,1,0,0,0,.81-1c.07-.63,0-.86-.57-1-.4-.12-.4-.12-1.24.18A8.66,8.66,0,0,1,131.24,19.34Z"/><path class="cls-1" d="M133.68,140.87c-.09.31-.17.61-.26.91a9.47,9.47,0,0,0-1.19.74c.83.9.83.9,1.83.43l.52-1.81c0-.1-.14-.26-.21-.39S133.89,140.5,133.68,140.87Z"/><path class="cls-1" d="M152.36,119.56l2.7.8c.1,0,.26-.14.38-.22s.12-.4-.22-.72l-2.7-.79c-.1,0-.26.14-.39.21S152.12,119.27,152.36,119.56Z"/><path class="cls-1" d="M174.86,84.11a1.11,1.11,0,0,0-1.51-.77,7.7,7.7,0,0,0-1.65.82c.33.75.8,1,1.52.77A7.62,7.62,0,0,0,174.86,84.11Z"/><path class="cls-1" d="M32.93,32.26c.88-.39,1-1,.55-1.91-.39.22-.8.53-1.19.74s-.51.29-.47.52a.66.66,0,0,0,.71.54C32.66,32.08,32.83,32.24,32.93,32.26Z"/><path class="cls-1" d="M6.3,90.54a6,6,0,0,0,.38-1.31c.05-.2-.22-.39-.36-.65l-1.55.85c.15.26.16.6.36.65A2.57,2.57,0,0,0,6.3,90.54Z"/><path class="cls-1" d="M5.1,93.24c-.88.39-1,1-.55,1.91.39-.22.8-.53,1.19-.74s.51-.29.47-.52a.64.64,0,0,0-.71-.53Z"/><path class="cls-1" d="M12.55,79.3A6,6,0,0,0,12.93,78c.06-.2-.22-.39-.36-.65L11,78.19c.14.26.15.6.35.65A2.61,2.61,0,0,0,12.55,79.3Z"/><path class="cls-1" d="M20.18,59.85l-.93-1.69c-.93-.17-.73.66-1,1.13A1.21,1.21,0,0,0,20.18,59.85Z"/><path class="cls-1" d="M45.17,23.28c-.86.73-.86.73-.51,1.81.52.05,1.11.66,1.47-.22A16.4,16.4,0,0,1,45.17,23.28Z"/><path class="cls-1" d="M24.48,122.18a.73.73,0,0,0,.34,1.08,14,14,0,0,0,2.1.62.73.73,0,0,0-.34-1.08Z"/><path class="cls-1" d="M71.14,11.75l-2.2-.65c-.2-.06-.38.21-.64.36,0,0,.11.36.21.39a3.91,3.91,0,0,0,2.13.51C71,12.35,71.06,12.05,71.14,11.75Z"/><path class="cls-1" d="M52.68,153.29c.4.88,1,1,1.9.56-.21-.39-.53-.81-.74-1.2s-.29-.52-.52-.48a.67.67,0,0,0-.53.72C52.86,153,52.74,153.09,52.68,153.29Z"/><path class="cls-1" d="M97,12.3A6.09,6.09,0,0,0,97.39,11c.06-.2-.21-.39-.35-.65l-1.55.85c.14.26.16.59.36.65A2.57,2.57,0,0,0,97,12.3Z"/><path class="cls-1" d="M103.57,10.63l.93,1.69c.93.17.73-.66,1-1.13A1.35,1.35,0,0,0,103.57,10.63Z"/><path class="cls-1" d="M71.9,151.33c-.53-.05-1-.5-1.29-.06s.23.72.34,1.08c.07.14.14.27.22.4l.21.39A1.19,1.19,0,0,0,71.9,151.33Z"/><path class="cls-1" d="M137.72,25.5c-1.28-.48-2-1.25-3.09-.58.23.72.88.69,1.46,1A1.55,1.55,0,0,0,137.72,25.5Z"/><path class="cls-1" d="M143,20.3c-.73-.87-.73-.87-1.8-.53,0,.53-.65,1.12.23,1.48C141.94,21,142.49,20.58,143,20.3Z"/><path class="cls-1" d="M153,32.84c.88-.4.95-1,.55-1.91-.39.21-.8.52-1.19.74s-.51.28-.47.51a.66.66,0,0,0,.71.54Z"/><path class="cls-1" d="M151.86,38.62c0-.1,0-.34.12-.41l1.16-.64a2.79,2.79,0,0,0-.36-.65,6.5,6.5,0,0,0-1.3-.38l-.55,1.91A2.59,2.59,0,0,1,151.86,38.62Z"/><path class="cls-1" d="M154.45,38.29c.59-.16.89-.83,1.66-.49,0-.1.19-.27.12-.4a1.16,1.16,0,0,0-1.39-.85c-.33,0-.7.56-.72,1A3.19,3.19,0,0,0,154.45,38.29Z"/><path class="cls-1" d="M159.89,43.93c-.87.39-1,1-.55,1.91.39-.21.8-.53,1.19-.74s.51-.29.47-.52a.64.64,0,0,0-.71-.53C160.16,44.12,160,44,159.89,43.93Z"/><path class="cls-1" d="M160.32,51.14a.7.7,0,0,0,.89-.06,4,4,0,0,0,.7-2.09c0-.1-.21-.39-.21-.39-.23,0-.59.16-.65.36A8.74,8.74,0,0,0,160.32,51.14Z"/><path class="cls-1" d="M167.1,50.2c.87-.4,1-1,.55-1.91-.39.21-.81.52-1.19.74s-.52.28-.48.51a.67.67,0,0,0,.72.54C166.83,50,166.9,50.14,167.1,50.2Z"/><path class="cls-1" d="M140.77,140.35a.69.69,0,0,0,.89-.07c.38-.21.73-.65,1.27-.27.1-.74,0-1-.44-1.12-.67-.3-1.16-.12-1.36.58A3,3,0,0,0,140.77,140.35Z"/><path class="cls-1" d="M166.44,78.68c.4.88,1,1.06,1.9.56-.22-.39-.53-.81-.74-1.2s-.29-.52-.52-.48a.67.67,0,0,0-.53.72C166.62,78.41,166.46,78.58,166.44,78.68Z"/><path class="cls-1" d="M157.52,117.05c.12-.4.26-.91.38-1.31-.47-1-.6-.94-1.65-.7C156.84,116.41,156.81,116.51,157.52,117.05Z"/><path class="cls-1" d="M157.9,119.13c.73.1,1,0,1.11-.44.33-.78.11-1.17-.59-1.37l-.9-.27c-.27.57.07.89.29,1.28A.59.59,0,0,1,157.9,119.13Z"/><path class="cls-1" d="M153.59,128.71c-.07-.89-.07-.89-1-2.15-.76.75-.79.86-.29,1.76Z"/><path class="cls-1" d="M155.15,128.19c-.59.15-.89.83-1.66.49,0,.1-.19.27-.11.4a1.15,1.15,0,0,0,1.38.85c.33,0,.7-.56.72-1A1.65,1.65,0,0,0,155.15,128.19Z"/><path class="cls-1" d="M162.07,128c.08.13.15.26.22.39s.4.12.71-.23c.18-.6.35-1.2.52-1.81l-.21-.39c-.18-.16-.4-.12-.72.23C162.42,126.78,162.25,127.39,162.07,128Z"/><path class="cls-1" d="M172.28,131c.11.36.25.62.51.48l.39-.22c.17-.6.34-1.2.52-1.81-.12-.36-.29-.52-.52-.47l-.39.21Z"/><path class="cls-1" d="M14.35,66.2c-.4-.88-1-1.06-1.9-.56A1.17,1.17,0,0,0,14.35,66.2Z"/><path class="cls-1" d="M5.15,98.38l.25-.91A6.81,6.81,0,0,0,4,97.06c-.42,0-.61.25-.47.51s.12.36.22.39Z"/><path class="cls-1" d="M8.75,96.39a6.12,6.12,0,0,0,.38-1.31c0-.2-.26-.62-.36-.65-.33,0-.52.28-.6.59a2.24,2.24,0,0,0,0,.86C8.05,96.18,8.32,96.37,8.75,96.39Z"/><path class="cls-1" d="M13.34,111.81a.69.69,0,0,0,.89-.07c.29-.24,0-.66-.63-.84l-.4-.11-.38.21q-.24.25.12.69C13,111.82,13.24,111.78,13.34,111.81Z"/><path class="cls-1" d="M15.87,112.44c.56,0,.85-1,.44-1.5a.2.2,0,0,0-.3-.09c-.56.05-.85,1.06-.44,1.51Z"/><path class="cls-1" d="M44.06,29.06c.18-.61,0-1.1-.37-1a.66.66,0,0,0-.53.71l-.11.4c.11.37.25.63.51.48s.36-.11.39-.21Z"/><path class="cls-1" d="M23.17,124.85c-.87.4-1,1-.54,1.91C23.53,126.26,23.7,125.66,23.17,124.85Z"/><path class="cls-1" d="M58.62,13.07a.69.69,0,0,0,.07.89c.34.32.75,0,.93-.6,0-.1.08-.3.11-.4l-.21-.39c-.17-.16-.4-.12-.69.13A.57.57,0,0,0,58.62,13.07Z"/><path class="cls-1" d="M63,8.37A5.9,5.9,0,0,0,61.7,8c-.2-.06-.62.26-.65.36a.72.72,0,0,0,.59.61,2.73,2.73,0,0,0,.86,0A.53.53,0,0,0,63,8.37Z"/><path class="cls-1" d="M64.56,4.46c.06.57,1.06.86,1.51.45a.2.2,0,0,0,.08-.3c-.05-.57-1.05-.86-1.5-.45Z"/><path class="cls-1" d="M65.64,13.18c.6.18,1.08,0,1-.37a.67.67,0,0,0-.72-.54l-.4-.12c-.35.12-.61.26-.47.52s.12.36.22.39Z"/><path class="cls-1" d="M69.41,7.2c.17-.6,0-1.09-.37-1a.65.65,0,0,0-.53.72l-.12.4c.11.36.26.62.51.48s.36-.11.39-.22Z"/><path class="cls-1" d="M77.45,10.56a6.09,6.09,0,0,0,.37-1.31c.06-.2-.25-.62-.35-.65-.33,0-.52.28-.6.59a2.24,2.24,0,0,0,0,.86A.54.54,0,0,0,77.45,10.56Z"/><path class="cls-1" d="M87.51,3.06l.09-.3a1,1,0,0,0-1.5-.45L86,2.62c.07.13.12.36.22.39l.9.26C87.23,3.3,87.38,3.13,87.51,3.06Z"/><path class="cls-1" d="M48.34,155.5c-.87.4-1,1-.55,1.91A1.28,1.28,0,0,0,48.34,155.5Z"/><path class="cls-1" d="M67.06,161c.88-.39,1-1,.55-1.91C66.71,159.61,66.54,160.21,67.06,161Z"/><path class="cls-1" d="M114.24,15.41a.69.69,0,0,0-.07-.89,1.3,1.3,0,0,0-1.2-.35.65.65,0,0,0-.53.71Z"/><path class="cls-1" d="M76.46,157.36l.09-.3a1,1,0,0,0-1.5-.44l-.09.3c.07.13.12.36.22.39l.9.26C76.18,157.6,76.33,157.43,76.46,157.36Z"/><path class="cls-1" d="M138.65,19.56c-.87.4-1,1-.54,1.91C139,21,139.18,20.37,138.65,19.56Z"/><path class="cls-1" d="M104.46,147.85a5.88,5.88,0,0,0-.38,1.3c0,.2.26.62.36.65a.68.68,0,0,0,.6-.58,2.51,2.51,0,0,0,0-.87C105.06,148,104.89,147.86,104.46,147.85Z"/><path class="cls-1" d="M144.07,27.16a5.6,5.6,0,0,0,1.31.38c.2.06.61-.25.64-.35,0-.33-.29-.52-.59-.61a2.41,2.41,0,0,0-.85,0A.55.55,0,0,0,144.07,27.16Z"/><path class="cls-1" d="M118.53,148c0-1-.19-1.25-1.28-1.25-.1,0-.25.15-.38.22s0,.23,0,.33.15.26.25.29Z"/><path class="cls-1" d="M118.27,148.87a6.07,6.07,0,0,0-1.3-.39c-.2,0-.62.26-.65.36a.72.72,0,0,0,.59.61,2.46,2.46,0,0,0,.86,0A.54.54,0,0,0,118.27,148.87Z"/><path class="cls-1" d="M151.41,36.41c.06-1-.18-1.25-1.27-1.25-.1,0-.26.15-.39.22s0,.23,0,.33.14.26.24.29Z"/><path class="cls-1" d="M120.88,157.16c-.39-.88-1-1.06-1.9-.56C119.48,157.51,120.08,157.69,120.88,157.16Z"/><path class="cls-1" d="M157.82,35.25a5.94,5.94,0,0,0,.37-1.31c.06-.2-.26-.62-.36-.65-.33,0-.51.28-.6.59a2.73,2.73,0,0,0,0,.86C157.19,35.17,157.49,35.26,157.82,35.25Z"/><path class="cls-1" d="M128.87,150.47c.4.88,1,1.06,1.9.56C130.27,150.12,129.67,149.94,128.87,150.47Z"/><path class="cls-1" d="M137.15,142l.09-.3a1,1,0,0,0-1.5-.45l-.09.31c.07.13.11.36.21.39l.9.26C136.86,142.25,137,142.08,137.15,142Z"/><path class="cls-1" d="M140.77,140.35c-1-.06-1.24.18-1.23,1.27,0,.1.14.26.21.39s.23,0,.33,0,.26-.14.29-.24A6.93,6.93,0,0,0,140.77,140.35Z"/><path class="cls-1" d="M140,146.68c.4.88,1,1.06,1.91.56A1.28,1.28,0,0,0,140,146.68Z"/><path class="cls-1" d="M158.33,114.24a.7.7,0,0,0,.88-.07c.29-.24,0-.66-.62-.84l-.4-.12-.39.22c-.16.17-.12.4.13.69Z"/><path class="cls-1" d="M156.8,136.57a.71.71,0,0,0,.07.9c.24.29.65,0,.83-.63l.11-.4-.21-.39q-.25-.24-.69.12C156.78,136.24,156.83,136.47,156.8,136.57Z"/><path class="cls-1" d="M153.71,131.69a6.54,6.54,0,0,0-.37,1.31c-.06.2.26.62.36.65.33,0,.51-.29.6-.59a2.73,2.73,0,0,0,0-.86A.55.55,0,0,0,153.71,131.69Z"/><path class="cls-1" d="M164.18,124.79c.06.57,1.06.86,1.5.45a.2.2,0,0,0,.09-.31c-.06-.56-1.06-.85-1.5-.44C164.14,124.56,164.21,124.69,164.18,124.79Z"/><path class="cls-1" d="M162.1,136.61c.88-.4,1.05-1,.55-1.91C161.75,135.2,161.57,135.8,162.1,136.61Z"/><path class="cls-1" d="M173.63,135c.87-.39,1-1,.55-1.9C173.27,133.58,173.1,134.19,173.63,135Z"/><path class="cls-1" d="M89,157.67c-.88.39-1,1-.55,1.91C89.28,159.18,89.46,158.58,89,157.67Z"/><path class="cls-1" d="M177.33,97.49c-.4-.88-1-1.06-1.9-.56A1.28,1.28,0,0,0,177.33,97.49Z"/><path class="cls-1" d="M175.39,111.85c.17-.6,0-1.09-.37-1a.65.65,0,0,0-.53.72l-.12.4c.12.36.26.62.52.48s.35-.11.38-.22C175.37,112.29,175.33,112.05,175.39,111.85Z"/><path class="cls-1" d="M12.1,60.71c.17.16.4.11.69-.13l-.22-.39c-.17-.16-.4-.12-.68.13Z"/><path class="cls-1" d="M2.59,89.12c.16-.18.11-.41-.13-.7l-.39.22c-.15.17-.11.4.13.69Z"/><path class="cls-1" d="M2.54,93.46c-.73-.1-.86,0-1.16.64C2.08,94.31,2.11,94.21,2.54,93.46Z"/><path class="cls-1" d="M2.94,93.58c.1,0,.23,0,.38-.21a.38.38,0,0,0,.19-.27c-.11-.36-.28-.52-.54-.38s-.52.28-.4.64C2.51,93.56,2.81,93.65,2.94,93.58Z"/><path class="cls-1" d="M9,76.18c.36-.11.52-.29.47-.52l-.21-.39c-.36.12-.52.29-.47.52S8.93,76.05,9,76.18Z"/><path class="cls-1" d="M1.23,107.91c.15-.18.11-.41-.13-.7l-.39.22c-.15.17-.11.4.13.69Z"/><path class="cls-1" d="M6.64,91.62s.36-.11.39-.21a1,1,0,0,0-.26-.62c-.34-.32-.6-.18-.51.28A2.28,2.28,0,0,0,6.64,91.62Z"/><path class="cls-1" d="M10.19,84.16c0-.1,0-.23-.22-.39a.38.38,0,0,0-.27-.19c-.36.12-.51.29-.37.55s.28.52.64.4C10.07,84.56,10.13,84.36,10.19,84.16Z"/><path class="cls-1" d="M4.72,103.27c.1-.74,0-.87-.64-1.17C4,102.83,4.05,103,4.72,103.27Z"/><path class="cls-1" d="M3.49,104.54s.12.36.22.39.55-.05.61-.25c.32-.35.17-.61-.28-.53C3.84,104.1,3.65,104.37,3.49,104.54Z"/><path class="cls-1" d="M1.5,113.77l-.21-.39c-.36.11-.52.28-.47.51l.21.39C1.49,114.2,1.55,114,1.5,113.77Z"/><path class="cls-1" d="M21.41,49.25l.38-.21q-.16-.54-.51-.48l-.39.21C21,49.13,21.18,49.29,21.41,49.25Z"/><path class="cls-1" d="M15.13,69.15c-.17-.15-.4-.11-.69.13l.22.39c.17.16.4.12.68-.12C15.37,69.44,15.2,69.29,15.13,69.15Z"/><path class="cls-1" d="M10.41,85.65s.36-.12.39-.22a1,1,0,0,0-.26-.62c-.34-.32-.6-.17-.51.29C10,85.2,10.24,85.49,10.41,85.65Z"/><path class="cls-1" d="M9,90.57c-.17-.16-.4-.11-.68.13l.21.39c.17.16.4.12.69-.13C9.25,90.86,9.08,90.7,9,90.57Z"/><path class="cls-1" d="M4.46,104.17c.73.11,1,0,1-.36a.67.67,0,0,0-.72-.54C4.64,103.57,4.55,103.87,4.46,104.17Z"/><path class="cls-1" d="M4.49,106.36c-.17-.16-.4-.12-.69.13l.22.39c.17.16.4.11.68-.13Z"/><path class="cls-1" d="M10.51,89.49c.16-.17.11-.4-.13-.69L10,89c-.15.17-.11.4.13.69Z"/><path class="cls-1" d="M20.73,57.18c.15-.18.11-.41-.13-.7l-.39.22c-.15.17-.11.4.13.69C20.44,57.42,20.6,57.25,20.73,57.18Z"/><path class="cls-1" d="M18.18,65.69l.39-.21c-.12-.36-.29-.52-.52-.48l-.38.21A.46.46,0,0,0,18.18,65.69Z"/><path class="cls-1" d="M16.05,73.13l.39-.21c-.11-.36-.29-.52-.51-.48l-.39.22A.45.45,0,0,0,16.05,73.13Z"/><path class="cls-1" d="M14,78.32s.11.36.21.39.56-.06.62-.26c.31-.34.17-.6-.29-.52A1,1,0,0,0,14,78.32Z"/><path class="cls-1" d="M24.86,45.75c-.17-.16-.4-.12-.68.12l.21.39q.25.24.69-.12C25.11,46,24.93,45.88,24.86,45.75Z"/><path class="cls-1" d="M22.92,56l.38-.22c-.11-.36-.28-.52-.51-.47l-.39.21C22.52,55.85,22.69,56,22.92,56Z"/><path class="cls-1" d="M8.45,106.55q-.25-.24-.69.12l.22.39c.17.16.4.12.68-.12Z"/><path class="cls-1" d="M7.39,108.74l.21.39c.36-.11.52-.28.47-.51l-.21-.39C7.5,108.34,7.35,108.51,7.39,108.74Z"/><path class="cls-1" d="M9.61,104.38l.21.39q.54-.17.48-.51l-.22-.39C9.73,104,9.57,104.15,9.61,104.38Z"/><path class="cls-1" d="M29.1,41.55l.39-.22c-.12-.36-.29-.52-.52-.48l-.38.22Q28.76,41.61,29.1,41.55Z"/><path class="cls-1" d="M10,106.46l.22.39c.35-.11.51-.29.47-.52l-.21-.39C10.11,106.06,10,106.23,10,106.46Z"/><path class="cls-1" d="M10.91,112l.39-.21c-.11-.36-.29-.52-.51-.48l-.39.21C10.51,111.85,10.68,112,10.91,112Z"/><path class="cls-1" d="M41,23.94l-.39.22c.12.36.29.52.52.48l.38-.22A.44.44,0,0,0,41,23.94Z"/><path class="cls-1" d="M12.85,109.37c.16-.17.11-.4-.13-.69l-.39.21c-.15.17-.11.4.13.69Z"/><path class="cls-1" d="M42,17.2c-.16.17-.11.4.13.69l.38-.22q.24-.26-.12-.69Z"/><path class="cls-1" d="M15.83,106.54c-.73-.1-1,0-1,.37a.67.67,0,0,0,.72.54C15.65,107.15,15.74,106.85,15.83,106.54Z"/><path class="cls-1" d="M35.09,42.22c.16-.17.12-.4-.13-.69l-.38.21c-.16.18-.12.41.13.7Z"/><path class="cls-1" d="M17,113.53s.12.36.22.39.55,0,.61-.25c.32-.35.17-.6-.28-.52C17.32,113.09,17.13,113.36,17,113.53Z"/><path class="cls-1" d="M49.91,13.39,49.7,13c-.36.11-.52.28-.48.52s.22.39.22.39C49.8,13.79,50,13.62,49.91,13.39Z"/><path class="cls-1" d="M44.82,20.34l-.39.21c.12.36.29.52.52.48l.39-.21A.48.48,0,0,0,44.82,20.34Z"/><path class="cls-1" d="M41.63,31.5l-.39.22c.12.36.29.52.52.47l.38-.21A.47.47,0,0,0,41.63,31.5Z"/><path class="cls-1" d="M47,18c.17.16.4.11.69-.13l-.21-.39c-.18-.16-.41-.12-.69.13C46.72,17.58,47,17.87,47,18Z"/><path class="cls-1" d="M19.63,121.3c.12.36.29.52.52.48l.38-.22q-.16-.54-.51-.48Z"/><path class="cls-1" d="M52.62,9.77q.16.54.51.48l.39-.21c-.12-.36-.29-.52-.52-.48S52.75,9.7,52.62,9.77Z"/><path class="cls-1" d="M50.88,16.24q-.24.26.12.69l.39-.21c.16-.17.11-.4-.13-.69Z"/><path class="cls-1" d="M59.48,2.93c-.17-.16-.4-.12-.68.12l.21.39q.26.24.69-.12Z"/><path class="cls-1" d="M54.42,8,54,8.23c.12.36.29.52.52.48l.38-.22C54.82,8.13,54.65,8,54.42,8Z"/><path class="cls-1" d="M50.58,21.82c.36-.11.52-.28.47-.51l-.21-.39c-.36.11-.52.28-.47.51Z"/><path class="cls-1" d="M22.41,119.17s.11.36.21.39.56,0,.62-.25c.31-.35.17-.61-.29-.52A1.06,1.06,0,0,0,22.41,119.17Z"/><path class="cls-1" d="M58.31,10.36,58.09,10c-.36.11-.51.29-.47.52l.21.39C58.19,10.76,58.35,10.59,58.31,10.36Z"/><path class="cls-1" d="M59.89,11.27l.39-.22c-.12-.36-.29-.52-.52-.48l-.38.22A.44.44,0,0,0,59.89,11.27Z"/><path class="cls-1" d="M63.4,8.48c.1,0,.23,0,.38-.21A.38.38,0,0,0,64,8c-.11-.36-.28-.52-.54-.38s-.52.28-.4.65C63.1,8.4,63.3,8.45,63.4,8.48Z"/><path class="cls-1" d="M28.66,140.25c-.08-.13-.22-.39-.22-.39-.36.12-.51.29-.47.52l.21.39C28.54,140.66,28.7,140.48,28.66,140.25Z"/><path class="cls-1" d="M72.17,4.12,72,3.73c-.36.12-.52.29-.48.52l.22.39C72.05,4.53,72.21,4.36,72.17,4.12Z"/><path class="cls-1" d="M31,139.87c-.15.17-.11.4.13.69l.39-.21c.16-.17.11-.41-.13-.7A.76.76,0,0,1,31,139.87Z"/><path class="cls-1" d="M67.53,8.83q-.25-.24-.69.12l.22.39c.17.16.4.12.68-.12Z"/><path class="cls-1" d="M23.76,134.94c.35-.11.51-.28.47-.51L24,134q-.54.17-.48.51Z"/><path class="cls-1" d="M32.24,144.8l.38-.21q-.16-.54-.51-.48l-.39.21A.48.48,0,0,0,32.24,144.8Z"/><path class="cls-1" d="M33.57,134.78l.38-.21q-.16-.54-.51-.48l-.39.21C33.17,134.67,33.34,134.82,33.57,134.78Z"/><path class="cls-1" d="M71.54,11.87c.1,0,.23,0,.39-.22a.38.38,0,0,0,.19-.27c-.12-.36-.29-.52-.55-.38s-.51.29-.4.65C71.14,11.75,71.34,11.81,71.54,11.87Z"/><path class="cls-1" d="M79.06,7.21c-.18-.15-.4-.11-.69.13l.21.39c.17.16.4.12.69-.13C79.3,7.5,79.13,7.34,79.06,7.21Z"/><path class="cls-1" d="M82,1.1,81.78.71c-.35.12-.51.29-.47.52l.21.39A.47.47,0,0,0,82,1.1Z"/><path class="cls-1" d="M82.91,2.46c-.16.17-.12.41.13.7l.38-.22q.24-.25-.12-.69C83.33,2.15,83,2.39,82.91,2.46Z"/><path class="cls-1" d="M42.81,146.45l.21.39q.54-.17.48-.51l-.22-.39C42.93,146.05,42.77,146.22,42.81,146.45Z"/><path class="cls-1" d="M44.87,146.08l.21.39c.36-.11.52-.29.48-.52l-.22-.39C45,145.68,44.83,145.85,44.87,146.08Z"/><path class="cls-1" d="M84.57,11.46c.17.16.4.12.68-.13L85,10.94c-.17-.16-.4-.12-.69.13C84.33,11.17,84.5,11.33,84.57,11.46Z"/><path class="cls-1" d="M50.74,151c.17.16.4.12.68-.12l-.21-.39q-.26-.24-.69.12C50.4,150.65,50.67,150.84,50.74,151Z"/><path class="cls-1" d="M96.94,7.26c.36-.12.52-.29.47-.52l-.21-.39c-.36.11-.51.29-.47.52Z"/><path class="cls-1" d="M98.55,9.59l.39-.22c-.11-.36-.29-.52-.51-.48L98,9.11A.44.44,0,0,0,98.55,9.59Z"/><path class="cls-1" d="M102.06,7.57l.39-.22c-.12-.36-.29-.52-.52-.47l-.38.21Q101.72,7.63,102.06,7.57Z"/><path class="cls-1" d="M106.57,5.84l.38-.21q-.17-.54-.51-.48l-.39.22C106.17,5.73,106.34,5.89,106.57,5.84Z"/><path class="cls-1" d="M63.64,154.78c.17.16.4.12.69-.13l-.22-.39c-.17-.16-.4-.11-.68.13C63.4,154.49,63.57,154.65,63.64,154.78Z"/><path class="cls-1" d="M63.31,157.08q-.26-.24-.69.12l.22.39c.17.16.4.12.68-.12C63.55,157.37,63.38,157.21,63.31,157.08Z"/><path class="cls-1" d="M107.57,9.52c-.17-.16-.39-.12-.68.13l.21.39c.17.16.4.11.69-.13C107.79,9.91,107.65,9.65,107.57,9.52Z"/><path class="cls-1" d="M63.33,162.32c-.16.17-.12.4.13.69l.38-.21q.24-.26-.12-.69Z"/><path class="cls-1" d="M108.14,12.09q0-.15-.21-.39a.38.38,0,0,0-.27-.19c-.36.11-.52.28-.37.54s.28.52.64.41C108.13,12.52,108.21,12.22,108.14,12.09Z"/><path class="cls-1" d="M112.32,7.14c.11.36.28.52.51.47l.39-.21c-.12-.36-.29-.52-.52-.48S112.47,7,112.32,7.14Z"/><path class="cls-1" d="M108.37,13.57s.36-.11.38-.21a1,1,0,0,0-.25-.62c-.34-.32-.6-.18-.52.28C108,13.12,108.23,13.31,108.37,13.57Z"/><path class="cls-1" d="M121.67,14.11c0-.1,0-.23-.22-.39a.34.34,0,0,0-.27-.18c-.36.11-.52.28-.37.54s.28.52.64.41A.62.62,0,0,0,121.67,14.11Z"/><path class="cls-1" d="M122.45,14.78l-.9-.26c-.1.73,0,.86.64,1.17C122.28,15.39,122.36,15.08,122.45,14.78Z"/><path class="cls-1" d="M122.85,14.9q.15,0,.39-.21a.4.4,0,0,0,.18-.28c-.11-.36-.28-.52-.54-.37s-.52.28-.4.64A.63.63,0,0,0,122.85,14.9Z"/><path class="cls-1" d="M118.92,9.91c.16-.17.12-.4-.13-.69l-.38.21q-.24.25.12.69C118.63,10.15,118.79,10,118.92,9.91Z"/><path class="cls-1" d="M86.91,151.94q-.25-.24-.69.12s.14.26.22.39.4.12.68-.12C87.15,152.23,87,152.07,86.91,151.94Z"/><path class="cls-1" d="M88.43,151.19c.08-.31.17-.61.25-.91-.73-.1-1,0-1,.37A.71.71,0,0,0,88.43,151.19Z"/><path class="cls-1" d="M88.79,152.17s.36-.12.39-.22-.05-.56-.25-.62c-.35-.32-.61-.17-.52.29A1,1,0,0,0,88.79,152.17Z"/><path class="cls-1" d="M90.7,152.73l.38-.22c-.11-.36-.28-.52-.51-.47l-.39.21C90.3,152.61,90.47,152.77,90.7,152.73Z"/><path class="cls-1" d="M130.77,16l.38-.22c-.11-.36-.28-.52-.51-.47l-.38.21Q130.43,16.1,130.77,16Z"/><path class="cls-1" d="M92.75,152.35s.36-.11.39-.21,0-.56-.25-.62c-.35-.32-.61-.18-.52.28A1,1,0,0,0,92.75,152.35Z"/><path class="cls-1" d="M134.17,15.51l-.21-.39c-.36.12-.52.29-.47.52l.21.39C134.06,15.92,134.21,15.75,134.17,15.51Z"/><path class="cls-1" d="M135.81,18.51c.17.16.4.11.69-.13l-.22-.39c-.17-.16-.4-.12-.68.13C135.57,18.22,135.74,18.38,135.81,18.51Z"/><path class="cls-1" d="M136.72,22.15l-.39.22c.12.36.29.52.52.48l.38-.22A.44.44,0,0,0,136.72,22.15Z"/><path class="cls-1" d="M140.33,18.64c.16-.17.11-.4-.13-.69l-.38.21q-.24.25.12.69C139.91,19,140.2,18.71,140.33,18.64Z"/><path class="cls-1" d="M102.38,150.18s.36-.11.39-.22a1.12,1.12,0,0,0-.26-.62c-.34-.32-.6-.17-.51.29C102.07,149.76,102.24,149.92,102.38,150.18Z"/><path class="cls-1" d="M101.43,159.93c.18.16.4.12.69-.12l-.21-.39q-.25-.24-.69.12C101.12,159.51,101.26,159.77,101.43,159.93Z"/><path class="cls-1" d="M101.13,162.13c-.17-.16-.4-.12-.69.13l.22.39c.17.15.4.11.69-.13Z"/><path class="cls-1" d="M106.48,153.68q-.26-.24-.69.12l.21.39q.27.24.69-.12C106.82,154,106.55,153.81,106.48,153.68Z"/><path class="cls-1" d="M145,23.08c.15-.17.11-.4-.13-.69l-.39.21c-.16.17-.11.4.13.69C144.74,23.32,144.9,23.15,145,23.08Z"/><path class="cls-1" d="M108.11,151.76l.39-.21c-.12-.36-.29-.52-.52-.48l-.38.21A.47.47,0,0,0,108.11,151.76Z"/><path class="cls-1" d="M115.45,147s.36-.11.39-.22-.06-.56-.26-.62c-.34-.32-.6-.17-.51.29C115,146.5,115.28,146.79,115.45,147Z"/><path class="cls-1" d="M113.67,153.94l-.21-.39c-.36.12-.52.29-.48.52l.22.39C113.55,154.35,113.71,154.18,113.67,153.94Z"/><path class="cls-1" d="M116,151c.17.16.4.12.69-.13l-.22-.39c-.17-.15-.4-.11-.68.13C115.78,150.75,116,150.91,116,151Z"/><path class="cls-1" d="M113.08,162.82l-.21-.39c-.36.11-.52.29-.47.52l.21.39C113,163.22,113.13,163.05,113.08,162.82Z"/><path class="cls-1" d="M118.53,148c-.09.3-.18.61-.26.91.73.1,1,0,1-.37A.66.66,0,0,0,118.53,148Z"/><path class="cls-1" d="M118.43,151.32l-.21-.39c-.36.11-.51.28-.47.51l.21.39C118.32,151.72,118.48,151.55,118.43,151.32Z"/><path class="cls-1" d="M154.62,34.3c.35-.11.51-.28.47-.51l-.22-.39c-.35.11-.51.28-.47.51S154.54,34.17,154.62,34.3Z"/><path class="cls-1" d="M157.69,31.5l-.21-.39c-.36.12-.52.29-.47.52l.21.39A.46.46,0,0,0,157.69,31.5Z"/><path class="cls-1" d="M158.16,36.33s.35-.11.38-.21,0-.57-.25-.62c-.35-.32-.6-.18-.52.28C157.74,35.88,158,36.17,158.16,36.33Z"/><path class="cls-1" d="M129.07,142.57q0-.15-.21-.39a.38.38,0,0,0-.27-.19c-.36.11-.52.28-.38.54s.29.52.65.41A.25.25,0,0,0,129.07,142.57Z"/><path class="cls-1" d="M159.15,40.44c.16-.17.12-.4-.13-.69l-.38.21q-.24.26.12.69C158.87,40.68,159,40.51,159.15,40.44Z"/><path class="cls-1" d="M129.33,144s.35-.11.38-.21a1,1,0,0,0-.25-.62c-.35-.32-.6-.18-.52.28A1.06,1.06,0,0,0,129.33,144Z"/><path class="cls-1" d="M159.08,42.6c.17.16.4.12.68-.13l-.21-.39c-.17-.16-.4-.12-.69.13Z"/><path class="cls-1" d="M135.45,144.56c.15-.17.11-.4-.13-.69l-.39.21c-.16.17-.11.4.13.69Z"/><path class="cls-1" d="M162.05,52.31s.11.36.21.39.56-.06.62-.26c.31-.34.17-.6-.29-.52C162.49,51.89,162.21,52.14,162.05,52.31Z"/><path class="cls-1" d="M164.28,51.33c-.73-.11-.86,0-1.16.64C163.85,52.08,164,52,164.28,51.33Z"/><path class="cls-1" d="M164.68,51.45c.1,0,.23,0,.39-.22a.37.37,0,0,0,.18-.27c-.11-.36-.28-.52-.54-.38s-.51.29-.4.65C164.28,51.33,164.58,51.42,164.68,51.45Z"/><path class="cls-1" d="M163.62,55.17c.1,0,.23,0,.38-.21a.42.42,0,0,0,.19-.28c-.12-.36-.29-.52-.54-.38s-.52.29-.41.65C163.19,55.15,163.52,55.14,163.62,55.17Z"/><path class="cls-1" d="M138.59,152.14c-.16.17-.11.4.13.69l.39-.21c.15-.17.11-.41-.13-.7Z"/><path class="cls-1" d="M139.86,156.44q-.26-.24-.69.12l.21.39q.27.24.69-.12C140.1,156.73,139.93,156.57,139.86,156.44Z"/><path class="cls-1" d="M170.55,56.34c-.17-.16-.4-.12-.69.13l.21.39c.18.16.41.11.69-.13Z"/><path class="cls-1" d="M151.45,122.35c.36-.12.52-.29.47-.52l-.21-.39c-.36.12-.51.29-.47.52S151.41,122.12,151.45,122.35Z"/><path class="cls-1" d="M144.78,146.44l.38-.21q-.16-.54-.51-.48l-.39.21C144.38,146.32,144.55,146.48,144.78,146.44Z"/><path class="cls-1" d="M144.42,155.27c.16-.17.12-.4-.13-.69l-.38.22q-.24.25.12.69Z"/><path class="cls-1" d="M167.9,74.32l.22.39c.35-.12.51-.29.47-.52l-.22-.39C168,73.91,167.86,74.08,167.9,74.32Z"/><path class="cls-1" d="M147.28,147.18c.17.16.4.11.68-.13l-.21-.39c-.17-.16-.4-.12-.68.13C147,146.76,147.21,147.05,147.28,147.18Z"/><path class="cls-1" d="M167,84c0-.1-.05-.23-.22-.39a.38.38,0,0,0-.27-.19c-.36.11-.51.28-.37.54s.28.52.64.41C166.87,84.37,166.93,84.17,167,84Z"/><path class="cls-1" d="M167.21,85.45s.36-.11.39-.21a1.12,1.12,0,0,0-.26-.62c-.34-.32-.6-.18-.51.28C166.8,85,167,85.29,167.21,85.45Z"/><path class="cls-1" d="M156.93,119.49s.12.36.22.39a1,1,0,0,0,.61-.25c.32-.34.17-.6-.28-.52C157.28,119.05,157.09,119.32,156.93,119.49Z"/><path class="cls-1" d="M149.38,146.27c-.16.17-.11.4.13.69l.39-.21c.15-.17.11-.4-.13-.69C149.67,146,149.51,146.2,149.38,146.27Z"/><path class="cls-1" d="M151,144.25q.26.24.69-.12l-.21-.39q-.26-.24-.69.12Z"/><path class="cls-1" d="M147.51,156.62l-.39.21c.11.37.28.52.51.48l.39-.21A.47.47,0,0,0,147.51,156.62Z"/><path class="cls-1" d="M150.09,151.39l-.39.21c.12.36.29.52.52.48l.38-.22C150.49,151.5,150.32,151.34,150.09,151.39Z"/><path class="cls-1" d="M164.56,106.48q0-.15-.21-.39a.4.4,0,0,0-.28-.19c-.35.11-.51.28-.37.54s.29.52.65.41C164.45,106.88,164.5,106.68,164.56,106.48Z"/><path class="cls-1" d="M148.64,161c-.17-.16-.4-.12-.68.13l.21.39c.17.15.4.11.69-.13Z"/><path class="cls-1" d="M151.41,154.72c-.17-.16-.4-.12-.68.13,0,0,.14.25.21.39s.4.11.69-.13A.84.84,0,0,1,151.41,154.72Z"/><path class="cls-1" d="M148.74,164.07c-.17-.16-.4-.12-.69.13l.21.39c.18.16.4.12.69-.13Z"/><path class="cls-1" d="M162.44,119.59c-.18-.16-.4-.12-.69.12l.21.4c.17.15.4.11.69-.13C162.75,120,162.58,119.85,162.44,119.59Z"/><path class="cls-1" d="M164.75,113.4c-.16.17-.12.41.13.7l.38-.22c.16-.17.12-.4-.13-.69Z"/><path class="cls-1" d="M158.81,138.26c.36-.11.52-.29.47-.52l-.21-.39c-.36.12-.52.29-.47.52S158.77,138,158.81,138.26Z"/><path class="cls-1" d="M157.94,150.1c.16-.17.11-.4-.13-.69,0,0-.26.14-.38.22s-.12.4.12.69Z"/><path class="cls-1" d="M154.85,158.24s.12.36.22.39a1,1,0,0,0,.61-.25c.32-.34.17-.61-.28-.52A2.28,2.28,0,0,0,154.85,158.24Z"/><path class="cls-1" d="M170.7,64.15q-.25-.24-.69.12l.22.39q.26.24.69-.12Z"/><path class="cls-1" d="M170.93,107.7l.39-.21q-.16-.54-.51-.48l-.39.21C170.53,107.59,170.71,107.75,170.93,107.7Z"/><path class="cls-1" d="M156.32,158c.11,0,.23,0,.39-.21a.38.38,0,0,0,.19-.27c-.12-.36-.29-.52-.55-.38s-.51.28-.4.64C155.9,158,156.1,158.07,156.32,158Z"/><path class="cls-1" d="M151.89,130.5l-.22-.39c-.35.11-.51.28-.47.51l.21.39Q152,130.85,151.89,130.5Z"/><path class="cls-1" d="M160.93,155.57l-.38.21q.16.54.51.48l.39-.22C161.33,155.68,161.16,155.52,160.93,155.57Z"/><path class="cls-1" d="M161.15,159.34l.39-.21c-.11-.37-.28-.52-.51-.48l-.39.21Q160.82,159.4,161.15,159.34Z"/><path class="cls-1" d="M157.31,128.61l.39-.22c-.12-.36-.29-.52-.52-.48l-.39.22A.48.48,0,0,0,157.31,128.61Z"/><path class="cls-1" d="M156.85,132.5c.17.16.39.12.68-.12l-.21-.39q-.25-.24-.69.12S156.77,132.37,156.85,132.5Z"/><path class="cls-1" d="M178.13,73c-.15.17-.11.4.13.69l.39-.21c.16-.17.11-.4-.13-.69Z"/><path class="cls-1" d="M162.6,131.85q-.25-.24-.69.12l.21.4c.17.15.4.11.69-.13Z"/><path class="cls-1" d="M183.13,118.17c.16-.17.11-.4-.13-.69l-.39.21c-.15.17-.11.4.13.69C182.84,118.41,183,118.24,183.13,118.17Z"/><path class="cls-1" d="M179.78,129.5l.38-.21q-.16-.54-.51-.48l-.39.21C179.38,129.39,179.55,129.54,179.78,129.5Z"/><path class="cls-1" d="M170.32,122.68l.38-.22c-.11-.35-.28-.52-.51-.47l-.39.21C169.79,122.63,170,122.69,170.32,122.68Z"/><path class="cls-1" d="M178.28,91.12l-.21-.39c-.36.11-.52.28-.47.51l.21.39A.43.43,0,0,0,178.28,91.12Z"/><path class="cls-1" d="M180.44,92.3c.17.16.4.12.69-.13l-.22-.39c-.17-.16-.4-.11-.68.13Z"/><path class="cls-1" d="M181.18,95l-.22-.39c-.35.12-.51.29-.47.52l.22.39C181.06,95.43,181.22,95.25,181.18,95Z"/><path class="cls-1" d="M168.46,40.89l-.22-.39c-.35.12-.51.29-.47.52l.22.39A.44.44,0,0,0,168.46,40.89Z"/><path class="cls-1" d="M173.63,102.07c-.16.17-.11.4.13.69l.39-.22c.15-.17.11-.4-.13-.69C174.05,101.75,173.76,102,173.63,102.07Z"/><path class="cls-1" d="M176,121.41c.17.16.4.12.68-.12l-.21-.4c-.17-.15-.4-.11-.69.13C175.68,121,175.92,121.28,176,121.41Z"/><path class="cls-1" d="M175.34,114.67l.39-.21c-.12-.36-.29-.52-.52-.48l-.38.21C174.81,114.63,175,114.69,175.34,114.67Z"/><path class="cls-1" d="M170,114l.39-.21c-.12-.36-.29-.52-.52-.48l-.39.22C169.61,113.86,169.78,114,170,114Z"/><path class="cls-1" d="M174.39,60.74c-.18-.16-.4-.11-.69.13l.21.39c.18.16.4.12.69-.13Z"/><path class="cls-1" d="M153.83,131.29q0-.15-.21-.39a.4.4,0,0,0-.27-.19c-.36.11-.52.28-.38.54s.29.52.65.41C153.71,131.69,153.8,131.39,153.83,131.29Z"/><path class="cls-2" d="M63.54,8.61c.72.83.07,1.55-1.37,2.5h0l-.42.13a20.39,20.39,0,0,0-2.48,0c-1.11.37-1.49,1.35-3.34,2.09A65.72,65.72,0,0,0,43.27,20,48.33,48.33,0,0,0,33.11,30c-1.24,1.61-2.21,3-2.87,4-.33.5-.58.91-.75,1.18l-.18.31,0,.07v0h0a1.89,1.89,0,0,1-2.67.7A2.53,2.53,0,0,1,26.21,33c.18-.3,2-2,2.34-2.53.71-1.08.22-1.35,1.53-3.06,2.62-3.39,5.55-4.92,10.16-8.13s9.79-7.6,13.63-9.16c1.93-.78,4.21-2,5.38-2.38l1.38-.45C61.88,7,62.62,7.55,63.54,8.61Z"/><path class="cls-2" d="M92.25,161.7c-.4-1,.46-1.49,2.13-1.9h0l.43,0a19.84,19.84,0,0,0,2.34.83c1.17,0,1.86-.76,3.85-.85a65.51,65.51,0,0,0,14.15-2,48.5,48.5,0,0,0,12.92-6c1.7-1.09,3.09-2.1,4.06-2.83l1.1-.87.28-.23.06,0,0,0h0a1.9,1.9,0,0,1,2.75.24,2.53,2.53,0,0,1-.75,3.22c-.28.23-2.54,1.2-3.06,1.6-1,.78-.65,1.21-2.46,2.37-3.61,2.31-6.88,2.78-12.3,4.26s-11.77,3.89-15.91,4.06c-2.08.09-4.64.47-5.87.44-.62,0-1.11,0-1.45,0C93.25,163.82,92.76,163,92.25,161.7Z"/><path class="cls-2" d="M131.61,16.16c-.93-.74-1.94-.55-3.58-1.71A68.06,68.06,0,0,0,115.5,7.3c-2.06-.87-2.47-3.49-1.15-2.93C119.48,6.52,126,8.58,129.45,11c1.72,1.22,4,2.5,5,3.29.49.39.87.71,1.13.93C139.24,18.32,134.65,18.6,131.61,16.16Z"/></svg>