<svg id="Layer_1" data-name="Layer 1" xmlns="http://www.w3.org/2000/svg" viewBox="0 0 88 69"><defs><style>.cls-1{fill:#219653;}.cls-2{fill:#6fcf97;}</style></defs><path class="cls-1" d="M62.49,14.61c-7.2,6.78-21.14,19.61-27.37,52.88,4.62-1.21,4.78-1.47,5.45-6.15,3-20.89,7.21-22.24,8.7-24.87,15.41,2.55,29-6.72,26-28.32A22.72,22.72,0,0,0,71.67.72C69.15,6.86,61.2,6.85,52.89,10c-12.23,4.68-11,16.64-7.56,21.74C49.62,24.66,61.26,13.88,62.49,14.61Z"/><path class="cls-2" d="M72.5,13.88c-3.09-.11-3.61,19-22.46,21.31h5.1C69,33.77,75.59,14,72.5,13.88Z"/><path class="cls-1" d="M26.56,12.63A63.67,63.67,0,0,0,36.89,28c.29.32.7-.39,1.19-1.28C43.48,17,40.52,5.66,25.27,2.52a16.13,16.13,0,0,0-5.84.62C22,9.25,19.18,8,19.32,14.36c.22,9.34,8.48,16.89,14.46,14.49C30,24.26,24.07,13,26.56,12.63Z"/><path class="cls-1" d="M19.09,34.74C25,40.64,34.87,55.57,38,65.45l-2.64,2c0-4.32-2-8.43-5.62-14C16.63,55.28,5.4,47.13,8.5,29a19,19,0,0,1,3.19-6.18c2,5.25,8.67,5.43,15.6,8.33,10.2,4.26,10.65,14.37,5.43,19.93C29.27,44.94,19.75,33.77,19.09,34.74Z"/><path class="cls-2" d="M21.13,12.23c0,5.1,3.4,11.05,9.35,14.45l-.85.85C22,24.41,19.75,12.15,21.13,12.23Z"/><path class="cls-2" d="M35.37,43.58C33.53,38.82,27.08,34.33,20.64,32c-.46-.56-.31-1.11.49-1.1C29.63,32.63,33.71,36.93,35.37,43.58Z"/></svg>