<?xml version="1.0" standalone="no"?>
<!DOCTYPE svg PUBLIC "-//W3C//DTD SVG 20010904//EN"
 "http://www.w3.org/TR/2001/REC-SVG-20010904/DTD/svg10.dtd">
<svg version="1.0" xmlns="http://www.w3.org/2000/svg"
 width="700.000000pt" height="700.000000pt" viewBox="0 0 700.000000 700.000000"
 preserveAspectRatio="xMidYMid meet">
<metadata>
Created by potrace 1.11, written by Peter Selinger 2001-2013
</metadata>
<g transform="translate(0.000000,700.000000) scale(0.100000,-0.100000)"
fill="#000000" stroke="none">
<path d="M3542 6903 c1 -25 -13 -301 -18 -343 -2 -19 -6 -87 -8 -150 -15 -325
-19 -376 -29 -387 -7 -7 -76 -10 -86 -3 -5 3 -13 46 -16 95 -4 50 -9 110 -11
135 -3 25 -7 122 -9 215 -4 169 -15 386 -21 415 -1 8 -3 18 -3 23 -1 4 -14 7
-30 7 -28 0 -29 -2 -36 -67 -4 -38 -9 -77 -10 -88 -5 -23 -14 -199 -20 -370
-4 -118 -15 -276 -20 -305 -2 -8 -4 -27 -4 -41 -1 -24 -5 -26 -53 -28 -28 -1
-55 -4 -59 -6 -27 -17 -28 47 -15 655 2 85 1 177 -2 203 -4 47 -5 48 -31 42
-33 -8 -29 -2 -36 -60 -4 -28 -20 -97 -36 -154 -16 -58 -29 -116 -29 -131 0
-14 -9 -67 -19 -117 -11 -49 -22 -110 -26 -134 -3 -24 -20 -125 -36 -224 -41
-242 -45 -432 -11 -550 13 -44 35 -98 49 -120 63 -98 208 -203 351 -255 l64
-23 -7 -141 c-4 -78 -8 -149 -8 -158 -1 -10 -4 -18 -7 -18 -3 0 -5 -48 -6
-108 -1 -98 -8 -250 -19 -392 -2 -30 -7 -102 -10 -160 -3 -58 -7 -127 -10
-155 -6 -70 -15 -235 -20 -405 -7 -213 -15 -417 -20 -485 -2 -33 -6 -121 -10
-195 -4 -74 -8 -160 -10 -190 -13 -186 -16 -367 -6 -394 11 -27 14 -28 55 -23
35 5 47 3 60 -12 19 -21 53 -21 48 -1 -2 8 3 10 13 7 11 -5 15 0 15 18 0 26
14 34 23 12 6 -16 125 -62 135 -53 4 4 7 377 8 829 1 852 3 959 14 952 3 -2 7
-399 9 -882 1 -483 4 -888 7 -900 6 -22 18 -29 66 -38 91 -18 85 -19 93 17 10
39 10 19 1 413 -4 171 -9 420 -12 555 -2 135 -7 279 -10 320 -3 41 -7 129 -9
195 -3 109 -10 240 -20 415 -2 36 -6 135 -10 220 -3 85 -8 207 -11 270 -2 63
-6 205 -7 314 l-2 199 41 12 c56 17 152 84 209 147 51 56 104 162 124 244 12
50 19 363 8 380 -3 5 -8 34 -11 64 -4 30 -8 70 -11 88 -11 84 -26 190 -29 208
-16 92 -22 122 -37 194 -7 30 -13 66 -14 80 -2 14 -8 50 -14 80 -7 30 -14 69
-17 85 -29 166 -27 160 -60 163 -31 3 -32 2 -32 -35 0 -99 -13 -611 -17 -717
-3 -66 -10 -125 -16 -133 -13 -15 -95 -18 -104 -4 -3 6 -8 29 -11 53 -2 24 -7
57 -9 73 -3 17 -7 64 -10 105 -12 170 -16 218 -20 270 -3 30 -7 78 -9 105 -5
58 -17 178 -21 215 -2 14 -4 37 -4 53 -1 23 -5 27 -30 27 -22 0 -30 -5 -29
-17z m405 -905 c-3 -8 -6 -5 -6 6 -1 11 2 17 5 13 3 -3 4 -12 1 -19z m0 -298
c-10 -104 -50 -217 -106 -302 -44 -67 -91 -121 -91 -104 0 14 42 82 79 129 39
49 86 168 96 242 3 22 7 51 10 65 2 14 5 54 6 90 l2 65 6 -55 c3 -30 3 -89 -2
-130z m-127 -222 c-18 -74 -31 -95 -96 -158 -56 -53 -51 -42 10 24 31 34 69
112 81 164 4 18 9 31 12 28 3 -3 0 -29 -7 -58z"/>
<path d="M1545 4819 c-49 -9 -177 -17 -302 -18 -68 -1 -65 4 -46 -76 4 -16 7
-32 8 -35 13 -67 32 -123 51 -152 l24 -38 -28 0 c-49 0 -61 -18 -48 -69 11
-42 20 -53 59 -65 15 -5 17 -17 17 -73 -1 -38 -1 -147 -1 -243 0 -285 2 -269
-25 -276 -13 -3 -24 -14 -25 -23 -1 -41 -9 -108 -14 -129 -3 -12 -1 -31 4 -41
7 -12 11 -240 12 -612 l2 -594 31 -42 c42 -57 66 -69 102 -51 28 13 29 16 34
103 4 71 7 83 13 56 4 -18 7 -50 7 -71 0 -22 8 -47 18 -60 15 -18 24 -21 51
-15 20 4 35 15 40 28 8 21 9 20 23 -6 l14 -28 27 27 27 26 10 -26 c5 -14 11
-26 12 -26 2 0 3 138 4 308 0 326 12 813 19 821 3 2 40 5 82 7 347 12 651 47
670 78 16 24 9 34 -26 39 -62 9 -111 36 -132 72 -36 60 -66 62 -469 39 -120
-7 -152 2 -39 11 104 8 212 17 244 21 17 1 66 6 110 11 44 4 103 8 132 8 52 0
52 0 61 38 16 61 -1 66 -195 63 -88 -2 -166 -7 -172 -11 -7 -3 -68 -8 -136 -9
l-125 -2 0 271 c0 315 3 335 58 336 21 0 46 2 56 4 10 2 89 6 175 10 86 3 167
7 181 9 14 3 72 7 130 11 58 3 134 8 170 11 35 3 130 6 210 8 127 3 174 9 253
32 25 8 22 51 -6 69 -13 8 -48 17 -78 20 -30 2 -56 4 -59 5 -3 1 17 8 43 16
27 9 45 19 41 25 -3 6 1 18 9 27 10 11 14 31 12 56 -3 22 1 46 7 53 6 7 9 15
7 16 -2 2 -20 14 -39 28 l-35 24 -560 1 c-308 1 -580 4 -605 7 -25 3 -67 1
-95 -4z m-125 -614 c0 -95 -4 -145 -10 -145 -11 0 -12 137 -2 243 7 85 12 49
12 -98z"/>
<path d="M4357 4824 c-1 -2 -97 -6 -212 -10 -116 -3 -213 -8 -217 -11 -10 -5
16 -69 36 -88 8 -8 27 -16 43 -17 15 -1 1 -4 -31 -7 -65 -7 -83 -22 -73 -63 4
-13 17 -36 29 -49 l23 -24 227 0 c249 0 270 -3 138 -20 -25 -4 -53 -9 -63 -11
-21 -6 -144 -15 -262 -19 -44 -1 -86 -3 -92 -4 -24 -2 -13 -57 18 -101 l31
-43 146 8 c81 4 163 8 182 10 273 23 282 23 296 18 12 -4 11 -169 -1 -1368 -3
-319 -9 -605 -13 -635 -4 -30 -7 -61 -6 -67 1 -7 2 -20 3 -28 2 -21 64 -49 93
-42 14 4 30 18 37 33 9 20 14 24 25 15 13 -11 48 -15 88 -10 9 1 20 9 23 18 3
8 5 333 4 721 -2 898 -2 880 1 978 5 135 14 83 16 -86 1 -86 5 -326 9 -532 3
-206 8 -526 10 -710 3 -184 5 -344 5 -356 0 -36 36 -65 73 -59 57 11 58 14 50
164 -12 227 -3 1654 10 1668 4 3 -1 19 -9 35 -13 25 -14 38 -3 80 10 43 15 93
18 191 1 20 26 20 409 2 39 -2 72 0 72 4 0 7 69 18 161 25 40 4 74 19 107 49
25 23 30 49 7 41 -9 -4 -16 3 -21 20 -3 15 -14 31 -23 36 -12 8 -6 10 24 8 23
-1 46 2 53 6 20 12 14 45 -15 81 -15 19 -28 49 -30 69 -6 74 0 72 -215 75
-272 4 -1178 7 -1181 5z m760 -108 c4 -3 -31 -6 -76 -6 -45 0 -80 3 -78 8 6 8
145 7 154 -2z m508 -125 c14 -6 6 -8 -27 -7 -26 0 -44 4 -42 8 6 10 42 9 69
-1z m-919 -2248 c-11 -11 -19 6 -11 24 8 17 8 17 12 0 3 -10 2 -21 -1 -24z"/>
<path d="M2427 1941 c-39 -38 -85 -82 -102 -97 -16 -15 -91 -84 -165 -154 -74
-70 -166 -155 -204 -191 -38 -35 -87 -82 -110 -103 -23 -22 -120 -103 -216
-180 -96 -77 -217 -173 -269 -215 -108 -86 -135 -130 -119 -188 5 -19 7 -80 4
-136 -3 -56 -8 -154 -11 -217 -3 -63 -8 -132 -10 -153 l-4 -39 44 5 c42 4 45
2 45 -20 0 -30 54 -65 94 -61 21 2 34 12 47 38 27 49 49 56 122 35 19 -5 34
-2 50 9 59 41 56 30 62 222 3 98 8 186 11 195 2 9 44 51 92 93 142 124 113
134 233 -79 57 -102 132 -228 167 -282 35 -54 74 -122 87 -150 23 -50 26 -53
61 -53 21 0 45 7 55 16 17 15 16 18 -12 65 -16 28 -29 52 -29 55 0 2 -10 21
-23 42 -13 20 -42 71 -64 112 -22 41 -74 136 -115 210 -144 260 -160 279 217
-268 189 -275 194 -280 243 -246 13 9 22 11 22 4 0 -6 11 -16 25 -22 21 -9 30
-7 65 16 35 23 46 41 41 69 -3 17 17 5 29 -19 21 -38 45 -47 78 -30 37 19 56
42 46 58 -4 7 -78 121 -164 253 -163 250 -206 321 -360 594 l-92 165 43 40
c25 23 85 77 134 121 140 126 330 312 344 338 18 33 -5 76 -53 102 l-36 20
-16 -23 -16 -23 -22 33 c-15 23 -37 38 -71 49 -27 9 -56 25 -65 35 -9 11 -21
20 -28 22 -7 1 -45 -29 -85 -67z m-312 -481 c-10 -11 -21 -18 -23 -15 -3 3 3
12 14 20 27 20 30 18 9 -5z m313 -671 c-3 -8 -7 -3 -11 10 -4 17 -3 21 5 13 5
-5 8 -16 6 -23z m29 -41 c-3 -8 -6 -5 -6 6 -1 11 2 17 5 13 3 -3 4 -12 1 -19z
m73 -99 c0 -6 -4 -7 -10 -4 -5 3 -10 11 -10 16 0 6 5 7 10 4 6 -3 10 -11 10
-16z m29 -45 c16 -37 9 -39 -11 -3 -9 16 -14 29 -9 29 4 0 13 -12 20 -26z m48
-74 c3 -11 9 -20 13 -20 4 0 10 -9 13 -20 7 -28 3 -25 -27 20 -14 22 -21 40
-15 40 6 0 13 -9 16 -20z m137 -205 c3 -8 1 -15 -3 -15 -5 0 -11 7 -15 15 -3
8 -1 15 3 15 5 0 11 -7 15 -15z"/>
<path d="M3202 1968 c-9 -12 -17 -63 -27 -188 -3 -30 -7 -65 -9 -77 -3 -12 -7
-79 -11 -150 -5 -120 -8 -157 -20 -258 -20 -177 -24 -220 -32 -415 -9 -235 -9
-482 0 -554 16 -128 120 -229 270 -260 185 -39 343 40 430 214 29 59 32 73 34
170 1 58 -2 127 -8 155 -5 27 -11 185 -14 350 -5 314 -9 401 -26 550 -5 50
-11 152 -13 227 -4 173 -10 185 -90 182 -31 -1 -62 -7 -70 -13 -8 -6 -34 -8
-67 -5 -30 3 -70 7 -89 9 -19 1 -42 5 -50 9 -28 11 -65 14 -81 5 -12 -6 -30 1
-62 26 -52 40 -51 39 -65 23z m395 -380 c-3 -8 -6 -5 -6 6 -1 11 2 17 5 13 3
-3 4 -12 1 -19z m0 -37 c0 -11 -5 -18 -9 -15 -4 3 -5 11 -1 19 7 21 12 19 10
-4z m0 -46 c0 -8 -4 -15 -9 -15 -10 0 -11 14 -1 23 9 10 10 9 10 -8z m-2 -35
c3 -5 1 -10 -4 -10 -6 0 -11 5 -11 10 0 6 2 10 4 10 3 0 8 -4 11 -10z m2 -325
c2 -274 1 -305 -14 -305 -14 0 -15 28 -10 298 4 163 7 300 7 305 0 4 3 7 8 7
4 0 8 -137 9 -305z"/>
<path d="M1236 1913 c-29 -15 -31 -24 -14 -56 14 -27 19 -81 21 -250 l2 -129
28 -15 c22 -11 35 -12 59 -4 21 7 36 7 49 0 14 -7 30 -7 54 1 24 8 40 8 53 1
20 -11 196 0 209 13 5 5 9 84 17 381 l1 49 -40 9 c-22 5 -62 6 -90 2 -27 -3
-57 -5 -65 -5 -8 1 -30 1 -48 0 -19 0 -39 3 -45 7 -22 13 -164 10 -191 -4z
m141 -205 c-3 -7 -5 -2 -5 12 0 14 2 19 5 13 2 -7 2 -19 0 -25z m-4 -71 c3 -8
1 -20 -4 -28 -6 -10 -9 -7 -9 14 0 29 5 35 13 14z"/>
<path d="M3941 1916 c-17 -20 -4 -61 29 -96 l28 -30 -38 0 c-46 0 -52 -12 -50
-97 1 -32 -1 -78 -5 -103 -6 -39 -3 -51 22 -87 25 -40 31 -43 73 -44 82 -2
104 -1 250 6 80 4 186 8 235 9 50 1 96 6 103 10 15 9 14 34 12 -344 -3 -517
-7 -757 -13 -767 -3 -5 -8 -38 -12 -75 -6 -63 -5 -66 21 -87 44 -35 114 -20
114 24 0 12 6 12 35 -1 59 -24 105 -2 107 53 1 18 11 36 30 51 l28 24 1 -44
c2 -121 35 -162 107 -132 l34 14 -7 62 c-3 35 -8 77 -10 93 -5 34 -13 118 -20
202 -13 149 -17 246 -20 466 -1 131 -5 240 -8 244 -3 3 -4 17 -2 32 2 14 7 66
10 115 3 50 9 93 15 96 5 3 74 7 152 9 79 2 184 5 233 8 50 2 136 4 192 3 105
-1 128 5 172 44 52 47 47 96 -10 96 -16 0 -29 3 -29 8 0 4 19 7 42 7 l43 0 0
60 c0 58 -1 60 -25 58 -23 -3 -21 1 18 35 23 20 42 40 42 44 0 4 -48 7 -107 7
-60 0 -133 4 -163 10 -94 17 -134 20 -147 10 -7 -7 -14 -6 -18 1 -5 8 -11 8
-21 -1 -11 -9 -15 -8 -20 4 -5 13 -14 15 -47 9 -23 -4 -69 -5 -102 -4 -61 4
-157 5 -300 3 -44 0 -100 0 -125 1 -25 0 -60 -2 -77 -5 -18 -3 -35 -1 -39 4
-3 5 -158 9 -363 9 -296 0 -361 -2 -370 -14z m1147 -103 c-21 -2 -57 -2 -80 0
-24 2 -7 4 37 4 44 0 63 -2 43 -4z m-863 -10 l20 -6 -20 -7 c-32 -12 -215 -12
-215 -1 0 5 21 11 48 13 107 7 148 7 167 1z m1385 -108 c0 -7 -30 -13 -34 -7
-3 4 4 9 15 9 10 1 19 0 19 -2z m-885 -845 c0 -110 -3 -200 -7 -200 -10 0 -14
174 -7 323 7 146 15 77 14 -123z m1 -245 c0 -19 -2 -32 -5 -29 -8 8 -10 64 -2
64 4 0 7 -16 7 -35z m4 -303 c0 -13 -12 -22 -22 -16 -10 6 -1 24 13 24 5 0 9
-4 9 -8z"/>
<path d="M5550 525 c-58 -33 -90 -83 -97 -149 -17 -181 201 -279 315 -140 98
118 26 296 -125 310 -38 3 -57 -1 -93 -21z m134 -94 c20 -17 21 -67 1 -79 -14
-7 -13 -11 5 -34 25 -33 25 -38 0 -38 -11 0 -27 11 -36 25 -9 14 -23 25 -30
25 -8 0 -14 -10 -14 -25 0 -18 -5 -25 -20 -25 -18 0 -20 7 -20 84 l0 85 49 -3
c27 -1 56 -8 65 -15z"/>
<path d="M5610 390 c0 -16 5 -21 23 -18 12 2 22 10 22 18 0 8 -10 16 -22 18
-18 3 -23 -2 -23 -18z"/>
</g>
</svg>
