<svg id="Layer_1" data-name="Layer 1" xmlns="http://www.w3.org/2000/svg" viewBox="0 0 46.78 35.5"><defs><style>.cls-1{fill:#df633c;fill-rule:evenodd;}.cls-2{fill:#efca8b;}</style></defs><path class="cls-1" d="M39.29.85A3,3,0,0,1,42.13,3l3.93,12.28a5,5,0,0,1,.22,1.43,61,61,0,0,1,0,15.51,3,3,0,1,1-6,0V31.17c-9.37,1.44-12.62,1.54-22,0v1.08a3.13,3.13,0,0,1-3,3.25,3.13,3.13,0,0,1-3-3.25,49.2,49.2,0,0,1,0-15.51,4.86,4.86,0,0,1,.22-1.43L16.46,3A3,3,0,0,1,19.3.85C27.88-.35,30.7-.21,39.29.85Zm-23,20.57a3.13,3.13,0,0,0,3,3.25,3.13,3.13,0,0,0,3-3.25,3.13,3.13,0,0,0-3-3.25A3.13,3.13,0,0,0,16.3,21.42Zm23,3.25a3.13,3.13,0,0,1-3-3.25,3,3,0,1,1,6,0A3.13,3.13,0,0,1,39.29,24.67ZM18.59,6.25A21.35,21.35,0,0,0,17,12.84c-.06.8.27,1,1,1.08C28.12,15,30.25,15,40,14c1-.11,1.07-1.14,1-2.2a19.12,19.12,0,0,0-1-5.45l-.22-.74a2,2,0,0,0-1.9-1.48c-7.6-1-9.8-1.11-17.11,0a2,2,0,0,0-1.9,1.48C18.75,5.8,18.67,6,18.59,6.25Z"/><path class="cls-2" d="M8.17,2H9.83A2.17,2.17,0,0,1,12,4.18h0A2.17,2.17,0,0,1,9.83,6.34H8.17A2.17,2.17,0,0,1,6,4.18H6A2.17,2.17,0,0,1,8.17,2Z"/><path class="cls-2" d="M2.17,15H7.83A2.17,2.17,0,0,0,10,12.84h0a2.17,2.17,0,0,0-2.17-2.16H2.17A2.17,2.17,0,0,0,0,12.84H0A2.17,2.17,0,0,0,2.17,15Z"/><rect class="cls-2" x="2" y="19.34" width="8" height="4.33" rx="2.17"/></svg>