<svg id="Layer_1" data-name="Layer 1" xmlns="http://www.w3.org/2000/svg" viewBox="0 0 66.27 55.96"><defs><style>.cls-1{fill:#e62f48;opacity:0.6;isolation:isolate;}.cls-1,.cls-2,.cls-3{fill-rule:evenodd;}.cls-2{fill:#df633c;}.cls-3{fill:#f2cd30;}</style></defs><path class="cls-1" d="M31.63,6.11a6.14,6.14,0,0,1,12.28,0c0,3.64-3.88,8.66-5.46,10.58a.88.88,0,0,1-1.34,0C35.51,14.77,31.63,9.75,31.63,6.11Zm3.95,0a2.19,2.19,0,1,0,2.19-2.18A2.18,2.18,0,0,0,35.58,6.11Z"/><path class="cls-2" d="M42.3,20.44a12.48,12.48,0,0,1,23,9.77C62.38,37,51.13,43.33,46.64,45.65a1.77,1.77,0,0,1-2.51-1.07C42.66,39.73,39.4,27.25,42.3,20.44Zm7.38,3.14a4.46,4.46,0,1,0,5.84-2.34A4.45,4.45,0,0,0,49.68,23.58Z"/><path class="cls-3" d="M32.58,20.06A17.47,17.47,0,0,0,2.33,37.53c5.18,9,21.87,15.82,28.5,18.28a2.49,2.49,0,0,0,3.31-1.91C35.35,46.92,37.76,29,32.58,20.06Zm-9.72,5.61a6.24,6.24,0,1,1-8.51-2.26A6.24,6.24,0,0,1,22.86,25.67Z"/></svg>