<svg xmlns="http://www.w3.org/2000/svg" viewBox="0 0 104 3" preserveAspectRatio="none">
    <defs>
        <style>
            .cls-1 {
                fill: #531918;
            }
        </style>
    </defs>
    <path class="cls-1"
        d="M101.12,2.45c0-.23-.12-.29-1.07-.29H99.5c-2.45,0-4.91,0-7.35,0H85.58c-1.35,0-2.7,0-4,0l-6.6-.11c-.86,0-1.71-.07-2.52,0-5.35.11-20.45.12-25.81.27-2.55,0-5,.06-7.62.06-2.46,0-5,0-7.5,0-1.74,0-3.5,0-5.25.08-.8,0-1.62.09-2.43.14-1.77.07-3.57.23-5.37.18-2.52,0-3.87-.25-6.38-.26-.73,0-2.13.25-2.91.23-1,.06-1.87,0-2.95,0-1.34,0-2.88-.13-4.26,0a10.87,10.87,0,0,0-1.39,0C0,2.8-.08,2.47.06,2.72s1-.08,1.53,0a11.11,11.11,0,0,0,2,0c1.51,0,2.77.07,4.27.09,1.81,0,3.69,0,5.51,0,.87,0,1.84,0,2.69,0,2.48.14,4.89,0,7.37,0,1.83,0,3.69-.14,5.51-.13,5.13,0,8.68.1,13.88.16C44.31,3,47,3,48.41,3c2.12-.17,4.82-.19,7-.16,3,0,15.73-.13,18.71-.06l4.41,0c1.18,0,2.37,0,3.55,0,1,0,2.05,0,3,0l5-.15q4.17,0,8.25.15a3,3,0,0,0,.9-.08c.47-.19.92.38,1.15.2.34-.47.51.15.77-.33h-.07Z" />
    <path class="cls-1"
        d="M103.94.58l0-.13c0-.21-.1-.25-.88-.26-.13,0-.33,0-.45,0-2,0-4,0-6,0H91.24c-1.11,0-2.22,0-3.32,0L82.5.05a17.83,17.83,0,0,0-2.06,0C76.06.11,42.59.52,38.2.64c-2.09,0-4.11,0-6.25,0s-4.08,0-6.15,0c-1.43,0-2.87,0-4.31.06-.65,0-1.32.08-2,.12C18.06.88,16.58,1,15.1,1c-2.06,0-4,0-6,.17-.6,0-1.24,0-1.88,0a13.5,13.5,0,0,0-2.12-.07c-1.12.06-2.36.08-3.5.17a6.22,6.22,0,0,0-1.1.17c-.43.12-.54,0-.43.16s.56.26,1,.38a9.94,9.94,0,0,0,1.65.12c1.24,0,2.46,0,3.69,0,1.49,0,3,0,4.52.06.72,0,1.51,0,2.21,0,2,.12,4,0,6,0,1.5,0,3-.12,4.51-.11,4.21,0,8.47.1,12.73.17,1.23,0,2.51.07,3.64,0a52.71,52.71,0,0,1,5.35-.09c2.46,0,34-.2,36.42-.14l3.62,0c1,0,1.94,0,2.91.05s1.68,0,2.46,0L94.9,2q3.42,0,6.77.14a2.07,2.07,0,0,0,.74-.07,4.47,4.47,0,0,0,.94-.48,7.74,7.74,0,0,0,.65-1Z" />
</svg>