<svg id="Layer_1" data-name="Layer 1" xmlns="http://www.w3.org/2000/svg" viewBox="0 0 262 277"><defs><style>.cls-1{opacity:0.3;}.cls-2{fill:#ff9397;}</style></defs><g class="cls-1"><path class="cls-2" d="M132.55,236.19c.93.46,1.54.62,1.54,1.08.16,1.4.16,2.79.31,3.88-.31,1.39-2.27.3-1.19,2.47,0,0,1-.46,1.49,0-.46,1.24.46.63,0,2,.62.62.87-1.55,1.49-.93a5.5,5.5,0,0,1,1.49.4c.77.31,2.45-3.34,2.29-2.57,0,1.24,3.67-1.65,3.67-.41,0,.47-1.19,1-1.19,1.49l1.08,1.09c0,.77,4.58-4.18,4.58-2.94-.31.31-.77.93-1.24,1.39.31,1.4,2.32.16,2.79,2,0,3.87-2.29-1.24-2.29,2.94-.47.47,1.95.93,1.49,1.4,0,.93-2,.15-2,.93.47.62,1.52.62,2,1.08-1.86,2,1.71-1,3.72,1,1.49.23.24-2.56.88-4.9.31-.31,1.64,1.64,2.1,1.18a5.48,5.48,0,0,0,1.89-2,5.16,5.16,0,0,0-1.7-6.35c-.31-.47-.78-.93-1.24-1.55.31-.31.46-.78.77-.78a10.46,10.46,0,0,1,2.17,0,1.25,1.25,0,0,0,1.23-.77v-3c-.46-1.24-2.31-.15-2.78-1.55.15-.15.31-.46.47-.46,1.39-.16,2.78-.16,4.17-.31.62.46,1.08.93,1.7,1.39a4.11,4.11,0,0,1,1.39.16,14.42,14.42,0,0,0,1.55,1.39c1.24-.46.16-2.32,1.55-2.79l.46.47a2.32,2.32,0,0,0,.93.62,1.05,1.05,0,0,0,.62-1.09,1,1,0,0,1,.46-1.24c.31-.15.62,0,1.08.47.47.62,1.09.77,2.32.62.62-.93,1.4-2,2-2.79h4.94c.62.31.78.77.47,1.08l-1.7,1.71c-.47,0-1.24.15-1.86.15-.77,0,.93-.31.46.47.47.46,0,.62.47,1.08,0,.62-.42.93.51,1.55a19.39,19.39,0,0,1,1.81-1.55c.62.62,2.32-1.7,2.94-1.08,0,.93,1.21,2.31,1.21,3.39,2.89-3.41,2.7-4.63,2.24-4,.69-.93,2.23-1.4,2.23,1.39-.46.47.75-.11,1.49-1.39,0,.93,1.49-2.88,1.49-1.95,2,1.24-2.23,4.24,0,3.5-.31-.47,1.21.93.75.31,0-.78,2.23.1,2.23-.83-.46-.62,1.5-1.5.88-2.12,0-1.39,2,.78,2-.62.46-.46-.47-1.27,0-1.73,0-2.32,2,3,2,.65.46-.62-.62-1.86,0-2.48,0-3.41-2-.93-2-4.18.46-.93,1.23-.62,2-.78a12.52,12.52,0,0,0,1.54,1.39c.16.16.47,0,.78,0v-2.16a14.46,14.46,0,0,1-1.4-1.55,9.74,9.74,0,0,0,1.24-1.4,14.42,14.42,0,0,0-1.39-1.55c.15-1.86.15-2,2-2,.93.93,2,1.86,2.94,2.79.15.15.46,0,.62,0v-2.17a24,24,0,0,0,2-2,6.86,6.86,0,0,0,2.16-.93l-.92-.93c-.31-.31-.16-.62.3-1.08a4.92,4.92,0,0,0,.78-1.09c0-.77.15-1.7.77-1.7s.62,1.08.78,1.7c0,.31.61.93.77.78a1.05,1.05,0,0,0,.62-1.09c.15-1.39.31-1.39,1.7-1.55.15,0,.46-.15.62-.15l2-2c.15-.15,0-.46,0-.62a1,1,0,0,1-1.24-.46c-.31-.47.16-.78,1.55-.93h-.31a1,1,0,0,1,.31-1.09c.31-.31.62-.31.92.31,0,.16-.15.31-.15.47a1.64,1.64,0,0,1-.77.46,2.32,2.32,0,0,0-.31,1.4,9,9,0,0,0,2,0c.31,0,.77-.62.77-.93a24.26,24.26,0,0,0,0-3.41,1,1,0,0,1-1.24-.47c-.31-.46.16-.77,1.24-.93v-2.17c.62-.62,1.39-1.24,2.17-2H226a5.11,5.11,0,0,0,2.32-2.48c-.93-1.09-2.32-.15-3.24-.62a16,16,0,0,1-1.71,1.55h-1.39c-1.08-1.24-2.32-2.33-3.4-3.56.31-.32.62-.78.93-.78,2.32-.16,4.64-.16,7-.16.15,0,.31-.3.46-.46a13.52,13.52,0,0,1-1.39-1.55c-.15-.15,0-.46,0-.62a1,1,0,0,1-1.24-.47c-.31-.46.16-.77,1.24-.92v-1.4h-2c-.16,0-.31-.15-.47-.31s-.31-.31-.15-.46.31-.47.46-.47c1.55-.46,2-.15,2.32,1.24a1,1,0,0,0,1.24-.46c.46-.78,0-1.86,1.08-2.33h1.24a10.52,10.52,0,0,0,1.55,1.24c.93-.46.62-1.24.62-2.17-.62-.62-1.39-1.24-2.32-2.17-.62-.31-1.86.47-2.94-.31-.16-.15-.31-.31-.31-.46a.7.7,0,0,1,.46-.47,5,5,0,0,1,1.55-.15,24.53,24.53,0,0,1,2-1.86c.46-1.4.16-2.79.31-4.19a7.49,7.49,0,0,1,2-2.32c.93-.31,1.55-.47,2.32-.78-1.08-1.08-2-2.17-2.94-3.1l2.48-2.48a.69.69,0,0,0-.47-.93c-.15-.15-.46,0-.77,0a1,1,0,0,1-1.24-.46c-.15-.47.46-.93,1.39-.93h2.17a4.13,4.13,0,0,0,1.39-.16l2-2c-.77-1.4-2.16-.47-3.25-.78-.31-.31-.77-.46-1.08-.77-1.24-1.08-2.32-2.33-3.56-3.56-.46-.47-.61-.63-.46-1.09a1,1,0,0,1,1.24-.46H232a3.79,3.79,0,0,0,2.94,1.55l1.09,1.08a4.69,4.69,0,0,0,3.24,0c.16-.16.62-.31.62-.46v-3.57h-1.39a1,1,0,0,1-1.24-.46c-.15-.31.16-.62.62-1.09l.47-.46c-.31-1.55-2.17-.31-2.63-1.55a15.58,15.58,0,0,0,1.39-1.55v-6.36a1,1,0,0,1-1.24-.46,2,2,0,0,1,0-1.86,1,1,0,0,1,1.24-.47c0-.15.15-.46,0-.62a27.75,27.75,0,0,0-2.17-2.17c-.15-.15-.46,0-.61,0v2c-.93.93-.93.93-1.71.77-.92,0-1.08-.31-1.23-1.24a1.81,1.81,0,0,1,.77-1.7h2c0-.31-.15-.62,0-.78a12.65,12.65,0,0,0,1.39-1.55l-2-2a13.52,13.52,0,0,1-1.55,1.39,1.46,1.46,0,0,1-.3-2.32,4.94,4.94,0,0,0,1.23-2.33c0-.62.78-1.08,1.55-.93a1.28,1.28,0,0,0,1.24-.77v-4a.68.68,0,0,0-.93-.62c-.15,0-.31.31-.46.46v2.79c-1.09.93-1.09.93-3.87.62-.62-.31-.62-.77,0-.93.46-.15.93,0,1.39-.31.31-.15.93-.62.93-.77a1,1,0,0,0-1.08-.62c-1.7-.31-1.7-.31-1.7-1.55v-2l.61-.63c1.09-1.24,1.09-1.7.16-2.94-.31-.46-.62-.62-.47-1.09a1.3,1.3,0,0,1,1.24-.46c.93,0,1.24-.31,1.39-1.24a1.45,1.45,0,0,0-.93-1.7c-.46-.16-.92,0-1.39-.16-.15,0-.31-.31-.61-.46v-2.95a5.69,5.69,0,0,1,1.39-1.39c-.47-1.24-2.32-.31-2.79-1.55v-1.4c.62-1.24,2.32-.15,2.79-1.55l-3.56-3.56h-2.17a.79.79,0,0,1-.46,1.08c.16.78-.31.78-.62.78a1,1,0,0,1-1.08-.62c0-.16.46-.78.77-.78a9,9,0,0,1,2,0c0-.31-.15-.62,0-.77a14.53,14.53,0,0,1,1.39-1.55V88c-.15-.16-.46-.62-.46-.47-.31.31-.77.47-.77.78a9.81,9.81,0,0,0,0,2.17,1,1,0,0,1-.62,1.08c-1.08-.15-2.32.47-3.4-.46.46-1.4,1.7-2,2.63-3.1a14.46,14.46,0,0,1-1.4-1.55V84.31h-2c-.15,0-.31-.16-.46-.31s-.31-.31-.16-.47.31-.46.47-.46c1.54-.47,2-.16,2.32,1.24.62.15,1.08,0,1.24-.47.31-1.08.46-2.32,1.7-2.94v-2a1.28,1.28,0,0,0-.47-1.24,1.65,1.65,0,0,0-1.85-.15c-.93.77-1.71,1.7-2.63,2.48-.31-.31-.78-.47-.78-.78a15.37,15.37,0,0,1,0-2.63c.47-.62,1.4-.93,1.24-1.7-.31-.93-1.24-.47-1.85-.47-.47.47-1.09.93-1.55,1.4l-2-2a2.74,2.74,0,0,1,1.08-.77,9.81,9.81,0,0,1,2.17,0c.31,0,.62-.47,1.08-.78l-2-2a4.11,4.11,0,0,1-1.39-.16,14.42,14.42,0,0,0-1.55-1.39,3,3,0,0,0-1.39.46c-.47.16-.31-.31,0-.46.62-.31.93,0,.62.62a1.61,1.61,0,0,1-.78.62s-.46-.31.16-.78c.62-.62.46-.93.62-1.08l1.39-1.4c-.47-.46-.93-1.08-1.24-1.39a13.13,13.13,0,0,1,1.24-1.55c-1.08-1.09-2.32-.31-3.56-.62a21.67,21.67,0,0,1-1.85-2c.3-.93,1.85-1.39,1.23-2.94l-1.39-1.4a13.52,13.52,0,0,0,1.39-1.55c0-.62.31-1.55-.62-1.86-.61-.15-.92.62-1.54,1.09-1.4-.31-.31-2.17-1.55-2.79h-1.7c-.77.93-1.55,2-2.32,2.79a5.11,5.11,0,0,1-1.7-.16A11.22,11.22,0,0,0,201.68,53l-2,2c-.15.15,0,.46,0,.62a.79.79,0,0,1,1.08.46,11.74,11.74,0,0,1,.31,1.24,1,1,0,0,1-.62,1.09c-.15,0-.77-.47-.77-.78a9,9,0,0,1,0-2,1.13,1.13,0,0,1-1.39-.93,7.24,7.24,0,0,1,0-1.86h-2c-.16,0-.31-.16-.47-.31s-.31-.31-.15-.47.31-.46.46-.46c1.55-.47,2-.16,2.32,1.24.31,0,.62.15.78,0a25.46,25.46,0,0,0,2-2c-.31-.31-.47-.77-.78-.77a9.72,9.72,0,0,0-2.16,0,1,1,0,0,1-1.08-.62c.46-.47.92-1.09,1.39-1.55-.93-1.09-2.79-.47-3.41-2-.46.47-1.08.93-1.54,1.4h-2.79c-.46-.47-1.08-.93-1.54-1.4h-6.5c-.46,0-1.08-.15-1.08-.62,0-.15.46-.77.77-.77.62-.16,1.4,0,1.86-.78a26.14,26.14,0,0,0-2.17-1.86,5.42,5.42,0,0,1-1.39,1.09c-1.39-.47-.31-2.17-1.54-2.79h-2.94c-.62-.78-.62-.78.61-2.17l-1.85-1.86c-1.7-.62-3.25,0-4.64-.31l-1.39,1.4c-1.7,0-3.56.15-5.42,0-.77,0-1.08-.78-.92-1.55a.9.9,0,0,0-.16-.62l-1.08-1.09a4.55,4.55,0,0,1-.31-1.24c0-.93.31-1.86-.77-2.63H159c-1.08.93-1.7,2-3.09,2.63-.77-.46-.46-1.24-.62-2-.62-.62-1.39-1.24-2.16-2h-2.63c-.62-.46-1.09-.93-1.7-1.39a14.42,14.42,0,0,1-1.55,1.39h-2.17v2c0,.15-.15.31-.31.46s-.3.31-.46.16-.46-.31-.46-.47c-.47-1.55-.16-2,1.23-2.32v-1.4a1,1,0,0,0-.46-1.24c-.31-.15-.62.16-1.08.62l-.47.47a4,4,0,0,1-2-1.86,9.05,9.05,0,0,1-.92-2.48A11.52,11.52,0,0,1,138.58,24,11.22,11.22,0,0,0,137,22.78l-2.63,2.64c-.77-.16-.92-.78-.92-1.4a1.43,1.43,0,0,0-.62-1.24,4.46,4.46,0,0,1-1.4-.15c-.92.93-2,1.86-2.94,2.79-.77-.47-.61-1.24-.77-1.86a1.4,1.4,0,0,0-.93-.93,33.67,33.67,0,0,0-4,0c-1.85,1.86-1.85,1.86-3.55.77-.16-.62.31-1.55-.47-1.86-.62-.15-.93.93-1.54.93a8.44,8.44,0,0,1-4.8-.15c-.62-.78-.31-1.86-.31-2.79a1,1,0,0,0-.62-1.09c-.15,0-.62.62-.77.93-.16.47-.16.93-.31,1.4,0,.15-.31.31-.46.46H107.8a1.13,1.13,0,0,1-.93,1.4,13.19,13.19,0,0,0-2.63.46c-.46.16-.31-.31,0-.46.62-.31.93,0,.62.62a1.54,1.54,0,0,1-.77.62s-.47-.31.15-.78a13.63,13.63,0,0,0,.62-4.8h-2.32c-.77.93-1.54,2-2,2.63a13.9,13.9,0,0,0-2.47.62c-.47.16-.62.62-.47,1.4v-.31a1,1,0,0,1,1.09.31c.3.31.3.62-.31.93-.16,0-.31-.16-.47-.16a1.64,1.64,0,0,1-.46-.77,1.75,1.75,0,0,1-1.24-.78c-.46-.77,0-1.86-1.08-2.32H92.33c-.46.46-1.08.93-1.54,1.39H89.4c-.93.62-.62,1.71-.62,2.64,0,.77-.16,1.24-.78,1.55-.15-.16-.46-.31-.46-.47a16.33,16.33,0,0,1-.16-2.79c0-.62-.77-.93-1.54-.93a1.42,1.42,0,0,0-1.24.62c.46.47.77.93,1.24,1.4a4,4,0,0,1-.93.77A31.13,31.13,0,0,1,81,24l-2.16-2.17V19.68c-1.08-.15-1.39-.46-1.39-1.08a17.65,17.65,0,0,0-.31-2.79c-.16-.47-.62-.62-1.24-.47v5a.68.68,0,0,1-.93.62.7.7,0,0,1-.46-.46v-1.4c-.31-.31-.78-.77-1.08-.77-1.09,0-2.32-.47-3.25.62a13.52,13.52,0,0,1,1.39,1.55v1.39c.46,1.09,1.7.62,2.32,1.09a1,1,0,0,1,.46,1.24h2c.16,0,.31.15.47.31s.31.31.15.46-.31.47-.46.47c-1.55.46-2,.15-2.32-1.24-.31,0-.62-.16-.77,0a24,24,0,0,0-2,2c0,.47-.15.93-.15,1.4a13.52,13.52,0,0,1,1.39,1.55,1.57,1.57,0,0,1-2.32.46c-.46-.15-.62-.77-1.08-.93-.46-.31-1.55-.31-1.86.16a1.21,1.21,0,0,0-.31,1.24,1.54,1.54,0,0,0,.16.46,9.53,9.53,0,0,1,1.24,1.71c.46.77-.31,1.7-1.4,1.86a1,1,0,0,1-.46,1.24c-.46.31-.77-.16-.93-1.24H63.57a2.86,2.86,0,0,0-.78,1.08c-.15.93.16,1.86-.15,2.48-.77.77-1.39,1.55-2,2.17H58.46a1,1,0,0,0,.47,1.24c.77.46,1.85-.16,2.32,1.24v1.08a4.92,4.92,0,0,1-1.09.78c-1.39.15-2.78.15-4.17.31-.16,0-.31.31-.47.46a14.46,14.46,0,0,1,1.4,1.55c.15.16,0,.47,0,.62a.8.8,0,0,1,1.08.47c.15.31.15.77.31,1.24a1,1,0,0,1-.62,1.08c-.16,0-.77-.46-.77-.77a8.53,8.53,0,0,1,0-2h-1.4a1,1,0,0,0-1.23.47c-.16.31,0,.62.46.93s.62.62.46.93A1,1,0,0,1,54,49.9H52.59c-.16,1.09-.47,1.4-1.09,1.4a16.43,16.43,0,0,0-2.78.31c-.47.15-.62.62-.47,1.24h2.32c.31.31.78.93,1.24,1.39.16.16.47,0,.93,0h-.31a1,1,0,0,1,.31-1.08c.31-.31.62-.31.93.31,0,.15-.16.31-.16.46a1.63,1.63,0,0,1-.77.47,5.25,5.25,0,0,0-.31,2.17c-.77.77-1.39,1.86-2.78,2.32-.78-.15-1.7-.15-2.48-.31-.46-.15-.62-.62-.46-1.24H44.54c-.62.62-1.23,1.4-2,2.17a8.87,8.87,0,0,0,.16,4.5c.15.46.62.62,1.23.46V62.3a23.81,23.81,0,0,0,2-2c1.09.46.93,1.24.62,2.32-1.08.31-1.23,2-2.63,1.86v2.17c-.15.16-.3.47-.46.47-.46.15-.93.15-1.39.31-.31.31-.78.46-1.08.77-.93.78-1.71,1.71-2.48,2.48-.15.78.62.93.93,1.55-.16,1.24,1.08,2.64-.62,3.57-.46-.47-.93-.78-1.39-1.24-.31.31-.62.46-.62.62V80.9c-.62,1.24-2.32.31-2.78,1.55A6.06,6.06,0,0,1,35.26,84l-2,2H31.86c-1.08,1.71-1.08,1.71.62,3.57a6.09,6.09,0,0,0-1.24,1.55c.31.62.93.77,1.7.77.31,0,.78.47,1.09.78-.62.62-1.4,1.39-2,2a7.41,7.41,0,0,0-1.71.16c-.46.62-1.08,1.39-2,2.48,0-.16.31.15.78.31.62.15,1.39-.31,1.85.62a5,5,0,0,1-1.7,1.86,9.44,9.44,0,0,1-2.47.93c.92,1.24,2.16,1.86,2.78,3.1-.46.77-1.24.46-1.86.62a.7.7,0,0,0-.46.46c-.15.31,0,.78.62.93a16.13,16.13,0,0,0,2.78,0c1.24.93.62,2.17.62,3.41,0,.31-.46.62-.77.78-.31-.31-.62-.78-1.08-.93a3.54,3.54,0,0,0-1.24-.31.94.94,0,0,0-.62.15c-.62,1.09-2,.93-2.94,1.55a4,4,0,0,0-1.7,1.86c.46.77,1.24.62,1.86.62.46-.47,1.08-.93,1.54-1.4,1.55.93,0,2.79.93,3.88,1.08,1.24,2.94-.46,3.87,1.09-.93.92-1.86,2-2.79,2.94v1.39c-.46,1.24-2.32,0-2.78,1.55l2,2c.15.15.46,0,1.08,0H28.3a1,1,0,0,1,.31-1.09c.31-.31.62-.31.93.31,0,.16-.15.31-.15.47a1.68,1.68,0,0,1-.78.46c-.46.47-.31.93.16,1.09.77.31,1.54.46,2.47.77-.62.62-.93,1.09-1.54,1.71a12.84,12.84,0,0,0,0,2.48A1.37,1.37,0,0,0,31.4,132h-.31A1,1,0,0,1,31.4,131c.31-.31.62-.31.92.31,0,.15-.15.31-.15.46a1.63,1.63,0,0,1-.77.47c-.31.31-.16.62-.31.77-.93,1.09-2,2-2.79,2.95.16,1.86.16,1.86,1.24,2.17h.77a1.71,1.71,0,0,1,.78,2.32c-.31.47-.62.62-1.09,1.24a38.6,38.6,0,0,0,0,5.89c.47.78.78.78,1.09.16a11.15,11.15,0,0,1,.31-1.24,2.7,2.7,0,0,1,.77-1.09l3.56,3.56a1.15,1.15,0,0,1-1.55.62c-1.24,1.09-2,1.71-2.63,2.33.93,1.24,2.94.47,3.56,2.17a5.66,5.66,0,0,1,1.55.16,23.07,23.07,0,0,0,2,1.85c0,.93,0,.93-1.24.93H36v5.74H38.2c.16,0,.31.31.47.46v.47c-.78.93-1.71,1.7-2.48,2.48a2.74,2.74,0,0,0,1.08.77,1.64,1.64,0,0,0,1.24-.15c.93-.78,1.7-1.71,2.48-2.48a4.51,4.51,0,0,1,.77.93,2.18,2.18,0,0,1-.16,1.39c-.15.47-.77.62-.92,1.09a1.62,1.62,0,0,0,0,1.86l1.08,1.08a15.27,15.27,0,0,0-1.24,1.55v1.24c.47,1.09,1.55.62,2.32,1.09a1,1,0,0,1,.47,1.24H44.7c1.08,0,1.54.46,1.54,1.55v1.39h2.17c.15,0,.31.31.46.47v.46c-.77.93-1.7,1.71-2.47,2.48.31.78.93.78,1.7.78.46,0,.77.46,1.08.62A14.27,14.27,0,0,0,47.79,185c.93,1.09,2.17,1.86,2.78,3.11a4.69,4.69,0,0,1-.3,1.39c-.16.47-.62.62-1.24.47a8.45,8.45,0,0,0,0,2c.15.47.62.77.93.62.31-.31.61-.77.92-.93,1.09-.78,2.17-.16,2.32,1.24a1,1,0,0,1,1.24.46.92.92,0,0,1,.16.62v2.33c1.08,1.7,2.93,2.94,4.33,4.65v2h3.55l2,2c-.3,1.55-2.32.15-2.62,1.7.61.47,1.23,1.09,2.16,1.86h3.71c1.24.62,1.7,1.55,2.63,2.17-1.24,1.24-2.47.47-3.71.78-.15.46-.46,1.08-.62,1.55a6.8,6.8,0,0,0,2.48,2.63c.77,0,1.54.16,1.85-.62.16-.46,0-.93.16-1.39.15-.62.62-.78.92-.62l.47.46a11.51,11.51,0,0,0,1.39,1.4v2.94l-2.63,2.64c-.15,1.39-.93,2.78.62,3.87h1.24a14.37,14.37,0,0,1,1.54,1.39,1.13,1.13,0,0,0,.62-1.23c.16-1.4.62-1.71,1.7-1.56.47,0,.78.47,1.09.62V225c-.47.46-.93,1.09-1.4,1.55v2.94l2,2c.46-.47,1.08-.93,1.54-1.4H81c.62.31.78.78.31,1.09l-2.47,2.48c.46.46.93,1.08,1.39,1.55,0,.77.15,1.55-.62,2-.93-.93-2-1.86-2.94-2.79-.15.16-.46.31-.46.47-.16,1.86-.16,3.72-.16,5.58,0,.46.47.77,1.55.93h.47c1.39,1.24,2.93-1.4,3.71,3.41,0,.77,2.22-.31,2.22-1.25-.46-.46-.17-2.43-.75-3-.46-1.39,1.46-.58,1.31-2,0-1.09,1.24-2.16.93-3.24-.46-.47,2.64-1,2.33-1.26,0-.15,2.89-.08,2.89-.23,0-6.51,3,2.78,3-3.89.3-.46,3.71,4.12,4.33,3.5v-4.18a25.44,25.44,0,0,1,2-2c1.24.16,1.54,1.55,2.47,1.86v3.1a9,9,0,0,1,1.86.62,15.92,15.92,0,0,1,1.7-1.55H109c.62.62,1.24,1.4,2,2.17a9.74,9.74,0,0,1-1.24,1.4c1.39,1.24,1.55,1.24,3.25-.47,1.08.16,1.55,1.86,2.94,1.24.93.93,2,1.86,2.94,2.95h1.54c.16-.62.47-1.24.62-1.86a15.84,15.84,0,0,0-1.54-1.71l1.39-1.39c.46-.47.62-.62,1.08-.47a1.3,1.3,0,0,1,.46,1.24c-.15,1.09.16,1.24,1.24,1.24a1.28,1.28,0,0,1,1.24.47.57.57,0,0,1,.15.46c-.62.62-1.54,1.24-1.23,2.48a16.57,16.57,0,0,0,3.71,3.72c.46-.15.92-.15,1.39-.31s.62-.62.46-1.24a.79.79,0,0,1-1.08-.46c-.15-.31-.15-.78-.31-1.24a1.05,1.05,0,0,1,.62-1.09c.16,0,.77.47.77.78a8.45,8.45,0,0,1,0,2,.81.81,0,0,1,1.09.47c.31.77.46,1.55.77,2.48,1.85-.93.31-2.64,1.08-3.72l1.39-1.4c-.77-.93-.77-1.55-1.23-2.94-.16-.47.31-.31.46,0,.31.62,0,.93-.62.62a1.61,1.61,0,0,1-.62-.78C131.77,235.88,132.08,235.57,132.55,236.19ZM206.79,57.34h-4.18c-.16,0-.31-.31-.46-.46-.16-.31,0-.62.46-.93h4.18c.15,0,.3.31.46.46C207.56,56.72,207.25,57,206.79,57.34Zm7.88,141.5a1.8,1.8,0,0,1,2.94,0c-.15.77.47,1.86-.93,2A23.81,23.81,0,0,0,214.67,198.84Zm12.22-101.2c1.08.93,1.08,1.86,0,2.94C225.81,99.5,225.81,98.57,226.89,97.64Zm1.24,11.16c-.16-.16-.47-.31-.47-.47v-1.39c0-.16.31-.31.47-.47a.29.29,0,0,1,.46,0c.78.31.78,1.86,0,2.33C228.44,109,228.28,108.8,228.13,108.8ZM34.18,142.89c-.93,1.09-1.86,1.09-2.94,0C32.32,141.81,33.25,141.81,34.18,142.89Zm163.33,76.72V219l.46-.47c.31-.15.62,0,.93.47.15.15,0,.46,0,.62a1,1,0,0,1-.47,1.24C198,221,197.51,220.54,197.51,219.61ZM139.66,28.52c-.31.15-.62,0-.93-.47l.47-.46c.31-.16.62,0,.93.46C140.28,28.05,140,28.36,139.66,28.52Zm-67,3.56c.16.31,0,.62-.46.93l-.47-.46c-.15-.31,0-.62.47-.93Zm84.76,1.71.46-.47c.31-.15.62,0,.93.47l-.46.46C158.07,34.41,157.76,34.25,157.45,33.79Zm35.26,17.66c-.31.16-.62,0-.93-.46l.47-.47c.31-.15.62,0,.93.47Zm37.12,71.91.46.47c.16.31,0,.62-.46.93l-.46-.47C229.06,124.14,229.21,123.83,229.83,123.36ZM32.32,124.6c-.3.16-.61,0-.92-.46l.46-.47c.31-.15.62,0,.93.47C32.79,124.29,32.48,124.45,32.32,124.6Zm202.92,24.49-.46-.46c.31-.47.62-.62.93-.47l.46.47C235.86,149.09,235.55,149.24,235.24,149.09Zm-5.72,17.2-.46-.46c.31-.47.62-.62.93-.47l.46.47C230.14,166.29,229.83,166.45,229.52,166.29Zm-3.87,13.33.47.47c-.31.46-.62.62-.93.46l-.46-.46C225,179.62,225.35,179.47,225.65,179.62ZM58.31,192.79c.15.31,0,.62-.47.93l-.46-.46c-.15-.31,0-.62.46-.93ZM218.08,194c.3-.15.61,0,.92.47l-.46.46c-.31.16-.62,0-.93-.46Z"/><path class="cls-2" d="M126.67,247.35c.62-.62.77-.93.62-1.09l-2-2c-.31.15-.78.46-.78.62a38.86,38.86,0,0,0,0,4.18c1.24,1.24,2.48.62,3.87.47.93-.78.31-1.71.47-2.64a4.46,4.46,0,0,0-2.17.47c-.46.15-.31-.31,0-.47.62-.31.93,0,.62.62a1.55,1.55,0,0,1-.78.62C126.36,248.12,126.05,247.81,126.67,247.35Z"/><path class="cls-2" d="M72.85,229.68H70.68c-.46-.47-1.08-.93-1.55-1.39a2.16,2.16,0,0,0-.77,1.23c-.31,1.71-.31,1.71-1.55,1.71h-2l-.61.62c0,.15.15.46.3.46,1.55.62,3.1.31,4.8.16.62-1.09,1.85-1.24,2.94-1.55A.93.93,0,0,0,72.85,229.68Z"/><path class="cls-2" d="M60,16.43c-.62-1.24-2.32-.16-2.78-1.55v-1.4a.7.7,0,0,0-.47-.46c-.31-.16-.77,0-.93.62a19.21,19.21,0,0,0,0,2.94c-.46.31-.92.78-1.54,1.24.92,1.24,2.16.62,3.24.78C58.62,18.29,59.08,17.2,60,16.43Z"/><path class="cls-2" d="M74.24,15.81h-.62c-1.86,0-1.86,0-2.17-1.71a1.4,1.4,0,0,0-1.85-1.24,4.28,4.28,0,0,0-.93.78v2c1.08-.15,1.39,1.09,2.63,1.4a8.74,8.74,0,0,0,2,0C73.93,17.05,74.55,16.58,74.24,15.81Z"/><path class="cls-2" d="M78.57,244.56a.78.78,0,0,0-.77-.47A2.89,2.89,0,0,1,75.32,243a.46.46,0,0,0-.31-.16c-.77.62-1.39,1.24-2.16,1.86L75,246.88a5.62,5.62,0,0,1,1.55.16A12.48,12.48,0,0,1,78.57,244.56Z"/><path class="cls-2" d="M233.39,185.2c.15-.77-.31-1.24-1.09-1.39a12.71,12.71,0,0,0-2.47,0,10.94,10.94,0,0,1-1.55,1.39h-2v1.4h3.56c.46-.47,1.08-.94,1.55-1.4Z"/><path class="cls-2" d="M42.84,188.76l2,2h1.39c.47-.46.93-1.24,1.55-1.4s.93-.15.62-.77c-.16-.15-.31-.46-.46-.46a10,10,0,0,0-4.8,0A1.11,1.11,0,0,1,42.84,188.76Z"/><path class="cls-2" d="M54.29,25a9.74,9.74,0,0,1-1.4-1.24c-.46-.46-.61-.62-.92-.46a1,1,0,0,0-.47,1.24v.77a10.26,10.26,0,0,0,1.39,1.24v1.55c0,.16.31.31.47.47a.69.69,0,0,0,.93-.47Z"/><path class="cls-2" d="M58.62,202.4H56.45c-.46-.46-1.08-.93-1.54-1.39-.78,0-1.55-.16-2,.77l1.86,1.86a4.28,4.28,0,0,0,3.4,0A1,1,0,0,0,58.62,202.4Z"/><path class="cls-2" d="M223.33,206.74h-3.55c-1.09,1.55-1.09,1.55,0,2.79.46-.46.93-.77,1.39-1.24.31.31.46.31.62.62.31.47.62.78,1.08.62a1,1,0,0,0,.46-1.24A5.34,5.34,0,0,1,223.33,206.74Z"/><path class="cls-2" d="M229.06,83.22h-2a1.48,1.48,0,0,0-.78,1.71c.16.93.31,1.24,1.24,1.24.62,0,.62,0,1.7-.78A11.31,11.31,0,0,1,229.06,83.22Z"/><path class="cls-2" d="M19.8,85.39c-1.4-1.08-1.4-1.08-2.94,0v1.4c1.39,1.08,1.39,1.08,2.94,0Z"/><path class="cls-2" d="M240.81,99.65c-.77-.31-1.39-.62-1.85-.77-1.4.46-1.86,1.55-2.94,2.32.77.31,1.39.62,1.85.78C239.11,101.51,239.57,100.43,240.81,99.65Z"/><path class="cls-2" d="M234.16,116.24l2-2c-.46-.47-1.24-.93-1.24-1.55-.15-.62-.15-.93-.77-.62-.15.16-.46.31-.46.46a6.4,6.4,0,0,0,0,3.42A1.93,1.93,0,0,1,234.16,116.24Z"/><path class="cls-2" d="M3.4,116.24H.62c-.31,0-.47.61-.62.77l2,2a24.53,24.53,0,0,0,1.86-2C4,116.85,3.87,116.54,3.4,116.24Z"/><path class="cls-2" d="M237.25,162.26c-1.08.47-1.54,1.55-2.47,2,.62,1.08,1.39.77,2,.77a13.52,13.52,0,0,1,1.55-1.39c.92-.78.92-.93.15-1.24A2.92,2.92,0,0,0,237.25,162.26Z"/><path class="cls-2" d="M239.11,163.66v2a1.47,1.47,0,0,0,1.7.78c.93-.16,1.24-.31,1.24-1.24,0-.62,0-.62-.78-1.71A10.53,10.53,0,0,1,239.11,163.66Z"/><path class="cls-2" d="M67.74,216.82H66.35a13.55,13.55,0,0,0-1.55-1.4c-.92,1.55-.92,1.55.16,2.79h2.78c.16,0,.31-.31.47-.46C68.52,217.44,68.36,217,67.74,216.82Z"/><path class="cls-2" d="M105.79,234.79V239c0,.15.31.31.46.46.31.16.62,0,.93-.62v-4.18c0-.16-.31-.31-.46-.47C106.41,234,106.1,234.33,105.79,234.79Z"/><path class="cls-2" d="M165.49,252.46A1.66,1.66,0,0,0,166,250a11.38,11.38,0,0,0-1.85-2,1.66,1.66,0,0,0-.47,2.48A11.83,11.83,0,0,0,165.49,252.46Z"/><path class="cls-2" d="M183.12,12.09c.93,1.08,1.86,1.08,2.94,0-.46-.47-1.08-.93-1.55-1.4s-.61-.62-.92-.46a1,1,0,0,0-.47,1.24C183.28,11.62,183.12,11.93,183.12,12.09Z"/><path class="cls-2" d="M85.84,14.26a9,9,0,0,0,2,0c.31,0,.46-.47.77-.78l-1.85-1.86c-.31.31-.78.47-.78.78A3.81,3.81,0,0,0,85.84,14.26Z"/><path class="cls-2" d="M81.51,13.64c-.93-1.09-1.86-1.09-2.94,0,.46.46,1.08.93,1.55,1.39s.61.62.92.47a1,1,0,0,0,.47-1.24Z"/><path class="cls-2" d="M104.4,18.6a9,9,0,0,0,2,0c.31,0,.46-.47.77-.78L105.33,16c-.31.31-.78.47-.78.78A3.81,3.81,0,0,0,104.4,18.6Z"/><path class="cls-2" d="M135.18,21.54c.61-.62,1.39-1.39,2-2-.16-1.4-1.24-.78-2-.93A1.8,1.8,0,0,0,135.18,21.54Z"/><path class="cls-2" d="M197.51,42.31c-1.4-.93-1.4-.93-2.79,0,.16.77-.46,1.86.93,2A24.53,24.53,0,0,1,197.51,42.31Z"/><path class="cls-2" d="M48.56,53.16a1.06,1.06,0,0,0-1.39.93,23.5,23.5,0,0,0,0,3.25,1.06,1.06,0,0,0,1.39-.93Z"/><path class="cls-2" d="M224.73,74.7V71.29c0-.31-.47-.46-.78-.77,0,0-.46.31-.46.46a5.85,5.85,0,0,0,.15,3.26C223.8,74.7,224.26,74.7,224.73,74.7Z"/><path class="cls-2" d="M16.24,106.16c-1.08.93-.93,1.86,0,3,.46-.47.93-1.09,1.39-1.55s.62-.62.47-.93a1,1,0,0,0-1.24-.47C16.7,106.32,16.55,106.16,16.24,106.16Z"/><path class="cls-2" d="M234.78,111.89a8.45,8.45,0,0,0,2,0c.31,0,.46-.46.77-.77l-1.85-1.86c-.31.31-.78.46-.78.78A3.9,3.9,0,0,0,234.78,111.89Z"/><path class="cls-2" d="M239.88,120.57l-2,2c.16,1.39,1.24.77,2,.93A2,2,0,0,0,239.88,120.57Z"/><path class="cls-2" d="M27.07,132.82c-.16-.78.31-1.55-.47-1.86s-.93.62-1.39.93l-.46.46-.47.47A1.74,1.74,0,0,0,27.07,132.82Z"/><path class="cls-2" d="M233.08,175.44c.15-2,.93-3.41-.47-4.65-.92.62-.62,1.55-.77,2.48A2.34,2.34,0,0,0,233.08,175.44Z"/><path class="cls-2" d="M242.67,180.86c.93-1.39.93-1.39,0-2.79-.78.16-1.86-.46-2,.93C241.27,179.62,242.05,180.24,242.67,180.86Z"/><path class="cls-2" d="M229.06,200.23c.93,1.09,1.85.93,2.93,0-.46-.46-1.08-.93-1.54-1.39-.31-.47-.62-.62-.93-.47a1,1,0,0,0-.46,1.24Z"/><path class="cls-2" d="M220.4,201c.15,0,.46-.16.61,0l1.4,1.39c.3-.31.61-.46.77-.77a9.06,9.06,0,0,0,0-2h-2.94A3.75,3.75,0,0,1,220.4,201Z"/><path class="cls-2" d="M221.94,204.57c.47.78,1.55.93,1.39,2.17.16,0,.47.16.62,0a1.69,1.69,0,0,0,.62-2.32c-.15-.47-1.08-.78-1.7-.62A4,4,0,0,0,221.94,204.57Z"/><path class="cls-2" d="M216.22,214.65c-.93-1.09-1.86-1.09-2.94,0,.46.46,1.08.93,1.55,1.39s.62.62.93.47a1,1,0,0,0,.46-1.24C216.07,215.11,216.22,214.8,216.22,214.65Z"/><path class="cls-2" d="M206.17,218.21a1,1,0,0,0,.46,1.24,5.82,5.82,0,0,0,3.25.16c.15,0,.46-.47.46-.47-.15-.31-.46-.77-.77-.77A12.82,12.82,0,0,0,206.17,218.21Z"/><path class="cls-2" d="M210.34,227.51c.93,1.09,1.86,1.09,2.94,0-.46-.47-1.08-.93-1.55-1.39s-.61-.63-.92-.47a1,1,0,0,0-.47,1.24C210.5,227,210.34,227.2,210.34,227.51Z"/><path class="cls-2" d="M71.45,226.74a1,1,0,0,0,.47,1.24c.46.46,1.24.77.93,1.7,1.08-.16,1.39-.47,1.39-1.08.15-1.09-.31-1.71-1.39-1.71A4.46,4.46,0,0,0,71.45,226.74Z"/><path class="cls-2" d="M169.67,238.2c-1.09.93-1.09,1.86,0,3,.46-.47.92-1.09,1.39-1.55s.62-.62.46-.93a1,1,0,0,0-1.24-.47C170.13,238.36,169.82,238.2,169.67,238.2Z"/><path class="cls-2" d="M111.51,241.15h2c1.24-1.09,1.09-1.24.31-2.64C112.13,239.91,112,239.91,111.51,241.15Z"/><path class="cls-2" d="M108.73,242.54c.15,1.09.46,1.4,1.08,1.4,1.24.15,1.7-.31,1.7-1.4v-1.39c-.93-.16-1.23.46-1.7.93C109.5,242.54,109.19,242.7,108.73,242.54Z"/><path class="cls-2" d="M93.33,240.29c1.24-.46,1.24-.46,2.63-2.32-1.39-.77-1.55-.77-2.63.31Z"/><path class="cls-2" d="M94.72,242.31c-.46-.77-1.54-.93-1.39-2.17-.15,0-.46-.15-.62,0a1.71,1.71,0,0,0-.62,2.32c.16.47,1.09.78,1.7.63S94.41,242.62,94.72,242.31Z"/><path class="cls-2" d="M97.9,252.12l-.46.47c-.16.31,0,.62.62.92h2.78l.47-.46c.15-.31,0-.62-.62-.93Z"/><path class="cls-2" d="M97.9,267.93c-.46.31-.77.62-.46.93l.46.46h2.79c.46-.31.62-.62.46-.93l-.46-.46Z"/><path class="cls-2" d="M123.73,15.81c1.08-.93,1.08-1.86,0-3A1.75,1.75,0,0,0,123.73,15.81Z"/><path class="cls-2" d="M74.24,15.81h1.39a9.84,9.84,0,0,0,0-2.17c-.15-.62-.62-.78-.93-.47-.15.16-.46.31-.46.47Z"/><path class="cls-2" d="M78.57,20.15a9,9,0,0,0,2,0c.31,0,.77-.62.77-.78a1,1,0,0,0-1.08-.62,3.83,3.83,0,0,0-1.24.31C78.57,19.06,78.41,19.53,78.57,20.15Z"/><path class="cls-2" d="M58.62,33a1,1,0,0,0,.46,1.24c.47.31.93-.31.93-1.24v-.62l-.46-.46c-.31-.16-.62,0-.93.46C58.46,32.55,58.62,32.86,58.62,33Z"/><path class="cls-2" d="M58.77,36.89c.31.77,1.86.77,2.32,0a.29.29,0,0,0,0-.47c-.31-.77-1.85-.77-2.32,0Z"/><path class="cls-2" d="M188.84,43.08c.93,0,1.55-.46,1.24-.93a1,1,0,0,0-1.24-.46h-.61c-.47.31-.78.62-.47.93.16.15.31.46.47.46Z"/><path class="cls-2" d="M44.23,52.38c-.92-1.08-1.85-1.08-2.93,0C42.38,53.47,43.31,53.47,44.23,52.38Z"/><path class="cls-2" d="M217.61,57.34a1,1,0,0,0-1.24.47c-.3.62.31,1.08,1.24,1.08h.62l.46-.46c.16-.31,0-.62-.46-.93A.91.91,0,0,0,217.61,57.34Z"/><path class="cls-2" d="M226.12,61.68a9,9,0,0,0,0-2c0-.31-.62-.78-.77-.78a1,1,0,0,0-.62,1.09,3.59,3.59,0,0,0,.31,1.24A.79.79,0,0,0,226.12,61.68Z"/><path class="cls-2" d="M235.24,63.39c-.77.31-.77,1.86,0,2.32a.29.29,0,0,0,.47,0c.77-.31.77-1.86,0-2.32Z"/><path class="cls-2" d="M220.4,67.42c0,.93.46,1.55.92,1.24a1,1,0,0,0,.47-1.24V66.8c-.31-.47-.62-.78-.93-.47-.15.16-.46.31-.46.47Z"/><path class="cls-2" d="M230.45,70.36c.93,0,1.54-.46,1.24-.93a1,1,0,0,0-1.24-.46h-.62c-.46.31-.77.62-.46.93.15.15.31.46.46.46Z"/><path class="cls-2" d="M229.06,83.22a8.45,8.45,0,0,0,2,0c.31,0,.77-.62.77-.77a1,1,0,0,0-1.08-.62,3.54,3.54,0,0,0-1.24.31A.79.79,0,0,0,229.06,83.22Z"/><path class="cls-2" d="M243.9,94.54h.47a1.56,1.56,0,0,0,0-2.33h-.47c-.15.16-.46.31-.46.47v1.39C243.44,94.23,243.75,94.38,243.9,94.54Z"/><path class="cls-2" d="M8.35,99.81c-.93-1.09-1.85-1.09-2.94,0C6.5,100.74,7.42,100.74,8.35,99.81Z"/><path class="cls-2" d="M11.29,129.87c.93,1.09,1.86,1.09,2.94,0C13.15,128.79,12.22,128.79,11.29,129.87Z"/><path class="cls-2" d="M237.56,137.78a1,1,0,0,0,1.24-.47,2,2,0,0,0,0-1.86,1,1,0,0,0-1.24-.46Z"/><path class="cls-2" d="M20.42,141.81h.46a1.56,1.56,0,0,0,0-2.33h-.46c-.16.16-.47.31-.47.47v1.39C20,141.5,20.26,141.65,20.42,141.81Z"/><path class="cls-2" d="M241.89,174.35c-.92-1.08-1.85-1.08-2.93,0C240,175.44,241,175.44,241.89,174.35Z"/><path class="cls-2" d="M45.63,177.92a8.45,8.45,0,0,0-2,0c-.31,0-.78.62-.78.77a1,1,0,0,0,1.08.62,3.48,3.48,0,0,0,1.24-.31C45.63,178.85,45.78,178.54,45.63,177.92Z"/><path class="cls-2" d="M233.39,185.2a8.45,8.45,0,0,0,0,2c0,.31.62.78.77.78a1,1,0,0,0,.62-1.09,3.83,3.83,0,0,0-.31-1.24A.8.8,0,0,0,233.39,185.2Z"/><path class="cls-2" d="M51.35,198.06c1.39-.31,1.7-.77,1.24-2.32,0-.16-.31-.31-.47-.47-.15,0-.31.16-.46.16-.16.15-.31.31-.31.46Z"/><path class="cls-2" d="M50,198.06a9,9,0,0,0,0-2c0-.31-.62-.78-.78-.78a1.05,1.05,0,0,0-.62,1.09,3.83,3.83,0,0,0,.31,1.24A.8.8,0,0,0,50,198.06Z"/><path class="cls-2" d="M223.33,199.46c1.4-.31,1.71-.78,1.24-2.33,0-.15-.31-.31-.46-.46-.16,0-.31.15-.47.15-.15.16-.31.31-.31.47Z"/><path class="cls-2" d="M39.28,205.19c1.09-.93,1.09-1.86,0-2.94C38.2,203.33,38.2,204.26,39.28,205.19Z"/><path class="cls-2" d="M227.66,208.14a9.1,9.1,0,0,0,2,0c.31,0,.77-.62.77-.78a1,1,0,0,0-1.08-.62,3.71,3.71,0,0,0-1.24.31C227.51,207.21,227.51,207.67,227.66,208.14Z"/><path class="cls-2" d="M52.12,213.87c-1.08.93-1.08,1.86,0,2.95C53.2,215.73,53.2,214.8,52.12,213.87Z"/><path class="cls-2" d="M67.59,222.24h.46a1.54,1.54,0,0,0,0-2.32h-.46c-.16.15-.47.31-.47.46v1.4C67.12,221.93,67.43,222.09,67.59,222.24Z"/><path class="cls-2" d="M71.45,226.74c-.31-1.4-.77-1.71-2.32-1.25-.15,0-.3.31-.46.47,0,.16.16.31.16.47.15.15.3.31.46.31A10.36,10.36,0,0,0,71.45,226.74Z"/><path class="cls-2" d="M62.17,228.29c-1.08.92-1.08,1.86,0,2.94C63.1,230.15,63.1,229.21,62.17,228.29Z"/><path class="cls-2" d="M115.84,241.15a1,1,0,0,0,.47,1.24c.46.31.93-.31.93-1.24v-.62l-.47-.47c-.31-.15-.62,0-.93.47Z"/><path class="cls-2" d="M83.52,248.09a1,1,0,0,0-1.24.47c-.31.46.31.93,1.24.93h.61l.47-.47c.15-.31,0-.62-.47-.93C84,247.94,83.67,248.09,83.52,248.09Z"/><path class="cls-2" d="M89.15,241.69a9,9,0,0,0-2,0c-.31,0-.77.62-.77.77a1,1,0,0,0,1.08.63,3.5,3.5,0,0,0,1.24-.32A.79.79,0,0,0,89.15,241.69Z"/><path class="cls-2" d="M103.32,253.82c-.78.31-.78,1.86,0,2.33a.29.29,0,0,0,.46,0c.77-.31.77-1.86,0-2.33C103.62,253.67,103.47,253.82,103.32,253.82Z"/><path class="cls-2" d="M85.68,255.68c.93,1.09,1.86,1.09,2.94,0C87.54,254.6,86.61,254.6,85.68,255.68Z"/><path class="cls-2" d="M92.8,271.49c.93,1.09,1.85,1.09,2.94,0C94.65,270.41,93.73,270.41,92.8,271.49Z"/><path class="cls-2" d="M25.21,159.78c-.93-1.08-1.86-1.08-2.94,0C23.2,160.87,24.13,160.87,25.21,159.78Z"/><path class="cls-2" d="M147.55,261.45c1.08-.93,1.08-1.86,0-2.94C146.62,259.59,146.62,260.52,147.55,261.45Z"/><path class="cls-2" d="M126.36,264.55c.93,0,1.55-.47,1.24-.93a1,1,0,0,0-1.24-.47h-.62c-.46.31-.77.62-.46.93.15.16.31.47.46.47S126.05,264.55,126.36,264.55Z"/><path class="cls-2" d="M113.21.46c-.15.31,0,.62.47.93l.46-.46c.16-.31,0-.62-.46-.93Z"/><path class="cls-2" d="M86.3,8.37c.31.15.62,0,.93-.47l-.46-.46c-.31-.16-.62,0-.93.46Z"/><path class="cls-2" d="M80.12,10.07C80,9,79.81,8.83,78.72,8.68,78.72,9.76,78.88,9.76,80.12,10.07Z"/><path class="cls-2" d="M80.12,10.69c0,.16.15.31.46.47a.57.57,0,0,0,.46.15c.47-.31.62-.62.31-.93s-.62-.62-1.08-.31C80,10.07,80,10.54,80.12,10.69Z"/><path class="cls-2" d="M107.34,12.24c.31.47.62.62.92.47l.47-.47c-.31-.46-.62-.62-.93-.46C107.49,11.78,107.49,12.09,107.34,12.24Z"/><path class="cls-2" d="M59.08,14.1c.31.16.62,0,.93-.46l-.46-.47c-.31-.15-.62,0-.93.47Z"/><path class="cls-2" d="M84.45,15.19s.31.46.46.46a1.49,1.49,0,0,0,.77-.62c.31-.62,0-.93-.62-.62A3.53,3.53,0,0,0,84.45,15.19Z"/><path class="cls-2" d="M96.51,17.2c.15,0,.31-.15.46-.46a.57.57,0,0,0,.16-.47c-.31-.46-.62-.62-.93-.31s-.62.62-.31,1.09C95.89,17.2,96.2,17.2,96.51,17.2Z"/><path class="cls-2" d="M67.12,17.2c1.09-.15,1.24-.31,1.4-1.39C67.43,16,67.28,16.12,67.12,17.2Z"/><path class="cls-2" d="M64.8,16s-.46.31-.46.47.31.77.62.77c.62.31.93,0,.62-.62C65.58,16.27,65.11,16.12,64.8,16Z"/><path class="cls-2" d="M50.88,16.89l.47-.46c-.31-.47-.62-.62-.93-.47l-.46.47C50.27,17.05,50.57,17.05,50.88,16.89Z"/><path class="cls-2" d="M151.88,18.13l.46.47c.47-.31.62-.62.47-.93l-.47-.47C151.88,17.51,151.73,17.82,151.88,18.13Z"/><path class="cls-2" d="M119.86,18.13c.16-.31,0-.62-.46-.93l-.46.47c-.16.31,0,.62.46.93C119.56,18.6,119.71,18.29,119.86,18.13Z"/><path class="cls-2" d="M94.5,18.13s.31.47.46.47a1.61,1.61,0,0,0,.78-.62c.31-.62,0-.93-.62-.62C95,17.36,94.65,17.82,94.5,18.13Z"/><path class="cls-2" d="M86.92,18.13c.16-.31,0-.62-.46-.93l-.47.47c-.15.31,0,.62.47.93C86.61,18.6,86.77,18.29,86.92,18.13Z"/><path class="cls-2" d="M65.73,17.2c.16,1.09.47,1.4.93,1.24a1,1,0,0,0,.46-1.24Z"/><path class="cls-2" d="M62.64,18.13c.15-.31,0-.62-.47-.93l-.46.47c-.15.31,0,.62.46.93Z"/><path class="cls-2" d="M89.09,19.84c.31.15.61,0,.92-.47l-.46-.46c-.31-.16-.62,0-.93.46Z"/><path class="cls-2" d="M139.2,21.23c.31.16.62,0,.93-.46l-.47-.47c-.31-.15-.62,0-.93.47C138.73,20.92,139,21.08,139.2,21.23Z"/><path class="cls-2" d="M126.05,21.08l.46.46c.47-.31.62-.62.47-.93l-.47-.46A.69.69,0,0,0,126.05,21.08Z"/><path class="cls-2" d="M114.61,21.08l.46.46c.46-.31.62-.62.46-.93l-.46-.46A.69.69,0,0,0,114.61,21.08Z"/><path class="cls-2" d="M106.41,20.3s-.47.31-.47.47c.16.31.31.77.62.77.62.31.93,0,.62-.62A1.54,1.54,0,0,0,106.41,20.3Z"/><path class="cls-2" d="M157.14,22.47c.15-.31,0-.62-.47-.93l-.46.47c-.16.31,0,.62.46.93C156.83,22.94,157,22.63,157.14,22.47Z"/><path class="cls-2" d="M141.83,23.87l.46.46c.46-.31.62-.62.46-.93l-.46-.46C141.83,23.25,141.67,23.56,141.83,23.87Z"/><path class="cls-2" d="M64,23.87c.16-.31,0-.62-.46-.93l-.47.46c-.15.31,0,.62.47.93Z"/><path class="cls-2" d="M60.47,23.25l-.46.46c.31.47.62.62.93.47l.46-.47C61.09,23.25,60.78,23.09,60.47,23.25Z"/><path class="cls-2" d="M67.59,24.64l-.47.47c.31.46.62.62.93.46l.47-.46C68.21,24.64,67.9,24.49,67.59,24.64Z"/><path class="cls-2" d="M164.87,26.81l.47.47c.46-.31.61-.62.46-.93l-.46-.47C164.87,26.19,164.72,26.5,164.87,26.81Z"/><path class="cls-2" d="M64.8,26l-.46.46c.31.47.62.62.93.47l.46-.47C65.42,26,65.11,25.88,64.8,26Z"/><path class="cls-2" d="M57.38,29.6l.46.47c.47-.31.62-.62.47-.93l-.47-.47C57.38,29,57.23,29.29,57.38,29.6Z"/><path class="cls-2" d="M205.86,30.53l-.47-.46c-.46.31-.62.62-.46.93l.46.46A.65.65,0,0,0,205.86,30.53Z"/><path class="cls-2" d="M61.87,31.31c.3.15.61,0,.92-.47l-.46-.46c-.31-.16-.62,0-.93.46Z"/><path class="cls-2" d="M212.82,33.17c-.31-.16-.62,0-.93.46l.46.47c.31.15.62,0,.93-.47Z"/><path class="cls-2" d="M67.12,34.41c-.15-1.09-.46-1.4-.92-1.24a1,1,0,0,0-.47,1.24Z"/><path class="cls-2" d="M166.42,35.65c.31.15.62,0,.93-.47l-.47-.46c-.31-.16-.62,0-.93.46Z"/><path class="cls-2" d="M243.9,38.9l-.46.46c.31.47.62.62.93.47l.46-.47C244.52,38.9,244.21,38.74,243.9,38.9Z"/><path class="cls-2" d="M57.69,38.9s-.46.31-.46.46c.15.31.3.78.61.78.62.31.93,0,.62-.62C58.46,39.21,58,39.05,57.69,38.9Z"/><path class="cls-2" d="M234.32,41.38l.46-.47c-.31-.46-.62-.62-.93-.46l-.46.46C233.7,41.38,234,41.53,234.32,41.38Z"/><path class="cls-2" d="M201.53,40.6l-.47-.46c-.46.31-.62.62-.46.93l.46.46A.69.69,0,0,0,201.53,40.6Z"/><path class="cls-2" d="M184.36,40.6c-.16-.15-.46-.46-.46-.46-.47.31-.62.62-.47.93l.47.46A.69.69,0,0,0,184.36,40.6Z"/><path class="cls-2" d="M227.82,42.15c-.16.31,0,.62.46.93l.47-.46c.15-.31,0-.62-.47-.93C228.28,41.53,228,42,227.82,42.15Z"/><path class="cls-2" d="M47.79,45.87c-.46.31-.62.62-.46.93l.46.47c.46-.31.62-.62.46-.93Z"/><path class="cls-2" d="M219.78,47.42c-.47.31-.62.62-.47.93l.47.47c.46-.31.62-.62.46-.93S219.93,47.58,219.78,47.42Z"/><path class="cls-2" d="M209.88,47.58c-.31-.16-.62,0-.93.46l.46.47c.31.15.62,0,.93-.47Z"/><path class="cls-2" d="M237.41,49.75c.15-.31,0-.62-.46-.93l-.47.46c-.15.31,0,.62.47.93Z"/><path class="cls-2" d="M223,49.28l-.46-.46c-.46.31-.62.62-.46.93l.46.46C223,49.9,223.18,49.59,223,49.28Z"/><path class="cls-2" d="M201.84,49.44c.31.46.61.62.92.46l.47-.46c-.31-.47-.62-.62-.93-.47Z"/><path class="cls-2" d="M52,49s-.47.31-.47.47c.16.31.31.77.62.77.62.31.93,0,.62-.62A1.54,1.54,0,0,0,52,49Z"/><path class="cls-2" d="M221.32,55.79l.47-.46c-.31-.47-.62-.62-.93-.47l-.46.47C220.71,55.79,221,56,221.32,55.79Z"/><path class="cls-2" d="M220.71,58.43l.46.46c.46-.31.62-.62.46-.93l-.46-.46A.65.65,0,0,0,220.71,58.43Z"/><path class="cls-2" d="M226.12,62.3c0,.16.15.31.46.47a.59.59,0,0,0,.47.15c.46-.31.61-.62.3-.93s-.61-.62-1.08-.31A1,1,0,0,0,226.12,62.3Z"/><path class="cls-2" d="M19.33,62.92l.47-.46c-.31-.47-.62-.62-.93-.47l-.47.47C18.71,62.92,19,63.08,19.33,62.92Z"/><path class="cls-2" d="M241.43,65.71l.46-.46c-.31-.47-.62-.62-.92-.47l-.47.47C240.81,65.71,241.12,65.87,241.43,65.71Z"/><path class="cls-2" d="M20.88,66.18c-.31-.16-.62,0-.93.46l.47.47c.3.15.61,0,.92-.47A1.1,1.1,0,0,1,20.88,66.18Z"/><path class="cls-2" d="M261.07,68.66c.31.15.62,0,.93-.47l-.46-.46c-.31-.16-.62,0-.93.46Z"/><path class="cls-2" d="M227.35,68.35c.16-.31,0-.62-.46-.93l-.46.46c-.16.31,0,.62.46.93Z"/><path class="cls-2" d="M30.16,57.34c.31.47.62.62.93.47l.46-.47c-.31-.46-.62-.62-.93-.46Z"/><path class="cls-2" d="M14.38,69.9l.47.46c.46-.31.62-.62.46-.93L14.85,69A.69.69,0,0,0,14.38,69.9Z"/><path class="cls-2" d="M34.49,71.29l.46.47c.47-.31.62-.62.47-.93L35,70.36C34.49,70.67,34.34,71,34.49,71.29Z"/><path class="cls-2" d="M224.73,75.32c0,.16.15.31.46.47a.58.58,0,0,0,.46.15c.47-.31.62-.62.31-.93s-.61-.62-1.08-.31C224.73,74.7,224.73,75,224.73,75.32Z"/><path class="cls-2" d="M234.47,84.15c.16-.31,0-.62-.46-.93l-.47.47c-.15.31,0,.62.47.93C234.16,84.62,234.32,84.31,234.47,84.15Z"/><path class="cls-2" d="M244.37,85.86l.46-.47c-.31-.46-.62-.62-.93-.46l-.46.46A.69.69,0,0,0,244.37,85.86Z"/><path class="cls-2" d="M242.82,87.72c-.31-.16-.62,0-.93.46l.47.47c.31.15.62,0,.93-.47C243.44,88.18,243,87.87,242.82,87.72Z"/><path class="cls-2" d="M21.81,89.27l-.47.46c.31.47.62.62.93.47l.47-.47C22.43,89.27,22.12,89.11,21.81,89.27Z"/><path class="cls-2" d="M23.2,92.06c-.16.15-.46.46-.46.46.3.47.61.62.92.47l.47-.47C23.82,92.06,23.51,91.9,23.2,92.06Z"/><path class="cls-2" d="M230.76,93.76c-.16.31,0,.62.46.93l.47-.46c.15-.31,0-.62-.47-.93C231.07,93.3,230.91,93.61,230.76,93.76Z"/><path class="cls-2" d="M260.3,98.57c.15-.31,0-.62-.47-.93l-.46.46c-.15.31,0,.62.46.93Z"/><path class="cls-2" d="M18.71,102.44c-.15.31,0,.62.47.93l.46-.46c.16-.31,0-.62-.46-.93C19,101.82,18.87,102.29,18.71,102.44Z"/><path class="cls-2" d="M241.89,109.72c.31.47.62.63.93.47.16-.15.47-.47.47-.47-.31-.46-.62-.61-.93-.46Z"/><path class="cls-2" d="M239.26,113l.47.46c.46-.3.62-.62.46-.93l-.46-.46A.65.65,0,0,0,239.26,113Z"/><path class="cls-2" d="M243.6,117.16l.46.47c.46-.31.62-.62.46-.93l-.46-.46C243.6,116.54,243.44,116.85,243.6,117.16Z"/><path class="cls-2" d="M247.93,122.9l.46.46c.46-.31.62-.62.46-.93l-.46-.46C247.93,122.28,247.77,122.59,247.93,122.9Z"/><path class="cls-2" d="M18.71,122.43c-.15.31,0,.62.47.93l.46-.46c.16-.31,0-.62-.46-.93C19,122,18.87,122.28,18.71,122.43Z"/><path class="cls-2" d="M15.31,122.9c.16-.31,0-.62-.46-.93l-.47.46c-.15.31,0,.62.47.93C15,123.36,15.16,123.05,15.31,122.9Z"/><path class="cls-2" d="M243.13,125.84c.16-.31,0-.62-.46-.93l-.47.47c-.15.31,0,.62.47.93Z"/><path class="cls-2" d="M7.89,125.07c-.31-.16-.62,0-.93.46l.46.47c.31.15.62,0,.93-.47Z"/><path class="cls-2" d="M239.73,127.7c.15,0,.31-.15.46-.46a.57.57,0,0,0,.16-.47c-.31-.46-.62-.62-.93-.31s-.62.62-.31,1.09C239.11,127.86,239.57,127.86,239.73,127.7Z"/><path class="cls-2" d="M256.9,127.7c-.47.31-.62.62-.47.93l.47.47c.46-.31.62-.62.46-.93C257.36,128,257.2,127.86,256.9,127.7Z"/><path class="cls-2" d="M237.72,128.63s.31.47.46.47a1.61,1.61,0,0,0,.78-.62c.3-.62,0-.93-.62-.62C238.18,127.86,238,128.32,237.72,128.63Z"/><path class="cls-2" d="M242.51,147.85c.16,0,.31-.15.47-.46a.59.59,0,0,0,.15-.47c-.31-.46-.62-.62-.93-.31s-.62.62-.31,1.09A1,1,0,0,0,242.51,147.85Z"/><path class="cls-2" d="M241.89,149.24v-1.39c-1.08.16-1.23.31-1.39,1.39Z"/><path class="cls-2" d="M241.89,149.87c0,.15.16.31.47.46a.55.55,0,0,0,.46.16c.47-.31.62-.62.31-.94s-.62-.62-1.08-.31A.94.94,0,0,0,241.89,149.87Z"/><path class="cls-2" d="M255.35,151.88c.31.16.62,0,.93-.47l-.47-.46c-.31-.16-.61,0-.93.46C254.88,151.57,255.2,151.73,255.35,151.88Z"/><path class="cls-2" d="M32.48,154.51c.15-.3,0-.61-.46-.92l-.47.46c-.15.31,0,.62.47.93C32.17,155,32.32,154.67,32.48,154.51Z"/><path class="cls-2" d="M34.18,156.37h1.39c-.15-1.08-.46-1.39-.93-1.24A1.05,1.05,0,0,0,34.18,156.37Z"/><path class="cls-2" d="M32.94,157.3s.31.47.47.47c.31-.16.77-.31.77-.62.31-.62,0-.93-.62-.62A1.54,1.54,0,0,0,32.94,157.3Z"/><path class="cls-2" d="M32.94,160.25l.47.46c.46-.31.62-.62.46-.93l-.46-.46C32.94,159.63,32.79,159.94,32.94,160.25Z"/><path class="cls-2" d="M243.6,161.64l.46.47c.46-.31.62-.62.46-.93l-.46-.47C243.6,161,243.44,161.33,243.6,161.64Z"/><path class="cls-2" d="M34.34,163s.3.46.46.46c.31-.15.77-.31.77-.62.31-.62,0-.93-.62-.62A1.54,1.54,0,0,0,34.34,163Z"/><path class="cls-2" d="M245.76,166.29l.46-.46c-.31-.47-.61-.62-.92-.47l-.47.47C245.14,166.29,245.45,166.45,245.76,166.29Z"/><path class="cls-2" d="M242.2,169.86c-.15.31,0,.62.47.93l.46-.47c.16-.31,0-.62-.46-.93C242.51,169.39,242.36,169.7,242.2,169.86Z"/><path class="cls-2" d="M237.41,172.65l-.46-.47c-.47.31-.62.62-.47.93l.47.47A.66.66,0,0,0,237.41,172.65Z"/><path class="cls-2" d="M243.9,176.37c.31.15.62,0,.93-.47l-.46-.46c-.31-.16-.62,0-.93.46C243.29,175.9,243.75,176.21,243.9,176.37Z"/><path class="cls-2" d="M41.45,175.9s.31.47.46.47a1.61,1.61,0,0,0,.78-.62c.31-.62,0-.93-.62-.62C41.91,175.28,41.76,175.59,41.45,175.9Z"/><path class="cls-2" d="M27.22,178.54c-.15.31,0,.62.46.93l.47-.47c.15-.31,0-.62-.47-.93C27.68,177.92,27.38,178.23,27.22,178.54Z"/><path class="cls-2" d="M24,179c.16-.31,0-.62-.46-.93l-.47.47c-.15.31,0,.62.47.93Z"/><path class="cls-2" d="M38.2,183.19c.16-.31,0-.62-.46-.93l-.47.46c-.15.31,0,.62.47.93C37.89,183.81,38.05,183.34,38.2,183.19Z"/><path class="cls-2" d="M239.57,184.89c.31.16.62,0,.93-.46L240,184c-.31-.15-.62,0-.93.47C239.11,184.58,239.42,184.74,239.57,184.89Z"/><path class="cls-2" d="M41.6,184.74l.47.46c.46-.31.62-.62.46-.93l-.46-.46A.69.69,0,0,0,41.6,184.74Z"/><path class="cls-2" d="M51.5,193.26s.31.46.47.46c.31-.15.77-.31.77-.62.31-.62,0-.92-.62-.62C52,192.48,51.66,193,51.5,193.26Z"/><path class="cls-2" d="M40.83,193.57l.47-.47c-.31-.46-.62-.61-.93-.46l-.47.46C40.21,193.57,40.52,193.72,40.83,193.57Z"/><path class="cls-2" d="M45.93,195.74c-.15.31,0,.62.47.93l.46-.47c.16-.31,0-.62-.46-.93C46.24,195.27,46.09,195.58,45.93,195.74Z"/><path class="cls-2" d="M28,196.36l.47-.47c-.31-.46-.62-.62-.93-.46l-.46.46C27.38,196.36,27.68,196.51,28,196.36Z"/><path class="cls-2" d="M51.35,198.06H50c.15,1.09.46,1.4.92,1.24A1,1,0,0,0,51.35,198.06Z"/><path class="cls-2" d="M46.55,199.3l.47-.46c-.31-.47-.62-.62-.93-.47l-.46.47C45.94,199.3,46.24,199.46,46.55,199.3Z"/><path class="cls-2" d="M227.66,203.18c.31.46.62.62.93.46l.47-.46c-.31-.47-.62-.62-.93-.47C228,202.71,227.82,203,227.66,203.18Z"/><path class="cls-2" d="M232.92,206.43l.47-.46c-.31-.47-.62-.62-.93-.47L232,206A.69.69,0,0,0,232.92,206.43Z"/><path class="cls-2" d="M226.27,209.07s.31.46.47.46c.31-.15.77-.31.77-.62.31-.62,0-.93-.62-.62C226.74,208.29,226.43,208.76,226.27,209.07Z"/><path class="cls-2" d="M63.41,210.93c.16,0,.31-.16.47-.47A.57.57,0,0,0,64,210c-.31-.47-.62-.62-.93-.31s-.62.62-.31,1.08A.39.39,0,0,0,63.41,210.93Z"/><path class="cls-2" d="M220.86,212.17c.31.15.62,0,.93-.47l-.47-.46c-.31-.16-.61,0-.92.46C220.4,211.86,220.71,212,220.86,212.17Z"/><path class="cls-2" d="M61.56,211.86s.31.46.46.46a1.49,1.49,0,0,0,.77-.62c.31-.62,0-.93-.62-.62A1.59,1.59,0,0,0,61.56,211.86Z"/><path class="cls-2" d="M217.77,212.94c-.16.31,0,.62.46.93l.46-.46c.16-.31,0-.62-.46-.93Z"/><path class="cls-2" d="M63.26,220.85c.31.15.62,0,.93-.47l-.47-.46c-.31-.16-.62,0-.93.46Z"/><path class="cls-2" d="M205.24,221.16s-.47.31-.47.46c.16.31.31.78.62.78.62.31.93,0,.62-.62C206,221.62,205.55,221.31,205.24,221.16Z"/><path class="cls-2" d="M207.56,224c-.16-1.09-.31-1.24-1.39-1.4C206.32,223.63,206.48,223.79,207.56,224Z"/><path class="cls-2" d="M207.56,224.57c0,.15.15.31.46.46a.59.59,0,0,0,.47.15c.46-.3.61-.61.31-.92s-.62-.63-1.09-.31C207.56,224,207.56,224.41,207.56,224.57Z"/><path class="cls-2" d="M201.84,224.57c0,.15.15.31.46.46a.57.57,0,0,0,.46.15c.47-.3.62-.61.31-.92s-.62-.63-1.08-.31C201.68,224,201.84,224.41,201.84,224.57Z"/><path class="cls-2" d="M53.82,228.44c-.31-.15-.62,0-.93.46l.47.47c.31.15.62,0,.93-.47Z"/><path class="cls-2" d="M48.25,232c.16-.31,0-.62-.46-.93l-.46.47c-.16.31,0,.62.46.93C48,232.47,48.1,232.16,48.25,232Z"/><path class="cls-2" d="M203.07,235c.16-.31,0-.62-.46-.93l-.46.46c-.16.31,0,.62.46.93Z"/><path class="cls-2" d="M101.46,234.64c.31.46.62.62.93.46l.46-.46c-.31-.47-.62-.62-.93-.47C101.77,234.33,101.77,234.48,101.46,234.64Z"/><path class="cls-2" d="M64.49,235l.47.46c.46-.31.62-.62.46-.93L65,234C64.49,234.33,64.34,234.64,64.49,235Z"/><path class="cls-2" d="M51.81,238.05c.31.15.62,0,.93-.47l-.46-.46c-.31-.16-.62,0-.93.46Z"/><path class="cls-2" d="M176.47,238.51,176,239c.31.46.62.62.92.46l.47-.46C177.09,238.51,176.78,238.36,176.47,238.51Z"/><path class="cls-2" d="M64.49,238.82c-.15.31,0,.62.47.93l.46-.46c.16-.31,0-.62-.46-.93C65,238.2,64.65,238.67,64.49,238.82Z"/><path class="cls-2" d="M162.4,241.15c.15,0,.31-.16.46-.47a.57.57,0,0,0,.15-.46c-.3-.47-.61-.62-.92-.31s-.62.62-.31,1.08C161.78,241.15,162.09,241.15,162.4,241.15Z"/><path class="cls-2" d="M160.39,242.08s.31.46.46.46a1.49,1.49,0,0,0,.77-.62c.31-.62,0-.93-.61-.62C160.85,241.3,160.54,241.77,160.39,242.08Z"/><path class="cls-2" d="M107.8,241.3s-.46.31-.46.47a1.49,1.49,0,0,0,.62.77c.61.31.92,0,.61-.62C108.57,241.61,108.11,241.46,107.8,241.3Z"/><path class="cls-2" d="M66.66,241.46c-.31-.16-.62,0-.93.46l.47.47c.31.15.61,0,.92-.47C67.12,241.77,66.81,241.61,66.66,241.46Z"/><path class="cls-2" d="M70.22,243c-.16.31,0,.62.46.93l.47-.47c.15-.31,0-.62-.47-.93Z"/><path class="cls-2" d="M51.19,243l-.46-.47c-.46.31-.62.62-.46.93l.46.47A.69.69,0,0,0,51.19,243Z"/><path class="cls-2" d="M59.7,244.56l-.46-.47c-.47.31-.62.62-.47.93l.47.47C59.7,245.18,59.85,244.87,59.7,244.56Z"/><path class="cls-2" d="M129.45,246.88c.16,0,.31-.15.47-.46a.59.59,0,0,0,.15-.47c-.31-.46-.62-.62-.93-.31s-.62.62-.3,1.09C128.84,246.88,129.14,246.88,129.45,246.88Z"/><path class="cls-2" d="M45.47,246.42c.16-.31,0-.62-.46-.93l-.47.46c-.15.31,0,.62.47.93Z"/><path class="cls-2" d="M55.52,247.81c.16-.31,0-.62-.46-.93l-.46.47c-.16.31,0,.62.46.93A1.15,1.15,0,0,1,55.52,247.81Z"/><path class="cls-2" d="M41.14,247.81c.15-.31,0-.62-.46-.93l-.47.47c-.15.31,0,.62.47.93Z"/><path class="cls-2" d="M110,249.21c.15-.31,0-.62-.47-.93l-.46.46c-.16.31,0,.62.46.93C109.5,249.83,109.66,249.52,110,249.21Z"/><path class="cls-2" d="M119.71,250c-.31-.15-.62,0-.93.47l.47.46c.31.16.61,0,.92-.46Z"/><path class="cls-2" d="M82,251.65c.31.47.62.62.93.47l.46-.47c-.31-.46-.62-.61-.93-.46C82.28,251.35,82.28,251.5,82,251.65Z"/><path class="cls-2" d="M64.8,255.25c.31.16.62,0,.93-.46l-.46-.47c-.31-.15-.62,0-.93.47Z"/><path class="cls-2" d="M52,254.17s-.47.31-.47.46a1.61,1.61,0,0,0,.62.78c.62.31.93,0,.62-.62A3,3,0,0,0,52,254.17Z"/><path class="cls-2" d="M192.07,238.36c.15-.31,0-.62-.47-.93l-.46.46c-.16.31,0,.62.46.93Z"/><path class="cls-2" d="M130.38,256.49l.47.47c.46-.31.61-.62.46-.93l-.46-.47C130.38,255.87,130.23,256.18,130.38,256.49Z"/><path class="cls-2" d="M52.89,256.18c0,.16.16.31.47.47a.57.57,0,0,0,.46.15c.47-.31.62-.62.31-.93s-.62-.62-1.08-.31C52.74,255.56,52.74,255.87,52.89,256.18Z"/><path class="cls-2" d="M90.08,238.59l.47-.46c-.31-.47-.62-.62-.93-.47l-.47.47C89.46,238.59,89.77,238.74,90.08,238.59Z"/><path class="cls-2" d="M58.31,261.76l-.47-.46c-.46.31-.61.62-.46.93l.46.46C58.31,262.38,58.46,262.07,58.31,261.76Z"/><path class="cls-2" d="M53.05,263.62l.46.46c.47-.31.62-.62.47-.93l-.47-.46C53.05,263,52.89,263.31,53.05,263.62Z"/><path class="cls-2" d="M95,245.57l.47.46c.46-.31.61-.62.46-.93l-.46-.47A.7.7,0,0,0,95,245.57Z"/><path class="cls-2" d="M89.31,246.49c-.16.31,0,.62.46.93l.47-.46c.15-.31,0-.62-.47-.93Z"/><path class="cls-2" d="M182.66,252.59c-.31-.16-.62,0-.93.46l.46.46c.31.16.62,0,.93-.46Z"/><path class="cls-2" d="M92.64,254.45c.16-.32,0-.63-.46-.94l-.46.47c-.16.31,0,.62.46.93Z"/><path class="cls-2" d="M120.64,276.69c.31.16.62,0,.93-.46l-.47-.47c-.31-.15-.62,0-.93.47C120.17,276.38,120.48,276.54,120.64,276.69Z"/><path class="cls-2" d="M103.16,276.54l.46.46c.47-.31.62-.62.47-.93l-.47-.46C103.16,275.92,103,276.23,103.16,276.54Z"/><path class="cls-2" d="M108.88,261.73l.47.46c.46-.31.62-.62.46-.93l-.46-.46C108.73,261,108.73,261.26,108.88,261.73Z"/><path class="cls-2" d="M157,260.21l.47-.47c-.31-.46-.62-.61-.93-.46-.15.16-.47.46-.47.46A.65.65,0,0,0,157,260.21Z"/><path class="cls-2" d="M156.21,263.77c-.16.31,0,.62.46.93l.47-.46c.15-.31,0-.62-.47-.93Z"/><path class="cls-2" d="M152.65,266l.47-.47c-.31-.46-.62-.62-.93-.46l-.46.46C152,266,152.34,266.1,152.65,266Z"/><path class="cls-2" d="M224.11,225.65l.46-.47c-.31-.46-.62-.61-.93-.46-.15.16-.46.46-.46.46A.65.65,0,0,0,224.11,225.65Z"/><path class="cls-2" d="M139.51,258c-.31-.15-.62,0-.93.47l.46.46c.31.16.62,0,.93-.46C140.13,258.51,139.66,258.2,139.51,258Z"/><path class="cls-2" d="M113.06,269.32c-.16.31,0,.62.46.93l.47-.46c.15-.31,0-.62-.47-.93C113.52,268.7,113.21,269.17,113.06,269.32Z"/><path class="cls-2" d="M122.34,265.64l.46.46c.47-.31.62-.62.47-.93l-.47-.47C122.18,264.86,122.18,265.17,122.34,265.64Z"/><path class="cls-2" d="M121.1,257.73l.47.47c.46-.31.61-.62.46-.93l-.46-.47C121.1,257.11,121,257.42,121.1,257.73Z"/><path class="cls-2" d="M198.43,242.23c.16-.31,0-.62-.46-.93l-.46.47c-.16.31,0,.62.46.93Z"/><path class="cls-2" d="M89.77,241.69c.16,0,.31-.15.47-.46a.6.6,0,0,0,.15-.47c-.31-.47-.62-.62-.93-.31s-.61.62-.31,1.09C89.15,241.69,89.62,241.69,89.77,241.69Z"/></g></svg>