<svg id="Layer_1" data-name="Layer 1" xmlns="http://www.w3.org/2000/svg" viewBox="0 0 56.85 71.11"><defs><style>.cls-1{fill:none;}.cls-2{fill:#df633c;}</style></defs><path class="cls-1" d="M29.88,58a.33.33,0,0,0,.16.12s.09-.06,0-.15l-.13,0A.21.21,0,0,0,29.88,58Z"/><path class="cls-1" d="M30,58c.06,0,.06,0,0,0H30Z"/><path class="cls-1" d="M29.78,57.89l.1,0h0Z"/><path class="cls-2" d="M40.4,57.06a.11.11,0,0,0-.07,0,.56.56,0,0,1-.49.22.16.16,0,0,0-.16.09,2.55,2.55,0,0,1,.4.5,1.27,1.27,0,0,1,.32,0l.43-.44Z"/><path class="cls-2" d="M22.6,59.49c-.13.18-.09.34.09.5a2.46,2.46,0,0,0,.38-.41.34.34,0,0,0-.1-.5A2.41,2.41,0,0,0,22.6,59.49Z"/><path class="cls-2" d="M13.09,53.58c-.07,0-.1,0-.19.1l-.31.28c.22.22.4.22.59,0,0-.06,0-.09,0-.13A.21.21,0,0,0,13.09,53.58Z"/><path class="cls-2" d="M40.68,60.75s-.1,0-.13,0v-.38c-.22-.21-.25-.21-.53-.06.28.38.28.38.53.47,0,.22-.19.26-.28.41s.09.12.19.15a.31.31,0,0,0,.34-.12A.35.35,0,0,0,40.68,60.75Z"/><path class="cls-2" d="M41.55,63.1c-.13.06-.16.12-.13.18l.09.1h.56c.13-.06.16-.13.13-.19l-.09-.09Z"/><path class="cls-2" d="M32.55,59.29l-.1.09c0,.07,0,.13.1.19h.56l.09-.09c.06-.07,0-.13-.09-.19Z"/><path class="cls-2" d="M40.49,58.84a.21.21,0,0,0-.25-.09s-.09,0-.12,0-.13.12-.1.19l.1.09h.12C40.43,59,40.55,58.94,40.49,58.84Z"/><path class="cls-2" d="M41.73,61.34a.21.21,0,0,0,.22-.12s-.09-.16-.16-.16a1.78,1.78,0,0,0-.4,0,.16.16,0,0,0,.09.22A.82.82,0,0,0,41.73,61.34Z"/><path class="cls-2" d="M41,63.44s-.06,0-.1,0-.15.41,0,.47.07,0,.1,0S41.17,63.5,41,63.44Z"/><path class="cls-2" d="M40,62.82c.22.22.41.22.59,0C40.38,62.6,40.19,62.6,40,62.82Z"/><path class="cls-2" d="M33.54,60c.22.22.41.22.59,0C34,59.79,33.76,59.79,33.54,60Z"/><path class="cls-2" d="M21.87,58.55a.39.39,0,0,0,0-.59C21.65,58.18,21.65,58.36,21.87,58.55Z"/><path class="cls-2" d="M45.78,54.87s.06.09.09.09.12-.12.09-.19l-.09-.09C45.78,54.74,45.74,54.8,45.78,54.87Z"/><path class="cls-2" d="M14.64,55.46l.09.1c.1-.07.13-.13.1-.19l-.1-.1C14.64,55.34,14.61,55.4,14.64,55.46Z"/><path class="cls-2" d="M45,55.9l-.1.09c.07.1.13.13.19.1l.09-.1Q45.06,55.86,45,55.9Z"/><path class="cls-2" d="M19.8,56.28l.1.09q.09,0,.18-.09l-.09-.1C19.93,56.15,19.87,56.18,19.8,56.28Z"/><path class="cls-2" d="M42.51,56.24s-.09-.12-.09-.09-.13.13-.1.19l.1.09C42.51,56.37,42.54,56.31,42.51,56.24Z"/><path class="cls-2" d="M23.1,56.74c-.12-.06-.18,0-.12.13a.38.38,0,0,0,.15.13s.1-.1.1-.1S23.13,56.74,23.1,56.74Z"/><path class="cls-2" d="M42.26,56.87c-.06-.09-.12-.13-.19-.09s-.09.06-.09.09.13.13.19.09Z"/><path class="cls-2" d="M41.36,57.09,41.27,57c-.1.06-.13.12-.1.18l.1.1C41.36,57.21,41.39,57.15,41.36,57.09Z"/><path class="cls-2" d="M45.19,57.09a.14.14,0,0,0,.09.19l.09-.1q0-.09-.09-.18Z"/><path class="cls-2" d="M43.47,57.4c0,.06,0,.13.1.19l.09-.09c0-.07,0-.13-.09-.19Z"/><path class="cls-2" d="M46.34,57.78l.09.09c.09-.06.12-.12.09-.19l-.09-.09C46.34,57.65,46.3,57.71,46.34,57.78Z"/><path class="cls-2" d="M44.31,58.06a.21.21,0,0,1,.1.09q.14-.09.09-.18l-.09-.1C44.31,57.93,44.28,58,44.31,58.06Z"/><path class="cls-2" d="M33.46,58.15c-.09.07-.13.13-.09.19s.09.13.09.09.12-.12.09-.18Z"/><path class="cls-2" d="M31.41,58.5l-.1.09c.07.09.13.13.19.09l.09-.09Q31.5,58.46,31.41,58.5Z"/><path class="cls-2" d="M40.55,59.47c-.06,0-.06-.07-.09-.1s-.13,0-.19.1l.09.09C40.43,59.59,40.49,59.56,40.55,59.47Z"/><path class="cls-2" d="M42.35,59.37l-.09.1c.06.09.13.12.19.09l.09-.09C42.48,59.37,42.42,59.34,42.35,59.37Z"/><path class="cls-2" d="M45,59.34a1.12,1.12,0,0,0-.16.13c-.06.12,0,.18.13.12a.3.3,0,0,0,.12-.15S45,59.34,45,59.34Z"/><path class="cls-2" d="M15.06,56.81l.09.1c.1-.07.13-.13.1-.19l-.1-.1C15.06,56.69,15,56.75,15.06,56.81Z"/><path class="cls-2" d="M29.07,58.72c0,.06,0,.12.1.19l.09-.1c0-.06,0-.12-.09-.19Z"/><path class="cls-2" d="M44.59,59.69c-.06.06,0,.12.07.18a.11.11,0,0,0,.09,0q.09,0,.09-.09c0-.06,0-.13,0-.13S44.66,59.62,44.59,59.69Z"/><path class="cls-2" d="M41.2,60.44c.07,0,.13,0,.19-.1l-.09-.09c-.07,0-.13,0-.19.09Z"/><path class="cls-2" d="M43.75,60.88c0,.06,0,.12.1.18l.09-.09c0-.06,0-.13-.09-.19Z"/><path class="cls-2" d="M44.63,61.16c0,.06,0,.12.09.18l.09-.09c0-.06,0-.12-.09-.19Z"/><path class="cls-2" d="M40.12,61.66l-.1.09c0,.06,0,.13.1.19l.09-.09A.14.14,0,0,0,40.12,61.66Z"/><path class="cls-2" d="M41.17,62.13l.1.09c.09-.06.12-.12.09-.19l-.09-.09C41.17,62,41.14,62.06,41.17,62.13Z"/><path class="cls-2" d="M14,56.13l-.09.09c.06.1.12.13.19.1l.09-.1C14.09,56.13,14,56.1,14,56.13Z"/><path class="cls-2" d="M43.16,63.57l.1.09c.09-.06.12-.13.09-.19l-.09-.09C43.16,63.44,43.13,63.5,43.16,63.57Z"/><path class="cls-2" d="M28.13,61l-.1.1c.07.09.13.12.19.09s.09-.06.09-.09S28.19,61,28.13,61Z"/><path class="cls-2" d="M34.55,59.07q0,.09.09.18l.09-.09c0-.06,0-.12-.09-.19Z"/><path class="cls-2" d="M39.71,64.94c0,.07,0,.13.09.19l.1-.09c0-.1,0-.16-.1-.19Z"/><path class="cls-2" d="M28.59,61.57l.1.09a.13.13,0,0,0,.18-.09l-.09-.1C28.72,61.44,28.66,61.47,28.59,61.57Z"/><path class="cls-2" d="M28.66,62.48l.09.09c.09-.06.12-.12.09-.19l-.09-.09C28.66,62.35,28.62,62.41,28.66,62.48Z"/><path class="cls-2" d="M29.46,62.73l.1.09q.09,0,.18-.09l-.09-.1C29.59,62.6,29.53,62.63,29.46,62.73Z"/><path class="cls-2" d="M28.54,67.79s-.12.1-.09.1.13.12.19.09l.09-.09C28.67,67.79,28.61,67.76,28.54,67.79Z"/><path class="cls-2" d="M41.27,61.06s.12,0,.12,0,0-.15-.06-.22-.13,0-.19.07a.11.11,0,0,0,0,.09C41.2,61,41.23,61.06,41.27,61.06Z"/><path class="cls-2" d="M56.69,29.26C54.81,11.55,42.85-3,25.85.52S2.64,10.49.24,29.26c-1.57,12.36,4.65,19.68,13.37,24a.25.25,0,0,0-.12.07c-.06.07,0,.13.06.19a.13.13,0,0,0,.1,0q.09,0,.09-.09a.31.31,0,0,0,0-.09c.78.38,1.59.74,2.4,1.08v1.42l.21.23c-.08.09-.16.17-.24.27v.53c-.09.13-.18.22-.25.31.1.16.19.25.25.35v.47a1.23,1.23,0,0,1-.15.22.47.47,0,0,0-.13.4,2.21,2.21,0,0,1,.28.32v.84a1.7,1.7,0,0,1-.28.31c.1.13.19.22.28.35v1.37c.1.16.22.25.25.38s0,.28.16.38h.28c.12.09.22.21.31.28h1.68c.28-.25.53-.47.74-.69a.94.94,0,0,0,0-.31c.09-.13.18-.22.28-.35V60a.69.69,0,0,0,.28-.5.66.66,0,0,0-.32-.62V57.62a.36.36,0,0,0-.06-.25l-.22-.22v-.56c-.12-.09-.21-.22-.31-.31v-.72a1.06,1.06,0,0,0-.09-.11c.72.24,1.46.47,2.2.68,0,0-.06,0-.08,0a.2.2,0,0,0-.25.09c0,.07,0,.1.09.19l.28.31c.21-.21.21-.39,0-.57.45.13.89.25,1.34.36,0,0,0,0,0,0a.11.11,0,0,0,0,.09q0,.09.09.09c.06,0,.13,0,.13,0a.11.11,0,0,0,0-.11l1.2.29v5.3s0,.1,0,.13.16.15.22.22a5.78,5.78,0,0,1,0,.72,2.65,2.65,0,0,0,.06.84l.22.22v1.16a2.89,2.89,0,0,0-.28.31v1.16a2.27,2.27,0,0,0-.31.31v1.13a1.8,1.8,0,0,0-.28.31c-.1.31.25.41.28.6a3.83,3.83,0,0,1,0,.56c.34.34.65.66,1,.94,0,.06.19,0,.25.06s.22.19.38.28h1.12a1.1,1.1,0,0,0,.49-.75c0-.09.13-.16.22-.25v-.69a2,2,0,0,1,.06-.84l.22-.22v-2c-.19-.18-.37-.4-.56-.59a.89.89,0,0,0,0-.28c.1-.13.19-.22.28-.32V62.85c.41-.41.41-.44,0-.84a2.21,2.21,0,0,0,.28-.32v-.56c-.09-.09-.18-.22-.28-.31V59.31c.1-.37.5-.12.56-.4-.09-.1-.18-.22-.25-.29V58l.22-.22a.77.77,0,0,1,0-.15h0v.14a.32.32,0,0,1,0-.14l.26,0c.32.06.63.09,1,.13l0,0h.09l.14,0h-.11c0,.19-.09.38.09.53s.53.16.78-.09c0-.12,0-.24,0-.36A22.67,22.67,0,0,0,36,57.68v.76s0,.09,0,.12l-.22.22a2.66,2.66,0,0,0,0,.69,4,4,0,0,1-.06.84l-.25.25v3.57a1,1,0,0,0,.06.25l.22.22a.8.8,0,0,1,0,.25l1.65,1.66c.28-.09.37.22.53.28h.5c.31-.28.59-.5.8-.69v-.59c.1-.13.19-.22.25-.32L39.28,65c-.07-.35,0-.66,0-1a1.29,1.29,0,0,0-.06-.28.39.39,0,0,1-.22-.47c.1-.09.19-.22.28-.31A2.12,2.12,0,0,0,39,62.6v-.28c.19-.22.44-.35.53-.6a.79.79,0,0,1-.12-.16c-.19-.5-.12-.75.15-.93-.06-.32-.43-.07-.52-.32a2.12,2.12,0,0,1,.28-.31v-.28c-.1-.13-.22-.22-.28-.31V58.25l.12-.13c.25-.25.25-.37,0-.59s-.12-.16-.09-.22l.22-.22c0-.05-.09-.1-.13-.16A25.83,25.83,0,0,0,56.69,29.26ZM30,58c.12.09.06.15,0,.15a.33.33,0,0,1-.16-.12.21.21,0,0,1,0-.08l-.1,0,.1,0h0L30,58,30,57.91H30S30.07,58,30,58Z"/></svg>