<svg xmlns="http://www.w3.org/2000/svg" viewBox="0 0 45.51 3.01" preserveAspectRatio="none">
    <defs>
        <style>
            .cls-1 {
                fill: #fff;
            }
        </style>
    </defs>
    <path class="cls-1"
        d="M0,1.7C-.06,1.11,0,1,.43,1,.5.91.62,1,.69.91,1.84.81,3,.8,4.16.7L7.26.58c.64,0,1.3,0,1.93,0L12.27.16A2.27,2.27,0,0,1,13.45,0c2.57.17,7.28.4,9.87.67,1.23.06,2.4.06,3.63,0S29.3.59,30.49.47A23.61,23.61,0,0,1,33,.57a6.29,6.29,0,0,1,1.21.3,8,8,0,0,0,2.61.36C38,1.11,39.11,1.08,40.29,1A1.3,1.3,0,0,0,41.2.94,3.46,3.46,0,0,0,42.59.85c.63,0,1.31-.38,2-.13.24.08.45-.25.65,0s.22-.46.25.16S45,.68,44.8,1s-.59.09-.94.06a14.57,14.57,0,0,0-2,.31c-.86,0-1.73.2-2.59.25A5.94,5.94,0,0,0,38,1.7a8.3,8.3,0,0,1-3.48.11c-.88,0-1.81-.28-2.66-.23-2.42.16-5-.52-7.44-.24a6.48,6.48,0,0,1-2.1.09c-1.06-.37-1.95.14-3,.28-1.41.14-5.06,0-6.44.19l-2.08.18c-.54.09-1.11.09-1.66.18a6.15,6.15,0,0,1-1.42,0C7,2.22,6.17,2.11,5.36,2a13,13,0,0,0-3.84.53.41.41,0,0,1-.46-.17c-.3-.48-.28,1-.46.54C.25,1.74.42,3.3.1,2.09l0,0Z" />
</svg>