<svg id="Layer_1" data-name="Layer 1" xmlns="http://www.w3.org/2000/svg" viewBox="0 0 28.83 65.04">
    <defs>
        <style>
            .cls-1 {
                fill: #FEEFD3;
            }
        </style>
    </defs>
    <path class="cls-1" d="M5.74,25.39C3,24.57,3,24.57,1.23,27.17l.85,2.14c2.79.82,2.79.82,4.5-1.78Z" />
    <path class="cls-1"
        d="M7.35,48.41,3.08,50.1c-.47.19-.33,1.23-.48,1.56l4.31,1.87a39.85,39.85,0,0,0,1.62-4.21C8.67,49,8.25,48.6,7.35,48.41Z" />
    <path class="cls-1"
        d="M10.11,40.54C9,42.62,9.81,44,11.89,45.05c.43-1,.77-2.22,1.2-3.22.52-.75.57-1.32.14-1.7a1.59,1.59,0,0,0-2.17,0C10.91,40.5,10.58,40.35,10.11,40.54Z" />
    <path class="cls-1" d="M4.5,38.66C2.42,37.56,1,38.12,0,40.44,2.22,41.21,3.65,40.65,4.5,38.66Z" />
    <path class="cls-1" d="M22.82,64.49c2.08,1.1,3.5.54,4.5-1.78C25,61.71,23.58,62.27,22.82,64.49Z" />
    <path class="cls-1" d="M9.47,1.43l.42-1C9.14-.09,8.57-.14,8.19.29l-.43,1Q8.9,2.06,9.47,1.43Z" />
    <path class="cls-1"
        d="M12.9,4.39c-.57,0-1,.38-1.14,1.28l1,.43c.57.05.95-.37,1.14-1.27A1.85,1.85,0,0,1,12.9,4.39Z" />
    <path class="cls-1" d="M7.2,13.21l1,.43q.78-1.14.15-1.71l-1-.43A1.14,1.14,0,0,0,7.2,13.21Z" />
    <path class="cls-1" d="M10.32,19.48l-.43,1q1.14.8,1.71.15l.43-1Q10.89,18.84,10.32,19.48Z" />
    <path class="cls-1" d="M14.15,22.91l-.43,1c.76.53,1.32.58,1.7.15l.43-1C15.1,22.54,14.53,22.48,14.15,22.91Z" />
    <path class="cls-1"
        d="M11.65,33.34c-.05.57.37.95,1.27,1.14l.43-1c.05-.57-.38-1-1.28-1.15C11.74,32.2,11.79,33,11.65,33.34Z" />
    <path class="cls-1"
        d="M27.12,50.85c-.05.57.38.95,1.28,1.15l.42-1c.05-.57-.37-1-1.27-1.14C27.31,50,27.26,50.52,27.12,50.85Z" />
    <path class="cls-1"
        d="M22.19,53.63c0-.57-.38-1-1.28-1.15,0,0-.28.67-.43,1-.05.57.38,1,1.28,1.14C22,54.53,22,54,22.19,53.63Z" />
    <path class="cls-1" d="M15.18,56.23c-.56,0-.94.37-1.14,1.27l1,.43c.57,0,1-.37,1.14-1.27Z" />
</svg>