<svg id="Layer_1" data-name="Layer 1" xmlns="http://www.w3.org/2000/svg" viewBox="0 0 136 4"><defs><style>.cls-1{fill:#feefd3;}</style></defs><path class="cls-1" d="M0,2.22c0-.79.13-1,1.18-1,.17-.05.44,0,.61,0C4.51,1,7.23,1,9.94.9L17.22.75c1.49,0,3,.05,4.49,0L29,.21A9.44,9.44,0,0,1,31.81.05C37.74.3,78.4.38,84.34.76c2.83.1,5.56.1,8.45,0,2.73,0,5.52-.16,8.31-.31,1.93,0,3.88.05,5.83.15a18.34,18.34,0,0,1,2.7.4,29,29,0,0,0,6,.5c2.79-.15,5.37-.19,8.15-.28a5.55,5.55,0,0,0,2.14-.08,15.63,15.63,0,0,0,3.26-.11c1.49-.06,3.18-.52,4.73-.17.54.1,1.14-.34,1.53-.06.6.49.68-.62.54.22s-1.05-.22-1.69.23a4.38,4.38,0,0,1-2.22.08c-1.67,0-3.06.31-4.72.4-2,.06-4.1.27-6.11.33a22.73,22.73,0,0,0-3,.08,33.77,33.77,0,0,1-8.16.14c-2-.07-4.1-.39-6.12-.33-5.68.21-11.47-.73-17.22-.36a27.13,27.13,0,0,1-4.91.11c-2.36-.5-4.78.85-7.22,1-3.32.18-41.36-.52-44.66-.22-1.66.09-3.32.18-4.89.25-1.3.11-2.62.1-3.93.22a24.85,24.85,0,0,1-3.33.05c-1.87-.12-3.64-.26-5.51-.37a53.56,53.56,0,0,0-9.14.69,1.13,1.13,0,0,1-1-.24c-.53-.64-1,1.32-1.25.73C.48,2.28.32,4.39,0,2.76l.08,0Z"/></svg>