<svg id="Layer_1" data-name="Layer 1" xmlns="http://www.w3.org/2000/svg" viewBox="0 0 480 514"><defs><style>.cls-1{fill:#feefd3;}</style></defs><path class="cls-1" d="M294.41,455.22c2,.44,3.24.44,3.47,1.33,1,2.58,1.63,5.24,2.44,7.23.08,2.81-4.19,1.67-1.09,5.29,0,0,1.73-1.38,2.84-.72-.29,2.59,1.18,1,1,3.86,1.47.88.91-3.39,2.39-2.5a10.31,10.31,0,0,1,3,.06c1.62.22,3.06-7.54,3.13-6,.6,2.36,6.21-4.9,6.8-2.54.22.88-1.79,2.52-1.57,3.41l2.59,1.55c.37,1.47,6.73-10.15,7.32-7.79-.44.74-1,2.14-1.69,3.25,1.26,2.51,4.5-.82,6.27,2.5,1.85,7.39-5-1.26-3,6.71-.66,1.11,4.17.84,3.51,1.95.44,1.77-3.7,1.24-3.33,2.72,1.18,1,3.19.45,4.29,1.12-2.57,4.72,2.8-2.7,7.59.17,2.95-.28-.77-5-.68-9.76.44-.74,3.91,2.35,4.58,1.24-.08-.29,1.95-1.43,2.66-4.62.79-6.81-3-9.62-6.29-11.3-.81-.74-1.91-1.4-3.09-2.36.44-.74.51-1.7,1.1-1.85a19.83,19.83,0,0,1,4.12-1,2.49,2.49,0,0,0,2-2.07c-.44-1.77-.89-3.54-1.41-5.61-1.48-2.14-4.49.81-6-1.62.22-.37.36-1,.66-1.11,2.57-1,5.23-1.63,7.8-2.59,1.4.59,2.51,1.25,3.91,1.84a8.3,8.3,0,0,1,2.73-.36,28.14,28.14,0,0,0,3.61,1.91c2.14-1.47-.82-4.5,1.61-6.05l1.11.66a4.72,4.72,0,0,0,2.07.74,2.05,2.05,0,0,0,.66-2.37,1.9,1.9,0,0,1,.29-2.58c.51-.44,1.18-.3,2.28.37,1.18,1,2.43,1,4.72.07.73-2.07,1.68-4.5,2.49-6.28l9.43-2.37c1.33.3,1.85,1.11,1.41,1.85l-2.43,4.06c-.88.22-2.28.89-3.46,1.19-1.47.37,1.62-1,1.1.66,1.11.66.3,1.18,1.41,1.84.29,1.19-.35,2,1.71,2.71a38.34,38.34,0,0,1,2.71-3.81c1.47.88,3.6-4.36,5.08-3.48.44,1.77,3.41,3.82,3.93,5.88,3.87-7.87,2.93-10.11,2.34-8.71.88-2.11,3.59-3.73,4.93,1.59-.67,1.11,1.36-.57,2.17-3.37.44,1.77,1.46-6.2,1.9-4.43,4.32,1.43-2.22,9.16,1.68,6.67-.81-.74,2.75,1.19,1.56.23-.37-1.47,4.31-.87,3.87-2.64-1.18-1,2.14-3.58.67-4.46-.67-2.66,4.2.51,3.53-2.14.66-1.11-1.49-2.2-.83-3.31-1.11-4.43,5.26,4.71,4.14.28.59-1.41-2.07-3.25-1.18-4.73-1.63-6.49-4.28-.81-5.84-7,.44-2,2.06-1.77,3.46-2.44a27.09,27.09,0,0,0,3.62,1.92c.37.22.88-.22,1.47-.37-.37-1.48-.67-2.66-1-4.13a28.52,28.52,0,0,1-3.39-2.29,20.3,20.3,0,0,0,1.69-3.25,28.52,28.52,0,0,0-3.39-2.29c-.6-3.62-.67-3.91,2.86-4.8,2.21,1.33,4.72,2.58,6.93,3.91.37.22.89-.22,1.18-.29l-1-4.14a49.89,49.89,0,0,0,2.86-4.8,13.82,13.82,0,0,0,3.68-2.81l-2.21-1.33c-.74-.44-.59-1.1.07-2.21a9,9,0,0,0,.95-2.44c-.37-1.48-.52-3.32.66-3.62s1.7,1.77,2.29,2.88c.15.59,1.62,1.48,1.84,1.11a2,2,0,0,0,.66-2.36c-.37-2.74-.07-2.81,2.5-3.77.3-.08.81-.52,1.11-.59l2.86-4.81c.23-.36-.22-.88-.29-1.18a2,2,0,0,1-2.58-.29c-.81-.74-.08-1.55,2.5-2.51l-.59.15a1.89,1.89,0,0,1,.07-2.22c.44-.74,1-.89,1.92.15.07.29-.15.66-.08,1a3.18,3.18,0,0,1-1.25,1.25,4.61,4.61,0,0,0,.08,2.81,17.34,17.34,0,0,0,3.83-1c.59-.15,1.18-1.55,1-2.14a48.28,48.28,0,0,0-1.63-6.5,2,2,0,0,1-2.58-.3c-.81-.73-.08-1.55,1.91-2.36-.37-1.48-.67-2.66-1-4.13.89-1.48,2.06-3,3.16-4.88l7.37-1.85a10,10,0,0,0,3.23-5.83c-2.28-1.63-4.49.81-6.48.37a30.07,30.07,0,0,1-2.5,3.77l-2.65.66c-2.66-1.84-5.53-3.32-8.19-5.16.44-.74.81-1.78,1.4-1.92,4.34-1.41,8.76-2.52,13.18-3.63.3-.07.44-.74.66-1.11a27.22,27.22,0,0,1-3.39-2.28c-.37-.22-.22-.89-.3-1.18a2,2,0,0,1-2.58-.3c-.81-.74-.07-1.55,1.92-2.36-.23-.89-.45-1.77-.67-2.66l-3.83,1c-.3.08-.67-.15-1-.37s-.74-.44-.52-.81.37-1,.66-1.11c2.72-1.62,3.76-1.25,5,1.26a1.92,1.92,0,0,0,2.14-1.48c.51-1.7-.89-3.55.95-4.95L452,303a21.18,21.18,0,0,0,3.54,1.62c1.54-1.33.58-2.66.14-4.43-1.48-.88-3.25-1.7-5.46-3-1.33-.3-3.31,1.77-5.75.81-.37-.22-.74-.44-.81-.74a1.38,1.38,0,0,1,.66-1.1,9.35,9.35,0,0,1,2.87-1,50.6,50.6,0,0,1,2.94-4.51c.22-2.88-1-5.38-1.41-8.12.37-2.29,1.84-3.91,2.72-5.39,1.62-1,2.72-1.62,4.05-2.59-2.58-1.54-4.87-3.17-7.08-4.5,1.32-2.21,2.42-4.06,3.53-5.9a1.38,1.38,0,0,0-1.33-1.56c-.37-.22-.89.23-1.48.37a1.9,1.9,0,0,1-2.58-.29c-.51-.81.44-2,2.21-2.44l4.12-1a8.48,8.48,0,0,0,2.58-1l2.87-4.8c-2.14-2.29-4.35.15-6.56.07-.74-.44-1.7-.51-2.43-1-2.88-1.47-5.53-3.32-8.49-5.09-1.1-.66-1.47-.88-1.4-1.84a2,2,0,0,1,2.14-1.48l1.17-.3a7.33,7.33,0,0,0,6.34,1.55l2.59,1.55a9.2,9.2,0,0,0,6.19-1.55c.22-.37,1-.89.95-1.19-.59-2.36-1.11-4.42-1.7-6.79l-2.66.67a1.91,1.91,0,0,1-2.58-.3c-.44-.51,0-1.25.66-2.36.22-.37.44-.74.67-1.11-1.34-2.8-4.28.45-5.76-1.69a26,26,0,0,0,1.91-3.62c-1-4.14-2.07-8.27-3-12.11a2,2,0,0,1-2.58-.29,3.93,3.93,0,0,1-.89-3.55,1.92,1.92,0,0,1,2.14-1.47c-.07-.3.07-1-.3-1.19a56.65,56.65,0,0,0-5.16-3.09c-.37-.23-.88.22-1.18.29.3,1.18.67,2.66,1,3.84-1.32,2.22-1.32,2.22-2.87,2.29-1.76.45-2.21-.07-2.95-1.77a3.57,3.57,0,0,1,.66-3.62l3.83-1c-.15-.59-.59-1.11-.37-1.48a27.49,27.49,0,0,0,1.91-3.61l-4.79-2.88a30.6,30.6,0,0,1-2.28,3.4c-1.77-.82-2.81-2.44-1.7-4.29a9.64,9.64,0,0,0,1.24-5c-.3-1.18.95-2.44,2.5-2.51a2.49,2.49,0,0,0,2-2.07c-.59-2.36-1.26-5-1.93-7.68a1.33,1.33,0,0,0-2.06-.73c-.3.07-.44.73-.66,1.1.44,1.77.88,3.55,1.33,5.32-1.62,2.29-1.62,2.29-7.07,3-1.33-.29-1.55-1.18-.44-1.77.81-.52,1.76-.45,2.5-1.26.51-.44,1.47-1.62,1.4-1.92a2,2,0,0,0-2.36-.66c-3.39.22-3.39.22-4-2.14-.29-1.18-.66-2.66-1-3.84l.88-1.48c1.47-2.88,1.25-3.76-1.11-5.68-.82-.74-1.48-.89-1.41-1.85.37-1,1.26-1.25,2.14-1.48,1.77-.44,2.21-1.18,2.06-3a2.89,2.89,0,0,0-2.59-2.81c-.95-.07-1.76.44-2.72.37-.3.08-.74-.44-1.4-.59-.45-1.77-.89-3.54-1.41-5.61a11.82,11.82,0,0,1,2-3.32c-1.48-2.14-4.57.52-6-1.62-.23-.89-.45-1.78-.67-2.66.58-2.66,4.35-1.41,4.56-4.29L408,139.13l-4.13,1a1.57,1.57,0,0,1-.36,2.29c.66,1.4-.22,1.62-.81,1.77a2,2,0,0,1-2.36-.66c-.07-.3.52-1.7,1.1-1.85a17,17,0,0,1,3.84-1c-.15-.59-.6-1.11-.38-1.48a28.3,28.3,0,0,1,1.91-3.62c-.74-2.95-1.4-5.61-2.07-8.27-.37-.22-1.18-1-1.11-.66-.44.74-1.25,1.26-1.1,1.85a20,20,0,0,0,1,4.13,2,2,0,0,1-.66,2.36c-2.14.23-4.2,2-6.71.75.22-2.88,2.28-4.66,3.53-7.17a26.63,26.63,0,0,1-3.39-2.29c-.3-1.18-.67-2.65-1-4.13l-3.83,1a1.65,1.65,0,0,1-1-.37c-.36-.22-.73-.44-.51-.81s.36-1,.66-1.11c2.72-1.62,3.76-1.25,5,1.25,1.25,0,2.06-.51,2.14-1.47.07-2.22-.23-4.65,1.83-6.43l-1-3.84c-.22-.88-.44-1.77-1.47-2.14a3.24,3.24,0,0,0-3.61.6c-1.4,1.92-2.43,4.06-3.83,6-.73-.44-1.69-.52-1.84-1.11a29.25,29.25,0,0,1-1.26-5c.59-1.4,2.21-2.44,1.54-3.84-1-1.62-2.58-.29-3.76,0-.66,1.11-1.61,2.29-2.28,3.4l-4.79-2.88a5.51,5.51,0,0,1,1.69-2,19.91,19.91,0,0,1,4.13-1c.59-.15.95-1.18,1.69-2L380,97.5a8.21,8.21,0,0,1-2.72.37A28.3,28.3,0,0,0,373.65,96a6,6,0,0,0-2.42,1.56c-.81.51-.74-.45-.23-.89,1-.89,1.77-.44,1.48.89a3.08,3.08,0,0,1-1.18,1.55s-1-.37-.07-1.55c.88-1.48.43-2,.65-2.37l2-3.32c-1.11-.67-2.29-1.62-3-2.07a27.39,27.39,0,0,1,1.62-3.54c-2.58-1.55-4.57.52-7.07.52a47.27,47.27,0,0,1-4.5-3c.14-1.92,2.87-3.55.94-6.21l-3.31-2a26.49,26.49,0,0,0,1.9-3.62c-.29-1.18-.15-3.1-2.06-3.25-1.26,0-1.47,1.63-2.43,2.81-2.8.08-1.63-4-4.28-4.57l-3.24.81c-1,2.14-2,4.58-3.09,6.43a10.12,10.12,0,0,1-3.31.51,21.94,21.94,0,0,0-3.54-1.62l-2.87,4.8c-.22.37.22.89.3,1.18a1.57,1.57,0,0,1,2.28.37,23.82,23.82,0,0,1,1.18,2.22A2,2,0,0,1,338.7,84c-.29.07-1.69-.52-1.84-1.11a16.75,16.75,0,0,1-1-3.84,2.21,2.21,0,0,1-3.1-1.1,14.9,14.9,0,0,1-.89-3.55l-3.83,1c-.29.07-.66-.15-1-.37s-.74-.45-.52-.81.37-1,.66-1.11c2.73-1.63,3.76-1.26,5,1.25.59-.15,1.26,0,1.48-.37a49,49,0,0,0,2.87-4.8c-.74-.44-1.26-1.26-1.85-1.11a19.74,19.74,0,0,0-4.12,1,2,2,0,0,1-2.36-.66c.66-1.11,1.24-2.52,1.91-3.62-2.29-1.63-5.53.44-7.45-2.22-.66,1.11-1.62,2.29-2.28,3.4l-5.3,1.33c-1.11-.66-2.51-1.25-3.62-1.91l-12.37,3.1c-.89.23-2.14.23-2.36-.66-.08-.29.51-1.7,1.1-1.85,1.11-.59,2.65-.66,3.17-2.36a52.17,52.17,0,0,0-5-2.51,10.51,10.51,0,0,1-2.13,2.73c-2.88-.22-1.63-4-4.28-4.57L284,60.7c-1.55-1.18-1.55-1.18.14-4.43l-4.43-2.65c-3.53-.37-6.18,1.55-9,1.63l-2,3.32c-3.24.81-6.7,2-10.31,2.59-1.47.37-2.43-1-2.51-2.51a1.9,1.9,0,0,0-.59-1.11L252.74,56a9.41,9.41,0,0,1-1.19-2.21c-.44-1.77-.3-3.69-2.73-4.65l-2.65.67c-1.62,2.29-2.28,4.65-4.63,6.5-1.7-.52-1.48-2.14-2.15-3.55-1.47-.88-3.24-1.69-5.09-2.8l-5,1.26c-1.4-.59-2.5-1.26-3.91-1.85a27.53,27.53,0,0,1-2.27,3.4l-4.13,1,1,3.84c.07.29-.15.66-.37,1s-.44.74-.81.52-1-.37-1.11-.67c-1.62-2.73-1.26-3.76,1.25-5-.23-.88-.45-1.77-.67-2.66a1.93,1.93,0,0,0-1.48-2.14c-.66-.14-1.1.59-1.76,1.7-.22.37-.45.74-.66,1.11a7.79,7.79,0,0,1-4.73-2.58c-1.18-1-1.92-2.66-3-4.28a22.49,22.49,0,0,1-2.28,3.4,21.19,21.19,0,0,0-3.54-1.63l-3.75,6.28c-1.55.08-2.14-1-2.43-2.21a2.78,2.78,0,0,0-1.78-2.07,8.48,8.48,0,0,1-2.72.37c-1.32,2.22-2.94,4.51-4.26,6.72-1.7-.51-1.78-2.06-2.37-3.17A2.74,2.74,0,0,0,181.32,51a68.52,68.52,0,0,0-7.66,1.92c-2.65,4.44-2.65,4.44-6.41,3.18-.59-1.1-.15-3.1-1.77-3.32-1.25,0-1.32,2.22-2.5,2.51-2.8,1.33-6,2.44-9.21,2-1.55-1.18-1.48-3.4-1.92-5.17a2.07,2.07,0,0,0-1.7-1.77c-.3.08-.89,1.48-1,2.14-.07,1,.15,1.85.08,2.81.07.29-.44.74-.66,1.11l-4.13,1a2.23,2.23,0,0,1-1.1,3.11c-1.1.59-2.36.59-4.79,2.14-.81.52-.73-.44-.22-.89,1-.88,1.77-.44,1.48.89a3.09,3.09,0,0,1-1.18,1.55s-1-.37-.08-1.55a26.89,26.89,0,0,0-1.12-9.45L133,54.36c-1,2.14-2,4.58-2.57,6-2.21,1.18-3.38,1.48-4.41,2.37-.82.51-.89,1.47-.22,2.88.07.29-.15-.6-.15-.6a1.87,1.87,0,0,1,2.21.08c.74.44.89,1-.14,1.92-.3.07-.67-.15-1-.08a3.25,3.25,0,0,1-1.26-1.25,3.4,3.4,0,0,1-2.72-.89c-1.26-1.25-.89-3.54-3.18-3.91l-5.3,1.33c-.66,1.11-1.62,2.29-2.28,3.4l-2.65.67c-1.47,1.62-.37,3.54.08,5.31.37,1.48.3,2.44-.73,3.33-.37-.22-1-.37-1.11-.67A33.44,33.44,0,0,1,106,69c-.3-1.18-1.92-1.4-3.39-1a2.76,2.76,0,0,0-2.06,1.77c1.1.67,1.92,1.41,3,2.07a8.06,8.06,0,0,1-1.39,1.92,63.94,63.94,0,0,1-7.37,1.85l-5.16-3.1c-.37-1.48-.74-3-1-4.13-2.14.22-2.88-.22-3.17-1.41-.74-1.69-.89-3.54-1.93-5.16-.51-.81-1.47-.89-2.58-.3l2.38,9.45a1.35,1.35,0,0,1-1.47,1.63,1.37,1.37,0,0,1-1.11-.67L80,69.23c-.74-.45-1.84-1.11-2.43-1-2.06.52-4.64.22-5.89,2.73a28.52,28.52,0,0,1,3.39,2.29c.22.89.45,1.77.67,2.66,1.4,1.84,3.54.37,4.94,1a1.91,1.91,0,0,1,1.47,2.14l3.83-1a1.65,1.65,0,0,1,1,.37c.37.22.73.45.51.81s-.36,1-.66,1.11c-2.72,1.63-3.75,1.26-5-1.25-.59.15-1.25,0-1.47.37a47.06,47.06,0,0,0-2.87,4.8c.22.89.15,1.85.37,2.73a27.8,27.8,0,0,1,3.4,2.29c-.74,2.07-2.21,2.44-4.2,2-1-.08-1.55-1.18-2.51-1.26-1-.37-3.09.15-3.46,1.19a2.39,2.39,0,0,0,0,2.51,3.3,3.3,0,0,0,.52.81c1.18,1,2.66,1.84,3.17,2.65,1.26,1.26.23,3.4-1.76,4.21a2,2,0,0,1-.29,2.59c-.74.81-1.55.07-2.36-1.92l-4.13,1a5.38,5.38,0,0,0-1,2.43c.15,1.85,1.18,3.47.89,4.8-1.1,1.85-1.91,3.62-2.79,5.1l-4.13,1a2.06,2.06,0,0,0,1.48,2.15c1.7.51,3.46-1.19,5,1.25.08.29.3,1.18.52,2.07a9.16,9.16,0,0,1-1.69,2c-2.58,1-5.23,1.63-7.81,2.59-.29.07-.44.74-.66,1.11a26.57,26.57,0,0,1,3.4,2.28c.37.22.22.89.29,1.18a1.58,1.58,0,0,1,2.29.37c.44.52.66,1.4,1.18,2.22a2,2,0,0,1-.66,2.36c-.29.07-1.69-.52-1.84-1.11a17.44,17.44,0,0,1-1-3.84l-2.65.67a2,2,0,0,0-2.13,1.48c-.15.66.29,1.18,1.33,1.55s1.47.88,1.32,1.55a1.91,1.91,0,0,1-2.13,1.48l-2.65.66c.22,2.14-.22,2.88-1.4,3.18-1.69.74-3.53.89-5.15,1.92-.81.52-.88,1.48-.29,2.58l4.42-1.11c.73.45,1.91,1.41,3,2.07.37.22.88-.22,1.77-.44l-.59.15a1.89,1.89,0,0,1,.07-2.22c.44-.74,1-.89,1.92.15.07.29-.15.66-.08,1A3.25,3.25,0,0,1,55.38,147a10.34,10.34,0,0,0,.45,4.28c-1.1,1.85-1.76,4.21-4.19,5.77-1.55.07-3.31.51-4.86.59-1-.07-1.48-.89-1.48-2.14l-4.12,1c-.89,1.48-1.69,3.25-2.8,5.1a17.49,17.49,0,0,0,2.45,8.49c.52.81,1.47.89,2.58.29-.37-1.47-.67-2.65-1-4.13a49.91,49.91,0,0,0,2.87-4.8c2.28.37,2.36,1.92,2.29,4.13-1.92,1.11-1.4,4.43-4.12,4.8l1,4.14c-.22.37-.37,1-.67,1.11-.81.51-1.69.74-2.5,1.25-.44.74-1.25,1.26-1.69,2-1.4,1.92-2.43,4.06-3.53,5.91.08,1.55,1.63,1.47,2.51,2.51.3,2.43,3.32,4.5.53,7.08-1.11-.66-2.14-1-3.25-1.69-.44.74-1,1.18-.88,1.48l2.74,10.92c-.58,2.66-4.27,1.7-4.56,4.29a11.75,11.75,0,0,1,3.1,2.36l-2.87,4.8-2.65.67c-1.24,3.76-1.24,3.76,2.89,6.49A11.94,11.94,0,0,0,32,227.27c.89,1,2.14,1,3.61.66.59-.15,1.7.52,2.44,1l-2.87,4.8A14.62,14.62,0,0,0,32,234.8c-.58,1.4-1.39,3.17-2.64,5.69-.07-.3.66.14,1.62.22,1.25,0,2.5-1.26,3.83.29a9.67,9.67,0,0,1-2.35,4.36c-.95,1.18-2.65,1.92-4.27,2.95,2.36,1.92,5,2.51,6.79,4.58-.51,1.7-2.14,1.48-3.24,2.07a1.36,1.36,0,0,0-.66,1.11c-.15.66.37,1.47,1.62,1.47A33.54,33.54,0,0,0,38,256.21c2.8,1.18,2.21,3.84,2.81,6.2.14.59-.59,1.4-1.11,1.85a6.16,6.16,0,0,0-2.5-1.26,7.55,7.55,0,0,0-2.51,0,1.87,1.87,0,0,0-1.1.6C33,266,30.22,266.33,28.75,268a7.79,7.79,0,0,0-2.35,4.36c1.25,1.26,2.65.59,3.83.3.66-1.11,1.62-2.29,2.28-3.4,3.39,1,1.33,5.31,3.62,6.94,2.66,1.84,5.38-2.29,7.89.21-1.33,2.22-2.57,4.73-3.9,6.95l.67,2.65c-.29,2.59-4.42,1.11-4.56,4.29L41,293.13c.37.22.89-.23,2.06-.52l-.58.15a1.87,1.87,0,0,1,.07-2.22c.44-.74,1-.89,1.91.15.08.29-.14.66-.07,1a3.18,3.18,0,0,1-1.25,1.25c-.66,1.11-.15,1.92.81,2,1.62.22,3.17.14,5.09.29-.88,1.48-1.25,2.51-2.13,4a26.51,26.51,0,0,0,1.18,4.72,2.71,2.71,0,0,0,3.76,1.26l-.59.14a1.89,1.89,0,0,1,.07-2.21c.45-.74,1-.89,1.92.15.07.29-.15.66-.07,1A3.25,3.25,0,0,1,52,305.45c-.44.74,0,1.26-.22,1.63-1.25,2.51-2.87,4.8-3.9,6.94,1.19,3.47,1.19,3.47,3.4,3.54l1.47-.37a3.37,3.37,0,0,1,2.59,4.06c-.37,1-.88,1.48-1.47,2.88a72.37,72.37,0,0,0,2.82,11.23c1.25,1.25,1.84,1.1,2.13-.23.08-1-.15-1.84,0-2.51a5.46,5.46,0,0,1,.95-2.44l8.49,5.09a2.27,2.27,0,0,1-2.65,1.93c-1.84,2.66-3,4.21-3.9,5.68,2.36,1.92,5.82-.52,7.82,2.44a10.94,10.94,0,0,1,3-.45,45,45,0,0,0,4.72,2.58c.44,1.78.44,1.78-1.92,2.37l-2.65.66c.89,3.55,1.86,7.39,2.75,10.93l4.12-1c.3-.07.74.45,1.11.67.07.29.15.59.22.88-1,2.15-2.43,4.07-3.53,5.91a5.36,5.36,0,0,0,2.44,1A3.22,3.22,0,0,0,82,367.9c1.4-1.92,2.42-4.06,3.53-5.9a8.21,8.21,0,0,1,1.92,1.4,4.36,4.36,0,0,1,.37,2.73c-.07,1-1.18,1.55-1.25,2.51-.29,1.33-.29,2.59.89,3.54l2.58,1.55a27.55,27.55,0,0,0-1.62,3.55c.23.89.45,1.77.6,2.36,1.4,1.85,3.24.44,4.94,1a1.91,1.91,0,0,1,1.47,2.14l2.66-.67c2.06-.51,3.16.15,3.68,2.22.23.88.45,1.77.67,2.66l4.13-1c.29-.08.73.44,1.1.66l.23.89c-1,2.14-2.43,4.06-3.53,5.91,1,1.33,2.14,1,3.61.66.88-.22,1.69.52,2.36.66a28.3,28.3,0,0,0-1.91,3.62c2.29,1.63,5,2.51,6.78,4.58a8.43,8.43,0,0,1,.08,2.8c-.07,1-.88,1.48-2.13,1.48a17.56,17.56,0,0,0,1,3.84c.52.81,1.55,1.18,2.07.74a10.67,10.67,0,0,1,1.32-2.22c1.69-2,4-1.33,5,1.26a1.9,1.9,0,0,1,2.58.29,1.8,1.8,0,0,1,.59,1.11c.38,1.47.67,2.65,1.12,4.43,2.88,2.73,7,4.2,10.47,6.78l1,3.84,6.77-1.7,4.8,2.88c.15,3.1-4.35,1.4-4.2,4.5,1.41.59,2.88,1.48,5,2.51l7.07-1.77c2.65.59,4,2.14,6.05,2.87-1.77,3-4.49,2.07-6.7,3.26-.08,1-.37,2.29-.44,3.25a13.44,13.44,0,0,0,6,3.83c1.48-.37,3-.44,3.24-2.07.08-1-.44-1.77-.37-2.73,0-1.25.81-1.77,1.47-1.62l1.11.66a24.05,24.05,0,0,0,3.32,2c.52,2.07,1,3.84,1.41,5.61L169.06,455c.37,2.73-.43,5.76,3,7.09l2.36-.6a28.73,28.73,0,0,1,3.61,1.92,2.25,2.25,0,0,0,.59-2.66c-.37-2.73.36-3.54,2.5-3.76.88-.22,1.69.51,2.36.66l.66,2.66c-.66,1.11-1.24,2.51-1.91,3.62.52,2.06,1,3.84,1.41,5.61l4.8,2.88c.66-1.11,1.62-2.29,2.28-3.4l2.65-.67c1.33.3,1.84,1.11,1.11,1.92L191,476.17c1.11.66,2.29,1.62,3.39,2.29.37,1.47,1,.88-.21,2.13-2.21-1.32-4.72-.58-6.93-1.91-.23.37-.74.82-.67,1.11.6,3.62,1.49,5.16,2.38,8.71.22.88,1.25,1.25,3.39,1l.88-.22c3.25,1.69,2.94-5.07,6.71,3.72.37,1.48,4.08-1.66,3.64-3.44-1.11-.67.51-1.55-.85-2.32-1.55-2.44,2.5-1.8,1.54-4.38-.52-2.07,1.33-4.71.22-6.63-1.1-.66,4.58-3.06,3.84-3.5-.07-.29,5.46-1.54,5.39-1.83-3.12-12.41,7,3.87,3.81-8.83.37-1,9.05,6.08,9.93,4.6l-2-8a47.06,47.06,0,0,1,2.87-4.8c2.43-.3,3.68,2.21,5.6,2.36.52,2.06,1,3.84,1.48,5.9a16.89,16.89,0,0,1,3.84.3,29.35,29.35,0,0,1,2.5-3.77l5.59-1.41c1.48.89,3,2.07,4.87,3.18a19.52,19.52,0,0,1-1.69,3.25c3.25,1.69,3.54,1.62,6-2.44,2.14-.23,3.83,2.8,6.19.95,2.21,1.33,4.72,2.58,7,4.21l2.94-.74c0-1.26.29-2.59.29-3.84a30.31,30.31,0,0,0-3.76-2.51c.66-1.11,1.32-2.22,2-3.32s.88-1.48,1.83-1.41c1,.37,1.26,1.26,1.48,2.14.23,2.14.89,2.29,2.95,1.77a2.52,2.52,0,0,1,2.58.3,1.09,1.09,0,0,1,.52.81c-.88,1.48-2.35,3.1-1.17,5.32a33.21,33.21,0,0,0,8.85,5.31c.81-.52,1.69-.74,2.5-1.26s.89-1.48.29-2.58a1.57,1.57,0,0,1-2.28-.37c-.44-.52-.67-1.4-1.18-2.22a2,2,0,0,1,.66-2.36c.29-.07,1.69.52,1.84,1.11a16.88,16.88,0,0,1,1,3.84,1.57,1.57,0,0,1,2.29.37c1,1.32,1.63,2.73,2.66,4.35,3.09-2.66-.67-5.17.28-7.6l2-3.33c-1.92-1.4-2.22-2.58-3.77-5-.52-.81.44-.74.88-.22.89,1,.45,1.77-.88,1.48a3.13,3.13,0,0,1-1.55-1.18C292.79,455,293.23,454.26,294.41,455.22ZM350.27,78.91l-8,2c-.29.07-.74-.45-1.11-.67-.44-.51-.29-1.18.44-2l8-2c.29-.07.74.44,1.11.67C351.44,77.36,351,78.1,350.27,78.91ZM433,344.76c1.32-2.21,3-2.95,5.6-1.4.07,1.55,1.77,3.32-.81,4.28A49,49,0,0,0,433,344.76ZM407.85,146.07c2.51,1.26,2.95,3,1.41,5.61C406.68,150.13,406.23,148.36,407.85,146.07Zm7.7,20.67c-.37-.22-1-.36-1.11-.66-.22-.89-.44-1.77-.67-2.66-.07-.29.45-.74.67-1.11a.57.57,0,0,1,.88-.22c1.62.22,2.36,3.18,1.11,4.43C416.21,166.89,415.84,166.67,415.55,166.74ZM62.37,324.5c-1.25,2.51-3,2.95-5.6,1.4C58.31,323.32,60.08,322.87,62.37,324.5Zm347.86,68.05c-.07-.3-.22-.89-.3-1.19l.67-1.1c.51-.45,1.17-.3,2,.44.37.22.23.89.3,1.18a2,2,0,0,1-.29,2.58C411.78,395,410.67,394.32,410.23,392.55ZM208.59,56.09c-.51.44-1.18.3-2-.44l.66-1.11c.52-.44,1.18-.29,2,.44C209.55,54.91,209.11,55.65,208.59,56.09ZM82.71,94.92c.45.52.3,1.18-.43,2l-1.11-.67c-.44-.52-.3-1.18.44-2ZM245,57.62l.66-1.1c.52-.45,1.18-.3,2,.44L247,58.07C246.48,58.51,245.81,58.36,245,57.62Zm75.64,16.8c-.52.44-1.18.3-2-.44l.67-1.11c.51-.44,1.17-.3,2,.44ZM425.76,193.69l1.11.66c.44.52.29,1.19-.44,2l-1.11-.67C424.66,195.54,424.8,194.87,425.76,193.69ZM50.08,290.54c-.51.44-1.18.29-2-.44l.66-1.11c.52-.44,1.18-.3,2,.44C50.82,289.73,50.3,290.17,50.08,290.54Zm398.3-50.42-1.1-.66c.36-1,.88-1.48,1.54-1.33l1.11.66C449.56,239.83,449.05,240.27,448.38,240.12Zm-2.67,35.52-1.1-.66c.36-1,.88-1.48,1.54-1.33l1.11.66C446.89,275.35,446.38,275.79,445.71,275.64Zm-1,27.25,1.11.66c-.37,1-.88,1.48-1.54,1.33l-1.11-.66C443.55,303.18,444.06,302.74,444.72,302.89ZM132.21,408.05c.45.51.3,1.18-.44,2l-1.1-.66c-.45-.52-.3-1.18.44-2Zm305-74.07c.52-.44,1.18-.3,2,.44l-.66,1.11c-.51.44-1.18.29-2-.44Z"/><path class="cls-1" d="M288.55,479.3c.88-1.48,1-2.15.66-2.37l-4.79-2.87c-.52.44-1.25,1.25-1.18,1.55a75.5,75.5,0,0,0,2,8c2.95,1.77,5,0,7.59-1,1.4-1.92-.22-3.4-.37-5.25a8.84,8.84,0,0,0-3.91,1.93c-.81.51-.73-.45-.22-.89,1-.89,1.77-.44,1.48.89a3.13,3.13,0,0,1-1.18,1.55C288.33,480.92,287.6,480.48,288.55,479.3Z"/><path class="cls-1" d="M177.56,471.38l-4.13,1c-1.1-.66-2.5-1.25-3.61-1.91a4.19,4.19,0,0,0-.88,2.73c.23,3.4.23,3.4-2.13,4l-3.83,1-.88,1.48c.07.29.51.81.81.73,3.24.45,6-.88,9.21-2,.66-2.37,2.94-3.25,4.85-4.36A1.82,1.82,0,0,0,177.56,471.38Z"/><path class="cls-1" d="M53.06,89.16c-1.77-2.07-4.49.82-6-1.62-.22-.89-.45-1.77-.67-2.66a1.36,1.36,0,0,0-1.11-.66c-.66-.15-1.47.37-1.47,1.62a36.26,36.26,0,0,0,1.41,5.61c-.73.82-1.4,1.93-2.35,3.11,2.36,1.92,4.42.14,6.56-.08C51.3,93.37,51.67,91.08,53.06,89.16Z"/><path class="cls-1" d="M77.87,63.17l-1.17.3c-3.54.89-3.54.89-4.94-2.21a2.78,2.78,0,0,0-4.13-1.48,7.81,7.81,0,0,0-1.4,1.92c.3,1.18.67,2.66,1,3.84,2-.81,3.17,1.4,5.68,1.4a17,17,0,0,0,3.83-1C77.88,65.68,78.83,64.5,77.87,63.17Z"/><path class="cls-1" d="M195.58,497a1.52,1.52,0,0,0-1.7-.51,5.68,5.68,0,0,1-5.23-.89.91.91,0,0,0-.66-.14c-1.18,1.55-2.06,3-3.24,4.57l5.17,3.1a11.36,11.36,0,0,1,3-.44A25.28,25.28,0,0,1,195.58,497Z"/><path class="cls-1" d="M462.13,309.82c-.08-1.55-1.19-2.21-2.73-2.14a26,26,0,0,0-4.72,1.18,21.5,21.5,0,0,1-2.28,3.4l-3.83,1c.23.89.45,1.78.67,2.66l6.78-1.7c.66-1.11,1.62-2.29,2.28-3.4Z"/><path class="cls-1" d="M100.82,407.77l4.79,2.88,2.66-.67c.66-1.11,1.17-2.81,2.27-3.4s1.7-.74.81-1.77c-.37-.22-.81-.74-1.1-.66a19.69,19.69,0,0,0-9.14,2.29A2.28,2.28,0,0,1,100.82,407.77Z"/><path class="cls-1" d="M46.24,108.14a19.61,19.61,0,0,1-3.25-1.7c-1.1-.66-1.47-.88-2-.44a1.93,1.93,0,0,0-.29,2.59c.08.29.23.88.37,1.47a19.61,19.61,0,0,0,3.25,1.7c.3,1.18.52,2.07.74,2.95.08.3.74.45,1.11.67a1.35,1.35,0,0,0,1.54-1.33Z"/><path class="cls-1" d="M137.4,426.21l-4.13,1c-1.1-.66-2.5-1.25-3.61-1.91-1.47.37-3,.44-3.46,2.44l4.43,2.65a8.46,8.46,0,0,0,6.48-1.63A1.91,1.91,0,0,0,137.4,426.21Z"/><path class="cls-1" d="M453.28,355.68l-6.77,1.7c-1.33,3.47-1.33,3.47,1.33,5.32.66-1.11,1.4-1.92,2.06-3,.74.44,1,.37,1.47.88.81.74,1.55,1.18,2.36.67a1.92,1.92,0,0,0,.29-2.59A10.1,10.1,0,0,1,453.28,355.68Z"/><path class="cls-1" d="M405.08,117.57l-3.83,1a2.9,2.9,0,0,0-.66,3.62c.74,1.7,1.19,2.22,3,1.77,1.18-.29,1.18-.29,2.87-2.29A22.22,22.22,0,0,1,405.08,117.57Z"/><path class="cls-1" d="M6.08,224c-3.18-1.41-3.18-1.41-5.6,1.4L1.14,228c3.18,1.4,3.18,1.4,5.6-1.41Z"/><path class="cls-1" d="M435.33,143.25c-1.62-.22-2.94-.51-3.9-.59-2.43,1.56-2.79,3.85-4.49,5.84,1.62.22,2.95.51,3.91.59C433,147.61,433.35,145.32,435.33,143.25Z"/><path class="cls-1" d="M430.6,178l2.87-4.8c-1.11-.66-2.81-1.18-3.1-2.36-.59-1.11-.74-1.7-1.77-.81-.22.37-.74.81-.66,1.11a12.52,12.52,0,0,0,1.63,6.49A4.48,4.48,0,0,1,430.6,178Z"/><path class="cls-1" d="M17.73,279.66,12.42,281c-.58.15-.58,1.4-.8,1.77l4.79,2.88A46.27,46.27,0,0,0,19,280.91C19.2,280.54,18.76,280,17.73,279.66Z"/><path class="cls-1" d="M458.52,264.26c-1.84,1.41-2.21,3.7-3.75,5,1.69,1.77,3,.81,4.2.51a27.29,27.29,0,0,1,2.28-3.4c1.39-1.92,1.32-2.21-.3-2.43A5.88,5.88,0,0,0,458.52,264.26Z"/><path class="cls-1" d="M462.72,266c.3,1.18.67,2.66,1,3.84a2.89,2.89,0,0,0,3.62.67c1.69-.74,2.21-1.19,1.76-3-.3-1.18-.3-1.18-2.29-2.88A20.7,20.7,0,0,1,462.72,266Z"/><path class="cls-1" d="M161.68,449.31,159,450a26.49,26.49,0,0,0-3.62-1.92c-1,3.39-1,3.39,1.63,5.24l5.31-1.33c.29-.08.44-.74.66-1.11C163.45,450.12,162.93,449.31,161.68,449.31Z"/><path class="cls-1" d="M242.77,465.36q1,4,2,8c.07.29.74.44,1.11.66.66.15,1.17-.29,1.47-1.62q-1-4-2-8c-.08-.29-.74-.44-1.11-.66C243.58,463.59,243.13,464.33,242.77,465.36Z"/><path class="cls-1" d="M365,470.47c1.4-1.92,1.32-3.47-.31-5a22.67,22.67,0,0,0-4.5-2.95c-1.39,1.92-1.32,3.47.31,4.95A22.67,22.67,0,0,0,365,470.47Z"/><path class="cls-1" d="M283.53,4c2.29,1.62,4.06,1.18,5.6-1.41-1.11-.66-2.51-1.25-3.61-1.92s-1.48-.88-2-.44a1.93,1.93,0,0,0-.29,2.59C283.6,3,283.46,3.7,283.53,4Z"/><path class="cls-1" d="M99.23,54.67a17.34,17.34,0,0,0,3.83-1c.59-.15.66-1.11,1.11-1.85l-4.43-2.65c-.44.73-1.25,1.25-1.1,1.84C98.34,52.38,98.94,53.49,99.23,54.67Z"/><path class="cls-1" d="M90.69,55.56c-2.29-1.62-4.06-1.18-5.6,1.41,1.1.66,2.5,1.25,3.61,1.91s1.48.89,2,.45A1.92,1.92,0,0,0,91,56.74C90.91,56.45,90.76,55.86,90.69,55.56Z"/><path class="cls-1" d="M136.67,54.06a17.48,17.48,0,0,0,3.83-1c.59-.15.66-1.11,1.1-1.85l-4.43-2.65c-.44.74-1.25,1.25-1.1,1.84C135.78,51.77,136.37,52.88,136.67,54.06Z"/><path class="cls-1" d="M196.71,45l2.87-4.8c-1-2.59-2.73-.89-4.28-.81C193.76,41.92,194.5,43.62,196.71,45Z"/><path class="cls-1" d="M325.39,54.7c-3.09-1.1-3.09-1.1-5.3,1.33.67,1.41,0,3.77,2.73,3.4A48.3,48.3,0,0,1,325.39,54.7Z"/><path class="cls-1" d="M46.83,146.63a2.09,2.09,0,0,0-2.2,2.44,45.69,45.69,0,0,0,1.55,6.2,2.1,2.1,0,0,0,2.21-2.44Z"/><path class="cls-1" d="M392.75,103.4l-1.63-6.5c-.15-.59-1.11-.66-1.84-1.1,0,0-.74.81-.67,1.11.23,2.14.45,4.28,1.86,6.12C391,103.85,391.87,103.62,392.75,103.4Z"/><path class="cls-1" d="M13.61,263.09c-1.61,2.29-.87,4,1.41,5.61.66-1.11,1.25-2.51,1.91-3.62.74-.81.88-1.47.44-2a1.91,1.91,0,0,0-2.58-.3C14.57,263.16,14.2,262.94,13.61,263.09Z"/><path class="cls-1" d="M429.7,169.47a17.34,17.34,0,0,0,3.83-1c.59-.15.66-1.11,1.11-1.85L430.21,164c-.44.73-1.25,1.25-1.1,1.84C428.81,167.18,429.41,168.29,429.7,169.47Z"/><path class="cls-1" d="M443.58,183.57l-2.87,4.8c1,2.58,2.73.88,4.28.81C446.24,186.66,445.5,185,443.58,183.57Z"/><path class="cls-1" d="M44,308.7c-.66-1.4-.15-3.1-1.77-3.32S40.75,307,40,307.82l-.66,1.11L38.69,310C40.9,311.36,42.67,310.92,44,308.7Z"/><path class="cls-1" d="M456.87,291.36c-.67-3.91.13-6.94-3.11-8.63-1.47,1.62-.44,3.25-.29,5.09C453.84,289.3,454.43,290.4,456.87,291.36Z"/><path class="cls-1" d="M477.73,297.11c1.1-3.1,1.1-3.1-1.34-5.31-1.39.66-3.75,0-3.38,2.73C474.48,295.42,476.25,296.23,477.73,297.11Z"/><path class="cls-1" d="M461.07,340.54c2.29,1.62,4,.88,5.6-1.41-1.11-.66-2.51-1.25-3.62-1.92-.81-.73-1.47-.88-2-.44a1.93,1.93,0,0,0-.29,2.59C460.85,339.65,461,340.24,461.07,340.54Z"/><path class="cls-1" d="M444.94,346.16c.29-.08.81-.52,1.18-.3l3.32,2a7.37,7.37,0,0,0,1.1-1.84,17,17,0,0,0-1-3.84l-5.6,1.4A7.62,7.62,0,0,1,444.94,346.16Z"/><path class="cls-1" d="M449.59,352.21c1.26,1.25,3.39,1,3.69,3.47.3-.07,1,.07,1.18-.3a3.36,3.36,0,0,0,.07-4.72c-.52-.81-2.44-1-3.54-.37A7.81,7.81,0,0,0,449.59,352.21Z"/><path class="cls-1" d="M443.51,374.14c-2.29-1.62-4.06-1.18-5.6,1.41,1.11.66,2.51,1.25,3.62,1.92s1.47.88,2,.44a1.92,1.92,0,0,0,.29-2.58C443.44,375.1,443.58,374.44,443.51,374.14Z"/><path class="cls-1" d="M426.06,385.75a2,2,0,0,0,1.48,2.14c2.29.36,4.27-.45,6.26-1.26.3-.08.66-1.11.66-1.11-.44-.52-1.25-1.25-1.84-1.11C430.11,384.41,428.13,385.23,426.06,385.75Z"/><path class="cls-1" d="M438.47,401.47c2.29,1.62,4,1.18,5.6-1.41-1.11-.66-2.51-1.25-3.62-1.92s-1.47-.88-2-.44a1.93,1.93,0,0,0-.29,2.59C438.54,400.51,438.32,400.88,438.47,401.47Z"/><path class="cls-1" d="M173.5,466.43a2,2,0,0,0,1.48,2.14c1.1.67,2.72.89,2.58,2.81,2-.81,2.43-1.55,2.13-2.74-.22-2.14-1.4-3.09-3.46-2.58A8.54,8.54,0,0,0,173.5,466.43Z"/><path class="cls-1" d="M366.09,441.3c-1.62,2.29-1.17,4.06,1.41,5.61.66-1.1,1.25-2.51,1.91-3.61s.88-1.48.44-2a1.91,1.91,0,0,0-2.58-.29C367.05,441.38,366.39,441.23,366.09,441.3Z"/><path class="cls-1" d="M256.71,474.73l3.83-1c1.84-2.66,1.47-2.88-.67-5.17C257.3,472.08,257,472.15,256.71,474.73Z"/><path class="cls-1" d="M252.07,478.72c.82,2,1.56,2.44,2.73,2.14,2.44-.29,3.1-1.4,2.58-3.47-.23-.88-.45-1.77-.67-2.66-1.84.15-2.13,1.48-2.8,2.59C253.55,478.35,253,478.8,252.07,478.72Z"/><path class="cls-1" d="M221.66,481.81c2.14-1.48,2.14-1.48,3.9-5.69-3-.81-3.32-.74-4.86,1.85C221,479.15,221.29,480.33,221.66,481.81Z"/><path class="cls-1" d="M225.28,485c-1.25-1.25-3.39-1-3.69-3.47-.29.08-1-.07-1.18.3a3.36,3.36,0,0,0-.06,4.72c.51.82,2.43,1,3.53.37C224.69,486.38,224.84,485.72,225.28,485Z"/><path class="cls-1" d="M238,484.15l-.66,1.11c-.15.67.3,1.18,1.62,1.48l5.31-1.33.66-1.11c.14-.67-.3-1.18-1.62-1.48Z"/><path class="cls-1" d="M237.2,499.4c-.73.81-1.17,1.55-.44,2l1.11.67c1.77-.45,1.54-.89,3.31-1.33.73-.82.88-1.48.43-2l-1.1-.66C238.74,498.51,239,499,237.2,499.4Z"/><path class="cls-1" d="M172.16,39.5c1.62-2.29,1.18-4.07-1.4-5.61C169.14,36.17,169.66,38.24,172.16,39.5Z"/><path class="cls-1" d="M77.87,63.17l2.66-.66a20.42,20.42,0,0,0-1-4.14c-.59-1.1-1.55-1.18-2-.44-.22.37-.74.81-.66,1.11C77.21,60.52,77.5,61.7,77.87,63.17Z"/><path class="cls-1" d="M88.2,69.37a17.34,17.34,0,0,0,3.83-1c.59-.15,1.18-1.55,1.1-1.85a2,2,0,0,0-2.35-.66,7,7,0,0,0-2.21,1.18C87.68,67.3,87.61,68.26,88.2,69.37Z"/><path class="cls-1" d="M56.35,103.43a2,2,0,0,0,1.47,2.14c1,.37,1.62-1,1.18-2.81-.08-.3-.22-.88-.3-1.18l-1.1-.66c-.67-.15-1.18.29-1.55,1.33C55.83,102.61,56.27,103.13,56.35,103.43Z"/><path class="cls-1" d="M58.49,110.74c1,1.32,3.91.58,4.42-1.11a.57.57,0,0,0-.22-.89c-1-1.33-3.9-.59-4.42,1.11C58.27,109.85,58.35,110.14,58.49,110.74Z"/><path class="cls-1" d="M309.27,60.32C311,59.88,312,58.7,311.18,58a1.91,1.91,0,0,0-2.58-.3l-1.18.3c-.74.81-1.18,1.55-.44,2,.37.23.81.74,1.11.67Z"/><path class="cls-1" d="M38.21,147.22c-2.28-1.62-4.05-1.18-5.6,1.41C35.2,150.18,37,149.73,38.21,147.22Z"/><path class="cls-1" d="M370.89,73.73a2,2,0,0,0-2.13,1.48c-.3,1.33,1.11,1.92,2.87,1.47l1.18-.29.66-1.11c.15-.67-.29-1.18-1.33-1.55A1.85,1.85,0,0,0,370.89,73.73Z"/><path class="cls-1" d="M389.17,77.93a17,17,0,0,0-1-3.84c-.15-.59-1.55-1.18-1.84-1.11a2,2,0,0,0-.66,2.37,7.08,7.08,0,0,0,1.18,2.21A1.56,1.56,0,0,0,389.17,77.93Z"/><path class="cls-1" d="M407.38,76.81c-1.33,1-.59,3.92,1.11,4.43a.56.56,0,0,0,.88-.22c1.33-1,.58-3.91-1.11-4.43Z"/><path class="cls-1" d="M381,91.59c.44,1.78,1.62,2.73,2.36,1.92a1.92,1.92,0,0,0,.29-2.58l-.3-1.18c-.81-.74-1.55-1.18-2-.45-.22.37-.73.82-.66,1.11Z"/><path class="cls-1" d="M401.58,92.4c1.77-.45,2.72-1.63,1.91-2.37a1.91,1.91,0,0,0-2.58-.29l-1.18.29c-.73.82-1.18,1.55-.44,2,.37.22.82.74,1.11.66Z"/><path class="cls-1" d="M405.08,117.57a16.8,16.8,0,0,0,3.83-1c.59-.15,1.18-1.55,1.1-1.85a2,2,0,0,0-2.36-.66,7.25,7.25,0,0,0-2.2,1.18A1.57,1.57,0,0,0,405.08,117.57Z"/><path class="cls-1" d="M449.78,128l.89-.22c1.25-1.26.21-4.14-1.12-4.43l-.88.22c-.22.37-.74.81-.66,1.11l.66,2.65C448.75,127.66,449.41,127.81,449.78,128Z"/><path class="cls-1" d="M19.05,245.25c-2.29-1.63-4.06-1.18-5.6,1.4C16,247.91,17.72,247.46,19.05,245.25Z"/><path class="cls-1" d="M20.78,310.88c2.29,1.63,4.06,1.18,5.6-1.4C23.8,307.93,22,308.37,20.78,310.88Z"/><path class="cls-1" d="M447.39,217.46a2,2,0,0,0,2.13-1.48,3.9,3.9,0,0,0-.88-3.55,1.93,1.93,0,0,0-2.59-.29Q446.73,214.8,447.39,217.46Z"/><path class="cls-1" d="M38.63,329l.88-.23c1.25-1.25.21-4.13-1.11-4.43l-.89.23c-.22.36-.73.81-.66,1.1.22.89.45,1.78.67,2.66C37.59,328.65,38.26,328.79,38.63,329Z"/><path class="cls-1" d="M473.14,285.08c-2.28-1.63-4.05-1.18-5.6,1.4C470.13,288,471.89,287.59,473.14,285.08Z"/><path class="cls-1" d="M100.93,385.76a17.5,17.5,0,0,0-3.83,1c-.59.14-1.17,1.55-1.1,1.84a2,2,0,0,0,2.36.67,7.33,7.33,0,0,0,2.21-1.19C101.38,387.54,101.52,386.87,100.93,385.76Z"/><path class="cls-1" d="M462.13,309.82a17,17,0,0,0,1,3.84c.15.59,1.55,1.18,1.84,1.11a2,2,0,0,0,.66-2.37,7.08,7.08,0,0,0-1.18-2.21A1.56,1.56,0,0,0,462.13,309.82Z"/><path class="cls-1" d="M121.47,421.42c2.51-1.26,2.88-2.29,1.25-5-.07-.3-.74-.45-1.11-.67-.29.08-.51.45-.81.52-.22.37-.44.74-.36,1C120.81,418.76,121.18,420.24,121.47,421.42Z"/><path class="cls-1" d="M118.82,422.08a17,17,0,0,0-1-3.84c-.15-.59-1.55-1.18-1.85-1.1a2,2,0,0,0-.65,2.36,7.13,7.13,0,0,0,1.18,2.22A1.56,1.56,0,0,0,118.82,422.08Z"/><path class="cls-1" d="M449.8,341.8c2.5-1.26,2.87-2.29,1.24-5-.07-.3-.74-.45-1.11-.67-.29.08-.51.45-.8.52-.23.37-.45.74-.37,1C449.2,339.44,449.5,340.62,449.8,341.8Z"/><path class="cls-1" d="M101.9,440.77c1.62-2.29,1.18-4.06-1.41-5.61C99,437.75,99.4,439.52,101.9,440.77Z"/><path class="cls-1" d="M462.2,356.27a17.36,17.36,0,0,0,3.83-1c.59-.15,1.18-1.55,1.1-1.84a2,2,0,0,0-2.36-.67,7.17,7.17,0,0,0-2.2,1.19C461.46,354.57,461.68,355.45,462.2,356.27Z"/><path class="cls-1" d="M130.51,451.17c-1.62,2.29-1.17,4.06,1.41,5.61C133.46,454.2,133,452.42,130.51,451.17Z"/><path class="cls-1" d="M164,459.72l.89-.22c1.25-1.26.21-4.14-1.12-4.43l-.88.22c-.22.37-.74.81-.66,1.11.22.88.44,1.77.67,2.65C163,459.35,163.61,459.5,164,459.72Z"/><path class="cls-1" d="M173.5,466.43c-1.26-2.51-2.29-2.88-5-1.25-.3.08-.45.74-.67,1.11.08.29.45.51.52.81.37.22.74.44,1,.37A19.91,19.91,0,0,0,173.5,466.43Z"/><path class="cls-1" d="M156.56,473.83c-1.62,2.29-1.17,4.06,1.41,5.61C159.22,476.93,158.77,475.15,156.56,473.83Z"/><path class="cls-1" d="M265,472.66a2,2,0,0,0,1.48,2.14c1,.37,1.62-1,1.17-2.8-.07-.3-.22-.89-.29-1.18l-1.11-.67c-.66-.15-1.18.3-1.55,1.33C264.74,471.78,264.89,472.37,265,472.66Z"/><path class="cls-1" d="M206.7,498.36a2,2,0,0,0-2.14,1.47c-.36,1,1,1.63,2.8,1.19l1.18-.3.66-1.11c.15-.66-.29-1.18-1.32-1.55C207.51,497.84,207,498.28,206.7,498.36Z"/><path class="cls-1" d="M214.38,486.46a17.34,17.34,0,0,0-3.83,1c-.59.15-1.18,1.56-1.11,1.85a2,2,0,0,0,2.36.66,7,7,0,0,0,2.21-1.18A1.58,1.58,0,0,0,214.38,486.46Z"/><path class="cls-1" d="M248.16,496.81c-1.32,1-.58,3.92,1.11,4.43a.57.57,0,0,0,.89-.22c1.32-1,.58-3.91-1.12-4.43C248.68,496.37,248.46,496.74,248.16,496.81Z"/><path class="cls-1" d="M216.46,508.79c2.29,1.63,4,1.18,5.6-1.4C219.48,505.84,217.71,506.28,216.46,508.79Z"/><path class="cls-1" d="M231.19,512.63c2.28,1.63,4.05,1.18,5.59-1.4C234.2,509.68,232.43,510.12,231.19,512.63Z"/><path class="cls-1" d="M50.36,342c-2.29-1.62-4-1.18-5.6,1.4C47.05,345,48.82,344.56,50.36,342Z"/><path class="cls-1" d="M334,490.56c1.62-2.29,1.17-4.07-1.41-5.61C331.29,487.46,331.74,489.23,334,490.56Z"/><path class="cls-1" d="M292.2,496.22c1.76-.44,2.72-1.62,1.91-2.36a1.91,1.91,0,0,0-2.58-.29l-1.18.29c-.74.81-1.18,1.55-.44,2,.37.22.81.73,1.11.66C291.09,496.82,291.61,496.37,292.2,496.22Z"/><path class="cls-1" d="M144.79,15.29c-.15.67.29,1.18,1.33,1.55l.66-1.11c.14-.66-.3-1.18-1.33-1.55Z"/><path class="cls-1" d="M97.3,43.23c.66.14,1.18-.3,1.54-1.33l-1.1-.67c-.67-.14-1.18.3-1.55,1.33Z"/><path class="cls-1" d="M86.33,49.43c-.82-2-1.18-2.21-3.32-2C83.53,49.51,83.82,49.44,86.33,49.43Z"/><path class="cls-1" d="M86.62,50.62q.12.43,1.11.66a1.1,1.1,0,0,0,1,.07c.73-.81.88-1.47.14-1.92s-1.47-.88-2.21-.07C86,49.51,86.26,50.39,86.62,50.62Z"/><path class="cls-1" d="M139.23,40.55c.81.73,1.47.88,2,.44.23-.37.67-1.11.67-1.11-.81-.74-1.48-.88-2-.44C139.3,39.59,139.45,40.18,139.23,40.55Z"/><path class="cls-1" d="M50.18,85.18c.67.14,1.18-.3,1.55-1.33l-1.11-.67c-.66-.15-1.18.3-1.54,1.33Z"/><path class="cls-1" d="M97,57.11s.81.74,1.1.66a3,3,0,0,0,1.18-1.55c.29-1.33-.45-1.77-1.48-.88A6.38,6.38,0,0,0,97,57.11Z"/><path class="cls-1" d="M121,55.18q.45-.12.66-1.11a1.14,1.14,0,0,0,.08-1c-.82-.74-1.48-.89-1.92-.15s-.88,1.48-.07,2.22C119.79,55.47,120.38,55.32,121,55.18Z"/><path class="cls-1" d="M65,69.23c2-.81,2.21-1.18,2-3.32C65,66.72,64.76,67.09,65,69.23Z"/><path class="cls-1" d="M60,68s-.74.81-.67,1.11c.45.52,1,1.33,1.55,1.18,1.33.3,1.77-.44.88-1.48C61.6,68.2,60.64,68.13,60,68Z"/><path class="cls-1" d="M35.9,94.41l.66-1.11c-.81-.73-1.47-.88-2-.44L33.91,94C34.8,95,35.39,94.86,35.9,94.41Z"/><path class="cls-1" d="M226.9,30.46l1.11.66c.73-.81.88-1.47.44-2l-1.11-.66C226.61,29.28,226.46,29.94,226.9,30.46Z"/><path class="cls-1" d="M165.91,45.78c.15-.67-.3-1.19-1.33-1.55l-.66,1.1c-.15.67.3,1.18,1.33,1.55C165.54,46.81,165.69,46.14,165.91,45.78Z"/><path class="cls-1" d="M117.59,57.91s.81.74,1.1.66A3,3,0,0,0,119.87,57c.29-1.33-.44-1.77-1.48-.88C118.1,56.21,117.73,57.25,117.59,57.91Z"/><path class="cls-1" d="M103.15,61.54c.14-.67-.3-1.19-1.33-1.55l-.66,1.1c-.15.67.3,1.18,1.33,1.55C102.78,62.57,102.93,61.9,103.15,61.54Z"/><path class="cls-1" d="M62.34,69.9c.81,2,1.55,2.44,2.36,1.92A1.93,1.93,0,0,0,65,69.23Z"/><path class="cls-1" d="M56.89,73.15c.14-.66-.3-1.18-1.33-1.55l-.66,1.11c-.15.66.29,1.18,1.33,1.55Z"/><path class="cls-1" d="M108.09,63.75c.66.15,1.18-.3,1.55-1.33l-1.11-.67c-.67-.14-1.18.3-1.55,1.33Z"/><path class="cls-1" d="M204.23,42.43c.66.15,1.17-.29,1.54-1.33l-1.11-.66c-.66-.15-1.17.3-1.54,1.33C203.19,42.06,203.86,42.21,204.23,42.43Z"/><path class="cls-1" d="M179.1,48.43l1.11.66c.74-.81.88-1.48.44-2l-1.11-.67A1.37,1.37,0,0,0,179.1,48.43Z"/><path class="cls-1" d="M157.3,53.9l1.11.67c.73-.82.88-1.48.44-2l-1.11-.66A1.36,1.36,0,0,0,157.3,53.9Z"/><path class="cls-1" d="M141.31,56.35s-.73.81-.66,1.11c.45.51,1,1.32,1.55,1.18,1.33.29,1.77-.45.88-1.48A2.94,2.94,0,0,0,141.31,56.35Z"/><path class="cls-1" d="M239,36.21c.14-.66-.3-1.18-1.33-1.55L237,35.77c-.15.67.29,1.18,1.33,1.55C238.63,37.25,238.78,36.58,239,36.21Z"/><path class="cls-1" d="M210.49,46.2l1.11.66c.74-.81.88-1.48.44-2l-1.11-.67C210.2,45,210.05,45.68,210.49,46.2Z"/><path class="cls-1" d="M62.28,83.41c.15-.66-.29-1.18-1.33-1.55L60.29,83c-.14.67.3,1.18,1.33,1.55Z"/><path class="cls-1" d="M55.21,83.93,54.55,85c.81.74,1.47.89,2,.44l.66-1.1C56.39,83.64,55.73,83.49,55.21,83.93Z"/><path class="cls-1" d="M69.43,83.19l-.66,1.11c.81.73,1.48.88,2,.44l.66-1.11C70.61,82.89,70,82.74,69.43,83.19Z"/><path class="cls-1" d="M255.81,40.78l1.1.67c.74-.82.89-1.48.44-2l-1.1-.66C255.51,39.6,255.36,40.27,255.81,40.78Z"/><path class="cls-1" d="M64.8,87.18l-.67,1.11c.82.73,1.48.88,2,.44l.67-1.11C66,86.88,65.31,86.73,64.8,87.18Z"/><path class="cls-1" d="M52.36,97.52l1.1.67c.74-.82.89-1.48.44-2l-1.1-.66C52.06,96.34,51.91,97,52.36,97.52Z"/><path class="cls-1" d="M335.67,28.26l-1.11-.66c-.73.81-.88,1.48-.44,2l1.11.67A1.28,1.28,0,0,0,335.67,28.26Z"/><path class="cls-1" d="M61.72,98.62c.66.15,1.18-.29,1.54-1.33l-1.1-.66c-.67-.15-1.18.3-1.55,1.33Z"/><path class="cls-1" d="M350.19,30c-.66-.14-1.18.3-1.55,1.33l1.11.67c.66.14,1.18-.3,1.55-1.33Z"/><path class="cls-1" d="M73.22,102c-.81-2-1.55-2.43-2.36-1.91a1.91,1.91,0,0,0-.29,2.58Z"/><path class="cls-1" d="M263,56.88c.66.14,1.18-.3,1.55-1.33l-1.11-.67c-.66-.15-1.18.3-1.55,1.33Z"/><path class="cls-1" d="M412.16,26l-.66,1.11c.81.73,1.47.88,2,.44l.66-1.11C413.34,25.71,412.67,25.57,412.16,26Z"/><path class="cls-1" d="M57.4,115.09s-.74.81-.67,1.11c.45.52,1,1.33,1.55,1.18,1.33.3,1.77-.44.89-1.48C59,115.31,58.06,115.24,57.4,115.09Z"/><path class="cls-1" d="M395.08,35.32l.66-1.11c-.81-.73-1.48-.88-2-.44l-.66,1.11C393.9,35.62,394.56,35.76,395.08,35.32Z"/><path class="cls-1" d="M332.24,49.53l-1.11-.66c-.73.81-.88,1.47-.44,2l1.11.66A1.35,1.35,0,0,0,332.24,49.53Z"/><path class="cls-1" d="M299.53,57.74l-1.1-.66c-.74.81-.88,1.48-.44,2l1.1.67A1.36,1.36,0,0,0,299.53,57.74Z"/><path class="cls-1" d="M383.07,39.91c-.14.66.3,1.18,1.33,1.55l.66-1.11c.15-.67-.29-1.18-1.33-1.55C383.66,38.5,383.29,39.54,383.07,39.91Z"/><path class="cls-1" d="M41.88,133.12c-.74.81-.89,1.47-.44,2l1.1.66c.74-.81.88-1.47.44-2Z"/><path class="cls-1" d="M370.27,53.79c-.73.82-.88,1.48-.44,2l1.11.66c.73-.81.88-1.48.44-2S370.64,54,370.27,53.79Z"/><path class="cls-1" d="M351.49,58.82c-.67-.14-1.18.3-1.55,1.33l1.11.67c.66.15,1.18-.3,1.54-1.33Z"/><path class="cls-1" d="M405,49.79c.14-.67-.3-1.18-1.33-1.55L403,49.35c-.14.66.3,1.18,1.33,1.55C404.31,50.9,404.75,50.16,405,49.79Z"/><path class="cls-1" d="M377.35,55.78l-1.11-.66c-.73.81-.88,1.48-.44,2l1.11.67C377.65,57,377.79,56.3,377.35,55.78Z"/><path class="cls-1" d="M337.06,66.22c.81.73,1.47.88,2,.44l.66-1.11c-.81-.74-1.48-.89-2-.44Z"/><path class="cls-1" d="M51.31,137s-.73.81-.66,1.1c.45.52,1,1.33,1.55,1.18,1.33.3,1.77-.44.88-1.47A2.94,2.94,0,0,0,51.31,137Z"/><path class="cls-1" d="M377.22,69l.66-1.11c-.81-.74-1.47-.88-2-.44l-.66,1.11C376,69.3,376.71,69.44,377.22,69Z"/><path class="cls-1" d="M377.3,74.32l1.11.66c.74-.81.88-1.48.44-2l-1.11-.67A1.29,1.29,0,0,0,377.3,74.32Z"/><path class="cls-1" d="M389.47,79.11c.08.3.44.52,1.11.66a1.11,1.11,0,0,0,1,.08c.73-.81.88-1.48.14-1.92s-1.48-.89-2.21-.07A1.85,1.85,0,0,0,389.47,79.11Z"/><path class="cls-1" d="M17.44,193.12,18.1,192c-.81-.74-1.47-.89-2-.44l-.66,1.1C16.26,193.41,16.92,193.56,17.44,193.12Z"/><path class="cls-1" d="M420.27,78.28l.66-1.11c-.81-.73-1.47-.88-2-.44-.23.37-.67,1.11-.67,1.11C419.1,78.58,419.76,78.73,420.27,78.28Z"/><path class="cls-1" d="M21.94,198.58c-.66-.15-1.17.29-1.54,1.33l1.1.66c.67.15,1.18-.3,1.55-1.33A2.34,2.34,0,0,1,21.94,198.58Z"/><path class="cls-1" d="M450.1,144.5c.67.14,1.18-.3,1.55-1.33l-1.11-.67c-.66-.14-1.18.3-1.54,1.33Z"/><path class="cls-1" d="M394.72,90c.15-.67-.3-1.19-1.33-1.55l-.66,1.1c-.15.67.3,1.19,1.33,1.55Z"/><path class="cls-1" d="M25.77,168.41c.81.73,1.48.88,2,.44l.66-1.11c-.81-.74-1.47-.89-2-.44Z"/><path class="cls-1" d="M11.35,208.77l1.1.67c.74-.82.89-1.48.44-2l-1.1-.66A1.36,1.36,0,0,0,11.35,208.77Z"/><path class="cls-1" d="M28.7,187.91l1.1.67c.74-.82.89-1.48.44-2l-1.1-.66C28.4,186.73,28.25,187.4,28.7,187.91Z"/><path class="cls-1" d="M393.05,104.58c.07.3.44.52,1.1.67a1.14,1.14,0,0,0,1,.07c.74-.81.88-1.48.15-1.92s-1.48-.89-2.21-.07C392.75,103.4,392.9,104,393.05,104.58Z"/><path class="cls-1" d="M415.84,116.75c.14-.66-.3-1.18-1.33-1.54l-.66,1.1c-.15.67.29,1.18,1.33,1.55C415.47,117.79,415.62,117.12,415.84,116.75Z"/><path class="cls-1" d="M446.51,111.27l.66-1.11c-.81-.74-1.47-.88-2-.44l-.66,1.11A1.36,1.36,0,0,0,446.51,111.27Z"/><path class="cls-1" d="M444.46,115.55c-.67-.15-1.18.3-1.55,1.33l1.11.67c.66.14,1.18-.3,1.54-1.33C445.86,116.14,444.83,115.77,444.46,115.55Z"/><path class="cls-1" d="M17.14,228.24l-.66,1.1c.81.74,1.47.89,2,.45l.66-1.11C18.32,227.94,17.65,227.79,17.14,228.24Z"/><path class="cls-1" d="M21.12,232.89l-.66,1.1c.81.74,1.48.89,2,.45l.66-1.11C22.3,232.59,21.64,232.44,21.12,232.89Z"/><path class="cls-1" d="M413.36,136.84c-.14.67.3,1.18,1.33,1.55l.67-1.11c.14-.66-.3-1.18-1.33-1.55C413.73,135.81,413.59,136.47,413.36,136.84Z"/><path class="cls-1" d="M467.94,147.86c.15-.66-.29-1.18-1.33-1.55l-.66,1.11c-.14.67.3,1.18,1.33,1.55Z"/><path class="cls-1" d="M16.55,254.82c-.15.66.29,1.18,1.33,1.55l.66-1.11c.14-.66-.3-1.18-1.33-1.55C16.84,253.49,16.77,254.45,16.55,254.82Z"/><path class="cls-1" d="M442.22,161.93c.81.74,1.47.89,2,.44l.66-1.11c-.81-.73-1.48-.88-2-.44Z"/><path class="cls-1" d="M438.77,169.39l1.1.66c.74-.81.89-1.47.44-2l-1.1-.66A1.27,1.27,0,0,0,438.77,169.39Z"/><path class="cls-1" d="M449,175.29l1.11.67c.73-.82.88-1.48.43-2l-1.1-.66C448.72,174.11,448.58,174.78,449,175.29Z"/><path class="cls-1" d="M460,184.15l1.11.66c.74-.81.88-1.48.44-2l-1.11-.67C459.72,183,459.57,183.63,460,184.15Z"/><path class="cls-1" d="M25.11,286.91c-.14.67.3,1.19,1.33,1.55l.66-1.1c.15-.67-.29-1.19-1.32-1.55C25.48,285.88,25.33,286.55,25.11,286.91Z"/><path class="cls-1" d="M18.85,292.43c.15-.67-.29-1.18-1.32-1.55L16.86,292c-.14.66.3,1.18,1.33,1.55C18.49,293.46,18.63,292.8,18.85,292.43Z"/><path class="cls-1" d="M452.29,192.05c.14-.66-.3-1.18-1.33-1.55l-.66,1.11c-.15.66.29,1.18,1.33,1.55Z"/><path class="cls-1" d="M30.37,299c-.66-.14-1.17.3-1.54,1.33l1.11.67c.66.15,1.17-.3,1.54-1.33Z"/><path class="cls-1" d="M446.7,197.22c.29-.07.51-.44.66-1.1a1.14,1.14,0,0,0,.07-1c-.81-.74-1.48-.89-1.92-.15s-.88,1.48-.07,2.22C445.59,197.82,446.48,197.59,446.7,197.22Z"/><path class="cls-1" d="M465.4,202c-.73.81-.88,1.48-.44,2l1.11.66c.73-.81.88-1.48.44-2C466.43,202.38,466.07,202.16,465.4,202Z"/><path class="cls-1" d="M443.31,200s.81.74,1.11.66a3,3,0,0,0,1.17-1.55c.3-1.33-.44-1.77-1.47-.89C443.82,198.26,443.75,199.22,443.31,200Z"/><path class="cls-1" d="M461.64,234.28c.29-.07.51-.44.66-1.1a1.12,1.12,0,0,0,.07-1c-.81-.73-1.47-.88-1.91-.14s-.88,1.48-.07,2.21A1.73,1.73,0,0,0,461.64,234.28Z"/><path class="cls-1" d="M461.13,237.24c-.22-.89-.45-1.78-.67-2.66-2,.81-2.21,1.18-2,3.32Z"/><path class="cls-1" d="M461.42,238.42q.12.44,1.11.66a1.14,1.14,0,0,0,1,.08c.74-.82.88-1.48.14-1.92s-1.47-.89-2.21-.08A1.88,1.88,0,0,0,461.42,238.42Z"/><path class="cls-1" d="M472,220.82c.67.15,1.18-.3,1.55-1.33l-1.11-.66c-.66-.15-1.18.29-1.54,1.33C471,220.45,471.65,220.6,472,220.82Z"/><path class="cls-1" d="M64.69,347.46c.15-.66-.3-1.18-1.33-1.55L62.7,347c-.15.66.3,1.18,1.33,1.55C64.32,348.49,64.47,347.83,64.69,347.46Z"/><path class="cls-1" d="M68.82,350.19l2.65-.67c-.81-2-1.55-2.43-2.36-1.91A2,2,0,0,0,68.82,350.19Z"/><path class="cls-1" d="M66.91,352.55s.81.74,1.1.67c.52-.45,1.33-1,1.18-1.55.29-1.33-.44-1.78-1.47-.89A3,3,0,0,0,66.91,352.55Z"/><path class="cls-1" d="M68.32,358.17l1.1.66c.74-.81.89-1.48.44-2l-1.1-.66C68,357,67.87,357.65,68.32,358.17Z"/><path class="cls-1" d="M470.3,260.05l1.11.66c.73-.81.88-1.47.44-2l-1.11-.67C470,258.87,469.86,259.53,470.3,260.05Z"/><path class="cls-1" d="M72.3,362.82s.82.73,1.11.66c.52-.44,1.32-1,1.18-1.55.29-1.33-.45-1.77-1.48-.89A3.12,3.12,0,0,0,72.3,362.82Z"/><path class="cls-1" d="M476.65,267.87l.66-1.11c-.81-.73-1.47-.88-2-.44l-.66,1.11C475.47,268.17,476.14,268.32,476.65,267.87Z"/><path class="cls-1" d="M471.58,276.37c-.15.66.3,1.18,1.33,1.55l.66-1.11c.15-.67-.3-1.18-1.33-1.55C472,275.33,471.8,276,471.58,276.37Z"/><path class="cls-1" d="M463.78,284l-1.11-.67c-.73.82-.88,1.48-.43,2l1.1.66A1.27,1.27,0,0,0,463.78,284Z"/><path class="cls-1" d="M477.94,288c.66.14,1.17-.3,1.54-1.33l-1.1-.67c-.67-.14-1.18.3-1.55,1.33C476.54,287.37,477.57,287.73,477.94,288Z"/><path class="cls-1" d="M92,383.92s.81.74,1.11.67A3.13,3.13,0,0,0,94.3,383c.29-1.33-.45-1.78-1.48-.89C92.6,382.52,92.45,383.18,92,383.92Z"/><path class="cls-1" d="M66.16,395.75c-.14.67.3,1.18,1.33,1.55,0,0,.44-.74.67-1.11.14-.66-.3-1.18-1.33-1.55C66.75,394.35,66.31,395.09,66.16,395.75Z"/><path class="cls-1" d="M60.2,398.19c.15-.67-.3-1.18-1.33-1.55l-.66,1.11c-.15.66.3,1.18,1.33,1.55Z"/><path class="cls-1" d="M89.31,399.36c.15-.67-.3-1.19-1.33-1.55l-.66,1.11c-.15.66.3,1.18,1.33,1.54C89,400.69,89.09,399.73,89.31,399.36Z"/><path class="cls-1" d="M473.77,306.27c.66.15,1.17-.3,1.54-1.33l-1.11-.66c-.66-.15-1.18.29-1.54,1.33C472.73,305.9,473.4,306.05,473.77,306.27Z"/><path class="cls-1" d="M96.53,400.68l1.11.67c.74-.82.88-1.48.44-2L97,398.69A1.36,1.36,0,0,0,96.53,400.68Z"/><path class="cls-1" d="M119.47,412.19s.81.74,1.11.66c.51-.44,1.32-1,1.17-1.55.3-1.33-.44-1.77-1.47-.88C120,410.49,119.62,411.52,119.47,412.19Z"/><path class="cls-1" d="M99.29,417.89l.66-1.11c-.81-.74-1.48-.89-2-.45l-.66,1.11C98.11,418.18,98.77,418.33,99.29,417.89Z"/><path class="cls-1" d="M110.05,419.58c-.15.66.3,1.18,1.33,1.55L112,420c.15-.66-.3-1.18-1.33-1.55C110.42,418.54,110.27,419.21,110.05,419.58Z"/><path class="cls-1" d="M76.17,429.34l.66-1.11c-.81-.73-1.48-.88-2-.44l-.66,1.11C75,429.64,75.65,429.79,76.17,429.34Z"/><path class="cls-1" d="M121.47,421.42l-2.65.66c.82,2,1.55,2.44,2.36,1.92A1.9,1.9,0,0,0,121.47,421.42Z"/><path class="cls-1" d="M112.93,426.07l.67-1.1c-.82-.74-1.48-.89-2-.45-.23.37-.67,1.11-.67,1.11C111.75,426.37,112.42,426.52,112.93,426.07Z"/><path class="cls-1" d="M459.83,346.82c.81.73,1.47.88,2,.44l.66-1.11c-.81-.74-1.48-.89-2-.44C460.19,345.78,460.05,346.45,459.83,346.82Z"/><path class="cls-1" d="M471.4,350.5l.66-1.11c-.81-.74-1.47-.88-2-.44l-.66,1.11A1.36,1.36,0,0,0,471.4,350.5Z"/><path class="cls-1" d="M460,358.7s.81.74,1.11.67c.51-.45,1.32-1,1.18-1.55.29-1.33-.45-1.78-1.48-.89C460.51,357,460.14,358,460,358.7Z"/><path class="cls-1" d="M150.61,440.16q.45-.12.66-1.11a1.14,1.14,0,0,0,.08-1c-.81-.74-1.48-.89-1.92-.15s-.88,1.48-.07,2.22A.75.75,0,0,0,150.61,440.16Z"/><path class="cls-1" d="M451.16,367.2c.67.15,1.18-.3,1.55-1.33l-1.11-.67c-.66-.14-1.18.3-1.54,1.34C450.13,366.83,450.79,367,451.16,367.2Z"/><path class="cls-1" d="M147.52,442.82s.81.74,1.11.66a3,3,0,0,0,1.17-1.55c.3-1.33-.44-1.77-1.47-.88A3,3,0,0,0,147.52,442.82Z"/><path class="cls-1" d="M445.64,370.15c-.15.67.3,1.19,1.33,1.55l.66-1.1c.15-.67-.3-1.18-1.33-1.55Z"/><path class="cls-1" d="M155.06,459.13c.67.15,1.18-.29,1.55-1.33l-1.11-.66c-.66-.15-1.18.29-1.54,1.33Z"/><path class="cls-1" d="M425.7,391.8s-.73.81-.66,1.11c.45.51,1,1.33,1.55,1.18,1.33.29,1.77-.45.88-1.48C427.4,392.32,426.37,392,425.7,391.8Z"/><path class="cls-1" d="M431.46,396c-.82-2-1.18-2.22-3.32-2C429,396,429.32,396.23,431.46,396Z"/><path class="cls-1" d="M431.76,397.19c.07.29.44.51,1.1.66a1.1,1.1,0,0,0,1,.07c.74-.81.88-1.47.14-1.91s-1.47-.89-2.21-.08C431.46,396,431.68,396.89,431.76,397.19Z"/><path class="cls-1" d="M420.85,399.92c.08.3.45.52,1.11.67a1.1,1.1,0,0,0,1,.07c.73-.81.88-1.48.14-1.92s-1.47-.88-2.21-.07C420.26,398.82,420.78,399.63,420.85,399.92Z"/><path class="cls-1" d="M140.72,478.12c-.66-.15-1.18.29-1.54,1.33l1.11.66c.66.15,1.17-.3,1.54-1.33Z"/><path class="cls-1" d="M132.82,474.57c.15-.66-.3-1.18-1.33-1.55l-.66,1.11c-.15.67.3,1.18,1.33,1.55C132.46,475.61,132.6,474.94,132.82,474.57Z"/><path class="cls-1" d="M428.18,419.12c.15-.67-.3-1.18-1.33-1.55l-.66,1.11c-.15.66.29,1.18,1.33,1.55Z"/><path class="cls-1" d="M234.44,467.14c.82.74,1.48.89,2,.44l.67-1.1c-.82-.74-1.48-.89-2-.45C234.88,466.4,235,466.7,234.44,467.14Z"/><path class="cls-1" d="M164.17,485.42l1.11.66c.73-.81.88-1.48.43-2l-1.1-.66C163.87,484.23,163.73,484.9,164.17,485.42Z"/><path class="cls-1" d="M141.49,494.39c.66.15,1.18-.3,1.55-1.33l-1.11-.67c-.66-.14-1.18.3-1.55,1.33Z"/><path class="cls-1" d="M379.2,438.64l-.66,1.11c.81.73,1.48.88,2,.44l.67-1.11C380.38,438.34,379.72,438.2,379.2,438.64Z"/><path class="cls-1" d="M173,486.8c-.14.66.3,1.18,1.33,1.55l.66-1.11c.15-.66-.29-1.18-1.33-1.55C173.61,485.39,173.24,486.43,173,486.8Z"/><path class="cls-1" d="M353.65,450.39q.45-.11.66-1.11a1.14,1.14,0,0,0,.08-1c-.82-.73-1.48-.88-1.92-.14s-.88,1.47-.07,2.21C352.47,450.69,353.06,450.54,353.65,450.39Z"/><path class="cls-1" d="M350.27,453.13s.81.73,1.1.66a3,3,0,0,0,1.18-1.55c.29-1.33-.45-1.77-1.48-.89C350.78,451.43,350.41,452.46,350.27,453.13Z"/><path class="cls-1" d="M249.71,476.81s-.73.81-.66,1.1a3,3,0,0,0,1.55,1.18c1.33.3,1.77-.44.88-1.47C251.34,477,250.38,477,249.71,476.81Z"/><path class="cls-1" d="M170.41,494.78c-.66-.14-1.18.3-1.55,1.33l1.11.67c.66.14,1.18-.3,1.55-1.33C171.44,495.15,170.78,495,170.41,494.78Z"/><path class="cls-1" d="M178.93,498c-.15.67.3,1.18,1.33,1.55l.66-1.1c.15-.67-.3-1.19-1.33-1.55Z"/><path class="cls-1" d="M147.69,500.13l-1.11-.66c-.74.81-.88,1.48-.44,2l1.11.67A1.37,1.37,0,0,0,147.69,500.13Z"/><path class="cls-1" d="M159.63,497l-1.1-.67c-.74.82-.88,1.48-.44,2l1.1.66C159.93,498.2,160.08,497.54,159.63,497Z"/><path class="cls-1" d="M293.63,477.08c.3-.08.52-.44.67-1.11a1.14,1.14,0,0,0,.07-1c-.81-.74-1.48-.88-1.92-.15s-.88,1.48-.07,2.22C292.46,477.37,293.05,477.23,293.63,477.08Z"/><path class="cls-1" d="M128.41,488.37c.15-.67-.29-1.18-1.32-1.55,0,0-.45.74-.66,1.11-.15.66.29,1.18,1.32,1.55C127.75,489.48,128.2,488.74,128.41,488.37Z"/><path class="cls-1" d="M153.24,503.22c.14-.67-.3-1.18-1.33-1.55l-.67,1.11c-.14.66.3,1.18,1.33,1.55A2.27,2.27,0,0,1,153.24,503.22Z"/><path class="cls-1" d="M117.83,477.1c.15-.67-.29-1.18-1.33-1.55l-.66,1.11c-.14.66.3,1.18,1.33,1.55Z"/><path class="cls-1" d="M257.62,490.83c.15-.66-.3-1.18-1.33-1.55l-.66,1.11c-.15.66.3,1.18,1.33,1.55C257,492.23,257.18,491.57,257.62,490.83Z"/><path class="cls-1" d="M274.55,485.65c-.66-.15-1.17.29-1.54,1.33l1.1.66c.67.15,1.18-.3,1.55-1.33Z"/><path class="cls-1" d="M205.46,505.89c.81.74,1.47.88,2,.44l.66-1.11c-.81-.73-1.48-.88-2-.44C205.9,505.15,206,505.45,205.46,505.89Z"/><path class="cls-1" d="M192.47,511c.67.15,1.18-.29,1.55-1.33l-1.11-.66c-.66-.15-1.18.3-1.54,1.33Z"/><path class="cls-1" d="M169.5,506s-.74.81-.66,1.11a3.05,3.05,0,0,0,1.55,1.18c1.32.29,1.76-.45.88-1.48A6.52,6.52,0,0,0,169.5,506Z"/><path class="cls-1" d="M408.84,430.88c.15-.66-.3-1.18-1.33-1.55l-.66,1.11c-.15.67.3,1.18,1.33,1.55Z"/><path class="cls-1" d="M304,487l1.11.66c.73-.81.88-1.48.44-2l-1.11-.66C303.7,485.76,303.56,486.43,304,487Z"/><path class="cls-1" d="M172.23,509.42c.07.3.44.52,1.11.67a1.11,1.11,0,0,0,.95.07c.74-.81.89-1.48.15-1.92s-1.48-.88-2.21-.07C171.64,508.32,171.79,508.91,172.23,509.42Z"/><path class="cls-1" d="M214.66,480.11l.66-1.1c-.81-.74-1.47-.89-2-.45l-.66,1.11C213.48,480.41,214.15,480.56,214.66,480.11Z"/><path class="cls-1" d="M185.21,491.46l-1.1-.66c-.74.81-.89,1.48-.44,2l1.1.67C185.51,492.65,185.66,492,185.21,491.46Z"/><path class="cls-1" d="M183.09,507.52l1.1.67c.74-.81.88-1.48.44-2l-1.11-.66C182.79,506.34,182.64,507,183.09,507.52Z"/><path class="cls-1" d="M227.43,491l1.1.67c.74-.81.88-1.48.44-2l-1.1-.66A1.35,1.35,0,0,0,227.43,491Z"/><path class="cls-1" d="M217,495.54c-.15.67.3,1.19,1.33,1.55L219,496c.15-.67-.3-1.19-1.33-1.55Z"/><path class="cls-1" d="M395.84,458.12c-.66-.15-1.18.29-1.55,1.33l1.11.66c.66.15,1.18-.29,1.55-1.33Z"/><path class="cls-1" d="M229.13,503.1c.14-.67-.3-1.18-1.33-1.55,0,0-.44.74-.67,1.11-.14.66.3,1.18,1.33,1.55C228.46,504.21,228.9,503.47,229.13,503.1Z"/><path class="cls-1" d="M268.67,502.32c.67.15,1.18-.29,1.55-1.33l-1.11-.66c-.66-.15-1.18.3-1.54,1.33C267.64,502,268.3,502.1,268.67,502.32Z"/><path class="cls-1" d="M252.06,509.14l1.1.66c.74-.81.88-1.47.44-2l-1.1-.67C251.76,508,251.61,508.62,252.06,509.14Z"/><path class="cls-1" d="M260.16,501.33l1.1.67c.74-.82.89-1.48.44-2l-1.1-.66C259.49,499.93,259.64,500.52,260.16,501.33Z"/><path class="cls-1" d="M352.33,479.68l.66-1.11c-.81-.74-1.47-.88-2-.44l-.66,1.11A1.27,1.27,0,0,0,352.33,479.68Z"/><path class="cls-1" d="M352.56,486.84c-.14.67.3,1.18,1.33,1.55l.66-1.11c.15-.66-.29-1.18-1.33-1.55Z"/><path class="cls-1" d="M346.82,492.68l.66-1.11c-.81-.74-1.47-.89-2-.44l-.66,1.11C345.64,493,346.31,493.12,346.82,492.68Z"/><path class="cls-1" d="M463.8,391.34l.66-1.11c-.81-.74-1.47-.88-2-.44l-.66,1.11A1.27,1.27,0,0,0,463.8,391.34Z"/><path class="cls-1" d="M316.13,480.53c-.67-.14-1.18.3-1.55,1.33l1.11.67c.66.14,1.17-.3,1.54-1.33C317.53,481.12,316.49,480.75,316.13,480.53Z"/><path class="cls-1" d="M271.75,510.81c-.15.66.29,1.18,1.33,1.55l.66-1.11c.14-.67-.3-1.18-1.33-1.55C272.33,509.4,272,510.44,271.75,510.81Z"/><path class="cls-1" d="M288.05,505.21l1.11.67c.73-.81.88-1.48.44-2l-1.11-.67C287.39,503.81,287.54,504.4,288.05,505.21Z"/><path class="cls-1" d="M278.91,497.75l1.11.66c.74-.81.88-1.48.44-2l-1.11-.67C278.62,496.57,278.47,497.23,278.91,497.75Z"/><path class="cls-1" d="M422.83,435.22c.14-.67-.3-1.18-1.33-1.55l-.67,1.11c-.14.66.3,1.18,1.33,1.55C422.16,436.33,422.6,435.59,422.83,435.22Z"/><path class="cls-1" d="M215.55,486.17c.3-.08.52-.45.67-1.11a1.14,1.14,0,0,0,.07-1c-.81-.74-1.48-.89-1.92-.15s-.88,1.48-.07,2.22C214.38,486.46,215.26,486.24,215.55,486.17Z"/></svg>