<svg id="Layer_1" data-name="Layer 1" xmlns="http://www.w3.org/2000/svg" viewBox="0 0 91 7" preserveAspectRatio="none">
    <defs>
        <style>
            .cls-1 {
                fill: #e62f48;
            }
        </style>
    </defs>
    <path class="cls-1"
        d="M89.88,5.62c0-.62-.08-.75-.74-.79-.11,0-.28,0-.39,0-1.7-.11-3.42-.11-5.13-.21-1.55,0-3.05-.07-4.6-.11-.94,0-1.89,0-2.83,0l-4.61-.43a5.05,5.05,0,0,0-1.76-.12c-3.74.2-29.4.26-33.15.55-1.79.08-3.51.08-5.34,0s-3.48-.12-5.24-.24c-1.22,0-2.45,0-3.68.11a10.56,10.56,0,0,0-1.7.32A14.93,14.93,0,0,1,17,5.09c-1.76-.12-3.39-.15-5.14-.22a3,3,0,0,1-1.36-.06,7.93,7.93,0,0,1-2-.09,9.64,9.64,0,0,0-3-.13c-.34.08-.72-.26-1,0-.37.38-.42-.49-.33.16s.66-.17,1.06.18.9.09,1.4.06a29.49,29.49,0,0,1,3,.31c1.27,0,2.59.22,3.86.26a13.08,13.08,0,0,1,1.88.06,17.11,17.11,0,0,0,5.15.11c1.28-.05,2.59-.3,3.86-.25,3.59.16,7.24-.57,10.87-.29a13.45,13.45,0,0,0,3.09.09c1.49-.39,3,.67,4.56.81,2.09.14,26.1-.4,28.18-.17,1,.07,2.1.14,3.09.19.82.09,1.65.08,2.48.18a12.33,12.33,0,0,0,2.1,0L82.15,6a27.83,27.83,0,0,1,5.76.54.61.61,0,0,0,.63-.18c.34-.5.63,1,.8.56.25-1.25.35.39.55-.88h0Z" />
    <path class="cls-1"
        d="M91,1.3c0-.42-.08-.51-.76-.54-.11,0-.29,0-.4,0C88.08.65,86.32.64,84.56.56L79.85.45c-1,0-1.94,0-2.9,0L72.22.12A7.41,7.41,0,0,0,70.41,0c-3.83.1-33.12.41-37,.58-1.83,0-3.59,0-5.46,0S24.41.49,22.6.4c-1.25,0-2.51,0-3.77.06a15,15,0,0,0-1.74.2A22.68,22.68,0,0,1,13.23.9,25.77,25.77,0,0,0,8,1.14a6.12,6.12,0,0,1-1.65,0A5.45,5.45,0,0,0,4.45.92c-1,.1-2.07.12-3.07.29a3.19,3.19,0,0,0-1,.32c-.39.26-.48-.1-.39.34s.48.54.9.78a3.38,3.38,0,0,0,1.43.28c1.09,0,2.16,0,3.23.1,1.31,0,2.65.16,4,.2a17.77,17.77,0,0,1,1.93,0,26.62,26.62,0,0,0,5.28.11c1.31,0,2.65-.19,3.95-.15,3.68.13,7.41.35,11.13.56A21.38,21.38,0,0,0,35,3.88a21,21,0,0,1,4.69-.11c2.14.11,29.72.16,31.85.33l3.17.15c.84.06,1.7.06,2.54.13a19.64,19.64,0,0,0,2.16,0L83,4.25a42.93,42.93,0,0,1,5.91.4.92.92,0,0,0,.65-.12,5.18,5.18,0,0,0,.85-1c.26-.84.4-1.1.6-2h0Z" />
</svg>