<svg id="Layer_1" data-name="Layer 1" xmlns="http://www.w3.org/2000/svg" viewBox="0 0 85 2"><defs><style>.cls-1{fill:#faefe6;}</style></defs><path class="cls-1" d="M.2.52C0,.35-.06.32.13.31H.24c.5,0,1,0,1.54-.07L3.18.18c.29,0,.61,0,.9,0L5.37.05a1.32,1.32,0,0,1,.51,0c1.25,0,10.54.15,11.83.22.6,0,1.14,0,1.7,0s.27.05.78,0,1.57-.1,2-.08a5.89,5.89,0,0,1,.66.08,8.35,8.35,0,0,0,1.34.09A7.59,7.59,0,0,1,26,.44a1.18,1.18,0,0,0,.48,0,.9.9,0,0,1,.48-.07c.37,0,.71,0,1.12.12a2.76,2.76,0,0,1,.49.13c.26.1.08,0,.31.13S29,.94,29,1s-.12.12-.29.11c-.34,0-.65,0-.95,0s-.73.07-1.12.08a5.15,5.15,0,0,0-.57,0,5.67,5.67,0,0,1-1.58.05c-.42,0-.93-.08-1.31-.06-1.07.05-2.11.14-3.15.23a4.74,4.74,0,0,1-.94,0,18.25,18.25,0,0,0-2.77,0c-.6,0-3.67-.07-4.24,0-.3,0-4.84.14-5.14.15s-.49,0-.71.06S5.61,2,5.37,2c-.41,0-.59-.29-1-.31a7,7,0,0,0-1.61.16.54.54,0,0,1-.27-.05c-.3-.13-.59-.27-.82-.39C1.1,1.07.91,1,.36.63h0Z"/><path class="cls-1" d="M85,.27c0-.14-.06-.17-.44-.18a1.76,1.76,0,0,1-.23,0c-1,0-2,0-3,0h-2.7L77,.1,74.25,0a9.15,9.15,0,0,0-1,0C71,.08,54.29.44,52.1.53c-1.05,0-2.06,0-3.13,0s-2-.45-3-.46c-.72,0-1.5.47-2.22.49-.32,0-.66.06-1,.09-.73,0-1.46.14-2.2.11a25.07,25.07,0,0,0-3,.13,7.37,7.37,0,0,1-.94,0A5.31,5.31,0,0,0,35.53.88C35,.93,34.35.94,33.78,1a2.41,2.41,0,0,0-.54.12c-.22.09-.28,0-.22.12s.28.18.53.26a3.17,3.17,0,0,0,.82.08c.62,0,1.23,0,1.85,0s1.51,0,2.26,0c.36,0,.75,0,1.1,0a23.4,23.4,0,0,0,3,0c.75,0,1.51-.09,2.26-.08,2.1,0,4.24.05,6.37.09.61,0,1.25.05,1.81,0A20.38,20.38,0,0,1,55.66,2c1.23,0,4.8-.89,6-.85l14,.27,1.46,0c.42,0,.77.46,1.17.44.69,0,1.4-.5,2.09-.53,1.14,0,2.27,0,3.39.08a.73.73,0,0,0,.37,0A2.2,2.2,0,0,0,84.69,1,6.68,6.68,0,0,0,85,.37h0Z"/></svg>