<svg id="Layer_1" data-name="Layer 1" xmlns="http://www.w3.org/2000/svg" viewBox="0 0 268 67"><defs><style>.cls-1{fill:#feefd3;fill-rule:evenodd;}</style></defs><path class="cls-1" d="M.65,59c.25-.88-.79,0,0,0ZM.4,41.52A1.61,1.61,0,0,1,1,41.14a1.46,1.46,0,0,1,.72,0C1.73,41.44,1.06,41.56.4,41.52ZM.94,53.47s.54,0,.54-.41C2.23,53.06,1.48,53.72.94,53.47Zm.25-4.89c1.41-.5-.92-.54,0,0ZM1.48,40c1-.25-1.08-.25,0,0ZM2,53.93c-.29-.66.58-.37,1.08-.46a1.3,1.3,0,0,1-.49.35A1.35,1.35,0,0,1,2,53.93Zm.25-5.77c1.08-.54-.87-.33,0,0Zm0-2.78c1.08-.25-1.08-.25,0,0ZM3.35,47.5c1.41-.5-.92-.54,0,0ZM24.76,33.63c1-.24-1.08-.24,0,0Zm21.08-4.48c1.08-.25-1-.25,0,0Zm1.92,31c1-.54-.92-.34,0,0Zm3.53-26.28c1-.25-1.08-.25,0,0Zm3,25.65c.29-.91-.79,0,0,0Zm2.46-.25c1.08-.25-1.09-.25,0,0ZM70.79,32.56c1-.25-1.08-.25,0,0Zm3.49,25c1.08-.25-1.08-.25,0,0Zm4.87-26.69c-1.42-.25-.29.67,0,0Zm1.62,34a6.35,6.35,0,0,0,2.2-.88C82.72,64.64,82,64.93,80.77,64.81Zm2.45-.21c.92.5-.66-.71,0,0Zm.54-.21c.34-.87,2.12-.25,2.71,0C85.47,65,84.89,63.85,83.76,64.39Zm1.08-4.15c1.09-.25-1.08-.25,0,0Zm.54,0c1.67,0,.55-1,0,0Zm2.46.41a3,3,0,0,1,2.41,0C90.25,61.57,88.84,60.65,87.84,60.65Zm.79,1.71a12.17,12.17,0,0,1,4.16-.42C92.16,62.73,89.92,62.23,88.63,62.36Zm.54-.42c1.08-.25-1-.25,0,0Zm0-2.12c.37-.41,2.66-.33,3.78-.45-.7.37-1.49,1.53-2.41,1.08,0-.29.79,0,.79-.42s-1.5,0-2.16,0ZM91.62,59c1.08-.25-1.08-.25,0,0ZM92.7,57c1.08-.25-1.08-.25,0,0Zm1.87,2.78c0-.74.46-.78,1.13-.87C95.7,59.48,95.32,59.77,94.57,59.82ZM97,58.08c.25-.87-.79,0,0,0Zm-.25-.62c2.33.37.41-1,0,0Zm.54-.87c1.08-.71,4.16,0,5.94-.83,0,.66-.75.66-1.08,1.49-.83,0,.25-.46,0-.87A43.79,43.79,0,0,1,97.32,56.59Zm2.7.66v-.41a9.73,9.73,0,0,1,1.08,0v.41Zm.54-1.7c.25-.91-.83,0,0,0Zm2.7,1.24c1.58.21-1.08,0,0,0Zm1.33-.83c-1.41-.24-.29.67,0,0Zm-.24.83Zm.24,3.86c1.09-.24-1-.24,0,0Zm-.24-4.89a1.73,1.73,0,0,1,.81-.19,1.78,1.78,0,0,1,.81.19,1.22,1.22,0,0,1-.81.31A1.2,1.2,0,0,1,104.35,55.76ZM106,57.67c0-.71.54-.34.83,0S106.3,57.67,106,57.67Zm2.16-.42c1.08-.25-1.08-.25,0,0Zm0-.87c.25-.29.87-.29,1.37-.42C109.75,56.67,108.63,56.3,108.13,56.38Zm.29-1.29c1-.25-1.08-.25,0,0Zm2.41-.41a.52.52,0,0,0,.54-.62c-.08-.63.71.45,1.37.41,0,.46-1.33,0-1.91,0Zm4.87,1.49c0,.83-1.13-.21-1.09.87C113.37,56.67,114.61,56.09,115.7,56.17Zm.54,0c.91.54-.63-.7,0,0Zm.54-2.32v-.46h.54v.29ZM120.31,56c1.08-.24-1.08-.24,0,0Zm3.24-.62c1.09-.25-1.08-.25,0,0Zm4.16-.45c.21,0,1.37-.71,1.62,0,.67-.21-.54-1,.79-.83-.75.53.34.45.29,1s-1.37,0-1.08.46c-1.08.29-.87-.5-1.62-.46Zm4.16-.42c2,.71,1.33-.58,0,0Zm2.45,0c1-.25-1.08-.25,0,0Zm8.94-.41c1-.25-1.08-.25,0,0Zm10-1.71c-.58-.66-1.7.25,0,0ZM153,.22c0-.62.67.29,1.37,0C154.36.72,153.16.22,153,.22Zm4.83,60.1c1.08-.25-1.09-.25,0,0Zm4.15-9c1.33.79,1-.75,0,0ZM162.51,5c1.13,0,0-.63,0,0Zm3.25,46.56c-.83,0,.25-.87,0,0Zm-.83-.2c-1-.25,1.08-.25,0,0Zm-1.88-.42a36.08,36.08,0,0,1,4.16,0c-.33.38-1.58,0-1.12,1a3.9,3.9,0,0,1-1.59-.21,3.81,3.81,0,0,1-1.36-.83ZM169.83.51c1-.25-1.08-.25,0,0Zm2.95,58.11c.88.66,2-.25,0,0Zm4.45-57.44c1.08-.25-1.08-.25,0,0Zm.25-.42c1.08-.25-1-.25,0,0Zm17.76,56.16c1.08-.25-1.08-.25,0,0Zm7.86-.66c1.08-.25-1.09-.25,0,0Zm7.31-.84c.34.63,1.42-.24,0,0Zm31.77-35.23c.87-.67-1-.38,0,0Zm.29-9.43c.21-.62.87,0,1.33,0C243.8,11.26,242.64,10.76,242.47,10.76Zm.25,6.85c1.29.58.66-.7,0,0Zm1.08-6.18c-1.66-.54-.87.66,0,0Zm-.25,1.08c1-.25-1.08-.25,0,0Zm.54,6.18v-.45h.54v.45Zm.25-6.18c1.08-.25-1-.25,0,0Zm-.25-.46c0-.45.38-.41.79-.41a.63.63,0,0,1-.32.34A.69.69,0,0,1,244.09,12.05Zm0-1.29c.54.38.54,0,1.08.25S243.63,11.39,244.09,10.76ZM246,11.84c1.08-.24-1-.24,0,0Zm.54,1.08c1.09-.25-1-.25,0,0Zm13.81,23.29a2.58,2.58,0,0,1,1-.6,2.62,2.62,0,0,1,1.18-.07A3.24,3.24,0,0,1,260.31,36.21Zm.29,10.46c1.41,0,.29-.92,0,0Zm.79-10.05c1.08-.25-1-.25,0,0Zm.29,3.61a1.28,1.28,0,0,1,.69-.19,1.25,1.25,0,0,1,.68.19C263.05,40.69,262.05,40.23,261.68,40.23Zm.54.67c.87-.67-1-.38,0,0Zm0-3.41c1.08-.24-1.08-.24,0,0Zm.29,2.12c1-.25-1.08-.25,0,0Zm.79-3.4c.92-.33-1-.54,0,0Zm0-3c0-.5,1.21,0,1.37,0A1.78,1.78,0,0,0,263.3,33.22Zm.54,7.68c1.08-.25-1.08-.25,0,0Zm.83-4.69c.88.5-.66-.75,0,0ZM.44,48.78c.87-.37-1.33.63,0,0ZM264.38,30.23c-.79,0,.25-.91,0,0Zm-.25-.87c-1.08-.25,1-.25,0,0Zm-.83-1.7c0,.21-.21.25-.25.41.71-.79,1.71,0,2.16-.2a.35.35,0,0,1-.13-.05.48.48,0,0,1-.11-.09.58.58,0,0,1-.05-.14.33.33,0,0,1,0-.14c-.91,0-2.82-.58-2.41,0s.75,0,.79,0Zm-1.08,2.78c-.67-.71.92.5,0,0Zm.54,1c-.37,0-.46-.34-.79-.42v.67C262.26,31.73,262.72,31.73,262.76,31.48Zm-2.45-1.91c1.49-.25,0,1.37,0,0Zm1.37,1.7c-.46,0-1.33-.58-1.62,0C260.77,31.27,261.35,31.93,261.68,31.27Zm-1.37,8.3c-1-.25,1.08-.25,0,0Zm-.25-5.35c-.83,0,.25-.88,0,0Zm0,3.23c-.79,0,2.37.42,0,0Zm.79-4.94h-.54s.54,0,.54-.2-1.62-.29-1.33.41c.46,0,1.12.62,1.33,0Zm-1.08,5.36c-.79.58.75-.67,0,0Zm-.54,7.05c-1-.25,1.08-.25,0,0Zm0-7.05c-.59.29-1-.54-1.08,0S259.18,38.41,259.23,37.87Zm0,4.69c-1.25,0,.37-.54-.54-.62,0,.29-.42.33-.54.62S259.93,43,259.23,42.56ZM241.93,5.62c1.08-.62,1.75.7,0,0Zm-.29,12c-1.08-.25,1.08-.25,0,0Zm.54-1.49c.46-.58-1.17-.58-1.08,0A2,2,0,0,1,242.18,16.08Zm-1.46-7.85c-1,0,2,.29,0,0Zm.79,5.52c-.66,0-1.28,0-1.33.46C240.85,14.21,241.31,14.21,241.51,13.75ZM241,10.56c-.87.29-.2-.67-1.08-.42S240.81,11.1,241,10.56Zm-1.08-1.91c-1.08-.25,1.08-.25,0,0Zm-1.62.87c-1-.54.92-.33,0,0ZM238,5.37c-.58,0,2.66.5,0,0Zm-1.12-.25s.33,0,.29.25c-.29,0,0,.25,0,0,.29,0,0-1.08-.29-.46Zm-.25,2.57c-1.08-.25,1.08-.25,0,0Zm0,23.7c-1.08-.25,1.08-.25,0,0Zm-.54.21c-.83,0,.25-.87,0,0Zm-3-27.31c-1-.25,1.08-.25,0,0Zm-1.33,4.15c-1.09-.25,1-.25,0,0ZM231,4c-1.08-.25,1.08-.25,0,0Zm-.25.62c-1.08-.25,1-.25,0,0Zm-2.45,3.65c0-.62,3.16,0,0,0ZM226.92,7c-1.08-.25,1-.25,0,0ZM225.8,3.5c-1,0,2,.33,0,0Zm-1.08,6.23c-1-.25,1.08-.25,0,0ZM222,3.29c0-.58,3.16,0,0,0Zm-1.33,2.37c-1.08-.25,1.08-.25,0,0Zm-.29,1.91c-.95,0,2,.33,0,0Zm-.54.21c-.83-.25.29-1.12,0,0Zm-.79-4.15c-1,0,2,.33,0,0Zm-.29,3.86c-1.08-.25,1.08-.25,0,0Zm.54-1.71c0,.25,0,.5.54.42s-1.37-.87-1.62-.42a.86.86,0,0,0,1.08,0ZM216.9,31.39c-1-.33.87-.66,0,0ZM215.82,7.28c-1.08-.25,1-.25,0,0Zm-.29-1.7c-1,0,2,.29,0,0Zm0,25.61c-.75-.63.83.58,0,0ZM215,7.28c-1.08-.25,1.08-.25,0,0Zm-.54,2.57c-1.08-.25,1.08-.25,0,0ZM215,30.6c-.67,0-.67.46-1.08.63C214.61,31.23,215.07,31.23,215,30.6ZM213.91,3.25c-1.09-.25,1.08-.25,0,0Zm0,3.2c-1.09,0,1.62.21,0,0Zm.29-.83c.25-.54-1.58,0-.58,0S214.82,6,214.2,5.62Zm.25,1.49c-.88.67-1.67-.54,0,0ZM213.07,9c-.95,0,2,.33,0,0Zm-.25-3.4c-1.08-.25,1.09-.25,0,0ZM212,9.48c-1-.25,1.08-.25,0,0Zm-.79-3.24c-1.08-.25,1.08-.25,0,0Zm-.29-1.91c-.45-.54,2.12.71,0,0Zm-.54,2.57c0-.62,3.16,0,0,0ZM210.12,3c-1,0,2,.34,0,0Zm.79,7.48c-.5,0-1.16-.67-1.08,0Zm-1.08-1.29c-1,0,2,.33,0,0ZM209.29,3c-1-.24,1.08-.24,0,0Zm0,2.37c-.62-.7.92.5,0,0Zm0,5.31c-1-.25,1.08-.25,0,0Zm-1.33.34c-.92-.34,1-.54,0,0Zm-1.62,20.75c-1.08-.25,1-.25,0,0Zm-.29-20.75c-1,0,2,.29,0,0Zm.83,43.74c0,.46-3.16-.66,0,0ZM203.1,55c-1,0,2,.33,0,0Zm-.84-52.5c-1.08-.25,1.09-.25,0,0Zm-1.08,1.28c-1.08-.25,1.08-.25,0,0ZM206.59,7c6.36,0-4.74-1.45-6-.46,1.12,0,2.83.58,1.62,0,1.83,0,3,.62,4.16.67ZM200.1,5.08h.54c.42-.54-.91-.62-.83-.25S200.14,4.83,200.1,5.08Zm-.29,5.77c-1-.25,1.08-.25,0,0Zm-.54-4.61c-1,0,2,.33,0,0Zm2.45,49.14c-.33-.74-2.2-.7-2.7,0ZM197.57,2.21c-1-.24,1.08-.24,0,0Zm-.25,6.27c.91-.91,3.41.38,0,0Zm.25,2.12c-1-.25,1.08-.25,0,0Zm-.25,44.66c-.92-.33,1-.54,0,0ZM197,3.34c-1,0,2,.33,0,0Zm-.54-1.5c-.83.58.75-.62,0,0Zm.84,3.86c-.67,0-2-.25-2.17.21C196.28,5.91,196.65,6.28,197.32,5.7Zm-1.09,49.1c-.7,0-.95.42-1.37.67A1.39,1.39,0,0,0,196.23,54.8ZM195.24,2c-1.08-.25,1.08-.25,0,0Zm0,30.75c-1,0,2,.33,0,0Zm-.25.67c-1.08-.25,1-.25,0,0Zm-.54-28.64c-1-.54,1.37-.5,0,0Zm-.29,6c-1.09-.24,1.08-.24,0,0ZM193.62,2c-1,0,2,.33,0,0Zm1.62,4.06c-.29,0-.75,0-.79-.2s.75,0,.79,0c-.84,0-2.79-.5-2.42.62.8-.54,1.92.29,2.42-.21Zm-2.42-2.9c-.83.58.71-.62,0,0Zm0,.87c-1.08-.25,1.05-.25,0,0Zm-.29,3.61c-1.08-.25,1.09-.25,0,0Zm0-5.52c-.41-.95,2.29-.45,1.63-.87H192C192,1.76,192,2.05,192.53,2.13Zm-.24,8.1c-1.09-.25,1-.25,0,0Zm-.84-5.77c2.33-.59,2.42.66,0,0Zm0-.63c-.74-.66.84.58,0,0Zm2.46,51.68c-.71,0-2.87-.54-2.46,0s1.42-.25,1.37.21-2.36,0-1.37.41A13.85,13.85,0,0,0,193.91,55.51ZM192.53,6c.34-.71-1.82-.5-1.87-.21S191.83,6,192.53,6Zm-1.62.66c-.95,0,2,.29,0,0Zm-.25-2.78c-1.08-.25,1-.25,0,0ZM190.37,7c-1.08-.25,1.08-.25,0,0Zm-.54-5.35c-.66-.71.92.53,0,0Zm-.29,6.43c-.75,0,2.41.41,0,0Zm-.54.83c-.54,0,2.7.54,0,0Zm0-3c.25-.66-.87-.29-1.08-.62C187.92,5.87,188.5,5.87,189,6Zm-1.33,2c.5-1,1.66,0,0,0ZM189,10c0,.62-2.45.37,0,0Zm-1.08,44.62c-1-.25,1.08-.25,0,0Zm-1.08,1.28a1.5,1.5,0,0,0,1.91-.41c-.41,0-1,0-1.08.21s.54,0,.54,0-1.12-.63-1.37,0ZM189,6.61c-.5,0-.33-.58-1.08-.45,0,.29,0,.54-.54.45,1-.58-1.5-.62-1.62-.24C186.67,6.37,187.67,7.28,189,6.61ZM186.05,9.4c-1,0,2,.29,0,0Zm-.54-5.77c-1.08-.25,1.08-.25,0,0Zm1.87,6.18c-1.17.25-1.67-.29-2.16.42C186.13,10.23,187.13,10.23,187.38,9.81Zm-1.87,41.51c-1.08-.25,1.08-.25,0,0ZM185.22,8.4c-.84.58.74-.67,0,0Zm0,46.32c-1.09,0,1.62.21,0,0ZM184.68,6c-1-.25,1.08-.25,0,0Zm-.25,46.78c-.92-.29,1-.54,0,0Zm.25-47.61c.62,1.08,2.57,0,3,.42C187,4.41,182.68,5.62,184.68,5.2Zm-.55,2.33c-1.08-.25,1.09-.25,0,0Zm.3,43.79c-1.29.66.7-.63,0,0Zm.25-41.84c-.63.41-1.25-.46-1.33.41C183.84,9.89,185,10.18,184.68,9.48Zm-1.33-6c-1.09-.25,1-.25,0,0Zm0,5.77c-1,0,2,.29,0,0Zm0,42.25c-1.09-.25,1-.25,0,0Zm-.84-17.26c-.95,0,2,.29,0,0Zm.29-24.91c-.74-.29-1,.83-.54.21C182.64,9.56,183.3,9.56,182.8,9.35ZM182,51.61c-1.08-.25,1.08-.25,0,0ZM183.35,1c-.67-.33-1.29-.54-1.92,0C182.14,1,182.93,1.68,183.35,1Zm-2.17,4.9c.63-.62,4.16,0,0,0Zm0,.46c-1.08-.25,1-.25,0,0Zm0,1.9c.38-.62,3.75,0,0,0ZM182.8,7.2c-.66,0-2-.25-2.16.2C181.68,7.2,182.51,8.07,182.8,7.2Zm-1.91,44.66V51.4h-.54v.46Zm1.37-46.57c.25-.75-2-.5-2.16-.21C181.1,5.08,181.27,5.45,182.26,5.29ZM180.1,3.13c-1.08-.25,1-.25,0,0Zm.25,46.94c0,.5-.79.25-.79.66S180.93,50.15,180.35,50.07Zm-1.08,0c.42-1.16,2.79.42,0,0Zm.29-44.2c-1.5-.33,2.58.62,0,0ZM177.77,5c-1,0,2,.33,0,0Zm-.54.66c1.58-.79,1.21.54,0,0ZM177.52,8c0-.58,3.16,0,0,0Zm-.29,42.51c0-.59,3.16,0,0,0ZM177,57.33c.46,0,1.58.25,1.62-.2C177.77,57.13,177.23,56.55,177,57.33Zm4.87-.66c.7,0,0,.83,1.08.66,0-.33,0-.74.54-.62s2.45.29,2.7-.66c-.66.33-4.16,0-4.86.87,0-.58-2.54-.25-3.25,0a1.21,1.21,0,0,1,1.09.62c-3.58,0,0,.67,1.08,0-.71,0-1.17,0-1.08-.62.49.25,1.41,0,1.62.62C180.77,56.5,182.72,57.54,181.85,56.67ZM176.69,6.28c.63-.83,3.16.33,0,0Zm.29,3.2c-.79,0,2.37.45,0,0Zm-.29,25.44c-.54,0,2.71.5,0,0ZM178.9,8.65a3.9,3.9,0,0,0-2.75.21C177,8.86,178.48,9.15,178.9,8.65Zm-2.75-5.77c-1-.25,1.08-.25,0,0Zm0,7.05c-1,0,2,.3,0,0Zm0,40.76c-.79-.25.29-1.12,0,0Zm0,7.27c-.79,0,.29-.87,0,0Zm.29-52.51c.25-.54-1.54,0-.54,0S177.07,5.78,176.44,5.45Zm-1.62,48.69c1.71-1.25,4.62,0,0,0ZM177,7.78a3.46,3.46,0,0,0-2.45.2C175.28,8,176.69,8.27,177,7.78Zm-2.45,2.15c.83-.78.92.63,0,0Zm-.25,40.35c1-.75,1.37.58,0,0Zm0,2.57a37.5,37.5,0,0,0,5.7-.41A9.91,9.91,0,0,0,174.28,52.85Zm-.29.62c-.71-.62.83.59,0,0Zm0,.67c-1-.25,1.08-.25,0,0ZM175.36,11c-.87,0-1.62,0-1.91.46C174.24,11.43,175.32,11.43,175.36,11Zm-.83,40.18c.46-.87-2-.33-.79,0C173.74,50.82,174.32,51.15,174.53,51.15ZM173.74,55c-1.08-.25,1.08-.25,0,0Zm0,1.7c-.79,0,2,.37,0,0Zm-.29-44.83c-1-.24,1.08-.24,0,0Zm0,4.69c-1-.24,1.08-.24,0,0Zm.54,34c.42-.63-1.21-.63-.79,0Zm2.45,4.93c.38-.7-1.62-.53-1.62-.24,1,.58-1.5.24-1.62.66,2.7.46,7.48,0,1.62-.21.87-.7.54,0,1.62,0Zm-3.24,2.79c-.67-.75.91.49,0,0Zm-.29-49.56c0-.62,3.49,0,0,0ZM172.66,52c.75-.95,1.91,0,0,0Zm0-46.32c0-1,4.53,0,0,0Zm-.29,5.77c-1,0,2,.29,0,0Zm0,.41c-1-.24,1.08-.24,0,0Zm0,41c0-.62,3.16,0,0,0Zm-.25-.87c-1.08-.25,1-.25,0,0Zm0,4.69c-1-.33.87-.66,0,0Zm-.29-54c-1-.25,1.08-.25,0,0Zm0,1.29c-1-.25,1.08-.25,0,0Zm-.25,50.18c-1.08-.25,1-.25,0,0ZM172.91,10c0-.29.5-.21.54-.42-1.08,0-2.16-.58-2.7,0,1.08-.5,1,.25,2.16.21Zm-.79,39.92c0,.5-2.12,0-1.08.42s.91,0,.54.46C172.24,51,172.45,49.78,172.12,49.9ZM171,55c-1.08-.21,1-.21,0,0Zm-.29-51.67c-1,0,2,.33,0,0Zm0,.87c-1-.54.91-.34,0,0ZM173.2,5.7c-.79.37-2.41,0-3,.62a14.28,14.28,0,0,0,3-.2C172.12,6.12,174.28,5.83,173.2,5.7ZM171,11.26c0,.34-.38,0-.83,0C169.75,12.13,172.2,11.55,171,11.26Zm-.83-.2c-1,0,2,.29,0,0ZM171,54.18c0-.46-.75-.42-1.08-.66C170,54,171.12,54.43,171,54.18Zm-.83,2.57c-1.09-.25,1.08-.25,0,0ZM170,55.67c-1.08-.25,1-.25,0,0Zm-1.08-1.49c-.84-.25.29-1.12,0,0Zm-.3-42.5c-.54,0,2.71.54,0,0Zm-.24,41.5a5.83,5.83,0,0,0,3.49-.41c-1,.21-3.29-.37-2.71,0S168.09,52.77,168.34,53.18Zm3.78-48.27c-.54,0-1.71.79-2.16.21,0,0,.5,0,.54-.21s-1.38-.2-1.08.46,1.24,0,1.08.41C165.13,5.78,173.16,6.32,172.12,4.91ZM168.79,50.4c-.62.29-1-.54-1.08,0S168.75,50.94,168.79,50.4ZM168,54.55c-1.08-.25,1.08-.25,0,0Zm0-53.37a1,1,0,0,1,.29-.67h-.83V1H168Zm-.25,9.17c-1.08-.25,1-.25,0,0ZM168,55a1.83,1.83,0,0,0-.79.45C167.5,55.42,168.63,55.09,168,55Zm.83,1.74a1.94,1.94,0,0,0-1-.17,1.86,1.86,0,0,0-.93.38C167.42,56.92,168.67,57.17,168.79,56.71Zm-.54-45.65c0-.34-1.79.37-1.37.41a1.64,1.64,0,0,0,.73-.05A1.69,1.69,0,0,0,168.25,11.06ZM166.63,2.3c-1.08-.25,1-.25,0,0Zm0,8.76c.71-.38-.42-.75-.58-.25S166.38,11,166.63,11.06Zm-.58-5.15c-.79,0,.29-.87,0,0Zm0,1.49c-1-.25,1.08-.25,0,0Zm-.25-3.61c-.79,0,2.37.42,0,0ZM169,5.29c0-.88-4.16-.42-3.53-.25A14.73,14.73,0,0,1,169,5.29Zm-.25,4.15a12.39,12.39,0,0,0-3.53.45C166.3,9.64,168.58,10.39,168.79,9.44Zm-3.53,48.27c-1.08-.25,1.08-.25,0,0Zm.25-54.25V2.84a.77.77,0,0,0-.47.07.81.81,0,0,0-.32.34A1.86,1.86,0,0,1,165.51,3.46Zm-.54,8.3c-.54,0,2.7.54,0,0Zm3.28,46.11c-1.12,0,0-.62,0,0Zm-3.53.67a18.91,18.91,0,0,0,5.94-.67c0,.29-.33.29-.25.67,1.08,0-.29-.79,1.08-.67,0,.29-.41.46.25.46-.25-.83,3.54,0,3.79-.66-.46,0,0,0,.29-.42A76.55,76.55,0,0,0,164.72,58.54Zm0-51.93c-1.08-.24,1.08-.24,0,0Zm-.54-6s-.67.83,0,.87S164.84.68,164.18.64Zm0,2.57c-.75-.66.83.58,0,0Zm0,.87c-1.08-.25,1.08-.25,0,0Zm0,1c-.83,0,.25-.87,0,0ZM168,8.36a7,7,0,0,0-3.78.21C165.34,8.57,167.25,8.81,168,8.36Zm-3.78,48.89c0-.62,3.16,0,0,0Zm-.83-48.68c-1-.25,1.08-.25,0,0Zm.83,44.2c.41-.67-1.5-.67-1.08,0C163.84,52.77,163.64,52.4,164.18,52.77Zm-.83,4.48c-1-.25,1.08-.25,0,0ZM163.1,2.8c0-.63,3.16,0,0,0Zm0,3.61c-.92-.29,1-.54,0,0Zm.79,3.19c-.38,0-1,0-1.09.25S163.84,10.1,163.89,9.6Zm-.79,1.5c-1.09-.25,1.08-.25,0,0Zm-.55-7.68c-1.08-.25,1.09-.25,0,0Zm1.09,1.7a2.72,2.72,0,0,0-1.38-.21C162,5.7,163.6,5.78,163.64,5.12Zm-1.09,48.27c-1.08-.25,1.09-.25,0,0Zm3.79,1.7c.46-.45,0-1.16-.54-.62s-1.37-.75-1.08.42c0,0-.75-.92-.83-.42s-2,.33-1.34.83A17.16,17.16,0,0,1,166.34,55.09Zm-3.79,2.16c-1.08-.25,1.09-.25,0,0Zm-.83,0c-1-.25,1.08-.25,0,0Zm-.54-49.81c2.37-.78,2.17.54,0,0Zm0-4.69c-.54,0,2.71.54,0,0Zm-.25,3.62c-1,0,2,.33,0,0Zm0,51.92c-1,0,2,.29,0,0ZM163.35.6a6.42,6.42,0,0,0-3.25.66A6,6,0,0,0,163.35.6Zm-3,2.78c-1.08-.25,1-.25,0,0Zm6.78,50.18c0-.29-1.08,0-1.12-.42s.33,0,0-.21-.42.38-.54.63S167.05,54.06,167.17,53.56Zm-1.91.45c.45-.45-.21-.41.25-.87-1.25-.21.2.71-.54.62a11.28,11.28,0,0,0-4.87.25c1,.83,2.45-.66,1.91.42a4.13,4.13,0,0,1,1.58-.54A4.27,4.27,0,0,1,165.26,54Zm-5.7,3c-.75-.66.83.58,0,0ZM162,58.29c-.91.33-2.07.46-3,.83,1,.5,1.66-.54,2.45,0-.7-.62,2.21,0,1.63-.62s-1,0-1.09,0S162.31,58.29,162,58.29ZM158.48,9.81c1.33-1,2.5,0,0,0Zm4.16,42.71c-.71.54-4.66-.29-4.16.62C160,52.56,161.68,53.64,162.64,52.52Zm-4.16,6.6c-.83,0,.25-.87,0,0Zm1.87-1.7h-2.41C158.6,57.42,159.89,57.92,160.35,57.42ZM157.82,2.67c-1.09-.25,1.08-.25,0,0Zm-.25,8.55c-1.09-.25,1-.25,0,0Zm3.24,39.72c-1.46,0-3.74,0-3.54.83.5-.83,1.29,1,1.92,0-.46,0-1,0-.83-.41A3.45,3.45,0,0,0,160.81,50.94Zm-.54,1c1.62.46,1.58-.42,4.16-.21v.67h4.15c.46-.46,0-1.17.54-1.29,5.87.71,1.63-.62-1.62,0,.5,0,1.42,0,1.08,1-2.2,0,0-.33-2.16-.42-.21-.58,1.25,0,1.08-.41s-.33-.33-.29-.67c-2.12,0-4.53.38-5.69.25.49,0,0,1.79-.79.83,0,0,.54,0,.54-.21-.88,0-.88.34-1.08.63ZM157,3.09c-1,0,2,.33,0,0Zm.8,3.86c-2.12.66.45-.54,0,0Zm-1.63,1.28c4.16-1,6.57.42,0,0Zm2.46,45.49a12.56,12.56,0,0,1-3,.21C155.9,54.84,158.48,54.26,158.65,53.72Zm-3,3.41c-1.08-.25,1.08-.25,0,0Zm-1.08-3.66c-1.08,0,1.62.21,0,0ZM160,54.55a38.51,38.51,0,0,1-5.66.67C156.19,55.63,162.64,55.51,160,54.55ZM157.65,9c-1.75.37-3.49-.33-4.87.46C154.78,9.06,156.44,9.89,157.65,9Zm-3-.83c.25-.75-2-.54-2.21-.21C153.53,7.94,153.82,8.19,154.7,8.15Zm-.54-.87c-2.29-.42-1.33-1.21,0,0Zm-1.92,47c-.45.58,1.17.58,1.08.21S152.83,54.18,152.24,54.26Zm3,0c-.5,0-2.91-.2-2.46,0S154.61,54.84,155.24,54.26ZM152,10.68c0-.62,3.5,0,0,0Zm0,46.16c-1-.25,1.08-.25,0,0Zm0-47.2V9.19h-.54v.45Zm1.92,45.66h-2.46c-.41.75,1,0,.83.62s-.54,0-.54,0c1.13-.41,1.62,0,2.17-.83ZM151.41,6.16c-1-.25,1.08-.25,0,0Zm2.75,4.69c-1.21,0-2.46,0-3,.45.63-.29,1,.54,1.08,0C151.37,10.68,154.36,12,154.16,10.85Zm-3.29-5.31c-.79.58.75-.67,0,0Zm0,2.57c-.54,0,2.7.5,0,0Zm0,47.4c.92.5-.75,1,0,0Zm0-43.33c-.95,0,2,.33,0,0Zm10.81-7.47c-3.45,0-7.94,0-11.35.2a54.94,54.94,0,0,1,11.1.67c-4.15-.25-6.19,0-9.48,0,.59.37,2,0,2.17.2s-2.12,0-1.09.42c3.12,0,6.2-.75,5.7,0,1,0,1.71,0,.79-.42h2.16C161.72,5.16,162.1,5,161.72,4.71Zm-11.1,55.53c0-.62,3.16,0,0,0ZM150.08,59c-1-.25,1.08-.25,0,0ZM152,6.86c-1.33.5-2.28-.45-2.7.42C150.71,7.28,151.2,7.57,152,6.86Zm-2.7,1c1.54-.75,1.17.54,0,0Zm.25,35.7c-1-.25,1.08-.25,0,0Zm6,14.07c-.5,0-1.62-.25-1.66.2s1,0,1.12,0a38.73,38.73,0,0,0-5.7,0c1.54,0,5.28,1,6.24-.41Zm-6-45.49c-.79,0,2.37.45,0,0Zm-.29,47.64a22,22,0,0,0,6-.66A11.76,11.76,0,0,0,149.21,59.82Zm6.24,0c1.24-.78,2.07.3,2.45-.66,0,0,0,.25.25,0-.25-.87-3-.62-3.25,0C156,59.16,155.53,59.16,155.45,59.82ZM149.21,5.87c-1-.25,1.08-.25,0,0ZM150,54.76c-.83,0-.79-.37-1.62-.21,0,.34,0,.79.25.87A1.24,1.24,0,0,0,150,54.76Zm.25,1.7c0-.79,1.16-1.33,1.91-1.7-.83.29-1.49-.62-1.91,0,.37,0,.33.46.54.66a6.48,6.48,0,0,1-2.41.84c.29,0,.75,0,.79.2s-.29,0,0,.25S149.87,56.5,150.29,56.46ZM148.42,5.87c-.83.58.75-.67,0,0ZM149,7.78c-.5,0-1.12,0-1.37.45C148.09,8.23,149.58,7.94,149,7.78Zm-.29,1.7c.33,0,0-.46.54-.83-.46,0-1.58-.25-1.62.21C148.71,8.86,147.59,9.48,148.67,9.48Zm-.79,45.94c-1.08-.24,1-.24,0,0Zm3,3c-1.12,0-3.41,0-3.24.42A12.69,12.69,0,0,0,150.83,58.41ZM148.13,2c0,.54-1.62-.58-1.33.45C146.8,2.75,149,2.46,148.13,2Zm-1.08,6.22c-.79,0,.25-.91,0,0ZM148.42,11c-.5,0-1.62-.25-1.62.25C147.75,11,148.17,11.76,148.42,11Zm.79-3.61c0-.75-3.62-.79-2.7,0C147.13,6.78,148.46,7.36,149.21,7.36Zm-1.62,48.9c-.5,0-1.63-.3-1.33.45C146.71,56.71,147.38,56.71,147.59,56.26Zm-1.08,2c-1.08-.25,1.08-.25,0,0Zm0-49.81c.5-.75-1-.91-1.08-.46C146.17,7.94,146,8.36,146.51,8.4Zm-1.08,3.2c-.67-.59,1.28-.84,0,0Zm0,32c-.8,0,2.36.45,0,0Zm-.25,15.19c-.84,0,.25-.92,0,0Zm-.55-49.15c-1.08-.24,1-.24,0,0Zm.25,41.51c.71.58-1.28.83,0,0Zm2.46,6a7.48,7.48,0,0,0-3.25.41A13.16,13.16,0,0,0,147.34,57.13Zm-3.25,1.28c-1.08-.25,1-.25,0,0Zm-.29-3.65c-1.08-.25,1.08-.25,0,0Zm0,4.94c-1.08-.25,1.08-.25,0,0Zm-.25-51.47c0-.62,3.12,0,0,0Zm0,35.45c-1.08-.25,1-.25,0,0Zm0,17.27c-1.08-.25,1-.25,0,0Zm4.16-6.19c-2.33.58-4.49,0-4.86.87A7.11,7.11,0,0,0,147.71,54.76ZM146.34,6.07c0-1-4.16-.7-3.78-.41A8.52,8.52,0,0,1,146.34,6.07Zm-2.7,3c-.5,0-1.63-.29-1.38.42C142.76,9.48,143.43,9.48,143.64,9.06Zm-1.08,29.47c-1.08-.25,1.08-.25,0,0Zm0,13.45c-1.08-.25,1.08-.25,0,0Zm0,3.2c-1.08-.21,1.08-.21,0,0Zm0,3.23c3.9.46,2.78,1.46,0,0Zm-.3-55.95h.59c.41-.54-1-.66-.84-.25S142.35,2.21,142.26,2.46Zm0,41.22c-.78.58.75-.67,0,0ZM143.93,7c-.67,0-2-.29-2.21.2C142.85,7.15,143.22,7.53,143.93,7ZM142,11.1c-1.08-.25,1.09-.25,0,0Zm0,48c-1.08-.25,1.09-.25,0,0Zm-.29-1.91c1.46-.83,1.92-.29,3.83-.87a7.27,7.27,0,0,0-4.62.45C141.68,56.79,142.31,56.79,141.72,57.21Zm-.79-53.63c-1.08-.24,1.08-.24,0,0Zm.79,50.85c-.2.58-.95-.42-1.08.41C141.23,54.84,142.68,54.84,141.72,54.43ZM140.64,2.75c-.62-.7.92.5,0,0Zm0,2.79c-.74,0,2.41.41,0,0Zm0,52.08c-.54,0,2.71.54,0,0Zm2.21-57c-.59,0-2.12-.5-2.75.24C141.27.84,142.1,1.26,142.85.6Zm-1.13,1.28c-1.49.67-2.16-.5,0,0Zm-.24,5.77a1.59,1.59,0,0,0-.75,0,1.47,1.47,0,0,0-.63.41C140.81,8.11,141.23,8.11,141.48,7.65Zm-1.09,1.7c-1.08-.25,1.09-.25,0,0Zm1.87,46.16c-.91,0-2.53-.33-2.7.41A5.1,5.1,0,0,0,142.26,55.51ZM138.48,7.86c-1-.25,1.08-.25,0,0Zm1.08,1.29c-.83,0-1.08-.5-1.33.2C138.61,9.35,139.6,9.6,139.56,9.15Zm0-6.6c-.46,0-1.33,0-1.62.41C138.69,3,139.56,3,139.56,2.55Zm-1.87,5.56c-1.08-.25,1.08-.25,0,0Zm-.83-.25c-1-.25,1.08-.25,0,0Zm0,51.92c-.54,0,2.7.5,0,0Zm10.31-54.7c-.5-1.21,2.16,0,1.62-.62-5,.37-8.65-.46-12.47,0,3.74.45,8.61,0,10.85.41ZM136.32,15.79c-1-.25,1.08-.25,0,0Zm2.45,35.65c-1.58,0-2,.79-2.7.42,0,.7,1.37.74,1.62.2s-.54,0-.54-.2C137.82,51.86,139.31,51.86,138.77,51.44Zm-.83.87c.5,0,1.37,0,1.08-.45C138.4,51.86,138,51.86,137.94,52.31Zm.29-51.26V.18c-1.33,0-1.91-.25-2.45.42A10.79,10.79,0,0,0,138.23,1.05Zm-2.7,1.7c.79-.78.91.67,0,0Zm0,41.51c-1.08-.25,1-.25,0,0ZM134.7,7.32c7-1.08,6.36,0,0,0ZM135,9.44c-1.08-.25,1-.25,0,0Zm-.54,1.74c-.58,0,2.66.5,0,0Zm14.34,49.1c-1.37-1.62-4.82.71-7.07-.62-.91.46,1.17.5.29.83-1.74.21-6-.37-7.85.87C140.31,61.36,144.26,59.87,148.79,60.28Zm-12.47-.62a6.53,6.53,0,0,0-2.7.41A5.54,5.54,0,0,0,136.32,59.66ZM133.91,3.25c0,.29-.5.21-.54.42S134.66,3.34,133.91,3.25Zm-.29,1.5c-1.08-.25,1.08-.25,0,0Zm.83,47.4c0,.37-1.29,0-1.37.45s1.78,0,2.7.21v-.66c-.5,0-.58,0-.25.45C133.53,53,134.86,51.73,134.45,52.15Zm1.33,4.73c-.88-.42,1.33.58,0,0Zm-2.91.95c2.28-.62,6.61-.25,8.11-.83-1.08-.21-1.25,0-1.88-.41.42,0,1,0,1.09-.25-1,0-3.54.41-2.46.87C136,57.21,133.24,56.79,132.87,57.83Zm0-54.33c-1.08-.5.87-.29,0,0Zm.25,5.36a.2.2,0,0,1-.25.2c-.25,0-.25-.25-.29,0S134,9.06,133.12,8.86Zm-.54,49.8c.29-.91,1.41,0,0,0Zm3-58.52c-1.41-.21-3.12.41-3,.66.91-.29,1.91.46,2.16,0s-1,0-1.08-.45c1,0,1.29.33,1.91,0Zm-2.7,52.3c-.46,0-1,0-.83.41a.89.89,0,0,0,.48-.08A.85.85,0,0,0,132.87,52.44Zm-.54,1c-1-.33.87-.66,0,0ZM132,58.41c-1.08-.25,1.08-.25,0,0Zm6.48-53.17c-1.91,0-6.23-.29-5.11.42h-1.62c2.49-.37,5,0,6.73-.62Zm-7.11,52.59c1-.74,1.38.58,0,0Zm.29,2.78c-.83,0,.25-.87,0,0Zm-.29-44.82c-1.08-.25,1.08-.25,0,0Zm-.25-6.44c-1.08-.25,1-.25,0,0Zm2.71,51.93c-.59-.38-2.79-.21-3,.41C131.87,61.32,133.78,61.69,133.87,61.28ZM130.87,3c-1.08-.25,1.08-.25,0,0Zm-.54-1.08c5-.37,6.07.67,0,0Zm.83,8.76c0,.37-.79,0-.83.46S132,10.89,131.16,10.64Zm-.54,5.15c-.91-.34,1-.54,0,0ZM130,6c-1-.25,1.08-.25,0,0Zm.83,52.13c-.54-1.08,1.25-.33,1.37-.87s-3,0-2.2.62C130.33,57.13,130,58.45,130.87,58.08Zm1.37-52.75c-.37-.38-3.07,0-2.74,0A11.42,11.42,0,0,0,132.24,5.33ZM129.5,8.11c-.54,0,2.7.5,0,0Zm3.37-3.53c-1.71,0-4.83-.5-5.45.21C130,4.58,130.46,5.29,132.87,4.58Zm-5.16,1.29c-1.08-.25,1.08-.25,0,0Zm0,47.85c-1.08-.25,1.08-.25,0,0Zm-.54-44.86c-1.08-.25,1.08-.25,0,0Zm0,51.67c-.66-.71.92.54,0,0Zm.54-.62c-.41,0,0-.54-.83-.42s-.21.25-.25.42S127.67,60.45,127.71,59.91ZM126.63,11c-.95,0,2,.29,0,0Zm.54,42.26a2.4,2.4,0,0,0-1.37.87C127.3,54.14,126.92,53.76,127.17,53.27Zm5.16,2.78c-1.54,0-2,1-3.83.45,0,.25,0,.59-.25.63,0-.58-2-.29-2.45-.21a60.39,60.39,0,0,0,13.55-1.08c-2.7-1-6.44,1.12-7,0Zm0-55.95c-3,.5-4.16-.29-6.78.66C128.46.39,131.79,1.22,132.33.1Zm-6.53,28c-1,0,2,.33,0,0ZM125.55,7c1.66.29,6,.49,6.49-.21C130.58,7.07,126.42,6.49,125.55,7Zm0,37.81c-1.08-.25,1.08-.25,0,0Zm1.08,16c0-.87-1.2-.58-1.37,0Zm0-56.37A2.91,2.91,0,0,0,125,5C125.47,4.75,126.71,5,126.63,4.37ZM124.72,15.7c-1-.25,1.08-.25,0,0Zm-.17,46.53c1.54,0,2.37,0,2.41-.41,1.13.79,1.67-.21,2.71-.63C127.13,61.78,125.84,61.4,124.55,62.23Zm.25.46c-.75,0,2.37.41,0,0ZM124.55,7c-1.08-.25,1-.25,0,0Zm0,2.11c-1.08-.25,1-.25,0,0Zm.79-7c-.33,0,0-.21,0-.42-.45,0-1.12,0-1.33.42C124.68,1.76,125.3,2.51,125.34,2ZM124.26,3.5c-1-.25,1.08-.25,0,0Zm0,41.26c-1-.38.87-.71,0,0ZM124,61c-1.08-.25,1-.25,0,0Zm-.29-.67c-.83.58.75-.66,0,0Zm-.25,1.29c-1.08-.25,1-.25,0,0Zm-.29-52.34c-1.08-.25,1.08-.25,0,0Zm-.25,19c-.79,0,2.37.46,0,0Zm0,33.95c-1.08-.25,1-.25,0,0Zm-.29-57.44c-1.08-.25,1.08-.25,0,0Zm0,.66c-.79,0,2.37.42,0,0Zm-.25,10.25c.5-.95,1.66,0,0,0Zm.25,28.6c-1.08-.25,1.08-.25,0,0Zm.54,16.6c-.87.29-1.29-.25-1.33.46C122.51,61.36,123,61.36,123.18,60.9Zm-1.08,1.5c-1.08-.25,1.08-.25,0,0Zm1.37.25c-1.12.79-2.12-.25,0,0Zm-1.91-4.94a9.78,9.78,0,0,0,4.16-.42c-1.08,0-1.21,0-.54-.41-.63.29-1-.58-1.08,0,.58.58-2.71,0-2.71.83Zm-.25-56.57c2.62-1.25,5.15,0,0,0Zm.25,10c-1.08-.25,1.08-.25,0,0ZM121,56.92c-.79,0,2.37.41,0,0Zm1.37-48.06c0,.62-1.87,0-1.91.41C121.1,9.27,123.39,9.27,122.39,8.86Zm-2.16.41c-.83,0,.25-.87,0,0Zm-.29-6.39c-1.08-.25,1.08-.25,0,0ZM121,57.33c-.46,0-1.13,0-1.33.42C120.19,57.75,121.31,58,121,57.33Zm-.25,2.16c-.54,0-1.17-.66-1.08,0Zm0,1.25c.41-.58-1.21-.58-1.08,0S120.19,61.07,120.77,60.74ZM119.4,10.93c-1,0,2,.29,0,0Zm.29,51.22c0,.29-.5.21-.54.46S120.44,62.27,119.69,62.15Zm.54-60.23c-.5,0-1.12-.62-1.37,0S120.14,2.42,120.23,1.92Zm.25,59.4c-1.83.54-1.58-.71,0,0Zm-1.91-45.66c2.49-.95,3.65,0,0,0Zm0-7c0-.63,3.15,0,0,0Zm0,2.36c-1-.25,1.08-.25,0,0Zm.83-2.16H118c0,.25,0,.63.3.67C118.32,8.65,119.23,9.48,119.4,8.81ZM118.32,61c0,.33-.75,0-.84.41C118.07,61.36,119.19,61.15,118.32,61ZM118,2c-2.16-.54,1.79.49,0,0Zm-.54,2.78c-1,0,2,.33,0,0Zm0,58.52c-1-.54.92-.29,0,0Zm.3-47.82c.24-.53-1.54,0-.55,0S118.4,15.79,117.78,15.45Zm-1.09,46.33c-1.08-.25,1.09-.25,0,0Zm2.71-4.16a6.41,6.41,0,0,0-3.25.25c.34,0,.75,0,.79.21-.29,0,0,.21,0,0,0-.87,2.12,0,2.46-.66ZM117.78,9c-.38-.29-1.92-.37-1.92.25A6.58,6.58,0,0,0,117.78,9Zm-1.63,6.43c-1.08-.53.88-.33,0,0Zm-.29-9.83c-1-.25,1.08-.25,0,0Zm-.25,55.53c.83-.79.92.63,0,0Zm.25,1.29c.38-.62,3.79.21,0,0Zm-.54-9.63c1-.75,1.37.58,0,0Zm-.25-37.36c-1.08-.24,1.08-.24,0,0Zm0,47.4c-1.08-.24,1.08-.24,0,0ZM114,25.91c-1.08-.24,1.08-.24,0,0Zm0,31.59c-1.08-.25,1.08-.25,0,0Zm0,2.78c-1.08-.25,1.08-.25,0,0Zm-.29-33.95c-1-.25,1.08-.25,0,0Zm-.25-16.85c-.91-.33,1-.54,0,0Zm0,18.14c-1.08-.25,1.08-.25,0,0ZM121,.47a46.25,46.25,0,0,0-8.32.25A29,29,0,0,0,121,.47Zm-8.4,9c-1-.25,1.08-.25,0,0ZM129.25,58c-1.16,0-2.49-.25-3.49-.25,0,0,.29.21.25.45-4.66-.37-7.57,2-11.1-.45,0,1.2-2.12-.42-2.71.45A41.33,41.33,0,0,0,129.25,58Zm-17-31.22c-1.08-.24,1.08-.24,0,0Zm0,36.94c-1,0,2,.34,0,0Zm.29-38.43H112s-.33,0-.29.21c1,0-.58.7.29.66C112,25.79,112.79,25.91,112.49,25.25Zm-.54,38c-.79,0,2.37.46,0,0Zm-.83-53.63c-1,0,2,.29,0,0Zm0,49.81c-1.08-.25,1-.25,0,0Zm0,4.48c-1.08-.25,1-.25,0,0Zm-.29-5.56c-1.08-.25,1.08-.25,0,0ZM112.45.72c-1,0-2-.62-2.16.42C110.79.8,112.08,1.14,112.45.72Zm-2.41,26c-.79,0,2.37.46,0,0Zm.25,26.69V53h-.54v.41Zm-.79-27.1c-1.08-.25,1-.25,0,0Zm0,32c-1.08-.25,1-.25,0,0Zm0,4.15c-1.08-.25,1-.25,0,0Zm-.29-47c0-.62,3.45,0,0,0ZM109,28.32c-1.08-.21,1-.21,0,0Zm-.29-19c0-.62,3.16,0,0,0Zm-.25,49.81c-1.08-.25,1-.25,0,0ZM108.67.84c.46-.58-1.17-.58-1.08,0S108.09,1.14,108.67.84Zm-.79,8.31c-.92-.34,1-.54,0,0Zm.79,17.26v-.62c-.54,0-1.37.58-.79.62A5.14,5.14,0,0,0,108.67,26.41Zm-1.08,32.25c.41-1,2.33.38,0,0Zm.29,3.86c-1-.66.79-.7,0,0Zm-.29-47.19c-1.08-.25,1.08-.25,0,0ZM107.05,26c-1.08-.25,1.08-.25,0,0Zm0,34.36c-1,0,2,.34,0,0Zm-.54-34.16c-.79,0,.25-.87,0,0Zm1.08,1.08c-.5,0-1.13-.62-1.33,0S107.5,27.78,107.59,27.28ZM106.26.8c-1.08-.25,1-.25,0,0ZM106,26.41c-.75-.62.83.58,0,0Zm.29,27.35c1.41-.7.54-.87-.83-.41C106,53.35,106,53.64,106.26,53.76ZM105.14,26.2c-1-.24,1.08-.24,0,0Zm0,35.66c-1-.25,1.08-.25,0,0ZM104.89.6c-1,0,2,.29,0,0Zm0,27.1c-1.09-.25,1.08-.25,0,0Zm.25-19c-.75-.29-.92.87-.55.21C105,8.9,105.63,8.9,105.14,8.69Zm-.55,17.93c-.62,0,2.17.71,0,0Zm-.24-14.73c-1.09-.25,1.08-.25,0,0Zm-.3,15.81c-1-.25,1.09-.25,0,0Zm0,17.51c-1-.24,1.09-.24,0,0Zm3.29,13.24c-1.46.34-2.37-.24-3.54,0,.34,0,.75,0,.79.21s-.49,0-.54.25a23.09,23.09,0,0,0,3.29-.66Zm-3.54,2.37c0-.62,3.16,0,0,0Zm.25-2.78c-.29,0-.58-.37-.79,0S103.89,58.41,104.05,58Zm-.79-3.86c-1.08-.25,1.09-.25,0,0Zm20.5-47.81c-6.15.53-14.22,0-21.41.62A161.07,161.07,0,0,0,123.76,6.37ZM101.56.8c3.41-.54,4.16.54,0,0ZM101.81,61c-.75,0,2.37.41,0,0Zm-.54,3.4c-.63,0,2.12.33,0,0Zm1.62-37.81h-1.08c.58.87-1.87-.25-1.08.46s1.54.33,2.16-.25Zm-.79.87c-.92,0-1.46-.41-1.91.21H101C100.23,27.08,102.06,28.16,102.1,27.49ZM101.56,58c-.58,0-1.08.66-1.62.21-.29.7.83.33,1.33.41C100.81,58.08,102.47,58.25,101.56,58Zm-.83,6.39c-.88-.21.33-.41.29-.62H99.94C99.65,64.35,100.48,65,100.73,64.43Zm.29-3.61c-.75.33-1.29-.33-1.62.42C100.1,60.86,100.64,61.57,101,60.82ZM99.4,58.58c-.83,0,.25-.87,0,0ZM102.1,6.7c-.46.41-3.45,0-3,.41S101.89,7.49,102.1,6.7ZM99.6,64.39c0,.29-.49,0-.54.42s.3,0,.25,0h.54s-.29,0-.25-.21c.3,0,.05-.21,0,0Zm-.54-2.78c-1.08-.25,1-.25,0,0Zm-.29-7.26c-1.08-.25,1.08-.25,0,0Zm0,4.89c-1.08-.25,1.08-.25,0,0Zm-.25-30.5c-1,.37,1.42-.58,0,0Zm13,31.79c.79-1.45,3.2-.54,4.61-1.29-6.4.67-15.13.46-17.59,1.95C100.89,61.19,109.46,59.28,111.5,60.53ZM98.23,62.69c1.37-.75,1.5.54,0,0ZM98,65c-1.08-.25,1-.25,0,0Zm-.29-35.86c-1-.37.88-.66,0,0Zm-.54.83c-.54,0,2.7.54,0,0Zm-.54,35c-1.08-.25,1.08-.25,0,0Zm-.54-36.94c-1.08-.25,1.08-.25,0,0ZM99.31,1.18a10.19,10.19,0,0,0-4.15.2C96.4,1.38,98.4,1.68,99.31,1.18Zm-4.86,25.4c-1.08-.25,1.08-.25,0,0Zm1.37,37.15c-.46-.34-1.45,0-1.91.25C94.45,64,95.7,64.22,95.82,63.73Zm-1.91,2c-1.08-.25,1.08-.25,0,0ZM95.82,65a4.89,4.89,0,0,0-3.53,0A3.6,3.6,0,0,0,95,65C95,65.26,95.78,65.76,95.82,65Zm-2.45-1.49c0,.7-1.71,0-1.08.46S94.28,64,93.37,63.52ZM92,1.59c-1-.25,1.08-.25,0,0Zm-.25,61.93c1.78-1,3.66,0,0,0Zm-.46,1.29c-1.08-.25,1.08-.25,0,0Zm-.54-1.29c-1.08-.25,1.08-.25,0,0Zm0,2.36c-1.08-.24,1.08-.24,0,0ZM90.21,65c-1.08-.25,1.08-.25,0,0ZM88.05,47.58c-1.09-.25,1-.25,0,0Zm-2.46,0c0,.29-.45,0-.54.46S86.34,47.66,85.59,47.58ZM85.34,66.8c-.83,0,.25-.87,0,0ZM84.26,29c-1.08-.25,1-.25,0,0Zm1.33,26.48a2.58,2.58,0,0,0-1.62.41C85,55.67,85.22,56.13,85.59,55.51ZM84,47.79c-.71.75-2.58,0-2.7.66C82.31,48.45,84.64,48.45,84,47.79ZM81.81,30.07c-.29.91-3.2.49,0,0Zm-1.91-.42c-1-.25,1.08-.25,0,0Zm.83,18.59a1.43,1.43,0,0,0-.74,0,1.41,1.41,0,0,0-.63.38C79.9,48.66,81,49,80.73,48.24ZM78.57,28.78s.54,0,.54.25-.54,0-.54,0a13,13,0,0,0,4.15-.67,14.45,14.45,0,0,0-4.15.21Zm.54,19.46c-.63,0-1.46,0-1.63.63C78.15,48.87,79.11,48.87,79.11,48.24ZM76.45,28.78c-1.09-.25,1.08-.25,0,0Zm-.25,1c-1,0,2,.33,0,0Zm0,.45c-1.09-.25,1-.25,0,0Zm-.84.21c-1.08-.25,1.09-.25,0,0Zm-.79,0c-1.08-.25,1-.25,0,0ZM73,29c-1.08-.25,1-.25,0,0Zm2.71.41c-1-.41-1.83,0-3,0,.33,1.16-1.91.33-2.16,1.08A30.34,30.34,0,0,0,75.66,29.4Zm-6.24.17c-1.08-.25,1.08-.25,0,0Zm.79,1.28c0,.38-1.25,0-1.33.42C69.46,31.68,70.58,31,70.21,30.85Zm6.78,0c.49.21.91-.62,1.08,0-.79.46-2.33,1-3,.42.46,0,1.34,0,1.63-.42a41.8,41.8,0,0,0-7.86,1.5c.33,0,0,.25,0,.41,2,0,8.31-.95,10.27-1-1.62,0,.37-.3-.79-.67,1.33,0,2.08-.37,3,0-.5,0-2,.29-1.33.46s3.08,0,3.53-.87c-.54-.21-.91.62-1.12,0s2.16,0,2.75-.63c-.71,0-1,0-.84-.66-.45,0-2.45,0-1.62.21s1.62-.29,1.37.45c-2.49.38-4.36.21-7.06.63Zm-8.32,18.6c-1.08-.25,1.08-.25,0,0ZM67.59,31.73c-1.08-.25,1.08-.25,0,0Zm-.83,0c-1-.25,1.08-.25,0,0Zm1.62.62c-.21-.38-2.95.7-2.16.41S68.55,33.34,68.38,32.35Zm-5.41,0c-1.08-.25,1.08-.25,0,0Zm2.71.66A4.27,4.27,0,0,0,64,32.89a4.07,4.07,0,0,0-1.58.54A10.52,10.52,0,0,0,65.68,33ZM61.52,57.92c-1.08-.25,1.08-.25,0,0Zm-.21-25c-1.08-.25,1-.25,0,0ZM58.57,30.6c-1-.24,1.08-.24,0,0Zm-1.08.21c-1-.25,1.08-.25,0,0ZM55.86,31c-1-.25,1.08-.25,0,0Zm-.54,1.29c-1-.25,1.08-.25,0,0Zm-.25,26.48c-1.08-.25,1.08-.25,0,0Zm-.83-24.57c-1-.25,1.08-.25,0,0Zm5.45-1.5A77.13,77.13,0,0,0,70.21,30.4c0-.38-1.25-.38-1.08,0s.79,0,.83.2a5.57,5.57,0,0,0-1.91,0c0-.24.41-.33,0-.41s-1.92,0-.54.62c-4.16.21-7.41,1.54-11.65,1.91,0-.29,1,0,1.08-.41a9.28,9.28,0,0,0-3.24,0c.79,0,1.87,0,1.91.45a14.92,14.92,0,0,0-3,.83c1.83,0,6.61-1.66,6.24-.62.75,0,1.83,0,.83-.66ZM52.62,58.37c-1-.25,1.08-.25,0,0Zm.83-24.15c-.5,0-1.12,0-1.37.45C52.58,34.67,54.08,34.38,53.45,34.22Zm-.29-1.71a6.37,6.37,0,0,0-1.62.67C52.5,33.18,53,33,53.16,32.51Zm-2.41-.62c-1.08-.25,1-.25,0,0ZM48.3,29.73c-1.08-.25,1.08-.25,0,0Zm1.08,2c-.67.79-2.79,0-3.54,1C46.67,32.31,50,32.6,49.38,31.77Zm3,2.11c-.33,0-.66,0-.54-.41a6.21,6.21,0,0,0-3.24.83c.5.21.87-.62,1.08,0a36.49,36.49,0,0,1-4.16.46c1.62.78,4.87-.5,6.78-.88ZM45.05,59c-1.08-.24,1.08-.24,0,0Zm-1.91-25.4c-1-.25,1.08-.25,0,0Zm-3,.63c-1.08-.25,1-.25,0,0Zm-.83,0c-1.08-.25,1.08-.25,0,0Zm-.79,1.28c-1.08-.25,1-.25,0,0ZM35.86,36c-1.08-.25,1-.25,0,0ZM32,32.51c-1-.25,1.08-.25,0,0Zm-.79.25c-1.08-.25,1.08-.25,0,0Zm-.83,3c-1-.25,1.08-.25,0,0Zm-1.33,0c-1.08-.25,1-.25,0,0Zm-.71,25.32a4.58,4.58,0,0,0-2.16.62C27,61.69,28.13,61.69,28.38,61.07Zm-2.7.62c-1.08-.25,1.08-.25,0,0Zm-3-26.4c-.74,0,2.42.46,0,0Zm-2.16.88c-.79,0,.29-.92,0,0Zm-1.08-.88c-.71,0-2.41,0-1.62.67C18.07,35.46,19.23,35.75,19.44,35.29ZM6.18,47c-1-.25,1.08-.25,0,0Zm-.54-3.86c-1.08,0,1.62.21,0,0Zm0,2.16c-1-.25,1.08-.25,0,0ZM5.1,47.7c-1-.24,1.08-.24,0,0Zm.83-7.51c0-.74-2-.5-1.92,0S5.39,39.78,5.93,40.19ZM4.31,50.69c-1.09-.25,1-.25,0,0Zm0-1.08L4,49.53h.54c-.5,0-1.7.42-1.08.62,0-.74.92.46.83-.2ZM31.37,60.7c-.62,0-1,0-1.08.45s.58.21,1.08.21ZM241.18,23.34a1.33,1.33,0,0,1-.79,0c-.29.71.83.33,1.33.42s-.87-.79-.79-.42S241.22,23.34,241.18,23.34Zm.29-3.86c-.5,0-1.74.46-1.08.67C240.39,19.69,241.56,20.15,241.47,19.48ZM157.82.51c1,0,2.16,0,1.08.46.91,0,1.24-.42,1.87-.66C160,.31,157.27.31,157.82.51ZM.4,43.22c-.54-.45,1.24-1,2.41-.83-1-.62.62-.54,1.62-.41,0-.21-.29-.38-.25-.67-.83.46-.79.25-2.16,0,0-.79,1.08-.66,1.62-1-.37-.3-.83-.42-.29-.88-.67,0-.58.38-1.33,0,.87-.78,2.7-.83,4.16-1.28,0-.25-.5,0-.79,0s.75-.33.25-.42a25.28,25.28,0,0,0,4.86-1.08c.42,0,0,.63.54.67s.29-.25.58-.25c-1.16-1.08,3,.21,3-1.25.29,0,.29.46.83.42s-.88-.21,0-.67,0,.54,1.08.46c.37,0,0-.29,0-.66s.5,0,.54.45.41-.83.79-1.08c1.33,0,3.7-.58,4.16,0,.33-.45,0-.33,1.12,0-.71-.37-.46-.58.25-.2s0-.63-.54-.46c.71-.62,1.33.66,2.7,0-1.33-.29-.87-.62.29,0s-.37-.37,0-.83,2.33-.79,2.41.21a1.74,1.74,0,0,1-1.08-.21c-.37-.21.67.58-.54.41.75.34,2.46-.33,3.54-.41,0-.66-1.38.54-1.63,0,9-2.53,14.14-2.91,24.37-5.35-10.27,0-28.44,4.15-22.74-7.48.66.88.29-.29,1.33-.2,0-.42-.34-.46-.25-.87,1,.74.66-.92,1.62-.88,0-.37-.5,0-.83,0s.87-.66,1.08-.2c-.71-.79-.25-1.29.83-1.71-1.75-.66.58-2.65-1.08-2.78,0-.7.58-1.24,1.08-.83-1.08-.91-.37-.41.79-.87-.58-.29-1.12-.45-.25-.83,0-.25-.5-.21-.83-.25s.33-.37,0-.41.5,0,.83-.21c-5-11,23.12-6.52,30.06-8.55a90.47,90.47,0,0,1,13.27-.42c0-.24-.5,0-.84,0C100.06.72,128-.11,151.79.51c-.88.79-6.28,0-8.65.42,5.11.79,10.27-.21,14.88.45-6.94-1.53,3.33-.62,7-.87v.87c.91.25,0-.7,1.08-.45-.71.58.38.45,1.12.45C167,1,166.3,1,165.88.72c.83-.33,1.75,0,3.54,0-1.13,1.2,1.66.29,3,1.08,0-.71-1-.29-.25-.87-.58,0-.54.33-.54.66s-.21-.7-.83-.66c1.49-.75,1.49.37,2.7.25,0,.83-.42,0-.79.41.66,0,5.94-1.28,3.49,0-.41,0-1.2-.62-1.87,0a10.72,10.72,0,0,0,5.16,0,.9.9,0,0,1,.22.06.62.62,0,0,1,.18.14A.56.56,0,0,1,180,2a.83.83,0,0,1,0,.22c.33-.24.5-.62,1.08,0-.67-.87-1.71-.33-2.75-.62,3.25-.5,6.41.38,10.56.21-1,.25,0,.75-1.62.62,1.21-.58-.37-.41-.79,0a1.88,1.88,0,0,0,.72.29,2,2,0,0,0,.77,0,2,2,0,0,0,.7-.32,2,2,0,0,0,.52-.57,58.81,58.81,0,0,0,6.77,0c0,.29,0,.58.25.62a40.35,40.35,0,0,1,11.4.46,1.81,1.81,0,0,1,1.08-.35,1.85,1.85,0,0,1,1.08.35c.71,0,3.12-.37,2.95.21a4.14,4.14,0,0,1,4.16,0c1.83,1.28,7.44-2,12.47.41.88.46-1,0-1.62,0,1.95,1,3.08-.5,4.16.46,1.12-.87,4.57.5,4.16,1a7.25,7.25,0,0,1,4.15-.21c0-.29-.83,0-.83-.42s2,.34,3,0-1.21.21-1.63.21c1.46.42,3.25.58,4.87.87,0,.38-.92,0-1.08.42s1.33,0,1.87.2c0,.88,0,.5.83.46s-1,.25-1.91.42c1-.92-.58,0-1.33-.42a4.13,4.13,0,0,0,2.7.62c0,.75-3.58,0-1.62.67-.38.54-1.67,0-2.16,0,.29.75,2,.41,2.7.83-.58.7-2-.33-2.45.21,1.24,0,3,1.16,2.7,0,.75,0,0,1,.54.87a25.84,25.84,0,0,1-5.12-.42c.25.38.84.46,1.63.42,0,.91-.5.62-1.09.83s.46.5,1.09.45c-.54.38,0,.38,0,1-1,0,0,0-.29-.62-1.09,0-1.09.41-1.88.41a3.92,3.92,0,0,0,2.42.46c-1.42,1.08,1.16.75,4.15,1-1,1.49-3.66.33-4.86,0,.75.75,2.45.79,3.78,1.08-.33.2-2.37.74-1.08.87-1.25.62,0-1.79-2.7-1.08,0,.5,1.29,0,1.08.87a6.52,6.52,0,0,0-1.62-.46c0,.34.66.46,1.33.46-.83,1.16,1.12-.25.83,1.25-1.41-1-1.41.41-3.78,0,1.12.74,3.11.83,4.16,1.7-.3.66-1.29.7-2.42.66,0,.83.42,0,.79.42-.58.5-1.37.91-1.33,1.28.75.34,2,.34,2.41.88-.45.33-1.83-.42-2.95-.21.58.25,1.21.41,1.87.62,0,.79-.87,0-1.08.62.46,0,.54.71,1.08.88a.66.66,0,0,1-.32.34.69.69,0,0,1-.47.07c1.21,0,0,.91,1.33.87.21.58-1.24,0-1.08.42,8.11,1,17.42.58,25.2,2.36-1.75,0-2.29,1.62.54,1.29a8.59,8.59,0,0,1-1.62.62c0,.21.62.21.54.62s-.79-.33-1.62,0c0,.42.91,0,1.08.46s-1.17.91,0,.83c-.25.75-2.08,0-2.7-.21-.46.38.54,1.37,1.87,1.08.95.58-2.12-.29-1.63.63-.37,0,0-.63-.53-.63s-.46.29-1.38,0c.63.79.67.71,1.67,1.08-.34.5-1.42-.21-1.67-.45-.87,0,1.17.74-.25.66.63.54,2.95,0,3,.83a19,19,0,0,0-3-.42c0,.34-.37.38-.83.88s.75-.25.83-.46c0,.75,1.42.46,1.38,1.29-1.29,0-2-.67-3.54-.21.21.62.67-.29,1.33,0-1.83.58,1.71,1.66-.54,1.49,0,.5,1.46,0,1.62.42s-.7,1,.59.87c.37.83-2,.5-1.38.83,0,.25-1.62-.25-2.16-.42s0,.75-.54.88c1.16,0,2.16-.54,3,.41l.83-.62c.79.5-.83.87-.29,1.91-.33,0-.41-.38-.79-.42a1.26,1.26,0,0,0-.48.23,1.23,1.23,0,0,0-.35.4c.54.29,1.29,0,1.91.41-.5.54-1.41-.29-2.16.21,0,.25.46.58.54.25s0,.7-.29.62c.33.54,2,0,1.91.87-.58,0-1.45-.5-1.62.21s1.79-.25,1.33.62c-1.24-.62-1.33.71-1.08,1.29-.79-.5-.83-.38-1.87-.21.29.54,1.37.5,1.87.87-.75.92,0,.54.54.83,0,1-.7-.33-.54.67a2.19,2.19,0,0,1-.54-.67c-.71.5.38,1.12-.54,1.5.5.58.92-.67,1.62-.63-.21.67-.62,1-1.87,1.29,0,.66,1,.5,1.33.83a135.69,135.69,0,0,1-24.36,2.78,148,148,0,0,1-17.84,1.5c0,.83-3.58,0-5.45,1.07,1.29-.91-2.62,0-3.24.21a.64.64,0,0,1,.22-.27.62.62,0,0,1,.32-.14c0-.5-1,0-1.33-.25.29,1.37-6.78,0-7.61,1.53-1.66-.87-8.82.71-12.72.42-.25,1-4.74.25-6.2,1.08,1.58-.54-.33-.62-.54.21a74.29,74.29,0,0,0-16.63,1.49c-.46-.87-1.41,0-2.7,0,0,.25.5,0,.83,0a193.54,193.54,0,0,0-23,2.32c-10.43,0-18.46,2.25-26.23,2.16a37.89,37.89,0,0,1-8.69.83c1.24.54-.54.54-.79,0,0,.33,0,.33-.83.67-.34-1-3.58.5-4.16,0-.88,1.16-9.27.41-10.56,1.24,0,0,.29,0,.29-.41H87.13c.79.54-7.77.91-2.7-.42A16,16,0,0,1,88,66.3c-1.2-.42-.5-.46.79-.42a15.44,15.44,0,0,0-7-.45c1.87-1,4.15-.21,6.48-.83-.54-.79-1.33,0-2.16-.67a7.65,7.65,0,0,1,2.7,0c.29,0,0-.41.54-.41s-.83,0-.25-.62c-.2,1.28-5.78-.46-5.15.62,0,.66-.58,0-1.08,0a.52.52,0,0,0,.54-.62H88.5c0-.25-.5,0-.83,0,.87-.34,8.77,0,7.86-.88s2.7,0,2.45-.87-1.29,1-1.08-.41c-.58,0-.54.29-.54.66s-.29-.25-.54-.25h-.29a31.92,31.92,0,0,1,7.86-.83c0-.45-1.29,0-.54-.66-3.08.21-3.12,1-5.41.21,0-.38.46,0,.79,0s-.25-.21-.25-.42-1.2.42-.54.42c0,.49-1.16,0-1.62.25s.33-.46.25-.88c4.57.21,8.57-1.41,11.39-.2.63,0,0-.59-.54-.42.38-.62,1.17-.41,1.62,0s-.33-.37.25-.66c2.83.79,5.45-1.08,8.11,0,.63,0-.29-.34.29-.63,3.12.71,1.75-.66,4.16,0-1.41-.78,1.75-.87-.25-1.28.25-.63,1.12,0,1.62,0s-.83.7,0,.83c0,.66-.58,0-1.08,0-.25.83,1.25.29,1.87.45.79-1,1.17-.29,2.7-.66,0,.42-.87,0-.78.66.91,0,1.82-.83,1.33-1.07.62,0,.95.49,2.45.41-1.17-.66,1-.54.54,0h.54s0-.62-.29-.62,1.54,0,1.37.62c.79,0,.92-.79,1.62-.21,0-.58-.37-.7-1.08-.66.63-.67,1.54.21,2.16.25,0,.25-.5,0-.79,0,1.42,0,4.16-.87,5.95,0,.42,0,0-.67,1.08-.46,0-.5-1.25,0-.83-.62h.83c-.25,0,0-.58-.54-.62.33.87-1.87.24-1.62,1.24-1.37-.46-2,0-3.25-.62.38-.54,1.38-.62,2.17-.87.45.45,0,.29,0,.87a4.9,4.9,0,0,1,1.87,0c.33-1,1-1.29,3-1.08,0,.37-.45.5-1.08.41a6.74,6.74,0,0,0,4.87.46,4.22,4.22,0,0,0-1.87,0c-.42-.95,1.62,0,1.62-.66s-.5.29-1.09,0c.3-.67,1.46-.67,2.71-.63-1.13.67,0,1-1.08,1.08,1.83,1.12,4.15-.87,5.11.21,2.25-.58,2.16-1,4.62-.87-1.54,0-1.25-.87-2.71-.42.5-1.24,2.62-.37,3,.42.62,0,.29-.62.79-.62s-1.12-.42-1.87-.46c3.12-1.45-3.95,0-6.53,0,.33.29,0,.37,0,.66a11.41,11.41,0,0,1,4.16-.2,8.34,8.34,0,0,1-4.87.2c0-.24.5,0,.79-.2-5.65-.54-6.44.49-13.51.41.71.62,2.08-.21,2.7,0-1,.29-2.87.62-3.53,0-4.16.54-5.82,1.16-11.11,1.5-.7-.29,1.34-.21,1.63-.42s-1.67-.37-1.63,0c1-1.12,6.62-.95,8.69-1.29-.7-.24-3.9-.54-3.82,0-.54-.41-.25-.41-.79,0s0-.37-.83-.62c0,.29-1.08.75-.54,0-1.17-.45-2.37.87-2.41,0-.84,0,.25.46,0,.83-1.38,0-3.25,1-3.25,0-.91,0-.91.46-1.37.67-.25-.63,0-.79-.83,0-.71,0,.67-.88-.79-.67,0-.25.5,0,.79,0-.46-.62-1.54,0-1.33.62-1.12,0-2.58-.54-3.53,0,.33.67.95,0,1.62,0,0,1-2.54.59-2.71,0h.84a40.54,40.54,0,0,0-5.16.46c0,.62,2.54-.7,3,.42-1.58-.38-2.62.45-4.16-.42.55.54-.74.42-.53.83-.59,0-.5-.29-.55-.62a2.64,2.64,0,0,0-1.62,0,.9.9,0,0,1,.23.4.94.94,0,0,1,0,.47c-2.16-.25-1-1.2-3-.87,1.83.58-1.37.33-1.62,0a3.24,3.24,0,0,1-1.57.64,3.08,3.08,0,0,1-1.67-.23c-1,0,.45,1-.3.88s0,0-.25-.67c-1-.29,0,1-1.12.67.54-.25,0-.75-.25,0-1.12-.5.88-.3.83-.67a6.12,6.12,0,0,0-1.91,0,.54.54,0,0,1,.54.67c-.33-.3-1.79-.5-1.37.41-1.08-1,0,.37-1.62.21,1.29-1.21-1.46,0-2.7-.62,0,0,.29,0,.29.41s1-.58.79.42h-2c-.87,0,.46-.3.79,0s-1.29,0-.54-.63H86.3c0,.75-2.83,1.29-4.16.42,0,.58-4.16.41-3.49,1.08-.71.7-2-1-3,0-.88-.25.24-.63.83-.46,0-.46-1,0-1.38-.21,0,.54-1.66,1.08-2.7.46,0,1.24-4.86,0-6.78.62.59.5,2.42,0,2.71.62-3-.49-8.32,1.42-13,.46,0,.37.92,0,1.09.42-.79.87-3.29-.34-4.16.62-.92-1.37-3.62.83-5.41.25a.32.32,0,0,0,0,.14.35.35,0,0,0,0,.13.24.24,0,0,0,.1.1.2.2,0,0,0,.13,0,10.09,10.09,0,0,1-3.24-.2c.79,1.53-1.83-.92-2.16.83-.34,0-.25-.38-.29-.63a1.88,1.88,0,0,1-1.09.21c0,.66-6,.79-7.56.87a86.72,86.72,0,0,1-30.06.21c0-.21,0-.21.29-.21v-.45c.5.7.58,0,1.08-.21-.38-.42-1,.21-1.62,0,.7-.83-.46-1.08,0-2.12.41.29,1.83.37,1.62-.46s-1.54,0-2.16-.2c0-.75,1.45,0,1.62-.63s-.5,0-.83,0,.87-.58,1.37-.66c-.75-.62-2.08,0-2.7.21-.21-.58.54-.42.54-.83s-.59.25-1.09.21c1.67-.46,3.54-.79,4.16-1.71-.87,0-.45-1-1.08-.45-1-.34.58-.34.54-.63-.79-.49-1,.42-2.41.42,1.12-.54-.29-.29-.83-.62A3.78,3.78,0,0,1,3.68,53a1.23,1.23,0,0,0-.23.4,1.24,1.24,0,0,0-.06.47c.5-.25.21-1.16,1.37-.87-1.83-.38-1.7-1.33-3.24-2.12.83,0,.33.71,1.33.42-1-.63,0-.5.83-.63-1-.41,0-.58.54-.25-1.41-.78.29-.24,0-1.7.83-.25.71,0,1.33-.2a.88.88,0,0,1-.79-1.29,2.5,2.5,0,0,0-1.37.21c-.83-.34,1.21,0,.83-.83s-.7,0-1.08,0h.54c-.87.66-.79-.25-.54-.88a1.54,1.54,0,0,0,1.08,0c.58,0-.33-.33.25-.62-5.69,0-2.62,0,.54-1.08,0,0-.25,0-.25-.41-.62,0-1.16,1-1.08-.21-.91.5-2.37.54-3.24,1Zm3.24-4.15c2-.7-.37-.79,0,0ZM2.27,50.57c0,.66-.67-.25-1.33,0,0,0,.29-.37,0-.42C1.27,49.53,1.6,50.73,2.27,50.57Zm.83-2.33c-1-.37.58-.37.54-.66C4.47,47.83,3.06,48,3.1,48.24Zm68.23-16c3.54.46,2-.79,0,0ZM80.77,65.1c.5-.54-2.08.7,0,0Zm3-4.15A6.68,6.68,0,0,1,87,60.53,11.16,11.16,0,0,1,83.76,61Zm3.79.66c-1,0,.79-.54.54,0C88.75,61.94,88.09,61.61,87.55,61.61Zm1.91-.54c1.75.66-.79-.25,0,0Zm1.08.25a5,5,0,0,1,2.7-.46A9.86,9.86,0,0,1,90.54,61.32Zm1.62-4.73c3.49,0-1-.21,0,0Zm1.33,3.23a5.15,5.15,0,0,0,2.21,0c-.71.88-1.92,0-3.29.21a4.88,4.88,0,0,1,1.91-.87,2.33,2.33,0,0,1-.83.46Zm-.25.83c.34-.37,1.13.54,1.92,0-.34.34-.3.54.25.67A12,12,0,0,1,93.24,60.65ZM96,56.5c-2.33,0-2.5,1,0,0Zm-1.63.67c.46.5,2.25-.62,2.17.62C95.61,57.21,94.7,57.79,94.32,57.17Zm.84.62c1.2,1.25,3.2,0,4.86.46C99.15,58.25,95.86,59.28,95.16,57.79Zm4.57-.41s-1.62,0-1.33-.42C99.69,57.33,99.6,56.5,99.73,57.38Zm4.16.41c-.59-1.08-1.5-.37,0,0Zm3.78-1.29a5.21,5.21,0,0,1-1.91-.2c.62-.58,1.25.2,1.91,0,0,.37,0,.41.54.41s-.54,0-.54.46V56.5Zm1.08-1c.87-.42-1.33.58,0,0Zm1.08,0c-.79,0,.63-.34.29-.88.38,0,1.21.88,1.09,0C112.62,55.63,109.83,55,109.83,55.47Zm0,1c0-.45,1,.38,1.38.46C110.42,57,110.37,57.25,109.83,56.5Zm1.08.25v-.66a1.72,1.72,0,0,0,1.09.21c0-.34,0-.54-.54-.63a3.88,3.88,0,0,1,2.16-.2c0-.34-.67-.46-1.33-.46s1.49,0,1.33-.42c.5,1,.83.38.29,1.5-.58,0-.58-.33-.29-.62h-1.54c.91.25,0,1.24-1.08,1.08Zm6.24-2.36V55c5.7-.54,1.12.46-1.62.46-.75,0,0-.67.54-.46,0-.46-1.33,0-1.91-.21,2.91-.41,5.53-1.53,8.31,0-1.58-.41-3.49.29-5.15-.21Zm8.11,1.08c1.41.62-1,.37-1.87.41,1.08-.37,2.29-1.16,3.24-.41h-.29C126.05,55.47,126.63,54.89,125.26,55.47Zm-1.33-1.95c-.5,0,.46-.88,1.08-.83s.79.41.25.83,0-.21,0-.21S124.1,53.31,123.93,53.52Zm6.78.66c-.71-.42.41,0,.79,0C131,55.3,131.5,54.39,130.71,54.18Zm1.08,1.29c.79.58-.75-.67,0,0Zm16.63-1.95h-.29c-1-.59.7,0,.54-.42s.25,0,.29.21v.37c-.25,0-.5,0-.54-.45Zm1.33,0c3.91,0-.75-.25,0,0Zm93.14-33.21c.74-.66-.84.58,0,0Zm-.25-15.19c.66-.5,2.32,0,3,.25S243.59,5,242.64,5.12ZM261,42.48c-1,0,.83-.54.53,0C262.22,42.81,261.55,42.48,261,42.48Z"/></svg>