<svg id="Layer_1" data-name="Layer 1" xmlns="http://www.w3.org/2000/svg" viewBox="0 0 113.45 4.17"><defs><style>.cls-1{fill:#e62f48;}</style></defs><path class="cls-1" d="M113.4,3c0,.32-1.36,1.07-2.21,1.08-.14,0-.36,0-.5,0-2.19,0-3.28,0-5.47,0H99.33c-1.2,0-2.41,0-3.62,0-2,.06-2.55-.51-4.53-.45-.78.06-7.29.47-8,.41C78.41,4,46.3,3.54,41.53,3.35c-2.28-.06-4.48-.08-6.82-.08s-4.27-.4-6.53-.36c-1.56,0-2.44.55-4,.5-.71,0-2.31-.28-3-.34a43.76,43.76,0,0,0-4.77-.5,51.06,51.06,0,0,1-6.55,0,12.82,12.82,0,0,0-2,0,14.36,14.36,0,0,1-2.6.34C4,2.81,2.88,2.55,1.66,2.4A4.86,4.86,0,0,1,.5,2.14c-.44-.21-.61.07-.43-.27s.67-.41,1.22-.59a7.07,7.07,0,0,1,1.83-.19c1.35,0,2.69,0,4,0,1.63,0,3.32-.08,4.95-.09.78,0,1.64,0,2.41,0a51.92,51.92,0,0,1,6.6,0c1.63,0,3.28.19,4.9.18,4.61,0,9.28-.16,14-.27,1.34,0,2.75-.11,4,0,1.86.22,3.85-.79,5.83-.85C52.46,0,60,2,62.68,1.87c1.34,0,29.52-.69,30.79-.71,1.06,0,2.13,0,3.19-.06s2.16.8,3,.84c1.49.06,2.59-.71,4.08-.65,2.49,0,5-.05,7.43-.22a1.47,1.47,0,0,1,.79.1c.38.26,0,.5.2.74a1.2,1.2,0,0,1,1.27.9h-.07Z"/></svg>