<svg id="Layer_1" data-name="Layer 1" xmlns="http://www.w3.org/2000/svg" viewBox="0 0 46.69 36.43"><defs><style>.cls-1{fill:#fff;}</style></defs><path class="cls-1" d="M27.88,26.52c-.28-.4-2.47.81-2.81,1-1.24.81-2.38,1.75-3.6,2.55-4.56,2.75-2.41,1.89-3,2.29a16.41,16.41,0,0,0-3,2.17c-.44.37-1,.73-1.4,1.13s-.62.85.21.72a2.36,2.36,0,0,0,.77-.36c.53-.37,1.06-.7,1.6-1,2.48-1.61-.39.24,2.09-1.37a8.91,8.91,0,0,1,2.71-1.37c.73-.43.9-1.26,1.41-1.65s2-.67,2.59-1.09c1.14-.78,2.21-.49,2.72-1.84A1.53,1.53,0,0,0,27.88,26.52Z"/><path class="cls-1" d="M.26,30.82c.12.11.21.09.69-.21l.28-.17,3.7-2.35L8.22,26c.68-.43,1.34-.89,2-1.32l3.37-2.06a14.05,14.05,0,0,0,1.28-.8c2.62-1.76,6.35-4.57,9-6.35,1.26-.84,2.48-1.64,3.79-2.47s2.79-1.22,4.07-2c.87-.56,1.45-1.52,2.31-2.1.39-.26.76-.56,1.14-.84.85-.6,1.68-1.25,2.6-1.81,1.28-.79,2.45-1.59,3.59-2.45a13.45,13.45,0,0,1,1.15-.73,11.09,11.09,0,0,0,1.33-.79c.65-.48,1.4-1,2-1.47a3.75,3.75,0,0,0,.57-.51c.19-.24.36-.19.17-.26s-.5.09-.86.22a6.14,6.14,0,0,0-1.07.58c-.75.49-1.51,1-2.27,1.44S40.53,3.42,39.61,4c-.43.28-.9.6-1.35.86-1.31.73-2.47,1.55-3.68,2.37-.9.6-1.78,1.24-2.7,1.82C29.3,10.69,26.65,12.32,24,14c-.76.47-1.57.94-2.22,1.41-1,.76-2.38,1.09-3.5,1.78-1.52.94-2,1.49-3.57,2.42-.76.47-3.36,2.72-4.08,3.17l-1.8,1.12c-.52.32-1.33.26-1.79.59-.82.56-1.31,1.47-2.13,2Q2.85,27.85.71,29.06a1.39,1.39,0,0,0-.42.33A2.35,2.35,0,0,0,0,30a4.55,4.55,0,0,0,.17.75l0,0Z"/><path class="cls-1" d="M29.66,25.82c.19.3,1.84-.53,2.1-.68.94-.55,1.81-1.21,2.73-1.76,3.45-1.89,1.84-1.33,2.32-1.6a11.84,11.84,0,0,0,2.28-1.5c.34-.26.74-.51,1.07-.79s.48-.61-.13-.54a1.66,1.66,0,0,0-.58.24c-.4.26-.8.49-1.21.72-1.88,1.1.3-.16-1.59.94a6.56,6.56,0,0,1-2,.93c-.56.29-.71.9-1.09,1.17s-1.51.43-1.94.72c-.87.54-.65-.2-1.06.78C30.42,24.81,29.55,25.55,29.66,25.82Z"/></svg>