<svg id="Layer_1" data-name="Layer 1" xmlns="http://www.w3.org/2000/svg" viewBox="0 0 21 22"><defs><style>.cls-1{fill:#f2cd30;}</style></defs><path class="cls-1" d="M10.65,16.28c-.08,0-.13,0-.13.08a2,2,0,0,1,0,.27c0,.1.18.12.09.27l-.07.08c0,.09.19,0,.23.11l-.17.14h-.11a.09.09,0,0,0-.07.12v-.1s0,.07,0,.1l-.09.08v.21l.1.09c0,.1-.19,0-.23.15v.52l.12.11v.2l-.12.1c.16.15.16.16,0,.3v.8L10,20a.31.31,0,0,1,0,.1l.23.21V21l-.09.08a.57.57,0,0,0,0,.29v.24s-.09.06-.09.09a.37.37,0,0,1-.21.26H9.38c-.06,0-.1-.08-.15-.1s-.09,0-.1,0l-.4-.33a1.34,1.34,0,0,0,0-.19c0-.07-.15-.1-.11-.21A.56.56,0,0,1,8.72,21v-.39a.69.69,0,0,1,.13-.11v-.41L9,20v-.4l-.09-.08c0-.09,0-.19,0-.29a2.09,2.09,0,0,0,0-.25l-.09-.08s0,0,0,0V16.59a1.14,1.14,0,0,1,.11-.11s0-.06-.07-.06a1.07,1.07,0,0,0-.18,0,.12.12,0,0,1-.1-.05v-.21c0-.09.19,0,.23-.11s0,0,0,0l-.34,0-.14.1H8.08L8,16.2c-.11,0,0-.16-.13-.19l0,0a.15.15,0,0,1-.08,0,.08.08,0,0,1,0-.07c0-.05,0-.07,0-.09s0,0-.08,0-.09.06-.2.05l-.16-.2H6.77s-.06.06,0,.08l.14.12H7a.17.17,0,0,1,.15,0l-.12.11s0,.1-.06.14-.15-.13-.24-.19l-.17.14v.21a.6.6,0,0,1,.12.11v.25l.12.11v.19l.09.08s0,.05,0,.09v.44a.23.23,0,0,1,.13.22c0,.08,0,.12-.12.18v.49l-.11.12a.26.26,0,0,1,0,.11l-.3.24H5.84S5.76,19,5.71,19H5.6c-.07,0,0-.08-.07-.13s-.06-.08-.1-.13v-.48l-.11-.12L5.43,18v-.3l-.11-.11a.16.16,0,0,1,0-.14l.06-.07v-.17s-.06-.06-.1-.12l.1-.11v-.18a.74.74,0,0,1,.13-.12v.05l-.12-.11v-.5L5.32,16v-.7c0-.06-.11,0-.17-.05l-.13.1H5v-.16a.38.38,0,0,0,.11-.11L5,15a.6.6,0,0,1,.12-.11c0-.13,0-.15-.17-.15a2.31,2.31,0,0,1-.24.2h0v-.15l-.17-.14a.75.75,0,0,1-.18-.07l.08-.06s0,0,0-.08a.25.25,0,0,1-.07-.08c0-.05,0-.12-.06-.12s0,.08-.07.12,0,.07-.06.06a.07.07,0,0,1,0-.08c0-.1,0-.1-.14-.11H3.84l-.17-.14s0,0,0,0a.08.08,0,0,0,.1,0s0,0-.12-.06h0a.07.07,0,0,0,0-.08s0,0-.08,0,0,0,0,0l.07,0a.16.16,0,0,1,0,.1H3.51S3.44,14,3.44,14a1.92,1.92,0,0,1,0-.24.09.09,0,0,0,.1,0s0-.06-.1-.07v-.15l-.18-.14H3a.44.44,0,0,1-.2-.18c.08-.07.2,0,.27,0l.14.11h.12L3.56,13S3.51,13,3.48,13H2.91s0,0,0,0L3,12.8s0,0,0,0a.1.1,0,0,0,.11,0s0-.05-.11-.06v-.1h.17l0,0s0,0,0,0l0,0c-.13,0-.16,0-.19.09s-.08,0-.1,0,0-.13-.09-.17h-.1a.51.51,0,0,1-.13.09c-.08,0,0-.09,0-.15a1.81,1.81,0,0,1,.19-.15c.05,0,.15,0,.24,0l0,0,0,0H2.79l-.16-.13a1,1,0,0,1,0-.3.61.61,0,0,0-.16-.16l-.2-.06.25-.21L2.28,11s0,0,0-.06,0,0,.06,0a.09.09,0,0,0,.11,0s0-.06-.12-.06H2.08l-.17-.15c.07-.09.18,0,.27,0l.09-.05.29-.26s0,0,0-.07a.08.08,0,0,0-.1,0h0a.35.35,0,0,1-.24.1l-.09.08a.5.5,0,0,1-.27,0l-.05,0v-.25h.11c.05,0,.08,0,.1,0s0,0,0-.07l0,0c0-.1.17,0,.21-.1L2,9.77V9.32a.1.1,0,0,0,.1,0,.15.15,0,0,0,0-.13.08.08,0,0,0-.1,0s0,0,0,0a.84.84,0,0,1,.18-.15h0v.14c.07.06.07.06.14,0s.09,0,.1-.08a.11.11,0,0,0-.06-.12H2.27s0-.05,0-.06a.6.6,0,0,1-.12-.11l.17-.14.13.1c.06-.05.09-.11,0-.17a.27.27,0,0,1-.1-.16s-.06-.08-.13-.06a.14.14,0,0,1-.1-.06V8s0-.06.08-.05l0,0v.19c.09.07.09.07.32.05,0,0,0-.06,0-.07a.5.5,0,0,1-.12,0s-.08,0-.08-.06a.11.11,0,0,1,.09,0c.14,0,.14,0,.14-.11V7.77l0,0c-.09-.09-.09-.12,0-.21s.05,0,0-.08a.13.13,0,0,0-.1,0c-.08,0-.11,0-.12-.09a.11.11,0,0,1,.08-.12h.11s0,0,0,0V7a.57.57,0,0,0-.11-.1c0-.08.19,0,.23-.11V6.65c0-.09-.19,0-.23-.11l.29-.25H3a.05.05,0,0,0,0,.07c0,.06,0,.06.05.06s.08,0,.09,0a.1.1,0,0,0-.06,0,1,1,0,0,0-.17,0s0-.05,0-.06a1.14,1.14,0,0,1-.11-.11v-.3s0,0,0,0,.07,0,.07,0a.75.75,0,0,1,0,.15s0,.07,0,.08.19,0,.28,0S3.1,5.93,3,5.85l.12-.11V5.59H3.3l0,0s0,0,0,0l0,0c-.13,0-.17,0-.2.09s-.09,0-.1,0a.25.25,0,0,0-.14-.2V5.21s0-.07,0-.09a.16.16,0,0,1,.15,0c.08,0,.14.12.22.17s.06,0,.06,0a.6.6,0,0,0,0-.19s-.11-.06-.1-.12.1,0,.15,0l.13.1.17-.14a.18.18,0,0,0-.09-.06H3.43s-.05,0-.09,0l.17-.15h.11l.13-.09a.27.27,0,0,1,.11,0s0,0,0,0-.07,0,0,0l.07,0s0,0,0-.05,0-.07,0-.08l-.11-.1.1-.09a.55.55,0,0,0-.1-.11c.09-.08.19,0,.29,0A1,1,0,0,0,4.14,4c0-.06-.15-.1-.1-.21l.12-.09L4,3.54s0-.11,0-.13.08,0,.13.07,0-.15.13-.2h.14a1.84,1.84,0,0,0,.19.2h.14L5,3.38l.16.15s0,0,0,0A.08.08,0,0,0,5,3.6s0,.06,0,.09a.08.08,0,0,0,0,.08s.06,0,.06-.06,0-.1,0-.14a.1.1,0,0,0,.12-.07.56.56,0,0,0,0-.13h.16a.05.05,0,0,0,0,0s0,0,0,0,0,0,0,0-.17,0-.2.09H5.15c-.06,0-.11-.1-.16-.14s0,0,.06,0a.54.54,0,0,1,.18,0,.11.11,0,0,0,.09-.05L5.2,3c.08-.07.23,0,.28-.14l.13.1h.23L6,2.88H6.5s.09,0,.09,0,0-.06-.06-.06-.12,0-.15,0a1.09,1.09,0,0,1,.17-.13l.12.07c.11,0,0-.15.13-.19H7c0-.06,0-.06,0-.16l.15-.13a2.62,2.62,0,0,1,.38,0l.12.1h.44c.07,0,.09,0,.08-.11a.06.06,0,0,1,0,0L8.26,2a.16.16,0,0,0,0-.09c0-.06,0-.13.06-.18h.12c.09.06.14.14.25.18s0-.08,0-.14L9,1.67h.22l.14-.1a.73.73,0,0,0,.13.1h.17v.14s0,0,0,0,0,0,0,0,0,0,0,0,0-.14-.11-.16v-.1s0-.06,0-.09,0,0,.09.05l0,0A.33.33,0,0,0,10,1.42.61.61,0,0,0,10,1.24a.5.5,0,0,0,.13.1l.13-.08.21.18c.07,0,.08-.05.08-.1a.08.08,0,0,1,0-.08.25.25,0,0,0,.12,0,2.31,2.31,0,0,0,.24.2c.06,0,0-.09.06-.13a.11.11,0,0,1,.08-.07c.11,0,.23,0,.33,0s.15.14.29.06,0-.11,0-.13.08.06.13.06a.65.65,0,0,0,.39,0c.06-.05,0-.13,0-.19s0-.07.05-.08a.14.14,0,0,1,.06.07.32.32,0,0,1,0,.09s0,0,0,0h.18c0,.05,0,.08.07.09a1.78,1.78,0,0,1,.22,0s0,0,0,0-.08,0-.05.05,0,0,.06,0,0,0,0-.05a.85.85,0,0,1-.05-.34h.19l.17.18.2,0s0,0,0,.1v0a.08.08,0,0,0-.09,0s0,0,0,.06h0a.07.07,0,0,0,0-.05.14.14,0,0,0,.1-.06c0-.05,0-.13.09-.16H14l.13.1h.11c.08,0,.06.12.06.18s0,.09.06.11,0,0,0,0a1.34,1.34,0,0,0,0-.2s.06-.06.13-.06a.13.13,0,0,1,.1,0l-.1.1.07.05c.12,0,.23,0,.32,0l.18-.15V1c.09,0,.12,0,.12-.08a1.5,1.5,0,0,1,0-.2s0,0,.1,0v.35a.05.05,0,0,0,.08,0s0,0,0,0V1a.16.16,0,0,1,.09-.05c.09,0,.19,0,.27,0l-.12.11v.1c0,.08-.14,0-.19.08s-.05,0,0,.08h-.17s0,0,0,0,0,0,0,0l0,0c.13,0,.17,0,.19-.09s.05,0,.07,0l.16.15s0,.06,0,.09l-.12.11a.14.14,0,0,0,.19,0s.05-.06.09-.07.13,0,.15,0a.08.08,0,0,1,0,.09.1.1,0,0,1,0,0,.48.48,0,0,0-.1.12c0,.06,0,.12.11.13a.07.07,0,0,0,0,.09s.06,0,.07-.09h.18a.27.27,0,0,1,.07.08c0,.06,0,.13,0,.17l.17.16h.17s0,.06,0,.08-.16,0-.2.09v.08l.09,0,.35,0,0,0-.12.1s0,0,0,.05a.08.08,0,0,0-.09,0s0,.06,0,.09a.06.06,0,0,0,.05.07s.06,0,.06-.05a.66.66,0,0,0,0-.14H17a.1.1,0,0,1,.1,0s0,0,0,.07,0,0,0,.06.05.05.1,0h.12c0,.08,0,.1.09.1a2,2,0,0,1,.23,0,.07.07,0,0,1,0,.09h-.2l-.1.1h-.05a.08.08,0,0,0,0-.08s-.06,0-.08,0,0,0,0,0l.07,0a.41.41,0,0,1,0,.15c.07.06.12.14.23.17l.2,0a.06.06,0,0,0,0-.09h.18c.05,0,.1.1.17.15a.59.59,0,0,1,0,.32s-.05,0-.1,0V4l-.16-.14c-.09,0-.08.08-.05.16s.1.14.21.13v.15l0,0,.12,0,.08,0,.21.18s0,.06-.08.11-.09.18.05.25l.12-.09s.05,0,.05,0v.41c.05.08.19,0,.23.11a.27.27,0,0,0-.1.11l.16.14H19c.09.12.09.12-.05.25a.55.55,0,0,1,.1.11.16.16,0,0,1-.14,0,.13.13,0,0,0-.09.06l.16.14h.14l.17.17-.06,0c-.05,0-.12,0-.16,0a.44.44,0,0,0,.14.13,1.71,1.71,0,0,0,.21.07c-.08.08-.18.13-.23.21s.1,0,.15,0l0,0s0,.06,0,.07h-.23c-.1.06-.05.15-.05.24s0,0,.06,0,.05,0,.09-.06a.22.22,0,0,1,.1,0h.05c.06.08.17.07.25.11a.44.44,0,0,1,.14.13c0,.06-.11,0-.16,0l-.12-.1c-.13.07,0,.2-.08.27s-.24,0-.32.08c.08.06.15.14.23.21v.09c0,.09.19,0,.23.11l-.17.15h-.06a.06.06,0,0,0,0-.08s-.05,0-.07,0v0l.06,0s0,.06,0,.07l-.2.06.13.12a1,1,0,0,1,0,.17A.12.12,0,0,1,19,9h0a.08.08,0,0,0,0-.08,0,0,0,0,0-.08,0v0L19,9s0,0,0,0l.23.21c0,.13,0,.13-.1.15h-.07a.12.12,0,0,0-.06.17l.09.08a2.94,2.94,0,0,1,0,.42c0,.05-.06.05-.09,0S19,10,19,10l-.07-.07-.29.25c0,.07.13,0,.13,0l.21.17c-.07.08-.24,0-.29.15h-.13l-.16.13c0,.07,0,.07.1.07h.11v.4h-.18s0,0,0,0v0c.06.07.14.12.2.18a.26.26,0,0,1-.09.05.16.16,0,0,1-.1,0c-.08-.05-.14-.12-.21-.17l-.06.06a.16.16,0,0,0,0,.1s.07,0,.08.08a.09.09,0,0,1,0,.13l-.09.08a.94.94,0,0,1,.1.1v.09c0,.08-.12.05-.19.08S18,12,18,12h-.11c-.09,0-.13,0-.13.1v.1h-.18l0,0v0l.21.17c0,.06-.08.06-.14.06a.19.19,0,0,0-.09,0,.57.57,0,0,1,.11.11c-.07.08-.17.13-.23.22a.54.54,0,0,0,0,.1s.05,0,.1,0a.66.66,0,0,1,0,.14s-.05.06-.07,0l-.08-.06a.12.12,0,0,0-.19.09c-.05,0-.08,0-.1,0a0,0,0,0,0,0,0v.17c-.09.12-.24.2-.35.32V14h-.3l-.16.14c0,.11.19,0,.21.12l-.17.13H16c-.1,0-.14.11-.22.15.1.09.21,0,.31.06a1.17,1.17,0,0,1,.05.11.57.57,0,0,1-.2.18c-.07,0-.13,0-.16,0s0-.07,0-.1a.05.05,0,0,0-.08,0l0,0-.11.1V15l.22.19c0,.1.07.2-.05.27h-.11a.63.63,0,0,0-.12.1c-.05,0-.05-.05-.05-.09s-.06-.12-.15-.11-.06,0-.08.05v.1l.11.1v.21l-.17.14L15,15.86h-.12c-.05,0-.06.05,0,.07l.2.18-.11.11c0,.05,0,.1,0,.14s.16-.13.24-.2,0,0,0,0,0,.27,0,.4,0,.05-.13.06h0c-.11.09-.21.18-.3.24V17a.5.5,0,0,1,.1.11l-.09.08s0,0,0,.07.09.12,0,.21l0,0v.41s.07.06.11.11v.1a.52.52,0,0,0-.11.1c0,.09.19,0,.21.11s-.14.16-.06.33l0,.06c0,.08-.14.13-.22.2V19l.12.11-.12.11a.13.13,0,0,0,.09.16.26.26,0,0,1,0,.1c0,.12,0,.23,0,.35l.09.08-.1.11v.2c-.09.07-.21.14-.33.24h-.21c-.06,0-.1-.13-.21-.1l-.68-.57a.28.28,0,0,0,0-.09l-.09-.08a.41.41,0,0,1,0-.08V18.32l.1-.09a.92.92,0,0,0,0-.29,1,1,0,0,1,0-.24l.09-.08s0,0,0,0V16.2a.57.57,0,0,0-.11-.1v-.3a1.27,1.27,0,0,0-.17-.14c-.1,0-.12.11-.2.13V16l-.15,0-.14-.11h-.25l-.16.16a.45.45,0,0,0,.1.09c-.11.09-.13.09-.27,0s-.12.13-.24.09a2.25,2.25,0,0,0-.24.21h-.13c0-.05,0-.09-.05-.14l.13-.12-.12-.09s0-.05-.09,0a.11.11,0,0,0,0,.09c0,.08,0,.09-.11.09a.13.13,0,0,0-.1,0,0,0,0,0,0,0,0c.05.05.13.09.1.18a1.34,1.34,0,0,1-.31.26l-.11,0s0-.05,0-.09.08,0,.09,0a.47.47,0,0,1,0-.09.1.1,0,0,0,0-.08s-.07,0-.07.06a.66.66,0,0,0,0,.14.08.08,0,0,0-.09,0c0,.06,0,.11-.06.18s0-.19-.09-.26l-.12-.1a.47.47,0,0,0,.11-.21s0,0,0,0,0,.07.05,0l.05-.05S10.68,16.24,10.65,16.28Zm-1-6.42s0,0-.06.05,0,.06,0,0a.08.08,0,0,0,.05,0s0,0-.1.11v0a.1.1,0,0,0-.09,0s0,0,0,.07h0A1.87,1.87,0,0,0,9.61,9.86ZM8.2,9.26l-.07.05s0,.06.06,0,0,0,.05,0,0,0-.11.11V9.36a.08.08,0,0,0-.08,0s0,0,0,.07h0S8.12,9.41,8.2,9.26ZM9,9.85h.28s0,0,.07,0l0,0a.5.5,0,0,0-.27,0,.05.05,0,0,0,0,.07H8.79s0,0,0,0,0,0,0,0l0,0C8.89,10,8.93,10,9,9.85ZM7.42,9.56c.12,0,.14-.1.23-.14l-.1-.1a.08.08,0,0,0-.09,0s0,0,0,.08v.19H7.26l0,0s0,0,0,0l0,0C7.36,9.68,7.4,9.66,7.42,9.56Zm1.17-.25V9.5a.18.18,0,0,0,.09.06.2.2,0,0,0,.16,0L9,9.41V9.36a.06.06,0,0,0,0-.08s-.05,0-.07,0-.05,0-.08,0,0-.05-.08-.06S8.62,9.28,8.59,9.31ZM10.3,10h.13l0,0s0-.07,0-.07h-.34s-.07.05-.06.07l.17.14A.5.5,0,0,0,10.3,10ZM4.53,3.69h.34l0,0s0-.05,0-.07H4.53s0,0,0,0S4.49,3.67,4.53,3.69Zm3,6.52v.1c.11.08.11.08.24,0v-.1C7.65,10.15,7.65,10.15,7.54,10.21Zm2,.2c.09.07.16.08.24,0a1.33,1.33,0,0,0,0-.2s0-.05-.08,0l0,0v.11A.58.58,0,0,1,9.54,10.41ZM8.36,11l0,0s-.05,0-.08,0v.2l0,0s.05,0,.07,0ZM3.88,13.65a.17.17,0,0,0-.25,0c0,.06,0,.13.08.14Zm-1-7.12c-.09.06-.09.13,0,.2S3,6.59,2.87,6.53Zm8.15.4c.09-.07.09-.13,0-.21A.12.12,0,0,0,11,6.93Zm-8.25.38,0,0v-.1l0,0s0,0,0,0a.09.09,0,0,0,0,.16S2.75,7.31,2.77,7.31ZM9.5,9.37h0c-.06,0-.06.15,0,.17h0A.1.1,0,0,0,9.5,9.37Zm1.29.48c.09-.06.09-.13,0-.2S10.7,9.79,10.79,9.85Zm8-.14q.1.12.24,0A.16.16,0,0,0,18.76,9.71Zm-8,.25h-.05s-.06,0,0,.07l0,0h.05c.08,0,.13,0,.11-.06A.09.09,0,0,0,10.72,10Zm.67.92h0a.09.09,0,0,0,0,.16h0C11.45,11,11.45,10.91,11.39,10.88Zm-6.1,4.23v0l0,0a.06.06,0,0,0-.07,0s0,0,0,0a.07.07,0,0,0,0,.09S5.29,15.18,5.29,15.11ZM10.06,1.66s0,0,.08,0l0,0s0,0-.08,0S10,1.65,10.06,1.66Zm5.52.25s0,0,0,.07l0,0s0,0,0-.06ZM8.59,2l0,0a.07.07,0,0,0-.08,0l0,0A.06.06,0,0,0,8.59,2ZM5.69,3.27a.06.06,0,0,0,.07,0l0,0a.06.06,0,0,0-.07,0ZM10,5.87l0,0s-.05,0-.08,0l0,0S10,5.9,10,5.87Zm.43,0,0,0a.07.07,0,0,0-.08,0l0,0A.06.06,0,0,0,10.44,5.9Zm-.23.1,0,0a.07.07,0,0,0-.08,0l0,0A.06.06,0,0,0,10.21,6Zm.41.19,0,0s.05,0,0-.07l0,0S10.61,6.17,10.62,6.19Zm-.09,1,0,0s0,0,.08,0l0,0S10.56,7.14,10.53,7.15ZM2.63,8.34l0,0s0,0,0,.07l0,0S2.68,8.37,2.63,8.34Zm16.28.08s.05,0,.08,0l0,0s-.05,0-.08,0Zm-11,1.27s0,0,0,.07l0,0s0,0,0-.06Zm-.51.2,0,0s-.05.05,0,.07l0,0S7.41,9.92,7.4,9.89Zm-5.22.26,0,0s-.05,0-.08,0l0,0S2.15,10.16,2.18,10.15ZM11,10.07a.06.06,0,0,0-.07,0l0,0s.05,0,.08,0Zm-3.36.56,0,0s.06,0,0-.06l0,0S7.66,10.61,7.68,10.63Zm1.17.11,0,0s0,0,0-.06l0,0A.05.05,0,0,0,8.85,10.74Zm2.2.1s0-.05,0-.07l0,0s0,0,0,.07Zm-1.55.21,0,0s0,0-.08,0l0,0S9.47,11.07,9.5,11.05Zm2.68,0,0,0a.06.06,0,0,0,.07,0l0,0A.06.06,0,0,0,12.18,11.09Zm-3,.17,0,0a.06.06,0,0,0-.07,0l0,0A.05.05,0,0,0,9.15,11.26Zm-6.5.1,0,0s0-.05-.08,0l0,0A.06.06,0,0,0,2.65,11.36ZM3,12.3l0,0s0,0,.08,0l0,0S3,12.29,3,12.3Zm13.8.93s0,0,0,.06l0,0s0,0,0-.07ZM3.6,13.31a.06.06,0,0,0-.08,0l0,0a.06.06,0,0,0,.07,0ZM15,16.47s0,0,0,.06l0,0s0,0,0-.07S15,16.46,15,16.47Z"/><path class="cls-1" d="M11.13,17.42c-.05-.05-.06-.07-.05-.08l.17-.14.06,0c0,.1,0,.2,0,.3s-.2,0-.32,0,0-.12,0-.19a.37.37,0,0,1,.18,0s0,0,0,0-.08,0-.05.05,0,0,.06,0S11.18,17.45,11.13,17.42Z"/><path class="cls-1" d="M15.57,16.17h.18a.58.58,0,0,0,.12-.1.18.18,0,0,1,.07.09c0,.12,0,.12.13.12h.16l.05,0s0,0,0,0a1.07,1.07,0,0,1-.4,0c0-.08-.15-.09-.24-.11A.07.07,0,0,1,15.57,16.17Z"/><path class="cls-1" d="M16.63,1.16c.05-.09.19,0,.23-.11V1a0,0,0,0,1,0,0A.06.06,0,0,1,17,1a1.47,1.47,0,0,1,0,.21l.13.08c-.08.09-.18.05-.27.06S16.7,1.21,16.63,1.16Z"/><path class="cls-1" d="M15.45,1.11h.05c.16,0,.16,0,.18-.12a.12.12,0,0,1,.16-.08l.07,0V1.1c-.09,0-.11.08-.21.1a1,1,0,0,1-.17,0S15.43,1.17,15.45,1.11Z"/><path class="cls-1" d="M15.1,17.22s0,0,.06,0a.26.26,0,0,0,.2-.08h0c.06,0,.11.09.18.13l-.18.15h-.13A1.2,1.2,0,0,0,15.1,17.22Z"/><path class="cls-1" d="M2.33,13s0-.09.09-.1h.21l.12.1h.17v.1H2.63L2.5,13Z"/><path class="cls-1" d="M18,13.29l-.16.14h-.12a.64.64,0,0,0-.13-.1c-.05,0-.07,0-.05-.05l0,0a.9.9,0,0,1,.4,0Z"/><path class="cls-1" d="M17.1,1.76a.87.87,0,0,0,.11-.09s.05,0,.08,0,.05,0,0,.08v.06l-.12.09V2s0,0,0,0a.05.05,0,0,1-.07,0Z"/><path class="cls-1" d="M16.74,14.25h.18l.13-.1c.06,0,.12,0,.16.06l-.15.13a.45.45,0,0,1-.28,0A.07.07,0,0,1,16.74,14.25Z"/><path class="cls-1" d="M3.16,14.56h.3c.08.11.08.11,0,.19l-.12-.08s0,0,0,0,0,0-.09,0-.05,0,0-.08A.4.4,0,0,0,3.16,14.56Z"/><path class="cls-1" d="M2.69,5.86h.17A.1.1,0,0,1,2.92,6c0,.07,0,.09-.1.09s0,0-.14-.06A.81.81,0,0,0,2.69,5.86Z"/><path class="cls-1" d="M19.94,6c.12-.07.12-.07.24,0v.1c-.11.08-.11.08-.24,0Z"/><path class="cls-1" d="M1.72,7,1.87,7c.12,0,.16.11.25.17L2,7.18C1.86,7.15,1.82,7.07,1.72,7Z"/><path class="cls-1" d="M2.27,8.18,2.1,8s.11-.06.11-.11,0-.06.06,0l0,0a.49.49,0,0,1,0,.24Z"/><path class="cls-1" d="M2,11.42c.09,0,.13.11.21.15s-.12,0-.17,0l-.12-.1c-.08,0-.08-.06,0-.08A.18.18,0,0,1,2,11.42Z"/><path class="cls-1" d="M1.86,11.52v.14c0,.05-.07.07-.14.06s-.1,0-.1-.09,0,0,.06-.12Z"/><path class="cls-1" d="M16,15.27h.11l.13-.1c.08.11.08.11,0,.19H16l0,0S15.94,15.28,16,15.27Z"/><path class="cls-1" d="M12.85,16.53v.3s0,0,0,0-.05,0-.07,0v-.3l0,0S12.83,16.5,12.85,16.53Z"/><path class="cls-1" d="M8.13,18.12c-.07-.05-.09-.11,0-.17a1.14,1.14,0,0,1,.16-.15c.07.06.09.11,0,.18A1.07,1.07,0,0,1,8.13,18.12Z"/><path class="cls-1" d="M6.48.85a.16.16,0,0,1-.25,0l.13-.1s0,0,.08,0,0,0,0,.09S6.48.84,6.48.85Z"/><path class="cls-1" d="M14.5,1a1,1,0,0,1-.17,0s0,0-.06-.05l.15-.13s.06,0,.06.05A.21.21,0,0,1,14.5,1Z"/><path class="cls-1" d="M14.85,1a.16.16,0,0,1,.25,0l-.13.1s-.05,0-.08,0-.05,0,0-.09Z"/><path class="cls-1" d="M13,1.31a1,1,0,0,1-.17,0s0,0-.06-.06l.15-.13s.06,0,.06.06A.2.2,0,0,1,13,1.31Z"/><path class="cls-1" d="M10.43,1.52l-.17-.15c0-.09.11-.05.17-.06S10.51,1.45,10.43,1.52Z"/><path class="cls-1" d="M5.29,3c.12-.07.12-.07.23,0s0,.13-.08.14Z"/><path class="cls-1" d="M17.57,3.74c.06,0,.11,0,.11.07a.88.88,0,0,1,0,.23c-.06,0-.11,0-.11-.07Z"/><path class="cls-1" d="M3.05,5.26V5s0,0,.06-.06l0,0a.45.45,0,0,1,0,.23S3.09,5.26,3.05,5.26Z"/><path class="cls-1" d="M20.24,7.47a.13.13,0,0,1,0,.21l-.12-.11s-.05,0,0-.06a.08.08,0,0,1,.1,0S20.21,7.47,20.24,7.47Z"/><path class="cls-1" d="M2.22,7.88H2.05s0,0-.06-.06l.15-.13s.07,0,.07.06A.28.28,0,0,1,2.22,7.88Z"/><path class="cls-1" d="M1.8,8.49,2,8.63c0,.1-.1.06-.16.07A.13.13,0,0,1,1.8,8.49Z"/><path class="cls-1" d="M19.34,9.35s0-.11,0-.13.08,0,.12.07l0,0,0,0A.15.15,0,0,1,19.34,9.35Z"/><path class="cls-1" d="M2.36,12.35c0-.14-.08-.24,0-.32s.05.1.06.17A.15.15,0,0,1,2.36,12.35Z"/><path class="cls-1" d="M1.57,12.73c-.08-.09-.08-.09,0-.19s.15,0,.16.06Z"/><path class="cls-1" d="M2.69,14.1a.17.17,0,0,1-.24,0l.13-.1a.06.06,0,0,1,.07,0s.05,0,0,.08Z"/><path class="cls-1" d="M3.4,14.15h0l-.11.1-.07-.05a.75.75,0,0,1,0-.15h.25A.18.18,0,0,0,3.4,14.15Z"/><path class="cls-1" d="M3.28,14.4c0,.06-.13.07-.12.16H3.11a.12.12,0,0,1,0-.17s.09-.05.14,0Z"/><path class="cls-1" d="M3.75,15.11a.16.16,0,0,1,.24,0l-.13.1s0,0-.07,0,0,0,0-.08S3.75,15.12,3.75,15.11Z"/><path class="cls-1" d="M4.58,15.36a.07.07,0,0,1,0,.09.62.62,0,0,1-.27,0l0,0s0,0,.07,0A.9.9,0,0,1,4.58,15.36Z"/><path class="cls-1" d="M4.23,16q-.11.12-.24,0l.13-.1s0,0,.07,0,.06,0,0,.09S4.23,16,4.23,16Z"/><path class="cls-1" d="M15.68,16s0,.07,0,.09-.1.06-.07.12-.12,0-.12-.07,0-.12.12-.12A.22.22,0,0,1,15.68,16Z"/><path class="cls-1" d="M7.59,16.77c.09.07.09.13,0,.21l-.12-.11s0,0,0-.07a.1.1,0,0,1,.11,0S7.57,16.77,7.59,16.77Z"/><path class="cls-1" d="M12.38,17h-.17c-.1-.08-.08-.09,0-.19C12.33,16.89,12.34,16.89,12.38,17Z"/><path class="cls-1" d="M12.61,17.08c0,.07,0,.1-.09.1s-.14,0-.14-.1V17c.08,0,.1,0,.14.06S12.57,17.09,12.61,17.08Z"/><path class="cls-1" d="M15.45,18.4c-.1,0-.1,0-.21-.17.11-.05.12-.05.21,0Z"/><path class="cls-1" d="M15.34,18.54c0-.06.13-.07.11-.15s0,0,.05,0a.11.11,0,0,1,.06.16.15.15,0,0,1-.22,0Z"/><path class="cls-1" d="M16.09,19.21l0,0s0,0-.05.06h-.23l0,0s0,0,0-.06Z"/><path class="cls-1" d="M12.4,17.88s.07,0,0,.06l0,0h-.23s-.05-.05,0-.07l0,0Z"/><path class="cls-1" d="M11.37,1.11c-.09-.06-.09-.13,0-.2A.11.11,0,0,1,11.37,1.11Z"/><path class="cls-1" d="M15.45,1.11h-.11a.75.75,0,0,1,0-.15.05.05,0,0,1,.08,0s0,0,0,0Z"/><path class="cls-1" d="M15.1,1.42a1,1,0,0,1-.17,0s-.06,0-.06-.06.05,0,.09,0l.1,0S15.11,1.37,15.1,1.42Z"/><path class="cls-1" d="M16.74,2.32a.07.07,0,0,1,0,.09s-.07,0-.07-.09v0l0,0a.07.07,0,0,1,.08,0S16.74,2.31,16.74,2.32Z"/><path class="cls-1" d="M16.73,2.6a.14.14,0,0,1-.19,0s0,0,0,0,.15-.05.19,0Z"/><path class="cls-1" d="M6,3C5.93,3,5.88,3,5.9,3a.09.09,0,0,1,.11,0h0s.06,0,0,.06,0,0,0,0Z"/><path class="cls-1" d="M17.93,3.69q.11-.12.24,0A.16.16,0,0,1,17.93,3.69Z"/><path class="cls-1" d="M3.63,4a.11.11,0,0,1,.11,0s0,.08-.11.08h0l0,0s0,0,0-.06Z"/><path class="cls-1" d="M2.93,4.34a.66.66,0,0,1,0-.14s0,0,.07,0a.08.08,0,0,1,0,.07.24.24,0,0,1,0,.09S3,4.35,2.93,4.34Z"/><path class="cls-1" d="M2.18,4.46c.06,0,.06.13,0,.17h0a.1.1,0,0,1,0-.17Z"/><path class="cls-1" d="M3.4,4.75c0,.06,0,.11-.07.08s-.05,0,0-.08v0s0,0,.08,0l0,0Z"/><path class="cls-1" d="M2.58,5c-.08,0-.13,0-.11-.06a.09.09,0,0,1,.11,0h0s.06,0,0,.06,0,0,0,0Z"/><path class="cls-1" d="M2.69,5.86H2.52a.1.1,0,0,1-.06-.05s0,0,.09,0l.1,0A.06.06,0,0,1,2.69,5.86Z"/><path class="cls-1" d="M1.47,6.66h0a.1.1,0,0,1,0-.17h0s0,0,0,0v.09Z"/><path class="cls-1" d="M20.64,9.14q-.11.12-.24,0A.16.16,0,0,1,20.64,9.14Z"/><path class="cls-1" d="M2,9.7a.09.09,0,0,1-.1,0,.1.1,0,0,1,0-.13s.05,0,.1,0Z"/><path class="cls-1" d="M19.89,10h0a.1.1,0,0,1,0-.16h0l0,0V10S19.9,10,19.89,10Z"/><path class="cls-1" d="M1.63,12.28a.15.15,0,0,1,.24,0A.16.16,0,0,1,1.63,12.28Z"/><path class="cls-1" d="M17.81,12.53H18a.1.1,0,0,1,.06.05.09.09,0,0,1-.09.05s-.06,0-.1,0S17.8,12.57,17.81,12.53Z"/><path class="cls-1" d="M2.33,13s0,.1,0,.14-.05.06-.06.06a.07.07,0,0,1,0-.08.37.37,0,0,1,0-.09A.08.08,0,0,1,2.33,13Z"/><path class="cls-1" d="M17.34,14c-.11,0-.14-.06-.1-.17l0,0h0l0,0Z"/><path class="cls-1" d="M17.46,14a.38.38,0,0,1,0-.15s.05-.05.06-.05.05,0,.05.08a.13.13,0,0,1,0,.08A.06.06,0,0,1,17.46,14Z"/><path class="cls-1" d="M3.16,14c-.11,0-.14,0-.1-.16s0,0,0,0h0l0,0Z"/><path class="cls-1" d="M18.34,14.45c-.09-.07-.09-.13,0-.21C18.42,14.32,18.42,14.38,18.34,14.45Z"/><path class="cls-1" d="M2.81,14.65a.48.48,0,0,1-.17,0,.08.08,0,0,1-.06-.05s0,0,.08,0l.11,0S2.82,14.62,2.81,14.65Z"/><path class="cls-1" d="M17.28,15.06q.13.09,0,.21Q17.15,15.15,17.28,15.06Z"/><path class="cls-1" d="M16,15.65h0a.11.11,0,0,1,0-.17h0l0,0v.1S16,15.64,16,15.65Z"/><path class="cls-1" d="M15.68,16c0-.09.07-.12.19-.08s0,0,0,0v0l0,0A.54.54,0,0,1,15.68,16Z"/><path class="cls-1" d="M16.45,16.07c.09.07.09.13,0,.21C16.37,16.2,16.37,16.14,16.45,16.07Z"/><path class="cls-1" d="M12,17s0,.06,0,.09-.08,0-.08-.09v0l0,0s.05,0,.07,0Z"/><path class="cls-1" d="M15.33,17.69a.1.1,0,0,1,.1,0s0,.07-.1.07h-.05l0,0s0,0,0-.06S15.31,17.69,15.33,17.69Z"/><path class="cls-1" d="M15.8,18.5a.43.43,0,0,1,.16,0,.1.1,0,0,1,.07.05.1.1,0,0,1-.09,0l-.1,0A.05.05,0,0,1,15.8,18.5Z"/><path class="cls-1" d="M15.64,19.33a.09.09,0,0,1,0,.16,0,0,0,0,1,0,0,.09.09,0,0,1,0-.16S15.63,19.33,15.64,19.33Z"/><path class="cls-1" d="M15.46,19.11a.16.16,0,0,1-.24,0A.15.15,0,0,1,15.46,19.11Z"/><path class="cls-1" d="M12.82,18.13a.16.16,0,0,1-.24,0Q12.72,18,12.82,18.13Z"/><path class="cls-1" d="M7.79,17.62c-.09-.07-.09-.13,0-.21C7.87,17.49,7.87,17.55,7.79,17.62Z"/><path class="cls-1" d="M12.24,0s0,.05,0,.07l0,0s0,0,0-.07Z"/><path class="cls-1" d="M5.72.53s0,0-.07,0l0,0s0,0,.08,0S5.71.52,5.72.53Z"/><path class="cls-1" d="M5.33,1s0,0-.08,0l0,0s0,0,.08,0Z"/><path class="cls-1" d="M14.46.59s-.05,0-.08,0l0,0s.05,0,.08,0Z"/><path class="cls-1" d="M3.91,1.07a.06.06,0,0,1-.07,0l0,0S3.93,1,4,1,3.93,1.06,3.91,1.07Z"/><path class="cls-1" d="M15,.71c0-.08,0-.09.11-.1S15.07.69,15,.71Z"/><path class="cls-1" d="M15,.75s0,0,0,0h0s-.05-.05,0-.07a.07.07,0,0,1,.09,0S15,.74,15,.75Z"/><path class="cls-1" d="M12.73.86s-.06.05-.08,0l0,0s.05,0,.08,0S12.71.85,12.73.86Z"/><path class="cls-1" d="M16.7,1a.06.06,0,0,1-.07,0l0,0a.07.07,0,0,1,.08,0Z"/><path class="cls-1" d="M14.61,1.07s0,0,0,0-.05,0-.06,0,0-.07.05-.05Z"/><path class="cls-1" d="M13.62,1.21s0,0,0,0a0,0,0,0,1,0,0s0,0,.07,0,0,0,0,.08S13.64,1.21,13.62,1.21Z"/><path class="cls-1" d="M16,1.21c-.09,0-.1,0-.11-.1S16,1.13,16,1.21Z"/><path class="cls-1" d="M16.23,1.12s0,0,0,0,0,.05-.05.05-.08,0,0,0S16.21,1.13,16.23,1.12Z"/><path class="cls-1" d="M17.38,1.19l0,0s.05,0,.08,0l0,0S17.4,1.2,17.38,1.19Z"/><path class="cls-1" d="M5.39,1.66s0,0,0-.07l0,0s0,0,0,.06Z"/><path class="cls-1" d="M9.05,1.28l0,0s0,0,0-.07l0,0S9.07,1.25,9.05,1.28Z"/><path class="cls-1" d="M11.69,1.28s0-.05,0-.07l0,0s0,.05,0,.07Z"/><path class="cls-1" d="M13.78,1.28s0,0,0,0-.05,0-.06,0,0-.07.05-.05S13.77,1.25,13.78,1.28Z"/><path class="cls-1" d="M14.41,1.28s0-.05,0-.07l0,0s0,.05,0,.07S14.42,1.29,14.41,1.28Z"/><path class="cls-1" d="M16.15,1.21c0,.08,0,.1-.07.09a.07.07,0,0,1,0-.09Z"/><path class="cls-1" d="M16.41,1.28s0-.05,0-.07l0,0s0,.05,0,.07Z"/><path class="cls-1" d="M14.23,1.4s-.05,0-.08,0l0,0s.05,0,.08,0Z"/><path class="cls-1" d="M10.1,1.49s0,0-.08,0l0,0s0,0,.08,0S10.11,1.48,10.1,1.49Z"/><path class="cls-1" d="M11.18,1.48l0,0s-.05-.05,0-.07l0,0S11.19,1.46,11.18,1.48Z"/><path class="cls-1" d="M12.13,1.48l0,0s-.05-.05,0-.07l0,0S12.14,1.46,12.13,1.48Z"/><path class="cls-1" d="M12.8,1.43s0,0,0,0,0,.06-.05.06-.08,0,0-.05S12.78,1.44,12.8,1.43Z"/><path class="cls-1" d="M8.62,1.58s0,0,0-.06l0,0s0,0,0,.06S8.63,1.59,8.62,1.58Z"/><path class="cls-1" d="M9.88,1.68l0,0s-.05,0,0-.06l0,0S9.89,1.66,9.88,1.68Z"/><path class="cls-1" d="M16.3,1.68s0,0,0-.07l0,0s0,0,0,.06Z"/><path class="cls-1" d="M16.59,1.64l0,0s-.05,0-.08,0l0,0S16.56,1.63,16.59,1.64Z"/><path class="cls-1" d="M16,1.74l0,0s0,0-.08,0l0,0S16,1.72,16,1.74Z"/><path class="cls-1" d="M8,1.89l0,0s-.05,0,0-.06l0,0S8,1.87,8,1.89Z"/><path class="cls-1" d="M16.23,1.83l0,0s-.05,0-.08,0l0,0S16.21,1.82,16.23,1.83Z"/><path class="cls-1" d="M16.84,2.08l0,0s-.06-.05,0-.07l0,0S16.86,2.06,16.84,2.08Z"/><path class="cls-1" d="M4.6,2.15l0,0s.05,0,0,.06l0,0S4.59,2.18,4.6,2.15Z"/><path class="cls-1" d="M16.47,2.2s0,0-.07,0l0,0a.06.06,0,0,1,.07,0Z"/><path class="cls-1" d="M4.13,1.68s0,0-.08,0l0,0s0,0,.08,0S4.14,1.67,4.13,1.68Z"/><path class="cls-1" d="M4,2.34s0,0,.08,0l0,0S4,2.4,4,2.37Z"/><path class="cls-1" d="M16,2.42c0-.07,0-.1.08-.08s.05,0,0,.08Z"/><path class="cls-1" d="M7.85,2.51a.06.06,0,0,1-.07,0l0,0s0,0,.07,0Z"/><path class="cls-1" d="M2.83,2.08s-.05,0-.08,0l0,0s0,0,.08,0S2.84,2.07,2.83,2.08Z"/><path class="cls-1" d="M1.47,2.74l0,0s-.05,0-.07,0l0,0S1.44,2.73,1.47,2.74Z"/><path class="cls-1" d="M16.82,2.74s0,0,0,0,0,.06-.05.06-.08,0-.06-.05S16.79,2.75,16.82,2.74Z"/><path class="cls-1" d="M2.26,2.91l0,0a.07.07,0,0,1,.08,0l0,0A.06.06,0,0,1,2.26,2.91Z"/><path class="cls-1" d="M5,2.86l0,0s0,0,0,.06l0,0S5,2.88,5,2.86Z"/><path class="cls-1" d="M6.38,2.86l0,0s0,0,0,.06l0,0S6.36,2.88,6.38,2.86Z"/><path class="cls-1" d="M2.79,3s0,0,0,.06l0,0s0,0,0-.06S2.78,3,2.79,3Z"/><path class="cls-1" d="M17.63,3.23s.05,0,0,.07l0,0s-.05-.05,0-.07Z"/><path class="cls-1" d="M3.46,3.34s0,0,0,.06l0,0s-.06,0,0-.07S3.44,3.35,3.46,3.34Z"/><path class="cls-1" d="M4.27,3.35s.05,0,.08,0l0,0s0,0-.08,0Z"/><path class="cls-1" d="M2,3.5s0,0,0-.06l0,0s0,0,0,.07Z"/><path class="cls-1" d="M3.19,3.47l0,0s0,0,0,.06l0,0S3.17,3.49,3.19,3.47Z"/><path class="cls-1" d="M4.93,3.48a.06.06,0,0,1-.07,0l0,0s0,0,.08,0Z"/><path class="cls-1" d="M17.29,3.45l0,0s0,.06,0,.06-.08,0-.05,0A.09.09,0,0,1,17.29,3.45Z"/><path class="cls-1" d="M3.33,3.93l0,0s0,0,.08,0l0,0A.06.06,0,0,1,3.33,3.93Z"/><path class="cls-1" d="M3.38,4.11l0,0s0-.05,0-.07l0,0S3.39,4.08,3.38,4.11Z"/><path class="cls-1" d="M2.93,4.39s0,0,0,0h0s0,0,0-.07,0,0,.09,0S2.93,4.38,2.93,4.39Z"/><path class="cls-1" d="M20,4.43l0,0s0-.05.08,0l0,0S20,4.44,20,4.43Z"/><path class="cls-1" d="M1.67,4.63l0,0s.05,0,.08,0l0,0S1.7,4.64,1.67,4.63Z"/><path class="cls-1" d="M19.85,4.66s0,0,.08,0l0,0s-.05,0-.08,0A.08.08,0,0,0,19.85,4.66Z"/><path class="cls-1" d="M.4,5.23a.06.06,0,0,1-.08,0l0,0a.06.06,0,0,1,.07,0Z"/><path class="cls-1" d="M2.83,4.81s0,0,0-.06l0,0s0,0,0,.06Z"/><path class="cls-1" d="M20.39,4.92l0,0s-.05,0,0-.06l0,0S20.4,4.9,20.39,4.92Z"/><path class="cls-1" d="M18.73,5l0,0s-.05,0,0-.06l0,0S18.74,5,18.73,5Z"/><path class="cls-1" d="M3.05,5.3l0,0H3s-.05,0,0-.07,0,0,.08,0S3.05,5.28,3.05,5.3Z"/><path class="cls-1" d="M2.24,5.93s0,0,0-.07l0,0s0,.05,0,.07Z"/><path class="cls-1" d="M1.43,6.05l0,0s.05,0,.08,0l0,0A.05.05,0,0,1,1.43,6.05Z"/><path class="cls-1" d="M1.56,6.18a.06.06,0,0,1,.07,0l0,0a.06.06,0,0,1-.07,0S1.54,6.19,1.56,6.18Z"/><path class="cls-1" d="M19.78,6.29l0,0a.06.06,0,0,1-.07,0l0,0S19.75,6.27,19.78,6.29Z"/><path class="cls-1" d="M19.66,6.48l0,0s-.05,0-.08,0l0,0S19.64,6.47,19.66,6.48Z"/><path class="cls-1" d="M2.55,6.6s0,.05,0,.07l0,0s0,0,0-.06Z"/><path class="cls-1" d="M.11,6.94s0,0,0-.07l0,0s0,0,0,.06Z"/><path class="cls-1" d="M20,7.21s0,0,0,.07l0,0s0,0,0-.07S20,7.2,20,7.21Z"/><path class="cls-1" d="M1.63,7.73a.06.06,0,0,1-.07,0l0,0s.05-.05.07,0Z"/><path class="cls-1" d="M1.85,8l0,0s-.05,0,0-.07l0,0S1.86,7.92,1.85,8Z"/><path class="cls-1" d="M1.49,8.25l0,0s-.05,0,0-.06l0,0S1.5,8.23,1.49,8.25Z"/><path class="cls-1" d="M1.13,8.65l0,0s-.05,0,0-.07l0,0S1.15,8.63,1.13,8.65Z"/><path class="cls-1" d="M20,8.62s0,0,0,.07l0,0s0,0,0-.06S20,8.61,20,8.62Z"/><path class="cls-1" d="M20.31,8.65s0,0,0-.06l0,0s0,0,0,.07Z"/><path class="cls-1" d="M1.53,8.86s0,0,0-.06l0,0s0,0,0,.06Z"/><path class="cls-1" d="M20.92,8.81s0,0,.08,0l0,0a.06.06,0,0,1-.07,0Z"/><path class="cls-1" d="M1.81,9l0,0a0,0,0,0,1,0,0s.05,0,.08,0,0,0,0,.08S1.82,9,1.81,9Z"/><path class="cls-1" d="M.4,9s0,0,0,.07l0,0s-.06,0,0-.07S.37,9,.4,9Z"/><path class="cls-1" d="M2,9.06l0,0-.07,0c0-.05,0-.07.06-.05S2,9,2,9.06Z"/><path class="cls-1" d="M1.58,10.41l0,0s0,0,0,0,.05,0,.08,0,0,0,0,.08Z"/><path class="cls-1" d="M1.63,10.51v-.1c.09,0,.1,0,.12.1Z"/><path class="cls-1" d="M1.63,10.55s0,0,0,0,0,0,0,0-.06,0,0-.07.05,0,.09,0A.06.06,0,0,1,1.63,10.55Z"/><path class="cls-1" d="M.52,10.69a.06.06,0,0,1-.07,0l0,0a.07.07,0,0,1,.08,0Z"/><path class="cls-1" d="M18.9,10.88s0,0,0-.07l0,0s0,0,0,.06Z"/><path class="cls-1" d="M0,9.76s0,0,.07,0l0,0s0,0-.08,0Z"/><path class="cls-1" d="M18.76,11h-.12c0-.08,0-.1.08-.09A.07.07,0,0,1,18.76,11Z"/><path class="cls-1" d="M18.86,11.08l0,0s-.06,0-.06,0,0-.06,0,0A.1.1,0,0,1,18.86,11.08Z"/><path class="cls-1" d="M18.86,11.28l0,0s-.05-.05,0-.07l0,0S18.87,11.26,18.86,11.28Z"/><path class="cls-1" d="M1.49,11.38l0,0s-.05,0,0-.06l0,0S1.5,11.36,1.49,11.38Z"/><path class="cls-1" d="M18.74,11.48s0,0,0,0-.06,0-.06,0,0-.07.05-.05A.13.13,0,0,1,18.74,11.48Z"/><path class="cls-1" d="M1.31,11.71l0,0s.05,0,.07,0l0,0S1.34,11.72,1.31,11.71Z"/><path class="cls-1" d="M1.61,12s0,0,0,.07l0,0s0,0,0-.06Z"/><path class="cls-1" d="M2,12.16l0,0s0,.05,0,.07l0,0S2,12.19,2,12.16Z"/><path class="cls-1" d="M1.47,12.42s-.05,0-.08,0l0,0s.05,0,.07,0S1.48,12.41,1.47,12.42Z"/><path class="cls-1" d="M18.16,12.39l0,0a.12.12,0,0,1-.07-.05s0-.06.06,0Z"/><path class="cls-1" d="M19.33,12.57s0,0,0,.07l0,0s0,0,0-.06S19.32,12.55,19.33,12.57Z"/><path class="cls-1" d="M19.6,12.6s0,0,0-.06l0,0s0,0,0,.07Z"/><path class="cls-1" d="M18.42,12.9s0-.05,0-.07l0,0s0,0,0,.06S18.44,12.91,18.42,12.9Z"/><path class="cls-1" d="M1.82,13a.06.06,0,0,1-.07,0l0,0s.05,0,.07,0Z"/><path class="cls-1" d="M18.14,13l0,0s-.06,0,0-.07l0,0S18.16,13,18.14,13Z"/><path class="cls-1" d="M17.33,13.61l0,0s-.06,0-.06,0,0-.07.05,0S17.32,13.59,17.33,13.61Z"/><path class="cls-1" d="M18.21,13.63l0,0a.06.06,0,0,1,.08,0l0,0A.06.06,0,0,1,18.21,13.63Z"/><path class="cls-1" d="M17.79,13.78s0,.05,0,.07l0,0s0,0,0-.06Z"/><path class="cls-1" d="M19.27,13.83l0,0a.06.06,0,0,1,.07,0l0,0S19.29,13.84,19.27,13.83Z"/><path class="cls-1" d="M17.34,14h.12c0,.07,0,.09-.08.08S17.33,14,17.34,14Z"/><path class="cls-1" d="M17.74,14l0,0a.06.06,0,0,1,.07,0l0,0A.06.06,0,0,1,17.74,14Z"/><path class="cls-1" d="M2.81,14.31s-.06,0-.08,0l0,0s.05-.05.08,0Z"/><path class="cls-1" d="M2.37,14.53l0,0s0,0,.08,0l0,0A.06.06,0,0,1,2.37,14.53Z"/><path class="cls-1" d="M2.92,14.72l0,0s-.06,0-.06,0,0-.07.05,0S2.91,14.7,2.92,14.72Z"/><path class="cls-1" d="M16.35,14.85s0,0,0,0a0,0,0,0,1,0,0s.05,0,.07,0,.05.05,0,.08S16.36,14.86,16.35,14.85Z"/><path class="cls-1" d="M3.37,14.94s-.05,0-.08,0l0,0s0,0,.07,0Z"/><path class="cls-1" d="M16.5,14.92l0,0s-.05,0-.06,0,0-.07.05-.05A.1.1,0,0,1,16.5,14.92Z"/><path class="cls-1" d="M3.62,15s0,0,0,.07l0,0s0,0,0-.07Z"/><path class="cls-1" d="M16.36,15.55s-.05,0-.08,0l0,0s.05,0,.08,0Z"/><path class="cls-1" d="M4.65,15.57l0,0s0,.06-.05.06-.08,0,0,0S4.63,15.58,4.65,15.57Z"/><path class="cls-1" d="M4.46,15.77c0-.08,0-.09.12-.1S4.55,15.76,4.46,15.77Z"/><path class="cls-1" d="M4.46,15.81s0,0,0,0,0,0,0,0,0,0,0-.07,0,0,.09,0S4.46,15.8,4.46,15.81Z"/><path class="cls-1" d="M4.93,15.81l0,0,0,0s-.05,0,0-.07,0,0,.09,0S4.93,15.8,4.93,15.81Z"/><path class="cls-1" d="M17.14,16.08s.05,0,.07,0l0,0a.06.06,0,0,1-.07,0Z"/><path class="cls-1" d="M17.6,16.34s0-.05,0-.07l0,0s0,.05,0,.07Z"/><path class="cls-1" d="M4.83,16.54s0,0,0-.06l0,0s0,0,0,.07Z"/><path class="cls-1" d="M13.21,16.52s-.05,0-.08,0l0,0s.06,0,.08,0A.07.07,0,0,0,13.21,16.52Z"/><path class="cls-1" d="M16.26,16.54l0,0s0,0,0-.07l0,0S16.27,16.52,16.26,16.54Z"/><path class="cls-1" d="M17.3,16.76a.06.06,0,0,1-.07,0l0,0s.06,0,.08,0Z"/><path class="cls-1" d="M7,16.79l0,0a.06.06,0,0,1-.07,0l0,0A.06.06,0,0,1,7,16.79Z"/><path class="cls-1" d="M16.26,16.82s0,0,0,.06l0,0s0-.05,0-.07S16.24,16.8,16.26,16.82Z"/><path class="cls-1" d="M8.19,17s0,0,0,0a0,0,0,0,1,0,0s.06,0,.08,0,0,.05,0,.08S8.21,17,8.19,17Z"/><path class="cls-1" d="M8.35,17s0,0,0,0-.05,0-.06,0,0-.06.05,0S8.34,17,8.35,17Z"/><path class="cls-1" d="M12.69,17l0,0s0,.05-.06.06-.07,0-.05,0S12.66,17,12.69,17Z"/><path class="cls-1" d="M16.08,17a.06.06,0,0,1,.07,0l0,0s-.05,0-.08,0S16.07,17,16.08,17Z"/><path class="cls-1" d="M15.79,17.11s0,0,0,.07l0,0s0,0,0-.06Z"/><path class="cls-1" d="M17.35,17.11l0,0s.05,0,0,.06l0,0S17.34,17.13,17.35,17.11Z"/><path class="cls-1" d="M16.65,17.22l0,0s0,0,0,.06l0,0S16.64,17.24,16.65,17.22Z"/><path class="cls-1" d="M10.9,17.38l0,0a0,0,0,0,1,0,0s.05-.05.08,0,.05,0,0,.07Z"/><path class="cls-1" d="M17.83,17.35s0,0,0-.07l0,0s0,0,0,.06Z"/><path class="cls-1" d="M17,17.45s0-.05,0-.07l0,0s0,0,0,.06Z"/><path class="cls-1" d="M18.18,15.36s0,0,0-.07l0,0s0,0,0,.07Z"/><path class="cls-1" d="M12.51,17.55s0-.05,0-.07l0,0s0,0,0,.07S12.53,17.57,12.51,17.55Z"/><path class="cls-1" d="M11.7,17.6a.07.07,0,0,1,.08,0l0,0s-.05,0-.07,0Z"/><path class="cls-1" d="M15.45,17.94a.06.06,0,0,1-.07,0l0,0a.07.07,0,0,1,.08,0Z"/><path class="cls-1" d="M16.23,18s-.05,0-.08,0l0,0s0,0,.08,0Z"/><path class="cls-1" d="M17.29,17.9l0,0a.12.12,0,0,1,0,.05c-.05,0-.08,0-.05,0Z"/><path class="cls-1" d="M5,17S5,17,5,17l0,0s0,0,0,.07Z"/><path class="cls-1" d="M10.83,17.71l0,0s0,0,0-.06l0,0S10.84,17.69,10.83,17.71Z"/><path class="cls-1" d="M17.21,18s0,0,0,0h0s-.05,0,0-.06.05-.05.09,0S17.23,18,17.21,18Z"/><path class="cls-1" d="M15.72,18.28l0,0s.05,0,.08,0l0,0S15.75,18.29,15.72,18.28Z"/><path class="cls-1" d="M16.77,18.43l0,0s.05,0,0,.06l0,0S16.75,18.45,16.77,18.43Z"/><path class="cls-1" d="M17.2,18.56l0,0s-.05,0,0-.06l0,0S17.21,18.54,17.2,18.56Z"/><path class="cls-1" d="M15.31,18.77l0,0s-.06,0,0-.06l0,0S15.33,18.75,15.31,18.77Z"/><path class="cls-1" d="M15.79,18.83s0,.05,0,.07l0,0s0-.05,0-.07Z"/><path class="cls-1" d="M4.55,16.77s0,0,.08,0l0,0a.06.06,0,0,1-.07,0Z"/><path class="cls-1" d="M16.52,19.37s0,0,0-.07l0,0s0,0,0,.06Z"/><path class="cls-1" d="M10.4,18.54s-.05,0-.08,0l0,0s.05,0,.08,0Z"/><path class="cls-1" d="M13.07,17.83l0,0s0-.05,0-.07l0,0S13.08,17.81,13.07,17.83Z"/><path class="cls-1" d="M15.19,19.88l0,0s-.05,0,0-.06l0,0S15.2,19.85,15.19,19.88Z"/><path class="cls-1" d="M10.59,18.71l0,0s0,0,.08,0l0,0S10.63,18.72,10.59,18.71Z"/><path class="cls-1" d="M10.65,19s0,0,0,.06l0,0s0,0,0-.07Z"/><path class="cls-1" d="M11,19.11l0,0A.06.06,0,0,1,11,19l0,0A.06.06,0,0,1,11,19.11Z"/><path class="cls-1" d="M10.53,20.84s.05,0,.08,0l0,0s-.05,0-.08,0S10.52,20.85,10.53,20.84Z"/><path class="cls-1" d="M15.75,18.5s0,0,0,0a0,0,0,0,1,0,0s.05,0,.07,0,.05,0,0,.07S15.76,18.5,15.75,18.5Z"/></svg>