<svg id="Layer_1" data-name="Layer 1" xmlns="http://www.w3.org/2000/svg" viewBox="0 0 270 94"><defs><style>.cls-1{fill:#fff;}</style></defs><path class="cls-1" d="M.69,0c1,1.49,2-.94,1.57,1.85-.08.28.33-.42.63-.35a1.62,1.62,0,0,1,.95.74c.3.46.24.82-.53,1a.56.56,0,0,1-.49-.07,1.78,1.78,0,0,1-.62-.63,1.35,1.35,0,0,1-.08-.24,1.46,1.46,0,0,0-.54-.88C.84,1,.37,1.36.11,2.15a2.07,2.07,0,0,0,1.2,2.66,9.83,9.83,0,0,0,2.1.74c1,.21,2.18-.69,3.13-1a.81.81,0,0,1,.46,0C8.22,5,8.34,6.71,9.59,7A2.45,2.45,0,0,1,11.12,8.1l.5.83a4.88,4.88,0,0,1,.54,3.83c-.14.47-.28.94-.41,1.4a3.81,3.81,0,0,0,.17,2.89,5.92,5.92,0,0,0,.68,1c.77,1,2.43,1.09,2.77-.08,0-.14.07-.28.1-.42A5.66,5.66,0,0,0,15,13.74l-.1-.17a1.93,1.93,0,0,1-.14-1.45,2.36,2.36,0,0,1,1.31-1.46c1.29-.59,2.53-1.24,3.8-1.85.91-.43,2.67-.19,2.4.73-.62,3-1.47,5.93-2.32,8.86-.14.49.88.57,1.38.33A17.16,17.16,0,0,1,23.22,18c.42-.2.87-.26,1.15-.62a1.65,1.65,0,0,1,.88-.55c.6-.17.91.19.95,1a1.18,1.18,0,0,0,.89,1.13,1.14,1.14,0,0,0,1.39-.74c.15-.52.3-1.06.44-1.53.06-.19.34-.33.62-.47s.57-.28.73,0l0,0a2.38,2.38,0,0,1,.48,1.59,1.61,1.61,0,0,1-.64,1.34c-1,.67-2.66,1.15-1.79,2s2.27.71,2.81,1.7a1.49,1.49,0,0,1,0,1.1,2.92,2.92,0,0,1-1.32,1.57c-.86.53-1.26,1.71-.29,2.06a2.63,2.63,0,0,0,.5.14,3.74,3.74,0,0,0,2.61-.37c.49-.27,1-.57,1.59-.88a2.63,2.63,0,0,0,1.58-1.81,3.73,3.73,0,0,1,.57-1.84c.31-.44.82-.93,1.36-.8a.63.63,0,0,1,.28.23,1.35,1.35,0,0,1,.22,1.07A4.33,4.33,0,0,0,38.76,26c.14.21.28.43.41.66a4.35,4.35,0,0,0,2.16,2,30.19,30.19,0,0,0,3,.79A5,5,0,0,1,47.05,31a15,15,0,0,1,1.22,1.89,2.12,2.12,0,0,1,.3.94,2,2,0,0,0,2.9,1.43l.71-.32a2.86,2.86,0,0,1,3.52.91l1,1.54c.24.36.54.75,1,.74a1.19,1.19,0,0,0,.32-.05,1.08,1.08,0,0,0,.79-1c0-.24,0-.54.09-.78a1.19,1.19,0,0,1,.24-.56,1,1,0,0,1,1.65,0,2.25,2.25,0,0,1,.06,1.58c-.29,1-.51,1.76-.8,2.74a8.59,8.59,0,0,0-.21.84,2.36,2.36,0,0,0,.48,1.79c1,1.46,3.15,2.09,3.45.4l.09-.55a3.54,3.54,0,0,1,1.51-2,3.29,3.29,0,0,1,.44-.28c2-1.17,4.23-2.09,6.49-3.21a3.58,3.58,0,0,1,.92-.38,1.17,1.17,0,0,1,1.26.88,1.13,1.13,0,0,1-.1.86,2.37,2.37,0,0,0-.17.36,1.37,1.37,0,0,1-.75.85,5.42,5.42,0,0,0-2.11,1.62,5.57,5.57,0,0,1-1.89,1.91,3,3,0,0,0-1.13.88,5,5,0,0,0-.77,2.52c0,.7-.29,1.83.44,2l3.51.87a1.76,1.76,0,0,0,2.13-1.14,1.84,1.84,0,0,0,.06-.41c.06-.69.41-1,1.12-1.19.51-.08.85.42,1.36,1.18.32.47.91.87,1.44.61s.72-.87.93-1.42c.41-1.08,1.69-.63,2.41.3a3.23,3.23,0,0,0,1.7,1.07L88.94,50c1,.24,2.16-.63,3.11-.91a3.35,3.35,0,0,1,2.71.68,1.39,1.39,0,0,1,.5.88c0,.46.2,1.29.63,1.07,1.41-.7,2.76-1.2,4-2,.44-.22-.17-.88-.66-1L98,48.45a2.1,2.1,0,0,1-1.28-.88c-.4-.62-.47-.87-.32-1.24s.29-.71.47-1c.29-.55.72-.67,1.53-.62a3.59,3.59,0,0,1,1,.18,2.6,2.6,0,0,1,1.33.86,1.38,1.38,0,0,1,.17,1.25l-.24.81c-.17.6.47.83.82,1.35.22.33.44.66.68,1a2.11,2.11,0,0,0,2.65.55l.58-.28a1.44,1.44,0,0,0,.66-2.06,1.06,1.06,0,0,1,.59-1.64,2.15,2.15,0,0,1,2.29.94,9.61,9.61,0,0,0,1.85,1.82c.67.46,1.64.63,2,1.35a1.67,1.67,0,0,1,.13.89c-.06.44-.31.77-.29,1.22,0,.92,1.25,1.38,2.22,1.62l4.39,1.09a1,1,0,0,0,1.23-.67.57.57,0,0,0,0-.48,1.88,1.88,0,0,0-1.11-.71L118,53.42c-1.36-.33-2.93-1.15-2.79-2.45a6.5,6.5,0,0,1,.52-1.68c.41-1,1.74-2.49,2-1.44a1.09,1.09,0,0,1,0,.26c0,.65-.34,1.18-.06,1.88a2.59,2.59,0,0,0,.19.52c.29.68,1.14,1,1.59.41a9.14,9.14,0,0,0,.63-1.25c.77-1.41,1-1.36,2.55-1l1.7.42a3.26,3.26,0,0,1,1.91,1.32c1.41,1.81,2.08,2,4.23,1.26,1.17-.34,2.32.31,2,1.41,0,0,0,.08,0,.12-.34,1.18,0,1.68,1.3,2.21a2.32,2.32,0,0,0,2.81-.56,9.25,9.25,0,0,0,.61-1.5.82.82,0,0,1,.23-.32,2.16,2.16,0,0,1,1.65-.28c.85.2,1.7.42,2.63.65a2.15,2.15,0,0,1,1.28.73c.73.92,2,1.61,2.54.57a3.83,3.83,0,0,1,.94-1.51,2.05,2.05,0,0,1,1.72-.07c.76.19,1.62.5,1.74,1.21,0,0,0,.1,0,.15.16,2,1.82,2.41,3.75,1.46l2.72-1.34a1.64,1.64,0,0,0,.84-1c.1-.34.19-.67.29-1,.15-.53-.4-1-.81-1.44a6.58,6.58,0,0,0-1-.8c-.37-.22-.26-.6-.18-.88a1.8,1.8,0,0,1,.49-.83,1,1,0,0,1,1.42.28,1.46,1.46,0,0,1,.2.36,1.26,1.26,0,0,1,0,.61,6.06,6.06,0,0,1-.33,1.19c-.22.58.4.81.75,1.33a9.52,9.52,0,0,0,4.69,3l2.86.71a2.14,2.14,0,0,0,1.12-.11c.31-.13.13-.33,0-.62a2.76,2.76,0,0,0-.32-.62,1.34,1.34,0,0,0-.63-.35c-.81-.29-1.83-.39-2.82-.63a4,4,0,0,1-.52-.18c-.84-.39-.63-1.42-.47-2.27.05-.32.11-.64.19-.95.36-1.4,2.29-1.44,3.13-.23a11.09,11.09,0,0,1,.63,1,2.53,2.53,0,0,0,3.17.85h0a2.23,2.23,0,0,1,1.42-.1,2.57,2.57,0,0,0,3.11-1.61c0-.11.07-.22.1-.32s.34-.34.62-.48.56-.27.73,0c0,0,0,0,0,0a2.32,2.32,0,0,1,.48,1.59,1.59,1.59,0,0,1-.6,1.31c-1,.72-2.92,1.4-1.82,2,.62.33,1.29.64,1.89,1,1.55,1,2.18.87,4,1.32a2.13,2.13,0,0,0,2-.14,2,2,0,0,0,.9-2.29c-.56-1-1.26-2-1.9-3-.44-.67-.28-2,.57-1.94a1.66,1.66,0,0,1,.22,0c.22,0,.44.06.65.1,2,.39,3,2.79,5,3h.06c1,0,1.17-.7,1.24-1.37a2.54,2.54,0,0,0-.31-1.5,1.94,1.94,0,0,1,.86-2.71l.05,0c1-.48,2.36-.21,2.45.8a11.78,11.78,0,0,1-.79,2.74c-.27.92,1.54,1.24,2.45.79l.94-.46a3,3,0,0,0,1.35-1.51.37.37,0,0,1,0-.11,2.07,2.07,0,0,1,1-.9,5.06,5.06,0,0,0,.46-.24c1-.53.49-2.08.25-3.14,0-.09,1.7-1.32,1.8-.17-.05-.64-.15.21,0,.65.22.9-.34,1.18-1.13.56l0,0c-.63-.54.87-1.9,1.21-1.17a4.52,4.52,0,0,1,.64,1.66l.75,1.11a1.9,1.9,0,0,0,2.21.53,1.65,1.65,0,0,1,1.87.46l0,.06c.56.63,1.61.89,2.05.18a7.72,7.72,0,0,0,.65-2.22c-.8-3.09-.9-4.42-.18-4.77l.18-.08c1.44-.69,0-2.69,1.07-1.56a2.32,2.32,0,0,0,1.71.8,2,2,0,0,0,1-.24l.08,0c1.13-.56,2.93-.76,3.7.2a2.78,2.78,0,0,0,1.25.83c.76.25,1.61.45,2.2-.34.9-1.45-.53-2.43,1.25-2.17a3.2,3.2,0,0,0,1.38,0c.51-.15,1.44,1.07,1.58.59.26-.9.09-.37-.54-1.1-.45-.53-.53-.77-.95-1.3-.6-.74,1.08-.63,1.44-1.49l.09-.21a2,2,0,0,1,.86-.8c1.1-.63,2.75-.37,2.07-1.39l-1-1.49c-.17-.25-.68-.17-.9-.23a1,1,0,0,1-1.07,1.2,4.13,4.13,0,0,1-1,0,3.69,3.69,0,0,1-1.77-.4l0,0c-.52-.38-.33-1.06.26-1.34a2.26,2.26,0,0,1,1.34-.07c.77.16,1.57.48,2.27.65.06-1,.9-1.45,1.86-1.42,1.55,0,3.75.34,4.15-1v0c.06-.2.34-.34.62-.48s.57-.28.74,0a1.55,1.55,0,0,0,.13.17,1.71,1.71,0,0,1,.38,1.27c-.05,1.18-.48,1.67-1.53,1.78-.65.08-1.76.48-1.41,1,.39.77.9.68,1.4,1.36s1.65,1.15,2.14.55a1.73,1.73,0,0,0,.16-.3,7,7,0,0,0,.7-1.77,1.93,1.93,0,0,1,.28-.6c.42-.58,1.26-.19,1.71.38a1.49,1.49,0,0,0,2.37.26c.31-.44.56-.92.88-1.33.64-.83,1.36-2.18.83-3.07a1.37,1.37,0,0,1-.15-1.08c.15-.53.31-1.06.46-1.59a3.68,3.68,0,0,1,1.69-2.08,3.64,3.64,0,0,0,1.69-2.08c.66-2.29,1.33-4.58,2-6.86.17-.59.62-1.32,1.29-1.15a2,2,0,0,1,.77.85,1.46,1.46,0,0,1,.05.83c0,.23-.08.46-.1.69-.08,1,1.22,1.2,2.13.66l.49-.3a1.72,1.72,0,0,0,.67-2.26,1,1,0,0,1,.31-1.3c.82-.39,1.86.07,2.8,0s1.36-.92,1.59-1.73c.12-.4.23-.8.35-1.22.23-.79.56-1.61,1.44-1.53,1.42.12,2.8,1.37,4.06.75l.49-.25a6.14,6.14,0,0,0,2.89-2.51c.73-1.24,5.89-.62,6.61-2.39.24-.92.54-2,0-2.81-.42-.62-.76-.5-.57-1.21Zm217.4,37.44c-1,.51-1.37-.88-1.07-1.92.35-1.23.39-1,.74-2.19,0-.09.16-.16.33-.22a1.3,1.3,0,0,1,1-.15c.67.27.61,1.23.42,1.89-.41,1.42-.15.75-.57,2.17C218.88,37.22,218.37,37.3,218.09,37.44ZM7.41,1.05C8.68.41,10.6.88,10.12,2.15a2.39,2.39,0,0,1-.28.48,2.87,2.87,0,0,1-3,.58A2.09,2.09,0,0,1,6.39,3C5.57,2.53,6.54,1.49,7.41,1.05Zm142.8,51.4a1.06,1.06,0,0,0,.59-2C149.39,49.94,148.73,52.2,150.21,52.45Zm-14.73-2.58c0-.33.39-.54.67-.72a.61.61,0,0,1,.4-.14l2,.51c.23,0,.34.5.51.75s-.32.84-.81,1a2.63,2.63,0,0,1-2.69-1.07A.86.86,0,0,1,135.48,49.87Zm96.74-24.38a.54.54,0,0,1,.2-.85.82.82,0,0,1,1.12.3.69.69,0,0,1,.12.31.66.66,0,0,1-.33.54A.81.81,0,0,1,232.22,25.49ZM113.5,45.65a.7.7,0,0,1-.34,1,.79.79,0,0,1-.26.08.87.87,0,0,1-.66-.29c-.3-.32-.1-.79.31-1l.27-.17C113,45.2,113.25,45.31,113.5,45.65ZM74.36,44a.73.73,0,0,1,.27-.22.82.82,0,0,1,1.13.27.62.62,0,0,1,0,.62.74.74,0,0,1-.28.21.82.82,0,0,1-1.12-.26A.62.62,0,0,1,74.36,44ZM51.42,30.55a.71.71,0,0,1,.27-.21.82.82,0,0,1,1.13.27.62.62,0,0,1,0,.62.74.74,0,0,1-.28.21.81.81,0,0,1-1.12-.27A.62.62,0,0,1,51.42,30.55ZM33.64,20.6a.64.64,0,0,1-.27.21.83.83,0,0,1-1.13-.26.62.62,0,0,1,0-.62.64.64,0,0,1,.27-.21.8.8,0,0,1,1.12.26A.6.6,0,0,1,33.64,20.6ZM15.24,5.78a.63.63,0,0,1,.12.31.66.66,0,0,1-.32.54.82.82,0,0,1-1.12-.29A.63.63,0,0,1,13.8,6a.61.61,0,0,1,.32-.54A.82.82,0,0,1,15.24,5.78Z"/><path class="cls-1" d="M22.59,28.49A1.75,1.75,0,0,0,25,27.63a7,7,0,0,0,.54-1.55,4,4,0,0,0-.54-3c-.1-.17-.2-.33-.28-.49a1.56,1.56,0,0,1-.1-1.2l.28-1a1,1,0,0,0-.74-1.19,1.07,1.07,0,0,0-1.29.69c-.21.75-.42,1.46-.63,2.2a3.37,3.37,0,0,0,.34,2.59,3.36,3.36,0,0,1,.33,2.59C22.83,27.67,22.72,28.06,22.59,28.49Z"/><path class="cls-1" d="M172.58,59.84c.48-1.67.55-3.91-1.3-4.12h-.16c-1.41-.15-1.92-.06-2.26,1.11-.44,1.51,1.57,2.5,3.21,2.9Z"/><path class="cls-1" d="M143.28,66.8A1.82,1.82,0,0,0,146,67a.74.74,0,0,0,.16-.7A5.84,5.84,0,0,0,145,64a1.87,1.87,0,0,0-2.74-.12.77.77,0,0,0-.14.77A7,7,0,0,0,143.28,66.8Z"/><path class="cls-1" d="M123.21,54c-.22.2-.4.6-.24.83.28.42.57.87.87,1.31a2.22,2.22,0,0,0,2.71.63,2,2,0,0,1,.7-.15c.22,0,.44,0,.65,0,.49,0,.8,0,.89-.21s-.12-.78-.32-1.1-.33-.26-.55-.36a10.32,10.32,0,0,0-4.38-1.06C123.39,53.91,123.32,53.88,123.21,54Z"/><path class="cls-1" d="M54.32,42.41a2,2,0,0,0,0-1.48,6.71,6.71,0,0,0-.73-1.21c-.7-1-2.5-1.58-2.77-.41a1.9,1.9,0,0,0,.37,1.56,15.1,15.1,0,0,1,.93,1.66c.79,1.46,1,1.51,1.75.64A2.09,2.09,0,0,0,54.32,42.41Z"/><path class="cls-1" d="M51.44,45.09a1.72,1.72,0,0,0-1.36-2l-.63-.15a1.67,1.67,0,0,0-1.06,0,1.87,1.87,0,0,0-1.23,1.72c-.11,1.23,0,1.68,1.36,2a2.37,2.37,0,0,0,1.58,0A2,2,0,0,0,51.44,45.09Z"/><path class="cls-1" d="M258.13,24.44a1.22,1.22,0,0,0-1,0,2.62,2.62,0,0,0-1,.86c-.87,1.35,1.53,1.92,3,1.18.84-.42,1.12-.56,1-1a1.42,1.42,0,0,0-1.22-1A4.46,4.46,0,0,1,258.13,24.44Z"/><path class="cls-1" d="M242.25,32.68c.81,1.08,3.08,1.45,3,.14a.88.88,0,0,0,0-.21,2.69,2.69,0,0,0-2.06-1.82,1.86,1.86,0,0,0-.84,0C241.49,31,241.78,32.05,242.25,32.68Z"/><path class="cls-1" d="M186.92,54.64c-1,0-.28,1.4.7,1.64s.74-.26,1.75,0a.78.78,0,0,0,.62-.17c.45-.3.83-1.15.28-1.28C188.75,54.23,188.67,54.44,186.92,54.64Z"/><path class="cls-1" d="M131,57.32a2.16,2.16,0,0,0-2.91,1.46c0,.1,0,.2-.05.3a1.88,1.88,0,0,0,0,.33c.1.75,1.42.84,2.13.49l.91-.45c.66-.33,1.11-1.3.56-1.75a2.34,2.34,0,0,0-.43-.26A2,2,0,0,0,131,57.32Z"/><path class="cls-1" d="M111.37,60.15c1.41.64,2.13-1.24,1.3-2.48-.39-.58-1.09-1.12-1.75-.8a1,1,0,0,0-.51.61,2.09,2.09,0,0,0,.78,2.57Z"/><path class="cls-1" d="M40.39,30.81c-1.55-.36-1.54,1.63,0,2.13a5.88,5.88,0,0,0,1.33.29c1.31.1,1.77-1.45.53-1.86-.49-.16-1-.27-1.55-.47Z"/><path class="cls-1" d="M28.06,40.39c-1.28.71-1.65,3-.17,2.82H28a2.53,2.53,0,0,0,2-1.86,1,1,0,0,0-.18-.91A1.46,1.46,0,0,0,28.06,40.39Z"/><path class="cls-1" d="M9.64,24.7a1.77,1.77,0,0,0-1.32.13,2.12,2.12,0,0,0-.91,1c-.56,1.32,1.5,1.81,2.83,1.12a3.9,3.9,0,0,1,.47-.2c.61-.22.87-.53.77-.92a1.45,1.45,0,0,0-1.4-1A2.12,2.12,0,0,1,9.64,24.7Z"/><path class="cls-1" d="M5.2,6.55c-.45-.09-.69.24-1,.54l-.07,0-1.24.62c-.7.35-1.1,1.28-.55,1.81a.91.91,0,0,0,.23.15,5.37,5.37,0,0,0,1.22.35,1.73,1.73,0,0,0,2-1.13c.11-.36.21-.73.32-1.11A1.1,1.1,0,0,0,5.2,6.55Z"/><path class="cls-1" d="M14.33,30.54c.33.11-.05.14.26,0a2.54,2.54,0,0,0,1-.85c.88-1.36-.8-1.93-2.31-1.19-.85.42-1.13.56-1,1a1.38,1.38,0,0,0,1.21,1A4.57,4.57,0,0,1,14.33,30.54Z"/><path class="cls-1" d="M245.71,25.07c-.34,1.18.11,2.13.9,1.91s1-.5,1.12-1.17a2.24,2.24,0,0,1,.07-.44,1.4,1.4,0,0,0-.09-1.1c-.23-.39-.52-.6-.93-.4s-.79.23-.85.42S245.76,24.88,245.71,25.07Z"/><path class="cls-1" d="M213.33,49a2.9,2.9,0,0,0,.43-1,1.34,1.34,0,0,0-.45-1.24c-.79-.62-1.69,0-2,1.17,0,.05,0,.1-.05.16a1.41,1.41,0,0,0,.19,1.18.93.93,0,0,0,.35.33,1.19,1.19,0,0,0,1-.19A1.81,1.81,0,0,0,213.33,49Z"/><path class="cls-1" d="M191,61.1c-1.14,0-.36,1.45.74,1.74a4.26,4.26,0,0,0,.69.15,1.88,1.88,0,0,0,.85,0,1,1,0,0,0,.22-.09c.59-.27.81-1,.3-1.35a2.6,2.6,0,0,0-.88-.39A6.14,6.14,0,0,0,191,61.1Z"/><path class="cls-1" d="M185.44,63.06a.72.72,0,0,0,0-.48,1.65,1.65,0,0,0-2.36-.76,1.28,1.28,0,0,0-.45.34c-.16.25,0,.57.23.82a1.63,1.63,0,0,0,2.17.62A.85.85,0,0,0,185.44,63.06Z"/><path class="cls-1" d="M198,53c-1.35-.33-2.42,0-2.14.73a1.43,1.43,0,0,0,1.37,1,4.29,4.29,0,0,1,.5.07,2,2,0,0,0,1.29-.05c.42-.19.63-.43.39-.79s-.28-.7-.51-.75Z"/><path class="cls-1" d="M190.07,64.65c-.34,1.17.11,2.12.9,1.9s1.06-.5,1.12-1.16a2.22,2.22,0,0,1,.07-.45,1.4,1.4,0,0,0-.09-1.1c-.23-.39-.52-.6-.93-.4s-.79.23-.84.42S190.18,64.25,190.07,64.65Z"/><path class="cls-1" d="M172.58,59.84c-.17.57-.48,1.21-.64,1.84a1.71,1.71,0,0,0,.16,1.4,1,1,0,0,0,1.4.25,1.8,1.8,0,0,0,.49-.83,4.32,4.32,0,0,0,0-1.68A1.22,1.22,0,0,0,172.58,59.84Z"/><path class="cls-1" d="M151,74.33a1,1,0,0,0-.43.56.57.57,0,0,0,0,.46,2.77,2.77,0,0,0,3.09.75.56.56,0,0,0,.25-.35,1.05,1.05,0,0,0-.08-.72c-.09-.19-.18-.37-.32-.41l-2-.5C151.38,74.08,151.2,74.2,151,74.33Z"/><path class="cls-1" d="M92,51.38c-1.16-.29-2.55.39-1.75,1.22l0,0A3.31,3.31,0,0,0,93,53.3c1.17-.33.31-1.6-.87-1.89Z"/><path class="cls-1" d="M36.92,41.82c-.47,1.16-2.58.64-2.36-.59S37.44,40.51,36.92,41.82Z"/><path class="cls-1" d="M22.59,28.49c-.7-.17-1.5-.5-2.27-.65a2.26,2.26,0,0,0-1.34.07c-.59.28-.78.95-.26,1.34a2.52,2.52,0,0,0,.88.39,6.46,6.46,0,0,0,1.92.05A1,1,0,0,0,22.59,28.49Z"/><path class="cls-1" d="M8.68,11.41C7.07,11,5.38,12.64,7,12.94A6.71,6.71,0,0,0,8.21,13a1.05,1.05,0,0,0,.47,0,2.08,2.08,0,0,0,.33-.2.48.48,0,0,0,.26-.5,1.5,1.5,0,0,0-.22-.59A.72.72,0,0,0,8.68,11.41Z"/><path class="cls-1" d="M251.06,26.56a.58.58,0,0,0-.29.09c-.41.2-.62.68-.31,1a.87.87,0,0,0,.64.28.65.65,0,0,0,.3-.09.64.64,0,0,0,.3-1A.86.86,0,0,0,251.06,26.56Z"/><path class="cls-1" d="M256.2,20.25a1,1,0,0,0,.37.32.91.91,0,0,0,.61,0,.65.65,0,0,0,.28-1,.84.84,0,0,0-.21-.21.93.93,0,0,0-.86,0,.52.52,0,0,0-.24.85Z"/><path class="cls-1" d="M255.27,27.05a.79.79,0,0,0-.29.08c-.41.2-.62.68-.31,1a.84.84,0,0,0,.65.28.79.79,0,0,0,.29-.08c.41-.21.62-.68.3-1A.82.82,0,0,0,255.27,27.05Z"/><path class="cls-1" d="M264,26.17a.86.86,0,0,0,.41-.1.6.6,0,0,0,.28-.93.77.77,0,0,0-1-.21c-.41.2-.7.66-.38,1A1,1,0,0,0,264,26.17Z"/><path class="cls-1" d="M15,34.72a3.9,3.9,0,0,0,.75-.29c.12-.18-.25-.52-.36-.75a.8.8,0,0,0-1.12-.26.74.74,0,0,0-.28.21.62.62,0,0,0,0,.62A.78.78,0,0,0,15,34.72Z"/><path class="cls-1" d="M255.55,14.53a.79.79,0,0,0-.27.21.62.62,0,0,0,0,.62.82.82,0,0,0,1.12.26.74.74,0,0,0,.28-.21.62.62,0,0,0,0-.62A.81.81,0,0,0,255.55,14.53Z"/><path class="cls-1" d="M82.23,55.78a.59.59,0,0,0-.12-.31.82.82,0,0,0-1.12-.3.69.69,0,0,0-.32.55.63.63,0,0,0,.12.31.83.83,0,0,0,1.12.29A.61.61,0,0,0,82.23,55.78Z"/><path class="cls-1" d="M178.55,67.18a.76.76,0,0,0,.13.31.8.8,0,0,0,1.11.29.65.65,0,0,0,.33-.54.74.74,0,0,0-.12-.31.83.83,0,0,0-1.12-.29A.65.65,0,0,0,178.55,67.18Z"/><path class="cls-1" d="M8.46,33.1a.65.65,0,0,0,.3-.09.64.64,0,0,0,.3-1,.85.85,0,0,0-.6-.28,1,1,0,0,0-.38.11c-.41.2-.67.65-.35,1A1.12,1.12,0,0,0,8.46,33.1Z"/><path class="cls-1" d="M242.17,25.92a.8.8,0,0,0,.3-.09.64.64,0,0,0,.3-1,.85.85,0,0,0-.6-.28.73.73,0,0,0-.38.11c-.41.2-.67.65-.34,1A1.06,1.06,0,0,0,242.17,25.92Z"/><path class="cls-1" d="M62.26,50.41a1.21,1.21,0,0,0-.38-.33.88.88,0,0,0-.62,0,.63.63,0,0,0-.27,1,.58.58,0,0,0,.2.21.88.88,0,0,0,.73,0C62.39,51.18,62.57,50.78,62.26,50.41Z"/><path class="cls-1" d="M225.79,53.44a.68.68,0,0,0,.34-1.17.81.81,0,0,0-.53-.18.79.79,0,0,0-.3.08c-.41.21-.61.68-.3,1A.85.85,0,0,0,225.79,53.44Z"/><path class="cls-1" d="M230.58,46.94a.64.64,0,0,0,.27-.21.62.62,0,0,0,0-.62.82.82,0,0,0-1.13-.26.74.74,0,0,0-.28.21.64.64,0,0,0,0,.62A.83.83,0,0,0,230.58,46.94Z"/><path class="cls-1" d="M221.83,44.64a.7.7,0,0,0,.21.21.87.87,0,0,0,.71,0,.63.63,0,0,0,.27-1,.58.58,0,0,0-.2-.21.89.89,0,0,0-.72-.06A.64.64,0,0,0,221.83,44.64Z"/><path class="cls-1" d="M222.59,56.47a.79.79,0,0,0,.3-.08c.41-.21.61-.68.3-1a.82.82,0,0,0-.64-.28.7.7,0,0,0-.29.08c-.41.21-.62.68-.31,1A.82.82,0,0,0,222.59,56.47Z"/><path class="cls-1" d="M232.12,37.43a.84.84,0,0,0-1.13-.31.66.66,0,0,0-.32.54.63.63,0,0,0,.12.31.82.82,0,0,0,1.12.29.65.65,0,0,0,.33-.54A.67.67,0,0,0,232.12,37.43Z"/><path class="cls-1" d="M214.41,53.56a.59.59,0,0,0,.12.31.82.82,0,0,0,1.12.29.61.61,0,0,0,.32-.54.63.63,0,0,0-.12-.31.83.83,0,0,0-1.12-.29A.64.64,0,0,0,214.41,53.56Z"/><path class="cls-1" d="M211,52a1.07,1.07,0,0,0-.4.1.6.6,0,0,0-.28.94.88.88,0,0,0,.63.32,1,1,0,0,0,.38-.11c.41-.2.71-.66.38-1A1.07,1.07,0,0,0,211,52Z"/><path class="cls-1" d="M203.38,62.08a.79.79,0,0,0-.67.26,3,3,0,0,0-.39.32.62.62,0,0,0,0,.77.74.74,0,0,0,1,.33,3.51,3.51,0,0,0,.69-.42C204.53,62.91,204,62.24,203.38,62.08Z"/><path class="cls-1" d="M93.23,59.81a.65.65,0,0,0,.13.31.81.81,0,0,0,1.11.29.65.65,0,0,0,.33-.54.61.61,0,0,0-.13-.31.8.8,0,0,0-1.11-.29A.65.65,0,0,0,93.23,59.81Z"/><path class="cls-1" d="M84.41,58.5a.71.71,0,0,0-.27.21.62.62,0,0,0,0,.62.81.81,0,0,0,1.12.27.76.76,0,0,0,.28-.22.6.6,0,0,0,0-.61A.82.82,0,0,0,84.41,58.5Z"/><path class="cls-1" d="M194,61.33a.84.84,0,0,0,.21.21.87.87,0,0,0,.71.05.64.64,0,0,0,.28-1,.6.6,0,0,0-.21-.21.86.86,0,0,0-.71-.06A.65.65,0,0,0,194,61.33Z"/><path class="cls-1" d="M185,55.62c-.19,0-.41,0-.68.26a3.89,3.89,0,0,0-.39.32.63.63,0,0,0,0,.77.73.73,0,0,0,1,.32,3,3,0,0,0,.66-.39C186.09,56.48,185.59,55.78,185,55.62Z"/><path class="cls-1" d="M169.09,66.16a1.13,1.13,0,0,0,.37.32.91.91,0,0,0,.61,0,.63.63,0,0,0,.28-1,.53.53,0,0,0-.21-.21.91.91,0,0,0-.85,0,.5.5,0,0,0-.24.84Z"/><path class="cls-1" d="M163.12,78.1a.59.59,0,0,0,.12.31.82.82,0,0,0,1.12.29.63.63,0,0,0,.32-.5.66.66,0,0,0-.15-.39.73.73,0,0,0-1.41.29Z"/><path class="cls-1" d="M160.76,75.77a.9.9,0,0,0,.37-.32.64.64,0,0,0,0-.57.83.83,0,0,0-1.13-.26.74.74,0,0,0-.28.21.64.64,0,0,0,0,.62A.71.71,0,0,0,160.76,75.77Z"/><path class="cls-1" d="M156.77,58.38a1,1,0,0,0-.37-.32.91.91,0,0,0-.61,0,.64.64,0,0,0-.28,1,.7.7,0,0,0,.21.21.93.93,0,0,0,.86,0,.5.5,0,0,0,.24-.84Z"/><path class="cls-1" d="M138.73,93.69a.7.7,0,0,0,.21.21.91.91,0,0,0,.71,0,.64.64,0,0,0,.27-1,.7.7,0,0,0-.21-.21.88.88,0,0,0-.7,0A.63.63,0,0,0,138.73,93.69Z"/><path class="cls-1" d="M129.73,67.13a.83.83,0,0,0-1.13-.31.61.61,0,0,0-.32.54.63.63,0,0,0,.12.31.83.83,0,0,0,1.12.29.61.61,0,0,0,.32-.54A.55.55,0,0,0,129.73,67.13Z"/><path class="cls-1" d="M125.74,62a.79.79,0,0,0-.4.1.59.59,0,0,0-.28.93.85.85,0,0,0,.63.32.73.73,0,0,0,.38-.11c.41-.2.71-.66.38-1A1.07,1.07,0,0,0,125.74,62Z"/><path class="cls-1" d="M118,66a.65.65,0,0,0-.29.09c-.41.2-.62.67-.31,1a.88.88,0,0,0,.65.28.65.65,0,0,0,.29-.09c.41-.2.62-.68.31-1A.88.88,0,0,0,118,66Z"/><path class="cls-1" d="M108.08,69.37a.79.79,0,0,0-.29.08c-.41.21-.62.68-.31,1a.91.91,0,0,0,.65.29,1.08,1.08,0,0,0,.29-.09c.41-.2.62-.68.31-1A.84.84,0,0,0,108.08,69.37Z"/><path class="cls-1" d="M105.32,62.12a.53.53,0,0,0,.21.21.86.86,0,0,0,.71.06.64.64,0,0,0,.27-1,.53.53,0,0,0-.21-.21.86.86,0,0,0-.71-.06A.64.64,0,0,0,105.32,62.12Z"/><path class="cls-1" d="M104,56.68a.93.93,0,0,0,.21,1.15l0,0a4.75,4.75,0,0,0,.4.38.87.87,0,0,0,.87,0c.46-.21.61-.5.34-.9s-.53-.79-1-.83C104.55,56.48,104.17,56.46,104,56.68Z"/><path class="cls-1" d="M98.45,67.4a.64.64,0,0,0,.31-1,.89.89,0,0,0-.69-.34.8.8,0,0,0-.3.09.64.64,0,0,0-.3,1,.9.9,0,0,0,.52.28A1.42,1.42,0,0,0,98.45,67.4Z"/><path class="cls-1" d="M103.8,54.92a1,1,0,0,0-1.17-.25c-.13.08-.13.22-.09.36a1.71,1.71,0,0,0,.56,1c.68.53,1.19.4,1.18-.23a.94.94,0,0,0-.22-.62C104,55.1,103.89,55,103.8,54.92Z"/><path class="cls-1" d="M73.61,53.52c0,.16,0,.36.3.59a4.61,4.61,0,0,0,.4.37.92.92,0,0,0,.88,0c.45-.22.6-.51.33-.9a2.27,2.27,0,0,0-.58-.68A.94.94,0,0,0,73.61,53.52Z"/><path class="cls-1" d="M72,51.42a.85.85,0,0,0,.65,1h0c.58.14,1.21-.23,1.12-.77a1.1,1.1,0,0,0-.6-.8A.85.85,0,0,0,72,51.42Z"/><path class="cls-1" d="M70.9,52a.82.82,0,0,0-.67.26,4.16,4.16,0,0,0-.39.32.62.62,0,0,0,0,.77.73.73,0,0,0,1,.33,2.88,2.88,0,0,0,.69-.42C72.05,52.84,71.53,52.17,70.9,52Z"/><path class="cls-1" d="M66.17,60.15a.9.9,0,0,0-.4.37.64.64,0,0,0,0,.52.81.81,0,0,0,1.13.26.71.71,0,0,0,.27-.21.67.67,0,0,0-.06-.76.65.65,0,0,0-.93-.22Z"/><path class="cls-1" d="M53.28,49.9A.79.79,0,0,0,53,50c-.41.21-.62.68-.3,1a.87.87,0,0,0,.64.29.89.89,0,0,0,.29-.09c.41-.2.62-.68.31-1A.84.84,0,0,0,53.28,49.9Z"/><path class="cls-1" d="M45.56,50.81a.59.59,0,0,0,.12.31.82.82,0,0,0,1.12.3.64.64,0,0,0,.32-.54.56.56,0,0,0-.12-.31.82.82,0,0,0-1.12-.3A.66.66,0,0,0,45.56,50.81Z"/><path class="cls-1" d="M41.85,45.38a1,1,0,0,0-.38-.32.9.9,0,0,0-.61,0,.64.64,0,0,0-.27,1,.6.6,0,0,0,.21.21,1,1,0,0,0,.85,0,.51.51,0,0,0,.24-.85Z"/><path class="cls-1" d="M39.19,38.11a.79.79,0,0,0,.4-.1.59.59,0,0,0,.28-.93.82.82,0,0,0-.63-.32.83.83,0,0,0-.38.1c-.41.21-.71.67-.38,1A1,1,0,0,0,39.19,38.11Z"/><path class="cls-1" d="M31.83,44.85a1,1,0,0,0-.37.32.62.62,0,0,0,0,.56.8.8,0,0,0,1.12.26.64.64,0,0,0,.27-.21.6.6,0,0,0,0-.61A.71.71,0,0,0,31.83,44.85Z"/><path class="cls-1" d="M21,36.28c-.15.11-.33.21-.4.38a.63.63,0,0,0,.05.51.81.81,0,0,0,1.12.27.64.64,0,0,0,.27-.21.67.67,0,0,0-.06-.76.64.64,0,0,0-.92-.23Z"/><path class="cls-1" d="M5.64,22.3A.88.88,0,0,0,4.49,22a.68.68,0,0,0-.36.57.59.59,0,0,0,.12.31.82.82,0,0,0,1.12.3.7.7,0,0,0,.32-.48A.55.55,0,0,0,5.64,22.3Z"/><path class="cls-1" d="M1.37,25.42a.59.59,0,0,0,.12.31A.8.8,0,0,0,2.6,26a.65.65,0,0,0,.33-.5.73.73,0,0,0-.15-.39.78.78,0,0,0-1.07-.33A.78.78,0,0,0,1.37,25.42Z"/><path class="cls-1" d="M3.84,27.73a.71.71,0,0,0,.14.42.76.76,0,0,0,1,.27.68.68,0,0,0,.37-.53.68.68,0,0,0-.15-.4c-.24-.36-.71-.62-1.08-.36A.74.74,0,0,0,3.84,27.73Z"/></svg>